<svg xmlns="http://www.w3.org/2000/svg" viewBox="10 10 540 540">
  <path d="m 307.18266,376.74563 c -1.17976,-2.48855 2.07707,-7.12469 8.82409,-9.59869 5.60128,-2.05394 10.23184,-2.0655 14.33756,0.28419 2.5871,-1.5777 2.07892,-1.47265 2.95479,-1.94328 0.73514,-1.92675 0.73245,-2.6615 0.8599,-3.51082 -2.78644,-2.31142 -3.74174,-1.64498 -4.34876,-2.10638 -5.03581,-3.75953 -11.66881,-1.84557 -14.91248,-1.06461 -4.79781,1.15514 -9.99247,5.97794 -10.63663,9.21093 -0.43615,2.18901 2.56424,8.73196 2.91209,8.73196 z m 18.77401,-31.20009 c -6.92484,-5.42877 -22.82338,-0.34202 -25.51091,9.80892 -2.15354,-1.66259 -3.84411,-6.26159 -2.79253,-8.64495 1.94117,-4.39959 9.25812,-9.03363 15.33577,-10.03461 12.29283,-2.0246 15.29971,1.75591 15.55067,4.43207 0.18515,1.97441 -0.28138,6.54985 -0.83157,7.63797 0,0 -0.66455,-1.79371 -1.75143,-3.1994 z" class="alpha" style="fill:#a05a2c;stroke:#502d16;stroke-miterlimit:9"/>
  <path d="m 314.0362,340.90107 c 0.5473,0.85203 2.42917,0.96565 3.50812,1.07042 5.23048,0.50791 7.483,0.38937 10.02872,4.46363 0.31883,-0.49312 0.6916,-3.56727 0.52132,-5.27823 -0.31192,-3.13416 -6.53644,-4.65376 -13.93113,-3.4681 -2.24599,0.48848 -1.04395,1.79777 -0.12706,3.21228 z m 10.60188,22.98134 c 0.1814,0.20932 0.37189,0.35926 0.5748,0.44674 1.87582,0.80259 3.69049,0.42271 5.73098,1.41746 1.24839,-0.77986 1.02945,-0.69134 1.76041,-0.86236 0.73321,-1.46588 0.60699,-1.99528 0.65793,-2.80147 -1.60109,-0.82272 -2.99974,-1.29699 -4.73522,-1.83771 -1.6548,-0.35715 -2.8338,-0.85082 -3.53639,-1.1463 -1.72234,-0.72614 -1.70592,3.3605 -0.45251,4.78364 z" class="alpha--dark" style="fill:#784421;stroke-width:.5"/>
  <path d="m 270.99344,376.1298 c -0.24,-5.61 -0.58319,-7.84 -6.82319,-8.81 -6.9,-1.08 -18.56,-0.68 -22.3,2.41 -0.31,-2.82 -1.38,-5.14 -1.15,-7.47 5,-3.67 14.34,-4.37 18.02,-4.19 7,0.34 12.8016,2.39 13.35381,6.16 0.37567,2.55 -1.10062,11.9 -1.10062,11.9 z m -31.97319,-20.47 c -0.25,-2.2 -1.26,-4.58 -0.24,-5.86 5.39,-6.68 32.60522,-7.58 35.44043,2.42 1.78216,-2.79 1.81576,-6.7519 1.65576,-8.4019 -2.58079,-4.68429 -10.31619,-7.5481 -19.53619,-7.5581 -16.6,-0.04 -19.64,7.5 -19.6,8.34 0.11,1.94 0.7,8.67 2.28,11.06 z" class="alpha" style="display:inline;opacity:1;fill:#a05a2c;stroke:#502d16;stroke-width:1;stroke-miterlimit:9"/>
  <path d="m 252.92025,343.0698 c -6.14,0.82 -13.95,2.58 -15.59,6.72 -0.12,-0.82 -0.22,-3.95 -0.06,-6.36 3.61,-4.42 11,-6.66 17.28,-6.24 3.64,0.24 -0.1,5.68 -1.63,5.88 z m -11.15,25.01 c -0.38,-1.73 -0.67,-4.6 -0.77,-5.93 a 15.69,15.69 0 0 1 10.87,-3.05 c 2.1,0.25 2.9,5.61 0.52,6.12 -3.84,0.82 -7.4,1.14 -10.62,2.86 z" class="alpha--dark" style="display:inline;opacity:1;fill:#784421;stroke-width:.5"/>
  <path d="m 243.35022,327.04785 c 0.0356,4.68167 3.62453,39.36644 1.77531,41.68329 -1.84886,2.32684 -1.67721,3.5015 -3.08659,3.2612 -1.39939,-0.24066 -4.45675,-2.37387 -5.93296,-5.6337 -1.47586,-3.24983 -3.30064,-13.53173 -4.08921,-18.56699 -0.5414,-3.42299 -2.01213,-7.09327 -2.01459,-8.29394 -0.002,-1.20066 -0.70006,-3.94771 1.7411,-6.78582 2.44115,-2.83811 3.29622,-5.82022 5.17425,-6.75722 1.88803,-0.93736 6.0572,-2.16558 6.43269,1.09318 z" class="alpha" style="fill:#a05a2c;stroke:#502d16"/>
  <path d="m 241.3254,372.1877 c 1.55407,-0.19509 2.22906,-1.47976 3.80048,-3.44657 1.84887,-2.32684 -1.74006,-37.01161 -1.77566,-41.69328 -0.24417,-2.09268 -1.68503,-2.09172 -3.15819,-1.5893 0.50252,0.0623 0.84,0.55063 1.03412,1.79455 0.36364,2.35861 3.45751,34.92957 2.27581,40.2747 -0.0895,0.86371 -2.02196,3.37362 -2.02196,3.37362 0,0 -0.18042,0.55673 -0.15425,1.29627 z" class="alpha--dark" style="fill:#784421;stroke-width:.5"/>
  <path d="m 234.83368,337.47557 c 1.42204,-0.25045 0.97018,1.96692 1.34816,3.03422 0.37834,1.07729 1.26615,4.95832 1.33211,6.2568 0.149,2.79648 0.62999,6.49178 1.02724,8.6691 0.38479,2.10771 1.20996,8.74267 2.33474,9.42332 1.11478,0.681 1.46546,-1.00246 1.36279,-2.48976 -0.13856,-1.93631 -1.02948,-14.95294 -1.30273,-17.58492 -0.48709,-4.71573 -1.53023,-14.96525 -1.69002,-17.50118 -2.05624,1.27352 -1.9872,4.07283 -4.26164,6.81498 l -0.23923,0.30866 c 1.25753,-0.37471 1.07046,1.97337 0.0886,3.06878 z" class="alpha--dark" style="fill:#784421;stroke-width:.5"/>
</svg>
