<?xml version="1.0" encoding="UTF-8" standalone="no"?>
<svg xmlns="http://www.w3.org/2000/svg" id="body_head_oblong" width="560" height="560">
  <path id="path2987-2-5-7-3" d="M268.7 120.4c-2.3 4.4-2.2 9.5-2.2 14.7 0 5-1.3 9.2 1.5 11 2.4 1.7 2.6 7 4 10.6 1.2 2.4 5.6 4.7 7.5 6 2 1.5 5.5 1 7.3 0 4.7-2.7 7-5.4 7.7-7.3.8-2.3 1-6.5 3-9.8 1.8-3 1.2-6.4 1-10.4.5-6.6-1-11.6-2.6-14.6-1.7-3-6-7.4-13.8-7-8.8 0-12.2 4.5-13.5 7z" style="color:#000000;fill:#ffd5d5;fill-opacity:1;stroke:#de8787;stroke-width:1;stroke-linecap:butt;stroke-linejoin:miter;stroke-miterlimit:4;stroke-opacity:1;stroke-dasharray:none;stroke-dashoffset:0;marker:none;visibility:visible;display:inline;overflow:visible;enable-background:accumulate"/>
</svg>
