<?xml version="1.0" encoding="UTF-8" standalone="no"?>
<svg xmlns="http://www.w3.org/2000/svg" id="body_athletic" width="560" height="560">
  <g id="g199088" style="display:inline;enable-background:new">
    <path id="path2302-8" d="M255.6 177.7c-5.8-4.3-16.3-8.3-22.2 1-6.6 10-1 23.3-1.6 32-.2 3.7-.2 27.8-5 36.6-2.6 4.5-6 13-11.7 33.7-3 12-8 20.7-8.7 22.8-.3 1-1 2.7 0 4.2 1.2 1.5 5.4 3.2 6.4 3 1 0 2.2-.7 2.3-2.4.2-2.5 1.4-6.4 11.3-22.3 11.8-19.2 17.2-33 18-35.2.5-2 8.6-26.7 8.3-52" style="color:#000000;fill:#ffd5d5;stroke:#de8787;stroke-width:1;stroke-linecap:butt;stroke-linejoin:miter;stroke-miterlimit:4;stroke-opacity:1;stroke-dasharray:none;stroke-dashoffset:0;marker:none;visibility:visible;display:inline;overflow:visible;enable-background:accumulate"/>
    <path id="path198891" d="M248.3 198.2c-6.8 8.6-5.3 29-6.5 33.2-1.2 4-2.8 6.6-2.8 14.3 0 7.7-7.8 26.4-13 32.4 2-1.6 3.7-3 5.4-5.2-2.4 4-10.8 18.8-15.2 28l2.2-7.3c-4.7 11.5-4.5 14.5-4 16.8.3-.4.6-1 .6-1.7.2-2.5 1.4-6.4 11.3-22.3 11.8-19.2 17.2-33 18-35.2.4-1.5 4.5-14.3 6.8-30.7-.3-8.3-1.5-16-2.7-22z" style="color:#000000;fill:#e9afaf;fill-opacity:1;stroke:none;marker:none;visibility:visible;display:inline;overflow:visible;enable-background:accumulate"/>
  </g>
  <path id="path2280-7-8" d="M242.4 190.3c4.7 11.6-3.5 24.6-2.6 28 1 3.6-.6 14.3 1.3 21.6 4 18-2.5 36.3-2.5 44.3 0 53.3 40.6 62.3 44.8 42.5 1 1 2.7 1.2 3.3 0 17.2 4.7 36.3-6.2 35.4-18-1.2-16-6-26.7-12.3-39-6.2-12.5-10.5-7-8.3-21 2-14 6.8-17 12.7-39 6-22-1.5-26.8-6-26-4.8 1-13.8-1.7-14.7-9-1-7 3.4-22 3.7-31-1.5-2-4.2-2.5-7.3-2.5-7.8 0-18.4 4.6-18.7 4.6 2.2 32.4-10.8 31-17.4 31" style="color:#000000;fill:#ffd5d5;stroke:#de8787;stroke-width:1;stroke-linecap:butt;stroke-linejoin:miter;stroke-miterlimit:4;stroke-opacity:1;stroke-dasharray:none;stroke-dashoffset:0;marker:none;visibility:visible;display:inline;overflow:visible;enable-background:accumulate"/>
  <path id="path2280-6-6-1" d="M238.5 284.3c2.2 15-1.3 34.5-1.3 43 0 21.4 8 54.8 8 61.6 0 14.4 4.8 20.7 7.8 25.4 1 4 7 24 12.2 30.4 8.4 10.8 20.5 33.3 19 41-1.3 7.3-5.3 21-8.8 24-6.7 5.8-6.4 12-1.8 13 9 2.3 15.3-1.6 17.6-12.4 3.5-16.7 7.6-13 11-17 7.8-9 .4-10-4.8-21.4-5-9.2-5.4-15.2-6.6-25.8-1.3-10.6-6.8-24.7-10.3-30-1.8-5-6.4-12.2-6.2-14.4.2-2.2-.7-34.7-.4-45.4 2.5-10 8-25.7 2-39.7" style="color:#000000;fill:#ffd5d5;stroke:#de8787;stroke-width:1;stroke-linecap:butt;stroke-linejoin:miter;stroke-miterlimit:4;stroke-opacity:1;stroke-dasharray:none;stroke-dashoffset:0;marker:none;visibility:visible;display:inline;overflow:visible;enable-background:accumulate"/>
  <path id="path73533" d="M251.6 210.4c-2.4 0-4.6.7-6.3 2.6-2.3 2.5-4 4.8-5.3 7 .3 3.3-.2 9.5.3 15.2 2.8 6 6 7.3 8.2 7 2.3-.3 12-6.5 16.7-20 1.4-4.8-6.6-11.8-13.6-11.8z" style="color:#000000;fill:#e9afaf;fill-opacity:1;stroke:none;marker:none;visibility:visible;display:inline;overflow:visible;enable-background:accumulate"/>
  <path id="path73535" d="M311.8 205c-2.2 0-4.3 1-5.4 3.8-1.6 3.8-17.8 10.7-33 8.7.2 12.4 9.8 25.7 20.6 26.3 10.7.7 10-16.2 10-18 0-2 3.7-6 5-8 .8-1 2-1.2 3-.4l2-7.7c.5-1.3.7-2.6 1-3.8v-.2c-1-.4-2.2-.6-3.2-.7z" style="color:#000000;fill:#e9afaf;fill-opacity:1;stroke:none;marker:none;visibility:visible;display:inline;overflow:visible;enable-background:accumulate"/>
  <path id="path2300-7" d="M306.8 185c5.3-4.2 18.4-5 25.3 18.4 1.5 4.8 8.8 21.2 16.3 30 7.6 8.6 9.3 11.2 9.3 14.4 0 1.4-2.2 8.4-5.2 15.4-4.6 11-12.7 21.3-13.5 23.6-.5 1.4-1.7 1.5-3.3 1-2.2-.7-7.5-3.5-7.2-4.7.4-1.4.7-3 1.3-3.5.5-.6 5.4-7 7.8-15.4 2.2-7.7 2.3-13.3 3.5-16-11-21-25.3-21.2-27.5-43" style="color:#000000;fill:#ffd5d5;stroke:#de8787;stroke-width:1;stroke-linecap:butt;stroke-linejoin:miter;stroke-miterlimit:4;stroke-opacity:1;stroke-dasharray:none;stroke-dashoffset:0;marker:none;visibility:visible;display:inline;overflow:visible;enable-background:accumulate"/>
  <path id="path2280-3" d="M287 325.5c-1.6 10-1.8 22.6-2.8 31.3-1.2 10-10 33.7-5.6 50 1 3.5 1 6 1.7 9.4.7 2.8-.4 10.2-1.7 18-1 6.2-2.8 25-.6 33.2 1 3.4 1 20.8-1 27.8-2.3 7-1.5 7.4-1.4 14.5 0 3.3-2.3 8-3 12-.8 3.2-.2 8.5 3.4 10 7.7 3.2 15.8-3 16.3-5.7.4-2.6-5-17-3.2-20 1-1.5 2.7-3.2 1.6-6-.6-1.5 3.6-18.4 7-28 14.3-41.5 6.6-51.7 5.7-63.8-.8-11 5.3-27.3 8.7-43.5 3.4-16 10.2-39.4 10.2-55.8 0-16.3-6-27-12.3-39.3" style="color:#000000;fill:#ffd5d5;stroke:#de8787;stroke-width:1;stroke-linecap:butt;stroke-linejoin:miter;stroke-miterlimit:4;stroke-opacity:1;stroke-dasharray:none;stroke-dashoffset:0;marker:none;visibility:visible;display:inline;overflow:visible;enable-background:accumulate"/>
  <path id="path2302-4-5" d="M207.6 342.2c.5 3.6 3 3.6 3 .7 0-1.4-1-4.4-2.4-6.6.4-.5-1.4-3.2 0-3.6 1.4-.4 5 .4 5.5 0 1.6-.5 3.4-.7 4-.7 1.8 0 1.2-2.2-.4-2-1 0-2.7-.7-4.6 0-.4-.7-2-1.2-3.8-1-5.3 3.4-2 10.2-1.4 13.2z" style="color:#000000;fill:#ffd5d5;stroke:#de8787;stroke-width:1;stroke-linecap:butt;stroke-linejoin:miter;stroke-miterlimit:4;stroke-opacity:1;stroke-dasharray:none;stroke-dashoffset:0;marker:none;visibility:visible;display:inline;overflow:visible;enable-background:accumulate"/>
  <path id="path2302-4-1-9" d="M206.3 303.8c-.8 2-2 13.5-3 19.3 0 1.2.6 11 .8 11.4 1 3 .8 7.5 1 9 0 2 2.3 1.6 3.3-2 .4-1.8 0-3-.2-4 .7-1.8 1-4.8.6-5.5.6-1.4 2-3 1.8-3.6 1.6-1 .4-3 2.3-4 1-.7 2.4 1.2 2.5 3 0 1.5 1 2.8 1.5 5 .7 2.8 3.4 3.3 4 .2.3-2.2-.7-6.4-2-7.6-.3-1-.2-2.4 0-3.5.2-2 1.4-7-5.4-13.3" style="color:#000000;fill:#ffd5d5;stroke:#de8787;stroke-width:1;stroke-linecap:butt;stroke-linejoin:miter;stroke-miterlimit:4;stroke-opacity:1;stroke-dasharray:none;stroke-dashoffset:0;marker:none;visibility:visible;display:inline;overflow:visible;enable-background:accumulate"/>
  <path id="path6239-5" d="M243.7 202.2c-.8 9-5.4 11.3-5.5 15.4-.2 4 1.5 14.5 10 15.8 8.3 1.3 27.2-11.3 12.5-29.8" style="fill:#ffd5d5;stroke:#de8787;stroke-width:0.94118547px;stroke-linecap:round;stroke-linejoin:round;stroke-opacity:1;display:inline;enable-background:new"/>
  <path id="path6241-3" d="M310.4 204.6c-2 4.5-4 5.7-4.4 8.7-.6 3 1 21-12.8 20.7-17-.6-29.3-20-10.2-31.7" style="fill:#ffd5d5;stroke:#de8787;stroke-width:0.94118547px;stroke-linecap:round;stroke-linejoin:round;stroke-opacity:1;display:inline;enable-background:new"/>
  <path id="path198893" d="M322 305.8c-2.5 16.4-7.7 43.5-13 56.4 2.4-11 4.3-31 3.4-36.6-.5 26.5-10 50-18.3 64.5 5.4-6 8.7-12.4 12.6-20-4.3 20-4.8 29.8-9.2 32.7-4.3 2.8-4.3 5.3-4.8 7.7-.5 2.4.5 6.7-3.4 7.7 5.3.6 5.8-2.8 6.8-6.2 1-3.4 2.4-3.4 3.8-4.3 1.5-1 1 6.2 2 9 1 3 6.6 23.4-4 45-2.2 4.6-9 37.5-7.6 40 1.4 2.3-4.3-.6-1.4 9.6v.3c-.3-2.4-.4-4.4.2-5.3 1-1.4 2.5-3.2 1.4-6-.6-1.5 3.6-18.4 7-28 14.4-41.5 6.6-51.7 5.7-63.8-.7-11 5.4-27.3 9-43.4 3.3-16 10-39.5 10-56v-3z" style="color:#000000;fill:#e9afaf;fill-opacity:1;stroke:none;marker:none;visibility:visible;display:inline;overflow:visible;enable-background:accumulate"/>
  <path id="path198895" d="M298.4 420c.3 12-2.5 30.2-11.6 61.2 6-25.5 10.2-42.3 11.6-61.2z" style="color:#000000;fill:#e9afaf;fill-opacity:1;stroke:none;marker:none;visibility:visible;display:inline;overflow:visible;enable-background:accumulate"/>
  <path id="path198897" d="M277.2 319.8c2.6 15.7-3.3 35.3-5.2 28.5-1.7-6-3.4-11.5-5.4-15.5 8.7 33.4 6 69.2 5 63-1-6.3-3-18-4.6-24.3 1 8.7 5 28.6-.6 28.7-8.2 0-10.2-28.2-12.3-42.6.2 9.8-1.2 22.6-4 22-3.5-.8-11-26.8-12.6-56.8l-.2 4.6c0 21.3 8 54.7 8 61.5 0 14.4 4.8 20.7 7.8 25.4.4 1.7 1.8 6.4 3.6 11.6 1-9.7 6.7 3 12.4 12.8-7.7-21.5-4.7-33.4 1-13-2-11 1.4-19.3 10.4-10-2-5-6.3-11.8-6-14 0-2.2-.8-34.7-.6-45.4 2.4-9 7-21.8 4-34.3v-.5l-.6-1.7zm-30 71c3.8 15.5 4.5 9 9.7 20.3 1.2 3 1.5 5.5 3.3 8-6.8-3.8-5.7-7.2-7.7-8.2-3-1.5-5.2-8.5-5.5-20z" style="color:#000000;fill:#e9afaf;fill-opacity:1;stroke:none;marker:none;visibility:visible;display:inline;overflow:visible;enable-background:accumulate"/>
  <path id="path198901" d="M310.2 204.8c-3.3 1.6-5.2 4.5-5.2 8.7 0 4.8-2 13-6.2 9.2-4-3.7-8.8-4.4-13-1.7-4 2.7-8.6 3.4-12.4-5.5-.8 9.3 8.4 18 19.8 18.5 13.7.4 12.2-17.6 12.8-20.7.5-3 2.4-4 4.2-8.5z" style="color:#000000;fill:#e9afaf;fill-opacity:1;stroke:none;marker:none;visibility:visible;display:inline;overflow:visible;enable-background:accumulate"/>
  <path id="path198903" d="M238.6 215.7c-.3.6-.4 1.2-.4 2-.2 4 1.5 14.4 10 15.7 6 1 17-5 18-15.4-6.2 10-12.7 8.7-15.4 4-2.7-4.7-6-8.5-9.5-2.3-2.7 4.8-3-.5-2.7-4z" style="color:#000000;fill:#e9afaf;fill-opacity:1;stroke:none;marker:none;visibility:visible;display:inline;overflow:visible;enable-background:accumulate"/>
  <path id="path198887" d="M326 190.2c1 1.8 1.8 3.8 2.2 6 .8 5.4 2.6 10.4 4 11.7 1.5 1.2 4 5.8 5 10.8 1.3 5 11.3 20.3 15 22.4 4 2 3.8 3 2.6 7.3-1.3 4.3-6.4 12.8-11 18.2 2-1.7 6.6-6.4 8-9-4.3 15.4-12 23.8-13 26.7-.8 2.8-1.5 2-1.7 3.7 1 0 1.6-.2 2-1.2.7-2.3 8.8-12.7 13.4-23.6 3-7 5.2-14 5.2-15.4 0-3.2-1.7-5.8-9.3-14.5-7.5-8.7-14.8-25-16.2-30-1.6-5.6-3.7-10-6-13z" style="color:#000000;fill:#e9afaf;fill-opacity:1;stroke:none;marker:none;visibility:visible;display:inline;overflow:visible;enable-background:accumulate"/>
  <path id="path198889" d="M318.8 220.6c5.7 8.4 14.7 13 22.3 27.5-.4 1.3-.8 3-1 5.2 1.4-.4 3.2 1.5 2.3 6 1-3.7 3.3-12 5.2-12.6-5.8-.5-9-9.4-13.2-12-3.8-2.4-9.4-6.5-15.5-14z" style="color:#000000;fill:#e9afaf;fill-opacity:1;stroke:none;marker:none;visibility:visible;display:inline;overflow:visible;enable-background:accumulate"/>
  <path id="path199136" d="M289.8 141.3c-8 0-18.5 4.6-18.8 4.6.5 6.4.3 11.5-.3 15.6.4 4 1 7.6 1 10 0-7.8-.3-9.7 1.2-10.2s3.6 18.2 4.4 20.6c-.5-7-.5-18.3 0-15.3 1.6 8 7.5 1.8 8.2 1.2 2.2-4 3.8-7 5.8-7 2.2 0-1.5 11.2-3 15 2.4-6.2 4.8-15.5 5.3-10 1-7.2 3-16 3.3-22.2-1.5-2-4.2-2.5-7.3-2.5zm-4.2 26.6s-.2 0-.3.3l.3-.4z" style="color:#000000;fill:#e9afaf;fill-opacity:1;stroke:none;marker:none;visibility:visible;display:inline;overflow:visible;enable-background:accumulate"/>
  <path id="path6239-5-6" d="M253.7 176c-.4 0-.5.6 0 .8 3.6 2.2 12 5.6 18 5.5 1 0 2.3 0 3 .2 1.6.2 2.3 1.5 2.6 2-.3-1-1-2-2-2.3-1-.3-2-.4-3-.4-5.3 0-14.8-3.8-18.3-5.8h-.3z" style="font-size:medium;font-style:normal;font-variant:normal;font-weight:normal;font-stretch:normal;text-indent:0;text-align:start;text-decoration:none;line-height:normal;letter-spacing:normal;word-spacing:normal;text-transform:none;direction:ltr;block-progression:tb;writing-mode:lr-tb;text-anchor:start;baseline-shift:baseline;color:#000000;fill:#de8787;fill-opacity:1;stroke:none;stroke-width:0.94118547px;marker:none;visibility:visible;display:inline;overflow:visible;enable-background:new;font-family:Sans;-inkscape-font-specification:Sans"/>
  <path id="path6239-5-6-5" d="M281.6 183c-1 .3-1.7 1-2.3 2 1-1.3 1.5-1 2.4-1.5.5-.2 1.8.2 2.8.5 3 1 7.5 1.4 12 1.4s8.8-.4 11-1c0 0 .3-.3.3-.5 0-.4-.4-.5-.6-.4-2 .4-6.2.8-10.7.8-4.4 0-9-.2-12-1-1-.4-2-.5-3-.3z" style="font-size:medium;font-style:normal;font-variant:normal;font-weight:normal;font-stretch:normal;text-indent:0;text-align:start;text-decoration:none;line-height:normal;letter-spacing:normal;word-spacing:normal;text-transform:none;direction:ltr;block-progression:tb;writing-mode:lr-tb;text-anchor:start;baseline-shift:baseline;color:#000000;fill:#de8787;fill-opacity:1;stroke:none;stroke-width:0.94118547px;marker:none;visibility:visible;display:inline;overflow:visible;enable-background:new;font-family:Sans;-inkscape-font-specification:Sans"/>
  <path id="path2280-7-8-1" d="M260 298.4c6.4 5 18.2 15.3 19 29.3 1.5-1.2 2.7 1.4 2.6 3.4.7-1 1.3-2.5 1.7-4.2 1 1 2.7 1 3.4 0 1.2-6 3.4-16 6-20.6-3.7 5-3.7 11.2-5.7 13.8-1 1.4-2.3 1.2-3 .8-.5-.3-1.7-.8-2.4 0-.7.6-2.2.6-5.3-5.4-3-5.8-12-14.4-16.4-17z" style="color:#000000;fill:#e9afaf;fill-opacity:1;stroke:none;marker:none;visibility:visible;display:inline;overflow:visible;enable-background:accumulate"/>
  <path id="path73512" d="M241 239v1c2 9 1.5 18 .3 25.7 5-6.7 12.2 9.3 13.3 10.2 1.3 1 6.3 10.5 10.2 14.4-3.6-6.5-4.7-7.5-6-11.2-1.7-4.3 1.5-8.8-.4-12-3.5-6.2 0-8.2-2-11.2-1.7-2.8-2.6-9.8-.7-11 2-1.5 3-5-.6-4-6.2 1.5-12.4-.2-14-2z" style="color:#000000;fill:#e9afaf;fill-opacity:1;stroke:none;marker:none;visibility:visible;display:inline;overflow:visible;enable-background:accumulate"/>
  <path id="path73486" d="M272.5 275.3c1.2 0 1.7.4 2 .7 1 1-1.5 4 1.4 4 2.8 0 2.8-5-3.5-4.7zm3.7 1.4c.4 0 .8.4 1 .7.6.8-3 1.8-2.2.2.4-.7.8-1 1.2-1z" style="color:#000000;fill:#e9afaf;fill-opacity:1;stroke:none;marker:none;visibility:visible;display:inline;overflow:visible;enable-background:accumulate"/>
  <path id="path73606" d="M308.7 226.4c-2.3 4.7-4 9.5-6 11-2.5 1.8-3.6 4.2-5.8 5-4.7 2-10 2.3-13.3-.3-3.3-2.5-5-2-7.5-2.4-2.6-.3-.3 2 1.6 2.3 6 .5 8.4 7.7 6.5 11.6-1.3 2.7 4.6 3 3 11.4-.6 3.4 1 2 2-2.6.4-2.6-.4-7.5 2-8.8 2-1.3 3.8-1 5-2.6.7-1-2 .6-4-1-2-1.5 1.4-1 3.4-1 1.5 0 2.6-.3 3.5-1.6 1-1.3-1 .2-3 0-2-.4 2-1.4 3.7-2.7.7-.6.8 4.2 1 4.4 2-8.6 4.3-14.2 6-18.6 0-1.6 2-3.2 1.7-4z" style="color:#000000;fill:#e9afaf;fill-opacity:1;stroke:none;marker:none;visibility:visible;display:inline;overflow:visible;enable-background:accumulate"/>
  <path id="path73983" d="M240 284.5c-.6 0-1 .4-1.5 1 0 3.6.3 7.2.7 10.5 0 7.5-.8 15-1.4 21.2 2.2-8 4.7-13.4 5.7-15.4 1.2-2.3 2.4-10.7.4-14.2-1-1.8-2.7-3.2-4-3z" style="color:#000000;fill:#e9afaf;fill-opacity:1;stroke:none;marker:none;visibility:visible;display:inline;overflow:visible;enable-background:accumulate"/>
</svg>
