<?xml version="1.0" encoding="UTF-8" standalone="no"?>
<!-- Created with Inkscape (http://www.inkscape.org/) -->

<svg
   xmlns:dc="http://purl.org/dc/elements/1.1/"
   xmlns:cc="http://creativecommons.org/ns#"
   xmlns:rdf="http://www.w3.org/1999/02/22-rdf-syntax-ns#"
   xmlns:svg="http://www.w3.org/2000/svg"
   xmlns="http://www.w3.org/2000/svg"
   version="1.1"
   width="560"
   height="560"
   id="body_face">
  <path
     d="m 272.27525,138.89699 c 1.21511,-1.5287 4.42928,-1.9207 6.46753,0.196 -0.57317,-1.16328 -4.02094,-3.17448 -6.46753,-0.196 z"
     id="path3052"
     style="fill:#e9afaf;fill-opacity:1;stroke:none;display:inline;enable-background:new" />
  <path
     d="m 292.54017,138.23059 c -1.21511,-1.5287 -4.27249,-1.5287 -6.31074,0.588 l 0.067,0.0141 c 1.72389,-2.42164 4.84329,-2.62686 6.24369,-0.6021 l 5e-5,0 z"
     id="path3052-3"
     style="fill:#e9afaf;fill-opacity:1;stroke:none;display:inline;enable-background:new" />
  <path
     d="m 272.51043,140.50409 c 1.84227,1.0583 3.95891,2.0382 6.11475,-0.196 -0.78394,1.40605 -3.25336,2.6462 -6.11475,0.196 z"
     id="path3866"
     style="fill:#e9afaf;stroke:none;display:inline;enable-background:new" />
  <path
     d="m 292.47617,140.08689 c -1.41325,1.3556 -3.76974,2.3285 -6.00029,0.1688 0.83279,1.29501 3.58794,2.62568 6.00029,-0.1688 z"
     id="path3866-5"
     style="fill:#e9afaf;stroke:none;display:inline;enable-background:new" />
</svg>
