<?xml version="1.0" encoding="UTF-8" standalone="no"?>
<!-- Created with Inkscape (http://www.inkscape.org/) -->

<svg
   xmlns:dc="http://purl.org/dc/elements/1.1/"
   xmlns:cc="http://creativecommons.org/ns#"
   xmlns:rdf="http://www.w3.org/1999/02/22-rdf-syntax-ns#"
   xmlns:svg="http://www.w3.org/2000/svg"
   xmlns="http://www.w3.org/2000/svg"
   version="1.1"
   width="560"
   height="560"
   id="body_head_oblong">
<path
     d="m 268.74652,120.38978 c -2.32229,4.37797 -2.21601,9.48234 -2.21601,14.75858 0.11294,4.84318 -1.29345,9.03445 1.44923,10.92306 2.43541,1.67703 2.57574,6.95892 4.1165,10.48072 1.06749,2.44004 5.4818,4.78463 7.35605,6.05231 2.16833,1.46663 5.56019,0.91693 7.38669,-0.10553 4.65977,-2.60847 7.0984,-5.27874 7.70327,-7.17566 0.72548,-2.27515 0.85281,-6.56166 2.85997,-9.79863 1.86078,-3.00088 1.3249,-6.41805 1.23697,-10.46203 0.31658,-6.64803 -1.16408,-11.70133 -2.71688,-14.62171 -1.64409,-3.09206 -5.83592,-7.39428 -13.73614,-7.18277 -8.7448,0.23413 -12.14078,4.68304 -13.43965,7.13166 z"
     id="path2987-2-5-7-3"
     style="color:#000000;fill:#ffd5d5;fill-opacity:1;stroke:#de8787;stroke-width:1;stroke-linecap:butt;stroke-linejoin:miter;stroke-miterlimit:4;stroke-opacity:1;stroke-dasharray:none;stroke-dashoffset:0;marker:none;visibility:visible;display:inline;overflow:visible;enable-background:accumulate" />
</svg>
