<?xml version="1.0" encoding="UTF-8" standalone="no"?>
<!-- Created with Inkscape (http://www.inkscape.org/) -->

<svg
   xmlns:dc="http://purl.org/dc/elements/1.1/"
   xmlns:cc="http://creativecommons.org/ns#"
   xmlns:rdf="http://www.w3.org/1999/02/22-rdf-syntax-ns#"
   xmlns:svg="http://www.w3.org/2000/svg"
   xmlns="http://www.w3.org/2000/svg"
   version="1.1"
   width="560"
   height="560"
   id="body_athletic">
  <metadata
     id="metadata91487">
    <rdf:RDF>
      <cc:Work
         rdf:about="">
        <dc:format>image/svg+xml</dc:format>
        <dc:type
           rdf:resource="http://purl.org/dc/dcmitype/StillImage" />
        <dc:title></dc:title>
      </cc:Work>
    </rdf:RDF>
  </metadata>
  <defs
     id="defs91485" />
  <g
     transform="translate(-245.5625,-2413.7841)"
     id="g199088"
     style="display:inline;enable-background:new">
    <path
       d="m 501.11293,2591.4603 c -5.79206,-4.3077 -16.22519,-8.2534 -22.14693,0.9233 -6.55729,10.1613 -1.06026,23.3889 -1.61401,32.2494 -0.22135,3.541 -0.18893,27.6124 -5.09019,36.4333 -2.50676,4.5114 -5.90041,12.9269 -11.55739,33.7219 -3.25847,11.9784 -8.08893,20.696 -8.80338,22.7553 -0.34972,1.0081 -1.11587,2.7187 0.0326,4.2221 1.13674,1.4883 5.3747,3.2368 6.37664,3.1285 0.82857,-0.089 2.20138,-0.8371 2.2869,-2.5109 0.1268,-2.4812 1.33248,-6.4069 11.22211,-22.3233 11.88904,-19.1344 17.26234,-32.9756 17.9263,-35.1888 0.66395,-2.2131 8.70053,-26.7992 8.38751,-52.1509"
       id="path2302-8"
       style="color:#000000;fill:#ffd5d5;stroke:#de8787;stroke-width:1;stroke-linecap:butt;stroke-linejoin:miter;stroke-miterlimit:4;stroke-opacity:1;stroke-dasharray:none;stroke-dashoffset:0;marker:none;visibility:visible;display:inline;overflow:visible;enable-background:accumulate" />
    <path
       d="m 248.28125,199.15625 c -6.74523,8.6724 -5.29549,29.12345 -6.5,33.21875 -1.2045,4.0953 -2.75,6.63495 -2.75,14.34375 0,7.7088 -7.84733,26.38375 -12.90625,32.40625 1.92721,-1.6863 3.59494,-3.1444 5.28125,-5.3125 -2.40901,3.8544 -10.82003,18.7833 -15.15625,27.9375 0.4818,-1.4454 0.71084,-2.88255 2.15625,-7.21875 -4.75292,11.44217 -4.48643,14.51044 -4.09375,16.75 0.38415,-0.40137 0.68085,-0.9457 0.71875,-1.6875 0.1268,-2.4812 1.32912,-6.3961 11.21875,-22.3125 11.88904,-19.1344 17.27354,-32.9743 17.9375,-35.1875 0.47048,-1.56822 4.62593,-14.40183 6.90625,-30.75 -0.4419,-8.38615 -1.56101,-15.93005 -2.8125,-22.1875 z"
       transform="translate(245.5625,2412.7841)"
       id="path198891"
       style="color:#000000;fill:#e9afaf;fill-opacity:1;stroke:none;marker:none;visibility:visible;display:inline;overflow:visible;enable-background:accumulate" />
  </g>
  <path
     d="m 242.43745,190.2617 c 4.68062,11.6098 -3.49901,24.6069 -2.62014,28.1228 0.87897,3.5157 -0.64597,14.243 1.31012,21.5433 3.95531,18.0186 -2.65675,36.4083 -2.6493,44.3677 0.0494,53.2734 40.59465,62.2901 44.80392,42.5443 1.15183,1.0411 2.66942,1.1167 3.36784,-0.078 17.12438,4.7733 36.253,-6.1758 35.35242,-17.8364 -1.25217,-16.2124 -6.04126,-26.7843 -12.25646,-39.2147 -6.21511,-12.4303 -10.55973,-6.8313 -8.38444,-20.8155 2.17539,-13.9842 6.81785,-17.0926 12.72227,-39.1565 5.90441,-22.0638 -1.53966,-26.726 -6.20104,-25.7938 -4.66137,0.9323 -13.68219,-1.8484 -14.61454,-8.9958 -0.93226,-7.1474 3.41573,-22.0802 3.72642,-31.0923 -1.50007,-1.9095 -4.16548,-2.5749 -7.249,-2.5619 l 0,-7e-4 c -7.88007,0.034 -18.40356,4.5706 -18.71947,4.5706 2.19747,32.5215 -10.81969,30.9956 -17.4119,30.9956"
     id="path2280-7-8"
     style="color:#000000;fill:#ffd5d5;stroke:#de8787;stroke-width:1;stroke-linecap:butt;stroke-linejoin:miter;stroke-miterlimit:4;stroke-opacity:1;stroke-dasharray:none;stroke-dashoffset:0;marker:none;visibility:visible;display:inline;overflow:visible;enable-background:accumulate" />
  <path
     d="m 238.47813,284.2955 c 2.19747,14.9422 -1.2939,34.4595 -1.31002,43.0866 -0.041,21.3653 8.12238,54.72 8.12238,61.4859 0,14.5067 4.67534,20.8557 7.71489,25.5317 0.87897,3.9554 7.09128,23.971 12.16927,30.4158 8.46995,10.75 20.54755,33.3007 19.06909,41.0405 -1.38222,7.2363 -5.32532,20.8221 -8.82164,23.8877 -6.69078,5.8664 -6.40217,12.0161 -1.83404,13.1298 8.97377,2.1878 15.31575,-1.6463 17.58402,-12.5039 3.48038,-16.6595 7.63133,-12.9624 11.03364,-16.8708 7.79641,-8.956 0.44112,-10.1168 -4.83269,-21.5433 -5.05377,-9.1748 -5.36669,-15.1216 -6.61868,-25.7629 -1.25189,-10.6414 -6.76205,-24.6668 -10.26665,-30.0169 l 0,0 c -1.77051,-5.0902 -6.42229,-12.1686 -6.20103,-14.3817 0.22134,-2.2131 -0.658,-34.7345 -0.43665,-45.3575 2.65573,-10.1803 8.23883,-25.7078 2.2829,-39.7798"
     id="path2280-6-6-1"
     style="color:#000000;fill:#ffd5d5;stroke:#de8787;stroke-width:1;stroke-linecap:butt;stroke-linejoin:miter;stroke-miterlimit:4;stroke-opacity:1;stroke-dasharray:none;stroke-dashoffset:0;marker:none;visibility:visible;display:inline;overflow:visible;enable-background:accumulate" />
  <path
     d="m 251.5625,210.375 c -2.3304,-0.0203 -4.54409,0.72535 -6.25,2.59375 -2.34563,2.56902 -4.08749,4.79563 -5.28125,6.9375 0.27175,3.43988 -0.25515,9.62976 0.28125,15.25 2.74515,5.94346 6.12619,7.38828 8.1875,7.09375 2.27455,-0.3249 12.10715,-6.5402 16.65625,-20.1875 1.46221,-4.63028 -6.60256,-11.6266 -13.59375,-11.6875 z"
     id="path73533"
     style="color:#000000;fill:#e9afaf;fill-opacity:1;stroke:none;marker:none;visibility:visible;display:inline;overflow:visible;enable-background:accumulate" />
  <path
     d="m 311.78125,205.125 c -2.22084,-0.0646 -4.25803,0.9443 -5.375,3.625 -1.62468,3.8992 -17.85304,10.73085 -33.125,8.78125 0.32493,12.3475 9.96463,25.6626 20.6875,26.3125 10.72287,0.6498 10.15625,-16.2379 10.15625,-18.1875 0,-1.9496 3.57526,-5.8629 4.875,-7.8125 0.79204,-1.18804 2.07354,-1.27428 2.875,-0.4375 0.71853,-2.28325 1.45543,-4.80385 2.21875,-7.65625 0.35975,-1.34431 0.64196,-2.62597 0.90625,-3.84375 -0.0431,-0.0249 -0.0781,-0.075 -0.125,-0.0937 -1.01542,-0.40619 -2.08428,-0.65815 -3.09375,-0.6875 z"
     id="path73535"
     style="color:#000000;fill:#e9afaf;fill-opacity:1;stroke:none;marker:none;visibility:visible;display:inline;overflow:visible;enable-background:accumulate" />
  <path
     d="m 306.84157,185.1421 c 5.22332,-4.3528 18.38624,-5.254 25.24629,18.2817 1.39638,4.7911 8.70556,21.1837 16.25044,29.8893 7.54487,8.7056 9.28595,11.3173 9.28595,14.5093 0,1.334 -2.2188,8.4034 -5.18466,15.4224 -4.60417,10.8964 -12.72888,21.2669 -13.49391,23.5841 -0.45155,1.3679 -1.67913,1.4937 -3.23649,0.9801 -2.24833,-0.7415 -7.52373,-3.5093 -7.21024,-4.7526 0.36193,-1.4347 0.68696,-3.0232 1.26735,-3.6036 0.58039,-0.5804 5.46134,-7.0546 7.83507,-15.3799 2.2297,-7.8202 2.27107,-13.3446 3.48225,-15.9603 -11.10612,-21.0759 -25.36246,-21.3578 -27.56776,-43.1875"
     id="path2300-7"
     style="color:#000000;fill:#ffd5d5;stroke:#de8787;stroke-width:1;stroke-linecap:butt;stroke-linejoin:miter;stroke-miterlimit:4;stroke-opacity:1;stroke-dasharray:none;stroke-dashoffset:0;marker:none;visibility:visible;display:inline;overflow:visible;enable-background:accumulate" />
  <path
     d="m 287.03616,325.5188 c -1.60534,10.1052 -1.82957,22.6159 -2.81679,31.2894 -1.22609,10.021 -9.9991,33.6461 -5.5751,50.0805 0.91484,3.3984 0.99477,6.0441 1.6958,9.287 0.61561,2.8475 -0.42667,10.2063 -1.6958,18.0183 -1.00464,6.1843 -2.79975,25.0884 -0.62594,33.1762 0.91968,3.4217 1.07665,20.8436 -1.12081,27.8754 -2.19738,7.0316 -1.43384,7.3449 -1.31003,14.4981 0.0559,3.2142 -2.24973,7.8383 -3.08593,11.8779 -0.68278,3.2983 -0.11208,8.624 3.52258,10.102 7.7243,3.1412 15.80541,-3.0691 16.24485,-5.706 0.43953,-2.6368 -5.09877,-16.9903 -3.12237,-20.0298 0.93673,-1.4405 2.54337,-3.1964 1.45843,-5.9624 -0.61272,-1.5618 3.5876,-18.4156 6.93337,-28.0699 14.37717,-41.4861 6.6741,-51.6152 5.73514,-63.7276 -0.79615,-10.8784 5.33409,-27.3426 8.7745,-43.4841 3.38955,-15.9028 10.11964,-39.4885 10.11964,-55.8191 0,-16.2607 -6.04126,-26.7843 -12.25646,-39.2147"
     id="path2280-3"
     style="color:#000000;fill:#ffd5d5;stroke:#de8787;stroke-width:1;stroke-linecap:butt;stroke-linejoin:miter;stroke-miterlimit:4;stroke-opacity:1;stroke-dasharray:none;stroke-dashoffset:0;marker:none;visibility:visible;display:inline;overflow:visible;enable-background:accumulate" />
  <path
     d="m 207.58926,342.2418 c 0.5518,3.5511 3.15578,3.5107 3.01242,0.6521 -0.0664,-1.3243 -0.92652,-4.2514 -2.36298,-6.4452 0.33197,-0.5532 -1.42574,-3.2418 -0.0727,-3.6516 1.40404,-0.4253 4.93889,0.4364 5.5693,0.152 1.52933,-0.6901 3.3618,-0.85 4.10036,-0.8886 1.62974,-0.085 1.06166,-2.2577 -0.55462,-2.1483 -0.83569,0.057 -2.72057,-0.5899 -4.62532,0.2351 -0.33983,-0.8964 -1.95845,-1.3835 -3.72434,-1.1261 -5.22662,3.3974 -1.81096,10.2037 -1.34215,13.2206 z"
     id="path2302-4-5"
     style="color:#000000;fill:#ffd5d5;stroke:#de8787;stroke-width:1;stroke-linecap:butt;stroke-linejoin:miter;stroke-miterlimit:4;stroke-opacity:1;stroke-dasharray:none;stroke-dashoffset:0;marker:none;visibility:visible;display:inline;overflow:visible;enable-background:accumulate" />
  <path
     d="m 206.33856,303.7593 c -0.88525,1.9919 -2.0886,13.5814 -2.96306,19.3417 -0.16227,1.0689 0.52011,10.8082 0.68887,11.3437 0.92796,2.9446 0.74269,7.4656 0.87292,8.9996 0.15931,1.8765 2.38881,1.509 3.31857,-2.133 0.43053,-1.6865 0.18623,-3.0232 -0.14458,-3.9181 0.54454,-1.8052 0.80851,-4.7849 0.51658,-5.4499 0.57355,-1.3834 1.85709,-2.8448 1.8047,-3.5862 1.57654,-0.8845 0.33141,-2.9246 2.24412,-4.0515 1.08663,-0.6402 2.43217,1.3064 2.50924,3.0758 0.0645,1.4789 0.9913,2.8537 1.55432,5.1485 0.66201,2.6983 3.38856,3.1575 3.88321,0.114 0.36077,-2.2197 -0.66691,-6.4925 -1.99698,-7.6764 -0.21304,-0.9176 -0.11869,-2.3465 0.03,-3.4231 0.27907,-2.0212 1.43035,-7.0213 -5.34327,-13.3366"
     id="path2302-4-1-9"
     style="color:#000000;fill:#ffd5d5;stroke:#de8787;stroke-width:1;stroke-linecap:butt;stroke-linejoin:miter;stroke-miterlimit:4;stroke-opacity:1;stroke-dasharray:none;stroke-dashoffset:0;marker:none;visibility:visible;display:inline;overflow:visible;enable-background:accumulate" />
  <path
     d="m 243.74116,202.1878 c -0.80376,8.9227 -5.39904,11.3511 -5.59009,15.3625 -0.19105,4.0115 1.52783,14.5178 9.93283,15.8549 8.405,1.3371 27.3163,-11.2704 12.6075,-29.7996"
     id="path6239-5"
     style="fill:#ffd5d5;stroke:#de8787;stroke-width:0.94118547px;stroke-linecap:round;stroke-linejoin:round;stroke-opacity:1;display:inline;enable-background:new" />
  <path
     d="m 310.3573,204.5607 c -1.9102,4.5846 -3.8204,5.7307 -4.3935,8.7871 -0.573,3.0564 0.9488,21.0887 -12.7986,20.6305 -17.001,-0.5731 -29.2264,-19.8665 -10.1241,-31.7099"
     id="path6241-3"
     style="fill:#ffd5d5;stroke:#de8787;stroke-width:0.94118547px;stroke-linecap:round;stroke-linejoin:round;stroke-opacity:1;display:inline;enable-background:new" />
  <path
     d="m 321.9375,305.8125 c -2.43807,16.42853 -7.68438,43.48101 -12.9375,56.375 2.40901,-11.08144 4.3386,-30.84338 3.375,-36.625 -0.4818,26.4991 -10.12186,50.10845 -18.3125,64.5625 5.29982,-6.26342 8.67683,-12.50991 12.53125,-20.21875 -4.33622,20.23568 -4.82003,29.85919 -9.15625,32.75 -4.33622,2.89081 -4.3307,5.30974 -4.8125,7.71875 -0.4818,2.40901 0.47941,6.75515 -3.375,7.71875 5.29982,0.4818 5.75515,-2.90864 6.71875,-6.28125 0.96361,-3.37262 2.42959,-3.38015 3.875,-4.34375 1.4454,-0.9636 0.94264,6.26544 1.90625,9.15625 0.9636,2.89081 6.66024,23.27488 -3.84375,44.8125 -2.28447,4.68411 -9.16415,37.59099 -7.71875,40 1.44541,2.40901 -4.32832,-0.49284 -1.4375,9.625 0.0346,0.1212 0.10216,0.20228 0.15625,0.28125 -0.42428,-2.41434 -0.54708,-4.40627 0.0625,-5.34375 0.93673,-1.4405 2.55369,-3.20275 1.46875,-5.96875 -0.61272,-1.5618 3.59173,-18.4082 6.9375,-28.0625 14.37717,-41.4861 6.65771,-51.6376 5.71875,-63.75 C 302.2976,397.34035 308.43459,380.8915 311.875,364.75 315.26455,348.8472 322,325.2681 322,308.9375 c 0,-1.0607 -0.0127,-2.111 -0.0625,-3.125 z"
     id="path198893"
     style="color:#000000;fill:#e9afaf;fill-opacity:1;stroke:none;marker:none;visibility:visible;display:inline;overflow:visible;enable-background:accumulate" />
  <path
     d="m 298.39183,420.01092 c 0.32072,11.88685 -2.46989,30.17613 -11.56325,61.18884 5.82371,-25.49343 10.21213,-42.30428 11.56325,-61.18884 z"
     id="path198895"
     style="color:#000000;fill:#e9afaf;fill-opacity:1;stroke:none;marker:none;visibility:visible;display:inline;overflow:visible;enable-background:accumulate" />
  <path
     d="m 277.1875,319.78125 c 2.56768,15.76271 -3.29016,35.27654 -5.21875,28.5 -1.71088,-6.0116 -3.32847,-11.52855 -5.375,-15.46875 8.69664,33.38544 5.9011,69.20093 4.9375,62.9375 -0.9636,-6.26342 -3.05459,-17.98658 -4.5,-24.25 0.96361,8.67243 4.893,28.60978 -0.65625,28.65625 -8.20451,0.0687 -10.1369,-28.15491 -12.25,-42.5625 0.0929,9.8537 -1.3442,22.61234 -4,22 -3.59636,-0.8292 -11.20086,-26.81033 -12.75,-56.75 -0.12404,1.69537 -0.21637,3.25959 -0.21875,4.53125 -0.041,21.3653 8.125,54.7341 8.125,61.5 0,14.5067 4.6792,20.85525 7.71875,25.53125 0.37645,1.69404 1.76883,6.36697 3.59375,11.625 0.93213,-9.73841 6.70835,3.11002 12.40625,12.78125 -7.68463,-21.56002 -4.69597,-33.46234 0.96875,-13.03125 -1.99457,-10.84629 1.4395,-19.27465 10.40625,-9.875 -1.83768,-5.06683 -6.31105,-11.95151 -6.09375,-14.125 0.22134,-2.2131 -0.65885,-34.72075 -0.4375,-45.34375 2.32007,-8.89359 6.85682,-21.85511 4,-34.375 -0.005,-0.0189 0.005,-0.0437 0,-0.0625 -0.0385,-0.16726 -0.0838,-0.33291 -0.125,-0.5 -0.17133,-0.62615 -0.35057,-1.19178 -0.53125,-1.71875 z m -30.125,70.90625 c 3.96962,15.6446 4.68211,9.03943 9.875,20.4375 1.25806,2.76136 1.54973,5.38241 3.40625,7.84375 -6.8137,-3.74754 -5.77163,-7.16544 -7.78125,-8.1875 -2.88085,-1.46515 -5.15931,-8.51045 -5.5,-20.09375 z"
     id="path198897"
     style="color:#000000;fill:#e9afaf;fill-opacity:1;stroke:none;marker:none;visibility:visible;display:inline;overflow:visible;enable-background:accumulate" />
  <path
     d="m 310.21875,204.84375 c -3.32503,1.54117 -5.21875,4.42358 -5.21875,8.6875 0,4.76959 -2.06802,12.93504 -6.15625,9.1875 -4.08822,-3.74754 -8.84928,-4.41299 -12.9375,-1.6875 -4.04715,2.69809 -8.7387,3.37905 -12.46875,-5.53125 -0.87212,9.31478 8.33381,18.08497 19.71875,18.46875 13.7474,0.4582 12.2395,-17.5686 12.8125,-20.625 0.56018,-2.98752 2.38351,-4.16756 4.25,-8.5 z"
     id="path198901"
     style="color:#000000;fill:#e9afaf;fill-opacity:1;stroke:none;marker:none;visibility:visible;display:inline;overflow:visible;enable-background:accumulate" />
  <path
     d="m 238.5625,215.6875 c -0.22771,0.60175 -0.37527,1.22443 -0.40625,1.875 -0.19105,4.0115 1.5325,14.50665 9.9375,15.84375 5.97392,0.95035 17.22369,-5.14833 17.96875,-15.40625 -6.01649,10.08464 -12.5888,8.7196 -15.25,4.0625 -2.72548,-4.76959 -6.12439,-8.53858 -9.53125,-2.40625 -2.69736,4.85526 -3.02889,-0.49628 -2.71875,-3.96875 z"
     id="path198903"
     style="color:#000000;fill:#e9afaf;fill-opacity:1;stroke:none;marker:none;visibility:visible;display:inline;overflow:visible;enable-background:accumulate" />
  <path
     d="m 326.09375,190.21875 c 0.97057,1.79264 1.69446,3.81161 2.0625,6.125 0.84315,5.2998 2.64834,10.2376 4.09375,11.5625 1.4454,1.325 3.85799,5.8786 5.0625,10.9375 1.2045,5.059 11.17683,20.2648 15.03125,22.3125 3.85441,2.0476 3.61076,3.00745 2.40625,7.34375 -1.2045,4.3362 -6.35583,12.7672 -10.8125,18.1875 1.80676,-1.6863 6.4921,-6.38135 7.9375,-9.03125 -4.33621,15.4176 -12.15684,23.82795 -13,26.71875 -0.83745,2.87127 -1.60155,2.02397 -1.8125,3.71875 0.89855,0.0376 1.56467,-0.3099 1.875,-1.25 0.76503,-2.3172 8.89583,-12.69735 13.5,-23.59375 2.96586,-7.019 5.1875,-14.1035 5.1875,-15.4375 0,-3.192 -1.73638,-5.7944 -9.28125,-14.5 -7.54488,-8.7056 -14.85362,-25.0839 -16.25,-29.875 -1.68336,-5.77533 -3.76804,-10.07625 -6,-13.21875 z"
     id="path198887"
     style="color:#000000;fill:#e9afaf;fill-opacity:1;stroke:none;marker:none;visibility:visible;display:inline;overflow:visible;enable-background:accumulate" />
  <path
     d="m 318.78125,220.5625 c 5.68211,8.47226 14.73309,13.17918 22.3125,27.5625 -0.52534,1.13455 -0.85954,2.91476 -1.21875,5.09375 1.52474,-0.44083 3.2972,1.44846 2.375,5.875 0.9636,-3.6135 3.35404,-11.80855 5.28125,-12.53125 -5.78163,-0.4818 -8.91378,-9.38135 -13.25,-12.03125 -3.76792,-2.30261 -9.35862,-6.44762 -15.5,-13.96875 z"
     id="path198889"
     style="color:#000000;fill:#e9afaf;fill-opacity:1;stroke:none;marker:none;visibility:visible;display:inline;overflow:visible;enable-background:accumulate" />
  <path
     d="m 289.75,141.28125 c -7.88007,0.034 -18.40284,4.59375 -18.71875,4.59375 0.44061,6.52078 0.26455,11.64883 -0.34375,15.71875 0.43622,3.93653 0.9375,7.61936 0.9375,10.125 0,-7.92412 -0.27232,-9.78423 1.3125,-10.3125 1.58483,-0.52828 3.70759,18.21651 4.5,20.59375 -0.52828,-6.86757 -0.57928,-18.26789 0,-15.3125 1.57412,8.03086 7.44548,1.81902 8.125,1.21875 2.25269,-4.02226 3.8299,-7.03125 5.875,-7.03125 2.1131,0 -1.58556,11.36458 -2.90625,15.0625 2.26529,-6.11626 4.69963,-15.48077 5.1875,-9.875 1.01726,-7.28638 3.07037,-16.10182 3.28125,-22.21875 -1.50007,-1.9095 -4.16648,-2.5755 -7.25,-2.5625 z m -4.1875,26.625 c -0.0749,0.13375 -0.14225,0.239 -0.21875,0.375 0.33084,-0.45265 0.3501,-0.49103 0.21875,-0.375 z"
     id="path199136"
     style="color:#000000;fill:#e9afaf;fill-opacity:1;stroke:none;marker:none;visibility:visible;display:inline;overflow:visible;enable-background:accumulate" />
  <path
     d="m 253.71875,175.9347 c -0.38276,0.061 -0.49416,0.6851 -0.15625,0.875 3.68891,2.1475 12.25092,5.6182 18.13145,5.5096 0.91152,-0.017 2.29225,0.047 3.04527,0.1584 1.57245,0.2326 2.30171,1.4724 2.57328,1.9882 -0.35297,-1.1091 -1.10857,-1.8267 -2,-2.2188 -0.89143,-0.392 -1.88707,-0.4869 -2.875,-0.4687 -5.43554,0.1002 -14.9002,-3.7402 -18.40625,-5.7813 -0.0929,-0.056 -0.20537,-0.078 -0.3125,-0.062 z"
     id="path6239-5-6"
     style="font-size:medium;font-style:normal;font-variant:normal;font-weight:normal;font-stretch:normal;text-indent:0;text-align:start;text-decoration:none;line-height:normal;letter-spacing:normal;word-spacing:normal;text-transform:none;direction:ltr;block-progression:tb;writing-mode:lr-tb;text-anchor:start;baseline-shift:baseline;color:#000000;fill:#de8787;fill-opacity:1;stroke:none;stroke-width:0.94118547px;marker:none;visibility:visible;display:inline;overflow:visible;enable-background:new;font-family:Sans;-inkscape-font-specification:Sans" />
  <path
     d="m 281.5625,183.0597 c -0.90183,0.203 -1.69399,0.8575 -2.21875,1.9687 0.96635,-1.2945 1.44649,-1.1721 2.30711,-1.527 0.59749,-0.2464 1.88358,0.218 2.86531,0.4979 3.10481,0.885 7.51321,1.4111 12.01508,1.3728 4.50187,-0.038 8.72832,-0.3933 10.84375,-0.9062 0.26691,-0.026 0.47435,-0.3181 0.41142,-0.5788 -0.0629,-0.2607 -0.38067,-0.4258 -0.63017,-0.3274 -1.93005,0.4679 -6.17062,0.8371 -10.625,0.875 -4.45438,0.038 -9.15201,-0.2643 -12.0625,-1.0938 -1.03772,-0.2957 -2.00442,-0.4843 -2.90625,-0.2812 z"
     id="path6239-5-6-5"
     style="font-size:medium;font-style:normal;font-variant:normal;font-weight:normal;font-stretch:normal;text-indent:0;text-align:start;text-decoration:none;line-height:normal;letter-spacing:normal;word-spacing:normal;text-transform:none;direction:ltr;block-progression:tb;writing-mode:lr-tb;text-anchor:start;baseline-shift:baseline;color:#000000;fill:#de8787;fill-opacity:1;stroke:none;stroke-width:0.94118547px;marker:none;visibility:visible;display:inline;overflow:visible;enable-background:new;font-family:Sans;-inkscape-font-specification:Sans" />
  <path
     d="m 259.9375,298.4375 c 6.49871,4.87403 18.2127,15.24653 19.1875,29.21875 1.4216,-1.13727 2.60187,1.46504 2.4375,3.4375 0.78588,-1.21998 1.3752,-2.63839 1.71875,-4.25 1.15183,1.0411 2.67658,1.10095 3.375,-0.0937 0.0321,0.009 0.0617,0.0224 0.0937,0.0312 1.16544,-5.86725 3.37328,-15.94987 6.03125,-20.5625 -3.73675,4.87403 -3.77745,11.13785 -5.7695,13.83115 -1.00301,1.3561 -2.27158,1.1102 -3.01959,0.71536 -0.51721,-0.27301 -1.64769,-0.76153 -2.36459,-0.0678 -0.69221,0.66983 -2.20168,0.68877 -5.30393,-5.28311 -2.99548,-5.76633 -12.16198,-14.37739 -16.38614,-16.97687 z"
     id="path2280-7-8-1"
     style="color:#000000;fill:#e9afaf;fill-opacity:1;stroke:none;marker:none;visibility:visible;display:inline;overflow:visible;enable-background:accumulate" />
  <path
     d="m 240.90625,238.9688 c 0.0718,0.3264 0.13447,0.6541 0.21875,0.9687 1.96214,8.9386 1.32827,17.9474 0.1875,25.75 5.06137,-6.7122 12.14843,9.3064 13.27918,10.2367 1.27476,1.0488 6.26419,10.6013 10.16341,14.5005 -3.57429,-6.4987 -4.63677,-7.4936 -6.0257,-11.1983 -1.6386,-4.3707 1.53652,-8.8212 -0.33111,-12.07 -3.53397,-6.1475 -0.11547,-8.1567 -1.97845,-11.1676 -1.73763,-2.8082 -2.65281,-9.8198 -0.6998,-11.1359 1.95302,-1.316 3.12943,-4.9134 -0.64639,-3.9403 -6.30354,1.6247 -12.45688,-0.1291 -14.16739,-1.9438 z"
     id="path73512"
     style="color:#000000;fill:#e9afaf;fill-opacity:1;stroke:none;marker:none;visibility:visible;display:inline;overflow:visible;enable-background:accumulate" />
  <path
     d="m 272.48231,275.2813 c 1.19596,0.075 1.72097,0.3903 2.09375,0.75 1.02467,0.9887 -1.55304,4.0938 1.3125,4.0938 2.86554,0 2.86592,-5.1533 -3.40625,-4.8438 z m 3.75,1.4063 c 0.39284,0.05 0.73216,0.3714 0.96875,0.7187 0.56447,0.8286 -3.13505,1.7694 -2.21875,0.1875 0.41583,-0.7179 0.85716,-0.9557 1.25,-0.9062 z"
     id="path73486"
     style="color:#000000;fill:#e9afaf;fill-opacity:1;stroke:none;marker:none;visibility:visible;display:inline;overflow:visible;enable-background:accumulate" />
  <path
     d="m 308.65625,226.375 c -2.26654,4.73528 -4.09245,9.56838 -5.93376,10.95497 -2.50292,1.88482 -3.60256,4.23917 -5.84749,5.20128 -4.5491,1.94961 -9.93815,2.19323 -13.1875,-0.4063 -3.24936,-2.59948 -4.90051,-2.17507 -7.5,-2.5 -2.59948,-0.32494 -0.33304,2.04417 1.63138,2.26244 5.84884,0.64986 8.38106,7.85651 6.50638,11.70599 -1.34216,2.756 4.62467,3.04498 3.02519,11.36862 -0.66042,3.43678 0.85619,1.96172 1.83099,-2.58737 0.54467,-2.54178 -0.29974,-7.48119 1.97481,-8.78093 2.27454,-1.29974 3.97733,-0.93413 5.1875,-2.59375 0.69027,-0.94663 -2.12976,0.5543 -4.09302,-1.02979 -1.84101,-1.48545 1.46035,-0.92114 3.43677,-0.93896 1.51382,-0.0137 2.58769,-0.32526 3.5625,-1.625 0.97481,-1.29975 -1.10971,0.22655 -3.05933,-0.0984 -1.94961,-0.32493 2.05965,-1.25812 3.68433,-2.55786 0.81234,-0.64987 0.88445,4.10942 1.25,4.3125 1.91265,-8.68328 4.1729,-14.26531 5.96875,-18.65625 -0.18621,-1.56686 1.83031,-3.16087 1.5625,-4.03124 z"
     id="path73606"
     style="color:#000000;fill:#e9afaf;fill-opacity:1;stroke:none;marker:none;visibility:visible;display:inline;overflow:visible;enable-background:accumulate" />
  <path
     d="m 239.90625,284.53125 c -0.50853,0.0545 -0.98996,0.32062 -1.40625,0.84375 0.0438,3.7471 0.26716,7.2887 0.6875,10.59375 -0.024,7.49096 -0.76205,14.95386 -1.34375,21.25 2.1819,-7.88823 4.69715,-13.45678 5.65625,-15.375 1.18967,-2.37934 2.35779,-10.71223 0.375,-14.28125 -0.9914,-1.78451 -2.5808,-3.17996 -3.96875,-3.03125 z"
     id="path73983"
     style="color:#000000;fill:#e9afaf;fill-opacity:1;stroke:none;marker:none;visibility:visible;display:inline;overflow:visible;enable-background:accumulate" />
</svg>
