<svg xmlns="http://www.w3.org/2000/svg" id="body_hand" width="560" height="560" style="opacity: 1";>
  <g id="layer1" transform="translate(0 -492.362)">
    <g id="g49670">
      <path id="path3075-4" d="M324.563 774.85c-1.043-.337-2.53-.83-3.272-.916-1.35-.157-2.53-.687-4.63-.654 1.69 3.968-.97 5.438 7.91 1.57z" style="fill:#ffd5d5;stroke:#de8787;stroke-width:1;stroke-linecap:butt;stroke-linejoin:miter;stroke-miterlimit:4;stroke-opacity:1;stroke-dasharray:none;display:inline;enable-background:new"/>
      <path id="path2300-8-6" d="M337.99 779.477c.54 4.56-4.025 9.437-7.507 9.494-.396.56-2.07 1.31-2.852 1.75-.19.65-1.13 1.72-1.74 1.966-.03 1-.36 2.19-.77 2.797-.81 1.185-2.98.59-2.743-1.007.15-1.004.624-2.57.88-3.143.325-.73 1.772-2.65 1.995-2.915.42-.498 1.55-1.855 2.2-2.38-1.19.54-2.372 1.475-3.232 1.847-.455 1.4-1.605 2.57-2.245 3.187-.474.603-1.057 1.954-1.436 2.626-.863 1.528-3.96.103-2.887-2.223.268-.577.866-2.14 1.343-2.812.47-.663 1.97-2.59 2.266-2.934.59-.688 1.86-2.43 2.42-2.878-1.856 1.16-3.426 1.986-4.89 2.28-.67 1.044-2.217 1.634-3.187 1.9-.75.915-2.54 1.85-3.53 2.202-2.14.767-3.17-1.874-1.685-3.03.543-.42 1.788-1.45 2.425-1.954 1.353-1.078 2.25-2.088 3.675-2.873 1.058-.58 2.736-2.27 3.472-2.584-.826-.07-2.686 1.325-3.92.78-.95.793-3.366.897-4.33 1.034-1.01.56-2.95.824-3.45.882-1.33.154-2.283-2.414-.542-2.995 1.74-.58 11.607-3.482 13.93-3.772 2.32-.29 5.802 0 7.253-.29" style="color:#000000;fill:#ffd5d5;stroke:#de8787;stroke-width:1;stroke-linecap:butt;stroke-linejoin:miter;stroke-miterlimit:4;stroke-opacity:1;stroke-dasharray:none;stroke-dashoffset:0;marker:none;visibility:visible;display:inline;overflow:visible;enable-background:accumulate"/>
    </g>
  </g>
</svg>
