<?xml version="1.0" encoding="UTF-8" standalone="no"?>
<svg xmlns="http://www.w3.org/2000/svg" id="body_head_square" width="560" height="560">
  <path id="path2987-37-7" d="M268 122c-2.3 4.7-1.2 9-1.4 14.2-.2 4 1.2 7.7 1.6 10 .6 3.6 1 8 1.8 9 1.5 2.2 6 4.4 7.6 5.3 2.6 1.5 7.4 1.8 10 .4 2.5-1.4 7-3.7 8.3-6.6.5-1.5 1-5 1.7-8.7.6-3.3 1.3-7 .8-10 .6-6.8-.8-10.4-2-13.6-1.2-4-6-8.8-13.7-9-7.7 0-12 3.2-15 9z" style="color:#000000;fill:#ffd5d5;fill-opacity:1;stroke:#de8787;stroke-width:1;stroke-linecap:butt;stroke-linejoin:miter;stroke-miterlimit:4;stroke-opacity:1;stroke-dasharray:none;stroke-dashoffset:0;marker:none;visibility:visible;display:inline;overflow:visible;enable-background:accumulate"/>
</svg>
