<?xml version="1.0" encoding="UTF-8" standalone="no"?>
<!-- Created with Inkscape (http://www.inkscape.org/) -->

<svg
   xmlns:dc="http://purl.org/dc/elements/1.1/"
   xmlns:cc="http://creativecommons.org/ns#"
   xmlns:rdf="http://www.w3.org/1999/02/22-rdf-syntax-ns#"
   xmlns:svg="http://www.w3.org/2000/svg"
   xmlns="http://www.w3.org/2000/svg"
   version="1.1"
   width="560"
   height="560"
   id="body_head_square">
  <path
     d="m 267.92862,121.93722 c -2.27691,4.79808 -1.12037,9.00571 -1.33247,14.27766 -0.16464,4.09219 1.16176,7.71364 1.564,9.94333 0.65512,3.63145 1.14764,7.93403 1.86475,9.00971 1.47733,2.21602 5.9026,4.46434 7.53552,5.37541 2.68183,1.49629 7.43757,1.79281 10.12447,0.3725 2.41559,-1.27691 7.03269,-3.63743 8.19347,-6.4866 0.62466,-1.53326 1.23365,-4.88289 1.86343,-8.70956 0.5405,-3.28417 1.28335,-6.91972 0.7727,-10.05997 0.5918,-6.73977 -0.86058,-10.39585 -1.87935,-13.59412 -1.32533,-4.16067 -6.05236,-8.87635 -13.80384,-8.92371 -7.77415,-0.0475 -12.16889,3.03449 -14.90268,8.79535 z"
     id="path2987-37-7"
     style="color:#000000;fill:#ffd5d5;fill-opacity:1;stroke:#de8787;stroke-width:1;stroke-linecap:butt;stroke-linejoin:miter;stroke-miterlimit:4;stroke-opacity:1;stroke-dasharray:none;stroke-dashoffset:0;marker:none;visibility:visible;display:inline;overflow:visible;enable-background:accumulate" />
</svg>
