<?xml version="1.0" encoding="UTF-8" standalone="no"?>
<svg xmlns="http://www.w3.org/2000/svg" width="560" height="560" id="brows_disdain">
  <path style="display:inline;fill:#ffe680;fill-opacity:1;stroke:#d4aa00;stroke-width:0.25;stroke-miterlimit:4;stroke-dasharray:none;stroke-opacity:1;enable-background:new" d="m 269.81823,136.41969 c 1.69962,-1.19052 5.21205,-1.37255 6.31902,-1.11621 1.07667,0.24932 4.04437,0.84948 4.04437,0.84948 0.23518,0.3919 0.21574,1.44763 -0.21508,1.25677 -0.43074,-0.19087 -3.06404,-1.04966 -4.14583,-1.18109 -1.0115,-0.1229 -4.4862,-0.60075 -6.00248,0.19107 z" id="eyebrow-right"/>
  <path style="display:inline;fill:#ffe680;fill-opacity:1;stroke:#d4aa00;stroke-width:0.25;stroke-miterlimit:4;stroke-dasharray:none;stroke-opacity:1;enable-background:new" d="m 295.54409,136.50655 c -0.61671,-0.85187 -2.46503,-1.29799 -5.02006,-1.05775 -1.37287,0.12909 -5.3324,1.04785 -5.99888,0.87163 -0.23519,0.392 0.19492,1.38707 0.62821,1.19921 0.43331,-0.18787 4.43012,-0.98494 5.16761,-1.03911 0.89402,-0.0657 3.60363,-0.66257 5.22312,0.026 z" id="eyebrow-left"/>
</svg>
