<?xml version="1.0" encoding="UTF-8" standalone="no"?>
<svg xmlns="http://www.w3.org/2000/svg" width="560" height="560" id="brows_sadness">
  <path id="path31837-9-3" d="m 269.89411,136.0071 c 0.50901,-1.06972 2.25878,-1.87611 3.55835,-2.22406 1.29956,-0.34795 5.76972,-0.70086 6.15334,-1.22846 0.36123,0.28002 0.36342,1.15421 -0.10486,1.13571 -0.46826,-0.0185 -4.965,0.70581 -5.71387,0.61855 -0.74891,-0.0873 -2.72105,0.19551 -3.89296,1.69826 z" style="display:inline;fill:#ffe680;fill-opacity:1;stroke:#d4aa00;stroke-width:0.25;stroke-miterlimit:4;stroke-dasharray:none;stroke-opacity:1;enable-background:new"/>
  <path id="path31839-1-07" d="m 295.1778,135.77689 c -0.52089,-1.02462 -2.26226,-1.72166 -3.56803,-2.03542 -1.30577,-0.31376 -5.84059,-0.70992 -6.23635,-1.22856 -0.35466,0.28844 -0.33687,1.16134 0.13132,1.13315 0.4682,-0.0282 5.03729,0.73671 5.78397,0.63199 0.74668,-0.10471 2.70533,0.0821 3.88909,1.49884 z" style="display:inline;fill:#ffe680;fill-opacity:1;stroke:#d4aa00;stroke-width:0.25;stroke-miterlimit:4;stroke-dasharray:none;stroke-opacity:1;enable-background:new"/>
</svg>
