<?xml version="1.0" encoding="UTF-8" standalone="no"?>
<svg xmlns="http://www.w3.org/2000/svg" width="560" height="560" id="brows_grief">
  <path style="display:inline;fill:#ffe680;fill-opacity:1;stroke:#d4aa00;stroke-width:0.25;stroke-miterlimit:4;stroke-dasharray:none;stroke-opacity:1;enable-background:new" d="m 269.89411,136.0071 c 0.50901,-1.06972 2.25878,-1.87611 3.55835,-2.22406 1.29956,-0.34795 5.83044,-0.83895 6.15334,-1.67016 0.36123,0.28002 0.35068,1.46735 -0.10486,1.57741 -1.6827,0.40656 -4.78283,0.88798 -5.5317,0.80072 -0.74891,-0.0873 -2.78178,0.37767 -4.07513,1.51609 z" id="path78657"/>
  <path style="display:inline;fill:#ffe680;fill-opacity:1;stroke:#d4aa00;stroke-width:0.25;stroke-miterlimit:4;stroke-dasharray:none;stroke-opacity:1;enable-background:new" d="m 295.1778,135.77689 c -0.70306,-1.20679 -2.26226,-1.72166 -3.56803,-2.03542 -1.30577,-0.31376 -6.02276,-0.90873 -6.23635,-1.67026 -0.35466,0.28844 -0.31636,1.43493 0.13132,1.57485 2.04698,0.63975 4.48815,0.73038 5.96614,0.87488 1.78154,0.17418 2.70533,0.32499 3.70692,1.25595 z" id="path78659"/>
</svg>
