<?xml version="1.0" encoding="UTF-8" standalone="no"?>
<svg xmlns="http://www.w3.org/2000/svg" id="coat_winter_furcollar_2_of_3" width="560" height="560">
  <g id="g109269" style="display:inline;opacity:1;enable-background:new">
    <path id="path39931-4-5-0" d="M255 175.7c-6.8-3.8-13.5-3.7-16.2-3-4.8 1.5-8.4 8.3-8.5 9 0 .6 0 2-.5 2.7-.7.7-1 1.4-1 3.6s.5 9 .5 10.5c0 1.3-.6 2.5-.5 3.8l.5 6.8c0 .8-.6 1.7-.6 2.8 0 1 .6 2.7 0 4-.6 1.5-.5 3.2-.7 4-.2.6-.5 4.2 0 4.5.5.2 0 1.4-.4 2-.4.5-.7 5.7-.5 7 .2 1.5 0 1.8-.5 2.4-.5.5.2 2.4-.6 2.7-1 .2-.7 2.2.6 3-1.3.8-2 2-1.2 4-.7.4-1.2.6-1.3 1.5 0 1-.6 1.2-.7 2.2 0 1-.3 3.6-1 3.6-.5 0-1 .8-1.2 1.8 0 1-.3 1.8-1 2.5-1 1 .6 2-.8 2.8-1.4.7-.2 1.8-1 2.3-.3.2-.7 1.5-.2 1.8-.5.4-.7 1.2-.5 2.2.2 1 .3 1.3-.2 1.5-.6.3-1 1-.8 2 0 .8 0 1.3-.4 1.6-.4.4-1.6 3.8-2 4.5 0 .8-2 2.7-1.6 4 .5 1-.4 1.6-1 1.8-.5 0-1.5 1-1.4 2.4 0 1.2-.5 1.3-1 1.5-.6 0-.7 1-.6 1.7 0 .7-.8 1.7-1.8 2.6-1 1-.7 2.7-1.7 4-1 1.2-1.6 2.3-1.2 3 .4.8-.2 3 .2 3.4.3.3 2 1 2 2s4.3 2.7 5 3c.7 0 4.5 1.4 5.7 1 1.2-.2 4.3.2 5-.6.4-1 .6-2.4 1-3.4.5-1 3.3-6.6 3.4-7.7.2-1 1-2.4 2-3 1.2-.5 2-2 2-3 1-1 .7-1.8.8-2.3 1.5-.3 1.7-2 2-3 2.3-1.8 2.6-2.6 2.6-3.5 1.2-1.2 1.6-2.8 1.7-4 2-1.8 3.2-4.5 2.8-5.5 2-1 1.7-2 2.8-3.5 1-1.6 1.7-3.6 1.5-4.3.8-2.2.6-2.4.2-3 .2-2.4 0-3.3.4-3.7.4-.3.5-2 1-2.3 2 0 1.7-1.3 2-2.4 1.6-.4 2.8-4 2.6-7-.2-3.4-1.4-7.6-.5-9.6 1-2 .6-5-.2-6.7-.8-1.5-1-8.2-1.3-10.8 0-1.6.5-3.7 1-4.2.4-.4 0-2.6-.7-3.8-1-1.2-1-3.8-1.6-5.8-.6-2.2-2.5-8.6-3.8-16" style="fill:#93947a;fill-opacity:1;fill-rule:evenodd;stroke:#69644c;stroke-width:1px;stroke-linecap:butt;stroke-linejoin:miter;stroke-opacity:1"/>
    <path id="path42142-7-5-0" d="M228.4 235c-.5 0-1 .6-.7 1.2.5.7 0 1-.4 1.7-.5.6.6.8.2 1.3-.4.4-1.8.5-1.8-.8-.6.5-.3 2.2 1 2.8-.8.5-1.4 1.2-1.6 2 .8-.6 2-1.2 2.5-1-.4 0-.4 1 0 1 .6.2 1 .3 3 0 2-.2 1.3-1.5 2-2 .4-.4 2-1 2.5-.4.6.5 1.8.8 2.5.4.7-.3 1.4.5 1.4 1 0 .8.6 1.8 1.7 1.2 1-.6 1 .7 2 .5.8-.2 2 .4 2.3 1 .2.6.7.8.8 1.7 0 .8-1 1-.8 1.8 0 1-1 1.3-.8 2.2.2.8-1.4.7-1.6 0-.3-.5-2.4 0-3-.7-.4-.7-4.5-3.2-6.8-3.2-2.2 0-5.6-1.8-7.3-1.5.2.5 0 .5.7.5s1.3 1 1.8.8c.5 0 2 1 2.6.7.6 0 1.5.8 2.2 1 .8 0 1.8 1 2.5 1.3.8.3 1.7.7 2.7.8 1 0 1.2.8 1.7.7.5 0 1.6 1 2.2 1 .5 0 1 .7 1.7 1 .7 0 .4 1.2.4 1.3 0 .2-.8 0-1.4 0-.5 0-1.4 2-1 2.5.5.5.3 1.7-.7 1.7s-.7 1-1.4 1c-.8.3 0 2 1 1.8.6 0 2.8-1 3.7-2 0-2.5-.2-3.4.3-3.8.4-.3.5-2 1-2.3 2 0 1.7-1.3 2-2.4 0 0 .2 0 .3-.2 1.5-3.5-.8-5.8-1-6.7-.5-1-3.4-1.6-4-2.6-.7-1-2.4-.6-3-1.3-.6-.6-3 0-4.2-.6-1.3-.5-3.2 0-3.8-.8-.6-.7-1.8 0-1.7-1.2 0-1.2-1-1.2-1.4-2l-.6-.3z" style="fill:#565542;fill-opacity:1;fill-rule:evenodd;stroke:none;stroke-linecap:butt;stroke-linejoin:miter;stroke-opacity:1"/>
    <path id="path42144-0-8-5" d="M212.4 279v.4c.2.5.2 1 0 1.2 1.7 1 5 2 7 2.4 2 .4 8 2.2 9.5 3 1.3.5.6 1.6 0 1.2-.5-.5-2.7-.2-3.5-.2-.7 0-1.2.6-2 .8-.5.2-1-.2-1.4-.7-.4-.5-1-.2-2-.2s-.7 1.8 0 1.7c1 0 1.7 0 2.5 1s1.8.2 2.4 1c.6.6 1 2.7 0 2-1.3-.8-2.7 0-1.7.7 1 .7 1.4 1.4.2 1.5-1 0-2.2.5-3 .7-.7 0-.6 1.2.6 1.3 1.3 0 2.6-.2 3 .5.2.7-.6 1.7-1 1.5-.7-.2-1.6 1-1.2 2.3.4 1.2-.4 2.4-1 2.4-.7 0-1.4 1.3-2.2 1-.6-.4-.3 1-1 1.6 1.5 0 3.5 0 4-.6.5-1 .7-2.4 1-3.4.6-1 3.4-6.6 3.5-7.7.2-1 1-2.4 2-3 1.2-.5 2-2 2-3 1-1 .7-1.8.8-2.3.6 0 1-.5 1.2-1-1.2 0-2 0-2.6-.5-.7-.5-1.7-1-2.7-1-1 0-2.6-.5-4.2-.8-1.6-.2-3.3-.8-4.6-1.3-1.3-.6-2.3-1.3-3-1.4-.8 0-.8 0-1.3-.6-.3-.2-1-.4-1.3-.3z" style="fill:#565542;fill-opacity:1;fill-rule:evenodd;stroke:none;stroke-linecap:butt;stroke-linejoin:miter;stroke-opacity:1"/>
    <path id="path42146-1-2-5" d="M219.2 261c-.4 0-.7.2-.8.4-.4.5 3.3 2.5 4.5 2.6 1.2 0 2 1.7 3 1.6 1 0 5.8 2.5 6.6 2.6.8 0 2.7 1.2 4.2 1.3 1 0 2 .3 3 .4 2-1 1.7-2 2.8-3.5.6-.8 1-1.8 1.3-2.6-.8 1-2 2-2.8 2.2-1 0-.7 1.4-2.5 1.6-1.8 0-4-.8-5.3-1-1.3-.2-6.2-2.8-7-2.8-1 0-4-1.8-5-2.4-.6-.3-1.5-.5-2.2-.5z" style="fill:#565542;fill-opacity:1;fill-rule:evenodd;stroke:none;stroke-linecap:butt;stroke-linejoin:miter;stroke-opacity:1"/>
    <path id="path42148-5-9-8" d="M245 260.2c-1 1.2-3.4 2.4-5 2.2-1.6-.3-2.3-2.2-2.6-3-.4-1-3.2-2-4-2-.6 0-4.6-1-5-.7-.3.2 2.8 1.5 4.4 1.8 1.7.2 3.3 1 3.7 1.7.3.7.7 2 1.4 2 .6.2 1.3.5 1.7 1.2.3.7 2 1.3 3 .8 1-.4 2-1.5 2.2-4z" style="fill:#565542;fill-opacity:1;fill-rule:evenodd;stroke:none;stroke-linecap:butt;stroke-linejoin:miter;stroke-opacity:1"/>
    <path id="path42154-6-6-0" d="M231.7 272c-.5.2-1 .6-.6 1 .5 1 1.5 1.7.6 2-.8.3-1.7 1-.6 1.7 1.2.7 1.2-1 2 .4 1 1.5.8 3.4.4 3.5-.4 0-.8.3-.8 1 0 .5-1.2.6-1.8.2-.7-.3-1 1-.2 1.4.5.4 1.4.6 2 .3.2 0 .2-.2.2-.3 2.3-1.8 2.6-2.6 2.6-3.5 1.2-1.2 1.6-2.8 1.7-4 1-1 2-2 2.3-3-1.4 1-3 .3-4 0-1 0-1.3 1.7-2.3.3-.4-.6-1-.7-1.3-.7z" style="fill:#565542;fill-opacity:1;fill-rule:evenodd;stroke:none;stroke-linecap:butt;stroke-linejoin:miter;stroke-opacity:1"/>
    <path id="path42170-0-0-6" d="M209.4 286.7c-.7.4-1 2.6 0 2 1-.6 3 1 1.6 1.3-1.5.3 1 2.6-1.7 2.2-2.6-.5-1.5 1-3 1-1.6 0-.6 1.2-1.4 1.8-1 .6-.8 2 .6 1.6 1.4-.3 2-.6 2-1.3 0-.6 1.5-.8 2-.2.5.8 1 1.6-.2 1.5-1.2-.2-.7 1.4-1.7 1.7-1 .3-2 1.8-.8 2 1 .2 1.4.7 2 1.5 1 .8 1.8-1 1.4-1.8-.4-.8-.5-2.2.3-2 .8.3 1.7-.3 1.2-1-.6-.5-.5-2.8 1-3 1.3-.4 1-2.8 1.7-3 .7 0 .5-.5 0-.7-.7-.3-1-.4-1.8.4s-1.4-.2-.8-1.2c.7-1-.7-4-2.8-2.8z" style="fill:#565542;fill-opacity:1;fill-rule:evenodd;stroke:none;stroke-linecap:butt;stroke-linejoin:miter;stroke-opacity:1"/>
    <path id="path42172-4-2-2" d="M221.8 275.5c-.5-1-1-2.5-1-3.2 0-.8-1.8-3-2-3.3-.5-.4-1.6.2-.7 1 1 1 1.2 1.3 1.3 1.8 0 .5 1 .5 1 1.4 0 .8.2 2.4.7 2.6.5.2 0 1.3.7 1.3.7.2.3-1 0-1.5z" style="fill:#565542;fill-opacity:1;fill-rule:evenodd;stroke:none;stroke-linecap:butt;stroke-linejoin:miter;stroke-opacity:1"/>
    <path id="path42174-8-6-4" d="M224 277.4c-1.2 0-1-1.5-.3-1.4 1 .2 1.8.4 2.5 0 .7-.2 2 1 3.2 1.3 1 0 1 1.2 1.8 1.5 1 .3.3 1.5-.4 1-.7-.6-1-.5-2-.5-.7 0-1.6-1.7-2.3-1.5-.6.2-1.3-.3-2.6-.4z" style="fill:#565542;fill-opacity:1;fill-rule:evenodd;stroke:none;stroke-linecap:butt;stroke-linejoin:miter;stroke-opacity:1"/>
    <path id="path42176-2-0-1" d="M223 269.6c-1-.2-2.4-.6-2.4-1.4 0-.8-.8-1.2-.8-2 0-.7-1-1.4-1.5-1.7-.5-.3-.2-1 .3-1s2.2 1.5 2.2 2.2c0 .8.2 1.6.7 1.8.5 0 1.3.8 1.8 1 .6 0 .8 1.4-.4 1z" style="fill:#565542;fill-opacity:1;fill-rule:evenodd;stroke:none;stroke-linecap:butt;stroke-linejoin:miter;stroke-opacity:1"/>
    <path id="path42178-0-6-3" d="M249.4 250c.4-2 .3-2.4-.2-2.7-.4-.4-.5-1-.3-2 0-1-.6-2.8-1.2-3-.5-.3-2.3-.5-3-.8-.7-.2-1-.6-1.7-1.4-.4-.7.5-1.2 1-.6.7.6 1 1 1.7 1.2.7 0 2 0 2.4.3.5.3.5-.8 0-1-.4-.2-1.3-1-2-1.2-.7 0-1.8-1.6-2.2-2.2-.3-.6-3-1.6-3.6-2.6-.6-1-1.8-1.8-2-2.3-.5-.6-2.5-1.7-2.8-2-.4-.2-.4-1 .3-.7.8.2 3.2 1.7 3.5 2.2.2.5 1 1.8 1.7 2 .7 0 3 0 3.7 1.2.7 1 1.7 1.6 2.4 2 .8.3 1-1 .3-1.6-1-.4-1.6-1-2-2-.5-.8-1.2-2-2-2.2-1 0-2.4-2-3-2.8-.3-1-1.7-1-2.4-1.3-.8-.3-1.7-1-2.3-1.5-.5-.5 0-1.7.8-1.6.8 0 3.7 1 4.2 2 .4.8 1.3 1.8 2 2 1 0 2.3.5 2.2-.2-.2-.7.8-.6 1.2-.7.3 0-1.3-.7-1.4-1.2 0-.5-1-.6-.8-1.4 0-1-.4-1-1-1.2-.3-.2-.6-1.6.4-1.5 1 0 2.7.8 2.3 2-.3 1 .5 1 1.2 1.5.6.5 1-.2.6-.8-.3-.6.7-2 0-2-.5 0-.7-1.6.4-1.5" style="fill:#565542;fill-opacity:1;fill-rule:evenodd;stroke:none;stroke-linecap:butt;stroke-linejoin:miter;stroke-opacity:1"/>
    <path id="path42180-8-8-9" d="M230 220c-1-.3-1.2-2-.2-2 1 .3 4.3 1.7 5 2.3 1 .5 5 1 6.2 1 1.2-.2 1.3 1.3.3 1.5-1 .3-5.7-.8-6.4-1-.8-.5-2.5-.5-3-1-.5-.4-1.3-.7-2-1z" style="fill:#565542;fill-opacity:1;fill-rule:evenodd;stroke:none;stroke-linecap:butt;stroke-linejoin:miter;stroke-opacity:1"/>
    <path id="path42182-8-9-4" d="M246.5 220.5c-.4-.8-2.8-3.7-3.6-4-1-.6-2.3.2-1.5 1l4.5 3.6c.7.7.7 0 .5-.5z" style="fill:#565542;fill-opacity:1;fill-rule:evenodd;stroke:none;stroke-linecap:butt;stroke-linejoin:miter;stroke-opacity:1"/>
    <path id="path42184-4-7-5" d="M241.3 206.6c-.6 0-.7.7 0 1.2 1 .6 2 2.6 2.8 3.2 1 .6 1 2 1.8 2.6.8.4 2 1.4 2.4 2.5 0-1 .3-2.2.6-3l-1.4-1.2c-.7-.6-2.3-3-3.3-3.7-1-.6-1.6-1.3-2.4-1.4h-.3z" style="fill:#565542;fill-opacity:1;fill-rule:evenodd;stroke:none;stroke-linecap:butt;stroke-linejoin:miter;stroke-opacity:1"/>
    <path id="path42186-2-9-9" d="M237 188.8c-1 0-1.8 2-1.2 2.5.5.7-.5 2.7.3 4 .8 1.4 0 6 .7 6.8.5 1-.2 1.7.8 3s0 2.6.6 3.3c.7.6.8 1.3.8 3 0 1.5 1 4 4.4 3.4-4-.7-2.3-2.4-3.2-3.8-1-1.5.2-2.7-.4-3-.7-.3-.8-1-.6-2 .2-1-.8-2-.8-3 .5.4 2.5 1.8 3.6 2 1.2.3 2.8 1.2 3.3 2 .5.7 1.3 1 2.5 2v-3.2l-.6-3c-.6-1.8-2.2-7.3-3.4-14-2.2 1.4-1 3.6-1 4.5-.2 1 .3 1.8.7 1.8.4 0 1 .5.4.7-.6.3 0 1.2-1 1.4-.8.4-.4 1.5.4 1.5s1.8 1.4 1.7 2c0 .6-.2 1.4.3 2.2.5.8-1 1.2-1 .5 0-.8 0-1.7-1-1.4-1 .2-2.4-4.7-2.8-5.3-.3-.5 0-.4 1 0 1 .3.2-2-.8-2.4-1 0-2.5-4.5-3.2-5 0-.2-.2-.2-.3-.2zm1 7.7h.2c.7.5 1.5 2 1.5 2.8 0 .8 1.2 1.2 1.4 2 .2.7.8 1 1.4 1.6 1 0 .2 1-.4.7-.7-.3-1-.6-2-1.3-1-.6-1.5-.5-2-.5-.3-.2-.3-.7.2-1 .6-.2 0-.6-.3-.8-.5-.2-1-1.2-.4-1.3.6 0 1-.6.3-1-.6-.6-.6-1.5 0-1.5z" style="fill:#565542;fill-opacity:1;fill-rule:evenodd;stroke:none;stroke-linecap:butt;stroke-linejoin:miter;stroke-opacity:1"/>
    <path id="path42191-3-4-8" d="M235.2 199.8c-.6-.4-1.3-.8-2-.8-.5 0-1-1-2-.7-.7 0-.7 1.3 0 1 .4 0 1.4-.2 2.2.7.8 1 1.2 1 1.8 1.2.5.2.7-.8 0-1.4z" style="fill:#565542;fill-opacity:1;fill-rule:evenodd;stroke:none;stroke-linecap:butt;stroke-linejoin:miter;stroke-opacity:1"/>
    <path id="path42193-2-9-1" d="M215.2 287.4c-.7-1.3-2-4-2.8-4.6-.7-.7-2 .2-1 2 .8 1.7 3 2.4 3 3 .3.8 1.2.2.8-.4z" style="fill:#565542;fill-opacity:1;fill-rule:evenodd;stroke:none;stroke-linecap:butt;stroke-linejoin:miter;stroke-opacity:1"/>
    <path id="path42195-8-7-5" d="M227 280.3c-1-.6-7.2-3.3-7.4-3.8-.2-.5-1.2 0-.4 1.2 1 1.2 4 2.3 5 2.6l2.5.7c1 .3 1-.5.4-.7z" style="fill:#565542;fill-opacity:1;fill-rule:evenodd;stroke:none;stroke-linecap:butt;stroke-linejoin:miter;stroke-opacity:1"/>
  </g>
  <g id="g35757" style="display:inline;opacity:1;enable-background:new" transform="translate(0 -1)">
    <g id="g72694" style="display:inline;enable-background:new">
      <path id="path32509-8-3-1-9-4" d="M279.6 325.7c2.4 3.8 7 3 7 1.7 0-10 12-40.3 28.6-45.8-2-4-.5-1.8-3.3-6-18.8 13-46.4 25-73.3 20-.4 2 .4 7.2.4 7.2 15.5-2.6 34 12.2 40.6 23z" style="display:inline;fill:#e6e6e6;stroke:#b3b3b3;stroke-width:1px;stroke-linecap:butt;stroke-linejoin:miter;stroke-opacity:1;enable-background:new"/>
      <path id="path32509-8-3-1-9-4-2-2" d="M304 287.5c-11.6 12-17 26.7-17.7 32.7-.8 6.2-2.6 4.4-4 4.5-.8 0-1.2 1.8-3.8-1.3-4.8-5.8-15.7-18-26.6-21.2 3.3 1.3 8 4 8.8 5.2-6.3-3.6-11.8-5.5-17-6.3 4 1.2 8.5 2.7 13.2 5v.2c.5 0 .8.3 1.2.5 9.3 4.8 17.5 12.6 21.4 19 2.4 3.8 7 3 7 1.6 0-.8 0-2 .2-3-.7-4.7 2-19.5 17.2-36.8z" style="display:inline;fill:#cccccc;stroke:none;enable-background:new"/>
      <path id="path72569" d="M238.8 298c19 1.5 39.5 2 74-20.8" style="color:#000000;display:inline;overflow:visible;visibility:visible;fill:none;stroke:#b3b3b3;stroke-width:0.5;stroke-linecap:butt;stroke-linejoin:miter;stroke-miterlimit:4;stroke-dasharray:1, 0.5;stroke-dashoffset:0;stroke-opacity:1;marker:none;enable-background:accumulate"/>
      <g id="g3406-8-6" style="display:inline;enable-background:new">
        <path id="path3096-4-2-7" d="M272.8 295l2-2.3c1.3 1 1.2 3.4 1 4.2l-2.7-.5-1.5 1.8c-1.3-1-1.7-2.4-1.7-3.8 1.3 0 3 .4 3 .4z" style="fill:#ffd5d5;stroke:#ffaaaa;stroke-width:2.99885654px;stroke-linecap:butt;stroke-linejoin:miter;stroke-opacity:1"/>
        <path id="path3098-8-3-6" d="M272 294.6c-.2.5.5 2 .7 2.3.3 0 .6.3 1-.2 0-1.4 0-1.6-.5-2.6-.7 0-1 .4-1 .4z" style="fill:#ffd5d5;stroke:#ffaaaa;stroke-width:2.99885654px;stroke-linecap:butt;stroke-linejoin:miter;stroke-opacity:1"/>
      </g>
    </g>
    <path id="path26706" d="M297.2 292.6c-5.4 5.2-8.2 10-10.5 15 2.6-4.6 5.7-10 10.5-15z" style="display:inline;fill:#cccccc;fill-opacity:1;stroke:none;enable-background:new"/>
    <path id="path26708" d="M293 292.8c-3.5 3.5-9 7.4-11 7.7 4.7-1 7.3-4 11-7.7z" style="display:inline;fill:#cccccc;fill-opacity:1;stroke:none;enable-background:new"/>
    <path id="path26710" d="M253.4 299.7c3.5 1.3 10.5 2.5 14.6 2.3-4-.3-10.6-1-14.6-2.3z" style="display:inline;fill:#cccccc;fill-opacity:1;stroke:none;enable-background:new"/>
    <path id="path37904-8-9-9" d="M273 208c-3.6 2-8 5.5-9.8 11-.2-4.4-.4-11.7 0-18-2.6 8-3.4 119 1.4 140.6 2-.3 5.7.3 5.7.3 2.5-31.5 2.7-134 2.7-134z" style="fill:#858790;fill-opacity:1;fill-rule:evenodd;stroke:none;stroke-linecap:butt;stroke-linejoin:miter;stroke-opacity:1"/>
    <path id="path16238-02-9-2" d="M244 186.6c-1.4 3-.3 8.8-1.5 15.5-1.4 7.4-5.8 12.8-5.8 19.8 0 7.6 5 25.6 4 30-2 8.7-1.6 19-2.4 24.6-1 5.7-4.3 26.4-5 35-.6 8.7 1.8 24.8 2 27.3 8.8 5.8 27.6 6.7 30.2 6.5-1-12.6-2.3-41-1-56.6 1.3-15.7 0-23.3-1.6-36-1.7-12.5-3-27-2-33.2 1-6 3-18.2 3.4-22.3.5-4-1.6-17.7.8-22.4-3.7-.7-2.5.6-10 1.7" style="fill:#93947a;fill-opacity:1;fill-rule:evenodd;stroke:#69644c;stroke-width:0.99999994px;stroke-linecap:butt;stroke-linejoin:miter;stroke-opacity:1"/>
    <path id="path39933-4-0-5" d="M236 339s-.7-.6.2-2.7c.8-2 .8-5 .2-7.3-.4-1.4.4-4.5 3-4.6 2.7 0-.8-2.2-1.6-3-1-1-1.2-3.5-.5-5.6.7-2-1.6-2.2-1.2-4.4.5-2.3-1-4.8.5-7.8 1.4-3-1.3-5 .6-7.7 2-3 1.8-5.6 1.4-7.2-.4-1.6-.6-3 1.6-5.5 2.2-2.4 1-6.2 2.8-6.5 1.8-.3 2-1.5 3.7-4 1.8-2.4 2.5-13 3-16.6.5-3.4.2-11-.6-12.3-1-1.2-1.5-3-1-5 .3-2-1.8-10-2.5-12.8-.8-3-.8-5.8-.4-8.2.5-2.5 0-6.2.2-8 0-1.5 1.2-4.5 3.8-6.8 2.4-1.3 1.7-2 1.8-3.3 0-1.3-.5-2.8.5-4 1-1.3 1.8-1.5 1.4-3-.4-1.4-1-3 0-4.8 1-2 1.6-2 1.4-3.8 0-1.6 0-4 .8-5.6 1-1.7-.7-3.8 4.3-5.2" style="fill:none;fill-rule:evenodd;stroke:#69644c;stroke-width:0.99999994px;stroke-linecap:butt;stroke-linejoin:miter;stroke-opacity:1"/>
    <path id="path16366-26-1-0" d="M286.2 177c3.3 2 5.3 3.7 7 5.2 1.7 1.6-4.7 3.6-3.6 6.5-4 .7-4 4.5-4 5.5-2.2 1-1.4 3.3-3.5 4.3-2 1-7.7 8-10.2 10-2.4 2-5.3 5.4-6.2 10.4-1 4.8-1.4 14-.8 20.5.6 6.4 3 25.3 3.5 31.4.6 6-.5 14.2-.2 21.4.3 7.3 1 12.8.5 15.6-.4 2.8 1.4 16.5.7 20.4-.7 4 .7 14 1 16.4 17.4 2.5 51.7-6.7 56.3-12.5-1.2-19.2-2.3-24-3-25.7-.7-1.7.3-3.4-1.2-6-1.4-2.4-1.7-4-2-6-.2-2.3-.3-4.3-1.4-5.8-1.3-1.4-.6-3.8-2-6.3-1.4-2.4-2.3-4.7-2.5-6.3 0-1.6-3.2-8.6-4.4-11.7-1-3-5.6-17-5.4-21.3 0-4.3 17.3-36.2 12.5-58.5-1-4.7-1.2-7.8-3.5-10-3.8-3.5-11-.4-14.3-3.5-4.8-4.3-6.8 4-13 5.8z" style="fill:#93947a;fill-opacity:1;fill-rule:evenodd;stroke:#69644c;stroke-width:0.99999994px;stroke-linecap:butt;stroke-linejoin:miter;stroke-opacity:1"/>
    <path id="path19472-5-7-8" d="M239.7 320c1.3-.5 4 3 5 4.2 1 1.3 5.8 5.2 7.3 6.4-1.6-.6-2.2-1-3.3-1-1-.4-4.6-3.3-5.6-5.2-1-2-3.4-2.4-3.3-4.3z" style="fill:#565542;fill-opacity:1;fill-rule:evenodd;stroke:none;stroke-linecap:butt;stroke-linejoin:miter;stroke-opacity:1"/>
    <path id="path19474-5-0-2" d="M282 307.7c8.4-5 15.8-.4 18.4 1.3-5.6-1.3-14-2-18.3-1.3z" style="fill:#565542;fill-opacity:1;fill-rule:evenodd;stroke:none;stroke-linecap:butt;stroke-linejoin:miter;stroke-opacity:1"/>
    <path id="path19476-7-3-1" d="M293 262.3c2.3-4 14 .4 16 3.5 2 3 2 4.4 2.8 5.2.7.8.6 2.6 1.2 3.3.6.7 1.5 2.4.5 3-1 .5-1.5-.7-1.5-2 0-1.5-1.7-2-2.7-2.4-1-.6-2.6-2-3.5-2.6-1-.6-1.2-1.8-3-2.7-2-1-2.8-1.2-3-2-.4-.6-2.4-.6-2.7-1.5-.2-1-1.5-.8-2.3-.7-.8 0-1.8-.8-1.6-1.2z" style="fill:#565542;fill-opacity:1;fill-rule:evenodd;stroke:none;stroke-linecap:butt;stroke-linejoin:miter;stroke-opacity:1"/>
    <path id="path19478-23-7-2" d="M248.4 282.8c.4 2.8 1.2 6 1.6 7.7.3 1.5 3.4 1 3-.5-.7-2-1.6-4.8-2.4-7.8-.3-1-2.3-.5-2.2.6z" style="fill:#323130;fill-opacity:1;fill-rule:evenodd;stroke:none;stroke-linecap:butt;stroke-linejoin:miter;stroke-opacity:1"/>
    <path id="path19480-9-3-8" d="M242.5 271.8l2-2.2 7.7 13-2.3 2.2c-3.5-4.7-5.5-9-7.5-13z" style="fill:#858790;fill-opacity:1;fill-rule:evenodd;stroke:#69644c;stroke-width:0.99999994px;stroke-linecap:butt;stroke-linejoin:miter;stroke-opacity:1"/>
    <path id="path19482-6-2-4" d="M243.3 271c0 .7.6 1.5 1 2 .7.3.8 1 1 2 .2 1 1 2.3 1.6 2.8.6.5.8 1.3.8 2 0 .4 1 1.2 1.4 1.4.4 0 1.4 1.7 1.8 2.5l-1 1c-3.5-4.6-5.5-8.8-7.5-13z" style="fill:#323130;fill-opacity:1;fill-rule:evenodd;stroke:none;stroke-linecap:butt;stroke-linejoin:miter;stroke-opacity:1"/>
    <path id="path19500-4-3-9" d="M263 324.2c-4-.6-5.4-3-6-5.6 1.6 1.4 5 4.4 6 5.6z" style="fill:#565542;fill-opacity:1;fill-rule:evenodd;stroke:none;stroke-linecap:butt;stroke-linejoin:miter;stroke-opacity:1"/>
    <path id="path19502-1-0-3" d="M257 311.6c-1-1.5-2.2-3.3-3.7-3-2.2.3-4 1-5.4 0-1.3-.7-2.4-.2-2.7-.2 1.7.4 1.6 1 2.4 1.8.7 1 2.3.7 3.5.4 1.2-.4 3.6 1 6 1z" style="fill:#565542;fill-opacity:1;fill-rule:evenodd;stroke:none;stroke-linecap:butt;stroke-linejoin:miter;stroke-opacity:1"/>
    <path id="path19504-0-9-1" d="M276.5 279.8c.2-5.7-6.6-11.3-7.4-10-.7 1 1 2 2.4 2.6 1.4.5 2.6 2.3 2.6 3.7 0 1.4 2 1 2.5 3.8z" style="fill:#565542;fill-opacity:1;fill-rule:evenodd;stroke:none;stroke-linecap:butt;stroke-linejoin:miter;stroke-opacity:1"/>
    <path id="path19506-0-4-0" d="M259.5 238.3c-2.6-1.3-6.3-1.6-7.5-1.2-1 .4-6.6.5-8.2 0-1.6-.3-4.3.8-4.7-1-.3 1.5 0 2.3 1 2.4 1.2 0 4-.4 5.4 0 1.2.7 2.5-.2 4 .2 1.3.4 8.2-.6 10-.3z" style="fill:#565542;fill-opacity:1;fill-rule:evenodd;stroke:none;stroke-linecap:butt;stroke-linejoin:miter;stroke-opacity:1"/>
    <path id="path19508-6-8-2" d="M265.5 238.7c1.5-1.4 3.6-1.6 4.7-1.2 1 .4 4.4 1.4 5.8 1 1.4-.4 2 .5 2 1 .2.7-1 1-1.8.6-.6 0-4.4-.4-6-1-1.5-.4-3.5-.6-4.7-.3z" style="fill:#565542;fill-opacity:1;fill-rule:evenodd;stroke:none;stroke-linecap:butt;stroke-linejoin:miter;stroke-opacity:1"/>
    <path id="path19510-17-8-9" d="M259 218.8c-2-.7-7.6-.5-9-.3l-3.4.3-6 .8c-1.8.2-3.4 1-3.7 1.5 1-.4 4.2-.4 5.6-.4 1.5 0 2.4-.4 3.4-.7 1.4-.6 4.5-.6 6.2-.5 1.7 0 4.6-.8 6.8-.7z" style="fill:#565542;fill-opacity:1;fill-rule:evenodd;stroke:none;stroke-linecap:butt;stroke-linejoin:miter;stroke-opacity:1"/>
    <path id="path37262-9-0-6" d="M304.2 188.5c-5.3 3.5-8.4 3.4-10.2 5-8.7 7.8-23 12.7-27.8 23" style="fill:none;fill-rule:evenodd;stroke:#858790;stroke-width:2.99999976;stroke-linecap:butt;stroke-linejoin:miter;stroke-miterlimit:4;stroke-dasharray:none;stroke-opacity:1"/>
    <path id="path37264-69-0-6" d="M295.5 269.2l2.7 2.3-9.8 15.4-4-3z" style="fill:#858790;fill-opacity:1;fill-rule:evenodd;stroke:#69644c;stroke-width:0.99999994px;stroke-linecap:butt;stroke-linejoin:miter;stroke-opacity:1"/>
    <path id="path37266-4-4-1" d="M296.8 270.2l1.4 1.3-9.8 15.4-1.8-1.4v-.2s4-6 5.4-7.7c1.3-1.6 1.3-3 2.2-3.5.8-.5 2-2.4 2.6-4z" style="fill:#323130;fill-opacity:1;fill-rule:evenodd;stroke:none;stroke-linecap:butt;stroke-linejoin:miter;stroke-opacity:1"/>
    <path id="path19478-6-4-4-8" d="M291 283c0 3-.5 6-.6 7.7-.2 1.6-3.5 1.2-3.2-.4.3-2 1-4.8 1.4-7.8.2-1.2 2.3-.5 2.3.5z" style="fill:#323130;fill-opacity:1;fill-rule:evenodd;stroke:none;stroke-linecap:butt;stroke-linejoin:miter;stroke-opacity:1"/>
    <path id="path37557-6-0-5" d="M295 285.5c2-.6 10.2.7 13.7 2.8-3-5-9.4-5-13.7-2.8z" style="fill:#565542;fill-opacity:1;fill-rule:evenodd;stroke:none;stroke-linecap:butt;stroke-linejoin:miter;stroke-opacity:1"/>
    <path id="path37559-0-2-9" d="M315 283c-5.8-4-17.7-5-20.6-1.3 6.5-1.5 14.5-.7 20.6 1.2z" style="fill:#565542;fill-opacity:1;fill-rule:evenodd;stroke:none;stroke-linecap:butt;stroke-linejoin:miter;stroke-opacity:1"/>
    <path id="path37561-9-8-9" d="M310 276.7c-7.4 0-11.5-5-12.3-8-.8-3.2-2-2.6-3.3-3-.3 1.6.5 3 1.7 4-4-1.8-6-8.6-6-12.7.6 2.3 1.6 5 2.2 6.2.6 1 2 1.6 3.5 1.7 1.7 0 3 .3 4.3 3 1.4 2.4 2.4 1 4 3.2 1.8 2 4.4 1.7 6 5.5z" style="fill:#565542;fill-opacity:1;fill-rule:evenodd;stroke:none;stroke-linecap:butt;stroke-linejoin:miter;stroke-opacity:1"/>
    <path id="path37563-5-9-6" d="M286.3 303c-5 4-11.8 5.2-17 3 5-1.8 5.2-1.4 6.7-1 1.5.6 4.6-2 10.3-2z" style="fill:#565542;fill-opacity:1;fill-rule:evenodd;stroke:none;stroke-linecap:butt;stroke-linejoin:miter;stroke-opacity:1"/>
    <path id="path37565-2-5-5" d="M312.6 175.3c2 2 3.6 5.2 4.5 9.4 5 22.3-12.3 54.2-12.4 58.5v.6c-2-2-8-2.3-10.2-1.8-2.5.5-3.5-2.5-2-3 1.5-.8 2.7-1.2 2.5-2-.2-.7-3.2-2.6-4-3 2.4.5 3 1.5 4 2.2.7.6 1.5-.8.7-2-.7-1-3.6-3-3.4-4.2.2-1.2 1.4-.8 2-.2.7.7 2.2 3 2.6 4 .4 1 2.3-.5 2.4-1.3.2-.8-.7-2.6-1.2-3.5.3 0 .8.7 1 1.3.4.6 1-.3.4-1.5-.7-1-.5-3-1-3.5-.8-.6-2.8-.8-3.8-1-1-.3-1.2 1-.5 2-1.2-1.3-.7-2-.7-2s-1.3-.6-1.7 0c-.6.5-.5 1-.5 1.6-1.3-1.7-.3-4.8.5-5.7.8-1 .6-1.6 0-3-.6-1.2 0-2.7 1-3-.6.3-1 2.3-.4 3 .5.8 1.2 2.5.3 3.3-1 1-.2 2 1 1.6 1.4-.5 2.2 0 3.4.6 1.3.8 3 0 3-1.3-.3-1.5 1-2.6.5-4-.7-1.5-.4-3-1.3-3.8-1-1 .5-2.4-2.2-4.6 1.4-.3 2 2 3 3 .8 1.2 1.6.5 1-.5l-1-2c-.4-.7.3-1 .7-.2.4 1 1.2 2 1.5 3 .4.6 1 .3 1.4-.6.5-1 .6-2.4.3-3.4s-.4-3.6.4-4.3c.7-.8-.5-1-1-1-.6 0-1 2-.8 3.3-.7-2.2 0-4 .7-4.4.6-.6-.4-1.3-1.2-1.6.3-1.2 2-.7 3 0 1 .5 1.8-1 .4-1.6-1.4-.7-4.8-1.3-5.4-.4-.6 1-1.3.7-2.6.3-1.4-.5-3.3.8-3.5 1.7-.2.8 1.4 1.5 2.8 1.4 1.5 0 .7 1.3-.7 1.3-1.3 0-2.8 0-4 1-1 1-1.6 0-4 .4-2.3.6-2.7 1.3-.8 1.3 2 0 3.6 0 5.2.6 1.7.6 2.8 1.6 3.7 2.4-1 0-2 0-2.8-.5-1-.6-2.4 0-3-1-.4-1-2.4.5-3.3-.2-1-.7-1.6.8-3.7.5-2.2-.4-1 1-3 1.5-1.8.5-1 1.5-2.6 1.7-1.6.2-.6 1.6-2 2-1.5.3-1.7 1-3 1-1.4 0-3.2 2.2-6 1.5 4.7-6 10.6-9.6 13-11.2l14-9.8c2-1 11.4-5.5 13.5-7.6 2-2 7.2-4.7 4.6-11.3z" style="fill:#565542;fill-opacity:1;fill-rule:evenodd;stroke:none;stroke-linecap:butt;stroke-linejoin:miter;stroke-opacity:1"/>
    <path id="path37861-4-9-1" d="M291.5 266.3c-.7-.4-2 2-2.8 2-1 .2-2.4 2-2.3 2.5.2.4 0 1.3.7 1.4.6 0 .6-1 .3-1.3.4-.4 1.3-.4 1.7-1.2.4-.8 1.8-2.6 2.3-2.7.6 0 .5-.5.2-.7z" style="fill:#565542;fill-opacity:1;fill-rule:evenodd;stroke:none;stroke-linecap:butt;stroke-linejoin:miter;stroke-opacity:1"/>
    <path id="path37863-6-4-4" d="M242.6 332.2c.4 0 .8 0 .6.5-.2.7 0 .7.5 1 .6 0 1.6.3 1.2 1-.6.7 0 1.8 1 2 1 0 1.6-1.3 1.2-1.8.5.5.3 1 0 1.4 0 .5-.4 1 .3 1.7.7.6 1.5 1 2.4.7.8-.3 1.4 0 2 .6.8.6 1.3-1.3 1-2.3 1.3 2.3-.5 4-1.5 3.5-1-.6-1.7 0-1.7 1 0 .7 1 .8 2 .6-.5.3-1 .5-.7.8.3.3 1.5.3 2 0 .8-.6 2-1 2.8-1 1 .3 2.7.6 3.4 0 .7-.4 2-.2 2.8 0 .8 0 1 1.2.2 1-.7 0-3 0-5 .7l5.3 1.6c-6.2 0-20-1.6-27.2-6.3l-.5-2.5c.4.4.8.5 1.3.4.8 0 1.4.6 2 .6.6 0 1 .5 1.7.5s.8.5 1.3.5c.6 0 .8.5 1 .6.3 0 .4.8 0 .7-.4 0-.6 0-1.2-.6-.5-.6-1.2-.2-1.6-.6-.3-.4-1-.2-1.4-.5-.3-.4-.8 0-1.2-.4-.3-.4-.8-.6-1.2-.2-.4.4.6 1.5 1.6 1.3 1-.3.8.7 1.8.5 1-.2 1 1.2 2 1 .7 0 1 0 1.5.8.4.7 1.3.4 1.8.5.6 0 1-.2.6-.6-.6-.5-.6-.5-1.5-.7 1-.2 2.8.7 3.6 1 1 .3 1.3-1.3.5-1.4-.8-.3.2-1.3-2.3-2-2.4-.8-.4-3.3-2-3.5-1.3-.3-1-1.2-.7-2 0 0 .3-.3.6-.3z" style="fill:#565542;fill-opacity:1;fill-rule:evenodd;stroke:none;stroke-linecap:butt;stroke-linejoin:miter;stroke-opacity:1"/>
    <path id="path37900-0-1-0" d="M262 216c.5-2 3.8-1.8 3.4.5-.3 1.8-.4 4-.5 4.8-.2.7-3.8 1-3.7-.4.2-1.4.3-3.2.7-5z" style="fill:#323130;fill-opacity:1;fill-rule:evenodd;stroke:#000000;stroke-width:0.99999994px;stroke-linecap:butt;stroke-linejoin:miter;stroke-opacity:1"/>
    <path id="path37902-9-2-8" d="M263 216.4c1 0 2.3.3 2.2 1 0 2.2 0 6.4.2 7.8 0 2.3-5 2.6-4.8-.2l1-8c.2-.3.7-.5 1.3-.6zm-1 6.7v2c-.2.5 2.2.8 2.3 0 .2-.5 0-2 0-2s-1.4.2-2.3 0z" style="fill:#323130;fill-opacity:1;fill-rule:evenodd;stroke:#000000;stroke-width:0.99999994px;stroke-linecap:butt;stroke-linejoin:miter;stroke-opacity:1"/>
    <path id="path37908-0-4-6" d="M279.2 239.5c0-1 2.6-.6 3.7-.3-.2-.8-1-1-2-1.5 1.8.2 3 .7 3 1.2.3.5 2.6.8 2.5 1.8 0 1-1 .5-1.7 0-.7-.3-2.3-.4-3-.5-.6-.2-2.7 0-2.6-.8z" style="fill:#565542;fill-opacity:1;fill-rule:evenodd;stroke:none;stroke-linecap:butt;stroke-linejoin:miter;stroke-opacity:1"/>
    <path id="path37910-1-0-0" d="M289.8 207c.4 0 .6.5.2.7-2.5 1-7.8 2.2-10.8 5-1.6 1.6-3.5 2.5-5.2 3.4-1.7 1-3.3 2.2-4.5 4-.2.4-1 0-.6-.4 1-2 2.8-3 4.6-4 1.7-1 3.5-2 5-3.4 3.2-3 8.7-4.2 11-5.2h.2z" style="color:#000000;font-style:normal;font-variant:normal;font-weight:normal;font-stretch:normal;font-size:medium;line-height:normal;font-family:sans-serif;text-indent:0;text-align:start;text-decoration:none;text-decoration-line:none;text-decoration-style:solid;text-decoration-color:#000000;letter-spacing:normal;word-spacing:normal;text-transform:none;direction:ltr;block-progression:tb;writing-mode:lr-tb;baseline-shift:baseline;text-anchor:start;clip-rule:nonzero;display:inline;overflow:visible;visibility:visible;opacity:1;isolation:auto;mix-blend-mode:normal;color-interpolation:sRGB;color-interpolation-filters:linearRGB;solid-color:#000000;solid-opacity:1;fill:#565542;fill-opacity:1;fill-rule:evenodd;stroke:none;stroke-linecap:round;stroke-linejoin:round;stroke-miterlimit:4;stroke-dasharray:none;stroke-dashoffset:0;stroke-opacity:1;color-rendering:auto;image-rendering:auto;shape-rendering:auto;text-rendering:auto;enable-background:accumulate"/>
    <path id="path37912-9-1-2" d="M267 222c.3 2 1 3 2.2 4 1.2 1 2.6-.4 1.2-1.3-1.3-1-2.7-1.8-3.4-2.8z" style="fill:#565542;fill-opacity:1;fill-rule:evenodd;stroke:none;stroke-linecap:butt;stroke-linejoin:miter;stroke-opacity:1"/>
    <path id="path37914-6-0-1" d="M266.6 225.7c0 2.7 2.7 10 9.2 12-4.3-3.7-8.7-11-9.2-12z" style="fill:#565542;fill-opacity:1;fill-rule:evenodd;stroke:none;stroke-linecap:butt;stroke-linejoin:miter;stroke-opacity:1"/>
    <path id="path37918-8-0-7" d="M271 219.5c-.3.6 1.6 1 2.4.8.7-.3 1.3-.5 2.3 0 1 .2 2.7.5 3.7.4 1 0-1 1.6-1.8 1.6 1.4 0 2.8-.5 3.2-1 .5-.4 3 .3 2.8 1-.2.6-.5 3 1.2 3 1.6-.2 2.7 1.6 3.6 1.6 1-.2 1 .4 1.8 1 .8.8 1.8-.3 2.8.2-1.5-1.3-2.3-.7-2.8-1.5-.4-.7-1-2.2-1-2.7-.3.8-1 1.3-1.8.7-.8-.7-2-.6-2.6-.7-.7 0-.3-1.7.5-1.6.8 0 1.4 0 1.7.5.3.5 1.5.2 1.4-.3 0-.6-1-1.7-2.4-1.6-1.4.2-2.3-.8-3.3-.7-1 0-1.6-.8-3-.6-1.5.3-2.8 0-3.4-.5-.6-.3-1.8-.2-2.4 0-.7.3-2 1-3 .3z" style="fill:#565542;fill-opacity:1;fill-rule:evenodd;stroke:none;stroke-linecap:butt;stroke-linejoin:miter;stroke-opacity:1"/>
    <path id="path37920-3-5-2" d="M262.7 255.4c.2.8-1.4 1-2 1-.6-.2-1.5.4-2.7.2-1.3-.2-2 .3-3 .2-.8 0-2.3.3-3.3 0-1 0-2.4.2-3 0-.5-.2-2.7 0-3-.5-.5-.6-.3-1-1-1.2-.5 0-.6 0-1-.5-.5-.4-1.4-.2-1.7-.7-.2-.6-.5-.5-.7-1 0-.4-.6 0-.7-1l-.2-1.8c1 2 1 1.4 1 1.8.2.3.6 0 .7.5.3.5 1.5.3 1.6 1 .2.5 1.3.3 1.6 1 .3.5 1.2 1 2 1 .5 0 .8.6 1.5.5.6 0 2.6-.2 3.2 0 .6.3 1.7.2 2.4 0s1.6 0 2.2-.3c.7-.3 1.2-.3 2-.2 1 0 1.4-.2 2 0 .8 0 2.2.8 2 0z" style="fill:#565542;fill-opacity:1;fill-rule:evenodd;stroke:none;stroke-linecap:butt;stroke-linejoin:miter;stroke-opacity:1"/>
    <path id="path39195-6-7-9" d="M289 243.8c-1.2 0-1-.7 0-.6 1 0 2-.2 2.8.5 1 .7 1 2 .3 1.7-.5-.2-1.8-.3-2.5-.2-.7.2-2.3 0-3-.4-1-.5-1.3-.4-1.8-.4s-.7-.8 0-.8c1 0 1.3 0 2 .5.4.4 1 .7 1.3.6.4 0 1-.3 1.5-.2.6.2-.5 1-.5-.6z" style="fill:#565542;fill-opacity:1;fill-rule:evenodd;stroke:none;stroke-linecap:butt;stroke-linejoin:miter;stroke-opacity:1"/>
    <path id="path37920-3-6-1-2" d="M267.3 255.8c0 .8 1.6 1 2.3 1 .8-.2 2 .5 4 .4 1.8 0 3.2.4 4.7.3 1.5 0 4.3.4 6.3.3 2-.2 4.4 0 5.6-.4 1-.2 4.6-.3 5.6-1s1.2-1.3 2-1.6c1-.2 1.2-.2 2-.8 1-.7 2-.6 2.5-1.3.5-.7.8-.7 1.2-1.2.3-.6.7-.3 1-1.2 0-.8.3-1.3.2-2-.7 2-1 1.6-1.2 2-.2.3-.5.2-.8.7-.4.6-1.8.6-2.2 1.3-.4.8-2 .8-2.8 1.6-.7.6-2.6 1.6-3.7 1.5-1 0-2 1-3.2 1-1-.2-5 0-6.3 0-1.3.4-3.4.3-4.7 0-1.3-.3-3 0-4-.4-1-.2-2.3-.5-3.6-.4-1.2.2-1.8-.2-2.7 0-.8 0-2.2 1-2.2.2z" style="fill:#565542;fill-opacity:1;fill-rule:evenodd;stroke:none;stroke-linecap:butt;stroke-linejoin:miter;stroke-opacity:1"/>
    <path id="path39226-2-4" d="M302.4 338.7l5-10.4 6.2-15.3c-2.4 2-8 13-8 13.8 0 .8 0 2-.5 3-.4.7-2.6 5-3.3 5.6-.6.8-.2 1.8-.5 2.6-.5 1 .3 2.5 1.2.7z" style="fill:#565542;fill-opacity:1;fill-rule:evenodd;stroke:none;stroke-linecap:butt;stroke-linejoin:miter;stroke-opacity:1"/>
    <path id="path39228-8-3" d="M306 338.8c-.7-2 .7-3 2.3-5 1.6-2 3.6-4 4-4.4.3-.6 2.4 0 1.3 1.2-1 1.3-2.6 2.4-2.8 3.4-.3 1-1.8 1.7-2 2.3 0 .6-1.5 1-1.6 1.6 0 .4-.5 1-1 .8z" style="fill:#565542;fill-opacity:1;fill-rule:evenodd;stroke:none;stroke-linecap:butt;stroke-linejoin:miter;stroke-opacity:1"/>
    <ellipse id="path39230-8-2" cx="-244.5" cy="381.9" style="color:#000000;text-decoration:none;text-decoration-line:none;text-decoration-style:solid;text-decoration-color:#000000;clip-rule:nonzero;display:inline;overflow:visible;visibility:visible;opacity:1;isolation:auto;mix-blend-mode:normal;color-interpolation:sRGB;color-interpolation-filters:linearRGB;solid-color:#000000;solid-opacity:1;fill:#808080;fill-opacity:1;fill-rule:nonzero;stroke:none;stroke-linecap:round;stroke-linejoin:round;stroke-miterlimit:4;stroke-dasharray:none;stroke-opacity:1;marker:none;color-rendering:auto;image-rendering:auto;shape-rendering:auto;text-rendering:auto;enable-background:accumulate" rx="2" ry="3.2" transform="matrix(-.977 .214 .213 .977 0 0)"/>
    <ellipse id="path39230-5-3-0" cx="-192.7" cy="400.5" style="color:#000000;text-decoration:none;text-decoration-line:none;text-decoration-style:solid;text-decoration-color:#000000;clip-rule:nonzero;display:inline;overflow:visible;visibility:visible;opacity:1;isolation:auto;mix-blend-mode:normal;color-interpolation:sRGB;color-interpolation-filters:linearRGB;solid-color:#000000;solid-opacity:1;fill:#808080;fill-opacity:1;fill-rule:nonzero;stroke:none;stroke-linecap:round;stroke-linejoin:round;stroke-miterlimit:4;stroke-dasharray:none;stroke-opacity:1;marker:none;color-rendering:auto;image-rendering:auto;shape-rendering:auto;text-rendering:auto;enable-background:accumulate" rx="2" ry="4" transform="matrix(-.94 .342 .341 .94 0 0)"/>
    <ellipse id="path39230-4-6-4" cx="-328.1" cy="323.8" style="color:#000000;text-decoration:none;text-decoration-line:none;text-decoration-style:solid;text-decoration-color:#000000;clip-rule:nonzero;display:inline;overflow:visible;visibility:visible;opacity:1;isolation:auto;mix-blend-mode:normal;color-interpolation:sRGB;color-interpolation-filters:linearRGB;solid-color:#000000;solid-opacity:1;fill:#808080;fill-opacity:1;fill-rule:nonzero;stroke:none;stroke-linecap:round;stroke-linejoin:round;stroke-miterlimit:4;stroke-dasharray:none;stroke-opacity:1;marker:none;color-rendering:auto;image-rendering:auto;shape-rendering:auto;text-rendering:auto;enable-background:accumulate" rx="1.9" ry="2.5" transform="matrix(-1 -.02 -.019 1 0 0)"/>
    <path id="path41091-1-5" d="M304.5 310.8c1-.2 1.7.7 1 2-.6 1.3-2.3 1.4-2.5 2.5-.3 1-1.2 1.4-1.3 2.7 0 1.3-1.2 2.8.2 2 1.4-.7 2-2.4 3.2-2.8 1-.4 1.5.7.6 1.6-1 1-2.2 1-3 2.3-1 1.2-2 .8-2.2 1.8 0 1-1 2-.7 3.3.4 1.5-.6 4-.3 6.5.3 2.6-1 2.5-.8 4.6 0 2.3-1.5 4.4-.5 5.6-9.8 2-20.6 3.2-28 2.2 2-.7 3.5-2 4-3 .8-1 2.3-.8 2 0-.4.8-1.2 2-2.4 2.8-1 .7 2.5-.4 3.2-1.4.8-1 1.3-2.2 2.5-2.7 1-.6 2 .2 3 0 1.2 0 3 0 2 1s.6 1.3 1 .4c.5-1 1-1.8 2.2-1.5l1 .3s1.7 0 2.4-.8c.6-.7 2 .5 2.7.4.8 0 1-.7 0-1-.8 0-.6-2-1.6-2s-1-1.2 0-1.2c.8 0 3.8-3.7 3.8-4.7v-1s.5-.5.7-1.3c0-1 1.3-1.6 1.3-2.3 0-.8.2-.8.4-1.7.2-1-.2-1.2-1-.5-.6.7-1.2 1.6-2 1.8-.6.2-1 1-2 1.5-1 .4-2.6 2-3.6 2.7-.8.7-1.4 1-2.3 1-1 0-1.7-1.4 0-2.3 1.6-1 5.6-4.6 6.7-5 1-.4 2.5-2.6 1.3-2.5-1.2 0-1.5.6-2.2 1-.8 0-.5-1.7.2-2 .7-.3 1.6-.6 2.7-.6 1.2 0 3-1.7 3-3.2.2-1.5 1.3-3.5 2.4-4 1-.6 1-1.8 2.3-2.3.2-.2.3-.2.5-.2zm-6 19.8c-.4 0-.8.2-1 .4 0 .4 0 1.2-.3 1.8-.2.6-2.2 3-2.8 3.3-.7.6-1.2 1.5-.8 2 .5.5 1.8-1.5 2.5-2.2 1-.7 1-1.6 1.8-2 .6-.5 0-2 .8-2 .6 0 .5-1.2 0-1.2zm-.8 6.3c0-.2 0 0-.2 0-.5 0-1 1-1.6 1-.7.2-1 1.7.2 1 .5-.2 1-.7 1.4-1 .4-.3.5-1 0-1z" style="fill:#565542;fill-opacity:1;fill-rule:evenodd;stroke:none;stroke-linecap:butt;stroke-linejoin:miter;stroke-opacity:1"/>
    <ellipse id="path39230-5-3-5-15" cx="-194.8" cy="402.9" style="color:#000000;text-decoration:none;text-decoration-line:none;text-decoration-style:solid;text-decoration-color:#000000;clip-rule:nonzero;display:inline;overflow:visible;visibility:visible;opacity:1;isolation:auto;mix-blend-mode:normal;color-interpolation:sRGB;color-interpolation-filters:linearRGB;solid-color:#000000;solid-opacity:1;fill:#666666;fill-opacity:1;fill-rule:nonzero;stroke:none;stroke-linecap:round;stroke-linejoin:round;stroke-miterlimit:4;stroke-dasharray:none;stroke-opacity:1;marker:none;color-rendering:auto;image-rendering:auto;shape-rendering:auto;text-rendering:auto;enable-background:accumulate" rx="1.3" ry="2.7" transform="matrix(-.938 .348 .335 .942 0 0)"/>
    <ellipse id="path39230-5-3-5-1-9" cx="-199.8" cy="409.9" style="color:#000000;text-decoration:none;text-decoration-line:none;text-decoration-style:solid;text-decoration-color:#000000;clip-rule:nonzero;display:inline;overflow:visible;visibility:visible;opacity:1;isolation:auto;mix-blend-mode:normal;color-interpolation:sRGB;color-interpolation-filters:linearRGB;solid-color:#000000;solid-opacity:1;fill:#666666;fill-opacity:1;fill-rule:nonzero;stroke:none;stroke-linecap:round;stroke-linejoin:round;stroke-miterlimit:4;stroke-dasharray:none;stroke-opacity:1;marker:none;color-rendering:auto;image-rendering:auto;shape-rendering:auto;text-rendering:auto;enable-background:accumulate" rx="1.6" ry="2.7" transform="matrix(-.942 .335 .322 .947 0 0)"/>
    <ellipse id="path39230-5-3-5-1-0-3" cx="-200.6" cy="420.5" style="color:#000000;text-decoration:none;text-decoration-line:none;text-decoration-style:solid;text-decoration-color:#000000;clip-rule:nonzero;display:inline;overflow:visible;visibility:visible;opacity:1;isolation:auto;mix-blend-mode:normal;color-interpolation:sRGB;color-interpolation-filters:linearRGB;solid-color:#000000;solid-opacity:1;fill:#666666;fill-opacity:1;fill-rule:nonzero;stroke:none;stroke-linecap:round;stroke-linejoin:round;stroke-miterlimit:4;stroke-dasharray:none;stroke-opacity:1;marker:none;color-rendering:auto;image-rendering:auto;shape-rendering:auto;text-rendering:auto;enable-background:accumulate" rx="1.5" ry="2.1" transform="matrix(-.94 .341 .316 .949 0 0)"/>
    <path id="path19740-0-4-3-0" d="M259.8 211.6c-.7-1.8 1.3-7.8 1.7-8.7-2-.3-3.3 0-3.8 0-.6 0-5.5-.2-7-.4-1.5-.3-8 1.8-8 .7.3-1 7.6-1.7 8.5-1.5 1 .3 1.8.2 3 0 1 0 4.2 0 5.2.2s2.2.2 3 0c.5-.5 1-.6 1.3-.6L262 203c.4.2-.2 2.5-1 3.7-1 1-1 3.5-1.2 5z" style="display:inline;opacity:1;fill:#565542;fill-opacity:1;fill-rule:evenodd;stroke:none;stroke-linecap:butt;stroke-linejoin:miter;stroke-opacity:1;enable-background:new"/>
  </g>
</svg>
