<?xml version="1.0" encoding="UTF-8" standalone="no"?>
<!-- Created with Inkscape (http://www.inkscape.org/) -->

<svg
   xmlns:dc="http://purl.org/dc/elements/1.1/"
   xmlns:cc="http://creativecommons.org/ns#"
   xmlns:rdf="http://www.w3.org/1999/02/22-rdf-syntax-ns#"
   xmlns:svg="http://www.w3.org/2000/svg"
   xmlns="http://www.w3.org/2000/svg"
   version="1.1"
   width="560"
   height="560"
   id="dress_parisian_fall">
  <g
     transform="translate(0,-1)"
     id="g125951"
     style="display:inline;enable-background:new">
    <g
       id="g125939">
      <path
         d="m 263.77478,399.14639 -14.68558,94.6404 c 9.79038,-7.07085 25.83574,-8.70257 24.74792,-15.77342 -1.08782,-7.07082 -3.53542,-79.13895 -3.53542,-79.13895 z"
         id="path3844-4-4"
         style="color:#000000;fill:#6f7c91;stroke:#373e48;stroke-width:1;stroke-linecap:butt;stroke-linejoin:miter;stroke-miterlimit:4;stroke-opacity:1;stroke-dasharray:none;stroke-dashoffset:0;marker:none;visibility:visible;display:inline;overflow:visible;enable-background:accumulate" />
      <path
         d="m 263.77478,399.14639 -14.68558,94.6404 c 9.79038,-7.07085 25.83574,-8.70257 24.74792,-15.77342 -1.08782,-7.07082 -3.53542,-79.13895 -3.53542,-79.13895 z"
         id="path3844-4-4-9"
         style="color:#000000;fill:#535d6c;fill-opacity:1;stroke:none;marker:none;visibility:visible;display:inline;overflow:visible;enable-background:accumulate" />
    </g>
    <g
       id="g125943">
      <path
         d="m 249.65625,174.90625 c 3.20781,17.02466 -11.78475,41.06971 -12.03125,43 -1.47774,11.57206 6.34129,19.31164 1.15625,58.9375 -2.00002,15.28486 -12.31658,104.42231 -23,151.46875 8.5722,3.63275 0.39442,11.1757 5.75,12.4375 0.79715,0.52551 16.53719,4.52568 25.59375,9.3125 -0.68032,4.82507 -1.15384,8.63926 -1.25,11.1875 -0.59182,15.68331 26.62885,13.31131 27.8125,17.75 0.0679,-0.95033 -0.15643,-10.79 -0.53125,-24.8125 0.35843,-0.0433 0.70545,-0.10623 1.0625,-0.15625 0.0779,6.77244 0.10063,12.5315 0.0625,16.6875 2.95912,-0.59183 18.66278,-2.35454 25.46875,-0.875 -1.19846,-8.14059 -2.32888,-16.19241 -3.40625,-24.15625 1.22986,-0.89992 2.32754,-1.85122 3.3125,-2.84375 4.05247,2.34627 16.33227,-2.47194 15.59375,-4.6875 -0.23185,-0.69556 -0.49406,-3.23856 -0.78125,-6.5 0.25835,-0.0736 0.52166,-0.15787 0.78125,-0.21875 12.01873,-2.81858 21.34375,-5.40625 21.34375,-5.40625 -13.18221,-36.61722 -12.74414,-100.03969 -13.5,-117.40625 -0.85866,-19.72849 -10.79026,-36.27306 -18.40625,-47.34375 -4.47032,-6.4981 1.21058,-27.32064 3.09375,-30.25 0.27746,-4.96518 1.67545,-10.06706 0.5625,-16.5625 0.24499,-9.11982 -2.20296,-27.76433 3.96875,-31.28125 -8.06184,2.97434 -12.83984,0.44109 -15.875,-2.1875 -7.01446,2.2836 -16.05559,27.24131 -25.4375,29.6875 -0.0316,0.008 -0.0621,0.0235 -0.0937,0.0312 -6.27724,-4.60333 -6.6875,-35.46875 -6.6875,-35.46875 -6.1181,2.69239 -7.22007,3.21031 -14.5625,-0.34375 z"
         id="path2987-23"
         style="color:#000000;fill:#6f7c91;stroke:#373e48;stroke-width:1;stroke-linecap:butt;stroke-linejoin:miter;stroke-miterlimit:4;stroke-opacity:1;stroke-dasharray:none;stroke-dashoffset:0;marker:none;visibility:visible;display:inline;overflow:visible;enable-background:accumulate" />
      <path
         d="m 264.21875,175.25 c -0.76476,0.33655 -1.46376,0.64136 -2.09375,0.90625 -0.49526,0.20625 -0.95811,0.3978 -1.40625,0.5625 -0.37666,0.13687 -0.77708,0.27716 -1.125,0.375 -0.0478,0.0132 -0.10915,0.019 -0.15625,0.0312 -0.20024,0.0532 -0.39877,0.0857 -0.59375,0.125 -0.12398,0.024 -0.2522,0.0442 -0.375,0.0625 -0.26522,0.0411 -0.51645,0.0805 -0.78125,0.0937 -0.0415,0.002 -0.083,-0.001 -0.125,0 -0.0529,0.002 -0.10314,-5.9e-4 -0.15625,0 -0.60296,0.007 -1.23318,-0.0704 -1.90625,-0.21875 1.90219,5.47128 3.83188,11.8048 5.8125,19.21875 4.48726,13.32578 8.14946,23.09397 2.125,24.03125 -6.02447,0.93731 -14.44215,-1.23722 -6.65625,9.59375 7.7859,10.83096 11.66081,15.46332 11.09375,18.4375 -0.56706,2.97414 -2.62935,5.13075 0.3125,9.46875 2.94185,4.33801 -1.87039,7.15998 -0.34375,20.03125 1.52665,12.8713 3.78125,194.28134 3.78125,196.78125 0,2.49991 -18.26505,-0.60416 -17.46875,-5.03125 0.79629,-4.42714 8.95581,-47.43471 10.78125,-78.75 1.82544,-31.31534 1.39509,-83.71057 0.90625,-105.75 -0.48884,-22.03948 -6.72088,-16.6805 -5.34375,5.5625 1.37713,22.24304 1.72258,56.5157 0.0312,56.125 -1.69135,-0.39064 1.35461,-29.66047 -2.21875,-51.34375 -3.57336,-21.68324 -5.97734,-21.67572 -8.96875,-11.71875 -2.99143,9.95695 -5.29781,61.06488 -3.75,117.15625 0.94702,34.31907 1.07502,45.34844 1.03125,48.8125 0.16346,0.0838 0.34056,0.16573 0.5,0.25 -0.68032,4.82507 -1.15384,8.63926 -1.25,11.1875 -0.59182,15.68331 26.62885,13.31131 27.8125,17.75 0.0679,-0.95033 -0.15643,-10.79 -0.53125,-24.8125 0.35574,-0.043 0.70818,-0.10664 1.0625,-0.15625 0.0779,6.77244 0.10063,12.5315 0.0625,16.6875 0.30397,-0.0608 0.73207,-0.13822 1.28125,-0.21875 0.54394,-0.0809 1.21811,-0.1579 1.96875,-0.25 0.31252,-0.0379 0.68986,-0.0865 1.03125,-0.125 0.24723,-0.0279 0.55183,-0.0658 0.8125,-0.0937 0.31285,-0.0333 0.60746,-0.0609 0.9375,-0.0937 0.0706,-0.007 0.14795,-0.0245 0.21875,-0.0312 0.7576,-0.075 1.51756,-0.11894 2.34375,-0.1875 1.38084,-0.11458 2.80651,-0.20458 4.28125,-0.28125 1.30236,-0.0677 2.58918,-0.10517 3.875,-0.125 0.22745,-0.004 0.46103,-0.0296 0.6875,-0.0312 0.30301,-0.002 0.60795,-10e-4 0.90625,0 0.23637,9.6e-4 0.4538,-0.003 0.6875,0 0.71092,0.01 1.39554,0.0292 2.0625,0.0625 -1.49658,-4.59436 -6.1109,-33.95067 -9.34375,-61.96875 -3.50929,-30.41386 -6.51086,-101.12062 -6.34375,-118.5 0.16711,-17.37934 2.83578,-41.92842 5.84375,-49.28125 3.00796,-7.35278 12.52594,-17.20896 14.53125,-13.03125 2.0053,4.17775 -1.33157,13.18084 -2,15.6875 -0.66844,2.50661 -3.0175,10.54055 -0.34375,7.03125 1.86463,-2.44733 3.73708,-1.6498 5.375,1.78125 0.005,-0.0823 0.0194,-0.16619 0.0312,-0.25 0.006,-0.0943 0.0242,-0.18664 0.0312,-0.28125 0.0644,-0.86591 0.14037,-1.74098 0.25,-2.625 0.12799,-1.03203 0.26128,-2.06804 0.4375,-3.09375 0.006,-0.0323 0.0257,-0.0615 0.0312,-0.0937 0.13372,-0.77206 0.28385,-1.53012 0.4375,-2.28125 0.11067,-0.54103 0.2255,-1.06994 0.34375,-1.59375 0.05,-0.22169 0.0789,-0.4391 0.125,-0.65625 0.0377,-0.16081 0.0868,-0.31018 0.125,-0.46875 0.0118,-0.0512 0.0188,-0.10521 0.0312,-0.15625 0.12807,-0.52739 0.27458,-1.03332 0.40625,-1.53125 0.18138,-0.68715 0.35069,-1.32066 0.53125,-1.9375 0.006,-0.0202 -0.006,-0.0424 0,-0.0625 0.0684,-0.23132 0.14853,-0.42291 0.21875,-0.625 0.0322,-0.10433 0.0618,-0.21085 0.0937,-0.3125 0.0814,-0.25846 0.14177,-0.50549 0.21875,-0.75 0.0387,-0.11672 0.0868,-0.20032 0.125,-0.3125 0.003,-0.009 -0.003,-0.0224 0,-0.0312 0.0236,-0.069 0.0388,-0.12546 0.0625,-0.1875 0.0567,-0.16353 0.13219,-0.31617 0.1875,-0.46875 0.0598,-0.16482 0.10019,-0.28748 0.15625,-0.4375 0.11391,-0.30057 0.20754,-0.53598 0.3125,-0.78125 0.10241,-0.23932 0.18953,-0.44334 0.28125,-0.625 0.0891,-0.18631 0.17333,-0.34948 0.25,-0.46875 0.27746,-4.96518 1.67545,-10.06706 0.5625,-16.5625 0.0153,-0.56999 0.0342,-1.17412 0.0312,-1.8125 -0.003,-0.63838 -0.0155,-1.30526 -0.0312,-2 -0.0314,-1.38948 -0.10694,-2.89483 -0.15625,-4.4375 -0.0492,-1.53929 -0.0713,-3.12314 -0.0937,-4.71875 -0.0115,-0.79979 -0.0346,-1.61029 -0.0312,-2.40625 0.005,-1.1885 0.0402,-2.35349 0.0937,-3.5 0.0182,-0.38705 0.0373,-0.77704 0.0625,-1.15625 0.0503,-0.75893 0.10516,-1.50045 0.1875,-2.21875 0.0795,-0.69359 0.19798,-1.3556 0.3125,-2 0.009,-0.0535 0.0215,-0.10312 0.0312,-0.15625 0.0919,-0.49999 0.1962,-0.97414 0.3125,-1.4375 0.0658,-0.26301 0.11318,-0.53139 0.1875,-0.78125 0.12903,-0.43377 0.28108,-0.85986 0.4375,-1.25 0.15642,-0.39014 0.31385,-0.75231 0.5,-1.09375 0.18615,-0.34144 0.37555,-0.64984 0.59375,-0.9375 0.1457,-0.19185 0.30795,-0.3652 0.46875,-0.53125 0.0467,-0.0483 0.10819,-0.0789 0.15625,-0.125 0.0634,-0.0609 0.12179,-0.13065 0.1875,-0.1875 0.10127,-0.0873 0.20559,-0.17246 0.3125,-0.25 0.13535,-0.0987 0.2616,-0.19882 0.40625,-0.28125 -0.50387,0.1859 -0.99016,0.35581 -1.46875,0.5 -0.35455,0.10653 -0.72166,0.19649 -1.0625,0.28125 -0.40804,0.10152 -0.79835,0.17777 -1.1875,0.25 -0.15695,0.0291 -0.31481,0.0692 -0.46875,0.0937 -0.21845,0.0348 -0.44381,0.0678 -0.65625,0.0937 -0.13194,0.0161 -0.27659,0.0185 -0.40625,0.0312 -0.22181,0.0215 -0.44101,0.0504 -0.65625,0.0625 -0.12564,0.007 -0.25157,-0.004 -0.375,0 -0.12843,0.004 -0.24892,0.0304 -0.375,0.0312 -0.15387,0.002 -0.2871,0.003 -0.4375,0 -0.27086,-0.006 -0.52144,-0.0424 -0.78125,-0.0625 -0.31541,-0.0248 -0.63763,-0.0495 -0.9375,-0.0937 -0.34271,-0.0505 -0.6773,-0.11374 -1,-0.1875 -0.65566,-0.14987 -1.26503,-0.33407 -1.84375,-0.5625 -0.28494,-0.11225 -0.54532,-0.21622 -0.8125,-0.34375 -1.33884,-0.63549 -2.45776,-1.45982 -3.40625,-2.28125 -7.01446,2.2836 -16.05559,27.24131 -25.4375,29.6875 -0.0316,0.008 -0.0621,0.0235 -0.0937,0.0312 -6.27724,-4.60333 -6.6875,-35.46875 -6.6875,-35.46875 z m -14.1875,2.5625 c 7.5e-4,0.0103 -7.4e-4,0.0209 0,0.0312 -3.7e-4,0.0104 -7.3e-4,0.0209 0,0.0312 0.0465,0.65851 0.0593,1.29691 0.0625,1.96875 0.003,0.56515 -0.005,1.14611 -0.0312,1.71875 -0.0259,0.57209 -0.0725,1.1415 -0.125,1.71875 -0.0445,0.48944 -0.094,0.97673 -0.15625,1.46875 -0.0117,0.0935 -0.0189,0.18763 -0.0312,0.28125 -0.0498,0.37476 -0.0969,0.74939 -0.15625,1.125 -0.0327,0.20873 -0.0582,0.41606 -0.0937,0.625 -0.0859,0.50169 -0.18002,0.9982 -0.28125,1.5 -0.0169,0.0844 -0.0452,0.16561 -0.0625,0.25 -0.11957,0.58386 -0.23671,1.1664 -0.375,1.75 -0.0122,0.0511 -0.0189,0.10519 -0.0312,0.15625 -0.01,0.0417 -0.0212,0.0834 -0.0312,0.125 -0.0305,0.0941 -0.0702,0.18566 -0.0937,0.28125 -0.13924,0.56415 -0.28342,1.12685 -0.4375,1.6875 -0.19445,0.70161 -0.41036,1.40073 -0.625,2.09375 -0.0862,0.28054 -0.16097,0.56494 -0.25,0.84375 -0.13164,0.40871 -0.26904,0.81437 -0.40625,1.21875 -0.40786,1.2123 -0.83717,2.40048 -1.28125,3.5625 -0.43819,1.1466 -0.88977,2.26332 -1.34375,3.34375 -0.41175,0.97991 -0.80918,1.93168 -1.21875,2.84375 -0.0409,0.091 -0.0841,0.19099 -0.125,0.28125 -0.184,0.40731 -0.38137,0.82735 -0.5625,1.21875 -0.25527,0.54988 -0.5336,1.10652 -0.78125,1.625 0.22185,1.00902 0.34375,1.96378 0.34375,2.59375 0,1.75121 -0.8168,3.03544 -1.5,-0.15625 -0.0279,0.0618 -0.0657,0.13094 -0.0937,0.1875 0.0261,3.35849 -2.15541,8.06546 -2.34375,14.8125 -5.8e-4,0.0209 5.5e-4,0.0415 0,0.0625 0.15589,0.99366 0.37354,2.0343 0.5625,3.125 0.48448,-6.57348 1.44729,-11.19833 6.4375,-11.40625 5.67187,-0.23632 7.0918,-2.15237 9.21875,-6.40625 2.12695,-4.25392 0.48047,-3.76367 -0.9375,-4 -1.41797,-0.23633 -2.1289,-4.96682 -1.65625,-10.875 0.47266,-5.90819 -0.01,-7.79296 -0.71875,-10.15625 -0.70899,-2.36329 2.59961,-3.31054 7.5625,5.90625 -2.59961,-5.19919 -0.94531,-8.0508 -3.78125,-13.25 -0.72365,-1.3267 -2.47168,-1.99751 -4.65625,-2.1875 z m 49.34375,27.40625 c 1.14997,0.10981 2.8422,1.44339 5,5 0,0 2.07105,2.58985 2.40625,5.25 -2.57639,-4.9888 -4.82123,-4.44315 -5.71875,-4.46875 -0.89753,-0.0256 -0.69517,2.68247 -0.46875,5.46875 0.46642,5.73961 3.8363,11.48709 3.8125,21.8125 -0.008,3.35912 -2.61955,3.84045 -2.0625,0 0.55705,-3.84051 -0.85952,-11.13339 -1.9375,-17.59375 -1.87386,5.57004 -6.00328,-2.36574 -10.6875,0.25 -4.68423,2.6158 -5.58678,2.17333 -7.40625,1.0625 -1.81948,-1.11089 -4.8464,-3.11968 -3.84375,-5.125 1.00266,-2.00532 6.7137,-0.35386 12.90625,1.34375 6.19251,1.69761 6.78346,-6.44666 6.21875,-9.53125 -0.31765,-1.73508 0.30271,-3.60994 1.78125,-3.46875 z m -52.59375,17.125 c -0.78115,0.0317 -1.79848,0.41727 -2.9375,0.9375 -5.24727,2.39659 -1.76215,10.56367 0.40625,18.65625 3.78855,14.13905 3.79084,14.33384 2.5,24.34375 -1.29085,10.00991 -4.47162,32.21442 -4.96875,50.15625 -0.49068,17.70815 -7.96149,109.47122 -9.0625,127.875 1.13896,0.37577 2.28491,0.7693 3.46875,1.1875 1.17836,0.41626 2.36041,0.82941 3.53125,1.28125 0.003,-0.12323 -0.003,-0.23605 0,-0.375 0.0534,-2.31583 3.02199,-24.72921 3.65625,-26.46875 -1.92273,5.79859 -3.55346,14.48072 -4.5625,16.21875 -1.00903,1.73804 3.04622,-79.13153 4.0625,-90.3125 1.0163,-11.18101 1.77663,-58.72446 4.46875,-68.46875 2.6921,-9.74434 7.11939,-22.17891 2.375,-33.8125 -4.74438,-11.6336 -4.94977,-17.05719 -2.59375,-19.21875 1.4725,-1.35097 0.95816,-2.05287 -0.34375,-2 z m -7.59375,11.84375 c 1.26436,8.07586 2.35192,19.548 -0.0625,39.75 -0.0921,1.08926 -0.19539,2.09621 -0.34375,2.90625 -1.68123,14.35358 -11.03444,93.57624 -21,142.1875 -0.65741,3.2418 -1.33229,6.34085 -2,9.28125 8.5722,3.63275 0.39442,11.1757 5.75,12.4375 0.0996,0.0657 0.44438,0.17473 0.96875,0.34375 0.52437,0.16902 1.22913,0.3944 2.09375,0.65625 1.41282,0.43273 3.13316,0.96787 5.125,1.59375 0.44433,-8.71622 8.50546,-107.57863 9.0625,-119.3125 0.58123,-12.24375 -3.48019,-3.54604 -3.25,3.53125 0.23017,7.07724 0.13299,12.54891 0.34375,16.09375 -2.51357,-11.72576 -2.25464,-20.37081 -1.90625,-24.875 0.21388,-2.76512 1.53934,-10.49955 2.5625,-15.125 0.79495,-3.59378 3.36334,-11.12225 2.5,-13.5625 -0.86334,-2.44031 1.29706,-13.28521 2.5,-18.15625 1.20293,-4.87109 2.95149,-12.2041 1.3125,-17.3125 -1.84821,-5.76047 -0.89506,-14.93454 -2.90625,-19.71875 -0.13359,-0.31779 -0.50498,-0.47369 -0.75,-0.71875 z m 67.75,30.46875 c 11.61172,50.06499 4.20679,62.06307 3.53125,85.03125 -0.64336,21.87442 3.53821,61.721 4.53125,81.8125 0.0829,-0.023 0.16758,-0.0432 0.25,-0.0625 12.01873,-2.81858 21.34375,-5.40625 21.34375,-5.40625 -13.18221,-36.61722 -12.74414,-100.03969 -13.5,-117.40625 -0.0472,-1.08356 -0.1188,-2.15511 -0.21875,-3.21875 -0.002,-0.0207 -6.5e-4,-0.0416 0,-0.0625 -9.8e-4,-0.0104 9.9e-4,-0.0209 0,-0.0312 -0.011,-0.11521 -0.0197,-0.22878 -0.0312,-0.34375 -0.0985,-0.9764 -0.23531,-1.94714 -0.375,-2.90625 -0.006,-0.0426 -0.025,-0.0824 -0.0312,-0.125 -0.0774,-0.52449 -0.16096,-1.0434 -0.25,-1.5625 -0.13815,-0.80578 -0.27281,-1.61359 -0.4375,-2.40625 -0.007,-0.0323 -0.0245,-0.0614 -0.0312,-0.0937 -0.14814,-0.70811 -0.30083,-1.39641 -0.46875,-2.09375 -0.0254,-0.10559 -0.0679,-0.20717 -0.0937,-0.3125 -0.20278,-0.82514 -0.42786,-1.65936 -0.65625,-2.46875 -0.0171,-0.0605 -0.0187,-0.12529 -0.0312,-0.1875 -0.009,-0.0315 -0.0222,-0.0623 -0.0312,-0.0937 -0.15343,-0.53608 -0.30493,-1.06478 -0.46875,-1.59375 -0.14412,-0.46597 -0.28579,-0.91459 -0.4375,-1.375 -0.20594,-0.62464 -0.40598,-1.2296 -0.625,-1.84375 -0.12327,-0.34609 -0.24785,-0.68852 -0.375,-1.03125 -0.2663,-0.71688 -0.5305,-1.42316 -0.8125,-2.125 -0.0933,-0.23281 -0.1863,-0.45636 -0.28125,-0.6875 -0.32356,-0.78632 -0.65957,-1.57717 -1,-2.34375 -0.0605,-0.13652 -0.12646,-0.27036 -0.1875,-0.40625 -0.38806,-0.86295 -0.78187,-1.72556 -1.1875,-2.5625 -0.0165,-0.0342 -0.046,-0.0596 -0.0625,-0.0937 -0.21629,-0.44504 -0.43581,-0.875 -0.65625,-1.3125 -0.21065,-0.41867 -0.41105,-0.83833 -0.625,-1.25 -0.0283,-0.0544 -0.0654,-0.10197 -0.0937,-0.15625 -0.14996,-0.28738 -0.31741,-0.55984 -0.46875,-0.84375 -0.26157,-0.49002 -0.51623,-0.98919 -0.78125,-1.46875 -0.44779,-0.81029 -0.88935,-1.59518 -1.34375,-2.375 -1.36319,-2.33945 -2.745,-4.54258 -4.09375,-6.59375 z M 300.90625,270 c -1.16976,0.5013 -2.19257,8.01868 3.65625,24.5625 5.84883,16.54381 2.50953,57.13658 2.84375,68.5 0.33422,11.36343 3.34907,79.54346 1.34375,78.875 -2.00531,-0.66841 -5.35594,-46.95533 -4.6875,-71.6875 0.66843,-24.73216 -1.48781,-55.4557 -2.15625,-64.3125 -0.66843,-8.85681 -1.50445,-13.70815 -7.6875,-17.71875 -6.18304,-4.01064 -4.6875,-8.19171 -4.6875,-10.53125 0,-2.33955 -0.16181,-7.35833 -2,-1.84375 -1.83821,5.51462 -4.16844,48.30016 -3.5,68.6875 0.66844,20.3873 5.15359,54.46393 6.15625,64.15625 0.93638,9.05162 5.83295,54.81069 5.65625,60.6875 0.73691,0.0446 1.43921,0.10746 2.09375,0.1875 0.32524,0.0398 0.63683,0.0756 0.9375,0.125 0.30425,0.0456 0.60293,0.0971 0.875,0.15625 -1.19846,-8.14059 -2.32888,-16.19241 -3.40625,-24.15625 1.22646,-0.89915 2.3326,-1.85015 3.3125,-2.84375 0.0339,0.0196 0.0587,0.0439 0.0937,0.0625 0.0981,0.0525 0.20578,0.0802 0.3125,0.125 0.14006,0.0587 0.28369,0.11028 0.4375,0.15625 0.26197,0.0783 0.54678,0.14389 0.84375,0.1875 0.0701,0.0103 0.1469,0.0228 0.21875,0.0312 0.34394,0.0405 0.71531,0.0616 1.09375,0.0625 0.40366,9.5e-4 0.81751,-0.0232 1.25,-0.0625 0.28453,-0.026 0.5819,-0.0521 0.875,-0.0937 0.0421,-0.006 0.0829,-0.0229 0.125,-0.0312 0.0104,-0.002 0.0209,0.002 0.0312,0 0.0919,-0.0138 0.18882,-0.0168 0.28125,-0.0312 0.26814,-0.0444 0.54099,-0.10075 0.8125,-0.15625 0.0322,-0.007 0.0615,-0.0245 0.0937,-0.0312 0.0946,-0.0198 0.18642,-0.0415 0.28125,-0.0625 0.0508,-0.0113 0.10542,-0.0196 0.15625,-0.0312 0.4522,-0.10335 0.89457,-0.21957 1.34375,-0.34375 0.38586,-0.11026 0.77984,-0.21832 1.15625,-0.34375 0.0625,-0.0208 0.12536,-0.0413 0.1875,-0.0625 0.0315,-0.0107 0.0623,-0.0204 0.0937,-0.0312 0.40683,-0.14022 0.80193,-0.28391 1.1875,-0.4375 0.0843,-0.0336 0.16695,-0.0596 0.25,-0.0937 0.33045,-0.13559 0.6305,-0.29519 0.9375,-0.4375 0.33426,-0.15494 0.63798,-0.30902 0.9375,-0.46875 0.0416,-0.0222 0.0842,-0.0403 0.125,-0.0625 0.15958,-0.0866 0.28996,-0.16287 0.4375,-0.25 0.17228,-0.10143 0.31442,-0.17983 0.46875,-0.28125 0.17014,-0.1113 0.32241,-0.20222 0.46875,-0.3125 0.0388,-0.0291 0.0567,-0.0648 0.0937,-0.0937 0.21192,-0.16578 0.38034,-0.34057 0.53125,-0.5 -4.81381,-14.02421 -5.03775,-111.2244 -4.875,-115.78125 0.16711,-4.67905 1.85703,-21.39588 -3.15625,-29.25 -5.01327,-7.85412 -4.67399,-24.72009 -5.84375,-24.21875 z m 14.28125,167.875 c 0.002,0.30203 0.002,0.56254 0,0.84375 0.009,-0.02 0.0235,-0.0427 0.0312,-0.0625 0.009,-0.0238 0.0239,-0.0391 0.0312,-0.0625 0.0217,-0.0673 0.0269,-0.12331 0.0312,-0.1875 6.9e-4,-0.0104 -2.2e-4,-0.0209 0,-0.0312 0.002,-0.074 -0.008,-0.14951 -0.0312,-0.21875 -0.0193,-0.058 -0.042,-0.19178 -0.0625,-0.28125 z"
         id="path2987-23-2"
         style="color:#000000;fill:#535d6c;stroke:none;marker:none;visibility:visible;display:inline;overflow:visible;enable-background:accumulate" />
      <path
         d="m 271.00445,210.6155 c 0,0 -3.22612,40.24404 -2.6343,71.6107 0.59182,31.36665 5.62233,192.63868 5.32642,196.78145 -1.18365,-4.43869 -28.40755,-2.07141 -27.81573,-17.75472 0.59183,-15.68335 14.7956,-75.16163 11.24466,-170.14936"
         id="path2989-30"
         style="color:#000000;fill:none;stroke:#373e48;stroke-width:0.20575398;stroke-linecap:butt;stroke-linejoin:miter;stroke-miterlimit:4;stroke-opacity:1;stroke-dasharray:none;stroke-dashoffset:0;marker:none;visibility:visible;display:inline;overflow:visible;enable-background:accumulate" />
      <path
         d="m 311.90853,315.95981 c -1.67393,24.69047 -1.25545,76.16382 0,85.78895 1.25545,9.62509 2.5109,33.89706 3.34786,36.40796 0.83697,2.5109 -15.06537,8.36966 -16.7393,3.34787 -1.67393,-5.0218 -5.44028,-97.50644 -5.02179,-114.66423"
         id="path3031-8"
         style="color:#000000;fill:none;stroke:#373e48;stroke-width:0.20575398;stroke-linecap:butt;stroke-linejoin:miter;stroke-miterlimit:4;stroke-opacity:1;stroke-dasharray:none;stroke-dashoffset:0;marker:none;visibility:visible;display:inline;overflow:visible;enable-background:accumulate" />
      <path
         d="m 235.38154,301.48235 c -0.83697,12.55449 -2.14775,24.52105 -2.56623,39.5864 -0.41848,15.06538 -4.60331,95.41404 -5.02179,99.59887 -0.41849,4.18483 20.50565,7.53269 20.08716,11.29906 -1.67393,-23.43505 -5.85875,-79.09323 -0.83696,-122.61542"
         id="path3033-4"
         style="color:#000000;fill:none;stroke:#373e48;stroke-width:0.20575398;stroke-linecap:butt;stroke-linejoin:miter;stroke-miterlimit:4;stroke-opacity:1;stroke-dasharray:none;stroke-dashoffset:0;marker:none;visibility:visible;display:inline;overflow:visible;enable-background:accumulate" />
      <path
         d="m 288.49216,276.30797 c -7.1948,36.22344 -0.88789,111.11562 11.24465,193.52639 -6.80597,-1.47954 -22.4893,0.29591 -25.44842,0.88774 0.29591,-32.2544 -3.55094,-155.35375 -1.47956,-182.28176"
         id="path3062-1"
         style="color:#000000;fill:none;stroke:#373e48;stroke-width:0.20575398;stroke-linecap:butt;stroke-linejoin:miter;stroke-miterlimit:4;stroke-opacity:1;stroke-dasharray:none;stroke-dashoffset:0;marker:none;visibility:visible;display:inline;overflow:visible;enable-background:accumulate" />
    </g>
  </g>
</svg>
