<?xml version="1.0" encoding="UTF-8" standalone="no"?>
<!-- Created with Inkscape (http://www.inkscape.org/) -->

<svg
   xmlns:dc="http://purl.org/dc/elements/1.1/"
   xmlns:cc="http://creativecommons.org/ns#"
   xmlns:rdf="http://www.w3.org/1999/02/22-rdf-syntax-ns#"
   xmlns:svg="http://www.w3.org/2000/svg"
   xmlns="http://www.w3.org/2000/svg"
   version="1.1"
   width="560"
   height="560"
   id="dress_german_expression">
  <g
     transform="translate(2.9242353e-6,-0.99999914)"
     id="g126510"
     style="display:inline;enable-background:new">
    <g
       id="g126501">
      <path
         d="m 277.86113,181.41053 c 0,0 -3.96198,-0.72941 -9.7612,1.99967 -5.79932,2.72907 -12.5307,6.50848 -16.28318,7.53188 -3.75248,1.02341 -10.3014,9.05875 -9.61918,15.19917 0.68231,6.14041 -4.68453,7.49148 -4.92098,14.0845 -0.24575,6.8523 2.34752,8.74455 2.34752,15.56722 0,6.82269 2.6244,16.16497 2.26973,21.29546 -0.26825,3.88026 -1.48159,10.31855 -2.15043,16.0131 -0.60611,5.16051 -3.05223,8.66002 -2.36992,14.11816 0.68222,5.45815 -0.0498,16.63438 -0.59683,19.68105 -0.51156,2.84908 -1.40712,5.98379 -1.52336,7.50495 -0.86094,11.26681 0.31749,23.73039 0.8985,29.2126 3.10211,29.27063 3.45495,79.20008 1.68209,97.56435 -2.16343,22.41158 0.3412,50.48785 1.02342,63.45094 0.68231,12.9631 -2.04675,27.29073 -3.41128,31.38434 1.70564,1.36454 2.72906,-0.68227 5.79923,-1.0234 3.07026,-0.34114 4.09359,1.36453 6.14043,-4.43474 0.34111,4.43474 -2.72906,7.50495 -0.68231,10.91629 2.04684,3.41134 18.42128,-1.70568 19.78581,-0.68228 1.36453,1.02341 16.03334,0 20.12693,-0.68226 4.09358,-0.68226 11.93965,0.68226 6.48153,-7.50495 10.91633,-0.34114 19.10351,0 21.83257,0.68227 2.72905,0.68227 3.07026,-0.68227 0.68231,-4.77588 -2.38795,-4.09361 -3.41137,-5.79928 -4.7759,-8.86948 -1.36453,-3.07022 1.70564,-3.07022 1.70564,-7.84609 0.68231,5.79928 4.7759,6.14041 7.16384,6.82269 2.38795,0.68226 3.41137,-2.04682 1.70564,-3.41135 -1.70564,-1.36453 -3.07016,-2.72907 -3.41127,-4.43474 4.09358,4.43474 23.19709,6.82268 27.63179,5.79927 4.43479,-1.0234 14.6688,-5.79927 12.96316,-9.21061 -1.70573,-3.41134 -20.12692,-7.16382 -21.15034,-9.21063 -1.02342,-2.0468 9.89291,-2.0468 9.5518,-3.75247 -0.3412,-1.70567 -9.21069,-3.75247 -11.93975,-3.75247 -12.62197,-49.46445 -21.83256,-100.29343 -21.83256,-108.82178 0,-8.52835 8.83748,-43.80537 10.54133,-62.55921 2.19316,-24.13954 -11.90586,-48.30937 -16.34065,-54.10866 -4.4347,-5.79928 -5.45812,-4.43474 -5.45812,-7.16381 0,-2.72908 -1.02342,-5.79928 -0.34111,-7.50496 0.68222,-1.70566 2.72058,-8.83584 4.50066,-13.64535 0.88589,-2.39355 1.43059,-4.50354 2.45401,-6.89148 1.02333,-2.38793 1.02613,-5.86526 2.39066,-6.54753 1.36462,-0.68227 1.57091,-10.09925 -0.47584,-15.5574 -2.04684,-5.45814 -4.88528,-19.90104 -18.42129,-22.85598 -6.23598,-1.36133 -9.09609,-3.23926 -14.2131,-3.5804 z"
         id="path2987-31"
         style="color:#000000;fill:#f2f2f2;stroke:#e6e6e6;stroke-width:0.45542002;stroke-linecap:butt;stroke-linejoin:miter;stroke-miterlimit:4;stroke-opacity:1;stroke-dasharray:none;stroke-dashoffset:0;marker:none;visibility:visible;display:inline;overflow:visible;enable-background:accumulate" />
      <path
         d="m 237.3138,219.82042 c 1.4251,5.98551 4.56039,9.69082 5.41549,11.11595 0.8551,1.42512 2.28591,3.99113 2.28173,6.55577 -0.004,2.56465 5.86236,-1.97309 8.65058,-3.08278 2.78822,-1.10968 10.49673,-2.41646 18.51706,-1.15436 8.02024,1.26209 22.06227,-5.33494 27.47776,-11.32047 -3.7053,0.28503 -6.30796,2.2751 -12.89956,-0.37276 -6.59151,-2.64785 -12.21861,-1.61436 -17.13593,0.008 -4.9172,1.62261 -14.38321,5.19271 -18.56966,1.71723 -9.35666,-7.76764 -11.17227,3.37376 -13.73747,-3.46683 z"
         id="path3048-4"
         style="color:#000000;fill:#ececec;fill-opacity:1;stroke:none;marker:none;visibility:visible;display:inline;overflow:visible;enable-background:accumulate" />
      <path
         d="m 281.77764,210.98466 c 6.55559,3.13526 22.23188,4.84541 25.93727,15.67635 -0.8551,-4.5604 2.28019,-7.69566 1.9951,-9.97586 -0.285,-2.2802 1.42519,-7.98069 -8.26569,-19.95172 2.2802,3.4203 1.4251,4.84542 -0.57001,3.99034 -1.99519,-0.85507 -7.98069,-6.27053 -13.96627,-8.26571 9.69088,6.27054 4.84549,6.55557 -2.5652,3.99034 22.23197,13.96621 6.55559,11.40099 0,9.97586 9.97589,3.70532 7.12559,5.13045 -2.5652,4.5604 z"
         id="path3050-5-1"
         style="color:#000000;fill:#ececec;fill-opacity:1;stroke:none;marker:none;visibility:visible;display:inline;overflow:visible;enable-background:accumulate" />
      <path
         d="m 305.96875,230.71875 c -2.96215,2.8022 -7.92917,3.03909 -11.65625,6.5 -0.94085,0.87363 -1.57705,2.36996 -2.0625,4.15625 3.36228,-0.60405 7.51911,-1.41263 8.90625,-1.875 1.55083,-0.51696 2.83692,-0.56492 3.28125,1.34375 0.27588,-1.3665 0.50972,-2.73951 0.59375,-4 0.2786,-4.17821 0.37097,-4.76781 0.9375,-6.125 z m -3.15625,10.5625 c -1.41622,0.18705 -5.00088,2.04121 -9.0625,2.46875 -5.23633,0.55119 -15.00564,4.59911 -25.4375,13.625 5.75757,-4.62295 16.21692,-9.68117 19.15625,-10.75 0.80686,-0.2934 2.25399,-0.64402 3.9375,-1.03125 -0.76037,5.25155 -0.97471,11.13574 -2.5,13 -2.56519,3.13526 0.86095,5.3901 4.28125,4.25 3.42029,-1.1401 5.67615,-1.69883 6.53125,-0.84375 0.855,0.85507 5.72259,7.39975 5.4375,10.25 -0.28501,2.85025 -0.0118,11.40836 -8.5625,15.96875 9.40579,-0.28502 11.98279,8.85551 8.5625,17.40625 -3.4203,8.55073 -4.28501,14.25105 -4,16.53125 0.285,2.28019 -3.9849,0.83514 -5.125,-0.875 1.71019,3.13526 3.1374,4.8599 4.5625,6 1.42519,1.1401 0.28298,2.27643 -4.5625,0.28125 -4.8454,-1.99517 -23.66632,-16.54557 -37.0625,-39.0625 11.97108,20.80678 21.39326,35.91213 27.09375,40.1875 5.7005,4.27536 10.82105,10.26343 12.53125,13.96875 1.7101,3.70532 3.70808,16.24895 -2.5625,13.96875 -6.2705,-2.28019 -15.97575,-13.10386 -22.53125,-26.5 -5.73614,-11.72164 -15.38892,-30.84938 -17.90625,-36.40625 7.64915,19.41772 23.63879,65.91258 25.03125,72.875 1.4251,7.12561 10,17.38844 10,21.09375 0,3.70533 -3.7026,7.14809 -2.5625,14.84375 1.1401,7.69566 -4.0199,1.41924 -4.875,-4.28125 -0.85509,-5.70048 2.28184,-12.54679 -4.84375,-20.8125 -7.1256,-8.26571 -19.93096,-54.99289 -22.78125,-64.96875 0.57009,15.1063 10.8249,59.84691 12.25,66.6875 1.4251,6.8406 -0.28875,10.26281 0.28125,21.09375 0.57009,10.83092 -3.14499,1.138 -4,-4.5625 -0.8551,-5.70049 -3.40241,-26.79574 -3.6875,-32.78125 0.28509,21.66186 -4.55875,12.24684 -4.84375,5.40625 -0.24938,-5.98551 -2.48179,-26.15562 -3.03125,-33.96875 0.8369,19.79307 5.35133,88.89872 7,109.78125 1.7101,21.66187 -9.11155,62.98807 -5.40625,70.96875 3.70529,7.98069 3.43645,13.9633 1.15625,19.09375 -2.28019,5.13043 -4.84096,4.58997 -7.40625,4.875 3.74097,1.24698 12.71347,0.9506 17,-0.0937 -9.10465,3.14855 -15.10852,4.83142 -18.125,2.53125 2.14097,3.33877 18.39034,-1.7385 19.75,-0.71875 1.36453,1.02341 16.03141,0.026 20.125,-0.65625 2.64176,-0.44029 6.82065,-0.0458 8,-1.90625 -1.0973,0.0242 -1.99034,0.0446 -2.53125,0.0937 -4.43388,0.40308 0.8125,-2 0.8125,-2 0,0 -2.41214,-5.25317 0.8125,-5.65625 3.22474,-0.40308 4.82792,-0.79985 2.8125,0.8125 -0.52275,0.4182 -0.74024,0.7809 -0.6875,1.0625 2.1256,-0.0458 4.11228,-0.0683 5.96875,-0.0625 0.26401,-0.0683 0.50121,-0.10749 0.78125,-0.1875 5.64311,-1.61234 8.04709,-2.02808 10.0625,-1.625 2.01542,0.40308 3.21564,1.20609 2.8125,-0.40625 -0.40304,-1.61235 -2.41568,-4.01266 -3.625,-5.625 -1.20923,-1.61235 -2.01263,-2.82515 -3.625,-4.4375 -1.61228,-1.61234 -1.61549,-6.85048 -0.40625,-11.6875 -1.61237,6.85245 -3.60007,8.8564 -4.40625,10.46875 -0.8061,1.61234 -4.0443,3.62223 -9.6875,7.25 5.6432,-11.68948 8.8782,-31.04391 9.28125,-32.65625 0.40305,-1.61234 3.20645,-14.91653 5.625,-24.1875 2.41846,-9.27096 5.25,-27.8125 5.25,-27.8125 0,0 1.62179,17.36076 1.21875,31.46875 -0.40314,14.10799 -1.6282,30.61274 -2.03125,33.03125 -0.40314,2.41852 -2.41888,6.44423 -4.03125,11.28125 0,0 1.85758,-1.49945 3.4375,-4.5 0.0338,-0.31881 0.0625,-0.65775 0.0625,-1.03125 0.0311,0.2642 0.0802,0.50795 0.125,0.75 0.004,0.0154 0.32414,1.05788 0.59375,1.96875 0.0102,0.0225 0.0209,0.0403 0.0312,0.0625 1.46576,3.14957 4.51087,3.48077 6.4375,4.03125 2.38795,0.68226 3.39323,-2.04172 1.6875,-3.40625 -1.70564,-1.36453 -3.06514,-2.73183 -3.40625,-4.4375 4.09358,4.43474 23.1903,6.80466 27.625,5.78125 4.43479,-1.0234 14.67439,-5.77616 12.96875,-9.1875 -1.70573,-3.41134 -20.13283,-7.17194 -21.15625,-9.21875 -1.02342,-2.0468 9.90361,-2.04433 9.5625,-3.75 -0.3412,-1.70567 -9.20844,-3.75 -11.9375,-3.75 C 322.44048,441.1918 313.2187,390.34085 313.2187,381.8125 c 0,-8.52835 7.21222,-41.27774 10.41588,-62.53125 3.61285,-23.9682 -9.99481,-46.02792 -15.84362,-54.125 -4.27486,-5.91809 -5.82226,-4.42718 -5.82226,-7.15625 0,-2.72908 -1.02606,-5.79432 -0.34375,-7.5 0.48324,-1.20818 1.79648,-4.98486 2.65625,-8.90625 -0.21839,0.0979 -0.53177,0.21703 -0.90625,0.34375 0.0322,-0.054 0.0536,-0.10281 0.0625,-0.15625 0.0713,-0.42754 -0.15292,-0.56235 -0.625,-0.5 z M 255,292.21875 c 0.0295,0.14733 0.1826,0.58053 0.4375,1.15625 -0.13573,-0.34341 -0.30743,-0.83107 -0.4375,-1.15625 z m -11.6875,40.46875 c -2.56519,20.80679 -2.29259,60.9894 -1.4375,97.1875 0.8551,36.19811 -1.69876,85.51449 -0.84375,91.5 0.85509,5.98552 -0.86846,10.556 -3.71875,13.40625 1.06657,-5.51048 1.25451,-9.92903 1.03125,-14.8125 -0.7679,7.37008 -2.08324,13.59346 -2.90625,16.0625 1.70564,1.36454 2.74233,-0.69012 5.8125,-1.03125 3.07026,-0.34114 4.07816,1.36177 6.125,-4.4375 0.15967,2.07579 -0.41447,3.84721 -0.875,5.5 2.06254,-1.87882 5.78744,-3 6.5,-3 1.1401,0 1.13635,-0.84858 0.28125,-2.84375 -0.8551,-1.99517 -0.8476,-4.2672 -0.5625,-7.6875 -1.4252,5.13044 -2.00856,4.83243 -3.71875,5.6875 -1.71011,0.85507 -1.4251,-2.2823 0,-4.5625 1.42519,-2.2802 2.8551,-18.51598 2,-36.1875 -0.85509,-17.67152 -2.86365,-94.35095 -3.71875,-126.84375 -1.14009,76.10154 -4.2603,47.3073 -1.125,-23.09375 -2.8503,47.59909 -3.41375,60.42686 -2.84375,-4.84375 z m 68.53125,29.46875 c 0,0 -0.40625,5.64715 -0.40625,8.46875 -3.62778,8.0617 -17.32945,24.58426 0.40625,-8.46875 z m 0,11.6875 c 0,0 -0.003,6.06605 -0.40625,10.5 0,0 -2.80062,4.44106 -9.25,8.875 0,0 4.41897,-7.26898 6.03125,-9.6875 1.61237,-2.41851 2.01272,-3.23813 3.625,-9.6875 z m -3.15625,20.375 c 1.89026,-0.41332 2.81265,5.82555 0.34375,11.46875 -2.8216,6.44938 -11.69702,27.81289 -12.90625,31.84375 -1.20932,4.03085 -5.62542,21.77255 -9.65625,28.625 2.41846,-15.31725 8.45014,-40.70689 10.0625,-47.15625 1.61237,-6.44937 8.86278,-21.36591 11.28125,-24.1875 0.30232,-0.3527 0.60496,-0.5347 0.875,-0.59375 z m 3.96875,9.875 c 0,0 0.39993,14.10759 -0.40625,27.8125 -0.80619,13.70491 -6.82825,40.29153 -8.84375,49.5625 -2.01542,9.27097 -3.63763,18.13528 -5.25,27.40625 -1.61237,9.27097 -6.0566,17.34099 -9.28125,20.96875 -3.22465,3.62778 -7.66299,3.23101 -12.5,0.8125 -4.83702,-2.41852 -0.40903,-3.63449 3.21875,-4.84375 3.62779,-1.20925 2.83348,-8.86947 -6.4375,-16.125 -9.2709,-7.25555 -8.06487,-13.7049 -0.40625,-31.84375 -1.61237,9.27096 0.82202,14.12856 2.03125,18.5625 1.20923,4.43394 8.8659,11.27808 11.6875,10.875 2.8215,-0.40308 5.23459,-7.64755 7.25,-14.5 2.01542,-6.85246 7.66888,-48.38529 9.28125,-57.65625 1.61237,-9.27097 7.64084,-23.77571 9.65625,-31.03125 z"
         id="path3052-2-3"
         style="color:#000000;fill:#ececec;stroke:none;marker:none;visibility:visible;display:inline;overflow:visible;enable-background:accumulate" />
      <path
         d="m 264.10616,286.80117 c 7.98069,8.26571 21.37678,16.81644 34.20286,21.94688 -5.98549,-5.70048 -7.69559,-8.55073 -10.26088,-9.4058 -2.5652,-0.85507 -10.26089,-2.2802 -23.94198,-12.54108 z"
         id="path3091-9"
         style="color:#000000;fill:#ececec;fill-opacity:1;stroke:none;marker:none;visibility:visible;display:inline;overflow:visible;enable-background:accumulate" />
      <path
         d="m 265.53126,278.53546 c 3.9903,4.27537 17.67148,9.97586 24.79707,12.82611 7.12569,2.85023 -1.4251,-3.4203 -2.56519,-3.13528 -1.1401,0.28503 -4.8454,1.71015 -22.23188,-9.69083 z"
         id="path3093-51"
         style="color:#000000;fill:#ececec;fill-opacity:1;stroke:none;marker:none;visibility:visible;display:inline;overflow:visible;enable-background:accumulate" />
      <path
         d="m 242.5,255.9375 c -0.18159,-0.0166 -0.37947,0.0531 -0.5625,0.15625 -2.6e-4,0.35192 -0.009,0.67934 -0.0312,1 -0.26825,3.88026 -1.14366,10.30545 -1.8125,16 -0.60611,5.16051 -2.71356,8.66686 -2.03125,14.125 0.083,0.66423 0.14302,1.4484 0.21875,2.28125 4.15079,-2.08467 7.74167,-7.14992 9.59375,-9.53125 1.99519,-2.56522 10.2548,-6.29406 12.25,-17.125 -2.2802,5.13045 -3.99076,7.70953 -9.40625,13.125 0.8551,-1.42512 1.97635,-3.12605 1.40625,-5.40625 -0.57,4.27538 -2.53981,3.40247 -4.25,3.6875 -1.7101,0.28502 -4.285,1.13527 -4,-2 0.285,-3.13527 4.27914,-7.67934 -0.28125,-15.375 -0.35628,-0.60122 -0.72257,-0.90365 -1.09375,-0.9375 z"
         id="path3095-5"
         style="color:#000000;fill:#ececec;fill-opacity:1;stroke:none;marker:none;visibility:visible;display:inline;overflow:visible;enable-background:accumulate" />
    </g>
    <g
       transform="matrix(0.99601846,-0.08914727,0.08914727,0.99601846,-19.928138,30.836594)"
       id="g126412">
      <g
         id="g126432">
        <path
           d="m 255.48651,184.11116 c 6.99325,-4.09361 21.05481,-8.54544 25.05645,-9.02457 4.00154,-0.47915 39.87123,5.21877 42.04949,5.60541 2.17826,0.38663 5.07366,5.50189 6.71738,7.87049 1.64372,2.36858 4.70497,7.96727 5.38728,11.37861 -3.58188,-3.0702 -5.99143,-1.25793 -15.9408,-4.34626 -9.94937,-3.08833 -19.09308,-4.99287 -30.27398,-10.03424 -11.18103,-5.04138 -21.6547,-3.63052 -23.77584,-3.63516 -2.12114,-0.005 -9.21998,2.18572 -9.21998,2.18572 z"
           id="path3008-7-0"
           style="color:#000000;fill:#ff0000;stroke:#aa0000;stroke-width:0.45542002;stroke-linecap:butt;stroke-linejoin:miter;stroke-miterlimit:4;stroke-opacity:1;stroke-dasharray:none;stroke-dashoffset:0;marker:none;visibility:visible;display:inline;overflow:visible;enable-background:accumulate" />
        <g
           id="g126498">
          <path
             d="m 309.8229,178.98767 c -1.21039,1.43128 0.52218,4.06902 5.08933,5.0115 -4.00527,-0.23538 -6.79039,-0.70394 -8.66565,-2.26799 -1.87512,-1.56403 -3.07128,-1.13795 -1.98861,-0.0181 -5.08456,-1.16979 -3.45405,-3.68484 3.15198,-1.52966 -1.487,-0.83275 -3.42532,-1.68764 -5.46717,-2.40634 -3.78677,-0.59555 -7.4674,-1.16148 -10.81549,-1.64097 -1.01501,0.44747 -1.18285,1.42714 0.0809,3.14438 -5.28455,-2.45294 -9.71773,0.008 -10.94414,0.55655 4.69651,-0.14595 6.81894,0.68577 9.50445,1.46464 -1.10579,0.10569 -4.08893,-0.11803 -5.72393,0.19988 5.20053,0.43828 7.74082,1.21897 7.08628,2.29865 -0.65441,1.07971 -6.44422,-0.86595 -9.79839,-1.71542 -3.35418,-0.84945 -14.47864,-3.36915 -25.16698,1.76129 0.0291,0.004 0.0565,-0.004 0.0857,5e-5 1.17333,-0.40402 6.56587,-1.93657 8.46307,-1.93233 1.38817,0.003 6.22436,-0.69529 12.67361,0.33693 0.84929,0.13641 1.73692,0.30569 2.63508,0.5044 0.72767,0.16102 1.48103,0.33952 2.23313,0.54659 0.10924,0.0302 0.22776,0.0553 0.33746,0.0866 0.0638,0.0181 0.12478,0.0431 0.18846,0.0615 0.13585,0.0394 0.27862,0.0888 0.41505,0.1298 0.79903,0.23918 1.58074,0.50381 2.39477,0.80041 0.26948,0.0983 0.53442,0.1856 0.80488,0.29048 0.12738,0.0493 0.2577,0.10657 0.38531,0.15742 0.5683,0.22672 1.13286,0.46375 1.70283,0.72073 0.72707,0.32785 1.4317,0.651 2.14261,0.95372 0.31235,0.13315 0.62601,0.25111 0.93539,0.3797 0.60587,0.2515 1.20051,0.48289 1.7956,0.71792 0.91877,0.36361 1.83772,0.71366 2.73386,1.04274 0.26113,0.0956 0.52168,0.20085 0.78101,0.2938 1.16024,0.41694 2.29318,0.79816 3.42383,1.16982 0.0372,0.0121 0.0784,0.009 0.11558,0.0215 1.17854,0.38633 2.35905,0.76578 3.51512,1.11707 1.14829,0.34837 2.30114,0.69655 3.43818,1.02551 3.78799,1.09594 7.52749,2.11855 11.39362,3.31859 1.6227,0.50369 2.97509,0.82845 4.21401,1.09971 0.0111,0.0122 0.0266,0.0212 0.0345,0.033 0.35908,0.0782 0.64575,0.12993 0.97225,0.19045 0.55094,0.10762 1.03295,0.18576 1.51928,0.26406 4.43572,0.71447 6.63536,0.57351 9.18952,2.76273 -0.68253,-3.4115 -3.74773,-8.99407 -5.3913,-11.36255 -0.58365,-0.84099 -1.3121,-2.04246 -2.11757,-3.23735 1.75454,3.65978 2.63704,7.66959 4.09369,8.94777 1.62294,1.42414 -1.13583,0.74082 -2.2128,0.82659 3.27558,0.34485 3.55945,1.34249 3.434,1.78227 -0.12535,0.43977 -3.40418,0.47425 -6.18994,-0.49802 -0.27324,-0.0954 -0.60897,-0.21371 -0.9542,-0.31985 -0.16665,-1.25639 -0.25854,-2.57113 0.49229,-3.49525 1.27694,-1.57165 2.50451,-3.98542 -0.36438,-5.97421 -2.86889,-1.98878 -3.65151,-4.19333 -2.14144,-4.56007 0.55032,-0.13366 0.92809,-0.12488 1.29893,0.0374 -0.71018,-0.72786 -1.40222,-1.27533 -2.0324,-1.38715 -0.82083,-0.14567 -5.93652,-0.69865 -12.78092,-1.71077 z m 6.06774,13.53505 c 1.72152,0.27697 3.35559,0.81384 4.7895,1.80786 0.36121,0.25043 0.66984,0.4993 0.93087,0.73424 -2.70487,-0.71683 -6.30105,-1.63172 -10.81373,-2.8308 1.68489,-0.005 3.43093,0.0212 5.09336,0.2887 z"
             id="path3101-6"
             style="color:#000000;fill:#d40000;stroke:none;marker:none;visibility:visible;display:inline;overflow:visible;enable-background:accumulate" />
        </g>
      </g>
    </g>
  </g>
</svg>
