<?xml version="1.0" encoding="UTF-8" standalone="no"?>
<!-- Created with Inkscape (http://www.inkscape.org/) -->

<svg
   xmlns:dc="http://purl.org/dc/elements/1.1/"
   xmlns:cc="http://creativecommons.org/ns#"
   xmlns:rdf="http://www.w3.org/1999/02/22-rdf-syntax-ns#"
   xmlns:svg="http://www.w3.org/2000/svg"
   xmlns="http://www.w3.org/2000/svg"
   version="1.1"
   width="560"
   height="560"
   id="dress_cheerleader">
  <g
     transform="translate(-245.5625,-1)"
     id="g56822"
     style="display:inline;enable-background:new">
    <path
       d="m 485.28292,272.4447 c 0,0 -1.55265,4.49402 -2.18876,7.72882 -1.18136,6.00756 -3.68675,11.1603 -4.92812,17.04903 -1.05743,5.01615 -1.85244,10.23184 -2.84524,15.44591 -2.11585,11.11211 -6.89433,25.37707 -6.89433,25.37707 l 2.27035,2.27034 3.6893,1.41897 2.27034,0.85138 -1.98655,7.66239 4.82447,3.12172 6.52723,-1.13517 15.3248,1.41896 4.25689,3.68931 9.36515,0.56758 8.51378,2.55414 9.36516,-2.27035 6.52722,2.27035 5.39206,-1.70276 9.64895,0.85138 0,-3.40551 10.78412,1.98654 -0.2838,-7.3786 5.39206,-1.70276 c 0,0 -1.79191,-35.10108 -1.77804,-36.23593 0.21872,-18.29396 -6.41396,-31.02551 -12.5311,-42.35223 -1.40167,-2.59536 -6.36075,-8.22801 -6.36075,-8.22801 -7.83696,-0.17004 -13.16693,0.64363 -20.61161,3.35397 -15.8382,5.76611 -29.88495,7.8365 -43.74358,6.79346 z"
       id="path4431-8-5"
       style="fill:#8460a3;fill-opacity:1;stroke:#5d248f;stroke-width:1.25;stroke-miterlimit:4;stroke-opacity:1;stroke-dasharray:none" />
    <path
       d="m 514.46472,306.67736 -0.0621,-0.98086 c 0,0 -2.56242,4.6042 -3.40196,7.08949 -1.79313,5.30818 -2.23314,10.9866 -3.41438,16.46352 -1.00157,4.64386 -1.80325,9.34028 -3.1164,13.90584 -0.94278,3.27787 -3.40196,9.64717 -3.40196,9.64717 l 3.94826,2.79358 c 0.0937,-0.59145 0.17143,-1.17033 0.27315,-1.75064 0.2712,-1.5471 0.57031,-3.00298 0.88153,-4.15934 0.17122,-0.63615 0.39698,-1.26361 0.64563,-1.8748 0.24866,-0.61119 0.52228,-1.20931 0.79462,-1.81273 0.27234,-0.60342 0.53995,-1.21229 0.7822,-1.82514 0.24226,-0.61285 0.46239,-1.23534 0.6208,-1.8748 0.24052,-0.97094 0.42393,-1.94272 0.58355,-2.93016 0.15962,-0.98744 0.29487,-1.98228 0.39731,-2.97982 0.20487,-1.99509 0.3161,-4.01225 0.43456,-6.00931 0.0588,-0.99153 -0.0882,-2.12623 -0.17383,-3.19089 -0.0428,-0.53233 -0.0671,-1.04444 -0.0497,-1.51475 0.0174,-0.4703 0.0816,-0.89926 0.22349,-1.254 0.28379,-0.70948 1.77192,-7.37684 3.19089,-13.86859 0.42955,-1.9652 0.46316,-2.11133 0.84428,-3.87377 z"
       id="path4442-9-1"
       style="fill:#b3b3b3;stroke:none" />
    <path
       d="m 514.46472,306.67736 c -0.38112,1.76244 -0.41473,1.90857 -0.84428,3.87377 -1.41897,6.49175 -2.9071,13.15911 -3.19089,13.86859 -0.1419,0.35474 -0.20607,0.7837 -0.22349,1.254 -0.0174,0.47031 0.007,0.98242 0.0497,1.51475 0.0856,1.06466 0.23264,2.19936 0.17383,3.19089 -0.11846,1.99706 -0.22969,4.01422 -0.43456,6.00931 -0.10244,0.99754 -0.23769,1.99238 -0.39731,2.97982 -0.15962,0.98744 -0.34303,1.95922 -0.58355,2.93016 -0.15841,0.63946 -0.37854,1.26195 -0.6208,1.8748 -0.24225,0.61285 -0.50986,1.22172 -0.7822,1.82514 -0.27234,0.60342 -0.54596,1.20154 -0.79462,1.81273 -0.24865,0.61119 -0.47441,1.23865 -0.64563,1.8748 -0.31122,1.15636 -0.61033,2.61224 -0.88153,4.15934 -0.10172,0.58031 -0.17949,1.15919 -0.27315,1.75064 l 0.86912,0.60838 9.64717,0.8567 c 0,-1.41896 0.7958,-17.8038 0.28557,-26.68182 l -1.35334,-23.702 z"
       id="path4433-2-5"
       style="fill:#ececec;fill-opacity:1;stroke:none" />
    <path
       d="m 486.02161,351.38379 -5.95964,0.85137 -4.25689,-1.98655 c 0,0 8.79757,-20.71685 9.36516,-21.85202 0.56758,-1.13517 14.47342,-31.21719 14.47342,-30.08201 0,1.13517 -0.63986,10.81977 -1.41897,16.17617 0,0 -0.76422,10.57132 -2.27034,15.60859 -2.24282,7.50122 -9.93274,21.28445 -9.93274,21.28445 z"
       id="path4435-4-1"
       style="fill:#ececec;fill-opacity:1;stroke:none" />
    <path
       d="m 475.88526,337.1318 -4.4529,2.71911 c 0,0 6.85353,-12.64959 7.18696,-14.02883 0.33342,-1.37923 2.43998,-13.71654 3.73431,-15.44742 1.29433,-1.73087 5.39851,-13.87724 6.21694,-14.84726 0.81843,-0.97002 6.08065,-5.82922 6.08065,-5.82922 0,0 -2.28603,4.70725 -3.45555,7.04776 -1.82559,3.65344 -3.74748,7.25839 -5.55921,10.91872 -1.20165,2.42775 -2.63598,4.76382 -3.52223,7.3236 -1.64061,4.73859 -1.7827,9.89406 -3.25842,14.68656 -0.7874,2.55715 -2.97055,7.45698 -2.97055,7.45698 z"
       id="path4437-3-9"
       style="fill:#ececec;fill-opacity:1;stroke:none" />
    <path
       d="m 550.14158,266.31806 c -14.80065,0.50984 -31.12075,10.32142 -44.04383,13.49042 -3.94929,0.96844 -17.37614,-3.94962 -20.77862,-6.21004 -2.56626,-1.70489 1.4594,-7.02736 1.38873,-10.5334 -0.0578,-2.86629 0.6786,-5.67658 0.61868,-8.45201 -0.0368,-1.70493 -0.64848,-3.40534 -0.4923,-5.02444 0.71012,-7.36177 -0.70995,-9.76218 -1.94244,-15.03394 -0.27096,-1.15898 0.18098,-3.83824 0.29915,-7.19017 -0.83219,-1.58492 -4.26635,-7.60656 0.52181,-14.52067 0.77971,-1.12591 2.26433,-5.81158 2.59919,-6.91443 0.54335,-1.78947 1.51722,-4.22304 2.06881,-6.60251 0.64619,-2.78758 1.48553,-5.30493 2.37864,-8.30836 0.64005,-2.15243 1.61837,-4.31508 2.63833,-6.70305 0.70816,-1.65795 1.54838,-3.96704 2.70576,-5.00105 3.32758,-2.97288 2.72026,-1.81926 3.63379,-1.99897 0.91353,-0.17971 3.59124,-0.0757 7.68724,-1.65661 -2.72414,1.28195 -3.29122,2.77024 -3.12077,4.92373 0.29509,3.72816 3.47619,5.17025 6.10579,5.64233 2.28789,0.41074 2.14127,2.13619 4.6667,1.40027 2.08096,-0.60639 4.13081,-0.74193 6.65859,-1.6357 4.95738,-1.75283 7.38851,-3.13001 10.10839,-4.12411 2.30347,-0.8419 6.25839,-3.37299 6.25839,-3.37299 0.91851,2.44936 0.34175,2.60554 5.04652,4.41423 3.91905,1.50662 9.70103,1.56074 9.70103,1.56074 -23.70563,2.81916 -11.06744,23.56096 4.70961,27.03208 0,0 -1.79617,8.4896 -3.61605,12.63257 -0.78069,1.77727 -1.08866,4.25903 -1.34665,6.27236 0.97287,3.1965 -1.34298,3.77653 -2.70866,6.36581 1.11248,4.60913 -2.06507,5.12737 -3.10511,8.30308 2.89583,5.39025 -0.0233,9.78939 -1.84206,12.39941 0.38678,0.77357 3.58304,4.8759 4.92763,7.20932 1.29281,2.24357 0.25956,1.56769 -1.72629,1.6361 z"
       id="path3777-1-7"
       style="fill:#8460a3;fill-opacity:1;stroke:#5d248f;stroke-width:1.25;stroke-miterlimit:4;stroke-opacity:1;stroke-dasharray:none" />
    <path
       d="m 539.81591,179.59306 c -1.32018,0.41106 -3.49357,2.35559 -4.75645,2.75516 -3.05023,0.96505 -9.95301,3.99978 -13.66777,5.59198 -3.35288,1.43709 -5.09107,1.86797 -8.66626,0.70124 -2.61248,-0.85256 -4.64682,-2.24329 -6.72261,-4.66977 -0.75809,-1.33234 -0.99299,-2.84208 -1.04011,-4.06192 -0.0424,-1.09713 0.6566,-2.60605 1.82493,-3.57924 -0.38533,0.1768 -1.64496,0.4361 -2.01248,0.60639 -1.04102,1.18246 -1.9546,2.58216 -1.83365,3.75751 0.13244,1.28666 -0.0512,3.32191 0.72101,4.37297 1.46138,1.98892 4.4419,4.67667 5.31009,4.89263 1.52448,0.37921 3.10443,1.52028 5.77784,1.48562 2.4773,-0.0321 5.7803,-1.30992 9.34248,-2.7722 4.0392,-1.6581 8.93433,-3.64521 12.18445,-4.77913 1.38656,-0.48376 3.8706,-2.5121 5.90417,-3.14853 -0.77365,-0.33105 -0.59424,-1.16779 -1.35958,-1.58389 z m 3.55704,2.22858 -2.99203,1.96111 c 0,0 -2.2471,1.90072 -3.71435,2.14108 -4.24235,0.69497 -6.99047,2.82003 -8.87974,3.40058 -3.53322,1.08572 -5.96688,2.572 -13.21792,4.86966 -2.66637,0.8449 -8.67314,-4.41629 -11.0485,-5.89313 -1.13613,-0.70637 -3.30413,-4.89287 -2.84325,-6.14879 0.58667,-1.59869 1.22303,-3.62944 3.07277,-4.90319 -0.53225,0.0143 -2.63966,-0.42462 -3.19845,-0.54042 -0.69166,0.41152 -2.63003,1.95089 -3.68641,3.68997 -0.99107,1.63155 -1.63046,4.18165 -2.8884,6.55638 6.94855,4.72548 13.25188,12.06458 20.31308,14.77521 13.42707,-9.69513 21.19786,-12.76798 30.56991,-14.20756 2.28232,-1.12231 6.94372,-2.69091 10.06284,-3.00536 0,0 -8.79215,-1.33706 -11.54955,-2.69552 z m -28.94579,23.27898 c -6.30745,-1.90991 -15.74686,-11.20148 -21.69539,-14.80282 -0.29425,1.04067 -0.78749,2.29125 -1.06605,3.33387 5.74392,1.92208 14.1093,11.19613 22.43459,14.31713 6.21845,-7.15277 20.60903,-14.36838 27.70568,-14.21683 0.0738,-0.96337 0.79324,-3.1766 1.20116,-3.90598 -10.99726,1.04336 -22.99265,10.84377 -28.57999,15.27463 z m 27.40666,-8.6358 c -16.38236,4.20551 -21.33474,8.63121 -27.6695,15.70271 -6.12096,-4.36636 -17.99769,-12.44209 -23.29439,-15.33456 -0.44757,1.13268 -0.72661,2.29148 -1.21443,3.41127 6.39899,3.27753 24.28901,15.63857 24.28901,15.63857 8.13569,-9.51471 20.13798,-14.83234 29.65238,-16.32643 -0.70922,-1.03997 -1.2414,-2.05445 -1.76307,-3.09156 z"
       id="path3789-4-9"
       style="fill:#ececec;stroke:none" />
    <path
       d="m 547.09333,257.5332 c -15.42771,0.83512 -24.87123,8.30474 -34.04383,11.52276 -3.25888,1.14331 -4.13946,2.13567 -7.75996,3.14123 l -17.64201,-6.56881 -0.91878,-1.67615 c -0.1215,1.13537 -0.81991,2.78071 -0.81991,2.78071 l 1.98701,2.84371 18.1014,6.45706 c 1.39461,-0.41664 3.63432,-2.1489 5.00362,-2.61976 12.48573,-4.29356 23.25228,-13.73009 38.10522,-12.95105 -0.37276,-0.74551 -1.39151,-2.18419 -2.01276,-2.9297 z"
       id="path3779-9-1"
       style="fill:#ececec;stroke:none" />
    <path
       d="m 550.08842,250.87817 c -14.3493,0.52888 -30.91574,7.1086 -43.8056,13.94396 -2.04987,-1.81072 -18.19417,-6.7684 -19.03195,-9.01364 0.0617,0.95243 -0.20761,1.96862 -0.33542,3.07915 -0.15183,1.3193 -0.11595,0.15188 -0.0501,1.48807 0.002,0.0502 -0.37434,0.8443 0,0.14899 0.69149,1.0768 17.95391,7.20549 19.34299,8.48159 1.39461,-0.41664 3.72578,-2.10219 5.07812,-2.61976 11.9956,-4.59094 22.40278,-11.66595 37.5842,-11.9574 0.93295,-1.35933 1.27806,-2.52271 1.21778,-3.55096 z"
       id="path3784-4-7-1"
       style="fill:#ececec;stroke:none" />
    <path
       d="m 309.09375,211.8125 c -6.53833,0.27715 -2.75287,8.2614 -6.15625,12.9375 -5.36746,7.37467 -15.29426,4.67483 -25.59005,-1.11811 -10.29579,-5.79294 -20.73121,-2.20422 -25.29924,-0.60753 -5.98972,2.09363 -11.62239,0.81751 -14.23571,-4.52436 -0.68229,4.3539 1.21938,7.74539 1.8125,8.875 -0.11817,3.35193 -0.55221,6.02852 -0.28125,7.1875 0.61336,2.62353 1.2669,4.52083 1.6875,6.6875 1.69749,-1.18777 4.02732,-1.71681 5.84375,-2.3125 2.9924,-0.98133 11.37244,2.49062 15.75,3.375 4.37757,0.88437 14.93023,-0.50547 22.4375,-1.53125 5.68485,-0.77677 14.16522,1.44315 18.8125,5.78125 -0.17604,-0.49332 -0.38125,-0.98813 -0.65625,-1.5 1.04004,-3.17571 4.20623,-3.67212 3.09375,-8.28125 1.36568,-2.58928 3.69162,-3.1785 2.71875,-6.375 0.25799,-2.01333 0.56306,-4.50398 1.34375,-6.28125 1.47517,-3.35824 2.875,-9.32889 3.375,-11.5625 -1.9861,-0.57742 -3.50087,-0.79897 -4.65625,-0.75 z"
       transform="translate(245.5625,0)"
       id="path119317-0"
       style="color:#000000;fill:#5e377f;fill-opacity:1;stroke:none;stroke-width:0.5;marker:none;visibility:visible;display:inline;overflow:visible;enable-background:accumulate" />
  </g>
</svg>
