<?xml version="1.0" encoding="UTF-8" standalone="no"?>
<!-- Created with Inkscape (http://www.inkscape.org/) -->

<svg
   xmlns:dc="http://purl.org/dc/elements/1.1/"
   xmlns:cc="http://creativecommons.org/ns#"
   xmlns:rdf="http://www.w3.org/1999/02/22-rdf-syntax-ns#"
   xmlns:svg="http://www.w3.org/2000/svg"
   xmlns="http://www.w3.org/2000/svg"
   version="1.1"
   width="560"
   height="560"
   id="dress_japanese_pleat">
  <g
     transform="translate(1.7420295e-6,-1.0000017)"
     id="g124379"
     style="display:inline;enable-background:new">
    <path
       d="m 384.76808,418.19403 c -4.90901,7.71754 -30.8916,28.8019 -37.61313,34.28624 -28.52123,9.91882 -74.13569,16.95925 -121.04691,3.57697 -6.642,-3.41076 -34.06826,-17.58332 -40.63423,-21.88255 17.4717,4.03168 164.38785,-6.15996 199.29427,-15.98066 z"
       id="path124000-1-3-4-9"
       style="color:#000000;fill:#d3bc5f;stroke:#a0892c;stroke-width:0.81462604;stroke-linecap:butt;stroke-linejoin:miter;stroke-miterlimit:4;stroke-opacity:1;stroke-dasharray:none;stroke-dashoffset:0;marker:none;visibility:visible;display:inline;overflow:visible;enable-background:accumulate" />
    <path
       d="m 384.76808,418.19403 c -4.90901,7.71754 -30.8916,28.8019 -37.61313,34.28624 -28.52123,9.91882 -74.13569,16.95925 -121.04691,3.57697 -6.642,-3.41076 -34.06826,-17.58332 -40.63423,-21.88255 17.4717,4.03168 164.38785,-6.15996 199.29427,-15.98066 z"
       id="path124000-1-3-4-9-2"
       style="color:#000000;fill:#c8ab37;fill-opacity:1;stroke:none;marker:none;visibility:visible;display:inline;overflow:visible;enable-background:accumulate" />
    <path
       d="m 358.62943,394.9376 c 0,0 20.91461,8.20163 26.86193,11.49848 13.49411,21.48776 -48.02199,44.73495 -103.08571,45.33276 -70.12991,0.76137 -115.6523,-16.08925 -101.42762,-36.25653 7.3844,-2.96373 23.02071,-15.85767 25.78304,-17.49617 2.76231,-1.6385 141.02297,-6.81794 151.86836,-3.07854 z"
       id="path124002-1-1-6"
       style="color:#000000;fill:#d3bc5f;stroke:#a0892c;stroke-width:0.7513774;stroke-linecap:butt;stroke-linejoin:miter;stroke-miterlimit:4;stroke-opacity:1;stroke-dasharray:none;stroke-dashoffset:0;marker:none;visibility:visible;display:inline;overflow:visible;enable-background:accumulate" />
    <path
       d="m 330.71875,393.625 c -29.17059,-0.0295 -73.86601,1.36823 -100.875,2.6875 -10.32732,1.46959 -18.10376,3.35387 -21.3125,5.6875 -1.78507,15.17311 47.25022,38.31314 96.875,48.28125 39.67892,-4.5917 76.89456,-19.11 81.5,-34.53125 -13.26371,-10.63728 -32.43691,-19.44286 -36.09375,-21.4375 -0.20924,-0.11413 -0.53536,-0.237 -0.90625,-0.34375 -4.92445,-0.24088 -11.48148,-0.33597 -19.1875,-0.34375 z"
       id="path124336"
       style="color:#000000;fill:#c8ab37;fill-opacity:1;stroke:none;marker:none;visibility:visible;display:inline;overflow:visible;enable-background:accumulate" />
    <path
       d="m 366.53712,389.39047 c 0,0 -9.75563,10.10104 -16.47717,15.58538 -35.31285,9.70654 -97.36624,15.20301 -138.09002,-0.87857 -6.642,-3.41076 -16.81502,-13.42674 -17.87065,-15.1779 17.47169,4.03168 137.53142,10.29179 172.43784,0.47109 z"
       id="path124000-1-3-4"
       style="color:#000000;fill:#d3bc5f;stroke:#a0892c;stroke-width:0.81462604;stroke-linecap:butt;stroke-linejoin:miter;stroke-miterlimit:4;stroke-opacity:1;stroke-dasharray:none;stroke-dashoffset:0;marker:none;visibility:visible;display:inline;overflow:visible;enable-background:accumulate" />
    <path
       d="m 366.53712,389.39047 c 0,0 -9.75563,10.10104 -16.47717,15.58538 -35.31285,9.70654 -97.36624,15.20301 -138.09002,-0.87857 -6.642,-3.41076 -16.81502,-13.42674 -17.87065,-15.1779 17.47169,4.03168 137.53142,10.29179 172.43784,0.47109 z"
       id="path124000-1-3-4-6"
       style="color:#000000;fill:#c8ab37;fill-opacity:1;stroke:none;marker:none;visibility:visible;display:inline;overflow:visible;enable-background:accumulate" />
    <path
       d="m 338.45658,359.87137 c 0,0 25.79652,17.26802 31.74384,20.56486 3.6651,36.77429 -192.42764,35.77598 -176.91338,1.70178 7.38441,-2.96373 23.67997,-13.6571 26.4423,-15.2956 2.76232,-1.63851 107.88185,-10.71044 118.72724,-6.97104 z"
       id="path124002-1-1"
       style="color:#000000;fill:#d3bc5f;stroke:#a0892c;stroke-width:0.7513774;stroke-linecap:butt;stroke-linejoin:miter;stroke-miterlimit:4;stroke-opacity:1;stroke-dasharray:none;stroke-dashoffset:0;marker:none;visibility:visible;display:inline;overflow:visible;enable-background:accumulate" />
    <path
       d="m 334.75,361.53125 -112.96875,8.375 c 16.24626,11.44623 50.07081,26.23399 82.875,36.875 28.68699,-2.28674 53.89173,-8.18246 62.46875,-17.84375 -14.28724,-14.01313 -32.375,-27.40625 -32.375,-27.40625 z"
       id="path124311"
       style="color:#000000;fill:#c8ab37;fill-opacity:1;stroke:none;marker:none;visibility:visible;display:inline;overflow:visible;enable-background:accumulate" />
    <path
       d="m 355.81804,353.05918 c 0,0 -11.367,9.73909 -18.43491,14.76915 -12.05532,10.87761 -73.88456,16.41084 -115.45844,3.62245 -6.40312,-3.8405 -12.52494,-11.36128 -13.46303,-13.17812 17.16846,5.17284 111.87929,2.28856 147.35638,-5.21348 z"
       id="path124000-1-3"
       style="color:#000000;fill:#d3bc5f;stroke:#a0892c;stroke-width:0.81462604;stroke-linecap:butt;stroke-linejoin:miter;stroke-miterlimit:4;stroke-opacity:1;stroke-dasharray:none;stroke-dashoffset:0;marker:none;visibility:visible;display:inline;overflow:visible;enable-background:accumulate" />
    <path
       d="m 355.81804,353.05918 c 0,0 -11.367,9.73909 -18.43491,14.76915 -12.05532,10.87761 -73.88456,16.41084 -115.45844,3.62245 -6.40312,-3.8405 -12.52494,-11.36128 -13.46303,-13.17812 17.16846,5.17284 111.87929,2.28856 147.35638,-5.21348 z"
       id="path124000-1-3-9"
       style="color:#000000;fill:#c8ab37;fill-opacity:1;stroke:none;marker:none;visibility:visible;display:inline;overflow:visible;enable-background:accumulate" />
    <g
       id="g124332">
      <path
         d="m 330.53386,330.03092 c 0,0 25.01093,14.59211 29.95092,17.33056 -0.97522,26.66677 -160.29758,32.02236 -153.3696,4.41318 6.13368,-2.46175 19.86006,-14.18664 22.15452,-15.54762 2.29446,-1.36098 92.25571,-9.30216 101.26416,-6.19612 z"
         id="path124002-1"
         style="color:#000000;fill:#d3bc5f;stroke:#a0892c;stroke-width:0.62411308;stroke-linecap:butt;stroke-linejoin:miter;stroke-miterlimit:4;stroke-opacity:1;stroke-dasharray:none;stroke-dashoffset:0;marker:none;visibility:visible;display:inline;overflow:visible;enable-background:accumulate" />
      <path
         d="m 311.21875,329.5 c -19.99695,0.67563 -50.12105,3.08423 -67.75,4.875 -8.36011,1.31525 -14.45179,2.6009 -16.125,3.4375 20.23503,11.24169 47.13825,23.29458 71.25,31.0625 23.0126,-1.94665 44.18564,-6.22586 54.78125,-12.5625 -5.68866,-8.49512 -15.88299,-17.45912 -22.8125,-22.65625 -3.24445,-2.43334 -10.19903,-3.69378 -19.03125,-4.15625 -0.11096,0.004 -0.2009,-0.004 -0.3125,0 z"
         id="path124290"
         style="color:#000000;fill:#c8ab37;fill-opacity:1;stroke:none;marker:none;visibility:visible;display:inline;overflow:visible;enable-background:accumulate" />
    </g>
    <path
       d="m 339.28371,319.45847 c 0,0 -4.49538,12.94255 -10.1856,16.99215 -16.28884,10.40704 -73.22383,15.01016 -100.36849,3.12939 -4.91766,-4.50096 -9.77075,-10.49499 -10.52599,-11.95769 13.82196,4.16455 92.51824,-2.12412 121.08008,-8.16385 z"
       id="path124000-1"
       style="color:#000000;fill:#d3bc5f;stroke:#a0892c;stroke-width:0.65583801;stroke-linecap:butt;stroke-linejoin:miter;stroke-miterlimit:4;stroke-opacity:1;stroke-dasharray:none;stroke-dashoffset:0;marker:none;visibility:visible;display:inline;overflow:visible;enable-background:accumulate" />
    <path
       d="m 339.28371,319.45847 c 0,0 -4.49538,12.94255 -10.1856,16.99214 -16.28884,10.40705 -73.22383,15.01017 -100.36849,3.1294 -4.91766,-4.50096 -9.77076,-10.49499 -10.52599,-11.95769 13.82196,4.16454 92.51824,-2.12412 121.08008,-8.16385 z"
       id="path124000-1-8"
       style="color:#000000;fill:#c8ab37;fill-opacity:1;stroke:none;marker:none;visibility:visible;display:inline;overflow:visible;enable-background:accumulate" />
    <path
       d="m 320.52055,305.28927 c 0,0 15.28028,11.33028 19.23788,13.52415 -9.44141,20.81473 -109.89931,26.88125 -118.9139,8.25754 4.91391,-1.9722 13.99856,-14.83243 15.83674,-15.92276 1.83816,-1.09034 76.62227,-8.34729 83.83928,-5.85893 z"
       id="path124002"
       style="color:#000000;fill:#d3bc5f;stroke:#a0892c;stroke-width:0.5;stroke-linecap:butt;stroke-linejoin:miter;stroke-miterlimit:4;stroke-opacity:1;stroke-dasharray:none;stroke-dashoffset:0;marker:none;visibility:visible;display:inline;overflow:visible;enable-background:accumulate" />
    <path
       d="m 307.875,309.1875 c -19.71284,0.0327 -60.12285,0.55733 -67.96875,4.21875 10.52524,9.3108 38.04988,17.57955 64.15625,21.4375 15.40306,-2.79896 28.33995,-7.25575 33.71875,-13.125 -9.06987,-6.31812 -19.0625,-12.5 -19.0625,-12.5 0,0 -4.2728,-0.0421 -10.84375,-0.0312 z"
       id="path124269"
       style="color:#000000;fill:#c8ab37;fill-opacity:1;stroke:none;marker:none;visibility:visible;display:inline;overflow:visible;enable-background:accumulate" />
    <path
       d="m 328.74348,298.78368 c 0,0 -6.07868,9.84159 -8.93737,11.94264 -12.41834,7.93416 -60.04448,13.32929 -80.24598,4.27159 -3.74914,-3.43146 -9.47049,-10.05081 -10.04626,-11.16595 10.53763,3.17497 77.45453,-0.44369 99.22961,-5.04828 z"
       id="path124000"
       style="color:#000000;fill:#d3bc5f;stroke:#a0892c;stroke-width:0.5;stroke-linecap:butt;stroke-linejoin:miter;stroke-miterlimit:4;stroke-opacity:1;stroke-dasharray:none;stroke-dashoffset:0;marker:none;visibility:visible;display:inline;overflow:visible;enable-background:accumulate" />
    <path
       d="m 328.74348,298.78368 c 0,0 -6.07868,9.84159 -8.93737,11.94264 -12.41834,7.93416 -60.04448,13.3293 -80.24598,4.27159 -3.74914,-3.43146 -9.47048,-10.05081 -10.04626,-11.16595 10.53763,3.17498 77.45454,-0.44369 99.22961,-5.04828 z"
       id="path124000-2"
       style="color:#000000;fill:#c8ab37;fill-opacity:1;stroke:none;marker:none;visibility:visible;display:inline;overflow:visible;enable-background:accumulate" />
    <path
       d="m 268.84315,162.50597 c 6.73511,-2.80629 20.20533,-3.36755 26.94044,1.68378 -0.56126,7.85763 -2.80629,15.154 1.68378,17.39904 4.49008,2.24503 5.33196,3.64818 10.3833,2.52566 5.05133,-1.12252 9.82203,-1.68377 14.87337,2.52567 -7.29637,-1.96441 -18.52156,-3.92882 -15.43463,39.00751 1.9644,-4.49007 2.80629,-4.7707 4.7707,-7.85763 -12.42289,34.30453 6.05384,76.19081 16.31942,80.45057 -15.46618,15.22441 -93.51106,12.62711 -98.67038,5.88031 13.89046,-22.6216 7.34067,-83.85336 8.26475,-87.73402 0.76089,-3.19534 3.07282,-4.59805 3.92881,-8.69952 1.9468,-9.32803 -14.9027,-18.68073 -7.85763,-30.308 2.77833,-4.58538 10.94456,-5.05133 15.154,-2.80629 4.20945,2.24503 6.73511,3.64818 12.90896,1.9644 6.17385,-1.68377 6.17385,-10.94455 6.73511,-14.03148 z"
       id="path123998"
       style="color:#000000;fill:#d3bc5f;stroke:#a0892c;stroke-width:0.5;stroke-linecap:butt;stroke-linejoin:miter;stroke-miterlimit:4;stroke-opacity:1;stroke-dasharray:none;stroke-dashoffset:0;marker:none;visibility:visible;display:inline;overflow:visible;enable-background:accumulate" />
    <path
       d="m 305.88626,192.81397 c -4.49007,2.8063 -9.54141,15.71526 -12.34771,24.13415 -2.80629,8.41889 -7.29637,6.17385 -7.29637,2.80629 -2.24503,5.6126 0.85584,58.06856 5.10367,72.56661 4.24783,14.49806 20.37369,11.81439 25.42503,11.25313 5.05133,-0.56126 7.73164,-7.24478 7.73164,-7.24478 -11.63414,-3.7567 -14.41929,-17.32787 -14.10829,-24.50639 0.31099,-7.17853 -3.53975,-23.11224 -3.53975,-23.11224 0,0 -5.98487,-24.17148 -0.40371,-32.85756 -0.0364,-9.2894 -2.24829,-14.62032 -0.56451,-23.03921 z"
       id="path124157"
       style="color:#000000;fill:#c8ab37;stroke:none;marker:none;visibility:visible;display:inline;overflow:visible;enable-background:accumulate" />
    <path
       d="m 273.0375,162.42801 c 3.48707,3.13836 5.23061,3.83578 6.97414,4.18449 1.74354,0.3487 -1.04612,19.52758 -0.34871,22.31724 0.69742,2.78965 4.53319,0.3487 7.67156,-2.09224 3.13836,-2.44095 5.2306,-2.09225 9.06638,0 3.83577,2.09224 6.62543,-0.69742 6.62543,-0.69742 0,0 -9.06638,-2.78965 -9.7638,-6.27672 -0.69741,-3.48707 0.34871,-12.90216 0.69742,-14.64569 0.3487,-1.74354 -11.50733,-6.27673 -20.92242,-2.78966 z"
       id="path124357"
       style="color:#000000;fill:#c8ab37;fill-opacity:1;stroke:none;marker:none;visibility:visible;display:inline;overflow:visible;enable-background:accumulate" />
    <path
       d="m 237.93288,216.94106 c 0,0 1.97747,2.67488 6.85936,0.93135 4.8819,-1.74353 0.67979,3.6549 -1.43008,5.43369 -1.09922,0.92674 -3.45181,1.88915 -4.84664,5.72493 -0.34871,-6.62543 -0.93135,-10.69514 -0.58264,-12.08997 z"
       id="path124377"
       style="color:#000000;fill:#c8ab37;fill-opacity:1;stroke:none;marker:none;visibility:visible;display:inline;overflow:visible;enable-background:accumulate" />
  </g>
</svg>
