<?xml version="1.0" encoding="UTF-8" standalone="no"?>
<!-- Created with Inkscape (http://www.inkscape.org/) -->

<svg
   xmlns:dc="http://purl.org/dc/elements/1.1/"
   xmlns:cc="http://creativecommons.org/ns#"
   xmlns:rdf="http://www.w3.org/1999/02/22-rdf-syntax-ns#"
   xmlns:svg="http://www.w3.org/2000/svg"
   xmlns="http://www.w3.org/2000/svg"
   version="1.1"
   width="560"
   height="560"
   id="dress_suit">
  <path
     d="m 245.73229,172.41512 c -6.75047,-1.51223 -13.3074,3.70193 -15.10569,9.09682 -1.7983,5.3949 -1.07898,11.14945 -1.43864,13.3074 -0.35966,2.15796 -1.07898,3.95626 0.35966,5.03524 1.43864,1.07897 -0.29911,3.02045 0.97248,5.30931 1.27159,2.28886 -0.50864,6.10362 0.25432,9.66407 0.76295,3.56044 -1.01727,20.09109 -2.03454,21.10836 -1.01727,1.01727 -1.01727,1.52591 -0.50864,2.54318 0.50864,1.01727 -0.25432,2.28885 -0.76295,2.54317 -0.50864,0.25432 -1.52591,1.52591 -1.01727,2.7975 0.50863,1.27158 0.25432,1.78022 -1.01727,2.54317 -1.27159,0.76296 -0.76296,1.78023 -0.76296,2.54318 0,0.76295 -2.54317,6.61226 -3.56044,8.90112 -1.01727,2.28885 -4.83204,13.98747 -5.08636,15.25905 -0.25431,1.27159 -0.76295,8.13817 -2.03454,8.6468 -1.27158,0.50864 -1.01727,1.01727 -1.27158,2.54318 -0.25432,1.5259 -2.54318,11.18997 -6.35794,17.03928 5.08635,7.62953 15.25905,10.42702 18.05655,11.44429 1.01727,-5.59498 1.5259,-16.02201 2.79749,-16.78496 1.27159,-0.76295 1.01727,-1.01727 1.01727,-2.28886 0,-1.27159 1.27159,-1.27159 1.27159,-3.30613 0,-2.03454 1.27159,-1.5259 1.5259,-3.05181 0.25432,-1.52591 -1.01727,-2.28886 0.76296,-3.05181 1.78022,-0.76295 1.27159,-1.78022 0.76295,-2.79749 -0.50863,-1.01728 -0.50863,-1.78023 0.76295,-2.7975 1.27159,-1.01727 1.78023,-6.10362 3.30613,-7.37521 1.52591,-1.27159 6.35794,-12.46156 7.88385,-14.75042 1.52591,-2.28886 2.03454,-4.06908 2.03454,-8.39248 0,-4.3234 1.52591,-7.37522 2.54318,-9.91839 1.01727,-2.54318 -0.25432,-2.28886 -0.25432,-4.3234 0,-2.03454 3.05181,-3.30613 2.79749,-5.08635 -0.25431,-1.78023 -1.27159,-4.06909 0.25432,-7.62953 1.52591,-3.56045 8.90928,-45.39712 -6.15049,-48.77078 z"
     id="path79978"
     style="color:#000000;fill:#6f7c91;fill-opacity:1;stroke:#373e48;stroke-width:1;stroke-linecap:butt;stroke-linejoin:miter;stroke-miterlimit:4;stroke-opacity:1;stroke-dasharray:none;stroke-dashoffset:0;marker:none;visibility:visible;display:inline;overflow:visible;enable-background:accumulate" />
  <path
     d="m 241.40625,175.03125 c -9.35114,6.47388 -3.58919,19.79545 -9.34375,21.59375 1.7983,0.35966 1.79545,0.70398 3.59375,-0.375 1.7983,-1.07898 1.43864,0.35852 0,1.4375 -1.43864,1.07898 -1.43579,1.8125 -3.59375,1.8125 3.23694,2.15795 4.3267,0.70341 6.125,0.34375 1.79829,-0.35966 1.07954,3.59318 -0.71875,4.3125 -1.7983,0.71932 -2.17273,3.26363 -1.09375,5.78125 1.07898,2.51762 3.23979,23.73295 -3.59375,25.53125 1.07898,0.89915 2.52954,1.42273 4.6875,0.34375 2.15795,-1.07898 4.67557,1.07727 0,2.15625 -4.67558,1.07897 -5.38864,1.09431 -7.90625,0.375 2.51761,3.23693 3.95113,3.23352 6.46875,4.3125 2.51761,1.07898 -0.0119,2.85965 -4.6875,2.5 5.03523,1.43863 5.75171,5.04659 3.59375,5.40625 1.7983,4.67557 0.73637,15.46647 -1.78125,18.34375 -2.51761,2.87727 -1.8125,2.15454 -1.8125,4.3125 0,2.15796 1.09602,3.95228 -1.78125,5.03125 -2.87728,1.07898 0.35909,2.17045 0.71875,3.96875 0.35966,1.79829 -3.60966,1.09205 -3.25,3.25 0.35966,2.15796 1.7983,3.57727 0,4.65625 -1.79829,1.07897 -3.59432,0.71704 -2.875,2.875 0.71932,2.15796 -1.43636,1.07784 -2.875,1.4375 -1.00432,2.67817 -1.07322,15.02314 -5.71875,14.6875 3.7876,2.00925 7.35515,3.08369 8.84375,3.625 1.01727,-5.59498 1.54091,-16.0183 2.8125,-16.78125 1.27159,-0.76295 1,-1.04091 1,-2.3125 0,-1.27159 1.28125,-1.24671 1.28125,-3.28125 0,-2.03454 1.27694,-1.53659 1.53125,-3.0625 0.25432,-1.52591 -1.03023,-2.29955 0.75,-3.0625 1.78022,-0.76295 1.28989,-1.76398 0.78125,-2.78125 -0.50863,-1.01728 -0.52158,-1.79523 0.75,-2.8125 1.27159,-1.01727 1.7866,-6.10341 3.3125,-7.375 1.52591,-1.27159 6.34909,-12.46114 7.875,-14.75 1.52591,-2.28886 2.03125,-4.0516 2.03125,-8.375 0,-2.48937 0.53285,-4.55188 1.15625,-6.34375 0.2031,-22.37666 -1.77891,-46.30634 -6.28125,-66.78125 z"
     id="path80101"
     style="color:#000000;fill:#535d6c;fill-opacity:1;marker:none;visibility:visible;display:inline;overflow:visible;enable-background:accumulate" />
  <path
     d="m 264.07492,173.23978 c -6.83352,2.15795 -5.39489,3.23693 -8.99148,2.51761 -3.5966,-0.71932 -8.63183,-4.31591 -11.5091,-3.59659 -2.87728,0.71932 -9.35115,12.58808 -6.83353,20.14093 2.51761,7.55285 8.27216,10.07046 5.03523,15.46535 -3.23694,5.3949 -7.19319,9.71081 -2.51762,20.14093 -0.35966,5.03523 -0.35966,7.55285 0.71932,11.14944 1.07898,3.5966 -4.67557,12.58809 2.15796,16.904 1.43864,3.23693 -0.35966,7.19319 -2.15796,10.07046 -1.79829,2.87728 -2.15795,6.11421 -1.79829,8.27217 0.35965,2.15796 -2.57933,4.16693 -1.64932,7.94865 1.66766,6.78128 0.21068,16.14853 -1.22796,17.58717 -1.43864,1.43864 -1.36345,2.09172 -0.42137,3.23693 1.00471,1.22135 0.56801,6.17296 -1.59359,7.14861 -1.34876,0.60876 -0.91505,2.51571 0.006,3.74652 2.00897,2.68467 16.77447,5.73559 37.97493,2.41228 7.86234,-1.23248 -5.82128,-60.03995 -3.95626,-76.60747 -8.91226,-15.50827 -18.37606,-35.57319 -3.23694,-66.53699 z"
     id="path79922"
     style="color:#000000;fill:#6f7c91;fill-opacity:1;stroke:#373e48;stroke-width:1;stroke-linecap:butt;stroke-linejoin:miter;stroke-miterlimit:4;stroke-opacity:1;stroke-dasharray:none;stroke-dashoffset:0;marker:none;visibility:visible;display:inline;overflow:visible;enable-background:accumulate" />
  <path
     d="m 236.34375,186.0625 c -0.29784,2.18606 -0.22315,4.36179 0.40625,6.25 2.38386,7.1516 7.6618,9.78504 5.46875,14.625 1.99023,-0.53037 1.56875,1.44592 -0.46875,4.21875 2.98588,-3.67233 7.50869,-5.60513 2.1875,-10.59375 -5.36294,-5.02775 -7.60493,-7.23485 -7.59375,-14.5 z m 0.8125,33.96875 c 0.10917,2.21022 0.70263,4.77173 2.09375,7.875 -0.35966,5.03523 -0.36023,7.55966 0.71875,11.15625 1.07898,3.5966 -4.67728,12.59034 2.15625,16.90625 1.43864,3.23693 -0.35795,7.18523 -2.15625,10.0625 -1.79829,2.87728 -2.14091,6.12329 -1.78125,8.28125 0.35965,2.15796 -2.58626,4.15578 -1.65625,7.9375 1.66766,6.78128 0.21989,16.15511 -1.21875,17.59375 -1.43864,1.43864 -1.37958,2.07354 -0.4375,3.21875 1.00471,1.22135 0.56785,6.1806 -1.59375,7.15625 -1.34876,0.60876 -0.92105,2.51919 0,3.75 1.78083,2.37979 13.60622,5.05212 31.03125,3.3125 -7.15808,0.29538 -14.75954,0.0732 -20.375,-1.96875 3.59659,0 19.08705,-0.88012 25.4375,-8.84375 -8.82444,6.43773 -23.7,6.84489 -27.65625,5.40625 -3.95625,-1.43864 -3.90852,-3.03125 -1.03125,-3.03125 2.87728,0 17.99772,0.70568 20.875,-2.53125 -5.07886,1.78022 -13.30852,1.09489 -18.34375,-0.34375 -5.03523,-1.43864 -7.9108,-4.32784 -2.15625,-4.6875 5.75455,-0.35966 8.24556,3.06183 10.78125,0.71875 -5.22784,1.05341 -4.68295,-1.81136 -10.4375,-3.25 2.87728,-3.23693 0.72046,-12.59148 -1.4375,-15.46875 -2.15795,-2.87728 -0.70512,-5.39091 1.8125,-5.03125 2.51762,0.35966 0.74249,7.23685 6.09375,7.21875 -5.24591,-2.20159 -0.35568,-6.49659 -5.03125,-10.8125 -4.67557,-4.31591 -0.34659,-9.34489 3.25,-7.90625 -2.15795,-2.87727 1.08863,-8.6392 7.5625,-10.4375 -15.82501,-0.35966 -14.0483,-10.04773 -12.25,-8.96875 1.7983,1.07898 7.21534,3.93807 11.53125,3.21875 -3.23693,0 -5.76307,-0.35624 -9,-4.3125 -3.23694,-3.95625 -3.6108,-5.02954 -1.8125,-7.1875 1.7983,-2.15795 3.59602,-4.67102 0.71875,-5.75 -2.87728,-1.07897 -3.23637,-5.03125 -0.71875,-5.03125 2.51761,0 7.21875,-3.24715 7.21875,-6.84375 -3.5966,1.7983 -7.91932,3.23694 -11.15625,0 -0.40462,-0.40462 -0.7594,-0.87519 -1.03125,-1.40625 z"
     id="path80077"
     style="color:#000000;fill:#535d6c;fill-opacity:1;stroke:none;marker:none;visibility:visible;display:inline;overflow:visible;enable-background:accumulate" />
  <path
     d="m 244.76189,231.10429 c 6.97191,-1.14069 11.76032,-7.54227 11.69861,-12.71589 6.61226,8.13817 -1.52591,14.24179 -11.69861,12.71589 z"
     id="path80129"
     style="color:#000000;fill:#535d6c;fill-opacity:1;stroke:none;marker:none;visibility:visible;display:inline;overflow:visible;enable-background:accumulate" />
  <path
     d="m 244.83913,186.36727 c 3.32981,1.12319 6.34811,2.82536 8.33806,4.09961 -2.56022,1.41428 -9.43457,5.57739 -9.43457,5.57739 0,0 2.30162,14.4766 11.15478,24.40569 5.7865,6.48974 8.24305,15.0791 11.62308,18.06728 -2.41249,-5.06371 -0.70754,-14.5903 -3.90332,-21.98525 -4.59821,-10.64016 -4.84046,-21.43326 -4.8424,-24.55611 -0.003,-4.74597 4.26502,-14.09202 8.08076,-19.48774 0,0 4.44189,-5.13855 3.82308,-7.78478 -11.92962,3.43048 -14.23132,16.59593 -24.83947,21.66391 z"
     id="path17864-6-3-9"
     style="fill:#6f7c91;fill-opacity:1;stroke:#373e48;stroke-width:0.99999994px;stroke-linecap:butt;stroke-linejoin:miter;stroke-opacity:1;display:inline;enable-background:new" />
  <path
     d="m 279.18062,316.02458 c 20.86024,-5.03524 27.33412,-15.46536 37.04492,-14.74604 9.71081,0.71932 10.82593,6.37601 11.54525,2.41976 0.27747,-1.52605 -6.04647,-6.92038 -3.73277,-9.46302 0.81217,-0.89253 -0.0191,-1.46656 -1.94052,-2.93873 -2.21281,-1.6954 -3.01262,-6.95788 -3.714,-8.36064 -2.15796,-4.31592 -4.67557,-9.71081 -4.31591,-11.50911 0.35966,-1.79829 0.35966,-2.87727 -1.07898,-3.23693 -1.43864,-0.35966 0.71932,-5.39489 -8.63183,-7.19319 -9.35114,-1.7983 -3.95625,-8.99149 -1.43864,-10.78978 2.51762,-1.7983 3.23694,-5.39489 2.51762,-8.63183 -0.71932,-3.23693 1.43864,-9.7108 4.31591,-12.94774 2.87728,-3.23693 4.31592,-3.95625 6.83353,-11.86876 -3.59659,-11.86876 -10.07046,-33.44833 -1.43864,-34.88697 -2.51761,-1.07897 -3.95625,-0.71931 -6.11421,-0.35966 -2.15795,0.35966 -6.47387,5.75456 -14.74603,-8.99148 4.31591,34.5273 -17.26365,39.9222 -27.33412,67.25631 0.39222,1.20778 -6.40704,3.956 -2.55358,23.73808 2.83793,14.56882 4.66643,32.01447 3.85678,43.35685 -0.43906,6.15089 5.77204,9.32753 10.92522,9.15288 z"
     id="path79922-7"
     style="color:#000000;fill:#6f7c91;fill-opacity:1;stroke:#373e48;stroke-width:1;stroke-linecap:butt;stroke-linejoin:miter;stroke-miterlimit:4;stroke-opacity:1;stroke-dasharray:none;stroke-dashoffset:0;marker:none;visibility:visible;display:inline;overflow:visible;enable-background:accumulate" />
  <g
     transform="translate(-245.5625,-1)"
     id="g80137">
    <path
       d="m 485.66431,266.93092 c -0.0365,-4.3093 1.01015,-8.54071 1.11579,-10.96546 2.20085,1.62745 5.67376,2.38156 10.68284,1.64719 5.00909,-0.73446 11.35706,-2.53883 12.67915,-1.27669 1.17658,1.12322 2.83592,13.78831 0.0937,14.30097 -12.41587,2.32118 -20.47913,-5.19021 -24.57147,-3.70601 z"
       id="path18692-9-9"
       style="fill:#aa4400;stroke:#552200;stroke-width:1;stroke-linecap:butt;stroke-linejoin:miter;stroke-miterlimit:4;stroke-opacity:1;stroke-dasharray:none;display:inline;enable-background:new" />
    <path
       d="m 549.36802,262.36753 c -0.39866,-4.29121 -1.73697,-7.32063 -2.14326,-9.71575 -3.00272,1.95793 -7.78203,3.75216 -15.58967,3.28574 -7.28616,-0.43526 -14.64295,-2.84786 -18.66068,0.59808 -1.74255,1.49456 -2.39655,12.6439 1.35457,13.30722 16.2024,2.86512 27.20302,-8.57447 35.03904,-7.47529 z"
       id="path18692-9-9-9"
       style="fill:#aa4400;stroke:#552200;stroke-width:1;stroke-linecap:butt;stroke-linejoin:miter;stroke-miterlimit:4;stroke-opacity:1;stroke-dasharray:none;display:inline;enable-background:new" />
    <path
       d="m 491.6157,262.77381 c 0.004,-3.78244 4.19115,-4.02364 6.67614,0.61166 2.5454,4.7478 6.70974,6.66774 8.51411,0.12632 1.66229,-6.02633 7.38685,-7.64233 10.19112,-1.20825 2.87721,6.60142 9.42029,6.97618 11.0576,-0.53279 1.1586,-5.31352 7.69986,-5.94475 8.18613,-0.61481 0.52447,5.74868 -6.93032,6.09813 -8.69906,1.069 -2.56595,-7.29586 -10.41345,-4.65465 -10.96688,0.90407 -0.4082,4.10006 -5.90431,8.62908 -9.76891,0.38278 -3.284,-7.0085 -6.77192,-4.11532 -8.51582,-0.33815 -2.00935,4.35217 -6.68001,4.88883 -6.67443,-0.39983 z"
       id="path18823-7-5"
       style="fill:none;stroke:#d45500;stroke-width:0.99999994px;stroke-linecap:butt;stroke-linejoin:miter;stroke-opacity:1;display:inline;enable-background:new" />
  </g>
  <path
     d="m 304.30606,196.73019 c -3.50487,-0.25503 -6.82623,0.1059 -8.88783,0.68979 1.62523,2.17019 5.0135,8.73056 5.0135,8.73056 0,0 -14.21258,10.62153 -22.80365,17.69492 -5.98087,4.92431 -6.49295,13.68011 -10.48195,15.02854 1.25167,-5.20688 1.95664,-14.0313 4.869,-18.33392 7.22308,-10.67113 15.60798,-21.34489 16.94333,-24.51582 3.11838,-7.40495 4.62347,-19.00142 4.85658,-26.14624 8.19762,5.26099 2.67595,18.06912 10.49102,26.85217 z"
     id="path17864-6-3-9-4"
     style="fill:#6f7c91;fill-opacity:1;stroke:#373e48;stroke-width:0.99999994px;stroke-linecap:butt;stroke-linejoin:miter;stroke-opacity:1;display:inline;enable-background:new" />
  <path
     d="m 314.42725,181.8716 c 7.55284,0.71932 15.46535,8.63183 16.18467,14.02672 0.71932,5.39489 3.23694,3.95626 2.87728,6.83353 -0.35966,2.87728 2.51761,3.23694 1.79829,5.03523 -0.71932,1.7983 2.15796,3.5966 3.23694,7.91251 1.07898,4.31591 7.19319,15.1057 10.43012,16.54434 3.23694,1.43863 3.23694,1.07897 3.23694,3.59659 0,2.51762 3.23693,0.71932 3.95625,4.67557 0.71932,3.95626 2.87728,6.47387 2.15796,8.99149 -0.71932,2.51761 -3.59604,10.06878 -2.82968,12.08561 0.76636,2.01683 -0.32509,1.69459 -1.30765,2.12469 -0.98257,0.43009 -1.61722,0.8954 -1.25756,3.05335 0.35966,2.15796 -0.38606,2.59682 -2.05793,5.09479 -1.67186,2.49795 -4.41594,16.48478 -4.05628,18.64274 -5.75455,-1.43864 -15.1057,-7.55286 -17.62332,-12.22843 2.15796,-2.87727 6.11421,-7.55284 5.39489,-8.99148 -0.71931,-1.43864 -0.35965,-2.51762 0.35966,-2.87728 0.71932,-0.35966 2.51762,-2.15795 1.07898,-3.23693 -1.43864,-1.07898 -1.07898,-1.43864 0.71932,-2.51762 1.7983,-1.07898 1.43864,-3.59659 1.43864,-3.59659 0,0 -1.07898,-1.7983 -0.35966,-3.23694 0.71932,-1.43864 2.15796,-2.15795 1.07898,-3.59659 -1.07898,-1.43864 -1.07898,-2.87728 -0.71932,-3.95626 0.35966,-1.07897 0,-1.79829 -1.43864,-2.15795 -1.43864,-0.35966 -3.59659,-1.7983 -3.23693,-3.95626 0.35966,-2.15795 -0.35966,-2.87727 -1.7983,-3.59659 -1.43864,-0.71932 -3.5966,-0.71932 -4.67557,-3.23694 -1.07898,-2.51761 -0.71932,-4.31591 -2.87728,-5.39489 -8.63183,-4.31591 -22.29888,-41.72049 -9.7108,-46.03641 z"
     id="path79980"
     style="color:#000000;fill:#6f7c91;fill-opacity:1;stroke:#373e48;stroke-width:1;stroke-linecap:butt;stroke-linejoin:miter;stroke-miterlimit:4;stroke-opacity:1;stroke-dasharray:none;stroke-dashoffset:0;marker:none;visibility:visible;display:inline;overflow:visible;enable-background:accumulate" />
  <path
     d="m 309.34375,191.65625 c -0.335,12.70052 8.53568,33.12722 14.78125,36.25 2.15796,1.07898 1.79602,2.88864 2.875,5.40625 1.07897,2.51762 3.24886,2.49943 4.6875,3.21875 1.43864,0.71932 2.17216,1.4358 1.8125,3.59375 -0.35966,2.15796 1.78011,3.60909 3.21875,3.96875 1.43864,0.35966 1.79716,1.07728 1.4375,2.15625 -0.35966,1.07898 -0.36023,2.53011 0.71875,3.96875 1.07898,1.43864 -0.34318,2.15511 -1.0625,3.59375 -0.71932,1.43864 0.34375,3.21875 0.34375,3.21875 0,0 0.28818,1.91845 -0.8125,3.125 1.37894,-0.71649 2.25,-0.18526 2.25,-1.6875 0,-2.15795 -0.34602,-2.85909 2.53125,-3.21875 2.87728,-0.35966 1.78296,-2.8733 -0.375,-5.03125 -2.15795,-2.15796 -1.4392,-2.5142 0.71875,-4.3125 2.15796,-1.79829 4.68522,-1.81079 7.5625,-3.96875 2.87728,-2.15796 -4.67102,-3.59545 -5.75,-1.4375 -1.07898,2.15796 -2.52955,3.95398 -4.6875,2.875 -2.15796,-1.07898 -2.14603,-3.96705 4.6875,-6.125 6.83353,-2.15796 -1.07614,-4.31364 -3.59375,-2.875 -2.51762,1.43864 -5.39034,1.45455 -5.75,-0.34375 -0.35966,-1.79829 2.85625,-4.32784 6.8125,-4.6875 -6.83353,-1.7983 -7.88806,3.25056 -11.125,2.53125 -3.23693,-0.71932 -3.23522,-4.70114 -2.15625,-7.21875 1.07898,-2.51762 -0.74658,-6.46647 -5.0625,-9.34375 -4.31591,-2.87727 -0.003,-5.0142 3.59375,-6.8125 -2.87728,0 -6.81022,-1.09319 -9.6875,-1.8125 -2.87727,-0.71932 -4.675,-5.39205 -0.71875,-3.59375 3.95626,1.7983 3.57443,1.4375 8.25,1.4375 -6.12984,-0.91948 -13.80346,-7.58579 -15.5,-12.875 z M 336.15625,261 c -0.5638,0.36487 -0.93224,0.68118 -1,0.96875 0.0392,0.0311 0.0864,0.0639 0.125,0.0937 0.30426,-0.43466 0.59366,-0.77816 0.875,-1.0625 z"
     id="path80011"
     style="color:#000000;fill:#535d6c;fill-opacity:1;stroke:none;marker:none;visibility:visible;display:inline;overflow:visible;enable-background:accumulate" />
  <path
     d="m 301.46614,229.66818 c -8.81873,2.60252 -17.39731,4.80939 -22.07252,0.58523 5.03925,3.95113 15.74619,8.36733 22.48463,4.12737 -6.4594,0.83936 -10.98597,-1.0156 -0.41211,-4.7126 z"
     id="path80007"
     style="color:#000000;fill:#535d6c;fill-opacity:1;stroke:none;marker:none;visibility:visible;display:inline;overflow:visible;enable-background:accumulate" />
  <path
     d="m 278.4613,230.42563 c 0.71932,4.31591 5.75455,9.35114 10.43013,12.22842 4.67557,2.87727 5.03523,-3.23694 1.43863,-4.67557 -3.59659,-1.43864 -8.99148,-2.87728 -11.86876,-7.55285 z"
     id="path80009"
     style="color:#000000;fill:#535d6c;fill-opacity:1;stroke:none;marker:none;visibility:visible;display:inline;overflow:visible;enable-background:accumulate" />
</svg>
