<?xml version="1.0" encoding="UTF-8" standalone="no"?>
<!-- Created with Inkscape (http://www.inkscape.org/) -->

<svg
   xmlns:dc="http://purl.org/dc/elements/1.1/"
   xmlns:cc="http://creativecommons.org/ns#"
   xmlns:rdf="http://www.w3.org/1999/02/22-rdf-syntax-ns#"
   xmlns:svg="http://www.w3.org/2000/svg"
   xmlns="http://www.w3.org/2000/svg"
   version="1.1"
   width="560"
   height="560"
   id="dress_short">
  <path
     d="m 303.69324,240.8518 c 2.01971,-6.2136 5.07188,-9.2852 5.67419,-15.3083 0.37902,-3.7903 -6.22978,-14.7202 -14.66201,-16.5272 -8.43222,-1.8069 -17.63579,3.7808 -26.25465,2.2428 -8.64246,-1.5421 -14.28883,-8.1341 -23.22038,-6.0518 -2.99094,0.6973 -3.24524,4.2466 -6.14476,8.0981 -3.29637,4.3787 -1.49097,10.8008 0.23571,13.7609 0,10.8415 3.58163,21.6516 3.44409,25.5762 -0.61601,17.5765 -11.88349,47.1743 -14.08987,74.8536 0.11017,2.5589 0.17688,4.4046 -0.21924,6.0787 -0.44787,1.893 -1.48741,3.5666 -3.72478,5.804 0.60231,2.4092 1.79539,2.4076 2.97035,3.6083 1.17496,1.2006 8.71237,3.5708 8.71237,3.5708 -0.0195,0.7396 0.24287,2.0361 1.0758,2.392 1.9828,0.8475 10.80512,4.4131 16.52475,4.7142 -0.18684,0.6009 -0.56824,2.3995 -0.56824,2.3995 2.33239,0.5272 12.63387,0.8743 12.63387,0.8743 l 0.13555,3.1956 c 4.37148,0.06 9.8739,-0.328 15.11928,-0.8268 5.62853,-0.5353 12.35314,0.1197 13.49969,-2.8997 1.14653,-3.0192 29.65272,-3.9684 36.27805,-3.9684 -0.33718,-8.3163 -3.89348,-53.9975 -20.35022,-82.8369 -1.75792,-3.0807 -6.0884,-7.6392 -8.4976,-11.8554 -2.40921,-4.2161 0.56207,-14.2302 1.42805,-16.8945 z"
     id="path2740-5-3"
     style="fill:#333333;stroke:#000000;stroke-width:1px;stroke-linecap:butt;stroke-linejoin:miter;stroke-opacity:1" />
  <g
     id="g56519">
    <path
       d="m 291.3417,300.62943 c -0.61269,1.37476 -1.56742,1.69888 -2.57741,2.51582 -1.11284,0.90032 -0.77002,5.41147 0.0977,8.75991 0.86766,3.34844 2.47658,7.38694 2.56026,10.44897 -0.79392,-2.1193 -2.17183,-4.50098 -2.48944,-5.34863 2.138,6.73931 2.6955,14.93598 2.70547,16.76896 0.01,1.83299 -0.6179,17.44428 -0.004,19.34104 0.61387,1.89676 0.22178,3.68598 -0.64722,4.20488 -0.86901,0.51891 -1.1759,1.50141 -0.34945,1.38517 0.82651,-0.11625 4.01496,-1.40974 4.50264,-2.17245 0.48764,-0.7627 -0.30126,-1.04602 -1.02145,-1.93628 -0.72018,-0.89025 -1.49873,-5.04509 -1.34992,-6.45426 0.14881,-1.40916 1.00852,-11.49354 0.52717,-13.6816 -0.48137,-2.18815 -0.25645,-4.30654 -0.11328,-4.69848 0.14317,-0.39202 0.0315,-0.29753 -0.34914,-0.54126 -0.38137,-0.2438 -0.16257,-0.42311 0.16061,-0.5925 0.32321,-0.1694 0.45957,-0.46199 -10e-4,-0.91779 -0.46077,-0.45572 -0.4435,-0.65802 0.45739,-1.47885 0.90088,-0.82083 0.50225,-0.86212 -0.25547,-0.43323 -0.75771,0.4288 -0.59676,-0.16659 0.19282,-0.8974 0.7896,-0.73082 -0.51913,0.15091 -1.17619,0.59033 -0.65707,0.43953 -1.02018,-0.008 -0.0505,-0.51666 0.96968,-0.50827 1.38338,-2.50115 2.23111,-2.81868 0.54262,-0.20333 1.11993,-0.39898 1.59549,-0.44801 -0.002,-0.0102 -0.002,-0.0193 -0.004,-0.0285 -1.27171,-0.12424 -2.05061,0.25384 -2.49901,0.38056 -0.52455,0.14813 -0.68337,-0.27127 -0.14825,-0.52005 0.53515,-0.24877 1.62569,-0.94951 0.69857,-0.8439 -0.92713,0.10561 -0.77301,-0.38622 -0.15846,-0.42309 0.61454,-0.0369 1.00564,0.10711 0.44426,-0.35933 -0.53495,-0.44443 0.10934,-0.67173 1.33533,-0.0412 -0.72652,-3.90067 -1.55949,-7.76522 -2.44324,-11.5574 -0.21179,-0.68181 -0.45894,-1.49154 -0.45894,-1.49154 -0.89025,0.72018 -1.71544,0.83084 -2.22934,0.87833 -0.5139,0.0476 -0.61647,-0.87729 0.21002,-0.99354 0.65585,-0.0922 1.29036,-0.63741 1.7806,-1.3391 -0.38639,-1.59711 -0.77755,-3.17844 -1.17362,-4.74037 z"
       id="path2832-5-6"
       style="fill:#000000;fill-rule:evenodd;stroke:none" />
    <path
       d="m 277.55576,315.0358 c -5.42072,-0.1506 -6.62533,-0.7529 -9.03454,-3.0115 -2.4092,-2.2586 -3.91497,-6.7759 -7.07705,-7.6794 -3.1621,-0.9034 -5.42072,-1.6563 -6.7759,-3.0115 1.65632,0.9035 7.37821,2.4092 8.28165,2.7104 -1.95747,-1.5058 -2.55977,-1.6563 -4.81841,-2.5598 3.76438,0.9035 4.96899,1.8069 5.87246,2.7104 0.90343,0.9034 2.71035,0.4517 3.76438,2.108 1.05403,1.6564 6.02302,6.9265 9.78741,8.7334 z"
       id="path2764-9"
       style="fill:#000000;fill-rule:evenodd;stroke:none" />
    <path
       d="m 262.16015,249.5609 c 4.79808,-0.3229 10.64731,2.1294 12.35088,2.5553 1.70357,0.4259 1.27767,1.7036 -0.85179,1.0648 -2.12947,-0.6389 -6.38838,-1.0648 -8.94373,-0.6389 -2.55536,0.4259 -13.84151,-1.7036 -15.75803,-1.9165 -1.91651,-0.2129 -0.21294,-2.1295 1.91652,-1.9165 2.12947,0.2129 9.04483,1.0026 11.28615,0.8518 z"
       id="path2758-7"
       style="fill:#000000;fill-rule:evenodd;stroke:none" />
    <path
       d="m 251.93872,235.9323 c 3.62009,-0.2129 8.30492,1.9165 11.07322,2.1295 2.76829,0.2129 5.11071,0.8518 6.38838,1.4906 1.27766,0.6388 7.02722,1.2777 7.87901,2.3424 0.85178,1.0647 4.89775,1.9165 0.85178,-0.6388 -2.40227,-1.387 -1.49063,-6.1755 -5.32365,-6.8143 -3.02638,-0.5044 -16.46932,-0.399 -21.56262,0.431 -0.44862,0.073 -1.4343,0.6763 -0.7537,1.4029 0.60023,0.6408 1.74764,1.1876 1.44758,-0.3433 z"
       id="path2760-4"
       style="fill:#000000;fill-rule:evenodd;stroke:none" />
    <path
       d="m 259.48669,276.4884 c 2.25471,0.087 8.88397,0.1506 10.23915,0.4518 1.35518,0.3011 1.20459,-1.2046 -1.20462,-1.5058 -2.4092,-0.3011 -7.07705,-0.3011 -9.03453,-0.3011 -1.95749,0 -5.87246,-0.7529 -7.22764,-0.7529 -1.35518,0 -1.05403,1.054 0.15059,1.2046 1.20459,0.1506 5.41679,0.8396 7.07705,0.9034 z"
       id="path2766-2"
       style="fill:#000000;fill-rule:evenodd;stroke:none" />
    <path
       d="m 260.99245,258.4194 c 4.66785,0.4517 10.99203,2.108 12.19662,2.8609 1.20461,0.7529 -0.45172,1.2046 -1.20459,1.3552 1.20459,0.6023 0.60228,1.3552 -0.15059,1.3552 -0.75287,0 -4.21613,-0.1506 -5.11957,-0.3012 -0.90346,-0.1506 -4.66784,-0.6023 -5.5713,-1.054 -0.90346,-0.4517 0.90346,-0.6023 1.8069,-0.7529 0.90346,-0.1506 -0.45172,-1.2046 -1.8069,-1.5058 -1.35518,-0.3011 -0.75287,2.7104 -2.86095,2.5598 -2.10805,-0.1505 -3.46323,-0.1505 -4.06554,-0.7528 -0.6023,-0.6023 0.15059,-2.861 0.90346,-3.3127 0.75288,-0.4517 3.91498,0.4517 6.47475,0.7529 2.55979,0.3011 1.20461,-1.0541 -0.60229,-1.2046 z"
       id="path2768-0"
       style="fill:#000000;fill-rule:evenodd;stroke:none" />
    <path
       d="m 256.09118,265.6383 c 4.15246,-0.4259 4.89775,-0.4259 6.70779,-0.2129 1.81004,0.2129 7.87901,0.3194 9.36964,0.8517 1.49063,0.5324 1.1712,1.2777 -0.74531,0.7453 -1.91651,-0.5323 -7.98548,-0.3194 -10.22141,-0.6388 -2.23594,-0.3194 -2.66182,-0.8518 -5.11071,-0.7453 z"
       id="path2770-7"
       style="fill:#000000;fill-rule:evenodd;stroke:none" />
    <path
       d="m 262.37309,257.1205 c 3.83302,0.8517 10.22141,1.3841 10.86025,0.7453 0.63885,-0.6389 -1.06473,-1.1712 -1.5971,-1.1712 1.17122,-0.1065 0.95826,-0.5324 0,-0.7454 -0.95826,-0.2129 -1.06473,-1.597 -1.91651,-1.81 -0.85179,-0.2129 -2.55536,-0.7453 -3.19418,-0.3194 -0.63885,0.4259 -0.74532,1.81 0,2.2359 -2.55536,-0.1065 -3.72658,-0.1065 -4.3654,-0.7453 -0.10647,0.4259 0.10647,0.6388 0.31941,0.8518 -0.63884,-0.1065 -1.1712,-0.5324 -1.91651,-0.4259 0.53235,0 0.85178,0.6388 0.63884,1.2777 0.63883,-0.6389 1.27767,-0.4259 1.1712,0.1065 z"
       id="path2772-6"
       style="fill:#000000;fill-rule:evenodd;stroke:none" />
    <path
       d="m 272.5945,244.5566 c 1.27769,0.3194 3.40714,0.8518 4.7913,1.3842 1.38414,0.5323 0.53235,-0.3194 -0.95826,-0.8518 -1.49063,-0.5324 -3.93951,-1.3842 -5.64309,-1.7036 -1.70357,-0.3194 -14.69327,-1.2777 -16.29037,-1.4906 -1.5971,-0.2129 -3.40714,0.2129 -4.25893,0.7453 -0.85178,0.5324 0.21296,1.3842 0.74532,1.0647 0.53237,-0.3194 2.44888,-0.6388 3.83302,-0.4258 1.38416,0.2129 9.58258,1.597 11.60557,1.4906 2.023,-0.1065 3.6201,0.2129 4.7913,0.4259 1.1712,0.2129 2.87477,0.7453 3.83302,0.4259 -1.38414,-0.3195 -2.44888,-1.1712 -2.44888,-1.0648 z"
       id="path2774-3-9"
       style="fill:#000000;fill-rule:evenodd;stroke:none" />
    <path
       d="m 243.67623,308.7116 c 0.42225,2.1112 0.75289,4.0656 1.3552,4.969 0.60229,0.9035 3.76439,7.5288 4.36669,8.4323 0.60229,0.9034 1.20459,3.0115 1.65634,3.7644 0.45171,0.7528 0.15056,2.7103 -0.7529,1.3551 -0.90344,-1.3551 -1.20459,-3.6138 -1.95749,-4.6678 -0.75287,-1.054 -4.96897,-7.3782 -5.42071,-9.7874 -0.45172,-2.4092 -0.60231,-3.0115 -0.60231,-3.7644 0,-0.7529 1.32569,-0.4486 1.35518,-0.3012 z"
       id="path2780-9-4"
       style="fill:#000000;fill-rule:evenodd;stroke:none" />
    <path
       d="m 265.6603,284.3184 c 3.31266,0.4517 10.54028,2.7103 11.74489,3.0115 1.20462,0.3011 -1.35518,0.9034 -2.86094,0.9034 3.91497,0.9035 5.11958,2.4093 5.87246,2.861 0.75287,0.4517 -0.30116,0.7529 -0.90346,0.3011 -0.60231,-0.4517 -1.2046,-0.7528 -1.65634,-0.7528 -0.45172,0 -1.35518,0.6023 -1.8069,0.6023 -0.45174,0 -0.45174,-0.7529 -1.20461,-0.7529 -0.75287,0 -3.91497,0.3011 -3.91497,0.3011 1.20461,0.6023 2.55979,1.9575 0.15059,1.3552 0.30115,0.9035 -0.30116,2.5598 -2.71036,2.7104 0.15056,0.4517 0,0.9034 -0.30116,1.3552 -0.30115,-0.9035 -1.05402,-1.9575 -1.65633,-2.4093 -2.25864,1.2047 -4.06554,0.9035 -4.81843,0.9035 -0.75288,0 0,-0.4517 1.05405,-1.054 1.05402,-0.6023 2.25861,-0.7529 2.25861,-0.7529 -0.30115,-0.1506 -0.30115,-0.7529 -0.30115,-0.7529 -1.8069,0.4517 -4.969,0.4517 -5.57128,0.4517 -0.60231,0 -1.20462,-1.054 -1.20462,-1.054 0.60231,0 1.65634,0 1.65634,0 -1.35518,-0.6023 -1.65634,-0.9034 -2.10806,-1.6563 1.35518,0.7529 2.10806,1.2046 2.86093,1.2046 -0.75287,-0.4517 -0.60231,-0.6023 -0.90344,-1.3552 1.20459,0.9035 1.8069,1.5058 6.32418,1.054 -0.45174,-0.1505 -1.3552,-0.4517 -1.3552,-0.4517 1.50576,-0.6023 2.71038,-1.054 3.01153,-1.6563 -3.31266,0.7529 -9.48628,0 -9.938,0 -0.45174,0 0.60229,-0.9035 1.35518,-1.0541 -0.30115,0 -1.20461,-0.1505 -1.20461,-0.1505 -0.30115,-1.3552 0,-3.0115 0,-3.0115 0.60231,0.6023 2.86095,0.4517 2.25864,0.1505 -0.60231,-0.3011 -2.25864,-0.9034 -2.25864,-0.9034 0.15059,-0.4518 0.15059,-1.5058 0.15059,-1.5058 1.35518,1.2046 2.4092,1.5058 3.61379,1.5058 1.20462,0 3.91498,-0.3012 3.91498,-0.3012 l -1.20459,-0.3011 c 0,0 0,-0.9035 0.45171,-0.7529 0.45172,0.1506 2.40921,0.3011 3.46324,0.3011 1.05404,0 2.40922,1.0541 3.01151,1.5058 0.6023,0.4517 -0.30113,0.7529 -1.05403,0.3012 -0.75287,-0.4518 -2.71036,-0.4518 -4.2161,-0.1506 z"
       id="path2782-8-1"
       style="fill:#000000;fill-rule:evenodd;stroke:none" />
    <path
       d="m 274.83044,305.4592 c 2.02298,0.5324 2.7683,0 1.5971,-0.8518 -1.17122,-0.8517 -6.92075,-3.1941 -7.45313,-3.4071 0.42591,0.4259 1.91651,1.2777 2.44889,1.7036 -3.08771,-1.4906 -7.66607,-3.0877 -8.83727,-3.1942 -1.1712,-0.1065 -1.27767,-0.7453 -2.23592,-0.7453 -0.95826,0 -1.5971,0.2129 -1.91651,0 -0.31944,-0.213 -1.06475,-0.9583 -1.81007,-1.1712 1.91654,0.1064 3.62011,0 5.43015,-0.3194 1.81004,-0.3195 4.57834,-0.8518 5.21716,-1.3842 0.63885,-0.5324 5.11072,-0.5324 5.85603,-0.7453 0.74532,-0.213 1.38416,0.6388 -0.10647,1.1712 -1.49063,0.5324 -4.04599,0.5324 -5.00424,0.8518 -0.95826,0.3194 -1.91652,0.6388 -2.7683,0.7453 1.1712,0 2.98124,0.3194 3.51361,0.4259 0.53238,0.1065 5.64307,1.81 9.15668,3.833 3.51361,2.023 2.23595,1.8101 1.06475,1.2777 -1.17122,-0.5324 -7.5596,-3.5136 -8.30492,-3.833 -0.74531,-0.3195 -4.47187,-0.3195 -5.11069,-0.8518 -0.63884,-0.5324 -2.76832,0 -3.1942,-0.213 1.70357,0.4259 5.21718,1.7036 5.9625,1.8101 0.74529,0.1064 2.44886,0.5323 4.57834,1.4906 2.12945,0.9583 4.04596,2.023 4.79128,2.2359 0.74531,0.213 2.55536,1.3842 3.1942,1.9165 0.63882,0.5324 -1.49063,2.4489 -6.06897,-0.7453 z"
       id="path2784-4"
       style="fill:#000000;fill-rule:evenodd;stroke:none" />
    <path
       d="m 265.50971,315.6381 c -2.10805,-1.2046 -3.61382,-1.3552 -4.36669,-1.3552 -0.75287,0 -1.20462,-0.9034 -2.71036,-0.9034 -1.50577,0 -2.86095,-2.4092 -2.10807,-2.4092 0.75289,0 3.31266,2.2586 7.82994,2.108 -2.55979,-0.6023 -4.51728,-1.2046 -6.17361,-1.9575 2.40923,0.4518 4.21612,0.7529 5.72189,0.7529 1.50575,0 2.10805,0.7529 2.25862,1.2046 0.15059,0.4518 -0.60229,2.861 -0.45172,2.5598 z"
       id="path2786-6"
       style="fill:#000000;fill-rule:evenodd;stroke:none" />
    <path
       d="m 240.91377,239.1713 c 1.12931,1.1737 3.44799,2.2678 4.41676,1.7834 1.05403,-0.527 1.80601,-0.7528 3.46237,0 1.65631,0.7529 0.002,0.7511 -0.67577,0.6758 -0.67759,-0.075 -1.80654,0 -2.70998,0.9056 -0.90346,0.9035 -1.80382,-0.68 -2.55669,-0.5294 -0.75287,0.1506 -0.30459,2.1106 0.97531,2.487 1.27987,0.3765 1.27865,-0.1559 1.88096,-0.3065 0.60228,-0.1506 0.98226,0.2254 0.98226,0.7524 0,0.527 -1.05817,2.8664 -2.18746,2.2641 -1.12931,-0.6023 -1.50612,0.1503 -1.58141,0.3762 -0.0753,0.2258 1.28588,-0.076 1.51172,0.3762 0.22585,0.4517 2.18078,0.8271 1.80434,1.5047 -0.37644,0.6776 -1.80835,3e-4 -2.03422,-0.3762 -0.22589,-0.3764 -0.3773,-0.9795 -0.82902,-0.829 -0.45172,0.1506 -0.45306,0.8277 -0.0766,0.7524 0.37643,-0.075 0.60632,0.3802 0.2299,0.6061 -0.37646,0.2259 -0.90431,0.2964 -0.82902,0.8987 0.0753,0.6023 0.45392,0.8279 0.90564,0.3762 0.45174,-0.4518 0.97774,-0.899 1.50477,-0.5225 0.527,0.3764 1.13017,0.299 0.829,1.0519 -0.30116,0.7529 -1.20702,1.351 -0.52946,2.1039 0.67759,0.7529 0.2288,1.1299 -0.22292,1.2052 -0.45172,0.075 -1.35688,-0.8266 -1.65801,-0.2995 -0.30117,0.527 0.74917,0.677 1.35148,0.7523 0.60233,0.075 0.22612,1.2792 -0.37617,1.1286 -0.60231,-0.1506 -0.74785,-0.7497 -1.27488,-0.5991 -0.52702,0.1506 -0.60231,1.4281 0,1.4281 0.60231,0 1.42946,0.6045 1.50476,0.9057 0.0753,0.3011 -0.60313,0.6787 -0.82902,0.4528 -0.22587,-0.2259 -0.82742,-1.2837 -1.12855,-0.6061 -0.30118,0.6776 2.63443,2.7127 3.08615,2.8632 0.45172,0.1506 0.97801,0.2246 1.12857,-0.077 0.15059,-0.3011 1.95907,-1.4324 -0.29957,-1.2818 1.65633,-0.7529 2.18028,-1.5005 2.55672,-1.6511 0.37643,-0.1506 0.9054,0.825 1.28183,0.5991 0.37644,-0.2258 0.45391,-0.7524 0.90565,-0.7524 0.45172,0 -0.45687,0.6045 -0.68272,0.9057 -0.22587,0.3011 0.53264,0.2975 -0.0697,1.3515 -0.60229,1.054 0.45122,0.6063 0.75238,0.2299 0.30115,-0.3765 2.17892,-2.1098 2.48007,-1.658 0.30116,0.4517 -2.33218,2.6352 -2.63333,3.9151 -0.30116,1.2799 -0.97665,0.3033 -1.05196,-1.0519 -0.22585,0.8282 0.0756,2.1818 -0.37617,2.2571 -0.45172,0.075 -0.30518,-0.3049 -0.2299,-0.6061 0.0753,-0.3011 -0.37193,-0.527 -0.52248,0 -0.15059,0.5271 -0.9027,0.6064 -1.12859,0.2299 -0.82814,0.3012 -0.98497,-0.2256 -1.13553,-0.3761 -0.82816,0.1505 -1.04874,-0.1506 -1.65107,0 -0.60231,0.1505 -0.60365,-0.3036 -0.0766,-0.5295 0.527,-0.2259 0.37376,-0.4515 -0.15327,-0.3762 -0.52702,0.075 -0.97985,-0.5991 -0.45281,-0.5991 0.52703,0 0.37938,-0.3049 -0.22293,-0.6061 -0.60233,-0.3011 -0.9791,-1.2762 -1.5814,-1.3515 -0.60229,-0.075 -0.22342,3.0859 0.52945,3.4624 0.75287,0.3764 1.05302,0.7537 1.50476,0.829 0.45172,0.075 0.0756,0.5964 -0.37619,0.4458 -0.45172,-0.1506 -2.10974,-0.9005 -1.65802,-0.2229 0.45174,0.6776 1.5798,1.1294 1.88095,1.9576 0.30113,0.8281 1.43483,1.5045 1.81129,1.8809 0.37644,0.3765 -0.15302,0.676 -0.52945,0.2996 -0.37644,-0.3765 -1.58116,-1.5812 -1.9576,-1.9576 -0.37644,-0.3764 -0.97665,-0.9742 -1.05193,-0.5225 -0.0753,0.4517 0.97825,0.6742 0.75238,0.9753 -0.22585,0.3012 -0.6771,-0.2998 -0.75238,0.077 -0.0753,0.3764 2.02749,0.5249 1.65107,1.0519 -0.37643,0.527 -2.24014,-0.4675 -2.55672,-0.7524 -0.45836,-0.4125 -0.93268,-1.4759 -1.37238,-2.9677 0.44639,-1.0892 0.83535,-2.109 1.14946,-3.0513 0,0 -0.72982,-11.2616 -0.80812,-21.6589 z"
       id="path2792-5"
       style="fill:#000000;fill-rule:evenodd;stroke:none" />
    <path
       d="m 273.44628,234.0158 c 1.17122,0.6388 2.87479,1.7036 4.25893,2.6618 1.38416,0.9583 3.08773,0.9583 3.1942,0.3194 0.10647,-0.6388 -1.5971,-0.8517 -1.81004,-1.2776 -0.21296,-0.4259 0.21294,-1.0648 0.74531,-0.7453 0.53236,0.3194 1.70355,0.2129 1.1712,-0.3195 -0.53237,-0.5323 -2.23594,-1.5971 -2.7683,-1.7035 -0.53237,-0.1065 -0.21296,-0.7453 0.31942,-0.5324 0.53237,0.2129 1.91651,0.5324 2.44888,0.2129 0.53235,-0.3194 0,-0.4258 -0.4259,-0.4258 -0.42588,0 -1.91651,-0.8518 -2.55536,-1.5971 -0.63882,-0.7454 -2.7683,-2.4489 -4.68481,-2.4489 -1.91651,0 -0.31941,0.3194 0.21294,0.3194 0.53238,0 2.23595,1.1712 2.66183,1.7036 0.4259,0.5323 -1.06473,0.2129 -1.81004,-0.213 -0.7453,-0.4259 -2.66183,-0.8518 -3.40712,-0.7453 -0.74532,0.1065 -1.91654,1.1712 -1.5971,1.81 0.31941,0.6389 1.06472,1.4907 2.02298,1.7036 0.95826,0.213 1.91651,0 2.44889,-0.3194 0.53235,-0.3194 2.87476,0.2129 2.66182,0.8518 -0.21294,0.6388 -0.53237,0.8518 -1.17122,0.6388 -0.63882,-0.2129 -1.06472,-0.8518 -2.12945,-0.6388 -1.06473,0.2129 -2.34242,0.2129 -3.19418,0.3194 1.70355,-0.1065 3.40712,0.4259 3.40712,0.4259 z"
       id="path2788-4"
       style="fill:#000000;fill-rule:evenodd;stroke:none" />
    <path
       d="m 257.26238,231.9928 c -1.81004,-0.7453 -3.19418,-2.1295 -3.83303,-3.3007 0,0.4259 0.42588,0.8518 0.74532,1.3842 -0.95826,-0.6388 -3.1942,-3.7266 -4.15246,-3.6201 -0.95826,0.1065 -2.34242,3.9395 -2.87477,4.4719 -0.53237,0.5323 -1.27769,1.0647 -2.34241,0.3194 0.53237,1.1712 0.95825,3.3007 1.5971,3.1942 0.63884,-0.1065 2.55535,-2.5554 5.32365,-2.8748 2.7683,-0.3194 4.04599,0.1065 5.5366,0.4259 z"
       id="path2790-7"
       style="fill:#000000;fill-rule:evenodd;stroke:none" />
    <path
       d="m 263.92866,321.2094 c 0.60231,0.3765 1.05405,0.6023 1.43048,0.6776 0.37644,0.075 -0.0753,-1.581 -0.15058,-1.7316 -0.0753,-0.1506 -1.50575,-1.5058 -2.03277,-1.8069 0.52702,0.527 1.35518,1.8822 1.12931,1.6563 -0.22585,-0.2259 -1.2046,-0.3764 -1.73162,-0.2259 0.30115,0.3765 0.67759,0.8282 0.82818,1.0541 -0.7529,-0.3765 -1.65633,-0.9788 -2.18336,-1.2799 0.67759,0.527 0.75287,0.9034 0.97874,1.3552 -0.75287,-0.6776 -1.73161,-1.2046 -2.03276,-1.0541 -0.30116,0.1506 -0.15057,0.6776 -0.15057,0.9788 1.35518,1.2799 2.48449,2.9362 2.71036,3.0868 0.22585,0.1506 1.20459,-0.8282 1.20459,-0.8282 -0.527,-0.2259 -1.20459,-1.1293 -1.50575,-1.2799 0.67759,0.4517 1.2046,0.527 1.43047,0.4517 0.22587,-0.075 0.6023,-0.527 0.6023,-0.527 -0.30115,-0.075 -0.52702,-0.3764 -0.52702,-0.527 z"
       id="path2796-7"
       style="fill:#000000;fill-rule:evenodd;stroke:none" />
    <path
       d="m 253.99066,312.4007 c -0.75287,-1.3551 -1.58102,-2.2586 -2.18333,-2.4845 -0.60231,-0.2258 -0.67759,1.0541 -0.45172,1.3552 0.22585,0.3012 1.05403,1.1293 1.20459,1.5058 -0.75287,-0.527 -1.05403,-0.9788 -1.20459,-0.8282 -0.15059,0.1506 0.30113,1.054 0.527,1.5058 -0.527,-0.6023 -0.90346,-1.2046 -1.2799,-1.4305 0.37644,0.8282 0.60231,1.8069 0.82818,2.1081 -0.6023,-0.7529 -0.67759,-1.0541 -0.82818,-1.2799 0.0753,0.6776 0.45175,1.5057 0.45175,1.5057 -0.37646,-0.1506 -0.60231,-1.054 -0.97875,-1.3552 0,0.9788 0.30116,1.807 0.527,2.1834 0.22588,0.3764 0.97875,1.2799 0.97875,1.2799 -0.0753,-0.4517 -0.30116,-1.2046 -0.30116,-1.2046 0.45175,0.9787 0.90346,1.8822 1.12934,1.8069 0.22584,-0.075 0.527,-1.5058 0.45171,-1.5811 -0.0753,-0.075 -0.37643,-0.6023 -0.75287,-0.7528 0.527,-0.1506 1.05403,0.075 1.05403,0.075 0,-0.4518 -0.15057,-1.0541 -0.60231,-1.2047 0.45174,-0.075 0.67759,-0.1505 0.67759,-0.1505 l 0.15059,-0.527 c 0,0 -0.30116,-0.5271 -0.67759,-0.6023 0.45172,-0.1506 0.97874,-0.1506 1.27987,0.075 z"
       id="path2798-4"
       style="fill:#000000;fill-rule:evenodd;stroke:none" />
    <path
       d="m 254.03874,327.2134 c 0.13173,-0.01 0.28646,0.051 0.4599,0.1945 0.69379,0.574 1.61372,0.8046 2.07583,0.3425 0.46208,-0.4621 1.27043,0.2369 0.57872,0.5755 -0.69175,0.3385 -0.44754,1.4406 0.7015,1.1291 1.14901,-0.3114 1.9601,-0.1999 2.53796,0.1455 0.57783,0.3452 1.73245,1.3736 1.85106,1.8182 0.11863,0.4446 0.36584,1.5274 -0.66371,1.4702 1.03805,0.4714 0.26589,1.7459 -0.39175,2.2393 -0.65767,0.4935 -3.78256,3.4144 -5.30677,4.3201 -1.12997,0.6714 -2.51725,7.4483 -3.67158,13.7706 -2.0264,-0.5539 -3.89381,-0.8039 -4.75971,-0.9907 0,0 0.27895,-1.5659 0.44763,-2.1844 l 0.007,-0.013 c 1.86836,-5.0078 2.80449,-11.1139 3.06101,-13.6976 0.25651,-2.5837 2.11516,-4.8839 3.12657,-5.5332 1.0114,-0.6494 -0.84598,-1.4285 -0.74093,-2.2937 0.0787,-0.6489 0.29235,-1.267 0.68754,-1.2934 z"
       id="path2800-4"
       style="fill:#000000;fill-rule:evenodd;stroke:none" />
    <path
       d="m 237.99868,318.4029 c -1.51819,-0.9109 -2.22667,-1.2146 -3.03637,-1.1134 -0.8097,0.1012 -1.31577,-0.506 -1.31577,-0.506 0,0 -0.20242,-1.0121 0.50607,-1.0121 0.70849,0 2.63151,-0.1013 4.14969,1.2145 0.10121,0.6073 -0.30362,1.417 -0.30362,1.417 z"
       id="path2828-4"
       style="fill:#000000;fill-rule:evenodd;stroke:none" />
    <path
       d="m 238.50475,315.8726 c -1.21456,-0.3037 -2.02426,-1.0122 -2.32789,-1.417 -0.48959,-0.6528 -1.40186,-0.8869 -1.61939,-1.2146 -0.21753,-0.3276 -0.70849,-1.923 0,-1.923 0.70849,0 2.93514,0.9109 4.45332,2.2267 0.10121,0.6073 -0.50604,2.3279 -0.50604,2.3279 z"
       id="path2830-5-2"
       style="fill:#000000;fill-rule:evenodd;stroke:none" />
    <path
       d="m 248.89078,313.6581 c 0.57255,1.0019 3.14897,3.2921 3.43526,4.4372 -0.64411,-0.7157 -1.7892,-1.6461 -2.14704,-1.7176 0.71568,0.4294 1.57449,1.646 1.71763,1.9323 -0.71568,-0.6441 -1.43135,-1.2882 -2.14704,-1.5745 1.43136,1.2882 2.2186,2.5049 2.50489,2.9343 -0.35785,-0.1432 -0.78725,-0.6441 -1.21665,-0.7873 0.57252,0.4294 1.71761,2.0039 2.00387,2.5049 -0.35782,-0.3578 -1.57447,-1.4314 -1.57447,-1.4314 0.14312,0.5726 0.64411,1.503 0.93037,1.9324 -0.42941,-0.072 -1.14507,-0.5726 -1.14507,-0.5726 0.28626,0.501 0.93037,1.2167 1.28821,1.7177 -0.85881,-0.2863 -1.35979,-0.8589 -1.64606,-1.1451 -0.0716,1.0019 0.35785,2.147 0.64411,2.5764 -0.71569,-0.7872 -1.28821,-2.2186 -1.35979,-3.4352 0.35784,0.2862 0.78724,0.5009 0.78724,0.5009 -0.35784,-0.7156 -0.50096,-1.5029 -0.4294,-1.8607 0.4294,0.3578 0.57255,0.5725 0.85881,0.6441 -0.50097,-0.8588 -1.93232,-1.9323 -2.64801,-2.7196 0.64411,0.2863 1.00195,0.501 1.50294,0.7873 -1.21665,-1.2167 -3.07743,-2.0755 -3.5784,-2.9343 1.07351,0.5009 2.07546,1.0019 2.43331,1.2166 -1.1451,-1.0735 -2.79115,-2.2901 -3.22056,-2.5764 1.71762,0.5725 3.00585,1.4313 3.43526,1.5745 -0.93039,-1.002 -1.7892,-2.0039 -2.07546,-2.1471 1.14507,0.501 2.79115,2.0755 2.79115,2.0755 -0.71569,-0.8588 -1.43138,-1.8608 -1.1451,-1.9323 z"
       id="path2834-4-0"
       style="fill:#000000;fill-rule:evenodd;stroke:none" />
    <path
       d="m 250.10744,291.5436 c 1.14509,0.6441 5.72541,1.6461 6.29796,1.7176 0.57254,0.072 0.0716,-0.072 -0.35785,-0.3578 -0.4294,-0.2863 0.0716,-0.8588 0.71569,-0.4294 0.64411,0.4294 1.00195,0.1431 0.78725,-0.072 -0.2147,-0.2147 -0.0716,-0.3578 0.4294,0 0.50099,0.3579 0.78725,0.5726 1.43136,0.7873 0.6441,0.2147 0.2147,0.5725 -0.0716,0.501 -0.28629,-0.072 -1.1451,-0.501 -1.5745,-0.8589 0.2147,0.501 0.93039,1.2167 1.14509,1.2883 -0.85883,-0.2147 -1.50293,-0.8589 -2.0039,-1.1451 0.14312,0.2862 0.71567,0.8588 0.93037,1.0019 -2.29016,0.2147 -4.79505,-0.7157 -5.43915,-1.1451 0.14314,0.2147 1.14509,1.002 1.50293,1.0736 -1.07353,-0.072 -2.36174,-0.9304 -2.71958,-1.2167 -0.0716,0.4294 0.35784,1.1451 0.78724,1.3598 -0.57254,0 -1.86075,-0.3578 -2.0039,-0.501 0.21471,0.4294 0.57255,1.1451 1.43136,1.7176 -0.42941,0.2147 -1.14507,-0.1431 -1.43136,-0.2147 0.50099,0.5726 1.28824,1.1451 1.5745,1.2883 -0.57255,-0.072 -1.14509,-0.4294 -1.43135,-0.6441 0.4294,0.5725 1.21665,1.2166 1.71761,1.5029 -1.78917,-0.7157 -3.14897,-1.9324 -3.50681,-2.8627 0.35784,0.4294 0.6441,0.3578 1.07351,0.5725 -0.50097,-0.7157 -1.28821,-0.6441 -1.71762,-1.2882 0.35785,-0.1431 0.85881,-0.072 1.21665,-0.072 -0.78724,-0.2147 -1.07353,-0.9304 -1.07353,-0.9304 0.35785,0.3579 0.42943,0.2147 0.78725,0.3579 -0.57252,-0.3579 -1.14507,-1.2167 -1.21665,-1.5745 0.71569,0.7872 1.35979,1.4313 1.7892,1.5745 -0.35785,-0.4294 -0.42941,-0.2863 -0.57255,-0.7157 0.42943,0.1431 1.21665,0.4294 1.50294,0.501 -0.85881,-0.2863 -1.00195,-0.6441 -1.3598,-1.002 0.35785,0.2147 1.5745,0.501 1.5745,0.501 l -0.2147,-0.7157 z"
       id="path2836-0-2"
       style="fill:#000000;fill-rule:evenodd;stroke:none" />
    <path
       d="m 259.41125,266.4949 c 1.64605,0.2863 4.58034,0.7872 5.72543,0.8588 1.14507,0.072 5.29602,-0.072 6.79893,0.2863 1.50294,0.3578 0.93039,0.8588 0.28628,0.7872 -0.6441,-0.072 -2.0039,-0.072 -2.648,0.1431 -0.64413,0.2148 -6.44111,0.5726 -7.08523,-0.3578 0.50098,0.5726 1.71763,0.6441 1.78919,1.2167 0.0716,0.5725 -1.07351,0.072 -1.43135,0.072 0.71569,0.3579 1.00195,0.7157 0.71569,0.9304 -0.28629,0.2147 -1.7892,0.072 -2.14704,0 -0.35785,-0.072 -2.50487,-0.7872 -2.64801,-2.7196 0.64411,1.2167 1.35979,1.7177 2.0039,1.9324 -0.28628,-0.5726 -0.4294,-0.9304 -0.4294,-0.9304 0.6441,0.5725 1.64605,0.6441 2.07546,0.5725 -1.28822,-0.3578 -2.14705,-1.2166 -2.50487,-1.646 0.85881,0.4294 1.64606,0.4294 1.93232,0.5725 -1.43135,-0.6441 -2.50486,-1.6461 -2.4333,-1.7176 z"
       id="path2838-1-8"
       style="fill:#000000;fill-rule:evenodd;stroke:none" />
    <path
       d="m 277.23164,228.1345 c 0.35785,1.4314 2.0039,4.0794 4.93817,3.8647 -0.35782,-0.7157 -0.35782,-1.3598 -0.71566,-1.7176 -0.35785,-0.3579 -1.07354,-1.2883 -1.43136,-1.7177 0,0.6441 0.71567,1.4314 0.93037,1.7177 -1.00195,-0.501 -1.28821,-1.4314 -2.07546,-1.6461 -0.78725,-0.2147 -1.35979,0.2147 -1.64606,-0.501 z"
       id="path2840-4-1"
       style="fill:#000000;fill-rule:evenodd;stroke:none" />
    <path
       d="m 282.12719,229.3361 c -1.6194,-2.0242 -2.5303,-2.0242 -3.34,-1.4169 0.20242,-1.0121 0.50605,-1.1134 1.01212,-1.0121 0.50604,0.1012 -0.30365,-0.4049 -0.91091,-0.6073 -0.60728,-0.2024 -2.12546,0.2024 -2.12546,0.8097 0,0.6072 -0.70849,0.506 -1.21456,0 -0.50605,-0.5061 -1.01211,-1.1134 0.10123,-1.2146 1.11333,-0.1012 2.83393,-0.506 3.23879,-0.2024 -0.30365,-0.7085 -0.40486,-0.4048 -0.8097,-1.1133 -0.40486,-0.7085 0.8097,0.1012 0.8097,0.1012 0,0 1.11332,1.0121 1.31574,1.5182 0.20244,0.506 0.70849,0.9109 1.21456,1.0121 0.50607,0.1012 0.70849,1.6194 0.70849,2.1254 z"
       id="path2854-4"
       style="fill:#000000;fill-rule:evenodd;stroke:none" />
    <path
       d="m 254.66827,228.1537 c 0.53254,1.8638 3.46324,3.6138 4.96898,3.4632 1.50577,-0.1506 0.60231,-1.054 0.15059,-1.3552 1.35518,0.6023 2.4092,-0.4517 0.75287,-2.108 1.95749,0.4517 1.80692,-0.6024 0.30115,-1.807 -1.50574,-1.2046 -2.25863,-0.7528 -1.05402,0.7529 -3.1621,-1.8069 -3.76439,0.6023 -2.55979,1.6564 -1.05403,-1.3552 -2.9307,-1.9006 -2.55978,-0.6023 z"
       id="path2858-4"
       style="fill:#000000;fill-rule:evenodd;stroke:none" />
  </g>
  <path
     d="m 234.76006,291.8316 c 7.71424,3.4181 39.10157,16.4423 84.25338,-5.4628 0.40986,0.5343 1.39842,4.5027 1.39842,4.5027 -17.48691,9.5101 -49.29544,22.4657 -86.44526,4.7938 0.12445,-0.9441 0.44069,-4.0723 0.79346,-3.8337 z"
     id="path2756-0"
     style="fill:#501616;fill-rule:evenodd;stroke:#000000;stroke-width:1px;stroke-linecap:butt;stroke-linejoin:miter;stroke-opacity:1" />
</svg>
