<?xml version="1.0" encoding="UTF-8" standalone="no"?>
<svg xmlns="http://www.w3.org/2000/svg" id="eyebrows_neutral" width="560" height="560">
  <g id="layer1">
    <path id="path31837" d="M269.8 135.8c.8-1 2.6-1.7 4-1.6 1.3.2 5.8 2.5 6.3 2.2.4.4 0 1.2-.3 1l-5.7-2.6c-.8-.3-2.7-.4-4.2 1z" style="fill:#ffe680;fill-opacity:1;stroke:#d4aa00;stroke-width:0.25;stroke-miterlimit:4;stroke-opacity:1;stroke-dasharray:none;display:inline;enable-background:new"/>
    <path id="path31839" d="M295.3 135.5c-.8-1-2.7-1.7-4-1.5-1.3 0-5.8 2.5-6.4 2-.4.5 0 1.3.3 1 .5 0 5-2 5.8-2.5.7-.3 2.6-.4 4 1z" style="fill:#ffe680;fill-opacity:1;stroke:#d4aa00;stroke-width:0.25;stroke-miterlimit:4;stroke-opacity:1;stroke-dasharray:none;display:inline;enable-background:new"/>
  </g>
</svg>
