<?xml version="1.0" encoding="UTF-8" standalone="no"?>
<svg xmlns="http://www.w3.org/2000/svg" id="eyes_neutral" width="560" height="560">
  <g id="g5662099" style="display:none;enable-background:new">
    <g id="g5523199" style="display:inline;enable-background:new">
      <path id="path5523399" d="M267 137.3l-1-1.7c-.5-1-2-3.2-2.5-2.4-.4.7 0 1.8 0 2.6-.2.8 0 2 .2 3.3.8 3.8 1.5 5 2.4 6.4 1 1.4 2.3 2 3 1" style="fill:#ffd5d5;stroke:#de8787;stroke-width:0.5;stroke-linecap:round;stroke-linejoin:round;stroke-miterlimit:4;stroke-opacity:1;stroke-dasharray:none"/>
      <path id="path5523599" d="M266.7 140c0 .8 0 1-.3 1-.2.4 0 1.5.2 1.8.3.4.2 1.2 0 1.2 0 0-.3 0-.3-.6 0-.8-1-.6-1.6-2.7-.3-1.7 0-2 .2-2s0-1.3-.3-1.6c0-.2-.4-.5-.6-.6v1.2c0 .4-.2 3.2.8 4.7 1 1.4 1.7 2.7 1.5 2.7-.2 0-1.5-2.2-2-3.4-.4-1.3-.8-3.2-1-4.5 0-1 .2-1.3.5-1.2.3 0 1 1.2 1.4 2 .3 1 .6 1 1 1.2.2 0 .4.4.3 1z" style="fill:#e9afaf;stroke:none"/>
    </g>
    <g id="g5523799" style="display:inline;enable-background:new">
      <path id="path5523999" d="M298 136.3l1.7-2.4c.5-.8 1-2 1.8-1.6.5.5 0 2 0 2.7.2.8.2 1.8 0 3-.6 3.6-1.3 4.7-2 6.2-1 1.5-2 2-2.8 1" style="fill:#ffd5d5;stroke:#de8787;stroke-width:0.5;stroke-linecap:round;stroke-linejoin:round;stroke-miterlimit:4;stroke-opacity:1;stroke-dasharray:none;stroke-dashoffset:0"/>
      <path id="path5524199" d="M298.5 139.2c0 .7.2.8.4 1 0 .2 0 1.3-.3 1.7-.3.2-.2 1 0 1 0 0 .3 0 .3-.7s1.2-.6 1.5-2.7c.3-1.7 0-2-.3-2-.2 0 0-1.3 0-1.6l.7-.7v1c0 .5.2 3.3-.7 4.8-1 1.7-1.7 3-1.4 3 0 0 1.3-2 1.7-3.4.4-1.2.7-3 .7-4.4 0-1.2-.2-1.5-.5-1.3-.3 0-1 1-1.3 2-.3 1-.7 1-1 1.2-.2 0-.4.5-.3 1.2z" style="fill:#e9afaf;stroke:none"/>
    </g>
  </g>
  <path id="path3010-31" d="M277.6 138.5l-.4.5h.3l-.3.2h.3v.3c0 .2.2.2.3.2v.2h.4-.2s.2.3.2 0c0 .3-.2 0-.3 0h-.3l-.4-.5-.7-.8-.7-.4H274c-.3 0-.7.2-1 .5-1 1-2 .8-2 .8s1-.2 1.4-.5c-.4.3-.7.3-1 .3.4 0 .8-.2 1-.3-.4 0-.8 0-1-.3h.8l-.8-.2c.5.2 1 0 1 0h-1c.8 0 1.2-.2 1.4-.3h-.7c.6 0 1-.2 1.3 0l-.5-1c0 .3.5.6.7.6l-.3-.5.4.6-.3-1c.2.4.3 1 .5 1l-.3-1c0 .4 0 .5.2.6v-.3.4-.6.8l.4-.5v.5l.2-.8v.4s0 .3.2.4v-.5c0 .3 0 .7.4.8v-.4s0 .5.2.6v-.3s0 .4.2.5v-.4s0 .3.2.4v-.6c0 .3 0 .6.2.7l.2-.3v.7l.3-.5-.3.5c.2 0 .4 0 1-.5l-.7.7c.2 0 .5-.3.6-.5z" style="color:#000000;fill:#000000;stroke:none;marker:none;visibility:visible;display:inline;overflow:visible;enable-background:accumulate"/>
  <path id="path3010-31-7" d="M287.4 138.2l.4.5h-.3v.2h-.4.5-.2v.5h-.2v.2c0 .2 0 .2-.2.2h.3s0-.4.3-.5l.3-.4s.4-.4.8-.6l.7-.4h1.7c.2 0 .7.2 1 .5 1 1 2 1 2 1s-1-.2-1.4-.6h1c-.4 0-.8 0-1-.3.4 0 .8 0 1-.2h-.8c.2 0 .7 0 .8-.2-.6.2-1 .2-1.2 0h1.4c-1 0-1.3-.2-1.5-.2h.7c-.6 0-1.2-.2-1.4 0 .3 0 .5-.6.6-1 0 .3-.6.6-.7.6l.3-.6-.5.7.4-.8c-.2 0-.4.6-.6.7l.3-.8s0 0 0 .2v-.3s0 .3-.3.4v-.6.5c-.2 0-.3-.2-.3-.4v.5l-.2-.8v.3l-.2.4v-.5s-.2.5-.4.6v-.6c0 .2 0 .6-.2.7v-.4s0 .5-.2.7v-.5s0 .3-.2.5v-.7c0 .3 0 .7-.2.8 0 .3-.2 0-.2 0v.4l-.3-.4.3.4c-.3 0-.5 0-1-.5l.7.5c-.2 0-.5-.3-.6-.4z" style="color:#000000;fill:#000000;stroke:none;marker:none;visibility:visible;display:inline;overflow:visible;enable-background:accumulate"/>
</svg>
