<?xml version="1.0" encoding="UTF-8" standalone="no"?>
<svg xmlns="http://www.w3.org/2000/svg" id="face_neutral" width="560" height="560">
  <path id="path27798" d="M272.8 139.4c1.3 1.5 3.8 1.6 5.6.3-1.3-1-3-2-5.6-.3z" style="fill:#f2f2f2;stroke:#de8787;stroke-width:0.15186366px;stroke-linecap:butt;stroke-linejoin:miter;stroke-opacity:1;display:inline;enable-background:new"/>
  <path id="path27800" d="M292.2 138.8c-1 1.5-3.5 2-5.4.6 1-1 3-2 5.4-.6z" style="fill:#f2f2f2;stroke:#de8787;stroke-width:0.15186366px;stroke-linecap:butt;stroke-linejoin:miter;stroke-opacity:1;display:inline;enable-background:new"/>
  <path id="path77420" d="M278 139.3c-1.4-1-2.3-1-2.6-1H274l.4.2c-.4 0-1 0-1-.2 0 .3.3.4.3.4-.3 0-1 0-1-.2 0 .4.2.5.4.5-.2 0-.8 0-1.2-.2.5.7 1 1 1.5.6.5-.2 2.4-1.6 4.6 0z" style="color:#000000;fill:#000000;stroke:none;stroke-width:0.5;marker:none;visibility:visible;display:inline;overflow:visible;enable-background:accumulate"/>
  <path id="path77420-9" d="M287.3 139c1.2-1 2-1 2.5-1h1.2s0 .2-.2.2c.3 0 .8 0 1-.2 0 .3-.3.4-.4.4.4.2 1 0 1-.2 0 .4-.2.5-.4.5.3 0 1 0 1.3-.2-.4.7-1 1-1.4.7-.6-.3-2.5-1.7-4.7-.2z" style="color:#000000;fill:#000000;stroke:none;stroke-width:0.5;marker:none;visibility:visible;display:inline;overflow:visible;enable-background:accumulate"/>
</svg>
