<?xml version="1.0" encoding="UTF-8" standalone="no"?>
<!-- Created with Inkscape (http://www.inkscape.org/) -->

<svg
   xmlns:dc="http://purl.org/dc/elements/1.1/"
   xmlns:cc="http://creativecommons.org/ns#"
   xmlns:rdf="http://www.w3.org/1999/02/22-rdf-syntax-ns#"
   xmlns:svg="http://www.w3.org/2000/svg"
   xmlns="http://www.w3.org/2000/svg"
   version="1.1"
   width="560"
   height="560"
   id="glasses_hipster">
  <g
     transform="translate(0,-492.36218)"
     id="layer1">
    <path
       d="m 292.82876,639.36561 c 1.94724,-0.29987 1.90128,-0.27381 3.1871,-1.80775 0.49579,-0.59146 1.59086,-2.8952 1.83935,-3.86951 0.11191,-0.43882 0.26179,-0.91334 0.33306,-1.05447 0.19312,-0.38242 0.89604,-1.0905 1.08248,-1.0904 0.25347,1.3e-4 0.39432,-0.37403 0.49513,-1.31531 0.0852,-0.79551 0.073,-0.86629 -0.14893,-0.86641 -0.13294,-6e-5 -1.30918,-0.0946 -2.61386,-0.21001 -4.65579,-0.41194 -8.79353,-0.25153 -12.21904,0.47369 -1.01065,0.21397 -1.33026,0.23673 -1.68368,0.11989 -0.30455,-0.1007 -0.60816,-0.10579 -1.00588,-0.0169 -0.43591,0.0975 -0.7186,0.0818 -1.20414,-0.0666 -1.40772,-0.43037 -4.58163,-0.83413 -7.17983,-0.91333 -2.19447,-0.0669 -7.64875,0.1241 -7.89559,0.27649 -0.0408,0.0252 -0.021,0.50514 0.0441,1.06656 l 0.11835,1.02075 0.52666,0.23946 c 0.62994,0.28641 1.04113,0.94644 1.16267,1.86623 0.15149,1.14642 0.94189,3.07362 1.94508,4.74254 0.40211,0.66898 0.48668,0.7359 1.17243,0.92784 1.69261,0.47375 4.35305,0.56432 6.21768,0.21168 0.83041,-0.15703 1.46545,-0.73355 2.46771,-2.24028 0.77372,-1.16313 1.06182,-1.70137 1.53992,-2.87678 0.40144,-0.98696 0.61036,-1.23711 1.19377,-1.42932 1.01061,-0.33296 1.80769,0.17068 2.15287,1.36035 0.38609,1.33063 1.59847,3.53868 2.52363,4.59614 0.34426,0.39349 0.58399,0.52792 1.20018,0.67299 0.98062,0.23089 3.74465,0.3371 4.74873,0.18247 z m -4.05799,-1.14055 c -0.71574,-0.27395 -1.98404,-1.38992 -2.38008,-2.09423 -0.36139,-0.64267 -0.68249,-1.95346 -0.68068,-2.77885 0.005,-2.27901 0.45974,-2.73683 3.20889,-3.23 1.85329,-0.33246 5.13463,-0.0485 6.45966,0.55887 1.18295,0.54232 1.51757,1.31207 1.24607,2.86645 -0.29157,1.66927 -1.53841,3.73489 -2.66582,4.41642 -1.1105,0.67132 -3.76726,0.80515 -5.18804,0.26134 z m -16.69723,-0.14722 c -1.79092,-0.6711 -3.18119,-2.95842 -3.1774,-5.22755 0.003,-1.88118 0.84565,-2.50911 3.85115,-2.8703 1.4238,-0.17111 3.05652,-0.0787 4.74823,0.26882 1.81444,0.37271 2.22326,0.87736 2.23645,2.76068 0.01,1.37972 -0.26299,2.33354 -0.94293,3.29875 -1.02972,1.46172 -2.26754,2.00471 -4.59729,2.01669 -1.1346,0.005 -1.58278,-0.0465 -2.11821,-0.24709 z"
       id="path3046-6-1"
       style="fill:#000000;display:inline;enable-background:new" />
  </g>
</svg>
