<?xml version="1.0" encoding="UTF-8" standalone="no"?>
<!-- Created with Inkscape (http://www.inkscape.org/) -->

<svg
   xmlns:dc="http://purl.org/dc/elements/1.1/"
   xmlns:cc="http://creativecommons.org/ns#"
   xmlns:rdf="http://www.w3.org/1999/02/22-rdf-syntax-ns#"
   xmlns:svg="http://www.w3.org/2000/svg"
   xmlns="http://www.w3.org/2000/svg"
   version="1.1"
   width="560"
   height="560"
   id="glasses_oakley">
  <g
     transform="translate(0,-492.36218)"
     id="layer1">
    <g
       transform="matrix(0.09257731,0,0,0.09257731,264.51769,617.32015)"
       id="g302839"
       style="display:inline;enable-background:new">
      <path
         d="m 47.481022,144.46271 c -0.195541,4.49743 -1.791737,6.71901 -6.271078,4.03141 -4.479342,-2.68761 -8.958684,-8.06282 -10.302486,-9.85455 -1.343803,-1.79174 -7.614881,-10.75042 -11.198355,-14.78183 -3.583473,-4.03141 -1.343802,-6.27108 2.239671,-8.95868 3.583474,-2.68761 31.803326,-13.88596 57.335574,-13.88596 25.532252,0 80.180212,17.46943 120.046362,17.46943 39.86614,0 90.93063,-13.43803 113.32734,-13.88596 22.39671,-0.44793 52.4083,8.51075 55.54384,9.40662 3.13554,0.89587 11.64629,5.37521 13.88596,7.61488 2.23967,2.23967 2.6876,4.92727 0.44793,8.06281 -2.23967,3.13554 -20.60497,21.50084 -24.63638,24.63638 -4.03141,3.13554 -4.03141,0 -4.47934,-2.23967 -0.44793,-2.23967 0,-8.51075 -0.89587,-11.19835 -0.89587,-2.68761 -4.03141,-12.09422 -5.82314,-12.54216 -1.79174,-0.44793 -4.47934,-5.82314 -17.91737,-5.37521 -13.43803,0.44794 -119.15049,8.06282 -128.10917,8.06282 -8.95869,0 -126.765372,-13.43803 -134.828187,-12.54216 -8.062815,0.89587 -12.094223,4.92728 -14.781828,10.75042 -2.687605,5.82314 -3.330532,9.41212 -3.583473,15.22976 z"
         id="path302741"
         style="color:#000000;fill:#333333;stroke:#000000;stroke-width:2.70044541;stroke-linecap:butt;stroke-linejoin:miter;stroke-miterlimit:4;stroke-opacity:1;stroke-dasharray:none;stroke-dashoffset:0;marker:none;visibility:visible;display:inline;overflow:visible;enable-background:accumulate" />
      <path
         d="m 48.37689,130.57675 c -2.239671,9.85455 -4.479341,22.39671 -5.823144,30.90746 -1.343802,8.51075 0,15.22976 8.958683,22.84464 8.958684,7.61488 48.376891,32.25126 67.190121,34.93887 18.81324,2.6876 42.10582,0.44793 43.44962,-2.68761 1.3438,-3.13554 21.94877,-47.48102 36.28267,-46.58515 14.33389,0.89587 33.14713,46.13722 35.83473,48.37689 2.68761,2.23967 36.28267,5.37521 46.13722,3.58347 9.85455,-1.79173 42.55375,-15.67769 54.20003,-23.29257 11.64629,-7.61488 14.78183,-12.09423 17.91737,-14.3339 3.13554,-2.23967 4.03141,-11.64629 3.58347,-15.67769 -0.44793,-4.03141 -2.23967,-25.08432 -2.23967,-31.35539 0,-6.27108 -5.82314,-16.57357 -24.18844,-16.57357 -18.3653,0 -111.98354,8.06282 -130.79678,8.06282 -18.81323,0 -127.213303,-13.43803 -131.24471,-12.9901 -4.031408,0.44794 -13.438026,-0.89586 -19.26117,14.78183 z"
         id="path302743"
         style="color:#000000;fill:#000000;fill-opacity:0.78313258;stroke:#000000;stroke-width:2.70044541;stroke-linecap:butt;stroke-linejoin:miter;stroke-miterlimit:4;stroke-opacity:1;stroke-dasharray:none;stroke-dashoffset:0;marker:none;visibility:visible;display:inline;overflow:visible;enable-background:accumulate" />
      <path
         d="m 157.22489,216.13218 c -2.23967,-0.89587 -1.79173,-3.13554 -1.3438,-6.27108 0.44793,-3.13554 16.12563,-35.83473 18.81324,-37.17854 2.6876,-1.3438 3.13554,-4.0314 4.92727,-6.71901 1.79174,-2.6876 8.51075,-14.78183 19.70911,-14.78183 11.19835,0 17.46943,10.30249 18.3653,12.9901 0.89586,2.6876 20.15703,40.31407 21.50084,44.79341 1.3438,4.47934 2.23967,7.61488 -0.44794,8.51075 -2.6876,0.89587 -2.6876,1.3438 -4.92727,2.23967 -2.23967,0.89587 -3.58348,-1.3438 -4.92728,-3.58347 -1.3438,-2.23967 -8.51075,-19.26117 -10.30249,-21.94878 -1.79173,-2.6876 -12.09422,-21.94877 -21.0529,-21.0529 -8.95868,0.89587 -13.88596,10.30248 -15.6777,14.78183 -1.79173,4.47934 -14.33389,23.29257 -15.67769,27.32398 -1.34381,4.03141 -3.13554,3.58347 -4.92728,3.13554 -1.79174,-0.44793 -4.03141,-2.23967 -4.03141,-2.23967 z"
         id="path302745"
         style="color:#000000;fill:#333333;stroke:#000000;stroke-width:2.70044541;stroke-linecap:butt;stroke-linejoin:miter;stroke-miterlimit:4;stroke-opacity:1;stroke-dasharray:none;stroke-dashoffset:0;marker:none;visibility:visible;display:inline;overflow:visible;enable-background:accumulate" />
      <path
         d="m 53.211864,112.44174 c -10.45233,-0.31674 -22.488347,-0.95021 -30.406779,3.80084 -7.918432,4.75106 -2.217161,6.96822 3.167373,13.30297 5.384534,6.33475 4.434322,8.55191 9.818856,12.66949 -2.850636,-4.11758 -4.434322,-8.5519 -5.384534,-10.45233 3.167373,3.48411 4.117584,4.11759 6.018008,5.38454 1.900424,1.26694 2.850636,-0.95022 3.800848,-2.5339 0.950212,-1.58369 3.167373,-6.01801 4.117584,-8.86865 0.950212,-2.85063 -1.583686,-4.43432 -3.48411,-5.38453 -1.900424,-0.95021 -4.117585,0.31674 -5.701271,0.63347 5.701271,0.63348 8.23517,2.5339 6.96822,5.0678 -1.266949,2.5339 -1.266949,4.43432 -3.48411,6.01801 -2.217161,1.58369 -3.800847,-1.26695 -3.800847,-1.26695 l -2.217161,-4.11758 -4.434322,-3.48412 c 0,0 -1.583687,-1.26694 -0.316738,-3.16737 1.26695,-1.90042 4.434322,-1.58368 4.434322,0.31674 0,1.90042 -0.316737,3.48411 -1.583686,3.80085 2.533898,2.85063 3.48411,-0.95022 3.48411,-3.80085 0,-2.85064 1.900424,-3.48411 3.167373,-3.48411 1.266949,0 3.167373,0.31674 3.800848,1.90042 0.633474,-0.95021 -0.3863,-2.6683 0.633474,-3.48411 0.791843,-0.63347 0.316737,-2.21716 11.402542,-2.85063 z"
         id="path302771"
         style="color:#000000;fill:#1a1a1a;stroke:none;stroke-width:5.53606796;marker:none;visibility:visible;display:inline;overflow:visible;enable-background:accumulate" />
      <path
         d="m 349.31429,116.18528 c 10.44484,0.50686 22.49338,0.82261 30.01333,6.18212 7.51995,5.35952 1.66187,7.1211 -4.20452,13.01243 -5.86639,5.89133 -5.09362,8.17639 -10.78551,11.85743 3.16585,-3.88046 5.09362,-8.17638 6.19045,-9.99614 -3.43176,3.22403 -4.42887,3.78076 -6.42312,4.89421 -1.99424,1.11344 -2.767,-1.17162 -3.58963,-2.82517 -0.82263,-1.65356 -2.68392,-6.24862 -3.40684,-9.16521 -0.72291,-2.91657 1.92777,-4.29592 3.89708,-5.09362 1.96932,-0.79769 4.07989,0.63982 5.63373,1.08021 -5.73344,0.18281 -8.40905,1.87791 -7.34545,4.50367 1.0636,2.62575 0.91403,4.52027 2.99967,6.27355 2.08565,1.75327 3.88877,-0.96389 3.88877,-0.96389 l 2.53435,-3.93031 4.69477,-3.12433 c 0,0 1.67849,-1.13837 0.56504,-3.13261 -1.11346,-1.99424 -4.29593,-1.92776 -4.4455,-0.0332 -0.14956,1.89453 0.0416,3.49824 1.27965,3.91371 -2.75039,2.64236 -3.39852,-1.22148 -3.17417,-4.06327 0.22435,-2.8418 -1.62033,-3.62287 -2.88335,-3.72258 -1.26302,-0.0997 -3.18247,0.0665 -3.93863,1.59539 -0.55672,-0.99712 0.59511,-2.62962 -0.3573,-3.52316 -0.73952,-0.69383 -0.14126,-2.23521 -11.14282,-3.73919 z"
         id="path302771-0"
         style="color:#000000;fill:#1a1a1a;stroke:none;stroke-width:5.53606796;marker:none;visibility:visible;display:inline;overflow:visible;enable-background:accumulate" />
      <path
         d="m 68.070633,112.5621 c 10.966935,1.89085 38.195187,3.02536 66.557947,13.23596 28.36277,10.21059 102.10595,6.80706 126.30885,1.89085 24.20289,-4.91622 34.03531,-10.2106 55.96918,-9.83243 -44.24591,2.64719 -99.08058,7.18524 -119.1236,7.18524 -39.3297,0 -74.8777,-14.37047 -129.712377,-12.47962 z"
         clip-path="url(#clipPath302811-9)"
         id="path302791"
         style="color:#000000;fill:#1a1a1a;stroke:none;stroke-width:5.53606796;marker:none;visibility:visible;display:inline;overflow:visible;enable-background:accumulate" />
      <path
         d="m 156.18429,215.80256 c 3.02536,1.51268 4.53804,-1.51268 5.29438,-3.02536 0.75634,-1.51268 17.39583,-37.06068 18.90851,-38.95153 1.51268,-1.89085 4.53804,-8.31974 21.17753,-9.45425 -10.96694,-1.13452 -20.04302,3.02536 -23.82472,10.58876 -3.78171,7.5634 -13.9923,26.09374 -13.9923,26.09374 l 12.10144,-24.58106 -4.15987,5.67255 c 0.75634,-4.15987 0.37817,-5.67255 4.53805,-12.47961 4.15987,-6.80707 10.58876,-19.66485 23.06838,-20.42119 12.47961,-0.75634 23.06838,21.5557 24.20289,24.58106 1.13451,3.02536 -0.37817,3.40353 -3.02536,1.51268 2.64719,4.91621 6.42889,16.63949 6.42889,16.63949 -4.53804,-9.07609 -5.29438,-19.28668 -18.90851,-25.3374 7.18523,9.45425 9.83243,12.47961 13.23596,19.66485 3.40353,7.18523 12.85778,27.22825 13.61412,29.1191 0.75634,1.89085 3.02536,3.02536 4.91622,2.26902 -3.78171,3.7817 -53.70017,24.20289 -83.57561,-1.89085 z"
         clip-path="url(#clipPath302835-4)"
         id="path302815"
         style="color:#000000;fill:#1a1a1a;stroke:none;stroke-width:5.53606796;marker:none;visibility:visible;display:inline;overflow:visible;enable-background:accumulate" />
    </g>
  </g>
</svg>
