<?xml version="1.0" encoding="UTF-8" standalone="no"?>
<!-- Created with Inkscape (http://www.inkscape.org/) -->

<svg
   xmlns:dc="http://purl.org/dc/elements/1.1/"
   xmlns:cc="http://creativecommons.org/ns#"
   xmlns:rdf="http://www.w3.org/1999/02/22-rdf-syntax-ns#"
   xmlns:svg="http://www.w3.org/2000/svg"
   xmlns="http://www.w3.org/2000/svg"
   version="1.1"
   width="560"
   height="560"
   id="glasses_goggles">
  <g
     transform="translate(-245.5625,-1)"
     id="g68091"
     style="display:inline;enable-background:new">
    <path
       d="m 528.0859,139.35067 c -0.0664,0.004 -1.72962,0.11073 -2.30678,0.48149 0,0 0.59388,0.96414 0.72418,1.95734 0.50647,-0.43301 1.09892,-0.60566 1.69739,-0.64395 0.59851,-0.0383 1.20824,0.0575 1.7657,0.42243 0.004,-1.0017 0.46888,-2.03364 0.46888,-2.03364 -0.61967,-0.29421 -2.28283,-0.18793 -2.34937,-0.18367 z"
       id="path15969"
       style="fill:#4d4d4d;fill-rule:evenodd;stroke:#1a1a1a;stroke-width:0.25;stroke-linecap:butt;stroke-linejoin:miter;stroke-miterlimit:4;stroke-opacity:1;stroke-dasharray:none" />
    <path
       d="m 534.04949,137.18382 c -3.81462,1.57515 -2.12235,5.10578 -2.12235,5.10578 0.65404,1.58391 3.4526,4.07702 6.94193,2.63619 3.11926,-1.28803 2.6597,-4.22553 2.23048,-5.26498 -1.24852,-3.02361 -5.76248,-3.00867 -7.05006,-2.47699 z"
       id="path15975"
       style="opacity:0.2;fill:#ffff00;fill-rule:evenodd;stroke:#000000;stroke-width:0.37661076px;stroke-linecap:butt;stroke-linejoin:miter;stroke-opacity:1" />
    <path
       d="m 537.79805,137.09579 c -1.28274,1.25473 -2.61103,3.35388 -4.25908,7.1379 0.78779,0.59462 1.80323,1.05348 2.96732,1.11547 0.87465,-2.31419 2.47547,-5.13882 3.80295,-7.0668 -0.99839,-0.4976 -1.52073,-1.17882 -2.51119,-1.18657 z"
       id="path15977"
       style="opacity:0.2;fill:#ffffff;fill-opacity:1;fill-rule:evenodd;stroke:none" />
    <path
       d="m 543.48472,140.68035 c -1.25912,-1.69698 -0.3119,-1.19602 -0.78877,-2.41881 0.41774,-0.5959 0.99471,-2.41546 1.79917,-3.35327 -0.41627,1.4628 -0.46326,5.07714 -1.0104,5.77208 z"
       id="path15985"
       style="fill:#4d4d4d;fill-rule:evenodd;stroke:#1a1a1a;stroke-width:0.24999999;stroke-linecap:butt;stroke-linejoin:miter;stroke-miterlimit:4;stroke-opacity:1;stroke-dasharray:none" />
    <path
       d="m 532.53706,136.34937 c -2.22232,0.98933 -3.22858,3.3176 -2.09727,7.35672 1.44248,2.25897 5.73353,4.60622 10.36752,1.75221 2.29559,-1.41382 1.8839,-3.75417 2.77628,-3.89251 0.43553,-0.17984 0.71141,-0.2867 0.71141,-0.2867 0.72149,-1.21547 0.14626,-3.27849 -0.10549,-3.88818 -1.10468,-0.56464 -2.22346,0.34189 -3.79298,-0.74314 -0.95641,-0.66122 -4.87439,-1.64904 -7.85946,-0.29838 z m 1.51264,0.83431 c 1.28756,-0.53166 5.79988,-0.54863 7.0484,2.47498 0.42922,1.03945 0.88882,3.98255 -2.23045,5.27058 -3.48932,1.44083 -6.2852,-1.05633 -6.93924,-2.64024 0,0 -1.69336,-3.53015 2.12129,-5.10532 z"
       id="path15979"
       style="fill:#4d4d4d;fill-rule:evenodd;stroke:#1a1a1a;stroke-width:0.24999999;stroke-miterlimit:4;stroke-dasharray:none" />
    <path
       d="m 299,138.875 c -0.16621,0.79961 -0.90343,1.45731 -1.21875,0.40625 0,1.44095 -0.38911,2.10659 -1.21875,2.28125 -2.57624,6.46243 -8.19562,3.62373 -9.15625,2.96875 0.22924,0.34387 0.52716,1.29151 -0.71875,0.9375 2.04424,1.38353 5.20215,2.06959 8.5625,0 2.29559,-1.41382 1.88887,-3.76791 2.78125,-3.90625 0.43553,-0.17984 0.6875,-0.28125 0.6875,-0.28125 0.39988,-0.67367 0.40219,-1.60361 0.28125,-2.40625 z"
       transform="translate(245.5625,0)"
       id="path67995"
       style="color:#000000;fill:#333333;stroke:none;marker:none;visibility:visible;display:inline;overflow:visible;enable-background:accumulate" />
    <path
       d="m 533.45607,136.27274 c -4.74502,1.95934 -2.64083,6.35573 -2.64083,6.35573 0.8138,1.97082 4.62884,4.57863 8.50887,2.97647 3.8801,-1.6022 3.43738,-4.95328 2.90332,-6.24663 -1.55319,-3.76143 -7.16972,-3.74692 -8.77136,-3.08557 z m 0.59363,0.91094 c 1.28756,-0.53166 5.79988,-0.54863 7.0484,2.47498 0.42922,1.03945 0.88882,3.98255 -2.23045,5.27058 -3.48932,1.44083 -6.2852,-1.05633 -6.93924,-2.64024 0,0 -1.69336,-3.53015 2.12129,-5.10532 z"
       id="path15981"
       style="fill:#4d4d4d;fill-opacity:1;fill-rule:evenodd;stroke:#1a1a1a;stroke-width:0.12499999;stroke-miterlimit:4;stroke-dasharray:none" />
    <path
       d="m 523.19006,137.54687 c 3.57463,2.06263 1.43321,5.34034 1.43321,5.34034 -0.85645,1.48427 -3.95828,3.58813 -7.22809,1.70138 -2.92302,-1.68664 -2.08153,-4.53831 -1.51949,-5.51236 1.63493,-2.83339 6.10779,-2.22557 7.31437,-1.52936 z"
       id="path15991"
       style="opacity:0.2;fill:#ffff00;fill-rule:evenodd;stroke:#000000;stroke-width:0.37661076px;stroke-linecap:butt;stroke-linejoin:miter;stroke-opacity:1" />
    <path
       d="m 522.49982,137.02165 c -1.96387,0.86979 -3.97111,4.5117 -6.4731,6.42518 7.5e-4,1.12821 1.26361,0.96348 2.87507,1.89332 0.0155,0.009 0.0305,0.0178 0.046,0.0266 0.79097,-0.58018 3.51129,-5.26986 5.7669,-6.60875 -0.0671,-0.82148 -1.16014,-0.955 -2.2149,-1.73631 z"
       id="path15993"
       style="opacity:0.2;fill:#ffffff;fill-opacity:1;fill-rule:evenodd;stroke:none" />
    <path
       d="m 513.62133,139.40676 c 0,0 -0.22342,1.95914 -0.36557,2.39101 -1.95677,-1.14929 -1.05612,-4.55541 -1.7313,-5.98168 -0.30874,-0.247 -0.14518,-0.93186 -0.0935,-1.27175 1.05795,1.46058 0.8934,4.56756 2.1904,4.86242 z"
       id="path15995"
       style="fill:#4d4d4d;fill-rule:evenodd;stroke:#1a1a1a;stroke-width:0.25;stroke-linecap:butt;stroke-linejoin:miter;stroke-miterlimit:4;stroke-opacity:1;stroke-dasharray:none" />
    <path
       d="m 523.84005,136.29644 c -2.79651,-1.17414 -6.49299,-0.46444 -7.4218,0.0111 -1.69845,0.86947 -2.20944,0.1758 -4.22579,1.75981 -0.32968,0.57133 -0.29233,2.54988 0.26321,3.84959 0,0 0.48867,0.2851 0.8968,0.52059 0.60058,0.52889 0.85385,1.50168 1.90738,2.49923 3.898,3.69092 9.53027,0.98059 11.257,-1.0693 1.46271,-3.98716 -0.35963,-6.59811 -2.6768,-7.57099 z m -0.91412,1.12299 c 0.0994,0.0421 0.18758,0.081 0.26303,0.12446 3.57462,2.06262 1.43249,5.3409 1.43249,5.3409 -0.85643,1.48428 -3.95679,3.58866 -7.22658,1.70192 -2.92302,-1.68664 -2.08173,-4.53385 -1.51968,-5.50789 1.53276,-2.6563 5.55916,-2.28944 7.05074,-1.65939 z"
       id="path15997"
       style="fill:#4d4d4d;fill-rule:evenodd;stroke:#1a1a1a;stroke-width:0.25;stroke-miterlimit:4;stroke-dasharray:none" />
    <path
       d="m 266.4375,139.34375 c -0.004,0.81362 0.13895,1.79092 0.46875,2.5625 0,0 0.46687,0.29576 0.875,0.53125 0.60058,0.52888 0.85273,1.50245 1.90625,2.5 2.96258,2.80519 6.91609,1.89605 9.40625,0.40625 -0.0581,-0.43261 0.32193,-1.5033 0.40625,-1.8125 0,0 -1.13052,1.65067 -3.96875,2 -5.51774,0.67912 -6.45718,-3.89426 -6.9375,-4.15625 -0.48032,-0.26199 -0.9812,-0.16521 -0.9375,-1.5625 -0.15108,0.60432 -0.92832,0.25665 -1.21875,-0.46875 z"
       transform="translate(245.5625,0)"
       id="path67995-1"
       style="color:#000000;fill:#333333;stroke:none;marker:none;visibility:visible;display:inline;overflow:visible;enable-background:accumulate" />
    <path
       d="m 523.57139,136.56737 c -1.85544,-0.78359 -6.86334,-1.24264 -8.77004,2.06187 -0.69939,1.21197 -1.58612,4.47307 2.04981,6.57108 3.63593,2.09801 7.76334,0.0147 8.82895,-1.83219 0,0 2.66618,-4.07531 -1.78032,-6.64102 -0.0938,-0.0542 -0.20471,-0.10751 -0.3284,-0.15974 z m -0.64546,0.85206 c 0.0994,0.0421 0.18758,0.081 0.26303,0.12446 3.57462,2.06262 1.43249,5.3409 1.43249,5.3409 -0.85643,1.48428 -3.95679,3.58866 -7.22658,1.70192 -2.92302,-1.68664 -2.08173,-4.53385 -1.51968,-5.50789 1.53276,-2.6563 5.55916,-2.28944 7.05074,-1.65938 z"
       id="path15999"
       style="fill:#4d4d4d;fill-opacity:1;fill-rule:evenodd;stroke:#1a1a1a;stroke-width:0.125;stroke-miterlimit:4;stroke-dasharray:none" />
  </g>
</svg>
