<?xml version="1.0" encoding="UTF-8" standalone="no"?>
<svg xmlns="http://www.w3.org/2000/svg" id="glasses_oakley" width="560" height="560">
  <g id="layer1">
    <g id="g302839" style="display:inline;enable-background:new">
      <path id="path302741" d="M269 138.4c0 .4-.2.6-.6.4-.5-.3-1-.8-1-1l-1-1.3c-.4-.4-.2-.6.2-1 .3 0 3-1 5.3-1s7.3 1.5 11 1.5c3.8 0 8.5-1.3 10.6-1.3 2 0 5 .8 5.2 1 .3 0 1 .4 1.3.6.3.2.3.4 0 .7 0 .3-1.8 2-2.2 2.3-.4.3-.4 0-.4-.2v-1l-.6-1c-.2 0-.5-.6-1.7-.6l-11.8.7-12.6-1c-.7 0-1 .4-1.3 1-.3.5-.3 1-.4 1.4z" style="color:#000000;fill:#333333;stroke:#000000;stroke-width:2.70044541;stroke-linecap:butt;stroke-linejoin:miter;stroke-miterlimit:4;stroke-opacity:1;stroke-dasharray:none;stroke-dashoffset:0;marker:none;visibility:visible;display:inline;overflow:visible;enable-background:accumulate"/>
      <path id="path302743" d="M269 137l-.5 3c0 .8 0 1.4.8 2 .8.8 4.5 3 6.3 3.3 1.7.3 4 0 4-.2s2-4.3 3.4-4.2c1.3 0 3 4.3 3.3 4.5.3.2 3.4.5 4.3.3 1-.2 4-1.5 5-2.2l1.7-1.3c.3 0 .4-1 .3-1.4l-.2-3c0-.5-.5-1.4-2.2-1.4-1.7 0-10.4.7-12.2.7-1.7 0-11.8-1.3-12.2-1.3-.4 0-1.2 0-1.8 1.4z" style="color:#000000;fill:#000000;fill-opacity:0.78313258;stroke:#000000;stroke-width:2.70044541;stroke-linecap:butt;stroke-linejoin:miter;stroke-miterlimit:4;stroke-opacity:1;stroke-dasharray:none;stroke-dashoffset:0;marker:none;visibility:visible;display:inline;overflow:visible;enable-background:accumulate"/>
      <path id="path302745" d="M279 145v-.5c0-.3 1.5-3.4 1.8-3.5.2 0 .3-.4.4-.6.2-.3.8-1.4 2-1.4 1 0 1.5 1 1.6 1.2 0 .3 1.8 3.8 2 4.2 0 .4.2.7 0 .8-.3 0-.3 0-.5.2-.2 0-.4 0-.5-.3l-1-2c0-.2-1-2-2-2-.7 0-1.2 1-1.4 1.4 0 .5-1.3 2.2-1.4 2.6-.2.3-.3.3-.5.3l-.4-.2z" style="color:#000000;fill:#333333;stroke:#000000;stroke-width:2.70044541;stroke-linecap:butt;stroke-linejoin:miter;stroke-miterlimit:4;stroke-opacity:1;stroke-dasharray:none;stroke-dashoffset:0;marker:none;visibility:visible;display:inline;overflow:visible;enable-background:accumulate"/>
      <path id="path302771" d="M269.5 135.4c-1 0-2 0-3 .4-.6.4 0 .6.4 1.2s.3.8.8 1.2l-.5-1 .6.5s.2 0 .3-.2l.3-.8c0-.3 0-.5-.3-.5h-.5c.5 0 .8.2.6.5 0 .2 0 .4-.3.5 0 .2-.2 0-.2 0l-.2-.5-.5-.3v-.3c.2 0 .5 0 .5.2v.3c0 .3.2 0 .2-.3s.2-.4.3-.4c0 0 .3 0 .3.2v-.3c.2 0 0-.2 1.2-.3z" style="color:#000000;fill:#1a1a1a;stroke:none;stroke-width:5.53606796;marker:none;visibility:visible;display:inline;overflow:visible;enable-background:accumulate"/>
      <path id="path302771-0" d="M297 135.8c1 0 2 0 2.8.5.7.5.2.7-.4 1.2-.5.6-.5.8-1 1.2l.6-1-.6.5c-.2 0-.3 0-.4-.3l-.3-1c0-.2.2-.3.4-.4h.6c-.5 0-.8.3-.7.5 0 .4 0 .5.2.7.2.2.4 0 .4 0l.2-.5.4-.3s.2-.2 0-.3c0-.2-.3-.2-.3 0v.3c-.3.3-.3 0-.3-.4 0-.2 0-.3-.3-.3h-.3v-.2l-1-.2z" style="color:#000000;fill:#1a1a1a;stroke:none;stroke-width:5.53606796;marker:none;visibility:visible;display:inline;overflow:visible;enable-background:accumulate"/>
      <path id="path302791" d="M68 112.6c11 2 38.3 3 66.6 13.2 28.4 10.2 102 6.8 126.3 2 24-5 34-10.3 56-10-44.3 2.7-99.2 7.2-119.2 7.2-39.3 0-75-14.3-129.7-12.4z" clip-path="url(#clipPath302811-9)" style="color:#000000;fill:#1a1a1a;stroke:none;stroke-width:5.53606796;marker:none;visibility:visible;display:inline;overflow:visible;enable-background:accumulate" transform="matrix(.093 0 0 .093 264.518 124.958)"/>
      <path id="path302815" d="M156.2 215.8c3 1.5 4.5-1.5 5.3-3 .7-1.5 17.4-37 19-39 1.4-2 4.4-8.3 21-9.4-11-1.2-20 3-23.8 10.6-3.7 7.5-14 26-14 26l12-24.5-4 5.6c.7-4 .4-5.5 4.5-12.3 4.2-6.8 10.6-19.7 23-20.5 12.6-.7 23.2 21.6 24.3 24.6 1 3-.4 3.4-3 1.5 2.6 5 6.4 16.7 6.4 16.7-4.6-9-5.4-19.3-19-25.4 7.2 9.5 9.8 12.5 13.2 19.7 3.4 7.2 13 27.2 13.6 29 .8 2 3 3 5 2.4-3.8 3.8-53.7 24.2-83.6-2z" clip-path="url(#clipPath302835-4)" style="color:#000000;fill:#1a1a1a;stroke:none;stroke-width:5.53606796;marker:none;visibility:visible;display:inline;overflow:visible;enable-background:accumulate" transform="matrix(.093 0 0 .093 264.518 124.958)"/>
    </g>
  </g>
</svg>
