<?xml version="1.0" encoding="UTF-8" standalone="no"?>
<!-- Created with Inkscape (http://www.inkscape.org/) -->

<svg
   xmlns:dc="http://purl.org/dc/elements/1.1/"
   xmlns:cc="http://creativecommons.org/ns#"
   xmlns:rdf="http://www.w3.org/1999/02/22-rdf-syntax-ns#"
   xmlns:svg="http://www.w3.org/2000/svg"
   xmlns="http://www.w3.org/2000/svg"
   version="1.1"
   width="560"
   height="560"
   id="glasses_google">
  <g
     transform="translate(1.8941763e-6,-0.38248)"
     id="g66607"
     style="display:inline;enable-background:new">
    <path
       d="m 278.57434,137.14637 c 0,0 0,0.20807 0.54099,0.35372 0.541,0.14566 1.49815,1.16523 1.66461,1.83107 0.16646,0.66584 0.20807,1.08199 0.12485,1.12361 -0.0832,0.0416 -0.14566,0.0624 -0.20808,0.0832 -0.0624,0.0208 -0.0208,0.89472 -0.0832,1.24845 -0.0624,0.35373 0.22888,0.2705 0.31211,0.0832 0.0832,-0.18726 0.29131,-0.91553 0.33292,-0.97795 0.0416,-0.0624 0.0416,-0.16646 0,-0.24969 -0.0416,-0.0832 -0.0208,-0.33292 -0.0208,-0.541 0,-0.20808 -0.14566,-1.1028 -0.43696,-1.58138 -0.29131,-0.47857 -0.85311,-0.91553 -0.93634,-0.97795 -0.0832,-0.0624 -0.16646,-0.10404 -0.12485,-0.20808 0.0416,-0.10403 0.0416,-0.18726 -0.18726,-0.20807 -0.22889,-0.0208 -0.95715,-0.0208 -0.97796,0.0208 z"
       id="path303331-61-3"
       style="color:#000000;fill:#e6e6e6;stroke:#b3b3b3;stroke-width:0.25;stroke-linecap:butt;stroke-linejoin:miter;stroke-miterlimit:4;stroke-opacity:1;stroke-dasharray:none;stroke-dashoffset:0;marker:none;visibility:visible;display:inline;overflow:visible;enable-background:accumulate" />
    <path
       d="m 286.6997,137.14637 c 0,0 0,0.20807 -0.541,0.35372 -0.541,0.14566 -1.49814,1.16523 -1.6646,1.83107 -0.16646,0.66584 -0.20808,1.08199 -0.12485,1.12361 0.0832,0.0416 0.14566,0.0624 0.20808,0.0832 0.0624,0.0208 0.0208,0.89472 0.0832,1.24845 0.0624,0.35373 -0.22888,0.2705 -0.31212,0.0832 -0.0832,-0.18726 -0.2913,-0.91553 -0.33291,-0.97795 -0.0416,-0.0624 -0.0416,-0.16646 0,-0.24969 0.0416,-0.0832 0.0208,-0.33292 0.0208,-0.541 0,-0.20808 0.14565,-1.1028 0.43696,-1.58138 0.29131,-0.47857 0.85311,-0.91553 0.93634,-0.97795 0.0832,-0.0624 0.16646,-0.10404 0.12485,-0.20808 -0.0416,-0.10403 -0.0416,-0.18726 0.18726,-0.20807 0.22889,-0.0208 0.95715,-0.0208 0.97796,0.0208 z"
       id="path303331-6-4-7"
       style="color:#000000;fill:#e6e6e6;stroke:#b3b3b3;stroke-width:0.25;stroke-linecap:butt;stroke-linejoin:miter;stroke-miterlimit:4;stroke-opacity:1;stroke-dasharray:none;stroke-dashoffset:0;marker:none;visibility:visible;display:inline;overflow:visible;enable-background:accumulate" />
    <path
       d="m 299.06709,133.59617 c -0.0491,0.63607 -0.29176,1.18603 -0.52717,1.4803 -0.23541,0.29426 -0.82644,0.81854 -5.29925,1.23051 -2.05616,0.18939 -6.16445,0.3625 -10.45529,0.33002 -5.04309,-0.0382 -10.33833,-0.287 -12.85037,-0.70037 -4.64936,-0.76509 -4.13677,-1.25263 -4.1197,-1.95887 -0.56004,0.23987 -0.67754,0.71653 -0.38918,1.41036 0.23983,0.57705 0.91887,1.33083 4.92085,1.7428 4.00198,0.41197 10.12267,0.23541 12.53562,0.23541 2.41296,0 10.12267,0.0588 12.71218,-0.29426 2.58952,-0.35312 3.12093,-0.72142 3.37359,-1.09473 0.42881,-0.63362 0.38728,-1.45092 0.0987,-2.38117 z"
       id="path303306-3-8"
       style="color:#000000;fill:#e6e6e6;stroke:#b3b3b3;stroke-width:0.25;stroke-linecap:butt;stroke-linejoin:miter;stroke-miterlimit:4;stroke-opacity:1;stroke-dasharray:none;stroke-dashoffset:0;marker:none;visibility:visible;display:inline;overflow:visible;enable-background:accumulate" />
    <path
       d="m 1856.9549,238.40318 c -33.7988,0 -83.2724,5.38821 -84.252,11.75609 -0.9797,6.36789 48.9837,0 56.3312,-1.46951 7.3476,-1.46951 77.8842,-4.89837 87.1911,-4.89837 9.3069,0 24.4918,-5.38821 -2.4492,-5.38821 -26.9411,0 -44.5752,0 -56.8211,0 z"
       transform="matrix(0.06437653,0,0,-0.06437653,155.15341,152.57213)"
       id="path303355-0-6"
       style="color:#000000;fill:#ffffff;stroke:none;marker:none;visibility:visible;display:inline;overflow:visible;enable-background:accumulate" />
    <path
       d="m 298.21875,135.84375 c -0.058,-0.002 -0.13544,0.0319 -0.21875,0.0625 -0.63562,0.23323 -3.08065,0.60582 -7.9375,0.8125 -1.48211,0.0631 -7.58806,0.15569 -8.21875,0.21875 -0.63068,0.0631 -0.47215,0.25 -0.0937,0.25 0.82862,0.009 2.01049,0.10871 3.34375,0.1875 3.25825,0.005 8.36557,-0.0215 10.5,-0.3125 1.10465,-0.15064 1.78752,-0.28213 2.28125,-0.4375 0.57879,-0.32168 0.6505,-0.76971 0.34375,-0.78125 z"
       id="path303306-3-8-3"
       style="color:#000000;fill:#ffffff;fill-opacity:1;stroke:none;marker:none;visibility:visible;display:inline;overflow:visible;enable-background:accumulate" />
    <path
       d="m 265.8125,133.96875 c -0.20721,0.0888 -0.31834,0.22241 -0.40625,0.375 0.34435,1.5961 1.72206,2.23593 3.09375,2.53125 0.13489,0.029 0.27263,0.0712 0.40625,0.0937 0.0337,0.005 0.0593,-0.005 0.0937,0 0.22462,0.0342 0.4955,0.0625 0.75,0.0937 -1.11069,-0.48467 -2.32094,-0.855 -2.78125,-1.46875 -0.0788,-0.10511 -0.12764,-0.24594 -0.1875,-0.375 -1.1682,-0.41629 -0.97997,-0.78567 -0.96875,-1.25 z"
       id="path303353-2-3"
       style="color:#000000;fill:#ffffff;stroke:none;marker:none;visibility:visible;display:inline;overflow:visible;enable-background:accumulate" />
    <path
       d="m 272.00709,139.27823 c 0,0 3.24598,0.41615 4.82735,0.33292 0.0832,-0.0832 0.20808,-0.29131 0.20808,-0.29131 l 0.0416,-2.28883 -5.11867,-0.24969 z"
       id="path303310-7-2"
       style="color:#000000;fill:#806600;stroke:none;stroke-width:0.5;marker:none;visibility:visible;display:inline;overflow:visible;enable-background:accumulate" />
    <path
       d="m 276.58976,139.77448 -0.0631,-2.36505 -4.85623,-0.1892 0.0946,2.36505 z"
       id="path303359-8-1"
       style="color:#000000;fill:#d4aa00;stroke:none;stroke-width:0.5;marker:none;visibility:visible;display:inline;overflow:visible;enable-background:accumulate" />
    <path
       d="m 272.04871,139.02854 c 0.0416,0.33292 -0.16647,0.49938 -0.49939,0.49938 -0.33291,0 -0.83229,-0.16646 -1.29006,-0.12485 -0.45777,0.0416 -0.87392,0.16647 -1.87268,-0.16646 -0.99877,-0.33292 -1.91431,-0.8323 -2.20561,-1.74783 -0.1276,-0.40104 -0.12745,-1.10553 -0.0905,-1.79165 0.31323,-0.0902 0.53341,0.0725 0.91519,0.1578 0.51578,0.15826 1.75542,0.51024 2.46288,0.46862 0.70745,-0.0416 2.41367,0.29131 2.62175,0.2497 0.20808,-0.0416 0.33292,0.20807 0.33292,0.41615 -0.16646,0.0416 -0.41615,0.2913 -0.41615,0.2913 z"
       id="path303308-5-8"
       style="color:#000000;fill:#000000;stroke:none;stroke-width:0.49999994;marker:none;visibility:visible;display:inline;overflow:visible;enable-background:accumulate" />
    <path
       d="m 266.3125,135.65625 c -0.0707,-0.004 -0.14044,0.009 -0.21875,0.0312 -0.0369,0.68612 -0.0338,1.41146 0.0937,1.8125 0.26919,0.84603 1.06036,1.32392 1.96875,1.65625 -0.51637,-0.2365 -0.95099,-0.49716 -1.1875,-0.8125 -0.473,-0.63068 -0.59517,-1.81136 -0.4375,-1.9375 0.15767,-0.12613 0.6534,-0.0326 0.96875,0.125 -0.28677,-0.2113 -0.50125,-0.48597 -0.6875,-0.75 -0.17854,-0.0564 -0.3455,-0.11647 -0.5,-0.125 z"
       id="path303353-2-6-9"
       style="color:#000000;fill:#ffffff;stroke:none;marker:none;visibility:visible;display:inline;overflow:visible;enable-background:accumulate" />
    <path
       d="m 269.57708,138.1119 a 0.499385,0.60342351 0 1 0 -0.99877,0 0.499385,0.60342351 0 1 0 0.99877,0 z"
       id="path303351-3-9"
       style="color:#000000;fill:#800000;stroke:none;stroke-width:1;marker:none;visibility:visible;display:inline;overflow:visible;enable-background:new" />
  </g>
</svg>
