<?xml version="1.0" encoding="UTF-8" standalone="no"?>
<!-- Created with Inkscape (http://www.inkscape.org/) -->

<svg
   xmlns:dc="http://purl.org/dc/elements/1.1/"
   xmlns:cc="http://creativecommons.org/ns#"
   xmlns:rdf="http://www.w3.org/1999/02/22-rdf-syntax-ns#"
   xmlns:svg="http://www.w3.org/2000/svg"
   xmlns="http://www.w3.org/2000/svg"
   version="1.1"
   width="560"
   height="560"
   id="hair_manga_2_of_2">
  <g
     transform="translate(0,-492.36218)"
     id="layer1">
    <path
       d="m 272.37074,584.81704 c 2.93825,6.1857 1.70108,12.52601 -2.62892,15.61886 -4.32995,3.09286 -4.94857,4.63928 -5.25785,6.80427 -3.55672,0.92786 -5.87636,5.87642 -5.4125,10.67033 1.08255,-4.79391 2.16501,-6.34034 5.4125,-7.73211 -2.01031,1.70106 -1.54636,4.94855 -3.09278,6.80425 0.61848,-0.7732 1.70103,-1.70106 2.01032,-3.24749 -0.30929,4.02071 -2.01032,4.79392 -2.78354,7.2682 -0.77323,2.47429 -1.70112,4.79392 -3.71147,5.41249 0.77326,0.46393 1.70111,0.15465 2.31963,-0.15464 0,1.08249 -0.38654,1.77838 -1.31443,1.93303 0.54129,0.54125 1.39174,1.39179 1.62372,1.39179 -1.3144,1.54641 -4.25265,6.5723 -0.77323,8.89193 -0.61852,-1.39179 0.0774,-3.40213 2.0104,-4.17535 1.93304,-0.7732 3.01555,-1.23713 3.47941,-2.47427 0.15467,2.31963 -1.77834,2.9382 -2.16498,4.7166 -0.38659,1.77838 1.23718,3.78874 -0.9278,4.63926 1.46906,1.08251 3.09278,-1.00516 3.24745,-1.54642 0.15461,-0.54125 0.0773,-1.23714 1.0052,-1.93303 0.92784,-0.69589 1.31443,-1.23713 1.62372,-2.5516 1.31448,3.24749 -0.46395,8.27338 0.85049,10.12908 -0.30924,-0.85054 -0.0773,-1.70106 0.0774,-2.31963 0.15457,1.70106 1.15977,3.55678 2.16497,4.32999 -0.69591,-1.23714 -0.85054,-2.31965 -0.85054,-3.24749 1.77839,2.9382 5.72175,5.1032 7.42291,5.56712 1.70103,0.46393 16.46941,1.54642 23.11895,-8.7373 0.69592,1.39179 2.24233,1.93303 2.78358,2.01036 -0.69586,-1.46912 -1.15982,-3.32481 -1.08246,-4.94857 0.4639,1.00519 1.08246,2.47429 1.85565,2.8609 -0.38655,-1.15983 -0.38655,-3.09286 -0.30924,-3.55678 0.77319,0.92785 1.77839,2.86088 1.70108,3.86605 1.933,-1.08249 3.01551,-3.86605 3.09282,-6.95891 1.08247,1.0825 3.4795,0 2.31964,4.7166 3.09291,-1.0825 3.24752,-4.79392 1.08255,-7.42284 1.46906,0.38661 1.54642,-0.46393 3.47937,0.46393 -0.77314,-1.77839 -3.40206,-2.62892 -4.94852,-2.62892 2.24234,-0.61858 4.71655,0.54125 5.33515,1.23714 -1.0825,-1.39178 -1.5464,-1.54642 -2.62891,-2.165 2.31964,0.30928 4.63928,0 5.79914,-0.46393 -2.16506,0.30929 -3.63417,0.0773 -4.33,-0.30929 1.46911,-0.23196 2.55162,-2.24231 2.93816,-2.55159 -1.46905,0.61857 -2.24233,0.46393 -3.17013,0.30928 1.70108,-0.85053 3.7634,-2.84549 3.866,-5.4898 -0.92784,0.7732 -2.47426,0.38661 -3.24747,0.23196 0.69591,-0.61857 0.85057,-1.62375 0.85057,-2.31964 -0.23202,0.85054 -1.15986,0.92786 -1.77839,0.85054 0.69583,-1.77839 2.01037,-2.5516 3.78871,-2.01035 -0.9278,-1.7784 -1.933,-2.62893 -2.55162,-3.01553 1.23717,-0.61857 2.70623,-2.55161 2.397,-6.495 -0.54121,1.23715 -7.26821,4.17536 -10.43842,0.85054 -3.1701,-3.32481 -3.55673,-3.78874 -4.48457,-4.63926 2.70623,1.23713 4.48457,2.78356 5.25784,3.63408 -0.69592,-2.39695 -3.24749,-4.17534 -5.25784,-5.41248 -2.0104,-1.23713 -4.48462,-2.78356 -5.3352,-3.94338 3.01551,-0.30929 5.25784,-1.15981 6.64967,2.08768 -0.69591,-3.09285 -2.86089,-3.40214 -5.87644,-3.32482 -3.01556,0.0773 -4.09798,-0.3866 -4.56192,-0.46393 2.39694,-0.61857 4.94855,-0.85053 5.79904,-0.23196 -1.39174,-1.46911 -3.4021,-1.15982 -4.33,-1.15982 -0.92784,0 -2.16497,-0.15465 -4.02066,-1.4691 -1.85569,-1.31445 -4.87121,-1.1598 -6.10843,-1.00517 1.15987,-1.77837 1.77839,-2.62891 2.01036,-5.56711 -0.4639,2.31963 -1.39174,4.48463 -4.48465,5.33516 -3.09283,0.85051 -4.40727,1.77837 -4.79386,2.39693 0,-3.0155 0.69588,-4.098 1.23709,-4.79389 0.54125,-0.69589 1.21711,-3.04123 1.70111,-4.32999 0.56652,-1.50844 -0.61852,-2.86088 0.92785,-5.1032 -1.54637,1.70107 -1.0052,3.40214 -2.78354,5.1032 -1.77839,1.70107 -2.39695,2.70625 -2.31968,4.02071 0.0773,1.31446 0.30928,2.24232 -0.46391,3.40212 0.23193,-2.62891 -0.69592,-5.64444 -0.9278,-6.80426 0.15457,1.85571 -0.0774,1.62375 -0.0774,2.01036 -0.54121,-1.39179 -1.46906,-2.165 -2.01035,-2.86089 z"
       id="path15927"
       style="fill:#ffd42a;fill-opacity:1;stroke:#d4aa00;stroke-width:0.43702471px;stroke-linecap:butt;stroke-linejoin:miter;stroke-opacity:1;display:inline;enable-background:new" />
  </g>
</svg>
