<?xml version="1.0" encoding="UTF-8" standalone="no"?>
<!-- Created with Inkscape (http://www.inkscape.org/) -->

<svg
   xmlns:dc="http://purl.org/dc/elements/1.1/"
   xmlns:cc="http://creativecommons.org/ns#"
   xmlns:rdf="http://www.w3.org/1999/02/22-rdf-syntax-ns#"
   xmlns:svg="http://www.w3.org/2000/svg"
   xmlns="http://www.w3.org/2000/svg"
   version="1.1"
   width="560"
   height="560"
   id="hair_manga_1_of_2">
  <g
     transform="translate(0,-492.36218)"
     id="layer1">
    <path
       d="m 263.52636,623.91313 c 6.52231,-6.93264 15.44052,-15.34293 25.44487,-11.34422 10.10366,-18.17014 -26.68645,-20.91941 -25.44487,11.34422 z"
       id="path15931"
       style="fill:#ffd42a;fill-opacity:1;fill-rule:evenodd;stroke:none;display:inline;enable-background:new" />
    <path
       d="m 296.21918,620.04042 c -4.70615,-4.12821 -7.50168,-7.10051 -14.86145,-7.10051 -5.61678,0 -7.26566,3.79794 -9.66003,4.70615 -3.87683,1.47051 -1.73386,4.21077 -3.96304,7.18307 -2.22923,2.97231 -4.37597,4.87128 -7.01802,6.44 1.15593,-1.73385 0.57801,-3.22 1.65131,-3.71539 1.07334,-0.49538 1.15588,-0.82564 1.48612,-1.40358 -0.9082,0.49538 -1.9815,0.57794 -2.55942,1.48615 0.33019,-2.22923 0.9907,-2.88974 1.32103,-3.71538 0.33019,-0.82564 0.99075,-1.65128 2.22918,-2.14667 -0.49532,-0.33025 -1.23843,0.33026 -1.48617,0.49539 0.57802,-1.32103 0.82571,-2.97231 2.64206,-3.88051 -0.74301,-0.0826 -1.81635,-0.33026 -2.31177,0.16512 0.82565,-1.40358 0.9082,-3.13743 3.6328,-2.9723 -1.40353,0 -1.81635,-0.90821 -2.47692,-0.74308 1.32103,-0.49538 1.89895,-1.07333 2.47692,-0.9082 -0.33028,-0.16513 -0.33028,-0.57795 -0.99079,-0.74308 0.8257,-0.41282 1.81649,-1.32103 2.97238,-0.74308 1.15584,0.57795 3.30253,0.0826 3.71535,0 -1.73385,-0.82564 -3.6328,-3.71538 -0.99079,-6.1923 -0.66052,1.73384 0.24773,3.96307 2.22923,4.54102 -0.33023,-1.40359 -0.74306,-3.22 1.65126,-4.29333 -0.66051,1.32103 -0.57792,1.48615 -0.66051,2.14667 1.23848,-1.32103 3.30257,-2.14667 6.60514,-1.89898 -1.98149,0.66052 -1.73381,0.90821 -1.899,1.32103 1.48617,-0.41282 7.10052,-4.21077 16.26513,11.97179 z"
       id="path15933"
       style="fill:#d4aa00;fill-opacity:1;fill-rule:evenodd;stroke:none;display:inline;enable-background:new" />
    <path
       d="m 285.3589,607.94955 c 0.80313,2.00795 -0.70279,2.00795 -1.20478,2.10835 2.40955,0.80318 3.21264,-0.60239 3.11229,-1.80715 0.50195,1.90754 0.30115,5.12026 -0.30124,6.52582 1.10438,-0.90358 1.40562,-3.41351 1.30523,-4.21669 2.7107,3.01192 5.12021,7.83099 -0.4016,16.96715 3.2127,0 6.82699,-5.22066 7.42937,-7.93139 0.3012,3.41351 0.70284,5.32106 3.1123,7.83099 -0.1004,-1.00397 -0.1004,-4.01589 -1.20468,-5.12026 2.50986,2.91152 2.40951,5.32106 2.20866,9.53774 -0.20075,4.21669 0.90364,6.02384 1.30518,7.63019 0.40159,1.60636 -0.40154,4.71868 1.70677,5.82305 -1.00393,-1.70675 -0.60239,-3.41351 -0.50199,-4.91947 0.10044,-1.50596 1.30518,-3.51391 1.00398,-7.83099 0.80319,3.11232 2.91155,4.21669 4.21673,5.01987 -2.30921,-2.50993 -3.51399,-6.82702 -4.31713,-7.93139 2.40956,2.10834 3.81509,4.21669 4.41752,5.12026 -0.70283,-2.50993 -5.01991,-8.43337 -5.6223,-9.83893 1.70673,1.00397 2.61031,3.01192 2.9115,3.6143 0,-1.90755 -1.70672,-5.32106 -3.11224,-6.32503 2.30911,1.40556 4.71866,3.01192 4.71866,3.01192 -0.80323,-2.61033 -2.51,-4.41748 -2.51,-5.42145 1.40562,1.50596 2.10841,1.60635 3.01195,1.80715 -1.60633,-1.30517 -1.50593,-2.10835 -2.10837,-3.11232 -0.60234,-1.00397 -3.91548,-3.6143 -4.61827,-4.71867 1.90757,-0.3012 4.81907,3.21271 9.13619,2.50993 -3.21269,-1.40556 -4.21672,-5.92344 -9.93932,-6.62622 -2.30911,-3.9155 -4.11628,-8.33298 -13.75441,-5.72265"
       id="path15935"
       style="fill:#ffd42a;fill-opacity:1;fill-rule:evenodd;stroke:#d4aa00;stroke-width:0.43702468px;stroke-linecap:round;stroke-linejoin:miter;stroke-opacity:1;display:inline;enable-background:new" />
    <path
       d="m 275.79812,605.06165 c 1.39177,-1.31446 4.17536,-2.39696 7.80945,-1.4691 -2.70623,0.23196 -5.25779,0 -7.80945,1.4691 z"
       id="path15937"
       style="fill:#ffe680;fill-opacity:1;fill-rule:evenodd;stroke:none;display:inline;enable-background:new" />
    <path
       d="m 279.50962,605.68022 c 3.55668,-0.30928 6.80423,0.23196 6.41763,3.6341 2.31958,-2.5516 -2.31968,-5.02588 -6.41763,-3.6341 z"
       id="path15939"
       style="fill:#ffe680;fill-opacity:1;fill-rule:evenodd;stroke:none;display:inline;enable-background:new" />
    <path
       d="m 278.1178,602.27808 c 3.94333,-1.62374 1.54639,-2.47427 6.64961,-4.48463 -4.40734,0.77322 -5.25779,3.40214 -6.64961,4.48463 z"
       id="path15941"
       style="fill:#ffe680;fill-opacity:1;fill-rule:evenodd;stroke:none;display:inline;enable-background:new" />
    <path
       d="m 289.02007,608.5411 c 2.24233,3.78874 4.56201,9.20123 1.46913,15.61889 3.71145,-6.49498 5.25779,-9.20122 -1.46913,-15.61889 z"
       id="path15943"
       style="fill:#ffe680;fill-opacity:1;fill-rule:evenodd;stroke:none;display:inline;enable-background:new" />
    <path
       d="m 288.94272,606.6854 c 7.96416,3.32481 7.73218,7.73212 6.88168,10.28372 -1.70116,-3.6341 -2.62892,-7.73212 -6.88168,-10.28372 z"
       id="path15945"
       style="fill:#ffe680;fill-opacity:1;fill-rule:evenodd;stroke:none;display:inline;enable-background:new" />
    <path
       d="m 303.01522,621.76304 c -2.39694,-2.08768 -4.17535,-4.79392 -5.33515,-6.80427 1.46913,0.85053 2.93821,2.47428 3.63409,2.9382 -1.54638,-2.31963 -2.9382,-3.71141 -3.94342,-5.95373 -1.00517,-2.24232 -1.77832,-3.86606 -3.40207,-5.1032 2.01035,1.4691 3.32476,3.17017 3.55674,3.6341 -0.69589,-1.70107 -1.15984,-2.31964 -2.86085,-3.71142 2.86085,2.08767 3.78871,2.9382 4.40733,3.78874 0.61848,0.85053 4.25267,0.0773 6.49489,4.40731 -3.47942,-0.92786 -5.87641,-2.62893 -7.19082,-3.40214 1.00522,1.62375 0.61853,2.39696 1.70106,3.40214 1.08248,1.00517 4.02068,2.47428 4.79388,4.63927 -0.85051,-0.69589 -2.08761,-1.77839 -2.08761,-1.77839 0.85051,1.70107 0.92782,2.78357 1.54639,3.78874 -1.31446,-1.23713 -1.85568,-2.39695 -3.40216,-3.47945 1.2372,1.77839 2.24232,3.78874 2.0877,3.6341 z"
       id="path15947"
       style="fill:#ffe680;fill-opacity:1;fill-rule:evenodd;stroke:none;display:inline;enable-background:new" />
    <path
       d="m 287.24171,598.10274 c -0.46396,1.85571 -3.55678,4.09802 -4.4846,4.63927 0.92782,-1.77839 3.71136,-4.40731 4.4846,-4.63927 z"
       id="path15949"
       style="fill:#ffe680;fill-opacity:1;fill-rule:evenodd;stroke:none;display:inline;enable-background:new" />
    <path
       d="m 285.77258,597.79345 c -0.92786,1.00518 -4.87124,4.09803 -6.49499,5.18053 2.16506,-2.78357 5.25784,-5.41249 6.49499,-5.18053 z"
       id="path15951"
       style="fill:#ffe680;fill-opacity:1;fill-rule:evenodd;stroke:none;display:inline;enable-background:new" />
    <path
       d="m 296.21099,604.90701 c 0.38655,0.69589 1.46908,1.77839 2.3969,1.54642 0.92786,-0.23196 3.3248,-1.54642 3.86611,-0.92785 0.54122,0.61857 0.0773,1.62374 0.0773,1.93303 0.54122,-1.62375 0.46391,-1.93303 -0.23193,-2.5516 -0.69593,-0.61857 -4.56195,1.15982 -6.10839,0 z"
       id="path15953"
       style="fill:#ffe680;fill-opacity:1;fill-rule:evenodd;stroke:none;display:inline;enable-background:new" />
    <path
       d="m 298.53058,600.4997 c -2.62892,-0.69589 -4.87124,-0.38661 -6.10839,-0.30929 -1.23715,0.0773 -3.55674,0.38661 -4.48465,0.61857 1.85578,0.61857 4.17536,0.46393 5.48987,0 1.31441,-0.46392 3.01556,-0.92785 5.10317,-0.30928 z"
       id="path15955"
       style="fill:#ffe680;fill-opacity:1;fill-rule:evenodd;stroke:none;display:inline;enable-background:new" />
    <path
       d="m 286.62308,605.06165 c 1.2372,0.92785 5.87647,0.77321 9.5106,5.02588 -1.70115,-2.62892 -5.25793,-4.94856 -9.5106,-5.02588 z"
       id="path15957"
       style="fill:#ffe680;fill-opacity:1;fill-rule:evenodd;stroke:none;display:inline;enable-background:new" />
    <path
       d="m 303.55644,624.39196 c 0.61862,1.62374 1.54648,2.47428 1.93308,2.78356 0.0773,-0.3866 -0.0774,-0.69589 -0.23193,-1.00517 0.92782,0.92785 2.01035,2.01035 2.01035,2.78356 0.30923,-0.46393 0.0773,-1.15982 -2.24233,-3.32481 2.24233,2.01035 3.32481,3.47945 4.02064,5.02588 -0.38655,-1.54643 -0.69583,-2.47428 -2.78353,-4.48463 2.78353,2.78356 5.10317,5.87641 5.7991,6.95891 -0.85055,-2.165 -1.00522,-4.09803 -7.88676,-8.81462 0.46391,0.61857 0.54127,1.00517 0.54127,1.00517 -0.46401,-0.3866 -1.15989,-1.00517 -1.15989,-0.92785 z"
       id="path15959"
       style="fill:#ffe680;fill-opacity:1;fill-rule:evenodd;stroke:none;display:inline;enable-background:new" />
    <path
       d="m 296.52028,617.51037 c 0.0773,1.15982 1.70101,2.62892 1.70101,3.55678 0.15467,-0.54125 -0.0773,-1.00518 -0.30929,-1.54643 0.69589,0.85054 1.31446,2.62892 1.70111,3.55678 -0.30929,-2.39696 -0.92786,-3.71142 -3.09283,-5.56713 z"
       id="path15961"
       style="fill:#ffe680;fill-opacity:1;fill-rule:evenodd;stroke:none;display:inline;enable-background:new" />
    <path
       d="m 306.34007,624.46928 c 2.01035,0.92785 3.55678,0.92785 5.3351,-2.24232 -2.62892,1.93303 -3.01547,2.24232 -5.3351,2.24232 z"
       id="path15963"
       style="fill:#ffe680;fill-opacity:1;fill-rule:evenodd;stroke:none;display:inline;enable-background:new" />
    <path
       d="m 303.94308,616.96912 c 1.93299,1.54642 6.72692,0.69589 8.96924,-0.69589 -3.24744,0.77321 -7.03625,1.00517 -8.96924,0.69589 z"
       id="path15965"
       style="fill:#ffe680;fill-opacity:1;fill-rule:evenodd;stroke:none;display:inline;enable-background:new" />
  </g>
</svg>
