<?xml version="1.0" encoding="UTF-8" standalone="no"?>
<!-- Created with Inkscape (http://www.inkscape.org/) -->

<svg
   xmlns:dc="http://purl.org/dc/elements/1.1/"
   xmlns:cc="http://creativecommons.org/ns#"
   xmlns:rdf="http://www.w3.org/1999/02/22-rdf-syntax-ns#"
   xmlns:svg="http://www.w3.org/2000/svg"
   xmlns="http://www.w3.org/2000/svg"
   version="1.1"
   width="560"
   height="560"
   id="hair_short">
  <g
     transform="translate(0,-492.36218)"
     id="layer1">
    <path
       d="m 283.49611,621.60131 c 4.0502,0 7.23376,-1.8885 10.52398,-1.42595 3.10885,0.43705 4.00856,3.96356 1.9954,6.48267 0.96191,-0.56116 2.71651,1.20115 2.43501,3.32939 1.25514,-0.89203 3.81227,-6.63899 5.31421,-7.69919 -0.25254,-0.0994 -2.09389,-0.38559 -2.87821,0.64681 0.86377,-2.33868 2.4348,-4.44838 3.50071,-5.55173 -0.64095,-0.16887 -2.23831,0.009 -2.68354,0.34851 0.82698,-2.70728 4.87158,-3.50014 5.5737,-7.09673 -1.59648,1.89576 -3.09028,1.31662 -4.25247,2.34427 0.57266,-2.51686 3.58095,-5.88194 4.62022,-6.2241 -3.62553,0.21036 -2.97753,1.62064 -5.40532,2.45251 1.0682,-1.71421 2.00474,-3.25737 0.9493,-6.57177 -0.25069,3.32396 -1.06206,4.39895 -2.14489,4.72582 -0.0415,-1.39756 0.49145,-1.91639 0.22824,-3.1464 -1.31274,1.36607 -2.6157,0.0965 -5.45403,1.0392 1.56015,-2.17674 -3.35031,-4.958 -1.63745,-6.64907 -3.63221,-0.05 -3.34824,2.8117 -4.46692,3.81853 0.056,-2.86154 -2.31182,-5.22967 -4.07211,-6.4468 1.20073,2.92394 -0.0922,5.58924 -1.54944,6.77239 0.89813,-2.7019 -1.46004,-4.40361 -2.46274,-4.91957 0.33526,2.39575 -0.29501,4.41682 -1.28047,6.26513 -1.10854,-0.83719 -1.36134,-3.20499 -0.95191,-4.74467 -2.21273,0.85424 -2.20132,3.23177 -2.05718,4.07218 -0.94614,-0.83649 -2.41088,-1.84175 -3.61339,-0.97398 0.53957,0.16472 1.35253,1.00538 1.74353,1.84502 -1.11924,-0.82664 -2.47258,-1.15106 -3.29989,-0.79701 0.10804,0.51368 0.43998,1.02395 0.86986,1.86807 -1.57382,-0.47547 -2.38095,0.9374 -5.55546,-1.30806 -0.0864,1.38697 1.13892,2.60545 2.09436,3.79688 -1.12782,0.54025 -4.59205,-0.85909 -6.57965,-2.31445 -0.5015,1.95262 0.61109,3.72974 1.26038,4.04608 -0.7335,0.27876 -2.49914,-0.17242 -3.87034,-0.41495 0.36441,1.43295 1.55721,2.89338 2.2105,3.21895 -0.90091,0.92488 -2.4947,0.83909 -4.33604,0.79381 1.4139,1.31647 2.3456,1.84086 3.49945,1.87312 -2.05762,0.60861 -3.28762,0.75546 -5.66788,0.63546 1.41714,1.55253 3.09027,2.16998 4.19767,2.94361 -1.12851,0.21805 -1.86554,0.0798 -2.54245,0.67152 1.24414,0.2426 3.6172,1.75114 4.91155,3.21824 -0.61244,-0.6278 -0.52052,0.82308 -1.10393,0.87835 1.46633,0.35739 3.17349,4.95818 4.35469,5.44751 2.06471,-1.31871 -0.79439,-0.34912 1.35666,2.16287 -0.0669,-2.944 1.70217,-3.5766 3.02235,-3.78751 -2.33367,-5.29623 0.28997,-8.0473 2.6194,-7.60432 2.0124,0.3827 6.53433,1.97936 10.58454,1.97936 z"
       id="path8050-2-4"
       style="fill:#ffe580;fill-opacity:1;fill-rule:evenodd;stroke:#d4aa00;stroke-width:0.5;stroke-linecap:butt;stroke-linejoin:miter;stroke-miterlimit:4;stroke-opacity:1;stroke-dasharray:none;display:inline;enable-background:new" />
  </g>
</svg>
