<?xml version="1.0" encoding="UTF-8" standalone="no"?>
<!-- Created with Inkscape (http://www.inkscape.org/) -->

<svg
   xmlns:dc="http://purl.org/dc/elements/1.1/"
   xmlns:cc="http://creativecommons.org/ns#"
   xmlns:rdf="http://www.w3.org/1999/02/22-rdf-syntax-ns#"
   xmlns:svg="http://www.w3.org/2000/svg"
   xmlns="http://www.w3.org/2000/svg"
   version="1.1"
   width="560"
   height="560"
   id="hair_odango">
  <g
     transform="matrix(1.1217851,0,0,1.1217851,-34.034792,-14.1791)"
     id="g71138"
     style="display:inline;enable-background:new">
    <g
       id="g71128">
      <path
         d="M 224.79461,349.22898 A 48.211826,49.417122 0 1 1 150.10935,298.61859"
         transform="matrix(-0.11825743,-0.01019665,0.01019665,-0.11825743,313.05712,156.26522)"
         id="path3159-52"
         style="fill:#ffe580;fill-opacity:1;stroke:#d4aa00;stroke-width:3.75511694;stroke-miterlimit:4;stroke-opacity:1;stroke-dasharray:none" />
      <path
         d="M 224.79461,349.22898 A 48.211826,49.417122 0 1 1 150.10935,298.61859"
         transform="matrix(-0.03603864,0.11309291,-0.11309291,-0.03603864,313.32576,106.34516)"
         id="path3161-6"
         style="fill:#ffe580;fill-opacity:1;stroke:#d4aa00;stroke-width:3.75511718;stroke-miterlimit:4;stroke-opacity:1;stroke-dasharray:none" />
      <path
         d="m 270.4375,109.53125 c 0.41091,0.41091 1.59755,1.75501 1.65625,3.28125 -0.46961,-1.23273 -1.61102,-2.04178 -2.84375,-2.6875 0.70442,0.52832 1.58995,1.97083 1.53125,2.96875 -0.23481,-0.58701 -0.62414,-1.52279 -1.09375,-1.875 0.1174,0.41091 0.22341,1.05991 -0.1875,2.46875 -0.52832,-1.52624 -1.45943,-2.80698 -2.28125,-3.6875 0.76312,0.99793 1.57096,3.52659 1.21875,3.9375 -0.1174,-0.58701 -0.62794,-1.24154 -1.15625,-1.59375 0.1761,0.35221 0.875,1.45563 0.875,2.21875 -0.70442,-0.52831 -1.77659,-1.70183 -2.1875,-2.40625 0.0587,0.70442 0.87794,2.13087 1.40625,3.1875 -0.64572,-0.52831 -1.04559,-1.01434 -1.75,-1.71875 0.2935,0.93922 0.875,1.23395 0.875,1.46875 -1.11533,-0.76312 -1.87414,-2.04558 -2.34375,-2.75 0.1174,0.93923 1.48015,2.64693 1.65625,3.46875 -0.46961,-0.52831 -1.08063,-1.35808 -1.84375,-2.0625 0.11741,0.29351 0.67058,1.35342 1.375,2.46875 -0.64572,-0.46961 -1.71409,-1.58357 -2.125,-2.875 0.0587,1.52624 1.06457,3.23981 2.0625,4.53125 -0.83551,-0.54308 -2.00387,-2.11816 -2.5625,-3.625 0.0497,1.96954 1.11431,3.8891 3,4.9375 l 8.40625,-6.59375 c -0.30765,-0.6581 -0.73078,-1.25243 -1,-1.65625 0.1174,0.2348 0.35981,1.34375 0.125,1.34375 -0.1174,-0.64572 -0.35048,-1.23688 -0.9375,-2 0.29351,0.35221 0.58995,1.23688 0.53125,2 -0.1761,-0.70442 -1.11482,-2.33909 -2.40625,-2.75 z"
         id="path71048"
         style="color:#000000;fill:#ffd42a;fill-opacity:1;stroke:none;marker:none;visibility:visible;display:inline;overflow:visible;enable-background:accumulate" />
      <path
         d="m 293.78125,109.53125 c -1.29143,0.41091 -2.23015,2.04558 -2.40625,2.75 -0.0587,-0.76312 0.23774,-1.64779 0.53125,-2 -0.58702,0.76312 -0.8201,1.35428 -0.9375,2 -0.23481,0 0.008,-1.10895 0.125,-1.34375 -0.28491,0.42735 -0.7187,1.07939 -1.03125,1.78125 l 8.28125,6.6875 C 299.62015,118.6552 300.57717,117.44353 301,116 c 0.10091,-0.34451 0.14942,-0.68629 0.1875,-1.03125 -0.61149,1.25896 -1.54654,2.449 -2.25,2.90625 0.99793,-1.29144 2.0038,-3.00501 2.0625,-4.53125 -0.41091,1.29143 -1.44803,2.40539 -2.09375,2.875 0.70442,-1.11533 1.22634,-2.17524 1.34375,-2.46875 -0.76312,0.70442 -1.34289,1.53419 -1.8125,2.0625 0.1761,-0.82182 1.5076,-2.52952 1.625,-3.46875 -0.46961,0.70442 -1.22842,1.98688 -2.34375,2.75 0,-0.2348 0.5815,-0.52953 0.875,-1.46875 -0.70441,0.70441 -1.10428,1.19044 -1.75,1.71875 0.52831,-1.05663 1.34754,-2.48308 1.40625,-3.1875 -0.41091,0.70442 -1.48308,1.87794 -2.1875,2.40625 0,-0.76312 0.73015,-1.86654 0.90625,-2.21875 -0.52831,0.35221 -1.0701,1.00674 -1.1875,1.59375 -0.35221,-0.41091 0.45563,-2.93957 1.21875,-3.9375 -0.82182,0.88052 -1.75293,2.16126 -2.28125,3.6875 -0.41091,-1.40884 -0.27365,-2.05784 -0.15625,-2.46875 -0.46961,0.35221 -0.89019,1.28799 -1.125,1.875 -0.0587,-0.99792 0.82683,-2.44043 1.53125,-2.96875 -1.23273,0.64572 -2.34289,1.45477 -2.8125,2.6875 0.0587,-1.52624 1.21409,-2.87034 1.625,-3.28125 z"
         id="path71048-3"
         style="color:#000000;fill:#ffd42a;fill-opacity:1;stroke:none;marker:none;visibility:visible;display:inline;overflow:visible;enable-background:accumulate" />
    </g>
    <g
       id="g71134">
      <path
         d="m 268.75545,142.16536 c -0.37529,-0.12509 -1.28274,-1.16104 -1.70688,-1.80923 0.58325,2.17033 1.50039,4.10973 2.96829,5.78304 -2.549,-1.17227 -2.81846,-1.70832 -4.04301,-3.48006 0.16271,0.65082 0.37268,1.56421 0.81883,2.45652 -4.10296,-2.75153 -5.04295,-20.31004 0,-27.84049 5.04297,-7.53046 23.94344,-8.74993 30.29702,0 5.71435,7.8696 6.75111,19.46374 -0.70294,26.57007 0.28523,-0.8655 0.52912,-1.54914 0.52832,-2.16897 -0.30912,0.28599 -1.03771,0.74414 -1.46604,0.88201 1.4521,-2.19358 2.58984,-5.72043 1.12888,-8.74828 -0.17876,0.46429 0.20697,1.84218 -0.1475,3.07809 -1.80817,-4.3121 -6.39396,-6.74583 -7.42675,-9.27509 -0.65542,2.25247 2.35087,4.64827 4.81067,6.24363 -8.74071,-2.04443 -10.51352,-10.62952 -14.43202,-8.5978 -6.58155,-4.56295 -4.07079,10.72452 -8.18838,14.02261 0.30535,-1.60911 -0.0528,-2.9651 -0.27183,-3.435 -0.38502,0.60793 -0.56145,1.94759 -1.97699,3.59605 -0.33881,-0.65912 -0.44051,-1.49084 -0.61711,-2.3105 -0.47401,1.73111 0.19465,3.76598 0.42744,5.0334 z"
         id="path3155-7"
         style="fill:#ffe580;fill-opacity:1;fill-rule:evenodd;stroke:#d4aa00;stroke-width:0.44571817;stroke-linecap:butt;stroke-linejoin:miter;stroke-miterlimit:4;stroke-opacity:1;stroke-dasharray:none" />
      <path
         d="m 290.40625,116.875 c 1.29144,1.05663 3.21616,3.85291 4.625,7.375 1.40883,3.5221 1.33995,9.15953 1.28125,11.625 -1.29143,-2.99378 -2.61395,-3.79213 -4.375,-6.375 -1.76104,-2.58287 -2.36724,-9.88675 -6.59375,-12 3.05248,2.87637 3.53211,6.99569 3.0625,9.34375 -0.46961,2.34806 0.23464,3.44752 4.34375,6.5 -6.28107,-3.22858 -7.38933,-6.69078 -8.09375,-9.15625 -0.70442,-2.46546 -4.13467,-2.39243 -5.25,0.71875 -0.41091,-1.23273 -1.17179,-3.04731 -3.34375,-2.8125 -2.17196,0.2348 -2.9337,4.21824 -2.875,6.625 0.0587,2.40676 -0.038,4.16161 -0.625,7.625 0.0587,-0.93922 -0.0684,-3.20977 -1.125,-5.96875 -1.05663,-2.75897 -1.23947,-4.65108 -0.59375,-7.46875 -1.81975,4.16781 0.18284,7.47376 0.59375,9 0.41091,1.52624 0.75087,4.50501 0.28125,6.03125 0.23481,-1.52624 -0.75674,-4.39227 -1.34375,-5.625 0.52831,2.75897 0.052,3.80612 -0.59375,5.15625 0.23481,-0.99793 0.61361,-2.46788 0.4375,-2.9375 -0.2348,0.88053 -0.90159,3.09963 -1.3125,4.15625 -0.1174,-0.70442 -0.1837,-2.99103 -0.125,-5.75 -1.40884,2.81768 -1.22807,5.12277 -0.40625,8.46875 -1.87845,-3.69819 -1.79903,-6.92715 -0.625,-12.5625 -3.28729,8.21822 -1.01485,12.16161 0.6875,15.625 -5.75275,-7.04418 -3.56888,-18.91368 -2.21875,-23.375 -3.63949,9.09874 -1.87293,16.56148 -0.875,21.375 -0.9623,-2.19005 -1.64396,-5.7073 -1.9375,-8.875 0.19111,5.42901 1.39627,10.20427 3.375,11.53125 -0.44615,-0.89231 -0.64979,-1.81793 -0.8125,-2.46875 1.22455,1.77174 1.5135,2.29648 4.0625,3.46875 -1.4679,-1.67331 -2.3855,-3.61092 -2.96875,-5.78125 0.42414,0.64819 1.31221,1.68741 1.6875,1.8125 -0.23279,-1.26742 -0.91151,-3.30014 -0.4375,-5.03125 0.1766,0.81966 0.28619,1.65338 0.625,2.3125 1.41554,-1.64846 1.61498,-2.98582 2,-3.59375 0.21903,0.4699 0.55535,1.82839 0.25,3.4375 4.11759,-3.29809 1.60595,-18.5942 8.1875,-14.03125 3.9185,-2.03172 5.69679,6.54932 14.4375,8.59375 -2.4598,-1.59536 -5.46792,-3.96628 -4.8125,-6.21875 1.03279,2.52926 5.62933,4.9379 7.4375,9.25 0.35447,-1.23591 -0.0538,-2.59821 0.125,-3.0625 1.46096,3.02785 0.3271,6.55642 -1.125,8.75 0.42833,-0.13787 1.15963,-0.58901 1.46875,-0.875 8e-4,0.61983 -0.24602,1.29075 -0.53125,2.15625 5.29088,-5.04407 6.30733,-12.33943 4.40625,-18.96875 0.32966,1.55394 0.50429,3.35233 0.46875,5.09375 -0.23481,-2.05455 -1.28454,-6.24396 -3.75,-9.53125 5.16573,9.97927 3.59305,16.1497 -0.28125,21.84375 2.05456,-3.6395 3.22428,-9.62657 2.34375,-13.03125 0.41091,6.51587 -1.64227,10.39227 -2.875,11.625 2.40676,-4.75482 1.16177,-10.67387 0.28125,-13.84375 -0.88053,-3.16989 -2.8056,-8.1604 -6.5625,-10.15625 z"
         id="path71107"
         style="color:#000000;fill:#ffd42a;fill-opacity:1;stroke:none;marker:none;visibility:visible;display:inline;overflow:visible;enable-background:accumulate" />
    </g>
  </g>
</svg>
