<?xml version="1.0" encoding="UTF-8" standalone="no"?>
<!-- Created with Inkscape (http://www.inkscape.org/) -->

<svg
   xmlns:dc="http://purl.org/dc/elements/1.1/"
   xmlns:cc="http://creativecommons.org/ns#"
   xmlns:rdf="http://www.w3.org/1999/02/22-rdf-syntax-ns#"
   xmlns:svg="http://www.w3.org/2000/svg"
   xmlns="http://www.w3.org/2000/svg"
   version="1.1"
   width="560"
   height="560"
   id="hair_ponytail">
  <g
     transform="translate(0,-492.36218)"
     id="layer1">
    <path
       d="m 278.93144,610.2264 c 13.12034,0.17494 25.0161,13.99504 24.49129,22.04219 0.69977,-5.77295 1.39946,-15.04467 -0.69977,-20.99256 1.22458,1.57444 1.57442,2.62407 1.92435,3.6737 0,-2.09926 -0.87465,-5.59802 -1.92435,-7.52234 1.39954,1.3995 1.74939,2.79901 2.09923,3.6737 -0.34984,-2.79901 -1.57442,-11.19603 -9.44661,-11.89579 -3.67364,-2.09925 -10.32134,-5.24814 -16.44414,11.0211 z"
       id="path3285-9-2-5"
       style="fill:#ffe580;fill-opacity:1;fill-rule:evenodd;stroke:#d4aa00;stroke-width:0.41986182px;stroke-linecap:butt;stroke-linejoin:miter;stroke-opacity:1;display:inline;enable-background:new" />
    <path
       d="m 291.40486,598.31718 c -1.79116,0.008 -4.59644,0.43332 -7.26059,2.3327 0,0.003 -0.009,0.005 -0.009,0.008 -1.72505,1.95933 -3.48578,5.00117 -5.20551,9.57081 0.44247,0.006 0.88093,0.0238 1.32018,0.06 6.77495,-1.68624 11.9262,-2.70567 17.74643,4.31287 -0.89794,-1.6463 -1.28406,-3.04075 -2.36272,-4.06534 -0.20296,-0.16299 -0.40645,-0.33119 -0.60749,-0.48755 0.22747,0.15165 0.42537,0.31451 0.60749,0.48755 2.97702,2.38998 6.07178,5.43164 6.56309,7.56064 -0.69977,-3.49876 -2.62656,-7.34186 -5.77549,-10.14087 2.09932,0.17494 5.07354,1.21822 6.47308,2.61772 -2.44915,-2.44913 -5.24632,-4.02321 -7.17067,-4.89791 2.44916,0.69976 3.14588,0.88046 4.54542,1.75515 -1.74939,-1.74938 -4.37377,-2.62788 -6.47299,-2.97775 5.07318,-0.17494 6.82885,1.05297 8.7532,1.92766 -1.39946,-2.27419 -4.37447,-4.19793 -8.0482,-4.37287 1.39954,-0.87469 2.97117,-1.40216 5.07049,-0.35253 -2.97397,-2.2742 -7.87271,-2.44602 -12.4211,1.40262 2.27419,-2.79901 3.49842,-4.37552 4.89788,-4.7254 -0.19677,-0.0109 -0.41116,-0.016 -0.645,-0.015 z"
       id="path3403-9-0-5"
       style="fill:#ffd42a;fill-opacity:1;fill-rule:evenodd;stroke:none;display:inline;enable-background:new" />
    <path
       d="m 265.11133,631.3939 c -2.27419,-1.74938 -4.89831,-2.97395 -5.94792,-5.42308 -1.04962,-2.44913 -4.54839,-12.4206 0,-15.21961 -0.52481,-3.67369 0.34992,-4.89826 2.09931,-5.0732 1.7493,-0.17494 7.52226,-6.47271 16.79398,0.17494 -4.19854,0.87469 -11.72079,12.59554 -12.94537,25.54095 z"
       id="path3301-9-2-9"
       style="fill:#ffe580;fill-opacity:1;fill-rule:evenodd;stroke:#d4aa00;stroke-width:0.41986182px;stroke-linecap:butt;stroke-linejoin:miter;stroke-opacity:1;display:inline;enable-background:new" />
    <path
       d="m 270.00955,613.20034 c -3.3238,8.74691 -5.24815,11.19604 -9.4466,6.47271 2.44907,1.74938 3.84861,1.74938 6.29776,-0.34987 -3.67373,1.74938 -5.24815,0.34987 -6.47273,-1.39951 1.57442,1.74938 2.799,1.57444 5.598,-0.52481 -2.27419,0.52481 -2.44907,1.3995 -4.37342,-0.69976 2.27419,0.8747 3.67365,0 4.72335,-1.04963 -1.39954,0.69976 -2.97396,0.34988 -3.32389,0 2.09931,0 2.97396,-1.3995 3.67373,-1.74937 -0.69977,-0.69976 -1.22458,-0.34988 -2.09923,-0.52482 1.92427,-1.39951 4.02358,-1.74937 5.42303,-0.17494 z"
       id="path3397-1-4-5"
       style="fill:#ffd42a;fill-opacity:1;fill-rule:evenodd;stroke:none;display:inline;enable-background:new" />
    <path
       d="m 259.16716,611.80332 c -0.61674,0.46251 -1.33928,1.05842 -1.98017,1.79266 -0.22416,0.8285 -0.3051,1.75547 -0.29254,2.71523 0.2989,-1.25171 0.9405,-2.65768 2.27271,-4.50789 z m 2.79769,1.22261 c -3.13271,1.08026 -4.46125,2.89666 -4.98039,4.7854 0.0966,0.92257 0.2573,1.85375 0.45756,2.74524 0.25032,-3.27461 1.66478,-5.45203 4.52283,-7.53064 z m 0.87011,1.05008 c -3.3771,0.29367 -4.52588,3.91336 -5.01798,7.96568 0.47823,1.73116 1.02981,3.18284 1.35018,3.93034 1.04961,2.44913 3.66632,3.67357 5.94051,5.42296 0.1187,-1.25473 0.29672,-2.49736 0.52498,-3.72032 -9.24923,-6.23954 -6.02372,-11.73098 -2.79769,-13.59866 z"
       id="path3405-1-9-3"
       style="fill:#ffd42a;fill-opacity:1;fill-rule:evenodd;stroke:none;display:inline;enable-background:new" />
    <path
       d="m 277.16353,610.83554 c -2.46328,-3.073 -3.83242,-0.95112 -6.08022,-2.38197 -2.56534,-1.63297 -4.4348,-2.66052 -5.22197,-4.76297 0.7988,-4.61913 7.71092,-9.55685 13.12622,-5.52387 2.28712,1.70329 2.28761,-0.82847 6.26486,1.28107 -5.10591,3.51891 -2.48387,9.16054 -8.08889,11.38774 z"
       id="path3301-9-2-6-4"
       style="fill:#ffe580;fill-opacity:1;fill-rule:evenodd;stroke:#d4aa00;stroke-width:0.41986182px;stroke-linecap:butt;stroke-linejoin:miter;stroke-opacity:1;display:inline;enable-background:new" />
    <path
       d="m 277.50932,610.6566 c -8.95719,-2.70645 -11.53441,-4.45553 -7.115,-8.97279 -1.57454,2.56498 -1.47706,3.96112 0.78769,6.2581 -2.00103,-3.54296 -0.71458,-5.21104 0.94525,-6.5545 -1.63546,1.69245 -1.37565,2.90187 0.91347,5.54785 -0.68195,-2.23211 -1.56669,-2.34564 0.39342,-4.41154 -0.71416,2.32959 0.2559,3.66473 1.37609,4.63876 -0.79554,-1.34739 -0.55618,-2.94236 -0.23153,-3.31581 0.14623,2.09421 1.60326,2.86925 2.00102,3.54295 0.64932,-0.74681 0.26373,-1.24598 0.37732,-2.13069 1.53015,1.82211 2.02539,3.89195 0.55227,5.39767 z"
       id="path3397-1-4-0-8"
       style="fill:#ffd42a;fill-opacity:1;fill-rule:evenodd;stroke:none;display:inline;enable-background:new" />
    <path
       d="m 277.40708,610.27612 c 2.80999,3.16125 7.14207,2.1075 10.53748,4.33208 3.39532,2.22458 10.0691,7.6104 8.54701,20.48954 0.46838,-0.58542 0.70256,-1.99041 0.93666,-3.51249 -0.11705,2.92707 0.11714,5.38582 0.46838,7.25915 0,-1.87333 -0.11714,-4.33208 0.2341,-6.43957 0.46837,3.16124 0.70256,4.8004 1.0538,6.32249 0.23419,-1.52209 0.23419,-3.74667 0.23419,-4.215 0.11042,2.53728 2.06904,7.83182 3.27827,9.01541 -1.02266,-8.47005 2.49216,-14.42024 -4.14202,-26.43607 -1.22876,-2.22564 -3.63919,-5.34994 -8.38583,-7.86929 -5.92027,-3.14222 -11.94251,0 -12.76204,1.05375 z"
       id="path3283-8-7-0"
       style="fill:#ffe580;fill-opacity:1;fill-rule:evenodd;stroke:#d4aa00;stroke-width:0.41986182px;stroke-linecap:butt;stroke-linejoin:miter;stroke-opacity:1;display:inline;enable-background:new" />
    <path
       d="m 297.47481,620.3728 c 2.27419,3.49876 4.19854,10.84616 4.02357,13.8201 -0.87464,-3.14888 -1.92426,-6.82258 -3.14883,-8.22208 0.5248,1.92432 0.5248,4.54838 0.5248,5.42308 -1.04961,-3.84864 -2.97396,-12.07072 -6.29776,-16.26923 2.97396,3.49876 5.77296,9.62158 6.47273,11.19603 -0.69977,-2.2742 -0.87474,-5.24814 -1.57451,-5.9479 z"
       id="path3399-2-6-3"
       style="fill:#ffd42a;fill-opacity:1;fill-rule:evenodd;stroke:none;display:inline;enable-background:new" />
    <path
       d="m 298.17458,618.27355 c -1.39945,-2.62408 -3.67365,-4.72333 -5.24815,-5.9479 1.92435,2.44914 4.72334,4.89827 5.24815,5.9479 z"
       id="path3401-1-3-5"
       style="fill:#ffd42a;fill-opacity:1;fill-rule:evenodd;stroke:none;display:inline;enable-background:new" />
    <path
       d="m 277.18206,610.2264 0,0 c -2.97397,1.39951 -8.04715,4.72333 -7.69731,17.66874 -0.17497,-1.3995 -0.17497,-2.79901 -0.34984,-4.37345 -0.87474,5.0732 -1.74939,17.84368 0.17487,26.2407 -1.04961,-1.92432 -1.74938,-3.6737 -2.09922,-4.54839 0.5248,2.2742 0.69977,3.49877 1.04961,5.0732 -2.62403,-4.37345 -3.14884,-8.04715 -3.49877,-10.84615 -0.34984,-2.79901 0.34993,-14.86973 1.0497,-18.71837 0.69969,-3.84864 3.84861,-14.86973 11.37096,-10.49628 z"
       id="path3289-74-8-0"
       style="fill:#ffe580;fill-opacity:1;fill-rule:evenodd;stroke:#d4aa00;stroke-width:0.41986182px;stroke-linecap:butt;stroke-linejoin:miter;stroke-opacity:1;display:inline;enable-background:new" />
  </g>
</svg>
