<?xml version="1.0" encoding="UTF-8" standalone="no"?>
<!-- Created with Inkscape (http://www.inkscape.org/) -->

<svg
   xmlns:dc="http://purl.org/dc/elements/1.1/"
   xmlns:cc="http://creativecommons.org/ns#"
   xmlns:rdf="http://www.w3.org/1999/02/22-rdf-syntax-ns#"
   xmlns:svg="http://www.w3.org/2000/svg"
   xmlns="http://www.w3.org/2000/svg"
   version="1.1"
   width="560"
   height="560"
   id="hair_afro">
  <g
     transform="translate(0,-492.36218)"
     id="layer1">
    <path
       d="m 303.44813,638.66784 c -0.57424,0.727 -1.05652,1.04444 -2.08022,1.21735 -2.03344,0.34332 -2.3147,2.53669 0.03,1.59299 -2.73196,2.54896 -4.65858,2.56618 -4.36636,-1.68028 0.29222,-4.24648 1.73261,-13.04319 -0.53833,-16.10042 -0.55152,0.69484 -1.73592,1.29679 -2.49354,1.3474 0.1487,-0.54119 0.48079,-1.89282 -0.65638,-3.00414 -0.25777,0.69224 -0.90194,1.37927 -1.71847,1.53166 -0.13638,-0.75535 -0.47261,-2.40126 -1.96202,-3.83244 0.31272,0.88038 -0.17334,1.83406 -0.78373,2.69058 -0.28244,-1.92623 -2.01545,-5.7326 -6.44366,-7.22303 1.70206,1.01696 2.82518,2.86036 3.81718,5.52279 -1.67247,-1.99529 -5.84191,-5.52039 -10.84873,-2.98286 5.99894,-0.0208 5.3153,0.74804 7.18562,3.06646 -3.1304,-2.09935 -7.22496,-1.4662 -9.68681,-0.99616 4.26934,-0.10935 5.49126,0.88163 6.32066,1.93206 -3.53124,-0.65812 -5.11788,-0.32346 -6.83826,-0.12649 1.0684,0.42463 2.26351,1.33823 2.74509,2.03692 -1.83191,-0.70952 -2.74709,-0.78599 -4.29194,-0.93392 1.42325,0.98163 1.56568,1.74761 2.11068,2.4459 -1.47882,-0.70469 -2.57799,-0.64155 -3.52263,-0.71543 -0.0564,1.73719 -0.0309,2.7094 0.40048,3.26687 -1.32881,-0.56154 -2.29248,-1.0507 -3.07874,-2.30315 0.64354,3.19783 1.46074,4.51907 2.19806,5.35434 -2.27794,-0.14595 -4.05067,-0.90953 -4.05729,-1.95179 -0.007,-1.04223 -1.05279,1.4629 -0.6421,3.76609 0.18407,1.03227 4.52419,4.4407 3.8163,7.96111 -0.31774,1.58015 -3.1791,3.45535 -4.34167,2.48079 1.06448,0.21132 2.38828,-0.98001 1.72819,-1.88568 -0.74351,1.12631 -1.27602,0.91367 -1.69184,0.77028 0.55142,-0.20598 0.86844,-0.69726 0.74694,-0.90893 -1.15232,0.77023 -3.47151,1.06935 -4.36883,0.52938 1.70829,-0.0681 2.32032,-1.34334 2.27654,-1.77521 -1.60905,1.23995 -4.28656,1.17008 -4.83202,0.40451 1.66564,0.3277 2.27988,-0.73386 2.10203,-1.18184 -0.17783,-0.44792 -0.85354,-0.49135 -1.77677,0.0325 0.99884,-1.2524 1.05367,-1.24764 2.05902,-1.55091 -0.83408,-0.56565 -2.41712,-0.46415 -3.35798,-0.0918 1.17757,-0.79833 1.5284,-1.43618 1.7873,-1.78575 -0.63889,0.0251 -1.32834,0.78508 -2.52588,0.46864 1.55178,-0.27788 0.8067,-1.69687 1.00497,-1.99441 -0.2949,-0.0242 -1.13241,0.64132 -1.11407,1.16687 -0.56599,-1.30255 0.35183,-2.89699 1.11306,-3.45843 0.76118,-0.56141 0.45151,-2.44462 -0.65987,-2.83452 0.0628,2.257 -0.41527,2.02366 -0.92732,2.70934 -0.51199,0.68567 -1.018,1.89753 -0.72063,2.54788 -1.14677,-0.9243 -0.80538,-2.66113 -0.4509,-3.15159 0.35448,-0.49044 0.33574,-0.8003 0.2659,-1.31736 -0.99955,2.18348 -2.93394,2.27965 -3.17011,1.64923 1.37998,0.17788 2.5602,-0.87908 3.25718,-3.68191 -1.8399,0.38613 -2.54878,1.36507 -2.73997,2.3767 -0.47094,-1.35499 -0.5213,-7.21951 2.56598,-5.15706 -0.74561,-2.11509 -2.59263,-2.22658 -3.53554,-1.32938 -0.4665,-0.99131 0.57656,-3.6866 1.18498,-4.04673 -0.82991,0.1525 -1.32682,0.32938 -1.77276,0.99952 -0.0291,-1.56901 0.9351,-1.92503 1.34692,-2.24785 -1.00297,-10e-4 -1.17374,-0.79234 -1.68407,-0.90953 -0.38342,-1.63753 -0.0793,-3.28937 0.54053,-3.55343 -0.75766,-0.90503 -1.75014,-0.8311 -2.17303,-0.59928 0.83062,-1.51818 2.13551,-1.78755 2.9134,-1.89412 0.22796,-1.44275 -0.95904,-4.51556 -1.34825,-4.63539 1.10446,-0.41322 1.81992,-0.22444 2.0681,0.0495 0.2869,-1.44383 -1.55674,-2.71036 -2.13635,-2.67185 0.83278,-0.72514 1.91044,-1.0043 2.39473,-0.81874 -0.56446,-1.11076 0.20609,-3.0631 0.4099,-3.89555 0.63152,-0.71326 1.61183,-0.94106 1.91962,-0.53224 -0.0233,-0.45924 -0.17709,-0.9626 -0.10094,-1.60078 0.62609,-0.39831 1.18737,-0.33174 1.59873,0.0861 -0.34223,-0.71063 -0.23417,-2.54272 -1.42976,-2.75852 0.77146,-1.20187 2.97738,-1.12785 3.41333,-0.68455 0.11655,-0.45536 1.49539,-2.12707 0.54629,-2.65022 1.36215,-0.0757 2.63414,0.18554 2.9389,1.01228 0.47639,-1.13652 1.00522,-1.65679 0.70634,-1.98494 0.40301,-0.2555 1.54116,-0.0104 1.83442,0.56176 -0.14789,-1.15912 0.002,-2.15938 0.63738,-3.01855 -0.0683,0.81517 1.26991,0.35676 1.97711,0.83483 -0.0365,-0.74208 -0.721,-1.24896 -0.97492,-1.1976 1.5071,-0.45506 2.23611,-0.37329 2.56033,-0.27631 0.15089,-0.99141 1.23639,-1.81449 2.0355,-2.09003 -0.73448,1.58119 2.24915,1.54947 2.45506,2.1151 0.8174,-1.18408 -0.11592,-3.10766 -0.89477,-3.05821 1.47502,-0.21346 3.89462,-1.32635 3.53694,0.83744 1.04393,-0.4431 1.88529,-2.55116 1.27138,-2.95843 2.80862,-0.42961 1.83536,1.45406 1.4206,1.96423 0.58185,-1.13814 2.02749,-1.23669 2.16954,-0.54535 0.55878,-1.37166 1.62832,-0.72687 2.25064,-0.89208 0.62232,-0.16521 1.98793,-0.32101 2.14624,-1.65012 0.82775,0.99244 -0.70124,3.28434 -1.44702,3.50385 2.34405,-0.82978 3.56034,-1.85695 3.98869,-3.24479 0.62155,0.23878 0.39694,1.22294 0.14528,1.62554 0.71662,-0.22283 1.47953,-1.5502 1.07435,-1.90301 1.28223,0.71048 -0.0849,2.95977 -0.33415,3.18816 1.88449,-0.95908 3.74349,-0.82258 4.60227,-0.74654 -1.01626,0.19252 -3.08764,1.98665 -3.83487,2.14897 2.26531,-0.19679 5.38412,-0.97144 4.55321,0.83811 0.6771,-0.4624 2.83971,-1.24158 3.31701,-0.9218 0.46662,-0.52954 -0.53805,-0.67652 -0.21734,-1.20972 0.38756,0.69238 3.71745,-0.72389 3.52123,2.06645 1.68705,-0.72596 2.6259,1.66721 2.52632,2.75408 0.6732,-0.48476 1.90695,0.58457 1.80491,1.72212 0.68111,-0.72143 0.89888,-1.69207 0.68005,-2.33433 0.83187,0.49973 1.49136,0.82568 1.64911,2.43999 0.15774,1.61432 0.59742,4.98143 2.35712,3.87814 0.31553,0.348 -0.49384,1.78115 -0.99646,2.06883 1.23372,-0.0526 2.87948,0.62458 3.45242,-1.11592 -0.2318,1.00359 -0.7248,2.43867 -2.19524,3.49333 2.80961,-0.90801 4.28658,2.28472 4.30536,3.87705 -1.25048,-1.29971 -2.07496,1.76544 -3.17014,1.46735 3.04281,0.61785 2.41425,3.12879 2.95646,4.13522 -1.17648,-0.30323 -2.35057,0.24261 -2.63508,-0.43415 1.73979,1.78643 2.80373,2.67944 2.76133,4.75623 -0.0424,2.07676 1.47633,2.00984 2.33934,0.0419 0.84789,0.40456 -1.70363,3.82947 -2.54513,3.80347 0.60292,0.76198 1.64892,0.72594 2.47119,-0.54496 0.13997,1.31789 -3.10461,4.01463 -4.20542,4.12426 1.18055,0.73779 2.19418,2.3989 4.76047,-0.19483 -1.64433,2.41529 -5.44603,3.67602 -6.08979,2.77365 -0.33862,1.89781 1.46725,3.59363 3.64171,1.96756 -0.41887,1.43594 -3.1638,2.84852 -3.92001,2.77375 0.73096,0.86884 1.21442,2.01147 3.19324,1.10269 -1.482,0.9644 -3.53928,2.32297 -4.07967,2.21104 1.55577,0.35274 -0.33481,4.97239 -2.85629,6.68003 2.31365,-2.70394 1.4313,-4.38124 1.03231,-4.65085 -1.45249,1.84865 -2.44359,2.89656 -2.8084,4.21387 -0.37215,-0.14844 -1.03838,0.0373 -1.28649,0.47381 -0.14609,0.45901 -0.10842,1.04237 0.41765,0.96747 z"
       id="path18821-6"
       style="fill:#ffe680;fill-opacity:1;stroke:#d4aa00;stroke-width:0.5;stroke-linecap:butt;stroke-linejoin:miter;stroke-miterlimit:4;stroke-opacity:1;stroke-dasharray:none;display:inline;enable-background:new" />
  </g>
</svg>
