<?xml version="1.0" encoding="UTF-8" standalone="no"?>
<!-- Created with Inkscape (http://www.inkscape.org/) -->

<svg
   xmlns:dc="http://purl.org/dc/elements/1.1/"
   xmlns:cc="http://creativecommons.org/ns#"
   xmlns:rdf="http://www.w3.org/1999/02/22-rdf-syntax-ns#"
   xmlns:svg="http://www.w3.org/2000/svg"
   xmlns="http://www.w3.org/2000/svg"
   version="1.1"
   width="560"
   height="560"
   id="hair_bangs">
  <g
     transform="matrix(0.62291347,0,0,0.62291347,184.25367,-130.84919)"
     id="g6238"
     style="fill:#ffe580;fill-opacity:1;stroke:#d4aa00;stroke-width:0.80267972;stroke-miterlimit:4;stroke-opacity:1;stroke-dasharray:none;display:inline;enable-background:new">
    <path
       d="m 181.25983,424.72389 c 0,12.5516 -0.29249,31.85606 -1.2154,34.07105 0.92291,-2.39957 2.50747,-7.30661 2.50747,-8.59869 0,5.35289 -1.47191,12.9927 -1.65649,14.65394 0.73833,-1.10749 3.13315,-5.24024 3.13315,-6.53232 -0.55374,6.09122 -1.29207,13.47451 -3.69164,17.71991 1.47666,-1.29208 3.50706,-6.09122 3.69164,-7.01413 0,3.32248 0,8.67537 -2.21498,12.73618 4.24539,-7.01413 6.09121,-18.27365 6.27579,-21.22697 0.18459,-2.95331 0.51778,-34.31057 -0.7071,-44.22307"
       id="path4270-4"
       style="color:#000000;fill:#ffe580;fill-opacity:1;stroke:#d4aa00;stroke-width:0.80267972;stroke-linecap:butt;stroke-linejoin:miter;stroke-miterlimit:4;stroke-opacity:1;stroke-dasharray:none;stroke-dashoffset:0;marker:none;visibility:visible;display:inline;overflow:visible;enable-background:accumulate" />
    <path
       d="m 125.29863,430.8027 c -0.78312,8.61428 -0.26104,28.97531 0,32.36881 0.26104,-2.61039 1.43571,-8.0922 2.08831,-8.87532 -0.70214,9.13208 0.78311,27.14804 4.17662,33.93505 -0.52208,-1.56624 -0.6526,-4.11803 -0.18006,-8.09221 0.79217,2.9929 2.26837,7.04805 4.61772,9.3974 -3.07387,-4.4691 -3.91559,-14.35714 -3.3935,-22.44934 1.04415,1.56623 3.13246,6.78701 3.3935,10.18052 0.52208,-3.13248 -0.51644,-7.94787 -1.65626,-11.67483 -0.89031,-2.91111 -1.34438,-7.0464 -1.08465,-12.21023 0.48357,-9.61396 -1.69675,-17.62012 -2.47987,-27.80063"
       id="path4268"
       style="color:#000000;fill:#ffe580;fill-opacity:1;stroke:#d4aa00;stroke-width:0.80267972;stroke-linecap:butt;stroke-linejoin:miter;stroke-miterlimit:4;stroke-opacity:1;stroke-dasharray:none;stroke-dashoffset:0;marker:none;visibility:visible;display:inline;overflow:visible;enable-background:accumulate" />
    <path
       d="m 170.1973,389.03649 c 1.3052,-0.78312 4.43766,-1.82727 6.52597,-1.82727 -3.65454,-0.52208 -8.0922,-0.26104 -10.70259,0.78311 2.34935,-2.08831 8.35324,-4.69869 9.3974,-4.95973 -4.95974,0 -11.74675,1.04415 -13.05194,1.82727 0.52207,-1.56623 2.08831,-2.87143 3.3935,-3.39351 -2.87143,0.26104 -5.22077,2.08831 -6.26493,3.65455 -0.78312,-1.3052 -2.34935,-2.34935 -3.3935,-3.13247 0.78311,1.82727 1.04415,3.13247 1.04415,4.17662 -7.04805,-2.61039 -16.44544,-1.43571 -22.97141,3.39351 3.13246,-1.3052 8.87532,-2.34935 14.09609,-1.56624 -8.0922,0.78312 -24.43429,5.85527 -33.41297,24.79869 4.43766,-4.95974 10.7026,-12.00778 17.22857,-14.35713 -7.83117,4.17662 -18.02979,16.24299 -18.53376,30.01946 1.82727,-6.00389 4.41528,-11.26516 8.0922,-14.61817 -3.91558,6.26493 -5.22077,11.4857 -6.00389,18.53375 0.6526,-4.56818 4.95974,-11.74674 6.00389,-12.7909 -2.47987,4.56818 -6.26493,24.01557 13.83506,32.89089 -3.13247,-2.34935 -12.00778,-7.30909 -12.26882,-21.66622 1.04415,9.91947 4.43766,16.1844 13.83505,18.01168 -4.82921,-2.08832 -7.83116,-6.52597 -9.65843,-11.74675 3.91558,6.00389 4.43766,7.57013 12.26882,10.44155 -6.52597,-3.78506 -7.43961,-5.35129 -9.65844,-10.44155 2.61039,5.48181 9.65844,8.0922 14.0961,8.35324 -5.22078,-1.56623 -14.09609,-6.0039 -11.22467,-20.36103 1.04416,7.30909 4.43766,14.35714 9.65844,15.92337 -4.17662,-6.78701 -5.5042,-12.7909 -3.13247,-25.84284 1.98495,11.82345 6.58457,16.12581 13.08815,18.99724 -5.70236,-6.95324 -5.88242,-14.29854 -5.77906,-17.95308 4.6987,12.75041 13.05194,15.92336 13.05194,15.92336 -0.26104,-2.08831 -1.04416,-4.6987 -1.30519,-6.00389 1.86776,1.78678 3.99655,6.10725 4.95973,9.65844 1.04416,-4.95974 -0.52208,-12.26883 -3.65454,-19.31688 3.13246,3.65455 6.26493,10.44156 6.52597,13.05194 0.52208,-3.13246 -1.04416,-9.65843 -2.61039,-13.31297 4.17662,6.787 7.30909,10.18051 8.35324,12.00778 -0.52207,-2.61039 -2.61038,-9.65844 -3.91558,-11.22467 3.13247,5.48182 6.78701,9.13636 6.78701,13.31298 1.04416,-2.34935 1.98923,-9.17685 0.78312,-14.09609 4.63582,7.00755 1.56623,21.14414 -2.87143,29.23634 4.17662,-3.65454 9.3974,-6.52597 9.65844,-25.05972 0.26103,11.22466 -1.82728,19.31687 -2.61039,20.8831 2.87142,-2.61039 7.04805,-8.87532 6.00389,-20.8831 0.78312,5.22077 1.30519,15.40129 0.78312,19.83895 0.78311,-1.3052 2.61038,-5.22078 2.87142,-7.83117 0.78312,1.04416 0.78312,6.26493 0.26104,7.57013 2.61039,-5.48182 2.61039,-14.61818 1.82727,-19.05584 1.3052,1.56624 2.34935,3.39351 2.87143,4.17662 0.26104,-4.17662 -1.56623,-15.92336 -2.87143,-19.05583 2.08831,0.78312 4.95974,5.48182 4.6987,10.18052 0.78312,-5.22078 -1.68917,-11.64526 -3.3935,-13.83506 -2.81283,-3.61405 -7.76829,-12.7909 -22.71038,-13.31298 z"
       id="path4266"
       style="color:#000000;fill:#ffe580;fill-opacity:1;stroke:#d4aa00;stroke-width:0.80267972;stroke-linecap:butt;stroke-linejoin:miter;stroke-miterlimit:4;stroke-opacity:1;stroke-dasharray:none;stroke-dashoffset:0;marker:none;visibility:visible;display:inline;overflow:visible;enable-background:accumulate" />
    <path
       d="m 129.73629,406.52609 c -5.81956,9.91947 -3.73125,22.19257 0,29.75842 -2.2055,-10.32008 0.8236,-21.83245 6.00389,-26.88699 -0.78312,2.34935 -2.97051,7.79067 -1.82727,10.18051 1.34568,-2.83094 3.3935,-5.48182 4.6987,-6.26493"
       id="path4272"
       style="color:#000000;fill:#ffe580;fill-opacity:1;stroke:#d4aa00;stroke-width:0.80267972;stroke-linecap:butt;stroke-linejoin:miter;stroke-miterlimit:4;stroke-opacity:1;stroke-dasharray:none;stroke-dashoffset:0;marker:none;visibility:visible;display:inline;overflow:visible;enable-background:accumulate" />
    <path
       d="m 146.44277,392.95207 c -1.82727,0 -4.43766,1.82727 -5.74285,2.61039 3.65454,-0.26104 5.74285,0.78312 7.04804,0.52208 -6.1967,1.07827 -9.94568,3.77195 -12.26882,6.78701 3.13247,-1.82728 3.25393,-0.64355 4.29809,-0.90459 -1.56624,0.78312 -4.55913,4.29809 -4.55913,4.29809 1.82727,-0.78312 3.39351,-1.30519 3.39351,-1.30519"
       id="path4274"
       style="color:#000000;fill:#ffe580;fill-opacity:1;stroke:#d4aa00;stroke-width:0.80267972;stroke-linecap:butt;stroke-linejoin:miter;stroke-miterlimit:4;stroke-opacity:1;stroke-dasharray:none;stroke-dashoffset:0;marker:none;visibility:visible;display:inline;overflow:visible;enable-background:accumulate" />
  </g>
</svg>
