<?xml version="1.0" encoding="UTF-8" standalone="no"?>
<!-- Created with Inkscape (http://www.inkscape.org/) -->

<svg
   xmlns:dc="http://purl.org/dc/elements/1.1/"
   xmlns:cc="http://creativecommons.org/ns#"
   xmlns:rdf="http://www.w3.org/1999/02/22-rdf-syntax-ns#"
   xmlns:svg="http://www.w3.org/2000/svg"
   xmlns="http://www.w3.org/2000/svg"
   xmlns:xlink="http://www.w3.org/1999/xlink"
   version="1.1"
   width="560"
   height="560"
   id="hair_down_1_of_3">
  <g
     transform="translate(0,-492.36218)"
     id="layer1">
    <path
       d="m 288.15004,602.63083 c 1.47412,0.0106 3.60933,0.58998 5.10489,1.49625 2.33387,1.41428 3.81339,6.13055 4.59047,6.47853 8.48964,3.80168 0.36324,19.8566 5.07814,30.54929 1.54075,1.62191 5.53363,3.574 6.14115,4.88584 1.64368,3.54927 -0.87747,8.38163 2.74293,11.87616 3.80816,3.67578 4.64084,5.76039 1.97061,11.10083 1.2461,-3.91633 1.60264,-6.0448 -2.31369,-9.42709 -3.91634,-3.38229 -4.37344,-8.01213 -4.45511,-9.96859 -0.20703,-4.96014 -3.96455,-6.41823 -5.68579,-7.6549 -13.29778,-9.55409 2.05724,-16.91927 -10.26415,-24.76149 -3.35256,-2.13381 -8.72632,-0.43506 -8.72632,-4.88584 0,-0.9036 -0.0704,-5.89884 -0.0704,-8.87843 1.79024,-0.84157 4.28859,-0.82205 5.88727,-0.81056 z"
       id="path4042"
       style="fill:#ffd42a;fill-opacity:1;fill-rule:evenodd;stroke:#d4aa00;stroke-width:1;stroke-linecap:butt;stroke-linejoin:miter;stroke-miterlimit:4;stroke-opacity:1;stroke-dasharray:none;stroke-dashoffset:0;marker:none;visibility:visible;display:inline;overflow:visible;enable-background:accumulate" />
    <path
       d="m 291.00058,614.93571 c -1.04084,-0.86253 -7.11642,-5.45769 -8.61433,-4.11147 0,-1.71598 -0.0934,-3.36816 -0.0934,-5.47811 3.40092,-1.82434 6.85079,-0.8774 10.78147,2.25713 -0.54785,-0.19927 -3.08522,-1.56415 -4.18622,-1.74921 0.92311,0.73836 1.89529,1.70177 2.93083,2.94206 1.93897,2.87423 4.44668,0.0987 8.46985,6.81622 -3.22534,-3.72589 -6.22721,-1.15158 -10.10595,-3.67619 -1.07143,-0.69738 -3.91335,-3.6562 -6.17634,-1.89242 5.14805,-1.33016 7.06926,6.65771 13.83406,5.65832 -2.54164,0.5423 -5.28832,0.80537 -6.83998,-0.76633 z"
       id="path4077"
       style="fill:#d4aa00;fill-opacity:1;fill-rule:evenodd;stroke:none;stroke-width:0.30728862;marker:none;visibility:visible;display:inline;overflow:visible;enable-background:accumulate" />
    <path
       d="m 276.73928,603.74131 c -2.1517,-0.0692 -4.77098,0.89075 -7.54778,3.84111 5.88103,-4.10042 9.43377,-1.65666 11.84982,-0.42253 -3.94497,-0.67343 -8.15054,0.28363 -11.40809,2.78481 -2.37592,1.82425 -3.03521,5.59747 -5.16629,7.93189 2.24471,-1.97195 3.08075,-5.87557 5.68484,-7.6246 3.09786,-2.08067 6.94996,-2.71491 10.54384,-0.78743 -9.11066,-1.77028 -11.39773,4.30532 -11.81141,6.56829 -0.41353,2.26219 -5.28751,3.97858 -7.39413,13.00215 2.73347,-8.82822 8.838,-7.99635 10.4094,-13.82798 2.04725,-7.59752 7.34683,-4.12918 10.40941,-3.74509 1.8e-4,-1.59962 -3.5e-4,-3.09028 0,-4.5325 -0.18819,-0.55165 -0.33746,-1.03588 -1.53645,-1.57486 -0.95735,-0.87033 -2.35961,-1.55945 -4.03316,-1.61326 z"
       id="path4063"
       style="opacity:0.2;fill:url(#radialGradient12076);fill-opacity:1;fill-rule:evenodd;stroke:none;stroke-width:0.5;marker:none;visibility:visible;display:inline;overflow:visible;enable-background:accumulate" />
    <path
       d="m 299.3509,638.58087 c -5.47982,-7.45256 -2.63031,-10.95964 -1.97273,-13.58996 0.65757,-2.63031 1.09596,-10.95964 -4.16467,-11.17883 7.89094,-1.97274 7.67175,6.1374 5.47982,12.2748 -2.19193,6.1374 -1.75354,8.32932 0.65758,12.49399 z"
       id="path31970"
       style="fill:#d4aa00;fill-opacity:1;stroke:none;display:inline;enable-background:new" />
    <path
       d="m 301.32364,619.51109 c 0,5.47982 -4.60305,15.12431 1.97273,22.57686 -9.42529,-8.32932 -2.8495,-13.15157 -1.97273,-22.57686 z"
       id="path31990"
       style="fill:#ffe580;fill-opacity:1;stroke:none;display:inline;enable-background:new" />
    <path
       d="m 282.30537,603.5791 c -1.9081,-1.56248 -8.60285,-2.45758 -14.46589,4.21986 -4.89821,5.57858 -6.86126,12.41632 -7.65067,19.53181 -1.46523,13.20704 -6.96521,8.60715 -10.49605,20.11666 -1.0139,3.30501 -2.75493,11.57336 -6.35166,10.21958 7.25391,0.86701 7.57213,-13.41347 13.54186,-15.35951 -0.13587,3.11829 -3.02318,7.31933 -3.73658,8.05054 -1.25703,1.28845 -2.82469,5.07556 -1.27301,6.82486 1.55032,1.74776 -0.14932,3.4953 -1.63295,4.53843 -0.96914,0.68138 -1.6953,4.07801 0.58781,6.28869 6.05988,5.86766 -4.83544,5.67512 -1.36508,14.88854 -1.93736,-7.138 5.33499,-7.3979 6.09987,-11.11232 0.67047,1.85317 -0.0609,5.28237 -0.91318,7.81079 -1.48958,4.41924 1.79013,5.66389 -1.58252,7.61802 -1.34909,0.78166 -2.6115,2.97621 -3.37676,7.02699 0.99458,-2.91044 3.73255,-4.35594 4.64784,-5.00124 3.67679,-2.59224 1.46929,-7.12229 2.39513,-8.86496 1.4218,-2.67619 4.21884,-4.00755 0.73583,-11.05946 7.31811,6.84216 2.96498,15.72471 1.49309,18.17721 -1.47082,2.45077 -2.95958,5.6899 -0.19924,10.81917 -1.99278,-3.74617 0.71357,-7.69042 3.52219,-11.02387 2.56236,-3.04119 4.09728,-7.21651 4.53076,-12.31744 1.34701,1.74033 2.99379,4.08388 3.2457,6.78374 0.25946,2.78078 -0.0686,7.29448 5.10045,9.98163 -3.87329,-5.27203 -1.24235,-7.50056 -2.06737,-12.17312 -1.20615,-6.83112 -1.68105,-8.88984 -5.09211,-12.89838 2.71891,2.29534 5.84952,4.9375 7.40028,11.64077 0.72515,-10.79429 -9.3981,-13.40058 -6.83978,-21.78883 0.64346,-2.10978 1.19567,-6.30059 0.0665,-9.9767 -1.12917,-3.67592 0.0695,-5.94586 0.53503,-7.70196 0.77343,-2.91734 3.50091,-7.26389 4.58019,-14.70453 1.67058,-7.81444 4.56109,-10.76262 8.11616,-9.89785 2.04469,0.49737 0.44264,0.0517 0.44264,-1.44319 0,-3.48677 10e-4,-6.02508 10e-4,-9.21393 z"
       id="path32156"
       style="fill:#ffd42a;fill-opacity:1;fill-rule:evenodd;stroke:#d4aa00;stroke-width:1;stroke-linecap:butt;stroke-linejoin:miter;stroke-miterlimit:4;stroke-opacity:1;stroke-dasharray:none;stroke-dashoffset:0;marker:none;visibility:visible;display:inline;overflow:visible;enable-background:accumulate" />
    <path
       d="m 269.71772,623.22294 c -4.40311,5.58976 -7.76197,11.53904 -7.40703,18.20374 0.43631,8.19246 1.98184,8.27982 0.36307,13.42723 -1.13499,3.60907 -1.81518,6.80894 -0.65288,10.31463 -2.96268,-5.33753 -1.77339,-10.68111 -1.35726,-13.56007 0.41651,-2.88156 0.0537,-6.61447 -0.49511,-8.47419 -0.3818,3.57212 -4.83486,8.59924 -1.94412,14.10129 -2.97242,-5.07758 -0.69908,-9.11685 0.0163,-10.77499 0.71505,-1.65741 2.25023,-7.24841 2.17741,-10.14523 -0.0728,-2.89569 1.84565,-10.95224 3.12736,-12.39801 -1.77698,3.48743 -3.37769,6.56717 -3.99476,9.24113 1.02844,-6.17067 4.02585,-11.09621 5.63644,-12.53168 -1.29375,2.8871 -4.30644,12.7437 -4.06637,18.31871 0.81498,-5.93829 4.68273,-13.07355 8.59695,-15.72256 z"
       id="path4065"
       style="fill:#d4aa00;fill-opacity:1;fill-rule:evenodd;stroke:none;stroke-width:0.5;marker:none;visibility:visible;display:inline;overflow:visible;enable-background:accumulate" />
    <path
       d="m 264.98508,630.45769 c -3.64065,6.42468 -3.21234,9.63702 -1.9274,12.42104 1.28493,2.78403 4.7031,6.27802 1.83157,14.41346 3.38151,-5.64972 0.30999,-14.62761 -0.33248,-16.55501 -0.64247,-1.92741 -1.49909,-6.63884 0.42831,-10.27949 z"
       id="path31850"
       style="fill:#ffe580;fill-opacity:1;stroke:none;display:inline;enable-background:new" />
    <path
       d="m 252.34989,643.30705 c 3.21233,-5.13974 5.32527,-6.39605 6.35079,-8.2782 1.02553,-1.88215 1.57298,-4.14285 2.00129,-5.85609 0.42831,3.64065 -1.35217,7.991 -3.61245,9.60881 -2.4663,1.76527 -4.52548,3.24054 -4.73963,4.52548 z"
       id="path31870"
       style="fill:#ffe580;fill-opacity:1;stroke:none;display:inline;enable-background:new" />
    <path
       d="m 267.76911,645.4486 c -1.92741,-4.71142 -2.99818,-10.49363 -1.71325,-13.0635 1.28494,-2.56987 2.78403,-5.13974 2.78403,-8.13793 0,-2.99818 -2.78403,-8.56623 4.49727,-9.85117 -3.85481,1.71325 -5.13974,3.21234 -3.85481,6.42468 1.28494,3.21234 2.78403,5.99636 0.21416,9.2087 -2.56987,3.21234 -4.49727,6.63883 -1.9274,15.41922 z"
       id="path31872"
       style="fill:#d4aa00;fill-opacity:1;stroke:none;display:inline;enable-background:new" />
    <path
       d="m 252.13573,673.71718 c 1.71325,-2.99818 1.49909,-6.63883 0.21416,-7.49546 -1.28494,-0.85662 -2.78403,-3.64065 -0.85663,-5.13974 1.9274,-1.49909 3.85481,-4.28311 2.14156,-6.21052 -1.71325,-1.9274 -0.64247,-4.71143 1.28494,-6.21052 1.9274,-1.49909 3.8548,-8.13792 4.49727,-10.27948 -0.21416,5.78221 -1.71325,9.63702 -3.64065,11.77857 -1.9274,2.14156 -1.28494,3.4265 -0.21416,4.71143 1.07078,1.28494 2.78403,4.92559 -1.9274,6.63883 -4.71143,1.71325 -0.42831,4.06897 1.07078,5.56806 1.49909,1.49909 -0.21416,5.13974 -2.56987,6.63883 z"
       id="path31882"
       style="fill:#ffe580;fill-opacity:1;stroke:none;display:inline;enable-background:new" />
    <path
       d="m 263.70015,680.35601 c 0.64246,-6.21052 -2.14156,-10.92195 -3.64065,-12.6352 -1.49909,-1.71324 -4.28312,-4.28311 -2.35572,-7.92376 1.9274,-3.64065 1.49909,-6.21052 1.07078,-7.49546 -0.42831,-1.28493 -0.85662,-3.42649 0.42831,-5.13974 -0.64246,2.14156 0,4.28312 0.42831,5.56805 0.42832,1.28494 0.85663,5.99637 -0.85662,8.35208 -1.71325,2.35572 1.28494,4.49728 3.64065,6.42468 2.35572,1.9274 2.99818,7.49545 1.28494,12.84935 z"
       id="path31884"
       style="fill:#ffe680;fill-opacity:1;stroke:none;display:inline;enable-background:new" />
    <path
       d="m 272.90885,669.64822 c -2.45155,-4.77644 -6.94797,-6.01348 -7.2813,-8.56624 -0.59336,-4.54412 3.24901,-3.22899 3.21234,-9.85117 0.42831,4.28312 -1.92741,7.92377 0.21415,11.13611 2.14156,3.21234 2.78403,5.35389 3.85481,7.2813 z"
       id="path31888"
       style="fill:#d4aa00;fill-opacity:1;stroke:none;display:inline;enable-background:new" />
    <path
       d="m 272.05222,680.14185 c -1.28493,-6.85298 -4.28311,-11.56441 -5.56805,-13.0635 -1.28493,-1.49909 -5.83304,-7.18547 -2.96151,-14.29512 -3.404,6.47551 -1.53576,10.86862 1.67658,14.93758 3.21234,4.06897 6.63883,9.85117 6.85298,12.42104 z"
       id="path31890"
       style="fill:#ffe680;fill-opacity:1;stroke:none;display:inline;enable-background:new" />
    <path
       d="m 251.96421,690.39769 c 1.23994,-2.47988 3.09985,-2.47988 3.71983,-4.33979 0.61997,-1.85992 -1.39494,-3.71983 0.15499,-6.5097 1.54993,-2.78987 2.37621,-8.4733 -0.77496,-13.17439 -3.17316,-4.73389 -0.46498,-4.1848 0.92995,-5.57973 1.39494,-1.39494 1.39494,-4.49479 0.15499,-6.97467 2.32489,3.25484 2.32489,4.80477 0.30999,7.59464 -2.01491,2.78987 -0.0964,6.18818 1.70492,8.21462 1.23994,1.39493 -0.61998,8.3696 -1.23994,9.91953 -0.69315,1.73287 0.30998,7.12967 -1.08495,8.05962 -1.39494,0.92996 -2.94486,1.85992 -3.87482,2.78987 z"
       id="path32013"
       style="fill:#d4aa00;fill-opacity:1;stroke:none;display:inline;enable-background:new" />
    <path
       d="m 258.16392,639.40508 c -1.23994,3.71983 -4.3398,2.94486 -7.12967,7.90463 2.78987,-5.42475 4.49479,-6.66469 7.12967,-7.90463 z"
       id="path32039"
       style="fill:#ffe580;fill-opacity:1;stroke:none;display:inline;enable-background:new" />
  </g>
</svg>
