<?xml version="1.0" encoding="UTF-8" standalone="no"?>
<!-- Created with Inkscape (http://www.inkscape.org/) -->

<svg
   xmlns:dc="http://purl.org/dc/elements/1.1/"
   xmlns:cc="http://creativecommons.org/ns#"
   xmlns:rdf="http://www.w3.org/1999/02/22-rdf-syntax-ns#"
   xmlns:svg="http://www.w3.org/2000/svg"
   xmlns="http://www.w3.org/2000/svg"
   version="1.1"
   width="560"
   height="560"
   id="hair_wreckingball">
  <g
     transform="translate(0,-1.0000016)"
     id="g73777"
     style="display:inline;enable-background:new">
    <path
       d="m 297.875,127.75 c -0.49244,0.14685 -1.71266,0.0242 -2.1711,0.15647 0.2807,1.57912 0.69188,3.96828 -0.23471,5.35971 1.03415,1.13249 2.00424,3.60969 1.65581,6.17132 0.47214,-1.7368 0.96794,-2.92661 1.375,-3.84375 -0.012,-2.05713 -0.0651,-4.85164 -0.59375,-7.84375 -0.009,0.003 -0.0223,-0.003 -0.0312,0 z"
       id="path2987-2-6"
       style="opacity:0.5;color:#000000;fill:#ffe580;fill-opacity:1;stroke:#d4aa00;stroke-width:0.5;stroke-linecap:butt;stroke-linejoin:miter;stroke-miterlimit:4;stroke-opacity:1;stroke-dasharray:none;stroke-dashoffset:0;marker:none;visibility:visible;display:inline;overflow:visible;enable-background:accumulate" />
    <path
       d="m 268.28056,125.21906 c -0.59398,-0.0349 -0.30858,-0.40416 -0.93681,-0.34406 -1.1788,4.11683 -1.03476,8.42856 -0.84375,11.03125 0.14723,0.38255 0.33415,0.78211 0.59375,1.25 0.14283,0.5204 0.97611,2.06852 1.06206,2.85949 0.0336,-1.78184 0.12765,-4.93145 0.15554,-5.73757 0.0279,-0.80612 0.19797,-2.18542 1.42501,-2.68642 -0.6646,-1.51347 0.33045,-5.3679 0.73085,-5.97215 -0.48161,-0.24484 -1.34745,-0.35077 -2.18665,-0.40054 z"
       id="path2989-4-6"
       style="opacity:0.5;color:#000000;fill:#ffe580;fill-opacity:1;stroke:#d4aa00;stroke-width:0.5;stroke-linecap:butt;stroke-linejoin:miter;stroke-miterlimit:4;stroke-opacity:1;stroke-dasharray:none;stroke-dashoffset:0;marker:none;visibility:visible;display:inline;overflow:visible;enable-background:accumulate" />
    <path
       d="m 292.1371,126.80977 c 0,0 0.1558,0.73726 -0.29427,2.08812 0,0 0.61368,-0.52046 1.58474,-1.25852 0,0 0.0547,0.65195 -0.18595,1.14111 0.45063,-0.2254 0.87779,-0.73022 1.86449,-1.282 -0.23286,0.5823 -0.28702,1.0558 -0.9007,1.57627 0.73038,-0.24889 1.63164,-0.6997 2.79701,-1.36028 -0.4428,0.31855 -1.64671,1.63889 -1.93428,1.56924 3.5045,-0.76312 4.49119,-1.3149 5.28356,-1.94416 0.79236,-0.62926 1.59142,-3.4163 1.54396,-5.10057 -0.0475,-1.68427 -3.59035,-9.40194 -9.18875,-11.08256 -2.75235,-2.58274 -12.70995,-2.55495 -14.77601,-0.31811 -0.7773,-0.30992 -2.01303,-0.48757 -1.68692,-1.07769 -0.15524,0.38819 -0.41154,0.69108 -0.0849,1.22641 -0.5517,0.14011 -1.59311,0.0399 -1.59311,0.0399 0.21777,0.35688 0.23341,0.54316 0.23341,0.54316 -0.87054,-0.3021 -2.05155,0.1722 -2.4402,0.0172 0.23342,0.54315 5.6e-4,1.12545 0.42048,1.65296 -0.78511,-0.40306 -1.6322,-0.42575 -2.12191,-0.66602 0.20995,0.26375 0.41209,0.43437 0.41209,0.43437 l -1.12684,7.9e-4 c 0.20214,0.17062 0.42773,0.62064 0.42773,0.62064 -0.38083,-0.0618 -0.73038,0.24889 -1.12685,8e-4 0.10889,0.17843 0.0662,0.22892 0.29176,0.67894 -0.80827,-0.11973 -1.51912,0.36199 -1.64364,-0.003 0.2256,0.45002 -0.12396,0.76074 0.35794,0.90787 -0.95598,-0.20113 -1.08106,-1.6913 -0.27306,-2.13429 -0.97525,0.12875 -0.90851,1.48314 -0.58967,1.92533 -0.94816,-0.10799 -1.11902,0.0939 -1.68636,0.0478 0.12453,0.36472 0.0704,0.83822 0.8242,0.86874 -0.93253,0.0783 -0.67622,-0.22462 -1.04924,-0.19331 0.11671,0.27158 0.23342,0.54316 0.48609,0.75643 -0.3342,-0.0657 -0.35374,-0.29858 -0.59469,-0.37215 0.18678,0.54707 0.47854,1.22603 0.78176,1.48195 -0.52071,-0.0501 -1.01043,-0.29035 -1.01043,-0.29035 0.13234,0.45784 0.89065,1.66038 1.14723,1.92022 -0.68012,-0.27118 -0.72284,-0.2207 -1.06877,-0.42614 0.14016,0.55098 0.52489,0.65938 0.68823,0.92704 -0.53635,-0.23635 -0.77338,-0.26335 -1.11149,-0.37566 0.28394,0.58582 0.47436,0.61673 0.73094,0.87656 -0.86663,-0.25552 -1.34043,0.25321 -1.67492,-0.37526 -0.12815,0.15144 0.1329,1.58331 0.49056,1.92845 -0.27194,0.11662 -0.31466,0.1671 -0.69158,0.15185 0.34983,0.252 0.43946,0.76034 0.96408,0.85699 0,0 -0.28858,-0.109 -0.61827,-0.0813 0,0 0.14293,0.12065 0.30246,0.43886 0,0 -0.35991,0.0634 -0.51094,0.24185 0.17038,0.052 0.34628,0.16989 0.48921,0.29054 -0.2527,0.15386 -0.0821,0.60378 0.34668,0.96572 -0.23059,0.41727 -0.64794,0.98287 -0.14175,2.2668 -0.21953,0.54899 -0.88366,2.13012 -0.54765,3.75994 0.33602,1.62981 1.54031,3.31939 0.65071,4.58783 1.87869,-1.35147 0.84498,-2.59111 0.56937,-4.29232 -0.27561,-1.70121 0.23927,-5.06047 3.67366,-5.28243 0.23097,0.37854 0.80272,0.86112 2.81406,1.09021 -0.34075,-0.10403 -1.30812,-0.5534 -1.91303,-1.43112 3.68313,2.74161 5.74818,0.446 6.59987,0.30819 -0.40117,-0.0327 -0.5441,-0.15329 -1.2035,-0.0979 0.64281,-0.25292 2.66483,-0.68793 3.75302,-0.38136 -0.41775,-0.23022 -1.149,-1.03101 -0.95158,-1.84343 0.35733,0.30161 0.25862,0.70782 0.61044,0.94357 -0.0991,-0.3896 -0.11056,-1.31713 0.47736,-1.4328 -0.10384,1.13617 0.47343,1.6846 1.02858,1.9696 -0.38497,-0.63089 -0.567,-2.00834 0.32851,-2.41512 -0.41182,0.63146 0.0118,1.72335 0.4904,2.67799 -0.11016,-0.52131 0.0434,-1.06478 0.5599,-1.24077 -0.2302,1.2131 1.35274,1.87608 2.14954,1.87552 -0.23098,-0.37854 -0.15438,-1.04818 0.64795,-0.98288 -0.10424,0.34035 -0.043,1.8606 1.5782,2.18876 -0.98396,-0.64694 -0.6436,-1.33872 0.64202,-1.84456 0.24756,0.57611 -0.0707,1.53132 1.25404,2.2823 -0.31352,-0.57058 -0.92947,-1.58001 0.0209,-2.12403 0.18716,0.6475 0.53346,0.95337 0.55044,1.94676 0.27995,-0.62039 1.34562,-1.50903 1.77955,-1.87705 -0.1149,1.00446 -0.34089,1.61227 -0.75619,2.47378 0.54853,-0.21753 1.10421,-0.70095 1.63515,-1.30355 0,0 0.0107,0.82242 -0.1838,1.47782 0.35694,-0.49421 1.12433,-0.55724 1.39893,-1.13475 z"
       id="path2991-5-6"
       style="color:#000000;fill:#ffe580;fill-opacity:1;stroke:#d4aa00;stroke-width:0.5;stroke-linecap:butt;stroke-linejoin:miter;stroke-miterlimit:4;stroke-opacity:1;stroke-dasharray:none;stroke-dashoffset:0;marker:none;visibility:visible;display:inline;overflow:visible;enable-background:accumulate" />
    <path
       d="m 296.8707,119.61667 c -0.2606,-4.6869 -2.77152,-9.40469 -13.66693,-9.6745 7.73352,0.766 10.84497,4.58648 13.66693,9.6745 z"
       id="path3012-2-2"
       style="color:#000000;fill:#ffd42a;fill-opacity:1;stroke:none;marker:none;visibility:visible;display:inline;overflow:visible;enable-background:accumulate" />
    <path
       d="m 294.53641,112.38192 c 4.57431,4.65642 6.25435,8.03244 6.27765,10.68331 0.0233,2.65088 -1.08018,3.66929 -3.75258,5.2006 1.52724,-1.03765 2.5864,-2.21816 3.17211,-4.69885 -0.27562,0.90077 -1.3115,2.513 -2.30082,2.89354 0.43108,-0.45825 1.28337,-2.02866 1.31017,-2.82815 -0.23285,0.5823 -1.08733,2.1533 -2.07765,3.22124 1.24635,-1.93355 1.14478,-4.27007 -1.14158,-7.45466 2.74536,4.17777 1.40125,6.63891 -0.29991,8.18858 2.19031,-2.43485 1.57899,-5.29421 -0.22911,-7.81551 0.79377,2.18438 1.22855,5.15612 0.60762,6.7089 0,0 0.0214,-0.84646 -0.26644,-1.47885 -0.14741,0.48134 -0.11495,0.89482 -0.67418,1.50451 0.24821,-0.95875 0.66665,-3.23803 0.11021,-4.83268 0.33197,3.39554 -0.28191,4.47481 -0.74007,5.1698 0.1745,-0.71808 0.56336,-2.24817 0.43883,-2.61288 -0.15132,0.43477 -0.48668,2.56975 -1.25168,3.52499 0.23676,-0.53573 0.76763,-3.16329 0.82152,-4.19952 -0.33784,0.45042 -0.86392,2.04284 -1.73781,2.81963 2.21236,-4.96908 1.31524,-7.27857 -1.02138,-9.94308 2.00298,3.72422 2.71177,4.92596 0.75125,8.42013 0.66309,-2.72873 0.88536,-4.6198 -0.3124,-6.58267 0.20242,0.73334 0.72974,3.64376 -0.39515,7.58365 0.38998,-3.48746 0.42314,-6.90447 -1.58948,-9.71775 1.93241,2.80154 1.51426,7.97882 0.95189,9.32712 0.0736,-1.10047 0.13116,-3.15572 -0.46327,-5.09544 0.12122,0.65303 0.3667,3.91041 -0.30552,5.79066 0.51765,-3.32634 -0.42744,-8.18452 -2.65379,-9.7883 1.11643,1.82959 2.69523,5.57932 0.81497,9.28531 0.28685,-3.30696 -0.88247,-8.51888 -3.67522,-10.93729 4.40176,5.76519 1.58024,9.68494 2.30676,12.01151 -0.84952,-1.02299 -0.30639,-4.05283 -0.31251,-5.3124 -0.006,-1.25959 -0.0673,-3.51218 -3.04408,-5.74935 3.95874,4.44281 2.82683,6.72874 2.5303,7.15156 -0.29652,0.42281 -0.87513,1.52679 -1.36909,2.76202 0.0622,-1.5725 1.51021,-2.98319 1.3409,-4.68725 -0.0214,1.61913 -1.89744,3.14575 -1.73669,5.05803 -0.42091,-1.05896 -0.13781,-2.4414 0.81216,-3.78123 0.95,-1.33984 0.26835,-4.33684 -3.61773,-6.33188 6.2445,3.98566 1.55126,7.43337 1.16708,8.39411 -0.11569,-0.58718 -0.16135,-1.1176 0.57465,-1.84258 -1.03292,0.35198 -1.38575,1.70877 -1.20965,2.22455 -0.70401,-1.26732 0.42847,-2.02348 0.83437,-3.51661 0.4059,-1.49313 0.002,-3.91647 -3.7026,-5.32986 6.23897,3.9198 2.13867,7.2478 1.30357,7.58318 0.98593,-0.91176 1.57093,-1.88311 1.22661,-3.61171 -0.77504,-3.89113 -7.93984,-4.37498 -10.79774,-5.19623 2.20443,1.73827 11.49235,1.62007 9.65395,6.6158 0.14214,-1.471 -0.15101,-2.57415 -2.57499,-3.76342 1.14901,1.03101 2.72506,3.15107 1.23688,5.19929 0.30127,-1.94859 -0.92025,-4.56092 -3.79473,-5.57974 1.67652,0.98673 1.56154,1.1973 2.1775,2.20673 -0.69809,-0.40565 -1.85937,-0.83941 -2.13419,-0.94899 0.37945,0.56504 1.26047,0.81802 1.26047,0.81802 -0.85721,0.072 -1.38338,-0.68222 -5.53244,-1.06348 1.20943,0.95962 2.45304,1.51859 3.39831,1.70453 -0.42328,-0.29608 -0.6946,-0.40542 -1.25529,-0.75628 1.85736,-0.0233 1.92862,0.90113 2.61566,1.17507 -0.31864,0.15938 -0.53282,-0.0181 -1.00546,-0.11103 -0.0272,0.46653 -0.0546,0.86803 0.30827,1.2355 -1.09372,-0.37244 -5.66828,-2.58129 -7.70253,-4.66545 0.7589,1.13007 1.92365,2.36128 1.92365,2.36128 -1.32471,-0.75097 -3.47219,-1.82864 -3.76358,-2.13578 1.28088,1.01994 3.21519,4.50086 6.8736,4.32642 -0.72553,-0.33703 -2.89349,-1.25601 -3.85533,-1.63952 1.9431,-0.48804 2.96502,0.34244 3.96026,0.98226 0.90944,0.58687 1.95051,1.19596 3.70128,1.18165 -2.16294,0.22434 -6.49165,0.1198 -7.7433,-0.80684 -1.25164,-0.92665 -1.54735,-1.08956 -2.42934,-0.96863 1.09977,0.23596 0.33939,2.36037 8.91498,2.15641 -1.37924,0.35025 -4.58127,0.24594 -5.53333,0.0914 1.6012,0.61593 4.87616,0.43602 5.86704,0.49353 -0.57097,0.47 -4.57943,0.8071 -6.2429,0.009 2.36705,1.34888 5.37883,0.29612 6.22983,0.36537 -0.86998,0.82336 -4.33958,0.92493 -4.91473,0.78562 0.5637,0.56233 2.0176,0.53384 2.72872,0.61484 -0.96351,0.26846 -1.81705,0.15534 -2.194,0.13975 0.63379,0.83782 1.76567,0.36844 2.10378,0.48075 -1.18101,0.4743 -1.92395,0.5322 -3.53353,-1.30233 -1.60958,-1.83452 -3.44366,-4.58673 -4.64338,-2.65709 0.73038,-0.24889 1.14089,0.13519 1.14089,0.13519 -0.7033,0.0121 -1.63575,0.0901 -1.93449,1.00626 0.83508,-0.67974 2.22761,-0.32543 3.0518,0.5433 -0.4939,-0.84957 -0.9809,-1.08525 -1.3151,-1.15099 1.38315,-0.30368 2.31798,1.39955 3.35605,2.5786 1.03806,1.17907 2.24453,2.10732 4.67691,1.99694 -0.32219,0.63669 -2.95947,0.53053 -5.57194,-2.06394 0.99535,1.22954 1.32422,1.81436 1.7285,2.15559 -1.68664,-0.51496 -1.79751,-1.34929 -2.41929,-1.48468 -0.62178,-0.13539 -1.80356,-0.17936 -2.42506,0.24797 0.62904,-0.89693 2.09454,-0.7404 2.522,-0.68249 -0.21778,-0.35689 -1.66352,-0.32476 -2.49888,-0.20775 1.09167,-0.4199 1.60772,-0.37726 1.89139,-0.35418 -1.61741,-1.92766 -2.41255,-1.85307 -2.59794,0.41349 0.18231,-0.62494 0.73903,-0.76626 1.02269,-0.74318 -0.57096,0.46999 -0.92101,0.82323 -1.13042,1.68493 0.25042,-0.33937 0.71239,-0.58362 1.18315,-0.73888 -0.37263,0.18113 -0.70608,0.67183 -0.79788,1.40829 0.57488,-0.42341 1.53751,-0.17757 1.9777,0.0383 -2.26676,0.43498 -2.92633,1.67857 -2.85829,3.77532 0.32891,-1.61931 0.83058,-2.72217 1.93497,-3.01384 -1.24653,1.76266 -2.08979,2.82163 -0.98895,6.44319 0.0138,-0.28198 -0.0401,-0.93466 -0.0303,-1.73851 -0.0277,-0.12264 -0.0546,-0.23918 -0.0753,-0.36677 -0.26938,-1.6628 0.21578,-4.91062 3.44489,-5.26359 0.0663,-0.0156 0.13205,-0.0303 0.20091,-0.0435 0.004,0.009 0.007,0.0172 0.0111,0.0257 0.006,-3.7e-4 0.0117,-0.001 0.0176,-0.001 0.23098,0.37854 0.80151,0.85836 2.81286,1.08745 -0.34075,-0.10403 -1.31165,-0.55144 -1.91656,-1.42916 3.68314,2.7416 5.74686,0.44557 6.59855,0.30776 -0.40117,-0.0327 -0.54111,-0.15888 -1.2005,-0.10353 0.64281,-0.25292 2.66898,-0.68414 3.75718,-0.37753 -0.41774,-0.23022 -1.15295,-1.03497 -0.95553,-1.84739 0.35734,0.30161 0.26103,0.70769 0.61284,0.94344 -0.0991,-0.3896 -0.11138,-1.31006 0.47623,-1.4257 -0.10384,1.13617 0.47257,1.68068 1.02772,1.96568 -0.38498,-0.63089 -0.56477,-2.01049 0.33074,-2.41726 -0.41182,0.63145 0.013,1.72227 0.49152,2.67692 -0.11016,-0.52133 0.0379,-1.06085 0.55434,-1.23684 -0.23019,1.21309 1.35257,1.8721 2.14937,1.87153 -0.23099,-0.37853 -0.15512,-1.04344 0.64721,-0.97814 -0.10424,0.34035 -0.0414,1.85767 1.57984,2.18583 -0.98396,-0.64693 -0.63958,-1.33386 0.64605,-1.8397 0.24756,0.57611 -0.0753,1.52478 1.24941,2.27575 -0.31351,-0.57057 -0.92348,-1.57237 0.0269,-2.11639 0.18716,0.6475 0.52864,0.95059 0.54562,1.94397 0.27994,-0.62038 1.34703,-1.51362 1.78096,-1.88166 -0.1149,1.00446 -0.33715,1.61781 -0.75245,2.47932 0.54854,-0.21754 1.10236,-0.70705 1.63331,-1.30964 0,0 0.008,0.82598 -0.18695,1.48137 0.35694,-0.4942 1.12474,-0.55261 1.39934,-1.13011 0,0 0.15376,0.73485 -0.29631,2.08571 0,0 0.61297,-0.52304 1.58402,-1.26109 0,0 0.0606,0.65409 -0.17976,1.14322 0.45063,-0.22541 0.87112,-0.73229 1.85781,-1.28408 -0.23285,0.5823 -0.28569,1.05624 -0.89937,1.57671 0.73039,-0.24889 1.63744,-0.70282 2.80281,-1.36339 -0.38745,0.27872 -1.36303,1.32575 -1.79217,1.53617 3.37416,-0.74495 4.36076,-1.28656 5.14087,-1.90609 0.79237,-0.62925 1.58468,-3.4192 1.53722,-5.10347 -0.0305,-1.07991 -1.49308,-4.63848 -4.01797,-7.49747 -1.21466,-0.95116 -2.39784,-1.75775 -3.33754,-2.35808 z m 5.69718,11.18506 c 0.0285,-0.0932 0.0475,-0.17796 0.0588,-0.25365 -0.0189,0.0878 -0.0387,0.16893 -0.0588,0.25365 z m -5.04552,5.69109 c -0.0436,0.009 -0.0777,0.0183 -0.12217,0.028 0.03,0.007 0.0742,-0.008 0.12217,-0.028 z"
       id="path3018-7-0"
       style="color:#000000;fill:#ffd42a;fill-opacity:1;stroke:none;marker:none;visibility:visible;display:inline;overflow:visible;enable-background:accumulate" />
    <path
       d="m 275.16404,118.15184 c -1.83825,-0.64293 -4.39878,-0.38111 -5.35504,-1.14497 1.8885,0.12286 4.01768,-0.24344 5.38966,0.43862 -0.57515,-0.1393 -1.70591,-0.18508 -2.07501,-0.1072 1.14639,0.23205 1.4108,0.58502 2.04039,0.81355 z"
       id="path3050-5-7"
       style="color:#000000;fill:#ffd42a;fill-opacity:1;stroke:none;marker:none;visibility:visible;display:inline;overflow:visible;enable-background:accumulate" />
    <path
       d="m 266.57532,115.40246 c 0.90544,0.15848 1.27092,0.59676 2.1141,0.57288 -1.19665,0.28803 -2.16798,0.46335 -2.56054,0.26181 1.07269,0.47272 4.51493,-0.47276 5.99943,-0.12842 -2.2308,-0.84445 -2.56472,-0.34746 -3.14769,-0.57991 -0.58297,-0.23243 -2.4053,-0.12637 -2.4053,-0.12637 z"
       id="path3052-0-7"
       style="color:#000000;fill:#ffd42a;fill-opacity:1;stroke:none;marker:none;visibility:visible;display:inline;overflow:visible;enable-background:accumulate" />
    <path
       d="m 268.71594,114.61314 c 1.27063,0.034 2.54127,0.0681 4.22428,1.09919 -1.68273,-0.4684 -3.74238,-0.95206 -4.22428,-1.09919 z"
       id="path3054-5-9"
       style="color:#000000;fill:#ffd42a;fill-opacity:1;stroke:none;marker:none;visibility:visible;display:inline;overflow:visible;enable-background:accumulate" />
    <path
       d="m 292.74547,115.59748 c 1.20112,0.884 2.06105,3.29729 2.28329,4.82621 -1.01908,-2.07167 -1.62186,-3.09968 -2.28329,-4.82621 z"
       id="path3056-7-8"
       style="color:#000000;fill:#ffd42a;fill-opacity:1;stroke:none;marker:none;visibility:visible;display:inline;overflow:visible;enable-background:accumulate" />
    <path
       d="m 293.92704,116.24864 c 0.99898,0.71337 1.10423,1.40798 1.26003,2.14524 -0.45873,-0.43046 -0.99563,-1.79227 -1.26003,-2.14524 z"
       id="path3058-6-3"
       style="color:#000000;fill:#ffd42a;fill-opacity:1;stroke:none;marker:none;visibility:visible;display:inline;overflow:visible;enable-background:accumulate" />
    <path
       d="m 292.67986,116.49401 c -2.90479,-4.39887 -6.3783,-3.82594 -9.33614,-5.50039 2.73978,0.75484 3.95597,0.69965 5.18026,1.30032 -3.19096,-1.65488 -6.22585,-2.00979 -7.26727,-2.10996 0.95961,-0.31502 1.12266,-0.61009 2.19897,-0.65354 -2.92964,0.3397 -4.01376,0.29003 -4.89156,1.02024 1.66291,-0.32717 2.91428,0.0368 3.50115,0.31577 -0.57905,-0.18588 -1.42224,-0.162 -1.93513,-0.11894 4.32563,1.74723 8.51445,1.86458 12.54972,5.7465 z"
       id="path3060-2-3"
       style="color:#000000;fill:#ffd42a;fill-opacity:1;stroke:none;marker:none;visibility:visible;display:inline;overflow:visible;enable-background:accumulate" />
    <path
       d="m 289.67596,115.94892 c -2.58538,-2.83122 -6.79403,-3.74414 -8.86931,-4.41408 2.54936,0.72394 6.70468,3.79855 7.66094,4.5624 -1.64449,-1.6909 -2.50358,-2.41602 -2.50358,-2.41602 1.25918,0.45706 3.04327,1.57349 3.71195,2.2677 z"
       id="path3062-3-7"
       style="color:#000000;fill:#ffd42a;fill-opacity:1;stroke:none;marker:none;visibility:visible;display:inline;overflow:visible;enable-background:accumulate" />
    <path
       d="m 283.86248,114.93623 c -0.52518,-1.22211 -1.34546,-2.04428 -3.30041,-2.95879 1.0227,1.55551 2.32098,2.47824 3.30041,2.95879 z"
       id="path3064-6-2"
       style="color:#000000;fill:#ffd42a;fill-opacity:1;stroke:none;marker:none;visibility:visible;display:inline;overflow:visible;enable-background:accumulate" />
    <path
       d="m 276.83562,110.69465 c 0.11308,0.78774 0.95147,1.18334 1.68995,1.59031 -1.65537,-0.14242 -1.78783,-1.11379 -3.36921,-0.93415 0.55589,0.4692 1.25665,0.46238 1.81253,0.93157 -1.74471,-0.088 -1.96711,-0.4947 -3.54849,-0.31506 0.0935,0.5549 0.49016,0.80313 1.26353,1.06649 -0.67203,0.38468 -0.99132,0.41435 -1.60136,0.41866 2.92266,1.25535 4.14484,-0.95998 10.29364,2.36936 -1.15058,-0.84134 -2.02377,-2.17736 -2.63855,-2.82537 -1.2363,-1.3031 -3.27608,-1.55712 -3.90204,-2.30181 z m -1.72654,1.78826 c 1.15058,0.84134 5.15254,0.36752 6.30339,1.77158 -2.32795,-0.8832 -5.20698,-0.45673 -6.30339,-1.77158 z"
       id="path3066-9-5"
       style="color:#000000;fill:#ffd42a;fill-opacity:1;stroke:none;marker:none;visibility:visible;display:inline;overflow:visible;enable-background:accumulate" />
  </g>
</svg>
