<?xml version="1.0" encoding="UTF-8" standalone="no"?>
<!-- Created with Inkscape (http://www.inkscape.org/) -->

<svg
   xmlns:dc="http://purl.org/dc/elements/1.1/"
   xmlns:cc="http://creativecommons.org/ns#"
   xmlns:rdf="http://www.w3.org/1999/02/22-rdf-syntax-ns#"
   xmlns:svg="http://www.w3.org/2000/svg"
   xmlns="http://www.w3.org/2000/svg"
   xmlns:xlink="http://www.w3.org/1999/xlink"
   version="1.1"
   width="560"
   height="560"
   id="hair_down_3_of_3">
  <g
     transform="translate(0,-492.36218)"
     id="layer1">
    <path
       d="m 286.47508,603.11425 c -1.03274,0.0329 -1.95166,0.30569 -3.64279,0.75073 -3.38233,0.89007 -8.5728,6.0753 -9.61174,6.4119 -6.08315,9.13014 -4.27125,22.16837 -5.56604,31.69027 -0.40108,2.94947 -2.00721,4.08949 -1.73409,6.54577 0.22161,1.99291 0.57002,3.56804 -0.48177,5.5258 -1.05216,1.95857 -4.54671,2.79255 -3.29328,8.11478 0.41534,1.76365 -0.55674,5.48839 -1.84643,7.7424 -1.34722,2.35461 0.0602,5.24884 -2.83892,7.74436 -4.43995,3.82188 -8.8402,5.51385 -5.399,10.7935 -3.33832,-6.00566 2.6339,-4.86918 7.10335,-9.27619 3.3905,-3.3431 2.57268,-8.83264 6.46781,-11.19824 -1.76537,4.45038 0.20564,9.09044 -2.78078,11.9254 -2.00709,1.90522 -3.46314,4.6743 -2.46574,7.59923 0.32664,0.95781 2.5819,4.97652 0.2607,6.83056 2.81513,-2.49313 1.13869,-6.57738 0.93975,-7.97713 -0.25265,-1.77763 -0.2049,-2.09816 1.12621,-5.03737 -0.48275,3.81178 2.86326,2.36509 1.98171,5.41382 -0.49935,1.72695 -0.12698,4.35237 1.06278,5.24245 0.58527,-0.28037 1.69409,-1.56395 2.42433,-2.7477 0.71733,-1.16275 2.27301,-0.90853 3.34201,-0.31823 1.54449,0.85284 3.71303,2.44145 2.04304,5.33025 2.38634,-2.85629 -0.4854,-5.61603 -1.96597,-6.62249 -1.3946,-0.94799 -3.62146,-2.89795 -1.10993,-4.76275 3.41158,-2.53306 0.82163,-4.22727 3.08468,-6.73037 0.0295,3.98241 3.03301,6.02676 4.58961,7.37335 3.51495,3.04078 6.04504,6.80452 2.97916,11.9897 3.4275,-4.83365 1.99566,-8.62514 0.71309,-11.24351 -1.65352,-3.37566 -5.28739,-9.83881 -0.47427,-12.61325 0.52405,3.38613 1.45551,6.56131 3.12722,8.36119 0.63246,0.68096 5.09743,3.02834 5.23521,6.77208 0.4535,-3.84979 -3.83637,-7.21947 -4.09154,-8.04916 -2.24198,-7.29037 3.32185,-10.28772 2.59468,-16.07507 -0.19378,-1.54233 -2.60353,-2.21496 -1.89763,-6.13946 0.12931,-0.71896 -0.24571,-2.33434 -0.6466,-2.88195 -1.86942,-16.89691 -2.38486,-29.72135 -3.48698,-41.2791 0.35602,-0.62305 8.09244,-5.07312 8.5779,-8.52868 -2.13984,-0.50351 -3.28695,-0.70982 -4.31974,-0.67689 z"
       id="path3182-9"
       style="fill:#d4aa00;fill-opacity:1;fill-rule:evenodd;stroke:url(#radialGradient50493);stroke-width:0.1742285;stroke-linecap:butt;stroke-linejoin:miter;stroke-miterlimit:4;stroke-opacity:1;stroke-dasharray:none;stroke-dashoffset:0;marker:none;visibility:visible;display:inline;overflow:visible;enable-background:accumulate" />
  </g>
</svg>
