<?xml version="1.0" encoding="UTF-8" standalone="no"?>
<!-- Created with Inkscape (http://www.inkscape.org/) -->

<svg
   xmlns:dc="http://purl.org/dc/elements/1.1/"
   xmlns:cc="http://creativecommons.org/ns#"
   xmlns:rdf="http://www.w3.org/1999/02/22-rdf-syntax-ns#"
   xmlns:svg="http://www.w3.org/2000/svg"
   xmlns="http://www.w3.org/2000/svg"
   version="1.1"
   width="560"
   height="560"
   id="hair_spider">
  <g
     transform="matrix(0.70877308,0,0,0.70877308,26.258979,33.204124)"
     id="g71687"
     style="display:inline;enable-background:new">
    <path
       d="m 362.90489,127.31179 c -2.80026,8.74517 -19.25353,9.44547 -14.93567,35.65624 -4.16614,-8.77072 -3.06978,-19.73413 -1.31562,-23.90024 -6.79738,12.05976 -8.99008,26.09292 -3.06979,41.00316 -5.26248,-8.55146 -7.01664,-10.30561 -7.01664,-24.99658 -1.75417,3.5083 -2.41198,8.11293 -1.75417,11.18268 -3.94686,-8.33218 -5.26248,-17.32218 -3.7276,-24.1195 -2.41197,3.06976 -3.72759,12.71757 -3.50832,16.22585 -2.85051,-6.35878 -1.53489,-18.6378 4.38542,-29.82047 -5.04323,6.13949 -11.40207,17.76072 -10.74425,24.33877 -1.09636,-9.42854 0.21925,-16.66439 10.3057,-30.03975 -7.67447,6.13951 -9.86717,9.64781 -11.18279,12.71756 0.65782,-5.04317 6.35884,-11.40195 11.8406,-16.00658 -3.50833,0.87707 -8.55155,5.70097 -10.52498,7.89365 5.70103,-9.42853 19.9536,-22.58462 36.1796,-18.41853 -2.63124,-2.41195 -6.13956,-4.38537 -7.01665,-5.26244 3.50833,0.65782 7.4552,2.63123 8.113,3.50829 -1.09635,-3.06975 -0.87707,-7.23584 -0.43854,-8.989995 0.43854,2.631225 3.71517,6.025355 3.99322,8.279645 1.74172,-3.53599 6.75103,-5.42915 12.01352,-5.86768 -2.85052,1.53486 -6.79738,4.82389 -7.89373,6.13951 4.16614,-2.1927 16.66455,-3.94684 27.40879,2.85048 -5.9203,-1.75415 -12.05987,-2.19269 -15.5682,-0.43854 11.40206,0.6578 18.19945,7.45512 22.80412,19.29561 -2.63125,-3.06976 -4.82394,-8.77073 -11.18278,-10.08635 5.9203,3.28903 10.52496,10.96342 11.8406,17.10293 -1.31564,-2.19269 -2.19271,-3.28902 -3.0698,-4.1661 1.97344,4.8239 5.2625,14.4717 0.87709,20.17267 1.09635,-6.57804 -0.43854,-13.15609 -1.97344,-15.7873 1.09635,5.4817 0,16.66437 -6.57811,21.48827 1.97344,-4.38535 4.16614,-10.52487 3.28906,-15.7873 -0.43854,7.23585 -6.13957,20.39195 -12.49841,25.87365 3.72759,-6.35878 4.16614,-10.96342 4.16614,-15.34878 -0.65781,4.38536 -2.63125,5.92025 -4.38541,7.23585 2.1927,-5.48171 3.94687,-12.49829 -2.85052,-24.55805 2.19271,10.74415 -1.75416,18.85708 -5.92029,21.92684 10.18727,-27.07872 -8.13733,-20.88967 -10.06115,-29.29747 z"
       id="path4845-8-8"
       style="color:#000000;fill:#ffe580;fill-opacity:1;fill-rule:evenodd;stroke:#d4aa00;stroke-width:0.7054444;stroke-miterlimit:4;stroke-dasharray:none;marker:none;visibility:visible;display:inline;overflow:visible;enable-background:accumulate" />
    <path
       d="m 358.5,98.28125 c -0.43853,1.75415 -0.65885,5.93025 0.4375,9 -0.6578,-0.87706 -4.61667,-2.87343 -8.125,-3.53125 0.87709,0.87707 4.40001,2.8693 7.03125,5.28125 -16.226,-4.16609 -30.48647,8.97771 -36.1875,18.40625 1.97343,-2.19269 7.02292,-6.99793 10.53125,-7.875 -5.48176,4.60463 -11.18593,10.95683 -11.84375,16 1.31562,-3.06975 3.51303,-6.57925 11.1875,-12.71875 -10.08645,13.37535 -11.40886,20.60272 -10.3125,30.03125 -0.65782,-6.57805 5.70677,-18.20426 10.75,-24.34375 -5.92031,11.18267 -7.25676,23.48497 -4.40625,29.84375 -0.21927,-3.50828 1.11928,-13.18024 3.53125,-16.25 -1.53488,6.79732 -0.22811,15.79282 3.71875,24.125 -0.65781,-3.06975 -0.004,-7.6792 1.75,-11.1875 0,14.69097 1.76877,16.44854 7.03125,25 -5.92029,-14.91024 -3.73488,-28.94024 3.0625,-41 -1.75416,4.16611 -2.85364,15.13553 1.3125,23.90625 -4.31786,-26.21077 12.13724,-26.91108 14.9375,-35.65625 1.92382,8.4078 20.24977,2.20253 10.0625,29.28125 4.16613,-3.06976 8.09896,-11.1621 5.90625,-21.90625 6.79739,12.05976 5.0677,19.08079 2.875,24.5625 1.75416,-1.3156 3.71719,-2.86464 4.375,-7.25 0,4.38536 -0.42866,8.98497 -4.15625,15.34375 6.35884,-5.4817 12.06146,-18.63915 12.5,-25.875 0.87708,5.26243 -1.33906,11.42715 -3.3125,15.8125 6.57811,-4.8239 7.6901,-16.0183 6.59375,-21.5 1.5349,2.63121 3.0651,9.20321 1.96875,15.78125 4.38541,-5.70097 1.09844,-15.33235 -0.875,-20.15625 0.87709,0.87708 1.74686,1.96356 3.0625,4.15625 -1.31564,-6.13951 -5.92345,-13.80472 -11.84375,-17.09375 6.35884,1.31562 8.55625,6.99274 11.1875,10.0625 -4.60467,-11.84049 -11.41044,-18.62345 -22.8125,-19.28125 3.50833,-1.75415 9.67345,-1.31665 15.59375,0.4375 -10.74424,-6.79732 -23.27136,-5.03645 -27.4375,-2.84375 1.09635,-1.31562 5.05573,-4.62139 7.90625,-6.15625 -5.26249,0.43853 -10.25828,2.33901 -12,5.875 -0.27805,-2.25429 -3.56146,-5.65003 -4,-8.28125 z m 0.28125,2.4375 c 0.90912,1.82313 2.87906,4.77936 3.53125,6.8125 1.55883,-2.66555 4.21201,-4.718 8.03125,-5.28125 -2.53711,1.36612 -5.44501,4.55603 -6.59375,6.9375 4.22687,-2.98918 14.40038,-5.10982 23.71875,-1.75 -5.26937,-1.56128 -9.03365,0.25123 -12.15625,1.8125 10.14842,1.56372 16.17495,4.59338 21.28125,12.28125 -2.34195,-2.73224 -7.07943,-4.39135 -12.25,-5.03125 9.24673,3.15968 14.61027,10.19176 15.78125,15.65625 -1.78237,-3.90807 -2.87797,-5.18557 -4.6875,-6.375 1.4106,1.87251 6.19387,11.29249 5.5625,19.40625 -0.24698,-5.36568 -2.2752,-10.89544 -4.375,-12.1875 0.18279,2.3618 1.86855,7.15222 -0.5625,14.625 1.5119,-6.59334 -1.55907,-11.12585 -3.5625,-12.875 1.07703,4.97293 1.44639,11.70667 -3.96875,19.03125 C 390.09666,149.2909 388.27673,142.79762 387,140.75 c -0.0667,2.06032 0.0397,7.49318 -1.96875,10.78125 0.16807,-7.65816 -3.4326,-18.21425 -8.34375,-20.15625 3.09049,3.55019 1.60484,17.03951 -1.125,20.75 6.20548,-24.10276 -10.07205,-14.51562 -12.8125,-31.09375 0.46152,13.10248 -13.92718,13.81566 -16.28125,28.6875 -1.01793,-6.09449 0.21996,-10.47946 1.78125,-14.1875 -7.02825,7.30999 -8.74916,17.12168 -9.59375,26.96875 -1.26007,-7.85581 -1.57603,-14.07088 0.625,-22.5 -3.2732,2.14434 -6.30424,12.86152 -5.71875,15.59375 -2.04557,-5.70418 -1.76694,-15.66194 -0.15625,-20 -2.39133,2.24313 -5.27943,7.40465 -6.0625,11.75 C 327.98591,137.52661 331.44254,131.50759 335,124 c -4.00412,2.35408 -8.03896,8.46864 -11.25,14.34375 2.58406,-8.10536 7.05416,-13.40196 10.84375,-18.5625 -6.83067,5.46448 -7.05602,5.3157 -9.4375,7.875 2.31479,-3.62403 6.20645,-6.86004 9.875,-10.09375 -3.12259,0.78064 -6.77479,2.4859 -8.53125,4.4375 6.28473,-7.35431 17.18187,-16.72376 33.09375,-11.71875 -1.56377,-1.88737 -2.99638,-3.23182 -4.46875,-4.53125 3.8143,1.10427 4.66451,2.87561 5.25,3.65625 -0.97581,-2.73224 -1.98406,-7.12622 -1.59375,-8.6875 z"
       id="path4845-8-8-7"
       style="color:#000000;fill:#ffd42a;fill-opacity:1;fill-rule:evenodd;stroke:none;marker:none;visibility:visible;display:inline;overflow:visible;enable-background:accumulate" />
  </g>
</svg>
