<?xml version="1.0" encoding="UTF-8" standalone="no"?>
<!-- Created with Inkscape (http://www.inkscape.org/) -->

<svg
   xmlns:dc="http://purl.org/dc/elements/1.1/"
   xmlns:cc="http://creativecommons.org/ns#"
   xmlns:rdf="http://www.w3.org/1999/02/22-rdf-syntax-ns#"
   xmlns:svg="http://www.w3.org/2000/svg"
   xmlns="http://www.w3.org/2000/svg"
   version="1.1"
   width="560"
   height="560"
   id="hair_down_2_of_3">
  <path
     d="m 287.9528,111.02683 c 0.99038,0.0387 1.87031,0.31668 3.48931,0.77137 3.23739,0.90919 4.85292,6.38469 5.87663,6.72466 5.94409,9.16105 8.11421,22.22781 9.47063,31.76543 0.41998,2.95306 2.03435,4.09515 1.77415,6.55387 -0.21109,1.9947 -0.55244,3.57084 0.50956,5.53016 1.06219,1.95968 4.564,2.79599 3.33246,8.11778 -0.40824,1.7641 0.57682,5.48745 1.87812,7.7383 1.35999,2.35237 -0.0387,5.24161 2.87224,7.7303 4.45328,3.8073 8.85648,5.49304 5.41864,10.75119 3.3326,-6.03333 -2.64304,-4.90871 -7.13096,-9.34599 -3.4085,-3.37003 -2.61384,-8.88445 -6.53606,-11.27791 1.73366,4.42116 -0.18348,9.02835 2.73927,11.83886 1.96525,1.88976 3.38451,4.64189 2.34489,7.54717 -0.34035,0.95112 -2.64437,4.94548 -0.35433,6.78058 -2.85324,-2.51882 -1.12298,-6.63356 -0.9217,-8.04352 0.25567,-1.7909 0.20935,-2.11305 -1.10987,-5.07648 0.50515,3.78349 -2.83408,2.32775 -1.92335,5.35288 0.51614,1.71438 -0.12535,4.90423 -0.99941,5.2012 -0.87406,0.29696 -1.66283,-1.58063 -2.37215,-2.77461 -0.69643,-1.17229 -2.23298,-0.92706 -3.28139,-0.3451 -1.51369,0.84023 -3.65172,2.41776 -1.91611,5.28492 -2.3058,-2.88023 0.62756,-5.6564 2.15112,-6.67292 1.43579,-0.95796 3.70055,-2.9152 1.27214,-4.79796 -3.29434,-2.5541 -0.66322,-4.25578 -2.82712,-6.77423 0.0901,3.96616 -2.81514,5.99721 -4.30637,7.33854 -3.36301,3.02496 -5.85047,6.79318 -2.5763,11.96802 -3.22961,-4.84145 -1.70645,-8.63485 -0.34471,-11.25649 1.75369,-3.37621 5.5091,-9.84098 0.808,-12.61367 -0.46643,3.38854 -1.3517,6.56726 -2.99346,8.36973 -0.62177,0.68263 -5.04728,3.03673 -5.16538,6.78788 -0.44591,-3.84078 3.83693,-7.19651 4.08594,-8.0244 2.185,-7.26449 -3.42684,-10.24629 -2.81457,-16.00821 0.16316,-1.53542 0.16305,-2.44601 1.7413,-6.10632 3.36983,-7.81537 5.03183,-11.14271 5.34761,-21.05659 -0.24471,-9.42686 -0.83959,-15.28918 -9.27952,-31.8633 2.08663,-0.49941 0.75026,-0.15382 1.74075,-0.11514 z"
     id="path3172"
     style="fill:#d4aa00;fill-opacity:1;fill-rule:evenodd;stroke:none;marker:none;visibility:visible;display:inline;overflow:visible;enable-background:accumulate" />
</svg>
