<?xml version="1.0" encoding="UTF-8" standalone="no"?>
<!-- Created with Inkscape (http://www.inkscape.org/) -->

<svg
   xmlns:dc="http://purl.org/dc/elements/1.1/"
   xmlns:cc="http://creativecommons.org/ns#"
   xmlns:rdf="http://www.w3.org/1999/02/22-rdf-syntax-ns#"
   xmlns:svg="http://www.w3.org/2000/svg"
   xmlns="http://www.w3.org/2000/svg"
   version="1.1"
   width="560"
   height="560"
   id="hair_emo">
  <g
     transform="matrix(0.61341757,0,0,0.61341757,78.054846,44.575067)"
     id="g71323"
     style="display:inline;enable-background:new">
    <path
       d="m 337.80442,105.71838 c -15.66232,-8.614282 -40.98309,11.48571 -46.72594,19.31688 4.6987,-4.43766 14.87921,-11.74675 19.83895,-11.48571 -6.52597,2.08831 -24.27661,14.09609 -16.44545,41.24413 0.26104,-8.87532 3.65455,-18.27272 7.30909,-21.40518 -6.05937,10.90686 -4.91729,31.04059 -1.58868,38.66987 0.8365,-4.29399 0.45148,-22.85203 4.75575,-29.42994 -4.6669,11.2096 -2.2225,23.4461 -3.95019,30.96004 0,3.92427 6.10548,10.54314 4.6987,18.7948 3.96596,-12.24853 -1.1017,-25.08452 13.31298,-34.9792 -4.43766,7.04805 -8.87532,20.36103 -6.00389,31.84673 -0.26104,-10.70259 4.17662,-27.40907 16.44544,-38.11166 12.26883,-10.70259 18.27272,-20.09999 18.53376,-25.84284 1.30519,6.26493 -0.26104,25.32076 -3.65454,34.45712 3.3935,-7.04805 7.30908,-16.44545 7.04804,-30.54154 1.04416,11.48571 0.52208,23.75453 -4.17662,37.85062 5.48182,-9.91947 7.83117,-18.79479 8.61428,-28.9753 6.68546,14.2646 2.59877,30.01894 -1.82727,44.37659 5.22078,-7.30908 12.00779,-16.44544 12.7909,-29.49738 0.26104,7.04805 -0.52208,15.14025 -2.08831,18.27272 4.6987,-9.3974 11.48571,-27.93116 5.74286,-44.63764 3.3935,4.17662 5.48181,12.26882 4.69869,16.44544 1.3052,-8.87532 2.87143,-32.62985 -25.5818,-36.80647 5.74286,-0.78311 14.0961,0.78312 18.53376,2.87143 -8.61428,-3.65454 -15.92337,-9.136362 -23.4935,-4.17662 2.61039,-3.65455 6.52597,-6.787012 9.13636,-8.353242 -7.57012,0.78311 -11.22467,4.176622 -12.00778,5.220772 -0.78312,-3.132462 -3.39351,-4.437662 -5.22078,-6.003892 2.61039,3.91558 2.34935,5.220782 2.61039,6.525972 -2.34935,-2.08831 -7.57013,-3.915582 -10.44155,-4.437662 5.22077,2.871432 8.35324,6.525972 9.13635,7.831162 z"
       id="path12218-0"
       style="fill:#ffe580;fill-opacity:1;fill-rule:evenodd;stroke:#d4aa00;stroke-width:0.81510538;stroke-linecap:butt;stroke-linejoin:miter;stroke-miterlimit:4;stroke-opacity:1;stroke-dasharray:none;stroke-dashoffset:0;marker:none;visibility:visible;display:inline;overflow:visible;enable-background:accumulate" />
    <path
       d="m 336.5,95.8125 c 2.61039,3.91558 2.36396,5.19481 2.625,6.5 -2.34935,-2.08831 -7.59733,-3.91542 -10.46875,-4.4375 5.22077,2.87143 8.37314,6.53856 9.15625,7.84375 -15.66232,-8.61428 -40.9759,11.48133 -46.71875,19.3125 4.6987,-4.43766 14.85276,-11.72979 19.8125,-11.46875 -6.52597,2.08831 -24.26866,14.07071 -16.4375,41.21875 0.26104,-8.87532 3.65796,-18.27379 7.3125,-21.40625 -6.05937,10.90686 -4.92236,31.05822 -1.59375,38.6875 0.8365,-4.29399 0.44573,-22.85959 4.75,-29.4375 -4.6669,11.2096 -2.20981,23.45481 -3.9375,30.96875 0,3.92427 6.09428,10.52959 4.6875,18.78125 3.96596,-12.24853 -1.10218,-25.07407 13.3125,-34.96875 -4.43766,7.04805 -8.87143,20.35805 -6,31.84375 -0.26104,-10.70259 4.16868,-27.42241 16.4375,-38.125 12.26883,-10.70259 18.30146,-20.1009 18.5625,-25.84375 1.30519,6.26493 -0.26275,25.33239 -3.65625,34.46875 3.3935,-7.04805 7.29229,-16.43516 7.03125,-30.53125 1.04416,11.48571 0.5112,23.74766 -4.1875,37.84375 5.48182,-9.91947 7.84189,-18.78824 8.625,-28.96875 6.68546,14.2646 2.61354,30.01735 -1.8125,44.375 5.22078,-7.30908 11.99814,-16.44806 12.78125,-29.5 0.26104,7.04805 -0.52752,15.14878 -2.09375,18.28125 4.6987,-9.3974 11.49285,-27.94977 5.75,-44.65625 3.15949,3.88861 5.17985,11.17453 4.8125,15.53125 1.2502,-9.47507 1.86177,-31.83107 -25.6875,-35.875 5.74286,-0.78311 14.09359,0.78669 18.53125,2.875 -8.61428,-3.65454 -15.92987,-9.14724 -23.5,-4.1875 2.61039,-3.65455 6.51461,-6.77752 9.125,-8.34375 -7.57012,0.78311 -11.21689,4.1746 -12,5.21875 -0.78312,-3.13246 -3.39148,-4.43377 -5.21875,-6 z m 3.15625,4 c 1.66713,1.67415 0.68986,1.74397 2.15625,4.0625 0.72023,-1.42284 2.45912,-3.14465 4.59375,-3.90625 -1.37585,1.54148 -2.84148,4.22871 -3.375,6.28125 2.58745,-1.44531 7.45703,-2.49145 12.25,-1.28125 -3.34972,-0.72163 -5.75316,-0.12214 -9.03125,1.6875 22.97903,0.79326 27.4077,17.88513 27.59375,21.875 -1.05085,-2.6337 -4.2067,-7.68835 -7.9375,-9.5625 6.5926,10.2512 7.96485,23.26613 2.9375,37.53125 0.1867,-2.20412 -1.05032,-11.59834 -2.1875,-13.125 -0.0337,12.35432 -2.69399,17.31755 -5.65625,21.84375 2.28693,-9.04162 0.11844,-22.06622 -5.5625,-34.1875 -0.32218,2.47215 -0.49565,14.33108 -3.4375,22.53125 1.93313,-10.71946 1.47,-26.28727 -1.3125,-31.625 0.26319,4.80614 0.41539,18.96765 -1.9375,23.8125 1.39615,-8.56452 1.4894,-20.08646 -1.09375,-24.34375 -0.22182,4.87996 -8.26578,18.93437 -14.8125,24.6875 -8.97329,7.88556 -13.08541,13.86169 -17.6875,22.90625 2.04552,-7.98517 8.34778,-17.14887 11.09375,-19.53125 -6.87802,3.93312 -17.08125,7.22016 -19.71875,23.53125 0.45514,-5.1635 -2.17595,-4.35152 -2.59375,-7.5 -0.82518,-17.54573 3.07025,-29.62139 11.15625,-38.28125 -9.93844,5.53963 -15.76611,19.9751 -15.0625,32.3125 -3.03905,-12.60319 1.51437,-26.41939 8.875,-35.5 -3.5266,0.76657 -11.84647,7.92068 -14.1875,16.25 0.66062,-14.93561 10.09138,-26.91297 27.21875,-28.6875 -3.93575,-1.32951 -10.41444,-0.15891 -16.34375,1.78125 9.3752,-6.32096 23.26612,-12.69596 33.375,-6.25 0.29129,-2.54176 -2.61075,-5.06048 -3.6875,-6.03125 0.94764,0.36573 3.8349,1.67399 4.53125,3.71875 0.35028,-0.88024 0.34561,-3.96117 -0.15625,-5 z"
       id="path12218-0-8"
       style="fill:#ffd42a;fill-opacity:1;fill-rule:evenodd;stroke:none;marker:none;visibility:visible;display:inline;overflow:visible;enable-background:accumulate" />
  </g>
</svg>
