<?xml version="1.0" encoding="UTF-8" standalone="no"?>
<!-- Created with Inkscape (http://www.inkscape.org/) -->

<svg
   xmlns:dc="http://purl.org/dc/elements/1.1/"
   xmlns:cc="http://creativecommons.org/ns#"
   xmlns:rdf="http://www.w3.org/1999/02/22-rdf-syntax-ns#"
   xmlns:svg="http://www.w3.org/2000/svg"
   xmlns="http://www.w3.org/2000/svg"
   version="1.1"
   width="560"
   height="560"
   id="hat_top">
  <g
     transform="translate(0,-492.36218)"
     id="layer1">
    <g
       transform="matrix(0.25381106,0,0,0.25381106,168.64324,621.52819)"
       id="g31608"
       style="display:inline;enable-background:new">
      <path
         d="m 381.7898,-36.646341 c -14.62501,3.30242 -29.25002,10.85082 -28.30647,26.41938 0.94354,15.5685598 31.45548,36.46177 77.37102,31.60889 39.09022,-4.1315 72.27332,-23.0274502 93.88312,-45.29036 17.50308,-18.03208 12.73792,-28.30646 11.32259,-29.25001 -1.41532,-0.94355 -6.13307,0.47178 -8.96371,0.94355 -2.83065,0.47178 -8.02017,7.54838 -23.11696,10.85081 -15.09678,3.30242 -19.81453,11.79436 -122.18959,4.71774 z"
         id="path2987-4-3"
         style="fill:#d45500;stroke:#803300;stroke-width:3.93993878px;stroke-linecap:butt;stroke-linejoin:miter;stroke-opacity:1" />
      <path
         d="m 385.56399,11.946439 c -30.19357,-11.32259023 -36.32664,-42.93148 3.30243,-47.64923 7.54839,4.24597 8.96371,9.90727 -0.94355,10.37904 -9.90727,0.47178 -36.32664,20.7580798 -2.35888,37.27019 z"
         id="path2993-2"
         style="fill:#aa4400;fill-opacity:1;stroke:none" />
      <path
         d="m 470.01163,4.8698188 c 64.31276,-30.7822408 61.20055,-59.3232998 54.04884,-55.4167398 -6.5277,3.56569 -9.27586,8.984702 -26.78422,9.570484 11.32259,5.18952 24.95814,12.535255 -27.26462,45.8462558 z"
         id="path2995-4"
         style="fill:#aa4400;fill-opacity:1;stroke:none" />
      <path
         d="m 381.50362,-4.5893812 c 4.58937,-37.4991198 -0.65737,-96.2182888 -10.09286,-104.2384588 -9.43549,-8.02017 -7.07662,-12.73791 13.20968,-20.75808 20.28631,-8.02017 66.99199,-17.45566 93.88313,-16.98388 26.89115,0.47177 26.41937,7.07661 25.47582,11.32259 -0.94355,4.24597 -5.66129,32.08066 -0.47177,61.330683 5.18952,29.250016 8.08155,48.619766 6.60484,51.895196 -3.42907,2.486585 -5.65137,5.026351 -17.71526,10.423354"
         id="path2989-8-02"
         style="fill:#d45500;stroke:#803300;stroke-width:3.93993878px;stroke-linecap:butt;stroke-linejoin:miter;stroke-opacity:1" />
      <path
         d="m 425.80301,4.3506288 c 0.79914,-24.1375698 -5.24647,-94.4569928 -7.46744,-114.8938588 -22.9824,1.50376 -40.31997,1.71539 -48.81191,-3.47413 10.37904,9.90727 10.85081,18.399208 12.73791,30.193571 1.8871,11.794362 6.27126,49.684318 2.96883,81.7649878 4.93537,5.41392 30.71307,9.81645 40.57261,6.40943 z"
         id="path2991-8"
         style="fill:#aa4400;fill-opacity:1;stroke:none" />
      <path
         d="m 442.72857,2.9759588 c -4.26206,-39.4240698 -7.45861,-106.2851388 -7.45861,-116.9402888 28.50253,-3.99568 60.46798,-11.98705 67.66021,-21.84306 -0.79914,4.52844 -3.46292,7.99136 -7.72498,10.38877 -1.86466,14.91721 -4.52844,37.026654 7.4586,105.752379 -3.46292,6.12672 -22.37582,17.5809998 -59.93522,22.6421998 z"
         id="path3027-5"
         style="fill:#aa4400;fill-opacity:1;stroke:none" />
    </g>
  </g>
</svg>
