<?xml version="1.0" encoding="UTF-8" standalone="no"?>
<svg xmlns="http://www.w3.org/2000/svg" id="hat_cap" width="560" height="560">
  <defs id="defs42041">
    <clipPath id="clipPath30446-4-3">
      <path id="path30448-9-3" d="M751.3 2651.7c-10-6-18.2-7-27.2 3.8-9 11-2 30-5 36.7-2.7 6.7-3.3 10.7-4 20.4-1 9.7-7.6 11.3-7 37.3.2 26 2 28 1.2 33-.7 5 .5 2.5 1 7 .3 4.8 12.2 1 12.6-4 .5-5 .7-3.7-.4-8.2-1-4.5 2-28 5.3-36.4 3.4-8.4 1.8-19.7 3.4-22 1.6-2.2 8.3-7 9-49.3" style="display:inline;fill:none;stroke:#552200;stroke-width:1px;stroke-linecap:butt;stroke-linejoin:miter;stroke-opacity:1"/>
    </clipPath>
    <clipPath id="clipPath30567-5">
      <path id="path30569-8" d="M742 344.8c-.4 7.6.4 17.7-2.4 27.4s-5.7 47.6-3.6 69.4c2 21.7-2 38.7-3.3 47.2-1.2 8.4 1.6 22.5 3.3 36 1.6 13.2 4 24.5 2.4 28.5s.8 9-1.2 11.3c-2 2.4-3.3 6.4-6 8.8-3 2.5-7.7 7.7-10.6 9.3-2.8 1.6-3.2 8.5 3.7 9.7 6.8 1.2 16-1.6 18-5.2 2-3.7 1.3-8 5.8-7.7 4.6.4 5.8-3.2 4.6-8.5-1.2-5.2-.4-7.2 0-7.6.4-.4 1.2-3.3 0-6.5-1.2-3.4.4-27.6 4.8-36 4.5-8.5 3.7-19 2-27-1.6-8-2.4-14.6 1-21.5 3-6.8 4.3-18.5 7.5-33 3-14.6 13-23.4 13-60" style="display:inline;fill:none;stroke:#552200;stroke-width:1px;stroke-linecap:butt;stroke-linejoin:miter;stroke-opacity:1"/>
    </clipPath>
    <clipPath id="clipPath30446-4-3-0">
      <path id="path30448-9-3-5" d="M751.3 2651.7c-10-6-18.2-7-27.2 3.8-9 11-2 30-5 36.7-2.7 6.7-3.3 10.7-4 20.4-1 9.7-7.6 11.3-7 37.3.2 26 2 28 1.2 33-.7 5 .5 2.5 1 7 .3 4.8 12.2 1 12.6-4 .5-5 .7-3.7-.4-8.2-1-4.5 2-28 5.3-36.4 3.4-8.4 1.8-19.7 3.4-22 1.6-2.2 8.3-7 9-49.3" style="display:inline;fill:none;stroke:#552200;stroke-width:1px;stroke-linecap:butt;stroke-linejoin:miter;stroke-opacity:1"/>
    </clipPath>
    <clipPath id="clipPath78001">
      <path id="path78003" d="M537.8 127.7c-1 2.4-5.3 3.2-7.3.8 1-1.5 5-2 7.3-.8z" style="display:inline;fill:#f2f2f2;fill-opacity:1;stroke:#de8787;stroke-width:0.20430227px;stroke-linecap:butt;stroke-linejoin:miter;stroke-opacity:1;enable-background:new"/>
    </clipPath>
    <clipPath id="clipPath77978">
      <path id="path77980" d="M514.4 128.3c.8 2 5.6 3 7.6.4-2-1.4-5-1.7-7.6-.4z" style="display:inline;fill:#f2f2f2;fill-opacity:1;stroke:#de8787;stroke-width:0.20430227px;stroke-linecap:butt;stroke-linejoin:miter;stroke-opacity:1;enable-background:new"/>
    </clipPath>
    <clipPath id="clipPath78047">
      <path id="path78049" d="M285 154.8c-.7 0-1.6.3-2 .3h-2.7c-.7 0-1.7 0-2.6.2.7-.5 2-1 3-1.2.8-.2 1.5.3 2.2.3.3 0 1.2-.6 2-.3 1.5.4 2.5 1 3 1.5-1-.3-1.7-.4-3-.4z" style="display:inline;fill:#d40000;fill-rule:evenodd;stroke:#800000;stroke-width:0.38534227px;stroke-linecap:butt;stroke-linejoin:miter;stroke-opacity:1;enable-background:new"/>
    </clipPath>
    <clipPath id="clipPath78025">
      <path id="path78027" d="M284 157c-.5.3-2 .2-3.2 0-1-.2-2.7-1-2.8-1.8l2-1s1 .4 2.5.4c1.4 0 2.7.2 3.3 0 .5-.4 2.3.4 2.2.5-1 1.4-2.4 2-4 2z" style="display:inline;fill:#ff0000;fill-rule:evenodd;stroke:#800000;stroke-width:0.38534227px;stroke-linecap:butt;stroke-linejoin:miter;stroke-opacity:1;enable-background:new"/>
    </clipPath>
    <clipPath id="clipPath78001-1">
      <path id="path78003-6" d="M537.8 127.7c-1 2.4-5.3 3.2-7.3.8 1-1.5 5-2 7.3-.8z" style="display:inline;fill:#f2f2f2;fill-opacity:1;stroke:#de8787;stroke-width:0.20430227px;stroke-linecap:butt;stroke-linejoin:miter;stroke-opacity:1;enable-background:new"/>
    </clipPath>
    <clipPath id="clipPath77978-0">
      <path id="path77980-4" d="M514.4 128.3c.8 2 5.6 3 7.6.4-2-1.4-5-1.7-7.6-.4z" style="display:inline;fill:#f2f2f2;fill-opacity:1;stroke:#de8787;stroke-width:0.20430227px;stroke-linecap:butt;stroke-linejoin:miter;stroke-opacity:1;enable-background:new"/>
    </clipPath>
    <clipPath id="clipPath78047-6">
      <path id="path78049-6" d="M285 154.8c-.7 0-1.6.3-2 .3h-2.7c-.7 0-1.7 0-2.6.2.7-.5 2-1 3-1.2.8-.2 1.5.3 2.2.3.3 0 1.2-.6 2-.3 1.5.4 2.5 1 3 1.5-1-.3-1.7-.4-3-.4z" style="display:inline;fill:#d40000;fill-rule:evenodd;stroke:#800000;stroke-width:0.38534227px;stroke-linecap:butt;stroke-linejoin:miter;stroke-opacity:1;enable-background:new"/>
    </clipPath>
    <clipPath id="clipPath78025-1">
      <path id="path78027-5" d="M284 157c-.5.3-2 .2-3.2 0-1-.2-2.7-1-2.8-1.8l2-1s1 .4 2.5.4c1.4 0 2.7.2 3.3 0 .5-.4 2.3.4 2.2.5-1 1.4-2.4 2-4 2z" style="display:inline;fill:#ff0000;fill-rule:evenodd;stroke:#800000;stroke-width:0.38534227px;stroke-linecap:butt;stroke-linejoin:miter;stroke-opacity:1;enable-background:new"/>
    </clipPath>
  </defs>
  <path id="path7301" d="M267 127.2c-.3.7-.8.2-1 .8-.4.6-.4 2-.4 3-.6-.2-1.5-2-1.7-2.6-.3-.5-1-1.3-1-2.3.2-1 1-2 .7-3 0-1 1.8-2.3 2.3-4.4.3-.8.4-2.2.8-3 .4-.7 6-6.6 8.6-7.6 2.7-1 5.8-.3 6.7-.2 1 0 5.6-.3 7.5.8 2 1 3 2.3 3.4 2.5.4.5 1 1 1.6 2l1.8 2c.5.3 3 3 3 6 0 1.2 2 2.3 2 3.6 0 1.2-.6 3.2-2.8 4.8l-.8-3.2c-1 1-3 1.6-4.5 1-3-1-6.5-4.3-12-4.3-8.7 0-12 7.2-14.3 4.4z" style="fill:#e6e6e6;fill-opacity:1;fill-rule:evenodd;stroke:#b3b3b3;stroke-width:1;stroke-linecap:butt;stroke-linejoin:miter;stroke-miterlimit:4;stroke-dasharray:none;stroke-opacity:1"/>
  <path id="path7303" d="M263.4 127c5.6 4.4 7.5-5.5 16.5-5.5 10 0 13.4 10 19.2 4.5-7-19.3-27.4-19-36 1z" style="fill:#e6e6e6;fill-opacity:1;fill-rule:evenodd;stroke:none;stroke-width:1;stroke-miterlimit:4;stroke-dasharray:none"/>
  <path id="path7305" d="M280 107.5c-1 .4-1 1.3 1.2 1.6 3.5.6 4.6 1.4 3 2-.7.5-.6 1.7 1 2.4.8.2 1.4 1 2 2.6 1.5 4.7-3 2.5-2.3 4.2.4 1.7 3.3 0 7 3.4 1 .7 2 2 3.8 1-1.7 1.5-3.3 0-4.2-.5-1-.3-2.8-2.4-8.7-3 3.4 1 7.5 3.6 9.5 5 .7.7 1.5 1 2.2 1.3 1 0 2.3-.6 3-1v.4l1-.7-1 .7c.3 1 .6 3.2.6 4.2 1-1 2.3-2 2.5-3l.7-2.4c0-2-2.4-3.6-2.4-4.8 0-3-2.4-5.8-3-6.3-.4-.5-1.2-1-1.7-2-.5-.7-1.2-1.3-1.7-1.6-.5 0-1.5-1.4-3.4-2.5-2-1-6.5-.7-7.3-.8l-2-.3z" style="fill:#cfcfcf;fill-opacity:1;fill-rule:evenodd;stroke:none;stroke-width:1;stroke-miterlimit:4;stroke-dasharray:none"/>
  <path id="path7307" d="M263.5 127c.7.5 1.4 1 2 1 0 .8.2 2 0 2.8-.4-.6-1-1.5-1-2 0-.4 0-.8-.4-1 0 0-.3-.4-.4-1z" style="opacity:0.1;fill:#000000;fill-rule:evenodd;stroke:none;stroke-width:1;stroke-miterlimit:4;stroke-dasharray:none"/>
  <path id="path7309" d="M298 127c.5-.2 1-.5 1.5-1 .5.4 1.4.6 2 0-.2.5-1 2-1 2.3-.2.4-1 1-2 2-.2-.7-.2-2-.5-3.2z" style="opacity:0.1;fill:#000000;fill-rule:evenodd;stroke:none;stroke-width:1;stroke-miterlimit:4;stroke-dasharray:none"/>
  <path id="path7311" d="M263.5 127c5.6 4.4 7.5-5.5 16.5-5.5 10.3 0 13.7 10 19.5 4.5" style="fill:none;stroke:#b3b3b3;stroke-width:1;stroke-linecap:butt;stroke-linejoin:miter;stroke-miterlimit:4;stroke-dasharray:none;stroke-opacity:1"/>
  <path id="path7313" d="M281.8 107.8c.3 2 1 11.2 0 13.8" style="fill:#e6e6e6;fill-opacity:1;stroke:#b3b3b3;stroke-width:1;stroke-linecap:butt;stroke-linejoin:miter;stroke-miterlimit:4;stroke-dasharray:none;stroke-opacity:1"/>
</svg>
