<?xml version="1.0" encoding="UTF-8" standalone="no"?>
<!-- Created with Inkscape (http://www.inkscape.org/) -->

<svg
   xmlns:dc="http://purl.org/dc/elements/1.1/"
   xmlns:cc="http://creativecommons.org/ns#"
   xmlns:rdf="http://www.w3.org/1999/02/22-rdf-syntax-ns#"
   xmlns:svg="http://www.w3.org/2000/svg"
   xmlns="http://www.w3.org/2000/svg"
   version="1.1"
   width="560"
   height="560"
   id="hat_tiara">
  <g
     transform="translate(-1.7995358e-6,-1)"
     id="g126673"
     style="display:inline;enable-background:new">
    <path
       d="m 282.35913,109.51009 -0.21177,0.0951 -0.67833,1.79652 0,0.5619 0.67355,0.60915 0.70674,0.003 0.59734,-0.7329 -0.0141,-0.5453 -0.89741,-1.68487 z"
       id="path3793-8"
       style="color:#000000;fill:#ffffff;stroke:#ececec;stroke-width:0.5;stroke-linecap:butt;stroke-linejoin:miter;stroke-miterlimit:4;stroke-opacity:1;stroke-dasharray:none;stroke-dashoffset:0;marker:none;visibility:visible;display:inline;overflow:visible;enable-background:accumulate" />
    <path
       d="m 268.57571,123.6508 c 7.55381,-3.06045 15.93755,-4.66851 27.90791,0"
       id="path3795-1"
       style="color:#000000;fill:none;stroke:#ececec;stroke-width:0.83099997;stroke-linecap:square;stroke-linejoin:miter;stroke-miterlimit:4;stroke-opacity:1;stroke-dasharray:none;stroke-dashoffset:0;marker:none;visibility:visible;display:inline;overflow:visible;enable-background:accumulate" />
    <path
       d="m 285.25,111.5 c -1.12591,-0.18694 -2.05871,0.60012 -2.4375,1.59375 -0.37879,0.99363 -0.21719,2.29006 0.8125,3.1875 0.68616,0.59803 0.62747,0.6109 1.1875,1.15625 -0.96812,1.21496 -1.64752,2.04707 -1.9375,2.40625 -0.27217,-0.25456 -1.2039,-1.12449 -2.25,-2.21875 0.75261,-0.62485 1.9937,-1.7247 1.96875,-3.46875 -0.0356,-2.48867 -3.26006,-3.16883 -4.3125,-1.46875 -0.46474,0.75073 -0.50642,1.56602 -0.34375,2.34375 0.0263,0.12556 -0.008,0.25205 0.0312,0.375 0.24749,0.77076 0.78377,1.49896 1.375,2.1875 -0.33951,0.32007 -0.70587,0.67279 -1.125,1.125 -0.40174,0.43344 -0.7066,0.77807 -1,1.0625 -0.47563,-0.47496 -0.9368,-1.02757 -1.53125,-1.96875 -0.46525,-0.73662 -0.40635,-1.71392 -0.0937,-2.1875 0.1563,-0.23679 0.33341,-0.32803 0.59375,-0.34375 0.26034,-0.0157 0.64878,0.0927 1.15625,0.5 l 0.59375,-0.75 c -0.62843,-0.5044 -1.24413,-0.75306 -1.8125,-0.71875 -0.56837,0.0343 -1.05697,0.37803 -1.34375,0.8125 -0.57356,0.86895 -0.53679,2.13969 0.125,3.1875 0.70962,1.12354 1.27578,1.93727 1.96875,2.53125 l 0.28125,0.25 0.3125,-0.25 c 0.39133,-0.32018 0.93309,-0.89081 1.46875,-1.46875 0.41724,-0.45017 0.74697,-0.79003 1.03125,-1.0625 1.23014,1.28423 2.59375,2.625 2.59375,2.625 l 0.34375,0.28125 0.3125,-0.3125 c 0,0 0.0449,-0.0599 0.375,-0.46875 0.27812,-0.34449 0.99276,-1.20572 1.875,-2.3125 1.00544,1.02888 2.53125,2.5 2.53125,2.5 l 0.4375,0.5 0.34375,-0.5625 c 0,0 1.31822,-2.19893 1.9375,-3.4375 0.37734,-0.75468 0.45369,-1.80298 -0.125,-2.5625 -0.28934,-0.37976 -0.76214,-0.638 -1.34375,-0.65625 -0.58161,-0.0182 -1.2532,0.15736 -2.0625,0.59375 l 0.4375,0.84375 c 0.71522,-0.38566 1.25243,-0.51071 1.59375,-0.5 0.34132,0.0107 0.49585,0.11174 0.625,0.28125 0.2583,0.33902 0.25176,1.12148 0.0312,1.5625 -0.48706,0.97412 -1.31586,2.32514 -1.625,2.84375 -0.18971,-0.21744 -1.29974,-1.28542 -2.21875,-2.21875 0.75102,-1.04641 1.08363,-1.97031 1.15625,-2.8125 0.0278,-0.32259 0.11667,-0.68406 0.0625,-0.96875 -0.21349,-1.12198 -1.05935,-1.87507 -2,-2.03125 z m -0.125,0.9375 c 0.5514,0.0915 1.04164,0.51468 1.1875,1.28125 0.12829,0.67419 -0.13027,1.71178 -0.96875,2.9375 -0.53482,-0.51665 -0.45272,-0.53505 -1.09375,-1.09375 -0.7382,-0.64339 -0.81662,-1.48966 -0.5625,-2.15625 0.25412,-0.66659 0.81622,-1.07191 1.4375,-0.96875 z m -4.59375,0.3125 c 0.57444,0.13634 1.08163,0.58937 1.09375,1.4375 0.0175,1.22575 -0.90952,2.12956 -1.59375,2.71875 -0.50743,-0.60535 -0.9723,-1.20836 -1.15625,-1.78125 -0.21924,-0.68281 -0.20953,-1.29614 0.1875,-1.9375 0.25099,-0.40544 0.89431,-0.57384 1.46875,-0.4375 z"
       id="path2987-3-10"
       style="font-size:medium;font-style:normal;font-variant:normal;font-weight:normal;font-stretch:normal;text-indent:0;text-align:start;text-decoration:none;line-height:normal;letter-spacing:normal;word-spacing:normal;text-transform:none;direction:ltr;block-progression:tb;writing-mode:lr-tb;text-anchor:start;baseline-shift:baseline;color:#000000;fill:#f9f9f9;fill-opacity:1;stroke:#ececec;stroke-width:0.5;stroke-miterlimit:4;stroke-dasharray:none;marker:none;visibility:visible;display:inline;overflow:visible;enable-background:accumulate;font-family:Sans;-inkscape-font-specification:Sans" />
  </g>
</svg>
