<?xml version="1.0" encoding="UTF-8" standalone="no"?>
<!-- Created with Inkscape (http://www.inkscape.org/) -->

<svg
   xmlns:dc="http://purl.org/dc/elements/1.1/"
   xmlns:cc="http://creativecommons.org/ns#"
   xmlns:rdf="http://www.w3.org/1999/02/22-rdf-syntax-ns#"
   xmlns:svg="http://www.w3.org/2000/svg"
   xmlns="http://www.w3.org/2000/svg"
   version="1.1"
   width="560"
   height="560"
   id="hat_helmet_vietnam_1_of_2">
  <g
     transform="matrix(0.97054264,0,0,0.97054264,9.2735466,12.890649)"
     id="g35503"
     style="display:inline;enable-background:new">
    <path
       d="m 257.82203,125.71892 c -3.23388,3.06367 -2.38286,4.68061 -2.04245,5.53163 -0.0851,-2.38286 0.59571,-3.48918 2.89347,-4.93591 2.68011,-1.68749 4.93609,-2.30863 10.04202,-2.21265 4.52733,0.0851 25.21929,0 29.44526,0 2.72326,0 7.53175,0.61743 8.59529,2.63816 0.85102,1.61693 0.59572,2.46795 0.34041,3.23387 1.02122,-1.02122 1.02122,-3.57428 -2.29775,-5.70183 -1.36163,-5.53162 -0.59571,-28.594238 -24.67955,-28.594238 -23.31792,0 -21.53078,25.190168 -22.2967,30.040968 z"
       id="path34297-0"
       style="color:#000000;fill:#677821;stroke:#22280b;stroke-width:1;stroke-linecap:butt;stroke-linejoin:miter;stroke-miterlimit:4;stroke-opacity:1;stroke-dasharray:none;stroke-dashoffset:0;marker:none;visibility:visible;display:inline;overflow:visible;enable-background:accumulate" />
    <path
       d="m 298.20139,103.33542 c 10.36746,18.9849 -6.15709,7.48758 -17.23462,7.48758 -11.3567,0 -22.71392,9.15268 -19.03591,-5.10888 -4.00261,7.46447 -3.67972,16.8421 -4.08586,19.833 3.89962,-5.19755 9.34153,-8.08383 24.82891,-8.08383 14.9346,0 20.36298,5.3556 22.11756,6.77837 -0.84158,-3.47442 -0.88365,-13.68694 -6.59008,-20.90624 z"
       id="path34317-5"
       style="color:#000000;fill:#445016;stroke:none;marker:none;visibility:visible;display:inline;overflow:visible;enable-background:accumulate" />
    <g
       id="g35495">
      <path
         d="m 270.26322,146.63557 c -0.68648,-1.02972 -11.10839,-18.39612 -11.60362,-19.31584 0,0 -0.35477,0.0976 -0.70851,0.5221 1.35364,1.88012 9.61924,17.29874 11.0033,18.33389 0,0 1.73331,1.09658 1.30883,0.45985 z"
         id="path34362-3"
         style="color:#000000;fill:#806600;stroke:#2b2200;stroke-width:0.25;stroke-linecap:butt;stroke-linejoin:miter;stroke-miterlimit:4;stroke-opacity:1;stroke-dasharray:none;stroke-dashoffset:0;marker:none;visibility:visible;display:inline;overflow:visible;enable-background:accumulate" />
      <path
         d="m 301.32209,124.91472 c 0,0 -6.01437,13.01895 -9.69322,19.73993 -2.65067,4.84257 -4.9523,8.27742 -5.37679,8.77265 2.6884,-1.0612 8.70191,-9.83386 8.8434,-11.10731 0.1415,-1.27344 0.0707,-1.76868 0.35374,-2.68839 0.28299,-0.91971 6.43876,-13.72625 6.58025,-14.07998 0.14149,-0.35374 -0.70738,-0.6369 -0.70738,-0.6369 z"
         id="path34360-5"
         style="color:#000000;fill:#806600;stroke:#2b2200;stroke-width:0.25;stroke-linecap:butt;stroke-linejoin:miter;stroke-miterlimit:4;stroke-opacity:1;stroke-dasharray:none;stroke-dashoffset:0;marker:none;visibility:visible;display:inline;overflow:visible;enable-background:accumulate" />
      <path
         d="m 257.52872,132.1324 c 1.20271,1.91017 9.26789,13.08823 10.96582,14.92766 1.69793,1.83942 8.20667,9.55087 11.31955,10.25834 3.11287,0.70747 4.66931,0.42448 6.2965,-0.56598 0.47853,-0.29128 1.39983,-1.20056 2.48269,-2.35714 3.29651,0.57335 2.9534,-3.27083 4.26127,-4.76381 1.92334,-0.0294 1.16401,-1.32907 1.59182,-1.80804 1.05019,0.10308 1.5099,-0.85774 1.7457,-1.22323 0.10903,-0.16901 0.57934,-0.87837 1.24823,-1.89145 1.65894,0.26305 1.17724,-1.78483 1.87121,-2.84431 2.39296,-3.65334 5.30567,-8.17231 5.47634,-8.81233 0.28299,-1.06121 0.14149,-1.62718 0.21224,-2.4054 0.0707,-0.77822 -2.5469,0.70747 -2.5469,1.2027 0,0.49523 0.21224,1.27345 0.1415,1.91017 -0.21225,0.0708 -0.28655,0.0708 -0.49879,0.21225 -0.21224,0.14149 -0.35018,1.41494 -0.35018,1.41494 -0.77822,0.49523 -2.97138,4.03259 -3.53736,4.52782 -0.56598,0.49523 -3.25437,1.83943 -3.96184,2.61765 -0.70748,0.77822 -2.19317,3.96184 -3.32512,5.30604 -1.13196,1.34419 -1.3442,1.83942 -1.3442,3.39586 -1.69793,1.27345 -3.11288,1.69793 -4.03259,2.05167 -0.91971,0.35374 -5.0938,1.13196 -7.42845,-0.14149 -2.33466,-1.27345 -7.7822,-6.86248 -8.20668,-7.14547 -0.42448,-0.28299 -1.76868,-1.13196 -2.19316,-1.62719 -0.42448,-0.49523 -7.49921,-10.89506 -7.71144,-11.17805 -0.21225,-0.28299 -0.4245,-1.13196 -0.4245,-1.13196 z"
         id="path34358-50"
         style="color:#000000;fill:#806600;stroke:#2b2200;stroke-width:0.25;stroke-linecap:butt;stroke-linejoin:miter;stroke-miterlimit:4;stroke-opacity:1;stroke-dasharray:none;stroke-dashoffset:0;marker:none;visibility:visible;display:inline;overflow:visible;enable-background:accumulate" />
      <path
         d="m 269.55575,147.1308 c 1.0612,0.63673 6.65023,5.73053 7.4992,6.36725 0.84896,0.63673 2.05167,0.56598 2.68839,0.56598 -1.69793,-0.21224 -2.26391,-0.84897 -2.97138,-1.3442 -0.70747,-0.49523 -7.14547,-6.2965 -7.81757,-6.54411 0,0 -0.45985,0.31836 0.60136,0.95508 z"
         id="path34362-2-1"
         style="color:#000000;fill:#504416;stroke:none;marker:none;visibility:visible;display:inline;overflow:visible;enable-background:accumulate" />
      <path
         d="m 259.57725,132.06189 -2.04606,0.069 c 1.20271,1.91017 9.26671,13.0918 10.96464,14.93123 1.31624,1.42592 5.52416,6.3707 8.79932,8.85581 2.47652,1.09365 4.59885,1.72495 5.98128,1.76991 0.45044,-0.0318 0.86062,-0.0997 1.24898,-0.21339 0.01,-0.005 0.0222,-0.007 0.0314,-0.0126 -0.77822,0.1415 -0.35942,-1.20278 0.48955,-1.55651 0.84146,-0.35061 1.88872,-0.49121 1.56279,0.47072 0.43807,-0.36235 1.02034,-0.90891 1.68832,-1.56907 0.008,-0.0103 0.017,-0.0212 0.0251,-0.0314 0.12732,-0.15965 0.22381,-0.3074 0.26361,-0.42678 0.0562,0.005 0.10363,0.009 0.1569,0.0126 1.0485,0.70022 0.2657,0.62632 0.69242,0.18294 0.99933,-0.52751 1.35577,-1.40417 1.7197,-2.58916 0.0607,-0.15179 -0.47126,0.87524 -1.2546,0.95868 0.72161,-0.81898 1.97103,-3.77561 2.57686,-5.14882 0,0 -0.77599,1.63072 -1.12973,2.1967 -0.32057,0.51291 -1.97957,0.96683 -1.55024,-0.42679 -0.17091,0.46451 -0.21966,0.96276 -0.21966,1.70087 -0.75858,0.56893 -1.45704,0.9621 -2.08372,1.26153 l -0.11298,0.15063 c 0,0 2.19502,-1.34312 3.04399,-1.34312 -0.21224,0.56597 -2.82952,1.91144 -4.17372,2.54816 -1.34419,0.63673 -5.02112,0.70465 -7.35578,0.6339 3.60811,1.48569 5.16143,0.49523 6.36413,0 1.20271,-0.49523 3.39896,-1.55198 4.8139,-2.25945 -0.91971,1.2027 -2.33488,1.48354 -4.66954,2.68624 -2.33466,1.2027 -5.94537,0.49352 -6.65284,0.069 -0.70748,-0.42448 -1.55655,-0.8473 -2.33477,-0.8473 -0.77822,0 -0.91634,-0.64018 -0.91634,-0.64018 l 0.91634,0.14436 c 0,0 -7.77745,-6.79037 -7.98969,-7.07335 -0.21224,-0.28299 -7.99597,-11.17803 -7.99597,-11.17803 l 7.77003,9.9165 c -0.27852,-0.41052 -0.66056,-1.05592 -1.09207,-1.78246 -1.78486,-2.54349 -6.92385,-10.08954 -7.10474,-10.33073 -0.21223,-0.28299 -0.42679,-1.12973 -0.42679,-1.12973 z m 8.6236,13.24292 c 0.18445,0.27186 0.33136,0.45945 0.43306,0.55231 z"
         id="path34427-7"
         style="color:#000000;fill:#504416;stroke:none;marker:none;visibility:visible;display:inline;overflow:visible;enable-background:accumulate" />
      <path
         d="m 302.36883,135.31927 c -1.10056,1.20062 -1.45627,1.752 -1.5063,2.00213 -0.05,0.25013 0.20583,0.79838 -0.14435,1.14855 -0.35019,0.35019 -1.50132,2.45458 -1.8515,2.60465 -0.35018,0.15008 -1.10056,0.49823 -1.70087,1.14856 -0.40021,-0.2001 -0.50302,0.35239 -0.75315,0.60252 -0.25013,0.25013 -0.59754,1.0989 -0.94772,1.24898 -0.35018,0.15008 0.0452,0.75094 0.39541,0.15063 0.35018,-0.60031 0.90488,-1.70142 1.20504,-1.8515 0.30015,-0.15007 0.99627,0.25105 0.54603,0.25105 -0.45023,0 -0.39614,1.84614 -0.59624,2.09627 -0.2001,0.25013 -1.30048,2.35453 -1.65066,2.60465 -0.35018,0.25013 -0.45281,0.20085 -0.70294,0.20085 0.65034,-0.55029 1.14874,-1.09983 1.19877,-1.50003 0.05,-0.40021 6e-4,-1.05534 0.15063,-1.30547 0.15008,-0.25013 0.20102,-0.24606 0.25105,-0.59624 -0.40021,0.65034 -0.84896,0.84693 -1.29919,0.74688 -0.45023,-0.10006 0.25197,-1.25009 0.5021,-1.55024 0.25013,-0.30016 1.40145,-1.8515 1.90171,-1.8515 -0.85044,-0.05 -1.30675,0.75481 -1.65693,1.20504 -0.35018,0.45023 -0.84601,0.34926 -0.49583,-0.25105 -0.90046,0.80041 -1.65066,1.64807 -1.65066,2.64859 0,1.00051 -1.60302,5.15631 -2.30339,6.1068 0.45024,-0.35018 0.954,-0.65273 0.954,-0.65273 -0.25013,0.55028 -0.75316,1.24898 -0.75316,1.24898 0.11117,-0.0404 0.27923,-0.0947 0.4519,-0.15063 0.2608,-0.75778 0.51189,-1.50552 0.94144,-1.99586 1.92334,-0.0294 1.16636,-1.3286 1.59417,-1.80756 1.05019,0.10308 1.509,-0.85838 1.7448,-1.22387 0.10904,-0.16901 0.58008,-0.87608 1.24898,-1.88916 1.65894,0.26305 1.17636,-1.78367 1.87032,-2.84315 1.20743,-1.84338 2.54324,-3.90494 3.5963,-5.5796 -0.31233,0.17719 -0.57915,-0.0211 -0.53976,-0.96654 z"
         id="path34497-7"
         style="color:#000000;fill:#504416;stroke:none;marker:none;visibility:visible;display:inline;overflow:visible;enable-background:accumulate" />
    </g>
  </g>
</svg>
