<?xml version="1.0" encoding="UTF-8" standalone="no"?>
<!-- Created with Inkscape (http://www.inkscape.org/) -->

<svg
   xmlns:dc="http://purl.org/dc/elements/1.1/"
   xmlns:cc="http://creativecommons.org/ns#"
   xmlns:rdf="http://www.w3.org/1999/02/22-rdf-syntax-ns#"
   xmlns:svg="http://www.w3.org/2000/svg"
   xmlns="http://www.w3.org/2000/svg"
   version="1.1"
   width="560"
   height="560"
   id="hat_waitress">
  <g
     transform="translate(0,-492.36218)"
     id="layer1">
    <g
       transform="matrix(0.27518761,0,0,0.27518761,-725.05764,584.5023)"
       id="g7915-1-9"
       style="display:inline;enable-background:new">
      <path
         d="m 3681.4683,36.0515 c -3.4335,-3.433477 -12.8756,-12.446352 -15.4507,-17.596567 -2.5751,-5.150214 -6.4377,-12.0171673 -20.1716,-8.5836909 -13.734,3.4334769 -22.3176,8.5836909 -27.0387,12.0171679 -4.721,3.433476 -11.1588,1.716738 -13.7339,0.429184 -2.5751,-1.287554 -4.2918,1.287554 -6.0086,8.583691 -1.7167,7.296137 -6.8669,14.16309 -1.7167,28.755365 5.1502,14.592275 98.2833,62.23176 84.1202,-23.60515 z"
         id="path3205-24-1-8"
         style="fill:#333333;fill-rule:evenodd;stroke:#000000;stroke-width:1.74927557px;stroke-linecap:butt;stroke-linejoin:miter;stroke-opacity:1" />
      <path
         d="m 3709.7258,76.533887 c 0,10.925255 -25.4922,33.989683 -33.9897,37.631433 -8.4974,3.64175 -86.9717,-2.57734 -86.9717,-9.44429 0,-6.866954 6.867,-37.768242 7.7253,-47.210302 16.309,4.291845 62.2576,11.76454 70.3863,9.44206 2.8435,-0.812435 2.5215,-11.226657 7.3233,-16.498639 3.4038,-3.737016 8.2192,-11.689741 6.4106,-14.402649 7.7253,4.291846 5.1502,6.866953 10.3004,12.875537 5.1502,6.008584 12.8756,22.317597 18.8155,27.60685 z"
         id="path3203-6-9-7"
         style="fill:#e6e6e6;fill-rule:evenodd;stroke:#b3b3b3;stroke-width:1.74927557px;stroke-linecap:butt;stroke-linejoin:miter;stroke-opacity:1" />
    </g>
  </g>
</svg>
