<?xml version="1.0" encoding="UTF-8" standalone="no"?>
<svg xmlns="http://www.w3.org/2000/svg" id="hat_magritte" width="560" height="560">
  <g id="g211443" style="display:inline;enable-background:new">
    <g id="g4317">
      <path id="path3650-1" d="M298.5 125c0-4 .4-7.5 0-11.5-.3-4.4-2.7-12.3-16.8-12.2-14.2 0-16.2 8.4-16.3 12.2l-.2 11.4c11.6-2 22.4-1.6 33.3 0z" style="fill:#666666;fill-opacity:1;fill-rule:nonzero;stroke:#333333;stroke-width:15.34513855;stroke-miterlimit:4;stroke-dasharray:none;display:inline"/>
      <path id="path3650-1-5" d="M281.7 101.3h-2c10 .5 5.6 4 3 3.2-3-.8-5.2 0-6 2.2-.8 2.2-8 13.3-11.3 9l-.2 9.2c11.6-2 22.4-1.6 33.3 0 0-4 .4-7.5 0-11.5-.3-4.4-2.7-12.3-16.8-12.2z" style="fill:#4d4d4d;fill-opacity:1;fill-rule:nonzero;stroke:none;display:inline"/>
    </g>
    <g id="g4309">
      <path id="path2995-6-68" d="M281.4 123.6c-5.5 0-11 .4-16.5 1.3v1c4.8.8 11.6 1.7 17.3 1.7 6.3 0 11.7-.7 16.3-1.7v-1c-6-1-11.6-1.4-17.2-1.4z" style="fill:#b3b3b3;fill-opacity:1;stroke:#808080;stroke-width:15.34513855px;stroke-linecap:butt;stroke-linejoin:miter;stroke-opacity:1;display:inline"/>
      <path id="path3293-6" d="M294.6 124.8c-4.3 0-15.3.6-25.4 2 4 .5 9 1 13 1 6.4 0 11.8-.8 16.4-1.8v-1l-2.3-.2h-1.7z" style="color:#000000;fill:#999999;stroke:none;marker:none;visibility:visible;display:inline;overflow:visible;enable-background:accumulate"/>
    </g>
    <g id="g4313">
      <path id="path3042-4-8" d="M303.3 125c-.3 0-.7 0-1 .2-5.3 1.3-12 2.6-20 2.5-8 0-18-1.7-21.7-2.4-3.5-.8-3.2 2-3 2 .2.6.7 1.4 1.4 2 1.8 1.8 3.6 3.4 6.2 3.7v-1.2c0-.4 2-.6 3-.7 8-.6 9.2-.7 14-.5 5 0 11.3.3 15.3 1 1 .3 1.4.6 1.4.8v.7c4.4-1 6.8-3 8-4.7.6-.7-.3-.7-.3-.7h-.6 1.2s-1.2-2.5-4-2.5z" style="fill:#666666;fill-opacity:1;stroke:#333333;stroke-width:15.34513855;display:inline"/>
      <path id="path3061-9-6" d="M258.6 126.4c-1.6 0-1 1.8.4 3 1.8 1.7 3.6 3.3 6.2 3.6v-1.2c0-.4 2-.6 3-.7 8-.6 9.2-.7 14-.5 5 0 11.3.3 15.3 1 1 .3 1.4.6 1.4.8v.7c4.4-1 6.8-3 8-4.7.6-.7-.3-.7-.3-.7s-4-.6-7.5.3c-5.6 1.2-10.2 1-17 1-6.8 0-19-1.2-22.2-2.3l-1.4-.3z" style="fill:#4d4d4d;fill-opacity:1;stroke:none;display:inline"/>
    </g>
  </g>
</svg>
