<?xml version="1.0" encoding="UTF-8" standalone="no"?>
<!-- Created with Inkscape (http://www.inkscape.org/) -->

<svg
   xmlns:dc="http://purl.org/dc/elements/1.1/"
   xmlns:cc="http://creativecommons.org/ns#"
   xmlns:rdf="http://www.w3.org/1999/02/22-rdf-syntax-ns#"
   xmlns:svg="http://www.w3.org/2000/svg"
   xmlns="http://www.w3.org/2000/svg"
   version="1.1"
   width="560"
   height="560"
   id="hat_police">
  <path
     d="m 264.95495,126.46318 0.19923,1.29495 c 0.25681,3.97961 9.48454,5.36223 17.12688,5.36223 6.17475,0 17.75378,0.35128 16.11594,-5.76259 -1.23125,-4.59617 -30.00488,-4.27333 -33.44205,-0.89459 z"
     id="path3580-7"
     style="fill:#1a1a1a;fill-rule:evenodd;stroke:#000000;stroke-width:0.82599545px;stroke-linecap:butt;stroke-linejoin:miter;stroke-opacity:1" />
  <path
     d="m 298.70877,129.11144 c -1.33837,1.96041 -2.90588,3.06505 -7.86929,3.48638 1.34148,-3.26303 -0.94073,-7.38179 -7.04222,-10.03531 10.33163,-1.84954 14.89597,0.42545 14.91151,6.54893 z"
     id="path3584-3"
     style="fill:#e6e6e6;fill-opacity:1;fill-rule:evenodd;stroke:none" />
  <path
     d="m 274.31356,132.08516 c -1.77588,-3.39198 1.06969,-5.59477 2.46563,-7.69427 -5.20552,-0.28039 -9.10956,0.28221 -9.17356,2.55292 -0.064,2.27072 3.60109,5.0532 6.70793,5.14135 z"
     id="path3586-1"
     style="fill:#e6e6e6;fill-rule:evenodd;stroke:none" />
  <path
     d="m 297.32171,131.23167 c -0.49288,-1.48434 -2.15402,-4.2047 -5.28069,-7.10005 6.65976,0.85609 8.40928,5.18307 5.28069,7.10005 z"
     id="path3588-7"
     style="fill:#ffffff;fill-rule:evenodd;stroke:none" />
  <path
     d="m 265.58299,131.10298 c -0.51182,-7.13667 4.06865,-6.91989 17.59536,-7.17625 6.12517,-0.11608 13.54147,0.58089 15.45363,4.14884 0.39969,0.7458 0.36569,2.26993 0.41098,2.66801 1.69848,-2.17429 -0.0856,-3.8196 -0.0716,-5.46349 0.006,-0.6737 -0.21695,-3.26081 -0.24947,-4.89765 -0.0325,-1.63684 -6.05522,-2.43435 -11.45732,-2.92268 -5.4021,-0.48833 -21.05498,-0.90249 -22.8506,3.85485 0.22886,2.81104 0.23615,5.74528 0.35397,7.33308 0.0895,1.2067 0.43213,2.31073 0.81504,2.45529 z"
     id="path3547-3-2"
     style="fill:#373e48;fill-opacity:1;fill-rule:evenodd;stroke:#000000;stroke-width:0.82599545px;stroke-linecap:butt;stroke-linejoin:miter;stroke-opacity:1" />
  <path
     d="m 299.13316,127.63012 c 0.38207,-1.01885 -0.52476,-0.89559 -0.0804,-1.53785 2.43512,-0.6765 4.19506,-1.73861 4.93395,-2.35413 1.25323,-1.044 1.60245,-2.41157 2.23941,-2.50399 1.33567,-0.19379 1.98804,-3.02955 0.24081,-3.37117 -0.97066,-0.18978 -2.3518,-0.90948 -2.78543,-1.99679 -0.96804,-2.42729 -3.75326,-3.78644 -3.52434,-5.77156 -3.94237,-0.7375 -15.86247,-5.43201 -17.8804,-6.69189 -3.85033,0.96087 -9.34965,3.87129 -17.19175,4.31532 -0.69549,1.71526 -0.0996,1.59843 -2.03671,3.41224 -1.93715,1.8138 -3.46169,4.57489 -4.27914,5.62039 -0.81749,1.0455 -0.7972,1.1796 -2.31508,1.13791 -1.51787,-0.0418 -1.78414,1.28656 -1.02425,2.37587 0.75989,1.08931 0.88524,2.11077 2.37843,3.87726 1.08155,1.27951 3.24139,1.86388 4.96694,2.32945 1.1536,0.31126 1.83656,-0.10892 2.30724,0.28569 2.75044,-7.90593 32.47325,-2.78272 34.05068,0.87325 z"
     id="path3569-2-4"
     style="fill:#373e48;fill-opacity:1;fill-rule:evenodd;stroke:#000000;stroke-width:0.82599545px;stroke-linecap:butt;stroke-linejoin:miter;stroke-opacity:1" />
  <path
     d="m 264.86981,124.99165 c 5.9086,-4.85416 29.44284,-3.02203 33.92473,0.38481 -0.0226,0.80143 -0.19382,1.83455 -0.0678,2.40428 -4.35646,-2.81703 -24.22175,-6.2162 -33.90967,-0.91909 -0.11854,-0.53805 0.1825,-1.73266 0.0527,-1.87 z"
     id="path3571-0-8"
     style="fill:#1a1a1a;fill-rule:evenodd;stroke:#000000;stroke-width:0.82599545px;stroke-linecap:butt;stroke-linejoin:miter;stroke-opacity:1" />
  <path
     d="m 285.38889,121.57694 c -4.55896,-0.1011 -9.35406,-0.008 -13.25782,0.40991 -0.79177,0.58641 -2.14227,0.81174 -2.03749,1.28732 0.0954,0.4332 1.31556,1.0613 2.48109,1.3829 13.95346,-1.41947 23.52922,0.89599 26.25195,2.82387 -0.12603,-0.2709 0.0451,-1.60026 0.0677,-2.40169 -2.36548,-1.1294 -6.99723,-3.35795 -13.50543,-3.50231 z"
     id="path3575-7-2"
     style="fill:#1a1a1a;fill-rule:evenodd;stroke:#000000;stroke-width:0.82599545px;stroke-linecap:butt;stroke-linejoin:miter;stroke-opacity:1" />
  <path
     d="m 300.46322,114.94274 c -1.44396,2.03877 -5.69971,5.13251 -8.3957,6.56887 3.37014,0.94588 9.29381,-0.49389 8.3957,-6.56887 z"
     id="path3614-1"
     style="fill:#1c1f24;fill-opacity:1;fill-rule:evenodd;stroke:none" />
  <path
     d="m 282.28125,103.40625 c -3.36904,0.84076 -8.01616,3.16358 -14.375,4.03125 -0.0102,0.003 -0.0212,-0.003 -0.0312,0 -1.33084,0.45071 -2.15921,0.85608 -2.125,1.21875 0.0982,1.0409 3.30543,6.05264 3.75,5.59375 0.44456,-0.45888 -1.29167,-4.95933 3.09375,-6.53125 4.3854,-1.57191 8.30088,4.0154 9.9375,4.0625 1.63659,0.0471 3.7495,-5.18347 5.625,-4.65625 4.83245,2.02678 4.9801,7.50595 5.65625,8.28125 0.67614,0.7753 0.4108,2.10801 0.875,2.59375 0.4642,0.48575 4.16171,-1.77018 5.78125,-4.84375 -0.57177,0.74005 -4.62905,4.10151 -4.65625,3.25 -0.0272,-0.8515 2.28247,-2.95552 3.46875,-4.8125 0.22886,-0.35826 0.3774,-0.90883 0.4375,-1.59375 -4.27265,-0.93913 -15.48008,-5.37165 -17.4375,-6.59375 z"
     id="path3616-0"
     style="fill:#1c1f24;fill-opacity:1;fill-rule:evenodd;stroke:none" />
  <path
     d="m 265.34502,107.98457 c 0.0941,1.04079 0.34485,1.99162 0.81618,2.57133 0.47136,0.57971 1.76755,2.97629 1.95823,3.92556 0.19069,0.94927 1.68025,2.87954 4.96719,2.78888 -3.19828,1.13162 -4.71687,1.0881 -5.18171,1.26347 0.81861,-0.54276 1.09855,-1.10087 1.01895,-1.48073 -0.0796,-0.37986 -0.2947,-0.7637 -0.89026,-1.63034 -0.59555,-0.86665 -0.75108,-1.62607 -0.84454,-2.10062 -0.0935,-0.47454 -1.29641,-1.45275 -1.47965,-2.02419 -0.18327,-0.57145 -0.78888,-2.19297 -0.36439,-3.31336 z"
     id="path3620-8"
     style="fill:#1c1f24;fill-opacity:1;fill-rule:evenodd;stroke:none" />
  <path
     d="m 265.15711,123.83806 c -1.92914,0.51236 -5.83202,-0.82382 -6.75068,-1.5103 2.10018,0.81344 4.0355,0.20615 4.77534,-0.15094 -3.47698,0.2805 -6.7016,-0.94102 -8.49786,-2.02898 -1.79626,-1.08795 0.16566,-3.39524 2.52644,-2.57489 -1.05063,0.63202 -2.24451,3.33723 2.55955,2.9979 -1.89024,-0.24115 -2.54514,-1.77009 -1.83755,-3.07242 0.70759,-1.30232 0.84989,-1.67607 2.0183,-3.15379 -0.12209,2.1676 1.61795,4.10432 2.31835,4.78482 -0.16109,-0.38218 -0.18625,-0.57176 -0.0893,-1.60751 0.2591,0.8569 0.48654,1.0521 1.11362,1.35294 0.62703,0.30083 0.002,1.6995 1.54505,2.02632 0.21397,0.1949 0.50675,2.94215 0.31878,2.93685 z"
     id="path3624-4"
     style="fill:#1c1f24;fill-opacity:1;fill-rule:evenodd;stroke:none" />
  <path
     d="m 264.26777,127.48049 c -1.2224,-0.30803 -0.4145,-3.24618 0.75067,-2.91975 1.06104,0.29726 0.41615,3.21376 -0.75067,2.91975 z"
     id="path3573-5-3"
     style="fill:#808000;fill-rule:evenodd;stroke:none" />
  <path
     d="m 307.46875,119.125 c -0.20872,1.02838 -1.79414,2.3003 -3.4375,2.625 0.74183,-0.0188 1.24988,-0.0471 1.84375,-0.3125 0.11195,-0.10444 0.21863,-0.2006 0.34375,-0.21875 0.79769,-0.11574 1.33659,-1.15618 1.28125,-2.0625 -0.0116,-0.009 -0.0194,-0.0221 -0.0312,-0.0312 z m -2.0625,2.90625 c -1.73354,1.27174 -5.21464,1.57448 -7.3125,2.03125 -0.17973,0.0463 -0.23975,1.34967 0.375,1.09375 0.56429,-0.23498 2.77384,-0.90417 5.625,-1.5 0.61222,-0.54054 0.99399,-1.15172 1.3125,-1.625 z"
     id="path3622-1-7"
     style="fill:#1c1f24;fill-opacity:1;fill-rule:evenodd;stroke:none;display:inline;enable-background:new" />
  <path
     d="m 256.8125,122.75 c 0.25407,0.413 0.55858,0.88403 1,1.40625 0.39184,0.46356 0.92828,0.81652 1.53125,1.125 3.13422,-0.0783 5.64693,0.0782 6.28125,0.1875 0.65623,0.11304 0.31052,-1.151 0.125,-1.15625 -2.49823,0.0238 -6.80214,0.68136 -8.4375,-0.875 0.77466,0.21018 1.33051,0.13492 2.15625,-0.0312 -0.9249,0.0267 -1.89753,-0.25449 -2.65625,-0.65625 z m 2.75,2.625 c 0.7387,0.35164 1.55259,0.61872 2.34375,0.84375 -0.77056,-0.32843 -1.61595,-0.67073 -2.34375,-0.84375 z"
     id="path3622-1"
     style="fill:#1c1f24;fill-opacity:1;fill-rule:evenodd;stroke:none" />
</svg>
