<?xml version="1.0" encoding="UTF-8" standalone="no"?>
<svg xmlns="http://www.w3.org/2000/svg" id="iris_neutral" width="560" height="560">
  <path id="path40695-8" d="M 275.36328 138.52734 C 275.17175 138.53878 274.96713 138.57797 274.76172 138.62109 A 1.148168 1.148168 0 0 0 274.76172 138.62305 A 1.148168 1.148168 0 0 0 274.56055 139.26953 A 1.148168 1.148168 0 0 0 275.70898 140.41797 A 1.148168 1.148168 0 0 0 276.85742 139.26953 A 1.148168 1.148168 0 0 0 276.70703 138.70508 C 276.29464 138.56873 275.85126 138.49821 275.36328 138.52734 z" style="fill:#2ad4ff;fill-opacity:1;stroke:none;stroke-width:0.37166417;stroke-linecap:round;stroke-miterlimit:4;stroke-dasharray:none"/>
  <path id="path40697-9" d="M 275.36328 138.52734 C 275.1866 138.53789 274.99704 138.57784 274.80859 138.61523 C 274.67276 138.80384 274.57617 139.02326 274.57617 139.27344 C 274.57617 139.61947 274.72858 139.93012 274.9707 140.14062 C 274.75621 139.62243 275.05366 139.24219 275.75781 139.24219 C 276.54708 139.24219 276.53937 139.58257 276.57617 140.04297 C 276.75969 139.83945 276.87305 139.56905 276.87305 139.27344 C 276.87305 139.06128 276.79759 138.87365 276.69727 138.70312 C 276.2875 138.56883 275.84758 138.49843 275.36328 138.52734 z" style="display:inline;fill:#089cc1;fill-opacity:1;stroke:none;enable-background:new"/>
  <path id="path40703-6" d="M 289.69336 138.16992 C 289.16828 138.18253 288.68846 138.29801 288.25391 138.47266 A 1.148168 1.148168 0 0 0 288.15234 138.94141 A 1.148168 1.148168 0 0 0 289.30078 140.08984 A 1.148168 1.148168 0 0 0 290.44922 138.94141 A 1.148168 1.148168 0 0 0 290.17969 138.20312 C 290.01611 138.18837 289.84966 138.16617 289.69336 138.16992 z" style="fill:#2ad4ff;stroke:none;stroke-width:0.37166417;stroke-linecap:round;stroke-miterlimit:4;stroke-dasharray:none"/>
  <path id="path40707-8" d="M 289.69336 138.16992 C 289.16994 138.18249 288.6913 138.29701 288.25781 138.4707 C 288.19249 138.61497 288.15234 138.77274 288.15234 138.94141 C 288.15234 139.28744 288.3067 139.59808 288.54883 139.80859 C 288.33434 139.29039 288.6318 138.91016 289.33594 138.91016 C 290.12521 138.91016 290.1175 139.24858 290.1543 139.70898 C 290.33782 139.50547 290.44922 139.23702 290.44922 138.94141 C 290.44922 138.65574 290.33474 138.40208 290.16211 138.20117 C 290.00471 138.18763 289.844 138.1663 289.69336 138.16992 z" style="fill:#089cc1;fill-opacity:1;stroke:none"/>
</svg>
