<?xml version="1.0" encoding="UTF-8" standalone="no"?>
<svg xmlns="http://www.w3.org/2000/svg" width="560" height="560" id="iris_shock">
  <path style="fill:#2ad4ff;fill-opacity:1;stroke:none;stroke-width:0.37166417;stroke-linecap:round;stroke-miterlimit:4;stroke-dasharray:none" d="m 276.85776,139.26958 a 1.148168,1.148168 0 0 1 -1.14817,1.14816 1.148168,1.148168 0 0 1 -1.14816,-1.14816 1.148168,1.148168 0 0 1 1.14816,-1.14817 1.148168,1.148168 0 0 1 1.14817,1.14817 z" id="path40695-8-5"/>
  <path style="display:inline;fill:#089cc1;fill-opacity:1;stroke:none;enable-background:new" d="m 276.87228,139.27363 c 0,0.29561 -0.11171,0.56512 -0.29523,0.76864 -0.0368,-0.4604 -0.029,-0.79933 -0.81827,-0.79933 -0.70415,0 -1.00212,0.37932 -0.78763,0.89751 -0.24212,-0.21051 -0.3952,-0.52079 -0.3952,-0.86682 0,-0.63412 0.51405,-1.14817 1.14816,-1.14817 0.63412,0 1.14817,0.51405 1.14817,1.14817 z" id="path40697-9-9"/>
  <path style="fill:#2ad4ff;stroke:none;stroke-width:0.37166417;stroke-linecap:round;stroke-miterlimit:4;stroke-dasharray:none" d="m 290.44907,138.94099 a 1.148168,1.148168 0 0 1 -1.14817,1.14817 1.148168,1.148168 0 0 1 -1.14816,-1.14817 1.148168,1.148168 0 0 1 1.14816,-1.14816 1.148168,1.148168 0 0 1 1.14817,1.14816 z" id="path40703-6-0"/>
  <g style="display:inline;fill:#00aad4;fill-opacity:1;stroke:none;enable-background:new" transform="matrix(.128 0 0 .128 232.053 92.529)" id="g40705-0-2">
    <path id="path40707-8-4" d="m 456.00323,364.79199 c 0,2.46567 -0.9318,4.71369 -2.46247,6.41116 -0.3068,-3.84018 -0.24209,-6.66712 -6.82514,-6.66712 -5.87326,0 -8.35863,3.16385 -6.5696,7.48608 -2.01959,-1.75582 -3.2964,-4.34386 -3.2964,-7.23012 0,-5.28912 4.28768,-9.5768 9.5768,-9.5768 5.28913,0 9.57681,4.28768 9.57681,9.5768 z" style="fill:#089cc1;fill-opacity:1;stroke:none" transform="matrix(.939 0 0 .939 28.052 20.08)"/>
  </g>
</svg>
