<?xml version="1.0" encoding="UTF-8" standalone="no"?>
<svg xmlns="http://www.w3.org/2000/svg" id="iris_sterness" width="560" height="560">
  <path id="path68390" d="M 275.36328 138.99023 C 275.11509 138.9952 274.85579 139.01326 274.58398 139.04688 A 1.148168 1.148168 0 0 0 274.58203 139.04688 A 1.148168 1.148168 0 0 0 274.56055 139.26953 A 1.148168 1.148168 0 0 0 275.01953 140.18555 C 275.45119 140.2364 275.90015 140.25025 276.35547 140.21875 A 1.148168 1.148168 0 0 0 276.85742 139.26953 A 1.148168 1.148168 0 0 0 276.84961 139.13867 C 276.39692 139.03704 275.90896 138.97931 275.36328 138.99023 z" style="fill:#2ad4ff;fill-opacity:1;stroke:none;stroke-width:0.37166417;stroke-linecap:round;stroke-miterlimit:4;stroke-dasharray:none"/>
  <path id="path68392" d="M 275.36328 138.99023 C 275.12751 138.99495 274.88006 139.01443 274.62305 139.04492 C 274.60707 139.12124 274.57617 139.19238 274.57617 139.27344 C 274.57617 139.61947 274.72858 139.93012 274.9707 140.14062 C 274.75621 139.62243 275.05366 139.24219 275.75781 139.24219 C 276.54708 139.24219 276.53937 139.58257 276.57617 140.04297 C 276.75969 139.83945 276.87305 139.56905 276.87305 139.27344 C 276.87305 139.22569 276.85136 139.18489 276.8457 139.13867 C 276.39404 139.03758 275.90746 138.97934 275.36328 138.99023 z" style="display:inline;fill:#089cc1;fill-opacity:1;stroke:none;enable-background:new"/>
  <path id="path68398" d="M 290.26367 138.58594 C 289.42954 138.55297 288.73646 138.63261 288.16406 138.7832 A 1.148168 1.148168 0 0 0 288.15234 138.94141 A 1.148168 1.148168 0 0 0 288.63672 139.87695 C 289.11999 139.90964 289.59632 139.88453 290.05273 139.80469 A 1.148168 1.148168 0 0 0 290.44922 138.94141 A 1.148168 1.148168 0 0 0 290.39453 138.5957 C 290.3526 138.59353 290.30492 138.58757 290.26367 138.58594 z" style="fill:#2ad4ff;stroke:none;stroke-width:0.37166417;stroke-linecap:round;stroke-miterlimit:4;stroke-dasharray:none"/>
  <path id="path68402" d="M 290.26367 138.58594 C 289.43927 138.55336 288.7541 138.63214 288.18555 138.7793 C 288.17739 138.83453 288.15234 138.8839 288.15234 138.94141 C 288.15234 139.28744 288.3067 139.59808 288.54883 139.80859 C 288.33434 139.29039 288.6318 138.91016 289.33594 138.91016 C 290.12521 138.91016 290.1175 139.24858 290.1543 139.70898 C 290.33782 139.50547 290.44922 139.23702 290.44922 138.94141 C 290.44922 138.81881 290.41448 138.70647 290.37891 138.5957 C 290.34202 138.59384 290.30003 138.58737 290.26367 138.58594 z" style="fill:#089cc1;fill-opacity:1;stroke:none"/>
</svg>
