<?xml version="1.0" encoding="UTF-8" standalone="no"?>
<svg xmlns="http://www.w3.org/2000/svg" width="560" height="560" id="iris_disgust">
  <path style="fill:#2ad4ff;fill-opacity:1;stroke:none;stroke-width:0.37166417;stroke-linecap:round;stroke-miterlimit:4;stroke-dasharray:none" d="M 275.49414 138.87695 C 275.21688 138.88957 274.91614 138.92699 274.59961 138.98047 A 1.148168 1.148168 0 0 0 274.56055 139.26953 A 1.148168 1.148168 0 0 0 274.88672 140.07031 C 275.42073 140.12549 275.97542 140.12576 276.51953 140.08203 A 1.148168 1.148168 0 0 0 276.85742 139.26953 A 1.148168 1.148168 0 0 0 276.82227 138.98633 C 276.42533 138.89593 275.98824 138.85447 275.49414 138.87695 z" id="path40695-8-5-8"/>
  <path style="display:inline;fill:#089cc1;fill-opacity:1;stroke:none;enable-background:new" d="M 275.49414 138.87695 C 275.22721 138.8891 274.93993 138.92271 274.63672 138.97266 C 274.60953 139.07061 274.57617 139.16682 274.57617 139.27344 C 274.57617 139.58567 274.70403 139.86528 274.90625 140.07227 C 274.92364 140.07402 274.94154 140.07453 274.95898 140.07617 C 274.79777 139.59354 275.08522 139.24219 275.75781 139.24219 C 276.54708 139.24219 276.53937 139.58257 276.57617 140.04297 C 276.75969 139.83945 276.87305 139.56905 276.87305 139.27344 C 276.87305 139.17103 276.83961 139.07886 276.81445 138.98438 C 276.41953 138.89519 275.98512 138.85462 275.49414 138.87695 z" id="path40697-9-9-3"/>
  <path style="fill:#2ad4ff;stroke:none;stroke-width:0.37166417;stroke-linecap:round;stroke-miterlimit:4;stroke-dasharray:none" d="M 289.83203 138.5293 C 289.23103 138.55442 288.67007 138.65958 288.16016 138.8125 A 1.148168 1.148168 0 0 0 288.15234 138.94141 A 1.148168 1.148168 0 0 0 288.45508 139.71484 C 289.09569 139.73213 289.715 139.66111 290.27734 139.54102 A 1.148168 1.148168 0 0 0 290.44922 138.94141 A 1.148168 1.148168 0 0 0 290.375 138.53516 C 290.19247 138.529 290.0094 138.52188 289.83203 138.5293 z" id="path40703-6-0-57"/>
  <path style="fill:#089cc1;fill-opacity:1;stroke:none" d="M 289.83203 138.5293 C 289.23875 138.55409 288.68452 138.65704 288.17969 138.80664 C 288.17402 138.85289 288.15234 138.89362 288.15234 138.94141 C 288.15234 139.2412 288.27277 139.51036 288.46094 139.71484 C 288.4846 139.71546 288.50762 139.71446 288.53125 139.71484 C 288.39284 139.24836 288.67774 138.91016 289.33594 138.91016 C 290.03931 138.91016 290.1076 139.18587 290.14062 139.57031 C 290.17957 139.56272 290.21749 139.55496 290.25586 139.54688 C 290.36943 139.36878 290.44922 139.16828 290.44922 138.94141 C 290.44922 138.79738 290.4156 138.66217 290.36719 138.53516 C 290.18735 138.52929 290.00685 138.52199 289.83203 138.5293 z" id="path40707-8-4-2"/>
</svg>
