<?xml version="1.0" encoding="UTF-8" standalone="no"?>
<svg xmlns="http://www.w3.org/2000/svg" id="iris_neutral" width="560" height="560">
  <g id="g5662099" style="display:none;enable-background:new">
    <g id="g5523199" style="display:inline;enable-background:new">
      <path id="path5523399" d="M267 137.3l-1-1.7c-.5-1-2-3.2-2.5-2.4-.4.7 0 1.8 0 2.6-.2.8 0 2 .2 3.3.8 3.8 1.5 5 2.4 6.4 1 1.4 2.3 2 3 1" style="fill:#ffd5d5;stroke:#de8787;stroke-width:0.5;stroke-linecap:round;stroke-linejoin:round;stroke-miterlimit:4;stroke-opacity:1;stroke-dasharray:none"/>
      <path id="path5523599" d="M266.7 140c0 .8 0 1-.3 1-.2.4 0 1.5.2 1.8.3.4.2 1.2 0 1.2 0 0-.3 0-.3-.6 0-.8-1-.6-1.6-2.7-.3-1.7 0-2 .2-2s0-1.3-.3-1.6c0-.2-.4-.5-.6-.6v1.2c0 .4-.2 3.2.8 4.7 1 1.4 1.7 2.7 1.5 2.7-.2 0-1.5-2.2-2-3.4-.4-1.3-.8-3.2-1-4.5 0-1 .2-1.3.5-1.2.3 0 1 1.2 1.4 2 .3 1 .6 1 1 1.2.2 0 .4.4.3 1z" style="fill:#e9afaf;stroke:none"/>
    </g>
    <g id="g5523799" style="display:inline;enable-background:new">
      <path id="path5523999" d="M298 136.3l1.7-2.4c.5-.8 1-2 1.8-1.6.5.5 0 2 0 2.7.2.8.2 1.8 0 3-.6 3.6-1.3 4.7-2 6.2-1 1.5-2 2-2.8 1" style="fill:#ffd5d5;stroke:#de8787;stroke-width:0.5;stroke-linecap:round;stroke-linejoin:round;stroke-miterlimit:4;stroke-opacity:1;stroke-dasharray:none;stroke-dashoffset:0"/>
      <path id="path5524199" d="M298.5 139.2c0 .7.2.8.4 1 0 .2 0 1.3-.3 1.7-.3.2-.2 1 0 1 0 0 .3 0 .3-.7s1.2-.6 1.5-2.7c.3-1.7 0-2-.3-2-.2 0 0-1.3 0-1.6l.7-.7v1c0 .5.2 3.3-.7 4.8-1 1.7-1.7 3-1.4 3 0 0 1.3-2 1.7-3.4.4-1.2.7-3 .7-4.4 0-1.2-.2-1.5-.5-1.3-.3 0-1 1-1.3 2-.3 1-.7 1-1 1.2-.2 0-.4.5-.3 1.2z" style="fill:#e9afaf;stroke:none"/>
    </g>
  </g>
  <path id="path3222-2" d="M275 138.3h-.4c-.3.3-.4.6-.4 1 0 .7.5 1.3 1.3 1.3.7 0 1.3-.6 1.3-1.3 0-.3 0-.5-.3-.7-.4-.3-1-.4-1.4-.4z" style="color:#000000;fill:#2ad4ff;fill-opacity:1;stroke:#00aad4;stroke-width:0.12500001;stroke-linecap:round;stroke-linejoin:miter;stroke-miterlimit:4;stroke-opacity:1;stroke-dasharray:none;stroke-dashoffset:0;marker:none;visibility:visible;display:inline;overflow:visible;enable-background:new"/>
  <path id="path3242-9" d="M274.8 138.3c0 .2.2.5 0 .6h-.6l.6.3s-.5.4-.4.5c0 0 .5-.2.6 0 0 0 0 .5.2.5 0 0 .2-.5.4-.5 0 0 .4.5.5.4.3 0 0-.6 0-.7h.8c0-.2-.5-.4-.5-.5 0 0 .5-.4.4-.5h-.7v-.4h-.4l-.2.4-.4-.3h-.2z" style="color:#000000;fill:#00ccff;fill-opacity:1;fill-rule:nonzero;stroke:none;marker:none;visibility:visible;display:inline;overflow:visible;enable-background:new"/>
  <path id="path3222-2-5" d="M290 138c-.6 0-1 0-1.5.2-.2.2-.3.5-.3.7 0 .6.6 1.2 1.4 1.2.7 0 1.3-.6 1.3-1.4 0-.4-.4-.8-.6-1h-.6z" style="color:#000000;fill:#2ad4ff;fill-opacity:1;stroke:#00aad4;stroke-width:0.12500001;stroke-linecap:round;stroke-linejoin:miter;stroke-miterlimit:4;stroke-opacity:1;stroke-dasharray:none;stroke-dashoffset:0;marker:none;visibility:visible;display:inline;overflow:visible;enable-background:new"/>
  <path id="path3242-9-1" d="M290 138l-.3.2s-.2 0-.2-.3h-.3v.3s-.7-.2-.7 0l.4.4c0 .2-.8.3-.8.4 0 .3.7 0 .7.3 0 0-.3.6 0 .6l.4-.5.4.6v-.6s.6.2.7 0c0 0-.4-.3-.4-.5l.6-.5h-.7l.2-.7h-.3z" style="color:#000000;fill:#00ccff;fill-opacity:1;fill-rule:nonzero;stroke:none;marker:none;visibility:visible;display:inline;overflow:visible;enable-background:new"/>
</svg>
