<?xml version="1.0" encoding="UTF-8" standalone="no"?>
<svg xmlns="http://www.w3.org/2000/svg" id="iris_alertness" width="560" height="560">
  <path id="path79073" d="m 276.85776,139.26958 a 1.148168,1.148168 0 0 1 -1.14817,1.14816 1.148168,1.148168 0 0 1 -1.14816,-1.14816 1.148168,1.148168 0 0 1 1.14816,-1.14817 1.148168,1.148168 0 0 1 1.14817,1.14817 z" style="fill:#2ad4ff;fill-opacity:1;stroke:none;stroke-width:0.37166417;stroke-linecap:round;stroke-miterlimit:4;stroke-dasharray:none"/>
  <path id="path79075" d="m 276.87228,139.27363 c 0,0.29561 -0.11171,0.56512 -0.29523,0.76864 -0.0368,-0.4604 -0.029,-0.79933 -0.81827,-0.79933 -0.70415,0 -1.00212,0.37932 -0.78763,0.89751 -0.24212,-0.21051 -0.3952,-0.52079 -0.3952,-0.86682 0,-0.63412 0.51405,-1.14817 1.14816,-1.14817 0.63412,0 1.14817,0.51405 1.14817,1.14817 z" style="display:inline;fill:#089cc1;fill-opacity:1;stroke:none;enable-background:new"/>
  <path id="path79081" d="m 290.44907,138.94099 a 1.148168,1.148168 0 0 1 -1.14817,1.14817 1.148168,1.148168 0 0 1 -1.14816,-1.14817 1.148168,1.148168 0 0 1 1.14816,-1.14816 1.148168,1.148168 0 0 1 1.14817,1.14816 z" style="fill:#2ad4ff;stroke:none;stroke-width:0.37166417;stroke-linecap:round;stroke-miterlimit:4;stroke-dasharray:none;"/>
  <path id="path79085" d="m 290.45196,138.94388 c 0,0.29635 -0.11199,0.56655 -0.29597,0.77057 -0.0369,-0.46156 -0.0291,-0.80133 -0.82033,-0.80133 -0.70592,0 -1.00464,0.38027 -0.78961,0.89976 -0.24274,-0.21103 -0.3962,-0.52209 -0.3962,-0.869 0,-0.63571 0.51534,-1.15105 1.15105,-1.15105 0.63572,0 1.15106,0.51534 1.15106,1.15105 z" style="fill:#089cc1;fill-opacity:1;stroke:none"/>
</svg>
