<?xml version="1.0" encoding="UTF-8" standalone="no"?>
<svg xmlns="http://www.w3.org/2000/svg" width="560" height="560" id="iris_aversion">
  <path style="fill:#2ad4ff;fill-opacity:1;stroke:none;stroke-width:0.37166417;stroke-linecap:round;stroke-miterlimit:4;stroke-dasharray:none" d="M 275.27148 138.86523 C 275.06049 138.87038 274.83923 138.89657 274.61523 138.92773 A 1.148168 1.148168 0 0 0 274.56055 139.26953 A 1.148168 1.148168 0 0 0 274.65234 139.71875 C 275.3194 139.76517 276.02597 139.78574 276.73828 139.77734 A 1.148168 1.148168 0 0 0 276.85742 139.26953 A 1.148168 1.148168 0 0 0 276.83984 139.06445 C 276.35498 138.93251 275.83853 138.85141 275.27148 138.86523 z" id="path68910"/>
  <path style="display:inline;fill:#089cc1;fill-opacity:1;stroke:none;enable-background:new" d="M 275.27148 138.86523 C 275.07057 138.87013 274.85918 138.8954 274.64648 138.92383 C 274.61016 139.03564 274.57617 139.14952 274.57617 139.27344 C 274.57617 139.43189 274.61187 139.58144 274.66992 139.71875 C 274.75459 139.72456 274.83525 139.73153 274.92188 139.73633 C 274.97393 139.43955 275.25747 139.24219 275.75781 139.24219 C 276.38348 139.24219 276.5076 139.4597 276.55078 139.77734 C 276.61405 139.77696 276.67725 139.77809 276.74023 139.77734 C 276.81673 139.62354 276.87305 139.45687 276.87305 139.27344 C 276.87305 139.19869 276.84372 139.13326 276.83008 139.0625 C 276.34795 138.93219 275.83477 138.8515 275.27148 138.86523 z" id="path68912"/>
  <path style="fill:#2ad4ff;stroke:none;stroke-width:0.37166417;stroke-linecap:round;stroke-miterlimit:4;stroke-dasharray:none" d="M 290.39258 138.58594 C 289.54809 138.55676 288.79796 138.65634 288.1582 138.83398 A 1.148168 1.148168 0 0 0 288.15234 138.94141 A 1.148168 1.148168 0 0 0 288.28711 139.47656 C 288.96147 139.46866 289.68602 139.42917 290.38477 139.32031 A 1.148168 1.148168 0 0 0 290.44922 138.94141 A 1.148168 1.148168 0 0 0 290.39258 138.58594 z" id="path68918"/>
  <path style="fill:#089cc1;fill-opacity:1;stroke:none" d="M 290.37695 138.58594 C 289.54698 138.55881 288.80755 138.65479 288.17578 138.82812 C 288.17175 138.86726 288.15234 138.90121 288.15234 138.94141 C 288.15234 139.13575 288.20579 139.31611 288.29102 139.47656 C 288.35449 139.47581 288.42176 139.47212 288.48633 139.4707 C 288.50206 139.13442 288.79731 138.91016 289.33594 138.91016 C 289.90672 138.91016 290.05593 139.09101 290.11133 139.36328 C 290.20209 139.35144 290.28931 139.33617 290.37891 139.32227 C 290.42148 139.20223 290.44922 139.07603 290.44922 138.94141 C 290.44922 138.81535 290.41448 138.69941 290.37695 138.58594 z" id="path68922"/>
</svg>
