<?xml version="1.0" encoding="UTF-8" standalone="no"?>
<svg xmlns="http://www.w3.org/2000/svg" width="560" height="560" id="belt_utility">
  <defs id="defs80858">
    <clipPath id="clipPath5416-8-2-2-5-1">
      <path style="fill:none;stroke:#800000;stroke-width:1px;stroke-linecap:butt;stroke-linejoin:miter;stroke-opacity:1" d="m 3644.5015,232.71727 c 3.6076,2.57686 15.4612,-1.80381 18.5534,-2.83455 3.0923,-1.03075 8.7614,0 11.3382,0 2.5769,0 9.5344,-0.25769 10.5652,0.51537 1.0307,0.77306 4.3806,4.89604 10.0497,2.06149 -2.5768,-1.8038 -4.2752,-8.02342 -10.8228,-9.53439 -3.3499,-0.77306 -5.6691,1.54612 -8.5036,1.03075 -2.8346,-0.51537 -7.2153,-2.31918 -12.369,-1.54612 -3.6487,0.5473 -15.9765,9.79207 -18.8111,10.30745 z" id="path5418-6-2-3-1-5"/>
    </clipPath>
    <clipPath id="clipPath63062">
      <path id="path63064" d="m 537.77403,127.6704 c -1.4765,2.05656 -4.69315,2.74199 -7.27702,0.84364 1.4765,-1.42373 4.06036,-2.58378 7.27702,-0.84364 z" style="display:inline;fill:#f2f2f2;stroke:#de8787;stroke-width:0.20430227px;stroke-linecap:butt;stroke-linejoin:miter;stroke-opacity:1;enable-background:new"/>
    </clipPath>
    <clipPath id="clipPath63025">
      <path id="path63027" d="m 514.375,128.28314 c 1.74016,1.89822 5.16773,2.10917 7.5934,0.36902 -1.84562,-1.5292 -4.06036,-2.53105 -7.5934,-0.36902 z" style="display:inline;fill:#f2f2f2;stroke:#de8787;stroke-width:0.20430227px;stroke-linecap:butt;stroke-linejoin:miter;stroke-opacity:1;enable-background:new"/>
    </clipPath>
    <clipPath id="clipPath65322">
      <path id="path65324" d="m 284.99227,154.79692 c -0.48432,-0.10124 -1.5535,0.31783 -2.10221,0.31873 -0.54874,9.2e-4 -2.26936,-0.4038 -2.56775,-0.31217 -0.29835,0.0917 -1.42928,0.43482 -2.73642,0.46173 0.2083,-0.58758 1.31285,-2.12739 3.04586,-2.14078 0.88664,-0.007 1.45804,0.68191 2.08244,0.5631 0.62442,-0.1188 1.46807,-0.7286 2.30978,-0.68018 1.3587,0.0781 2.68313,1.2893 3.27441,2.16476 -0.69731,-0.36701 -2.30326,-0.14737 -3.30611,-0.37519 z" style="display:inline;fill:#d40000;fill-rule:evenodd;stroke:#800000;stroke-width:0.38534227px;stroke-linecap:butt;stroke-linejoin:miter;stroke-opacity:1;enable-background:new"/>
    </clipPath>
    <clipPath id="clipPath65300">
      <path style="display:inline;fill:#f2f2f2;fill-opacity:1;stroke:#de8787;stroke-width:0.20430227px;stroke-linecap:butt;stroke-linejoin:miter;stroke-opacity:1;enable-background:new" d="m 537.77403,127.6704 c -1.53848,1.56073 -4.79694,1.91169 -7.27702,0.84364 1.21657,-0.95586 3.50381,-1.58199 7.27702,-0.84364 z" id="path65302"/>
    </clipPath>
    <clipPath id="clipPath65260">
      <path style="display:inline;fill:#f2f2f2;fill-opacity:1;stroke:#de8787;stroke-width:0.20430227px;stroke-linecap:butt;stroke-linejoin:miter;stroke-opacity:1;enable-background:new" d="m 514.375,128.28314 c 1.54291,1.10923 5.03122,1.56311 7.5934,0.36902 -1.84562,-0.95052 -4.06036,-1.46121 -7.5934,-0.36902 z" id="path65262"/>
    </clipPath>
    <clipPath id="clipPath66115">
      <path style="display:inline;fill:#d40000;fill-rule:evenodd;stroke:#800000;stroke-width:0.38534227px;stroke-linecap:butt;stroke-linejoin:miter;stroke-opacity:1;enable-background:new" d="m 284.99227,154.79692 c -0.48432,-0.10124 -1.5535,0.31783 -2.10221,0.31873 -0.54874,9.2e-4 -2.26936,-0.4038 -2.56775,-0.31217 -0.29835,0.0917 -2.02554,0.66415 -3.03455,1.35612 0.3459,-0.97744 1.61098,-3.02178 3.34399,-3.03517 0.88664,-0.007 1.44684,0.5631 2.08244,0.5631 0.53117,0 1.46807,-0.7286 2.30978,-0.68018 1.3587,0.0781 3.16473,1.44983 3.80187,3.01329 -0.69731,-0.36701 -2.83072,-0.9959 -3.83357,-1.22372 z" id="path66117"/>
    </clipPath>
    <clipPath id="clipPath63062-5">
      <path id="path63064-2" d="m 537.77403,127.6704 c -1.4765,2.05656 -4.69315,2.74199 -7.27702,0.84364 1.4765,-1.42373 4.06036,-2.58378 7.27702,-0.84364 z" style="display:inline;fill:#f2f2f2;stroke:#de8787;stroke-width:0.20430227px;stroke-linecap:butt;stroke-linejoin:miter;stroke-opacity:1;enable-background:new"/>
    </clipPath>
    <clipPath id="clipPath63025-3">
      <path id="path63027-2" d="m 514.375,128.28314 c 1.74016,1.89822 5.16773,2.10917 7.5934,0.36902 -1.84562,-1.5292 -4.06036,-2.53105 -7.5934,-0.36902 z" style="display:inline;fill:#f2f2f2;stroke:#de8787;stroke-width:0.20430227px;stroke-linecap:butt;stroke-linejoin:miter;stroke-opacity:1;enable-background:new"/>
    </clipPath>
    <clipPath id="clipPath95560">
      <path id="path95562" d="m 552.90935,154.83331 c -1.23871,0 -4.52418,-1.37629 -5.22058,-2.2536 -0.57653,-0.72632 0.0706,-5.68377 1.38117,-5.60619 1.16133,0.0687 2.66765,0.29644 3.71213,0.32956 2.00916,0.0637 3.91961,-0.9584 4.5652,-0.46119 0.9211,0.7094 1.04374,2.65122 1.0939,3.34793 0.0275,0.38176 -0.038,1.89447 -0.92973,2.5277 -1.06564,0.75677 -3.86932,2.11579 -4.60209,2.11579 z" style="color:#000000;display:inline;overflow:visible;visibility:visible;fill:none;stroke:#de8787;stroke-width:0.12364889;stroke-linecap:butt;stroke-linejoin:miter;stroke-miterlimit:4;stroke-dasharray:none;stroke-dashoffset:0;stroke-opacity:1;marker:none;enable-background:accumulate"/>
    </clipPath>
    <clipPath id="clipPath95552">
      <path id="path95554" d="m 552.90935,154.83331 c -1.23871,0 -4.52418,-1.37629 -5.22058,-2.2536 -0.57653,-0.72632 0.0706,-5.68377 1.38117,-5.60619 1.16133,0.0687 2.66765,0.29644 3.71213,0.32956 2.00916,0.0637 3.91961,-0.9584 4.5652,-0.46119 0.9211,0.7094 1.04374,2.65122 1.0939,3.34793 0.0275,0.38176 -0.038,1.89447 -0.92973,2.5277 -1.06564,0.75677 -3.86932,2.11579 -4.60209,2.11579 z" style="color:#000000;display:inline;overflow:visible;visibility:visible;fill:none;stroke:#de8787;stroke-width:0.12364889;stroke-linecap:butt;stroke-linejoin:miter;stroke-miterlimit:4;stroke-dasharray:none;stroke-dashoffset:0;stroke-opacity:1;marker:none;enable-background:accumulate"/>
    </clipPath>
    <clipPath id="clipPath95544">
      <path id="path95546" d="m 552.90935,154.83331 c -1.23871,0 -4.52418,-1.37629 -5.22058,-2.2536 -0.57653,-0.72632 0.0706,-5.68377 1.38117,-5.60619 1.16133,0.0687 2.66765,0.29644 3.71213,0.32956 2.00916,0.0637 3.91961,-0.9584 4.5652,-0.46119 0.9211,0.7094 1.04374,2.65122 1.0939,3.34793 0.0275,0.38176 -0.038,1.89447 -0.92973,2.5277 -1.06564,0.75677 -3.86932,2.11579 -4.60209,2.11579 z" style="color:#000000;display:inline;overflow:visible;visibility:visible;fill:none;stroke:#de8787;stroke-width:0.12364889;stroke-linecap:butt;stroke-linejoin:miter;stroke-miterlimit:4;stroke-dasharray:none;stroke-dashoffset:0;stroke-opacity:1;marker:none;enable-background:accumulate"/>
    </clipPath>
    <clipPath id="clipPath95536">
      <path id="path95538" d="m 552.90935,154.83331 c -1.23871,0 -4.52418,-1.37629 -5.22058,-2.2536 -0.57653,-0.72632 0.0706,-5.68377 1.38117,-5.60619 1.16133,0.0687 2.66765,0.29644 3.71213,0.32956 2.00916,0.0637 3.91961,-0.9584 4.5652,-0.46119 0.9211,0.7094 1.04374,2.65122 1.0939,3.34793 0.0275,0.38176 -0.038,1.89447 -0.92973,2.5277 -1.06564,0.75677 -3.86932,2.11579 -4.60209,2.11579 z" style="color:#000000;display:inline;overflow:visible;visibility:visible;fill:none;stroke:#de8787;stroke-width:0.12364889;stroke-linecap:butt;stroke-linejoin:miter;stroke-miterlimit:4;stroke-dasharray:none;stroke-dashoffset:0;stroke-opacity:1;marker:none;enable-background:accumulate"/>
    </clipPath>
    <clipPath id="clipPath63369">
      <path id="path63371" d="m 537.77403,127.6704 c -1.58685,1.68873 -4.97139,1.81455 -7.27702,0.84364 1.34699,-1.20787 3.79547,-2.1423 7.27702,-0.84364 z" style="display:inline;fill:#f2f2f2;fill-opacity:1;stroke:#de8787;stroke-width:0.20430227px;stroke-linecap:butt;stroke-linejoin:miter;stroke-opacity:1;enable-background:new"/>
    </clipPath>
    <clipPath id="clipPath63391">
      <path id="path63393" d="m 514.375,128.28314 c 2.10708,1.5313 6.04242,1.23447 7.5934,0.36901 -1.70751,-1.23904 -3.77802,-1.93791 -7.5934,-0.36901 z" style="display:inline;fill:#f2f2f2;fill-opacity:1;stroke:#de8787;stroke-width:0.20430227px;stroke-linecap:butt;stroke-linejoin:miter;stroke-opacity:1;enable-background:new"/>
    </clipPath>
    <clipPath id="clipPath68220">
      <path id="path68222" d="m 5837.0109,4013.3148 c -232.3795,0 -1098.8562,-323.6957 -1229.498,-492.3191 -108.1561,-139.603 263.371,-1033.2791 509.2317,-1018.3667 217.8647,13.2026 820.4826,10.7042 1001.953,-65.2837 204.7638,-85.7431 429.7472,-55.5836 550.8587,39.9835 172.7947,136.3482 453.2577,822.2082 462.6672,956.1199 -80.8603,91.0058 -195.7592,192.5186 -363.0459,314.2294 -199.9114,145.4548 -794.6993,265.6367 -932.1667,265.6367 z" style="color:#000000;display:inline;overflow:visible;visibility:visible;fill:#800000;fill-opacity:1;fill-rule:evenodd;stroke:none;stroke-width:0.10368534;marker:none;enable-background:accumulate"/>
    </clipPath>
    <clipPath id="clipPath95536-6">
      <path id="path95538-5" d="m 552.90935,154.83331 c -1.23871,0 -4.52418,-1.37629 -5.22058,-2.2536 -0.57653,-0.72632 0.0706,-5.68377 1.38117,-5.60619 1.16133,0.0687 2.66765,0.29644 3.71213,0.32956 2.00916,0.0637 3.91961,-0.9584 4.5652,-0.46119 0.9211,0.7094 1.04374,2.65122 1.0939,3.34793 0.0275,0.38176 -0.038,1.89447 -0.92973,2.5277 -1.06564,0.75677 -3.86932,2.11579 -4.60209,2.11579 z" style="color:#000000;display:inline;overflow:visible;visibility:visible;fill:none;stroke:#de8787;stroke-width:0.12364889;stroke-linecap:butt;stroke-linejoin:miter;stroke-miterlimit:4;stroke-dasharray:none;stroke-dashoffset:0;stroke-opacity:1;marker:none;enable-background:accumulate"/>
    </clipPath>
    <clipPath id="clipPath95544-2">
      <path id="path95546-5" d="m 552.90935,154.83331 c -1.23871,0 -4.52418,-1.37629 -5.22058,-2.2536 -0.57653,-0.72632 0.0706,-5.68377 1.38117,-5.60619 1.16133,0.0687 2.66765,0.29644 3.71213,0.32956 2.00916,0.0637 3.91961,-0.9584 4.5652,-0.46119 0.9211,0.7094 1.04374,2.65122 1.0939,3.34793 0.0275,0.38176 -0.038,1.89447 -0.92973,2.5277 -1.06564,0.75677 -3.86932,2.11579 -4.60209,2.11579 z" style="color:#000000;display:inline;overflow:visible;visibility:visible;fill:none;stroke:#de8787;stroke-width:0.12364889;stroke-linecap:butt;stroke-linejoin:miter;stroke-miterlimit:4;stroke-dasharray:none;stroke-dashoffset:0;stroke-opacity:1;marker:none;enable-background:accumulate"/>
    </clipPath>
    <clipPath id="clipPath95552-9">
      <path id="path95554-7" d="m 552.90935,154.83331 c -1.23871,0 -4.52418,-1.37629 -5.22058,-2.2536 -0.57653,-0.72632 0.0706,-5.68377 1.38117,-5.60619 1.16133,0.0687 2.66765,0.29644 3.71213,0.32956 2.00916,0.0637 3.91961,-0.9584 4.5652,-0.46119 0.9211,0.7094 1.04374,2.65122 1.0939,3.34793 0.0275,0.38176 -0.038,1.89447 -0.92973,2.5277 -1.06564,0.75677 -3.86932,2.11579 -4.60209,2.11579 z" style="color:#000000;display:inline;overflow:visible;visibility:visible;fill:none;stroke:#de8787;stroke-width:0.12364889;stroke-linecap:butt;stroke-linejoin:miter;stroke-miterlimit:4;stroke-dasharray:none;stroke-dashoffset:0;stroke-opacity:1;marker:none;enable-background:accumulate"/>
    </clipPath>
    <clipPath id="clipPath95560-8">
      <path id="path95562-2" d="m 552.90935,154.83331 c -1.23871,0 -4.52418,-1.37629 -5.22058,-2.2536 -0.57653,-0.72632 0.0706,-5.68377 1.38117,-5.60619 1.16133,0.0687 2.66765,0.29644 3.71213,0.32956 2.00916,0.0637 3.91961,-0.9584 4.5652,-0.46119 0.9211,0.7094 1.04374,2.65122 1.0939,3.34793 0.0275,0.38176 -0.038,1.89447 -0.92973,2.5277 -1.06564,0.75677 -3.86932,2.11579 -4.60209,2.11579 z" style="color:#000000;display:inline;overflow:visible;visibility:visible;fill:none;stroke:#de8787;stroke-width:0.12364889;stroke-linecap:butt;stroke-linejoin:miter;stroke-miterlimit:4;stroke-dasharray:none;stroke-dashoffset:0;stroke-opacity:1;marker:none;enable-background:accumulate"/>
    </clipPath>
    <clipPath id="clipPath68266">
      <path style="display:inline;fill:#f2f2f2;fill-opacity:1;stroke:#de8787;stroke-width:0.20430227px;stroke-linecap:butt;stroke-linejoin:miter;stroke-opacity:1;enable-background:new" d="m 537.77403,127.6704 c -1.85607,1.29722 -5.4655,1.08298 -7.27702,0.84364 1.2289,-1.79749 3.49929,-3.54468 7.27702,-0.84364 z" id="path68268"/>
    </clipPath>
    <clipPath id="clipPath68290">
      <path style="display:inline;fill:#f2f2f2;fill-opacity:1;stroke:#de8787;stroke-width:0.20430227px;stroke-linecap:butt;stroke-linejoin:miter;stroke-opacity:1;enable-background:new" d="m 514.375,128.28314 c 2.37002,0.7425 6.20989,0.73206 7.5934,0.36901 -1.81515,-1.88486 -4.08426,-3.77541 -7.5934,-0.36901 z" id="path68292"/>
    </clipPath>
    <clipPath id="clipPath65300-4">
      <path style="display:inline;fill:#f2f2f2;fill-opacity:1;stroke:#de8787;stroke-width:0.20430227px;stroke-linecap:butt;stroke-linejoin:miter;stroke-opacity:1;enable-background:new" d="m 537.77403,127.6704 c -1.53848,1.56073 -4.79694,1.91169 -7.27702,0.84364 1.21657,-0.95586 3.50381,-1.58199 7.27702,-0.84364 z" id="path65302-4"/>
    </clipPath>
    <clipPath id="clipPath65260-3">
      <path style="display:inline;fill:#f2f2f2;fill-opacity:1;stroke:#de8787;stroke-width:0.20430227px;stroke-linecap:butt;stroke-linejoin:miter;stroke-opacity:1;enable-background:new" d="m 514.375,128.28314 c 1.54291,1.10923 5.03122,1.56311 7.5934,0.36902 -1.84562,-0.95052 -4.06036,-1.46121 -7.5934,-0.36902 z" id="path65262-8"/>
    </clipPath>
    <clipPath id="clipPath69444">
      <path style="display:inline;fill:#d40000;fill-rule:evenodd;stroke:#800000;stroke-width:0.38534227px;stroke-linecap:butt;stroke-linejoin:miter;stroke-opacity:1;enable-background:new" d="m 284.99227,154.79692 c -0.4945,-0.0168 -1.5535,0.31783 -2.10221,0.31873 -0.54874,9.2e-4 -1.38233,-0.28287 -2.56775,-0.31217 -1.04171,-0.0257 -1.99713,0.17274 -2.73642,0.68013 0.2083,-0.58758 1.31285,-2.34579 3.04586,-2.35918 0.88664,-0.007 1.44684,0.5631 2.08244,0.5631 0.53117,0 1.46807,-0.7286 2.30978,-0.68018 1.3587,0.0781 2.68313,1.5077 3.27441,2.38316 -0.69731,-0.36701 -1.90887,-0.54614 -3.30611,-0.59359 z" id="path69446"/>
    </clipPath>
    <clipPath id="clipPath69391">
      <path id="path69393" d="m 537.77403,127.6704 c -1.96042,0.97001 -5.47049,0.96871 -7.27702,0.84364 1.42532,-0.95586 4.03892,-1.58199 7.27702,-0.84364 z" style="display:inline;fill:#f2f2f2;fill-opacity:1;stroke:#de8787;stroke-width:0.20430227px;stroke-linecap:butt;stroke-linejoin:miter;stroke-opacity:1;enable-background:new"/>
    </clipPath>
    <clipPath id="clipPath69415">
      <path id="path69417" d="m 514.375,128.28314 c 1.62239,0.51314 5.16984,0.52345 7.5934,0.36902 -1.92768,-1.05994 -4.29451,-1.77342 -7.5934,-0.36902 z" style="display:inline;fill:#f2f2f2;fill-opacity:1;stroke:#de8787;stroke-width:0.20430227px;stroke-linecap:butt;stroke-linejoin:miter;stroke-opacity:1;enable-background:new"/>
    </clipPath>
    <clipPath id="clipPath63477">
      <path id="path63479" d="m 537.77403,127.6704 c -1.22084,0.86348 -4.47657,1.73131 -7.27702,0.84364 1.59472,-1.06905 4.41505,-1.69707 7.27702,-0.84364 z" style="display:inline;fill:#f2f2f2;fill-opacity:1;stroke:#de8787;stroke-width:0.20430227px;stroke-linecap:butt;stroke-linejoin:miter;stroke-opacity:1;enable-background:new"/>
    </clipPath>
    <clipPath id="clipPath63455">
      <path id="path63457" d="m 514.375,128.28314 c 1.8734,1.16543 5.34826,1.1163 7.5934,0.36901 -1.72424,-1.20555 -3.73022,-1.65069 -7.5934,-0.36901 z" style="display:inline;fill:#f2f2f2;fill-opacity:1;stroke:#de8787;stroke-width:0.20430227px;stroke-linecap:butt;stroke-linejoin:miter;stroke-opacity:1;enable-background:new"/>
    </clipPath>
    <clipPath id="clipPath68220-2">
      <path id="path68222-4" d="m 5837.0109,4013.3148 c -232.3795,0 -1098.8562,-323.6957 -1229.498,-492.3191 -108.1561,-139.603 263.371,-1033.2791 509.2317,-1018.3667 217.8647,13.2026 820.4826,10.7042 1001.953,-65.2837 204.7638,-85.7431 429.7472,-55.5836 550.8587,39.9835 172.7947,136.3482 453.2577,822.2082 462.6672,956.1199 -80.8603,91.0058 -195.7592,192.5186 -363.0459,314.2294 -199.9114,145.4548 -794.6993,265.6367 -932.1667,265.6367 z" style="color:#000000;display:inline;overflow:visible;visibility:visible;fill:#800000;fill-opacity:1;fill-rule:evenodd;stroke:none;stroke-width:0.10368534;marker:none;enable-background:accumulate"/>
    </clipPath>
    <clipPath id="clipPath71318">
      <path style="color:#000000;display:inline;overflow:visible;visibility:visible;fill:#800000;fill-opacity:1;fill-rule:evenodd;stroke:none;stroke-width:0.10368534;marker:none;enable-background:accumulate" d="m 282.81173,157.51914 c -1.03872,0 -4.87134,0.0445 -5.4553,-0.69114 -0.48345,-0.60906 1.17725,-4.50799 2.27623,-4.44293 0.97384,0.0576 3.6675,0.0467 4.47866,-0.28482 0.91528,-0.37408 1.92094,-0.2425 2.4623,0.17444 0.77238,0.59486 2.02603,3.58713 2.06809,4.17136 -0.36144,0.39704 -0.87503,0.83992 -1.62279,1.37092 -0.89359,0.63459 -3.59272,-0.29783 -4.20719,-0.29783 z" id="path71320"/>
    </clipPath>
    <clipPath id="clipPath95536-0">
      <path id="path95538-59" d="m 552.90935,154.83331 c -1.23871,0 -4.52418,-1.37629 -5.22058,-2.2536 -0.57653,-0.72632 0.0706,-5.68377 1.38117,-5.60619 1.16133,0.0687 2.66765,0.29644 3.71213,0.32956 2.00916,0.0637 3.91961,-0.9584 4.5652,-0.46119 0.9211,0.7094 1.04374,2.65122 1.0939,3.34793 0.0275,0.38176 -0.038,1.89447 -0.92973,2.5277 -1.06564,0.75677 -3.86932,2.11579 -4.60209,2.11579 z" style="color:#000000;display:inline;overflow:visible;visibility:visible;fill:none;stroke:#de8787;stroke-width:0.12364889;stroke-linecap:butt;stroke-linejoin:miter;stroke-miterlimit:4;stroke-dasharray:none;stroke-dashoffset:0;stroke-opacity:1;marker:none;enable-background:accumulate"/>
    </clipPath>
    <clipPath id="clipPath95544-9">
      <path id="path95546-4" d="m 552.90935,154.83331 c -1.23871,0 -4.52418,-1.37629 -5.22058,-2.2536 -0.57653,-0.72632 0.0706,-5.68377 1.38117,-5.60619 1.16133,0.0687 2.66765,0.29644 3.71213,0.32956 2.00916,0.0637 3.91961,-0.9584 4.5652,-0.46119 0.9211,0.7094 1.04374,2.65122 1.0939,3.34793 0.0275,0.38176 -0.038,1.89447 -0.92973,2.5277 -1.06564,0.75677 -3.86932,2.11579 -4.60209,2.11579 z" style="color:#000000;display:inline;overflow:visible;visibility:visible;fill:none;stroke:#de8787;stroke-width:0.12364889;stroke-linecap:butt;stroke-linejoin:miter;stroke-miterlimit:4;stroke-dasharray:none;stroke-dashoffset:0;stroke-opacity:1;marker:none;enable-background:accumulate"/>
    </clipPath>
    <clipPath id="clipPath95552-8">
      <path id="path95554-2" d="m 552.90935,154.83331 c -1.23871,0 -4.52418,-1.37629 -5.22058,-2.2536 -0.57653,-0.72632 0.0706,-5.68377 1.38117,-5.60619 1.16133,0.0687 2.66765,0.29644 3.71213,0.32956 2.00916,0.0637 3.91961,-0.9584 4.5652,-0.46119 0.9211,0.7094 1.04374,2.65122 1.0939,3.34793 0.0275,0.38176 -0.038,1.89447 -0.92973,2.5277 -1.06564,0.75677 -3.86932,2.11579 -4.60209,2.11579 z" style="color:#000000;display:inline;overflow:visible;visibility:visible;fill:none;stroke:#de8787;stroke-width:0.12364889;stroke-linecap:butt;stroke-linejoin:miter;stroke-miterlimit:4;stroke-dasharray:none;stroke-dashoffset:0;stroke-opacity:1;marker:none;enable-background:accumulate"/>
    </clipPath>
    <clipPath id="clipPath95560-5">
      <path id="path95562-8" d="m 552.90935,154.83331 c -1.23871,0 -4.52418,-1.37629 -5.22058,-2.2536 -0.57653,-0.72632 0.0706,-5.68377 1.38117,-5.60619 1.16133,0.0687 2.66765,0.29644 3.71213,0.32956 2.00916,0.0637 3.91961,-0.9584 4.5652,-0.46119 0.9211,0.7094 1.04374,2.65122 1.0939,3.34793 0.0275,0.38176 -0.038,1.89447 -0.92973,2.5277 -1.06564,0.75677 -3.86932,2.11579 -4.60209,2.11579 z" style="color:#000000;display:inline;overflow:visible;visibility:visible;fill:none;stroke:#de8787;stroke-width:0.12364889;stroke-linecap:butt;stroke-linejoin:miter;stroke-miterlimit:4;stroke-dasharray:none;stroke-dashoffset:0;stroke-opacity:1;marker:none;enable-background:accumulate"/>
    </clipPath>
    <clipPath id="clipPath68220-27">
      <path id="path68222-47" d="m 5837.0109,4013.3148 c -232.3795,0 -1098.8562,-323.6957 -1229.498,-492.3191 -108.1561,-139.603 263.371,-1033.2791 509.2317,-1018.3667 217.8647,13.2026 820.4826,10.7042 1001.953,-65.2837 204.7638,-85.7431 429.7472,-55.5836 550.8587,39.9835 172.7947,136.3482 453.2577,822.2082 462.6672,956.1199 -80.8603,91.0058 -195.7592,192.5186 -363.0459,314.2294 -199.9114,145.4548 -794.6993,265.6367 -932.1667,265.6367 z" style="color:#000000;display:inline;overflow:visible;visibility:visible;fill:#800000;fill-opacity:1;fill-rule:evenodd;stroke:none;stroke-width:0.10368534;marker:none;enable-background:accumulate"/>
    </clipPath>
    <clipPath id="clipPath71318-1">
      <path style="color:#000000;display:inline;overflow:visible;visibility:visible;fill:#800000;fill-opacity:1;fill-rule:evenodd;stroke:none;stroke-width:0.10368534;marker:none;enable-background:accumulate" d="m 282.81173,157.51914 c -1.03872,0 -4.87134,0.0445 -5.4553,-0.69114 -0.48345,-0.60906 1.17725,-4.50799 2.27623,-4.44293 0.97384,0.0576 3.6675,0.0467 4.47866,-0.28482 0.91528,-0.37408 1.92094,-0.2425 2.4623,0.17444 0.77238,0.59486 2.02603,3.58713 2.06809,4.17136 -0.36144,0.39704 -0.87503,0.83992 -1.62279,1.37092 -0.89359,0.63459 -3.59272,-0.29783 -4.20719,-0.29783 z" id="path71320-9"/>
    </clipPath>
    <clipPath id="clipPath95536-5">
      <path id="path95538-3" d="m 552.90935,154.83331 c -1.23871,0 -4.52418,-1.37629 -5.22058,-2.2536 -0.57653,-0.72632 0.0706,-5.68377 1.38117,-5.60619 1.16133,0.0687 2.66765,0.29644 3.71213,0.32956 2.00916,0.0637 3.91961,-0.9584 4.5652,-0.46119 0.9211,0.7094 1.04374,2.65122 1.0939,3.34793 0.0275,0.38176 -0.038,1.89447 -0.92973,2.5277 -1.06564,0.75677 -3.86932,2.11579 -4.60209,2.11579 z" style="color:#000000;display:inline;overflow:visible;visibility:visible;fill:none;stroke:#de8787;stroke-width:0.12364889;stroke-linecap:butt;stroke-linejoin:miter;stroke-miterlimit:4;stroke-dasharray:none;stroke-dashoffset:0;stroke-opacity:1;marker:none;enable-background:accumulate"/>
    </clipPath>
    <clipPath id="clipPath95544-5">
      <path id="path95546-7" d="m 552.90935,154.83331 c -1.23871,0 -4.52418,-1.37629 -5.22058,-2.2536 -0.57653,-0.72632 0.0706,-5.68377 1.38117,-5.60619 1.16133,0.0687 2.66765,0.29644 3.71213,0.32956 2.00916,0.0637 3.91961,-0.9584 4.5652,-0.46119 0.9211,0.7094 1.04374,2.65122 1.0939,3.34793 0.0275,0.38176 -0.038,1.89447 -0.92973,2.5277 -1.06564,0.75677 -3.86932,2.11579 -4.60209,2.11579 z" style="color:#000000;display:inline;overflow:visible;visibility:visible;fill:none;stroke:#de8787;stroke-width:0.12364889;stroke-linecap:butt;stroke-linejoin:miter;stroke-miterlimit:4;stroke-dasharray:none;stroke-dashoffset:0;stroke-opacity:1;marker:none;enable-background:accumulate"/>
    </clipPath>
    <clipPath id="clipPath95552-4">
      <path id="path95554-1" d="m 552.90935,154.83331 c -1.23871,0 -4.52418,-1.37629 -5.22058,-2.2536 -0.57653,-0.72632 0.0706,-5.68377 1.38117,-5.60619 1.16133,0.0687 2.66765,0.29644 3.71213,0.32956 2.00916,0.0637 3.91961,-0.9584 4.5652,-0.46119 0.9211,0.7094 1.04374,2.65122 1.0939,3.34793 0.0275,0.38176 -0.038,1.89447 -0.92973,2.5277 -1.06564,0.75677 -3.86932,2.11579 -4.60209,2.11579 z" style="color:#000000;display:inline;overflow:visible;visibility:visible;fill:none;stroke:#de8787;stroke-width:0.12364889;stroke-linecap:butt;stroke-linejoin:miter;stroke-miterlimit:4;stroke-dasharray:none;stroke-dashoffset:0;stroke-opacity:1;marker:none;enable-background:accumulate"/>
    </clipPath>
    <clipPath id="clipPath95560-7">
      <path id="path95562-0" d="m 552.90935,154.83331 c -1.23871,0 -4.52418,-1.37629 -5.22058,-2.2536 -0.57653,-0.72632 0.0706,-5.68377 1.38117,-5.60619 1.16133,0.0687 2.66765,0.29644 3.71213,0.32956 2.00916,0.0637 3.91961,-0.9584 4.5652,-0.46119 0.9211,0.7094 1.04374,2.65122 1.0939,3.34793 0.0275,0.38176 -0.038,1.89447 -0.92973,2.5277 -1.06564,0.75677 -3.86932,2.11579 -4.60209,2.11579 z" style="color:#000000;display:inline;overflow:visible;visibility:visible;fill:none;stroke:#de8787;stroke-width:0.12364889;stroke-linecap:butt;stroke-linejoin:miter;stroke-miterlimit:4;stroke-dasharray:none;stroke-dashoffset:0;stroke-opacity:1;marker:none;enable-background:accumulate"/>
    </clipPath>
    <clipPath id="clipPath68220-8">
      <path id="path68222-9" d="m 5837.0109,4013.3148 c -232.3795,0 -1098.8562,-323.6957 -1229.498,-492.3191 -108.1561,-139.603 263.371,-1033.2791 509.2317,-1018.3667 217.8647,13.2026 820.4826,10.7042 1001.953,-65.2837 204.7638,-85.7431 429.7472,-55.5836 550.8587,39.9835 172.7947,136.3482 453.2577,822.2082 462.6672,956.1199 -80.8603,91.0058 -195.7592,192.5186 -363.0459,314.2294 -199.9114,145.4548 -794.6993,265.6367 -932.1667,265.6367 z" style="color:#000000;display:inline;overflow:visible;visibility:visible;fill:#800000;fill-opacity:1;fill-rule:evenodd;stroke:none;stroke-width:0.10368534;marker:none;enable-background:accumulate"/>
    </clipPath>
    <clipPath id="clipPath71318-0">
      <path style="color:#000000;display:inline;overflow:visible;visibility:visible;fill:#800000;fill-opacity:1;fill-rule:evenodd;stroke:none;stroke-width:0.10368534;marker:none;enable-background:accumulate" d="m 282.81173,157.51914 c -1.03872,0 -4.87134,0.0445 -5.4553,-0.69114 -0.48345,-0.60906 1.17725,-4.50799 2.27623,-4.44293 0.97384,0.0576 3.6675,0.0467 4.47866,-0.28482 0.91528,-0.37408 1.92094,-0.2425 2.4623,0.17444 0.77238,0.59486 2.02603,3.58713 2.06809,4.17136 -0.36144,0.39704 -0.87503,0.83992 -1.62279,1.37092 -0.89359,0.63459 -3.59272,-0.29783 -4.20719,-0.29783 z" id="path71320-96"/>
    </clipPath>
    <clipPath id="clipPath95536-2">
      <path id="path95538-9" d="m 552.90935,154.83331 c -1.23871,0 -4.52418,-1.37629 -5.22058,-2.2536 -0.57653,-0.72632 0.0706,-5.68377 1.38117,-5.60619 1.16133,0.0687 2.66765,0.29644 3.71213,0.32956 2.00916,0.0637 3.91961,-0.9584 4.5652,-0.46119 0.9211,0.7094 1.04374,2.65122 1.0939,3.34793 0.0275,0.38176 -0.038,1.89447 -0.92973,2.5277 -1.06564,0.75677 -3.86932,2.11579 -4.60209,2.11579 z" style="color:#000000;display:inline;overflow:visible;visibility:visible;fill:none;stroke:#de8787;stroke-width:0.12364889;stroke-linecap:butt;stroke-linejoin:miter;stroke-miterlimit:4;stroke-dasharray:none;stroke-dashoffset:0;stroke-opacity:1;marker:none;enable-background:accumulate"/>
    </clipPath>
    <clipPath id="clipPath95544-98">
      <path id="path95546-9" d="m 552.90935,154.83331 c -1.23871,0 -4.52418,-1.37629 -5.22058,-2.2536 -0.57653,-0.72632 0.0706,-5.68377 1.38117,-5.60619 1.16133,0.0687 2.66765,0.29644 3.71213,0.32956 2.00916,0.0637 3.91961,-0.9584 4.5652,-0.46119 0.9211,0.7094 1.04374,2.65122 1.0939,3.34793 0.0275,0.38176 -0.038,1.89447 -0.92973,2.5277 -1.06564,0.75677 -3.86932,2.11579 -4.60209,2.11579 z" style="color:#000000;display:inline;overflow:visible;visibility:visible;fill:none;stroke:#de8787;stroke-width:0.12364889;stroke-linecap:butt;stroke-linejoin:miter;stroke-miterlimit:4;stroke-dasharray:none;stroke-dashoffset:0;stroke-opacity:1;marker:none;enable-background:accumulate"/>
    </clipPath>
    <clipPath id="clipPath95552-5">
      <path id="path95554-3" d="m 552.90935,154.83331 c -1.23871,0 -4.52418,-1.37629 -5.22058,-2.2536 -0.57653,-0.72632 0.0706,-5.68377 1.38117,-5.60619 1.16133,0.0687 2.66765,0.29644 3.71213,0.32956 2.00916,0.0637 3.91961,-0.9584 4.5652,-0.46119 0.9211,0.7094 1.04374,2.65122 1.0939,3.34793 0.0275,0.38176 -0.038,1.89447 -0.92973,2.5277 -1.06564,0.75677 -3.86932,2.11579 -4.60209,2.11579 z" style="color:#000000;display:inline;overflow:visible;visibility:visible;fill:none;stroke:#de8787;stroke-width:0.12364889;stroke-linecap:butt;stroke-linejoin:miter;stroke-miterlimit:4;stroke-dasharray:none;stroke-dashoffset:0;stroke-opacity:1;marker:none;enable-background:accumulate"/>
    </clipPath>
    <clipPath id="clipPath95560-57">
      <path id="path95562-80" d="m 552.90935,154.83331 c -1.23871,0 -4.52418,-1.37629 -5.22058,-2.2536 -0.57653,-0.72632 0.0706,-5.68377 1.38117,-5.60619 1.16133,0.0687 2.66765,0.29644 3.71213,0.32956 2.00916,0.0637 3.91961,-0.9584 4.5652,-0.46119 0.9211,0.7094 1.04374,2.65122 1.0939,3.34793 0.0275,0.38176 -0.038,1.89447 -0.92973,2.5277 -1.06564,0.75677 -3.86932,2.11579 -4.60209,2.11579 z" style="color:#000000;display:inline;overflow:visible;visibility:visible;fill:none;stroke:#de8787;stroke-width:0.12364889;stroke-linecap:butt;stroke-linejoin:miter;stroke-miterlimit:4;stroke-dasharray:none;stroke-dashoffset:0;stroke-opacity:1;marker:none;enable-background:accumulate"/>
    </clipPath>
    <clipPath id="clipPath68220-5">
      <path id="path68222-0" d="m 5837.0109,4013.3148 c -232.3795,0 -1098.8562,-323.6957 -1229.498,-492.3191 -108.1561,-139.603 263.371,-1033.2791 509.2317,-1018.3667 217.8647,13.2026 820.4826,10.7042 1001.953,-65.2837 204.7638,-85.7431 429.7472,-55.5836 550.8587,39.9835 172.7947,136.3482 453.2577,822.2082 462.6672,956.1199 -80.8603,91.0058 -195.7592,192.5186 -363.0459,314.2294 -199.9114,145.4548 -794.6993,265.6367 -932.1667,265.6367 z" style="color:#000000;display:inline;overflow:visible;visibility:visible;fill:#800000;fill-opacity:1;fill-rule:evenodd;stroke:none;stroke-width:0.10368534;marker:none;enable-background:accumulate"/>
    </clipPath>
    <clipPath id="clipPath71318-6">
      <path style="color:#000000;display:inline;overflow:visible;visibility:visible;fill:#800000;fill-opacity:1;fill-rule:evenodd;stroke:none;stroke-width:0.10368534;marker:none;enable-background:accumulate" d="m 282.81173,157.51914 c -1.03872,0 -4.87134,0.0445 -5.4553,-0.69114 -0.48345,-0.60906 1.17725,-4.50799 2.27623,-4.44293 0.97384,0.0576 3.6675,0.0467 4.47866,-0.28482 0.91528,-0.37408 1.92094,-0.2425 2.4623,0.17444 0.77238,0.59486 2.02603,3.58713 2.06809,4.17136 -0.36144,0.39704 -0.87503,0.83992 -1.62279,1.37092 -0.89359,0.63459 -3.59272,-0.29783 -4.20719,-0.29783 z" id="path71320-2"/>
    </clipPath>
    <clipPath id="clipPath95536-4">
      <path id="path95538-0" d="m 552.90935,154.83331 c -1.23871,0 -4.52418,-1.37629 -5.22058,-2.2536 -0.57653,-0.72632 0.0706,-5.68377 1.38117,-5.60619 1.16133,0.0687 2.66765,0.29644 3.71213,0.32956 2.00916,0.0637 3.91961,-0.9584 4.5652,-0.46119 0.9211,0.7094 1.04374,2.65122 1.0939,3.34793 0.0275,0.38176 -0.038,1.89447 -0.92973,2.5277 -1.06564,0.75677 -3.86932,2.11579 -4.60209,2.11579 z" style="color:#000000;display:inline;overflow:visible;visibility:visible;fill:none;stroke:#de8787;stroke-width:0.12364889;stroke-linecap:butt;stroke-linejoin:miter;stroke-miterlimit:4;stroke-dasharray:none;stroke-dashoffset:0;stroke-opacity:1;marker:none;enable-background:accumulate"/>
    </clipPath>
    <clipPath id="clipPath95544-27">
      <path id="path95546-6" d="m 552.90935,154.83331 c -1.23871,0 -4.52418,-1.37629 -5.22058,-2.2536 -0.57653,-0.72632 0.0706,-5.68377 1.38117,-5.60619 1.16133,0.0687 2.66765,0.29644 3.71213,0.32956 2.00916,0.0637 3.91961,-0.9584 4.5652,-0.46119 0.9211,0.7094 1.04374,2.65122 1.0939,3.34793 0.0275,0.38176 -0.038,1.89447 -0.92973,2.5277 -1.06564,0.75677 -3.86932,2.11579 -4.60209,2.11579 z" style="color:#000000;display:inline;overflow:visible;visibility:visible;fill:none;stroke:#de8787;stroke-width:0.12364889;stroke-linecap:butt;stroke-linejoin:miter;stroke-miterlimit:4;stroke-dasharray:none;stroke-dashoffset:0;stroke-opacity:1;marker:none;enable-background:accumulate"/>
    </clipPath>
    <clipPath id="clipPath95552-2">
      <path id="path95554-36" d="m 552.90935,154.83331 c -1.23871,0 -4.52418,-1.37629 -5.22058,-2.2536 -0.57653,-0.72632 0.0706,-5.68377 1.38117,-5.60619 1.16133,0.0687 2.66765,0.29644 3.71213,0.32956 2.00916,0.0637 3.91961,-0.9584 4.5652,-0.46119 0.9211,0.7094 1.04374,2.65122 1.0939,3.34793 0.0275,0.38176 -0.038,1.89447 -0.92973,2.5277 -1.06564,0.75677 -3.86932,2.11579 -4.60209,2.11579 z" style="color:#000000;display:inline;overflow:visible;visibility:visible;fill:none;stroke:#de8787;stroke-width:0.12364889;stroke-linecap:butt;stroke-linejoin:miter;stroke-miterlimit:4;stroke-dasharray:none;stroke-dashoffset:0;stroke-opacity:1;marker:none;enable-background:accumulate"/>
    </clipPath>
    <clipPath id="clipPath95560-54">
      <path id="path95562-9" d="m 552.90935,154.83331 c -1.23871,0 -4.52418,-1.37629 -5.22058,-2.2536 -0.57653,-0.72632 0.0706,-5.68377 1.38117,-5.60619 1.16133,0.0687 2.66765,0.29644 3.71213,0.32956 2.00916,0.0637 3.91961,-0.9584 4.5652,-0.46119 0.9211,0.7094 1.04374,2.65122 1.0939,3.34793 0.0275,0.38176 -0.038,1.89447 -0.92973,2.5277 -1.06564,0.75677 -3.86932,2.11579 -4.60209,2.11579 z" style="color:#000000;display:inline;overflow:visible;visibility:visible;fill:none;stroke:#de8787;stroke-width:0.12364889;stroke-linecap:butt;stroke-linejoin:miter;stroke-miterlimit:4;stroke-dasharray:none;stroke-dashoffset:0;stroke-opacity:1;marker:none;enable-background:accumulate"/>
    </clipPath>
    <clipPath id="clipPath65300-2">
      <path style="display:inline;fill:#f2f2f2;fill-opacity:1;stroke:#de8787;stroke-width:0.20430227px;stroke-linecap:butt;stroke-linejoin:miter;stroke-opacity:1;enable-background:new" d="m 537.77403,127.6704 c -1.53848,1.56073 -4.79694,1.91169 -7.27702,0.84364 1.21657,-0.95586 3.50381,-1.58199 7.27702,-0.84364 z" id="path65302-1"/>
    </clipPath>
    <clipPath id="clipPath65260-8">
      <path style="display:inline;fill:#f2f2f2;fill-opacity:1;stroke:#de8787;stroke-width:0.20430227px;stroke-linecap:butt;stroke-linejoin:miter;stroke-opacity:1;enable-background:new" d="m 514.375,128.28314 c 1.54291,1.10923 5.03122,1.56311 7.5934,0.36902 -1.84562,-0.95052 -4.06036,-1.46121 -7.5934,-0.36902 z" id="path65262-6"/>
    </clipPath>
    <clipPath id="clipPath73136">
      <path id="path73138" d="m 5924.2471,3536.919 c -232.3794,0 -873.9734,309.9041 -1152.5169,-361.7792 -68.0279,-164.0437 327.3273,-582.7473 573.188,-567.8349 217.8647,13.2026 313.2084,11.8273 509.207,7.6328 160.9533,-3.4611 562.9059,-61.1993 684.0175,34.3678 172.7946,136.3482 429.5772,407.1995 438.9867,541.1112 -17.0025,277.9499 -88.0126,464.6534 -293.1791,469.9367 -268.7738,-69.6158 -485.766,-96.885 -759.7032,-123.4299 z" style="color:#000000;display:inline;overflow:visible;visibility:visible;fill:#800000;fill-opacity:1;fill-rule:evenodd;stroke:none;stroke-width:0.10368534;marker:none;enable-background:accumulate"/>
    </clipPath>
    <clipPath id="clipPath73163">
      <path style="color:#000000;display:inline;overflow:visible;visibility:visible;fill:#800000;fill-opacity:1;fill-rule:evenodd;stroke:none;stroke-width:0.10368534;marker:none;enable-background:accumulate" d="m 282.98104,156.79956 c -0.58141,0 -2.5717,0.43769 -3.70493,0.14485 -0.89135,-0.23034 -1.02279,-1.12262 -1.08239,-1.6081 -0.0948,-0.77182 1.65362,-1.87422 2.45886,-2.26609 0.87718,-0.42688 1.92229,-0.20663 2.27612,-0.19519 0.6214,0.02 2.51615,-0.0385 3.05751,0.37841 0.77238,0.59486 1.92018,1.54806 1.96224,2.13229 -0.076,1.21264 -0.63432,1.37329 -1.5514,1.39634 -1.18989,-0.33896 -2.80154,0.0174 -3.41601,0.0174 z" id="path73165"/>
    </clipPath>
    <clipPath id="clipPath95536-2-1">
      <path id="path95538-6" d="m 552.90935,154.83331 c -1.23871,0 -4.52418,-1.37629 -5.22058,-2.2536 -0.57653,-0.72632 0.0706,-5.68377 1.38117,-5.60619 1.16133,0.0687 2.66765,0.29644 3.71213,0.32956 2.00916,0.0637 3.91961,-0.9584 4.5652,-0.46119 0.9211,0.7094 1.04374,2.65122 1.0939,3.34793 0.0275,0.38176 -0.038,1.89447 -0.92973,2.5277 -1.06564,0.75677 -3.86932,2.11579 -4.60209,2.11579 z" style="color:#000000;display:inline;overflow:visible;visibility:visible;fill:none;stroke:#de8787;stroke-width:0.12364889;stroke-linecap:butt;stroke-linejoin:miter;stroke-miterlimit:4;stroke-dasharray:none;stroke-dashoffset:0;stroke-opacity:1;marker:none;enable-background:accumulate"/>
    </clipPath>
    <clipPath id="clipPath95544-1">
      <path id="path95546-3" d="m 552.90935,154.83331 c -1.23871,0 -4.52418,-1.37629 -5.22058,-2.2536 -0.57653,-0.72632 0.0706,-5.68377 1.38117,-5.60619 1.16133,0.0687 2.66765,0.29644 3.71213,0.32956 2.00916,0.0637 3.91961,-0.9584 4.5652,-0.46119 0.9211,0.7094 1.04374,2.65122 1.0939,3.34793 0.0275,0.38176 -0.038,1.89447 -0.92973,2.5277 -1.06564,0.75677 -3.86932,2.11579 -4.60209,2.11579 z" style="color:#000000;display:inline;overflow:visible;visibility:visible;fill:none;stroke:#de8787;stroke-width:0.12364889;stroke-linecap:butt;stroke-linejoin:miter;stroke-miterlimit:4;stroke-dasharray:none;stroke-dashoffset:0;stroke-opacity:1;marker:none;enable-background:accumulate"/>
    </clipPath>
    <clipPath id="clipPath95552-1">
      <path id="path95554-2-1" d="m 552.90935,154.83331 c -1.23871,0 -4.52418,-1.37629 -5.22058,-2.2536 -0.57653,-0.72632 0.0706,-5.68377 1.38117,-5.60619 1.16133,0.0687 2.66765,0.29644 3.71213,0.32956 2.00916,0.0637 3.91961,-0.9584 4.5652,-0.46119 0.9211,0.7094 1.04374,2.65122 1.0939,3.34793 0.0275,0.38176 -0.038,1.89447 -0.92973,2.5277 -1.06564,0.75677 -3.86932,2.11579 -4.60209,2.11579 z" style="color:#000000;display:inline;overflow:visible;visibility:visible;fill:none;stroke:#de8787;stroke-width:0.12364889;stroke-linecap:butt;stroke-linejoin:miter;stroke-miterlimit:4;stroke-dasharray:none;stroke-dashoffset:0;stroke-opacity:1;marker:none;enable-background:accumulate"/>
    </clipPath>
    <clipPath id="clipPath95560-8-3">
      <path id="path95562-9-6" d="m 552.90935,154.83331 c -1.23871,0 -4.52418,-1.37629 -5.22058,-2.2536 -0.57653,-0.72632 0.0706,-5.68377 1.38117,-5.60619 1.16133,0.0687 2.66765,0.29644 3.71213,0.32956 2.00916,0.0637 3.91961,-0.9584 4.5652,-0.46119 0.9211,0.7094 1.04374,2.65122 1.0939,3.34793 0.0275,0.38176 -0.038,1.89447 -0.92973,2.5277 -1.06564,0.75677 -3.86932,2.11579 -4.60209,2.11579 z" style="color:#000000;display:inline;overflow:visible;visibility:visible;fill:none;stroke:#de8787;stroke-width:0.12364889;stroke-linecap:butt;stroke-linejoin:miter;stroke-miterlimit:4;stroke-dasharray:none;stroke-dashoffset:0;stroke-opacity:1;marker:none;enable-background:accumulate"/>
    </clipPath>
    <clipPath id="clipPath65300-9">
      <path style="display:inline;fill:#f2f2f2;fill-opacity:1;stroke:#de8787;stroke-width:0.20430227px;stroke-linecap:butt;stroke-linejoin:miter;stroke-opacity:1;enable-background:new" d="m 537.77403,127.6704 c -1.53848,1.56073 -4.79694,1.91169 -7.27702,0.84364 1.21657,-0.95586 3.50381,-1.58199 7.27702,-0.84364 z" id="path65302-49"/>
    </clipPath>
    <clipPath id="clipPath65260-80">
      <path style="display:inline;fill:#f2f2f2;fill-opacity:1;stroke:#de8787;stroke-width:0.20430227px;stroke-linecap:butt;stroke-linejoin:miter;stroke-opacity:1;enable-background:new" d="m 514.375,128.28314 c 1.54291,1.10923 5.03122,1.56311 7.5934,0.36902 -1.84562,-0.95052 -4.06036,-1.46121 -7.5934,-0.36902 z" id="path65262-3"/>
    </clipPath>
    <clipPath id="clipPath63203">
      <path id="path63205" d="m 537.77403,127.6704 c -1.8227,0.89126 -5.55865,1.01101 -7.27702,0.84364 0.3802,-2.86613 4.722,-4.91148 7.27702,-0.84364 z" style="display:inline;fill:#f2f2f2;fill-opacity:1;stroke:#de8787;stroke-width:0.20430227px;stroke-linecap:butt;stroke-linejoin:miter;stroke-opacity:1;enable-background:new"/>
    </clipPath>
    <clipPath id="clipPath63199">
      <path id="path63201" d="m 514.375,128.28314 c 2.57146,0.86418 6.77937,0.39892 7.5934,0.36901 -0.81882,-2.65644 -4.78613,-4.95154 -7.5934,-0.36901 z" style="display:inline;fill:#f2f2f2;fill-opacity:1;stroke:#de8787;stroke-width:0.20430227px;stroke-linecap:butt;stroke-linejoin:miter;stroke-opacity:1;enable-background:new"/>
    </clipPath>
  </defs>
  <path style="color:#000000;display:inline;overflow:visible;visibility:visible;fill:#000000;stroke:none;stroke-width:0.5;marker:none;enable-background:accumulate" d="m 290.02601,136.93267 c 0.48592,0.009 1.14782,-0.004 1.26882,-0.0868 -0.0679,0.21117 -0.16957,0.24505 -0.28931,0.24888 0.34956,0.14534 0.80637,0.29149 1.00476,0.18903 -0.10958,0.24824 -0.32726,0.28336 -0.40493,0.27596 0.35163,0.28264 0.86039,0.21885 1.04314,0.0881 -0.17838,0.39669 -0.32501,0.49892 -0.49849,0.4671 0.27924,0.18194 0.86861,0.20082 1.24395,-0.0443 -0.46233,0.70332 -0.96226,0.90309 -1.41627,0.46181 -0.45402,-0.4413 -2.32709,-2.48722 -4.69057,-0.3534 0.80869,-0.99592 1.76568,-1.26523 2.7389,-1.24633 z" id="path77420-9-8-4-5"/>
  <path style="color:#000000;display:inline;overflow:visible;visibility:visible;fill:#000000;stroke:none;stroke-width:0.5;marker:none;enable-background:accumulate" d="m 274.81303,137.27999 c -0.50092,0.0437 -1.16003,0.11601 -1.28445,0.0492 0.0762,0.20292 0.18046,0.22435 0.30182,0.21279 -0.34709,0.19301 -0.79463,0.40793 -0.99453,0.33128 0.1188,0.23669 0.33758,0.24379 0.41469,0.22556 -0.33591,0.33797 -0.838,0.33469 -1.02214,0.22303 0.19309,0.38052 0.34508,0.46944 0.51411,0.41627 -0.2638,0.21909 -0.83646,0.29389 -1.21149,0.0769 0.48552,0.66746 1.08118,0.87822 1.49898,0.3744 0.41779,-0.50384 2.15699,-2.74063 4.67678,-0.69202 -0.88163,-0.96911 -1.89055,-1.30571 -2.89377,-1.21739 z" id="path77420-9-8-4-5-1"/>
</svg>
