<?xml version="1.0" encoding="UTF-8" standalone="no"?>
<!-- Created with Inkscape (http://www.inkscape.org/) -->

<svg
   xmlns:dc="http://purl.org/dc/elements/1.1/"
   xmlns:cc="http://creativecommons.org/ns#"
   xmlns:rdf="http://www.w3.org/1999/02/22-rdf-syntax-ns#"
   xmlns:svg="http://www.w3.org/2000/svg"
   xmlns="http://www.w3.org/2000/svg"
   version="1.1"
   width="560"
   height="560"
   id="leggings_regular">
  <path
     d="m 257.96875,343.75 c -7.22665,0.0343 -14.65353,1.44839 -19.15625,4.34375 0.48395,3.62907 1.0461,7.20497 1.625,10.75 7.11969,-4.2911 23.32813,-7.0898 33.40625,-0.0937 0.006,-0.76719 -0.013,-1.68665 0,-2.3125 0.65685,-2.51793 1.48512,-5.36828 2.28125,-8.4375 -3.55759,-2.84858 -10.73978,-4.28516 -18.15625,-4.25 z"
     id="path48932-3-1-6-26-7"
     style="fill:#000000;stroke:#000000;stroke-width:1;stroke-linecap:butt;stroke-linejoin:miter;stroke-miterlimit:4;stroke-opacity:1;stroke-dasharray:none;display:inline" />
  <path
     d="m 257.46875,352.875 c -6.2661,0.15865 -12.70134,1.50295 -17.3125,4.28125 2.31714,14.51844 5.125,27.74107 5.125,31.71875 0,14.5067 4.6792,20.85525 7.71875,25.53125 0.87897,3.9554 7.10951,23.96145 12.1875,30.40625 8.46995,10.75 20.54096,33.29145 19.0625,41.03125 -1.38222,7.2363 -5.31618,20.84065 -8.8125,23.90625 -6.69078,5.8664 -6.41188,12.0113 -1.84375,13.125 8.97377,2.1878 15.32548,-1.6424 17.59375,-12.5 3.48038,-16.6595 7.62894,-12.9666 11.03125,-16.875 7.79641,-8.956 0.43006,-10.10475 -4.84375,-21.53125 -5.05377,-9.1748 -5.37301,-15.13995 -6.625,-25.78125 -1.25189,-10.6414 -6.7454,-24.6499 -10.25,-30 -1.77051,-5.0902 -6.44001,-12.19315 -6.21875,-14.40625 0.22134,-2.2131 -0.65885,-34.72075 -0.4375,-45.34375 0.0537,-0.20603 0.13148,-0.4459 0.1875,-0.65625 -3.90195,-2.00173 -10.14191,-3.06882 -16.5625,-2.90625 z"
     id="path48952-3-63-7-1-5"
     style="fill:#806b6b;fill-opacity:1;stroke:#000000;stroke-width:1;stroke-linecap:butt;stroke-linejoin:miter;stroke-miterlimit:4;stroke-opacity:1;stroke-dasharray:none;display:inline" />
  <path
     d="m 270.75,354.5 c 3.38159,25.29149 1.535,46.14939 0.78125,41.25 -0.9636,-6.26342 -3.05459,-17.98658 -4.5,-24.25 0.96361,8.67243 4.893,28.60978 -0.65625,28.65625 -8.20451,0.0687 -10.1369,-28.15491 -12.25,-42.5625 0.0929,9.8537 -1.3442,22.61234 -4,22 -2.1157,-0.48781 -5.62563,-9.67366 -8.46875,-23.25 -0.51549,0.25767 -1.02156,0.52423 -1.5,0.8125 2.31714,14.51844 5.125,27.74107 5.125,31.71875 0,14.5067 4.6792,20.85525 7.71875,25.53125 0.37569,1.69062 1.77058,6.35081 3.59375,11.59375 0.94082,-9.68409 6.71398,3.15083 12.40625,12.8125 -7.68463,-21.56002 -4.69597,-33.46234 0.96875,-13.03125 -1.99457,-10.84629 1.4395,-19.27465 10.40625,-9.875 -1.83829,-5.06768 -6.31105,-11.95151 -6.09375,-14.125 0.22134,-2.2131 -0.65885,-34.72075 -0.4375,-45.34375 0.0537,-0.20603 0.13148,-0.4459 0.1875,-0.65625 -0.95752,-0.49121 -2.07403,-0.90696 -3.28125,-1.28125 z m -23.6875,36.1875 c 3.96962,15.6446 4.68211,9.03943 9.875,20.4375 1.25806,2.76136 1.54973,5.38241 3.40625,7.84375 -6.8137,-3.74754 -5.77163,-7.16544 -7.78125,-8.1875 -2.88085,-1.46515 -5.15931,-8.51045 -5.5,-20.09375 z"
     id="path198897-0"
     style="color:#000000;fill:#766262;fill-opacity:1;stroke:none;stroke-width:0.5;marker:none;visibility:visible;display:inline;overflow:visible;enable-background:accumulate" />
  <g
     transform="translate(-245.5625,-1.0000018)"
     id="g53026">
    <path
       d="m 294.71875,340.46875 c -3.52636,-0.021 -6.84186,0.40259 -9.5,1.25 -0.29276,4.21951 -0.51944,8.32103 -0.84375,11.96875 9.2984,-2.82821 21.93024,0.65643 28.875,4.90625 0.89434,-3.87217 1.88315,-8.03024 2.875,-12.3125 -5.42195,-3.78844 -13.91382,-5.7678 -21.40625,-5.8125 z"
       transform="translate(245.5625,1.0000018)"
       id="path48932-3-1-6-26-3"
       style="fill:#000000;stroke:#000000;stroke-width:1;stroke-linecap:butt;stroke-linejoin:miter;stroke-miterlimit:4;stroke-opacity:1;stroke-dasharray:none;display:inline" />
    <path
       d="m 291.1875,351.21875 c -2.42432,-0.0328 -4.6555,0.18582 -6.59375,0.59375 -0.16104,2.12249 -0.32211,4.16257 -0.53125,6 -1.22609,10.021 -10.01775,33.6281 -5.59375,50.0625 0.91484,3.3984 1.01772,6.0696 1.71875,9.3125 0.61561,2.8475 -0.44962,10.188 -1.71875,18 -1.00464,6.1843 -2.79881,25.0997 -0.625,33.1875 0.91968,3.4217 1.07246,20.8432 -1.125,27.875 -2.19738,7.0316 -1.40506,7.3468 -1.28125,14.5 0.0559,3.2142 -2.25755,7.8354 -3.09375,11.875 -0.68278,3.2983 -0.13466,8.61575 3.5,10.09375 7.7243,3.1412 15.81056,-3.0506 16.25,-5.6875 0.43953,-2.6368 -5.1014,-16.99175 -3.125,-20.03125 0.93673,-1.4405 2.55369,-3.20275 1.46875,-5.96875 -0.61272,-1.5618 3.59173,-18.4082 6.9375,-28.0625 14.37717,-41.4861 6.65771,-51.6376 5.71875,-63.75 -0.79615,-10.8784 5.34084,-27.32725 8.78125,-43.46875 0.54245,-2.54501 1.20272,-5.34143 1.875,-8.21875 -6.13815,-4.05156 -15.13317,-6.212 -22.5625,-6.3125 z"
       transform="translate(245.5625,0)"
       id="path48952-3-63-7-1-4"
       style="fill:#806b6b;fill-opacity:1;stroke:#000000;stroke-width:1;stroke-linecap:butt;stroke-linejoin:miter;stroke-miterlimit:4;stroke-opacity:1;stroke-dasharray:none;display:inline" />
    <path
       d="m 308.53125,354.8125 c -3.6603,14.66883 -9.3462,27.27272 -14.46875,36.3125 5.29982,-6.26342 8.67683,-12.50991 12.53125,-20.21875 -4.33622,20.23568 -4.82003,29.85919 -9.15625,32.75 -4.33622,2.89081 -4.3307,5.30974 -4.8125,7.71875 -0.4818,2.40901 0.47941,6.75515 -3.375,7.71875 5.29982,0.4818 5.75515,-2.90864 6.71875,-6.28125 0.96361,-3.37262 2.42959,-3.38015 3.875,-4.34375 1.4454,-0.9636 0.94264,6.26544 1.90625,9.15625 0.9636,2.89081 6.66024,23.27488 -3.84375,44.8125 -2.28447,4.68411 -9.16415,37.59099 -7.71875,40 1.44541,2.40901 -4.32832,-0.49284 -1.4375,9.625 0.0308,0.10781 0.0788,0.17564 0.125,0.25 -0.41509,-2.38562 -0.51035,-4.38345 0.0937,-5.3125 0.93673,-1.4405 2.55369,-3.20275 1.46875,-5.96875 -0.61272,-1.5618 3.59173,-18.4082 6.9375,-28.0625 14.37717,-41.4861 6.65771,-51.6376 5.71875,-63.75 -0.79615,-10.8784 5.34084,-27.32725 8.78125,-43.46875 0.54245,-2.54501 1.20272,-5.34143 1.875,-8.21875 -0.0425,-0.0281 -0.0822,-0.0659 -0.125,-0.0937 -0.69943,-0.45688 -1.42208,-0.87424 -2.1875,-1.28125 -0.81187,2.62036 -1.61482,5.01194 -2.4375,7.03125 0.48325,-2.22297 0.91872,-4.82435 1.34375,-7.5625 -0.59244,-0.28757 -1.19266,-0.55274 -1.8125,-0.8125 z"
       transform="translate(245.5625,0)"
       id="path198893-0"
       style="color:#000000;fill:#766262;fill-opacity:1;stroke:none;stroke-width:0.5;marker:none;visibility:visible;display:inline;overflow:visible;enable-background:accumulate" />
  </g>
</svg>
