<?xml version="1.0" encoding="UTF-8" standalone="no"?>
<!-- Created with Inkscape (http://www.inkscape.org/) -->

<svg
   xmlns:dc="http://purl.org/dc/elements/1.1/"
   xmlns:cc="http://creativecommons.org/ns#"
   xmlns:rdf="http://www.w3.org/1999/02/22-rdf-syntax-ns#"
   xmlns:svg="http://www.w3.org/2000/svg"
   xmlns="http://www.w3.org/2000/svg"
   version="1.1"
   width="560"
   height="560"
   id="lips_thin">
  <path
     d="m 278.36462,154.06056 c 1.3622,0.6239 3.26438,0.50778 4.5178,0.50778 1.17292,0 3.98993,0.0722 4.71182,-0.70178 -2.77166,-0.90429 -6.70741,-1.20233 -9.22962,0.194 z"
     id="path71863"
     style="fill:#e9afaf;stroke:#de8787;stroke-width:0.125;stroke-miterlimit:4;stroke-opacity:1;stroke-dasharray:none;display:inline;enable-background:new" />
  <path
     d="m 277.14509,153.75576 c 1.4967,0.776 2.05238,0.1705 3.02111,-0.1386 1.30268,-0.4158 1.94016,0.083 2.71622,0.083 0.77607,0 1.13638,-0.5266 2.66079,-0.055 1.18217,0.3654 2.10646,0.6929 3.04882,0.1109 -0.80378,0.1385 -1.81825,-0.21314 -2.46677,-0.58756 -1.1647,-0.67244 -2.36663,-0.18625 -3.27056,-0.1663 -0.91211,0.0201 -2.29124,-0.36513 -3.54772,0.3603 -1.12617,0.65019 -1.82929,0.36576 -2.16189,0.39356 z"
     id="path71865"
     style="fill:#de8787;stroke:none;display:inline;enable-background:new" />
</svg>
