<?xml version="1.0" encoding="UTF-8" standalone="no"?>
<!-- Created with Inkscape (http://www.inkscape.org/) -->

<svg
   xmlns:dc="http://purl.org/dc/elements/1.1/"
   xmlns:cc="http://creativecommons.org/ns#"
   xmlns:rdf="http://www.w3.org/1999/02/22-rdf-syntax-ns#"
   xmlns:svg="http://www.w3.org/2000/svg"
   xmlns="http://www.w3.org/2000/svg"
   version="1.1"
   width="560"
   height="560"
   id="lips_luscious">
  <g
     transform="translate(-245.5625,-1)"
     id="g72138"
     style="display:inline;enable-background:new">
    <path
       d="m 523.92712,155.1784 c 1.60931,2.16927 2.91024,1.3946 4.5178,1.3946 1.91244,0 3.06415,0.56167 4.71182,-1.5886 -2.77166,-1.1641 -6.70741,-1.5244 -9.22962,0.194 z"
       id="path72118"
       style="fill:#e9afaf;stroke:#de8787;stroke-width:0.125;stroke-miterlimit:4;stroke-opacity:1;stroke-dasharray:none;display:inline" />
    <path
       d="m 522.70759,154.8736 c 1.26102,0.51086 2.05238,0.1705 3.02111,-0.1386 1.30268,-0.4158 1.94016,0.083 2.71622,0.083 0.77607,0 1.13638,-0.5266 2.66079,-0.055 1.18217,0.3654 2.16538,0.5456 3.04882,0.1109 -0.80378,0.1385 -1.8878,-0.80007 -2.46677,-1.275 -1.90932,-1.56625 -2.25868,-0.37252 -3.27056,-0.37252 -1.06494,0 -1.56396,-1.15556 -3.54772,0.56652 -1.30272,1.13089 -1.82929,1.0532 -2.16189,1.081 z"
       id="path72120"
       style="fill:#de8787;stroke:none;display:inline" />
  </g>
</svg>
