<?xml version="1.0" encoding="UTF-8" standalone="no"?>
<svg xmlns="http://www.w3.org/2000/svg" id="lips_thin" width="560" height="560">
  <path id="path71863" d="M278.4 154c1.3.7 3.2.6 4.5.6 1 0 4 0 4.6-.7-2.8-1-6.7-1.3-9.2 0z" style="fill:#e9afaf;stroke:#de8787;stroke-width:0.125;stroke-miterlimit:4;stroke-opacity:1;stroke-dasharray:none;display:inline;enable-background:new"/>
  <path id="path71865" d="M277 153.8c1.6.7 2.2 0 3.2-.2 1.3-.4 2 0 2.7 0 .7 0 1-.4 2.5 0 1.2.4 2 .7 3 .2-.7 0-1.7-.3-2.4-.6-1-.7-2.2-.2-3-.2-1 0-2.4-.4-3.7.4-1 .6-1.8.3-2.2.4z" style="fill:#de8787;stroke:none;display:inline;enable-background:new"/>
</svg>
