<?xml version="1.0" encoding="UTF-8" standalone="no"?>
<!-- Created with Inkscape (http://www.inkscape.org/) -->

<svg
   xmlns:dc="http://purl.org/dc/elements/1.1/"
   xmlns:cc="http://creativecommons.org/ns#"
   xmlns:rdf="http://www.w3.org/1999/02/22-rdf-syntax-ns#"
   xmlns:svg="http://www.w3.org/2000/svg"
   xmlns="http://www.w3.org/2000/svg"
   version="1.1"
   width="560"
   height="560"
   id="logo">
  <path
     d="m 534.5692,263.49353 a 251.79305,251.79306 0 0 1 -503.586102,0 251.79305,251.79306 0 1 1 503.586102,0 z"
     id="path3783"
     style="fill:none;stroke:#f2f2f2;stroke-width:0.5;stroke-miterlimit:4;stroke-opacity:1;stroke-dasharray:none" />
  <rect
     width="413.78085"
     height="413.78088"
     x="75.95137"
     y="101.03184"
     id="rect4293"
     style="fill:none;stroke:#f2f2f2;stroke-width:0.5;stroke-miterlimit:4;stroke-opacity:1;stroke-dasharray:none" />
  <path
     d="m 313.7397,265.50763 c 2.2646,13.58764 5.43505,13.13472 6.34089,19.92853 0.90584,6.79383 0.90584,10.87013 0.90584,12.22888 0.45294,1.8117 0.90586,3.62338 1.8117,4.52922 0.90584,0.90583 2.26459,5.43507 4.98213,9.05842 4.52922,4.98214 7.24675,13.13473 9.96427,23.55194 1.35878,4.52921 5.43507,13.58764 4.52921,21.28731 -0.90584,7.69964 3.62338,14.04056 5.43508,15.85223 1.81167,1.8117 1.81167,5.43505 1.35875,7.69967 1.81168,1.35876 1.81168,2.2646 1.81168,3.17046 0.90586,1.35876 0.45292,2.2646 0.90586,4.52922 0.45292,2.26459 1.35876,3.17043 1.35876,6.34088 5.88797,6.79384 15.85223,20.38148 19.47561,33.96912 3.17046,10.41718 8.60551,26.26945 10.41721,28.53404 1.81167,2.26462 3.62335,9.51137 10.41718,12.22888 5.88797,0.45292 6.34089,0 9.51135,0.45292 1.92493,-1.35875 4.30275,-3.17043 6.11445,-2.94397 1.24553,-0.33969 2.83074,-1.47201 3.96307,-0.11323 1.58521,-0.6794 3.0572,-1.58524 3.73658,-1.35878 0.6794,0.22646 0.11323,-1.1323 2.37785,-0.79261 2.26459,0.33969 3.96306,-0.22646 4.75567,0.11323 0.79261,0.33969 3.73661,0.56615 2.37785,3.05723 -0.56618,0.67938 -0.79263,0.22646 -1.58524,0.33969 -0.45292,1.9249 -2.2646,3.17045 -4.30276,2.944 -0.45292,0.33968 -0.67937,0.22645 -1.35875,0.22645 -0.22646,1.92491 -0.56615,3.28367 -4.86891,3.28367 0,2.26462 -2.94399,4.52921 -7.13352,5.77476 -2.03813,2.83074 -4.52921,4.30276 -6.56735,3.96307 -2.03816,-0.33969 -6.11445,-0.79264 -6.90706,0.22646 -0.79261,1.01906 -3.62338,4.98213 -6.11443,6.68057 -2.49108,1.69848 -8.03936,2.49108 -10.07752,-2.83074 -2.03813,-5.32185 -1.81167,-8.71874 -2.94397,-12.11565 -1.13232,-3.39692 -7.02029,-12.56858 -8.37905,-13.58764 -1.35878,-1.0191 -7.69967,-6.22769 -11.32305,-11.43628 -3.62337,-5.20859 -5.20859,-13.24795 -5.88797,-14.26702 -4.13621,-2.55399 -5.99382,-3.98498 -9.51134,-10.0775 -3.28369,-6.45414 -3.84984,-10.53043 -5.20862,-15.05965 -1.35876,-4.52921 -3.28366,-8.37905 -3.39689,-10.07749 -0.11323,-1.69847 -1.13232,-2.83077 -1.69847,-5.09537 -0.56615,-2.26462 -0.90584,-3.39691 -1.01907,-4.98215 -0.32798,-0.90282 -1.12865,-1.54336 -2.08945,-3.14466 -2.24183,-2.72224 -4.0033,-6.56541 -4.96407,-9.92818 -0.9608,-3.36277 -5.9249,-13.29097 -10.56871,-19.21584 -4.64383,-5.92487 -11.5295,-12.33015 -14.89227,-19.85635 -3.36277,-7.52621 -4.73625,-12.72957 -5.44448,-15.37268 -1.34936,-5.03586 -6.4053,-9.28764 -7.36607,-16.97398"
     id="path4295-2"
     style="fill:none;stroke:#f2f2f2;stroke-width:0.5;stroke-linecap:butt;stroke-linejoin:miter;stroke-miterlimit:4;stroke-opacity:1;stroke-dasharray:none" />
  <path
     d="m 282.14844,306.38378 c -1.24556,2.71754 -7.47321,8.60551 -9.73783,10.87013 -1.47199,4.8689 -3.84981,8.15259 -9.39812,16.07869 -5.54828,7.92613 -10.98333,9.62461 -14.49348,13.70087 -3.51014,4.0763 -5.88798,8.832 -7.47321,12.45535 -1.58522,3.62337 -1.47199,6.56737 -9.96427,14.38027 -0.22646,1.35876 -1.1323,2.49106 -2.03814,3.05721 -1.81169,4.07629 -4.75568,6.56737 -10.19073,11.20981 -5.43506,4.64245 -9.96428,15.39932 -10.87012,18.00363 -0.90584,2.60431 -2.37784,7.92613 -4.75568,13.02149 -2.37783,5.09536 -5.20859,8.9452 -9.96427,13.02149 -2.94399,4.86891 -5.09537,10.41719 -8.49227,14.38025 -3.39692,3.96307 -6.34091,9.28489 -6.56736,14.04056 -0.22647,4.7557 -1.35877,11.43628 -4.52922,13.47444 0.33969,1.1323 0.45292,2.49105 -0.22646,2.71751 -0.67938,0.22646 -0.56615,1.24553 0,3.62338 0.56615,2.37785 -0.11323,5.88797 -2.37784,6.56735 -2.26461,0.6794 -2.49107,1.24555 -3.96306,-0.22646 -2.49107,-0.67938 -4.30276,-1.92491 -5.66152,-3.96304 -2.15138,0.56615 -4.07629,-0.79263 -4.86891,-1.8117 -1.81168,0.11323 -2.71752,-1.69845 -3.62337,-2.49106 -1.47199,0.33969 -6.00121,-2.15139 -5.88798,-4.64246 -0.22646,-0.90584 -0.22646,-1.47199 0.56616,-2.94398 0.79261,-1.47201 1.69845,-2.26462 3.17045,-2.15139 1.47199,0.11323 1.81168,-0.7926 2.71752,0.11323 0.90585,0.90587 1.13231,0.79264 1.24554,0.79264 0.11323,0 1.69845,-0.45295 1.92491,-0.79264 0.22647,-0.33969 1.58523,-2.83074 4.52922,-3.0572 0.22646,-2.83077 1.58522,-4.52921 3.17045,-6.6806 1.58523,-2.15137 3.05722,-8.15259 3.05722,-10.0775 0,-1.92493 1.58523,-15.96549 6.90705,-27.40174 1.1323,-7.69967 3.51014,-15.85226 13.13472,-28.19438 9.62459,-12.34211 12.98662,-16.27029 15.70415,-18.53489 0.33146,-2.60158 3.34665,-7.63069 8.07423,-11.35793 3.45869,-2.72685 3.7366,-6.45412 5.43506,-9.28488 -0.11323,-7.24676 1.01907,-16.19195 7.35997,-26.72237 -0.11323,-2.944 1.1323,-6.0012 2.26461,-8.71874 1.1323,-2.71753 1.47199,-5.88797 4.07629,-9.39811 2.6043,-3.51015 10.30396,-13.58764 11.09658,-18.79624 0.79261,-5.20861 1.47199,-6.00122 2.2646,-8.03936"
     id="path4343"
     style="fill:none;stroke:#f2f2f2;stroke-width:0.5;stroke-linecap:butt;stroke-linejoin:miter;stroke-miterlimit:4;stroke-opacity:1;stroke-dasharray:none" />
  <path
     d="m 313.87621,306.50961 -71.11182,0.22016 c 0,0 0.66048,-5.06368 -0.44032,-6.82496 -1.10081,-1.76129 0,-7.04515 0,-7.48547 0,-0.44032 -1.98145,-1.1008 0.22016,-7.04513 2.2016,-5.94432 2.86208,-18.93379 7.70561,-18.27331 -1.32096,-1.76128 -2.2016,-2.86208 -2.2016,-5.94432 0,-3.08227 1.1008,-5.72419 1.98144,-9.90723 0.88065,-4.18304 1.32097,-5.28384 2.86209,-7.26529 -2.42176,-4.40322 -5.50401,-10.34755 -6.38466,-16.51203 -0.88064,-6.16451 -3.08224,-11.44835 -3.08224,-16.51203 -2.20161,-2.86211 -4.18305,-6.60483 -6.16449,-11.88867 -1.98145,-5.28384 -3.74273,-6.16451 -9.02658,-6.38467 0,-1.98143 -0.66048,-18.05314 -0.44032,-21.79587 3.74272,-0.88064 8.36609,-3.08225 11.00802,-4.18305 2.64192,-1.1008 5.94433,-1.32096 9.68706,-0.22016 2.86209,-3.08225 6.38465,-5.28385 8.58625,-6.82497 2.2016,-1.54113 7.48547,-3.30241 7.70563,-4.62337 0.22016,-1.32097 1.32096,-11.88867 1.32096,-17.39268 3.76721,1.00943 30.82246,0 30.82246,0 -0.22016,6.38466 -1.32096,15.19107 -1.54112,17.39268 -0.22016,2.2016 4.18304,4.62337 6.38464,5.94433 2.2016,1.32096 7.92577,2.64192 9.24673,6.60481 3.74274,-2.2016 9.90723,-1.76128 15.19107,-0.66048 4.18307,-1.54112 5.50403,-1.1008 6.38467,-1.32096 0,6.16449 -0.22016,17.17251 -0.44032,18.27332 -1.98145,2.42176 -2.42177,3.96288 -3.30241,3.96288 0.22016,2.20161 -1.32098,3.96288 -2.8621,5.06368 -0.66048,5.50403 -1.1008,11.00803 -3.74272,13.87011 0.44032,4.18307 -3.30241,13.64995 -4.84353,18.93379 -1.54112,5.28387 -0.66048,9.02659 -1.76128,11.2282 -1.1008,2.2016 -2.42176,5.72416 -3.74272,6.82498 2.86208,3.30241 0.88064,7.04513 1.76128,9.24673 0.88064,2.2016 2.64192,5.504 1.76128,9.02659 -0.88064,3.52256 -1.98144,4.62336 -1.98144,4.62336 1.32096,4.18304 1.98144,10.56771 1.1008,12.32899 1.32096,2.42176 0.22016,13.64993 0.44032,14.97091 0.22016,1.32096 0,1.1008 -1.1008,2.2016 0.88064,0.88064 0.44032,3.74273 -0.22016,5.28385 -0.66048,1.54112 0.22016,3.52256 0.22016,5.06368 z"
     id="path4345"
     style="fill:none;stroke:#f2f2f2;stroke-width:0.5;stroke-linecap:butt;stroke-linejoin:miter;stroke-miterlimit:4;stroke-opacity:1;stroke-dasharray:none" />
  <path
     d="m 277.0352,306.64452 c 0.66232,1.5454 0.44155,3.53235 -1.32463,6.18162 -1.76619,2.64927 -2.64927,10.15555 0,10.81787 2.64927,0.66232 3.53235,1.32464 5.07777,0 2.20772,0.22076 3.31159,1.10387 5.07778,1.76619 1.76616,0.66232 8.38936,-0.44155 3.9739,-13.46714 0.44153,-1.76619 1.32464,-3.09083 0.22077,-5.7401"
     id="path4347"
     style="fill:none;stroke:#f2f2f2;stroke-width:0.5;stroke-linecap:butt;stroke-linejoin:miter;stroke-miterlimit:4;stroke-opacity:1;stroke-dasharray:none" />
  <path
     d="m 291.60621,310.17687 c 4.41544,3.31159 4.63623,8.38936 4.85699,10.59711 0.22076,2.20771 2.20774,5.29854 4.85701,7.72704"
     id="path4349"
     style="fill:none;stroke:#f2f2f2;stroke-width:0.5;stroke-linecap:butt;stroke-linejoin:miter;stroke-miterlimit:4;stroke-opacity:1;stroke-dasharray:none" />
  <path
     d="m 286.30765,245.2697 c -1.76617,0 -1.98696,-1.54543 -2.87004,-3.09083 -1.10387,1.5454 -2.4285,2.87004 -4.63622,2.20772 2.64927,2.64927 2.87003,4.19469 3.31159,5.29854 0.88308,-2.20772 1.76619,-3.0908 4.19467,-4.41543 z"
     id="path4351"
     style="fill:none;stroke:#f2f2f2;stroke-width:0.5;stroke-linecap:butt;stroke-linejoin:miter;stroke-miterlimit:4;stroke-opacity:1;stroke-dasharray:none" />
  <path
     d="m 228.90815,179.5273 c -1.10384,-0.007 -1.97831,-1.33751 -3.07928,-1.78621 -1.10097,-0.44871 -7.51042,0.61356 -12.99521,-4.72072 -3.7502,-0.4659 -9.23786,-5.35864 -11.44124,-6.03528 -2.20338,-0.67664 -4.56028,-0.73597 -6.74317,-1.45989 -4.54661,-1.50783 -9.60797,-5.05307 -13.07865,-5.95447 -3.35859,0.29305 -9.34238,-0.59055 -9.48443,-1.38625 -0.19783,-1.10821 -2.85565,-2.22632 -4.84113,-2.45999 -1.98548,-0.23367 -16.99196,-3.63168 -27.93453,-14.33793 -4.18599,-1.35185 -10.49954,-3.94783 -13.88238,-5.80357 -1.98405,-0.45444 -3.29576,-2.44996 -4.8354,-3.34306 -2.65638,1.08663 -8.82069,-1.60272 -9.90303,-4.92141 -1.76901,0.43007 -3.97095,-0.46734 -4.40102,-2.23635 -1.10241,-0.22794 -3.29719,-2.22919 -5.2755,-3.5667 -1.042883,0.56411 -2.363613,-0.0421 -3.525123,-1.12678 -2.200511,-1.11817 -4.171655,-3.55952 -2.619109,-4.65333 1.390355,-0.15818 4.185991,1.35184 4.843994,2.01845 0.657998,0.6666 0.657998,0.6666 2.427018,0.23654 -1.97975,-1.11675 -3.295755,-2.44996 -4.608894,-4.2247 -3.305785,-0.90457 -6.433675,-3.45598 -4.822493,-5.32997 0.839244,-0.97614 2.647785,0.23797 3.966656,1.12964 1.318876,0.89168 1.541076,0.67234 2.865685,0.68094 1.324606,0.009 0.880206,0.44727 2.418416,1.56115 -0.21503,-0.88451 -0.43007,-1.76902 -0.2007,-3.09219 -2.46306,-0.67008 -4.326203,-2.24331 -5.253715,-3.65435 -3.278241,-0.0213 -6.068901,-3.00556 -4.65279,-4.71361 1.416111,-1.708053 3.121118,0.17638 4.367944,0.4967 1.246825,0.32032 0.61429,1.56512 4.667991,2.37201 0.005,-0.78053 0.63558,-1.71312 0.63558,-1.71312 2.02432,0.79371 2.02634,0.4815 2.65179,0.32945 0.62543,-0.15205 2.95893,1.112 4.83626,0.49974 1.87733,-0.61226 4.83525,0.65585 5.91178,3.16065 1.07653,2.50481 6.06484,3.62999 7.45763,5.51239 1.3928,1.88241 0.58389,6.24832 4.47134,8.61526 3.43334,0.17841 4.98528,1.59351 7.63098,2.85959 2.6457,1.26609 4.67408,1.43537 6.38213,2.85148 1.70805,1.41611 6.2321,1.91383 8.72879,2.08615 2.49669,0.17233 15.29237,1.03598 19.9482,5.28127 5.44953,2.22097 8.24932,3.80029 9.65022,4.43383 1.87734,-0.61226 2.18043,0.79473 2.33349,1.26406 0.15307,0.46934 1.86619,1.10491 3.25898,2.98731 1.3928,1.88241 2.48048,2.67003 2.94474,3.2975 1.24784,0.16422 1.09174,0.16321 1.71109,0.9478 3.69263,1.21139 5.4602,1.00209 7.22922,0.57202 1.76901,-0.43007 2.64061,1.34182 5.50916,1.58122 2.86856,0.2394 10.5811,2.49726 18.27071,8.28741 3.5452,-1.96398 13.49553,-4.32792 22.07251,0.80565 2.86856,0.23941 7.49322,2.03566 12.9909,5.38302"
     id="path4353"
     style="fill:none;stroke:#f2f2f2;stroke-width:0.5;stroke-linecap:butt;stroke-linejoin:miter;stroke-miterlimit:4;stroke-opacity:1;stroke-dasharray:none" />
  <path
     d="m 188.94687,154.31131 c 3.97391,4.857 10.15555,7.2855 13.02559,8.83091 2.87005,1.54541 9.93478,3.75314 11.70096,4.857 1.76618,1.10386 4.857,2.4285 5.96086,3.75314 1.10387,1.32463 1.76619,2.64927 5.07778,4.63622"
     id="path4355"
     style="fill:none;stroke:#f2f2f2;stroke-width:0.5;stroke-linecap:butt;stroke-linejoin:miter;stroke-miterlimit:4;stroke-opacity:1;stroke-dasharray:none" />
  <path
     d="m 220.2966,156.07749 c 0,0 5.29855,3.97391 9.27246,7.72705 -0.22077,2.4285 1.54541,11.70096 4.857,15.23332 3.31159,3.53236 5.96086,6.62318 7.50627,11.70095"
     id="path4357"
     style="fill:none;stroke:#f2f2f2;stroke-width:0.5;stroke-linecap:butt;stroke-linejoin:miter;stroke-miterlimit:4;stroke-opacity:1;stroke-dasharray:none" />
  <path
     d="m 312.80037,169.54463 c -2.20771,1.32464 -7.72704,7.50627 3.97393,13.02559"
     id="path4359"
     style="fill:none;stroke:#f2f2f2;stroke-width:0.5;stroke-linecap:butt;stroke-linejoin:miter;stroke-miterlimit:4;stroke-opacity:1;stroke-dasharray:none" />
  <path
     d="m 281.97298,198.11806 c 0,0 0.24338,4.24438 -3.12597,5.50477 -0.88802,1.83059 -2.84689,2.62011 -4.50733,2.35792 -4.19469,-0.66231 -6.81748,4.25769 -14.3083,3.60453 -7.17053,-0.62523 -10.81908,-4.62879 -12.13818,-6.26241 -1.24055,-1.53634 -2.4285,-3.75314 -3.53237,-6.18164 -4.63622,-3.09083 -8.83091,-9.05169 -9.714,-10.15555 -0.88309,-1.10387 -2.20773,-3.97391 -3.97391,-5.51932"
     id="path4361"
     style="fill:none;stroke:#f2f2f2;stroke-width:0.5;stroke-linecap:butt;stroke-linejoin:miter;stroke-miterlimit:4;stroke-opacity:1;stroke-dasharray:none" />
  <path
     d="m 267.58753,287.807 c -2.80995,-1.56112 -3.74663,-3.74666 -4.68328,-4.99552 -0.93666,-1.24889 -3.12219,-3.43442 -3.74664,-10.30327"
     id="path4363"
     style="fill:none;stroke:#f2f2f2;stroke-width:0.5;stroke-linecap:butt;stroke-linejoin:miter;stroke-miterlimit:4;stroke-opacity:1;stroke-dasharray:none" />
  <path
     d="m 297.87287,287.18256 c 0.93666,-1.87333 2.18554,-2.80999 3.74664,-4.37108 1.56109,-1.56109 2.80998,-5.30775 2.80998,-7.18106 0,-1.87333 1.56109,-5.30775 2.18553,-6.55661"
     id="path4365"
     style="fill:none;stroke:#f2f2f2;stroke-width:0.5;stroke-linecap:butt;stroke-linejoin:miter;stroke-miterlimit:4;stroke-opacity:1;stroke-dasharray:none" />
  <path
     d="m 230.43339,192.26773 c -2.34165,1.24886 -7.18106,1.09277 -11.08381,0.78053 -3.90275,-0.3122 -11.39602,-1.24886 -12.80101,-1.8733 -1.40499,-0.62445 -1.87332,-0.78056 -2.96609,-1.56111 -4.37108,0.46833 -9.5227,-0.93666 -10.61547,-0.62444 -1.09277,0.31222 -2.18554,1.24888 -3.27831,1.09277 -1.09277,-0.15611 -4.6833,-0.62444 -5.77607,-1.5611 -1.24888,0.62444 -3.43441,0.31222 -4.6833,0.93666 -2.02942,1.40499 -5.61995,2.49776 -10.45936,1.24888 -0.93666,0.62443 -1.5611,1.56111 -2.49776,0.46834 -2.96608,0.15609 -11.39602,2.80998 -23.41648,-2.18555 -0.78055,0.46833 -1.5611,0.46833 -2.34165,-0.15611 -0.78055,-0.62444 -3.1222,-0.46833 -4.37108,-1.71721 -1.24888,0.31222 -4.83941,-0.62444 -6.71273,-0.78055 -1.87331,-0.1561 -9.83492,-0.31221 -10.45936,-1.7172 -1.87332,1.5611 -2.65387,1.40499 -5.30774,2.02943 -2.65386,0.62443 -3.2783,0 -3.90274,-0.31223 -2.18554,0.62445 -1.87332,0.15611 -2.18554,-0.31221 -0.78055,0.62444 -2.65387,-1.09277 -3.43442,-1.24888 -1.09277,0.78054 -4.683297,0 -5.932176,-1.5611 -0.62444,1.40499 -2.96609,1.24888 -4.527187,0.78055 -1.873319,0.31222 -2.653869,0.31222 -3.90275,-0.31222 -4.058856,1.09277 -6.556615,1.09277 -5.932175,-1.24888 0.93666,-1.09277 1.873319,-0.93666 2.966088,-1.24888 1.092769,-0.31222 2.34165,-0.31222 3.1222,-0.62444 0.780547,-0.31222 2.966087,0.62444 3.590528,0.31222 0.624437,-0.31222 0.624437,-0.15611 1.404987,-0.62444 -1.717209,-0.46833 -3.434418,-0.15611 -4.214968,-0.93666 -0.93666,0.46833 -1.248878,0.46833 -2.185538,0 -2.185537,0.78055 -2.653868,0.62444 -3.746637,0 -2.966088,1.09277 -7.649387,1.24888 -7.024947,-3.1222 1.248881,-0.62444 2.653869,0 3.902747,-0.15611 1.155056,0.0157 1.876568,-0.0564 2.525928,-0.27285 0.649359,-0.21645 2.164534,-0.2886 2.813894,-0.4329 0.649359,-0.14431 2.453139,-0.14431 3.607557,0.2886 1.154418,0.4329 1.082267,-0.36076 2.236685,-0.2886 1.154418,0.0721 1.875928,-1.22657 0.505058,-1.15442 -1.370871,0.0721 -2.236685,-0.43291 -2.813894,-0.43291 -0.577209,0 -0.649362,0.0721 -0.865813,-0.21645 -1.010117,0.2886 -4.040465,0.86581 -5.844242,-0.50506 -2.308836,0.93796 -5.05058,0.57721 -6.421451,0.21645 -1.370872,-0.36075 -2.236686,-2.88604 -0.64936,-3.31895 1.587323,-0.43291 3.391103,0 4.545521,-0.43291 1.154418,-0.4329 1.731627,0 2.813894,-0.50506 1.082268,-0.50505 2.741744,-0.36075 3.463254,-0.1443 0.721512,0.21646 2.59744,0.21646 3.968312,-0.36075 1.370871,-0.57721 3.391103,0.72151 5.411334,-0.86582 -0.64936,-0.50505 -0.937964,-0.93796 -1.154418,-0.93796 -0.216454,0 -0.288604,0.1443 -0.649359,-0.28861 -1.154418,0.50506 -2.741744,0.28861 -3.246802,-0.1443 -0.505056,-0.43291 -1.082265,-0.57721 -1.37087,-0.72151 -1.226571,0.79366 -3.102498,0.43291 -3.535406,0.1443 -0.432906,-0.2886 -1.082268,-0.79366 -1.443022,-1.08226 -0.360755,-0.28861 -1.587326,-0.43291 -0.721513,-1.58733 0.865816,-1.15442 2.597443,-0.36075 3.607557,-0.57721 1.010117,-0.21645 2.669593,0.0721 3.463254,0.14431 0.793662,0.0721 1.15442,0.1443 2.453139,-0.36076 1.298721,-0.50506 2.741743,-0.50506 3.391103,-0.1443 0.649359,0.36075 3.751858,3.17465 5.050578,3.2468 1.29872,0.0721 3.31895,0.36075 4.25692,0.50505 0.93796,0.14431 2.02023,0.0722 2.45314,0.43291 0.4329,0.36076 1.94808,0.64936 2.52529,1.15442 0.57721,0.50506 0.72151,1.58732 1.80377,1.58732 1.08227,0 1.87593,1.51518 2.59744,1.80378 0.72152,0.28861 1.80378,1.08227 2.9582,0.79367 1.31505,-0.3341 2.89663,-0.38512 4.07005,-0.38512 1.17343,0 3.46927,-0.51018 6.47936,0.15306 3.0101,0.66324 5.66306,0.35713 9.99964,-0.66324 4.33657,-1.02037 14.18315,-0.91833 16.93816,0.30611 2.755,1.22445 5.15287,0.10204 6.42833,-0.40815 1.27547,-0.51018 12.34649,0.71426 13.36686,1.53056 1.93871,1.17343 3.26519,1.83667 3.72436,1.88769 0.45917,0.051 0.45917,0.51018 2.04074,0.71426 1.58158,0.20407 2.34685,0.35713 5.45898,-0.61223 3.11214,-0.96935 5.01552,-1.72928 8.91168,-2.16219 3.89616,-0.43291 11.03912,0.86582 12.91505,1.01012 1.87593,0.1443 2.88605,0.86581 4.61767,-0.28861 1.73163,-1.15442 3.53541,-2.23668 5.33919,-3.1025 1.80378,-0.86581 5.33918,-2.02023 8.29738,-2.45313 2.95819,-0.43291 4.78186,-0.28861 6.15272,-0.50506 1.37088,-0.21646 2.00035,0.72151 2.50541,0.64936 0.50506,-0.0721 6.3493,-4.11262 13.70871,0.2886"
     id="path4367"
     style="fill:none;stroke:#f2f2f2;stroke-width:0.5;stroke-linecap:butt;stroke-linejoin:miter;stroke-miterlimit:4;stroke-opacity:1;stroke-dasharray:none" />
  <path
     d="m 264.00961,137.97413 c 0.88308,5.07777 1.5454,8.61013 4.41546,9.714 1.76617,2.87004 2.87004,3.75313 4.85699,3.53236 0.80269,0.7358 1.82973,0.47361 2.85862,0.51155 1.18319,0.96488 3.39652,0.92018 5.08919,0.15077 1.55661,0.73252 2.65748,0.67712 3.40537,0.47001 0.89324,0.54785 2.00102,0.48837 2.77628,-0.0285 0.44155,0.66232 1.10387,0 1.98695,-0.44154 1.32463,1.54541 3.31159,-0.88309 4.41546,-2.4285 1.10387,-1.54541 1.32463,-3.53236 1.5454,-4.41546 0.88311,0.22078 0.66232,-1.32463 1.10387,-2.4285 1.76619,-0.88309 3.53238,-5.07777 3.9739,-5.96086 0.44156,-0.88309 0.22079,-2.64927 1.10388,-4.19468 0.88308,-1.54541 0.88308,-6.62319 -1.5454,-7.72705 0,-4.19468 5.52032,-23.18114 -18.54492,-23.18114 -24.06425,0 -20.97342,15.89564 -18.76568,24.285 -0.66232,0 -1.98695,-0.22077 -2.64927,-0.22077 -0.66232,0 -1.76619,2.87005 -0.88311,4.857 0.88311,1.98696 1.98695,3.53237 2.42851,4.63623 0.44155,1.10386 0.88308,2.87005 2.4285,2.87005 z"
     id="path4369"
     style="fill:none;stroke:#f2f2f2;stroke-width:0.5;stroke-linecap:butt;stroke-linejoin:miter;stroke-miterlimit:4;stroke-opacity:1;stroke-dasharray:none" />
  <path
     d="m 269.63931,126.60433 c 0.88308,1.21425 4.96738,2.98043 6.84397,-0.33116 -0.66232,-0.66232 -0.88311,-1.32464 -1.21427,-1.54541 -2.20771,0.22077 -3.20119,-0.22077 -5.6297,1.87657 z"
     id="path4371"
     style="fill:none;stroke:#f2f2f2;stroke-width:0.5;stroke-linecap:butt;stroke-linejoin:miter;stroke-miterlimit:4;stroke-opacity:1;stroke-dasharray:none" />
  <path
     d="m 275.82096,136.42871 c 0.11037,-0.55193 0.22076,-0.55193 1.21424,-1.10386 -0.55192,0.88309 0,1.98696 0.33116,2.20773 0.33116,0.22077 0.88308,0.22077 1.98695,-0.99348 0.1104,1.32464 1.32464,2.09734 2.09735,1.98696 0.77271,-0.11039 1.10387,-1.43503 1.76619,-1.76618 0.66232,-0.33117 1.5454,-0.44155 1.76616,0.7727 0.66232,0.77271 1.43503,0.11039 1.76619,-0.7727"
     id="path4373"
     style="fill:none;stroke:#f2f2f2;stroke-width:0.5;stroke-linecap:butt;stroke-linejoin:miter;stroke-miterlimit:4;stroke-opacity:1;stroke-dasharray:none" />
  <path
     d="m 283.76877,135.43524 c 0.22076,-0.33116 0,-1.21425 -0.77271,-2.31812"
     id="path4375"
     style="fill:none;stroke:#f2f2f2;stroke-width:0.5;stroke-linecap:butt;stroke-linejoin:miter;stroke-miterlimit:4;stroke-opacity:1;stroke-dasharray:none" />
  <path
     d="m 279.13255,135.54563 c 0,-0.66232 0.44153,-1.32464 0.88308,-1.76619"
     id="path4377"
     style="fill:none;stroke:#f2f2f2;stroke-width:0.5;stroke-linecap:butt;stroke-linejoin:miter;stroke-miterlimit:4;stroke-opacity:1;stroke-dasharray:none" />
  <path
     d="m 287.85307,126.71472 c 0.66232,1.10386 3.20119,1.21425 3.75314,0.99347 0.55192,-0.22077 1.32464,-0.88309 1.43501,-1.65579 -1.6558,-0.22078 -2.64927,-1.54541 -3.86351,-0.99348 -1.21427,0.55193 -0.99348,1.10386 -1.32464,1.6558 z"
     id="path4379"
     style="fill:none;stroke:#f2f2f2;stroke-width:0.5;stroke-linecap:butt;stroke-linejoin:miter;stroke-miterlimit:4;stroke-opacity:1;stroke-dasharray:none" />
  <path
     d="m 279.79487,131.79249 c -0.55195,-1.32464 -0.1104,-2.64928 0,-3.20121 0.11036,-0.55193 -0.22079,-1.10386 0.22076,-2.64927"
     id="path4381"
     style="fill:none;stroke:#f2f2f2;stroke-width:0.5;stroke-linecap:butt;stroke-linejoin:miter;stroke-miterlimit:4;stroke-opacity:1;stroke-dasharray:none" />
  <path
     d="m 273.39245,175.06395 c 0.55193,-0.11039 1.87656,-0.33116 1.98696,-0.99348 0.11039,-0.66232 0.11039,-3.42198 -0.44156,-4.19468 -0.55192,-0.77271 -4.41546,-6.73357 -5.74009,-10.59709 -1.32464,-3.86353 -3.0908,-4.0843 -5.51931,-21.63573 2.98043,-3.86353 6.73358,9.38284 7.94782,11.59057 1.21424,2.20772 3.53237,8.72052 4.41545,11.03863 0.88309,2.31812 2.87004,9.05169 2.98043,10.15555 0.1104,1.10386 1.21424,1.43502 1.6558,1.65579 0.44155,0.22078 0.88308,0 1.43503,-0.44154"
     id="path4383"
     style="fill:none;stroke:#f2f2f2;stroke-width:0.5;stroke-linecap:butt;stroke-linejoin:miter;stroke-miterlimit:4;stroke-opacity:1;stroke-dasharray:none" />
  <path
     d="m 280.89871,190.73881 c -0.22076,0.66232 -0.99348,1.10388 -1.5454,1.43503"
     id="path4385"
     style="fill:none;stroke:#f2f2f2;stroke-width:0.5;stroke-linecap:butt;stroke-linejoin:miter;stroke-miterlimit:4;stroke-opacity:1;stroke-dasharray:none" />
  <path
     d="m 253.96446,174.07047 c 1.98695,0.7727 1.98695,3.31159 -0.1104,5.18816"
     id="path4387"
     style="fill:none;stroke:#f2f2f2;stroke-width:0.5;stroke-linecap:butt;stroke-linejoin:miter;stroke-miterlimit:4;stroke-opacity:1;stroke-dasharray:none" />
  <path
     d="m 252.30866,173.07699 c -1.10387,-0.44154 -3.53238,-1.87656 -6.5128,-1.32463"
     id="path4389"
     style="fill:none;stroke:#f2f2f2;stroke-width:0.5;stroke-linecap:butt;stroke-linejoin:miter;stroke-miterlimit:4;stroke-opacity:1;stroke-dasharray:none" />
  <path
     d="m 259.92531,174.95356 c 0.22077,1.10387 1.21424,1.98696 2.42851,2.4285"
     id="path4391"
     style="fill:none;stroke:#f2f2f2;stroke-width:0.5;stroke-linecap:butt;stroke-linejoin:miter;stroke-miterlimit:4;stroke-opacity:1;stroke-dasharray:none" />
  <path
     d="m 281.87898,179.19948 c 0.10203,-1.83667 2.04074,-3.77537 2.65295,-2.85704 0.61224,0.91833 1.73464,-0.30611 2.14278,-1.63259"
     id="path2841-5"
     style="fill:none;stroke:#f2f2f2;stroke-width:0.5;stroke-linecap:butt;stroke-linejoin:miter;stroke-miterlimit:4;stroke-opacity:1;stroke-dasharray:none" />
  <path
     d="m 284.22584,191.03577 c 0.71426,1.12243 1.63259,2.14278 3.46925,2.34686"
     id="path2843-1"
     style="fill:none;stroke:#f2f2f2;stroke-width:0.5;stroke-linecap:butt;stroke-linejoin:miter;stroke-miterlimit:4;stroke-opacity:1;stroke-dasharray:none" />
  <path
     d="m 285.04212,195.01524 c -0.81628,-0.51019 -1.42852,-2.14278 -1.73461,-3.06114"
     id="path2845-7"
     style="fill:none;stroke:#f2f2f2;stroke-width:0.5;stroke-linecap:butt;stroke-linejoin:miter;stroke-miterlimit:4;stroke-opacity:1;stroke-dasharray:none" />
  <path
     d="m 281.3688,173.4854 c 1.1224,-0.91833 2.95906,-2.34685 3.67332,-4.48963 0.71426,-2.14278 0.71426,-4.28556 1.63259,-6.3263"
     id="path2847"
     style="fill:none;stroke:#f2f2f2;stroke-width:0.5;stroke-linecap:butt;stroke-linejoin:miter;stroke-miterlimit:4;stroke-opacity:1;stroke-dasharray:none" />
  <path
     d="m 275.7839,143.14713 c 0.82972,0.75759 2.0563,0.57721 2.81389,0.21645 0.75757,-0.36075 1.65947,-0.1443 2.45313,0.43291 1.58734,-0.57721 1.98417,-1.29872 3.53542,-0.43291 1.55123,0.86582 2.45313,1.01012 3.35503,-0.0361 -0.97406,0.36075 -1.83987,0.10822 -3.06644,-0.75759 -1.22658,-0.86581 -2.66959,-0.43291 -3.13857,-0.25253 -0.46898,0.18038 -0.68544,0.46899 -1.4791,0.1443 -0.79366,-0.32468 -1.83986,-0.0721 -2.77783,0.36076 -0.93796,0.43291 -1.37085,0.57721 -1.69553,0.32468 z"
     id="path2870"
     style="fill:none;stroke:#f2f2f2;stroke-width:0.5;stroke-linecap:butt;stroke-linejoin:miter;stroke-miterlimit:4;stroke-opacity:1;stroke-dasharray:none" />
  <path
     d="m 286.77676,124.55861 c 0.91833,1.3775 1.58157,1.02037 2.85704,0.35713 1.27545,-0.66324 1.53054,-1.02037 3.97944,-0.71426 -1.42852,-0.8163 -2.04075,-0.56121 -3.77537,0.051 -1.73464,0.61222 -2.4999,0.51018 -3.06111,0.30611 z"
     id="path2872"
     style="fill:none;stroke:#f2f2f2;stroke-width:0.5;stroke-linecap:butt;stroke-linejoin:miter;stroke-miterlimit:4;stroke-opacity:1;stroke-dasharray:none" />
  <path
     d="m 276.36897,124.20148 c -1.32647,1.32648 -4.13249,1.17342 -5.20389,1.27546 0.20407,-1.58157 0.96935,-0.81629 2.39787,-1.27546 1.42853,-0.45917 1.78564,0.5612 2.80602,0 z"
     id="path2874"
     style="fill:none;stroke:#f2f2f2;stroke-width:0.5;stroke-linecap:butt;stroke-linejoin:miter;stroke-miterlimit:4;stroke-opacity:1;stroke-dasharray:none" />
  <path
     d="m 277.5424,122.82398 c 0.51019,-0.96936 -0.051,-1.17343 -0.51019,-1.53056"
     id="path2876-8"
     style="fill:none;stroke:#f2f2f2;stroke-width:0.5;stroke-linecap:butt;stroke-linejoin:miter;stroke-miterlimit:4;stroke-opacity:1;stroke-dasharray:none" />
  <path
     d="m 286.77676,123.64027 c -0.96936,-0.35713 -2.09176,-0.051 -2.704,0 -0.61221,0.051 -1.1224,0.10204 -1.17342,-0.051 -0.051,-0.15306 0.10205,-0.56121 0.10205,-0.86732 -0.051,0.66324 0.71426,0.71426 1.27547,0.76528 0.56119,0.051 2.09176,-0.10204 2.4999,0.15305 z"
     id="path2878"
     style="fill:none;stroke:#f2f2f2;stroke-width:0.5;stroke-linecap:butt;stroke-linejoin:miter;stroke-miterlimit:4;stroke-opacity:1;stroke-dasharray:none" />
  <path
     d="m 286.0625,195.83153 c -1.22445,1.53057 0.81631,7.44872 1.53057,8.06093 0.71423,0.61221 2.2448,1.02038 4.18351,1.42852 1.93871,0.40814 4.59166,3.8774 12.85666,3.16314 8.26501,-0.71426 10.91798,-4.48964 11.53019,-7.04056 0.61224,-2.55092 2.95909,-5.30591 3.46928,-7.14258 0.51019,-1.83669 3.06111,-1.63261 5.71408,-4.48964 2.65295,-2.85704 5.81611,-2.34686 6.53037,-5.30593"
     id="path2880"
     style="fill:none;stroke:#f2f2f2;stroke-width:0.5;stroke-linecap:butt;stroke-linejoin:miter;stroke-miterlimit:4;stroke-opacity:1;stroke-dasharray:none" />
  <path
     d="m 318.91845,193.07653 c -0.10205,-2.04076 0.61221,-4.08149 3.16314,-7.1426 2.55094,-3.06111 5.20389,-6.93852 7.85686,-11.02001"
     id="path2882"
     style="fill:none;stroke:#f2f2f2;stroke-width:0.5;stroke-linecap:butt;stroke-linejoin:miter;stroke-miterlimit:4;stroke-opacity:1;stroke-dasharray:none" />
  <path
     d="m 305.75567,166.64892 c 2.34685,-4.48964 8.06091,-7.65279 13.4689,-7.55075 1.93868,-3.06112 6.22425,-4.48963 9.18334,-4.89778 2.95906,-0.40815 7.55074,-1.73463 11.22407,-0.20408 1.42852,-0.20407 1.63259,0.20408 2.75499,0.8163 1.12243,0.61222 2.65297,0 3.06111,1.53056 5.61206,-4.08149 17.55039,-8.97927 24.48893,-9.69353 6.9385,-0.71426 8.16295,-3.36722 9.89759,-5.30593 1.73462,-1.9387 7.14258,-5.61204 12.24445,-6.22426 4.28556,-3.87741 11.73426,-5.40797 14.48928,-5.81612 2.75499,-0.40815 12.65259,-2.14277 14.48925,-3.06111 1.83667,-0.91833 5.2039,-2.24482 5.81611,-2.95908 0.61224,-0.71426 1.73464,-0.71426 2.55095,-0.91833 0.81628,-0.20407 8.06093,-2.85704 9.08129,-3.36722 1.02038,-0.51019 2.06257,-4.3209 4.6937,-6.22427 2.16462,-1.56589 3.97944,-2.24481 6.12222,-2.95907 2.14278,-0.71426 4.99983,-3.26519 5.40797,-3.67334 0.40817,-0.40815 1.02038,-0.61222 1.42852,-1.32648 0.40817,-0.71426 2.35228,-0.81338 3.36723,-1.42852 0.89676,-0.5435 2.58504,0.38365 3.87742,-0.40815 1.61015,-0.98651 3.36721,-0.61222 3.8774,-0.91833 0.51019,-0.30612 1.73464,0.30611 1.73464,1.12241 1.02038,-1.32649 1.74188,-0.41892 2.98896,-1.34399 2.95092,-2.18898 4.67619,0.49267 3.40948,1.39863 -1.29109,0.9234 -1.60269,2.49628 -5.88825,3.31258 -0.81631,1.02037 -2.75502,1.9387 -3.26519,2.24482 -0.91833,0.30611 -1.73464,1.53055 -2.55095,1.9387 -0.10202,0.71426 0.25875,1.19456 -0.0474,1.70475 1.22445,-0.61223 2.59832,-1.60271 3.41461,-2.1129 0.8163,-0.51018 3.26518,-1.02037 4.28556,-1.53055 1.02038,-0.51019 3.16316,-0.71426 3.87742,-0.51019 0.71426,0.20407 1.53054,1.63259 0,2.85704 -1.53057,1.22445 -2.55095,1.42852 -3.06111,1.32648 -0.51019,-0.10203 -0.71426,0.30611 -1.42852,0.91833 -0.71426,0.61223 -3.36724,2.65297 -5.61207,2.85704 -1.02035,1.22445 -1.53054,1.73464 -4.18351,2.55093 0.10205,0.8163 0.30612,1.83667 0.20407,2.34686 1.3265,-0.30612 2.85704,-1.53056 3.5713,-2.04075 0.71426,-0.51018 3.57131,-0.81629 4.79576,-2.04074 1.22445,-1.22444 2.85704,-1.42852 3.26518,-0.91833 0.40814,0.51018 0.40814,2.85704 -3.16316,4.59167 -0.81628,1.22444 -2.95907,1.83666 -3.77537,2.04074 -0.3061,1.22444 -3.8774,3.06111 -4.9998,3.16315 -0.61224,0.71426 -2.34688,1.32648 -3.16316,1.42852 -1.1224,1.9387 -5.61204,5.91815 -11.83631,5.61204 -1.42852,0.40815 -3.26518,1.83667 -4.6937,2.755 -1.42852,0.91834 -5.30595,2.24482 -9.8976,4.08149 -4.59168,1.83666 -11.83631,9.0813 -23.87669,14.08112 -12.04038,4.99981 -17.14222,7.55074 -21.52983,6.42833 -4.38759,-1.12241 -10.81593,4.99982 -15.20351,6.02019 -4.38761,1.02038 -10.30577,6.73445 -13.57095,7.55075 -0.56119,0.051 -1.47955,0.10204 -2.29583,-0.10204 -1.27547,1.02037 -3.92842,1.93871 -5.51001,1.6326 -1.02035,1.1224 -3.21416,2.19379 -8.5201,2.755 -2.85704,1.88768 -4.83253,3.71318 -7.42996,5.4448 0.28859,1.58733 -1.29873,3.17466 -2.02023,3.60756 -0.72151,0.43291 1.01011,2.30884 -1.29873,3.75186 -0.5772,2.45313 -2.16454,7.50371 -6.6379,12.98722"
     id="path2886-6"
     style="fill:none;stroke:#f2f2f2;stroke-width:0.5;stroke-linecap:butt;stroke-linejoin:miter;stroke-miterlimit:4;stroke-opacity:1;stroke-dasharray:none" />
  <path
     d="m 241.88043,287.15473 c -0.91833,3.57131 0.30612,5.30595 -0.10203,6.12223 -0.40815,0.81631 -1.02038,3.87742 0,6.53039 1.02037,2.65295 0.77989,9.35953 0.49129,12.53419 -0.2886,3.17463 0,16.59476 0.1443,25.2529 0.1443,8.65813 2.02024,24.81998 3.03035,29.87056 1.01012,5.05059 2.16453,7.93663 2.02023,9.23533 -0.1443,1.29873 0.93797,2.45316 1.37088,3.17466 0.43291,0.72151 -0.50506,2.45313 -1.51517,8.08094 -0.79367,5.19486 -0.86582,7.2151 -1.44303,8.22521 -0.57721,1.01012 0.1443,3.75186 -0.28861,4.32908 -0.43291,0.5772 0.1443,4.47336 -0.57721,5.48348 -0.72151,1.01012 -0.2886,2.59743 -0.72151,4.61767 -0.4329,2.02023 -2.45314,11.25559 -3.60756,17.02768 -1.15441,5.77209 -1.44302,19.19219 4.32907,31.16926 1.73163,8.22525 4.32906,16.30618 7.2151,20.92385 2.88605,4.61766 6.63793,9.23533 5.62781,12.6986 -1.01011,3.46324 -1.29873,4.47336 0,7.93663 -2.16454,1.73162 -4.18477,3.03032 -1.29873,7.9366 -0.28861,2.74174 2.88605,6.49362 7.07082,6.0607 3.31894,1.44304 3.03035,0.5772 3.60755,0.14431 1.01012,1.15442 1.29873,0.72151 3.03035,0.14431 2.59744,2.74174 2.88605,2.74174 6.6379,0.1443 6.4936,3.31894 8.22522,-0.1443 8.08094,-2.30884 -0.14431,-2.16454 -1.44304,-3.03035 -1.01012,-3.89616 0.43289,-0.86582 -0.1443,-1.87593 -1.87593,-2.16454 -1.73164,-0.28859 -4.18477,-2.74174 -4.04046,-3.46325 0.1443,-0.7215 -3.03035,-5.19489 -2.59746,-7.07082 0.43292,-1.87592 1.58734,-2.45312 -1.29871,-5.62778 -2.88604,-3.17466 -5.91642,-12.26571 -5.6278,-15.00745 0.28861,-2.74174 0.28861,-8.94672 -1.0101,-13.853 -1.29872,-4.90628 -0.86581,-8.65813 0.14428,-11.83279 1.01012,-3.17465 0.43292,-10.67837 -0.7215,-15.72895 -1.15442,-5.05059 -3.60755,-14.43022 -2.74174,-16.88335 0.86581,-2.45315 1.44304,-7.35943 2.74174,-9.09105 1.29873,-1.73162 1.15442,-3.60755 0.7215,-4.76197 1.73165,-2.45316 1.73165,-4.76198 1.73165,-7.07082 2.88605,-1.44301 2.45313,-2.30882 2.16452,-5.9164 3.46327,-9.95684 2.02023,-11.39987 1.73164,-15.44034 -0.28861,-4.04047 -0.57722,-13.853 1.58732,-18.75928 2.16454,-4.90628 4.18477,-12.26571 5.19489,-18.32638 1.01012,-6.0607 1.01012,-12.5543 1.73162,-15.29606 0.72151,-2.74174 0.28861,-15.87323 0.28861,-15.87323"
     id="path2888"
     style="fill:none;stroke:#f2f2f2;stroke-width:0.5;stroke-linecap:butt;stroke-linejoin:miter;stroke-miterlimit:4;stroke-opacity:1;stroke-dasharray:none" />
  <path
     d="m 264.63655,372.80417 c 2.74174,-2.16454 3.46324,-5.91639 3.89616,-7.93663"
     id="path2890"
     style="fill:none;stroke:#f2f2f2;stroke-width:0.5;stroke-linecap:butt;stroke-linejoin:miter;stroke-miterlimit:4;stroke-opacity:1;stroke-dasharray:none" />
  <path
     d="m 182.3928,180.21985 c 1.22445,-0.10204 1.12241,0.10204 2.44889,0.30611 0.61222,2.14278 5.61204,3.97945 7.85686,4.28556 2.24482,0.30611 5.30593,1.22445 7.04056,1.32648 1.73463,0.10204 6.12223,0.61222 6.63241,0.51019 0.51019,-0.10204 1.53056,0.81629 1.93871,1.22444"
     id="path2892"
     style="fill:none;stroke:#f2f2f2;stroke-width:0.5;stroke-linecap:butt;stroke-linejoin:miter;stroke-miterlimit:4;stroke-opacity:1;stroke-dasharray:none" />
  <path
     d="m 209.43263,187.46448 c 1.6326,0.30612 5.61205,2.24482 6.63242,2.75501 1.02037,0.51018 2.24481,0.20407 2.95907,0.51018 0.71426,0.3061 5.81612,0.20408 6.93852,0.20408"
     id="path2894"
     style="fill:none;stroke:#f2f2f2;stroke-width:0.5;stroke-linecap:butt;stroke-linejoin:miter;stroke-miterlimit:4;stroke-opacity:1;stroke-dasharray:none" />
  <path
     d="m 378.30403,478.67839 c -1.53054,-0.61224 -2.44887,-2.85704 -3.3672,-5.71408 -0.91836,-2.85704 -1.12243,-3.77537 -1.3265,-5.81611 -0.20407,-2.04076 -1.53054,-2.14278 -1.53054,-3.67335 0,-1.53054 -4.99983,-17.34629 -5.81613,-19.99926"
     id="path2896"
     style="fill:none;stroke:#f2f2f2;stroke-width:0.5;stroke-linecap:butt;stroke-linejoin:miter;stroke-miterlimit:4;stroke-opacity:1;stroke-dasharray:none" />
  <path
     d="m 364.01885,454.08745 c -1.42852,-2.44891 -8.57112,-10.20372 -10.61186,-15.1015"
     id="path2898"
     style="fill:none;stroke:#f2f2f2;stroke-width:0.5;stroke-linecap:butt;stroke-linejoin:miter;stroke-miterlimit:4;stroke-opacity:1;stroke-dasharray:none" />
  <path
     d="m 317.59195,302.1542 c 0.91836,-2.24483 1.42852,-5.81613 1.42852,-7.55074"
     id="path2900"
     style="fill:none;stroke:#f2f2f2;stroke-width:0.5;stroke-linecap:butt;stroke-linejoin:miter;stroke-miterlimit:4;stroke-opacity:1;stroke-dasharray:none" />
  <path
     d="m 314.22475,296.95031 c 0.40814,3.26518 -0.30612,3.87739 -0.30612,5.61203 0,1.73464 -0.075,5.45012 0.50218,7.47035 0.57723,2.02024 2.59746,15.87326 1.73162,22.22255 -0.86581,6.34932 -0.14428,11.83279 -1.44301,20.77954 -1.29872,8.94672 -2.02023,12.40999 -3.31896,15.15173 -1.2987,2.74174 -0.99468,4.81709 -1.2987,5.62778 -0.21646,0.5772 -0.57723,0.79366 -0.93797,0.5772 0,2.88604 -2.66961,9.81256 -3.24681,11.3999 -0.57719,1.58731 -0.86581,7.07079 -0.7215,9.81255 0.14431,2.74174 -0.28861,7.79233 -1.15442,8.80244 -0.86581,1.01012 -0.5772,1.87593 -1.15443,2.74174 -0.57719,0.86581 -0.43289,2.88605 -1.01011,4.90628 -0.5772,2.02024 -1.87593,3.89616 -2.16454,6.34929 -0.28859,2.45315 -0.14428,9.09105 0.1443,12.40999 0.28862,3.31896 1.66475,14.88493 1.79937,21.74955 0.13459,6.86459 -0.80762,13.3254 -1.21141,17.63262 -0.40381,4.30719 2.28819,19.24781 3.63419,21.26681 1.346,2.01901 1.48062,4.1726 3.76881,5.11482 2.28822,0.94219 4.57641,3.09578 7.26841,4.17259 2.692,1.07681 4.84562,3.63422 6.59541,4.1726 1.61521,-0.53838 5.2494,0.40381 6.46081,0.5384 1.2114,0.1346 3.49959,-0.5384 4.711,0 2.25533,0.3898 2.83252,2.26572 3.40975,2.12142 2.23667,-0.50505 5.12271,-0.79366 5.55563,-0.50505 0.43289,0.28859 1.37086,3.10248 0.93796,3.82401 0.93797,0.50505 0.4329,2.81389 -0.36076,3.24679 -0.79366,0.43291 -2.23667,0 -2.59743,-0.28859 -0.36077,-0.28861 -1.87593,0.28859 -2.8139,0.50504 -0.93796,0.21646 -3.03035,0.43292 -4.25692,-1.08227 -1.01012,0.79366 -1.87593,0.79366 -2.45313,0.72151 -0.57722,-0.0721 -1.51519,0.0722 -2.45315,-0.5772 -2.02024,1.37088 -7.64802,1.80378 -8.94672,1.37088 -1.29873,-0.43292 -2.88605,-0.43292 -3.60758,-0.57722 -0.7215,-0.14431 -10.24545,-0.5772 -11.68848,-0.72151 -1.44301,-0.1443 -9.95684,2.74174 -14.43022,0.5772 -4.47336,-2.16451 -4.76198,-6.7822 -3.75186,-9.52394 1.01012,-2.74174 2.02023,-5.05059 1.29873,-9.81256 -0.7215,-4.76197 -5.9164,-14.28592 -6.78221,-23.23266 -0.86581,-8.94672 -1.01011,-12.84289 -0.7215,-15.00743 -0.28861,-0.7215 -0.28861,-0.57722 -0.86584,-1.29872 -0.5772,-0.72151 -4.18475,-6.4936 -5.05056,-13.85303 -0.86581,-7.3594 2.59744,-24.38706 3.46325,-27.85033 0.86581,-3.46324 2.59743,-14.71883 2.88604,-17.17196 -0.7215,-3.89616 -0.28861,-11.39987 0,-15.00745 0.28861,-3.60755 1.01012,-11.25557 -0.5772,-16.16184 -1.58734,-4.90628 -1.16723,-10.45286 -0.75909,-20.04434 0.40814,-9.5915 -2.65297,-18.77484 4.28557,-38.16189"
     id="path2902"
     style="fill:none;stroke:#f2f2f2;stroke-width:0.5;stroke-linecap:butt;stroke-linejoin:miter;stroke-miterlimit:4;stroke-opacity:1;stroke-dasharray:none" />
  <path
     d="m 283.22874,457.88825 c 0.38069,3.71191 -1.80837,5.42508 2.09388,20.55817"
     id="path2904"
     style="fill:none;stroke:#f2f2f2;stroke-width:0.5;stroke-linecap:butt;stroke-linejoin:miter;stroke-miterlimit:4;stroke-opacity:1;stroke-dasharray:none" />
  <path
     d="m 296.38304,505.70656 c -1.15442,-1.44303 -0.7215,-2.45313 -0.28861,-3.31896 0.43292,-0.86581 0.1443,-1.73162 -0.14431,-2.45313"
     id="path2906"
     style="fill:none;stroke:#f2f2f2;stroke-width:0.5;stroke-linecap:butt;stroke-linejoin:miter;stroke-miterlimit:4;stroke-opacity:1;stroke-dasharray:none" />
  <path
     d="m 292.34257,503.39771 c -3.31896,-1.2987 -2.88604,-5.05055 -3.17465,-6.7822 -0.28859,-1.73162 -0.28859,-5.62779 -0.4329,-7.07079"
     id="path2908-7"
     style="fill:none;stroke:#f2f2f2;stroke-width:0.5;stroke-linecap:butt;stroke-linejoin:miter;stroke-miterlimit:4;stroke-opacity:1;stroke-dasharray:none" />
  <path
     d="m 296.06214,418.68057 c -0.40816,-0.71426 -1.22445,-1.32647 -1.32649,-2.4489 -0.10203,-1.1224 0.20407,-2.04073 -0.10203,-2.65295 -0.30612,-0.61223 -0.71426,-1.02038 -1.42852,-1.73464 -0.71426,-0.71426 -1.3265,-2.65297 -0.71426,-4.59168"
     id="path2910"
     style="fill:none;stroke:#f2f2f2;stroke-width:0.5;stroke-linecap:butt;stroke-linejoin:miter;stroke-miterlimit:4;stroke-opacity:1;stroke-dasharray:none" />
  <path
     d="m 298.81714,409.39518 c -0.91833,-0.40814 -1.73464,-1.22442 -1.53057,-2.65294"
     id="path2912"
     style="fill:none;stroke:#f2f2f2;stroke-width:0.5;stroke-linecap:butt;stroke-linejoin:miter;stroke-miterlimit:4;stroke-opacity:1;stroke-dasharray:none" />
  <path
     d="m 294.73565,405.31372 c -0.40815,0 -0.61222,0.40814 -1.22445,0.10202 -0.61222,-0.30612 -2.34686,-2.34685 -2.04074,-3.16313 0.30612,-0.81631 0.10205,-1.6326 -0.51019,-1.42853"
     id="path2914"
     style="fill:none;stroke:#f2f2f2;stroke-width:0.5;stroke-linecap:butt;stroke-linejoin:miter;stroke-miterlimit:4;stroke-opacity:1;stroke-dasharray:none" />
  <path
     d="m 290.32234,396.2533 c -1.80378,-1.51517 -2.45313,-2.66959 -1.44301,-4.90628 1.01012,-2.2367 -0.28861,-3.17466 -0.93796,-4.47336 -0.64938,-1.29873 -2.81392,-3.82401 -0.50508,-11.18344 2.30885,-7.35941 4.25693,-6.6379 6.85436,-14.79099"
     id="path2916"
     style="fill:none;stroke:#f2f2f2;stroke-width:0.5;stroke-linecap:butt;stroke-linejoin:miter;stroke-miterlimit:4;stroke-opacity:1;stroke-dasharray:none" />
  <path
     d="m 303.8146,372.37128 c -0.86581,0.14428 -0.43289,0.0721 -1.51516,-0.0722 -1.08227,-0.14431 -4.18478,-0.14431 -4.97844,-0.50507 -0.79365,-0.36074 -2.38099,0 -3.1025,-0.86581"
     id="path2918"
     style="fill:none;stroke:#f2f2f2;stroke-width:0.5;stroke-linecap:butt;stroke-linejoin:miter;stroke-miterlimit:4;stroke-opacity:1;stroke-dasharray:none" />
  <path
     d="m 339.09651,364.00173 c 0.14431,-2.30882 -0.43292,-5.62778 -2.02023,-7.64801"
     id="path2920"
     style="fill:none;stroke:#f2f2f2;stroke-width:0.5;stroke-linecap:butt;stroke-linejoin:miter;stroke-miterlimit:4;stroke-opacity:1;stroke-dasharray:none" />
  <path
     d="m 336.78766,359.09545 c 0.86582,-3.31893 0.28862,-5.91639 -3.31893,-8.08091"
     id="path2922-6"
     style="fill:none;stroke:#f2f2f2;stroke-width:0.5;stroke-linecap:butt;stroke-linejoin:miter;stroke-miterlimit:4;stroke-opacity:1;stroke-dasharray:none" />
  <path
     d="m 335.77755,353.03478 c -2.74174,-4.32908 -4.47336,-9.37967 -5.19487,-10.82268 -0.72153,-1.44303 -4.18477,-6.205 -4.90628,-7.50371"
     id="path2924"
     style="fill:none;stroke:#f2f2f2;stroke-width:0.5;stroke-linecap:butt;stroke-linejoin:miter;stroke-miterlimit:4;stroke-opacity:1;stroke-dasharray:none" />
  <path
     d="m 353.50902,166.75095 c 9.14803,-1.90338 21.52978,-8.46902 22.8563,-15.61168"
     id="path2926"
     style="fill:none;stroke:#f2f2f2;stroke-width:0.5;stroke-linecap:butt;stroke-linejoin:miter;stroke-miterlimit:4;stroke-opacity:1;stroke-dasharray:none" />
  <path
     d="m 301.06194,136.44593 c -1.83666,-2.55093 0.61224,-3.97945 0.61224,-5.71408 -1.1224,-1.83667 -0.30612,-2.14278 -0.20407,-3.87741 -5.10187,0.20408 -2.04076,-3.87741 -4.48963,-5.20389 -2.4489,-1.32648 -2.34686,-4.08148 -1.93872,-5.40797 -0.91833,-1.22444 -0.91833,-0.71425 -1.02037,-2.55092 -0.91834,-0.20408 -1.53055,-1.32648 -1.42853,-2.34686 -1.1224,0.40815 -1.73461,0.30611 -3.46925,-0.20407 -0.51019,0.51018 -0.81631,0.71426 -1.53054,0.30611 -0.71426,-0.40815 -2.4489,0 -3.06114,-1.12241 -0.71423,0.8163 -1.63259,1.42852 -3.16313,0.30611 -0.35715,0.76528 -1.07141,0.76528 -1.53057,0.30611 -1.02036,0.40815 -2.65295,0.71426 -3.11211,0.30612 -0.71426,0.25509 -1.47955,0.51018 -1.93872,-0.30612 -0.56121,0.86732 -1.42852,0.51019 -1.88768,0.20408 -0.45917,-0.30611 -1.07141,0.25509 -1.73464,0.30611 0.20407,0.15306 0,0.8163 -0.56119,0.96935 -0.56121,0.15306 0.10202,0.91834 -1.53057,0.45917 0.2551,0.86731 -0.25509,1.27546 -1.02038,1.07139 0.51019,0.76528 -1.32647,1.12241 -0.76526,1.83667 0.56119,0.71426 -0.61223,1.83667 -0.051,1.83667 0.56119,0 2.34685,1.83666 -0.56121,3.26518"
     id="path2928"
     style="fill:none;stroke:#f2f2f2;stroke-width:0.5;stroke-linecap:butt;stroke-linejoin:miter;stroke-miterlimit:4;stroke-opacity:1;stroke-dasharray:none" />
  <path
     d="m 282.44017,130.42574 c 0.40817,-0.71426 0.40817,-1.17343 0.30612,-1.58157 -0.10205,-0.40815 0.30612,-0.51019 0,-1.42852 -0.30612,-0.91834 0,-0.86732 -0.25509,-1.58158"
     id="path2930"
     style="fill:none;stroke:#f2f2f2;stroke-width:0.5;stroke-linecap:butt;stroke-linejoin:miter;stroke-miterlimit:4;stroke-opacity:1;stroke-dasharray:none" />
  <path
     d="m 297.79676,123.89537 c -1.07138,0.71426 -1.83666,0.5612 -2.39788,0.71426 -0.56119,0.15305 0.30612,1.63259 -1.17342,1.83666 0.10204,0.56121 0.20409,1.78565 -1.3775,2.39788 0.051,-0.71426 0.35714,-1.32649 0.71426,-1.53056 -0.71426,-0.10204 -1.27545,0 -1.3775,0.51019 -0.10202,0.51018 -0.15304,0.81629 0.20407,1.07138 0.35715,0.2551 -0.051,0.61223 -0.25509,0.8163 -0.20407,0.20408 -0.61221,0.2551 -0.40814,1.3775 -0.81631,-0.20407 -1.02038,-0.91833 -1.27548,-1.02037 -0.25507,-0.10203 -0.71426,-0.40815 -0.66323,-1.02037 -0.91833,0.051 -1.17343,0.76528 -0.66324,0.86732 0.51019,0.10203 0.76529,0.45916 0.91833,0.96935 -0.61221,-0.25509 -0.91833,-0.45917 -1.27545,-0.51019 -0.35714,-0.051 -0.61223,-0.40814 -0.61223,-0.81629 0,-0.40815 -0.86731,-0.56121 -1.07138,-0.45917 -0.20407,0.10204 0.30609,0.66324 0.56119,0.76528 0.25509,0.10204 0.56121,0.66324 0.61223,0.96935 0.051,0.30611 0.86731,0.71426 0.96936,1.07139 0.10202,0.35713 0.15305,0.8163 0.86731,0.51019"
     id="path2932"
     style="fill:none;stroke:#f2f2f2;stroke-width:0.5;stroke-linecap:butt;stroke-linejoin:miter;stroke-miterlimit:4;stroke-opacity:1;stroke-dasharray:none" />
  <path
     d="m 283.91972,104.2022 c -1.1224,0.71426 -1.83666,2.14279 -2.24481,2.75501 -1.12242,-1.12241 -1.63259,-1.83667 -1.93871,-2.34686 -0.30612,-0.51018 -1.22445,-0.51018 -1.93871,-0.71426 -0.71426,-0.20407 -1.32647,-0.20407 -1.83666,0 -0.51019,0.20408 -1.83666,0.30611 -3.16316,-0.10203"
     id="path2934"
     style="fill:none;stroke:#f2f2f2;stroke-width:0.5;stroke-linecap:butt;stroke-linejoin:miter;stroke-miterlimit:4;stroke-opacity:1;stroke-dasharray:none" />
  <path
     d="m 285.1996,133.80356 c 1.22658,0.25253 0.64938,1.6234 2.20063,1.6234 -0.54113,0.72151 -0.14431,0.86581 0.64935,0.93796 -0.1443,0.72152 1.22658,2.09239 2.77783,2.48922 -0.54113,0.32468 -1.51519,0.18037 -1.76771,0.10822 0.46898,0.39684 0.54113,0.61329 0.5772,0.82974 -0.21644,0 -0.39683,0 -0.68542,0.0361 0.21644,0.46898 0.72151,0.54113 1.04618,0.57721 0.0722,-0.28861 -0.25252,-0.57721 -0.36076,-0.90189 0.64938,0.46898 0.72153,0.86581 0.75759,1.80378 -1.26264,-0.28861 -1.73162,-0.90189 -2.30884,-1.58733 -0.5772,-0.68544 -0.5772,-2.09238 -0.4329,-2.77782 -0.50507,0.28861 -0.68544,0.0722 -0.93796,-0.2886 -0.25252,-0.36076 -0.18037,-0.18038 -0.54114,0.10823 -0.36076,0.2886 -0.93796,-0.79367 -0.57722,-1.26265 0.36077,-0.46898 0.10824,-1.40695 -0.39683,-1.69555 z"
     id="path2936"
     style="fill:none;stroke:#f2f2f2;stroke-width:0.5;stroke-linecap:butt;stroke-linejoin:miter;stroke-miterlimit:4;stroke-opacity:1;stroke-dasharray:none" />
  <path
     d="m 325.09918,167.31776 c 4.61767,-2.02023 10.53406,-2.16453 14.57453,-0.86581 4.04047,1.29872 6.92651,1.44302 7.93663,2.30883 1.01012,0.86582 4.61766,1.73163 7.3594,5.05058 3.60758,-0.43291 15.00745,-1.73163 19.19222,-1.29872 4.18475,0.43291 5.19487,2.59744 8.65814,2.74174 3.46324,0.14431 10.53406,-3.31895 11.54418,-3.03034 1.01011,0.2886 5.33917,0.2886 8.22521,0 2.88605,-0.28861 10.96698,-0.86582 18.0378,0.4329 7.07079,1.29872 10.82265,0.43291 13.70869,0.86582 2.88605,0.4329 7.64804,-1.44303 9.95686,-1.15442 2.30885,0.2886 4.18478,-0.43291 5.05059,-1.29872 0.86581,-0.86581 2.59743,-1.58733 3.46324,-2.45314 0.86581,-0.86581 1.94808,-1.80378 3.5354,-2.23668 1.58734,-0.43291 6.22073,-1.00811 7.14297,-0.50506 1.58734,0.86581 6.49362,0.2886 9.09105,-0.14431 2.59743,-0.4329 3.75186,0.14431 5.48348,0.86582 1.73162,0.72151 3.31896,0.86581 4.76197,1.01011 1.44304,0.14431 0.72153,2.74175 -0.14431,3.60756 2.16454,0.2886 3.46327,1.01012 5.05059,0.86581 1.58734,-0.1443 1.29873,2.59745 0.28861,3.03035 -1.01012,0.43291 -3.46324,0.72151 -4.61766,0.57721 2.02023,1.01012 2.16454,3.17465 0.57719,3.75186 -1.58731,0.57721 -3.03035,0.57721 -4.32905,0.1443 -2.16454,1.73163 -4.90628,1.15442 -5.3392,0.72151 -0.7215,0.72151 -3.31893,0.72151 -4.18477,0.43291 -0.86581,-0.28861 -0.72151,0 -1.58732,0.43291 0,0.4329 -0.1443,0.72151 -0.43289,1.44302 0.72151,0.43291 2.45313,0.57721 3.75186,0 1.2987,-0.57721 2.59743,0 3.89616,0.1443 1.2987,0.1443 3.16859,-0.22482 4.25693,-0.0722 3.09885,0.43472 1.72062,2.56686 0.93793,3.2468 -0.39276,0.34121 -3.31893,0.86582 -4.04046,-0.1443 -1.73163,0.72151 -3.89617,1.01012 -5.33918,0.86581 -1.44303,-0.1443 -2.45315,0.43291 -4.18477,-0.2886 -2.02023,0.86581 -5.19486,1.01011 -6.20498,0.2886 -3.75186,2.02023 -9.52395,3.75186 -13.42011,0.14431 -1.15442,0.86581 0,1.58732 -4.47338,1.44302 -4.47336,-0.14431 -12.01209,0.88332 -16.19686,0.73901 -7.93663,3.17466 -10.06616,4.16727 -11.36486,3.59005"
     id="path2938"
     style="fill:none;stroke:#f2f2f2;stroke-width:0.5;stroke-linecap:butt;stroke-linejoin:miter;stroke-miterlimit:4;stroke-opacity:1;stroke-dasharray:none" />
  <path
     d="m 118.2419,181.60368 c 0.64936,0.57721 1.73163,0.64936 2.09239,1.22657"
     id="path2940"
     style="fill:none;stroke:#f2f2f2;stroke-width:0.5;stroke-linecap:butt;stroke-linejoin:miter;stroke-miterlimit:4;stroke-opacity:1;stroke-dasharray:none" />
  <path
     d="m 121.2001,181.74799 c 0.43291,-0.21646 0.64936,0 1.22657,-0.43291 0.79366,0.21645 2.16453,0.2886 3.1025,0.1443 0.5772,0.21645 1.15441,0.21645 1.65947,0.28861"
     id="path2942"
     style="fill:none;stroke:#f2f2f2;stroke-width:0.5;stroke-linecap:butt;stroke-linejoin:miter;stroke-miterlimit:4;stroke-opacity:1;stroke-dasharray:none" />
  <path
     d="m 121.3444,179.15054 c 1.01012,0.28861 1.73163,0.14431 2.30884,-0.4329 0.57721,-0.57721 1.22657,0.86581 3.82401,0.50506"
     id="path2944"
     style="fill:none;stroke:#f2f2f2;stroke-width:0.5;stroke-linecap:butt;stroke-linejoin:miter;stroke-miterlimit:4;stroke-opacity:1;stroke-dasharray:none" />
  <path
     d="m 179.35391,178.28473 c 2.38098,-0.21645 3.5354,-0.2886 4.54552,-1.80378 1.01011,-1.51517 2.66959,-2.02023 4.54552,-2.52529"
     id="path2946"
     style="fill:none;stroke:#f2f2f2;stroke-width:0.5;stroke-linecap:butt;stroke-linejoin:miter;stroke-miterlimit:4;stroke-opacity:1;stroke-dasharray:none" />
  <path
     d="m 416.15981,192.77041 c -2.34685,-0.40814 -7.04056,1.6326 -15.30556,1.42852 -8.26501,-0.20407 -7.55075,-1.73464 -9.99965,-0.91833 -2.4489,0.81629 -4.59165,-1.02038 -5.40796,-1.22445 -0.81631,-0.20407 -2.34685,0.20407 -2.85704,-0.81628 -0.51019,-1.02038 -2.755,-0.61224 -3.67333,-0.61224 -0.91833,0 -6.83648,1.1224 -10.10169,0.91833 -3.26518,-0.20407 -6.63239,0 -8.97927,-0.30609 -2.34685,-0.30612 -6.73443,2.14276 -13.67297,1.63259 -6.93851,-0.51019 -8.87722,-1.22445 -9.99962,-1.42852 -2.14278,1.63259 -2.24483,1.83666 -4.18354,2.34685 -0.40814,1.1224 -1.22442,1.42852 -2.2448,1.32648 -0.51019,0.71426 -1.63259,1.53056 -2.75499,2.4489"
     id="path2948"
     style="fill:none;stroke:#f2f2f2;stroke-width:0.5;stroke-linecap:butt;stroke-linejoin:miter;stroke-miterlimit:4;stroke-opacity:1;stroke-dasharray:none" />
  <path
     d="m 336.16272,191.44394 c 0.71426,0.10202 1.63259,0.20407 2.44888,0 1.53057,0.61221 2.65297,0.10202 3.06111,-0.10205 2.14278,-0.20407 5.10187,-0.81629 9.38743,-2.14277"
     id="path2950"
     style="fill:none;stroke:#f2f2f2;stroke-width:0.5;stroke-linecap:butt;stroke-linejoin:miter;stroke-miterlimit:4;stroke-opacity:1;stroke-dasharray:none" />
  <path
     d="m 357.18237,186.54615 c 2.65294,-0.51018 3.77537,-0.51018 4.18351,-0.20407 0.40814,0.30611 1.83666,-0.10204 2.4489,0.10203 0.61221,0.20408 11.93833,-0.91833 14.38723,-2.65296"
     id="path2952"
     style="fill:none;stroke:#f2f2f2;stroke-width:0.5;stroke-linecap:butt;stroke-linejoin:miter;stroke-miterlimit:4;stroke-opacity:1;stroke-dasharray:none" />
  <path
     d="m 382.79367,175.42411 c 0,1.32648 0.20407,1.9387 3.87742,2.755"
     id="path2954"
     style="fill:none;stroke:#f2f2f2;stroke-width:0.5;stroke-linecap:butt;stroke-linejoin:miter;stroke-miterlimit:4;stroke-opacity:1;stroke-dasharray:none" />
  <path
     d="m 392.84909,181.09862 c 2.02023,1.01012 4.61766,0.57721 5.62778,0.93797 1.01012,0.36076 3.96831,0 5.26704,-0.64936 1.29873,-0.64936 1.65947,-1.08227 5.26705,-0.86581"
     id="path2956"
     style="fill:none;stroke:#f2f2f2;stroke-width:0.5;stroke-linecap:butt;stroke-linejoin:miter;stroke-miterlimit:4;stroke-opacity:1;stroke-dasharray:none" />
  <path
     d="m 430.51197,182.97455 c 1.08227,0.14431 3.03035,-0.4329 3.82401,-0.50505 0.79369,-0.0722 4.04047,-0.0722 4.97843,-0.21646 0.93797,-0.1443 1.73162,-0.0721 2.81389,-0.36075 2.09239,0.0721 3.60758,-0.0721 4.47339,-0.1443"
     id="path2958"
     style="fill:none;stroke:#f2f2f2;stroke-width:0.5;stroke-linecap:butt;stroke-linejoin:miter;stroke-miterlimit:4;stroke-opacity:1;stroke-dasharray:none" />
  <path
     d="m 441.33465,184.99479 c 1.29873,0.1443 2.16454,-1.01012 3.6797,-1.44303"
     id="path2960"
     style="fill:none;stroke:#f2f2f2;stroke-width:0.5;stroke-linecap:butt;stroke-linejoin:miter;stroke-miterlimit:4;stroke-opacity:1;stroke-dasharray:none" />
  <path
     d="m 353.61107,189.81134 c 2.65297,-0.40815 4.48963,2.44888 12.9587,1.12241"
     id="path2962"
     style="fill:none;stroke:#f2f2f2;stroke-width:0.5;stroke-linecap:butt;stroke-linejoin:miter;stroke-miterlimit:4;stroke-opacity:1;stroke-dasharray:none" />
  <path
     d="m 455.7502,181.13818 c 4.48963,-0.91833 6.93853,-1.42851 7.44872,-5.40796"
     id="path2964"
     style="fill:none;stroke:#f2f2f2;stroke-width:0.5;stroke-linecap:butt;stroke-linejoin:miter;stroke-miterlimit:4;stroke-opacity:1;stroke-dasharray:none" />
  <path
     d="m 456.77058,173.79151 c 4.38758,2.04074 5.71408,1.22445 7.24462,0.61222 2.04074,1.12241 3.97945,0.30612 4.79576,0.91834 0.81628,0.61222 1.29962,-0.38745 1.73461,-0.10204 0.94242,0.61835 4.46496,-1.60571 4.08149,-2.95907 -0.1947,-0.68721 -0.91833,-1.02038 -1.32647,-1.22445 -0.10205,-0.61222 -1.3265,-1.02037 -3.06111,-1.12241 -1.22445,-0.91833 -3.97945,-1.12241 -4.79576,-0.91833 -0.81628,0.20407 -1.83666,0.20407 -3.36723,-0.30611 -1.53054,-0.51019 -1.83666,-0.10204 -2.95906,0.10203"
     id="path2966"
     style="fill:none;stroke:#f2f2f2;stroke-width:0.5;stroke-linecap:butt;stroke-linejoin:miter;stroke-miterlimit:4;stroke-opacity:1;stroke-dasharray:none" />
  <path
     d="m 461.46428,186.64819 c 0.71426,-1.93871 2.85704,-3.06112 2.4489,-4.99982 0.91833,-0.51019 0.71426,-1.12241 1.32647,-2.34685"
     id="path2968-59"
     style="fill:none;stroke:#f2f2f2;stroke-width:0.5;stroke-linecap:butt;stroke-linejoin:miter;stroke-miterlimit:4;stroke-opacity:1;stroke-dasharray:none" />
  <path
     d="m 463.30094,180.01578 c 1.53057,-0.71426 1.53057,-1.53056 1.73464,-2.55093 0.20407,-1.02037 0.40814,-0.91833 0.91833,-2.34686"
     id="path2970-4"
     style="fill:none;stroke:#f2f2f2;stroke-width:0.5;stroke-linecap:butt;stroke-linejoin:miter;stroke-miterlimit:4;stroke-opacity:1;stroke-dasharray:none" />
  <path
     d="m 455.03594,180.83207 c -1.02038,0.40815 -1.32648,0.10204 -2.04074,-0.20407 -0.91833,1.12241 -1.32649,1.12241 -2.75502,0.20407 -1.32647,0.51019 -1.83666,-0.30611 -2.65294,-1.73463"
     id="path2972"
     style="fill:none;stroke:#f2f2f2;stroke-width:0.5;stroke-linecap:butt;stroke-linejoin:miter;stroke-miterlimit:4;stroke-opacity:1;stroke-dasharray:none" />
  <path
     d="m 470.64762,168.58762 c 0,0.51019 3.46925,1.93871 3.87742,1.83667 0.40814,-0.10204 2.55092,0.71426 3.3672,0.61222 0.81631,-0.10204 2.75502,0.40815 4.69371,0.20407"
     id="path2974"
     style="fill:none;stroke:#f2f2f2;stroke-width:0.5;stroke-linecap:butt;stroke-linejoin:miter;stroke-miterlimit:4;stroke-opacity:1;stroke-dasharray:none" />
  <path
     d="m 468.81096,175.83225 c 1.53054,0.10204 3.87739,-0.61222 4.59165,-0.40814 0.71426,0.20407 0.71426,-0.40815 1.53057,-0.8163 0.61221,0.20407 1.32647,0.61222 2.55092,0.71426 -1.83666,0.40815 -3.36723,0.8163 -3.97944,1.02037 -1.1224,-0.30611 -2.14278,0.20408 -2.85704,0.20408 l -1.83666,-0.71427 z"
     id="path2976"
     style="fill:none;stroke:#f2f2f2;stroke-width:0.5;stroke-linecap:butt;stroke-linejoin:miter;stroke-miterlimit:4;stroke-opacity:1;stroke-dasharray:none" />
  <path
     d="m 477.68817,175.32207 c 2.18194,0.49899 3.93585,-0.58519 4.89778,-0.61222 0.20409,0.51018 0.81631,0.71426 1.22445,1.02037"
     id="path2980-2"
     style="fill:none;stroke:#f2f2f2;stroke-width:0.5;stroke-linecap:butt;stroke-linejoin:miter;stroke-miterlimit:4;stroke-opacity:1;stroke-dasharray:none" />
  <path
     d="m 468.40281,179.70967 c 0,0 0.3061,-1.93871 0.40815,-2.4489"
     id="path2982-3"
     style="fill:none;stroke:#f2f2f2;stroke-width:0.5;stroke-linecap:butt;stroke-linejoin:miter;stroke-miterlimit:4;stroke-opacity:1;stroke-dasharray:none" />
  <path
     d="m 470.23948,169.9141 c 0,0.61223 -0.71426,1.83667 0,2.14278 0.71426,0.30611 1.63259,0.40815 2.2448,0.40815 0.40817,-0.51019 0.61224,-1.02037 0.81631,-1.32648"
     id="path2984-68"
     style="fill:none;stroke:#f2f2f2;stroke-width:0.5;stroke-linecap:butt;stroke-linejoin:miter;stroke-miterlimit:4;stroke-opacity:1;stroke-dasharray:none" />
  <path
     d="m 282.02497,221.50325 c 0,-2.02024 -1.22658,-3.39109 -2.381,-3.31894 -1.15442,0.0721 -1.37085,-0.36077 -1.22657,-0.64935"
     id="path2986-16"
     style="fill:none;stroke:#f2f2f2;stroke-width:0.5;stroke-linecap:butt;stroke-linejoin:miter;stroke-miterlimit:4;stroke-opacity:1;stroke-dasharray:none" />
  <path
     d="m 276.61362,217.17419 c 0.50507,-0.43292 1.15442,-0.7215 1.44304,-0.79365 0.28858,-0.0722 1.15442,-0.50508 1.80377,-1.08227"
     id="path2988-3"
     style="fill:none;stroke:#f2f2f2;stroke-width:0.5;stroke-linecap:butt;stroke-linejoin:miter;stroke-miterlimit:4;stroke-opacity:1;stroke-dasharray:none" />
  <path
     d="m 281.5199,213.85523 c 0.57722,-0.86581 0.86581,-2.45313 0.36076,-3.5354 -0.50507,-1.08227 -0.1443,-2.95819 -2.88604,-3.75185"
     id="path2990-9"
     style="fill:none;stroke:#f2f2f2;stroke-width:0.5;stroke-linecap:butt;stroke-linejoin:miter;stroke-miterlimit:4;stroke-opacity:1;stroke-dasharray:none" />
  <path
     d="m 283.9009,214.28815 c -0.36077,-0.36077 -0.64938,-1.01012 -0.72153,-1.44304"
     id="path2992-78"
     style="fill:none;stroke:#f2f2f2;stroke-width:0.5;stroke-linecap:butt;stroke-linejoin:miter;stroke-miterlimit:4;stroke-opacity:1;stroke-dasharray:none" />
  <path
     d="m 283.54013,211.61856 c -0.79365,-1.15442 0.43292,-2.5253 1.22658,-3.03035 0.79366,-0.50507 0.86581,-1.51519 2.16454,-1.58734 1.2987,-0.0721 1.58731,0.28861 2.02023,0 0.4329,-0.28859 1.22655,-0.5772 1.58732,-0.64935 0.36074,-0.0721 -0.86581,-1.29873 -2.02024,-1.87593"
     id="path2994-61"
     style="fill:none;stroke:#f2f2f2;stroke-width:0.5;stroke-linecap:butt;stroke-linejoin:miter;stroke-miterlimit:4;stroke-opacity:1;stroke-dasharray:none" />
  <path
     d="m 303.59814,214.79319 c -0.5772,-1.15439 -1.58732,-3.39109 -2.16451,-3.53539 -0.57723,-0.14431 -1.01012,-0.5772 -1.44304,-0.72151 -0.43289,-0.1443 -0.64935,0 -1.29873,-0.36076 -0.64935,-0.36077 -0.7215,0.21646 -1.22655,-0.0722 -0.50507,-0.28861 -1.65949,-1.15442 -2.02023,-1.22657 -0.36077,-0.0721 -1.15443,0.0721 -1.51519,0 -0.36074,-0.0721 -1.08227,0.72153 -1.94808,0.43292"
     id="path2996-6"
     style="fill:none;stroke:#f2f2f2;stroke-width:0.5;stroke-linecap:butt;stroke-linejoin:miter;stroke-miterlimit:4;stroke-opacity:1;stroke-dasharray:none" />
  <path
     d="m 304.75256,202.59966 c -0.79366,-0.28861 -1.73162,-0.36076 -2.23666,-0.0721 -0.50508,0.28861 -0.64938,2.16454 0,2.66959 0.64935,0.50507 2.0202,0.21646 2.59743,0.1443 0.5772,-0.0721 0.86581,-1.01011 0.79365,-1.37085 -0.0721,-0.36077 -0.43291,-0.93799 -1.15442,-1.37089 z"
     id="path2998-52"
     style="fill:none;stroke:#f2f2f2;stroke-width:0.5;stroke-linecap:butt;stroke-linejoin:miter;stroke-miterlimit:4;stroke-opacity:1;stroke-dasharray:none" />
  <path
     d="m 303.30955,203.60978 c -0.1443,0.43289 -0.0722,0.50505 0.21644,0.64935 0.28861,0.14431 0.57722,0 0.72153,-0.28858"
     id="path3000-59"
     style="fill:none;stroke:#f2f2f2;stroke-width:0.5;stroke-linecap:butt;stroke-linejoin:miter;stroke-miterlimit:4;stroke-opacity:1;stroke-dasharray:none" />
  <path
     d="m 245.22789,183.84037 c 1.37087,0.57721 1.94808,0 2.30883,-0.0721 0.36076,-0.0722 3.1025,-0.28861 4.61766,-1.80378 1.51519,-1.51518 2.381,-1.87593 2.74177,-2.45314"
     id="path3006-6"
     style="fill:none;stroke:#f2f2f2;stroke-width:0.5;stroke-linecap:butt;stroke-linejoin:miter;stroke-miterlimit:4;stroke-opacity:1;stroke-dasharray:none" />
  <path
     d="m 280.58194,179.87206 c -0.28862,-0.86582 -0.86582,-2.59744 -1.15443,-2.88605 -0.28858,-0.2886 -0.86581,-0.57721 -1.44301,-0.64936 -0.57722,-0.0721 0.14431,-0.57721 -2.09238,-0.43291"
     id="path3008-56"
     style="fill:none;stroke:#f2f2f2;stroke-width:0.5;stroke-linecap:butt;stroke-linejoin:miter;stroke-miterlimit:4;stroke-opacity:1;stroke-dasharray:none" />
  <path
     d="m 303.59814,169.6266 c 2.23669,-0.79367 4.04047,-0.43291 4.68984,-0.79367 0.64936,-0.36075 1.37086,-0.64936 2.02021,-0.72151 0.64938,-0.0722 0.72153,-1.15442 4.04047,-1.73163"
     id="path3010"
     style="fill:none;stroke:#f2f2f2;stroke-width:0.5;stroke-linecap:butt;stroke-linejoin:miter;stroke-miterlimit:4;stroke-opacity:1;stroke-dasharray:none" />
  <path
     d="m 294.57927,165.87474 c -0.50508,-0.57721 -1.44304,-1.37087 -1.51519,-1.73163 0.57722,-0.50506 0.57722,-1.51517 0.57722,-2.09238 0,-0.57721 -0.50507,-4.40122 -0.0722,-5.9164 0.43289,-1.51517 0.7215,-6.13284 1.15442,-7.21511"
     id="path3012-82"
     style="fill:none;stroke:#f2f2f2;stroke-width:0.5;stroke-linecap:butt;stroke-linejoin:miter;stroke-miterlimit:4;stroke-opacity:1;stroke-dasharray:none" />
  <path
     d="m 293.28054,152.81538 c -0.79366,0.43291 -0.64935,1.51518 -1.08227,2.52529 -0.4329,1.01012 -1.08227,2.88605 -1.15443,3.82401 -0.0721,0.93797 0.21646,1.29872 -0.50504,1.73163"
     id="path3014-86"
     style="fill:none;stroke:#f2f2f2;stroke-width:0.5;stroke-linecap:butt;stroke-linejoin:miter;stroke-miterlimit:4;stroke-opacity:1;stroke-dasharray:none" />
  <path
     d="m 291.04384,152.16602 c 0.0722,1.15442 -0.50504,1.08227 -1.2987,1.44302 -0.79366,0.36076 -1.94808,2.23669 -2.23669,2.74175 -0.28861,0.50506 0,0.93796 -0.79366,1.29872"
     id="path3016-36"
     style="fill:none;stroke:#f2f2f2;stroke-width:0.5;stroke-linecap:butt;stroke-linejoin:miter;stroke-miterlimit:4;stroke-opacity:1;stroke-dasharray:none" />
  <path
     d="m 288.80718,149.42428 c 1.08227,-0.21645 1.58731,-1.08227 1.73162,-1.37087 0.1443,-0.28861 0.5772,-1.01012 0.36074,-1.37087 -0.21644,-0.36076 -0.64935,-0.43291 -0.5772,-1.08227"
     id="path3018-59"
     style="fill:none;stroke:#f2f2f2;stroke-width:0.5;stroke-linecap:butt;stroke-linejoin:miter;stroke-miterlimit:4;stroke-opacity:1;stroke-dasharray:none" />
  <path
     d="m 288.73502,145.96102 c -0.72153,-0.79366 -0.93796,-2.23668 -0.86581,-2.59744 0.0722,-0.36075 -1.08227,-0.72151 -0.86581,-1.51517 -0.0722,0.28861 -0.50507,0.36076 -1.01011,0.21645"
     id="path3020-3"
     style="fill:none;stroke:#f2f2f2;stroke-width:0.5;stroke-linecap:butt;stroke-linejoin:miter;stroke-miterlimit:4;stroke-opacity:1;stroke-dasharray:none" />
  <path
     d="m 265.55304,158.58798 c 0.10203,1.42852 0,1.93871 -0.40814,2.44889 -0.40816,0.51019 -1.22445,3.06112 -1.53057,3.36723 -0.30612,0.30611 -0.71426,0.20407 -1.83666,0.51018 -0.91833,1.32649 -2.24483,1.83667 -3.16316,2.04075"
     id="path3022-4"
     style="fill:none;stroke:#f2f2f2;stroke-width:0.5;stroke-linecap:butt;stroke-linejoin:miter;stroke-miterlimit:4;stroke-opacity:1;stroke-dasharray:none" />
  <path
     d="m 294.63362,159.09817 c 0.71426,2.65296 3.16314,4.48963 4.59166,5.51"
     id="path3024-5"
     style="fill:none;stroke:#f2f2f2;stroke-width:0.5;stroke-linecap:butt;stroke-linejoin:miter;stroke-miterlimit:4;stroke-opacity:1;stroke-dasharray:none" />
  <path
     d="m 295.75603,164.60817 c -0.71427,-1.32648 -2.14279,-3.36722 -2.24483,-4.79574"
     id="path3026-6"
     style="fill:none;stroke:#f2f2f2;stroke-width:0.5;stroke-linecap:butt;stroke-linejoin:miter;stroke-miterlimit:4;stroke-opacity:1;stroke-dasharray:none" />
  <path
     d="m 248.83545,214.14384 c -1.51518,-0.93796 -2.02024,-1.94808 -2.45314,-3.6797 -0.43291,0.14431 -1.08227,0 -1.37088,-0.14431"
     id="path3028-03"
     style="fill:none;stroke:#f2f2f2;stroke-width:0.5;stroke-linecap:butt;stroke-linejoin:miter;stroke-miterlimit:4;stroke-opacity:1;stroke-dasharray:none" />
  <path
     d="m 262.11124,203.39332 c 0.10995,0.26113 0.28862,1.73162 -0.86581,1.94808 -1.15442,0.21646 -2.95819,0.0722 -3.31893,-0.5772 -0.36077,-0.64937 0.14428,-1.94808 0.79365,-2.30884 0.64936,-0.36077 2.92385,-0.17179 3.39109,0.93796 z"
     id="path3030-6"
     style="fill:none;stroke:#f2f2f2;stroke-width:0.5;stroke-linecap:butt;stroke-linejoin:miter;stroke-miterlimit:4;stroke-opacity:1;stroke-dasharray:none" />
  <path
     d="m 259.08089,203.75409 c 0.16234,0.64935 1.15443,0.93796 1.80378,0.43289"
     id="path3032-3"
     style="fill:none;stroke:#f2f2f2;stroke-width:0.5;stroke-linecap:butt;stroke-linejoin:miter;stroke-miterlimit:4;stroke-opacity:1;stroke-dasharray:none" />
  <path
     d="m 281.06268,199.04568 c 0.71426,-1.73461 0.35714,-3.72434 -1.27545,-4.48963"
     id="path3034-2"
     style="fill:none;stroke:#f2f2f2;stroke-width:0.5;stroke-linecap:butt;stroke-linejoin:miter;stroke-miterlimit:4;stroke-opacity:1;stroke-dasharray:none" />
  <path
     d="m 278.6138,203.63737 c -0.25509,0 -0.86733,0.051 -1.63262,-0.45917 -0.20407,0.86731 -1.02035,0.96936 -1.53054,0.86731 -0.51019,-0.10202 -0.86731,-0.3061 -1.83666,-0.051 -0.96936,0.2551 -1.3265,0.15308 -1.63259,-0.051 -0.30612,-0.20408 -1.22445,0.56118 -1.63259,0.35711 -0.40817,-0.20407 -2.80605,0.051 -4.33659,-0.15304"
     id="path3036-12"
     style="fill:none;stroke:#f2f2f2;stroke-width:0.5;stroke-linecap:butt;stroke-linejoin:miter;stroke-miterlimit:4;stroke-opacity:1;stroke-dasharray:none" />
  <path
     d="m 205.04504,386.33481 c 0.71426,-0.81629 1.42852,-2.24481 1.32648,-3.67333 -0.10204,-1.42852 -0.30611,-2.24483 0.20407,-3.67335 -0.20407,-1.93868 1.6326,-3.16313 2.14278,-3.77537"
     id="path3047-9"
     style="fill:none;stroke:#f2f2f2;stroke-width:0.5;stroke-linecap:butt;stroke-linejoin:miter;stroke-miterlimit:4;stroke-opacity:1;stroke-dasharray:none" />
  <path
     d="m 207.80004,372.04962 c 0.40815,-1.53057 1.32648,-3.36723 3.26518,-4.38761"
     id="path3049-9"
     style="fill:none;stroke:#f2f2f2;stroke-width:0.5;stroke-linecap:butt;stroke-linejoin:miter;stroke-miterlimit:4;stroke-opacity:1;stroke-dasharray:none" />
  <path
     d="m 218.20782,385.31443 c 1.32648,-0.61222 1.83667,-1.83667 2.24482,-3.06112 1.22445,-0.10202 1.63259,-0.51016 2.24481,-1.02035"
     id="path3051-9"
     style="fill:none;stroke:#f2f2f2;stroke-width:0.5;stroke-linecap:butt;stroke-linejoin:miter;stroke-miterlimit:4;stroke-opacity:1;stroke-dasharray:none" />
  <path
     d="m 218.4119,383.57981 c -1.93871,2.95907 -4.48964,3.67333 -6.73445,2.44888 -0.19269,0.54819 -0.81103,1.06287 -1.40059,1.26369 -0.36993,0.74436 -1.28225,1.47993 -1.8646,1.59335"
     id="path3053-276"
     style="fill:none;stroke:#f2f2f2;stroke-width:0.5;stroke-linecap:butt;stroke-linejoin:miter;stroke-miterlimit:4;stroke-opacity:1;stroke-dasharray:none" />
  <path
     d="m 211.2693,382.25331 c 2.55093,0.91836 3.77537,-0.10202 4.18352,-0.25506"
     id="path3055"
     style="fill:none;stroke:#f2f2f2;stroke-width:0.5;stroke-linecap:butt;stroke-linejoin:miter;stroke-miterlimit:4;stroke-opacity:1;stroke-dasharray:none" />
  <path
     d="m 215.86097,381.18194 c 0.25509,-0.051 0.5612,-0.20407 1.12241,-0.71426 0.81629,0.76528 2.29583,0.51019 3.06111,0.30611 0.76528,-0.20407 2.14278,0.051 3.92843,-1.83666"
     id="path3057"
     style="fill:none;stroke:#f2f2f2;stroke-width:0.5;stroke-linecap:butt;stroke-linejoin:miter;stroke-miterlimit:4;stroke-opacity:1;stroke-dasharray:none" />
  <path
     d="m 224.48444,378.35983 c 0.0721,-0.14431 0.4329,-0.50507 0.82973,-0.46898 0.39683,0.0361 0.86582,0.36074 1.29872,-0.36077"
     id="path3059"
     style="fill:none;stroke:#f2f2f2;stroke-width:0.5;stroke-linecap:butt;stroke-linejoin:miter;stroke-miterlimit:4;stroke-opacity:1;stroke-dasharray:none" />
  <path
     d="m 225.09772,377.09716 c 0.68543,-1.08224 0.97404,-3.42718 -0.68544,-4.47336"
     id="path3061"
     style="fill:none;stroke:#f2f2f2;stroke-width:0.5;stroke-linecap:butt;stroke-linejoin:miter;stroke-miterlimit:4;stroke-opacity:1;stroke-dasharray:none" />
  <path
     d="m 226.36036,376.59212 c 0.86582,0.75759 1.94808,0.43289 2.74175,0.28861"
     id="path3063"
     style="fill:none;stroke:#f2f2f2;stroke-width:0.5;stroke-linecap:butt;stroke-linejoin:miter;stroke-miterlimit:4;stroke-opacity:1;stroke-dasharray:none" />
  <path
     d="m 210.75911,379.3963 c 0,-1.02038 1.22445,-3.16316 0.91834,-3.87742 -0.30611,-0.71426 -0.91834,-2.04074 0,-3.77538 0.91833,-1.73464 1.42852,-3.16316 3.06111,-3.67332 1.63259,-0.51019 2.24482,-2.85704 2.55093,-3.26521"
     id="path3065"
     style="fill:none;stroke:#f2f2f2;stroke-width:0.5;stroke-linecap:butt;stroke-linejoin:miter;stroke-miterlimit:4;stroke-opacity:1;stroke-dasharray:none" />
  <path
     d="m 217.5956,363.78462 c 0.40815,-0.71426 0.8163,-2.14278 1.83667,-2.14278"
     id="path3067-4"
     style="fill:none;stroke:#f2f2f2;stroke-width:0.5;stroke-linecap:butt;stroke-linejoin:miter;stroke-miterlimit:4;stroke-opacity:1;stroke-dasharray:none" />
  <path
     d="m 220.14653,360.00924 c 0.81629,-1.12242 1.42852,-2.4489 1.73463,-2.65297 0.30611,-0.20407 1.73463,-0.71426 2.24481,-0.81631 0.51019,-0.10202 0.71427,0.51019 3.26519,-0.71426 2.55093,-1.22442 4.48963,-3.26518 5.40797,-6.42831"
     id="path3069-36"
     style="fill:none;stroke:#f2f2f2;stroke-width:0.5;stroke-linecap:butt;stroke-linejoin:miter;stroke-miterlimit:4;stroke-opacity:1;stroke-dasharray:none" />
  <path
     d="m 230.04413,360.00924 c 0.10203,-2.4489 1.9387,-6.42834 4.18352,-7.85686 2.24481,-1.42852 3.06111,-1.32647 4.18352,-2.2448 1.12241,-0.91836 1.73463,-2.34688 2.65296,-3.26521 2.34686,-1.53055 5.2039,-6.02018 6.22427,-7.65277"
     id="path3071-00"
     style="fill:none;stroke:#f2f2f2;stroke-width:0.5;stroke-linecap:butt;stroke-linejoin:miter;stroke-miterlimit:4;stroke-opacity:1;stroke-dasharray:none" />
  <path
     d="m 289.60083,480.30936 c 1.44301,-5.19487 1.73163,-13.56442 1.73163,-14.43023 0,-0.86581 2.59743,-6.0607 2.30884,-23.08835 -0.28861,-17.02766 -4.04047,-23.66556 -5.77211,-25.68579"
     id="path3073-41"
     style="fill:none;stroke:#f2f2f2;stroke-width:0.5;stroke-linecap:butt;stroke-linejoin:miter;stroke-miterlimit:4;stroke-opacity:1;stroke-dasharray:none" />
  <path
     d="m 285.56037,478.28912 c -2.30885,-5.77209 -2.88605,-17.02765 -2.02024,-20.77951"
     id="path3075-5"
     style="fill:none;stroke:#f2f2f2;stroke-width:0.5;stroke-linecap:butt;stroke-linejoin:miter;stroke-miterlimit:4;stroke-opacity:1;stroke-dasharray:none" />
  <path
     d="m 289.93989,513.67713 c 1.02038,0.81628 2.4489,0.40814 3.67335,0.10202 0.81629,0.71426 3.26519,0.81631 4.0815,-0.40814 1.73461,0 3.26518,-0.51019 3.67332,-1.22445 1.63259,0.30612 2.4489,0 3.36723,-0.10202 1.02035,0.40814 5.50999,0.30609 6.42834,0 1.02036,0.51016 1.6326,0.30609 2.55093,0.30609 0.51019,0.20407 0.61221,0.20407 1.42852,0.51019 0,0.91833 -0.20407,0.91833 0.71426,1.22445"
     id="path3077-4"
     style="fill:none;stroke:#f2f2f2;stroke-width:0.5;stroke-linecap:butt;stroke-linejoin:miter;stroke-miterlimit:4;stroke-opacity:1;stroke-dasharray:none" />
  <path
     d="m 299.5314,497.65731 c -0.71426,-1.12243 -0.81631,-2.75502 -1.02038,-4.79576"
     id="path3079-78"
     style="fill:none;stroke:#f2f2f2;stroke-width:0.5;stroke-linecap:butt;stroke-linejoin:miter;stroke-miterlimit:4;stroke-opacity:1;stroke-dasharray:none" />
  <path
     d="m 302.89863,495.82062 c 0,-1.12241 -0.40817,-2.14278 -1.02038,-3.36721"
     id="path3081-14"
     style="fill:none;stroke:#f2f2f2;stroke-width:0.5;stroke-linecap:butt;stroke-linejoin:miter;stroke-miterlimit:4;stroke-opacity:1;stroke-dasharray:none" />
  <path
     d="m 296.47029,497.9634 c -1.53057,-1.22445 -1.42853,-3.26519 -1.22445,-5.81611"
     id="path3083-9"
     style="fill:none;stroke:#f2f2f2;stroke-width:0.5;stroke-linecap:butt;stroke-linejoin:miter;stroke-miterlimit:4;stroke-opacity:1;stroke-dasharray:none" />
  <path
     d="m 259.63489,416.43577 c -1.53057,-1.53057 -1.1224,-3.16317 -0.91833,-3.97947 0.20407,-0.81629 -0.30612,-1.4285 -0.81631,-1.73462"
     id="path3085-4"
     style="fill:none;stroke:#f2f2f2;stroke-width:0.5;stroke-linecap:butt;stroke-linejoin:miter;stroke-miterlimit:4;stroke-opacity:1;stroke-dasharray:none" />
  <path
     d="m 258.10432,409.7013 c -1.42852,-0.71426 -2.14278,-1.63259 -2.34685,-2.95906 -0.20407,-1.3265 -1.02035,-2.4489 -0.51019,-2.95909 0.51019,-0.51019 0.40817,-0.81628 0.40817,-1.73461"
     id="path3087-9"
     style="fill:none;stroke:#f2f2f2;stroke-width:0.5;stroke-linecap:butt;stroke-linejoin:miter;stroke-miterlimit:4;stroke-opacity:1;stroke-dasharray:none" />
  <path
     d="m 251.36988,405.51779 c -1.1224,-2.55092 -2.14278,-4.18352 -0.71426,-7.55075"
     id="path3089-6"
     style="fill:none;stroke:#f2f2f2;stroke-width:0.5;stroke-linecap:butt;stroke-linejoin:miter;stroke-miterlimit:4;stroke-opacity:1;stroke-dasharray:none" />
  <path
     d="m 290.45008,397.5589 c 1.73464,0.20407 2.85704,-0.51019 3.77538,-1.42852"
     id="path3091-21"
     style="fill:none;stroke:#f2f2f2;stroke-width:0.5;stroke-linecap:butt;stroke-linejoin:miter;stroke-miterlimit:4;stroke-opacity:1;stroke-dasharray:none" />
  <path
     d="m 261.77767,407.04833 c 0,-0.30609 0.71426,-1.02035 0.61221,-1.32647 -1.63259,0.10205 -2.75499,-0.71426 -2.2448,-1.93871 0.51019,-1.22445 -1.12243,-1.32647 -1.73464,-1.83666 -0.61221,-0.51019 -0.81631,-0.40814 -0.81631,-1.22445"
     id="path3093-0"
     style="fill:none;stroke:#f2f2f2;stroke-width:0.5;stroke-linecap:butt;stroke-linejoin:miter;stroke-miterlimit:4;stroke-opacity:1;stroke-dasharray:none" />
  <path
     d="m 259.94101,400.10982 c -1.42852,0.61222 -3.06111,1.32648 -3.67335,-0.91833 -0.61221,-2.24483 -0.71426,-3.97944 0.20407,-6.22427 0.91833,-2.2448 0.10205,-4.18351 -0.20407,-5.61203 -0.30612,-1.42853 0.20407,-3.57131 -0.40814,-4.18352"
     id="path3095-0"
     style="fill:none;stroke:#f2f2f2;stroke-width:0.5;stroke-linecap:butt;stroke-linejoin:miter;stroke-miterlimit:4;stroke-opacity:1;stroke-dasharray:none" />
  <path
     d="m 256.77785,381.84517 c -0.51019,-0.91833 0,-1.32647 0,-2.14278 0,-0.81628 1.93871,-3.26518 5.10184,-3.67332"
     id="path3097-4"
     style="fill:none;stroke:#f2f2f2;stroke-width:0.5;stroke-linecap:butt;stroke-linejoin:miter;stroke-miterlimit:4;stroke-opacity:1;stroke-dasharray:none" />
  <path
     d="m 269.12435,394.49779 c -1.3265,-0.81631 -2.65297,-2.34685 -2.65297,-6.83649"
     id="path3099-2"
     style="fill:none;stroke:#f2f2f2;stroke-width:0.5;stroke-linecap:butt;stroke-linejoin:miter;stroke-miterlimit:4;stroke-opacity:1;stroke-dasharray:none" />
  <path
     d="m 306.87807,267.86973 c 2.14278,-0.91833 4.08147,0 5.30592,-2.85704"
     id="path3101-2"
     style="fill:none;stroke:#f2f2f2;stroke-width:0.5;stroke-linecap:butt;stroke-linejoin:miter;stroke-miterlimit:4;stroke-opacity:1;stroke-dasharray:none" />
  <path
     d="m 269.0223,273.99195 c -2.14278,-0.61221 -4.08149,-3.77537 -4.59166,-4.99982"
     id="path3103-8"
     style="fill:none;stroke:#f2f2f2;stroke-width:0.5;stroke-linecap:butt;stroke-linejoin:miter;stroke-miterlimit:4;stroke-opacity:1;stroke-dasharray:none" />
  <path
     d="m 261.67562,268.17585 c 2.04076,0.10202 2.55093,-0.81631 2.55093,-2.34685 0,-1.53057 0,-2.55093 0.10204,-3.36724"
     id="path3105-3"
     style="fill:none;stroke:#f2f2f2;stroke-width:0.5;stroke-linecap:butt;stroke-linejoin:miter;stroke-miterlimit:4;stroke-opacity:1;stroke-dasharray:none" />
  <path
     d="m 257.08397,269.29825 c -2.04076,0.20407 -3.77538,-0.71426 -4.79575,-1.22445"
     id="path3107-1"
     style="fill:none;stroke:#f2f2f2;stroke-width:0.5;stroke-linecap:butt;stroke-linejoin:miter;stroke-miterlimit:4;stroke-opacity:1;stroke-dasharray:none" />
  <path
     d="m 260.34915,268.27787 c -2.14278,0.30612 -2.85704,-0.61221 -3.36723,-0.81628 -0.51019,-0.20407 -0.61221,-0.20407 -1.93871,-0.81631"
     id="path3109-7"
     style="fill:none;stroke:#f2f2f2;stroke-width:0.5;stroke-linecap:butt;stroke-linejoin:miter;stroke-miterlimit:4;stroke-opacity:1;stroke-dasharray:none" />
  <path
     d="m 268.00192,252.76824 c -0.81628,-1.42852 -0.81628,-4.18352 -0.61221,-5.51002"
     id="path3111-5"
     style="fill:none;stroke:#f2f2f2;stroke-width:0.5;stroke-linecap:butt;stroke-linejoin:miter;stroke-miterlimit:4;stroke-opacity:1;stroke-dasharray:none" />
  <path
     d="m 266.77749,249.80917 c -0.8163,-0.40816 -0.40816,-1.73464 -1.02038,-2.24483 -0.61221,-0.51019 -1.32647,-0.61221 -1.73464,-0.81628"
     id="path3113-94"
     style="fill:none;stroke:#f2f2f2;stroke-width:0.5;stroke-linecap:butt;stroke-linejoin:miter;stroke-miterlimit:4;stroke-opacity:1;stroke-dasharray:none" />
  <path
     d="m 267.69583,243.5849 c -0.81631,-0.20407 -1.22445,-1.02038 -1.73464,-1.73464"
     id="path3115-9"
     style="fill:none;stroke:#f2f2f2;stroke-width:0.5;stroke-linecap:butt;stroke-linejoin:miter;stroke-miterlimit:4;stroke-opacity:1;stroke-dasharray:none" />
  <path
     d="m 278.4097,258.58434 c 0.40817,-0.40814 0.91834,-0.61221 1.22446,-1.42852 1.53056,0.2041 1.22445,-1.63259 0,-2.65294"
     id="path3117-4"
     style="fill:none;stroke:#f2f2f2;stroke-width:0.5;stroke-linecap:butt;stroke-linejoin:miter;stroke-miterlimit:4;stroke-opacity:1;stroke-dasharray:none" />
  <path
     d="m 279.83823,263.07398 c 1.22445,-0.10203 1.83666,-0.40815 2.75502,-1.12241 0.71426,0.61224 1.22442,0.51019 2.14275,0"
     id="path3119-2"
     style="fill:none;stroke:#f2f2f2;stroke-width:0.5;stroke-linecap:butt;stroke-linejoin:miter;stroke-miterlimit:4;stroke-opacity:1;stroke-dasharray:none" />
  <path
     d="m 295.85805,272.97157 c 2.55095,-2.95906 2.14278,-6.53036 1.93871,-8.5711"
     id="path3121"
     style="fill:none;stroke:#f2f2f2;stroke-width:0.5;stroke-linecap:butt;stroke-linejoin:miter;stroke-miterlimit:4;stroke-opacity:1;stroke-dasharray:none" />
  <path
     d="m 299.63342,247.76841 c -0.51016,-1.42852 -1.83666,-2.75499 -3.57128,-1.73461"
     id="path3123"
     style="fill:none;stroke:#f2f2f2;stroke-width:0.5;stroke-linecap:butt;stroke-linejoin:miter;stroke-miterlimit:4;stroke-opacity:1;stroke-dasharray:none" />
  <path
     d="m 298.81714,249.09491 c -0.30612,-1.02038 -0.91833,-2.04076 -1.63259,-2.14278"
     id="path3125"
     style="fill:none;stroke:#f2f2f2;stroke-width:0.5;stroke-linecap:butt;stroke-linejoin:miter;stroke-miterlimit:4;stroke-opacity:1;stroke-dasharray:none" />
  <path
     d="m 302.28639,244.50323 c -1.83666,-1.32647 -1.63259,-3.16316 -2.85704,-3.67332"
     id="path3127"
     style="fill:none;stroke:#f2f2f2;stroke-width:0.5;stroke-linecap:butt;stroke-linejoin:miter;stroke-miterlimit:4;stroke-opacity:1;stroke-dasharray:none" />
  <path
     d="m 284.22584,221.74895 c -0.51019,-1.12241 0,-1.93869 0.81628,-3.36721"
     id="path3129"
     style="fill:none;stroke:#f2f2f2;stroke-width:0.5;stroke-linecap:butt;stroke-linejoin:miter;stroke-miterlimit:4;stroke-opacity:1;stroke-dasharray:none" />
  <path
     d="m 250.55358,226.64675 c -1.12241,-1.83667 -2.55092,-2.34686 -2.65296,-6.02021"
     id="path3131"
     style="fill:none;stroke:#f2f2f2;stroke-width:0.5;stroke-linecap:butt;stroke-linejoin:miter;stroke-miterlimit:4;stroke-opacity:1;stroke-dasharray:none" />
  <path
     d="m 258.0023,225.11618 c 1.42852,2.95909 5.30591,3.06111 7.75481,0.71426"
     id="path3133"
     style="fill:none;stroke:#f2f2f2;stroke-width:0.5;stroke-linecap:butt;stroke-linejoin:miter;stroke-miterlimit:4;stroke-opacity:1;stroke-dasharray:none" />
  <path
     d="m 248.4108,219.40209 c -1.22444,-0.51016 -0.61222,-1.73461 0,-2.2448 -1.42851,-0.10205 -1.9387,0.10205 -2.14277,-0.81631 -0.20408,-0.91833 -0.8163,-1.42852 -0.8163,-1.83666 0,-0.40814 -1.63259,-1.73461 -1.73463,-5.50999"
     id="path3135-2"
     style="fill:none;stroke:#f2f2f2;stroke-width:0.5;stroke-linecap:butt;stroke-linejoin:miter;stroke-miterlimit:4;stroke-opacity:1;stroke-dasharray:none" />
  <path
     d="m 268.41009,127.2626 c -0.10205,0.61222 0,1.9387 0.30609,2.55093"
     id="path3137"
     style="fill:none;stroke:#f2f2f2;stroke-width:0.5;stroke-linecap:butt;stroke-linejoin:miter;stroke-miterlimit:4;stroke-opacity:1;stroke-dasharray:none" />
  <path
     d="m 269.43044,127.67075 c 0,0.81629 0.20407,2.34685 2.04076,3.06111"
     id="path3139"
     style="fill:none;stroke:#f2f2f2;stroke-width:0.5;stroke-linecap:butt;stroke-linejoin:miter;stroke-miterlimit:4;stroke-opacity:1;stroke-dasharray:none" />
  <path
     d="m 273.20581,120.22204 c -0.81628,0.10204 -1.83666,0.71426 -2.65294,-2.95908"
     id="path3141-6"
     style="fill:none;stroke:#f2f2f2;stroke-width:0.5;stroke-linecap:butt;stroke-linejoin:miter;stroke-miterlimit:4;stroke-opacity:1;stroke-dasharray:none" />
  <path
     d="m 272.49155,118.28333 c 0.61224,-0.20407 1.83669,0.51019 2.95909,0.40815 1.1224,-0.10204 3.5713,-0.20407 4.6937,-0.20407 1.12241,0 3.26519,0.10203 3.87743,0 0.61221,-0.10204 1.42849,-0.30611 1.63259,-0.71426"
     id="path3143-6"
     style="fill:none;stroke:#f2f2f2;stroke-width:0.5;stroke-linecap:butt;stroke-linejoin:miter;stroke-miterlimit:4;stroke-opacity:1;stroke-dasharray:none" />
  <path
     d="m 276.93019,144.40483 c 0.8673,0.76528 2.19378,0.45917 2.80601,0.35713 0.61222,-0.10203 2.34686,-0.20407 2.80602,0 0.45917,0.20408 1.88769,0.56121 3.26518,-0.15305 -0.10204,1.32648 -2.34685,1.78564 -4.38758,1.02037 -1.47955,0.61222 -1.73464,0.51018 -2.24483,0.40814 0.61221,-0.051 0.51019,-0.45916 0.71426,-0.76527 -1.63259,0.71426 -2.60195,0.15305 -2.95906,-0.86732 z"
     id="path3145-3"
     style="fill:none;stroke:#f2f2f2;stroke-width:0.5;stroke-linecap:butt;stroke-linejoin:miter;stroke-miterlimit:4;stroke-opacity:1;stroke-dasharray:none" />
  <path
     d="m 460.81545,167.10131 c 0.50505,0.36076 1.22658,0.64936 2.09239,0.72151"
     id="path3147-3"
     style="fill:none;stroke:#f2f2f2;stroke-width:0.5;stroke-linecap:butt;stroke-linejoin:miter;stroke-miterlimit:4;stroke-opacity:1;stroke-dasharray:none" />
  <path
     d="m 439.31441,132.54092 c 0.86581,-0.36075 2.66959,-0.93796 3.67971,-1.15442"
     id="path3149"
     style="fill:none;stroke:#f2f2f2;stroke-width:0.5;stroke-linecap:butt;stroke-linejoin:miter;stroke-miterlimit:4;stroke-opacity:1;stroke-dasharray:none" />
  <path
     d="m 446.31308,131.53081 c -0.79366,-0.57721 -1.37088,-2.23669 -0.93797,-3.17466"
     id="path3151"
     style="fill:none;stroke:#f2f2f2;stroke-width:0.5;stroke-linecap:butt;stroke-linejoin:miter;stroke-miterlimit:4;stroke-opacity:1;stroke-dasharray:none" />
  <path
     d="m 435.4904,131.3865 c 1.44304,-0.64936 2.88605,-1.15442 3.75186,-1.22657"
     id="path3153"
     style="fill:none;stroke:#f2f2f2;stroke-width:0.5;stroke-linecap:butt;stroke-linejoin:miter;stroke-miterlimit:4;stroke-opacity:1;stroke-dasharray:none" />
  <path
     d="m 435.92332,128.78906 c 1.1544,-0.64936 2.45313,-1.58732 3.60755,-1.51517"
     id="path3155"
     style="fill:none;stroke:#f2f2f2;stroke-width:0.5;stroke-linecap:butt;stroke-linejoin:miter;stroke-miterlimit:4;stroke-opacity:1;stroke-dasharray:none" />
  <path
     d="m 441.26249,123.08912 c 0.28862,1.94808 2.09239,4.11262 6.13286,3.31895 4.04047,-0.79366 8.00875,-5.69994 8.29737,-6.20499 0.28861,-0.50506 -0.36074,-2.09239 1.15442,-2.9582"
     id="path3157"
     style="fill:none;stroke:#f2f2f2;stroke-width:0.5;stroke-linecap:butt;stroke-linejoin:miter;stroke-miterlimit:4;stroke-opacity:1;stroke-dasharray:none" />
  <path
     d="m 452.51806,116.52337 c 1.08227,0 2.02023,-1.08227 2.45315,-1.73163 0.79366,0 1.29873,0.28861 2.16454,0.57721 0.86581,0.28861 7.64802,-1.94808 6.42144,-3.82401 -1.22657,-1.87593 -3.6797,0.79367 -4.11262,-0.57721 -0.43289,-1.37087 -2.9582,-0.72151 -3.75185,-0.2886 -0.79366,0.4329 -2.59744,0.57721 -3.24679,1.01011 -0.64938,0.43291 -1.01011,2.02024 -3.89616,1.65948"
     id="path3159"
     style="fill:none;stroke:#f2f2f2;stroke-width:0.5;stroke-linecap:butt;stroke-linejoin:miter;stroke-miterlimit:4;stroke-opacity:1;stroke-dasharray:none" />
  <path
     d="m 450.49785,118.97651 c 1.22655,0 0.79366,-0.93797 2.59743,-1.08227 1.80378,-0.1443 2.16454,-0.64936 2.38098,-1.65947"
     id="path3161"
     style="fill:none;stroke:#f2f2f2;stroke-width:0.5;stroke-linecap:butt;stroke-linejoin:miter;stroke-miterlimit:4;stroke-opacity:1;stroke-dasharray:none" />
  <path
     d="m 451.36366,121.5018 c 1.44301,-0.93797 1.94808,-1.87593 1.80378,-3.53541"
     id="path3163"
     style="fill:none;stroke:#f2f2f2;stroke-width:0.5;stroke-linecap:butt;stroke-linejoin:miter;stroke-miterlimit:4;stroke-opacity:1;stroke-dasharray:none" />
  <path
     d="m 456.19779,116.66767 c 0.0722,-0.2886 0.93796,-0.64936 0.93796,-1.37087"
     id="path3165"
     style="fill:none;stroke:#f2f2f2;stroke-width:0.5;stroke-linecap:butt;stroke-linejoin:miter;stroke-miterlimit:4;stroke-opacity:1;stroke-dasharray:none" />
  <path
     d="m 458.21802,110.02977 c 0.93797,-0.86581 1.65947,-2.02023 2.30882,-2.74174 0.93797,0.72151 3.24681,-0.57721 4.04047,-1.51518 1.37088,0.57721 4.18477,-0.4329 4.47336,-2.52529"
     id="path3167"
     style="fill:none;stroke:#f2f2f2;stroke-width:0.5;stroke-linecap:butt;stroke-linejoin:miter;stroke-miterlimit:4;stroke-opacity:1;stroke-dasharray:none" />
  <path
     d="m 459.87749,106.99942 c -0.21646,-0.2886 -0.50507,-1.15442 -0.36077,-2.02023"
     id="path3169"
     style="fill:none;stroke:#f2f2f2;stroke-width:0.5;stroke-linecap:butt;stroke-linejoin:miter;stroke-miterlimit:4;stroke-opacity:1;stroke-dasharray:none" />
  <path
     d="m 448.47762,112.26645 -1.8038,0.79367 c 0.50507,-0.28861 1.29873,-0.57721 1.87595,-0.72151"
     id="path3171"
     style="fill:none;stroke:#f2f2f2;stroke-width:0.5;stroke-linecap:butt;stroke-linejoin:miter;stroke-miterlimit:4;stroke-opacity:1;stroke-dasharray:none" />
  <path
     d="m 453.02313,109.38041 c 0.50505,0.2886 0.86581,1.22657 1.08227,1.73162"
     id="path3173"
     style="fill:none;stroke:#f2f2f2;stroke-width:0.5;stroke-linecap:butt;stroke-linejoin:miter;stroke-miterlimit:4;stroke-opacity:1;stroke-dasharray:none" />
</svg>
