<?xml version="1.0" encoding="UTF-8" standalone="no"?>
<!-- Created with Inkscape (http://www.inkscape.org/) -->

<svg
   xmlns:dc="http://purl.org/dc/elements/1.1/"
   xmlns:cc="http://creativecommons.org/ns#"
   xmlns:rdf="http://www.w3.org/1999/02/22-rdf-syntax-ns#"
   xmlns:svg="http://www.w3.org/2000/svg"
   xmlns="http://www.w3.org/2000/svg"
   version="1.1"
   width="560"
   height="560"
   id="makeup_gothic_eyeliner">
  <g
     transform="translate(0,-492.36218)"
     id="layer1">
    <path
       d="m 284.47649,633.38689 c 0.78409,-1.42021 2.25404,-3.37037 5.28562,-3.6627 3.03168,-0.29222 4.60062,0.32078 5.76031,-0.32268 -0.13733,0.922 -0.44561,1.89057 -1.52751,2.27543 -0.69136,0.44993 -1.73202,1.64721 -3.89007,1.79815 -2.15804,0.15093 -3.15465,-1.46601 -5.62836,-0.0883 z"
       id="path5206-4-6"
       style="fill:#000000;stroke:none;display:inline;enable-background:new" />
    <path
       d="m 280.63407,633.84726 c -0.55189,-1.72844 -2.14158,-3.42556 -5.54662,-3.94926 -2.67562,-0.41149 -4.55814,1.14238 -5.84641,-0.0526 0.60037,1.69444 1.40241,1.96978 2.1441,2.23918 0.74167,0.2694 0.9945,1.32819 3.24432,1.60008 2.63318,0.31802 4.45906,-1.26552 6.00461,0.1626 z"
       id="path5208-6-2"
       style="fill:#000000;stroke:none;display:inline;enable-background:new" />
  </g>
</svg>
