<?xml version="1.0" encoding="UTF-8" standalone="no"?>
<!-- Created with Inkscape (http://www.inkscape.org/) -->

<svg
   xmlns:dc="http://purl.org/dc/elements/1.1/"
   xmlns:cc="http://creativecommons.org/ns#"
   xmlns:rdf="http://www.w3.org/1999/02/22-rdf-syntax-ns#"
   xmlns:svg="http://www.w3.org/2000/svg"
   xmlns="http://www.w3.org/2000/svg"
   version="1.1"
   width="560"
   height="560"
   id="mask_cat">
  <g
     transform="translate(0,-0.99999888)"
     id="g21077"
     style="display:inline;enable-background:new">
    <g
       id="g21043">
      <g
         id="g20994">
        <path
           d="m 283.125,122.6875 c -13.19788,-0.32328 -16.1875,7.41958 -16.1875,16.71875 -2.55451,10.21803 3.33327,8.27137 4.6875,11.5 1.67444,3.99204 8.99956,4.74961 11.0625,1.0625 2.12204,3.57202 9.62836,2.80842 11.71875,-0.96875 1.96587,-3.55217 5.96663,-2.13253 3.625,-12.03125 0,-5.25522 -0.64746,-15.93198 -14.90625,-16.28125 z m 10.1875,14.875 c 0.58998,0.0179 1.20512,0.0452 1.84375,0.125 -1.49013,6.59914 -8.82331,5.76645 -9.78125,3.53125 0.93133,-2.42147 3.80763,-3.7814 7.9375,-3.65625 z m -21.5,0.0937 c 4.12987,-0.12515 7.03742,1.23478 7.96875,3.65625 -0.95794,2.2352 -8.32237,3.09914 -9.8125,-3.5 0.63863,-0.0798 1.25377,-0.13837 1.84375,-0.15625 z"
           id="path19970"
           style="color:#000000;fill:#666666;stroke:#333333;stroke-width:0.5;stroke-linecap:butt;stroke-linejoin:miter;stroke-miterlimit:4;stroke-opacity:1;stroke-dasharray:none;stroke-dashoffset:0;marker:none;visibility:visible;display:inline;overflow:visible;enable-background:accumulate" />
        <path
           d="m 297.3125,132.5 c -0.041,2.18916 -0.94142,2.91536 -2.9375,2.25 -3.20501,-1.06833 -7.39277,1.41931 -8.90625,2.84375 -1.51347,1.42445 -1.86872,4.26419 -0.34375,5.6875 1.33542,1.24639 3.01014,1.67806 4.96875,1.5 -0.77071,-0.29366 -2.66383,-0.72178 -3.65625,-1.59375 3.65014,1.06833 7.74597,-0.15986 9.4375,-1.40625 1.38556,-1.02094 2.18947,-1.2632 2.625,-0.4375 -0.0332,-0.2087 -0.0546,-0.43747 -0.0937,-0.65625 -0.0269,-0.14515 -0.0635,-0.31758 -0.0937,-0.46875 -0.0766,-0.39281 -0.17608,-0.80539 -0.28125,-1.25 0,-0.64555 -0.0158,-1.4073 -0.0625,-2.1875 -0.0154,-0.26848 -0.0381,-0.56416 -0.0625,-0.84375 -0.0985,-1.07803 -0.264,-2.21723 -0.5625,-3.375 -0.006,-0.0219 -0.0255,-0.0406 -0.0312,-0.0625 z m -4,5.0625 c 0.58998,0.0179 1.20512,0.0452 1.84375,0.125 -1.49013,6.59914 -8.82331,5.76645 -9.78125,3.53125 0.93133,-2.42147 3.80763,-3.7814 7.9375,-3.65625 z"
           id="path19970-2"
           style="color:#000000;fill:#4d4d4d;fill-opacity:1;stroke:none;marker:none;visibility:visible;display:inline;overflow:visible;enable-background:accumulate" />
        <path
           d="m 266.34375,144.3125 c 0.30521,4.69422 4.20755,4.03394 5.28125,6.59375 1.67444,3.99204 8.99956,4.74961 11.0625,1.0625 2.12204,3.57202 9.62836,2.80842 11.71875,-0.96875 1.47021,-2.65655 4.07186,-2.52958 4.3125,-6.4375 -0.53459,1.02537 -1.66292,1.87564 -3.09375,2.5 -2.72464,1.18891 -1.64578,3.8139 -4.9375,5.21875 -2.16177,0.9226 -6.33972,1.78639 -8.03125,-1.0625 -1.15736,2.58181 -4.36986,2.11375 -7.21875,1.3125 -2.8489,-0.80125 -1.68819,-3.83319 -3.46875,-4.8125 -1.46383,-0.8051 -4.52308,-1.7949 -5.625,-3.40625 z"
           id="path20064"
           style="color:#000000;fill:#4d4d4d;stroke:none;marker:none;visibility:visible;display:inline;overflow:visible;enable-background:accumulate" />
        <path
           d="m 279.81451,133.93344 c -0.73156,1.88116 5.65219,1.987 5.25264,0.17806 -0.62962,-2.85054 -3.93563,-3.56468 -5.25264,-0.17806 z"
           id="path20066"
           style="color:#000000;fill:#4d4d4d;stroke:none;marker:none;visibility:visible;display:inline;overflow:visible;enable-background:accumulate" />
        <path
           d="m 268.0625,131.25 c -0.007,0.0213 -0.0241,0.0411 -0.0312,0.0625 -0.0168,0.0498 -0.0149,0.10617 -0.0312,0.15625 -0.0764,0.23462 -0.15174,0.47773 -0.21875,0.71875 -0.0582,0.20976 -0.10485,0.41067 -0.15625,0.625 -0.1118,0.46617 -0.19973,0.95154 -0.28125,1.4375 -0.0122,0.0727 -0.0197,0.14568 -0.0312,0.21875 -0.0616,0.3897 -0.14335,0.78686 -0.1875,1.1875 -0.0483,0.43856 -0.0646,0.89366 -0.0937,1.34375 -0.006,0.0949 -0.026,0.18592 -0.0312,0.28125 -0.0385,0.6936 -0.0625,1.41005 -0.0625,2.125 -0.1031,0.41241 -0.17928,0.78908 -0.25,1.15625 -0.0414,0.20261 -0.0911,0.43319 -0.125,0.625 -0.0237,0.14241 -0.0414,0.29926 -0.0625,0.4375 1.0042,-1.25266 1.8043,-1.07183 3.34375,0.0625 1.69153,1.24639 5.16236,2.40444 8.8125,1.78125 -0.44514,0.44514 -1.78374,1.05014 -4.1875,1.40625 2.13667,0.26709 4.0225,-0.35208 5.625,-1.6875 1.6025,-1.33541 1.13847,-4.26305 -0.375,-5.6875 -1.51348,-1.42444 -5.97124,-3.645 -8.375,-2.84375 -2.32318,0.77439 -3.29767,0.0935 -3.28125,-3.40625 z m 3.75,6.40625 c 4.12987,-0.12515 7.03742,1.23478 7.96875,3.65625 -0.95794,2.2352 -8.32237,3.09914 -9.8125,-3.5 0.63863,-0.0798 1.25377,-0.13837 1.84375,-0.15625 z"
           id="path19970-0"
           style="color:#000000;fill:#4d4d4d;fill-opacity:1;stroke:none;marker:none;visibility:visible;display:inline;overflow:visible;enable-background:accumulate" />
      </g>
      <path
         d="m 287.38225,150.25626 18.73306,-5.00258"
         id="path19972"
         style="color:#000000;fill:none;stroke:#000000;stroke-width:0.5;stroke-linecap:round;stroke-linejoin:miter;stroke-miterlimit:4;stroke-opacity:1;stroke-dasharray:none;stroke-dashoffset:0;marker:none;visibility:visible;display:inline;overflow:visible;enable-background:accumulate" />
      <path
         d="m 288.97881,151.00133 14.47555,-1.38369"
         id="path19974"
         style="color:#000000;fill:none;stroke:#000000;stroke-width:0.5;stroke-linecap:round;stroke-linejoin:miter;stroke-miterlimit:4;stroke-opacity:1;stroke-dasharray:none;stroke-dashoffset:0;marker:none;visibility:visible;display:inline;overflow:visible;enable-background:accumulate" />
      <path
         d="m 287.59512,151.95927 17.88156,1.49013"
         id="path19976"
         style="color:#000000;fill:none;stroke:#000000;stroke-width:0.5;stroke-linecap:round;stroke-linejoin:miter;stroke-miterlimit:4;stroke-opacity:1;stroke-dasharray:none;stroke-dashoffset:0;marker:none;visibility:visible;display:inline;overflow:visible;enable-background:accumulate" />
      <path
         d="m 278.22859,150.25626 -18.73306,-5.00258"
         id="path19972-7"
         style="color:#000000;fill:none;stroke:#000000;stroke-width:0.5;stroke-linecap:round;stroke-linejoin:miter;stroke-miterlimit:4;stroke-opacity:1;stroke-dasharray:none;stroke-dashoffset:0;marker:none;visibility:visible;display:inline;overflow:visible;enable-background:accumulate" />
      <path
         d="m 276.63203,151.00133 -14.47555,-1.38369"
         id="path19974-0"
         style="color:#000000;fill:none;stroke:#000000;stroke-width:0.5;stroke-linecap:round;stroke-linejoin:miter;stroke-miterlimit:4;stroke-opacity:1;stroke-dasharray:none;stroke-dashoffset:0;marker:none;visibility:visible;display:inline;overflow:visible;enable-background:accumulate" />
      <path
         d="m 278.01572,151.95927 -17.88156,1.49013"
         id="path19976-2"
         style="color:#000000;fill:none;stroke:#000000;stroke-width:0.5;stroke-linecap:round;stroke-linejoin:miter;stroke-miterlimit:4;stroke-opacity:1;stroke-dasharray:none;stroke-dashoffset:0;marker:none;visibility:visible;display:inline;overflow:visible;enable-background:accumulate" />
      <g
         id="g20989">
        <path
           d="m 279.66728,148.32901 c 1.15736,0 1.77887,0.62907 3.05461,0.62907 1.27574,0 2.4405,-0.80882 3.26061,-0.71893 0.82013,0.0898 0.58256,2.2467 -0.82011,2.2467 -0.729,0 -0.70915,-0.17975 -0.61802,-0.62909 0.0911,-0.44934 1.00237,-0.44934 1.00237,-0.44934 -0.729,-0.2696 -1.82248,0.26962 -1.82248,0.98856 0,0.55948 -0.30422,0.71894 -1.00556,0.71894 -0.71416,0 -0.99279,-0.26669 -0.99279,-0.73048 0,-0.72622 -0.18911,-0.99415 -1.09987,-0.97702 0.66481,0.23674 0.88926,1.00882 -0.29005,1.00882 -1.05251,0 -1.43741,-2.08723 -0.66871,-2.08723 z"
           id="path20042-2"
           style="color:#000000;fill:#4d4d4d;fill-opacity:1;stroke:none;marker:none;visibility:visible;display:inline;overflow:visible;enable-background:accumulate" />
        <path
           d="m 279.66728,148.32901 c 1.15736,0 1.77887,0.62907 3.05461,0.62907 1.27574,0 2.4405,-0.80882 3.26061,-0.71893 0.82013,0.0898 0.58256,2.2467 -0.82011,2.2467 -0.729,0 -0.70915,-0.17975 -0.61802,-0.62909 0.0911,-0.44934 1.00237,-0.44934 1.00237,-0.44934 -0.729,-0.2696 -1.82248,0.26962 -1.82248,0.98856 0,0.55948 -0.30422,0.71894 -1.00556,0.71894 -0.71416,0 -0.99279,-0.26669 -0.99279,-0.73048 0,-0.72622 -0.18911,-0.99415 -1.09987,-0.97702 0.66481,0.23674 0.88926,1.00882 -0.29005,1.00882 -1.05251,0 -1.43741,-2.08723 -0.66871,-2.08723 z"
           id="path20042"
           style="color:#000000;fill:none;stroke:#333333;stroke-width:0.49999994;stroke-linecap:butt;stroke-linejoin:miter;stroke-miterlimit:4;stroke-opacity:1;stroke-dasharray:none;stroke-dashoffset:0;marker:none;visibility:visible;display:inline;overflow:visible;enable-background:accumulate" />
        <path
           d="m 282.69898,151.95927 0,-3.06268"
           id="path20040"
           style="color:#000000;fill:none;stroke:#333333;stroke-width:0.5;stroke-linecap:butt;stroke-linejoin:miter;stroke-miterlimit:4;stroke-opacity:1;stroke-dasharray:none;stroke-dashoffset:0;marker:none;visibility:visible;display:inline;overflow:visible;enable-background:accumulate" />
      </g>
    </g>
    <g
       id="g21069">
      <g
         id="g21061">
        <path
           d="m 279.18653,123.11461 c -3.40601,-4.78971 -8.94078,-7.0249 -14.58199,-6.27984 -2.55451,6.49271 1.91588,14.0498 3.29958,15.43349"
           id="path20002"
           style="color:#000000;fill:#666666;fill-opacity:1;stroke:#333333;stroke-width:0.5;stroke-linecap:butt;stroke-linejoin:miter;stroke-miterlimit:4;stroke-opacity:1;stroke-dasharray:none;stroke-dashoffset:0;marker:none;visibility:visible;display:inline;overflow:visible;enable-background:accumulate" />
        <path
           d="m 275.18506,123.60621 c -2.22569,-2.93792 -4.8075,-4.71848 -9.97112,-5.78681 -1.51347,4.27334 0.35611,8.72473 3.11598,12.10779 1.06833,-2.13667 3.65014,-4.98556 6.85514,-6.32098 z"
           id="path20068"
           style="color:#000000;fill:#4d4d4d;stroke:none;marker:none;visibility:visible;display:inline;overflow:visible;enable-background:accumulate" />
      </g>
      <g
         id="g21065">
        <path
           d="m 285.75678,123.11461 c 3.40601,-4.78971 8.94078,-7.0249 14.58199,-6.27984 2.55451,6.49271 -1.91588,14.0498 -3.29958,15.43349"
           id="path20002-4"
           style="color:#000000;fill:#666666;fill-opacity:1;stroke:#333333;stroke-width:0.5;stroke-linecap:butt;stroke-linejoin:miter;stroke-miterlimit:4;stroke-opacity:1;stroke-dasharray:none;stroke-dashoffset:0;marker:none;visibility:visible;display:inline;overflow:visible;enable-background:accumulate" />
        <path
           d="m 289.69091,123.60621 c 2.22569,-2.93792 4.8075,-4.71848 9.97112,-5.78681 1.51347,4.27334 -0.35611,8.72473 -3.11598,12.10779 -1.06833,-2.13667 -3.65014,-4.98556 -6.85514,-6.32098 z"
           id="path20068-5"
           style="color:#000000;fill:#4d4d4d;stroke:none;marker:none;visibility:visible;display:inline;overflow:visible;enable-background:accumulate" />
      </g>
    </g>
  </g>
</svg>
