<?xml version="1.0" encoding="UTF-8" standalone="no"?>
<!-- Created with Inkscape (http://www.inkscape.org/) -->

<svg
   xmlns:dc="http://purl.org/dc/elements/1.1/"
   xmlns:cc="http://creativecommons.org/ns#"
   xmlns:rdf="http://www.w3.org/1999/02/22-rdf-syntax-ns#"
   xmlns:svg="http://www.w3.org/2000/svg"
   xmlns="http://www.w3.org/2000/svg"
   version="1.1"
   width="560"
   height="560"
   id="mask_jason">
  <g
     transform="matrix(-0.08886155,0,0,0.08886155,319.85299,186.22007)"
     id="g4358"
     style="display:inline;enable-background:new">
    <path
       d="m 417.5625,-785.5 c -109.66148,0 -203.67786,60.14337 -209.4375,273.25 -3.5948,133.00768 75.49929,324.46875 208.53125,324.46875 97.07737,0 204.95227,-93.47533 206.75,-326.28125 C 625.20398,-746.86842 486.77507,-785.5 417.5625,-785.5 z m -85.71875,52.90625 c -1.61604,5.39065 -9.27659,10.69361 -15.15625,11.25 2.21294,-7.09533 7.32534,-11.00414 15.15625,-11.25 z m 177.71875,1.28125 c 7.1945,0.44736 12.53894,4.87237 14.28125,11.71875 -5.81606,-0.79895 -12.83199,-5.72944 -14.28125,-11.71875 z m -176.25,30.40625 c 0.42187,-0.004 0.85362,0.015 1.28125,0.0312 1.36188,7.41343 -9.8401,16.02172 -17.0625,14.5 0.87473,-10.62026 7.74553,-14.45435 15.78125,-14.53125 z m 179.53125,7.0625 c 7.07913,0.17809 12.99721,2.77622 15.9375,13.375 -7.23914,0.51489 -14.84038,-7.38461 -15.9375,-13.375 z m -178.5625,31 c 1.17383,-0.0332 2.3783,0.0323 3.59375,0.15625 2.57329,7.5584 -9.29457,17.88982 -17.65625,15.4375 1.21598,-11.97894 7.12007,-15.39738 14.0625,-15.59375 z m 58.65625,2.59375 c 3.6526,0.0453 7.19897,1.4953 9.6875,3.9375 -0.0582,0.54479 -0.13317,1.10224 -0.28125,1.6875 -2.61388,10.33104 -18.09885,10.55509 -23.4375,4.875 2.79968,-7.49762 8.54536,-10.568 14.03125,-10.5 z m 65.3125,2.59375 c 5.441,0.0828 11.3073,2.84378 13.8125,8.625 -2.30221,3.94664 -18.08156,8.87575 -23.34375,-4.9375 1.84999,-2.21999 5.00346,-3.48281 8.4375,-3.65625 0.35771,-0.0181 0.73102,-0.0368 1.09375,-0.0312 z m 57.4375,3.875 c 8.97774,-0.053 13.58958,8.34795 13.28125,13.28125 -8.87994,1.31555 -16.76944,-11.18293 -15.125,-13.15625 0.63722,-0.0822 1.24523,-0.12147 1.84375,-0.125 z M 268.09375,-647.5 c -0.30423,4.04222 -2.08025,8.75988 -4.625,12.03125 -0.59401,-5.07937 1.66274,-10.30437 4.625,-12.03125 z m 56,84.90625 c 40.44891,0 45.84204,17.97839 49.4375,30.5625 2.69659,9.88751 -8.99769,44.03125 -46.75,44.03125 -37.75231,0 -39.5625,-31.84687 -39.5625,-39.09375 0,-8.08978 -4.51184,-35.5 36.875,-35.5 z m 186.625,2.25 c 41.38684,0 36.84375,27.41022 36.84375,35.5 0,7.24688 -10.77781,40.90625 -42.6875,40.90625 -32.80855,0 -41.8125,-29.76443 -41.8125,-45.40625 0,-14.40084 7.20734,-31 47.65625,-31 z M 263.8125,-444.6875 c 2.86345,0.28992 4.04086,15.24447 1.15625,15.125 -1.72592,-0.0715 -4.51882,-14.3817 -1.4375,-15.09375 0.0958,-0.0221 0.18888,-0.0406 0.28125,-0.0312 z m 159.59375,44.5625 c 17.74965,-0.32212 14.83523,14.12932 -0.21875,14.375 -14.63481,0.23884 -19.36834,-14.01954 0.21875,-14.375 z m -45.5,49.15625 c 0.28042,-0.0154 0.56923,-0.01 0.84375,0 10.61484,0.38816 16.18245,18.75357 6,23.4375 -11.2358,5.16847 -22.69927,-18.72877 -9.4375,-22.9375 0.89581,-0.28429 1.75248,-0.45386 2.59375,-0.5 z m 83.90625,3.5625 c 1.13112,-0.004 2.30558,0.15219 3.5,0.53125 13.26177,4.20873 1.72364,26.59941 -10.8125,20.90625 -10.87574,-4.93912 -3.62168,-21.4019 7.3125,-21.4375 z m -140.46875,5.5625 c 6.3783,-0.72291 9.22385,17.42687 5.65625,18.34375 -6.84555,1.75933 -11.44599,-16.64083 -6.28125,-18.1875 0.21299,-0.0638 0.41925,-0.13293 0.625,-0.15625 z m 209.71875,2.40625 c 0.39889,-0.0408 0.79277,-0.003 1.21875,0.125 5.16474,1.54667 -0.10388,20.17297 -6.5,19.3125 -3.53288,-0.47528 -0.70208,-18.82572 5.28125,-19.4375 z M 292.25,-319.34375 c 0.0702,-0.0193 0.13654,-0.0122 0.21875,0 2.86701,0.42696 6.59917,14.90854 4.4375,15.28125 -3.31389,0.57138 -6.83076,-14.68408 -4.65625,-15.28125 z m 85.78125,38.28125 c 7.23746,-0.0448 17.03334,10.87704 13.8125,17.3125 -4.77825,9.54729 -23.97482,-6.23912 -18.9375,-14.375 1.28437,-2.07441 3.09851,-2.92494 5.125,-2.9375 z m 89.3125,2.5625 c 1.79825,-0.0391 3.46741,0.33638 4.75,1.28125 6.86856,5.06 -11.93737,25.03849 -19.1875,13.46875 -3.97418,-6.34198 6.64507,-14.58061 14.4375,-14.75 z m -88.625,53.0625 c 5.11695,-0.12194 17.60471,5.61861 16.90625,7.875 -1.6563,5.35065 -21.03024,-3.78798 -18.875,-7.15625 0.31077,-0.48568 1.02117,-0.69617 1.96875,-0.71875 z m 87.5625,1.46875 c 0.89801,-0.0475 1.54508,0.11752 1.8125,0.53125 1.54551,2.39104 -12.34354,8.86077 -13.53125,5.0625 -0.48232,-1.54242 7.82736,-5.38802 11.71875,-5.59375 z"
       id="path2987-9-5"
       style="color:#000000;fill:#bd9c73;fill-opacity:1;stroke:#2c2017;stroke-width:5.62672997;stroke-linecap:round;stroke-linejoin:round;stroke-miterlimit:4;stroke-opacity:1;stroke-dasharray:none;stroke-dashoffset:0;marker:none;visibility:visible;display:inline;overflow:visible;enable-background:accumulate" />
    <path
       d="m 391.5625,-666.5 c -5.89991,0.0195 -12.3145,3.33742 -14.21875,10.53125 -0.6561,2.47858 0.0422,4.60119 1.5625,6.21875 2.79968,-7.49762 8.54536,-10.568 14.03125,-10.5 3.6526,0.0453 7.19897,1.4953 9.6875,3.9375 0.71807,-6.59313 -4.88007,-10.20797 -11.0625,-10.1875 z"
       id="path2987-9-5-85"
       style="color:#000000;fill:#8c603c;fill-opacity:1;stroke:none;marker:none;visibility:visible;display:inline;overflow:visible;enable-background:accumulate" />
    <path
       d="m 535.4375,-340.25 c -1.10083,-3e-5 -2.22868,0.41339 -3.28125,0.90625 0.0424,0.0111 0.082,0.0183 0.125,0.0312 5.16474,1.54667 -0.10388,20.17297 -6.5,19.3125 -0.729,-0.0981 -1.19096,-0.97388 -1.40625,-2.28125 0.35713,5.31871 2.78151,6.2906 6,5.96875 6.74148,-0.67414 11.22925,-16.84801 9.65625,-20.21875 -1.31075,-2.80875 -2.92708,-3.7187 -4.59375,-3.71875 z m -10.1875,9 c -0.1021,0.22313 -0.28125,0.5625 -0.28125,0.5625 -0.057,0.36113 -0.0758,0.68709 -0.125,1.03125 0.11365,-0.52942 0.26328,-1.07017 0.40625,-1.59375 z"
       id="path2987-9-5-1"
       style="color:#000000;fill:#8c603c;fill-opacity:1;stroke:none;marker:none;visibility:visible;display:inline;overflow:visible;enable-background:accumulate" />
    <path
       d="m 318.625,-343.96875 c -0.70048,-0.0351 -1.42908,0.0534 -2.1875,0.25 -6.06734,1.57301 -9.43921,10.11704 -5.84375,18.65625 3.59546,8.53921 8.98039,8.99262 13.25,8.09375 3.96821,-0.83541 5.43658,-4.60127 4.71875,-10.71875 -0.0388,2.23577 -0.54247,3.92535 -1.5625,4.1875 -6.84555,1.75933 -11.44599,-16.64083 -6.28125,-18.1875 0.21299,-0.0638 0.41925,-0.13293 0.625,-0.15625 0.883,-0.10008 1.69756,0.15998 2.4375,0.6875 -1.45662,-1.71212 -3.19106,-2.71399 -5.15625,-2.8125 z"
       id="path2987-9-8"
       style="color:#000000;fill:#8c603c;fill-opacity:1;stroke:none;marker:none;visibility:visible;display:inline;overflow:visible;enable-background:accumulate" />
    <path
       d="m 372,-348.625 c -4.83545,2.84955 -5.10519,5.08012 -5.6875,9.15625 -0.67415,4.71904 4.50255,14.40028 11.46875,14.625 5.22465,0.16853 8.69068,-2.44772 10.28125,-5.28125 -0.82989,1.06719 -1.92405,1.95506 -3.3125,2.59375 -10.08918,4.64103 -20.3603,-14.16209 -12.75,-21.09375 z"
       id="path2987-9-1-1"
       style="color:#000000;fill:#8c603c;fill-opacity:1;stroke:none;stroke-width:0.5;marker:none;visibility:visible;display:inline;overflow:visible;enable-background:accumulate" />
    <path
       d="m 340.25847,-452.03595 c 0,0 -31.01083,55.28017 -37.30288,81.34724 -5.84262,-3.59545 -18.42672,-11.2358 -18.42672,-11.2358 12.13467,-21.12332 46.74095,-63.36995 55.7296,-70.11144 z"
       id="path3009-51"
       style="color:#000000;fill:#a1170d;fill-opacity:1;stroke:none;marker:none;visibility:visible;display:inline;overflow:visible;enable-background:accumulate" />
    <path
       d="m 498.0092,-452.03595 c 0,0 30.11197,52.13414 39.99947,77.30235 5.84262,-3.59545 18.42672,-8.53921 18.42672,-8.53921 -12.13467,-25.16821 -49.43754,-62.02165 -58.42619,-68.76314 z"
       id="path3009-5-0"
       style="color:#000000;fill:#a1170d;fill-opacity:1;stroke:none;marker:none;visibility:visible;display:inline;overflow:visible;enable-background:accumulate" />
    <path
       d="m 570.59251,-320.57701 c -3.96932,-2.39831 -14.53232,18.72768 -11.23581,22.02219 3.17893,3.177 15.50541,-17.07843 11.23581,-22.02219 z"
       id="path3014-9-1"
       style="color:#000000;fill:#8c603c;fill-opacity:1;stroke:none;marker:none;visibility:visible;display:inline;overflow:visible;enable-background:accumulate" />
    <path
       d="m 586.54735,-439.00241 c -4.7638,-1.39602 -10.33694,22.69633 -4.04489,26.96594 6.29205,4.2696 8.17569,-25.75542 4.04489,-26.96594 z"
       id="path3016-0-8"
       style="color:#000000;fill:#8c603c;fill-opacity:1;stroke:none;marker:none;visibility:visible;display:inline;overflow:visible;enable-background:accumulate" />
    <path
       d="m 603.40106,-450.91237 c -3.46943,-4.14131 -7.41563,20.67389 -4.2696,23.5952 3.14602,2.92131 7.53013,-19.70325 4.2696,-23.5952 z"
       id="path3018-70"
       style="color:#000000;fill:#8c603c;fill-opacity:1;stroke:none;marker:none;visibility:visible;display:inline;overflow:visible;enable-background:accumulate" />
    <path
       d="m 402.60672,-511.55344 c -27.12505,15.07532 -27.82999,46.35765 -33.48837,57.67442 -6.51163,13.02326 -4.70608,31.67763 1.86047,40.93024 6.75968,9.52473 25.91177,12.28983 45.58139,10.23255 17.31435,-1.81094 30.02763,-9.15267 38.13953,-16.74418 10.73908,-10.05015 -2.79069,-13.02326 -18.60465,-6.51163 -15.24217,6.27618 -18.60465,-3.72093 -4.65116,-16.74419 13.95349,-13.02325 1.86046,-25.11628 -17.67442,-22.32558 -19.53488,2.7907 3.3823,-54.59537 -11.16279,-46.51163 z"
       id="path3028-5-0"
       style="color:#000000;fill:#8c603c;fill-opacity:1;stroke:none;marker:none;visibility:visible;display:inline;overflow:visible;enable-background:accumulate" />
    <path
       d="m 238.88745,-436.91273 c 6.24885,0.32889 6.90662,-24.66651 0.65777,-25.65317 -6.24885,-0.98666 -6.24885,23.67985 -0.65777,25.65317 z"
       id="path3140-52"
       style="color:#000000;fill:#8c603c;fill-opacity:1;stroke:none;marker:none;visibility:visible;display:inline;overflow:visible;enable-background:accumulate" />
    <path
       d="m 244.14964,-416.19285 c -6.91109,0.5821 -2.30221,26.63983 3.28887,26.31095 5.59108,-0.32889 4.58339,-26.97401 -3.28887,-26.31095 z"
       id="path3142-5"
       style="color:#000000;fill:#8c603c;fill-opacity:1;stroke:none;marker:none;visibility:visible;display:inline;overflow:visible;enable-background:accumulate" />
    <path
       d="m 418.1308,-584.58294 95.37719,-39.46642 -94.65813,9.00307 -87.5452,-4.39865 z"
       id="path3144-7"
       style="color:#000000;fill:#a1170d;fill-opacity:1;stroke:none;marker:none;visibility:visible;display:inline;overflow:visible;enable-background:accumulate" />
    <path
       d="m 590.46752,-371.79312 c 2.26049,-0.8978 10.10551,-28.65728 6.57774,-30.2576 -5.92501,-2.68779 -10.05305,31.63789 -6.57774,30.2576 z"
       id="path3148-0"
       style="color:#000000;fill:#8c603c;fill-opacity:1;stroke:none;marker:none;visibility:visible;display:inline;overflow:visible;enable-background:accumulate" />
    <path
       d="m 592.76973,-588.52958 c -4.68935,-1.53214 -3.61776,25.98207 1.97332,25.98207 5.59108,0 1.69154,-24.78466 -1.97332,-25.98207 z"
       id="path3150-9-1"
       style="color:#000000;fill:#8c603c;fill-opacity:1;stroke:none;marker:none;visibility:visible;display:inline;overflow:visible;enable-background:accumulate" />
    <path
       d="m 605.01372,-604.77864 c -4.68935,-1.53214 -2.6311,25.3243 2.95998,25.3243 5.59108,0 0.70488,-24.12689 -2.95998,-25.3243 z"
       id="path3150-1-4"
       style="color:#000000;fill:#8c603c;fill-opacity:1;stroke:none;marker:none;visibility:visible;display:inline;overflow:visible;enable-background:accumulate" />
    <path
       d="m 581.18054,-650.90853 c -7.01977,-0.002 0.31319,24.01646 7.14088,22.52218 5.4618,-1.19535 -3.28537,-22.52129 -7.14088,-22.52218 z"
       id="path3150-1-8-6"
       style="color:#000000;fill:#8c603c;fill-opacity:1;stroke:none;marker:none;visibility:visible;display:inline;overflow:visible;enable-background:accumulate" />
    <path
       d="m 253.07184,-592.94878 c -5.32988,-1.6338 -11.1628,21.86046 -5.34884,25.34883 5.81395,3.48837 12.18427,-23.25352 5.34884,-25.34883 z"
       id="path3389-4"
       style="color:#000000;fill:#8c603c;fill-opacity:1;stroke:none;marker:none;visibility:visible;display:inline;overflow:visible;enable-background:accumulate" />
    <path
       d="m 231.67649,-601.32088 c -4.32924,-0.99905 -9.56686,22.643 -3.72093,25.11628 6.04651,2.55814 11.53461,-23.31313 3.72093,-25.11628 z"
       id="path3391-9"
       style="color:#000000;fill:#8c603c;fill-opacity:1;stroke:none;marker:none;visibility:visible;display:inline;overflow:visible;enable-background:accumulate" />
    <path
       d="m 575.46875,-601.40625 c -1.88281,-0.061 -4.00363,0.6766 -6.34375,2.40625 -21.39535,15.81396 -23.26719,28.17452 -51.15625,26.0625 -41.19584,-3.11973 -53.70714,12.89914 -59.5625,32.53125 -10.38264,34.81138 0.93605,43.72239 16.75,64.1875 15.81395,20.46512 17.69477,18.60756 18.625,8.375 0.93023,-10.23255 12.08285,-1.86119 30.6875,-12.09375 18.60466,-10.23256 26.03492,-35.52716 43.71875,-49.28125 22.36918,-17.39825 22.61273,-71.69113 7.28125,-72.1875 z m -64.75,41.0625 c 41.38684,0 36.84375,27.41022 36.84375,35.5 0,7.24688 -10.77781,40.90625 -42.6875,40.90625 -32.80855,0 -41.8125,-29.76443 -41.8125,-45.40625 0,-14.40084 7.20734,-31 47.65625,-31 z"
       id="path2987-9-13"
       style="color:#000000;fill:#8c603c;fill-opacity:1;stroke:none;marker:none;visibility:visible;display:inline;overflow:visible;enable-background:accumulate" />
    <path
       d="m 278,-614.71875 c -17.09642,0.647 -16.74419,36.15698 -7.5,53.875 11.16279,21.39535 10.049,33.15745 15.8125,48.375 19.92258,52.60224 75.84084,16.59784 55.75,42.4375 -5.25985,6.76491 8.65102,7.97347 20.53125,-6.1875 13.11245,-15.62975 14.89026,-48.34956 28.84375,-65.09375 6.73754,-8.08505 -1.84666,-17.68532 -10.21875,-21.40625 -8.37209,-3.72093 -40.6001,-14.58822 -58.625,-18.59375 -16.74419,-3.72093 -20.11528,-21.34916 -31.625,-28.84375 -5.1294,-3.34003 -9.42044,-4.69678 -12.96875,-4.5625 z m 46.09375,52.125 c 40.44891,0 45.84204,17.97839 49.4375,30.5625 2.69659,9.88751 -8.99769,44.03125 -46.75,44.03125 -37.75231,0 -39.5625,-31.84687 -39.5625,-39.09375 0,-8.08978 -4.51184,-35.5 36.875,-35.5 z"
       id="path2987-9-3"
       style="color:#000000;fill:#8c603c;fill-opacity:1;stroke:none;marker:none;visibility:visible;display:inline;overflow:visible;enable-background:accumulate" />
    <path
       d="m 258.0625,-450.125 c -1.03805,0.036 -2.07584,0.47056 -3.0625,1.375 -3.94665,3.61775 -3.6269,21.38529 3.9375,23.6875 3.3279,1.01284 5.42624,-1.35799 6.53125,-4.65625 -0.14913,0.10304 -0.31971,0.16372 -0.5,0.15625 -1.72592,-0.0715 -4.51882,-14.3817 -1.4375,-15.09375 0.0958,-0.0221 0.18888,-0.0407 0.28125,-0.0312 0.2301,0.0233 0.44916,0.1465 0.65625,0.34375 -1.35693,-3.56145 -3.84913,-5.86986 -6.40625,-5.78125 z"
       id="path2987-9-0-5"
       style="color:#000000;fill:#8c603c;fill-opacity:1;stroke:none;marker:none;visibility:visible;display:inline;overflow:visible;enable-background:accumulate" />
    <path
       d="m 595.40625,-338.4375 c -35.5048,60.98071 -75.89986,96.75792 -117.28125,112.78125 0.90762,0.34645 1.67634,0.85465 2.15625,1.65625 2.36107,3.94375 -5.90403,9.84499 -12.59375,13 -6.6897,3.155 -17.70721,5.52563 -19.28125,1.1875 -1.07993,-2.97631 0.44975,-5.74108 3.03125,-8.21875 -17.98676,3.37672 -35.99312,3.2836 -53.71875,0.15625 2.42878,2.08609 2.02538,4.90715 0.9375,7.8125 -1.5912,4.24955 -10.09209,3.71842 -18.84375,0.53125 -8.75167,-3.18715 -12.18496,-8.75052 -10.59375,-13.53125 0.28367,-0.85227 0.63914,-1.54768 1.0625,-2.125 -45.0729,-16.03575 -87.09632,-51.00371 -120.53125,-97.21875 35.67672,75.43317 92.96659,134.625 166.9375,134.625 67.42604,0 140.03887,-45.10232 178.71875,-150.65625 z"
       id="path3942-4"
       style="color:#000000;fill:#8c603c;fill-opacity:1;stroke:none;marker:none;visibility:visible;display:inline;overflow:visible;enable-background:accumulate" />
    <path
       d="m 286.78125,-321.90625 c -1.04146,0.0117 -1.89888,0.23491 -2.25,0.65625 -1.12359,1.34829 -3.83353,6.96079 -0.6875,15.5 3.14602,8.53921 9.22159,10.12217 11.46875,7.875 2.10671,-2.10671 3.03758,-5.40375 2.21875,-7.84375 -0.0196,0.95539 -0.19858,1.58273 -0.625,1.65625 -3.31389,0.57138 -6.83076,-14.68408 -4.65625,-15.28125 0.0702,-0.0193 0.13654,-0.0122 0.21875,0 0.0209,0.003 0.0415,0.0267 0.0625,0.0312 -1.01527,-1.81413 -3.72466,-2.61658 -5.75,-2.59375 z"
       id="path2987-9-5-2"
       style="color:#000000;fill:#8c603c;fill-opacity:1;stroke:none;marker:none;visibility:visible;display:inline;overflow:visible;enable-background:accumulate" />
    <path
       d="m 378.25,-281.46875 c -8.31449,1.12358 -10.80057,4.72585 -11.25,10.34375 -0.44943,5.61791 8.3105,19.97188 16.625,17.5 7.76114,-2.30736 9.849,-7.92188 8.8125,-12.5 -0.0498,0.83532 -0.22332,1.63486 -0.59375,2.375 -4.77825,9.54729 -23.97482,-6.23912 -18.9375,-14.375 1.28437,-2.07441 3.09851,-2.92494 5.125,-2.9375 0.77673,-0.005 1.58984,0.11504 2.40625,0.34375 -0.83762,-0.47657 -1.5832,-0.75 -2.1875,-0.75 z"
       id="path2987-9-5-4"
       style="color:#000000;fill:#8c603c;fill-opacity:1;stroke:none;marker:none;visibility:visible;display:inline;overflow:visible;enable-background:accumulate" />
    <path
       d="m 412.25,-397.0625 c -4.3758,2.61902 -3.55572,5.13511 -3,8.40625 1.34829,7.93639 22.46108,9.55065 26.28125,2 2.30678,-4.5594 1.96028,-7.94976 -1.09375,-10.09375 3.52845,4.19813 -1.08548,10.83412 -11.25,11 -10.44676,0.17049 -15.82598,-7.03889 -10.9375,-11.3125 z"
       id="path2987-9-5-3"
       style="color:#000000;fill:#8c603c;fill-opacity:1;stroke:none;marker:none;visibility:visible;display:inline;overflow:visible;enable-background:accumulate" />
    <path
       d="m 465.59375,-346.78125 c 12.79517,4.44489 1.34852,26.46303 -11.09375,20.8125 -1.35947,-0.61739 -2.42887,-1.42084 -3.25,-2.34375 3.1447,5.35364 5.87279,4.49635 9.21875,5.5 4.94375,1.48293 14.5933,-5.91112 12.59375,-15.96875 -1.3361,-6.72051 -4.41403,-7.70477 -7.46875,-8 z"
       id="path2987-9-5-0-7"
       style="color:#000000;fill:#8c603c;fill-opacity:1;stroke:none;marker:none;visibility:visible;display:inline;overflow:visible;enable-background:accumulate" />
    <path
       d="m 472.8125,-224.65625 c -1.87293,0.022 -3.82706,0.3936 -5.53125,0.75 0.37915,0.0805 0.65905,0.23134 0.8125,0.46875 1.54551,2.39104 -12.34354,8.86077 -13.53125,5.0625 -0.038,-0.12138 -0.002,-0.25925 0.0625,-0.40625 -2.78143,2.29183 -4.63738,4.94251 -3.59375,7.8125 1.31554,3.61775 10.50268,1.63109 16.09375,-1 5.59108,-2.6311 12.50457,-7.55488 10.53125,-10.84375 -0.86333,-1.43888 -2.73714,-1.86848 -4.84375,-1.84375 z"
       id="path2987-9-5-8"
       style="color:#000000;fill:#8c603c;fill-opacity:1;stroke:none;marker:none;visibility:visible;display:inline;overflow:visible;enable-background:accumulate" />
    <path
       d="m 375.96875,-225.6875 c -1.98382,-0.0175 -3.62606,1.00319 -4.46875,3.53125 -1.3483,4.04489 1.55311,8.77216 8.96875,11.46875 7.41563,2.6966 14.62046,3.15796 15.96875,-0.4375 0.92058,-2.45488 1.26757,-4.86068 -0.78125,-6.625 -1.2e-4,0.0655 -0.0125,0.12686 -0.0312,0.1875 -1.6563,5.35065 -21.03024,-3.78798 -18.875,-7.15625 0.21982,-0.34355 0.65651,-0.52594 1.21875,-0.625 -0.70221,-0.21227 -1.35667,-0.33806 -2,-0.34375 z"
       id="path2987-9-5-04"
       style="color:#000000;fill:#8c603c;fill-opacity:1;stroke:none;marker:none;visibility:visible;display:inline;overflow:visible;enable-background:accumulate" />
    <path
       d="m 469.84375,-278.40625 c -0.26062,0.004 -0.51342,0.007 -0.78125,0.0312 1.12707,0.16878 2.17314,0.52409 3.03125,1.15625 6.86856,5.06 -11.93737,25.03849 -19.1875,13.46875 -0.56522,-0.90197 -0.85004,-1.83122 -0.875,-2.78125 -1.19158,4.53637 3.07397,10.44443 7.78125,10.90625 10.53396,1.03347 21.78142,-11.07012 16.40625,-19.5625 -1.44534,-2.28354 -3.72441,-3.26392 -6.375,-3.21875 z"
       id="path2987-9-5-7"
       style="color:#000000;fill:#8c603c;fill-opacity:1;stroke:none;marker:none;visibility:visible;display:inline;overflow:visible;enable-background:accumulate" />
    <path
       d="m 328,-668.8125 c -9.03524,0.66992 -16.00891,14.63606 -11.4375,19.34375 1.0775,1.10963 2.32521,1.82381 3.65625,2.21875 1.21598,-11.97894 7.12007,-15.39738 14.0625,-15.59375 1.17383,-0.0332 2.3783,0.0323 3.59375,0.15625 0.72374,2.1258 0.31787,4.4691 -0.84375,6.6875 1.76753,-3.36203 1.87038,-7.01438 -1.15625,-9.75 -2.64535,-2.39099 -5.34513,-3.25008 -7.875,-3.0625 z M 337.03125,-656 c -0.12907,0.24649 -0.29063,0.50711 -0.4375,0.75 0.15339,-0.25165 0.30317,-0.49449 0.4375,-0.75 z m -0.4375,0.75 c -0.58747,0.97154 -1.29656,1.90536 -2.125,2.78125 0.82462,-0.87016 1.53708,-1.81674 2.125,-2.78125 z m -2.125,2.78125 c -0.41422,0.43795 -0.85119,0.84736 -1.3125,1.25 0.46298,-0.40348 0.8966,-0.81113 1.3125,-1.25 z m -1.3125,1.25 c -0.35515,0.30998 -0.71528,0.62118 -1.09375,0.90625 0.38209,-0.28718 0.73521,-0.59378 1.09375,-0.90625 z m -1.46875,1.1875 c -0.48879,0.3503 -1.01435,0.66671 -1.53125,0.96875 0.51546,-0.30129 1.04353,-0.61957 1.53125,-0.96875 z m -1.53125,0.96875 c -0.52922,0.30924 -1.07498,0.59261 -1.625,0.84375 0.55826,-0.25419 1.0879,-0.52981 1.625,-0.84375 z m -1.625,0.84375 c -0.55002,0.25114 -1.09418,0.4708 -1.65625,0.65625 0.55661,-0.18375 1.1112,-0.40808 1.65625,-0.65625 z m -2.5,0.90625 c -0.2824,0.0749 -0.56108,0.13142 -0.84375,0.1875 0.27956,-0.0556 0.5644,-0.11353 0.84375,-0.1875 z m -0.84375,0.1875 c -0.28267,0.0561 -0.59315,0.11991 -0.875,0.15625 0.28933,-0.0369 0.58474,-0.0986 0.875,-0.15625 z m -0.875,0.15625 c -0.5637,0.0727 -1.10242,0.10576 -1.65625,0.0937 0.54724,0.0119 1.09911,-0.0228 1.65625,-0.0937 z m -1.65625,0.0937 c -0.27692,-0.006 -0.57094,-0.0339 -0.84375,-0.0625 0.28041,0.0301 0.55891,0.0563 0.84375,0.0625 z m -0.84375,-0.0625 c -0.27281,-0.0286 -0.5449,-0.0729 -0.8125,-0.125 0.27061,0.0539 0.53645,0.0953 0.8125,0.125 z"
       id="path2987-9-5-9"
       style="color:#000000;fill:#8c603c;fill-opacity:1;stroke:none;marker:none;visibility:visible;display:inline;overflow:visible;enable-background:accumulate" />
    <path
       d="m 264.125,-655.1875 c -5.43988,0.63128 -13.26538,21.89123 -8.96875,23.40625 3.04521,1.07376 5.99433,-0.71434 8.3125,-3.6875 -0.59401,-5.07937 1.66274,-10.30437 4.625,-12.03125 -0.19014,2.52639 -0.95667,5.30768 -2.125,7.84375 2.78266,-6.04165 3.30156,-13.50497 -0.8125,-15.375 -0.33735,-0.15334 -0.66859,-0.19834 -1.03125,-0.15625 z m 1.84375,15.53125 c -0.701,1.52164 -1.54572,2.96074 -2.5,4.1875 0.95861,-1.22947 1.7955,-2.65791 2.5,-4.1875 z"
       id="path2987-9-5-83"
       style="color:#000000;fill:#8c603c;fill-opacity:1;stroke:none;marker:none;visibility:visible;display:inline;overflow:visible;enable-background:accumulate" />
    <path
       d="m 326.0625,-707.5 c -8.56876,0.41012 -16.42918,14.64153 -11.875,19.3125 0.92636,0.95011 2.08457,1.54209 3.34375,1.8125 0.87473,-10.62026 7.74553,-14.45435 15.78125,-14.53125 0.42187,-0.004 0.85362,0.015 1.28125,0.0312 0.0851,0.46334 0.134,0.93634 0.125,1.40625 0.0417,-2.0484 -0.74557,-4.0667 -2.75,-5.8125 -1.91166,-1.66499 -3.92884,-2.31339 -5.90625,-2.21875 z m 8.65625,8.03125 c -0.009,0.46991 -0.0612,0.9353 -0.15625,1.40625 0.0967,-0.47392 0.14661,-0.93341 0.15625,-1.40625 z m -0.15625,1.40625 c -0.0475,0.23547 -0.11999,0.48405 -0.1875,0.71875 0.071,-0.24262 0.13782,-0.47529 0.1875,-0.71875 z m -0.1875,0.71875 c -0.0675,0.2347 -0.13225,0.45427 -0.21875,0.6875 0.0859,-0.22936 0.15119,-0.4567 0.21875,-0.6875 z m -0.21875,0.6875 c -0.173,0.46646 -0.38212,0.91856 -0.625,1.375 0.23862,-0.4481 0.45361,-0.91725 0.625,-1.375 z m -0.625,1.375 c -0.22994,0.43212 -0.49572,0.89418 -0.78125,1.3125 0.2903,-0.42387 0.54798,-0.87446 0.78125,-1.3125 z m -0.84375,1.375 c -0.30469,0.44089 -0.64159,0.86144 -1,1.28125 0.36367,-0.42382 0.69101,-0.83584 1,-1.28125 z m -1,1.28125 c -0.34887,0.40864 -0.70153,0.804 -1.09375,1.1875 0.38781,-0.37836 0.74801,-0.78459 1.09375,-1.1875 z m -1.15625,1.25 c -0.39466,0.38229 -0.81979,0.74202 -1.25,1.09375 0.43059,-0.35142 0.85482,-0.71176 1.25,-1.09375 z m -1.25,1.09375 c -0.88326,0.72213 -1.82742,1.3771 -2.8125,1.9375 0.98797,-0.56068 1.92622,-1.21418 2.8125,-1.9375 z m -2.8125,1.9375 c -0.44378,0.25246 -0.88882,0.50562 -1.34375,0.71875 0.45427,-0.21233 0.90046,-0.46718 1.34375,-0.71875 z m -6.0625,2.09375 c -0.49743,0.0521 -0.9903,0.05 -1.46875,0.0312 0.47711,0.019 0.97265,0.0204 1.46875,-0.0312 z"
       id="path2987-9-5-01"
       style="color:#000000;fill:#8c603c;fill-opacity:1;stroke:none;marker:none;visibility:visible;display:inline;overflow:visible;enable-background:accumulate" />
    <path
       d="m 324.5,-741.125 c -8.19743,0.37514 -18.331,11.38856 -13.59375,17.75 1.25944,1.69124 3.36949,2.2591 5.78125,2.03125 2.21294,-7.09533 7.32534,-11.00414 15.15625,-11.25 -0.30301,1.01075 -0.82357,2.02613 -1.5,3 2.31172,-3.31218 2.77893,-7.01756 -0.6875,-9.90625 -1.47999,-1.23333 -3.26453,-1.71157 -5.15625,-1.625 z m 5.84375,11.5625 c -0.44773,0.64218 -0.98981,1.23999 -1.5625,1.84375 0.57539,-0.6037 1.11237,-1.20143 1.5625,-1.84375 z m -2.46875,2.75 c -0.52903,0.4893 -1.06793,0.9626 -1.65625,1.40625 0.58772,-0.44163 1.1273,-0.91924 1.65625,-1.40625 z m -4.34375,3.15625 c -1.0585,0.59083 -2.16607,1.08262 -3.25,1.46875 1.08976,-0.38686 2.18506,-0.87543 3.25,-1.46875 z m -3.71875,1.625 c -0.67663,0.22055 -1.34368,0.40894 -2,0.53125 0.66396,-0.12279 1.31472,-0.30791 2,-0.53125 z"
       id="path2987-9-5-88"
       style="color:#000000;fill:#8c603c;fill-opacity:1;stroke:none;marker:none;visibility:visible;display:inline;overflow:visible;enable-background:accumulate" />
    <path
       d="m 458.84375,-665.9375 c -5.48786,-0.0693 -10.13834,2.00086 -11.125,6.6875 -0.81283,3.86093 0.7613,6.72551 2.625,8.5 -0.60953,-0.93865 -1.16198,-2.00332 -1.625,-3.21875 1.84999,-2.21999 5.00346,-3.48281 8.4375,-3.65625 0.35771,-0.0181 0.73102,-0.0368 1.09375,-0.0312 5.441,0.0828 11.3073,2.84378 13.8125,8.625 -0.0719,0.12333 -0.15247,0.25035 -0.25,0.375 2.9587,-1.33096 4.1875,-2.41001 4.1875,-5 0,-2.95998 -6.23782,-10.18445 -11.5,-11.5 -1.91772,-0.47943 -3.82696,-0.75816 -5.65625,-0.78125 z"
       id="path2987-9-5-28"
       style="color:#000000;fill:#8c603c;fill-opacity:1;stroke:none;marker:none;visibility:visible;display:inline;overflow:visible;enable-background:accumulate" />
    <path
       d="m 519.375,-661.09375 c -0.89095,-0.003 -1.77153,0.16125 -2.59375,0.53125 -3.85072,1.73282 -3.97329,5.04565 -3.15625,7.625 0.008,-0.3022 0.0798,-0.55207 0.21875,-0.71875 0.63722,-0.0822 1.24523,-0.12147 1.84375,-0.125 8.56143,-0.0505 13.14127,7.57572 13.28125,12.5625 6.10817,-0.59693 4.59877,-4.97611 4.28125,-8.46875 -0.28777,-3.16554 -7.63835,-11.38826 -13.875,-11.40625 z"
       id="path2987-9-5-13"
       style="color:#000000;fill:#8c603c;fill-opacity:1;stroke:none;marker:none;visibility:visible;display:inline;overflow:visible;enable-background:accumulate" />
    <path
       d="m 517.28125,-700.28125 c -1.49679,0.11567 -2.81293,0.79264 -3.78125,2.21875 -0.7687,1.13211 -0.91873,2.61559 -0.625,4.21875 7.06517,0.18501 12.97033,2.79196 15.90625,13.375 1.28781,-0.0913 2.58591,-0.44312 3.8125,-1.125 6.24872,-3.47374 -7.22984,-19.31211 -15.3125,-18.6875 z m 9,19.65625 c 0.27936,0.05 0.56348,0.0971 0.84375,0.125 -0.28504,-0.0274 -0.55961,-0.0747 -0.84375,-0.125 z"
       id="path2987-9-5-5"
       style="color:#000000;fill:#8c603c;fill-opacity:1;stroke:none;marker:none;visibility:visible;display:inline;overflow:visible;enable-background:accumulate" />
    <path
       d="m 512.90625,-739.1875 c -1.22673,0.0689 -2.17361,0.60834 -2.6875,1.6875 -1.00194,2.10408 -1.13711,4.19891 -0.65625,6.1875 7.1945,0.44736 12.53894,4.87237 14.28125,11.71875 3.00091,0.41957 5.673,-0.25869 7.09375,-2.46875 3.22191,-5.01186 -11.4069,-17.49733 -18.03125,-17.125 z m 7.59375,18.71875 c 0.75972,0.28394 1.50192,0.52264 2.25,0.6875 -0.74245,-0.16292 -1.49648,-0.40747 -2.25,-0.6875 z"
       id="path2987-9-5-21"
       style="color:#000000;fill:#8c603c;fill-opacity:1;stroke:none;marker:none;visibility:visible;display:inline;overflow:visible;enable-background:accumulate" />
  </g>
</svg>
