<?xml version="1.0" encoding="UTF-8" standalone="no"?>
<svg xmlns="http://www.w3.org/2000/svg" width="560" height="560" id="mouth_sadness">
  <path id="path30320" d="m 282.76811,157.3 c -1.09117,0.0524 -4.52412,0.64353 -4.95599,-1.66531 -0.15036,-0.80388 -0.10919,-2.76874 1.33228,-3.73311 0.85274,-0.5705 2.44204,0.26657 3.36364,0.26854 0.98458,0.002 3.30434,-0.84793 3.81462,-0.34223 1.08096,1.0713 1.05728,2.23137 1.1631,3.82227 0.0224,0.33681 -0.5578,0.75217 -1.34423,1.31063 -1.05639,0.60484 -2.18266,0.282 -3.37342,0.33921 z" style="color:#000000;display:inline;overflow:visible;visibility:visible;fill:#800000;fill-opacity:1;fill-rule:evenodd;stroke:none;stroke-width:0.10904708;stroke-linecap:butt;stroke-linejoin:miter;stroke-miterlimit:4;stroke-dasharray:none;stroke-dashoffset:0;stroke-opacity:1;marker:none;enable-background:accumulate"/>
  <path id="path30322" d="m 284.55662,151.90709 c -0.0421,0.007 -0.0713,0.0219 -0.11585,0.0272 -0.1971,0.0238 -0.41866,0.035 -0.65428,0.034 -0.47126,0.23209 -1.0663,0.15855 -1.59633,0.12689 -0.18777,-0.0111 -0.70486,-0.1557 -0.8892,-0.16296 -0.77447,0.69158 -1.01375,1.64127 -1.01375,2.48626 0,1.20153 0.12193,3.9686 1.38354,2.76707 0.72092,-0.48061 2.02465,0.0967 2.41491,0.0331 1.3998,-0.22827 1.12912,-0.81384 1.12912,-2.61614 0,-1.20351 0.12788,-2.06453 -0.65816,-2.69578 z" style="color:#000000;display:inline;overflow:visible;visibility:visible;fill:#550000;fill-opacity:1;fill-rule:evenodd;stroke:none;stroke-width:0.5;marker:none;enable-background:accumulate"/>
  <path id="path30324" d="m 282.7944,155.74923 c -2.4416,0 -2.76699,-0.57879 -2.76699,-1.85886 0,-1.12751 0.89852,-1.92146 1.58435,-1.82517 1.11035,0.1559 1.37495,0.50686 0.94938,0.79519 -1.43477,0.97208 1.7818,1.20536 0.92136,0.0936 -0.42172,-0.54489 0.22132,-0.71042 0.97094,-0.98325 0.74961,-0.27283 1.19192,0.27202 1.19192,1.5952 0,1.32317 -1.10038,2.24568 -2.85096,2.18325 z" style="color:#000000;display:inline;overflow:visible;visibility:visible;fill:#000000;fill-opacity:1;fill-rule:evenodd;stroke:#000000;stroke-width:0.10904709;stroke-linecap:butt;stroke-linejoin:miter;stroke-miterlimit:4;stroke-dasharray:none;stroke-dashoffset:0;stroke-opacity:1;marker:none;enable-background:accumulate"/>
  <path id="path30326" d="m 283.03404,154.70087 c -0.92127,-0.11033 -3.67722,-1.79362 -4.51183,1.01552 -4.4e-4,0.0153 0.007,0.0323 0.007,0.0477 0.97143,0.94185 3.21238,1.53747 4.16593,1.53747 0.64625,0 3.24276,-0.43491 4.18981,-1.22396 -0.34437,-3.4549 -3.15248,-1.29308 -3.85097,-1.37674 z" style="color:#000000;display:inline;overflow:visible;visibility:visible;fill:#a02c2c;fill-opacity:1;fill-rule:evenodd;stroke:#501616;stroke-width:0.10904708;stroke-linecap:butt;stroke-linejoin:miter;stroke-miterlimit:4;stroke-dasharray:none;stroke-dashoffset:0;stroke-opacity:1;marker:none;enable-background:accumulate"/>
  <path id="path30328" d="m 282.9165,155.11863 c -4.63436,-2.83832 -4.08521,1.71158 0,1.35111 4.08521,-0.36045 4.14508,-3.77918 0,-1.35111 z" style="color:#000000;display:inline;overflow:visible;visibility:visible;fill:#b85757;fill-opacity:1;fill-rule:evenodd;stroke:none;stroke-width:0.5;marker:none;enable-background:accumulate"/>
  <path id="path30336" d="m 279.14119,156.59484 c -0.23982,0.072 -0.47042,0.28809 -0.618,0.41413 -0.14758,0.12604 -0.33205,0.19806 -0.32283,0.063 0.009,-0.13504 0.0369,-0.50416 0.13836,-0.73823 0.10146,-0.23407 0.22137,-0.37811 0.40584,-0.53116 0.18448,-0.15304 0.64567,0.063 0.618,0.17105 -0.0277,0.10804 -0.0369,0.43214 -0.22137,0.62119 z" style="color:#000000;display:inline;overflow:visible;visibility:visible;fill:#f2f2f2;stroke:#cccccc;stroke-width:0.2204783;stroke-linecap:butt;stroke-linejoin:miter;stroke-miterlimit:4;stroke-dasharray:none;stroke-dashoffset:0;stroke-opacity:1;marker:none;enable-background:accumulate"/>
  <path id="path30338" d="m 279.62083,156.75689 c -0.24905,0.19806 -0.45197,0.55817 -0.70101,0.6572 -0.24905,0.099 -0.23982,-0.036 -0.22138,-0.16205 0.0184,-0.12604 -0.0646,-0.49515 0.0738,-0.79224 0.13835,-0.29709 0.39662,-0.59418 0.51653,-0.60318 0.11991,-0.009 0.35973,0.099 0.3874,0.13504 0.0277,0.036 0.14758,0.14404 0.11991,0.23407 -0.0277,0.09 -0.0461,0.3421 -0.17525,0.53116 z" style="color:#000000;display:inline;overflow:visible;visibility:visible;fill:#f2f2f2;stroke:#cccccc;stroke-width:0.2204783;stroke-linecap:butt;stroke-linejoin:miter;stroke-miterlimit:4;stroke-dasharray:none;stroke-dashoffset:0;stroke-opacity:1;marker:none;enable-background:accumulate"/>
  <path id="path30342" d="m 280.30339,157.13501 c -0.14751,0.005 -0.20293,0.036 -0.34128,0.36011 -0.13836,0.3241 -0.31361,0.3241 -0.37818,0.3421 -0.0646,0.018 -0.2306,-0.027 -0.22137,-0.10803 0.009,-0.081 -0.0553,-0.69321 0.0185,-0.86426 0.0738,-0.17106 0.10146,-0.52216 0.23982,-0.6572 0.13835,-0.13505 0.23059,-0.24308 0.36895,-0.23408 0.13835,0.009 0.46119,0.36912 0.45196,0.41413 -0.009,0.045 0.009,0.74272 -0.13835,0.74723 z" style="color:#000000;display:inline;overflow:visible;visibility:visible;fill:#f2f2f2;stroke:#cccccc;stroke-width:0.2204783;stroke-linecap:butt;stroke-linejoin:miter;stroke-miterlimit:4;stroke-dasharray:none;stroke-dashoffset:0;stroke-opacity:1;marker:none;enable-background:accumulate"/>
  <path id="path30344" d="m 280.05583,156.3607 c 0.0356,0.0316 0.0558,0.076 0.0185,0.098 -0.0187,0.011 -0.0532,0.0529 -0.0462,0.10666 0.004,0.0321 -0.0408,0.20131 -0.0716,0.23884 -0.0493,0.0601 -0.0739,-0.0481 -0.0308,-0.10221 0.0431,-0.0541 0.0678,-0.0962 0.0616,-0.11424 -0.006,-0.018 -0.0123,-0.0421 0.0185,-0.0962 0.0308,-0.0541 0.0326,-0.0757 0.0141,-0.0937 -0.0185,-0.018 -0.001,-0.0701 0.0359,-0.0371 z" style="color:#000000;display:inline;overflow:visible;visibility:visible;fill:#ffffff;stroke:none;stroke-width:15.7275238;stroke-miterlimit:4;stroke-dasharray:none;marker:none;enable-background:accumulate"/>
  <path id="path30346" d="m 279.77743,157.14929 c 0,0 0.0697,0 0.0958,-0.0255 0.0261,-0.0255 0,-0.11054 0,-0.11054 0,0 0.0174,-0.0595 -0.0174,-0.0765 -0.0349,-0.017 -0.0871,0.009 -0.0784,0.051 0.009,0.0425 0.0436,0.085 0,0.16156 z" style="color:#000000;display:inline;overflow:visible;visibility:visible;fill:#ffffff;stroke:none;stroke-width:15.7275238;stroke-miterlimit:4;stroke-dasharray:none;marker:none;enable-background:accumulate"/>
  <path id="path30348" d="m 281.31801,157.17102 c 0.0738,-0.21607 0.083,-0.90028 -0.10147,-0.86426 -0.0461,-0.045 -0.11991,-0.054 -0.17525,-0.045 -0.0553,-0.063 -0.1937,-0.036 -0.1937,-0.036 0,0 -0.3505,-0.063 -0.43352,-0.027 -0.083,0.036 -0.0646,0.25208 -0.083,0.34211 -0.0184,0.09 0.0922,0.80124 0.11068,0.97229 0.0185,0.17105 0.35973,0.43213 0.51654,0.12604 0.1568,-0.30609 0.25826,-0.38712 0.35973,-0.46814 z" style="color:#000000;display:inline;overflow:visible;visibility:visible;fill:#f2f2f2;stroke:#cccccc;stroke-width:0.2204783;stroke-linecap:butt;stroke-linejoin:miter;stroke-miterlimit:4;stroke-dasharray:none;stroke-dashoffset:0;stroke-opacity:1;marker:none;enable-background:accumulate"/>
  <path id="path30354" d="m 282.23047,157.24542 c 0.0717,0.0318 0.22492,0.21354 0.27057,0.28356 0.0457,0.07 0.29124,0.13141 0.44147,-0.0648 0.14507,-0.18943 0.17498,-0.35886 0.19455,-0.42888 0.0196,-0.07 0.0587,-0.13369 0.0652,-0.26101 0.007,-0.12731 0.0326,-0.40741 0.0391,-0.43288 0.007,-0.0255 -0.0261,-0.0637 -0.0391,-0.0764 -0.013,-0.0127 0.0137,-0.0682 -0.0396,-0.0949 -0.0533,-0.0267 -0.10822,-0.005 -0.1794,-0.0119 -0.0712,-0.007 -0.17485,-0.003 -0.22009,-0.0279 -0.0607,-0.0334 -0.20951,-0.0168 -0.26664,-0.0286 -0.0571,-0.0118 -0.20291,-0.0387 -0.24204,-0.0132 -0.0391,0.0255 -0.0498,0.0209 -0.0635,0.18087 -0.0138,0.15994 0.0395,0.75955 0.0395,0.97599 z" style="color:#000000;display:inline;overflow:visible;visibility:visible;fill:#f2f2f2;stroke:#cccccc;stroke-width:0.2204783;stroke-linecap:butt;stroke-linejoin:miter;stroke-miterlimit:4;stroke-dasharray:none;stroke-dashoffset:0;stroke-opacity:1;marker:none;enable-background:accumulate"/>
  <path id="path30356" d="m 282.74813,157.0345 c 0.014,-0.0715 -0.0218,-0.17857 -0.0218,-0.22533 0,-0.0468 0.0392,-0.1318 0.0523,-0.16156 -0.0261,-0.004 -0.0523,0.034 -0.074,0.0595 -0.0174,-0.0298 -0.0261,-0.085 -0.0218,-0.13179 -0.0261,0.0212 -0.0828,0.0893 -0.0697,0.11479 0.0131,0.0255 0.0392,0.0893 0.0305,0.10203 -0.009,0.0128 -0.009,0.017 0.0131,0.0595 0.0218,0.0425 0.0653,0.13396 0.0653,0.20407 0,0.0638 0.0392,0.10629 0.061,0.1403 -0.0349,-0.0595 -0.0435,-0.11707 -0.0349,-0.16155 z" style="color:#000000;display:inline;overflow:visible;visibility:visible;fill:#ffffff;stroke:none;stroke-width:15.7275238;stroke-miterlimit:4;stroke-dasharray:none;marker:none;enable-background:accumulate"/>
  <path style="color:#000000;display:inline;overflow:visible;visibility:visible;fill:#f2f2f2;stroke:#cccccc;stroke-width:0.2204783;stroke-linecap:butt;stroke-linejoin:miter;stroke-miterlimit:4;stroke-dasharray:none;stroke-dashoffset:0;stroke-opacity:1;marker:none;enable-background:accumulate" d="M 281.49023 156.16992 C 281.42501 156.16992 281.37447 156.16395 281.32227 156.18945 C 281.27007 156.21495 281.2962 156.25293 281.2832 156.26562 C 281.2702 156.27832 281.23714 156.3163 281.24414 156.3418 C 281.25064 156.36727 281.2762 156.64613 281.2832 156.77344 C 281.2897 156.90076 281.32806 156.96516 281.34766 157.03516 C 281.36098 157.08283 281.39337 157.23269 281.44336 157.39062 C 281.74687 157.37697 281.9564 157.36215 282.19922 157.3418 C 282.21767 157.30822 282.23727 157.25346 282.25391 157.24609 C 282.25391 157.02965 282.25462 156.48822 282.22852 156.3418 C 282.20242 156.19542 282.19535 156.19542 282.15625 156.16992 C 282.11712 156.14442 281.98775 156.18345 281.93555 156.18945 C 281.88337 156.19545 281.82304 156.18945 281.77734 156.18945 C 281.73168 156.18945 281.55543 156.16992 281.49023 156.16992 z" id="path30360"/>
  <path id="path30362" d="m 281.94665,156.86869 c -0.004,-0.0893 -0.0131,-0.17006 0.0131,-0.18707 0.0261,-0.017 0.0436,-0.0468 0.0436,-0.068 0,-0.0213 0,-0.10204 0.0131,-0.11904 0.0131,-0.017 0.0305,-0.0935 0.0523,-0.12755 -0.0218,0.009 -0.061,0.0128 -0.061,0.0128 -0.004,0.034 -0.0131,0.0553 -0.0261,0.0765 -0.0131,0.0213 -0.0436,0.17856 -0.0479,0.19982 0.0174,-0.10204 0.0392,-0.20833 0.0523,-0.23809 -0.0174,0.0298 -0.0174,0.034 -0.0392,0.051 -0.0131,0.0553 -0.0479,0.24659 -0.0566,0.26784 -0.009,0.0213 0.004,0.14881 0,0.17431 0.0218,-0.017 0.0348,-0.0383 0.0566,-0.0425 z" style="color:#000000;display:inline;overflow:visible;visibility:visible;fill:#ffffff;stroke:none;stroke-width:15.7275238;stroke-miterlimit:4;stroke-dasharray:none;marker:none;enable-background:accumulate"/>
  <path id="path30364" d="m 281.60128,156.89435 0,-0.11424 c -0.037,-0.0842 -0.0431,-0.20442 0.0185,-0.2405 -0.006,-0.012 -0.0493,-0.0481 -0.0431,-0.0782 -0.0555,0.018 -0.0555,0.0421 -0.0493,0.0661 0.006,0.024 -0.0185,0.006 -0.0123,0.0661 0.006,0.0601 -0.006,0.10822 0.0862,0.30062 z" style="color:#000000;display:inline;overflow:visible;visibility:visible;fill:#ffffff;stroke:none;stroke-width:15.7275238;stroke-miterlimit:4;stroke-dasharray:none;marker:none;enable-background:accumulate"/>
  <path id="path30366" d="m 281.71216,156.69594 c 0.006,-0.10823 0.0246,-0.26455 0.0739,-0.27056 -0.0678,-0.024 -0.0431,-0.0842 0.037,-0.10823 -0.0862,-0.006 -0.1232,0 -0.14168,0.0301 -0.0185,0.0301 0,0.0782 -0.0123,0.0902 -0.0123,0.012 0.006,0.0481 0.0554,0.0481 -0.0246,0.0421 -0.0308,0.0842 -0.0554,0.12626 0.0246,0.0481 0.0185,0.018 0.0431,0.0842 z" style="color:#000000;display:inline;overflow:visible;visibility:visible;fill:#ffffff;stroke:none;stroke-width:15.7275238;stroke-miterlimit:4;stroke-dasharray:none;marker:none;enable-background:accumulate"/>
  <path id="path30372" d="m 287.21933,156.3412 c -0.0801,-0.0721 -0.30801,-0.16835 -0.29569,-0.22246 -0.037,0.0301 -0.0493,-0.018 -0.0924,-0.0601 0.006,0.11424 0.037,0.13829 0.14168,0.17437 0.10472,0.0361 0.1848,0.0782 0.24641,0.10822 z" style="color:#000000;display:inline;overflow:visible;visibility:visible;fill:#ffffff;stroke:none;stroke-width:15.7275238;stroke-miterlimit:4;stroke-dasharray:none;marker:none;enable-background:accumulate"/>
  <path id="path30376" d="m 286.04788,156.59484 c 0.23982,0.072 0.36895,0.25208 0.51653,0.37812 0.14758,0.12604 0.47041,0.23407 0.46119,0.099 -0.009,-0.13504 -0.0461,-0.44114 -0.0553,-0.55817 -0.02,-0.25341 -0.24905,-0.54917 -0.43352,-0.70222 -0.0638,-0.0529 -0.1807,-3.1e-4 -0.29369,-0.0126 -0.16717,-0.0181 -0.43465,0.10394 -0.41654,0.17461 0.0277,0.10804 0.0369,0.43214 0.22137,0.62119 z" style="color:#000000;display:inline;overflow:visible;visibility:visible;fill:#f2f2f2;stroke:#cccccc;stroke-width:0.2204783;stroke-linecap:butt;stroke-linejoin:miter;stroke-miterlimit:4;stroke-dasharray:none;stroke-dashoffset:0;stroke-opacity:1;marker:none;enable-background:accumulate"/>
  <path id="path30378" d="m 286.62179,156.70796 c 0.0308,-0.10221 0.006,-0.20442 -0.0616,-0.27056 0.0308,0.12626 0.0554,0.20443 0.0616,0.27056 z" style="color:#000000;display:inline;overflow:visible;visibility:visible;fill:#ffffff;stroke:none;stroke-width:15.7275238;stroke-miterlimit:4;stroke-dasharray:none;marker:none;enable-background:accumulate"/>
  <path id="path30382" d="m 285.41776,156.84692 c 0.24905,0.19806 0.32284,0.52216 0.57188,0.62119 0.24904,0.099 0.41778,0.0551 0.4243,-0.072 0.009,-0.18006 0.0369,-0.6392 -0.10147,-0.93629 -0.13835,-0.29709 -0.39662,-0.59418 -0.51653,-0.60318 -0.11991,-0.009 -0.29516,0.19806 -0.34128,0.20706 -0.0452,0.009 -0.16603,0.054 -0.16603,0.16205 0,0.094 0,0.43213 0.12913,0.62119 z" style="color:#000000;display:inline;overflow:visible;visibility:visible;fill:#f2f2f2;stroke:#cccccc;stroke-width:0.2204783;stroke-linecap:butt;stroke-linejoin:miter;stroke-miterlimit:4;stroke-dasharray:none;stroke-dashoffset:0;stroke-opacity:1;marker:none;enable-background:accumulate"/>
  <path id="path30384" d="m 285.79633,156.73803 c 0.0308,0.0721 0.12321,0.2405 0.11089,0.33068 -0.0123,0.0902 -0.15401,-0.12626 -0.19097,-0.18638 -0.037,-0.0601 -0.0986,0 -0.11704,-0.0361 -0.0185,-0.0361 -0.12936,-0.26455 -0.16017,-0.2886 -0.0308,-0.024 -0.0616,-0.0601 -0.0123,-0.0842 -0.0308,-0.10222 0.0678,-0.0661 0.0678,0.018 0,0.0842 0.0986,0.25854 0.13552,0.26455 0.037,0.006 0.0185,-0.0361 0.16632,-0.018 z" style="color:#000000;display:inline;overflow:visible;visibility:visible;fill:#ffffff;stroke:none;stroke-width:15.7275238;stroke-miterlimit:4;stroke-dasharray:none;marker:none;enable-background:accumulate"/>
  <path id="path30386" d="m 286.10434,156.93043 c -0.0185,-0.0842 -0.0801,-0.21044 -0.11088,-0.25854 0.037,0.12025 0.006,0.12626 0.11088,0.25854 z" style="color:#000000;display:inline;overflow:visible;visibility:visible;fill:#ffffff;stroke:none;stroke-width:15.7275238;stroke-miterlimit:4;stroke-dasharray:none;marker:none;enable-background:accumulate"/>
  <path style="color:#000000;display:inline;overflow:visible;visibility:visible;fill:#f2f2f2;stroke:#cccccc;stroke-width:0.2204783;stroke-linecap:butt;stroke-linejoin:miter;stroke-miterlimit:4;stroke-dasharray:none;stroke-dashoffset:0;stroke-opacity:1;marker:none;enable-background:accumulate" d="M 284.85156 155.93359 C 284.77356 155.90989 284.68124 155.9963 284.625 156 C 284.48664 156.009 284.3302 156.29831 284.26562 156.36133 C 284.23233 156.39383 284.2634 157.08496 284.39453 157.15234 C 284.49003 157.20154 284.53453 157.25058 284.57812 157.33008 C 284.86933 157.32576 285.15546 157.30032 285.4375 157.23242 C 285.43729 157.06115 285.43302 156.88308 285.41797 156.80273 C 285.36257 156.50564 285.38767 156.30627 285.21484 156.2168 C 285.07739 156.1457 284.96537 155.96815 284.85156 155.93359 z" id="path30390"/>
  <path id="path30392" d="m 284.65165,156.42228 c -0.0131,-0.034 -0.0344,-0.0255 -0.0392,0.017 -0.005,0.0411 0.0624,0.29515 0.13382,0.41417 0.0665,0.11089 0.077,0.23829 0.084,0.29583 0.006,0.0481 0.0479,0.0383 0.0392,0 -0.0135,-0.0594 -0.0436,-0.29336 -0.074,-0.32312 -0.0305,-0.0298 -0.0958,-0.17005 -0.14375,-0.40389 z" style="color:#000000;display:inline;overflow:visible;visibility:visible;fill:#ffffff;stroke:none;stroke-width:15.7275238;stroke-miterlimit:4;stroke-dasharray:none;marker:none;enable-background:accumulate"/>
  <path style="color:#000000;display:inline;overflow:visible;visibility:visible;fill:#f2f2f2;stroke:#cccccc;stroke-width:0.2204783;stroke-linecap:butt;stroke-linejoin:miter;stroke-miterlimit:4;stroke-dasharray:none;stroke-dashoffset:0;stroke-opacity:1;marker:none;enable-background:accumulate" d="M 283.70898 156.1543 C 283.66132 156.15173 283.60517 156.1564 283.57227 156.18555 C 283.53524 156.1782 283.43256 156.19119 283.34766 156.17969 C 283.28227 156.17079 283.25109 156.21243 283.24609 156.24023 C 283.12119 156.21025 283.20733 156.55689 283.17773 156.9082 C 283.2417 156.96301 283.30847 157.12346 283.38281 157.30664 C 283.66977 157.3154 283.95344 157.32045 284.23242 157.32812 C 284.26645 157.08321 284.32249 156.60463 284.31641 156.52539 C 284.30971 156.43416 284.34011 156.22284 284.25781 156.18164 C 284.17551 156.14034 283.79688 156.16797 283.79688 156.16797 C 283.79687 156.16797 283.75665 156.15686 283.70898 156.1543 z" id="path30396"/>
  <path id="path30398" d="m 283.40152,156.52007 c -0.0436,-0.20407 -0.009,-0.2891 0.13938,-0.23809 -0.061,0.0425 -0.13938,0.20408 -0.13938,0.23809 z" style="color:#000000;display:inline;overflow:visible;visibility:visible;fill:#ffffff;stroke:none;stroke-width:15.7275238;stroke-miterlimit:4;stroke-dasharray:none;marker:none;enable-background:accumulate"/>
  <path style="display:inline;fill:#ff0000;fill-rule:evenodd;stroke:#800000;stroke-width:0.38534227px;stroke-linecap:butt;stroke-linejoin:miter;stroke-opacity:1" d="m 285.29023,157.75017 c -1.58951,-0.28931 -3.5681,-0.26623 -4.94261,-0.008 -2.17657,0.40891 -2.6555,-1.76015 -2.5439,-2.85139 0.77108,0.26403 0.73021,1.36489 1.49103,1.70381 1.20753,0.53791 2.05213,-0.0898 3.46606,-0.0479 1.35543,0.0402 2.67839,0.36326 3.2059,0.0587 0.72996,-0.42144 1.12514,-1.01332 1.4713,-1.73082 0.15077,2.50718 -0.66651,3.14521 -2.14778,2.8756 z" id="lowerlip"/>
  <path style="display:inline;fill:#d40000;fill-rule:evenodd;stroke:#800000;stroke-width:0.38534227px;stroke-linecap:butt;stroke-linejoin:miter;stroke-opacity:1" d="m 287.45113,155.57903 c -0.43694,-1.3546 -0.53361,-2.60075 -1.45912,-2.99291 -0.70299,-0.29788 -2.61358,0.15099 -3.16229,0.15189 -0.54874,9.2e-4 -2.59016,-0.58914 -3.43197,-0.19169 -0.53004,0.25024 -0.97811,1.29319 -1.60609,2.8903 -0.10647,-1.47501 0.26077,-3.50384 1.99528,-3.81387 1.2487,-0.22319 2.11158,0.41855 3.04794,0.41855 0.98791,0 2.30001,-0.80447 3.33562,-0.42168 1.78919,0.66134 1.1374,2.09738 1.28063,3.95941 z" id="upperlip"/>
</svg>
