<?xml version="1.0" encoding="UTF-8" standalone="no"?>
<!-- Created with Inkscape (http://www.inkscape.org/) -->

<svg
   xmlns:dc="http://purl.org/dc/elements/1.1/"
   xmlns:cc="http://creativecommons.org/ns#"
   xmlns:rdf="http://www.w3.org/1999/02/22-rdf-syntax-ns#"
   xmlns:svg="http://www.w3.org/2000/svg"
   xmlns="http://www.w3.org/2000/svg"
   version="1.1"
   width="560"
   height="560"
   id="nails_long">

  <g
     transform="translate(-245.5625,-1)"
     id="g34664"
     style="display:inline;enable-background:new">
    <g
       transform="translate(0,-2412.7841)"
       id="g34666"
       style="display:inline;enable-background:new">
      <path
         d="m 465.07116,2745.1099 c -0.38592,0.5357 -1.55651,1.2666 -2.16795,0.6793 0.032,0.4675 1.3746,5.7622 1.68704,6.0261 0.44186,0.3732 1.45182,0.2676 1.77427,-0.3406 0.23231,-0.4382 -1.11843,-5.8071 -1.29336,-6.3648 z"
         id="path34668"
         style="fill:#ff0000;stroke:none" />
      <path
         d="m 452.29353,2755.146 c -0.38892,0.065 -1.35155,-0.021 -1.62778,-0.1895 -0.10561,0.445 0.0703,5.3627 0.20661,5.725 0.19287,0.5125 0.89395,0.796 1.27374,0.3545 0.27361,-0.3181 0.11253,-5.3077 0.14741,-5.89 z"
         id="path34670"
         style="fill:#ff0000;stroke:none" />
      <path
         d="m 455.13443,2755.846 c -0.33525,0.5346 -1.14936,0.7115 -1.46875,0.6608 0.0712,0.4518 1.75871,5.085 2.02246,5.3684 0.37298,0.4009 1.1292,0.397 1.31293,-0.1557 0.13236,-0.3981 -1.67778,-5.3215 -1.86664,-5.8735 z"
         id="path34672"
         style="fill:#ff0000;stroke:none" />
    </g>
    <g
       id="g34674">
      <path
         d="m 548.3773,289.38415 c 0.2096,0.29759 0.76062,0.80817 0.76062,0.80817 1.12213,-0.37528 3.5577,-1.12816 6.2854,-1.84783 0.01,-0.61489 -0.78371,-1.12073 -0.78371,-1.12073 -2.38803,0.4691 -4.57848,1.18679 -6.26231,2.16039 z"
         id="path34676"
         style="fill:#ff0000;stroke:none" />
      <path
         d="m 552.74301,298.59629 c -0.19759,0.44784 0.66351,0.96998 0.66351,0.96998 0.91616,-0.65138 3.35878,-1.90422 4.54879,-3.31612 -0.15079,-0.4229 -0.67187,-1.34139 -0.97742,-1.24169 -1.64391,1.12628 -3.41243,2.79857 -4.23488,3.58783 z"
         id="path34678"
         style="fill:#ff0000;stroke:none" />
      <path
         d="m 565.96442,300.92414 c -0.53462,-0.10466 -1.43507,-0.49748 -1.749,-0.77559 -0.2765,0.3783 -2.94484,4.81209 -2.68353,5.12671 0.28686,0.34539 1.08175,0.68433 1.33448,0.48576 0.38999,-0.30643 2.87294,-4.29756 3.09805,-4.83688 z"
         id="path34680"
         style="fill:#ff0000;stroke:none" />
      <path
         d="m 570.49767,302.95466 c -0.44448,0.019 -1.23448,-0.12095 -1.53686,-0.28183 -0.1473,0.35318 -1.17046,3.82043 -0.90289,4.02034 0.29374,0.21946 0.98962,0.33678 1.15236,0.13086 0.25116,-0.3178 1.21165,-3.39815 1.28739,-3.86937 z"
         id="path34682"
         style="fill:#ff0000;stroke:none" />
    </g>
  </g>
</svg>
