<?xml version="1.0" encoding="UTF-8" standalone="no"?>
<!-- Created with Inkscape (http://www.inkscape.org/) -->

<svg
   xmlns:dc="http://purl.org/dc/elements/1.1/"
   xmlns:cc="http://creativecommons.org/ns#"
   xmlns:rdf="http://www.w3.org/1999/02/22-rdf-syntax-ns#"
   xmlns:svg="http://www.w3.org/2000/svg"
   xmlns="http://www.w3.org/2000/svg"
   version="1.1"
   width="560"
   height="560"
   id="nails_claws">
  <g
     transform="translate(-3.3062739e-6,-1)"
     id="g72944"
     style="display:inline;enable-background:new">
    <path
       d="m 219.50866,332.3258 c -0.42892,0.4927 -1.8882,0.85562 -2.16795,0.6793 0.032,0.4675 1.71419,4.41026 2.76674,7.56853 0.23366,0.12426 0.47351,0.0827 0.54033,-0.18635 -0.032,-1.93164 -0.40911,-5.4949 -1.13912,-8.06148 z"
       id="path72856"
       style="fill:#ff0000;stroke:none" />
    <path
       d="m 206.73103,342.3619 c -0.47564,-0.0506 -1.35155,-0.021 -1.62778,-0.1895 -1.02516,4.59434 0.25124,7.0344 1.13207,7.73017 0.16044,0.13851 0.41315,0.0109 0.50261,-0.28826 -0.78443,-1.93319 -1.14878,-5.42107 -0.007,-7.25241 z"
       id="path72858"
       style="fill:#ff0000;stroke:none" />
    <path
       d="m 209.5077,343.37021 c -0.23816,0.16027 -1.17456,0.42555 -1.40452,0.35249 0.12065,3.47454 1.85075,6.21301 2.94792,6.60235 0.1289,0.0284 0.20374,-0.0916 0.20762,-0.20753 -0.62003,-0.66797 -1.55986,-4.20576 -1.75102,-6.74731 z"
       id="path72860"
       style="fill:#ff0000;stroke:none" />
    <path
       d="m 300.63347,291.18799 c -0.0301,0.16821 0.0507,0.21261 0.15652,0.29617 2.21932,-1.24163 5.16025,-2.51222 9.07083,-3.13967 0.01,-0.61489 -0.78371,-1.12073 -0.78371,-1.12073 -4.24217,0.4691 -6.10541,2.22716 -8.44364,3.96423 z"
       id="path72864"
       style="fill:#ff0000;stroke:none" />
    <path
       d="m 305.78489,300.44635 c -0.48372,0.0749 -0.37959,-0.22406 -0.37959,-0.22406 1.92158,-2.54062 3.59495,-4.46877 6.01175,-5.50483 0.58759,0.14603 1.23085,1.10521 1.05547,1.37454 -2.56689,1.01411 -4.82624,2.98541 -6.68763,4.35435 z"
       id="path72866"
       style="fill:#ff0000;stroke:none" />
    <path
       d="m 320.40192,300.92414 c -0.53462,-0.10466 -1.43507,-0.49748 -1.749,-0.77559 -0.45628,0.91764 -3.48814,7.09639 -3.1198,7.08991 0.44891,-0.008 0.10015,0.35713 0.35288,0.15856 0.38999,-0.30643 4.29081,-5.93356 4.51592,-6.47288 z"
       id="path72868"
       style="fill:#ff0000;stroke:none" />
    <path
       d="m 324.93517,302.95466 c -0.44448,0.019 -1.23448,-0.12095 -1.53686,-0.28183 -0.1473,0.35318 -1.93393,5.78363 -1.66636,5.98354 0.29374,0.21946 0.33522,0.11865 0.49796,-0.0873 0.25116,-0.3178 2.62952,-5.14322 2.70526,-5.61444 z"
       id="path72870"
       style="fill:#ff0000;stroke:none" />
    <path
       d="m 222.0625,330.34375 c -0.12548,0.004 -0.76677,0.16459 -1.53125,0.34375 0.052,0.31558 0.0958,0.63199 0.125,0.9375 0.96477,-0.43447 1.78848,-0.84229 1.78125,-0.96875 -0.0209,-0.36607 -0.11263,-0.32038 -0.375,-0.3125 z m -5.84375,1.46875 c -0.0361,0.0147 -0.16938,0.0516 -0.1875,0.0625 0.12989,0.14183 0.27353,0.37353 0.40625,0.59375 -0.0718,-0.22177 -0.14483,-0.45124 -0.21875,-0.65625 z"
       id="path72870-8"
       style="fill:#ff0000;stroke:none;display:inline;enable-background:new" />
  </g>
</svg>
