<?xml version="1.0" encoding="UTF-8" standalone="no"?>
<!-- Created with Inkscape (http://www.inkscape.org/) -->

<svg
   xmlns:dc="http://purl.org/dc/elements/1.1/"
   xmlns:cc="http://creativecommons.org/ns#"
   xmlns:rdf="http://www.w3.org/1999/02/22-rdf-syntax-ns#"
   xmlns:svg="http://www.w3.org/2000/svg"
   xmlns="http://www.w3.org/2000/svg"
   xmlns:xlink="http://www.w3.org/1999/xlink"
   version="1.1"
   width="560"
   height="560"
   id="nails_short">
  <g
     transform="translate(0,-492.36218)"
     id="layer1">
    <g
       transform="translate(-245.5625,491.36218)"
       id="g49130"
       style="display:inline;enable-background:new">
      <g
         transform="translate(0,-2412.7841)"
         id="g49121"
         style="display:inline;enable-background:new">
        <path
           d="m 465.07116,2745.1099 c -0.47647,0.2641 -1.74869,0.6901 -2.16795,0.6793 0.032,0.4675 0.3931,1.509 0.70554,1.7729 0.44186,0.3732 1.45182,0.2676 1.77427,-0.3406 0.23231,-0.4382 -0.13693,-1.5539 -0.31186,-2.1116 z"
           id="path3847-4-5-8-7"
           style="fill:#ff0000;stroke:none" />
        <path
           d="m 452.29353,2755.146 c -0.38892,0.065 -1.35155,-0.021 -1.62778,-0.1895 -0.10561,0.445 -0.14785,1.5457 -0.0115,1.908 0.19287,0.5125 0.89395,0.796 1.27374,0.3545 0.27361,-0.3181 0.33064,-1.4907 0.36552,-2.073 z"
           id="path3847-4-5-8-3-5"
           style="fill:#ff0000;stroke:none" />
        <path
           d="m 454.80726,2755.6279 c -0.33525,0.2074 -1.25842,0.4934 -1.57781,0.4427 0.0712,0.4518 0.45005,1.4861 0.7138,1.7695 0.37298,0.4009 1.1292,0.397 1.31293,-0.1557 0.13236,-0.3981 -0.26006,-1.5045 -0.44891,-2.0565 z"
           id="path3847-4-5-8-3-7-3"
           style="fill:#ff0000;stroke:none" />
      </g>
      <g
         id="g49115">
        <path
           d="m 553.16253,287.15786 c 0.59517,0.29759 0.99196,1.28956 0.99196,1.28956 0.79358,-0.0992 1.78554,-0.49599 1.68635,-0.89278 -0.0992,-0.39678 -0.39679,-0.79356 -0.89277,-0.79356 -0.49599,0 -1.78554,0.39678 -1.78554,0.39678 z"
           id="path3847-7"
           style="fill:#ff0000;stroke:none" />
        <path
           d="m 556.11826,295.47109 c 0.46616,0.2819 1.17693,0.96008 1.37625,1.32909 0.38959,-0.26033 1.32413,-1.10888 1.18677,-1.49411 -0.15079,-0.4229 -0.78093,-1.01422 -1.08648,-0.91452 -0.47151,0.15385 -1.0799,0.65033 -1.47654,1.07954 z"
           id="path3847-4-6"
           style="fill:#ff0000;stroke:none" />
        <path
           d="m 566.11865,300.61568 c -0.53462,-0.10466 -1.43507,-0.49748 -1.749,-0.77559 -0.2765,0.3783 -0.86276,1.49619 -0.60145,1.81081 0.28686,0.34539 1.08175,0.68433 1.33448,0.48576 0.38999,-0.30643 0.79086,-0.98166 1.01597,-1.52098 z"
           id="path3847-4-5-0"
           style="fill:#ff0000;stroke:none" />
        <path
           d="m 570.42056,302.72332 c -0.44448,0.019 -1.23448,-0.12095 -1.53686,-0.28183 -0.1473,0.35318 -0.39932,1.35278 -0.13175,1.55269 0.29374,0.21946 0.98962,0.33678 1.15236,0.13086 0.25116,-0.3178 0.44051,-0.9305 0.51625,-1.40172 z"
           id="path3847-4-5-3-9"
           style="fill:#ff0000;stroke:none" />
      </g>
    </g>
  </g>
</svg>
