<?xml version="1.0" encoding="UTF-8" standalone="no"?>
<svg xmlns="http://www.w3.org/2000/svg" id="nails_short" width="560" height="560">
  <g id="layer1">
    <g id="g49130" style="display:inline;enable-background:new">
      <g id="g49121" style="display:inline;enable-background:new">
        <path id="path3847-4-5-8-7" d="M219.5 331.3c-.5.3-1.7.7-2.2.7 0 .5.4 1.5.7 1.8.5.4 1.5.2 1.8-.4.3-.4 0-1.5-.3-2z" style="fill:#ff0000;stroke:none"/>
        <path id="path3847-4-5-8-3-5" d="M206.7 341.4c-.4 0-1.3 0-1.6-.2v2c.3.4 1 .7 1.4.2.2-.3.3-1.5.3-2z" style="fill:#ff0000;stroke:none"/>
        <path id="path3847-4-5-8-3-7-3" d="M209.2 341.8c-.3.3-1.2.5-1.5.5 0 .4.4 1.5.7 1.8.4.5 1 .5 1.3 0 0-.5-.3-1.6-.5-2.2z" style="fill:#ff0000;stroke:none"/>
      </g>
      <g id="g49115">
        <path id="path3847-7" d="M307.6 286.2c.6.3 1 1.2 1 1.2.8 0 1.8-.4 1.7-.8 0-.4-.4-.8-1-.8l-1.7.4z" style="fill:#ff0000;stroke:none"/>
        <path id="path3847-4-6" d="M310.6 294.5l1.3 1.3c.3-.3 1.3-1 1-1.5 0-.4-.7-1-1-1-.4.2-1 .7-1.4 1.2z" style="fill:#ff0000;stroke:none"/>
        <path id="path3847-4-5-0" d="M320.6 299.6c-.6 0-1.5-.5-1.8-.8-.3.4-1 1.5-.6 2 .3.2 1 .5 1.3.3.4-.2.8-.8 1-1.4z" style="fill:#ff0000;stroke:none"/>
        <path id="path3847-4-5-3-9" d="M325 301.7c-.6 0-1.4 0-1.7-.3 0 .4-.4 1.4 0 1.6.2.2 1 .3 1 0 .3-.2.5-.8.6-1.3z" style="fill:#ff0000;stroke:none"/>
      </g>
    </g>
  </g>
</svg>
