<?xml version="1.0" encoding="UTF-8" standalone="no"?>
<!-- Created with Inkscape (http://www.inkscape.org/) -->

<svg
   xmlns:dc="http://purl.org/dc/elements/1.1/"
   xmlns:cc="http://creativecommons.org/ns#"
   xmlns:rdf="http://www.w3.org/1999/02/22-rdf-syntax-ns#"
   xmlns:svg="http://www.w3.org/2000/svg"
   xmlns="http://www.w3.org/2000/svg"
   version="1.1"
   width="560"
   height="560"
   id="necklace_princess">
  <g
     transform="matrix(-0.24245371,-0.01109244,-0.01109244,0.24245371,315.176,114.89031)"
     id="g4264"
     style="display:inline;enable-background:new">
    <path
       d="m 70.876024,265.209 c 10.930193,57.2397 135.476876,44.87131 124.834316,-14.38184 7.57769,2.27557 13.23349,7.7752 20.4222,9.20438 7.30792,37.71235 -26.91886,61.14334 -66.26783,66.67147 -45.63333,6.41102 -97.804835,-10.83499 -94.515078,-51.13909 7.940671,-2.30109 9.837464,-6.25821 15.526392,-10.35492 z"
       id="path2987-6-1"
       style="color:#000000;fill:#f2f2f2;stroke:#e6e6e6;stroke-width:0.5;stroke-linecap:butt;stroke-linejoin:miter;stroke-miterlimit:4;stroke-opacity:1;stroke-dasharray:none;stroke-dashoffset:0;marker:none;visibility:visible;display:inline;overflow:visible;enable-background:accumulate" />
    <path
       d="m 195.6928,250.83394 c 1.68033,9.35534 0.018,17.54038 -4.0625,24.46875 4.88934,-5.65862 6.78821,-6.97391 9.46875,0.0625 3.25424,8.54237 7.25842,-2.50947 9.75,-5.3125 3.25424,-3.66102 7.75742,2.73232 2.0625,18.3125 -4.23521,11.58671 -12.61388,3.67479 -21.15625,13.4375 -8.54238,9.76272 -17.8999,15.4375 -22.78125,15.4375 -4.88136,0 -19.54979,2.05879 -29.3125,4.90625 -9.76271,2.84745 -17.08369,-0.002 -24.8125,1.625 -3.25786,0.68586 -4.89117,1.72645 -6.1875,2.3125 13.20837,2.32799 27.47826,2.55101 41.1875,0.625 39.34897,-5.52813 73.58917,-28.9439 66.28125,-66.65625 -7.18871,-1.42917 -12.85981,-6.94318 -20.4375,-9.21875 z m -124.812496,14.375 c -5.688928,4.09671 -7.590579,8.07391 -15.53125,10.375 -0.135261,1.65714 -0.172946,3.26461 -0.125,4.84375 11.161582,-10.51082 17.693078,-10.20071 29.9375,15.6875 7.911116,16.72636 17.512176,9.75106 32.156246,8.9375 14.64407,-0.81356 29.66949,4.48093 43.5,-4.875 4.46125,-3.01791 8.04668,-5.28311 11.15625,-7.3125 -34.36346,17.92805 -93.702392,11.05111 -101.093746,-27.65625 z m -10.6875,32.9375 c 7.895571,13.751 24.394801,22.77966 43.812496,27.03125 -0.51646,-0.38016 -1.07737,-0.82331 -1.75,-1.40625 -6.101691,-5.28814 -17.492581,-10.59217 -23.187496,-11.8125 -5.694916,-1.22034 -6.524894,-6.90201 -11.40625,-10.15625 -1.583699,-1.0558 -4.441217,-2.27409 -7.46875,-3.65625 z"
       id="path2987-8-4"
       style="color:#000000;fill:#ececec;stroke:none;marker:none;visibility:visible;display:inline;overflow:visible;enable-background:accumulate" />
    <path
       d="m 218.42611,262.67784 a 1.4269245,1.4269245 0 1 1 -2.85384,0 1.4269245,1.4269245 0 1 1 2.85384,0 z"
       id="path127254-5-3-1-6-6-2-0-6-1-59-7"
       style="color:#000000;fill:#f2f2f2;stroke:#e6e6e6;stroke-width:0.50309688;stroke-linecap:round;stroke-linejoin:miter;stroke-miterlimit:4;stroke-opacity:1;stroke-dasharray:none;stroke-dashoffset:0;marker:none;visibility:visible;display:inline;overflow:visible;enable-background:new" />
    <path
       d="m 219.57291,266.75611 a 1.4269245,1.4269245 0 1 1 -2.85384,0 1.4269245,1.4269245 0 1 1 2.85384,0 z"
       id="path127254-5-3-1-6-6-2-0-6-1-59-3-48"
       style="color:#000000;fill:#f2f2f2;stroke:#e6e6e6;stroke-width:0.50309688;stroke-linecap:round;stroke-linejoin:miter;stroke-miterlimit:4;stroke-opacity:1;stroke-dasharray:none;stroke-dashoffset:0;marker:none;visibility:visible;display:inline;overflow:visible;enable-background:new" />
    <path
       d="m 221.05224,271.13023 a 1.6714538,1.6714538 0 1 1 -3.3429,0 1.6714538,1.6714538 0 1 1 3.3429,0 z"
       id="path127254-5-3-1-6-6-2-0-6-1-59-1-4"
       style="color:#000000;fill:#f2f2f2;stroke:#e6e6e6;stroke-width:0.5893116;stroke-linecap:round;stroke-linejoin:miter;stroke-miterlimit:4;stroke-opacity:1;stroke-dasharray:none;stroke-dashoffset:0;marker:none;visibility:visible;display:inline;overflow:visible;enable-background:new" />
    <path
       d="m 221.19751,276.00772 a 1.7324755,1.7324755 0 1 1 -3.46494,0 1.7324755,1.7324755 0 1 1 3.46494,0 z"
       id="path127254-5-3-1-6-6-2-0-6-1-59-8-6"
       style="color:#000000;fill:#f2f2f2;stroke:#e6e6e6;stroke-width:0.61082625;stroke-linecap:round;stroke-linejoin:miter;stroke-miterlimit:4;stroke-opacity:1;stroke-dasharray:none;stroke-dashoffset:0;marker:none;visibility:visible;display:inline;overflow:visible;enable-background:new" />
    <path
       d="m 220.68556,280.76605 a 1.9149411,1.9149411 0 1 1 -3.82988,0 1.9149411,1.9149411 0 1 1 3.82988,0 z"
       id="path127254-5-3-1-6-6-2-0-6-1-59-0-64"
       style="color:#000000;fill:#f2f2f2;stroke:#e6e6e6;stroke-width:0.67515898;stroke-linecap:round;stroke-linejoin:miter;stroke-miterlimit:4;stroke-opacity:1;stroke-dasharray:none;stroke-dashoffset:0;marker:none;visibility:visible;display:inline;overflow:visible;enable-background:new" />
    <path
       d="m 219.51034,285.69077 a 1.9149411,1.9149411 0 1 1 -3.82988,0 1.9149411,1.9149411 0 1 1 3.82988,0 z"
       id="path127254-5-3-1-6-6-2-0-6-1-59-6-90"
       style="color:#000000;fill:#f2f2f2;stroke:#e6e6e6;stroke-width:0.67515898;stroke-linecap:round;stroke-linejoin:miter;stroke-miterlimit:4;stroke-opacity:1;stroke-dasharray:none;stroke-dashoffset:0;marker:none;visibility:visible;display:inline;overflow:visible;enable-background:new" />
    <path
       d="m 217.80919,289.94575 a 1.9149411,1.9149411 0 1 1 -3.82988,0 1.9149411,1.9149411 0 1 1 3.82988,0 z"
       id="path127254-5-3-1-6-6-2-0-6-1-59-6-8-40"
       style="color:#000000;fill:#f2f2f2;stroke:#e6e6e6;stroke-width:0.67515898;stroke-linecap:round;stroke-linejoin:miter;stroke-miterlimit:4;stroke-opacity:1;stroke-dasharray:none;stroke-dashoffset:0;marker:none;visibility:visible;display:inline;overflow:visible;enable-background:new" />
    <path
       d="m 215.94397,293.91328 a 2.08785,2.08785 0 0 1 -4.1757,0 2.08785,2.08785 0 1 1 4.1757,0 z"
       id="path127254-5-3-1-6-6-2-0-6-1-59-6-3-21"
       style="color:#000000;fill:#f2f2f2;stroke:#e6e6e6;stroke-width:0.73612201;stroke-linecap:round;stroke-linejoin:miter;stroke-miterlimit:4;stroke-opacity:1;stroke-dasharray:none;stroke-dashoffset:0;marker:none;visibility:visible;display:inline;overflow:visible;enable-background:new" />
    <path
       d="m 213.61763,297.65237 a 2.2310917,2.2310917 0 1 1 -4.46218,0 2.2310917,2.2310917 0 1 1 4.46218,0 z"
       id="path127254-5-3-1-6-6-2-0-6-1-59-6-9-5"
       style="color:#000000;fill:#f2f2f2;stroke:#e6e6e6;stroke-width:0.78662544;stroke-linecap:round;stroke-linejoin:miter;stroke-miterlimit:4;stroke-opacity:1;stroke-dasharray:none;stroke-dashoffset:0;marker:none;visibility:visible;display:inline;overflow:visible;enable-background:new" />
    <path
       d="m 210.90154,301.8231 a 2.4756217,2.4756217 0 1 1 -4.95124,0 2.4756217,2.4756217 0 1 1 4.95124,0 z"
       id="path127254-5-3-1-6-6-2-0-6-1-59-6-4-0"
       style="color:#000000;fill:#f2f2f2;stroke:#e6e6e6;stroke-width:0.87284017;stroke-linecap:round;stroke-linejoin:miter;stroke-miterlimit:4;stroke-opacity:1;stroke-dasharray:none;stroke-dashoffset:0;marker:none;visibility:visible;display:inline;overflow:visible;enable-background:new" />
    <path
       d="m 207.56324,305.19049 a 2.64853,2.64853 0 0 1 -5.29706,0 2.64853,2.64853 0 1 1 5.29706,0 z"
       id="path127254-5-3-1-6-6-2-0-6-1-59-6-4-4-6"
       style="color:#000000;fill:#f2f2f2;stroke:#e6e6e6;stroke-width:0.9338032;stroke-linecap:round;stroke-linejoin:miter;stroke-miterlimit:4;stroke-opacity:1;stroke-dasharray:none;stroke-dashoffset:0;marker:none;visibility:visible;display:inline;overflow:visible;enable-background:new" />
    <path
       d="m 202.81724,308.78595 a 2.64853,2.64853 0 0 1 -5.29706,0 2.64853,2.64853 0 1 1 5.29706,0 z"
       id="path127254-5-3-1-6-6-2-0-6-1-59-6-4-4-0-4"
       style="color:#000000;fill:#f2f2f2;stroke:#e6e6e6;stroke-width:0.9338032;stroke-linecap:round;stroke-linejoin:miter;stroke-miterlimit:4;stroke-opacity:1;stroke-dasharray:none;stroke-dashoffset:0;marker:none;visibility:visible;display:inline;overflow:visible;enable-background:new" />
    <path
       d="m 197.78359,312.09377 a 2.64853,2.64853 0 0 1 -5.29706,0 2.64853,2.64853 0 1 1 5.29706,0 z"
       id="path127254-5-3-1-6-6-2-0-6-1-59-6-4-4-4-2"
       style="color:#000000;fill:#f2f2f2;stroke:#e6e6e6;stroke-width:0.9338032;stroke-linecap:round;stroke-linejoin:miter;stroke-miterlimit:4;stroke-opacity:1;stroke-dasharray:none;stroke-dashoffset:0;marker:none;visibility:visible;display:inline;overflow:visible;enable-background:new" />
    <path
       d="m 192.03086,315.97687 a 2.64853,2.64853 0 0 1 -5.29706,0 2.64853,2.64853 0 1 1 5.29706,0 z"
       id="path127254-5-3-1-6-6-2-0-6-1-59-6-4-4-3-5"
       style="color:#000000;fill:#f2f2f2;stroke:#e6e6e6;stroke-width:0.9338032;stroke-linecap:round;stroke-linejoin:miter;stroke-miterlimit:4;stroke-opacity:1;stroke-dasharray:none;stroke-dashoffset:0;marker:none;visibility:visible;display:inline;overflow:visible;enable-background:new" />
    <path
       d="m 185.84667,319.57233 a 2.64853,2.64853 0 0 1 -5.29706,0 2.64853,2.64853 0 1 1 5.29706,0 z"
       id="path127254-5-3-1-6-6-2-0-6-1-59-6-4-4-9-6"
       style="color:#000000;fill:#f2f2f2;stroke:#e6e6e6;stroke-width:0.9338032;stroke-linecap:round;stroke-linejoin:miter;stroke-miterlimit:4;stroke-opacity:1;stroke-dasharray:none;stroke-dashoffset:0;marker:none;visibility:visible;display:inline;overflow:visible;enable-background:new" />
    <path
       d="m 179.66248,322.01724 a 2.64853,2.64853 0 0 1 -5.29706,0 2.64853,2.64853 0 1 1 5.29706,0 z"
       id="path127254-5-3-1-6-6-2-0-6-1-59-6-4-4-7-1"
       style="color:#000000;fill:#f2f2f2;stroke:#e6e6e6;stroke-width:0.9338032;stroke-linecap:round;stroke-linejoin:miter;stroke-miterlimit:4;stroke-opacity:1;stroke-dasharray:none;stroke-dashoffset:0;marker:none;visibility:visible;display:inline;overflow:visible;enable-background:new" />
    <path
       d="m 172.04011,324.89361 a 2.64853,2.64853 0 0 1 -5.29706,0 2.64853,2.64853 0 1 1 5.29706,0 z"
       id="path127254-5-3-1-6-6-2-0-6-1-59-6-4-4-5-1"
       style="color:#000000;fill:#f2f2f2;stroke:#e6e6e6;stroke-width:0.9338032;stroke-linecap:round;stroke-linejoin:miter;stroke-miterlimit:4;stroke-opacity:1;stroke-dasharray:none;stroke-dashoffset:0;marker:none;visibility:visible;display:inline;overflow:visible;enable-background:new" />
    <path
       d="m 165.28065,327.33852 a 2.64853,2.64853 0 0 1 -5.29706,0 2.64853,2.64853 0 1 1 5.29706,0 z"
       id="path127254-5-3-1-6-6-2-0-6-1-59-6-4-4-1-7"
       style="color:#000000;fill:#f2f2f2;stroke:#e6e6e6;stroke-width:0.9338032;stroke-linecap:round;stroke-linejoin:miter;stroke-miterlimit:4;stroke-opacity:1;stroke-dasharray:none;stroke-dashoffset:0;marker:none;visibility:visible;display:inline;overflow:visible;enable-background:new" />
    <path
       d="m 158.95265,328.48906 a 2.64853,2.64853 0 0 1 -5.29706,0 2.64853,2.64853 0 1 1 5.29706,0 z"
       id="path127254-5-3-1-6-6-2-0-6-1-59-6-4-4-8-4"
       style="color:#000000;fill:#f2f2f2;stroke:#e6e6e6;stroke-width:0.9338032;stroke-linecap:round;stroke-linejoin:miter;stroke-miterlimit:4;stroke-opacity:1;stroke-dasharray:none;stroke-dashoffset:0;marker:none;visibility:visible;display:inline;overflow:visible;enable-background:new" />
    <path
       d="m 152.04937,330.3587 a 2.64853,2.64853 0 0 1 -5.29706,0 2.64853,2.64853 0 1 1 5.29706,0 z"
       id="path127254-5-3-1-6-6-2-0-6-1-59-6-4-4-50-7"
       style="color:#000000;fill:#f2f2f2;stroke:#e6e6e6;stroke-width:0.9338032;stroke-linecap:round;stroke-linejoin:miter;stroke-miterlimit:4;stroke-opacity:1;stroke-dasharray:none;stroke-dashoffset:0;marker:none;visibility:visible;display:inline;overflow:visible;enable-background:new" />
    <path
       d="m 143.56408,331.22161 a 2.64853,2.64853 0 0 1 -5.29706,0 2.64853,2.64853 0 1 1 5.29706,0 z"
       id="path127254-5-3-1-6-6-2-0-6-1-59-6-4-4-87-3"
       style="color:#000000;fill:#f2f2f2;stroke:#e6e6e6;stroke-width:0.9338032;stroke-linecap:round;stroke-linejoin:miter;stroke-miterlimit:4;stroke-opacity:1;stroke-dasharray:none;stroke-dashoffset:0;marker:none;visibility:visible;display:inline;overflow:visible;enable-background:new" />
    <path
       d="m 137.3799,331.36543 a 2.64853,2.64853 0 0 1 -5.29706,0 2.64853,2.64853 0 1 1 5.29706,0 z"
       id="path127254-5-3-1-6-6-2-0-6-1-59-6-4-4-2-1"
       style="color:#000000;fill:#f2f2f2;stroke:#e6e6e6;stroke-width:0.9338032;stroke-linecap:round;stroke-linejoin:miter;stroke-miterlimit:4;stroke-opacity:1;stroke-dasharray:none;stroke-dashoffset:0;marker:none;visibility:visible;display:inline;overflow:visible;enable-background:new" />
    <path
       d="m 129.61371,331.65307 a 2.64853,2.64853 0 0 1 -5.29706,0 2.64853,2.64853 0 1 1 5.29706,0 z"
       id="path127254-5-3-1-6-6-2-0-6-1-59-6-4-4-47-5"
       style="color:#000000;fill:#f2f2f2;stroke:#e6e6e6;stroke-width:0.9338032;stroke-linecap:round;stroke-linejoin:miter;stroke-miterlimit:4;stroke-opacity:1;stroke-dasharray:none;stroke-dashoffset:0;marker:none;visibility:visible;display:inline;overflow:visible;enable-background:new" />
    <path
       d="m 121.99134,331.22161 a 2.64853,2.64853 0 0 1 -5.29706,0 2.64853,2.64853 0 1 1 5.29706,0 z"
       id="path127254-5-3-1-6-6-2-0-6-1-59-6-4-4-12-2"
       style="color:#000000;fill:#f2f2f2;stroke:#e6e6e6;stroke-width:0.9338032;stroke-linecap:round;stroke-linejoin:miter;stroke-miterlimit:4;stroke-opacity:1;stroke-dasharray:none;stroke-dashoffset:0;marker:none;visibility:visible;display:inline;overflow:visible;enable-background:new" />
    <path
       d="m 53.283857,276.58146 a 1.4269245,1.4269245 0 1 0 2.85384,0 1.4269245,1.4269245 0 1 0 -2.85384,0 z"
       id="path127254-5-3-1-6-6-2-0-6-1-59-11-0"
       style="color:#000000;fill:#f2f2f2;stroke:#e6e6e6;stroke-width:0.50309688;stroke-linecap:round;stroke-linejoin:miter;stroke-miterlimit:4;stroke-opacity:1;stroke-dasharray:none;stroke-dashoffset:0;marker:none;visibility:visible;display:inline;overflow:visible;enable-background:new" />
    <path
       d="m 51.730278,280.45634 a 1.4269245,1.4269245 0 1 0 2.85384,0 1.4269245,1.4269245 0 1 0 -2.85384,0 z"
       id="path127254-5-3-1-6-6-2-0-6-1-59-3-4-3"
       style="color:#000000;fill:#f2f2f2;stroke:#e6e6e6;stroke-width:0.50309688;stroke-linecap:round;stroke-linejoin:miter;stroke-miterlimit:4;stroke-opacity:1;stroke-dasharray:none;stroke-dashoffset:0;marker:none;visibility:visible;display:inline;overflow:visible;enable-background:new" />
    <path
       d="m 51.440859,284.22029 a 1.4988584,1.4988584 0 1 0 2.99771,0 1.4988584,1.4988584 0 1 0 -2.99771,0 z"
       id="path127254-5-3-1-6-6-2-0-6-1-59-1-6-9"
       style="color:#000000;fill:#f2f2f2;stroke:#e6e6e6;stroke-width:0.52845889;stroke-linecap:round;stroke-linejoin:miter;stroke-miterlimit:4;stroke-opacity:1;stroke-dasharray:none;stroke-dashoffset:0;marker:none;visibility:visible;display:inline;overflow:visible;enable-background:new" />
    <path
       d="m 51.702281,288.48697 a 1.5593824,1.5593824 0 1 0 3.118756,0 1.5593824,1.5593824 0 1 0 -3.118756,0 z"
       id="path127254-5-3-1-6-6-2-0-6-1-59-8-7-4"
       style="color:#000000;fill:#f2f2f2;stroke:#e6e6e6;stroke-width:0.54979807;stroke-linecap:round;stroke-linejoin:miter;stroke-miterlimit:4;stroke-opacity:1;stroke-dasharray:none;stroke-dashoffset:0;marker:none;visibility:visible;display:inline;overflow:visible;enable-background:new" />
    <path
       d="m 52.435557,293.07067 a 1.6555786,1.6555786 0 1 0 3.311155,0 1.6555786,1.6555786 0 1 0 -3.311155,0 z"
       id="path127254-5-3-1-6-6-2-0-6-1-59-6-3-2-4"
       style="color:#000000;fill:#f2f2f2;stroke:#e6e6e6;stroke-width:0.58371443;stroke-linecap:round;stroke-linejoin:miter;stroke-miterlimit:4;stroke-opacity:1;stroke-dasharray:none;stroke-dashoffset:0;marker:none;visibility:visible;display:inline;overflow:visible;enable-background:new" />
    <path
       d="m 54.761895,297.62379 a 1.7988209,1.7988209 0 0 0 3.597641,0 1.7988209,1.7988209 0 1 0 -3.597641,0 z"
       id="path127254-5-3-1-6-6-2-0-6-1-59-6-9-3-5"
       style="color:#000000;fill:#f2f2f2;stroke:#e6e6e6;stroke-width:0.63421792;stroke-linecap:round;stroke-linejoin:miter;stroke-miterlimit:4;stroke-opacity:1;stroke-dasharray:none;stroke-dashoffset:0;marker:none;visibility:visible;display:inline;overflow:visible;enable-background:new" />
    <path
       d="m 57.055965,302.0996 a 1.9568967,1.9568967 0 0 0 3.913793,0 1.9568967,1.9568967 0 1 0 -3.913793,0 z"
       id="path127254-5-3-1-6-6-2-0-6-1-59-6-4-3-2"
       style="color:#000000;fill:#f2f2f2;stroke:#e6e6e6;stroke-width:0.68995118;stroke-linecap:round;stroke-linejoin:miter;stroke-miterlimit:4;stroke-opacity:1;stroke-dasharray:none;stroke-dashoffset:0;marker:none;visibility:visible;display:inline;overflow:visible;enable-background:new" />
    <path
       d="m 60.582414,306.5848 a 2.0433509,2.0433509 0 0 0 4.086698,0 2.0433509,2.0433509 0 1 0 -4.086698,0 z"
       id="path127254-5-3-1-6-6-2-0-6-1-59-6-4-4-97-0"
       style="color:#000000;fill:#f2f2f2;stroke:#e6e6e6;stroke-width:0.7204327;stroke-linecap:round;stroke-linejoin:miter;stroke-miterlimit:4;stroke-opacity:1;stroke-dasharray:none;stroke-dashoffset:0;marker:none;visibility:visible;display:inline;overflow:visible;enable-background:new" />
    <path
       d="m 64.296219,310.48618 a 1.9568972,1.9568972 0 0 0 3.913794,0 1.9568972,1.9568972 0 1 0 -3.913794,0 z"
       id="path127254-5-3-1-6-6-2-0-6-1-59-6-4-4-0-6-9"
       style="color:#000000;fill:#f2f2f2;stroke:#e6e6e6;stroke-width:0.68995124;stroke-linecap:round;stroke-linejoin:miter;stroke-miterlimit:4;stroke-opacity:1;stroke-dasharray:none;stroke-dashoffset:0;marker:none;visibility:visible;display:inline;overflow:visible;enable-background:new" />
    <path
       d="m 68.343402,314.20078 a 2.129805,2.129805 0 0 0 4.25961,0 2.129805,2.129805 0 1 0 -4.25961,0 z"
       id="path127254-5-3-1-6-6-2-0-6-1-59-6-4-4-4-5-4"
       style="color:#000000;fill:#f2f2f2;stroke:#e6e6e6;stroke-width:0.75091422;stroke-linecap:round;stroke-linejoin:miter;stroke-miterlimit:4;stroke-opacity:1;stroke-dasharray:none;stroke-dashoffset:0;marker:none;visibility:visible;display:inline;overflow:visible;enable-background:new" />
    <path
       d="m 73.079183,317.6771 a 2.129805,2.129805 0 0 0 4.25961,0 2.129805,2.129805 0 1 0 -4.25961,0 z"
       id="path127254-5-3-1-6-6-2-0-6-1-59-6-4-4-3-0-2"
       style="color:#000000;fill:#f2f2f2;stroke:#e6e6e6;stroke-width:0.75091422;stroke-linecap:round;stroke-linejoin:miter;stroke-miterlimit:4;stroke-opacity:1;stroke-dasharray:none;stroke-dashoffset:0;marker:none;visibility:visible;display:inline;overflow:visible;enable-background:new" />
    <path
       d="m 77.870125,320.25561 a 2.302714,2.302714 0 0 0 4.605428,0 2.302714,2.302714 0 1 0 -4.605428,0 z"
       id="path127254-5-3-1-6-6-2-0-6-1-59-6-4-4-9-7-5"
       style="color:#000000;fill:#f2f2f2;stroke:#e6e6e6;stroke-width:0.81187713;stroke-linecap:round;stroke-linejoin:miter;stroke-miterlimit:4;stroke-opacity:1;stroke-dasharray:none;stroke-dashoffset:0;marker:none;visibility:visible;display:inline;overflow:visible;enable-background:new" />
    <path
       d="m 83.240756,323.10731 a 2.3027137,2.3027137 0 0 0 4.605427,0 2.3027137,2.3027137 0 1 0 -4.605427,0 z"
       id="path127254-5-3-1-6-6-2-0-6-1-59-6-4-4-7-2-6"
       style="color:#000000;fill:#f2f2f2;stroke:#e6e6e6;stroke-width:0.81187719;stroke-linecap:round;stroke-linejoin:miter;stroke-miterlimit:4;stroke-opacity:1;stroke-dasharray:none;stroke-dashoffset:0;marker:none;visibility:visible;display:inline;overflow:visible;enable-background:new" />
    <path
       d="m 89.266489,325.17011 a 2.475622,2.475622 0 0 0 4.951244,0 2.475622,2.475622 0 1 0 -4.951244,0 z"
       id="path127254-5-3-1-6-6-2-0-6-1-59-6-4-4-5-7-6"
       style="color:#000000;fill:#f2f2f2;stroke:#e6e6e6;stroke-width:0.87284017;stroke-linecap:round;stroke-linejoin:miter;stroke-miterlimit:4;stroke-opacity:1;stroke-dasharray:none;stroke-dashoffset:0;marker:none;visibility:visible;display:inline;overflow:visible;enable-background:new" />
    <path
       d="m 95.853041,327.20824 a 2.6485345,2.6485345 0 0 0 5.297069,0 2.6485345,2.6485345 0 1 0 -5.297069,0 z"
       id="path127254-5-3-1-6-6-2-0-6-1-59-6-4-4-1-0-6"
       style="color:#000000;fill:#f2f2f2;stroke:#e6e6e6;stroke-width:0.9338032;stroke-linecap:round;stroke-linejoin:miter;stroke-miterlimit:4;stroke-opacity:1;stroke-dasharray:none;stroke-dashoffset:0;marker:none;visibility:visible;display:inline;overflow:visible;enable-background:new" />
    <path
       d="m 102.18105,328.35878 a 2.6485305,2.6485305 0 0 0 5.29706,0 2.6485305,2.6485305 0 1 0 -5.29706,0 z"
       id="path127254-5-3-1-6-6-2-0-6-1-59-6-4-4-8-1-4"
       style="color:#000000;fill:#f2f2f2;stroke:#e6e6e6;stroke-width:0.9338032;stroke-linecap:round;stroke-linejoin:miter;stroke-miterlimit:4;stroke-opacity:1;stroke-dasharray:none;stroke-dashoffset:0;marker:none;visibility:visible;display:inline;overflow:visible;enable-background:new" />
    <path
       d="m 109.08433,330.22842 a 2.64853,2.64853 0 0 0 5.29706,0 2.64853,2.64853 0 1 0 -5.29706,0 z"
       id="path127254-5-3-1-6-6-2-0-6-1-59-6-4-4-50-2-9"
       style="color:#000000;fill:#f2f2f2;stroke:#e6e6e6;stroke-width:0.9338032;stroke-linecap:round;stroke-linejoin:miter;stroke-miterlimit:4;stroke-opacity:1;stroke-dasharray:none;stroke-dashoffset:0;marker:none;visibility:visible;display:inline;overflow:visible;enable-background:new" />
    <path
       d="m 90.459867,292.42671 c 0,14.84746 -6.305084,17.08475 -12.610169,23.38983"
       id="path3705-5"
       style="color:#000000;fill:none;stroke:#e6e6e6;stroke-width:0.5;stroke-linecap:butt;stroke-linejoin:miter;stroke-miterlimit:4;stroke-opacity:1;stroke-dasharray:none;stroke-dashoffset:0;marker:none;visibility:visible;display:inline;overflow:visible;enable-background:accumulate" />
    <path
       d="m 99.205629,297.00298 c 0,13.62712 -5.491525,16.88136 -9.966101,23.38983"
       id="path3705-0-8"
       style="color:#000000;fill:none;stroke:#e6e6e6;stroke-width:0.5;stroke-linecap:butt;stroke-linejoin:miter;stroke-miterlimit:4;stroke-opacity:1;stroke-dasharray:none;stroke-dashoffset:0;marker:none;visibility:visible;display:inline;overflow:visible;enable-background:accumulate" />
    <path
       d="m 109.17173,299.85044 c 0,13.62712 -3.25424,18.71187 -7.72881,25.22034"
       id="path3705-0-1-12"
       style="color:#000000;fill:none;stroke:#e6e6e6;stroke-width:0.5;stroke-linecap:butt;stroke-linejoin:miter;stroke-miterlimit:4;stroke-opacity:1;stroke-dasharray:none;stroke-dashoffset:0;marker:none;visibility:visible;display:inline;overflow:visible;enable-background:accumulate" />
    <path
       d="m 119.34122,301.57925 c 0,13.62712 -0.61016,19.11865 -3.25423,25.42373"
       id="path3705-0-1-1-42"
       style="color:#000000;fill:none;stroke:#e6e6e6;stroke-width:0.5;stroke-linecap:butt;stroke-linejoin:miter;stroke-miterlimit:4;stroke-opacity:1;stroke-dasharray:none;stroke-dashoffset:0;marker:none;visibility:visible;display:inline;overflow:visible;enable-background:accumulate" />
    <path
       d="m 130.93444,301.98603 c 0.40417,7.99349 1.11596,18.75566 0.2034,25.83051"
       id="path3705-0-1-1-4-4"
       style="color:#000000;fill:none;stroke:#e6e6e6;stroke-width:0.5;stroke-linecap:butt;stroke-linejoin:miter;stroke-miterlimit:4;stroke-opacity:1;stroke-dasharray:none;stroke-dashoffset:0;marker:none;visibility:visible;display:inline;overflow:visible;enable-background:accumulate" />
    <path
       d="m 141.9175,301.57925 c 0.89349,9.48667 2.71047,17.9531 3.25423,25.42373"
       id="path3705-0-1-1-5-8"
       style="color:#000000;fill:none;stroke:#e6e6e6;stroke-width:0.5;stroke-linecap:butt;stroke-linejoin:miter;stroke-miterlimit:4;stroke-opacity:1;stroke-dasharray:none;stroke-dashoffset:0;marker:none;visibility:visible;display:inline;overflow:visible;enable-background:accumulate" />
    <path
       d="m 152.90055,300.05383 c 1.22034,15.25424 4.47457,18.50848 7.11864,24.81356"
       id="path3705-0-1-1-8-57"
       style="color:#000000;fill:none;stroke:#e6e6e6;stroke-width:0.5;stroke-linecap:butt;stroke-linejoin:miter;stroke-miterlimit:4;stroke-opacity:1;stroke-dasharray:none;stroke-dashoffset:0;marker:none;visibility:visible;display:inline;overflow:visible;enable-background:accumulate" />
    <path
       d="m 162.45987,297.20637 c 1.62712,8.94916 7.72881,18.1017 11.18644,23.79661"
       id="path3705-0-1-1-8-5-2"
       style="color:#000000;fill:none;stroke:#e6e6e6;stroke-width:0.5;stroke-linecap:butt;stroke-linejoin:miter;stroke-miterlimit:4;stroke-opacity:1;stroke-dasharray:none;stroke-dashoffset:0;marker:none;visibility:visible;display:inline;overflow:visible;enable-background:accumulate" />
    <path
       d="m 172.12089,292.93519 c 2.84746,9.76272 9.76271,17.69492 14.0339,21.9661"
       id="path3705-0-1-1-8-5-7-01"
       style="color:#000000;fill:none;stroke:#e6e6e6;stroke-width:0.5;stroke-linecap:butt;stroke-linejoin:miter;stroke-miterlimit:4;stroke-opacity:1;stroke-dasharray:none;stroke-dashoffset:0;marker:none;visibility:visible;display:inline;overflow:visible;enable-background:accumulate" />
    <path
       d="m 180.66326,287.54536 c 2.84746,9.76272 13.42373,18.30509 17.28814,20.13559"
       id="path3705-0-1-1-8-5-7-0-4"
       style="color:#000000;fill:none;stroke:#e6e6e6;stroke-width:0.5;stroke-linecap:butt;stroke-linejoin:miter;stroke-miterlimit:4;stroke-opacity:1;stroke-dasharray:none;stroke-dashoffset:0;marker:none;visibility:visible;display:inline;overflow:visible;enable-background:accumulate" />
    <path
       d="m 188.03376,280.5703 c 5.86385,9.83873 12.86585,14.59635 18.64316,18.35637"
       id="path3705-0-1-1-8-9-6"
       style="color:#000000;fill:none;stroke:#e6e6e6;stroke-width:0.5;stroke-linecap:butt;stroke-linejoin:miter;stroke-miterlimit:4;stroke-opacity:1;stroke-dasharray:none;stroke-dashoffset:0;marker:none;visibility:visible;display:inline;overflow:visible;enable-background:accumulate" />
    <path
       d="m 194.01374,271.07833 c 5.04327,6.4176 15.04048,13.30109 19.43478,16.47872"
       id="path3705-0-1-1-8-5-3-2"
       style="color:#000000;fill:none;stroke:#e6e6e6;stroke-width:0.5;stroke-linecap:butt;stroke-linejoin:miter;stroke-miterlimit:4;stroke-opacity:1;stroke-dasharray:none;stroke-dashoffset:0;marker:none;visibility:visible;display:inline;overflow:visible;enable-background:accumulate" />
    <path
       d="m 195.6296,265.02217 c 6.37186,5.03434 16.45658,9.18511 20.99704,10.3275"
       id="path3705-0-1-1-8-5-7-3-0"
       style="color:#000000;fill:none;stroke:#e6e6e6;stroke-width:0.5;stroke-linecap:butt;stroke-linejoin:miter;stroke-miterlimit:4;stroke-opacity:1;stroke-dasharray:none;stroke-dashoffset:0;marker:none;visibility:visible;display:inline;overflow:visible;enable-background:accumulate" />
    <path
       d="m 196.50822,256.61933 c 8.58757,6.55618 17.44602,8.42928 20.05066,9.03595"
       id="path3705-0-1-1-8-5-7-0-3-0"
       style="color:#000000;fill:none;stroke:#e6e6e6;stroke-width:0.5;stroke-linecap:butt;stroke-linejoin:miter;stroke-miterlimit:4;stroke-opacity:1;stroke-dasharray:none;stroke-dashoffset:0;marker:none;visibility:visible;display:inline;overflow:visible;enable-background:accumulate" />
    <path
       d="m 84.561562,287.74874 c -3.275402,11.27434 -11.032554,15.7985 -15.864406,20.54237"
       id="path3705-7-7"
       style="color:#000000;fill:none;stroke:#e6e6e6;stroke-width:0.5;stroke-linecap:butt;stroke-linejoin:miter;stroke-miterlimit:4;stroke-opacity:1;stroke-dasharray:none;stroke-dashoffset:0;marker:none;visibility:visible;display:inline;overflow:visible;enable-background:accumulate" />
    <path
       d="m 78.866647,282.56231 c -2.868623,10.86756 -11.642724,15.39172 -16.271186,19.11864"
       id="path3705-7-8-4"
       style="color:#000000;fill:none;stroke:#e6e6e6;stroke-width:0.5;stroke-linecap:butt;stroke-linejoin:miter;stroke-miterlimit:4;stroke-opacity:1;stroke-dasharray:none;stroke-dashoffset:0;marker:none;visibility:visible;display:inline;overflow:visible;enable-background:accumulate" />
    <path
       d="m 75.612409,277.37587 c -4.699131,9.24044 -12.863063,13.15443 -17.898305,16.06779"
       id="path3705-7-8-9-2"
       style="color:#000000;fill:none;stroke:#e6e6e6;stroke-width:0.5;stroke-linecap:butt;stroke-linejoin:miter;stroke-miterlimit:4;stroke-opacity:1;stroke-dasharray:none;stroke-dashoffset:0;marker:none;visibility:visible;display:inline;overflow:visible;enable-background:accumulate" />
    <path
       d="m 72.358172,271.17248 c -2.665233,3.74891 -10.015605,9.08663 -16.677966,12.40677"
       id="path3705-7-8-9-6-6"
       style="color:#000000;fill:none;stroke:#e6e6e6;stroke-width:0.5;stroke-linecap:butt;stroke-linejoin:miter;stroke-miterlimit:4;stroke-opacity:1;stroke-dasharray:none;stroke-dashoffset:0;marker:none;visibility:visible;display:inline;overflow:visible;enable-background:accumulate" />
  </g>
</svg>
