<?xml version="1.0" encoding="UTF-8" standalone="no"?>
<!-- Created with Inkscape (http://www.inkscape.org/) -->

<svg
   xmlns:dc="http://purl.org/dc/elements/1.1/"
   xmlns:cc="http://creativecommons.org/ns#"
   xmlns:rdf="http://www.w3.org/1999/02/22-rdf-syntax-ns#"
   xmlns:svg="http://www.w3.org/2000/svg"
   xmlns="http://www.w3.org/2000/svg"
   version="1.1"
   width="560"
   height="560"
   id="necklace_perl">
  <g
     transform="translate(-3.6716039e-6,-1.0000048)"
     id="g127618"
     style="display:inline;enable-background:new">
    <path
       d="m 294.63933,178.80473 c 6.68685,10.03028 -9.08994,17.03057 -20.06055,15.35886 -10.97062,-1.67171 -17.13506,-12.11991 -7.94064,-21.62778"
       id="path127252"
       style="color:#000000;fill:none;stroke:#000000;stroke-width:0.5;stroke-linecap:butt;stroke-linejoin:miter;stroke-miterlimit:4;stroke-opacity:1;stroke-dasharray:none;stroke-dashoffset:0;marker:none;visibility:visible;display:inline;overflow:visible;enable-background:accumulate" />
    <path
       d="m 276.04152,194.26807 a 1.3582664,1.3582664 0 1 1 -2.71653,0 1.3582664,1.3582664 0 1 1 2.71653,0 z"
       transform="matrix(0.7401375,0,0,0.7401375,62.916835,28.646242)"
       id="path127254"
       style="color:#000000;fill:#f2f2f2;stroke:#e6e6e6;stroke-width:0.5;stroke-linecap:round;stroke-linejoin:miter;stroke-miterlimit:4;stroke-opacity:1;stroke-dasharray:none;stroke-dashoffset:0;marker:none;visibility:visible;display:inline;overflow:visible;enable-background:new" />
    <path
       d="m 276.04152,194.26807 a 1.3582664,1.3582664 0 1 1 -2.71653,0 1.3582664,1.3582664 0 1 1 2.71653,0 z"
       transform="matrix(0.7401375,0,0,0.7401375,62.028741,30.004503)"
       id="path127254-5"
       style="color:#000000;fill:#f2f2f2;stroke:#e6e6e6;stroke-width:0.5;stroke-linecap:round;stroke-linejoin:miter;stroke-miterlimit:4;stroke-opacity:1;stroke-dasharray:none;stroke-dashoffset:0;marker:none;visibility:visible;display:inline;overflow:visible;enable-background:new" />
    <path
       d="m 276.04152,194.26807 a 1.3582664,1.3582664 0 1 1 -2.71653,0 1.3582664,1.3582664 0 1 1 2.71653,0 z"
       transform="matrix(0.7401375,0,0,0.7401375,61.19288,31.467262)"
       id="path127254-5-0"
       style="color:#000000;fill:#f2f2f2;stroke:#e6e6e6;stroke-width:0.5;stroke-linecap:round;stroke-linejoin:miter;stroke-miterlimit:4;stroke-opacity:1;stroke-dasharray:none;stroke-dashoffset:0;marker:none;visibility:visible;display:inline;overflow:visible;enable-background:new" />
    <path
       d="m 276.04152,194.26807 a 1.3582664,1.3582664 0 1 1 -2.71653,0 1.3582664,1.3582664 0 1 1 2.71653,0 z"
       transform="matrix(0.7401375,0,0,0.7401375,60.043578,32.982252)"
       id="path127254-5-06"
       style="color:#000000;fill:#f2f2f2;stroke:#e6e6e6;stroke-width:0.5;stroke-linecap:round;stroke-linejoin:miter;stroke-miterlimit:4;stroke-opacity:1;stroke-dasharray:none;stroke-dashoffset:0;marker:none;visibility:visible;display:inline;overflow:visible;enable-background:new" />
    <path
       d="m 276.04152,194.26807 a 1.3582664,1.3582664 0 1 1 -2.71653,0 1.3582664,1.3582664 0 1 1 2.71653,0 z"
       transform="matrix(0.7401375,0,0,0.7401375,59.364445,34.601723)"
       id="path127254-5-8"
       style="color:#000000;fill:#f2f2f2;stroke:#e6e6e6;stroke-width:0.5;stroke-linecap:round;stroke-linejoin:miter;stroke-miterlimit:4;stroke-opacity:1;stroke-dasharray:none;stroke-dashoffset:0;marker:none;visibility:visible;display:inline;overflow:visible;enable-background:new" />
    <path
       d="m 276.04152,194.26807 a 1.3582664,1.3582664 0 1 1 -2.71653,0 1.3582664,1.3582664 0 1 1 2.71653,0 z"
       transform="matrix(0.7401375,0,0,0.7401375,58.894276,36.168954)"
       id="path127254-5-4"
       style="color:#000000;fill:#f2f2f2;stroke:#e6e6e6;stroke-width:0.5;stroke-linecap:round;stroke-linejoin:miter;stroke-miterlimit:4;stroke-opacity:1;stroke-dasharray:none;stroke-dashoffset:0;marker:none;visibility:visible;display:inline;overflow:visible;enable-background:new" />
    <path
       d="m 276.04152,194.26807 a 1.3582664,1.3582664 0 1 1 -2.71653,0 1.3582664,1.3582664 0 1 1 2.71653,0 z"
       transform="matrix(0.7401375,0,0,0.7401375,58.685312,37.736184)"
       id="path127254-5-9"
       style="color:#000000;fill:#f2f2f2;stroke:#e6e6e6;stroke-width:0.5;stroke-linecap:round;stroke-linejoin:miter;stroke-miterlimit:4;stroke-opacity:1;stroke-dasharray:none;stroke-dashoffset:0;marker:none;visibility:visible;display:inline;overflow:visible;enable-background:new" />
    <path
       d="m 276.04152,194.26807 a 1.3582664,1.3582664 0 1 1 -2.71653,0 1.3582664,1.3582664 0 1 1 2.71653,0 z"
       transform="matrix(0.7401375,0,0,0.7401375,91.597151,35.280856)"
       id="path127254-5-1"
       style="color:#000000;fill:#f2f2f2;stroke:#e6e6e6;stroke-width:0.5;stroke-linecap:round;stroke-linejoin:miter;stroke-miterlimit:4;stroke-opacity:1;stroke-dasharray:none;stroke-dashoffset:0;marker:none;visibility:visible;display:inline;overflow:visible;enable-background:new" />
    <path
       d="m 276.04152,194.26807 a 1.3582664,1.3582664 0 1 1 -2.71653,0 1.3582664,1.3582664 0 1 1 2.71653,0 z"
       transform="matrix(0.7401375,0,0,0.7401375,91.962839,36.325677)"
       id="path127254-5-85"
       style="color:#000000;fill:#f2f2f2;stroke:#e6e6e6;stroke-width:0.5;stroke-linecap:round;stroke-linejoin:miter;stroke-miterlimit:4;stroke-opacity:1;stroke-dasharray:none;stroke-dashoffset:0;marker:none;visibility:visible;display:inline;overflow:visible;enable-background:new" />
    <path
       d="m 276.04152,194.26807 a 1.3582664,1.3582664 0 1 1 -2.71653,0 1.3582664,1.3582664 0 1 1 2.71653,0 z"
       transform="matrix(0.7401375,0,0,0.7401375,92.380767,37.631702)"
       id="path127254-5-40"
       style="color:#000000;fill:#f2f2f2;stroke:#e6e6e6;stroke-width:0.5;stroke-linecap:round;stroke-linejoin:miter;stroke-miterlimit:4;stroke-opacity:1;stroke-dasharray:none;stroke-dashoffset:0;marker:none;visibility:visible;display:inline;overflow:visible;enable-background:new" />
    <path
       d="m 276.04152,194.26807 a 1.3582664,1.3582664 0 1 1 -2.71653,0 1.3582664,1.3582664 0 1 1 2.71653,0 z"
       transform="matrix(0.7401375,0,0,0.7401375,92.798695,38.885486)"
       id="path127254-5-7"
       style="color:#000000;fill:#f2f2f2;stroke:#e6e6e6;stroke-width:0.5;stroke-linecap:round;stroke-linejoin:miter;stroke-miterlimit:4;stroke-opacity:1;stroke-dasharray:none;stroke-dashoffset:0;marker:none;visibility:visible;display:inline;overflow:visible;enable-background:new" />
    <path
       d="m 276.04152,194.26807 a 1.3582664,1.3582664 0 1 1 -2.71653,0 1.3582664,1.3582664 0 1 1 2.71653,0 z"
       transform="matrix(0.7401375,0,0,0.7401375,92.955418,40.191512)"
       id="path127254-5-6"
       style="color:#000000;fill:#f2f2f2;stroke:#e6e6e6;stroke-width:0.5;stroke-linecap:round;stroke-linejoin:miter;stroke-miterlimit:4;stroke-opacity:1;stroke-dasharray:none;stroke-dashoffset:0;marker:none;visibility:visible;display:inline;overflow:visible;enable-background:new" />
    <path
       d="m 276.04152,194.26807 a 1.3582664,1.3582664 0 1 1 -2.71653,0 1.3582664,1.3582664 0 1 1 2.71653,0 z"
       transform="matrix(0.7401375,0,0,0.7401375,58.894276,39.09445)"
       id="path127254-5-93"
       style="color:#000000;fill:#f2f2f2;stroke:#e6e6e6;stroke-width:0.5;stroke-linecap:round;stroke-linejoin:miter;stroke-miterlimit:4;stroke-opacity:1;stroke-dasharray:none;stroke-dashoffset:0;marker:none;visibility:visible;display:inline;overflow:visible;enable-background:new" />
    <path
       d="m 276.04152,194.26807 a 1.3582664,1.3582664 0 1 1 -2.71653,0 1.3582664,1.3582664 0 1 1 2.71653,0 z"
       transform="matrix(0.7401375,0,0,0.7401375,59.050999,40.504957)"
       id="path127254-5-2"
       style="color:#000000;fill:#f2f2f2;stroke:#e6e6e6;stroke-width:0.5;stroke-linecap:round;stroke-linejoin:miter;stroke-miterlimit:4;stroke-opacity:1;stroke-dasharray:none;stroke-dashoffset:0;marker:none;visibility:visible;display:inline;overflow:visible;enable-background:new" />
    <path
       d="m 276.04152,194.26807 a 1.3582664,1.3582664 0 1 1 -2.71653,0 1.3582664,1.3582664 0 1 1 2.71653,0 z"
       transform="matrix(0.7401375,0,0,0.7401375,92.53749,41.602019)"
       id="path127254-5-3"
       style="color:#000000;fill:#f2f2f2;stroke:#e6e6e6;stroke-width:0.5;stroke-linecap:round;stroke-linejoin:miter;stroke-miterlimit:4;stroke-opacity:1;stroke-dasharray:none;stroke-dashoffset:0;marker:none;visibility:visible;display:inline;overflow:visible;enable-background:new" />
    <path
       d="m 276.04152,194.26807 a 1.3582664,1.3582664 0 1 1 -2.71653,0 1.3582664,1.3582664 0 1 1 2.71653,0 z"
       transform="matrix(0.77262031,0,0,0.77262031,82.988113,36.806635)"
       id="path127254-5-3-1"
       style="color:#000000;fill:#f2f2f2;stroke:#e6e6e6;stroke-width:0.47888982;stroke-linecap:round;stroke-linejoin:miter;stroke-miterlimit:4;stroke-opacity:1;stroke-dasharray:none;stroke-dashoffset:0;marker:none;visibility:visible;display:inline;overflow:visible;enable-background:new" />
    <path
       d="m 276.04152,194.26807 a 1.3582664,1.3582664 0 1 1 -2.71653,0 1.3582664,1.3582664 0 1 1 2.71653,0 z"
       transform="matrix(0.77262031,0,0,0.77262031,81.943293,38.164902)"
       id="path127254-5-3-1-6"
       style="color:#000000;fill:#f2f2f2;stroke:#e6e6e6;stroke-width:0.47888982;stroke-linecap:round;stroke-linejoin:miter;stroke-miterlimit:4;stroke-opacity:1;stroke-dasharray:none;stroke-dashoffset:0;marker:none;visibility:visible;display:inline;overflow:visible;enable-background:new" />
    <path
       d="m 276.04152,194.26807 a 1.3582664,1.3582664 0 1 1 -2.71653,0 1.3582664,1.3582664 0 1 1 2.71653,0 z"
       transform="matrix(0.77262031,0,0,0.77262031,50.598684,35.50061)"
       id="path127254-5-3-1-6-0"
       style="color:#000000;fill:#f2f2f2;stroke:#e6e6e6;stroke-width:0.47888982;stroke-linecap:round;stroke-linejoin:miter;stroke-miterlimit:4;stroke-opacity:1;stroke-dasharray:none;stroke-dashoffset:0;marker:none;visibility:visible;display:inline;overflow:visible;enable-background:new" />
    <path
       d="m 276.04152,194.26807 a 1.3582664,1.3582664 0 1 1 -2.71653,0 1.3582664,1.3582664 0 1 1 2.71653,0 z"
       transform="matrix(0.77262031,0,0,0.77262031,51.068853,36.858877)"
       id="path127254-5-3-1-6-5"
       style="color:#000000;fill:#f2f2f2;stroke:#e6e6e6;stroke-width:0.47888982;stroke-linecap:round;stroke-linejoin:miter;stroke-miterlimit:4;stroke-opacity:1;stroke-dasharray:none;stroke-dashoffset:0;marker:none;visibility:visible;display:inline;overflow:visible;enable-background:new" />
    <path
       d="m 276.04152,194.26807 a 1.3582664,1.3582664 0 1 1 -2.71653,0 1.3582664,1.3582664 0 1 1 2.71653,0 z"
       transform="matrix(0.82166642,0,0,0.82166642,38.406443,28.767413)"
       id="path127254-5-3-1-6-6"
       style="color:#000000;fill:#f2f2f2;stroke:#e6e6e6;stroke-width:0.47888982;stroke-linecap:round;stroke-linejoin:miter;stroke-miterlimit:4;stroke-opacity:1;stroke-dasharray:none;stroke-dashoffset:0;marker:none;visibility:visible;display:inline;overflow:visible;enable-background:new" />
    <path
       d="m 276.04152,194.26807 a 1.3582664,1.3582664 0 1 1 -2.71653,0 1.3582664,1.3582664 0 1 1 2.71653,0 z"
       transform="matrix(0.82166642,0,0,0.82166642,39.477384,30.099558)"
       id="path127254-5-3-1-6-6-1"
       style="color:#000000;fill:#f2f2f2;stroke:#e6e6e6;stroke-width:0.47888982;stroke-linecap:round;stroke-linejoin:miter;stroke-miterlimit:4;stroke-opacity:1;stroke-dasharray:none;stroke-dashoffset:0;marker:none;visibility:visible;display:inline;overflow:visible;enable-background:new" />
    <path
       d="m 276.04152,194.26807 a 1.3582664,1.3582664 0 1 1 -2.71653,0 1.3582664,1.3582664 0 1 1 2.71653,0 z"
       transform="matrix(0.82166642,0,0,0.82166642,67.269605,29.890594)"
       id="path127254-5-3-1-6-6-9"
       style="color:#000000;fill:#f2f2f2;stroke:#e6e6e6;stroke-width:0.47888982;stroke-linecap:round;stroke-linejoin:miter;stroke-miterlimit:4;stroke-opacity:1;stroke-dasharray:none;stroke-dashoffset:0;marker:none;visibility:visible;display:inline;overflow:visible;enable-background:new" />
    <path
       d="m 276.04152,194.26807 a 1.3582664,1.3582664 0 1 1 -2.71653,0 1.3582664,1.3582664 0 1 1 2.71653,0 z"
       transform="matrix(0.82166642,0,0,0.82166642,65.702374,31.092137)"
       id="path127254-5-3-1-6-6-7"
       style="color:#000000;fill:#f2f2f2;stroke:#e6e6e6;stroke-width:0.47888982;stroke-linecap:round;stroke-linejoin:miter;stroke-miterlimit:4;stroke-opacity:1;stroke-dasharray:none;stroke-dashoffset:0;marker:none;visibility:visible;display:inline;overflow:visible;enable-background:new" />
    <path
       d="m 276.04152,194.26807 a 1.3582664,1.3582664 0 1 1 -2.71653,0 1.3582664,1.3582664 0 1 1 2.71653,0 z"
       transform="matrix(0.87071253,0,0,0.87071253,50.427913,22.582745)"
       id="path127254-5-3-1-6-6-2"
       style="color:#000000;fill:#f2f2f2;stroke:#e6e6e6;stroke-width:0.47888982;stroke-linecap:round;stroke-linejoin:miter;stroke-miterlimit:4;stroke-opacity:1;stroke-dasharray:none;stroke-dashoffset:0;marker:none;visibility:visible;display:inline;overflow:visible;enable-background:new" />
    <path
       d="m 276.04152,194.26807 a 1.3582664,1.3582664 0 1 1 -2.71653,0 1.3582664,1.3582664 0 1 1 2.71653,0 z"
       transform="matrix(0.87071253,0,0,0.87071253,27.415746,21.773008)"
       id="path127254-5-3-1-6-6-2-5"
       style="color:#000000;fill:#f2f2f2;stroke:#e6e6e6;stroke-width:0.47888982;stroke-linecap:round;stroke-linejoin:miter;stroke-miterlimit:4;stroke-opacity:1;stroke-dasharray:none;stroke-dashoffset:0;marker:none;visibility:visible;display:inline;overflow:visible;enable-background:new" />
    <path
       d="m 276.04152,194.26807 a 1.3582664,1.3582664 0 1 1 -2.71653,0 1.3582664,1.3582664 0 1 1 2.71653,0 z"
       transform="matrix(0.87071253,0,0,0.87071253,29.035218,22.713346)"
       id="path127254-5-3-1-6-6-2-6"
       style="color:#000000;fill:#f2f2f2;stroke:#e6e6e6;stroke-width:0.47888982;stroke-linecap:round;stroke-linejoin:miter;stroke-miterlimit:4;stroke-opacity:1;stroke-dasharray:none;stroke-dashoffset:0;marker:none;visibility:visible;display:inline;overflow:visible;enable-background:new" />
    <path
       d="m 276.04152,194.26807 a 1.3582664,1.3582664 0 1 1 -2.71653,0 1.3582664,1.3582664 0 1 1 2.71653,0 z"
       transform="matrix(0.87071253,0,0,0.87071253,48.468876,23.444721)"
       id="path127254-5-3-1-6-6-2-57"
       style="color:#000000;fill:#f2f2f2;stroke:#e6e6e6;stroke-width:0.47888982;stroke-linecap:round;stroke-linejoin:miter;stroke-miterlimit:4;stroke-opacity:1;stroke-dasharray:none;stroke-dashoffset:0;marker:none;visibility:visible;display:inline;overflow:visible;enable-background:new" />
    <path
       d="m 276.04152,194.26807 a 1.3582664,1.3582664 0 1 1 -2.71653,0 1.3582664,1.3582664 0 1 1 2.71653,0 z"
       transform="matrix(0.87071253,0,0,0.87071253,46.588199,24.228336)"
       id="path127254-5-3-1-6-6-2-3"
       style="color:#000000;fill:#f2f2f2;stroke:#e6e6e6;stroke-width:0.47888982;stroke-linecap:round;stroke-linejoin:miter;stroke-miterlimit:4;stroke-opacity:1;stroke-dasharray:none;stroke-dashoffset:0;marker:none;visibility:visible;display:inline;overflow:visible;enable-background:new" />
    <path
       d="m 276.04152,194.26807 a 1.3582664,1.3582664 0 1 1 -2.71653,0 1.3582664,1.3582664 0 1 1 2.71653,0 z"
       transform="matrix(0.87071253,0,0,0.87071253,44.603041,24.594023)"
       id="path127254-5-3-1-6-6-2-59"
       style="color:#000000;fill:#f2f2f2;stroke:#e6e6e6;stroke-width:0.47888982;stroke-linecap:round;stroke-linejoin:miter;stroke-miterlimit:4;stroke-opacity:1;stroke-dasharray:none;stroke-dashoffset:0;marker:none;visibility:visible;display:inline;overflow:visible;enable-background:new" />
    <path
       d="m 276.04152,194.26807 a 1.3582664,1.3582664 0 1 1 -2.71653,0 1.3582664,1.3582664 0 1 1 2.71653,0 z"
       transform="matrix(0.87071253,0,0,0.87071253,42.461159,25.064192)"
       id="path127254-5-3-1-6-6-2-1"
       style="color:#000000;fill:#f2f2f2;stroke:#e6e6e6;stroke-width:0.47888982;stroke-linecap:round;stroke-linejoin:miter;stroke-miterlimit:4;stroke-opacity:1;stroke-dasharray:none;stroke-dashoffset:0;marker:none;visibility:visible;display:inline;overflow:visible;enable-background:new" />
    <path
       d="m 276.04152,194.26807 a 1.3582664,1.3582664 0 1 1 -2.71653,0 1.3582664,1.3582664 0 1 1 2.71653,0 z"
       transform="matrix(0.87071253,0,0,0.87071253,30.70693,23.758167)"
       id="path127254-5-3-1-6-6-2-34"
       style="color:#000000;fill:#f2f2f2;stroke:#e6e6e6;stroke-width:0.47888982;stroke-linecap:round;stroke-linejoin:miter;stroke-miterlimit:4;stroke-opacity:1;stroke-dasharray:none;stroke-dashoffset:0;marker:none;visibility:visible;display:inline;overflow:visible;enable-background:new" />
    <path
       d="m 276.04152,194.26807 a 1.3582664,1.3582664 0 1 1 -2.71653,0 1.3582664,1.3582664 0 1 1 2.71653,0 z"
       transform="matrix(0.91975864,0,0,0.91975864,19.455028,14.935328)"
       id="path127254-5-3-1-6-6-2-0"
       style="color:#000000;fill:#f2f2f2;stroke:#e6e6e6;stroke-width:0.47888982;stroke-linecap:round;stroke-linejoin:miter;stroke-miterlimit:4;stroke-opacity:1;stroke-dasharray:none;stroke-dashoffset:0;marker:none;visibility:visible;display:inline;overflow:visible;enable-background:new" />
    <path
       d="m 276.04152,194.26807 a 1.3582664,1.3582664 0 1 1 -2.71653,0 1.3582664,1.3582664 0 1 1 2.71653,0 z"
       transform="matrix(0.91975864,0,0,0.91975864,26.794891,15.640581)"
       id="path127254-5-3-1-6-6-2-0-6"
       style="color:#000000;fill:#f2f2f2;stroke:#e6e6e6;stroke-width:0.47888982;stroke-linecap:round;stroke-linejoin:miter;stroke-miterlimit:4;stroke-opacity:1;stroke-dasharray:none;stroke-dashoffset:0;marker:none;visibility:visible;display:inline;overflow:visible;enable-background:new" />
    <path
       d="m 276.04152,194.26807 a 1.3582664,1.3582664 0 1 1 -2.71653,0 1.3582664,1.3582664 0 1 1 2.71653,0 z"
       transform="matrix(0.91975864,0,0,0.91975864,21.205102,15.327135)"
       id="path127254-5-3-1-6-6-2-0-6-1"
       style="color:#000000;fill:#f2f2f2;stroke:#e6e6e6;stroke-width:0.47888982;stroke-linecap:round;stroke-linejoin:miter;stroke-miterlimit:4;stroke-opacity:1;stroke-dasharray:none;stroke-dashoffset:0;marker:none;visibility:visible;display:inline;overflow:visible;enable-background:new" />
    <path
       d="m 276.04152,194.26807 a 1.3582664,1.3582664 0 1 1 -2.71653,0 1.3582664,1.3582664 0 1 1 2.71653,0 z"
       transform="matrix(0.91975864,0,0,0.91975864,24.809732,15.797304)"
       id="path127254-5-3-1-6-6-2-0-6-1-5"
       style="color:#000000;fill:#f2f2f2;stroke:#e6e6e6;stroke-width:0.47888982;stroke-linecap:round;stroke-linejoin:miter;stroke-miterlimit:4;stroke-opacity:1;stroke-dasharray:none;stroke-dashoffset:0;marker:none;visibility:visible;display:inline;overflow:visible;enable-background:new" />
    <path
       d="m 276.04152,194.26807 a 1.3582664,1.3582664 0 1 1 -2.71653,0 1.3582664,1.3582664 0 1 1 2.71653,0 z"
       transform="matrix(1.0505483,0,0,1.0505483,-12.892183,-9.767667)"
       id="path127254-5-3-1-6-6-2-0-6-1-59"
       style="color:#000000;fill:#f2f2f2;stroke:#e6e6e6;stroke-width:0.47888982;stroke-linecap:round;stroke-linejoin:miter;stroke-miterlimit:4;stroke-opacity:1;stroke-dasharray:none;stroke-dashoffset:0;marker:none;visibility:visible;display:inline;overflow:visible;enable-background:new" />
  </g>
</svg>
