<?xml version="1.0" encoding="UTF-8" standalone="no"?>
<!-- Created with Inkscape (http://www.inkscape.org/) -->

<svg
   xmlns:dc="http://purl.org/dc/elements/1.1/"
   xmlns:cc="http://creativecommons.org/ns#"
   xmlns:rdf="http://www.w3.org/1999/02/22-rdf-syntax-ns#"
   xmlns:svg="http://www.w3.org/2000/svg"
   xmlns="http://www.w3.org/2000/svg"
   version="1.1"
   width="560"
   height="560"
   id="pet_canine">
  <g
     transform="matrix(0.19255502,0,0,0.19255502,317.28794,661.1997)"
     id="g2926"
     style="display:inline;enable-background:new">
    <path
       d="m -612.70648,-1256.1031 c -1.14383,0.021 -2.30119,0.5304 -3.46875,1.4062 -0.0305,0.023 -0.0633,0.039 -0.0937,0.062 -1.45074,0.8363 -3.00874,2.2242 -4.6875,4.25 -0.31608,0.8769 -0.65361,1.7884 -0.96875,2.6875 -6.29491,10.343 -11.82917,27.3827 -13.71875,34.4375 0.0268,0.05 0.0666,0.077 0.0937,0.125 -8.36316,15.3445 -20.6216,26.2442 -42.40625,21.625 -4.34098,-0.4642 -8.34831,-2.6951 -12.125,-6 -2.96408,-5.3915 -13.29367,-17.679 -20.21875,-26.0625 -2.34379,-3.371 -4.66954,-6.5934 -7.03125,-9.375 -8.65526,-13.2191 -16.79315,-13.1889 -22.46875,-7.0625 -1.35223,0.9035 -2.73666,2.0729 -4.15625,3.5313 -0.46112,1.9032 -0.82507,3.8007 -1.125,5.6875 -3.22105,8.79 -3.88345,20.3451 -0.59375,29.4062 5.70172,17.277 8.73737,41.7691 15,57.875 1.57646,27.5772 -34.01256,46.9567 -55.8125,58.8438 -29.2186,14.4062 -59.89174,7.5112 -89.59375,-0.2813 -37.1216,-12.8345 -77.47386,-8.7174 -115.9375,-5.8125 -33.37012,-3.7098 -64.92582,9.6942 -82.12502,39.375 -9.2415,18.5738 -30.4981,13.182 -44.3125,20.5 0.1794,-0.6717 0.1098,-1.1674 -0.4062,-1.4062 -29.7088,16.2273 17.6045,24.8886 30.7812,13.2812 12.9168,-1.6185 46.0274,-48.1756 30.25,-15.9375 -18.8092,31.0926 -14.1564,68.25704 -20.875,102.56264 -7.0419,29.5925 -5.2259,59.4473 -5.6562,89.375 -7.5432,30.2098 -12.3447,59.53006 -9.875,90.96875 -0.2704,8.63976 -2.1951,21.61651 -2.4063,33.96875 -0.9893,6.18007 -0.4795,11.56832 1.125,16.09375 0.011,0.0308 0.02,0.0631 0.031,0.0937 2.5283,13.17147 9.9024,21.94507 28.3437,17.15625 9.3672,-0.22838 15.7879,-2.30612 19.25,-5.59375 1.7956,-0.96819 3.5526,-2.07732 5.2813,-3.3125 -0.8221,-0.73311 -1.5884,-1.48195 -2.3438,-2.25 0.6978,-5.30868 -3.1538,-11.96673 -11.5937,-18.8125 -1.1519,-3.26496 -2.0032,-6.6523 -2.625,-10.125 -0.01,-0.032 -0.026,-0.0617 -0.031,-0.0937 -2.6198,-24.81668 3.0605,-50.43635 10.0625,-74.21875 13.0475,-32.5175 21.1354,-67.1075 39.0625,-97.625 12.7485,-34.5253 36.5401,-6.806 36.87502,17.0625 -0.34572,4.0132 -1.2135,8.043 -2.40625,12.0312 -8.09382,9.70289 -12.41893,20.07679 -14.40625,30.9063 -0.70995,1.2564 -1.43214,2.55662 -2.125,3.78125 0.33847,1.99049 0.63808,3.97155 0.9375,5.96875 -0.79489,12.14041 0.70269,24.78299 2.625,37.6875 4.48296,17.97812 -0.56533,40.35304 5.40625,57.71875 0.0213,0.0619 0.0409,0.12574 0.0625,0.1875 0.47962,2.06589 1.30157,3.88889 2.40625,5.5 1.58213,2.9178 3.60602,5.63117 6.1875,8.09375 5.6596,3.00934 12.49716,2.79698 19.375,2.46875 3.33106,0.16753 6.62257,0.0842 9.6875,-0.1875 1.23623,0.0485 2.46138,0.1195 3.65625,0.28125 18.0838,6.8237 31.60634,-15.13388 12.46875,-25.8125 -0.0844,-0.0414 -0.16621,-0.0832 -0.25,-0.125 -3.3406,-3.93589 -7.54678,-7.39268 -12.03125,-9.53125 -14.561,-17.82609 -9.45672,-47.52662 -6.5,-68.90625 10.68684,-21.63023 26.00478,-49.1561 51.5,-51.5 1.07952,-0.01 2.18693,0.0434 3.3125,0.125 1.94678,0.004 4.02253,0.0691 6.15625,0.1562 0.0102,5e-4 0.021,-4e-4 0.0312,0 1.00988,0.1463 2.02408,0.3398 3.0625,0.5625 25.32822,0.5569 50.68104,12.59349 54.5625,36.0313 0.005,0.0302 -0.005,0.0635 0,0.0937 -0.0613,1.08783 -0.14298,2.19297 -0.3125,3.34375 -0.26997,4.2866 -0.3377,8.59056 -0.28125,12.875 -0.12424,0.57505 -0.29153,1.16551 -0.4375,1.75 -1.481,33.2773 10.18506,67.17387 1.84375,99.875 15.0486,17.8569 -3.14571,62.8037 28.3125,63.1875 9.0299,0.5934 51.14439,3.14103 40.4375,-15.96875 -24.944,-17.1495 -20.42599,-51.14767 -21.1875,-77.375 -0.1674,-4.30586 -0.38858,-8.64905 -0.59375,-13 0.32401,-15.78652 -1.06962,-31.9201 -0.5625,-47.75 0.55793,-9.60978 1.72643,-19.12377 3.90625,-28.4375 10.3467,-26.0636 58.09532,-32.74125 73.5625,-12.75 5.8501,48.1797 2.5593,97.1879 8.5625,145.4375 0.30438,2.70202 0.96205,5.38072 1.90625,7.96875 0.0149,0.11421 0.0162,0.22955 0.0312,0.34375 0.053,0.0608 0.10321,0.12649 0.15625,0.1875 9.60958,25.17029 47.01619,42.97403 65.90625,20 -1.05282,-1.20663 -2.16397,-2.48296 -3.25,-3.71875 -2.12278,-4.63655 -7.73708,-10.09267 -13.3125,-16 -5.97744,-7.93438 -11.15892,-16.49079 -13.78125,-25.84375 0.008,-0.0518 0.0221,-0.10441 0.0312,-0.15625 -0.80464,-10.49828 -0.81617,-21.00978 -0.3125,-31.53125 1.5971,-25.50068 6.61493,-50.64275 8.9375,-76 0.0461,-0.3333 0.11043,-0.66681 0.15625,-1 5.2e-4,-0.19724 -5.5e-4,-0.39642 0,-0.59375 0.55853,-6.42455 0.97139,-12.8503 1.0625,-19.3125 -0.25062,-3.02603 -0.38533,-6.03949 -0.375,-9.03125 0.53604,-8.62055 1.47102,-17.19085 3.25,-25.56255 0.0314,-0.1248 0.0619,-0.2502 0.0937,-0.375 2.19055,-8.5788 5.4019,-16.9572 9.5625,-25.0312 0.0601,-0.7609 0.08,-1.5187 0.125,-2.2813 0.48217,-0.9145 0.9832,-1.8137 1.5,-2.7187 -0.58853,-5.2456 -1.11421,-10.8293 -1.59375,-16.5938 -0.21911,-3.8401 -0.5173,-7.7047 -0.84375,-11.5625 -0.85713,-12.506 -1.50145,-25.6032 -1.9375,-38.5 0.0466,-1.2238 0.10517,-2.4347 0.1875,-3.6562 1.3693,-12.80925 -3.45816,-27.15919 2.21875,-38.90639 9.9137,-36.3557 48.79389,-3.3568 73.9375,-13.5313 28.49584,-2.739 44.31092,-41.5118 27.0625,-63.0312 -0.0326,-0.041 -0.0609,-0.084 -0.0937,-0.125 -7.14243,-12.2104 -19.38829,-22.9917 -29.09375,-34.0625 -3.97943,-5.4567 -6.67372,-9.8231 -8.71875,-13.5313 -0.90392,-6.6077 -3.86967,-11.9115 -7.5,-16.6875 -1.88105,-3.0668 -4.51982,-6.3242 -8.5625,-10.0312 1.33068,1.4067 2.45773,2.696 3.46875,3.9375 -7.6482,-8.5995 -15.47409,-16.4152 -13.46875,-28.875 0.15663,1.4283 0.32216,2.7868 0.5,4.0937 -0.13088,-1.674 -0.21793,-3.4671 -0.28125,-5.3437 0.3565,-1.7097 0.87918,-3.5106 1.625,-5.4063 -0.51224,-8.9058 -2.65616,-36.6549 -9.71875,-46.5937 -1.67184,-2.8688 -3.49443,-4.096 -5.34375,-4.0625 z m 13.71875,61.4062 c 0.40132,5.1332 -0.56408,8.2349 1.17199,10.3005 -1.40694,-2.2989 -0.5,-5.362 -1.17199,-10.3005 z m -523.96877,173.875 c 0.6571,0.9652 1.4075,1.8089 2.25,2.5313 -1.5689,-0.5066 -2.1968,-1.4035 -2.25,-2.5313 z"
       id="path2799-1"
       style="fill:#ffffff;fill-opacity:1;stroke:#000000;stroke-width:0.5;stroke-miterlimit:4;stroke-opacity:1;stroke-dasharray:none" />
    <path
       d="m -800.89,-653.5986 c -30.9517,0.3356 -12.696,-46.3944 -27.318,-62.8402 7.3942,-37.7307 -5.0173,-75.7021 -2.6211,-113.7493 5.0079,-33.9968 -38.3334,-40.1556 -63.4912,-40.2059 -31.4743,-2.2818 -44.6262,31.9975 -57.2892,54.7649 -0.9724,21.2554 -4.9236,45.934 7.3089,64.7919 19.3563,7.6667 34.9844,41.1412 1.466,35.5095 -16.7838,2.4399 -44.72223,-0.6518 -41.55063,-23.2465 -3.243,-31.2244 -3.5439,-62.9282 -8.7906,-93.783 12.7847,-22.5971 29.55623,-50.8561 10.5642,-75.3974 -23.90847,-22.6121 -36.88537,29.134 -45.26087,45.8216 -10.5571,27.4054 -20.1452,55.1426 -28.5691,83.3177 -6.5059,29.2708 -10.6106,64.7119 12.8165,85.6026 -27.0221,19.3075 -64.1013,5.7056 -52.2842,-31.6951 4.8784,-31.5026 -3.9684,-64.887 7.5338,-94.9075 9.6454,-28.4593 -1.1112,-58.7481 5.8297,-87.6591 6.5222,-34.9296 6.5895,-70.8729 15.2016,-105.3409 4.6429,-12.6791 28.4502,-53.2422 1.5856,-25.0065 -10.5967,16.4188 -53.8297,36.3359 -60.3417,12.7594 12.3941,-15.421 40.0338,-3.9956 50.9376,-25.9102 17.1992,-29.6808 48.7378,-43.067 82.10797,-39.3571 38.46363,-2.9049 78.81563,-7.0262 115.93723,5.8084 29.702,7.7924 60.3857,14.6835 89.6043,0.2773 22.4864,-12.2614 59.6559,-32.4874 55.5627,-61.4666 -5.4025,-30.0808 -20.6025,-59.0566 -13.0202,-90.3518 25.6169,-26.3164 39.6005,42.1612 65.9816,44.9826 38.0983,8.0783 47.0769,-31.3713 56.9981,-58.893 18.295,-22.0775 20.50794,31.8459 21.26154,44.948 -2.7494,6.9882 -1.29839,14.6261 1.67409,21.5044 2.97248,6.8783 9.52619,12.9968 12.86265,16.9462 3.85567,4.564 5.28198,6.9649 6.52871,9.8109 1.24672,2.846 2.31386,6.1372 5.45121,12.4817 14.1615,22.61 48.3554,41.9278 42.9125,71.1028 0.5059,30.5987 -34.2607,41.3507 -59.6166,36.791 -22.2146,-11.9102 -48.5426,-12.3257 -49.812,12.3564 -0.0191,33.0538 1.4755,77.9775 5.1602,110.8196 -14.8161,25.9446 -15.1534,55.915 -15.2303,84.9005 -4.9271,35.8281 -11.5436,72.3227 -8.7675,108.5429 -4.0402,23.0021 53.7759,46.8243 13.7756,54.4663 -23.305,6.6732 -36.4422,-13.8977 -49.5482,-28.9291 -6.5847,-50.0557 -4.131,-101.1579 -8.3969,-151.4374 -10.9502,-25.5575 -62.1091,-16.2178 -74.3774,6.1872 -9.2502,27.6484 -3.2661,57.9834 -4.8478,86.789 1.9423,29.1462 -4.3716,66.2092 22.7208,86.0061 2.4777,16.5988 -29.9602,12.9812 -40.6496,12.8877 z"
       id="path10746"
       style="fill:#ffffff;fill-opacity:1;stroke:#000000;stroke-width:6;stroke-miterlimit:4;stroke-opacity:1;stroke-dasharray:none" />
    <path
       d="m -801.4024,-652.5178 c -31.4582,-0.3838 -13.2626,-45.3435 -28.3112,-63.2004 8.3413,-32.7011 -3.3002,-66.5963 -1.8192,-99.8736 8.8201,-35.3166 -22.3722,-53.394 -53.5454,-54.0794 -33.2295,-7.1274 -51.7138,25.6697 -64.0524,50.6431 -3.5911,25.9667 -10.3855,64.2554 18.7834,78.568 19.1376,10.6786 5.6069,32.6549 -12.4769,25.8312 -10.6939,-1.4476 -23.334,2.4363 -32.7323,-2.561 -18.44714,-17.5975 -8.25554,-48.2476 -14.05814,-71.5179 -4.2241,-28.3564 -6.4074,-55.4435 13.31164,-78.7323 10.2523,-24.1273 -19.87964,-69.1521 -34.8177,-28.697 -17.9271,30.5175 -25.9999,65.0915 -39.0474,97.609 -7.8686,26.7257 -14.0647,55.7958 -8.6926,83.409 20.0909,15.4826 16.7059,30.389 -9.3188,31.0235 -40.3773,10.4851 -27.8235,-44.0982 -27.0964,-67.331 -2.4697,-31.4387 2.3398,-60.7438 9.883,-90.9536 0.4303,-29.9277 -1.3936,-59.799 5.6483,-89.3915 6.7186,-34.3056 2.0889,-71.459 20.8981,-102.5516 15.7774,-32.2381 -17.3411,14.3156 -30.2579,15.9342 -13.1767,11.6074 -60.4996,2.9334 -30.7908,-13.2939 3.7525,1.7366 -15.265,17.1329 6.6546,14.0641 31.1007,4.3867 44.1031,-30.4437 68.6856,-39.0878 17.3548,-10.9611 -17.6221,23.1056 -16.0011,31.5146 -14.9351,32.0803 -10.7813,68.6681 -18.231,102.664 -7.2935,30.8316 -0.4947,61.8709 -4.6431,92.8895 -12.1621,23.9995 -6.2501,50.5691 -8.9815,76.3287 0.01,18.6167 -7.0033,58.3112 5.411,61.1827 -17.0205,-17.5101 16.0061,9.168 9.837,-8.9157 12.7662,7.6017 32.5216,-0.0952 13.8603,-14.1148 -5.8036,-39.1732 4.1302,-78.933 19.7026,-114.6279 9.6263,-31.1063 19.7953,-66.6496 44.22256,-89.1975 21.92584,-10.7289 32.87714,35.2988 25.88414,54.2681 -20.67414,22.799 -15.33434,48.8392 -12.42864,76.6846 5.6328,24.8954 -4.29,50.3825 17.21724,58.8281 8.4897,-6.9994 34.3085,-1.3572 25.7946,6.9241 -3.8397,-7.8977 -39.08804,-2.9489 -33.3201,-2.9567 17.176,12.4835 73.4382,8.7118 37.6915,-16.1312 -21.9247,-16.5534 -19.0115,-48.0494 -18.0509,-71.7729 10.0835,-22.781 21.5084,-52.9949 48.1885,-59.7641 26.3043,-7.4108 52.2578,3.4661 75.4066,14.6837 1.6278,-16.0392 -5.5246,-42.5493 -5.4445,-53.4288 14.9322,26.0402 6.235,54.8904 9.758,83.1404 -1.318,37.3122 9.3913,74.8412 3.1593,111.8634 16.5587,10.4609 -2.4838,47.1373 14.6477,50.406 12.5467,-4.0734 -14.2685,14.5564 6.9369,4.8858 2.786,5.6519 8.6754,1.9927 13.9186,2.7147 6.5329,5.2097 7.781,1.7492 10.839,0.7082 6.7321,1.8631 7.8983,2.9289 13.5529,-4.4602 9.4835,2.2035 -3.007,-9.4026 -9.6439,-14.6788 -17.3981,-37.2063 -9.1157,-79.4157 -11.3674,-119.0911 -0.3797,-15.4988 0.5242,-57.9462 8.9456,-52.3683 16.5721,-19.3954 50.9159,-15.7352 69.6865,-14.3932 17.4328,11.0147 9.4988,47.8706 10.8811,86.7701 1.1367,26.0034 0.897,52.7299 5.1485,78.1555 2.7257,19.4968 21.0663,27.7249 28.6408,27.4675 2.9772,11.297 47.5437,-0.9771 19.7974,-13.0379 -9.5075,-11.1437 -10.6333,-17.6338 -19.3061,-36.093 -2.5197,-21.4674 -2.242,-49.9205 3.6852,-74.6774 5.6398,-28.0087 4.6819,-56.5467 7.4324,-84.7938 12.7626,-27.0825 13.3302,-55.7591 8.6384,-84.9442 2.0477,-26.136 -7.3915,-55.5957 9.5349,-77.8492 6.7213,-13.9813 31.5072,1.7228 11.6476,-10.1522 -10.113,-5.3874 -12.4157,-0.9196 -24.2638,-8.8263 -18.9967,-7.4476 -4.6213,-10.6795 8.7602,1.0152 17.1126,-2.7162 45.2932,30.1415 61.8484,19.7106 7.6059,-1.6037 33.2348,-8.5176 29.3949,-12.6776 -11.7849,-3.9788 -32.092,-29.0682 -10.7529,-37.7299 40.3901,9.0454 -2.8974,-33.6275 -14.3177,-46.0117 -3.97667,-4.4012 -3.80838,-22.4663 -19.27137,-36.6453 17.74234,18.7565 3.56044,20.3256 51.06437,71.2708 21.7429,20.617 5.8059,63.3207 -24.1479,66.1999 -25.1436,10.1745 -64.0343,-22.8173 -73.948,13.5384 -5.6769,11.7471 -0.8614,26.0812 -2.2307,38.8905 -1.6891,25.0592 4.5336,50.643 2.5834,75.334 -9.6483,18.7232 -14.3007,38.9648 -12.5603,59.9791 -0.497,35.2478 -9.442,69.7991 -10.5266,105.1408 -6.3869,28.5245 14.8083,50.4432 31.0117,69.0138 -20.9562,25.4868 -64.7145,0.8007 -68.0118,-28.4697 -6.0032,-48.2496 -2.6992,-97.2683 -8.5493,-145.448 -15.4672,-19.9912 -63.2186,-13.3318 -73.5653,12.7318 -6.7555,28.8642 -3.8943,59.6728 -2.7469,89.1859 0.7615,26.2273 -3.7525,60.2426 21.1915,77.3921 10.7069,19.1098 -31.4281,16.5571 -40.458,15.9637 z m -265.1779,-37.5008 c 21.9744,-4.8972 13.6906,-5.1316 -2.8172,-2.2957 -14.2054,-9.3909 6.0798,7.2235 -12.8333,4.7861 4.942,2.5336 10.7336,-1.6079 15.6505,-2.4904 z m 528.2792,-369.7596 c -0.6539,-8.3757 -2.8851,10.6769 0,0 z m -19.8746,-18.5649 c -7.8914,1.6379 -0.4516,8.6805 0,0 z m -5.6935,-0.6851 c -4.8406,-7.0543 0.5097,7.4621 0,0 z m 12.9683,-3.0827 c 21.787,-6.1987 -22.4591,-6.7179 0.0143,1.4204 l -0.0144,-1.4204 10e-5,0 z m -261.5966,421.4587 c 5.3688,-2.9794 -2.4367,3.0732 0,0 z m -246.8608,-45.626 c -3.4519,-4.9129 6.1414,5.9726 0,0 z m 120.7347,-15.0764 c -1.5587,-12.9375 15.6511,5.8789 0,0 z m -8.8073,-1.3736 c 6.2646,-2.3746 -0.1314,4.5078 0,0 z m 15.4983,-4.0258 c -6.8998,-8.5835 5.9032,3.4432 0,0 z m -22.4857,-10.4573 c 5.5905,-0.8631 -1.7197,1.7144 0,0 z m -136.8125,-52.3169 c 2.4665,-3.5621 1.2091,3.6563 0,0 z m 73.7065,-114.6267 c -3.7404,-19.4086 19.97136,-46.1248 43.6674,-48.1334 16.3165,0.1389 62.6556,66.9 112.1548,82.5796 -59.7345,-9.6563 -100.1367,-81.0898 -118.49124,-73.6396 -19.97736,5.4825 -31.47126,23.2303 -37.33096,39.1934 z m 356.4296,-94.4232 c 1.3436,-12.281 32.0517,-51.8301 13.9681,-20.9051 -2.873,5.1473 -11.5955,22.421 -13.9681,20.9051 z m -63.0636,-131.5849 c -12.0964,-11.7128 -14.9519,-47.5698 -22.5542,-70.6058 -8.5487,-23.5465 9.559,-63.9721 30.0343,-28.7935 6.1411,8.1324 34.2284,39.7851 24.2667,34.7942 -10.2629,-13.7549 -18.8411,-18.3014 -4.3541,-1.3235 6.5067,13.7174 -20.4457,-19.7655 -23.6954,-27.5458 -13.1666,-19.1082 -17.5701,-25.1746 -22.3553,1.2235 -5.3097,19.9718 6.0714,47.174 13.9794,56.8194 -9.5841,-5.3895 8.2749,5.2219 -2.8953,8.1652 -0.6714,5.0432 17.8969,35.5426 7.5739,27.2663 z m 5.7699,-13.1152 c -20.2076,-18.8168 -0.4572,-8.8699 2.5646,1.6676 l -2.5646,-1.6675 0,-10e-5 z m 71.6605,-0.3848 c -20.9872,-12.6643 30.6556,-19.4535 19.3308,0.972 -6.2748,2.0313 -13.2361,1.2844 -19.3308,-0.972 z m 12.0383,-4.9317 c -2.4511,-7.7627 -11.6114,6.2635 0,0 z m -79.5412,-3.9924 c -21.203,-7.9236 -4.016,-14.0585 1.5,-10.5793 -0.5809,-13.0256 17.1782,-0.9519 2.6443,8.0088 -0.0628,0.041 -3.5884,6.3987 -4.1443,2.5705 z m -1.5,-5.9409 c -5.2965,-3.6533 1.121,3.4461 0,0 z m 118.63979,-24.2761 c -6.56017,-10.7192 -1.41669,-57.923 -19.20819,-68.9551 -4.1967,14.6004 -15.4112,48.4263 -20.359,39.1332 3.7219,-13.8958 21.6062,-66.6276 31.5262,-30.3327 8.1007,17.0038 1.53747,52.4165 8.04099,60.1546 z m -18.13979,-4.2472 c -12.3464,-4.2592 -23.8824,-22.1005 -5.4109,-6.4766 12.187,2.2109 23.479,18.6863 5.4109,6.4766 l 0,0 z"
       id="path10748"
       style="fill:#000000;fill-opacity:1;stroke:#000000;stroke-width:0;stroke-miterlimit:4;stroke-opacity:1;stroke-dasharray:none" />
    <path
       d="m -551.15161,-1059.152 c -6.5013,18.55 -35.99684,22.1258 -63.90458,8.9863"
       id="path2869"
       style="fill:none;stroke:#000000;stroke-width:3.29999995;stroke-linecap:butt;stroke-linejoin:miter;stroke-miterlimit:4;stroke-opacity:1;stroke-dasharray:none" />
    <path
       d="m -787.87939,-659.05723 c 0,3.15084 -0.97038,5.70805 -2.16604,5.70805 -1.19566,0 -2.16605,-2.55721 -2.16605,-5.70805 0,-3.15083 0.97039,-5.70804 2.16605,-5.70804 1.19566,0 2.16604,2.55721 2.16604,5.70804 z"
       id="path2891-2"
       style="fill:#ffffff;fill-opacity:1;stroke:#000000;stroke-width:3.68199992;stroke-miterlimit:4;stroke-opacity:1;stroke-dasharray:none" />
    <path
       d="m -776.49486,-659.19854 c 0,3.15084 -0.97038,5.70805 -2.16604,5.70805 -1.19566,0 -2.16605,-2.55721 -2.16605,-5.70805 0,-3.15083 0.97039,-5.70804 2.16605,-5.70804 1.19566,0 2.16604,2.55721 2.16604,5.70804 z"
       id="path2904-8"
       style="fill:#ffffff;fill-opacity:1;stroke:#000000;stroke-width:3.68199992;stroke-miterlimit:4;stroke-opacity:1;stroke-dasharray:none" />
    <path
       d="m -765.29535,-661.75281 c 0,3.15084 -0.97038,5.70805 -2.16604,5.70805 -1.19566,0 -2.16605,-2.55721 -2.16605,-5.70805 0,-3.15083 0.97039,-5.70804 2.16605,-5.70804 1.19566,0 2.16604,2.55721 2.16604,5.70804 z"
       id="path2906-7"
       style="fill:#ffffff;fill-opacity:1;stroke:#000000;stroke-width:3.68199992;stroke-miterlimit:4;stroke-opacity:1;stroke-dasharray:none" />
    <path
       d="m -648.29426,-670.438 c 0.30379,3.13616 -0.41552,5.77502 -1.60561,5.8903 -1.19008,0.11528 -2.40251,-2.33646 -2.7063,-5.47262 -0.30379,-3.13615 0.41553,-5.77501 1.60562,-5.89029 1.19008,-0.11528 2.4025,2.33646 2.70629,5.47261 z"
       id="path2908-9"
       style="fill:#ffffff;fill-opacity:1;stroke:#000000;stroke-width:3.68199992;stroke-miterlimit:4;stroke-opacity:1;stroke-dasharray:none" />
    <path
       d="m -640.46757,-672.30889 c 0.5332,3.1054 0.01,5.78994 -1.16886,5.99228 -1.17842,0.20233 -2.56756,-2.15379 -3.10075,-5.25918 -0.5332,-3.10539 -0.01,-5.78993 1.16887,-5.99227 1.17842,-0.20233 2.56755,2.15379 3.10074,5.25917 z"
       id="path2910-4"
       style="fill:#ffffff;fill-opacity:1;stroke:#000000;stroke-width:3.68199992;stroke-miterlimit:4;stroke-opacity:1;stroke-dasharray:none" />
    <path
       d="m -633.01236,-674.52996 c 0.62015,3.08921 0.17206,5.78739 -1.00022,6.02272 -1.17227,0.23533 -2.62699,-2.08087 -3.24713,-5.17008 -0.62015,-3.0892 -0.17205,-5.78738 1.00023,-6.02271 1.17227,-0.23533 2.62698,2.08087 3.24712,5.17007 z"
       id="path2912-1"
       style="fill:#ffffff;fill-opacity:1;stroke:#000000;stroke-width:3.68199992;stroke-miterlimit:4;stroke-opacity:1;stroke-dasharray:none" />
    <path
       d="m -1076.141,-694.63854 c 0,3.15084 -0.9703,5.70805 -2.166,5.70805 -1.1957,0 -2.166,-2.55721 -2.166,-5.70805 0,-3.15083 0.9703,-5.70804 2.166,-5.70804 1.1957,0 2.166,2.55721 2.166,5.70804 z"
       id="path2914-8"
       style="fill:#ffffff;fill-opacity:1;stroke:#000000;stroke-width:3.68199992;stroke-miterlimit:4;stroke-opacity:1;stroke-dasharray:none" />
    <path
       d="m -1064.7564,-694.77985 c 0,3.15084 -0.9704,5.70805 -2.1661,5.70805 -1.1956,0 -2.166,-2.55721 -2.166,-5.70805 0,-3.15083 0.9704,-5.70804 2.166,-5.70804 1.1957,0 2.1661,2.55721 2.1661,5.70804 z"
       id="path2916-7"
       style="fill:#ffffff;fill-opacity:1;stroke:#000000;stroke-width:3.68199992;stroke-miterlimit:4;stroke-opacity:1;stroke-dasharray:none" />
    <path
       d="m -1053.5569,-697.33412 c 0,3.15084 -0.9704,5.70805 -2.1661,5.70805 -1.1956,0 -2.166,-2.55721 -2.166,-5.70805 0,-3.15083 0.9704,-5.70804 2.166,-5.70804 1.1957,0 2.1661,2.55721 2.1661,5.70804 z"
       id="path2918-9"
       style="fill:#ffffff;fill-opacity:1;stroke:#000000;stroke-width:3.68199992;stroke-miterlimit:4;stroke-opacity:1;stroke-dasharray:none" />
    <path
       d="m -941.4508,-723.19251 c 0.30379,3.13616 -0.41552,5.77502 -1.60561,5.8903 -1.19008,0.11528 -2.40251,-2.33646 -2.7063,-5.47262 -0.30379,-3.13615 0.41553,-5.77501 1.60562,-5.89029 1.19008,-0.11528 2.4025,2.33646 2.70629,5.47261 z"
       id="path2920-2"
       style="fill:#ffffff;fill-opacity:1;stroke:#000000;stroke-width:3.68199992;stroke-miterlimit:4;stroke-opacity:1;stroke-dasharray:none" />
    <path
       d="m -933.62411,-725.0634 c 0.5332,3.1054 0.01,5.78994 -1.16886,5.99228 -1.17842,0.20233 -2.56756,-2.15379 -3.10075,-5.25918 -0.5332,-3.10539 -0.01,-5.78993 1.16887,-5.99227 1.17842,-0.20233 2.56755,2.15379 3.10074,5.25917 z"
       id="path2922-2"
       style="fill:#ffffff;fill-opacity:1;stroke:#000000;stroke-width:3.68199992;stroke-miterlimit:4;stroke-opacity:1;stroke-dasharray:none" />
    <path
       d="m -926.1689,-727.28447 c 0.62015,3.08921 0.17206,5.78739 -1.00022,6.02272 -1.17227,0.23533 -2.62699,-2.08087 -3.24713,-5.17008 -0.62015,-3.0892 -0.17205,-5.78738 1.00023,-6.02271 1.17227,-0.23533 2.62698,2.08087 3.24712,5.17007 z"
       id="path2924-7"
       style="fill:#ffffff;fill-opacity:1;stroke:#000000;stroke-width:3.68199992;stroke-miterlimit:4;stroke-opacity:1;stroke-dasharray:none" />
  </g>
</svg>
