<?xml version="1.0" encoding="UTF-8" standalone="no"?>
<!-- Created with Inkscape (http://www.inkscape.org/) -->

<svg
   xmlns:dc="http://purl.org/dc/elements/1.1/"
   xmlns:cc="http://creativecommons.org/ns#"
   xmlns:rdf="http://www.w3.org/1999/02/22-rdf-syntax-ns#"
   xmlns:svg="http://www.w3.org/2000/svg"
   xmlns="http://www.w3.org/2000/svg"
   version="1.1"
   width="560"
   height="560"
   id="pet_chicken">
  <g
     transform="translate(-1.8334167e-7,-1)"
     id="g129714"
     style="display:inline;enable-background:new">
    <path
       d="m 132.80317,529.18108 c 0,0 -3.66897,0.87682 -4.03972,1.4735 -0.37074,0.59669 -0.80147,1.50795 -0.80147,1.50795 0,0 1.82981,-0.38369 1.98606,-0.92155 0.15625,-0.53786 4.50592,0.16492 4.50592,0.16492"
       id="path2501-4"
       style="fill:#ffd42a;fill-opacity:1;fill-rule:evenodd;stroke:#d4aa00;stroke-width:0.99999994;stroke-miterlimit:4;stroke-dasharray:none;marker:none;visibility:visible;display:inline;overflow:visible;enable-background:accumulate" />
    <path
       d="m 114.50325,521.78604 c 0,0 5.26104,-0.75159 6.69532,-0.55684 1.43429,0.19475 3.13826,1.10272 3.13826,1.10272 0,0 -2.63779,-0.31921 -3.36584,-0.11852 -0.72805,0.20068 -2.01965,1.26102 -2.01965,1.26102"
       id="path2475"
       style="fill:#ffd42a;fill-opacity:1;fill-rule:evenodd;stroke:#d4aa00;stroke-width:0.99999994;stroke-miterlimit:4;stroke-dasharray:none;marker:none;visibility:visible;display:inline;overflow:visible;enable-background:accumulate" />
    <path
       d="m 118.92528,525.85836 c -0.44459,-0.4112 8.28474,-1.53076 8.45461,-2.03676 0.16987,-0.50601 -11.87083,-1.74707 -11.87083,-1.74707"
       id="path2481"
       style="fill:#ffd42a;fill-opacity:1;fill-rule:evenodd;stroke:#d4aa00;stroke-width:0.99999994;stroke-miterlimit:4;stroke-dasharray:none;marker:none;visibility:visible;display:inline;overflow:visible;enable-background:accumulate" />
    <path
       d="m 107.68957,505.39684 c 0.46538,2.30311 4.99079,19.24643 6.62296,19.69425 1.63217,0.44782 6.66127,2.34923 7.09706,2.53929 0.53473,0.2332 2.8194,2.04909 2.8194,2.04909 0,0 -1.41978,-2.92299 -2.08289,-3.07633 -0.66311,-0.15334 -5.15096,-3.18701 -5.39844,-3.84301 -2.96635,-5.63004 -4.92895,-14.29227 -5.31212,-17.59482"
       id="path2487-9"
       style="fill:#ffd42a;fill-opacity:1;fill-rule:evenodd;stroke:#d4aa00;stroke-width:0.99999994;stroke-miterlimit:4;stroke-dasharray:none;marker:none;visibility:visible;display:inline;overflow:visible;enable-background:accumulate" />
    <path
       d="m 93.214366,491.78726 c 0,0 1.471886,9.61055 5.45464,10.56295 3.982754,0.95239 8.398414,5.6278 9.264224,5.80096 0.86582,0.17317 4.06934,1.55847 4.58883,1.55847 0.51949,0 10.99586,-6.06071 10.99586,-6.06071"
       id="path2454-0"
       style="fill:#e6e6e6;fill-opacity:1;fill-rule:evenodd;stroke:#b3b3b3;stroke-width:0.99999994;stroke-miterlimit:4;stroke-dasharray:none;marker:none;visibility:visible;display:inline;overflow:visible;enable-background:accumulate" />
    <path
       d="m 134.15941,452.44519 c -9.07354,7.61006 -9.95162,5.46363 -10.63458,5.65876 -0.68295,0.19513 -7.12224,5.07338 -9.95163,5.07338 -2.82938,0 -9.1711,-1.17078 -12.68344,-0.2927 -3.512335,0.87809 -20.781334,7.02468 -20.781334,7.02468 0,0 1.17078,18.53734 7.024677,22.34237 5.853897,3.80504 16.293347,5.8539 16.293347,5.8539 0,0 39.8065,2.53669 45.07501,-8.97597 5.26851,-11.51267 4.29285,-20.68377 4.29285,-20.68377 l -9.75649,-16.19578"
       id="path2926-2"
       style="fill:#e6e6e6;fill-opacity:1;fill-rule:evenodd;stroke:#b3b3b3;stroke-width:0.99999994;stroke-miterlimit:4;stroke-dasharray:none;marker:none;visibility:visible;display:inline;overflow:visible;enable-background:accumulate" />
    <path
       d="m 133.91402,529.20926 c 0,0 4.95646,-1.91756 6.39774,-2.05095 1.44129,-0.13339 3.30601,0.36733 3.30601,0.36733 0,0 -2.64189,0.28328 -3.30601,0.64284 -0.66412,0.35955 -1.68361,1.68361 -1.68361,1.68361"
       id="path2446-2"
       style="fill:#ffd42a;fill-opacity:1;fill-rule:evenodd;stroke:#d4aa00;stroke-width:0.99999994;stroke-miterlimit:4;stroke-dasharray:none;marker:none;visibility:visible;display:inline;overflow:visible;enable-background:accumulate" />
    <path
       d="m 139.13985,532.18062 c -0.52581,-0.30046 7.72686,-3.35792 7.77836,-3.88919 0.0515,-0.53126 -11.95924,0.9723 -11.95924,0.9723"
       id="path2438-57"
       style="fill:#ffd42a;fill-opacity:1;fill-rule:evenodd;stroke:#d4aa00;stroke-width:0.99999994;stroke-miterlimit:4;stroke-dasharray:none;marker:none;visibility:visible;display:inline;overflow:visible;enable-background:accumulate" />
    <path
       d="m 123.58311,514.77652 c 0.9723,2.13905 9.19861,17.6272 10.88971,17.69579 1.69111,0.0686 7.01929,0.78808 7.48669,0.87506 0.57353,0.10674 3.20857,1.36122 3.20857,1.36122 0,0 -2.04182,-2.52797 -2.72243,-2.52797 -0.6806,0 -5.73655,-1.94459 -6.12546,-2.52797 -4.15851,-4.81698 -8.02221,-12.81435 -9.13959,-15.94566"
       id="path2942-4"
       style="fill:#ffd42a;fill-opacity:1;fill-rule:evenodd;stroke:#d4aa00;stroke-width:0.99999994;stroke-miterlimit:4;stroke-dasharray:none;marker:none;visibility:visible;display:inline;overflow:visible;enable-background:accumulate" />
    <path
       d="m 100.11753,502.70193 c 0,0 6.7138,5.0648 7.18494,5.18258 0.47115,0.11778 4.2403,1.649 4.94701,1.649 0.70672,0 3.88694,-1.88457 3.88694,-1.88457 l 0.35336,-5.8893 c -4.77237,0.36275 -4.88304,3.66431 -16.37225,0.94229 z"
       id="path3396"
       style="fill:#000000;fill-opacity:0.09134617;fill-rule:evenodd;stroke:none;stroke-width:0;marker:none;visibility:visible;display:inline;overflow:visible;enable-background:accumulate" />
    <path
       d="m 141.5789,492.81226 c -1.94811,8.40284 -1.84851,11.42699 -7.34228,17.19169 -0.35816,1.07448 -3.93977,6.08872 -5.19333,6.2678 -1.25356,0.17909 -5.19332,0 -6.08872,-0.71631 -0.8954,-0.71633 -3.04436,-6.08873 -4.29792,-6.62597 -1.25356,-0.53724 -11.81929,-6.44688 -12.17745,-7.34229 -0.35816,-0.8954 -4.65608,-5.90964 -4.65608,-5.90964"
       id="path2934-2"
       style="fill:#e6e6e6;fill-opacity:1;fill-rule:evenodd;stroke:#b3b3b3;stroke-width:0.99999994;stroke-miterlimit:4;stroke-dasharray:none;marker:none;visibility:visible;display:inline;overflow:visible;enable-background:accumulate" />
    <path
       d="m 157.48509,448.57583 c 3.35513,-1.13009 2.34709,-6.0387 2.34709,-6.0387 l -1.9603,-2.07184 -6.03169,3.43737 0.67856,2.82523 c 0,0 1.6866,2.3659 4.96634,1.84794 z"
       id="path3609-2"
       style="fill:#ff1616;fill-opacity:1;fill-rule:evenodd;stroke:#aa0000;stroke-width:0.99999994;stroke-miterlimit:4;stroke-dasharray:none;marker:none;visibility:visible;display:inline;overflow:visible;enable-background:accumulate" />
    <path
       d="m 147.35754,432.9442 c -7.79058,4.53737 -9.08018,6.82164 -10.27874,9.21874 -1.19855,2.3971 -3.51004,10.18768 -4.96542,11.64307 -1.45538,1.45538 -2.65394,2.05465 -2.65394,2.05465 l 4.19494,-1.45538 -0.51367,5.82153 c 1.49117,-1.8294 2.30452,-3.75564 2.73954,-5.73592 l 1.11294,7.44814 c 0.52377,-2.35509 1.45951,-4.16089 3.33882,-4.70859 l 0.17123,5.30787 c 2.22861,-0.053 3.7347,-1.18974 4.45176,-3.51005 l -0.17123,6.93448 c 0.77362,-1.5633 1.77212,-2.67682 3.59566,-2.14027 0.69062,3.70033 0.22486,5.47338 -0.42806,6.93447 l 2.65394,-1.19855 -0.25683,4.28054 c 0,0 2.99637,-4.10932 2.82515,-5.30787 -0.17122,-1.19855 -1.36977,-2.22588 -1.02733,-3.59565 0.71507,-2.86027 2.31149,-8.98914 1.79783,-10.61574 -0.51367,-1.6266 -3.68127,-13.18406 -3.68127,-13.18406 l -2.90532,-8.19141 z"
       id="path3621-7"
       style="fill:#e6e6e6;fill-opacity:1;fill-rule:evenodd;stroke:#b3b3b3;stroke-width:0.99999994;stroke-miterlimit:4;stroke-dasharray:none;marker:none;visibility:visible;display:inline;overflow:visible;enable-background:accumulate" />
    <path
       d="m 156.96368,434.18911 c -1.41282,-2.76569 -7.79171,-2.35335 -10.02617,-1.32641 -2.28153,1.04856 -3.8232,5.26666 -3.8232,5.26666 l 3.27703,-2.18469 -2.88691,4.79851 2.92592,-2.06765 -2.69184,6.74913 2.88691,-3.4721 -0.9363,4.17432 1.20938,-1.9116 -0.15605,4.4474 2.10667,-3.39407 0.62419,6.24197 0.70223,-2.57481 1.20938,4.29135 0.50716,-4.05728 1.79457,4.17432 c 0,0 -0.45615,-4.68724 -0.9363,-5.53975 -1.29711,-2.30303 3.72597,-6.44033 4.67473,-5.52428 l 3.39341,-3.536 -3.85481,-4.55502 z"
       id="path3591-1"
       style="fill:#e6e6e6;fill-opacity:1;fill-rule:evenodd;stroke:#b3b3b3;stroke-width:0.99999994;stroke-miterlimit:4;stroke-dasharray:none;marker:none;visibility:visible;display:inline;overflow:visible;enable-background:accumulate" />
    <path
       d="m 153.84143,444.15784 c 0,0 -4.35774,3.86385 -5.51013,5.51013 -1.1524,1.64628 -0.16699,6.17089 -1.4017,8.80494 -1.23472,2.63405 3.04507,10.29453 3.04507,10.7061 0,0.28643 -0.59474,3.02849 -1.03114,5.01874 -0.0298,3.05509 2.91783,1.87614 3.83321,-0.0248 l 0.40412,-5.24369 c 0,0 -1.39262,-3.12315 -1.06336,-3.61703 0.32926,-0.49389 2.05422,-8.72881 2.05422,-10.78666 0,-2.05785 -1.06687,-3.78584 -1.39613,-5.26749 z"
       id="path3411"
       style="fill:#cccccc;fill-opacity:1;fill-rule:evenodd;stroke:none;stroke-width:0;marker:none;visibility:visible;display:inline;overflow:visible;enable-background:accumulate" />
    <path
       d="m 152.35645,435.67546 c -0.80828,0 -3.1826,0.80828 -3.1826,2.47536 0,1.66707 2.17225,4.39501 2.57639,4.39501 0.40414,0 1.01035,-0.35362 1.56604,-0.35362 0.55569,0 1.01035,1.11138 1.01035,1.11138 l 2.52587,-1.26293 -0.50517,-2.77846 1.51552,-1.41449 c 0,0 -2.72794,-2.22277 -5.5064,-2.17225 z"
       id="path3653-0"
       style="fill:#ff1616;fill-opacity:1;fill-rule:evenodd;stroke:#aa0000;stroke-width:0.99999994;stroke-miterlimit:4;stroke-dasharray:none;marker:none;visibility:visible;display:inline;overflow:visible;enable-background:accumulate" />
    <path
       d="m 159.5184,437.36588 c 3.6512,2.75859 5.60209,5.62446 3.83329,5.70722 -1.4903,0.0697 -1.54481,-0.71723 -1.87584,-0.71723 -0.33103,0 -3.61375,-0.16552 -3.61375,-0.16552 l -0.46627,-2.64441"
       id="path2808-3"
       style="fill:#ffd42a;fill-opacity:1;fill-rule:evenodd;stroke:#d4aa00;stroke-width:0.99999994;stroke-miterlimit:4;stroke-dasharray:none;marker:none;visibility:visible;display:inline;overflow:visible;enable-background:accumulate" />
    <path
       d="m 162.85514,442.90758 c -1.68273,-1.1586 -2.84134,-3.14478 -3.28271,-2.86892 -0.44138,0.27586 -1.54481,2.01376 -1.54481,2.01376"
       id="path3580-4"
       style="fill:#000000;fill-opacity:0.09134617;fill-rule:evenodd;stroke:none;stroke-width:0;marker:none;visibility:visible;display:inline;overflow:visible;enable-background:accumulate" />
    <path
       d="m 150.6839,431.71904 c -0.80211,-1.45984 -2.41392,-6.26087 -1.917,-6.40766 1.50561,1.15563 1.76384,1.99149 3.04306,2.58087 0,0 0.38764,-3.59385 0.71591,-4.0081 0.72833,0.49702 2.06582,4.58978 2.06582,4.58978 0,0 2.27172,-4.92974 2.91919,-5.68543 0.73637,0.71123 -0.0547,7.56526 -0.0547,7.56526 0,0 2.11994,-4.00457 2.99537,-4.33796 0.45314,0.95571 0.27811,4.63786 0.27811,4.63786 1.39177,-2.01946 0.95382,-0.41826 1.49335,-0.76949 0.99401,2.40822 0.82443,6.76744 -1.84122,7.81741 -2.26286,0.47044 -9.24388,-3.86378 -9.6979,-5.98254 z"
       id="path3633-4"
       style="fill:#ff1616;fill-opacity:1;fill-rule:evenodd;stroke:#aa0000;stroke-width:0.99999994;stroke-miterlimit:4;stroke-dasharray:none;marker:none;visibility:visible;display:inline;overflow:visible;enable-background:accumulate" />
    <path
       d="m 493.26451,330.6062 a 5.8707986,5.7533827 0 1 1 -11.7416,0 5.8707986,5.7533827 0 1 1 11.7416,0 z"
       transform="matrix(0.29902966,0,0,0.28934961,7.1019331,342.62982)"
       id="path3601-6"
       style="fill:#000000;fill-opacity:1;fill-rule:evenodd;stroke:none;stroke-width:0;marker:none;visibility:visible;display:inline;overflow:visible;enable-background:accumulate" />
    <path
       d="m 493.26451,330.6062 a 5.8707986,5.7533827 0 1 1 -11.7416,0 5.8707986,5.7533827 0 1 1 11.7416,0 z"
       transform="matrix(0.26616924,0,0,0.25755293,23.098761,353.12827)"
       id="path3643-7"
       style="fill:#ffba24;fill-opacity:1;fill-rule:evenodd;stroke:none;stroke-width:0;marker:none;visibility:visible;display:inline;overflow:visible;enable-background:accumulate" />
    <path
       d="m 493.26451,330.6062 a 5.8707986,5.7533827 0 1 1 -11.7416,0 5.8707986,5.7533827 0 1 1 11.7416,0 z"
       transform="matrix(0.19800514,0,0,0.18538666,56.332943,376.96043)"
       id="path3645-4"
       style="fill:#000000;fill-opacity:1;fill-rule:evenodd;stroke:none;stroke-width:0;marker:none;visibility:visible;display:inline;overflow:visible;enable-background:accumulate" />
    <path
       d="m 152.22238,437.07454 c 0.24795,1.19568 1.08457,1.18834 2.11293,0.91927 -1.16594,-0.0701 -1.49412,-0.14395 -2.11293,-0.91927 z"
       id="path3647-6"
       style="fill:#ffffff;fill-opacity:1;fill-rule:evenodd;stroke:none;stroke-width:3;marker:none;visibility:visible;display:inline;overflow:visible;enable-background:accumulate" />
    <path
       d="m 163.52189,442.98078 c 0,0 -1.64318,-1.57173 -2.95594,-2.00039 -1.31275,-0.42865 -3.0363,-1.28596 -3.0363,-1.28596"
       id="path3649-98"
       style="fill:none;stroke:#d4aa00;stroke-width:1.17681134;stroke-linecap:butt;stroke-linejoin:miter;stroke-miterlimit:4;stroke-opacity:1;stroke-dasharray:none;stroke-dashoffset:0;marker:none;visibility:visible;display:inline;overflow:visible;enable-background:accumulate" />
    <path
       d="m 82.598383,475.09891 c -9.808941,-2.95826 -13.234284,-1.08989 -12.922889,-0.3114 0.311395,0.77849 12.922889,2.95825 12.922889,2.95825 0,0 -11.054517,-1.86837 -11.054517,0.93419 0,2.80255 15.102652,1.24558 15.102652,1.24558 0,0 -11.365916,2.33546 -9.653242,5.13801 1.712671,2.80256 16.036836,-3.73674 16.036836,-3.73674"
       id="path3283-0"
       style="fill:#e6e6e6;fill-opacity:1;fill-rule:evenodd;stroke:#b3b3b3;stroke-width:0.99999994;stroke-miterlimit:4;stroke-dasharray:none;marker:none;visibility:visible;display:inline;overflow:visible;enable-background:accumulate" />
    <path
       d="m 86.989663,476.41403 c -13.750809,4.13502 -15.602154,4.99817 -14.807842,6.44653 1.671032,3.047 19.80845,-2.23683 19.804807,-2.24622"
       id="path3293-7"
       style="fill:#e6e6e6;fill-opacity:1;fill-rule:evenodd;stroke:#b3b3b3;stroke-width:1.17681134;stroke-linecap:butt;stroke-linejoin:miter;stroke-miterlimit:4;stroke-opacity:1;stroke-dasharray:none;stroke-dashoffset:0;marker:none;visibility:visible;display:inline;overflow:visible;enable-background:accumulate" />
    <path
       d="m 99.808569,465.38638 c -10.941674,-0.4911 -15.328171,-30.21248 -21.166897,-27.93526 -3.253992,0.98711 12.48601,26.45278 12.48601,26.45278 0,0 -11.350057,-22.24828 -14.449779,-21.36263 -4.396636,1.25621 9.528888,24.24729 9.528888,24.24729 0,0 -11.496365,-22.04778 -13.717222,-20.70168 -2.220857,1.3461 8.456959,22.05917 8.456959,22.05917 8.76e-4,-4.4e-4 -8.416931,-15.74527 -10.471455,-13.4529 -2.054521,2.29238 9.283654,17.86473 9.283654,17.86473 0,0 -8.911018,-11.28388 -9.894733,-9.16261 -1.018545,2.19638 7.349445,12.55633 7.349445,12.55633 0,0 7.635864,7.97523 17.307961,6.27838 9.6721,-1.69686 9.6721,-1.69686 9.6721,-1.69686"
       id="path2918-2"
       style="fill:#e6e6e6;fill-opacity:1;fill-rule:evenodd;stroke:#b3b3b3;stroke-width:0.99999994;stroke-miterlimit:4;stroke-dasharray:none;marker:none;visibility:visible;display:inline;overflow:visible;enable-background:accumulate" />
    <path
       d="m 113.92615,523.04107 c 0,0 -3.52008,1.35619 -3.80832,1.99681 -0.28825,0.64063 -0.59417,1.60101 -0.59417,1.60101 0,0 1.76266,-0.62323 1.84612,-1.17707 0.0834,-0.55385 4.48793,-0.4348 4.48793,-0.4348"
       id="path2493-76"
       style="fill:#ffd42a;fill-opacity:1;fill-rule:evenodd;stroke:#d4aa00;stroke-width:0.99999994;stroke-miterlimit:4;stroke-dasharray:none;marker:none;visibility:visible;display:inline;overflow:visible;enable-background:accumulate" />
    <path
       d="M 83.732163,465.55867 C 74.615611,454.4649 73.105466,453.08942 72.075274,454.3807 c -2.167255,2.71653 9.700405,17.41495 9.70766,17.40796"
       id="path3289"
       style="fill:#e6e6e6;fill-opacity:1;fill-rule:evenodd;stroke:#b3b3b3;stroke-width:0.99999994;stroke-linecap:butt;stroke-linejoin:miter;stroke-miterlimit:4;stroke-opacity:1;stroke-dasharray:none;stroke-dashoffset:0;marker:none;visibility:visible;display:inline;overflow:visible;enable-background:accumulate" />
    <path
       d="m 87.864738,464.87064 c -7.401192,-12.3047 -8.694596,-13.88571 -9.902087,-12.75847 -2.540258,2.37141 7.056937,18.64344 7.065134,18.63759"
       id="path3291-6"
       style="fill:#e6e6e6;fill-opacity:1;fill-rule:evenodd;stroke:#b3b3b3;stroke-width:0.99999994;stroke-linecap:butt;stroke-linejoin:miter;stroke-miterlimit:4;stroke-opacity:1;stroke-dasharray:none;stroke-dashoffset:0;marker:none;visibility:visible;display:inline;overflow:visible;enable-background:accumulate" />
    <path
       d="m 140.87148,496.34149 c 0,0 -1.41343,7.77387 -2.47351,8.83394 -1.06007,1.06008 -3.88693,4.47587 -3.88693,4.47587 0,0 -4.47587,6.59602 -5.18259,6.7138 -0.70671,0.11779 -6.24265,-0.70671 -6.24265,-0.70671 l 6.36044,-5.41816 3.65136,-11.7786 c 4.65091,-4.34954 5.90708,-1.39548 7.77388,-2.12014 z"
       id="path3394-5"
       style="fill:#000000;fill-opacity:0.09134617;fill-rule:evenodd;stroke:none;stroke-width:0;marker:none;visibility:visible;display:inline;overflow:visible;enable-background:accumulate" />
    <path
       d="m 135.50224,530.60508 3.22455,0.47667 -2.24316,-1.2057 -5.97242,-8.69225 -2.10296,-4.90691 -1.87865,-0.0561 c 3.3707,6.82385 6.08976,11.4823 8.97264,14.38427 z"
       id="path3407"
       style="fill:#000000;fill-opacity:0.09134617;fill-rule:evenodd;stroke:none;stroke-width:0;marker:none;visibility:visible;display:inline;overflow:visible;enable-background:accumulate" />
    <path
       d="m 115.42595,523.09049 1.4861,0.028 -2.91612,-7.06596 -1.12158,-4.03769 -0.42059,-2.29924 -1.4861,-0.47667 c 0.36002,5.0274 2.23446,9.40172 4.45829,13.85152 z"
       id="path3409"
       style="fill:#000000;fill-opacity:0.09134617;fill-rule:evenodd;stroke:none;stroke-width:0;marker:none;visibility:visible;display:inline;overflow:visible;enable-background:accumulate" />
    <path
       d="m 102.23158,494.28316 -0.32925,1.81091 1.97553,1.89322 c 0,0 -15.063469,-3.45719 -17.368261,-6.09123 -2.304794,-2.63405 -3.539507,-6.66744 -3.539507,-6.66744 l 3.457191,-1.23471 c 3.660974,4.39514 8.719456,8.2523 15.804297,10.28925 z"
       id="path3413"
       style="fill:#cccccc;fill-opacity:1;fill-rule:evenodd;stroke:none;stroke-width:0;marker:none;visibility:visible;display:inline;overflow:visible;enable-background:accumulate" />
    <path
       d="m 107.43725,474.3271 c 0,0 -15.625457,2.97628 -16.245513,1.73616 -0.620058,-1.24011 6.32459,-1.73616 6.32459,-1.73616 0,0 -8.737276,1.44975 -9.052846,0.24802 -0.317084,-1.2075 8.432788,-2.23221 8.432788,-2.23221 0,0 -9.182984,-0.0269 -9.176855,-1.73616 0.0061,-1.7092 6.572613,-1.1161 6.572613,-1.1161 0,0 -7.712049,-0.63154 -7.812732,-2.85227 -0.09963,-2.19763 7.688719,0.99209 7.688719,0.99209 0,0 -8.181954,-3.74765 -7.086881,-5.27165 1.177217,-1.63832 8.575019,4.03154 8.575019,4.03154 0,0 -7.835064,-5.36717 -6.324588,-6.82064 1.497861,-1.44133 3.348311,1.48814 4.588427,2.72826 1.240115,1.24011 5.405439,0.92034 6.891749,0.96359 1.41321,0.0411 8.44421,3.33053 8.44421,3.33053"
       id="path2922-1"
       style="fill:#e6e6e6;fill-opacity:1;fill-rule:evenodd;stroke:#b3b3b3;stroke-width:0.99999994;stroke-miterlimit:4;stroke-dasharray:none;marker:none;visibility:visible;display:inline;overflow:visible;enable-background:accumulate" />
    <g
       id="g129702">
      <path
         d="m 148.2029,470.47101 c -0.25315,13.16358 -8.71235,12.99073 -10.7587,19.87194 -0.99741,3.35395 -22.83432,6.39058 -25.56772,5.44263 -1.51266,-0.52458 -8.98668,-0.25314 -8.98668,-1.77201 0,-1.51888 17.34049,-6.0755 17.34049,-6.0755 0,0 -15.94818,5.44263 -16.45448,3.54404 -0.50629,-1.8986 14.80903,-6.96151 14.80903,-6.96151 0,0 -11.39156,4.68319 -11.6447,2.15173 -0.25315,-2.53145 9.49296,-4.68319 9.49296,-4.68319 0,0 -8.98667,2.15174 -8.60696,0.50629 0.37972,-1.64545 6.20208,-2.40488 6.20208,-2.40488 0,0 -3.2909,-0.25315 -3.16433,-1.13916 0.12658,-0.88601 8.60476,-2.96915 8.60476,-2.96915 l 10.00146,8.66493"
         id="path3665-52"
         style="fill:#e6e6e6;stroke:#b3b3b3;stroke-width:0.99999994;stroke-linecap:butt;stroke-linejoin:miter;stroke-miterlimit:4;stroke-opacity:1;stroke-dasharray:none;stroke-dashoffset:0;marker:none;visibility:visible;display:inline;overflow:visible;enable-background:accumulate" />
      <path
         d="m 148.2029,470.47101 c -0.25315,13.16358 -3.67062,18.73278 -10.7587,19.87194 -7.08808,1.13916 -24.04885,5.94893 -25.56772,5.44263 -1.51888,-0.50629 -8.98668,-0.25314 -8.98668,-1.77201 0,-1.51888 21.75596,-7.07902 21.75596,-7.07902 0,0 -20.36365,6.44615 -20.86995,4.54756 -0.50629,-1.8986 14.80903,-6.96151 14.80903,-6.96151 0,0 -11.39156,4.68319 -11.6447,2.15173 -0.25315,-2.53145 9.49296,-4.68319 9.49296,-4.68319 0,0 -8.98667,2.15174 -8.60696,0.50629 0.37972,-1.64545 6.20208,-2.40488 6.20208,-2.40488 0,0 -3.89301,-0.65461 -3.76644,-1.54057 0.12658,-0.88601 5.35944,-1.54963 5.35944,-1.54963 l 13.84889,7.64682"
         id="path3667-5"
         style="fill:#e6e6e6;fill-opacity:1;fill-rule:evenodd;stroke:#b3b3b3;stroke-width:0.99999994;stroke-miterlimit:4;stroke-dasharray:none;marker:none;visibility:visible;display:inline;overflow:visible;enable-background:accumulate" />
      <path
         d="m 120.54483,482.78149 c -10.63838,2.89061 -12.07068,3.494 -11.45616,4.50648 1.2928,2.13002 15.3249,-1.56367 15.32208,-1.57023"
         id="path3295"
         style="fill:#e6e6e6;fill-opacity:1;fill-rule:evenodd;stroke:#b3b3b3;stroke-width:0.99999994;stroke-linecap:butt;stroke-linejoin:miter;stroke-miterlimit:4;stroke-opacity:1;stroke-dasharray:none;stroke-dashoffset:0;marker:none;visibility:visible;display:inline;overflow:visible;enable-background:accumulate" />
      <path
         d="m 120.73592,476.57101 c -10.63838,2.89061 -12.07068,3.494 -11.45616,4.50648 1.29281,2.13002 15.32491,-1.56366 15.32208,-1.57023"
         id="path3297-6"
         style="fill:#e6e6e6;fill-opacity:1;fill-rule:evenodd;stroke:#b3b3b3;stroke-width:0.99999994;stroke-linecap:butt;stroke-linejoin:miter;stroke-miterlimit:4;stroke-opacity:1;stroke-dasharray:none;stroke-dashoffset:0;marker:none;visibility:visible;display:inline;overflow:visible;enable-background:accumulate" />
      <path
         d="m 151.74311,472.36798 c 0,8.74471 -8.91302,18.40993 -13.21585,18.40993 -4.30284,0 -19.87501,-4.14223 -20.89949,-11.50621 -1.02449,-7.36397 15.77706,-9.20497 15.77706,-9.20497"
         id="path3675-30-0"
         style="fill:#e6e6e6;stroke:#b3b3b3;stroke-width:0.99999994;stroke-miterlimit:4;stroke-dasharray:none;marker:none;visibility:visible;display:inline;overflow:visible;enable-background:accumulate" />
      <path
         d="m 148.94353,474.19775 c -1.22107,1.01254 -2.74768,1.50878 -3.40758,2.15894 -1.11606,1.09958 -3.32751,4.67967 -6.80711,7.33879 -3.47961,2.65913 -12.26088,7.27935 -16.99765,8.90162 -4.73677,1.62226 -13.96868,2.50533 -13.96868,2.50534 l 5.01068,0.75724 c 0,0 7.27636,-0.93345 13.15505,-1.22448 10.33784,-2.74861 10.93768,-4.63797 13.14699,-3.89898 11.69918,-6.16972 13.70151,-16.56324 13.70151,-16.56325 0,0 -2.23641,-1.29932 -3.83321,0.0248 z"
         id="path3411-9"
         style="fill:#cccccc;fill-opacity:1;fill-rule:evenodd;stroke:none;stroke-width:0;marker:none;visibility:visible;display:inline;overflow:visible;enable-background:accumulate" />
      <path
         d="m 131.53036,470.26191 -7.23149,4.7716 9.8692,-0.91876 -3.67501,3.40829 13.07002,-1.71896 -6.8462,5.98672 8.32807,-1.60041 -1.45223,5.15688 4.17885,-1.89678"
         id="path2505-4"
         style="fill:none;stroke:#b3b3b3;stroke-width:0.99999994;stroke-linecap:butt;stroke-linejoin:miter;stroke-miterlimit:4;stroke-opacity:1;stroke-dasharray:none;stroke-dashoffset:0;marker:none;visibility:visible;display:inline;overflow:visible;enable-background:accumulate" />
      <path
         d="m 123.46019,472.55281 -4.22929,5.17769 6.78693,-0.0593 -3.43792,3.7343 9.8692,0.0889 -4.00103,4.56413 10.28413,-0.8002 -2.60808,4.08994 6.19419,-0.32601"
         id="path3277-3"
         style="fill:none;stroke:#b3b3b3;stroke-width:0.99999994;stroke-linecap:butt;stroke-linejoin:miter;stroke-miterlimit:4;stroke-opacity:1;stroke-dasharray:none;stroke-dashoffset:0;marker:none;visibility:visible;display:inline;overflow:visible;enable-background:accumulate" />
      <path
         d="m 151.74311,472.36798 c 0,8.74471 -8.91302,18.40993 -13.21585,18.40993 -4.30284,0 -19.87501,-4.14223 -20.89949,-11.50621 -1.02449,-7.36397 15.77706,-9.20497 15.77706,-9.20497"
         id="path3675-30"
         style="fill:none;stroke:#b3b3b3;stroke-width:0.99999994;stroke-miterlimit:4;stroke-dasharray:none;marker:none;visibility:visible;display:inline;overflow:visible;enable-background:accumulate" />
      <path
         d="m 127.42648,488.19209 c -13.93492,3.46427 -17.33117,5.03956 -16.60793,6.5247 1.52151,3.12434 21.1981,-1.37531 21.19492,-1.38486"
         id="path3279-5"
         style="fill:none;stroke:#b3b3b3;stroke-width:0.99999994;stroke-linecap:butt;stroke-linejoin:miter;stroke-miterlimit:4;stroke-opacity:1;stroke-dasharray:none;stroke-dashoffset:0;marker:none;visibility:visible;display:inline;overflow:visible;enable-background:accumulate" />
    </g>
  </g>
</svg>
