<?xml version="1.0" encoding="UTF-8" standalone="no"?>
<!-- Created with Inkscape (http://www.inkscape.org/) -->

<svg
   xmlns:dc="http://purl.org/dc/elements/1.1/"
   xmlns:cc="http://creativecommons.org/ns#"
   xmlns:rdf="http://www.w3.org/1999/02/22-rdf-syntax-ns#"
   xmlns:svg="http://www.w3.org/2000/svg"
   xmlns="http://www.w3.org/2000/svg"
   version="1.1"
   width="560"
   height="560"
   id="pet_feline">
  <g
     transform="translate(-3.5244669e-6,-1.3177237e-7)"
     id="g42736">
    <path
       d="m 445.48416,541.68422 c -3.41712,-1.50952 -3.48113,-5.38399 -2.01349,-8.65571 -5.62461,0.1298 -9.67588,3.97087 -14.9597,1.8752 -5.52267,-2.19049 -12.24628,-6.46086 -16.82918,-9.95423 -2.90901,-2.21737 -7.27755,-6.28544 -5.46617,-11.10797 1.71044,-4.55346 7.63138,-9.20569 12.08271,-12.98335 5.38872,-4.57322 8.64148,-5.20026 14.95931,-7.50159 3.40882,-1.24183 6.80223,-2.73259 10.21283,-3.02932 2.26518,-0.19716 7.1529,0.65707 8.91826,-0.28863 0.65766,-0.35224 0.8001,-1.71991 1.15056,-2.45245 0.6223,-1.30091 0.7031,-1.42438 1.87026,-2.45246 1.86394,-1.64149 2.97479,-3.66327 4.45883,-4.61628 3.67869,-2.36198 5.24925,-1.07727 5.89743,-5.33776 0.19716,-1.29616 -0.1209,-2.56249 1.43841,-2.45245 1.42398,0.10055 1.7701,2.24383 2.30152,3.46236 2.30429,5.28283 6.64874,5.69612 11.07556,2.45245 1.61877,-1.18632 3.89165,-3.54375 6.18547,-2.30824 1.18652,0.63929 1.6326,4.47168 1.43821,6.34727 -0.23253,2.24344 -2.15771,3.72096 -2.73299,6.20325 -0.54209,2.33906 0.0306,4.26957 -0.86292,6.63609 -1.80625,4.78302 1.67725,7.59404 2.58916,12.83914 0.92614,5.32709 -1.47179,9.94535 -3.30846,14.71434 -1.58756,4.1222 -5.31346,8.47435 -9.78118,9.23257 -2.52239,0.4281 -4.55958,-1.15432 -6.90437,-1.44275 -2.31634,-0.28468 -5.28857,0.22897 -7.91092,0 -5.88242,-0.51384 -5.787,2.93904 -8.48699,6.92492 -1.34891,1.99175 -2.83335,3.57062 -5.32215,3.8956"
       id="path3-5"
       style="fill:#333333;fill-rule:evenodd;stroke:#000000;stroke-width:0.5;stroke-miterlimit:4;stroke-dasharray:none" />
    <path
       d="m 452.375,489.59375 c -0.32241,1.45895 -7.15569,0.41872 -9.0625,0.59375 -3.0716,0.28211 -7.25358,3.3125 -10.6875,3.3125 -2.26359,0 -6.23017,1.63566 -7.71875,2.46875 -2.4572,1.37519 -4.56102,3.16197 -7.03125,5.1875 -4.56631,3.74447 -9.99204,8.45665 -11.65625,12.6875 -1.79578,4.56552 2.07386,8.30796 4.875,10.53125 4.62972,3.67454 11.3027,7.97905 17,10.375 2.35665,0.99114 4.32145,1.12162 6.75,0.59375 1.51248,-0.32874 7.20412,-1.5193 8.0625,-2.8125 0.9536,-1.43662 1.83394,-3.09242 1.5625,-4.84375 -0.25683,-1.65808 -1.63115,-1.92592 -2.15625,-3.03125 -0.0118,-0.0247 -0.0208,-0.066 -0.0312,-0.0937 1.72251,-2.40383 4.26762,-3.54785 8.09375,-2.65625 0.83408,-3.14093 -3.86542,-3.45565 -2.59375,-5.46875 0.70764,-1.12034 1.66182,0.0245 2.03125,-1.71875 0.15528,-0.73254 -0.53206,-2.41841 -0.71875,-3.1875 -0.25057,-1.03315 -0.48412,-2.333 -0.9375,-3.46875 0.42413,0.48748 0.81316,0.98533 1.0625,1.4375 0.63515,1.15175 0.48581,3.18585 1.71875,3.46875 2.95365,0.67742 3.08955,-7.18203 3.90625,-8.9375 1.05879,-2.27633 2.26937,-3.58686 1.90625,-6 -0.94936,-0.57383 -1.85028,-1.23753 -2.34375,-1.9375 -0.53873,-0.76394 -0.29519,-1.7839 -0.71875,-2.875 -0.32656,-0.84139 -1.39206,-1.64573 -1.4375,-2.46875 -0.0179,-0.3223 0.0545,-0.69458 0.1875,-1.0625 -0.0196,-0.0319 -0.0431,-0.0618 -0.0625,-0.0937 z m -16.0625,12.875 c 4.35355,-0.22053 8.2678,1.97577 9.375,5.96875 0.0817,0.28348 0.13604,0.5752 0.1875,0.875 0.041,0.25072 0.0743,0.51854 0.0937,0.78125 0.004,0.0528 0.028,0.10294 0.0312,0.15625 0.003,0.0512 -0.002,0.10458 0,0.15625 0.0103,0.25457 0.0105,0.51613 0,0.78125 -4.3e-4,0.0108 4.6e-4,0.0204 0,0.0312 -0.0145,0.3416 -0.0432,0.67264 -0.0937,1.03125 -0.0842,0.59713 -0.21773,1.3706 -0.375,2.1875 -0.0371,0.19466 -0.0526,0.32804 -0.0937,0.53125 -0.0483,0.23757 -0.10246,0.44042 -0.15625,0.6875 -0.12309,0.57019 -0.25441,1.15096 -0.40625,1.75 -0.0265,0.10425 -0.0351,0.20793 -0.0625,0.3125 -0.0496,0.19012 -0.10384,0.37208 -0.15625,0.5625 -0.30027,1.09095 -0.64087,2.16426 -1.03125,3.15625 -0.0166,0.0422 -0.0457,0.0831 -0.0625,0.125 -0.1497,0.3733 -0.30668,0.75405 -0.46875,1.09375 -0.058,0.1212 -0.12787,0.25902 -0.1875,0.375 -0.0755,0.14664 -0.14077,0.30005 -0.21875,0.4375 -0.0328,0.0575 -0.0918,0.10046 -0.125,0.15625 -0.12016,0.20219 -0.24922,0.38523 -0.375,0.5625 -0.005,0.007 0.005,0.0245 0,0.0312 -0.44804,0.62661 -0.92097,1.0972 -1.4375,1.3125 -1.82068,0.75881 -4.41758,1.01816 -6.34375,1.15625 -2.58107,0.18531 -1.30595,-1.17137 -0.4375,-3.46875 -1.89061,0.0903 -2.52203,0.37578 -3.4375,0.875 -0.55098,0.30048 -0.74072,0.93459 -1.4375,1.15625 -1.58637,0.50455 -2.00164,0.0603 -1.875,-1.3125 0.17325,-1.87975 2.5159,-4.58291 3.4375,-6.5 2.04608,-4.25613 6.23308,-8.39172 11.9375,-4.90625 0.51108,0.31234 1.0742,0.97468 1.4375,1.3125 -3.27547,-6.5709 -9.88972,-2.88215 -15.9375,-3.59375 -2.27841,-0.26788 -8.85164,-0.002 -3.03125,-1.59375 2.89853,-0.79279 4.52972,0.4804 7.46875,0.125 3.67967,-0.4449 6.85377,-2.24813 10.375,-0.125 -1.34437,-3.12473 -6.65572,-1.41882 -9.78125,-2.03125 -1.82324,-0.35737 -2.56239,-1.16064 -0.59375,-1.875 1.74501,-0.63317 4.34272,-0.33382 6.1875,-0.125 -1.89661,-0.50962 -3.70653,-1.18364 -5.5,-1.59375 -0.27663,0.0873 -0.53772,0.1735 -0.8125,0.28125 -0.36528,-0.13138 0.029,-0.20161 0.125,-0.4375 0.22634,0.0427 0.46059,0.10436 0.6875,0.15625 1.03018,-0.32499 2.07711,-0.511 3.09375,-0.5625 z"
       id="path5-5"
       style="fill:#1a1a1a;fill-opacity:1;fill-rule:evenodd;stroke:none" />
    <path
       d="m 441.02513,526.82507 c 1.65591,-3.87585 4.47167,-6.04125 9.34972,-4.90452 0.83408,-3.14093 -3.86064,-3.46907 -2.58897,-5.48217 0.70764,-1.12034 1.64425,0.0119 2.01368,-1.73137 0.15528,-0.73254 -0.5328,-2.40445 -0.71949,-3.17354 -0.58714,-2.42085 -1.10632,-6.33245 -4.45903,-6.05883 -2.63619,0.21513 -3.51709,5.78937 -4.55228,8.38525 -0.93009,2.33194 -1.29735,5.03905 -1.9151,7.47293 -0.40381,1.59072 2.03581,4.13544 2.87147,5.49225"
       id="path7-6"
       style="fill:none;stroke:#000000;stroke-width:0;stroke-linecap:square;stroke-miterlimit:10" />
    <path
       d="m 466.78125,472.71875 c -1.91426,0.19554 -0.73683,4.67934 -2.03125,5.5 1.63399,1.17452 4.55403,1.83683 6.625,1.15625 -2.33175,-0.38938 -1.70577,-6.22697 -4.15625,-6.65625 -0.15686,-0.0275 -0.30988,-0.013 -0.4375,0 z M 467.4375,473 c 0.62013,0.0387 0.87617,0.92951 1.03125,1.375 0.15508,0.44549 0.76703,3.09642 0.4375,4.375 -0.32952,1.27858 -3.8125,-0.46875 -3.8125,-0.46875 0,0 0.019,-0.21764 0.40625,-0.625 0.38721,-0.40736 0.32865,-3.0139 0.40625,-3.75 0.0776,-0.73609 0.91113,-0.94495 1.53125,-0.90625 z"
       id="path11-3"
       style="fill:#1a1a1a;fill-opacity:1;fill-rule:evenodd;stroke:none" />
    <path
       d="m 485.53125,475.9375 c -3.6866,0.0701 -7.06843,6.27911 -11.5625,4.71875 1.64465,1.24847 2.37923,4.95333 5.59375,5.21875 -0.003,-0.0307 0,-0.125 0,-0.125 0.0782,-1.40343 0.57411,-3.20787 2.0625,-5.25 1.48838,-2.04213 2.35013,-3.52556 3.25,-3.90625 0.88125,-0.37281 1.57919,-0.46832 2.03125,-0.375 -0.45969,-0.19842 -0.92637,-0.28978 -1.375,-0.28125 z m 1.84375,0.53125 c 0.063,0.0618 0.12757,0.12691 0.1875,0.21875 0.0183,-0.0208 0.0442,-0.0423 0.0625,-0.0625 -0.0879,-0.0614 -0.16263,-0.10384 -0.25,-0.15625 z"
       id="path13-83"
       style="fill:#1a1a1a;fill-opacity:1;fill-rule:evenodd;stroke:none" />
    <path
       d="m 456.71875,497.6875 c 2.00835,2.39635 1.16933,4.26558 0,6.78125 -0.53459,1.14997 -0.92373,2.18425 -1.15625,3.46875 -0.34868,1.92597 0.25432,1.91941 0.5625,3.03125 0.38998,1.40561 0.18623,3.08224 0.28125,4.75 0.13157,2.30805 0.50632,2.04029 2.03125,3.1875 0.8161,0.6138 1.81917,1.15736 2.28125,2.28125 0.38504,0.93582 0.07,2.47039 0.71875,3.03125 1.13299,0.98007 6.90591,0.62471 8.65625,0.71875 2.74484,0.14777 6.00483,0.78356 8.46875,-0.125 2.38746,-0.88031 5.04471,-2.42956 5.90625,-4.625 1.15748,-2.9499 0.25675,-3.75237 -1.59375,-5.625 -0.74479,-0.75348 -1.74787,-2.17891 -1.28125,-3.46875 0.48026,-1.32717 3.32925,-2.25744 0.71875,-2.875 -1.31098,-0.31016 -2.93,1.11018 -4.3125,0.4375 -2.78968,-1.35721 -0.40602,-3.93768 1.15625,-5.625 -2.77704,-1.66678 -4.97936,1.26984 -8.5,0.125 -1.47199,-0.47867 -2.42507,-1.81159 -4.15625,-1.875 -0.58476,-0.0213 -1.32894,0.68221 -2.03125,0.71875 -1.59882,0.083 -3.32572,-0.31579 -3.8125,-1.78125 -0.57409,-1.72704 -2.29483,-1.872 -3.9375,-2.53125 z m 17.625,8.4375 c 0.78625,-0.0546 1.07737,0.66592 1.625,1.09375 0.3475,0.27144 0.23479,0.67562 0.59375,1 0.87438,0.79042 2.27428,1.22249 3.59375,1.71875 -1.12449,2.21677 1.33469,4.42536 1.875,6.0625 0.83487,2.5303 -1.8642,3.33671 -3.46875,5.625 -2.87049,4.09454 -10.15508,2.55341 -14.09375,0 -2.08382,-1.35088 -3.96204,-3.20105 -4.3125,-6.1875 -0.24398,-2.08263 -3.14427,-6.95047 -1,-7.21875 3.50819,-0.13433 9.99591,3.96117 12.78125,2.03125 1.5846,-1.09822 0.34096,-3.53107 2.03125,-4.0625 0.13377,-0.0421 0.26268,-0.0547 0.375,-0.0625 z"
       id="path15-3"
       style="fill:#1a1a1a;fill-opacity:1;fill-rule:evenodd;stroke:none" />
    <path
       d="m 458.43018,481.96018 c 3.34185,0.86134 -1.79855,2.64389 -2.73338,2.8851 0.9289,-0.54723 2.54728,-1.85623 2.73338,-2.8851"
       id="path17-8"
       style="fill:#1a1a1a;fill-rule:evenodd;stroke:none" />
    <path
       d="m 466.0625,484.40625 c -0.78686,0.0966 -3.55938,1.41332 -4.625,1.875 -2.20136,1.49688 2.44695,0.9082 2.75,0.875 0.68295,-0.0749 5.02359,0.28911 5.75,-0.4375 0.79279,-0.79299 -2.64205,-2.46383 -3.875,-2.3125 z m 0.84375,0.78125 c 0.98052,-0.024 1.98559,0.40836 3.03125,1.375 -1.56425,0.20368 -4.99868,0.89434 -5.90625,0 0.93009,-0.87082 1.89448,-1.35105 2.875,-1.375 z"
       id="path19-32"
       style="fill:#1a1a1a;fill-rule:evenodd;stroke:none" />
    <path
       d="m 466.90625,485.1875 c -0.98052,0.024 -1.94491,0.50418 -2.875,1.375 0.90757,0.89434 4.342,0.20368 5.90625,0 -1.04566,-0.96664 -2.05073,-1.39895 -3.03125,-1.375 z m -0.0625,0.34375 c 0.56257,0.003 0.9258,0.33427 1.3125,0.5 0.61872,0.26517 0.2636,0.64174 -0.15625,0.53125 -0.41984,-0.11048 -0.74399,0.13415 -1.03125,0.15625 -0.28727,0.0221 -0.99075,0.10571 -1.5,0 -0.20737,-0.043 -1.19606,0.0504 0.125,-0.71875 0.52204,-0.33974 0.91246,-0.47043 1.25,-0.46875 z"
       id="path21-8"
       style="fill:#191919;fill-opacity:1;fill-rule:evenodd" />
    <path
       d="m 464.90289,486.57646 c 0.0666,0.12347 0.1699,0.31589 0,0 m 3.88355,-0.14441 c 0.19222,0 0.19222,0 0,0"
       id="path27-5"
       style="fill:#6b3805;fill-rule:evenodd" />
    <path
       d="m 465.04671,486.57646 c -0.11517,0.11557 -0.11616,0.11676 0,0 m 3.73973,-0.14441 c 0,-0.19222 0,-0.19222 0,0"
       id="path29-9"
       style="fill:#703d0a;fill-rule:evenodd" />
    <path
       d="m 465.04671,486.43205 c 0,0.31688 0,0.31688 0,0 m 3.73973,-0.14422 c 0,0.19222 0,0.19222 0,0"
       id="path31-63"
       style="fill:#73400d;fill-rule:evenodd" />
    <path
       d="m 465.04671,486.43205 c 0.0599,0.40104 0.0599,0.40104 0,0 m 3.73973,-0.14422 c -0.16871,0.3153 -0.0664,0.12387 0,0"
       id="path33-88"
       style="fill:#75420f;fill-rule:evenodd" />
    <path
       d="m 465.04671,486.43205 c 0.11853,0.35244 0.12229,0.3637 0,0 m 3.73973,-0.14422 c -0.12209,0.0664 -0.3151,0.17128 0,0"
       id="path35-0"
       style="fill:#784512;fill-rule:evenodd" />
    <path
       d="m 453.25126,492.49108 c 0.97315,-3.60243 2.376,0.30858 4.02796,1.44275 1.56681,1.07569 5.62421,0.46979 6.90437,2.16383 -4.34583,0.83052 -8.23432,-1.97991 -9.78137,-4.61629 -0.40657,0.51187 -0.71358,0.58556 -0.71911,1.58697 -0.14382,-0.19262 -0.28784,-0.38484 -0.43185,-0.57726"
       id="path125-7"
       style="fill:#1a1a1a;fill-opacity:1;fill-rule:evenodd;stroke:none" />
    <path
       d="m 467.49206,485.71097 c -0.1859,2.91572 -2.60399,-1.18217 0,0"
       id="path127-3"
       style="fill:#1a1a1a;fill-rule:evenodd;stroke:none" />
    <path
       d="m 455.6968,486.43205 c 1.68238,-0.8404 3.22035,-2.05972 4.17158,-3.17354 1.18198,-1.38387 1.19166,-1.54547 3.30807,-2.16402 0.0814,0.3234 0.0814,0.34473 0.14402,0.72128 5.04537,-1.95205 2.49967,3.64549 -1.4382,3.60657 0.20328,-0.40578 0.28092,-0.92357 0.57508,-1.29833 -1.63023,0.63672 -2.60714,1.80447 -3.88335,3.17373 -0.73392,0.78745 -0.1863,1.81198 -2.01388,1.15392 -0.97573,-0.35106 -1.47812,-1.11165 -0.86332,-2.01961"
       id="path129-9"
       style="fill:#1a1a1a;fill-opacity:1;fill-rule:evenodd;stroke:none" />
    <path
       d="M 464.32761,478.49782"
       id="path131-4"
       style="fill:#d1a691;fill-rule:evenodd" />
    <path
       d="m 453.97115,486.14382 c 2.03028,-0.20665 1.11955,2.02079 3.30807,1.58676 -0.48382,0.85127 -2.35249,0.92891 -3.02063,1.73118 -0.0753,-0.67702 -0.28843,-1.09169 -0.14362,-1.73118 -0.28033,0.11854 -0.33624,0.11992 -0.57568,0.28843 -0.0986,-0.86035 0.084,-1.33014 0.43186,-1.87519"
       id="path133-4"
       style="fill:#1a1a1a;fill-opacity:1;fill-rule:evenodd;stroke:none" />
    <path
       d="m 456.70394,492.05824 c 1.76575,0.32201 4.65619,4.99322 5.6817,6.7082 1.74698,2.92165 4.30829,5.36245 5.82552,8.43938 -2.80687,-5.28383 -7.45635,-10.92523 -11.50722,-15.14758"
       id="path137-3"
       style="fill:#1a1a1a;fill-opacity:1;fill-rule:evenodd;stroke:none" />
    <path
       d="m 458.14214,492.05824 c 2.14743,0.66694 4.60878,4.33417 6.32909,6.05903 2.40465,2.41117 4.76208,5.05742 6.76055,7.79001 -4.31264,-4.63445 -8.7446,-9.4398 -13.08964,-13.84904"
       id="path139-6"
       style="fill:#1a1a1a;fill-opacity:1;fill-rule:evenodd;stroke:none" />
    <path
       d="m 459.00526,492.05824 c 2.19564,0.18866 5.80972,3.52498 7.7675,4.90491 2.64862,1.8671 5.35178,3.90627 7.76709,6.05883 -4.99914,-3.76047 -10.9428,-7.3384 -15.53459,-10.96374"
       id="path141-9"
       style="fill:#1a1a1a;fill-opacity:1;fill-rule:evenodd;stroke:none" />
    <path
       d="m 485.04073,490.03862 c -1.04231,1.04152 -4.575,0.53834 -5.60999,2.16403 -0.74933,1.17704 0.1377,5.75322 0.86332,6.34746 3.36002,2.75215 5.67024,-6.0535 4.74667,-8.51149"
       id="path143-2"
       style="fill:#1a1a1a;fill-opacity:1;fill-rule:evenodd;stroke:none" />
    <path
       d="m 467.34824,494.65511 c 2.97439,1.39217 -3.08484,1.48008 0,0"
       id="path149-0"
       style="fill:#1a1a1a;fill-opacity:1;fill-rule:evenodd;stroke:none" />
    <path
       d="m 449.78125,530.125 c -2.275,0.0949 -4.85316,2.25193 -6.59375,3.46875 -0.88011,2.26439 -1.06351,4.92858 0.28125,6.78125 1.5719,2.16562 3.62037,1.31965 5.375,-0.34375 -0.3043,0.214 -0.65148,0.42535 -1.0625,0.65625 -5.42764,3.04907 -2.67592,-8.09971 1,-3.34375 0,-2.17509 -0.063,-3.76964 1.03125,-5.1875 0.29998,-0.0315 0.5688,-0.0376 0.8125,-0.0312 2.06351,0.0534 2.16917,1.388 1.75,2.75 0.8007,-2.05715 1.3001,-4.41793 -2.15625,-4.71875 -0.1486,-0.0129 -0.28583,-0.0376 -0.4375,-0.0312 z m 0.15625,4.9375 c -0.28705,0.9461 -0.0584,1.98017 0.875,2.28125 0.0755,-1.07372 -0.17743,-1.89957 -0.875,-2.28125 z m -3.59375,3.4375 c -0.28824,0.91448 -0.0768,2.1268 0.875,2.3125 0.0753,-1.07391 -0.17744,-1.93043 -0.875,-2.3125 z"
       id="path155-2"
       style="fill:#1a1a1a;fill-opacity:1;fill-rule:evenodd;stroke:none" />
    <path
       d="m 443.18283,527.54674 c 2.94319,-3.60954 8.04704,-8.48245 11.07576,-1.73138 -2.42598,-5.35474 -8.36628,0.78213 -10.6441,2.74109 -0.14382,-0.33664 -0.28764,-0.67308 -0.43166,-1.00971"
       id="path163-3"
       style="fill:#1a1a1a;fill-opacity:1;fill-rule:evenodd;stroke:none" />
    <path
       d="m 458.43018,530.43204 c -3.44004,-5.38063 5.01179,-6.85494 9.34932,-5.98471 m -1.72565,6.27294 c -2.09231,0.39887 -6.13173,0.49192 -7.62367,-0.28823"
       id="path165-9"
       style="fill:none;stroke:#000000" />
    <path
       d="m 457.8549,526.96948 c 2.35367,1.70234 3.57832,2.29125 4.89029,-1.8752 0.12584,0.92496 -0.0365,2.86081 0.76849,3.39895 1.01702,0.68018 2.05675,1.07668 2.25213,2.37106 -3.34896,-0.25781 -9.35663,1.41371 -7.91091,-3.89481"
       id="path167-2"
       style="fill:#1a1a1a;fill-opacity:1;fill-rule:evenodd;stroke:none" />
    <path
       d="m 460.44386,525.38232 c 0.2021,0.45537 0.38504,0.87023 0.14402,1.58696 -0.0958,0 -0.19202,0 -0.28784,0 -0.25366,-0.6302 -0.0575,-1.13693 0.14382,-1.58696"
       id="path169-8"
       style="fill:#1a1a1a;fill-opacity:1;fill-rule:evenodd;stroke:none" />
  </g>
</svg>
