<?xml version="1.0" encoding="UTF-8" standalone="no"?>
<!-- Created with Inkscape (http://www.inkscape.org/) -->

<svg
   xmlns:dc="http://purl.org/dc/elements/1.1/"
   xmlns:cc="http://creativecommons.org/ns#"
   xmlns:rdf="http://www.w3.org/1999/02/22-rdf-syntax-ns#"
   xmlns:svg="http://www.w3.org/2000/svg"
   xmlns="http://www.w3.org/2000/svg"
   xmlns:xlink="http://www.w3.org/1999/xlink"
   version="1.1"
   width="560"
   height="560"
   id="pet_fox">
    <linearGradient
       x1="251.65955"
       y1="263.32483"
       x2="247.37897"
       y2="240.46646"
       id="linearGradient16223"
       xlink:href="#linearGradient16217"
       gradientUnits="userSpaceOnUse" />
    <linearGradient
       id="linearGradient16217">
      <stop
         id="stop16219"
         style="stop-color:#000000;stop-opacity:1"
         offset="0" />
      <stop
         id="stop16221"
         style="stop-color:#000000;stop-opacity:0"
         offset="1" />
    </linearGradient>
    <linearGradient
       x1="157.20457"
       y1="231.21396"
       x2="150.31853"
       y2="212.38943"
       id="linearGradient16215"
       xlink:href="#linearGradient16209"
       gradientUnits="userSpaceOnUse" />
    <linearGradient
       id="linearGradient16209">
      <stop
         id="stop16211"
         style="stop-color:#000000;stop-opacity:1"
         offset="0" />
      <stop
         id="stop16213"
         style="stop-color:#000000;stop-opacity:0"
         offset="1" />
    </linearGradient>
    <linearGradient
       x1="260.64484"
       y1="102.97778"
       x2="254.99805"
       y2="114.40695"
       id="linearGradient16231"
       xlink:href="#linearGradient16225"
       gradientUnits="userSpaceOnUse" />
    <linearGradient
       id="linearGradient16225">
      <stop
         id="stop16227"
         style="stop-color:#552200;stop-opacity:1"
         offset="0" />
      <stop
         id="stop16229"
         style="stop-color:#552200;stop-opacity:0"
         offset="1" />
    </linearGradient>
    <linearGradient
       x1="150.65646"
       y1="257.46909"
       x2="142.93515"
       y2="242.00609"
       id="linearGradient16199"
       xlink:href="#linearGradient16193"
       gradientUnits="userSpaceOnUse" />
    <linearGradient
       id="linearGradient16193">
      <stop
         id="stop16195"
         style="stop-color:#1a1a1a;stop-opacity:1"
         offset="0" />
      <stop
         id="stop16197"
         style="stop-color:#1a1a1a;stop-opacity:0"
         offset="1" />
    </linearGradient>
    <linearGradient
       x1="250.39464"
       y1="287.12051"
       x2="238.47136"
       y2="254.84991"
       id="linearGradient16207"
       xlink:href="#linearGradient16201"
       gradientUnits="userSpaceOnUse" />
    <linearGradient
       id="linearGradient16201">
      <stop
         id="stop16203"
         style="stop-color:#1a1a1a;stop-opacity:1"
         offset="0" />
      <stop
         id="stop16205"
         style="stop-color:#1a1a1a;stop-opacity:0"
         offset="1" />
    </linearGradient>
  </defs>
  <g
     transform="matrix(0.40823668,0,0,0.40823668,41.876028,401.87226)"
     id="g3162"
     style="display:inline;enable-background:new">
    <g
       id="g3133">
      <g
         id="g15220">
        <path
           d="m 150.82744,80.43297 c -7.18226,-4.419852 -40.88363,-2.762408 -60.22048,9.392185 -19.336851,12.154595 -11.512172,19.645215 -21.546777,28.176555 1.657445,0 3.314889,0.55248 3.86737,0 -3.86737,3.31489 -7.73474,16.57444 -12.707073,19.33685 2.762407,-1.10496 2.209926,0 4.972333,-1.65744 -5.524815,12.15459 -24.861666,43.64603 -27.071592,50.82829 -2.209926,7.18226 -3.86737,20.9943 -8.287222,27.07159 -4.419852,6.0773 -5.524815,9.39219 -6.077296,12.1546 8.839703,1.65744 16.574444,-0.55249 20.441814,-2.20993 3.867371,-1.65745 18.231889,-11.60211 29.281518,-14.917 11.049629,-3.31489 23.204221,-18.78437 22.099259,-33.14889 1.104962,6.62978 3.314888,8.83971 4.972336,11.60211 -0.552485,-4.41985 0.55248,-8.8397 1.10496,-11.60211 3.86737,-1.10496 3.86737,-1.65744 6.62978,-2.76241 -2.76241,-0.55248 -1.65745,-7.18225 0.55248,-11.04962 1.65744,2.20992 2.20992,4.41985 5.52481,4.41985 -1.10496,-5.52482 -4.41985,-11.04963 -1.65744,-23.75671 2.76241,-12.70707 17.67941,-21.54677 24.86166,-22.09925"
           id="path15142"
           style="fill:#aa4400;fill-opacity:1;fill-rule:evenodd;stroke:#552200;stroke-width:2.44955945px;stroke-linecap:butt;stroke-linejoin:miter;stroke-opacity:1" />
        <path
           d="m 51.75,160.625 c -6.285,11.13857 -12.436181,22.01134 -13.625,25.875 -2.209925,7.18226 -3.861398,21.01646 -8.28125,27.09375 -4.419853,6.07731 -5.541269,9.39384 -6.09375,12.15625 8.839704,1.65744 16.57013,-0.56131 20.4375,-2.21875 3.867371,-1.65745 18.231621,-11.62261 29.28125,-14.9375 4.256124,-1.27684 8.674401,-4.37427 12.4375,-8.5 -3.347622,2.0898 -5.822601,1.23693 -7.71875,3.34375 0.475391,-0.95078 2.406248,-3.11172 2.40625,-4.0625 -3.090041,3.56543 -6.190232,6.1998 -10.46875,6.4375 1.901564,-1.18848 3.318161,-5.70917 4.03125,-9.75 -2.139259,3.80313 -6.409961,4.28496 -9.5,7.375 0.713086,-2.85234 5.456443,-10.47714 5.21875,-15.46875 -0.950782,2.37696 -2.836129,5.00001 -4.5,5 1.799609,-2.69942 3.97131,-10.06077 4.40625,-16.6875 -0.761658,5.43258 -5.418209,8.15216 -9.875,8.375 5.466996,-2.85235 4.519923,-6.41563 3.09375,-10.21875 0.475391,3.80313 -2.875002,5 -2.875,5 0,0 0.02656,0.23105 -1.875,0.46875 2.852346,-3.09005 1.41289,-8.32187 0.9375,-12.125 0.475391,3.09005 -1.678904,8.54921 -4.53125,9.5 1.426173,-2.85235 2.394923,-7.60977 0.96875,-10.9375 -0.936139,1.10635 -2.142708,4.64156 -7.961859,9.08679 2.70398,-9.52806 8.28004,-14.57065 13.48365,-20.60499 -3.776314,1.48286 -5.030199,4.455 -9.396791,5.79945 z"
           id="path15176"
           style="fill:#cccccc;fill-opacity:1;fill-rule:evenodd;stroke:#552200;stroke-width:2.44955945px;stroke-linecap:butt;stroke-linejoin:miter;stroke-opacity:1" />
      </g>
      <g
         id="g16233">
        <path
           d="m 268.38575,184.00246 c -4.2973,2.34398 -12.50123,11.7199 -13.28256,16.0172 -0.78132,4.29729 0,17.18919 -1.17199,19.1425 -1.17199,1.95332 -2.73464,10.93858 -2.73464,17.18919 0,6.25062 -4.68796,13.28255 1.56266,19.92383 6.25061,6.64128 1.17198,6.64128 7.81326,10.54792 6.64128,3.90663 8.98526,14.8452 5.07863,17.18918 -3.90664,2.34399 -12.8919,3.12531 -17.18919,-5.85995 -4.2973,-8.98525 -4.68796,-11.32923 -7.81327,-14.45454 -3.12531,-3.12531 -3.51597,-7.81327 -4.68796,-10.93858 -1.17199,-3.1253 3.51597,-12.11056 -1.17199,-22.65847 -0.63834,-2.3823 0,-19.53317 -17.57985,-39.06634"
           id="path15167"
           style="fill:#803300;fill-rule:evenodd;stroke:#552200;stroke-width:2.44955945px;stroke-linecap:butt;stroke-linejoin:miter;stroke-opacity:1" />
        <path
           d="m 247.8125,231.6875 c -3.49973,0.0354 -8.05021,1.77528 -11.21875,4.71875 1.15909,7.70782 -1.55459,13.86484 -0.625,16.34375 1.17199,3.12531 1.56219,7.8122 4.6875,10.9375 3.12531,3.12531 3.51521,5.48349 7.8125,14.46875 4.29729,8.98526 13.28085,8.18775 17.1875,5.84375 3.90663,-2.34398 1.54753,-13.28086 -5.09375,-17.1875 -6.64128,-3.90664 -1.56189,-3.88997 -7.8125,-10.53125 -6.25062,-6.64128 -1.5625,-13.68688 -1.5625,-19.9375 0,-1.1954 0.0869,-2.48538 0.1875,-3.8125 -0.90182,-0.5757 -2.14821,-0.85805 -3.5625,-0.84375 z"
           id="path15191"
           style="fill:url(#linearGradient16223);fill-opacity:1;fill-rule:evenodd;stroke:none" />
        <path
           d="m 175.68911,186.50941 c -8.83971,1.65745 -15.51712,6.86897 -15.90778,8.43162 -0.39067,1.56266 0,4.68796 -3.51597,6.64128 -3.51597,1.95332 -1.56266,10.15725 1.56265,14.45454 3.12531,4.2973 3.12531,11.71991 8.98526,15.62654 5.85995,3.90663 5.46929,13.28256 0.78132,14.06388 -4.68796,0.78133 -15.23587,-2.34398 -16.79852,-8.20393 -1.56265,-5.85995 0,-9.76658 -4.68796,-13.67322 -4.68796,-3.90663 -1.56266,-12.11056 -4.2973,-16.40786 -2.73464,-4.2973 -8.20393,-6.64128 -9.76658,-10.54791 -1.56266,-3.90664 3.1253,-17.57985 -12.50123,-32.81573"
           id="path15169"
           style="fill:#803300;fill-rule:evenodd;stroke:#552200;stroke-width:2.44955945px;stroke-linecap:butt;stroke-linejoin:miter;stroke-opacity:1" />
        <path
           d="m 152.5625,208.53125 c -3.53479,0.18706 -7.92887,3.0388 -9.3125,7.9375 -0.003,0.01 0.003,0.0214 0,0.0312 0.17961,2.82486 0.6818,5.54213 2.84375,7.34375 4.68796,3.90664 3.12485,7.82754 4.6875,13.6875 1.56265,5.85995 12.12454,8.96884 16.8125,8.1875 4.68797,-0.78132 5.07871,-10.15587 -0.78125,-14.0625 -5.85995,-3.90663 -5.87468,-11.3277 -9,-15.625 -1.40174,-1.92738 -2.55125,-4.63606 -3.09375,-7.21875 -0.64765,-0.21633 -1.38505,-0.32206 -2.15625,-0.28125 z"
           id="path15187"
           style="fill:url(#linearGradient16215);fill-opacity:1;fill-rule:evenodd;stroke:none" />
        <path
           d="m 186.73874,85.405303 c -4.41986,-6.629778 -15.46949,-6.629778 -19.88934,-6.629778 -4.41985,0 -18.78437,-0.552481 -20.99429,1.657445 -2.20993,2.209926 -12.70708,-0.552482 -24.30919,6.077296 -11.60211,6.629778 -8.8397,13.812034 -20.99429,20.441814 -12.154596,6.62978 -12.154596,41.43611 2.7624,54.69567 14.917,13.25955 28.53946,43.56274 24.79464,68.5307 0,12.70708 12.08757,18.82839 13.19253,32.08795 1.10496,13.25955 6.0773,21.54678 16.15602,19.26982 7.6212,-1.72176 1.10496,-18.78437 -0.55248,-23.7567 -1.65745,-4.97233 -12.70708,-22.09926 -12.1546,-26.51911 0.55249,-4.41985 1.10497,-19.88933 0.55249,-26.51911 -0.55249,-6.62978 -4.97234,-22.65174 3.31488,-24.30918 13.25956,8.8397 35.9113,9.39218 48.06589,9.94466 12.15459,0.55248 19.33685,19.33685 18.23189,22.65174 -1.10496,3.31489 1.10496,9.94467 6.62978,18.23189 5.52481,8.28722 16.02196,35.9113 15.46948,41.43611 -0.55248,5.52481 3.31489,7.18226 2.20992,11.60211 -1.10496,4.41985 2.20993,6.62978 3.86737,7.73474 -2.20992,11.04963 6.62978,28.72904 24.30919,23.7567 6.73815,-1.80548 5.52481,-13.81203 -7.73474,-27.62407 4.41985,-3.31489 -5.52482,-14.917 -6.0773,-20.44181 -0.55248,-5.52482 -8.8397,-25.41415 -8.8397,-28.17656 0,-2.76241 -6.62978,-14.917 -6.0773,-26.51911 0.55248,-11.60211 2.20993,-12.70707 4.41985,-13.25955 2.20993,-0.55249 6.0773,-3.31489 8.28723,-5.52482 2.20992,-2.20992 7.18226,-6.62978 16.57444,-8.28722 9.39219,-1.65744 14.36452,-22.09926 15.46948,-25.96663 2.20993,1.65745 2.20993,1.10496 3.86737,3.31489 2.20993,-3.86737 0.55248,-11.04963 0,-14.36452 2.20993,1.65745 3.31489,6.62978 4.41985,7.73474 1.10497,-4.97233 1.65745,-7.73474 1.10497,-12.15459 1.26678,-0.067 3.31489,1.4286 4.41985,3.31489 1.03793,-2.8572 -0.16182,-7.15449 -0.55248,-7.73474 2.7624,0 2.20992,0 4.97233,1.65744 -1.65744,-3.86737 -4.51465,-8.51607 -6.0773,-11.04963 3.31489,1.65745 4.41986,5.52482 6.62978,7.18226 1.10496,-2.76241 0,-6.07729 -1.10496,-8.28722 2.20992,1.10496 1.65744,1.10496 2.76241,2.20993 0,-3.31489 -1.65745,-7.18226 -1.65745,-7.18226 2.76241,1.10496 2.76241,2.20992 4.41985,3.31489 -0.55248,-4.97234 1.10497,-9.94467 0,-11.60211 -1.10496,-1.65745 -34.25385,-33.701374 -79.55733,-24.309189 -9.94466,-4.972334 -19.88933,-8.287222 -40.33114,-6.629778 z"
           id="path15140"
           style="fill:#aa4400;fill-opacity:1;fill-rule:evenodd;stroke:#552200;stroke-width:2.44955945px;stroke-linecap:butt;stroke-linejoin:miter;stroke-opacity:1" />
        <path
           d="m 272.75,100.53125 c -11.05284,0.0297 -20.09082,6.03895 -23.65625,19.46875 -2.13926,8.08164 -2.13164,9.02266 -1.65625,11.875 0.4754,2.85235 -3.78887,9.29433 -2.125,16.1875 0.47539,-4.75391 4.75,-11.19589 4.75,-16.1875 0.71309,9.27013 -1.20547,11.89863 -2.15625,13.5625 -0.95079,1.66387 -2.14395,3.54726 -1.90625,6.875 0.23769,3.32773 -6.64493,9.76406 -5.21875,15.46875 -1.18847,-1.90156 -2.125,-5.69785 -2.125,-8.3125 -1.18848,2.37696 -1.67519,7.1041 -1.4375,9.71875 -0.95078,-3.32774 -1.65625,-7.34843 -1.65625,-9.25 -0.95077,4.27852 0.45743,15.45917 -0.96875,19.5 0,-4.04083 -0.71211,-8.09843 -1.1875,-10 -0.47541,6.18008 -3.30586,9.75469 -3.78125,11.65625 -1e-5,-4.99161 -0.72441,-4.99804 -1.4375,-7.375 0.23771,6.18008 -6.65254,10.71191 -3.5625,19.03125 0.23771,-2.13927 0.94882,-4.29258 2.375,-5.71875 0.47539,5.2293 0.46582,10.92989 4.03125,12.59375 -0.2377,-1.90155 -0.93183,-4.02929 -0.21875,-6.40625 0.71309,2.61466 0.95449,4.25566 3.09375,4.96875 -1.18849,-3.80313 -0.9754,-6.39863 -0.5,-8.0625 3.0411,4.12723 5.29173,12.39774 5.65625,17.96875 0.75623,-6.93275 2.19444,-7.8533 4.03125,-8.3125 2.20993,-0.55249 6.07132,-3.32132 8.28125,-5.53125 2.20992,-2.20993 7.20157,-6.62381 16.59375,-8.28125 9.39218,-1.65743 14.36379,-22.10138 15.46875,-25.96875 2.20992,1.65745 2.18631,1.10257 3.84375,3.3125 2.20992,-3.86737 0.55248,-11.06011 0,-14.375 2.20992,1.65745 3.33254,6.64504 4.4375,7.75 1.10497,-4.97234 1.64623,-7.7364 1.09375,-12.15625 1.26677,-0.067 3.33254,1.42621 4.4375,3.3125 1.03794,-2.8572 -0.17184,-7.16975 -0.5625,-7.75 2.76239,0 2.20634,-0.001 4.96875,1.65625 -1.65744,-3.86737 -4.5311,-8.49769 -6.09375,-11.03125 3.31489,1.65744 4.44633,5.53006 6.65625,7.1875 1.10495,-2.76241 -0.02,-6.10257 -1.125,-8.3125 2.20993,1.10496 1.67628,1.11378 2.78125,2.21875 0,-3.31489 -1.65625,-7.1875 -1.65625,-7.1875 2.7624,1.10496 2.74881,2.20753 4.40625,3.3125 -0.55247,-4.97234 1.10497,-9.93631 0,-11.59375 -0.334,-0.50101 -3.64085,-3.77357 -9.28125,-7.84375 -0.0121,-0.007 -0.0191,-0.0238 -0.0312,-0.0312 -8.38878,-5.15198 -16.96367,-7.95793 -24.5625,-7.9375 z"
           id="path15205"
           style="fill:#cccccc;fill-opacity:1;fill-rule:evenodd;stroke:none" />
        <path
           d="m 292.60688,137.12285 c -8.59459,-10.93857 -4.68796,-19.53317 -1.17199,-20.70516 3.51597,-1.17199 8.98526,-2.34398 16.0172,-0.78133 7.03194,1.56266 25.00246,3.12531 23.83047,-7.81326 5.46928,-0.39067 7.03194,-5.46929 6.25061,-10.157252 0.78133,-3.906634 0.39066,-4.687961 -3.51597,-6.641278 -3.90663,-1.953317 -9.37592,-7.031941 -13.67322,-10.547912 1.56265,-4.297297 0.78133,-13.673218 -5.07862,-21.095823 0.78132,-10.547911 7.4226,-11.719901 8.98526,-26.955774 0.31887,-3.108998 1.95331,-5.85995 2.34397,-10.547911 -8.20393,-1.17199 -24.54464,7.52978 -29.29975,13.282555 -4.12784,4.993896 -7.79678,5.215105 -10.15725,8.203931 -1.21064,1.532908 -8.16457,-0.30973 -9.37592,-1.562653 -4.3869,-4.53745 -20.3145,-24.221131 -31.64373,-17.18919 -3.77579,2.179952 -4.08361,27.221229 -6.25062,30.471745 -1.56265,2.34398 -2.73464,13.282555 0.78133,21.095823 0,-0.781327 -7.03194,14.845209 -16.40786,17.189189 -2.3823,0.638334 -7.81327,2.343981 -10.15725,0"
           id="path15144"
           style="fill:#aa4400;fill-rule:evenodd;stroke:url(#linearGradient16231);stroke-width:2.44955945px;stroke-linecap:butt;stroke-linejoin:miter;stroke-opacity:1" />
        <path
           d="m 281.27764,77.742015 c 5.85995,-3.515971 12.50123,-1.953317 14.06388,-1.953317 1.17199,1.17199 0.78133,3.125307 0.39067,3.906634 -3.90664,1.17199 -11.7199,0.781326 -14.45455,-1.953317 z"
           id="path15146"
           style="fill:#808000;fill-rule:evenodd;stroke:#552200;stroke-width:2.44955945px;stroke-linecap:butt;stroke-linejoin:miter;stroke-opacity:1" />
        <path
           d="m 320.27743,80.547392 c -5.12027,-4.015306 -6.7442,-7.020441 -3.15307,-13.926459"
           id="path15148"
           style="fill:none;stroke:#552200;stroke-width:2.44955945px;stroke-linecap:butt;stroke-linejoin:miter;stroke-opacity:1" />
        <path
           d="m 315.46692,74.631914 c 1.3812,-1.104963 2.48616,-0.828722 3.31489,-0.552481 0.27624,2.209926 0,1.933685 -0.27624,2.762407 -1.10497,0.276241 -1.93369,0 -3.03865,-2.209926 z"
           id="path15150"
           style="fill:#808000;fill-rule:evenodd;stroke:#552200;stroke-width:2.44955945px;stroke-linecap:butt;stroke-linejoin:miter;stroke-opacity:1" />
        <path
           d="m 284.0625,88.6875 c -5.76329,0.0642 -8.30355,1.207894 -11.6875,3.625 3.3149,-0.276237 6.6188,1.671278 8,2.5 -4.69609,0.552484 -9.38764,-0.02624 -13.53125,0.25 3.86738,1.104961 9.40004,3.0625 10.78125,3.0625 -5.80107,0.552485 -9.12142,1.359972 -14.09375,0.53125 2.20993,-0.82872 3.33254,-1.098759 4.4375,-1.375 -5.80106,-0.828721 -16.86139,0.565356 -21.28125,11.0625 2.20993,-1.3812 5.23759,-4.71875 8,-4.71875 -5.33209,3.6361 -2.48019,7.19012 -8.28125,10.78125 -2.13589,1.23317 -3.59375,4.41507 -3.59375,6.625 1.65745,-2.76241 5.53507,-4.13382 7.46875,-6.34375 -0.2698,3.46907 -6.8249,7.8332 -2.21875,14.90625 -0.82872,-2.76241 -0.0124,-5.53005 2.75,-7.1875 -2.20992,4.41985 1.11498,14.11259 0.5625,16.875 2.48616,-1.38121 2.04191,-5.70069 3.03125,-7.75 0.82872,1.93368 -0.53865,5.24761 2.5,8.5625 0.55249,-1.65745 -0.36955,-5.37587 0.8125,-7.1875 0.27624,5.80104 2.27135,11.23194 6.09375,13.28125 -0.27625,-4.97232 -4.89786,-11.84508 -3.59375,-18.25 1.81804,4.02155 2.48259,11.33755 4.96875,12.71875 1.54374,-2.83017 -0.016,-9.227 0.1875,-12.21875 3.5634,4.95095 2.68194,14.15951 11.6875,20.78125 0.27624,0.27625 2.34058,-8.3736 0.84375,-16.03125 1.22058,1.13066 2.65909,6.31022 6.25664,8.76426 0.57774,-3.30039 -2.91687,-6.94357 -3.50664,-10.70176 2.28702,1.68315 3.60638,6.64003 7.75,7.46875 -2.20992,-2.48616 -2.8248,-4.5098 -3.0625,-5.53125 1.42398,1.66133 4.88892,3.51415 7.0625,3.65625 -8.31431,-10.80694 -4.45511,-19.27538 -0.96875,-20.4375 3.51598,-1.17199 8.96806,-2.3439 16,-0.78125 7.03194,1.56266 25.01574,3.12607 23.84375,-7.8125 5.46928,-0.39067 7.03133,-5.46829 6.25,-10.15625 0.39066,-1.953317 0.48833,-3.103424 0,-4.03125 -4.27851,4.278521 -12.35171,-0.0046 -14.59375,0.625 -2.20993,0.276244 -4.70014,1.917462 -8.84375,0.8125 -4.14362,-1.104964 -9.11259,-3.026241 -11.875,-2.75 -2.76242,0.276245 -7.73401,-3.31751 -15.46875,-3.59375 -0.96684,-0.03453 -1.86417,-0.04042 -2.6875,-0.03125 z"
           id="path15171"
           style="fill:#cccccc;fill-rule:evenodd;stroke:none" />
        <path
           d="m 331.47789,107.82309 c -7.42261,-0.78132 -9.96192,0.78133 -12.11057,1.75799 -2.14865,0.97666 -6.50185,3.5881 -16.40786,-2.53931 -2.27862,-1.40945 -6.83661,-3.12531 -10.35258,-2.73464"
           id="path15157"
           style="fill:none;stroke:#ff5555;stroke-width:2.44955945px;stroke-linecap:butt;stroke-linejoin:miter;stroke-opacity:1" />
        <path
           d="m 326.24031,23.251138 c -5.52482,0.828722 -25.41415,8.563463 -23.75671,27.347833 4.97233,1.657444 9.94467,5.524814 10.77339,6.906018 1.10496,-4.972333 3.86737,-10.773389 5.24858,-12.707074 1.3812,-1.933685 3.59112,-8.839703 4.41985,-11.602111 0.82872,-2.762407 3.03864,-8.010981 3.31489,-9.944666 z"
           id="path15159"
           style="fill:#cccccc;fill-opacity:1;fill-rule:evenodd;stroke:none" />
        <path
           d="m 246.11794,26.955774 c 9.37592,-3.125307 19.92383,10.938575 19.92383,16.798526 0,5.85995 -1.56265,10.157248 2.73464,13.673218 -2.34398,5.859951 -9.76658,13.282556 -20.70516,6.641278 -3.94495,-2.277617 -6.21257,-8.203931 -3.47792,-9.766585 2.73464,-1.562653 0.74328,-10.157248 0.35262,-12.501228 -0.39067,-2.343981 -0.78133,-8.203932 1.17199,-14.845209 z"
           id="path15161"
           style="fill:#cccccc;fill-opacity:1;fill-rule:evenodd;stroke:none" />
        <path
           d="m 294.5602,65.240786 c -3.12531,1.17199 -7.81327,3.125307 -11.71991,1.562654 -3.90663,-1.562654 -5.85995,-1.562654 -8.98525,-1.953317 1.95331,0.781326 4.29729,3.125307 5.85995,4.68796 -3.51597,-1.17199 -6.64128,0.390664 -7.81327,1.562654 3.12531,-1.562654 3.90663,-0.390663 5.07862,0.390663 -2.34398,1.171991 -5.46928,2.343981 -7.03194,1.171991 1.95332,1.953316 3.90664,1.562653 5.85995,1.562653 -0.93429,0.934294 -1.40969,1.868589 -2.73464,1.562654"
           id="path15163"
           style="fill:none;stroke:#552200;stroke-width:2.44955945px;stroke-linecap:butt;stroke-linejoin:miter;stroke-opacity:1" />
        <path
           d="m 312.92138,65.240786 c 0.78132,-1.562653 2.34398,-2.34398 2.34398,-2.34398 l 0,1.953317 c 1.17199,-1.17199 2.34398,-1.562654 3.1253,0.781326"
           id="path15165"
           style="fill:none;stroke:#552200;stroke-width:2.44955945px;stroke-linecap:butt;stroke-linejoin:miter;stroke-opacity:1" />
        <path
           d="m 140.28125,233.03125 c -0.63231,0.007 -1.28384,0.10605 -1.9375,0.34375 -4.29587,1.56213 -5.68828,6.34032 -5,11.15625 3.41942,5.27028 7.35961,10.44027 7.96875,17.75 1.10497,13.25956 6.07753,21.52696 16.15625,19.25 7.62121,-1.72176 1.09494,-18.77767 -0.5625,-23.75 -1.31272,-3.93813 -8.4907,-15.47727 -11.15625,-22.3125 -1.53487,-1.40048 -3.42092,-2.46156 -5.46875,-2.4375 z"
           id="path15185"
           style="fill:url(#linearGradient16199);fill-opacity:1;fill-rule:evenodd;stroke:none" />
        <path
           d="m 234.3125,234.75 c -2.80004,0.21789 -4.84562,3.72803 -4.9375,12.71875 4.22694,10.37623 7.96056,21.86317 7.625,25.21875 -0.55249,5.5248 3.32372,7.20515 2.21875,11.625 -1.10496,4.41983 2.21756,6.61379 3.875,7.71875 -2.20992,11.04964 6.63309,28.72234 24.3125,23.75 6.73815,-1.80548 5.50955,-13.81296 -7.75,-27.625 4.41985,-3.31488 -5.51002,-14.91269 -6.0625,-20.4375 -0.37709,-3.77086 -4.32326,-14.13991 -6.8125,-21.28125 -3.40026,-6.11938 -8.62111,-11.98691 -12.46875,-11.6875 z"
           id="path15189"
           style="fill:url(#linearGradient16207);fill-opacity:1;fill-rule:evenodd;stroke:none" />
        <path
           d="m 289.0909,75.802322 a 0.50422835,0.50422835 0 1 1 -1.00846,0 0.50422835,0.50422835 0 1 1 1.00846,0 z"
           transform="matrix(2.885618,0,0,2.885618,-541.70927,-140.93422)"
           id="path15210"
           style="color:#000000;fill:#000000;fill-opacity:1;fill-rule:nonzero;stroke:none;stroke-width:3.75;marker:none;visibility:visible;display:inline;overflow:visible;enable-background:accumulate" />
        <path
           d="m 289.0909,75.802322 a 0.50422835,0.50422835 0 1 1 -1.00846,0 0.50422835,0.50422835 0 1 1 1.00846,0 z"
           transform="matrix(1.6363961,0,0,1.6363961,-154.88293,-48.694088)"
           id="path15212"
           style="color:#000000;fill:#000000;fill-opacity:1;fill-rule:nonzero;stroke:none;stroke-width:3.75;marker:none;visibility:visible;display:inline;overflow:visible;enable-background:accumulate" />
        <path
           d="m 332.65625,91.25 c -2.48198,-0.06204 -4.27131,1.053552 -4.90625,1.625 -1.38121,1.243086 -3.01169,0.599596 -4,1.09375 -1.10497,0.552482 0.58424,5.199906 3.875,4.6875 6.19834,-0.965147 1.93512,3.03817 5.25,4.28125 3.72218,-1.59522 0.81973,-6.122856 4.78125,-5.96875 0.49586,-2.821034 0.13904,-3.840207 -2.28125,-5.21875 -0.008,-0.0048 -0.0227,0.0048 -0.0312,0 -0.96685,-0.345302 -1.86017,-0.47932 -2.6875,-0.5 z"
           id="path15152"
           style="fill:#1a1a1a;fill-rule:evenodd;stroke:none" />
        <path
           d="m 289.0909,75.802322 a 0.50422835,0.50422835 0 1 1 -1.00846,0 0.50422835,0.50422835 0 1 1 1.00846,0 z"
           transform="matrix(1.6363961,0,0,1.6363961,-154.16983,-49.16948)"
           id="path15214"
           style="color:#000000;fill:#ffffff;fill-opacity:1;fill-rule:nonzero;stroke:none;stroke-width:3.75;marker:none;visibility:visible;display:inline;overflow:visible;enable-background:accumulate" />
        <path
           d="m 289.0909,75.802322 a 0.50422835,0.50422835 0 1 1 -1.00846,0 0.50422835,0.50422835 0 1 1 1.00846,0 z"
           transform="matrix(1.6363961,0,0,1.6363961,-180.11431,-47.065876)"
           id="path15216"
           style="color:#000000;fill:#ffffff;fill-opacity:1;fill-rule:nonzero;stroke:none;stroke-width:3.75;marker:none;visibility:visible;display:inline;overflow:visible;enable-background:accumulate" />
      </g>
    </g>
  </g>
</svg>
