<?xml version="1.0" encoding="UTF-8" standalone="no"?>
<svg xmlns="http://www.w3.org/2000/svg" id="pipe_subgenius" width="560" height="560">
  <g id="g49787" style="fill:#803300;stroke:#2b1100;stroke-width:0.97546685;display:inline;enable-background:new">
    <path id="path2987-1-6" d="M281 153.6L271 167c-1 1.3-4 2.8-5.8 0l-2-3.7c-.3-1 .7-2.5 2-3.4 1.6-1.2 3.7-1.5 4-.5.8 1.4 1.2 2 1.4 2.6 0 .5.3.5.6.2l8-8.8c.4-.4 1.4-.4 2 .2z" style="color:#000000;fill:#803300;stroke:#2b1100;stroke-width:1.67222893;stroke-linecap:butt;stroke-linejoin:miter;stroke-miterlimit:4;stroke-opacity:1;stroke-dasharray:none;stroke-dashoffset:0;marker:none;visibility:visible;display:inline;overflow:visible;enable-background:accumulate"/>
    <path id="path2987-1-1-6" d="M279 153.2s-6.5 7.7-7.8 9c-.3.3-.5.3-.7 0 0-.5-.4-1.2-1-2.3 0 .4-.3.8-.4 1.2-.6 1.4-.2 1-.4 1.4 0 .5.6 1.7 1 2.4.3.6.3 3.3-1.4 3.3-1.6 0-1-2.2-1.7-3.5-.2-.4-1-.8-1.5-.7-.4.2-1.2 0-1.7-.6l2 3.6c1.7 2.8 4.8 1.3 5.7 0l10-13.4c-.4-.6-1.3-.6-2-.4zM275 159c.2 0 .4 0 .7.6-.7 2-2.8 4-3.2 4.4-.4.5-1.2.3-1-.8.2-1.2 2.6-3.5 3-4l.5-.2zm-6 0z" style="color:#000000;fill:#552200;stroke:none;marker:none;visibility:visible;display:inline;overflow:visible;enable-background:accumulate"/>
    <path id="path2989-0-9-0" d="M267.3 162.7a1.8 3.6 55.4 1 1-2-3 1.8 3.6 55.4 1 1 2 3z" style="color:#000000;fill:#803300;stroke:#2b1100;stroke-width:1.67222893;stroke-linecap:round;stroke-linejoin:miter;stroke-miterlimit:4;stroke-opacity:1;stroke-dasharray:none;stroke-dashoffset:0;marker:none;visibility:visible;display:inline;overflow:visible;enable-background:new"/>
    <path id="path2989-5-6-8" d="M266.7 162a.8 2 55.4 1 1-1-1.4.8 2 55.4 1 1 1 1.4z" style="color:#000000;fill:#552200;fill-opacity:1;stroke:none;marker:none;visibility:visible;display:inline;overflow:visible;enable-background:new"/>
    <path id="path3009-6-5" d="M279 153.3l-5.2 6c1-.4 2 .6 1.7 1.7l5.6-7.4c-.6-1-1.5-.4-2-.3z" style="color:#000000;fill:#552200;stroke:none;marker:none;visibility:visible;display:inline;overflow:visible;enable-background:accumulate"/>
  </g>
</svg>
