<?xml version="1.0" encoding="UTF-8" standalone="no"?>
<svg xmlns="http://www.w3.org/2000/svg" width="560" height="560" id="pupils_human_aversion">
  <path style="fill:#000000;stroke:none" d="M 275.48242 138.875 A 0.45610803 0.45610803 0 0 0 275.25391 139.26953 A 0.45610803 0.45610803 0 0 0 275.70898 139.72656 A 0.45610803 0.45610803 0 0 0 276.16602 139.26953 A 0.45610803 0.45610803 0 0 0 275.9707 138.89648 C 275.81283 138.87983 275.64793 138.8775 275.48242 138.875 z" id="path68914"/>
  <path style="fill:#000000;stroke:none" d="M 289.59961 138.5957 C 289.37194 138.60979 289.14997 138.63228 288.93945 138.66406 A 0.45610803 0.45610803 0 0 0 288.8457 138.94141 A 0.45610803 0.45610803 0 0 0 289.30078 139.39648 A 0.45610803 0.45610803 0 0 0 289.75781 138.94141 A 0.45610803 0.45610803 0 0 0 289.59961 138.5957 z" id="path68924"/>
</svg>
