<?xml version="1.0" encoding="UTF-8" standalone="no"?>
<svg xmlns="http://www.w3.org/2000/svg" width="560" height="560" id="pupils_human_anger">
  <path style="fill:#000000;stroke:none" d="M 275.70898 138.8125 A 0.45610803 0.45610803 0 0 0 275.25391 139.26953 A 0.45610803 0.45610803 0 0 0 275.70898 139.72656 A 0.45610803 0.45610803 0 0 0 276.16602 139.26953 A 0.45610803 0.45610803 0 0 0 275.70898 138.8125 z" id="path40699-22-2-1"/>
  <path style="fill:#000000;stroke:none" d="M 289.30078 138.48438 A 0.45610803 0.45610803 0 0 0 288.8457 138.94141 A 0.45610803 0.45610803 0 0 0 289.30078 139.39648 A 0.45610803 0.45610803 0 0 0 289.75781 138.94141 A 0.45610803 0.45610803 0 0 0 289.30078 138.48438 z" id="path40709-3-3-0"/>
</svg>
