<?xml version="1.0" encoding="UTF-8" standalone="no"?>
<!-- Created with Inkscape (http://www.inkscape.org/) -->

<svg
   xmlns:dc="http://purl.org/dc/elements/1.1/"
   xmlns:cc="http://creativecommons.org/ns#"
   xmlns:rdf="http://www.w3.org/1999/02/22-rdf-syntax-ns#"
   xmlns:svg="http://www.w3.org/2000/svg"
   xmlns="http://www.w3.org/2000/svg"
   version="1.1"
   width="560"
   height="560"
   id="pupils_neutral">
  <g
     transform="translate(-245.5625,-0.99999711)"
     id="g5662099"
     style="display:none;enable-background:new">
    <g
       transform="translate(3.9741066e-6,4.3502295e-6)"
       id="g5523199"
       style="display:inline;enable-background:new">
      <path
         d="m 512.67957,138.2507 c -0.36011,-0.2518 -0.84849,-0.99075 -1.17681,-1.69694 -0.47123,-1.0136 -1.92153,-3.13763 -2.41884,-2.35996 -0.43848,0.68568 0.11283,1.83037 -0.043,2.65269 -0.15132,0.79845 -0.0898,1.92146 0.21267,3.24651 0.82314,3.6061 1.48949,4.7428 2.43022,6.1931 0.94073,1.4503 2.0556,1.9599 2.64356,0.9015"
         id="path5523399"
         style="fill:#ffd5d5;stroke:#de8787;stroke-width:0.5;stroke-linecap:round;stroke-linejoin:round;stroke-miterlimit:4;stroke-opacity:1;stroke-dasharray:none" />
      <path
         d="m 512.31094,141.1121 c -0.0392,0.7055 -0.19598,0.7839 -0.39197,1.0191 -0.19599,0.2352 0,1.3327 0.27438,1.6855 0.27438,0.3528 0.19599,1.2151 0.0392,1.2151 -0.15679,0 -0.35278,0.1176 -0.35278,-0.6663 0,-0.784 -1.13152,-0.5806 -1.56788,-2.6654 -0.35278,-1.6855 -0.0784,-2.0383 0.19598,-2.0383 0.27438,0 0.0392,-1.2151 -0.11759,-1.5679 -0.15679,-0.3528 -0.47036,-0.7055 -0.66635,-0.7839 -0.19598,-0.078 -0.11759,0.7839 0,1.1759 0.11759,0.392 -0.23518,3.2142 0.78394,4.6645 1.01913,1.4502 1.80307,2.7046 1.56789,2.7437 -0.23518,0.039 -1.48949,-2.0774 -1.95986,-3.3317 -0.47036,-1.2543 -0.90153,-3.1358 -0.97993,-4.4293 -0.0784,-1.2935 0.15679,-1.5287 0.43117,-1.4111 0.27438,0.1176 1.09752,1.1367 1.3719,1.9991 0.27438,0.8623 0.66635,1.0583 0.94073,1.1759 0.27438,0.1176 0.47037,0.5095 0.43117,1.2151 z"
         id="path5523599"
         style="fill:#e9afaf;stroke:none" />
    </g>
    <g
       transform="translate(3.9741066e-6,4.3502295e-6)"
       id="g5523799"
       style="display:inline;enable-background:new">
      <path
         d="m 543.60917,137.3442 c 0.57394,-1.0881 1.20149,-1.73849 1.68909,-2.45613 0.41698,-0.61372 1.10964,-1.99522 1.73597,-1.37841 0.54847,0.54014 0.081,2.12957 0.15771,2.66739 0.10719,0.75133 0.0715,1.72589 -0.12738,2.85175 -0.64344,3.6425 -1.25263,4.8109 -2.12033,6.306 -0.86771,1.4951 -2.01422,2.0507 -2.65389,1.0228"
         id="path5523999"
         style="fill:#ffd5d5;stroke:#de8787;stroke-width:0.5;stroke-linecap:round;stroke-linejoin:round;stroke-miterlimit:4;stroke-opacity:1;stroke-dasharray:none;stroke-dashoffset:0" />
      <path
         d="m 544.06144,140.1982 c 0.0741,0.7028 0.2346,0.7733 0.442,0.9985 0.2074,0.2252 0.066,1.331 -0.19052,1.697 -0.25656,0.3659 -0.13553,1.2233 0.0211,1.2155 0.1566,-0.01 0.35817,0.1 0.31932,-0.683 -0.0388,-0.783 1.10137,-0.6359 1.43388,-2.7398 0.26882,-1.7009 -0.0227,-2.0396 -0.29675,-2.026 -0.27404,0.014 -0.0994,-1.2117 0.0398,-1.5718 0.13912,-0.3601 0.43483,-0.728 0.62669,-0.816 0.19186,-0.088 0.15629,0.7771 0.0583,1.1745 -0.098,0.3973 0.39417,3.1985 -0.55184,4.6975 -0.946,1.499 -1.66683,2.7907 -1.42999,2.8182 0.23684,0.028 1.38472,-2.1488 1.79235,-3.4248 0.40763,-1.2761 0.74503,-3.1766 0.75923,-4.4724 0.0142,-1.2958 -0.23235,-1.5191 -0.50056,-1.388 -0.26822,0.131 -1.03984,1.1897 -1.27116,2.0646 -0.23131,0.8748 -0.61308,1.09 -0.8813,1.221 -0.26822,0.1311 -0.44454,0.5323 -0.37043,1.235 z"
         id="path5524199"
         style="fill:#e9afaf;stroke:none" />
    </g>
  </g>
  <path
     d="m 367.56898,284.18747 a 28.69908,28.69908 0 1 1 -57.39816,0 28.69908,28.69908 0 1 1 57.39816,0 z"
     transform="matrix(0.01810316,0,0,0.01810316,269.34719,134.16433)"
     id="path3222-9"
     style="color:#000000;fill:#000000;stroke:none;marker:none;visibility:visible;display:inline;overflow:visible;enable-background:new" />
  <path
     d="m 275.94105,139.26993 c 0.10942,-0.0126 0.38801,-0.033 0.43754,0.0495 0.0495,0.0825 0.24767,0.47057 -0.008,0.51184 -0.25592,0.0413 -0.43755,-0.1486 -0.47057,-0.2229 -0.033,-0.0743 -0.0653,-0.32617 0.0413,-0.33847 z"
     id="path3265-50"
     style="color:#000000;fill:#ffffff;stroke:none;marker:none;visibility:visible;display:inline;overflow:visible;enable-background:accumulate" />
  <path
     d="m 274.80178,139.56713 c -0.0242,0.11421 -0.0277,0.33354 -0.11558,0.34673 -0.14258,0.0214 -0.23941,-0.24767 -0.24767,-0.33022 -0.008,-0.0826 0.14266,-0.40109 0.19814,-0.3715 0.0991,0.0528 0.19877,0.19632 0.16511,0.35499 z"
     id="path3267-0"
     style="color:#000000;fill:#ffffff;stroke:none;marker:none;visibility:visible;display:inline;overflow:visible;enable-background:accumulate" />
  <path
     d="m 367.56898,284.18747 a 28.69908,28.69908 0 1 1 -57.39816,0 28.69908,28.69908 0 1 1 57.39816,0 z"
     transform="matrix(-0.01810316,0,0,0.01810316,295.70585,133.7918)"
     id="path3222-9-0"
     style="color:#000000;fill:#000000;stroke:none;marker:none;visibility:visible;display:inline;overflow:visible;enable-background:new" />
  <path
     d="m 289.11199,138.8974 c -0.10942,-0.0126 -0.38801,-0.033 -0.43754,0.0495 -0.0495,0.0825 -0.24767,0.47057 0.008,0.51184 0.25592,0.0413 0.43755,-0.1486 0.47057,-0.2229 0.033,-0.0743 0.0653,-0.32617 -0.0413,-0.33847 z"
     id="path3265-50-0"
     style="color:#000000;fill:#ffffff;stroke:none;marker:none;visibility:visible;display:inline;overflow:visible;enable-background:accumulate" />
  <path
     d="m 290.25126,139.1946 c 0.0242,0.11421 0.0276,0.33354 0.11558,0.34673 0.14258,0.0214 0.23941,-0.24767 0.24767,-0.33022 0.008,-0.0826 -0.14266,-0.40109 -0.19814,-0.3715 -0.0991,0.0528 -0.19877,0.19632 -0.16511,0.35499 z"
     id="path3267-0-94"
     style="color:#000000;fill:#ffffff;stroke:none;marker:none;visibility:visible;display:inline;overflow:visible;enable-background:accumulate" />
</svg>
