<?xml version="1.0" encoding="UTF-8" standalone="no"?>
<!-- Created with Inkscape (http://www.inkscape.org/) -->

<svg
   xmlns:dc="http://purl.org/dc/elements/1.1/"
   xmlns:cc="http://creativecommons.org/ns#"
   xmlns:rdf="http://www.w3.org/1999/02/22-rdf-syntax-ns#"
   xmlns:svg="http://www.w3.org/2000/svg"
   xmlns="http://www.w3.org/2000/svg"
   version="1.1"
   width="560"
   height="560"
   id="scarf_once_around">
  <g
     transform="matrix(0.88661034,0.09710009,-0.09710009,0.88661034,-778.60878,-450.68244)"
     id="g5855"
     style="display:inline;enable-background:new">
    <g
       id="g5850">
      <path
         d="m 1274.1787,565.92669 c 9.1924,2.47495 12.6311,15.0744 11.6673,23.6881 -0.9789,8.7483 0.165,59.6877 0,66.8216 -4.5962,0.70708 -10.9602,1.06068 -15.5564,-2.47486 -4.2776,-3.29047 -6.7175,-8.13174 -7.4246,-10.25304 0.7071,-14.4957 0.3536,-35.70892 0,-41.71932 6.364,-7.4246 12.3744,-20.15252 11.3137,-36.06248 z"
         id="path3008-1-38"
         style="color:#000000;fill:#ff0000;stroke:#aa0000;stroke-width:0.5;stroke-linecap:butt;stroke-linejoin:miter;stroke-miterlimit:4;stroke-opacity:1;stroke-dasharray:none;stroke-dashoffset:0;marker:none;visibility:visible;display:inline;overflow:visible;enable-background:accumulate" />
      <path
         d="m 1282.6255,573.06248 c 0.38,15.75899 0.8031,16.84378 1.9375,20.625 1.1948,3.98292 0.3977,7.17333 -1.5938,11.15625 -1.9915,3.98292 1.1869,25.47904 -0.4062,32.25 -1.5932,6.77096 -3.1875,1.21758 -3.1875,-1.96875 0,-3.18634 0.4062,-42.21875 0.4062,-42.21875 -1.5932,19.9146 -3.1955,38.61821 -3.5937,41.40625 -0.3983,2.78805 -1.5938,0.40509 -1.5938,-2.78125 0,-3.18633 0.3903,-32.25116 -0.4062,-35.4375 -1.9915,14.7368 -2.7733,36.24321 -2.375,39.03125 -1.5932,-9.55901 -2.3983,-24.30687 -2,-30.28125 -1.1949,11.15218 -1.9921,32.64266 -1.5938,38.21875 0.3983,5.57608 -2.7892,-1.18129 -3.1875,-5.5625 -0.3665,-4.03177 0.6032,-19.52909 -2.0312,-32.21875 0.2882,8.42047 0.4856,25.91959 -0.125,38.4375 0.7071,2.1213 3.1286,6.95953 7.4062,10.25 4.5962,3.53554 10.9663,3.17583 15.5625,2.46875 0.165,-7.1339 -0.9789,-58.0642 0,-66.8125 0.5711,-5.10399 -0.4172,-11.59524 -3.2187,-16.5625 z"
         id="path4213-8"
         style="color:#000000;fill:#d40000;stroke:none;marker:none;visibility:visible;display:inline;overflow:visible;enable-background:accumulate" />
    </g>
    <g
       id="g5846">
      <path
         d="m 1234.2272,561.33049 c -7.4246,7.4247 -9.8995,27.57718 -9.8995,43.13352 0,4.35341 -3.435,44.62557 -5.5103,47.26455 -1.7363,2.20801 -0.4329,2.71528 3.7425,3.64714 13.6011,3.03547 14.8493,-14.14205 28.9914,-10.96007 0.3536,-9.8995 -6.7175,-35.70894 -6.364,-51.26534 0.3536,-15.5563 -3.1819,-30.7591 -10.9601,-31.8198 z"
         id="path3010-6-9"
         style="color:#000000;fill:#ff0000;stroke:#aa0000;stroke-width:0.5;stroke-linecap:butt;stroke-linejoin:miter;stroke-miterlimit:4;stroke-opacity:1;stroke-dasharray:none;stroke-dashoffset:0;marker:none;visibility:visible;display:inline;overflow:visible;enable-background:accumulate" />
      <path
         d="m 1234.2192,561.34373 c -7.4246,7.4247 -9.9062,27.56866 -9.9062,43.125 0,4.35341 -3.4248,44.61102 -5.5,47.25 -1.7364,2.20801 -0.4255,2.72439 3.75,3.65625 13.601,3.03547 14.8578,-14.15073 29,-10.96875 0.2011,-5.63188 -2.0043,-16.41809 -3.875,-27.53125 -0.2741,-0.11836 -0.571,-0.18355 -0.8438,-0.21875 -0.5633,6.75924 1.6902,12.95989 -0.2812,19.4375 -0.5633,-3.94289 -0.2736,-11.55557 -5.9063,-16.625 3.3796,5.6327 1.407,10.72106 0.8438,9.03125 -0.5633,-1.68981 -0.8396,-3.40317 -3.9375,-5.65625 1.9714,3.09798 3.9382,10.43365 3.375,13.25 -0.5633,2.81635 -2.2493,7.0351 -2.8125,4.21875 -0.5633,-2.81635 -0.5591,-10.70952 -3.0938,-17.46875 0,1.68981 0.5633,10.995 0,14.65625 -0.5633,3.66126 -5.061,7.31866 -6.1875,2.8125 -1.1265,-4.50616 -1.9695,-11.54941 -1.4062,-21.125 -0.8449,6.19597 -2,16.90317 -2,19.15625 0,2.25308 -1.6872,5.91087 -1.9688,2.53125 -0.2816,-3.37962 -0.2832,-16.60152 1.125,-33.78125 1.4082,-17.17973 3.9653,-32.96105 6.5,-38.59375 1.2922,-2.87143 3.3769,-4.50808 1.9688,1.40625 -1.4082,5.91433 -4.7824,32.09536 -3.9375,53.78125 0.5632,-4.78779 2.2492,-33.49538 2.8125,-36.875 0.5632,-3.37962 2.5308,-5.3476 2.8125,-2.53125 0.2816,2.81635 1.4077,7.8623 0.2812,17.15625 1.1265,-6.4776 2.811,-10.70182 3.9375,-23.09375 0,3.66125 -1.4051,19.73268 -2.25,32.40625 0.9026,-3.15904 5.6023,-12.102 8.5938,-12.78125 -0.092,-1.67981 -0.1594,-3.30206 -0.125,-4.8125 0.098,-4.32386 -0.1148,-8.6206 -0.625,-12.59375 -0.3765,-2.18134 -0.7866,-4.4113 -1.25,-6.6875 0,-0.01 0,-0.0213 0,-0.0312 -1.7628,-6.95737 -4.7715,-11.91058 -9.0938,-12.5 z"
         id="path4192-0"
         style="color:#000000;fill:#d40000;stroke:none;marker:none;visibility:visible;display:inline;overflow:visible;enable-background:accumulate" />
    </g>
    <g
       id="g5842">
      <path
         d="m 1270.9967,553.1988 c 0,6.7175 1.0607,26.51655 -0.7071,30.05205 -1.7677,3.5355 -5.6568,13.78861 -11.6672,16.26342 -7.0711,-5.6568 -14.4957,-23.33454 -14.8493,-32.52688 -0.1921,-4.99636 0,-15.9099 0,-15.9099 -8.1317,2.1213 -10.6066,12.02078 -10.6066,16.26348 0,4.2426 3.5356,15.20275 2.4749,22.98091 -1.1274,8.26762 9.8995,43.13351 23.6881,30.05206 3.9151,-3.71436 14.538,-9.68852 17.3241,-12.72788 3.8891,-4.24268 8.4047,-19.46128 7.7782,-27.9307 -0.7691,-10.39576 -5.5158,-27.6271 -13.4351,-26.51656 z"
         id="path3006-3-4"
         style="color:#000000;fill:#ff0000;stroke:#aa0000;stroke-width:0.5;stroke-linecap:butt;stroke-linejoin:miter;stroke-miterlimit:4;stroke-opacity:1;stroke-dasharray:none;stroke-dashoffset:0;marker:none;visibility:visible;display:inline;overflow:visible;enable-background:accumulate" />
      <path
         d="m 1243.7812,551.0625 c -8.1316,2.1213 -10.625,12.03855 -10.625,16.28125 0,4.2426 3.5607,15.19059 2.5,22.96875 -1.1274,8.26762 9.8989,43.14395 23.6876,30.0625 3.915,-3.71436 14.5264,-9.67939 17.3124,-12.71875 3.8892,-4.24268 8.4078,-19.46808 7.7813,-27.9375 -0.7691,-10.39576 -5.5183,-27.64179 -13.4375,-26.53125 0,0.32844 0.027,0.98745 0.031,1.375 7.0955,1.47541 7.2433,11.66968 5.9063,14.34375 -1.4242,2.84849 -1.142,6.83559 -2.2813,17.375 1.4242,-3.13334 1.9928,-7.98561 2.5626,-9.125 0.2847,4.55758 0.5672,8.54696 -2.2813,12.25 -2.8485,3.70304 0.5769,9.69961 -0.5625,13.6875 -1.1394,3.98788 -5.6913,5.39677 -12.8125,11.09375 2.8485,-1.42425 8.5433,-3.97481 12.5313,-5.96875 -3.1334,2.84849 -12.8211,8.53617 -17.0938,13.09375 -4.2727,4.55758 -15.3871,-8.53881 -19.375,-22.78125 2.2788,5.12728 7.7141,11.40283 17.9688,19.09375 -3.7031,-2.84848 -15.6803,-20.52423 -16.25,-28.5 -0.5698,-7.97577 -3.41,-7.98824 -3.125,-18.8125 1.1394,1.42425 4.2657,15.96893 7.9687,23.375 -3.4182,-14.52729 -4.2597,-27.05662 -5.9687,-32.46875 -1.5807,-5.00523 1.4589,-6.85567 5.5312,-8.90625 0,-0.21151 0.031,-1.25 0.031,-1.25 z m -7.5624,7.59375 c 0,0 0.274,2.84507 0.8437,7.6875 -0.5697,-1.42425 -2.8376,-4.55417 -0.8437,-7.6875 z"
         id="path3560-4-2"
         style="color:#000000;fill:#d40000;stroke:none;marker:none;visibility:visible;display:inline;overflow:visible;enable-background:accumulate" />
    </g>
    <path
       d="m 1262.4198,605.64882 c 0,0 -1.2905,-3.98897 -3.847,-6.18313"
       id="path3556-7-2"
       style="color:#000000;fill:#ff0000;stroke:#aa0000;stroke-width:0.5;stroke-linecap:round;stroke-linejoin:miter;stroke-miterlimit:4;stroke-opacity:1;stroke-dasharray:none;stroke-dashoffset:0;marker:none;visibility:visible;display:inline;overflow:visible;enable-background:accumulate" />
  </g>
</svg>
