<?xml version="1.0" encoding="UTF-8" standalone="no"?>
<!-- Created with Inkscape (http://www.inkscape.org/) -->

<svg
   xmlns:dc="http://purl.org/dc/elements/1.1/"
   xmlns:cc="http://creativecommons.org/ns#"
   xmlns:rdf="http://www.w3.org/1999/02/22-rdf-syntax-ns#"
   xmlns:svg="http://www.w3.org/2000/svg"
   xmlns="http://www.w3.org/2000/svg"
   version="1.1"
   width="560"
   height="560"
   id="scarf_four_in_hand">
  <g
     transform="translate(-245.5625,-2413.7841)"
     id="g122590"
     style="display:inline;enable-background:new">
    <path
       d="m 540.85552,2572.3516 -1.84108,11.908 c 0,0 -12.44641,7.2081 -19.14777,8.8019 -6.70134,1.5936 -11.64067,1.069 -14.68153,12.6959 -3.04077,11.6268 -5.35997,21.5244 -9.21152,33.9105 -3.85145,12.386 -8.8225,34.9507 -7.24763,40.3821 1.5749,5.4313 9.13835,1.5086 13.01857,1.1521 3.88028,-0.3563 9.20861,1.2087 9.41451,-5.071 0.20589,-6.2797 -1.6561,-36.1406 0.74729,-50.4479 2.40331,-14.3074 4.6852,-19.509 8.89803,-22.635 4.21284,-3.126 6.16787,-2.9489 9.09045,-5.7041 4.80866,-4.5334 10.0314,-7.8507 15.85998,-12.8928 2.13215,-1.8445 1.72848,-4.673 1.47095,-5.621 -0.53521,-1.9696 -0.55919,-5.1051 -6.37025,-6.4787 z"
       id="path3035-33"
       style="color:#000000;fill:#ff0000;stroke:#aa0000;stroke-width:0.43564886;stroke-linecap:butt;stroke-linejoin:miter;stroke-miterlimit:4;stroke-opacity:1;stroke-dasharray:none;stroke-dashoffset:0;marker:none;visibility:visible;display:inline;overflow:visible;enable-background:accumulate" />
    <path
       d="m 505.18236,2605.7521 c -2.14128,8.1876 -3.93179,15.5321 -6.14447,23.4775 2.46236,-6.3437 5.3061,-11.5947 5.85291,-13.2825 0.73004,-2.2535 2.37774,-3.2782 2.13235,-0.5071 -0.24512,2.7712 -3.64405,16.5159 -4.92406,33.1879 2.08844,-7.1884 8.19062,-28.9876 8.95358,-32.2437 0.76295,-3.256 2.21596,-5.1214 2.25203,-2.6883 0.0361,2.433 -2.07601,8.1978 -3.4103,14.5539 -0.41263,1.9634 0.7123,4.2199 0.47917,7.3833 -0.32331,4.3869 -3.37118,8.8149 -2.51031,13.3388 0.7244,3.8066 1.69193,7.4738 0.15091,9.7393 -1.54111,2.2655 -2.53098,1.8203 -4.68487,6.9843 -1.05308,2.5247 -2.18561,0.6581 -1.71614,-1.2691 0.93087,-3.8236 1.31907,-7.9697 3.07023,-14.7735 -0.71809,3.0646 -4.01708,9.3739 -5.41152,11.8758 -1.39444,2.502 -3.79498,5.7741 -3.51702,2.0004 0.27816,-3.7738 0.64491,-8.7437 1.89519,-20.9775 -1.1131,2.1637 -3.26118,18.2141 -3.93437,21.087 -0.6732,2.873 -2.87261,4.5829 -2.45992,0.2346 0.32305,-3.4036 1.97871,-13.0316 3.90288,-21.43 -3.69761,12.7168 -7.90442,32.5551 -6.43709,37.6155 1.5749,5.4313 9.13441,1.5043 13.01469,1.148 3.8803,-0.3564 9.20313,1.2134 9.40894,-5.0663 0.206,-6.2798 -1.65158,-36.1622 0.75173,-50.4696 2.40339,-14.3073 4.69829,-19.5075 8.91112,-22.6335 -1.27963,-2.4789 -8.3467,-23.4253 -15.62566,2.7148 z"
       id="path3035-33-1"
       style="color:#000000;fill:#d40000;stroke:none;marker:none;visibility:visible;display:inline;overflow:visible;enable-background:accumulate" />
    <g
       transform="matrix(0.84831977,0.19877952,-0.19877952,0.84831977,124.11387,-759.31487)"
       id="g4602">
      <path
         d="m 1347.5539,3621.8346 c 6.4665,0.2086 5.4235,6.8836 5.6321,9.8039 0.2086,2.9204 0.6258,5.0063 2.5031,7.3009 1.8774,2.2945 -1.0429,10.6383 -5.632,15.2274 -4.5891,4.5891 -8.5524,6.0493 -14.1845,5.8407 -5.6321,-0.2086 6.4665,78.6403 3.7547,94.7021 -2.7117,16.0618 -6.0492,12.0985 -10.0125,11.0555 -3.9633,-1.043 -6.8837,-2.5031 -12.9329,-1.6688 -6.0493,0.8344 -5.8407,-2.2945 -4.7977,-4.589 1.043,-2.2946 3.5461,-35.2526 2.7117,-64.0387 -0.8344,-28.7861 15.4361,-46.0995 18.3564,-51.7316 2.9203,-5.632 11.6813,-14.393 13.1415,-16.2704 1.4601,-1.8773 1.8773,-3.9633 1.4601,-5.632 z"
         id="path3265-5"
         style="color:#000000;fill:#ff0000;stroke:#aa0000;stroke-width:0.5;stroke-linecap:butt;stroke-linejoin:miter;stroke-miterlimit:4;stroke-opacity:1;stroke-dasharray:none;stroke-dashoffset:0;marker:none;visibility:visible;display:inline;overflow:visible;enable-background:accumulate" />
      <path
         d="m 1335.0005,3640.5312 c -0.8023,1.1283 -1.5495,2.2294 -2.0625,3.2188 -2.9204,5.6321 -19.1782,22.9327 -18.3438,51.7188 0.065,2.2591 0.098,4.55 0.125,6.8437 0,0.033 0,0.061 0,0.094 0.4101,4.2385 0.8322,7.6832 0.9063,9.9063 0.3982,11.9488 2.7886,43.4069 1.5937,45 -1.1949,1.5932 -0.3977,2.4142 1.5938,2.8125 1.9914,0.3983 5.571,-0.4216 7.5625,0.375 1.9914,0.7965 4.775,3.5773 9.1562,1.1875 -1.9915,0.7966 -3.1813,3.9835 -7.5625,1.5937 -4.3812,-2.3897 -10.3756,-2.3823 -11.9687,-1.1874 -1.5932,1.1949 -4.3665,0.8038 -2.375,-1.1876 1.8047,-1.8047 2.2952,-17.3338 0.5937,-29.7187 -0.1011,2.3607 -0.1933,4.7097 -0.3125,6.875 l 0.5,19.6563 c -0.9745,0.8025 -1.9348,1.693 -2.8437,2.625 -0.6863,2.1423 -0.2224,4.4875 5.125,3.75 6.0492,-0.8343 8.9741,0.6132 12.9375,1.6562 3.9633,1.043 7.2882,5.0305 10,-11.0312 1.2142,-7.1919 -0.5406,-26.9905 -2.3438,-46.625 0.6744,14.8725 0.807,32.2859 -2.1562,45.25 -0.3983,-10.3557 -1.9688,-31.4644 -1.9688,-40.625 -0.7966,7.9658 -7.9841,29.0833 -7.1875,22.3124 0.7966,-6.771 -3.992,-28.6972 -3.5937,-33.875 0.3983,-5.1778 2.8125,-13.5329 2.8125,-18.3124 0,-4.7796 3.1642,-3.9757 3.5625,-1.1876 0.3983,2.7881 -1.5785,6.3529 -2.375,9.9376 -0.7966,3.5845 2.7892,6.7715 3.1875,1.5937 0.3982,-5.1778 2.3909,-6.3532 3.1875,10.375 0,-2.788 -1.5938,-22.7051 -1.5938,-28.2813 0,-1.9409 1.2805,-3.6884 3.2188,-5.5624 -0.1222,-6.0165 0.2702,-9.7643 1.5,-9.7188 4.677,0.1732 8.2167,-0.7854 11.9062,-3.75 -6.0797,3.1605 -11.9014,-0.1111 -4.6875,-8.8438 -7.4291,5.5718 -13.4518,3.1659 -8.0937,-6.875 z"
         id="path3918-9"
         style="color:#000000;fill:#d40000;stroke:none;marker:none;visibility:visible;display:inline;overflow:visible;enable-background:accumulate" />
    </g>
    <g
       id="g122552">
      <g
         transform="matrix(0.84831977,0.19877952,-0.19877952,0.84831977,124.11387,-759.31487)"
         id="g4597">
        <path
           d="m 1336.2898,3644.9886 c -5.6321,-0.2086 -17.3134,-4.5891 -21.6939,-10.0125 -4.3805,-5.4235 -3.7547,-8.5524 -3.9633,-10.6384 -0.2086,-2.0859 -0.2086,-8.761 -0.2086,-8.761 -6.8836,0.4172 -12.5157,5.4235 -10.0125,9.804 2.5031,4.3805 -4.3805,4.3805 -0.2086,9.5954 4.1719,5.2148 31.0806,31.0806 36.0869,10.0125 z"
           id="path3267-9-8"
           style="color:#000000;fill:#ff0000;stroke:#aa0000;stroke-width:0.5;stroke-linecap:butt;stroke-linejoin:miter;stroke-miterlimit:4;stroke-opacity:1;stroke-dasharray:none;stroke-dashoffset:0;marker:none;visibility:visible;display:inline;overflow:visible;enable-background:accumulate" />
        <path
           d="m 1310.438,3615.5625 c -6.8837,0.4172 -12.5344,5.432 -10.0313,9.8125 2.5031,4.3805 -4.3906,4.3788 -0.2187,9.5938 4.1718,5.2148 31.0874,31.0993 36.0937,10.0312 -5.6321,-0.2086 -17.307,-4.6079 -21.6875,-10.0312 -1.0357,-1.2824 -1.7906,-2.4265 -2.3437,-3.4688 -2.9825,-3.1658 -2.9068,-0.7828 -2.5938,0.1562 0.3983,1.1949 -2.5895,0.6098 -1.5937,1.4063 0.9957,0.7966 2.9767,0.3952 4.1715,1.9884 1.1949,1.5931 1.7984,2.5715 4.9847,6.3553 0,0 -4.3958,-1.9656 -7.7812,-4.1562 2.3897,2.5889 4.1849,3.1806 7.9687,5.9688 -1.7923,0 -7.1727,-2.3837 -9.5625,-4.375 -2.3897,-1.9916 -1.3989,-4.7819 -3.7886,-6.9724 -2.3898,-2.1906 0.393,-5.2417 -0.1906,-7.187 -1.1949,-3.9829 3.3744,-6.7653 4.7684,-7.3628 -0.5974,1.9916 -0.3787,7.5816 0.6171,9.7722 0.5409,1.19 1.5553,2.4383 2.7812,3.9374 -1.5196,-3.1056 -1.2544,-5.1692 -1.4062,-6.6874 -0.2086,-2.086 -0.1875,-8.7813 -0.1875,-8.7813 z"
           id="path3267-0-9"
           style="color:#000000;fill:#d40000;fill-opacity:1;stroke:none;marker:none;visibility:visible;display:inline;overflow:visible;enable-background:accumulate" />
      </g>
      <path
         d="m 540.86061,2572.3597 -1.83808,11.9021 c 0,0 -12.44685,7.2031 -19.1483,8.7968 -2.30072,0.547 -4.39241,0.8413 -6.27235,1.4666 7.6473,0.091 20.85465,-5.9591 25.02383,-9.4056 4.19952,-3.4713 1.69508,-6.3984 1.69508,-6.3984 1.2222,0.108 1.89277,0.9786 2.2017,1.9421 0.39587,-1.6894 0.24164,-3.3173 -1.59839,-5.3524 3.89628,1.6259 3.87733,5.5277 0.34301,8.4421 -3.53436,2.9142 -7.15953,5.4751 -8.24168,6.2906 3.50525,-2.03 7.13794,-4.5637 7.13794,-4.5637 0,0 -2.8363,2.898 -3.95807,3.8826 2.58145,-1.8901 6.37469,-4.4075 8.04293,-5.4423 -4.03062,3.5109 -9.9684,7.6594 -12.25152,9.7975 -2.2832,2.1382 -7.77833,4.2361 -9.65507,5.4003 0.69906,0.662 1.46871,1.1725 2.29487,1.5445 1.91341,-0.9893 3.39026,-1.5702 5.25414,-3.3273 4.80875,-4.5333 10.02931,-7.8536 15.85789,-12.8957 2.13215,-1.8445 1.73972,-4.6614 1.48219,-5.6094 -0.53521,-1.9696 -0.55913,-5.097 -6.37012,-6.4704 z m 2.42537,2.7775 c 3.26002,1.2985 2.99389,3.2157 2.55844,5.074 -0.1902,-1.4702 -1.10653,-3.6644 -2.55844,-5.074 z"
         id="path3962-7"
         style="color:#000000;fill:#d40000;fill-opacity:1;stroke:none;marker:none;visibility:visible;display:inline;overflow:visible;enable-background:accumulate" />
      <path
         d="m 534.68723,2611.8516 c -0.39244,3.2681 -3.77098,7.3298 -6.94507,7.3328 -3.17408,0 -7.31885,-3.0216 -12.41196,-7.5752 -5.09314,-4.5535 -6.60286,-5.2805 -9.3623,-7.0472 -2.75943,-1.7666 -5.29229,-6.0936 -7.20319,-13.0748 -1.91089,-6.9812 -1.31928,-8.7094 -0.10286,-9.9177 1.21652,-1.2083 3.04042,-2.5091 3.59698,-4.1973 0.63619,-1.9298 3.20151,-4.1033 4.18033,-3.5005 1.09499,2.4966 0.97059,3.0274 -0.76563,4.8607 -1.73628,1.8332 -0.069,4.2773 2.31738,7.6365 2.38627,3.3592 6.20746,5.3747 10.13371,8.5347 3.92632,3.1601 10.77808,14.5266 12.64183,16.1095 1.28605,1.0923 2.98683,1.0384 3.92083,0.8382 z"
         id="path3263-5-5"
         style="color:#000000;fill:#ff0000;stroke:#aa0000;stroke-width:0.43564886;stroke-linecap:butt;stroke-linejoin:miter;stroke-miterlimit:4;stroke-opacity:1;stroke-dasharray:none;stroke-dashoffset:0;marker:none;visibility:visible;display:inline;overflow:visible;enable-background:accumulate" />
      <path
         d="m 547.32983,2581.0348 c 0.0221,1.4985 -0.75343,3.1771 -2.36414,4.4798 -1.17643,0.9505 -6.37667,4.2399 -10.50117,7.5789 -0.0203,0.041 -0.0379,0.085 -0.0574,0.1265 6.35618,-2.7879 12.09862,-7.5025 13.46855,-8.7854 -1.75516,3.6877 -4.28148,4.6781 -6.65443,6.4389 3.34703,-1.3544 5.65174,-3.6645 7.1114,-4.57 -2.13263,3.7775 -4.70332,5.6875 -7.28477,7.5776 -2.58151,1.8901 1.27025,2.0836 1.97504,1.3577 0.70471,-0.7259 2.46653,-2.8273 3.3798,-3.6825 -1.07946,3.846 -3.13488,8.0054 -4.96136,9.716 4.3896,-2.001 2.32505,1.4436 1.11346,2.0507 3.83541,0.3641 -1.61964,3.1655 -3.0397,3.902 3.99374,-0.3116 6.68481,-3.4048 7.59812,-4.2601 -1.65806,2.9368 -3.49657,4.8427 -4.95654,6.4732 0.28923,-0.1654 0.57345,-0.3105 0.87104,-0.4951 4.80522,-2.9807 8.9335,-9.4725 7.79696,-11.7922 -1.13651,-2.3197 -1.07078,-4.1814 -0.66722,-6.7003 0.40353,-2.5188 2.61672,-7.9534 -2.8275,-9.4157 z"
         id="path3939-1"
         style="color:#000000;fill:#d40000;stroke:none;marker:none;visibility:visible;display:inline;overflow:visible;enable-background:accumulate" />
      <path
         d="m 506.24154,2573.7839 c -1.09165,-0.2468 -3.37904,1.7897 -3.97544,3.5989 -0.55655,1.6881 -2.39363,2.9795 -3.61007,4.1879 -1.2165,1.2083 -1.80357,2.9437 0.10733,9.925 1.9109,6.9812 4.44147,11.3026 7.20097,13.0693 2.75944,1.7667 4.27708,2.4802 9.3703,7.0337 5.09311,4.5536 9.22968,7.5115 12.40313,7.5766 1.62875,0.033 6.64325,-3.0055 6.91816,-7.2856 -0.42964,0.2112 -1.49097,0.8707 -2.97342,0.4752 -1.75045,-0.4665 -2.4808,-1.4846 -4.55825,-2.5061 2.34673,2.1538 1.8026,2.1991 1.83436,4.345 0.0318,2.146 -6.02887,2.1526 -9.2493,0.6851 -3.2205,-1.4675 -3.64197,-4.9549 -2.63111,-7.7477 -5.0654,1.8428 -7.54958,-1.2211 -11.855,-4.9032 -4.30551,-3.6821 -6.64502,-15.8305 -6.7058,-17.0922 -0.0608,-1.2617 2.25425,-4.9778 4.23139,-5.049 -1.12958,3.2995 -0.73443,9.2532 0.32161,12.3522 -0.43072,-2.4401 1.27574,-7.3444 3.03822,-8.9083 -1.1771,-1.9632 -1.64633,-3.5289 -0.44097,-4.8015 1.73631,-1.8333 1.87476,-2.3825 0.77977,-4.8791 -0.061,-0.038 -0.1331,-0.06 -0.20591,-0.076 z"
         id="path4163-7"
         style="color:#000000;fill:#d40000;fill-opacity:1;stroke:none;marker:none;visibility:visible;display:inline;overflow:visible;enable-background:accumulate" />
      <path
         d="m 528.60614,2598.4797 c -3.71464,3.7561 -8.44058,6.7842 -12.22825,9.455 -3.83323,2.7028 -7.19966,2.0464 -9.29567,-2.5516 2.94751,2.5574 4.74739,2.0458 8.32502,-0.476 3.5777,-2.5217 6.80141,-5.1264 8.63164,-6.5642 1.83033,-1.4379 3.68246,-0.071 4.56726,0.1368 z"
         id="path3261-6-3"
         style="color:#000000;fill:#ff0000;stroke:#aa0000;stroke-width:0.43564886;stroke-linecap:butt;stroke-linejoin:miter;stroke-miterlimit:4;stroke-opacity:1;stroke-dasharray:none;stroke-dashoffset:0;marker:none;visibility:visible;display:inline;overflow:visible;enable-background:accumulate" />
    </g>
  </g>
</svg>
