<?xml version="1.0" encoding="UTF-8" standalone="no"?>
<!-- Created with Inkscape (http://www.inkscape.org/) -->

<svg
   xmlns:dc="http://purl.org/dc/elements/1.1/"
   xmlns:cc="http://creativecommons.org/ns#"
   xmlns:rdf="http://www.w3.org/1999/02/22-rdf-syntax-ns#"
   xmlns:svg="http://www.w3.org/2000/svg"
   xmlns="http://www.w3.org/2000/svg"
   version="1.1"
   width="560"
   height="560"
   id="scarf_drape">
  <g
     transform="matrix(0.83824394,0.09141752,-0.09141752,0.83824394,-613.24807,-94.471686)"
     id="g5913"
     style="display:inline;enable-background:new">
    <g
       id="g5909">
      <path
         d="m 1074.3777,189.16049 c -1.1146,21.92013 8.4301,37.43832 12.1002,72.63609 3.315,31.79208 -1.0259,59.16775 1.6899,83.87554 1.6389,14.91021 -5.8007,9.80946 -12.8717,18.6483 -7.0711,8.83883 -7.9879,8.11965 -7.9879,8.11965 1.1838,-28.03737 4.8424,-68.91579 2.2608,-99.78956 -3.547,-42.41965 -3.1392,-67.83159 4.8087,-83.49002 z"
         id="path3387-5-6-1-2-6"
         style="color:#000000;fill:#ff0000;stroke:#aa0000;stroke-width:0.5;stroke-linecap:butt;stroke-linejoin:miter;stroke-miterlimit:4;stroke-opacity:1;stroke-dasharray:none;stroke-dashoffset:0;marker:none;visibility:visible;display:inline;overflow:visible;enable-background:accumulate" />
      <path
         d="m 1074.375,189.15625 c -7.9479,15.65843 -8.3595,41.08035 -4.8125,83.5 2.5816,30.87377 -1.0662,71.74388 -2.25,99.78125 0,0 0.8977,0.71383 7.9687,-8.125 7.0711,-8.83884 14.5139,-3.71479 12.875,-18.625 -2.7158,-24.70779 1.6276,-52.11417 -1.6874,-83.90625 -3.6702,-35.19777 -13.2084,-50.70487 -12.0938,-72.625 z m 2.5312,27.875 c 3.271,12.3706 -1.4697,35.68357 -0.1562,52.9375 0.2817,-21.68589 2.8118,-26.20028 3.375,-39.71875 0,5.91433 7.4887,28.62646 5.9062,72.9375 -0.2816,7.88578 -1.687,13.53664 -1.9687,9.59375 -0.2816,-3.94289 4e-4,-33.23537 -0.2813,-43.9375 -0.2816,9.01232 -3.3745,23.38155 -3.6562,18.59375 -0.2816,-4.78779 -1.4081,-11.84805 0,-31.5625 -2.8163,18.86954 -3.0953,30.41402 -1.9688,47.59375 -2.5346,-12.39194 -6.4357,-68.68397 -6.4687,-74.90625 -0.025,-4.78592 1.8105,-3.61301 1.9687,-0.84375 0.2389,4.17842 0.6372,9.67924 1.0938,15.78125 1.7041,-12.59932 1.4182,-19.54795 2.1562,-26.46875 z"
         id="path3387-5-6-1-2-6-7"
         style="color:#000000;fill:#d40000;stroke:none;marker:none;visibility:visible;display:inline;overflow:visible;enable-background:accumulate" />
    </g>
    <g
       id="g5905">
      <path
         d="m 1103.0782,186.312 c 2.2392,26.18785 -11.2785,57.59684 -13.2205,88.67706 -1.9193,30.71634 -4.1058,60.03098 -5.1272,67.18131 -2.1214,14.84925 7.5033,2.45481 19.7017,23.82701 5.6109,9.83068 7.4246,5.3033 7.4246,5.3033 -0.9762,-23.12051 -2.8175,-58.63645 -2.5347,-84.96283 0.4983,-46.38123 6.2133,-79.93904 -6.2439,-100.02585 z"
         id="path3387-5-6-0-5"
         style="color:#000000;fill:#ff0000;stroke:#aa0000;stroke-width:0.5;stroke-linecap:butt;stroke-linejoin:miter;stroke-miterlimit:4;stroke-opacity:1;stroke-dasharray:none;stroke-dashoffset:0;marker:none;visibility:visible;display:inline;overflow:visible;enable-background:accumulate" />
      <path
         d="m 1103.0938,186.3125 c 2.2391,26.18785 -11.308,57.60728 -13.25,88.6875 -1.9194,30.71634 -4.1036,60.00592 -5.125,67.15625 -2.1214,14.84925 7.5203,2.47155 19.7187,23.84375 5.6109,9.83068 7.4063,5.3125 7.4063,5.3125 -0.9763,-23.12051 -2.8141,-58.64237 -2.5313,-84.96875 0.4983,-46.38123 6.2384,-79.94444 -6.2187,-100.03125 z m 1.5937,37.1875 c 0.6205,-0.25083 1.8362,3.01333 1.625,10.40625 -0.2816,9.85722 -3.6567,47.04017 -3.375,63.375 0.2816,16.33482 1.1199,56.33413 4.7813,63.375 3.6612,7.04088 1.1281,7.03703 -1.125,2.8125 -2.2531,-4.22452 -5.0614,-21.96081 -5.9063,-73.5 -0.5633,22.24916 -1.6859,51.24268 -2.8125,56.59375 -1.1265,5.35106 -2.532,0.57828 -1.9688,-10.96875 0.5634,-11.54704 1.9259,-71.10618 3.4688,-74.3125 2.2618,-4.70023 -0.098,-6.2512 -1.125,-2.75 -0.7562,2.57749 -0.375,6.37307 -0.375,7.78125 10e-5,4.58468 -5.0621,75.74461 -5.3438,79.6875 -0.2817,3.94289 -3.0949,5.07059 -2.25,-0.84375 0.845,-5.91433 4.2195,-60.82758 3.6563,-72.65625 -1.4082,10.4205 -1.968,27.87115 -2.5313,30.6875 -0.5632,2.81635 -1.969,0.56789 -1.6874,-3.375 0.2817,-3.94289 1.4023,-29.85729 4.2187,-42.8125 2.8163,-12.9552 4.218,-19.1497 4.7813,-23.9375 0.5633,-4.78779 2.2503,4.24577 1.9687,7.34375 1.4082,-3.09798 1.4059,-5.3723 1.6875,-7.34375 0.2336,5.8408 0.4629,11.66417 0.375,16.21875 0.4154,-9.71788 1.5938,-21.28032 1.5938,-24.375 0,-0.8449 0.1369,-1.32264 0.3437,-1.40625 z"
         id="path3387-5-6-0-5-1"
         style="color:#000000;fill:#d40000;stroke:none;marker:none;visibility:visible;display:inline;overflow:visible;enable-background:accumulate" />
    </g>
  </g>
</svg>
