<?xml version="1.0" encoding="UTF-8" standalone="no"?>
<!-- Created with Inkscape (http://www.inkscape.org/) -->

<svg
   xmlns:dc="http://purl.org/dc/elements/1.1/"
   xmlns:cc="http://creativecommons.org/ns#"
   xmlns:rdf="http://www.w3.org/1999/02/22-rdf-syntax-ns#"
   xmlns:svg="http://www.w3.org/2000/svg"
   xmlns="http://www.w3.org/2000/svg"
   version="1.1"
   width="560"
   height="560"
   id="scarf_overhand">
  <g
     transform="matrix(0.86383161,0.05947508,-0.05947508,0.86383161,-762.97705,-720.46197)"
     id="g5832"
     style="display:inline;enable-background:new">
    <g
       id="g5808">
      <path
         d="m 1273.063,994.49995 c -2.5,8.25005 -4.5,53.75005 -4,60.25005 0.5,6.5 -3,4.75 -7.25,4 -4.25,-0.75 -6.25,-3 -11.75,1.5 -5.5,4.5 -5,-2 -4.75,-4.75 0.25,-2.75 2.5,-31.5 8.5,-52.75 6,-21.25005 12,-30.75005 7.5,-39.50005 21.4491,-5.87566 14.9252,19.54604 11.75,31.25 z"
         id="path3437-9-1"
         style="color:#000000;fill:#ff0000;stroke:#aa0000;stroke-width:0.5;stroke-linecap:butt;stroke-linejoin:miter;stroke-miterlimit:4;stroke-opacity:1;stroke-dasharray:none;stroke-dashoffset:0;marker:none;visibility:visible;display:inline;overflow:visible;enable-background:accumulate" />
      <path
         d="m 1266.625,962.375 c -1.5449,0.0378 -3.3016,0.32416 -5.3125,0.875 4.5,8.75 -1.5,18.24992 -7.5,39.5 -6,21.25 -8.25,50 -8.5,52.75 -0.25,2.75 -0.75,9.25 4.75,4.75 5.5,-4.5 7.5,-2.25 11.75,-1.5 4.25,0.75 7.75,2.5 7.25,-4 -0.5,-6.5 1.5,-51.9999 4,-60.25 2.8775,-10.60671 8.497,-32.49026 -6.4375,-32.125 z m -2.4688,27.9375 c 0.9139,-0.52654 2.7748,9.42321 3.25,12.75 0.5633,3.9429 0,32.4005 -0.8437,36.625 -0.8449,4.2245 -3.9356,-6.7681 -5.3437,-16.3437 -0.5634,9.0122 -0.5607,13.2449 -1.9688,16.9062 -1.4082,3.6612 -1.6868,-0.5892 -2.25,-3.9688 -0.5633,-3.3795 1.4058,-11.8087 1.6875,-14.625 0.2816,-2.8164 8e-4,-10.1535 -0.5625,-12.125 -0.5633,-1.9714 -1.4074,-5.621 -0.5625,-8.4374 -1.9714,6.7591 -0.8422,14.6469 -1.9687,21.4062 -1.1266,6.7592 -1.6864,18.0255 -2.5313,22.25 -0.8449,4.2245 -1.6894,-9.3067 -0.2813,-13.5312 -1.6899,1.6899 -2.2488,5.9031 -3.0937,8.1562 -0.8449,2.253 -0.5636,-3.0892 0.2813,-6.4688 0.8449,-3.3796 4.4969,-27.0196 6.75,-35.4687 2.253,-8.44905 3.0952,-1.98566 1.9687,10.4063 0.8449,-0.2817 2.25,-3.9376 2.25,-3.9376 0.5632,3.3796 1.1239,11.5506 1.9687,20.2813 1.4083,-9.8573 0.2805,-26.49191 0.8438,-32.40625 0.088,-0.92411 0.237,-1.37124 0.4062,-1.46875 z"
         id="path3437-9-4"
         style="color:#000000;fill:#d40000;fill-opacity:1;stroke:none;marker:none;visibility:visible;display:inline;overflow:visible;enable-background:accumulate" />
    </g>
    <path
       d="m 1260.313,931.74998 c -0.75,9 4.3956,19.35263 13.25,21.25 3.5,0.75 13.1179,-10.43867 14.25,-12.25 1.25,-2 0.75,-9 0.75,-9 3.5,1.5 4.5,4.5 4.25,7.5 -0.25,3 0.75,5 3.25,6.5 2.5,1.5 -0.2316,14.13604 -5.75,23.25 -8.089,13.35916 -19.1883,4.01609 -24.75,0 -5.9492,-4.29583 -16.8629,-17.34955 -10.0365,-25.54949 2.4135,-2.89914 -0.468,-9.39977 4.7865,-11.70051 z"
       id="path3437-4-4"
       style="color:#000000;fill:#ff0000;stroke:#aa0000;stroke-width:0.5;stroke-linecap:butt;stroke-linejoin:miter;stroke-miterlimit:4;stroke-opacity:1;stroke-dasharray:none;stroke-dashoffset:0;marker:none;visibility:visible;display:inline;overflow:visible;enable-background:accumulate" />
    <path
       d="m 1260.3125,931.75 c -5.2545,2.30074 -2.3676,8.78836 -4.7813,11.6875 -6.8262,8.19994 4.0821,21.26667 10.0313,25.5625 5.5617,4.01609 16.661,13.35916 24.75,0 5.5184,-9.11396 8.25,-21.75 5.75,-23.25 -2.5,-1.5 -3.5,-3.5 -3.25,-6.5 0.25,-3 -0.75,-6 -4.25,-7.5 0,0 0.5,7 -0.75,9 -1.1321,1.81133 -10.75,13 -14.25,12.25 -8.8544,-1.89737 -14,-12.25 -13.25,-21.25 z m -0.6563,1.28125 c -1.1948,8.96157 2.3965,13.13839 7.375,17.71875 4.9787,4.58035 0.975,19.31872 -3.4062,14.9375 -4.3812,-4.38121 -0.1844,-10.15004 -2.375,-14.53125 -0.5975,2.78804 -1.4068,6.38238 -3,5.1875 -1.5932,-1.19487 -5.565,-5.99437 -1.7812,-11.96875 -1.9915,9.559 2.1954,9.16362 2.5937,7.96875 0.3983,-1.19488 -1.1838,-3.96195 -1.7813,-6.75 0.9957,0.79659 1.7819,3.96506 3.375,4.5625 -1.394,-2.5889 -2.6017,-3.98583 -3,-7.96875 1.3941,2.38975 1.8095,3.00058 4,4.59375 0,0 -6.5803,-8.77135 -2,-13.75 z m 29.875,1.1875 c 2.7882,3.78378 2.198,7.37616 -1.1874,10.5625 2.788,-1.79232 4.375,-1.99883 4.375,1.1875 0,3.18634 -4.9688,2.00485 -4.9688,4.59375 0,2.5889 -0.6255,3.96991 -2.2188,7.15625 -1.593,3.18633 3.3966,5.40082 8.375,1.21875 -1.7922,4.58036 -6.3559,10.92896 -7.75,8.9375 -1.394,-1.99146 -4.0117,-9.55998 -3.8124,-13.34375 0.199,-3.78377 -0.7659,-3.97127 -1.5626,-0.1875 -0.3981,-3.98291 0.7825,-5.579 3.9688,-7.96875 3.1863,-2.38976 5.5779,-6.97845 4.7812,-12.15625 z"
       id="path3437-4-4-5"
       style="color:#000000;fill:#d40000;fill-opacity:1;stroke:none;marker:none;visibility:visible;display:inline;overflow:visible;enable-background:accumulate" />
    <g
       id="g5785">
      <path
         d="m 1280.813,948.24995 c -1.5,5.25 3.75,20.5 7.25,37 3.5,16.50005 2.25,34.75005 -0.75,41.50005 -3,6.75 -3.75,4.75 -4.5,2.75 -0.75,-2 -2,-5.5 -5.25,0 -3.25,5.5 -5.25,6.25 -6.5,7.75 -1.25,1.5 -2.75,-0.25 -3,-4.75 -0.25,-4.5 -3.5,-79.00005 -2.25,-82.50005 1.25,-3.5 2.5,-0.5 5,0 2.5,0.5 3.5,0.5 6,-1.75 2.5,-2.25 2.75,-1.25 4,0 z"
         id="path3457-9"
         style="color:#000000;fill:#ff0000;stroke:#aa0000;stroke-width:0.5;stroke-linecap:butt;stroke-linejoin:miter;stroke-miterlimit:4;stroke-opacity:1;stroke-dasharray:none;stroke-dashoffset:0;marker:none;visibility:visible;display:inline;overflow:visible;enable-background:accumulate" />
      <path
         d="m 1278.8438,946.9375 c -0.4761,0.0879 -1.0938,0.46875 -2.0313,1.3125 -2.5,2.25 -3.5,2.25 -6,1.75 -2.5,-0.5 -3.75,-3.5 -5,0 -1.25,3.5 2,78 2.25,82.5 0.25,4.5 1.75,6.25 3,4.75 1.25,-1.5 3.25,-2.25 6.5,-7.75 3.25,-5.5 4.5,-2 5.25,0 0.75,2 1.5,4 4.5,-2.75 3,-6.75 4.25,-25 0.75,-41.5 -0.7122,-3.35737 -1.4958,-6.63235 -2.2813,-9.8125 1.3786,6.77042 2.5427,16.84555 2.9376,29.875 0.3983,13.1436 -1.5747,19.1182 -2.9688,21.9063 -1.394,2.788 -2.5816,2.2021 -1.1875,-0.1876 1.394,-2.3897 1.3903,-29.67872 0.5937,-37.8437 -0.3982,3.18633 -0.5937,26.677 -0.5937,30.0625 0,3.3855 -1.2187,5.991 -1.2187,2.4062 0,-3.5845 -1.9854,-36.24606 -4.375,-46.99995 0.9957,9.55901 2.7807,39.42135 1.1874,48.78125 -0.3982,-4.9787 -0.3988,-12.7279 -1.5937,-16.3125 0.5974,2.1906 1.1949,14.337 0,17.125 0,-3.9829 -2.1647,-6.7733 -4.1563,-6.375 -1.9913,0.3983 -2.2187,-0.011 -2.2187,-9.9688 -1.1949,12.9445 -0.7696,22.1262 -0.9687,25.3126 -0.1993,3.1862 -1.4025,3.1666 -2,-0.2188 -0.5974,-3.3855 -0.8089,-50.36685 -1.4063,-60.125 -0.5974,-9.75816 6.7782,-14.55474 8.9687,-4 0,-6.37267 1.3947,-9.55163 1.5938,-1.1875 0.5975,-5.77523 1.4062,-7.96215 1.4062,-0.59375 0,0 0.1864,-5.27077 2.125,-7.5 -1.1248,-5.0952 -1.7246,-9.1356 -1.0937,-11.34375 -0.7813,-0.78125 -1.1753,-1.45898 -1.9687,-1.3125 z m 3.6562,15.375 c 0.618,5.99538 -2.6801,8.67085 -0.9375,17.90625 -0.3701,-7.40131 2.3688,-11.18087 3.875,-6.25 -1.0455,-4.18722 -2.0978,-8.13024 -2.9375,-11.65625 z"
         id="path3457-9-7"
         style="color:#000000;fill:#d40000;stroke:none;marker:none;visibility:visible;display:inline;overflow:visible;enable-background:accumulate" />
    </g>
  </g>
</svg>
