<?xml version="1.0" encoding="UTF-8" standalone="no"?>
<!-- Created with Inkscape (http://www.inkscape.org/) -->

<svg
   xmlns:dc="http://purl.org/dc/elements/1.1/"
   xmlns:cc="http://creativecommons.org/ns#"
   xmlns:rdf="http://www.w3.org/1999/02/22-rdf-syntax-ns#"
   xmlns:svg="http://www.w3.org/2000/svg"
   xmlns="http://www.w3.org/2000/svg"
   version="1.1"
   width="560"
   height="560"
   id="scarf_fake_knot">
  <metadata
     id="metadata91487">
    <rdf:RDF>
      <cc:Work
         rdf:about="">
        <dc:format>image/svg+xml</dc:format>
        <dc:type
           rdf:resource="http://purl.org/dc/dcmitype/StillImage" />
        <dc:title></dc:title>
      </cc:Work>
    </rdf:RDF>
  </metadata>
  <defs
     id="defs91485" />
  <g
     transform="matrix(0.9823359,0.13520347,-0.13520347,0.9823359,112.19956,-2437.9186)"
     id="g123256"
     style="display:inline;enable-background:new">
    <g
       transform="matrix(0.9333736,0,0,0.9333736,-715.5123,278.73328)"
       id="g5639">
      <path
         d="m 1345.1711,2462.4107 c 0,0 0.618,12.9785 -0.618,14.4205 -1.2361,1.4421 -7.8283,9.6824 -12.1545,13.3905 -4.3262,3.7082 -1.442,6.5923 -0.412,11.1244 1.03,4.5322 0.412,24.1029 -0.618,29.8712 -1.0301,5.7682 -1.8541,20.3947 -1.4421,22.6608 0.412,2.2661 1.8541,4.3262 6.1802,5.3562 4.3262,1.0301 10.5064,9.6824 11.1245,3.2961 0.618,-6.3862 2.06,-33.9912 -1.6481,-46.5577 -3.7081,-12.5665 -2.2661,-14.2145 -0.206,-15.6566 2.0601,-1.4421 11.2173,-17.1415 8.4463,-26.987 -0.8881,-3.1555 -5.4717,-9.4299 -8.6523,-10.9184 z"
         id="path3017-27"
         style="color:#000000;fill:#ff0000;stroke:#aa0000;stroke-width:0.5;stroke-linecap:butt;stroke-linejoin:miter;stroke-miterlimit:4;stroke-opacity:1;stroke-dasharray:none;stroke-dashoffset:0;marker:none;visibility:visible;display:inline;overflow:visible;enable-background:accumulate" />
      <path
         d="m 1345.1562,2462.4062 c 0,0 0.6423,12.9955 -0.5937,14.4376 -1.2361,1.442 -7.8301,9.6667 -12.1563,13.375 -4.326,3.7082 -1.4362,6.5928 -0.4062,11.125 1.03,4.5322 0.405,24.1066 -0.625,29.875 -1.0301,5.768 -1.8495,20.3901 -1.4375,22.6562 0.412,2.2661 1.8301,4.3137 6.1563,5.3438 4.326,1.0299 10.5068,9.6988 11.125,3.3124 0.4421,-4.5698 1.3092,-19.9848 0.4062,-33 -0.5136,23.4024 -3.7903,18.0522 -3.9375,13.3438 -0.1043,-3.3375 -0.186,-8.223 -1.4375,-13.125 0.3129,7.5094 -1.166,22.0816 -1.6875,23.4375 -0.5215,1.3559 -4.9969,0.2205 -7.5,-1.0313 1.9816,1.9818 5.2159,3.041 7.4063,3.5626 -1.7732,0.6257 -3.8809,0.096 -7.5313,-1.4688 0.4172,1.043 0.6332,1.3636 2.4063,2.0938 -1.4603,-2e-4 -1.8629,0.7101 -3.2188,-0.75 -1.3559,-1.4602 0.1867,-22.3062 0.8125,-27.3126 0.6258,-5.0061 1.9044,-24.8351 3.4687,-23.375 1.5646,1.4602 3.0224,19.9253 1.875,29.625 0.7301,-1.9816 3.218,-19.0978 3.8438,-24 0.9944,4.1769 4.3409,12.4977 5.375,17.0626 -0.377,-4.4305 -0.9837,-8.4982 -1.9062,-11.625 -3.7083,-12.5665 -2.2789,-14.2142 -0.2188,-15.6563 2.0601,-1.4421 11.2085,-17.1233 8.4375,-26.9687 -0.8881,-3.1556 -5.4755,-9.4491 -8.6563,-10.9376 z m 2.75,5.7188 c 1.3796,1.228 0.4605,5.6084 -0.094,7.25 1.3978,-1.6081 2.2737,-3.1667 2.5313,-4.0625 1.3457,2.6524 -2.1629,12.8731 -3.6563,15.4687 3.0956,-5.1514 5.0606,-8.8513 5.7813,-11.4687 1.4936,5.3769 -0.6242,11.4478 -3.25,16.625 -0.8544,1.6848 -3.5124,1.579 -5.9063,0.875 -2.3939,-0.704 0.4212,-2.1539 0.8437,-3.8437 -0.6918,0.5279 -1.6371,0.935 -2.375,1.1874 0.4604,-1.0235 1.1287,-2.1396 1.1876,-2.8437 -0.9252,0.8478 -3.2936,2.7763 -4.4063,2.625 -1.5028,-0.2044 -2.4394,-0.8265 -1.0313,-2.0937 1.4082,-1.2675 6.0704,-7.606 7.8126,-10.2813 2.0126,-3.0909 2.4216,-8.4518 2.5624,-9.4375 z"
         id="path3017-27-3"
         style="color:#000000;fill:#d40000;fill-opacity:1;stroke:none;marker:none;visibility:visible;display:inline;overflow:visible;enable-background:accumulate" />
    </g>
    <g
       transform="matrix(0.9333736,0,0,0.9333736,-715.5123,278.73328)"
       id="g5643">
      <path
         d="m 1326.6304,2484.4535 c -3.7081,7.8283 -4.3262,66.9525 -4.3262,71.4847 0,4.5322 1.6481,2.6781 3.9142,1.6481 2.2661,-1.0301 5.9742,-1.6481 7.8283,-1.8541 1.854,-0.206 2.8841,-1.0301 2.2661,-4.3262 -0.6181,-3.2961 -3.0902,-58.7122 -4.3262,-62.4203 -1.2361,-3.7082 -5.3562,-4.5322 -5.3562,-4.5322 z"
         id="path3023-33"
         style="color:#000000;fill:#ff0000;stroke:#aa0000;stroke-width:0.5;stroke-linecap:butt;stroke-linejoin:miter;stroke-miterlimit:4;stroke-opacity:1;stroke-dasharray:none;stroke-dashoffset:0;marker:none;visibility:visible;display:inline;overflow:visible;enable-background:accumulate" />
      <path
         d="m 1326.625,2484.4688 c -3.7081,7.8283 -4.3125,66.9365 -4.3125,71.4687 0,4.5322 1.6401,2.6862 3.9063,1.6563 2.2661,-1.0301 5.9584,-1.669 7.8124,-1.875 1.8541,-0.2061 2.8993,-1.0164 2.2813,-4.3126 -0.6181,-3.2961 -3.0765,-58.6981 -4.3125,-62.4062 -1.2361,-3.7082 -5.375,-4.5313 -5.375,-4.5312 z m 0.5625,17.875 c 2.4319,-0.414 4.6573,5.5305 3.875,15.4062 -0.8344,10.534 -2.3953,18.152 -2.8125,21.5938 -1.2516,-3.9633 -2.0622,-10.0187 -2.375,-11.6876 -0.7301,7.0923 -0.2386,13.6633 -0.9688,16.375 -0.73,2.7119 -1.8543,-1.2635 -1.75,-15.3437 1.043,-7.6137 1.229,-13.8614 1.4376,-16.4687 1.8773,3.7546 2.5101,13.2465 2.7187,16.0624 1.5645,-11.3683 -3.2324,-24.4253 -0.625,-25.7812 0.163,-0.085 0.3379,-0.1287 0.5,-0.1562 z"
         id="path3023-33-0"
         style="color:#000000;fill:#d40000;stroke:none;marker:none;visibility:visible;display:inline;overflow:visible;enable-background:accumulate" />
    </g>
    <path
       d="m 542.72687,2608.809 c -2.49966,0.9614 -9.03729,-4.0379 -13.65208,-6.9222 -4.61469,-2.8842 -14.22882,-9.4218 -14.22882,-15.1902 0,-5.7686 0.38456,-11.1524 0.38456,-11.1524 -7.69128,5.3838 -9.61412,14.6134 -6.92218,20.7664 2.69194,6.1531 14.80574,13.6521 19.80506,15.1904 4.99935,1.5382 8.26811,5.9607 10.19095,4.2301 1.92285,-1.7305 4.99933,-4.2301 4.42251,-6.9221 z"
       id="path3019-4-3"
       style="color:#000000;fill:#ff0000;stroke:#aa0000;stroke-width:0.46668682;stroke-linecap:butt;stroke-linejoin:miter;stroke-miterlimit:4;stroke-opacity:1;stroke-dasharray:none;stroke-dashoffset:0;marker:none;visibility:visible;display:inline;overflow:visible;enable-background:accumulate" />
    <path
       d="m 515.22834,2575.5324 c -7.69137,5.3838 -9.60479,14.6145 -6.91284,20.7675 2.69194,6.1531 14.80572,13.6582 19.80497,15.1965 4.99942,1.5383 8.25681,5.9599 10.17965,4.2294 1.92284,-1.7305 5.01035,-4.2208 4.43353,-6.9129 -2.49968,0.9615 -9.0358,-4.0285 -13.65059,-6.9127 -4.6147,-2.8842 -14.23395,-9.428 -14.23395,-15.1965 0,-5.7685 0.37905,-11.1713 0.37923,-11.1713 z m -2.04185,3.471 c -1.44561,1.3143 -3.01909,4.9829 -2.88758,8.4004 0.26285,-1.4458 2.25933,-6.0526 3.17936,-5.9212 0.91993,0.1314 -0.14654,4.3422 0.37913,7.2337 0.52577,2.8916 4.06905,5.1469 3.93772,6.0669 -0.13161,0.9201 -2.47792,1.0503 -3.52937,0.7876 -1.05154,-0.2631 -0.29056,-3.0443 -1.07926,-5.8045 0,1.4458 -1.96606,7.0932 -3.93762,3.1501 -1.97147,-3.943 0.12609,-11.0215 3.93762,-13.913 z m 16.36325,24.5885 c 0.0588,0 0.12275,0.011 0.17501,0.029 0.83649,0.2787 5.76881,4.2812 8.37125,6.8836 -1.02243,-0.8366 -2.97336,-1.7675 -7.99211,-4.4627 1.67298,1.1153 6.49703,4.7563 6.12536,5.221 -0.37186,0.4648 -1.5803,0.8177 -5.48357,-1.6917 0.5574,0.6506 2.80861,2.6113 6.15438,4.8418 -1.85872,-0.4646 -10.43903,-4.4442 -12.54221,-5.8627 -1.91397,-1.2908 1.09401,-2.421 1.83763,-2.421 0.74343,2e-4 2.23011,1.4148 3.99596,2.1585 -0.55769,-0.5577 -1.95085,-2.2479 -2.50845,-2.7126 -0.48787,-0.4067 0.80103,-1.7968 1.69175,-1.9542 0.0635,-0.011 0.11648,-0.028 0.175,-0.029 z"
       id="path3019-4-4"
       style="color:#000000;fill:#d40000;fill-opacity:1;stroke:none;marker:none;visibility:visible;display:inline;overflow:visible;enable-background:accumulate" />
    <g
       transform="matrix(0.9333736,0,0,0.9333736,-715.5123,278.73328)"
       id="g5686">
      <path
         d="m 1335.2827,2487.5436 c -5.3562,-5.9742 -11.1244,-5.5622 -15.6566,-4.3261 -4.5321,1.236 -8.2403,0.412 -9.4763,-2.8842 1.236,7.6223 8.8583,15.2446 12.7725,14.6266 3.9141,-0.618 6.1802,-1.8541 7.8282,-3.5022 1.6481,-1.648 4.5322,-3.9141 4.5322,-3.9141 z"
         id="path3021-66"
         style="color:#000000;fill:#ff0000;stroke:#aa0000;stroke-width:0.5;stroke-linecap:butt;stroke-linejoin:miter;stroke-miterlimit:4;stroke-opacity:1;stroke-dasharray:none;stroke-dashoffset:0;marker:none;visibility:visible;display:inline;overflow:visible;enable-background:accumulate" />
      <path
         d="m 1310.1562,2480.3438 c 1.2361,7.6222 8.8671,15.2429 12.7813,14.625 3.9141,-0.618 6.1645,-1.852 7.8125,-3.5 1.6481,-1.6481 4.5312,-3.9376 4.5312,-3.9376 -5.3561,-5.9742 -11.124,-5.5485 -15.6562,-4.3124 -4.5321,1.2359 -8.2328,0.4212 -9.4688,-2.875 z m 14.7188,3.125 c 2.3543,-0.081 3.9244,0.8517 6.6875,2.7187 -1.5932,0.9958 -5.6915,0.6897 -10.9687,1.1875 2.8876,0.2987 6.965,1.5806 7.5624,2.875 0.5975,1.2945 -2.4894,2.9041 -5.875,2.4062 -2.5887,-0.3806 -6.4294,-4.4833 -6.5312,-6.2187 1.1894,0.1483 2.9204,-0.2304 4.0938,-0.6875 -1.8864,0.2164 -4.6401,-1.3673 -4.625,-1.875 1.4936,0.7965 3.6828,0.7966 6.9687,0 1.0406,-0.2523 1.9027,-0.3792 2.6875,-0.4062 z"
         id="path3021-66-0"
         style="color:#000000;fill:#d40000;fill-opacity:1;stroke:none;marker:none;visibility:visible;display:inline;overflow:visible;enable-background:accumulate" />
    </g>
  </g>
</svg>
