<?xml version="1.0" encoding="UTF-8" standalone="no"?>
<svg xmlns="http://www.w3.org/2000/svg" id="scarf_four_in_hand" width="560" height="560">
  <g id="g122590" style="display:inline;enable-background:new">
    <path id="path3035-33" d="M295.3 158.6l-1.8 12s-12.5 7-19.2 8.7c-6.7 1.6-11.6 1-14.7 12.7-3 11.6-5.3 21.5-9.2 34-3.8 12.3-8.8 34.8-7.2 40.3 1.5 5.4 9 1.5 13 1 4-.2 9.2 1.3 9.4-5 .2-6.2-1.7-36 .7-50.4 2.4-14.4 4.7-19.6 9-22.7 4.2-3.2 6-3 9-5.7 4.8-4.6 10-8 16-13 2-1.8 1.6-4.6 1.4-5.6-.6-2-.6-5-6.4-6.4z" style="color:#000000;fill:#ff0000;stroke:#aa0000;stroke-width:0.43564886;stroke-linecap:butt;stroke-linejoin:miter;stroke-miterlimit:4;stroke-opacity:1;stroke-dasharray:none;stroke-dashoffset:0;marker:none;visibility:visible;display:inline;overflow:visible;enable-background:accumulate"/>
    <path id="path3035-33-1" d="M259.6 192l-6 23.4c2.3-6.3 5.2-11.5 5.7-13.2.8-2.3 2.4-3.3 2.2-.5-.3 2.7-3.7 16.5-5 33l9-32c.8-3.4 2.2-5.2 2.2-2.8 0 2.3-2 8-3.4 14.5-.4 2 .7 4.2.5 7.3-.3 4.4-3.4 9-2.5 13.4.7 3.8 1.7 7.5.2 9.7-1.6 2.2-2.6 1.7-4.7 7-1 2.4-2.2.6-1.7-1.4 1-3.8 1.4-8 3-14.7-.6 3-4 9.2-5.3 11.7-1.4 2.5-3.8 5.8-3.5 2 .3-3.7.6-8.7 2-21-1.2 2.2-3.4 18.3-4 21.2-.7 2.7-3 4.4-2.5 0 .3-3.3 2-13 4-21.3-3.8 12.7-8 32.5-6.5 37.6 1.5 5.4 9 1.5 13 1 4-.2 9.2 1.3 9.4-5 .2-6.2-1.7-36 .7-50.4 2.4-14.4 4.7-19.6 9-22.7-1.3-2.5-8.4-23.5-15.7 2.7z" style="color:#000000;fill:#d40000;stroke:none;marker:none;visibility:visible;display:inline;overflow:visible;enable-background:accumulate"/>
    <g id="g4602">
      <path id="path3265-5" d="M300.5 166.4c5.5 1.4 3.3 7 3 9.4-.5 2.5-.6 4.4.5 6.7 1.2 2.3-3 8.8-7.8 11.8s-8.4 3.4-13.2 2c-4.7-1.2-10 68-15.6 81.2-5.5 13-7.6 9-10.7 7.4-3.2-1.8-5.4-3.6-10.7-4-5.3-.6-4.5-3.2-3-5 1.2-1.7 10-29.2 15-53.7 5-24.6 22.2-36 25.8-40.3 3.6-4 12.8-9.8 14.4-11 1.6-1.4 2.4-3 2.3-4.6z" style="color:#000000;fill:#ff0000;stroke:#aa0000;stroke-width:0.5;stroke-linecap:butt;stroke-linejoin:miter;stroke-miterlimit:4;stroke-opacity:1;stroke-dasharray:none;stroke-dashoffset:0;marker:none;visibility:visible;display:inline;overflow:visible;enable-background:accumulate"/>
      <path id="path3918-9" d="M286.2 179.7c-1 .8-1.8 1.6-2.4 2.4-3.6 4.3-21 15.7-26 40.3l-1 5.8v.2l-1.3 8.6c-2 10.2-6.3 37.3-7.7 38.4-1.3 1-.8 2 .8 2.7 1.6.7 4.8.7 6.4 1.8 1.5 1 3.3 4 7.5 2.8-1.8.3-3.5 2.7-6.7-.2-3.3-3-8.3-4-10-3.4-1.5.7-3.8 0-1.7-1.4 2-1.2 5.5-14.3 6.5-25L249 258l-3.6 16.8c-1 .5-2 1-3 1.7-1 1.7-1 3.7 3.6 4.2 5.3.4 7.5 2.2 10.7 4 3 1.5 5.2 5.6 10.7-7.5 2.4-6 5-23 7.3-40-2.4 12.7-5.8 27.5-11 38 1.8-9 4.7-27 6.5-35-2.2 6.7-12.5 23.2-10.5 17.6 2-5.5 2.3-25 3.7-29.4 1.4-4.3 5-11 6-15s3.5-2.7 3.3-.2c-.2 2.4-2.6 5-4 8-1.4 2.8 1 6.2 2.4 2 1.4-4.4 3.4-5 .7 9.3.6-2.3 3.2-19.5 4.3-24.3.4-1.6 1.8-2.8 3.8-4 1-5.2 2.2-8.3 3.2-8 4 1 7.2 1 11-.8-6 1.5-10.2-2.5-2.3-8.4-7.4 3.2-12 0-5.5-7.5z" style="color:#000000;fill:#d40000;stroke:none;marker:none;visibility:visible;display:inline;overflow:visible;enable-background:accumulate"/>
    </g>
    <g id="g122552">
      <g id="g4597">
        <path id="path3267-9-8" d="M286.4 183.8c-4.8-1.3-13.8-7.4-16.4-12.8-2.7-5.5-1.5-8-1.3-9.8.3-2 1.6-7.5 1.6-7.5-6-1-11.7 2-10.5 6.3 1.3 4.2-4.5 2.8-2 8 2.5 5.4 20 32.6 28.6 15.8z" style="color:#000000;fill:#ff0000;stroke:#aa0000;stroke-width:0.5;stroke-linecap:butt;stroke-linejoin:miter;stroke-miterlimit:4;stroke-opacity:1;stroke-dasharray:none;stroke-dashoffset:0;marker:none;visibility:visible;display:inline;overflow:visible;enable-background:accumulate"/>
        <path id="path3267-0-9" d="M270.3 153.7c-6-1-11.7 2-10.5 6.3 1.3 4.2-4.5 2.8-2 8 2.5 5.3 20 32.7 28.6 15.8-4.8-1.3-13.8-7.4-16.4-12.8-.7-1.3-1-2.5-1.3-3.4-2-3.3-2.3-1.3-2.3-.4 0 1-2.3 0-1.6.8.7 1 2.5 1 3.2 2.6.6 1.5 1 2.5 3 6.3 0 0-3.4-2.6-6-5 1.7 2.5 3 3.4 5.7 6.5-1.5-.3-5.6-3.4-7.2-5.6-1.7-2.3-.3-4.4-2-6.8-1.4-2.3 1.5-4.3 1.4-6-.3-3.7 4-5.2 5.4-5.4-1 1.6-1.8 6.4-1.4 8.4.2 1 .8 2.4 1.6 4-.7-3 0-4.7 0-6l1.7-7.5z" style="color:#000000;fill:#d40000;fill-opacity:1;stroke:none;marker:none;visibility:visible;display:inline;overflow:visible;enable-background:accumulate"/>
      </g>
      <path id="path3962-7" d="M295.3 158.6l-1.8 12s-12.5 7-19.2 8.7c-2.3.5-4.4.8-6.3 1.4 7.7 0 21-6 25-9.4 4.3-3.4 1.8-6.4 1.8-6.4 1.2 0 2 1 2.2 2 .4-1.8.2-3.4-1.6-5.5 4 1.7 3.8 5.6.3 8.5-3.5 3-7.2 5.4-8.2 6.3 3.5-2 7-4.6 7-4.6s-2.7 3-4 4c2.7-2 6.5-4.5 8.2-5.6-4 3.6-10 7.8-12.3 10-2.2 2-7.7 4.2-9.6 5.3.7.7 1.4 1.2 2.3 1.6 2-1 3.5-1.7 5.3-3.4 4.8-4.6 10-8 16-13 2-1.8 1.6-4.6 1.4-5.6-.6-2-.6-5-6.4-6.4zm2.4 2.8c3.3 1.3 3 3.2 2.6 5-.2-1.4-1-3.6-2.6-5z" style="color:#000000;fill:#d40000;fill-opacity:1;stroke:none;marker:none;visibility:visible;display:inline;overflow:visible;enable-background:accumulate"/>
      <path id="path3263-5-5" d="M289 198c-.3 3.3-3.6 7.4-6.8 7.4-3.2 0-7.3-3-12.4-7.6-5-4.5-6.6-5.3-9.4-7-2.8-1.8-5.3-6-7.2-13-2-7-1.3-8.8 0-10 1-1.2 3-2.5 3.5-4.2.6-2 3.2-4 4.2-3.5 1 2.6.8 3-1 5-1.6 1.8 0 4.2 2.4 7.6 2.4 3.3 6.2 5.4 10.2 8.5 4 3.3 10.7 14.6 12.6 16.2 1.3 1 3 1 4 1z" style="color:#000000;fill:#ff0000;stroke:#aa0000;stroke-width:0.43564886;stroke-linecap:butt;stroke-linejoin:miter;stroke-miterlimit:4;stroke-opacity:1;stroke-dasharray:none;stroke-dashoffset:0;marker:none;visibility:visible;display:inline;overflow:visible;enable-background:accumulate"/>
      <path id="path3939-1" d="M301.8 167.3c0 1.4-.8 3-2.4 4.4-1.2 1-6.4 4.3-10.5 7.6h-.2c6.4-2.7 12-7.4 13.5-8.6-1.7 3.6-4.3 4.6-6.6 6.4 3.3-1.3 5.6-3.6 7-4.5-2 3.8-4.6 5.7-7.2 7.6-2.6 2 1.3 2.2 2 1.5.7-.8 2.4-3 3.3-3.7-1 3.8-3 8-5 9.7 4.5-2 2.4 1.4 1.2 2 3.8.4-1.6 3.2-3 4 4-.4 6.6-3.5 7.6-4.3-1.7 3-3.5 4.8-5 6.5l1-.5c4.7-3 8.8-9.5 7.7-11.8-1.2-2.4-1-4.2-.7-6.7.4-2.6 2.6-8-2.8-9.4z" style="color:#000000;fill:#d40000;stroke:none;marker:none;visibility:visible;display:inline;overflow:visible;enable-background:accumulate"/>
      <path id="path4163-7" d="M260.7 160c-1-.2-3.4 1.8-4 3.6-.6 1.7-2.4 3-3.6 4.2-1 1.2-1.7 3 .2 10 2 7 4.4 11.2 7.2 13 2.8 1.7 4.3 2.5 9.4 7 5 4.6 9.2 7.5 12.4 7.6 1.6 0 6.6-3 7-7.3-.5.3-1.6 1-3 .6-1.8-.5-2.6-1.5-4.6-2.5 2.3 2.2 1.8 2.3 1.8 4.4 0 2.2-6 2.2-9.3.7-3-1.4-3.5-5-2.5-7.6-5 1.8-7.5-1.3-11.8-5-4.3-3.6-6.7-15.8-6.7-17 0-1.3 2.2-5 4.2-5-1 3.2-.7 9.2.3 12.3-.4-2.5 1.3-7.4 3-9-1-2-1.6-3.5-.4-4.7 1.8-2 2-2.4 1-5h-.3z" style="color:#000000;fill:#d40000;fill-opacity:1;stroke:none;marker:none;visibility:visible;display:inline;overflow:visible;enable-background:accumulate"/>
      <path id="path3261-6-3" d="M283 184.7c-3.7 3.8-8.4 6.8-12.2 9.5-3.8 2.7-7.2 2-9.3-2.6 3 2.6 4.8 2 8.3-.5 3.6-2.4 6.8-5 8.7-6.4 1.8-1.5 3.7 0 4.5 0z" style="color:#000000;fill:#ff0000;stroke:#aa0000;stroke-width:0.43564886;stroke-linecap:butt;stroke-linejoin:miter;stroke-miterlimit:4;stroke-opacity:1;stroke-dasharray:none;stroke-dashoffset:0;marker:none;visibility:visible;display:inline;overflow:visible;enable-background:accumulate"/>
    </g>
  </g>
</svg>
