<?xml version="1.0" encoding="UTF-8" standalone="no"?>
<!-- Created with Inkscape (http://www.inkscape.org/) -->

<svg
   xmlns:dc="http://purl.org/dc/elements/1.1/"
   xmlns:cc="http://creativecommons.org/ns#"
   xmlns:rdf="http://www.w3.org/1999/02/22-rdf-syntax-ns#"
   xmlns:svg="http://www.w3.org/2000/svg"
   xmlns="http://www.w3.org/2000/svg"
   version="1.1"
   width="560"
   height="560"
   id="shoes_plateforms">
  <g
     transform="translate(9.7871543e-7,-1)"
     id="g129071"
     style="display:inline;enable-background:new">
    <path
       d="m 306.31054,488.39183 c 0,7.19724 -3.95374,7.72716 -4.30026,15.69678 -0.1654,3.80407 -0.3362,13.94219 -0.33078,15.44318 0.007,1.93079 -2.87578,2.96142 -3.50589,3.3394 0.0157,-7.48954 -0.19638,-24.97547 -0.19638,-26.60008 3.80888,-4.3741 8.31725,-5.30649 8.33331,-7.87928 z"
       id="path128785-6"
       style="color:#000000;fill:#ff0000;stroke:#aa0000;stroke-width:1;stroke-linecap:butt;stroke-linejoin:miter;stroke-miterlimit:4;stroke-opacity:1;stroke-dasharray:none;stroke-dashoffset:0;marker:none;visibility:visible;display:inline;overflow:visible;enable-background:accumulate" />
    <path
       d="m 298.02305,523.72688 -2.9513,-2.20148 c -0.11604,-4.33169 -0.12443,-13.23234 -0.36797,-17.55917 l 3.55567,-6.62895 c 0.18113,2.89803 -0.2364,22.40481 -0.2364,26.3896 z"
       id="path128791-4"
       style="color:#000000;fill:#aa0000;stroke:none;marker:none;visibility:visible;display:inline;overflow:visible;enable-background:accumulate" />
    <path
       d="m 274.04803,512.13399 c -1.32316,2.15013 0.17599,2.55556 0.17599,2.55556 -1.15777,3.47328 -2.48092,18.60051 -2.64632,19.42748 -1.52759,-1.8331 -1.67209,-9.70485 -1.77119,-13.81692 -0.0699,-2.90041 1.83811,-5.85172 4.24152,-8.16612 z"
       id="path128787-5"
       style="color:#000000;fill:#ff0000;stroke:#aa0000;stroke-width:1;stroke-linecap:butt;stroke-linejoin:miter;stroke-miterlimit:4;stroke-opacity:1;stroke-dasharray:none;stroke-dashoffset:0;marker:none;visibility:visible;display:inline;overflow:visible;enable-background:accumulate" />
    <path
       d="m 304.1875,484.1875 c 0.13835,5.21726 -4.96105,7.04896 -8.125,10.6875 -3.25709,3.74566 -3.97919,9.95392 -7,17.40625 0.4971,2.86078 1.38077,6.15539 2.125,9.03125 2.49746,-11.72386 1.04838,-20.5489 11.03125,-27.0625 5.80965,-3.79067 4.62859,-5.70116 1.96875,-10.0625 z"
       id="path128789-3"
       style="color:#000000;fill:#ff0000;stroke:#aa0000;stroke-width:1;stroke-linecap:butt;stroke-linejoin:miter;stroke-miterlimit:4;stroke-opacity:1;stroke-dasharray:none;stroke-dashoffset:0;marker:none;visibility:visible;display:inline;overflow:visible;enable-background:accumulate" />
    <path
       d="m 292.5888,525.9949 c 0.47834,2.06402 -1.53893,1.83827 -3.32453,2.03667 -2.4313,0.2701 -5.06499,1.51148 -10.19789,1.51148 -3.877,0 -5.72235,0.32824 -6.94655,-2.52416 -0.0609,1.1483 -0.25157,9.63979 0.0355,11.6097 0.40935,2.8089 4.28363,5.52483 8.38941,5.52483 4.41472,0 11.46077,-3.63129 12.13149,-6.90437 0.31359,-1.53034 -0.0115,-7.24547 -0.0874,-11.25415 z"
       id="path128797-1"
       style="fill:#ff0000;stroke:#aa0000;stroke-width:1;stroke-miterlimit:4;stroke-dasharray:none;marker:none;visibility:visible;display:inline;overflow:visible;enable-background:accumulate" />
    <path
       d="m 305.68561,486.86932 c 0.0786,1.57638 -4.8275,5.49654 -7.44366,7.55209 -2.68882,2.11265 -5.077,9.66594 -8.7107,20.20359 0.48918,2.23107 1.10831,4.57015 1.65625,6.6875 2.49746,-11.72386 0.41845,-19.81454 9.77747,-27.1965 3.08862,-2.43615 6.18339,-3.79175 4.72064,-7.24668 z"
       id="path128895"
       style="color:#000000;fill:#aa0000;fill-opacity:1;stroke:none;marker:none;visibility:visible;display:inline;overflow:visible;enable-background:accumulate" />
    <path
       d="m 269.9375,517.375 c -0.71339,2.2917 -0.18689,5.1415 2.43312,5.79143 0.11834,-0.45891 0.3618,-1.72614 0.36959,-2.58247 -1.23307,-0.19051 -2.67931,-1.46381 -2.80271,-3.20896 z"
       id="path128793"
       style="color:#000000;fill:#aa0000;fill-opacity:1;stroke:none;stroke-width:0.5;marker:none;visibility:visible;display:inline;overflow:visible;enable-background:accumulate" />
    <g
       id="g128795">
      <path
         d="m 291.12605,520.80107 c 0.47834,2.06402 1.59553,3.92791 -0.19007,4.12631 -2.4313,0.2701 -6.7367,-2.6678 -11.8696,-2.6678 -3.877,0 -5.51339,4.0896 -6.73759,1.2372 -0.14779,2.78566 -3.10201,10.31516 8.21596,10.65664 5.45706,0.16465 11.46077,-3.63129 12.13149,-6.90437 0.31359,-1.53034 -0.84735,-4.52894 -1.55019,-6.44798 z"
         id="path128797"
         style="fill:#ff0000;stroke:#aa0000;stroke-width:1;stroke-miterlimit:4;stroke-dasharray:none;marker:none;visibility:visible;display:inline;overflow:visible;enable-background:accumulate" />
      <path
         d="m 292.75,526.6875 c -0.80581,3.55029 -5.33221,6.61687 -12.05845,6.61687 -2.90258,0 -6.88264,-1.48779 -9.06655,-5.14812 0.58647,2.91328 3.04349,5.58207 8.90625,6 7.53007,0.53678 11.48553,-3.63317 12.15625,-6.90625 0.0353,-0.17235 0.0557,-0.35654 0.0625,-0.5625 z"
         id="path128799"
         style="color:#000000;fill:#aa0000;fill-opacity:1;stroke:none;stroke-width:0.5;marker:none;visibility:visible;display:inline;overflow:visible;enable-background:accumulate" />
    </g>
    <path
       d="m 292.65625,528.03125 c -1.69809,2.39785 -4.61052,4.30996 -9.09375,5.59375 l 0,10.0625 c 4.05532,-1.05929 8.5937,-3.84478 9.125,-6.4375 0.26506,-1.29349 0.0801,-5.50331 -0.0312,-9.21875 z"
       id="path128879"
       style="color:#000000;fill:#aa0000;fill-opacity:1;stroke:none;marker:none;visibility:visible;display:inline;overflow:visible;enable-background:accumulate" />
    <path
       d="m 272.0625,530.15625 c -0.0613,3.00793 -0.11177,7.05844 0.0937,8.46875 0.30458,2.09002 2.53452,4.1247 5.34375,5.03125 l 0,-10.875 -5.4375,-2.625 z"
       id="path128881"
       style="color:#000000;fill:#aa0000;fill-opacity:1;stroke:none;marker:none;visibility:visible;display:inline;overflow:visible;enable-background:accumulate" />
    <path
       d="m 272.90625,524.6875 c -0.26167,0.19341 -0.51365,0.37707 -0.75,0.5625 -0.26418,2.66325 -0.35004,6.53993 3.71875,8.15625 0.58248,-0.0257 1.1127,-0.10838 1.46875,-0.1875 0,-6.24324 -4.6018,-3.27379 -4.4375,-8.53125 z"
       id="path128991"
       style="color:#000000;fill:#aa0000;fill-opacity:1;stroke:none;marker:none;visibility:visible;display:inline;overflow:visible;enable-background:accumulate" />
    <path
       d="m 292.625,525.625 c -0.81387,4.68335 -8.875,2.09653 -8.875,7.59375 0.63754,0.0168 1.22878,0.0369 1.8125,0.0312 3.63316,-1.28412 6.65993,-3.73047 7.125,-6 0.0899,-0.43865 0.0444,-1.00508 -0.0625,-1.625 z"
       id="path128993"
       style="color:#000000;fill:#aa0000;fill-opacity:1;stroke:none;marker:none;visibility:visible;display:inline;overflow:visible;enable-background:accumulate" />
  </g>
</svg>
