<?xml version="1.0" encoding="UTF-8" standalone="no"?>
<!-- Created with Inkscape (http://www.inkscape.org/) -->

<svg
   xmlns:dc="http://purl.org/dc/elements/1.1/"
   xmlns:cc="http://creativecommons.org/ns#"
   xmlns:rdf="http://www.w3.org/1999/02/22-rdf-syntax-ns#"
   xmlns:svg="http://www.w3.org/2000/svg"
   xmlns="http://www.w3.org/2000/svg"
   version="1.1"
   width="560"
   height="560"
   id="shoes_sandals_roman">
  <g
     transform="translate(0,-1)"
     id="g125447"
     style="display:inline;enable-background:new">
    <path
       d="m 273.12818,530.65105 c 0,0 1.42449,-4.66659 5.99712,-4.1158 4.57263,0.55079 7.36683,0.0447 10.0214,0.0304 2.42066,-0.013 2.43403,1.3168 2.35271,1.88607 1.53885,-1.80664 1.51729,-5.802 -0.68117,-6.15998 -4.01221,-0.65332 -9.52781,-2.07459 -13.54253,-1.3996 -2.97708,0.50054 -5.39691,3.35361 -5.40805,4.71681 -0.0106,1.30118 -0.46989,3.33429 1.26052,5.04209 z"
       id="path3399-0-5"
       style="color:#000000;fill:#808080;fill-opacity:1;stroke:#000000;stroke-width:0.5;stroke-linecap:butt;stroke-linejoin:miter;stroke-miterlimit:4;stroke-opacity:1;stroke-dasharray:none;stroke-dashoffset:0;marker:none;visibility:visible;display:inline;overflow:visible;enable-background:accumulate" />
    <g
       id="g125322">
      <path
         d="m 291.3125,495.59375 c -0.58613,2.82794 -0.91194,4.94506 -0.71875,5.4375 0.85247,2.17334 0.0591,3.70564 -0.78125,4.96875 1.30998,0.81201 2.37917,1.49934 2.625,1.625 1.83232,-6.84068 1.70462,-7.59095 3.78125,-8.8125 -1.89921,-1.31062 -3.47689,-2.32972 -4.90625,-3.21875 z"
         id="path124849-9"
         style="color:#000000;fill:#808080;fill-opacity:1;stroke:#4d4d4d;stroke-width:0.5;stroke-linecap:butt;stroke-linejoin:miter;stroke-miterlimit:4;stroke-opacity:1;stroke-dasharray:none;stroke-dashoffset:0;marker:none;visibility:visible;display:inline;overflow:visible;enable-background:accumulate" />
      <path
         d="m 275.5625,509.75 c -0.65213,0.77012 -1.47362,1.59185 -2.4375,2.375 0.38741,0.16478 1.17582,0.56071 2.15625,1.125 0.20335,-0.89993 0.32583,-1.73341 0.3125,-2.5 -0.006,-0.37165 -0.0219,-0.66338 -0.0312,-1 z"
         id="path124851-9"
         style="color:#000000;fill:#808080;fill-opacity:1;stroke:#4d4d4d;stroke-width:0.5;stroke-linecap:butt;stroke-linejoin:miter;stroke-miterlimit:4;stroke-opacity:1;stroke-dasharray:none;stroke-dashoffset:0;marker:none;visibility:visible;display:inline;overflow:visible;enable-background:accumulate" />
      <path
         d="m 303.41602,494.07348 c 1.53497,-1.69858 2.58943,-4.7201 2.72387,-6.18002 0.28449,-3.08933 -4.22716,-7.92613 -5.8529,-10.52826 0.81474,2.0311 1.58895,7.58812 1.17878,10.81166 -0.7177,5.6405 -4.02196,7.23513 -5.56761,11.38266 2.83215,-2.11204 5.17084,-2.88887 7.51786,-5.48604 z"
         id="path3403-93-9-2-7"
         style="color:#000000;fill:#808080;fill-opacity:1;stroke:#4d4d4d;stroke-width:0.5;stroke-linecap:butt;stroke-linejoin:miter;stroke-miterlimit:4;stroke-opacity:1;stroke-dasharray:none;stroke-dashoffset:0;marker:none;visibility:visible;display:inline;overflow:visible;enable-background:accumulate" />
      <path
         d="m 275.5625,509.75 c -0.65213,0.77012 -1.47362,1.59185 -2.4375,2.375 0.38741,0.16478 1.17582,0.56071 2.15625,1.125 0.20335,-0.89993 0.32583,-1.73341 0.3125,-2.5 -0.006,-0.37165 -0.0219,-0.66338 -0.0312,-1 z"
         id="path124851"
         style="color:#000000;fill:#666666;fill-opacity:1;stroke:none;marker:none;visibility:visible;display:inline;overflow:visible;enable-background:accumulate" />
      <g
         id="g125310">
        <path
           d="m 291.3125,495.59375 c -0.58613,2.82794 -0.91194,4.94506 -0.71875,5.4375 0.85247,2.17334 0.0591,3.70564 -0.78125,4.96875 1.30998,0.81201 2.37917,1.49934 2.625,1.625 1.83232,-6.84068 1.70462,-7.59095 3.78125,-8.8125 -1.89921,-1.31062 -3.47689,-2.32972 -4.90625,-3.21875 z"
           id="path124849"
           style="color:#000000;fill:#666666;fill-opacity:1;stroke:none;marker:none;visibility:visible;display:inline;overflow:visible;enable-background:accumulate" />
        <path
           d="m 303.41602,494.07348 c 1.53497,-1.69858 2.58943,-4.7201 2.72387,-6.18002 0.28449,-3.08933 -4.22716,-7.92613 -5.8529,-10.52826 0.81474,2.0311 1.58895,7.58812 1.17878,10.81166 -0.7177,5.6405 -4.02196,7.23513 -5.56761,11.38266 2.83215,-2.11204 5.17084,-2.88887 7.51786,-5.48604 z"
           id="path3403-93-9-2"
           style="color:#000000;fill:#666666;fill-opacity:1;stroke:none;stroke-width:0.5;marker:none;visibility:visible;display:inline;overflow:visible;enable-background:accumulate" />
        <path
           d="m 306.0625,487.09375 c 0.0487,3.36804 -2.66784,8.19128 -9.28125,11.34375 -3.78572,1.80457 -4.21137,11.99432 -6.8125,18.09375 0.11528,0.46736 0.22413,0.87794 0.34375,1.34375 2.59146,-6.19512 2.90296,-17.34805 7.375,-19.125 4.72663,-1.87811 8.86459,-6.85343 9.21875,-9.375 -0.22651,-0.46191 -0.3413,-1.3538 -0.84375,-2.28125 z M 270,520.4375 c 0,0 0.0831,1.77331 0.0625,2.21875 0.26277,1.04007 1.05652,1.89553 2.1875,2.5 8.7e-4,-0.48599 0.045,-0.95203 0.0937,-1.40625 -1.23868,-0.69759 -2.09764,-1.80235 -2.34375,-3.3125 z"
           id="path3405-4-1-3"
           style="color:#000000;fill:#808080;fill-opacity:1;stroke:#4d4d4d;stroke-width:0.5;stroke-linecap:butt;stroke-linejoin:miter;stroke-miterlimit:4;stroke-opacity:1;stroke-dasharray:none;stroke-dashoffset:0;marker:none;visibility:visible;display:inline;overflow:visible;enable-background:accumulate" />
        <path
           d="m 292.36203,526.78303 c -0.12987,1.16998 -0.13839,2.39975 -0.13839,2.39975 -2.9533,6.37916 -16.89253,8.94599 -19.9087,1.71225 -0.16265,-1.78914 -0.3253,-3.03463 -0.3253,-3.03463 2.87129,11.97872 21.11522,3.69451 20.37239,-1.07737 z"
           id="path3405-4-1"
           style="color:#000000;fill:#333333;stroke:#000000;stroke-width:0.5;stroke-linecap:butt;stroke-linejoin:miter;stroke-miterlimit:4;stroke-opacity:1;stroke-dasharray:none;stroke-dashoffset:0;marker:none;visibility:visible;display:inline;overflow:visible;enable-background:accumulate" />
        <path
           d="m 272.25055,530.23292 c 4.43037,8.55435 18.11856,3.11536 19.98476,-1.59935"
           id="path3407-6-2"
           style="color:#000000;fill:none;stroke:#808080;stroke-width:0.2002615;stroke-linecap:butt;stroke-linejoin:miter;stroke-miterlimit:4;stroke-opacity:1;stroke-dasharray:none;stroke-dashoffset:0;marker:none;visibility:visible;display:inline;overflow:visible;enable-background:accumulate" />
        <path
           d="m 292.65451,491.55005 -0.40206,1.87671 c -0.37307,1.74137 -10.36271,0.28022 -14.716,-2.3208 l 0.0407,-1.67857 c -0.36184,0.19308 -0.54822,0.93113 -0.62754,1.33085 l -1.32018,6.65269 c -0.40268,2.02919 15.29905,4.55634 15.61435,3.09825 l 1.64257,-7.59609 c 0.15718,-0.72689 0.16537,-1.23022 -0.23139,-1.36295 z"
           id="path3397-66-5"
           style="color:#000000;fill:#808080;fill-opacity:1;stroke:#4d4d4d;stroke-width:0.5;stroke-linecap:butt;stroke-linejoin:miter;stroke-miterlimit:4;stroke-opacity:1;stroke-dasharray:none;stroke-dashoffset:0;marker:none;visibility:visible;display:inline;overflow:visible;enable-background:accumulate" />
        <path
           d="m 277.5625,489.4375 c -0.36184,0.19308 -0.54568,0.91278 -0.625,1.3125 l -1.3125,6.65625 c -0.1318,0.66413 1.47597,1.38014 3.6875,2 l 1.53125,-6.84375 c 0.62267,0.21021 1.27909,0.38792 1.9375,0.5625 -0.36141,1.60211 -1.24373,5.60217 -1.5,6.75 -0.68094,-0.14988 -1.35881,-0.29983 -1.96875,-0.46875 1.21277,0.33993 2.59423,0.65811 4,0.90625 l 1.71875,-6.6875 c -2.73858,-0.53336 -5.63193,-1.41511 -7.5,-2.53125 l 0.0312,-1.65625 z m 15.09375,2.125 -0.40625,1.875 c -0.17342,0.80946 -2.45279,0.89859 -5.25,0.53125 l -1.625,6.65625 c 3.07848,0.41764 5.74746,0.46481 5.875,-0.125 l 1.625,-7.59375 c 0.15718,-0.72689 0.17801,-1.21102 -0.21875,-1.34375 z"
           id="path3397-66-5-3"
           style="color:#000000;fill:#666666;stroke:none;marker:none;visibility:visible;display:inline;overflow:visible;enable-background:accumulate" />
        <path
           d="m 291.27339,519.57798 c -6.86289,-7.57028 -17.48823,-4.01797 -18.7401,1.2913 0.0813,-0.93523 1.28692,-6.34747 1.81304,-8.09129 0.68454,-2.26889 3.83148,-4.92931 8.02369,-4.50375 5.33409,0.54147 6.96028,3.91963 7.38483,5.21081 0.23479,0.71404 0.87256,4.32903 1.51854,6.09293 z"
           id="path3401-65-1"
           style="color:#000000;fill:#808080;fill-opacity:1;stroke:#4d4d4d;stroke-width:0.5;stroke-linecap:butt;stroke-linejoin:miter;stroke-miterlimit:4;stroke-opacity:1;stroke-dasharray:none;stroke-dashoffset:0;marker:none;visibility:visible;display:inline;overflow:visible;enable-background:accumulate" />
        <path
           d="m 278.84375,520.71875 c -0.54287,0.0245 -1.06066,0.10313 -1.5625,0.1875 -2.97708,0.50054 -5.39511,3.3243 -5.40625,4.6875 -0.0106,1.30118 -0.48041,3.3547 1.25,5.0625 0,0 1.3393,-4.58772 6.21875,-4.34375 4.87945,0.24397 7.92917,-0.50699 10.65625,-0.59375 2.48678,-0.0791 2.48757,1.24323 2.40625,1.8125 0.27606,-0.5942 0.41756,-1.6097 0.3125,-2.59375 -0.41581,-0.22057 -1.27037,-0.43285 -2.3125,-0.46875 0.65059,0.20331 1.71198,0.88705 2.28125,1.375 -1.13853,-0.60994 -2.48383,-1.05305 -3.09375,-1.09375 0.73191,0.3253 1.38668,0.52448 2.28125,1.09375 -1.91112,-0.28464 -6.37093,-0.81552 -10.84375,-0.9375 1.26052,-0.2033 7.39647,-0.2063 7.84375,-0.125 -6.91256,-0.97589 -9.25,-1.28125 -9.25,-1.28125 1.34185,-0.24398 10.0644,0.52786 11.40625,0.8125 -8.09176,-1.3825 -10.05198,-1.31551 -11.3125,-1.4375 1.87045,-0.28463 10.41265,0.9157 10.25,0.875 -0.16265,-0.0407 -7.90625,-1.71875 -7.90625,-1.71875 L 290.90625,523.25 286.5,522 c 1.86804,0.17886 3.41415,0.24887 4.59375,0.375 -0.0877,-0.0272 -0.18544,-0.0782 -0.28125,-0.0937 -3.51068,-0.57165 -8.16863,-1.73372 -11.96875,-1.5625 z m 12.25,1.65625 c 0.1561,0.0485 0.30674,0.10706 0.4375,0.1875 -0.13663,-0.0871 -0.27372,-0.1366 -0.4375,-0.1875 z m 0.5625,0.28125 c 0.116,0.0857 0.21713,0.17212 0.3125,0.28125 -0.092,-0.10521 -0.20192,-0.19751 -0.3125,-0.28125 z m 0.3125,0.28125 c 0.1154,0.13206 0.22487,0.30849 0.3125,0.46875 -0.0906,-0.16729 -0.19204,-0.33096 -0.3125,-0.46875 z m 0.3125,0.46875 c 0.0876,0.16026 0.1562,0.31822 0.21875,0.5 -0.0611,-0.17771 -0.13289,-0.34151 -0.21875,-0.5 z m 0.21875,0.5 c -0.24898,-0.14066 -0.52587,-0.25195 -0.90625,-0.28125 0.36901,0.26837 0.77387,0.54298 1.09375,1.0625 -0.0419,-0.27391 -0.10065,-0.52885 -0.1875,-0.78125 z"
           id="path3399-0-5-5"
           style="color:#000000;fill:#666666;stroke:none;marker:none;visibility:visible;display:inline;overflow:visible;enable-background:accumulate" />
        <path
           d="m 280.84375,508.25 c -3.42016,0.25515 -5.90103,2.54597 -6.5,4.53125 -0.52612,1.74382 -1.7312,7.15852 -1.8125,8.09375 0.745,-3.15959 4.82172,-5.68378 9.4375,-5.625 -0.50051,-0.078 -0.97506,-0.13925 -1.28125,-0.15625 0.4066,-0.24398 0.6378,-1.39346 0.3125,-1.71875 -0.28799,-0.28797 -0.007,-2.84364 0.0625,-5.125 -0.0719,0.004 -0.14762,-0.005 -0.21875,0 z m 1.53125,0.0312 c 0.48584,0.0493 0.94935,0.12745 1.375,0.21875 -0.43696,-0.0966 -0.87493,-0.16799 -1.375,-0.21875 z m 1.375,0.2188 c 0.32585,0.0699 0.61352,0.15888 0.90625,0.25 -0.28399,-0.0898 -0.59133,-0.1804 -0.90625,-0.25 z m -0.71875,0.5625 c -0.37091,0.0138 -0.69428,0.0531 -0.96875,0.0937 1.62648,0.24397 3.02977,2.65213 4.65625,3.75 -1.30118,-0.24397 -1.48006,-0.56176 -2.78125,-1.375 0.65059,1.38251 2.44845,1.53617 4.15625,3 -1.38251,-0.7319 -3.07985,-1.30044 -4.625,-0.8125 1.21986,-0.0813 2.97969,0.22367 4.6875,1.6875 -0.40662,-0.24397 -1.94167,-0.89346 -4.21875,-1.21875 0.75426,0.37713 3.0225,1.26611 4,2.6875 1.17145,0.66972 2.30012,1.5363 3.34375,2.6875 -0.64598,-1.7639 -1.29646,-5.34846 -1.53125,-6.0625 -0.26534,-0.80699 -0.9965,-2.45213 -2.8125,-3.6875 0.0463,0.0414 0.0786,0.0822 0.125,0.125 -1.43333,-0.76238 -2.91853,-0.91639 -4.03125,-0.875 z m 0.125,6.25 c 0.26242,0.029 0.51735,0.0783 0.78125,0.125 -0.26083,-0.045 -0.5219,-0.0971 -0.78125,-0.125 z m 1.25,0.21875 c 0.37208,0.0809 0.75343,0.16291 1.125,0.28125 -0.3756,-0.11825 -0.74894,-0.20122 -1.125,-0.28125 z"
           id="path3401-65-1-3"
           style="color:#000000;fill:#666666;stroke:none;marker:none;visibility:visible;display:inline;overflow:visible;enable-background:accumulate" />
      </g>
    </g>
  </g>
</svg>
