<?xml version="1.0" encoding="UTF-8" standalone="no"?>
<!-- Created with Inkscape (http://www.inkscape.org/) -->

<svg
   xmlns:dc="http://purl.org/dc/elements/1.1/"
   xmlns:cc="http://creativecommons.org/ns#"
   xmlns:rdf="http://www.w3.org/1999/02/22-rdf-syntax-ns#"
   xmlns:svg="http://www.w3.org/2000/svg"
   xmlns="http://www.w3.org/2000/svg"
   version="1.1"
   width="560"
   height="560"
   id="tatoo_chaos_left">
  <path
     d="m 315.0625,182.78125 c 0.52421,1.18973 1.5708,2.19598 2.28125,2.65625 -0.48754,-0.83649 -0.021,-1.28528 0.40625,-0.96875 0.42721,0.31652 0.42933,1.07724 0.0625,1.21875 0.62211,0.4856 0.77399,1.35711 0.53125,1.9375 0.679,0.36672 0.80394,0.70196 0.75,0.84375 -0.12141,0.31913 -0.68877,-0.27811 -1.28125,-1.0625 -0.35752,0.44701 -0.84007,-0.0155 -1.125,-0.34375 -0.28494,-0.32831 -0.518,-0.62891 -1.125,-1 0.60086,0.74435 0.85779,1.47173 0.21875,1.34375 C 315.226,187.29505 314.565,186.49536 313,186.625 c 0.9215,1.23236 1.68422,1.65479 2.15625,1.875 0.47204,0.2202 0.85948,0.30249 1,0.5 0.13539,0.19032 -0.0455,0.56438 -0.4375,0.8125 0.92282,-0.39238 1.69154,-0.67794 1.9375,0.3125 0.39733,-0.35917 1.0684,-0.0364 1.4375,0.21875 0.0958,-0.64932 0.54615,-0.52589 0.78125,0.0625 0.136,0.34037 0.0619,0.59313 -0.1875,0.625 -0.12543,0.016 -0.41382,0.0114 -0.53125,-0.375 -0.59626,0.50932 -1.21872,0.42676 -2.03125,0.0625 -0.67878,-0.30434 -1.86771,-0.39575 -2.5625,-0.0312 0.78958,0.18479 2.84402,0.8798 2.375,1.4375 -0.40696,0.48389 -0.93855,-0.10864 -1.0625,-0.59375 -1.65089,0.52711 -3.19421,2.05679 -3.90625,4.1875 0.87897,-0.85999 4.02943,-2.85622 4.53125,-1.96875 0.25525,0.4514 -0.0526,0.84141 -0.5,0.90625 1.00324,0.55172 1.84637,0.12534 2.15625,-0.6875 -0.54219,0.16212 -0.89933,-0.30051 -0.5,-0.53125 0.50516,-0.29189 0.64865,0.24562 0.75,0.46875 0.36659,-0.31745 0.59743,-0.9518 0.78125,-0.84375 0.16268,0.0956 0.041,0.32448 -0.0937,0.4375 1.16421,-0.3099 0.87944,-1.22749 1.25,-1.03125 0.0981,0.052 0.11326,0.23742 0.0625,0.75 -0.0508,0.51258 -0.34845,0.97971 -0.4375,0.0937 -0.55095,1.08798 -0.98316,3.44896 0.25,6.46875 0.0234,-1.57272 0.47964,-4.38251 0.71875,-4.28125 0.13866,0.0587 0.375,1.625 0.375,1.625 0.0817,-0.64576 0.10656,-1.10238 0.21875,-1.0625 0.13435,0.0478 0.33738,0.75193 0.375,0.90625 0.23775,-0.65663 -0.0811,-1.74297 0.0625,-1.75 0.10223,-0.005 0.3258,0.60956 0.4375,1.0625 0.15093,-0.44676 0.0628,-1.40008 -0.375,-1.9375 -0.36722,-0.45078 -0.42408,-0.79735 -0.375,-1.125 0.1591,0.28136 0.6603,1.18253 1.21875,1.71875 -0.25511,-0.45117 -0.33718,-0.63227 -0.1875,-0.71875 0.14968,-0.0865 0.59032,0.71847 0.71875,2.0625 0.12781,1.33759 0.26596,2.15466 1.4375,3.65625 -0.36382,-1.0385 -0.44207,-1.63181 -0.4375,-1.9375 0.73167,0.52679 1.16598,2.24536 2.0625,2.59375 -0.13136,-0.2762 -0.1605,-0.87493 0.5,0.46875 -0.0793,-0.62317 -0.1089,-0.78498 0,-0.8125 0.10855,-0.0275 1.08435,2.37397 1.4375,3.4375 -0.0854,-2.6971 -0.33793,-4.78162 -2.90625,-7.875 0.41884,1.19522 0.51615,2.16306 0.34375,2.09375 -0.20539,-0.0826 -0.35048,-1.03511 -1,-2.03125 0.0292,0.26838 0.12551,0.64569 0,0.625 -0.15903,-0.0262 -0.53823,-1.23924 -0.625,-1.75 -0.17574,-1.03447 -0.70304,-1.86116 -0.625,-1.90625 0.097,-0.056 0.63509,0.76927 1.34375,1 -0.44921,-0.44856 -0.84585,-1.03624 -0.75,-1.09375 0.14951,-0.0895 1.38383,1.50051 2.3125,1.5625 -0.22716,-0.14366 -0.49837,-0.35434 -0.375,-0.53125 0.12336,-0.17692 1.87151,0.9445 2.25,1.21875 -0.18647,-0.32976 -0.38603,-0.66396 0.28125,-0.5 -0.0414,-0.0824 -0.0834,-0.16862 -0.125,-0.25 -0.28466,-0.0722 -0.55971,0.004 -0.6875,0.0937 -0.63679,-0.42708 -1.97868,-1.31918 -2.03125,-0.65625 -0.24196,-0.14442 -0.45902,-0.29617 -0.6875,-0.5 -0.3257,-0.20072 -0.80322,-0.77112 -1.125,-0.71875 -0.11594,0.0189 -0.10558,0.26252 0.0312,0.46875 -0.18554,-0.20507 -0.46091,-0.50606 -0.625,-0.40625 -0.29024,0.17656 0.32008,1.30751 0.5625,2.21875 0.13558,0.50962 0.59544,2.02793 0.9375,2.1875 0.0785,0.0366 0.20361,-0.0638 0.25,-0.125 0.20472,0.54815 0.50187,1.46143 0.78125,1.5 0.25306,0.0349 0.35576,-0.86001 0.21875,-1.34375 1.33002,1.91969 1.6596,3.24624 1.84375,4.9375 -0.42413,-0.94401 -0.92555,-2.1411 -1.3125,-2.40625 -0.12573,-0.0207 -0.0759,0.4042 -0.0937,0.53125 -0.21952,-0.42365 -0.58316,-0.59901 -0.59375,-0.15625 -0.28111,-0.27645 -0.47365,-0.65532 -0.6875,-1.03125 -0.33546,-0.58972 -0.95829,-1.18386 -1.25,-1.40625 0.005,0.12387 -0.0156,0.73819 0.15625,1.0625 -0.38728,-0.65544 -0.40325,-1.34901 -0.5625,-2.25 -0.11616,-0.65724 -0.29455,-1.48774 -0.6875,-2.09375 -0.18504,-0.28538 -0.51247,-0.32597 -0.625,-0.125 -0.20011,-0.27933 -0.50259,-0.91344 -0.78125,-1.40625 -0.43874,0.30867 -0.1871,1.22063 0.21875,1.71875 0.16617,0.20395 0.29503,0.29453 0.3125,0.53125 -0.13324,-0.15866 -0.29299,-0.16503 -0.34375,-0.0312 -0.10051,0.26483 0.0643,0.64137 -0.0312,0.96875 -0.14316,-0.13916 -0.25238,-0.12195 -0.375,-0.0625 -0.0485,-0.24135 -0.22234,-0.5806 -0.40625,-0.59375 -0.5302,-0.0379 -0.82485,2.31873 -0.90625,3.09375 -0.37052,-1.64624 -0.41844,-3.06886 -0.0312,-4.3125 0.28341,0.54859 0.50306,-0.30267 0.5625,-0.59375 0.0806,-0.39458 -0.0207,-0.95465 -0.1875,-1.0625 -0.3667,-0.23689 -0.37816,0.82347 -0.9375,0.875 -0.0144,-0.38942 -0.25909,-0.62423 -0.4375,-0.46875 -0.19684,0.17155 -0.37675,0.49357 -0.53125,0.71875 -0.30667,-0.42314 -0.66408,-0.49064 -0.96875,-0.34375 -0.4709,0.22703 -0.35407,0.97258 0,1.1875 -0.14378,0.25446 -0.38669,0.28853 -0.65625,0.25 0.10146,-0.19997 0.0338,-0.72022 -0.25,-1.03125 -0.7632,-0.83645 -3.31883,0.82117 -3.96875,1.3125 0.83887,-1.47789 1.84812,-2.52203 3.21875,-2.96875 0.23961,0.97329 1.23403,1.0737 1.40625,0.46875 0.23501,-0.82548 -1.17994,-1.31456 -1.9375,-1.5625 0.6478,-0.16726 1.46127,0.0867 1.875,0.21875 0.94507,0.3015 1.31786,0.283 1.875,-0.0625 0.26519,0.63778 1.2086,0.42211 1.03125,-0.28125 -0.15866,-0.62923 -0.79112,-1.25492 -1.1875,-0.5625 -0.24932,-0.13722 -0.68262,-0.42456 -1.15625,-0.3125 -0.44583,-0.53898 -0.86396,-0.64107 -1.3125,-0.53125 -0.0849,-0.58381 -0.79318,-0.75708 -1.25,-0.96875 -0.37947,-0.17584 -0.99865,-0.43411 -1.59375,-1.25 1.03704,-0.1349 1.54724,0.44091 2.15625,0.625 0.465,0.14056 0.7665,-0.0978 0.59375,-0.5625 0.51792,0.55832 0.93606,1.09513 1.53125,0.84375 0.3289,0.45127 1.3047,1.40185 1.53125,0.8125 0.12598,-0.32775 -0.43034,-0.79616 -0.8125,-1.09375 0.1952,-0.60512 0.0805,-1.19521 -0.375,-1.90625 0.26179,-0.51721 -0.0184,-1.22709 -0.4375,-1.5625 -0.45219,-0.36193 -0.98365,0.0231 -0.875,0.59375 -0.50143,-0.40576 -1.00185,-0.9454 -1.40625,-1.65625 0.29159,0.36246 0.89076,0.71392 1.0625,0.28125 0.0361,-0.0908 0.0747,-0.21156 0.0625,-0.3125 -0.0937,-0.0229 -0.18798,-0.0421 -0.28125,-0.0625 0.004,0.0319 0.0355,0.0651 0.0312,0.0937 -0.0379,0.25862 -0.40943,0.16052 -0.84375,-0.21875 -0.15744,-0.0233 -0.31283,-0.0458 -0.46875,-0.0625 z m 3.15625,0.78125 c -0.0247,0.0319 -0.0565,0.0933 -0.0625,0.125 -0.0702,0.3724 0.57521,1.1837 1.03125,1.34375 -0.0254,0.47701 0.17119,1.76746 0.6875,2 0.27852,0.12545 0.39031,-0.34101 0.46875,-0.5625 0.01,0.32938 -0.0559,0.96105 -0.0312,1.21875 -0.44722,0.11903 -0.18351,0.88942 0.1875,1.0625 0.49869,0.23264 0.81127,-0.32574 0.40625,-0.78125 0.17994,-0.12937 0.31316,-0.48444 0.1875,-1 -0.0672,-0.27583 -0.14358,-0.82902 -0.125,-1.375 0.006,-0.17095 0.0315,-0.33554 0.0625,-0.5 -0.0855,-0.0583 -0.16448,-0.13161 -0.25,-0.1875 -0.16733,0.7846 0.0202,1.63273 0.125,2.0625 0.15046,0.61728 -0.0752,0.87264 -0.1875,0.9375 0.34877,0.26434 0.17791,0.77836 -0.1875,0.65625 -0.26874,-0.0898 -0.42611,-0.76967 0,-0.71875 -0.18205,-0.88689 0.27668,-1.24916 -0.28125,-2.71875 0.10379,0.78734 -0.0692,1.66955 -0.4375,1.53125 -0.3781,-0.14197 -0.52349,-1.10324 -0.46875,-1.78125 -0.65135,-0.21405 -1.04956,-1.03734 -0.84375,-1.15625 0.0386,-0.0223 0.058,-0.007 0.0937,0 -0.12943,-0.0554 -0.24595,-0.10587 -0.375,-0.15625 z m 0.4375,0.15625 c 0.13391,0.0725 0.24562,0.31417 0.40625,0.53125 0.002,-0.0964 0.002,-0.21043 -0.0312,-0.34375 -0.12843,-0.0605 -0.24687,-0.13202 -0.375,-0.1875 z m 3.5,2.1875 c -0.20912,0.53461 -0.3861,1.19267 -0.1875,1.5625 0.14504,0.27009 0.38688,0.16348 0.53125,0 -0.0724,0.30191 -0.26619,0.8781 -0.53125,1.03125 -0.36288,0.20968 -0.22238,0.74015 0.1875,1.0625 0.3796,0.29855 0.74456,-0.28185 0.5625,-0.6875 0.01,-0.0149 0.0511,-0.0458 0.0625,-0.0625 0.55178,0.39563 1.14579,0.30079 1.65625,0.0937 0.15804,-0.0641 0.29314,-0.17227 0.40625,-0.3125 -0.0767,-0.0912 -0.14179,-0.19248 -0.21875,-0.28125 -0.0905,0.10512 -0.21403,0.21949 -0.375,0.3125 -0.90172,0.52103 -1.625,-0.15625 -1.625,-0.15625 -0.0657,0.0981 -0.21875,0.28125 -0.21875,0.28125 0.25979,0.33039 0.0453,0.72735 -0.1875,0.5625 -0.32922,-0.23311 -0.26071,-0.55798 0.0312,-0.65625 0.24238,-0.26159 0.67362,-1.37214 0.5,-2.09375 -0.19782,0.57204 -0.41237,0.80545 -0.53125,0.75 -0.11843,-0.0553 -0.0879,-0.57158 0.15625,-1.21875 -0.0746,-0.0627 -0.14405,-0.1268 -0.21875,-0.1875 z m 2.96875,3.65625 c -0.0995,0.009 -0.20695,0.0287 -0.28125,0.0625 -0.25553,0.11611 -0.4772,0.35796 -0.59375,0.6875 -0.39349,-0.0252 -1.276,0.0656 -1.09375,0.71875 0.20569,0.0402 0.56583,0.12079 0.875,0.15625 -0.16515,0.10553 -0.14755,0.33235 0.0312,0.4375 0.62031,0.3648 1.33621,0.26722 1.9375,0.59375 -0.36987,0.61037 1.52865,1.15451 2,1.28125 0.11962,0.28484 0.32403,0.53874 0.5,0.6875 -0.17778,-0.34608 -0.34999,-0.67241 -0.53125,-1 -1.00701,-0.28622 -1.66041,-0.57231 -1.6875,-0.75 -0.0253,-0.16614 0.28022,-0.17101 0.4375,-0.15625 -1.03663,-0.75398 -2.40729,-0.61473 -2.4375,-0.84375 -0.0302,-0.22901 0.60773,-0.11024 0.84375,0 -0.57659,-0.41621 -1.26757,-0.56571 -1.65625,-0.65625 -0.0523,-0.24936 0.65536,-0.21034 0.96875,-0.0937 0.13804,-0.81742 0.92916,-1.01707 1.0625,-0.78125 0.10171,0.17986 -0.22416,0.3441 -0.375,0.375 0.36928,0.097 0.71996,0.11693 1.03125,0.0312 -0.0629,-0.0892 -0.12437,-0.19384 -0.1875,-0.28125 -0.0629,0.0121 -0.12559,0.0304 -0.1875,0.0312 -0.01,-0.43499 -0.35774,-0.52714 -0.65625,-0.5 z"
     id="path3319-36"
     style="fill:#22280b;fill-rule:evenodd;stroke:none" />
  <path
     d="m 321.1833,190.13217 c -0.28401,0.16382 -0.47356,0.48229 -0.62583,0.86736 -0.32225,0.81493 -0.78175,0.77025 -1.44829,0.73286 0.32586,0.0934 0.76576,0.18925 1.34401,-0.0392 0.46463,0.2949 1.07169,0.58133 1.61427,0.26782 0.54259,-0.31351 0.64265,-0.7961 0.40586,-1.60996 0.13856,0.0256 0.59186,-0.2704 0.67391,-0.56428 0,0 -0.2742,0.51437 -1.10549,0.28426 -0.36051,-0.0998 -0.63756,-0.0663 -0.85844,0.0612 z m 0.0556,0.29872 c 0.4959,-0.28653 0.84785,0.44447 0.70411,0.82682 0.11392,-0.25948 0.14914,-0.5265 -0.009,-0.89314 0.073,-0.0246 0.16909,-0.0289 0.24022,-0.0348 0.24226,0.66986 0.093,1.10902 -0.29055,1.33064 -0.38355,0.22162 -0.80899,0.0605 -1.26241,-0.25843 0.0609,-0.0738 0.12841,-0.21626 0.18658,-0.3536 0.15943,0.25999 0.44325,0.4139 0.71474,0.43309 -0.35393,-0.0772 -0.81012,-0.74666 -0.28416,-1.05057 z"
     id="path3321-6-3"
     style="fill:#22280b;fill-opacity:1;fill-rule:evenodd;stroke:none" />
  <path
     d="m 316.78125,183.09375 c 0.009,0.64673 -0.22687,0.87328 -0.71875,0.59375 0.12196,0.15361 0.40564,0.41586 0.59375,0.53125 0.24203,-0.69791 1.02699,-0.44173 1.4375,-0.0625 -0.12891,-0.27114 -0.1653,-0.50408 -0.125,-0.6875 -0.0614,-0.0225 -0.12616,-0.0411 -0.1875,-0.0625 -0.0192,0.10348 -0.0188,0.21596 0,0.34375 -0.16748,-0.0908 -0.32138,-0.14125 -0.5,-0.15625 -0.13617,-0.0114 -0.28537,0.004 -0.40625,0.0625 0.0351,-0.10047 0.0558,-0.20812 0.0625,-0.34375 0.27154,0.15009 0.52768,0.17878 0.71875,0.0625 -0.12568,-0.0425 -0.24985,-0.11829 -0.375,-0.15625 -0.0182,-0.006 -0.0443,0.005 -0.0625,0 -0.0481,-0.0106 -0.10459,-0.0396 -0.15625,-0.0625 -0.0198,-0.006 -0.0427,0.006 -0.0625,0 -0.0116,-0.006 -0.0195,-0.0246 -0.0312,-0.0312 -0.0619,-0.0171 -0.12573,-0.0153 -0.1875,-0.0312 z"
     id="path3325-1-1"
     style="fill:#28170b;fill-rule:evenodd;stroke:none" />
  <path
     d="m 324.74975,197.12296 c 0.0704,0.17098 0.31729,0.66724 0.20911,1.00362 0.4952,0.67018 0.57867,1.08644 0.93697,1.45472 0.10171,-0.16796 0.26811,-0.26087 0.43688,-0.0596 -7.4e-4,-0.72325 0.45443,-0.4625 1.26056,0.97654 -0.14161,-0.71917 -0.80555,-2.2128 -1.21664,-2.84668 -0.0329,1.33861 -0.84207,1.13425 -1.15269,-0.3441 -0.14291,0.0577 -0.26748,-0.005 -0.47419,-0.18449 z m 0.33553,0.46233 c 0.0174,-0.002 0.0668,-0.0267 0.0776,-0.0256 0.32003,1.15172 0.8495,1.55107 1.35846,0.70443 0.15002,0.28215 0.39647,0.66437 0.44437,0.93908 -0.31628,-0.31951 -0.70855,-0.39336 -0.80636,0.0159 -0.10868,-0.0632 -0.28438,-0.0554 -0.39928,-0.0593 -0.19231,-0.33802 -0.40019,-0.74463 -0.6406,-1.10687 0.0242,-0.19733 -0.0351,-0.38947 -0.0342,-0.46757 z"
     id="path3327-2-2"
     style="fill:#28170b;fill-rule:evenodd;stroke:none" />
  <path
     d="m 320.12936,194.29086 c -0.25527,0.8137 -0.23583,2.03516 -0.14244,2.98919 0.11814,-0.97062 0.3484,-1.64754 0.53384,-2.03887 -0.30073,-0.024 -0.51043,-0.33849 -0.3914,-0.95032 z m 0.27836,1.00729 c -0.0871,0.11785 -0.31436,0.71802 -0.3785,1.04706 -0.0576,-0.45509 -0.004,-1.1093 0.0435,-1.38251 0.0368,0.15878 0.16477,0.34172 0.33498,0.33545 z"
     id="path3329-0-7"
     style="fill:#22280b;fill-rule:evenodd;stroke:none" />
  <path
     d="m 321.52829,190.67736 a 0.19818623,0.14044445 61.052191 1 1 -0.24323,0.14054 0.19818623,0.14044445 61.052191 1 1 0.24323,-0.14054 z"
     id="path3331-9-2"
     style="fill:#28170b;fill-opacity:1;fill-rule:nonzero;stroke:none;stroke-width:1;marker:none;visibility:visible;display:inline;overflow:visible;enable-background:accumulate" />
  <path
     d="m 318.40625,184.71875 c 0.0658,0.22608 0.1189,0.58759 0.0312,0.9375 0.44436,0.5883 0.52666,1.21126 0.4375,1.84375 0.83435,0.75278 0.90863,1.3625 0.5625,1.5625 -0.34613,0.2 -1.00242,-0.21643 -1.53125,-0.9375 -0.37234,0.19754 -0.79082,-0.0611 -1.25,-0.5 -0.851,0.7558 -1.63169,-0.5103 -2.5625,-0.40625 0.48337,0.78028 2.24552,1.02314 2.46875,1.78125 0.5916,-0.007 0.9314,-0.0104 1.28125,0.53125 0.16129,-0.0841 0.53056,-0.0228 0.96875,0.21875 0.52924,-0.57854 1.28648,0.0893 1.40625,0.875 0.11319,0.74251 -0.51609,1.15908 -1.09375,0.5625 -0.91809,0.54293 -1.85256,-0.0186 -2.6875,-0.15625 1.36904,0.42372 1.18968,1.55845 0.75,1.8125 -0.43968,0.25406 -0.99613,0.0606 -1.46875,-0.6875 -0.87747,0.50701 -1.51473,0.96076 -2.15625,1.71875 0.43032,-0.24864 1.5029,-0.84733 2.4375,-0.8125 0.87545,0.0326 1.07013,0.88908 1.03125,1.28125 0.13106,0.0123 0.22574,-0.0581 0.25,-0.125 -0.20064,-0.28898 -0.42373,-0.98714 0.0312,-1.25 0.45494,-0.26287 0.64773,-0.26869 1.09375,0.125 0.55495,-0.97206 0.91182,-0.7998 1.09375,-0.5 0.16636,-0.33104 0.43568,-0.42892 0.53125,-0.34375 0.3041,-0.36711 0.54669,-0.1322 0.625,0.0625 0.14671,0.36464 0.19516,0.98782 -0.125,1.65625 0.41447,-0.0995 0.6834,0.30386 0.5,0.84375 0.12196,0.0678 0.24053,0.29576 0.28125,0.59375 0.0279,-0.19216 0.18318,-0.15018 0.3125,-0.0312 -0.0677,-0.29537 -0.0466,-0.76267 0.0937,-0.84375 -0.6375,-0.86401 -0.75855,-1.84088 -0.375,-2.0625 0.23868,-0.13791 0.35181,0.10366 1,1.25 0.61742,-0.35676 1.14119,1.05766 1.40625,2.03125 0.005,-0.58385 0.23854,-0.1336 0.625,0.59375 -0.18778,-0.50768 -0.89272,-2.61224 -1.1875,-3.375 -0.29478,-0.76275 0.14712,-0.77495 0.53125,-0.46875 0.17531,-0.61185 1.05297,0.25404 1.84375,0.90625 0.10846,-0.11548 0.3343,-0.29234 0.84375,-0.0937 0.50945,0.19858 0.75228,0.41438 1.3125,0.8125 -0.0188,-0.0772 0.10843,-0.17523 0.3125,-0.1875 -0.14052,-0.0949 -0.28742,-0.29399 -0.34375,-0.4375 0,0 0.0321,0.0704 -0.90625,-0.25 -0.93832,-0.32049 -1.01163,-0.80313 -0.96875,-0.96875 -0.14978,-0.001 -0.48026,-0.0988 -1.15625,-0.21875 -0.67599,-0.11996 -0.91654,-0.48699 -0.84375,-0.6875 -0.2173,-0.12091 -0.66724,-0.17463 -0.875,-0.125 -0.16596,-1.08367 0.61779,-1.08102 1.21875,-1.09375 0.0335,-0.16022 0.0604,-0.46469 0.5,-0.71875 0.28065,-0.16216 0.54846,-0.17681 0.78125,-0.0937 -0.041,-0.0529 -0.0839,-0.10412 -0.125,-0.15625 -0.18705,-0.0476 -0.39158,-0.0717 -0.59375,0 0.12387,-0.0837 0.22755,-0.21376 0.34375,-0.34375 -0.0335,-0.041 -0.0602,-0.0845 -0.0937,-0.125 -0.14673,0.18207 -0.31973,0.35139 -0.46875,0.4375 -0.50516,0.29189 -0.76821,0.28582 -1.46875,-0.0312 0,0 -0.10947,0.0355 -0.15625,0.0625 0.0495,0.74602 -0.74056,0.82888 -1.15625,0.0937 -0.46821,-0.82803 0.38885,-0.89838 0.46875,-1.4375 -0.50935,-0.11061 -0.45689,-0.50551 -0.34375,-1.46875 0.0283,-0.24081 0.0761,-0.45132 0.125,-0.625 -0.0406,-0.032 -0.0844,-0.0623 -0.125,-0.0937 -0.007,0.0247 -0.0245,0.0368 -0.0312,0.0625 -0.0138,-0.0439 -0.0162,-0.084 -0.0312,-0.125 -0.0698,-0.0535 -0.14889,-0.10443 -0.21875,-0.15625 0.10293,0.1295 0.25047,0.3261 0.1875,0.6875 -0.0819,0.46983 -0.35364,0.54963 -0.59375,0.125 2e-4,0.17594 0.0736,0.51606 0.15625,0.75 0.0826,0.23394 0.10364,0.66013 -0.15625,0.96875 0.19158,0.5583 0.0114,1.09194 -0.5,1 -0.51121,-0.0919 -1.141,-1.16732 -0.46875,-1.40625 -0.002,-0.0693 -0.034,-0.25355 -0.0312,-0.40625 -0.51346,0.36924 -0.9625,-0.52398 -1.09375,-1.71875 -0.1949,-0.16907 -0.40874,-0.36882 -0.65625,-0.71875 z m 0.1875,0.4375 c 0.12189,0.13741 0.23767,0.24959 0.34375,0.34375 0.072,0.578 0.23477,1.07954 0.4375,1.4375 0.13715,0.2422 0.45444,0.4857 0.65625,0.375 0.006,0.0387 0.0517,0.13678 0.0625,0.1875 -0.6414,0.42275 -0.0175,1.45789 0.5625,1.59375 0.58423,0.13685 0.81072,-0.39568 0.65625,-1.03125 0.30696,-0.36945 0.13773,-0.90298 0.0312,-1.4375 0.15204,0.078 0.24975,0.0609 0.34375,-0.0312 -0.0577,0.44889 -0.1631,0.92988 0.21875,1.34375 -0.006,0.31492 -0.8001,0.48865 -0.28125,1.40625 0.45471,0.80413 1.29149,0.89628 1.40625,0.0937 0.0337,-0.0158 0.0399,-0.0526 0.0625,-0.0625 0.52413,0.22733 0.81641,0.20756 1.15625,0.0625 -0.12702,0.16687 -0.17871,0.39542 -0.21875,0.5625 -0.62094,-0.069 -1.4504,-0.004 -1.15625,1.40625 0.23198,-0.0219 0.56441,0.0267 0.78125,0.0937 0.18489,0.72458 1.31216,0.77732 1.9375,0.9375 0.0283,0.0965 0.17362,0.34916 0.3125,0.5 -0.14344,0.0601 -0.29948,0.0992 -0.40625,0.1875 -0.54884,-0.44192 -1.58658,-1.30559 -1.84375,-0.90625 -0.68991,-0.40597 -0.88046,0.0625 -0.65625,0.65625 0.28326,0.75019 0.55293,1.50315 0.84375,2.25 -0.065,-0.0687 -0.12432,-0.099 -0.1875,-0.0937 -0.21999,-0.6995 -0.71885,-1.72782 -1.28125,-1.65625 -0.2706,-0.54229 -0.64191,-1.28981 -1.09375,-1.03125 -0.60863,0.34826 -0.10394,1.60243 0.15625,2.0625 -0.0129,0.10379 -0.0371,0.34553 -0.0312,0.46875 -0.0514,-0.0383 -0.0534,0.0595 -0.0937,0.0625 -0.0308,-0.0615 -0.0723,-0.19066 -0.0937,-0.21875 0.0884,-0.39079 -0.0961,-0.78296 -0.46875,-0.9375 0.12779,-0.42949 0.23104,-1.20925 0.0312,-1.5625 -0.25273,-0.44695 -0.56794,-0.25316 -0.78125,-0.0625 -0.0893,-0.0884 -0.46068,0.0153 -0.5625,0.21875 -0.26601,-0.3169 -0.90519,0.0474 -1.125,0.375 -0.15784,-0.16301 -0.50558,-0.24056 -0.71875,-0.125 0.17832,-0.19536 0.0612,-0.86836 -0.1875,-1.09375 0.42366,0.19637 1.25813,0.21847 1.875,-0.0937 0.22109,0.13246 0.55798,0.21258 0.78125,0.0625 0.23905,-0.16073 0.35367,-0.50337 0.3125,-0.875 -0.0437,-0.39467 -0.27172,-0.77168 -0.59375,-1 -0.30592,-0.21691 -0.68919,-0.29047 -1,-0.0625 -0.3946,-0.18767 -0.69087,-0.24758 -0.90625,-0.1875 -0.17301,-0.22856 -0.36277,-0.40501 -0.5625,-0.46875 -0.22695,-0.0724 -0.49232,0.0226 -0.65625,-0.0625 -0.0113,-0.22839 -0.45686,-0.466 -0.6875,-0.5625 -0.22092,-0.0924 -1.45243,-0.66961 -1.71875,-1 0.69043,0.0216 1.60176,1.05749 2.4375,0.53125 0.20959,0.19142 0.41613,0.34597 0.625,0.4375 0.20268,0.0888 0.40717,0.12721 0.59375,0.0625 0.25886,0.33525 0.54232,0.61004 0.8125,0.78125 0.29498,0.18692 0.56638,0.24916 0.78125,0.125 0.2076,-0.11995 0.31568,-0.38574 0.21875,-0.71875 -0.0896,-0.30782 -0.36606,-0.66196 -0.78125,-1 0.0937,-0.6059 0.034,-1.2574 -0.375,-1.84375 0.0341,-0.17396 0.0415,-0.34007 0.0312,-0.5 z m -2.84375,7.25 c 0.0636,0.13135 0.21366,0.36303 0.34375,0.4375 -0.41815,-0.0754 -0.83153,0.0418 -1.3125,0.1875 0.28746,-0.23696 0.80217,-0.52621 0.96875,-0.625 z m 0.78125,0.625 c 0.17092,0.0606 0.31184,0.0659 0.46875,0.0312 -0.054,0.10881 -0.0605,0.2479 -0.0625,0.375 -0.10039,-0.15792 -0.22591,-0.30905 -0.40625,-0.40625 z m 10.5,0.46875 c 0.19817,0.0621 0.39748,0.11852 0.59375,0.15625 0.0361,0.0653 0.0765,0.12849 0.125,0.1875 -0.0503,-0.001 -0.0597,0.0366 -0.0937,0.0625 -0.22694,-0.16399 -0.44438,-0.28797 -0.625,-0.40625 z"
     id="path3333-86-1"
     style="fill:#22280b;fill-opacity:1;fill-rule:evenodd;stroke:none" />
  <path
     d="m 320.39467,194.37618 c -0.0596,0.10113 -0.098,0.21084 -0.10872,0.31187 -0.005,0.0505 -0.002,0.0992 0.008,0.1471 0.0106,0.0479 0.0325,0.0993 0.0701,0.13586 0.0376,0.0366 0.0821,0.0496 0.12085,0.0498 0.0388,1.5e-4 0.0735,-0.012 0.10995,-0.0323 0.0728,-0.0407 0.14459,-0.11792 0.20419,-0.21905 0.0596,-0.10113 0.0966,-0.20845 0.10732,-0.30948 0.005,-0.0505 0.005,-0.0967 -0.006,-0.14465 -0.0106,-0.0479 -0.0325,-0.0993 -0.0701,-0.13586 -0.0376,-0.0366 -0.0821,-0.0496 -0.12085,-0.0498 -0.0388,-1.5e-4 -0.0761,0.01 -0.11246,0.0299 -0.0728,0.0407 -0.14318,0.11553 -0.20279,0.21666 z m 0.10302,0.10014 c 0.0531,-0.0901 0.11664,-0.15441 0.1727,-0.18573 0.0281,-0.0156 0.0547,-0.0232 0.0729,-0.0232 0.0182,7e-5 0.0254,0.006 0.0297,0.01 0.004,0.004 0.0106,0.0115 0.0156,0.0339 0.005,0.0225 0.004,0.0551 -6e-5,0.094 -0.008,0.0778 -0.0367,0.17623 -0.0898,0.26632 -0.0531,0.0901 -0.12056,0.15436 -0.17662,0.18568 -0.0281,0.0156 -0.0522,0.0257 -0.0704,0.0256 -0.0182,-7e-5 -0.0254,-0.006 -0.0297,-0.01 -0.004,-0.004 -0.0106,-0.0115 -0.0156,-0.0339 -0.005,-0.0225 -0.007,-0.0575 -0.002,-0.0964 0.008,-0.0778 0.0406,-0.17618 0.0937,-0.26628 z"
     id="path3335-5-3"
     style="fill:#22280b;fill-opacity:1;fill-rule:nonzero;stroke:none;stroke-width:0.25;marker:none;visibility:visible;display:inline;overflow:visible;enable-background:accumulate" />
  <path
     d="m 323.94358,195.82101 c 0,0 0.005,0.44623 0.0294,0.70617 0.23345,0.41286 0.6317,1.13015 0.79074,1.28723 0.20097,-0.2308 -0.49397,-1.50964 -0.82017,-1.9934 z m 0.12312,0.42988 c 0.16862,0.30423 0.33862,0.63454 0.47158,0.99899 -0.16669,-0.23428 -0.31445,-0.48639 -0.45973,-0.73642 -0.008,-0.10022 -0.008,-0.14961 -0.0118,-0.26257 z"
     id="path3337-7-0"
     style="fill:#28170b;fill-rule:evenodd;stroke:none" />
  <path
     d="m 323.96872,196.77829 0.23376,0.46372 c -0.11921,-0.0556 -0.20396,-0.0813 -0.20396,-0.0813 -0.0229,-0.12711 -0.035,-0.32957 -0.0298,-0.38239 z"
     id="path3339-4-3"
     style="fill:#000000;fill-rule:evenodd;stroke:none" />
  <path
     d="m 321.18407,185.82869 c 0.0227,0.11399 0.0566,0.21981 0.0966,0.30243 0.02,0.0413 0.0401,0.0769 0.0662,0.10751 0.0261,0.0306 0.063,0.0597 0.0998,0.0622 0.0368,0.002 0.0608,-0.0225 0.0752,-0.0504 0.0144,-0.0279 0.0229,-0.0615 0.0267,-0.10123 0.008,-0.0794 -3.7e-4,-0.18346 -0.0231,-0.29745 -0.0227,-0.11399 -0.0561,-0.21713 -0.096,-0.29974 -0.02,-0.0413 -0.0423,-0.0771 -0.0684,-0.10766 -0.0261,-0.0306 -0.0608,-0.0596 -0.0977,-0.0621 -0.0368,-0.002 -0.0629,0.0224 -0.0774,0.0503 -0.0144,0.0279 -0.0207,0.0617 -0.0245,0.10137 -0.008,0.0794 -1.7e-4,0.18078 0.0226,0.29477 z m 0.11237,0.008 c -0.02,-0.10014 -0.025,-0.18876 -0.0194,-0.247 0.003,-0.0291 0.009,-0.0503 0.0137,-0.0598 0.005,-0.01 0.006,-0.005 10e-4,-0.005 -0.005,-3.7e-4 -0.008,-0.005 10e-4,0.005 0.009,0.0105 0.0236,0.033 0.0382,0.0633 0.0293,0.0606 0.06,0.15096 0.0799,0.2511 0.02,0.10015 0.0256,0.19145 0.02,0.24969 -0.003,0.0291 -0.009,0.0503 -0.0136,0.0598 -0.005,0.01 -0.004,0.005 0.001,0.005 0.005,3.6e-4 0.006,0.005 -0.003,-0.006 -0.009,-0.0105 -0.0236,-0.0331 -0.0382,-0.0634 -0.0293,-0.0606 -0.0605,-0.15364 -0.0805,-0.25378 z"
     id="path3341-7-6"
     style="fill:#28170b;fill-opacity:1;fill-rule:nonzero;stroke:none;stroke-width:0.25;marker:none;visibility:visible;display:inline;overflow:visible;enable-background:accumulate" />
  <path
     d="m 320.53934,190.67844 c 0.0854,-0.45343 0.47359,-1.10198 1.42792,-0.72405 -0.51172,-0.35083 -1.33253,-0.44225 -1.42792,0.72405 z"
     id="path4973-4"
     style="fill:#22280b;stroke:none" />
  <path
     d="m 320.50612,190.3507 c 0.0713,-0.37836 0.39518,-0.91953 1.1915,-0.60417 -0.427,-0.29274 -1.11191,-0.36903 -1.1915,0.60417 z"
     id="path4973-7-93"
     style="fill:#22280b;stroke:none" />
  <path
     d="m 320.5161,189.8359 c 0.0406,-0.2157 0.22528,-0.52421 0.67925,-0.34443 -0.24342,-0.16689 -0.63388,-0.21038 -0.67925,0.34443 z"
     id="path4973-7-9-1"
     style="fill:#22280b;stroke:none" />
</svg>
