<?xml version="1.0" encoding="UTF-8" standalone="no"?>
<!-- Created with Inkscape (http://www.inkscape.org/) -->

<svg
   xmlns:dc="http://purl.org/dc/elements/1.1/"
   xmlns:cc="http://creativecommons.org/ns#"
   xmlns:rdf="http://www.w3.org/1999/02/22-rdf-syntax-ns#"
   xmlns:svg="http://www.w3.org/2000/svg"
   xmlns="http://www.w3.org/2000/svg"
   version="1.1"
   width="560"
   height="560"
   id="tatoo_chaos_right">
  <path
     d="m 236.46875,175.21875 c -0.13997,0.10609 -0.26874,0.22893 -0.40625,0.34375 -0.11856,0.37975 -0.25337,0.68018 -0.34375,0.75 0.17443,0.38525 -0.0785,0.70936 -0.25,0.6875 -0.22481,-0.0287 -0.32509,-0.50429 0.0625,-0.75 -0.003,-0.0709 0.002,-0.14729 0,-0.21875 -0.16034,0.15146 -0.31241,0.30413 -0.46875,0.46875 -0.0838,0.36348 0.0325,0.74156 0.34375,0.78125 0.204,0.026 0.4022,-0.0792 0.5,-0.3125 0.0702,-0.16753 0.0713,-0.3787 0.0312,-0.5625 0.10381,-0.20953 0.25196,-0.46636 0.3125,-0.625 0.12121,0.87229 0.0178,1.91362 -0.15625,2.75 -0.002,-0.32543 -0.4058,-0.36309 -0.53125,-0.25 -0.28149,0.25374 -0.26592,1.31514 0,1.71875 -0.30916,0.36414 -0.92616,1.50221 -0.65625,2 0.14561,0.26854 0.52216,-0.0588 0.71875,-0.1875 -0.19195,0.26785 -0.61342,0.74885 -0.75,0.96875 -0.42793,-0.17621 -0.69034,0.57504 -0.5,0.9375 0.25584,0.48719 0.82755,0.23278 0.78125,-0.375 0.22153,0.006 0.53766,-0.20118 0.75,-0.6875 0.11361,-0.26019 0.37321,-0.73311 0.71875,-1.15625 0.14235,-0.17434 0.30185,-0.3268 0.46875,-0.46875 0.002,0.0573 0.0106,0.13939 0.0312,0.1875 0.0403,0.0922 0.12101,0.18573 0.21875,0.1875 0.0977,0.002 0.1554,-0.0666 0.21875,-0.125 0.12669,-0.11681 0.2705,-0.28701 0.46875,-0.5 0.31899,-0.3427 0.67022,-0.79944 1.4375,-1.15625 -0.11321,0.1352 -0.24685,0.26941 -0.34375,0.40625 -0.16415,0.23183 -0.31182,0.43718 -0.40625,0.625 -0.0472,0.0939 -0.0668,0.19576 -0.0937,0.28125 -0.0134,0.0427 -0.0256,0.0693 -0.0312,0.125 -0.006,0.0557 -0.009,0.14216 0.0312,0.21875 0.0483,0.0919 0.13715,0.16742 0.25,0.1875 -0.28205,0.31745 -0.64475,0.57853 -1.03125,0.78125 -0.54203,0.2843 -1.4432,0.82226 -1.53125,1.375 -0.0482,0.30276 0.19235,0.32386 0.40625,0.28125 -0.24051,0.19635 -0.72758,0.56997 -1.03125,0.53125 -0.41574,-0.053 -0.63083,0.43273 -0.5,0.9375 0.12116,0.46749 0.74286,0.24554 0.84375,-0.1875 0.0166,-0.006 0.0746,-0.0248 0.0937,-0.0312 0.19934,0.64903 0.71844,0.94925 1.25,1.09375 0.65829,0.17895 1.57618,-0.40122 1.3125,-1.375 1.50077,-0.63269 2.94151,-0.15518 4.34375,1.375 -1.12288,-0.58232 -2.80178,-0.79989 -3.75,0.25 -0.31922,-0.0276 -0.76294,-0.10391 -0.875,0.40625 -0.10977,0.49971 0.29192,0.57881 0.59375,0.59375 0.0338,0.25583 0.16313,0.48169 0.34375,0.53125 -0.42204,0.29374 -1.16319,0.28724 -1.59375,-0.0312 0.34128,-0.46911 -0.15045,-0.86489 -0.46875,-0.9375 -0.27364,-0.0624 -0.58264,-0.004 -0.875,0.1875 -0.2978,-0.25843 -1.06181,-0.72383 -1.3125,-0.0937 0.13929,0.1566 0.36925,0.44076 0.59375,0.65625 -0.19533,-0.0161 -0.29731,0.18301 -0.21875,0.375 0.27255,0.66603 0.90691,1.00095 1.1875,1.625 -0.66403,0.26155 0.48301,1.86361 0.78125,2.25 -0.0892,0.34481 -0.0733,0.75066 0,0.96875 -0.18077,-0.26355 -0.48998,-0.39983 -0.65625,-0.40625 -0.24792,-0.72556 -0.74407,-2.24559 -1.1875,-1.75 -0.10502,-0.26148 -0.1917,-0.51193 -0.25,-0.8125 -0.13755,-0.35701 -0.14976,-1.09674 -0.4375,-1.25 -0.10367,-0.0552 -0.26512,0.15932 -0.28125,0.40625 -0.0234,-0.27556 -0.059,-0.69877 -0.25,-0.71875 -0.33788,-0.0354 -0.51586,1.25314 -0.875,2.125 -0.20086,0.48759 -0.80048,1.97832 -0.625,2.3125 0.0403,0.0767 0.2385,0.0519 0.3125,0.0312 -0.16918,0.56014 -0.51142,1.48758 -0.3125,1.6875 0.18018,0.18109 0.81596,-0.50088 1,-0.96875 -0.10474,2.33306 -0.62196,3.60533 -1.5,5.0625 0.23443,-1.00802 0.52225,-2.27338 0.375,-2.71875 -0.0875,-0.0927 -0.28379,0.28476 -0.375,0.375 0.082,-0.47005 -0.0983,-0.81461 -0.375,-0.46875 -0.0562,-0.39024 0.005,-0.82135 0.0625,-1.25 0.0903,-0.67241 -0.0276,-1.5526 -0.125,-1.90625 -0.071,0.10164 -0.47134,0.60675 -0.53125,0.96875 0.0889,-0.7561 0.48714,-1.31168 0.90625,-2.125 0.30573,-0.59329 0.66428,-1.37355 0.71875,-2.09375 0.0256,-0.33915 -0.19498,-0.56048 -0.40625,-0.46875 0.01,-0.34347 0.14192,-1.03284 0.21875,-1.59375 -0.53606,-0.0202 -0.8649,0.82658 -0.84375,1.46875 0.009,0.26293 0.0358,0.45733 -0.0937,0.65625 -0.01,-0.20695 -0.12859,-0.32566 -0.25,-0.25 -0.2404,0.14982 -0.3506,0.54745 -0.625,0.75 -0.0296,-0.19745 -0.11643,-0.25427 -0.25,-0.28125 0.10765,-0.22138 0.20081,-0.56563 0.0625,-0.6875 -0.11194,-0.0986 -0.36519,-0.0285 -0.625,0.125 -0.006,0.1043 0.005,0.2081 0,0.3125 0.2287,-0.17149 0.37403,-0.24385 0.40625,-0.1875 0.0491,0.086 -0.21177,0.61375 -0.4375,1.03125 -0.001,0.0737 -0.0302,0.14502 -0.0312,0.21875 0.29827,-0.30853 0.54311,-0.51504 0.59375,-0.4375 0.078,0.11938 -0.18644,0.79193 -0.25,0.9375 0.58694,-0.3784 1.00649,-1.42516 1.125,-1.34375 0.0844,0.0579 -0.12698,0.66572 -0.3125,1.09375 0.39073,-0.26402 0.89776,-1.08844 0.875,-1.78125 -0.0191,-0.5811 0.13746,-0.8628 0.375,-1.09375 -0.0439,0.32023 -0.18197,1.32881 -0.0625,2.09375 0.0703,-0.51351 0.10977,-0.70936 0.28125,-0.6875 0.17148,0.0219 0.0245,0.91536 -0.6875,2.0625 -0.7086,1.14165 -1.0537,1.90809 -1.03125,3.8125 0.33965,-1.04666 0.59243,-1.57205 0.78125,-1.8125 0.26301,0.86237 -0.40845,2.4922 0.0937,3.3125 0.0628,-0.29933 0.38223,-0.78168 0.0937,0.6875 0.3144,-0.54386 0.39696,-0.70012 0.5,-0.65625 0.10304,0.0439 -0.54295,2.53364 -0.90625,3.59375 1.56596,-2.1976 2.60698,-3.98298 2.4375,-8 -0.39081,1.20467 -0.90482,2.00333 -1,1.84375 -0.11339,-0.19012 0.35082,-1.03272 0.4375,-2.21875 -0.13939,0.23119 -0.28767,0.62374 -0.375,0.53125 -0.11065,-0.1172 0.32212,-1.35357 0.5625,-1.8125 0.48685,-0.92951 0.56684,-1.8864 0.65625,-1.875 0.11111,0.0142 0.0447,1.01213 0.46875,1.625 -0.0857,-0.62901 -0.0486,-1.35606 0.0625,-1.34375 0.17317,0.0194 0.17368,2.0131 0.875,2.625 -0.0937,-0.25191 -0.17407,-0.55898 0.0312,-0.625 0.20533,-0.066 0.89626,1.86501 1.03125,2.3125 0.0662,-0.48331 0.11444,-1.02718 1,0.46875 -0.17596,-0.94445 -0.5526,-2.05396 0.15625,-1.65625 -0.86639,-1.07858 -1.35192,-1.90697 -1.25,-2.09375 0.0805,-0.14752 0.3213,0.018 0.4375,0.125 -0.36802,-1.22787 -1.5522,-1.95574 -1.4375,-2.15625 0.11471,-0.20052 0.56641,0.26943 0.6875,0.5 -0.20661,-0.68044 -0.68309,-1.19251 -0.9375,-1.5 0.10949,-0.23005 0.66505,0.21739 0.84375,0.5 0.60502,-0.56673 1.34926,-0.23713 1.3125,0.0312 -0.028,0.20471 -0.39252,0.12929 -0.53125,0.0625 0.91252,1.16843 2.49947,0.874 3.28125,-0.0937 -0.68368,0.37384 -1.21866,0.15328 -1.1875,-0.375 -0.38737,-0.003 -0.59927,-0.0753 -0.5625,-0.34375 0.0353,-0.2578 0.4307,-0.237 0.71875,-0.0312 0.58742,-0.78566 2.00104,-1.32509 4.75,0.40625 -1.85083,-3.52452 -4.26039,-3.38437 -5.90625,-2.625 0.52991,0.7077 0.20729,1.3408 -0.75,1.21875 -1.03308,-0.13172 -1.21875,-1.09375 -1.21875,-1.09375 -0.11164,0.0382 -0.34375,0.0937 -0.34375,0.0937 0.007,0.42025 -0.41463,0.5847 -0.5,0.3125 -0.12072,-0.38491 0.14568,-0.59868 0.4375,-0.5 0.35131,-0.0613 1.35724,-0.66444 1.65625,-1.34375 -0.50392,0.3353 -0.81402,0.39738 -0.875,0.28125 -0.0749,-0.14261 0.44907,-0.71261 1.3125,-1.125 0.86343,-0.41239 1.5172,-1.3525 1.75,-1.9375 -0.58743,0.78565 -0.78852,0.69595 -0.875,0.53125 -0.0865,-0.16469 0.79462,-1.64191 1.59375,-2.0625 -1.37692,0.10105 -2.02834,1.09167 -2.4375,1.53125 -0.40917,0.43958 -0.54635,0.58727 -0.625,0.4375 -0.0736,-0.14024 0.37744,-0.56829 0.53125,-0.65625 -1.20262,0.26158 -1.83952,1.60523 -2.09375,2.1875 -0.25423,0.58227 -0.59014,0.67265 -0.71875,0.65625 0.11735,0.4216 -0.31449,0.69351 -0.53125,0.375 -0.15941,-0.23425 0.12911,-0.8613 0.4375,-0.5625 0.39242,-0.81591 0.95989,-0.83652 1.40625,-2.34375 -0.39439,0.6893 -1.04073,1.30191 -1.25,0.96875 -0.21483,-0.34201 0.23322,-1.21247 0.6875,-1.71875 -0.38856,-0.56488 -0.20455,-1.43631 0.0312,-1.40625 0.23579,0.0301 0.13014,0.37471 0.125,0.75 0.43639,-0.54967 0.76667,-2.57616 0.5625,-4.0625 -0.007,0.005 -0.0244,-0.005 -0.0312,0 z m -2.59375,2.6875 c -0.0877,0.12105 -0.16408,0.24872 -0.25,0.375 0.002,0.01 -0.002,0.0217 0,0.0312 0.0624,0.33653 0.16313,0.63342 0.25,0.875 0.11884,-0.96088 0.7581,-1.04188 0.90625,-0.53125 0.14815,0.51063 -0.3412,1.10961 -0.71875,1 0.20079,0.76322 -0.20528,1.56028 -0.75,1.875 0.31807,0.7031 0.22256,1.04487 0.0937,1.125 -0.28993,0.18036 -0.37879,-0.64199 -0.375,-1.625 -0.41644,0.1043 -0.59096,-0.23266 -0.65625,-0.59375 -0.052,0.10523 -0.1064,0.20675 -0.15625,0.3125 0.0779,0.33974 0.23871,0.59641 0.59375,0.6875 -0.0117,0.55828 0.18148,1.92542 0.71875,1.59375 0.29878,-0.18444 0.15503,-0.90672 0.0312,-1.375 0.52189,-0.3632 0.7754,-0.90834 0.84375,-1.75 0.5216,-0.25292 0.69272,-0.97928 0.5625,-1.5 -0.14052,-0.56188 -0.77202,-0.58228 -1.03125,-0.0625 -0.0334,-0.13679 -0.0388,-0.29085 -0.0625,-0.4375 z m -2.34375,4.46875 c -0.0899,0.24741 -0.17023,0.50039 -0.25,0.75 0.51438,-0.0168 0.83255,0.5823 0.96875,1 0.46959,-0.45857 0.79439,-0.0481 0.625,0.5625 -0.098,0.35321 -0.3447,0.50077 -0.5625,0.375 -0.1095,-0.0632 -0.29687,-0.24645 -0.15625,-0.625 -0.46964,0.0264 -0.82534,-0.14144 -1.125,-0.4375 -0.0139,0.0511 -0.0177,0.10511 -0.0312,0.15625 0.26848,0.2381 0.54921,0.36899 0.9375,0.40625 -0.17537,0.66808 0.68376,1.04205 0.96875,0.375 0.25495,-0.59674 0.14107,-1.46704 -0.59375,-1.15625 -0.11525,-0.26021 -0.27404,-0.73973 -0.71875,-0.9375 -0.007,-0.17472 -0.025,-0.33642 -0.0625,-0.46875 z m -0.75,3.59375 c -0.0553,0.004 -0.1258,0.0199 -0.1875,0.0312 -0.0185,0.10438 -0.0454,0.20789 -0.0625,0.3125 0.085,-0.0152 0.16516,0.008 0.1875,0.0625 0.056,0.13679 -0.10296,0.20719 -0.25,0.25 -0.003,0.0202 0.003,0.0423 0,0.0625 1.01492,0.34618 1.33072,-0.45996 1.5,-0.0937 0.0466,0.10082 -0.0553,0.24796 -0.40625,0.625 -0.35095,0.37704 -0.8721,0.57133 -0.40625,-0.1875 -0.23046,0.11169 -0.50657,0.28764 -0.78125,0.5 -0.0167,0.14475 -0.0169,0.29243 -0.0312,0.4375 0.15783,-0.14102 0.30019,-0.28636 0.46875,-0.40625 -0.10684,0.60816 0.58888,0.0394 0.8125,-0.15625 0.30315,-0.26512 0.5675,-0.71929 0.5,-0.90625 -0.14825,-0.41062 -0.80501,0.3916 -1.28125,0.0937 0.22449,-0.31853 0.17363,-0.64063 -0.0625,-0.625 z"
     id="path50677-0"
     style="fill:#22280b;fill-rule:evenodd;stroke:none" />
  <path
     d="m 234.06157,185.25162 c -0.32521,-0.0417 -0.66894,0.0968 -1.02337,0.31097 -0.75007,0.45316 -1.08859,0.13925 -1.59625,-0.29428 0.20268,0.27171 0.49461,0.61447 1.09309,0.78297 0.19102,0.5161 0.50049,1.11175 1.12211,1.191 0.62161,0.0793 0.99358,-0.24408 1.2982,-1.03506 0.0948,0.10428 0.63471,0.14341 0.87802,-0.0407 0,0 -0.52976,0.24313 -1.05176,-0.44353 -0.22637,-0.29779 -0.4671,-0.43896 -0.72004,-0.47137 z m -0.13672,0.27137 c 0.56813,0.0724 0.40531,0.86724 0.0593,1.08437 0.24782,-0.13744 0.4376,-0.32855 0.53426,-0.71576 0.073,0.0247 0.15205,0.0794 0.21222,0.11782 -0.21306,0.67972 -0.59785,0.9387 -1.03726,0.88267 -0.43942,-0.056 -0.68034,-0.4419 -0.84785,-0.97037 0.0932,-0.0218 0.23317,-0.0943 0.36266,-0.1683 -0.0307,0.30343 0.10191,0.59783 0.30629,0.77756 -0.23483,-0.27582 -0.19222,-1.08482 0.41034,-1.00799 z"
     id="path50679-7"
     style="fill:#22280b;fill-opacity:1;fill-rule:evenodd;stroke:none" />
  <path
     d="m 236.09031,177.0237 c -0.45923,0.72291 -1.02098,0.64697 -1.21174,-0.10911 -0.41134,0.60171 -0.75387,0.66102 -0.98752,0.11338 0.004,0.1961 0.0667,0.58443 0.14647,0.79019 0.61535,-0.40866 1.07223,0.25466 1.16912,0.80505 0.12927,-0.61562 0.54138,-0.85094 0.80055,-0.71482 0.0417,-0.17228 0.11712,-0.68258 0.0831,-0.88469 z m -1.26991,0.23003 c 0.12512,0.28392 0.31417,0.46191 0.53665,0.48512 0.18351,0.0191 0.37617,-0.0687 0.55959,-0.23808 -0.009,0.0725 -0.0193,0.1128 -0.0296,0.17363 -0.23427,-0.0115 -0.48962,0.1371 -0.6655,0.45561 -0.0782,-0.17372 -0.1763,-0.33599 -0.30934,-0.45613 -0.10141,-0.0916 -0.22542,-0.14645 -0.35684,-0.1734 0.0888,-0.0587 0.17755,-0.14292 0.26508,-0.24675 z"
     id="path50683-4"
     style="fill:#28170b;fill-rule:evenodd;stroke:none" />
  <path
     d="m 232.66415,192.97418 c -0.0476,0.17865 -0.15176,0.72308 -0.44161,0.92518 -0.012,0.83319 -0.19774,1.21495 -0.13577,1.72502 0.18266,-0.072 0.37134,-0.0451 0.3837,0.21722 0.43754,-0.57587 0.64173,-0.0927 0.41135,1.54061 0.323,-0.65798 0.69958,-2.24855 0.75651,-3.00192 -0.83712,1.04507 -1.3571,0.39232 -0.70866,-0.97207 -0.14864,-0.0407 -0.20968,-0.16614 -0.26552,-0.43404 z m -0.0131,0.5711 c 0.015,0.009 0.0693,0.0192 0.0772,0.0266 -0.44309,1.11021 -0.26375,1.74869 0.65408,1.38341 -0.0516,0.31536 -0.087,0.76876 -0.21534,1.01635 -0.0581,-0.44581 -0.32544,-0.7422 -0.65117,-0.47587 -0.0482,-0.11612 -0.19267,-0.21638 -0.28172,-0.2891 0.0518,-0.38543 0.13269,-0.83487 0.16086,-1.26871 0.13882,-0.14233 0.20797,-0.33117 0.25606,-0.39271 z"
     id="path50685-0"
     style="fill:#28170b;fill-rule:evenodd;stroke:none" />
  <path
     d="m 230.71875,187.9375 c -0.13454,0.0952 -0.27138,0.21658 -0.40625,0.34375 -0.0156,0.17725 -0.0501,0.35361 -0.0625,0.53125 0.0177,0.037 0.0277,0.0692 0.0625,0.0937 -0.0101,0.003 -0.0486,0.0254 -0.0625,0.0312 -0.002,0.0312 0.002,0.0625 0,0.0937 0.0574,-0.0333 0.137,-0.0989 0.1875,-0.125 -0.22473,-0.20127 -0.18409,-0.55407 0.28125,-0.96875 z"
     id="path50687-1"
     style="fill:#22280b;fill-rule:evenodd;stroke:none" />
  <path
     d="m 234.00577,185.89438 a 0.14044314,0.19818438 8.3380032 1 1 -0.27865,-0.0355 0.14044314,0.19818438 8.3380032 1 1 0.27865,0.0355 z"
     id="path50689-0"
     style="fill:#28170b;fill-opacity:1;fill-rule:nonzero;stroke:none;stroke-width:1;marker:none;visibility:visible;display:inline;overflow:visible;enable-background:accumulate" />
  <path
     d="m 235.125,179.28125 c -0.0846,0.21971 -0.24958,0.52467 -0.53125,0.75 -0.003,0.73725 -0.32715,1.26954 -0.78125,1.71875 0.20781,1.10437 -0.10345,1.64431 -0.5,1.59375 -0.39655,-0.0505 -0.64106,-0.76219 -0.625,-1.65625 -0.2927,-0.0481 -0.47828,-0.30006 -0.59375,-0.65625 -0.023,0.051 -0.04,0.10511 -0.0625,0.15625 0.0301,0.07 0.0589,0.15594 0.0937,0.21875 0.10745,0.19345 0.24984,0.34472 0.4375,0.40625 0.003,0.42355 0.045,0.79385 0.15625,1.09375 0.12146,0.32741 0.31632,0.56237 0.5625,0.59375 0.23783,0.0303 0.46913,-0.11383 0.59375,-0.4375 0.11519,-0.29919 0.0942,-0.76078 -0.0312,-1.28125 0.4416,-0.42532 0.81394,-0.97324 0.84375,-1.6875 0.13252,-0.11775 0.25504,-0.24153 0.34375,-0.375 0.0137,0.18317 0.0352,0.36082 0.0625,0.5 -0.29285,0.50349 -0.50696,0.99863 -0.5625,1.40625 -0.0376,0.27578 0.0849,0.65332 0.3125,0.6875 -0.0183,0.0347 -0.0403,0.10936 -0.0625,0.15625 -0.76641,-0.0522 -0.87914,1.19682 -0.5,1.65625 0.38192,0.46281 0.86287,0.16175 1.125,-0.4375 0.46803,-0.10799 0.66716,-0.63522 0.90625,-1.125 0.0737,0.15419 0.15062,0.17265 0.28125,0.15625 -0.31781,0.32222 -0.67808,0.65814 -0.625,1.21875 -0.19583,0.24671 -0.95069,-0.10687 -1.09375,0.9375 -0.12537,0.91525 0.485,1.50653 1.0625,0.9375 0.0364,0.008 0.0697,-0.006 0.0937,0 0.27929,0.49838 0.54799,0.69079 0.90625,0.78125 -0.20214,0.0558 -0.39818,0.14132 -0.53125,0.25 -0.45222,-0.43108 -1.16079,-0.8317 -1.78125,0.46875 0.19782,0.12313 0.462,0.34634 0.59375,0.53125 -0.29185,0.6885 0.537,1.39999 0.9375,1.90625 -0.036,0.094 -0.0505,0.38961 -0.0312,0.59375 -0.15051,-0.0391 -0.29908,-0.0681 -0.4375,-0.0625 -0.16896,-0.68408 -0.45971,-2.03694 -0.90625,-1.875 -0.30297,-0.74094 -0.75618,-0.48324 -0.9375,0.125 -0.22908,0.76847 -0.46645,1.54211 -0.6875,2.3125 -0.0101,-0.094 -0.0402,-0.1534 -0.0937,-0.1875 0.24872,-0.68981 0.45956,-1.80999 -0.0312,-2.09375 0.11322,-0.59538 0.29738,-1.43198 -0.21875,-1.5 -0.69521,-0.0916 -1.05327,1.22636 -1.125,1.75 -0.0731,0.0748 -0.24251,0.24217 -0.3125,0.34375 -0.0178,-0.0616 -0.0599,0.0224 -0.0937,0 0.0128,-0.0676 0.0314,-0.21463 0.0312,-0.25 0.30711,-0.25733 0.39039,-0.68253 0.1875,-1.03125 0.36185,-0.26431 0.91367,-0.78544 0.96875,-1.1875 0.0697,-0.5087 -0.27731,-0.55369 -0.5625,-0.53125 -0.0175,-0.12441 -0.3896,-0.28754 -0.59375,-0.1875 -0.0127,-0.26668 -0.30625,-0.38049 -0.625,-0.40625 -0.0102,0.052 -0.0214,0.10417 -0.0312,0.15625 0.49908,-0.0789 0.62181,0.20328 0.59375,0.46875 0.33289,-0.1626 0.5693,-0.0632 0.59375,0.0625 0.46434,-0.10787 0.52436,0.23518 0.46875,0.4375 -0.10417,0.37899 -0.40285,0.88088 -1.0625,1.21875 0.39005,0.17189 0.34798,0.6503 -0.125,0.96875 0.056,0.1278 -0.008,0.3945 -0.15625,0.65625 0.13858,-0.136 0.21917,-0.0167 0.25,0.15625 0.12505,-0.27603 0.46423,-0.6455 0.625,-0.625 0.0162,-1.07363 0.49808,-1.89977 0.9375,-1.84375 0.27344,0.0349 0.20995,0.28906 0.0312,1.59375 0.70735,0.0902 0.2539,1.53357 -0.125,2.46875 0.35764,-0.46151 0.2894,0.031 0.15625,0.84375 0.15815,-0.51768 0.89746,-2.62081 1.125,-3.40625 0.22754,-0.78544 0.53612,-0.53885 0.65625,-0.0625 0.51013,-0.3806 0.70344,0.87704 0.9375,1.875 0.15625,-0.0262 0.43372,-0.0603 0.71875,0.40625 0.28504,0.46661 0.35794,0.81263 0.5625,1.46875 0.0318,-0.0728 0.17396,-0.0825 0.34375,0.0312 -0.0543,-0.1606 -0.0421,-0.4142 0,-0.5625 0,0 -0.0101,0.0735 -0.5625,-0.75 -0.5524,-0.82341 -0.32195,-1.2692 -0.1875,-1.375 -0.11827,-0.0919 -0.31608,-0.3388 -0.78125,-0.84375 -0.46516,-0.50495 -0.46063,-0.94707 -0.28125,-1.0625 -0.0996,-0.22784 -0.39839,-0.53862 -0.59375,-0.625 0.52444,-0.96272 1.13915,-0.51016 1.625,-0.15625 0.12372,-0.10716 0.34003,-0.31422 0.84375,-0.25 0.64305,0.082 0.87069,0.64756 0.875,1.09375 0.15042,0.096 0.53369,0.14537 0.84375,0.0312 -1.22062,-0.59375 -1.08614,-1.49909 0.28125,-1.71875 0.88885,-0.98564 2.25911,-0.80164 2.9375,-0.5 -0.60073,-0.62981 -2.08967,-1.18342 -3.25,-0.59375 0.12105,1.10649 -1.04626,1.41754 -1.625,1.34375 -0.57874,-0.0738 -0.79094,-0.22962 -1.15625,-0.90625 0,0 -0.13391,-0.0245 -0.1875,-0.0312 -0.41255,0.62355 -1.08335,0.21171 -0.96875,-0.625 0.1291,-0.94244 0.82858,-0.49447 1.21875,-0.875 -0.33825,-0.39656 -0.0173,-0.67716 0.65625,-1.375 0.67353,-0.69784 1.12081,-0.73516 1.5625,-1.09375 -0.27076,-0.17283 -0.039,-0.80391 0.21875,-1.09375 -0.27584,0.10314 -0.513,0.54226 -0.6875,0.78125 -0.1745,0.23899 -0.38677,0.40942 -0.78125,0.34375 -0.0145,0.10573 0.0997,0.48829 -0.25,0.8125 -0.34974,0.32422 -0.6287,0.20205 -0.5625,-0.28125 -0.10643,0.1401 -0.23653,0.48256 -0.3125,0.71875 -0.076,0.23619 -0.32502,0.5994 -0.71875,0.6875 -0.18579,0.56026 -0.64896,0.85158 -1,0.46875 -0.35103,-0.38284 -0.1796,-1.6234 0.5,-1.40625 0.0404,-0.0563 0.0929,-0.22388 0.1875,-0.34375 -0.63221,-0.0173 -0.43185,-1.00116 0.1875,-2.03125 -0.0526,-0.25259 -0.10885,-0.50915 -0.0937,-0.9375 z m 3.09375,1.8125 c -0.0212,0.10124 -0.0139,0.21107 0,0.3125 0.005,0.0356 0.0197,0.0608 0.0312,0.0937 -0.28367,0.19075 -0.59934,0.31297 -1,0.625 0.0241,-0.0667 0.0531,-0.12689 0.0625,-0.1875 0.0108,-0.0695 -7e-4,-0.1344 0,-0.1875 0.33454,0.002 0.55622,-0.18365 0.71875,-0.40625 0.0581,-0.0795 0.11983,-0.15738 0.1875,-0.25 z m -6.5,0.84375 c -0.0205,0.0523 -0.0425,0.10387 -0.0625,0.15625 0.10459,0.16834 0.14819,0.35638 0.125,0.65625 0.17929,0.0308 0.45393,0.32363 0.65625,0.78125 0.77156,-0.13969 0.91195,0.83354 0.53125,1.53125 -0.35976,0.65933 -1.0893,0.60585 -1.1875,-0.21875 -0.35549,-0.0417 -0.63619,-0.17899 -0.875,-0.375 -0.0231,0.0931 -0.0406,0.18791 -0.0625,0.28125 0.26641,0.19354 0.58038,0.34622 0.90625,0.40625 0.0957,0.23932 0.32517,0.48418 0.59375,0.5 0.28756,0.0169 0.58888,-0.17937 0.78125,-0.5 0.2043,-0.34049 0.24289,-0.77951 0.125,-1.15625 -0.112,-0.3579 -0.36464,-0.64931 -0.75,-0.65625 -0.20026,-0.38836 -0.41725,-0.63607 -0.625,-0.71875 8.1e-4,-0.28665 -0.0359,-0.51579 -0.15625,-0.6875 z m 8.09375,3.21875 c 0.24761,-0.0145 0.50926,-0.003 0.75,0.0312 0.0688,0.01 0.12032,0.0178 0.1875,0.0312 0.13453,0.027 0.25019,0.0846 0.375,0.125 -0.11122,-0.005 -0.19716,-0.0391 -0.3125,-0.0312 -0.54044,0.0367 -1.1252,0.25376 -1.59375,0.75 -0.10259,-0.005 -0.21637,0.006 -0.34375,0.0312 0.17681,-0.20331 0.20907,-0.52677 0.21875,-0.8125 0.23377,-0.0699 0.47114,-0.11047 0.71875,-0.125 z m -1.65625,1.40625 c -0.0969,0.14354 -0.13669,0.29105 -0.15625,0.46875 -0.12163,-0.18809 -0.32713,-0.29964 -0.5625,-0.375 0.21112,0.012 0.46751,-0.0204 0.71875,-0.0937 z m 0.0312,0.96875 c 0.0601,0.0815 0.24969,0.24096 0.34375,0.3125 -0.10787,0.021 -0.24707,-0.0371 -0.3125,-0.0625 -0.006,-0.0684 -0.0144,-0.18264 -0.0312,-0.25 z m -1.5,3.9375 c 0.12006,0.16945 0.24171,0.35108 0.375,0.5 -0.0109,0.0738 -0.0341,0.14243 -0.0312,0.21875 -0.0392,-0.0316 -0.0822,0 -0.125,0 -0.0812,-0.26795 -0.14669,-0.51522 -0.21875,-0.71875 z"
     id="path50691-4"
     style="fill:#22280b;fill-opacity:1;fill-rule:evenodd;stroke:none" />
  <path
     d="m 230.86313,188.15051 c -0.10869,0.0444 -0.2057,0.10838 -0.27543,0.18227 -0.0349,0.0369 -0.0621,0.0774 -0.0826,0.12197 -0.0206,0.0446 -0.0343,0.0987 -0.0265,0.15056 0.008,0.0519 0.0352,0.0892 0.066,0.1128 0.0308,0.0236 0.0658,0.035 0.10705,0.0409 0.0826,0.0117 0.18648,-0.006 0.29517,-0.0506 0.10869,-0.0443 0.20313,-0.10733 0.27286,-0.18122 0.0349,-0.0369 0.0626,-0.0739 0.0831,-0.1185 0.0206,-0.0446 0.0343,-0.0987 0.0265,-0.15056 -0.008,-0.0519 -0.0352,-0.0892 -0.066,-0.1128 -0.0308,-0.0236 -0.0663,-0.0385 -0.10756,-0.0444 -0.0826,-0.0117 -0.18391,0.005 -0.2926,0.0495 z m 0.0213,0.14208 c 0.0968,-0.0395 0.18634,-0.0522 0.24991,-0.0431 0.0318,0.005 0.0576,0.0147 0.072,0.0258 0.0144,0.0111 0.0167,0.02 0.0175,0.0259 8.9e-4,0.006 0.001,0.0155 -0.008,0.0364 -0.01,0.0209 -0.0301,0.0463 -0.057,0.0747 -0.0537,0.0569 -0.13594,0.11798 -0.23277,0.1575 -0.0968,0.0395 -0.18943,0.0498 -0.253,0.0407 -0.0318,-0.005 -0.0571,-0.0112 -0.0715,-0.0223 -0.0144,-0.0111 -0.0166,-0.02 -0.0175,-0.0259 -8.9e-4,-0.006 -0.001,-0.0155 0.008,-0.0364 0.01,-0.0209 0.0296,-0.0498 0.0565,-0.0782 0.0537,-0.0569 0.13903,-0.11557 0.23586,-0.15509 z"
     id="path50693-9"
     style="fill:#22280b;fill-opacity:1;fill-rule:nonzero;stroke:none;stroke-width:0.25;marker:none;visibility:visible;display:inline;overflow:visible;enable-background:accumulate" />
  <path
     d="m 232.81146,191.44994 c 0,0 -0.2661,0.35826 -0.40438,0.57968 -0.0644,0.4699 -0.18203,1.28185 -0.15066,1.50318 0.29971,-0.0619 0.52151,-1.50036 0.55504,-2.08286 z m -0.16247,0.41662 c -0.0501,0.3442 -0.11498,0.70999 -0.22997,1.08049 0.009,-0.28737 0.0445,-0.57747 0.0803,-0.86441 0.0544,-0.0845 0.0843,-0.12386 0.14963,-0.21608 z"
     id="path50695-9"
     style="fill:#28170b;fill-rule:evenodd;stroke:none" />
  <path
     d="m 232.25155,192.22681 -0.0949,0.51056 c -0.0611,-0.11646 -0.113,-0.18827 -0.113,-0.18827 0.0588,-0.11498 0.17178,-0.28344 0.20794,-0.32229 z"
     id="path50697-2"
     style="fill:#000000;fill-rule:evenodd;stroke:none" />
  <path
     d="m 236.66918,181.82814 c -0.051,0.10447 -0.0881,0.2092 -0.10636,0.29912 -0.009,0.045 -0.0147,0.0855 -0.0124,0.12565 0.002,0.0402 0.0139,0.0857 0.0417,0.10999 0.0278,0.0243 0.062,0.0189 0.0904,0.005 0.0284,-0.0134 0.0555,-0.0351 0.0826,-0.0644 0.0541,-0.0586 0.11085,-0.14619 0.16181,-0.25066 0.051,-0.10447 0.0869,-0.20675 0.10517,-0.29667 0.009,-0.045 0.013,-0.0869 0.0108,-0.12708 -0.002,-0.0402 -0.0123,-0.0843 -0.0401,-0.10856 -0.0278,-0.0243 -0.0636,-0.0203 -0.092,-0.007 -0.0284,0.0134 -0.0539,0.0365 -0.0809,0.0658 -0.0542,0.0586 -0.10966,0.14374 -0.16062,0.24821 z m 0.0848,0.0741 c 0.0448,-0.0918 0.0944,-0.16534 0.13417,-0.2083 0.0199,-0.0215 0.0374,-0.0347 0.0471,-0.0394 0.01,-0.005 0.008,9e-5 0.004,-0.003 -0.004,-0.004 -0.003,-0.009 -0.002,0.005 7.7e-4,0.0138 -0.001,0.0406 -0.008,0.0736 -0.0134,0.066 -0.0437,0.15642 -0.0885,0.24821 -0.0448,0.0918 -0.0956,0.1678 -0.13537,0.21075 -0.0199,0.0215 -0.0374,0.0347 -0.0471,0.0394 -0.01,0.005 -0.006,0.001 -0.002,0.005 0.004,0.004 0.002,0.007 7.8e-4,-0.006 -7.7e-4,-0.0138 0.001,-0.0406 0.008,-0.0736 0.0134,-0.066 0.0449,-0.15889 0.0897,-0.25067 z"
     id="path50699-7"
     style="fill:#28170b;fill-opacity:1;fill-rule:nonzero;stroke:none;stroke-width:0.25;marker:none;visibility:visible;display:inline;overflow:visible;enable-background:accumulate" />
  <path
     d="m 233.21829,185.29614 c 0.34266,-0.30901 1.04437,-0.58987 1.57471,0.28895 -0.19461,-0.58913 -0.79229,-1.1591 -1.57471,-0.28895 z"
     id="path50701-1"
     style="fill:#22280b;stroke:none" />
  <path
     d="m 233.3904,185.01526 c 0.28593,-0.25785 0.87145,-0.49221 1.31399,0.24111 -0.16239,-0.49159 -0.66111,-0.96719 -1.31399,-0.24111 z"
     id="path50703-9"
     style="fill:#22280b;stroke:none" />
  <path
     d="m 233.7102,184.61171 c 0.163,-0.14699 0.4968,-0.2806 0.74909,0.13745 -0.0926,-0.28024 -0.37689,-0.55138 -0.74909,-0.13745 z"
     id="path50705-4"
     style="fill:#22280b;stroke:none" />
</svg>
