<?xml version="1.0" encoding="UTF-8" standalone="no"?>
<!-- Created with Inkscape (http://www.inkscape.org/) -->

<svg
   xmlns:dc="http://purl.org/dc/elements/1.1/"
   xmlns:cc="http://creativecommons.org/ns#"
   xmlns:rdf="http://www.w3.org/1999/02/22-rdf-syntax-ns#"
   xmlns:svg="http://www.w3.org/2000/svg"
   xmlns="http://www.w3.org/2000/svg"
   version="1.1"
   width="560"
   height="560"
   id="tatoo_archeopteryx_left">
  <path
     d="m 317.60456,188.1166 c -0.13177,0.30075 0.11864,0.52698 0.42935,0.49284 0.31072,-0.0341 1.96874,-0.32043 2.6473,0.0127 0.67856,0.33317 1.02546,0.62617 1.36288,0.75609 0.33742,0.12992 2.13535,0.77578 2.60187,0.56642 0.4291,-0.19256 0.12032,-0.80088 -0.24447,-0.74561 -0.36478,0.0553 -0.60672,0.20499 -0.81376,0.1744 -0.37037,-0.0547 -2.96736,-1.22608 -3.60674,-1.87368 -0.40124,-0.4064 -1.3926,-0.27856 -1.717,-0.15183 -0.3244,0.12674 -0.70911,0.51384 -0.65943,0.76864 z"
     id="path10533"
     style="fill:#000000;fill-rule:evenodd;stroke:none" />
  <path
     d="m 323.1875,186.84375 c 0.51656,0.89651 1.07698,1.85289 1.03125,1.96875 -0.0576,0.14589 0.061,0.4055 0.375,0.15625 0.0875,-0.0694 0.0795,-0.3952 -0.0625,-0.375 -0.0927,0.0132 -0.16164,0.0385 -0.21875,-0.0625 -0.0246,-0.0436 -0.38691,-0.68661 -0.78125,-1.375 -0.11094,-0.11032 -0.23242,-0.20689 -0.34375,-0.3125 z m 1.53125,1.59375 c 0.0322,0.11585 0.0776,0.24016 0.0937,0.34375 0.0138,0.27222 0.20735,0.30911 0.25,0.125 0.007,-0.0324 -0.007,-0.0342 0,-0.0625 -0.11421,-0.13987 -0.22888,-0.27194 -0.34375,-0.40625 z"
     id="path10535"
     style="fill:#000000;fill-rule:evenodd;stroke:none" />
  <path
     d="m 314.06525,190.7376 c -0.0196,-0.12402 -0.43155,-0.29014 -0.65694,-0.51566 -0.21216,-0.21229 -0.24536,-0.46636 -0.34842,-0.51855 -0.0749,-0.0379 -0.16265,0.0641 -0.26111,0.0989 -0.14725,0.052 -0.29828,0.11181 -0.34826,0.19466 -0.3389,0.22714 -0.85574,0.78856 -0.8453,0.96907 0.0105,0.18141 0.0347,0.42712 -0.0119,0.53345 -0.0466,0.10634 -0.11648,0.26584 -0.14682,0.43633 -0.0303,0.17049 -0.54848,0.71663 -0.69135,1.23073 -0.14286,0.5141 -0.64418,1.5471 -0.8327,1.67363 -0.18853,0.12653 -0.50011,0.38927 -0.24658,0.51936 0.0624,0.20478 0.31065,0.23117 0.35855,0.15076 0.0479,-0.0804 0.3283,-0.44553 0.37752,-0.50001 0.0492,-0.0545 0.42279,-0.63227 0.5186,-0.79309 0.0958,-0.16082 0.4798,-1.20086 0.63977,-1.37793 0.15997,-0.17706 0.79397,-1.01446 0.8904,-1.14985 0.0833,-0.11701 0.3856,-0.51988 1.20643,-0.83171 0.11942,-0.0454 0.41551,-0.0102 0.39813,-0.12012 z"
     id="path10569"
     style="fill:#000000;fill-rule:evenodd;stroke:none" />
  <path
     d="m 309.70769,195.83195 c -0.10345,0.30745 -0.45135,0.58173 -0.70093,0.52942 -0.24958,-0.0523 -0.22845,-0.4043 0.0638,-0.53609 0.0167,-0.18279 0.2571,-0.31195 0.40166,-0.2803 0.14456,0.0316 0.27886,0.1581 0.23549,0.28697 z"
     id="path10571"
     style="fill:#000000;fill-rule:evenodd;stroke:none" />
  <path
     d="m 308.76207,194.62051 c 1.3e-4,0.10537 -0.17132,0.5149 0.10857,0.49689 0.14307,-0.009 0.38757,-0.0457 0.29927,-0.24912 -0.0883,-0.20346 -0.15462,-0.48601 -0.15152,-0.68111 0.003,-0.1951 -0.0265,-2.21779 3.6e-4,-2.71301 0.0269,-0.49522 -0.0579,-1.14074 0.0138,-1.52126 0.0717,-0.38053 -0.0948,-1.09988 -0.0508,-1.25806 0.044,-0.15819 -0.21878,-0.46977 -0.34446,-0.38541 -0.12568,0.0844 -0.35376,0.19989 -0.19867,0.43895 0.15509,0.23906 0.0948,1.09988 0.16242,1.40836 0.0676,0.30848 0.15951,3.23917 0.16106,4.46377 z"
     id="path10573"
     style="fill:#000000;fill-rule:evenodd;stroke:none" />
  <path
     d="m 308.55794,195.1238 c 0.11002,0.0868 0.20225,0.18272 0.10654,0.28866 -0.0957,0.10595 -0.12401,0.2728 -0.24363,0.26968 -0.11963,-0.003 -0.1628,-0.12959 -0.12395,-0.26941 0.0389,-0.13981 -0.24678,-0.92263 -0.30975,-1.80166 -0.063,-0.87902 -10e-4,-1.83788 0.0195,-2.15139 0.0208,-0.31351 0.0215,-0.66275 -0.0207,-0.77089 -0.0423,-0.10813 -0.0349,-1.41344 -0.10795,-1.58434 -0.073,-0.17091 0.18804,-0.45984 0.3521,-0.48654 0.16406,-0.0267 0.46947,0.19673 0.2892,0.62861 -0.18026,0.43187 -0.20517,0.84667 -0.16139,1.16609 0.0438,0.31942 -0.0241,3.25618 0.094,3.84574 0.0984,0.49125 0.0629,0.83139 0.10604,0.86545 z"
     id="path10575"
     style="fill:#000000;fill-rule:evenodd;stroke:none" />
  <path
     d="m 308.20935,187.84702 c 2.1e-4,-0.11044 -0.0895,-0.13331 -0.27465,-0.16067 -0.18519,-0.0274 -0.62018,-0.088 -0.74725,-0.23779 -0.12706,-0.14978 -0.30354,-0.18677 -0.24702,0.0217 -0.1072,0.0606 -0.0553,0.17741 0.16061,0.26754 0.21594,0.0901 0.40982,0.10787 0.56983,0.18245 0.16001,0.0746 0.53803,0.16554 0.53848,-0.0733 z"
     id="path10577"
     style="fill:#000000;fill-rule:evenodd;stroke:none" />
  <path
     d="m 306.9945,187.44916 c 0.005,-0.083 -0.0335,-0.11776 -0.18113,-0.12866 -0.14759,-0.0109 -1.13595,-0.29158 -1.28633,-0.35746 -0.15038,-0.0659 -0.48873,-0.21415 -0.55707,-0.29339 -0.0684,-0.0792 -0.19635,-0.24735 -0.24018,-0.0246 -0.12368,0.0982 -0.0939,0.14261 0.13171,0.24144 0.22557,0.0988 1.60508,0.66294 1.79989,0.69901 0.19482,0.0361 0.42537,0.0519 0.33311,-0.13637 z"
     id="path10579"
     style="fill:#000000;fill-rule:evenodd;stroke:none" />
  <path
     d="m 318.15369,191.46377 c 0.1443,-0.10044 0.0932,-0.21267 0.0361,-0.31374 -0.0571,-0.10108 -0.12653,-0.18853 -0.18232,-0.26368 -0.0558,-0.0751 -0.42224,-0.47867 -0.45606,-0.63291 -0.0338,-0.15424 -0.14717,-0.13638 -0.17328,-0.10748 -0.0261,0.0289 -0.23553,0.0671 -0.33961,0.008 -0.10097,-0.0573 -0.2346,0.0854 -0.12089,0.15317 0.11372,0.0677 0.2352,0.10754 0.32374,0.22251 0.0885,0.11498 0.3528,0.39296 0.46246,0.562 0.10967,0.16904 0.28682,0.4856 0.4499,0.3721 z"
     id="path2403"
     style="fill:#000000;fill-rule:evenodd;stroke:none" />
  <path
     d="m 317.40905,187.49976 c -0.10622,-0.0609 -0.23821,0.0713 -0.28391,0.0671 -0.0457,-0.004 -0.0879,-0.067 -0.0843,-0.12568 0.004,-0.0587 -0.31173,-0.38058 -0.43168,-0.43947 -0.11995,-0.0589 -0.2175,-0.0605 -0.29528,-0.0565 -0.0778,0.004 -0.35615,0.0246 -0.4491,0.11376 -0.093,0.0892 -0.0591,0.24343 -0.29204,0.3917 -0.23291,0.14828 -0.29378,0.22935 -0.35399,0.32337 -0.0602,0.094 -0.23929,0.27857 -0.0613,0.32802 -0.0398,0.11249 -0.0106,0.17599 0.0604,0.16589 0.071,-0.0101 0.28213,-0.20276 0.34299,-0.28382 -0.0569,0.15884 0.002,0.2988 0.0751,0.32759 0.0729,0.0288 0.12127,0.0848 0.11159,0.15029 -0.01,0.0655 0.0936,0.30717 0.19243,0.33464 0.0989,0.0275 0.12874,0.10394 0.2052,0.0741 0.0765,-0.0299 0.19707,0.042 0.27091,-0.0397 0.0738,-0.0817 0.2129,-0.0303 0.2942,-0.0929 0.0813,-0.0626 0.13141,-0.2276 0.24061,-0.25264 0.10919,-0.025 0.0869,-0.19981 0.1881,-0.26297 0.11338,-0.0707 0.45754,-0.6153 0.27014,-0.72276 z"
     id="path2405"
     style="fill:#000000;fill-rule:evenodd;stroke:none" />
  <path
     d="m 317.20352,190.03552 c 0.0851,-0.0533 0.0903,-0.14104 0.053,-0.23662 -0.0373,-0.0956 -0.30895,-0.63606 -0.36672,-0.7501 -0.0578,-0.11404 -0.13005,-0.12986 -0.19289,-0.0877 -0.0628,0.0422 -0.0934,-0.0472 -0.18763,0.016 -0.0943,0.0633 -0.0514,0.13907 -0.0161,0.19576 0.0354,0.0567 -0.018,0.15687 0.0786,0.26893 0.0967,0.11207 0.36728,0.75937 0.6317,0.5937 z"
     id="path2407"
     style="fill:#000000;fill-rule:evenodd;stroke:none" />
  <path
     d="m 304.77759,186.77673 c -0.0653,0.14525 -0.19445,0.01 -0.29684,0.0411 -0.10238,0.0312 -0.71094,-0.30833 -0.81525,-0.69942 0.32426,0.24347 0.4831,0.3004 0.62569,0.29316 0.14259,-0.007 0.29683,-0.041 0.41261,0.0635 -0.0171,0.0464 -0.0806,0.0756 -0.0806,0.0756 0.0674,0.0486 0.21173,0.0987 0.15443,0.2261 z"
     id="path2409"
     style="fill:#000000;fill-rule:evenodd;stroke:none" />
  <path
     d="m 307.65452,188.15134 c 0.0912,-0.25155 -0.0676,-0.30848 -0.13729,-0.27245 -0.0696,0.036 -0.39152,-0.0321 -0.46117,0.004 -0.0697,0.036 -0.0738,0.0817 -0.36977,0.0123 -0.29594,-0.0695 -0.62945,-0.11102 -0.91243,-0.18114 -0.28298,-0.0701 -0.51673,-0.19473 -0.61757,-0.26109 -0.10084,-0.0664 -0.33197,-0.13911 -0.23202,0.0378 -0.11821,0.10347 -0.14503,0.2153 -0.0202,0.24146 0.12479,0.0262 0.25024,0.0653 0.31637,0.0879 0.0661,0.0226 1.43597,0.38202 1.58669,0.40687 0.15072,0.0248 0.91309,0.1941 0.84743,-0.0755 z"
     id="path2411-8"
     style="fill:#000000;fill-rule:evenodd;stroke:none" />
  <path
     d="m 307.7571,188.38007 c 0.0393,0.13447 -0.0523,0.24959 -0.38847,0.15617 -0.33614,-0.0934 -2.56835,-0.41555 -2.67755,-0.39051 -0.10919,0.025 -0.13864,0.085 -0.21971,0.0241 -0.0811,-0.0609 0.0187,-0.14391 0.0119,-0.15006 -0.062,-0.0683 -0.0821,-0.21027 0.15316,-0.18322 0.23531,0.0271 1.46411,0.29612 1.70557,0.31636 0.24145,0.0202 1.135,0.0854 1.2899,0.0645 0.1549,-0.0208 0.18125,0.11427 0.12522,0.1626 z"
     id="path2413-2"
     style="fill:#000000;fill-rule:evenodd;stroke:none" />
  <path
     d="m 308.31253,188.31291 c 0.1316,0.0323 0.18214,0.004 0.22192,-0.10873 0.0398,-0.11249 -0.11442,-0.46207 -0.27678,-0.46033 -0.16237,0.002 -0.22962,0.21309 -0.20854,0.24451 0.0211,0.0314 0.10018,0.0534 0.0776,0.11954 -0.0226,0.0661 0.0448,0.11469 0.003,0.18829 -0.0417,0.0736 0.051,0.10788 0.1828,0.0167 z"
     id="path2415-9"
     style="fill:#000000;fill-rule:evenodd;stroke:none" />
  <path
     d="m 304.63974,187.51801 0,0 c 0.0881,-0.0565 0.064,-0.21768 -0.0433,-0.21224 -0.1037,0.005 -0.22832,-0.058 -0.36559,-0.0334 -0.0672,0.012 -0.11403,0.0578 -0.2252,0.0439 -0.11117,-0.0139 -0.7604,-0.13038 -0.84433,-0.11962 -0.0839,0.0108 -0.28758,-0.16086 -0.37085,-0.13714 -0.0833,0.0237 -0.056,0.0483 -0.0855,0.10831 -0.11953,0.0775 -0.1,0.20651 -0.0216,0.21553 0.0784,0.009 0.2966,0.0824 0.36273,0.10506 0.0661,0.0226 0.13709,0.0125 0.28715,0.0244 0.15006,0.0119 0.90013,0.19477 1.02976,0.18819 0.12963,-0.007 0.26212,-0.0848 0.27663,-0.18299 z"
     id="path2417-0"
     style="fill:#000000;fill-rule:evenodd;stroke:none" />
  <path
     d="m 304.91788,187.62087 c 0.0897,-0.15401 -0.0186,-0.23949 -0.0835,-0.2362 -0.0648,0.003 -0.15335,-0.0767 -0.25926,0.0132 -0.10591,0.0898 -0.11999,0.32449 0.0239,0.34318 0.0497,0.082 0.30604,0.14043 0.31881,-0.12014 z"
     id="path2419-2"
     style="fill:#000000;fill-rule:evenodd;stroke:none" />
  <path
     d="m 304.536,187.90667 c -0.038,-0.10854 -0.096,-0.0991 -0.14105,-0.0903 -0.045,0.009 -0.13996,0.0591 -0.31989,-0.0293 -0.17993,-0.0883 -0.39635,6.2e-4 -0.52378,-0.0774 -0.12742,-0.078 -0.28143,-0.16767 -0.3871,-0.2013 -0.10568,-0.0336 -0.2331,-0.11164 -0.28758,-0.16086 -0.0545,-0.0492 -0.13884,-0.17491 -0.24564,0.0255 -0.18434,0.0808 -0.18589,0.17838 -0.0407,0.22299 0.14522,0.0446 0.41589,0.12836 0.47366,0.2424 0.0578,0.11403 0.19069,0.17227 0.3524,0.15757 0.16171,-0.0147 0.30693,0.0299 0.40382,0.0185 0.0969,-0.0114 0.11601,-0.0189 0.16302,0.0112 0.047,0.0301 0.29134,-0.0213 0.38053,0.0717 0.0892,0.0929 0.292,-0.008 0.17228,-0.19069 z"
     id="path2421"
     style="fill:#000000;fill-rule:evenodd;stroke:none" />
  <path
     d="m 302.77116,187.19043 c 0.067,-0.0879 0.0468,-0.22981 -0.0951,-0.20961 -0.14194,0.0202 -0.30759,-0.0429 -0.38866,-0.10375 -0.0811,-0.0609 -0.0584,-0.127 -0.28758,-0.16086 -0.13752,-0.14898 -0.27616,-0.064 -0.39283,-0.058 -0.11667,0.006 -0.28035,-0.0183 -0.49475,-0.27381 0.0547,0.30914 0.22164,0.39814 0.29392,0.41397 0.0723,0.0158 0.14456,0.0317 0.19905,0.0809 0.0545,0.0492 0.23859,0.0919 0.30758,0.0429 0.069,-0.049 0.12766,-0.0455 0.13292,0.0582 0.005,0.1037 0.1116,0.15029 0.20299,0.15865 0.0914,0.008 0.15951,0.0699 0.23113,0.0728 0.0716,0.003 0.20431,0.18458 0.29134,-0.0213 z"
     id="path2423-8"
     style="fill:#000000;fill-rule:evenodd;stroke:none" />
  <path
     d="m 303.63543,185.78198 c -0.26263,0.71512 0.25936,1.01355 0.46874,1.04191 0.20938,0.0284 0.31572,0.075 0.39678,0.13583 0.0811,0.0609 0.26344,-0.0589 0.23357,-0.13531 -0.0299,-0.0765 4.7e-4,-0.24696 -0.18914,-0.26983 -0.18961,-0.0229 -0.8448,0.12733 -0.90995,-0.7726 z"
     id="path2425-1"
     style="fill:#000000;fill-rule:evenodd;stroke:none" />
  <path
     d="m 302.57398,186.12175 c -0.18787,0.13949 -0.0435,0.29462 0.01,0.31792 0.0532,0.0233 0.38602,0.0519 0.44051,0.10111 0.0545,0.0492 0.16696,0.089 0.29528,0.0565 0.12831,-0.0325 0.32736,0.0484 0.48094,0.002 0.0585,-0.0189 0.12897,-0.0195 0.18895,0.01 0.06,0.0294 0.34295,0.0996 0.44797,0.12023 0.10502,0.0207 0.20783,0.12591 0.30012,0.0238 0.0923,-0.10216 -0.10675,-0.18303 -0.19068,-0.17227 -0.0839,0.0108 -0.48203,-0.151 -0.63209,-0.16288 -0.15006,-0.0119 -0.21069,-0.0543 -0.28363,-0.0831 -0.0729,-0.0288 -0.10986,0.0121 -0.12085,0.0516 -0.011,0.0396 -0.24738,-0.1369 -0.3779,-0.0198 -0.32538,-0.009 -0.70065,0.0225 -0.55825,-0.2446 z"
     id="path2427-9"
     style="fill:#000000;fill-rule:evenodd;stroke:none" />
  <path
     d="m 302.71094,187.28446 c 0.0589,-0.11995 -0.0167,-0.20059 -0.1129,-0.17622 -0.0962,0.0244 -0.4291,-0.004 -0.51632,-0.0583 -0.0872,-0.0541 -0.0846,-0.002 -0.12281,0.0127 -0.0382,0.0149 -1.22091,-0.11351 -1.2932,-0.12934 -0.0723,-0.0158 -0.31331,0.10037 -0.34713,-0.0539 -0.0338,-0.15424 -0.2432,-0.1826 -0.25705,-0.0714 -0.0138,0.11117 -0.0125,0.1371 0.0345,0.1672 0.047,0.0301 0.0319,0.11535 -0.005,0.15621 -0.0369,0.0409 0.0189,0.11601 0.0885,0.08 0.0697,-0.036 0.0956,-0.0373 0.14259,-0.007 0.047,0.0301 0.11314,0.0528 0.24827,0.0264 0.13512,-0.0264 0.43106,0.0431 0.52927,0.0576 0.0982,0.0145 0.29946,0.0108 0.39504,-0.0265 0.0956,-0.0373 0.79116,0.0963 0.87025,0.11831 0.0791,0.022 0.35329,0.0471 0.34605,-0.0955 z"
     id="path2429-6"
     style="fill:#000000;fill-rule:evenodd;stroke:none" />
  <path
     d="m 300.20915,187.02799 c -0.006,-0.12317 -0.12916,-0.24037 -0.24451,-0.20853 -0.0483,-0.056 -0.11249,-0.0398 -0.0962,0.0244 0.0163,0.0642 -0.0949,0.0503 -0.0495,0.17796 0.0455,0.12765 0.0149,0.0382 0.0455,0.12765 0.0305,0.0894 0.0795,0.15842 0.15401,0.0897 0.0745,-0.0688 0.19829,-0.0621 0.19073,-0.21112 z"
     id="path2433-7"
     style="fill:#000000;fill-rule:evenodd;stroke:none" />
  <path
     d="m 299.89893,186.93326 c -0.0323,-0.16536 -0.14696,-0.20698 -0.33614,-0.0934 -0.0866,-0.0411 -0.13932,0.0537 -0.23005,0.0767 -0.0962,0.0244 -0.7147,-0.1262 -1.0778,-0.75109 0.10845,0.72879 0.80774,1.06371 1.09556,1.10109 0.28781,0.0374 0.5078,0.21831 0.57873,-0.12034 0.008,-0.0359 -0.0215,-0.16786 -0.0303,-0.2129 z"
     id="path2435-0"
     style="fill:#000000;fill-rule:evenodd;stroke:none" />
  <path
     d="m 327.59375,192.53125 c -0.82447,0.56973 -2.22979,1.75149 -3.0625,3.5625 -0.1797,0.11627 -0.19843,0.15591 -0.15625,0.21875 0.0422,0.0628 0.0708,0.12735 0.0625,0.21875 -0.008,0.0914 0.15728,0.12196 0.25,0.15625 -0.0303,0.17049 0.12563,0.26653 0.25,0.15625 0.88607,-1.74746 0.86644,-1.97382 1.875,-2.84375 0.55471,-0.47846 0.85762,-0.74428 1.09375,-0.90625 -0.10492,-0.18822 -0.2065,-0.38034 -0.3125,-0.5625 z"
     id="path2437-9"
     style="fill:#000000;fill-rule:evenodd;stroke:none" />
  <path
     d="m 321.6882,190.1556 c -0.16124,1.14069 -1.39143,2.80164 -2.12186,3.00582 0.92421,-0.99562 1.58654,-2.02993 2.12186,-3.00582 z"
     id="path2446-3"
     style="fill:#000000;fill-rule:evenodd;stroke:none" />
  <path
     d="m 322.95801,191.10489 c -0.65443,1.18987 -1.82397,2.15391 -2.82277,2.19159 0.96191,-0.49068 1.60169,-0.81454 2.82277,-2.19159 z"
     id="path2448-9"
     style="fill:#000000;fill-rule:evenodd;stroke:none" />
  <path
     d="m 321.22595,190.0101 c -0.61126,1.77572 -1.35194,2.56433 -3.28738,3.33467 0.99053,-0.71306 2.24088,-1.16318 3.28738,-3.33467 z"
     id="path2450-6"
     style="fill:#000000;fill-rule:evenodd;stroke:none" />
  <path
     d="m 320.99177,189.74906 c -0.65274,1.73563 -2.05329,3.12159 -4.16466,3.18789 1.24712,-0.23039 3.06658,-1.04435 4.16466,-3.18789 z"
     id="path2452-72"
     style="fill:#000000;fill-rule:evenodd;stroke:none" />
  <path
     d="m 323.58897,191.50176 c -0.5564,1.4138 -1.19671,2.12254 -2.35936,2.20661 0.95015,-0.28214 1.65324,-1.01622 2.35936,-2.20661 z"
     id="path2454-91"
     style="fill:#000000;fill-rule:evenodd;stroke:none" />
  <path
     d="m 324.386,192.09814 c -0.88118,1.33134 -1.95785,2.13974 -3.29369,2.19452 1.20405,-0.34701 2.25898,-1.08045 3.29369,-2.19452 z"
     id="path2456-5"
     style="fill:#000000;fill-rule:evenodd;stroke:none" />
  <path
     d="m 324.0423,192.7524 c -0.43777,1.06053 -1.55356,1.91128 -2.37351,1.8879 0.80417,-0.28772 1.70757,-0.96104 2.37351,-1.8879 z"
     id="path2458-60"
     style="fill:#000000;fill-rule:evenodd;stroke:none" />
  <path
     d="m 322.09019,194.91509 c 0.91971,-0.0597 1.99627,-0.59604 2.99572,-2.08568 -0.86714,0.87576 -1.78747,1.67349 -2.99572,2.08568 z"
     id="path2460-94"
     style="fill:#000000;fill-rule:evenodd;stroke:none" />
  <path
     d="m 325.37241,192.84087 c -1.08727,1.36779 -1.52278,1.8215 -3.09905,2.44457 0.87727,0.0205 2.27327,-0.59665 3.09905,-2.44457 z"
     id="path2462-9"
     style="fill:#000000;fill-rule:evenodd;stroke:none" />
  <path
     d="m 328.37482,207.86315 c 0.0234,-0.23976 0.43548,-0.12606 0.46666,-0.0237 0.0312,0.10238 0.0923,0.28123 0.18364,0.28959 0.0914,0.008 0.44337,0.0295 0.61386,0.0598 0.1705,0.0303 0.75902,0.20047 1.01828,0.18732 0.25926,-0.0132 0.30492,0.37441 0.44422,0.30237 0.1393,-0.072 0.69446,0.36765 1.00096,0.26112 0.30651,-0.10652 0.34474,-0.12145 0.40031,0.0772 0.0556,0.19862 -0.30435,0.40533 -0.36719,0.4475 -0.0628,0.0422 -0.23709,0.19398 -0.34892,0.16716 -0.11183,-0.0268 -0.0885,-0.08 -0.18674,-0.0945 -0.0982,-0.0145 -0.1417,-0.10328 -0.13202,-0.16876 0.01,-0.0655 -0.0782,-0.13249 -0.30121,-0.17316 -0.223,-0.0407 -0.29922,-0.13428 -0.50245,-0.16945 -0.20323,-0.0352 -0.35698,0.0391 -0.57096,-0.08 -0.21399,-0.11911 -0.2331,-0.11164 -0.30275,-0.0756 -0.0697,0.036 -0.1951,-0.003 -0.25025,-0.0653 -0.0551,-0.0622 -0.17927,-0.0754 -0.28912,-0.0633 -0.10986,0.0121 -0.19839,-0.0679 -0.33638,0.0301 -0.13799,0.098 -0.632,0.0339 -0.53994,-0.90834 z"
     id="path2466-8"
     style="fill:#000000;fill-rule:evenodd;stroke:none" />
  <path
     d="m 322.84848,195.83992 c 1.05025,-0.3106 2.50262,-1.02756 3.21624,-2.90172 -0.62157,1.15268 -1.16476,1.67649 -3.21624,2.90172 z"
     id="path2468-3"
     style="fill:#000000;fill-rule:evenodd;stroke:none" />
  <path
     d="m 315.10158,188.38876 c -0.0118,-0.23188 -0.28522,-0.1877 -0.35297,-0.074 -0.0677,0.11371 -0.24642,-0.15254 -0.52884,0.082 -0.25928,0.21529 -0.0642,0.27231 -0.16628,0.43051 -0.10458,0.16204 0.14413,0.39372 0.25413,0.38814 0.10999,-0.006 0.15192,0.0616 0.2615,0.0137 0.0136,0.20639 0.21199,0.29112 0.34292,0.29928 0.14395,0.15057 0.40425,0.0551 0.003,-0.197 0.065,0.001 0.29036,-0.0914 0.36809,-0.18672 0.0242,-0.0297 0.43144,-0.14576 0.45775,-0.22548 0.0184,-0.0557 0.0276,-0.13587 -0.0555,-0.11002 -0.0234,0.007 -0.11094,0.0283 -0.13639,-0.0322 -0.0353,-0.0838 -0.11436,-0.0815 -0.16614,-0.15039 -0.0465,-0.0618 -0.28579,0.0833 -0.33675,0.11427 -0.0241,-0.0217 -0.0669,-0.0517 -0.0761,-0.0513 0.049,-0.0765 0.1355,-0.22743 0.13178,-0.30076 z"
     id="path2470-5"
     style="fill:#000000;fill-rule:evenodd;stroke:none" />
  <path
     d="m 314.26088,190.66887 c 0.21176,0.0971 0.32821,0.32125 0.34028,0.43111 0.0121,0.10985 0.1463,0.19402 0.20276,0.28213 0.0564,0.0881 0.29899,0.25775 0.16654,-0.0474 -0.13245,-0.30519 -0.12103,-0.2083 -0.0975,-0.38494 0.0235,-0.17665 -0.2067,-0.35991 -0.18603,-0.46493 0.0207,-0.10502 -0.11202,-0.28673 -0.0255,-0.24564 0.0866,0.0411 0.127,-0.0584 0.13799,-0.098 0.011,-0.0395 -0.0442,-0.10173 -0.10281,-0.10525 -0.0587,-0.004 -0.0341,-0.0308 0.0103,-0.0525 0.0444,-0.0217 0.0813,-0.0626 0.0404,-0.0995 -0.0409,-0.0369 -0.074,-0.1782 0.0554,-0.0613 0.12939,0.1169 0.19994,-0.0296 0.15776,-0.0925 -0.0422,-0.0628 -0.29768,-0.23182 -0.46267,-0.28194 -0.165,-0.0501 -0.14786,-0.0965 -0.26715,-0.1424 -0.1193,-0.0459 -0.13137,-0.15579 -0.24936,-0.17579 -0.11798,-0.02 -0.19401,0.1463 -0.35835,0.10915 -0.16434,-0.0371 -0.2052,-0.0741 -0.24982,0.0712 -0.17556,0.12587 -0.24192,0.22671 -0.12878,0.27945 -0.0153,0.31049 0.44984,0.8193 1.01647,1.07911 z"
     id="path2472-6"
     style="fill:#000000;fill-rule:evenodd;stroke:none" />
  <path
     d="m 332.65625,208.9375 c -0.0186,0.0231 -0.0116,0.0684 0.0312,0.125 0,0 -8.5e-4,0.0358 -0.0937,0.125 -0.0929,0.0892 -0.0577,0.1845 0.0937,0.1875 0.14785,0.003 0.18539,0.0967 0.375,0.0937 0.18448,-0.003 0.65166,0.30635 0.78125,0.40625 0.1298,0.10007 0.2172,0.0805 0.34375,0.1875 0.1285,0.1087 0.1649,0.10845 0.25,0.0937 0.0427,0.0551 0.11856,0.091 0.28125,0.0312 -0.0443,-0.10076 -0.0815,-0.21299 -0.125,-0.3125 -0.28188,-0.10404 -0.63723,-0.35789 -0.8125,-0.4375 -0.19442,-0.0883 -0.51281,-0.22845 -0.6875,-0.28125 -0.17665,-0.0534 -0.29805,-0.18905 -0.34375,-0.21875 -0.0227,-0.0149 -0.0751,-0.0231 -0.0937,0 z"
     id="path2467"
     style="fill:#000000;fill-rule:evenodd;stroke:none" />
  <path
     d="m 332.32579,209.59904 c -0.16589,0.0604 -0.14911,0.14936 -0.0392,0.15859 0.10912,0.009 0.18109,0.0592 0.354,0.0915 0.17072,0.0319 0.23614,0.10637 0.41083,0.11001 0.1738,0.004 0.46342,0.16265 0.53909,0.23072 0.0759,0.0683 0.23876,0.0735 0.35248,0.16287 0.11173,0.0878 0.2982,0.32638 0.3374,0.33766 0.0395,0.0114 0.14927,-0.14773 0.21546,-0.11144 0.069,0.0378 0.12241,-0.0249 0.0542,-0.0863 -0.0678,-0.061 -8.4e-4,-0.11088 0.0627,-0.15412 0.0644,-0.0438 -0.0112,-0.0522 -0.0518,-0.0543 -0.0415,-0.002 -0.0713,-0.0785 -0.17214,-0.0676 -0.10653,0.0115 -0.50222,-0.25189 -0.62229,-0.31987 -0.11977,-0.0678 -0.52671,-0.14331 -0.62811,-0.19906 -0.10221,-0.0562 -0.50435,-0.15581 -0.6046,-0.28896 -0.10269,-0.13639 -0.15376,-0.0203 -0.20805,0.19036 z"
     id="path2469-7"
     style="fill:#000000;fill-rule:evenodd;stroke:none" />
  <path
     d="m 334.38856,210.72422 c -0.0247,0.0396 0.11575,0.0886 0.16342,0.13165 0.0477,0.0431 0.34953,0.2292 0.89463,0.21454 -0.23047,-0.0598 -0.6837,-0.28372 -0.77905,-0.36986 -0.0389,-0.0352 -0.12643,-0.077 -0.16279,-0.051 -0.0325,0.0233 -0.0954,0.0412 -0.11621,0.0746 z"
     id="path2471"
     style="fill:#000000;fill-rule:evenodd;stroke:none" />
  <path
     d="m 334.71875,210.375 c -0.0333,-0.0213 -0.0962,0.0945 -0.0625,0.125 0.0337,0.0305 0.0457,0.0974 0.0625,0.15625 0.004,0.0158 0.17168,0.0796 0.28125,0.125 -0.0517,-0.11574 -0.10565,-0.22949 -0.15625,-0.34375 -0.0189,-0.0114 -0.12188,-0.0605 -0.125,-0.0625 z"
     id="path2473-7"
     style="fill:#000000;fill-rule:evenodd;stroke:none" />
  <path
     d="m 325.93877,199.40341 c -0.15003,-0.0453 -0.33347,-0.14165 -0.27774,-0.26094 0.0552,-0.11817 0.0688,-0.17244 0.0781,-0.26202 0.009,-0.0894 0.0672,-0.42156 0.0645,-0.5018 -0.003,-0.0804 0.14868,-0.16656 0.20357,-0.19575 0.0548,-0.0291 0.23949,-0.14656 0.31207,-0.22426 0.0728,-0.0779 0.41535,-0.0755 0.76673,-0.0468 0.35176,0.0287 0.74318,0.10371 0.76615,0.0235 0.023,-0.0802 -0.002,-0.0872 0.21017,-0.0759 0.21529,0.0115 0.60885,-0.0558 0.8085,-0.0268 0.2033,0.0296 0.47174,0.24137 0.55065,0.34765 0.0789,0.10627 -0.0586,0.52074 -0.27141,0.51835 -0.20985,-0.002 -0.82302,-0.26235 -0.96597,-0.36427 -0.1417,-0.10104 -0.242,-0.12655 -0.33115,-0.10659 -0.089,0.0199 -0.11342,-0.0576 -0.29238,-0.0538 -0.17852,0.004 -0.48927,-0.0308 -0.58944,0.047 -0.0994,0.0773 -0.56526,-0.0834 -0.59838,0.0265 -0.0328,0.1088 0.0365,0.64642 -0.0482,0.79139 -0.0863,0.14777 -0.33586,0.37959 -0.3858,0.36451 z"
     id="path2475-3"
     style="fill:#000000;fill-rule:evenodd;stroke:none" />
  <path
     d="m 322.52158,197.15318 c -0.0177,0.0466 -0.0779,0.1007 -0.10014,0.17215 -0.0135,0.0432 -0.0252,0.093 -0.0148,0.14038 0.005,0.0246 0.0245,0.0455 0.032,0.07 0.0477,0.15711 0.20225,0.30465 0.29446,0.38245 0.0926,0.0781 0.15551,0.23681 0.0737,0.45168 -0.0831,0.21826 0.0188,0.29732 0.094,0.2846 0.2533,-0.005 0.30453,0.14358 0.41482,0.15299 0.11041,0.009 0.19629,0.0843 0.24779,0.12908 0.0516,0.0449 0.22356,0.0728 0.33492,0.0836 0.11166,0.0108 0.56049,-0.27518 0.65409,-0.31455 0.0937,-0.0394 0.28167,0.04 0.35259,0.0508 0.0712,0.0108 0.20081,-0.031 0.50892,-0.19357 0.0835,-0.0441 0.29822,-0.34242 0.11922,-0.53736 -0.17581,-0.19147 -0.60779,-0.17382 -0.68818,-0.26192 -0.0798,-0.0875 -0.1837,-0.058 -0.18223,-0.14256 0.001,-0.0843 -0.088,-0.1633 -0.01,-0.28231 0.0779,-0.11883 0.0159,-0.24309 -0.15589,-0.35709 -0.16846,-0.11181 -0.26025,-0.35851 -0.27814,-0.45781 -0.0177,-0.0983 -0.42702,-0.0993 -0.56028,-0.0732 -0.13345,0.0262 -0.2518,0.0639 -0.29985,0.14676 -0.0727,0.12524 -0.13799,0.24878 -0.45791,0.36789 -0.14066,0.0524 -0.33999,0.0852 -0.37912,0.18805 z"
     id="path2442-1"
     style="fill:#000000;fill-rule:evenodd;stroke:none" />
  <path
     d="m 321.49304,196.25403 c -0.0723,0.0463 -0.13749,-0.0769 -0.22236,-0.0848 -0.0844,-0.008 -0.15055,-0.17355 -0.12841,-0.29398 0.0218,-0.1188 -0.0327,-0.12544 -0.11144,-0.13882 -0.0777,-0.0132 -0.0498,-0.0721 -0.12611,-0.16477 -0.0741,-0.0901 -0.0649,-0.11472 -0.0432,-0.15984 0.0217,-0.045 -0.0201,-0.0939 -0.11015,-0.16157 -0.0902,-0.0678 -0.19391,-0.0524 -0.12212,-0.16605 0.0725,-0.11484 0.30628,-0.43413 0.60458,-0.53197 0.0733,-0.004 0.15195,0.11867 0.17225,0.17133 0.0202,0.0523 0.15954,0.14152 0.32741,0.11221 0.16683,-0.0291 0.24304,0.28768 0.24141,0.41889 -0.002,0.13006 0.37688,-0.0172 0.40058,0.13323 0.0237,0.15035 -0.30756,0.49773 -0.88246,0.86617 z"
     id="path2445-7"
     style="fill:#000000;fill-rule:evenodd;stroke:none" />
  <path
     d="m 320.60552,194.95369 c -0.10278,0.11174 -0.21943,0.0984 -0.23324,-4.5e-4 -0.0139,-0.0993 -0.0156,-0.16235 -0.099,-0.20077 -0.0841,-0.0387 0.11433,-0.0786 -0.0774,-0.0422 -0.19297,0.0366 -0.26919,-0.12985 -0.16936,-0.26433 0.0595,-0.0802 0.10162,-0.0249 0.12406,-0.0611 0.0387,-0.0624 -0.0171,-0.33703 0.0983,-0.36888 0.11535,-0.0318 0.0152,-0.011 0.0959,-0.0865 0.0362,-0.034 0.0652,-0.13253 0.0806,-0.19681 0.01,-0.0406 0.0896,-0.10545 0.14634,-0.0681 0.10084,0.0664 0.0563,0.24708 0.23038,0.13098 0.17248,-0.11503 0.22015,-0.13518 0.26964,-0.078 0.0486,0.0562 -0.0572,0.0967 0.027,0.16048 0.0852,0.0645 0.0261,0.0979 -2.3e-4,0.13586 -0.078,0.11237 6.2e-4,0.33659 -0.0794,0.42512 -0.08,0.0885 -0.15605,0.2347 -0.41363,0.51478 z"
     id="path2447-5"
     style="fill:#000000;fill-rule:evenodd;stroke:none" />
  <path
     d="m 319.82133,194.4926 c -0.0708,-0.005 -0.12839,-0.0665 -0.21232,-0.0558 -0.0839,0.0108 -0.14711,-0.0585 -0.10347,-0.11821 0.0453,-0.062 0.21187,-0.13512 0.12098,-0.24463 -0.0905,-0.10906 -0.15946,-0.20465 -0.15528,-0.25035 0.004,-0.0457 0.0366,-0.19382 0.0713,-0.20052 0.0344,-0.007 0.13239,0.0869 0.16216,0.01 0.0313,-0.0812 0.11822,-0.10347 0.17204,-0.0672 0.0538,0.0363 0.2181,-0.11563 0.29715,-0.0655 0.15786,0.10008 0.1197,0.21905 -0.0504,0.46209 -0.11767,0.16814 -0.11853,0.54464 -0.30213,0.53051 z"
     id="path2449-1"
     style="fill:#000000;fill-rule:evenodd;stroke:none" />
  <path
     d="m 319.44361,194.06346 c -0.009,0.13593 -0.0557,0.15238 -0.0788,0.19723 -0.0244,0.0476 -0.16951,0.1005 -0.18721,0.0233 -0.0177,-0.0772 -0.0674,-0.0609 -0.10518,0.01 -0.0378,0.0708 -0.0962,0.0968 -0.14822,0.0673 -0.052,-0.0295 -0.0598,-0.089 -0.0292,-0.12258 0.0308,-0.0338 0.0273,-0.15302 -0.0745,-0.14786 -0.0972,0.005 -0.0734,-0.0652 -0.12374,-0.0581 -0.0497,0.007 0.0382,-0.0617 0.0702,-0.0725 0.0321,-0.0108 0.0216,-0.0834 -0.0661,-0.0334 -0.0894,0.051 -0.12828,-0.0208 -0.0773,-0.0604 0.0502,-0.039 0.06,-0.0534 0.0112,-0.0327 -0.05,0.0211 -0.1086,-0.0266 -0.0255,-0.10898 0.0831,-0.0823 0.12666,-0.075 0.15506,-0.10895 0.0277,-0.0332 0.0307,-0.0199 0.0889,-0.0183 -0.0663,-0.0518 -0.0619,-0.0773 0.0259,-0.12537 0.0972,-0.0532 0.19856,-0.16171 0.25854,-0.24746 0.06,-0.0857 0.14045,-0.0393 0.21581,-0.0936 0.0753,-0.0544 0.22387,-0.0251 0.20304,0.0173 -0.0208,0.0424 -0.0163,0.0855 0.0244,0.11823 0.0391,0.0314 -0.0339,0.18266 -0.0773,0.19534 -0.0447,0.013 -0.0756,0.052 -0.0628,0.11167 0.0123,0.0576 -0.0637,0.17871 -0.0898,0.2076 -0.0261,0.0289 0.0985,0.19322 0.0927,0.28242 z"
     id="path2451-3"
     style="fill:#000000;fill-rule:evenodd;stroke:none" />
  <path
     d="m 318.73941,193.40527 c -0.0181,-0.10092 -0.15284,-0.0303 -0.17464,-0.0797 -0.0225,-0.0511 -0.0852,-0.0465 -0.14128,0.0409 -0.0862,-0.0692 -0.21906,0.0295 -0.28044,0.0877 -0.0614,0.0583 -0.22357,0.12162 -0.35655,0.0365 -0.13297,-0.0851 -0.15194,-0.006 -0.15442,0.0354 -0.002,0.0415 -0.10395,0.12474 -0.0973,0.16575 0.007,0.041 0.12909,0.0991 0.16466,0.16625 0.0356,0.0671 0.034,0.12693 0.0822,0.17044 0.0482,0.0435 0.0684,0.0792 0.0427,0.1173 -0.0256,0.0381 0.0209,0.14138 0.0769,0.15692 0.0559,0.0155 0.0917,-0.005 0.11341,-0.0287 0.0482,0.0435 0.0993,0.0547 0.13408,0.0162 0.11946,0.0904 0.27037,0.0977 0.3424,0.047 0.0661,-0.0466 0.10707,-0.0758 0.12488,-0.0257 0.0139,0.0392 0.13468,-0.16584 0.0181,-0.23285 -0.10316,-0.0593 -0.25492,-0.16232 -0.19805,-0.27192 0.0839,-0.16161 0.33864,-0.20463 0.30336,-0.40144 z"
     id="path2453-4"
     style="fill:#000000;fill-rule:evenodd;stroke:none" />
  <path
     d="m 315.84669,192.11403 c -0.008,0.0102 -0.0144,0.0219 -0.0175,0.0357 -0.0169,0.0736 -0.0976,0.21603 -0.26905,0.37624 -0.1731,0.16179 -0.0121,0.1965 -0.0484,0.22774 -0.0364,0.0313 -0.0866,0.13562 0.14311,0.11456 0.22712,-0.0208 0.41207,0.22881 0.4425,0.27923 0.0285,0.0473 0.0665,0.10457 0.12137,0.11397 0.006,9.8e-4 0.0102,0.003 0.0145,0.005 0.0875,-0.0369 0.0951,-0.1809 0.11076,-0.22334 0.0152,-0.041 0.12864,-0.10383 0.14372,-0.2106 -0.009,-0.0567 -0.002,-0.0808 -0.0815,-0.12269 -0.0982,-0.052 -0.17433,-0.12958 -0.20377,-0.18594 -0.0294,-0.0563 -0.0683,-0.0939 -0.14187,-0.12816 -0.0737,-0.0343 -0.0559,-0.0707 -0.0413,-0.12844 0.0145,-0.0575 -0.0572,-0.0875 -0.0619,-0.15253 -0.004,-0.053 -0.0751,-0.0449 -0.11074,-6.7e-4 z"
     id="path2455-33"
     style="fill:#000000;fill-rule:evenodd;stroke:none" />
  <path
     d="m 308.96748,196.08852 c -0.14031,-0.0986 -0.12162,-0.22357 -0.0921,-0.27561 0.0295,-0.052 0.0572,-0.14075 -0.0208,-0.22869 -0.078,-0.0879 0.10926,-0.38233 0.25187,-0.28847 0.14261,0.0939 0.26721,0.014 0.40733,0.14934 0.14012,0.13533 -0.38168,0.75911 -0.54631,0.64343 z"
     id="path2457-4"
     style="fill:#000000;fill-rule:evenodd;stroke:none" />
  <path
     d="m 313.41676,191.07892 c -0.0542,0.0587 -0.0723,0.13515 -0.0264,0.16789 0.0727,0.0519 0.0695,0.12182 0.0372,0.14105 -0.0323,0.0192 -0.12615,0.064 10e-4,0.14089 0.12689,0.0766 0.11122,0.21151 0.0404,0.25927 -0.0718,0.0484 -0.11804,0.18816 -0.14768,0.25595 -0.0285,0.0652 0.01,0.12631 0.0654,0.12358 0.0557,-0.003 0.14542,0.0175 0.18673,0.0667 0.0405,0.0483 0.10642,0.0691 0.15722,0.0533 0.0507,-0.0158 0.12869,0.0203 0.1791,0.0172 0.0499,-0.003 0.0826,-0.0978 0.11929,-0.0719 0.0369,0.026 0.0802,0.0275 0.13579,-0.0914 0.0364,-0.0779 0.0987,-0.0859 0.12068,-0.13891 0.0464,-0.11184 0.12078,-0.0608 0.20332,-0.11464 0.0713,-0.0465 0.13005,-0.0892 0.1893,-0.17072 5.8e-4,-0.005 0.002,-0.0103 0.004,-0.0173 0.0172,-0.0556 -0.0366,-0.0771 -0.0348,-0.0988 0.002,-0.0217 0.0916,-0.11995 -0.0356,-0.18794 -0.1313,-0.0702 -0.065,-0.17894 -0.12227,-0.24987 -0.0584,-0.0723 -0.18019,-0.12576 -0.2497,-0.13583 -0.0697,-0.0101 -0.0648,-0.0778 -0.12342,-0.12759 -0.0589,-0.0501 -0.20246,-0.003 -0.26455,0.0297 -0.0621,0.0323 -0.1635,0.0538 -0.30405,0.0767 -0.0529,0.009 -0.0987,0.0374 -0.13122,0.0726 z"
     id="path2474-9"
     style="fill:#000000;fill-rule:evenodd;stroke:none" />
  <path
     d="m 313.25192,191.64082 c -0.0827,-0.20199 -0.38143,0.0678 -0.33467,0.21469 0.0466,0.14631 -0.10265,0.1243 -0.16396,0.18322 -0.0609,0.0585 -0.0807,0.0772 -0.14396,0.0251 -0.0632,-0.0521 -0.12426,0.0573 -0.18202,0.0251 -0.0577,-0.0322 -0.0405,0.10496 -0.0311,0.14775 0.009,0.0428 -0.074,-0.003 -0.11669,-0.0617 -0.0426,-0.0585 -0.16298,0.0304 -0.0694,0.10986 0.0936,0.0794 0.11562,0.23677 -0.0132,0.23573 -0.12937,-0.001 -0.12652,0.0986 -0.22178,0.12764 -0.0959,0.0292 -0.10602,0.11577 -0.19091,0.15954 -0.0856,0.0441 -0.0385,0.15255 -0.0756,0.21331 -0.0374,0.0611 0.008,0.13252 -0.17176,0.30232 -0.0588,0.0555 -0.0501,0.21064 -0.0184,0.23126 0.0317,0.0206 0.13611,0.0856 0.21445,-0.0264 0.0777,-0.11104 0.11644,-0.14811 0.24097,-0.13996 0.12378,0.008 0.15397,0.0299 0.21922,0.0808 0.0652,0.0508 0.12065,0.0484 0.15756,0.0384 0.0369,-0.01 0.0855,-0.006 0.1704,9e-4 0.0846,0.007 0.14514,-0.12731 0.23542,-0.12566 0.0901,0.002 0.22126,-0.0347 0.15836,-0.0909 -0.0629,-0.0562 0.11814,-0.2289 0.22617,-0.13242 0.10805,0.0965 0.34584,-0.016 0.25537,-0.0848 -0.0904,-0.0687 -0.15219,-0.12363 -0.0384,-0.10701 0.11407,0.0167 0.16935,-0.13374 0.10968,-0.19617 -0.15295,-0.16002 -0.0133,-0.33809 -0.14114,-0.41841 -0.11944,-0.0751 -0.19122,-0.18933 -0.17657,-0.25212 0.0381,-0.16311 0.20247,-0.21455 0.10204,-0.45998 z"
     id="path2476-4"
     style="fill:#000000;fill-rule:evenodd;stroke:none" />
  <path
     d="m 311.52471,195.28977 c -0.0537,0.0612 -0.0841,0.14684 -0.0589,0.18211 0.0262,0.0369 0.0202,0.11321 -0.007,0.16244 -0.0272,0.0494 -0.0349,0.11565 10e-4,0.1712 0.0365,0.0563 0.004,0.0838 0.0836,0.14102 0.083,0.0596 0.17817,0.0906 0.15799,0.19845 -0.0208,0.11146 0.0314,0.21383 0.20321,0.27009 -0.0343,0.0932 -0.006,0.14459 0.01,0.19674 0.0156,0.0524 0.0285,0.18935 0.0815,0.21439 0.0531,0.0251 0.0616,-0.0593 0.0582,-0.12043 -0.003,-0.0608 -0.0704,-0.0946 0.0121,-0.12438 0.0822,-0.0297 0.0663,0.0451 0.0749,0.0943 0.009,0.0495 0.11519,-0.006 0.16828,-0.0946 0.0527,-0.0876 0.02,-0.20237 0.0764,-0.22916 0.0563,-0.0267 -0.0389,-0.0898 -0.022,-0.12941 0.0168,-0.0395 -0.0996,-0.12438 -0.0735,-0.21914 0.026,-0.0943 -0.002,-0.32783 -0.12503,-0.38718 -0.11995,-0.058 0.08,-0.34286 -0.10555,-0.42558 -0.20408,0.073 -0.33747,-0.008 -0.53524,0.0991 z"
     id="path2610-7"
     style="fill:#000000;fill-rule:evenodd;stroke:none" />
  <path
     d="m 320.16355,189.05029 c -0.56428,1.66799 -1.3271,2.76168 -3.39889,3.70742 1.12471,-0.66605 2.4016,-1.59042 3.39889,-3.70742 z"
     id="path2612-1"
     style="fill:#000000;fill-rule:evenodd;stroke:none" />
  <path
     d="m 312.54749,196.42709 0,0 c 0.16558,-0.0375 0.13702,0.0776 0.12421,0.15719 -0.0127,0.0787 0.17771,0.19151 0.17289,0.26009 -0.005,0.0687 0.27349,0.20822 0.33647,0.21457 0.0645,0.007 0.13844,0.14591 0.10214,0.2351 -0.0366,0.0899 -0.0911,0.10971 -0.21957,0.0274 -0.12324,-0.079 -0.17656,-0.0397 -0.21885,-0.13425 -0.0412,-0.092 -0.0933,-0.17821 -0.16614,-0.14182 -0.0724,0.0362 -0.0982,-0.0596 -0.20079,-0.0344 -0.10296,0.0252 -0.0553,-0.0723 -0.15741,-0.012 -0.10323,0.061 -0.20715,-0.15738 -0.0644,-0.19023 0.13901,-0.032 0.28064,-0.11765 0.2283,-0.23428 -0.0529,-0.11794 0.0533,-0.15626 0.0632,-0.14733 z"
     id="path2614-7"
     style="fill:#000000;fill-rule:evenodd;stroke:none" />
  <path
     d="m 313.42093,197.31271 c 0.0896,-0.11754 0.16356,-0.0522 0.22917,-0.0395 0.066,0.0128 0.20188,0.1324 0.32671,-0.0806 0.11792,-0.20118 0.21138,-0.15128 0.32381,-0.15914 0.11207,-0.008 0.19763,-0.0401 0.28874,-0.0795 0.091,-0.0393 0.15938,0.0476 0.0735,0.10825 -0.0859,0.0606 -0.21243,0.0844 -0.21155,0.17348 8.8e-4,0.0891 0.125,0.15293 0.19913,0.0366 0.0742,-0.11648 0.14507,0.01 0.0946,0.0763 -0.0504,0.0666 0.0101,0.12169 0.0625,0.14461 0.0525,0.023 0.1899,0.061 0.12288,0.1489 -0.067,0.0879 -0.13992,0.0463 -0.20586,0.1221 -0.0658,0.0756 -0.19097,0.13521 -0.22523,0.0154 -0.0341,-0.11927 -0.021,-0.0948 -0.0682,-0.052 -0.0471,0.0427 -0.0924,0.0261 -0.11195,-0.03 -0.0195,-0.056 -0.0776,-0.072 -0.15265,0.006 -0.075,0.078 -0.3066,0.0368 -0.37535,0.12072 -0.0688,0.084 -0.19902,0.0268 -0.16798,-0.0704 0.0311,-0.0973 0.0432,-0.11134 0.10342,-0.10678 0.059,0.004 0.0427,-0.06 -0.0327,-0.0718 -0.078,-0.0123 -0.0294,-0.0496 -0.17048,-0.0938 -0.13904,-0.0436 -0.14698,-0.1105 -0.10258,-0.16871 z"
     id="path2616-3"
     style="fill:#000000;fill-rule:evenodd;stroke:none" />
  <path
     d="m 316.07006,204.43301 c 0.16063,-0.18473 0.19028,-0.60047 0.21384,-0.70218 0.0301,-0.13018 0.0386,-0.33289 0.13316,-0.82474 0.0945,-0.49185 0.47355,-0.81436 0.48165,-1.01695 0.008,-0.20259 0.11339,-0.29963 0.12521,-0.42888 0.0118,-0.12926 0.13357,-0.26392 0.14633,-0.37485 0.0127,-0.11092 0.23543,-0.60985 0.23297,-0.83947 -0.002,-0.22962 0.0461,-0.90244 0.029,-1.0578 -0.0171,-0.15536 -0.12403,-0.44422 -0.18554,-0.56976 -0.0615,-0.12553 -0.14805,-0.20367 -0.28568,-0.38048 -0.13763,-0.17681 -0.44033,-0.1706 -0.51771,-0.0656 -0.0774,0.10501 -0.19686,0.10187 -0.30965,0.0524 -0.11278,-0.0494 -0.0971,-0.10531 -0.2882,-0.068 -0.19109,0.0373 -0.37673,0.35894 -0.43671,0.44469 -0.06,0.0857 -0.20489,-0.0452 -0.12473,-0.0952 0.0802,-0.05 0.0764,-0.12323 0.17209,-0.22918 0.0957,-0.10594 0.1243,-0.27229 0.10909,-0.39099 -0.0152,-0.11869 -0.18784,-0.0823 -0.28229,-0.13265 -0.0945,-0.0503 -0.16952,-0.0833 -0.26802,-0.0323 -0.0985,0.051 -0.0805,0.22451 0.0785,0.28077 0.15908,0.0563 0.0882,0.11455 0.0763,0.2438 -0.0118,0.12926 -0.0879,0.078 -0.10031,0.0143 -0.0124,-0.0637 -0.10775,-0.13236 -0.10403,-0.059 0.004,0.0733 -0.0883,0.0784 -0.17812,0.11974 -0.0898,0.0413 -0.16067,0.27445 -0.006,0.432 0.15503,0.15756 0.0947,0.22514 -0.18777,0.63462 -0.28249,0.4095 -0.39345,0.76435 -0.31581,1.02691 0.0777,0.26257 0.33471,0.44219 0.41919,0.65846 0.0845,0.21627 0.33875,0.66786 0.51783,0.78253 0.0869,0.0556 0.007,0.12828 -0.10436,0.11552 -0.11093,-0.0128 -0.11806,0.208 -0.0827,0.36243 0.0354,0.15443 0.11206,0.94125 0.11731,1.22587 0.005,0.28461 0.11425,0.26049 0.13318,0.45252 0.0189,0.19202 0.15734,0.38693 0.32791,0.48856 0.0202,0.0357 0.16502,0.1667 0.29554,0.0222 0.0682,-0.003 0.12309,-0.0375 0.16806,-0.0893 z m -0.25075,-0.16857 c -0.01,-0.009 -0.0826,-0.0483 -0.10856,-0.0815 -0.007,0.003 -0.0239,0.0491 -0.0463,0.0594 0.0246,0.0214 0.0758,0.0375 0.12237,0.0489 -0.0736,-8.7e-4 -0.14848,-0.0281 -0.16546,-0.0501 0.0176,-0.0147 0.0364,-0.0304 0.0483,-0.0677 -0.0552,-0.002 -0.12999,-0.0397 -0.16564,-0.0631 0.0211,-0.006 0.0476,-0.0315 0.0779,-0.0475 -0.0359,-0.003 -0.07,-0.0285 -0.0958,-0.0387 0.005,-0.0301 0.046,-0.0932 0.117,-0.14275 -0.0472,-0.0252 -0.12082,-0.0661 -0.14994,-0.0968 0.0193,-0.0263 0.0597,-0.0376 0.10165,-0.0259 -0.01,-0.009 -0.0708,-0.0403 -0.1014,-0.0548 0.015,-0.0214 0.0393,-0.0534 0.11008,-0.10759 -0.0453,-0.0322 -0.1475,-0.0346 -0.17134,-0.0517 0.0297,-0.004 0.0748,-0.0663 0.10768,-0.0978 -0.019,-0.0128 -0.0769,-0.0651 -0.1075,-0.0796 0.0135,-0.005 0.0473,-0.004 0.10305,-0.0367 -0.0957,-0.0296 -0.11903,-0.10019 -0.16385,-0.12319 0.0181,-0.006 0.1044,-0.0812 0.13462,-0.11947 0,0 -0.0238,-0.013 -0.0525,-0.0346 0.027,-0.0106 0.0663,-0.0489 0.0849,-0.0889 -0.0291,-0.0307 -0.0764,-0.0605 -0.12007,-0.0606 0.034,-0.009 0.0708,-0.0588 0.1211,-0.1096 -0.007,-0.0111 -0.0375,-0.0553 -0.0816,-0.0645 0.0201,-0.0125 0.0334,-0.0176 0.0682,-0.0562 -0.0217,-0.0196 -0.11677,-0.0793 -0.14761,-0.0984 -0.0308,-0.0191 0.016,-0.0766 0.004,-0.13119 -0.0125,-0.0546 0.14562,-0.14081 0.22252,-0.22594 0.12271,0.049 0.0915,0.20024 0.0607,0.23429 -0.0308,0.0341 -0.0631,0.0361 -0.004,0.11429 0.0592,0.0782 0.0197,0.12895 -0.0111,0.163 -0.0308,0.0341 -0.0752,0.0621 -0.0634,0.10377 0.0119,0.0416 -6.1e-4,0.11051 -0.009,0.14017 -0.008,0.0297 0.0487,0.0621 0.0619,0.0679 -0.0107,0.046 -0.10838,0.10644 -0.14562,0.14082 0.0269,0.0181 0.0633,0.0325 0.11447,0.0169 -0.009,0.0102 -0.0665,0.0391 -0.10747,0.0639 0.0245,0.0345 0.10187,0.0729 0.13834,0.0873 -0.046,-0.0107 -0.0899,0.0156 -0.13155,0.0275 0.007,0.0126 0.065,0.0417 0.0924,0.0403 -0.0222,0.0149 -0.0611,0.0676 -0.0906,0.11966 0.0367,-0.002 0.1246,0.007 0.15396,0.0425 -0.027,0.0106 -0.0703,0.0681 -0.11857,0.11189 0.12427,0.0948 0.13541,0.035 0.19337,-1.4e-4 -0.0503,0.0944 -0.11165,0.0951 -0.18498,0.0988 0.0598,0.0361 0.13515,0.0918 0.19978,0.0977 -0.10129,-0.004 -0.13463,0.0711 -0.1873,0.11973 0.0419,0.0117 0.0747,0.0395 0.14277,0.0222 -0.0126,0.0236 -0.0649,0.0444 -0.10936,0.0742 0.0333,0.0213 0.0945,0.0472 0.15381,0.0396 0.0154,0.0314 0.0725,0.099 0.1057,0.12033 z m 0.64074,-3.04582 c -0.0201,0.0305 -0.0723,-0.0107 -0.0668,-0.0483 0.004,-0.0246 -0.0206,-0.081 -0.0578,-0.0531 -0.0754,0.0565 -0.16184,0.0128 -0.12595,-0.0337 0.0674,-0.0874 0.0496,-0.20045 -0.0135,-0.26618 -0.0402,-0.0419 0.0246,-0.15257 0.0892,-0.14665 0.0646,0.006 0.0494,-0.11274 0.10529,-0.0972 0.0559,0.0155 0.17678,-0.13753 0.0805,-0.22453 -0.0963,-0.087 -0.0904,-0.1515 -0.0525,-0.30965 0.0379,-0.15815 0.0897,-0.0413 0.10217,0.0224 0.0124,0.0637 -0.10566,0.27175 -0.0149,0.24877 0.0907,-0.023 0.20437,0.0447 0.16956,0.0833 -0.0348,0.0385 -0.11492,0.0885 -0.1112,0.16179 0.004,0.0733 0.11177,0.031 0.17918,0.0919 0.0674,0.0609 -0.15094,0.28319 -0.21184,0.35061 -0.0609,0.0674 -0.0634,0.11365 -0.064,0.18696 -1.3e-4,0.0156 -0.003,0.0267 -0.007,0.0337 z"
     id="path2618-7"
     style="fill:#000000;fill-rule:evenodd;stroke:none" />
  <path
     d="m 324.17736,199.04976 c -0.0596,0.083 -0.0444,0.11503 -0.007,0.15702 0.0357,0.0405 0.16485,0.0947 0.16241,0.15991 -0.002,0.0635 -0.062,0.21672 0.0164,0.21514 0.0782,-0.002 0.10533,-0.004 0.14863,-0.0584 0.0432,-0.0539 0.0609,-0.0394 0.0873,-0.031 0.0267,0.009 0.061,-0.0236 0.0334,-0.064 -0.0273,-0.0398 0.0264,-0.0671 0.042,-0.043 0.016,0.0246 0.0563,0.0693 0.11475,0.0585 0.0594,-0.0109 0.0684,-0.0519 0.0846,-0.0874 0.016,-0.0351 0.0418,-0.0132 0.12701,-0.009 0.0861,0.005 0.15247,-0.0164 0.19372,-0.0506 0.0412,-0.0341 0.0971,-0.0906 0.15442,-0.0845 0.0578,0.006 0.10128,-0.10121 -0.007,-0.0893 -0.10713,0.0117 -0.10463,0.11633 -0.18009,0.0366 -0.0748,-0.079 -0.12258,-0.006 -0.1947,-0.002 -0.0724,0.004 -0.0491,-0.0798 -0.15623,-0.0938 -0.1092,-0.0143 -0.16377,-0.0382 -0.14049,-0.0994 0.0236,-0.0621 -0.0466,-0.13479 -0.12795,-0.0696 -0.0812,0.0651 -0.27919,0.0549 -0.35066,0.15446 z"
     id="path2622-7"
     style="fill:#000000;fill-rule:evenodd;stroke:none" />
  <path
     d="m 324.60304,199.99395 c -0.0685,-0.0731 -0.0844,-0.12569 -0.0659,-0.14612 0.0185,-0.0204 0.0431,-0.0477 0.008,-0.0914 -0.0347,-0.0437 0.0165,-0.0593 0.0431,-0.0477 0.0266,0.0116 0.0703,-0.0231 0.0875,-0.0694 0.0171,-0.0464 0.19951,-0.16608 0.34319,-0.0239 0.14367,0.14216 0.30341,0.0575 0.39504,-0.0576 0.0916,-0.11511 0.20436,-0.19881 0.2261,-0.15443 0.0217,0.0444 0.0558,0.0752 0.10765,0.0725 0.0519,-0.003 0.0736,0.0418 0.0367,0.0826 -0.0369,0.0409 -0.005,0.15622 -0.16546,0.19684 -0.16039,0.0406 -0.42012,0.30074 -0.44891,0.37368 -0.0288,0.0729 -0.0978,0.12192 -0.087,0.20585 0.0108,0.0839 -0.0126,0.36241 -0.0155,0.43404 -0.003,0.0716 0.0283,0.17401 0.0753,0.20412 0.047,0.0301 0.0378,0.23201 0.0485,0.31595 0.0107,0.0839 0.0263,0.13512 0.0624,0.20477 0.036,0.0696 0.0621,0.31766 0.0441,0.47453 -0.018,0.15687 0.0582,0.25047 0.0424,0.32276 -0.0158,0.0723 -0.23488,0.10938 -0.26715,-0.1424 -0.0323,-0.25179 0.0578,-0.25877 0.0396,-0.36181 -0.0182,-0.10305 -0.0147,-0.16171 0.003,-0.1951 0.0178,-0.0334 -0.0176,-0.0901 -0.0668,-0.0356 -0.0492,0.0545 -0.1718,-0.0563 -0.18805,-0.12043 -0.0163,-0.0642 -0.13203,-0.16875 -0.0922,-0.28124 0.0398,-0.11248 -0.0624,-0.20477 -0.0657,-0.26959 -0.003,-0.0648 -0.0726,-0.37758 -0.0484,-0.54126 0.0242,-0.16368 0.0309,-0.26145 -0.0518,-0.34968 z"
     id="path2624-2"
     style="fill:#000000;fill-rule:evenodd;stroke:none" />
  <path
     d="m 325.36413,202.47064 c 0.0947,-0.14784 0.15925,-0.031 0.14278,0.007 -0.0165,0.0376 -0.0517,0.0669 0.008,0.15582 0.0596,0.0889 -0.0336,0.15334 0.0245,0.30202 0.0581,0.14869 0.26023,0.89066 0.27563,1.17609 0.01,0.18545 0.0234,0.34697 0.11534,0.4388 0.092,0.0918 0.0164,0.2335 -0.0858,0.21112 -0.15662,0.17336 -0.37083,-0.0639 -0.32344,-0.12603 0.0474,-0.0621 0.0137,-0.0926 -0.0113,-0.13268 -0.025,-0.0401 -0.0124,-0.31077 -0.017,-0.40243 -0.005,-0.0917 0.0235,-0.1712 -0.0483,-0.22729 -0.0718,-0.0561 -0.0519,-0.11684 0.008,-0.11528 0.0598,0.002 0.12258,-0.0292 -0.0102,-0.20165 -0.13281,-0.17247 -0.18993,-0.57392 -0.25828,-0.65316 -0.0684,-0.0792 -0.0983,-0.30746 -0.0528,-0.40626 0.0455,-0.0988 0.12989,-0.0663 0.14278,0.007 0.0129,0.0729 0.0572,0.0195 0.0903,-0.0322 z"
     id="path2626-4"
     style="fill:#000000;fill-rule:evenodd;stroke:none" />
  <path
     d="m 325.97705,204.86104 c 0.0908,0.14414 0.0758,0.57688 0.13297,0.70723 0.0571,0.13035 0.0481,0.31461 0.10637,0.37598 0.0583,0.0614 -0.0487,0.21843 -0.0977,0.15659 -0.0491,-0.0618 -0.0564,-0.0247 -0.0646,-0.006 -0.008,0.0188 -0.057,0.0534 -0.0757,-0.0421 -0.0186,-0.0956 -0.0251,-0.22387 -0.0708,-0.30886 -0.0457,-0.085 0.0297,-0.49033 -0.0792,-0.55373 -0.1089,-0.0634 -0.12132,-0.1271 -0.0913,-0.16997 0.03,-0.0429 0.0816,-0.0225 0.10518,-0.01 0.0236,0.0126 0.0694,0.0103 0.0373,-0.08 -0.0322,-0.0903 0.0734,-0.1077 0.0976,-0.0693 z"
     id="path2628-9"
     style="fill:#000000;fill-rule:evenodd;stroke:none" />
  <path
     d="m 326.11448,206.25112 0,0 c -0.0265,-0.0734 -0.12985,-0.0616 -0.11536,0.0318 0.0145,0.0935 0.0562,0.21159 0.0578,0.43569 0.002,0.2241 0.0481,0.19906 0.0773,0.26256 0.0292,0.0635 0.0271,0.27804 -0.0459,0.44095 -0.073,0.16291 0.0102,0.20092 0.0883,0.20346 0.0781,0.003 0.12151,-0.0387 0.13733,-0.11094 0.0158,-0.0723 0.11601,-0.0189 0.15962,0.008 0.0436,0.027 0.20313,-0.0948 0.12416,-0.1785 -0.079,-0.0837 -0.15246,-0.18721 -0.18562,-0.32849 -0.0332,-0.14127 -0.1298,-0.46458 -0.0901,-0.70703 0.0397,-0.24244 -0.18124,-0.11426 -0.16499,-0.0501 0.0163,0.0642 -0.0251,0.0825 -0.0426,-0.008 z"
     id="path2630-0"
     style="fill:#000000;fill-rule:evenodd;stroke:none" />
  <path
     d="m 326.49079,207.64862 c -0.0813,-0.10016 -0.19412,0.0164 -0.14546,0.0789 0.0487,0.0625 0.0578,0.11403 0.04,0.14743 -0.0178,0.0334 0.0135,0.074 0.0472,0.0983 0.0337,0.0243 0.11004,0.24785 0.0393,0.32617 -0.0708,0.0783 0.0174,0.15182 0.0583,0.18873 0.0409,0.0369 0.10107,0.24836 0.048,0.35502 -0.0531,0.10666 -0.13777,0.16619 -0.13932,0.26375 -0.002,0.0976 0.1127,0.108 0.14236,0.11624 0.0297,0.008 0.0658,0.0162 0.0944,0.0667 0.0286,0.0505 0.0861,0.0964 0.1227,0.049 0.0366,-0.0473 0.0932,-0.021 0.16019,-0.10885 0.067,-0.0879 0.11755,-0.11643 0.009,-0.40657 -0.10894,-0.29014 -0.12128,-0.39029 -0.10754,-0.43972 0.0137,-0.0494 0.006,-0.0815 -0.0455,-0.12766 -0.0511,-0.0461 -0.10019,-0.38579 -0.0881,-0.51863 0.008,-0.0914 -0.0875,-0.0605 -0.11819,-0.0882 -0.0306,-0.0277 -0.0666,0.0616 -0.11699,-5.6e-4 z"
     id="path2632-7"
     style="fill:#000000;fill-rule:evenodd;stroke:none" />
  <path
     d="m 327.21172,209.39394 c -0.0118,-0.17458 -0.15393,-0.22653 -0.18455,-0.10551 -0.0306,0.12102 -0.0727,0.19668 -0.0612,0.24204 0.0115,0.0454 -6.3e-4,0.0781 -0.0263,0.11621 -0.0256,0.0381 -0.0281,0.0795 0.0123,0.15101 0.0404,0.0715 0.20368,0.79048 0.17213,0.89317 -0.0316,0.10268 0.10421,0.24283 0.15067,0.16236 0.0465,-0.0805 0.0693,-0.17352 0.20976,-0.21281 0.14045,-0.0393 0.05,-0.19093 -0.0483,-0.2273 -0.0983,-0.0364 -0.18139,-0.38325 -0.22447,-1.01917 z"
     id="path2634-4"
     style="fill:#000000;fill-rule:evenodd;stroke:none" />
  <path
     d="m 327.44223,210.83109 c 0.10763,-0.035 0.13071,0.14282 0.21243,0.21665 0.0817,0.0738 0.22272,0.51376 0.48086,0.64955 0.18026,0.0948 0.0718,0.22952 -0.0446,0.14523 -0.11075,-0.0802 -0.0557,0.0548 -0.15316,0.18322 -0.0945,0.1245 -0.15954,0.3135 -0.23159,0.1742 -0.072,-0.1393 -0.0597,-0.15292 -0.13268,-0.18172 -0.0729,-0.0288 -0.0549,-0.18566 4.7e-4,-0.24695 0.0554,-0.0613 0.0919,-0.22908 0.022,-0.33507 -0.15825,-0.23998 -0.33722,-0.54548 -0.1537,-0.60511 z"
     id="path2797"
     style="fill:#000000;fill-rule:evenodd;stroke:none" />
  <path
     d="m 328.23798,212.07236 c -0.008,0.10436 0.0384,0.24498 0.13442,0.34408 0.096,0.0991 0.0908,0.31043 0.1664,0.39107 0.0756,0.0806 0.10192,0.21577 -0.0365,0.1773 -0.13841,-0.0385 -0.17467,0.0154 -0.21994,0.14762 -0.0453,0.13226 -0.16655,0.0474 -0.14588,-0.0576 0.0207,-0.10502 0.11855,-0.28207 -0.15254,-0.50224 -0.2711,-0.22018 -0.0602,-0.28937 -0.0349,-0.30365 0.0253,-0.0143 0.0842,-0.13423 0.0987,-0.23244 0.0145,-0.0982 0.20094,-0.10889 0.19026,0.0358 z"
     id="path2801-8"
     style="fill:#000000;fill-rule:evenodd;stroke:none" />
  <path
     d="m 328.34424,213.30915 c -0.0925,0.0575 -0.003,0.19511 0.12169,0.22127 0.1248,0.0262 0.2375,0.2669 0.31438,0.37347 0.0769,0.10657 0.18906,0.23838 0.2209,0.35373 0.0318,0.11535 0.33872,0.14236 0.0944,0.58004 -0.0357,0.0639 0.072,0.13931 0.13841,0.0385 0.0294,-0.0447 0.0989,0.0275 0.165,0.0501 0.0661,0.0226 0.116,-0.0189 0.0813,-0.0626 -0.0347,-0.0437 -0.004,-0.0778 0.0294,-0.06 0.0334,0.0178 0.11535,-0.0318 0.0677,-0.0749 -0.0477,-0.0431 -0.10084,-0.0664 -0.11906,-0.16941 -0.0182,-0.10304 -0.10939,-0.23488 -0.15706,-0.27795 -0.0477,-0.0431 -0.12865,-0.0725 -0.13368,-0.29967 -0.005,-0.22718 -0.18331,-0.19141 -0.24933,-0.50024 -0.0426,-0.19928 -0.21549,-0.40495 -0.42158,-0.3685 -0.11749,0.0208 -0.0759,0.14858 -0.1525,0.19618 z"
     id="path2803"
     style="fill:#000000;fill-rule:evenodd;stroke:none" />
  <path
     d="m 329.4302,215.05213 c -0.10154,0.0392 -0.0102,0.12698 0.0389,0.16462 0.0482,0.037 0.10116,0.13295 0.10474,0.19054 0.004,0.0578 0.14805,0.13728 0.15497,0.30081 0.007,0.17568 0.10786,0.0656 0.11841,0.0131 0.0104,-0.0519 0.12819,-0.0154 0.14627,-0.12369 0.0176,-0.10551 -0.0425,-0.12901 -0.0891,-0.18576 -0.0473,-0.0575 -0.0949,-0.15046 -0.13812,-0.2083 -0.0449,-0.0601 -0.0458,-0.15551 -0.1392,-0.20276 -0.0934,-0.0472 -0.15156,0.0339 -0.19686,0.0514 z"
     id="path2805"
     style="fill:#000000;fill-rule:evenodd;stroke:none" />
  <path
     d="m 329.93275,215.77873 c -0.0577,0.0904 -2.2e-4,0.21791 0.0428,0.27087 0.0417,0.0514 0.0883,0.0886 0.0682,0.14355 -0.0196,0.0536 0.0405,0.0757 0.074,0.0911 0.033,0.0152 0.0991,0.1128 0.12142,0.14996 0.0222,0.0369 0.079,0.11193 0.10618,0.1379 0.0275,0.0263 0.12598,0.17794 0.0966,0.24852 -0.0305,0.0732 0.064,0.0426 0.0716,0.0225 0.007,-0.0199 0.0516,-0.0259 0.13712,0.027 0.0866,0.0536 0.111,-0.0217 0.018,-0.0984 -0.0891,-0.0735 -0.0992,-0.1046 -0.10699,-0.16682 -0.008,-0.061 -0.21163,-0.22014 -0.22914,-0.30184 -0.0175,-0.0815 -0.0555,-0.10142 -0.0927,-0.13626 -0.0374,-0.035 -0.016,-0.28805 -0.15299,-0.29512 -0.008,-0.0808 -0.1183,-0.14921 -0.15413,-0.0931 z"
     id="path2807"
     style="fill:#000000;fill-rule:evenodd;stroke:none" />
  <path
     d="m 330.7018,216.93102 c -0.1409,0.0739 -0.0131,0.28554 0.0543,0.34645 0.0674,0.0609 0.0963,0.087 0.10966,0.16904 0.0134,0.082 0.0607,0.091 0.10299,0.19912 0.0422,0.10813 0.14911,0.22218 0.18266,0.33994 0.0335,0.11777 0.0422,0.10814 0.0932,0.20664 0.0509,0.0985 0.0851,0.009 0.0661,-0.0719 -0.0117,-0.0496 0.0308,-0.0865 0.0732,-0.0822 0.0548,0.006 0.0522,-0.0578 -0.0336,-0.11777 -0.0857,-0.06 -0.14912,-0.22218 -0.25785,-0.37289 -0.10873,-0.1507 -0.10763,-0.29077 -0.15579,-0.33428 -0.0481,-0.0435 -0.14303,-0.33033 -0.23487,-0.28215 z"
     id="path2981"
     style="fill:#000000;fill-rule:evenodd;stroke:none" />
  <path
     d="m 331.49762,218.13278 c 0.12014,0.0133 0.0987,0.0536 0.10375,0.0939 0.005,0.0424 0.25491,0.39116 0.36618,0.42681 0.11262,0.0361 0.0388,0.0623 0.10146,0.11171 0.0636,0.0501 -0.008,0.12152 -0.0464,0.0682 -0.0384,-0.0533 -0.12429,-0.19617 -0.15631,-0.1557 -0.0322,0.0406 -0.0279,0.11852 -0.10525,0.0173 -0.0762,-0.0997 -0.068,-0.20004 -0.27208,-0.23961 -0.0755,-0.0118 -0.0842,-0.0752 -0.0559,-0.0999 0.0285,-0.0248 0.0547,-0.0444 0.002,-0.0897 -0.0532,-0.0458 -0.0953,-0.15057 0.0625,-0.13311 z"
     id="path2983"
     style="fill:#000000;fill-rule:evenodd;stroke:none" />
  <path
     d="m 332.09888,218.92134 c -0.11661,-0.0407 -0.18599,0.0484 -0.12162,0.10039 0.0644,0.052 0.12719,0.20149 0.14619,0.25576 0.019,0.0543 0.1296,0.18512 0.21276,0.22314 0.0831,0.038 0.0735,0.10349 0.10445,0.13766 0.031,0.0342 0.1058,-0.0281 0.0704,-0.0848 -0.0354,-0.0567 -0.0789,-0.14546 -0.16366,-0.21588 -0.0848,-0.0704 -0.0294,-0.13172 -0.0818,-0.20379 -0.0524,-0.0721 0.0414,-0.0801 0.0286,-0.14116 -0.0128,-0.0611 -0.1333,-0.0497 -0.19531,-0.0713 z"
     id="path2985-1"
     style="fill:#000000;fill-rule:evenodd;stroke:none" />
  <path
     d="m 332.56981,219.85339 c -0.0372,-0.002 -0.054,-0.0537 -0.0117,-0.0516 0.0226,10e-4 0.0387,-0.0359 0.002,-0.0521 -0.0329,-0.0148 -0.008,-0.0603 0.0236,-0.0627 0.0522,-0.004 0.25529,0.10077 0.28032,0.20997 0.025,0.1092 0.0624,0.20477 0.11718,0.26047 0.0548,0.0557 0.0536,0.15974 0.14147,0.22676 0.0879,0.067 0.014,0.14874 -0.0618,0.0616 -0.0759,-0.0871 -0.18684,-0.22445 -0.26692,-0.26588 -0.0801,-0.0414 -0.0505,-0.16314 -0.10533,-0.21884 -0.0548,-0.0557 -0.0807,-0.10574 -0.11918,-0.10767 z"
     id="path2987-3"
     style="fill:#000000;fill-rule:evenodd;stroke:none" />
  <path
     d="m 299.75372,186.86952 c -0.002,-0.20906 -0.23387,-0.21128 -0.49945,-0.16805 -0.26558,0.0432 -0.2359,0.0417 -0.46675,-0.1102 -0.23085,-0.15193 -0.30429,-0.13333 -0.34407,0.25547 -0.0398,0.3888 -0.72889,0.5874 -0.86168,0.60901 -0.13279,0.0216 -0.59857,0.22376 -0.66599,0.36107 -0.0674,0.1373 0.0276,0.25149 0.17903,0.30332 0.15139,0.0518 0.27967,-0.0588 0.38127,-0.1086 0.10161,-0.0498 0.74244,-0.32032 0.87674,-0.31226 0.13429,0.008 0.31037,0.0534 0.49696,-0.17397 0.2802,-0.34149 0.90992,-0.0323 0.90394,-0.65579 z"
     id="path3677-3"
     style="fill:#000000;fill-rule:evenodd;stroke:none" />
  <path
     d="m 296.99615,187.7462 c -0.2141,-0.0733 -0.3578,-0.003 -0.46736,0.11838 -0.10956,0.12127 -0.42112,0.20019 -0.67681,-0.0709 0.144,0.35035 0.39011,0.43253 0.59995,0.42189 0.24336,-0.0123 0.51784,0.0474 0.63097,-0.21084 0.0566,-0.12909 -0.0867,-0.25857 -0.0867,-0.25857 z"
     id="path3681-78"
     style="fill:#000000;fill-rule:evenodd;stroke:none" />
  <path
     d="m 287.50518,194.97367 c 1.26767,-1.47798 8.68995,-5.45919 11.23158,-5.64372 -1.75551,0.8775 -10.39764,5.66091 -11.23158,5.64372 z"
     id="path3685"
     style="fill:#000000;fill-rule:evenodd;stroke:none" />
  <path
     d="m 287.14595,195.81008 c 1.86855,-1.37001 9.83834,-5.02066 10.84695,-5.15872 -1.29638,0.74688 -8.65296,5.30031 -10.84695,5.15872 z"
     id="path3687"
     style="fill:#000000;fill-rule:evenodd;stroke:none" />
  <path
     d="m 299.43129,191.36363 c -3.09997,0.63011 -9.82962,4.15334 -10.59902,5.31841 2.41042,-0.22685 7.21424,-3.42105 10.59902,-5.31841 z"
     id="path3689"
     style="fill:#000000;fill-rule:evenodd;stroke:none" />
  <path
     d="m 290.92532,197.22633 c 0.7588,-1.6903 7.09744,-4.30362 8.34588,-4.61985 -3.09307,2.07595 -7.27601,4.58749 -8.34588,4.61985 z"
     id="path3691"
     style="fill:#000000;fill-rule:evenodd;stroke:none" />
  <path
     d="m 292.14843,197.35632 c 0.59309,-0.62514 3.84173,-2.50391 5.76507,-2.51765 -1.74663,1.27162 -4.67963,2.50721 -5.76507,2.51765 z"
     id="path3693-7"
     style="fill:#000000;fill-rule:evenodd;stroke:none" />
  <path
     d="m 293.60052,197.53555 c 1.17908,-0.80363 6.54463,-2.61045 8.34433,-2.91002 -2.39423,1.29317 -7.27283,2.93528 -8.34433,2.91002 z"
     id="path3695"
     style="fill:#000000;fill-rule:evenodd;stroke:none" />
  <path
     d="m 294.05868,198.06273 c 1.24449,-0.6013 6.35074,-2.47691 7.82167,-2.70263 -1.58755,1.25576 -6.23884,3.11324 -7.82167,2.70263 z"
     id="path3697"
     style="fill:#000000;fill-rule:evenodd;stroke:none" />
  <path
     d="m 302.26681,196.05186 c -1.44471,0.13641 -5.74704,2.16888 -7.14919,3.39219 1.35775,-0.0948 5.86369,-2.19091 7.14919,-3.39219 z"
     id="path3699"
     style="fill:#000000;fill-rule:evenodd;stroke:none" />
  <path
     d="m 296.42852,199.98766 c 0.5973,-0.68493 4.12616,-2.67567 6.1449,-3.05159 -1.47968,1.20268 -4.64544,3.16486 -6.1449,3.05159 z"
     id="path3701"
     style="fill:#000000;fill-rule:evenodd;stroke:none" />
  <path
     d="m 297.60421,200.79304 c 0.90277,-0.86629 4.3854,-3.23772 6.57964,-3.45315 -2.33005,1.58842 -5.42445,3.41559 -6.57964,3.45315 z"
     id="path3703"
     style="fill:#000000;fill-rule:evenodd;stroke:none" />
  <path
     d="m 297.91218,201.44817 c 1.1012,-0.68701 3.23535,-2.16276 5.1595,-2.38661 -1.94635,1.44519 -4.2213,2.63355 -5.1595,2.38661 z"
     id="path3705"
     style="fill:#000000;fill-rule:evenodd;stroke:none" />
  <path
     d="m 298.72372,202.10126 c 0.4098,-0.63089 3.45508,-1.93974 5.11852,-2.56866 -1.01715,1.07864 -4.36644,2.49718 -5.11852,2.56866 z"
     id="path3707"
     style="fill:#000000;fill-rule:evenodd;stroke:none" />
  <path
     d="m 299.8308,202.04212 c 1.11622,-0.53387 3.79697,-1.55713 5.65238,-3.96546 -1.16919,2.06038 -3.91408,4.69844 -5.65238,3.96546 z"
     id="path3927-0"
     style="fill:#000000;fill-rule:evenodd;stroke:none" />
  <path
     d="m 296.63822,191.89126 c 1.23031,-1.20855 6.43887,-3.24802 9.94715,-2.02117 -4.32401,0.005 -7.24315,1.11977 -9.94715,2.02117 z"
     id="path2717-1"
     style="fill:#000000;fill-rule:evenodd;stroke:none" />
  <path
     d="m 300.31849,191.06969 c 1.58392,-0.73097 5.0795,-1.17475 6.69704,-0.5407 -2.31626,0.27144 -4.83359,0.41784 -6.69704,0.5407 z"
     id="path2719-3"
     style="fill:#000000;fill-rule:evenodd;stroke:none" />
  <path
     d="m 305.15955,191.69747 c -2.71776,-0.0258 -5.74129,1.10953 -6.82045,1.81646 0.86856,-0.29652 4.85008,-1.5318 6.82045,-1.81646 z"
     id="path2721-6"
     style="fill:#000000;fill-rule:evenodd;stroke:none" />
  <path
     d="m 301.84966,197.7547 c 0.96891,-1.04886 5.11836,-2.34107 6.31264,-2.02297 -2.33043,0.97342 -4.88135,1.54606 -6.31264,2.02297 z"
     id="path2723"
     style="fill:#000000;fill-rule:evenodd;stroke:none" />
  <path
     d="m 307.65134,191.46587 c -1.54464,-0.48651 -4.84967,-0.9064 -7.89264,1.08766 2.17512,-0.80694 6.36475,-1.34676 7.89264,-1.08766 z"
     id="path2725"
     style="fill:#000000;fill-rule:evenodd;stroke:none" />
  <path
     d="m 301.45859,202.22999 c 1.80848,0.23228 3.81191,-1.73458 6.92587,-5.89942 -1.78336,1.67253 -4.64629,4.69581 -6.92587,5.89942 z"
     id="path2727"
     style="fill:#000000;fill-rule:evenodd;stroke:none" />
  <path
     d="m 301.62578,196.85807 c 0.86604,-1.03426 5.29776,-1.85708 6.19594,-1.66024 -1.41741,0.23042 -4.38029,1.50742 -6.19594,1.66024 z"
     id="path2729-8"
     style="fill:#000000;fill-rule:evenodd;stroke:none" />
  <path
     d="m 307.9318,194.71094 c -1.30672,-0.2461 -3.94938,-0.0824 -6.71726,1.3335 2.25146,-0.2532 4.45226,-1.18303 6.71726,-1.3335 z"
     id="path2731-9"
     style="fill:#000000;fill-rule:evenodd;stroke:none" />
  <path
     d="m 296.53725,194.72372 c 0.72287,-0.70611 8.3845,-3.74596 11.29023,-2.65545 -3.72401,-0.43276 -9.35894,2.61492 -11.29023,2.65545 z"
     id="path2733-7"
     style="fill:#000000;fill-rule:evenodd;stroke:none" />
  <path
     d="m 301.38543,195.28108 c 1.4653,-1.02642 4.1141,-1.88974 6.41616,-1.0842 -1.28564,0.16936 -5.885,0.99775 -6.41616,1.0842 z"
     id="path2735-4"
     style="fill:#000000;fill-rule:evenodd;stroke:none" />
  <path
     d="m 305.18424,188.34942 c -1.944,-0.1989 -4.36122,-0.20237 -6.58984,0.65603 1.82883,0.0443 5.93998,-0.56356 6.58984,-0.65603 z"
     id="path2737-6"
     style="fill:#000000;fill-rule:evenodd;stroke:none" />
  <path
     d="m 306.7362,188.72681 c -2.09397,-0.26008 -8.1243,0.3445 -9.97114,1.98364 1.90491,-0.72591 8.86398,-1.98474 9.97114,-1.98364 z"
     id="path2739-8"
     style="fill:#000000;fill-rule:evenodd;stroke:none" />
  <path
     d="m 307.22437,193.00228 c -2.02224,-0.46544 -5.97733,-0.1189 -10.20458,2.78491 3.48054,-1.23448 8.75774,-2.69047 10.20458,-2.78491 z"
     id="path2745-6"
     style="fill:#000000;fill-rule:evenodd;stroke:none" />
  <path
     d="m 302.37281,198.89097 c 2.02027,-1.64952 4.48087,-2.54786 5.91412,-2.96092 -2.07046,1.24623 -4.50391,2.70373 -5.91412,2.96092 z"
     id="path2976"
     style="fill:#000000;fill-rule:evenodd;stroke:none" />
  <path
     d="m 324.36273,200.49006 c -0.85288,1.12086 -1.79229,4.34275 -1.6275,5.86586 0.50572,-1.84155 1.34069,-4.4256 1.6275,-5.86586 z"
     id="path2990-7"
     style="fill:#000000;fill-rule:evenodd;stroke:none" />
  <path
     d="m 325.62047,217.95073 c -0.67365,-2.06613 -0.9166,-3.1154 0.45679,-9.43703 -0.57689,3.52947 -0.76905,8.0063 -0.45679,9.43703 z"
     id="path2992-7"
     style="fill:#000000;fill-rule:evenodd;stroke:none" />
  <path
     d="m 323.81158,213.77624 c -0.349,-1.27311 0.34091,-2.82438 0.63449,-3.8808 -0.0873,1.50355 -0.53736,3.5268 -0.63449,3.8808 z"
     id="path2996-4"
     style="fill:#000000;fill-rule:evenodd;stroke:none" />
  <path
     d="m 323.55508,212.17027 c -0.0931,-2.28642 1.29441,-5.30368 1.96251,-6.77765 -0.84175,2.9943 -1.74571,6.30721 -1.96251,6.77765 z"
     id="path2998-95"
     style="fill:#000000;fill-rule:evenodd;stroke:none" />
  <path
     d="m 320.81224,205.11147 c 0.0654,-2.14579 1.78592,-4.56701 2.90261,-5.74809 -1.17047,1.94091 -2.33978,4.25392 -2.90261,5.74809 z"
     id="path3000-8"
     style="fill:#000000;fill-rule:evenodd;stroke:none" />
  <path
     d="m 320.73288,206.99703 c -0.0688,-1.01194 0.25028,-2.21072 1.5847,-3.94038 -0.34379,1.19601 -1.20657,2.68197 -1.5847,3.94038 z"
     id="path3002-1"
     style="fill:#000000;fill-rule:evenodd;stroke:none" />
  <path
     d="m 318.32836,203.10934 c 0.76005,-1.41541 2.65605,-2.98127 5.17681,-3.91361 -1.15606,0.69293 -3.5876,2.3675 -5.17681,3.91361 z"
     id="path3004-8"
     style="fill:#000000;fill-rule:evenodd;stroke:none" />
  <path
     d="m 334.55157,214.1248 c -1.70231,-0.45145 -5.14963,-3.3614 -6.2812,-4.31594 2.28486,1.37181 5.10812,3.2319 6.2812,4.31594 z"
     id="path3006-22"
     style="fill:#000000;fill-rule:evenodd;stroke:none" />
  <path
     d="m 329.28771,220.80576 c -0.70566,-1.45486 -0.44784,-5.37761 -0.49563,-6.31954 0.42739,2.45774 0.58493,5.13163 0.49563,6.31954 z"
     id="path3008"
     style="fill:#000000;fill-rule:evenodd;stroke:none" />
  <path
     d="m 338.90857,221.12717 c -2.27962,-0.54788 -5.0303,-3.37169 -6.60675,-4.30301 2.49508,1.34481 6.21573,3.76577 6.60675,4.30301 z"
     id="path3010-6"
     style="fill:#000000;fill-rule:evenodd;stroke:none" />
  <path
     d="m 328.74755,222.23338 c -0.48137,-1.72584 -0.68158,-3.94727 -0.54862,-8.65784 0.33931,2.8779 0.72735,7.84907 0.54862,8.65784 z"
     id="path3012-95"
     style="fill:#000000;fill-rule:evenodd;stroke:none" />
  <path
     d="m 326.88601,219.17735 c -0.48658,-1.3974 -0.88509,-3.21496 0.17103,-7.84109 -0.29916,2.72808 -0.55404,6.32904 -0.17103,7.84109 z"
     id="path3014-17"
     style="fill:#000000;fill-rule:evenodd;stroke:none" />
  <path
     d="m 302.23189,191.19876 c -1.05483,0.063 -2.86251,0.16146 -5.00816,1.76368 1.09085,-0.0811 4.78994,-1.75261 5.00816,-1.76368 z"
     id="path2848-7"
     style="fill:#000000;fill-rule:evenodd;stroke:none" />
  <path
     d="m 302.67906,187.93809 c -1.09917,-0.53494 -3.98464,-0.32862 -5.7342,0.54775 1.59855,0.0283 4.30059,-0.34375 5.7342,-0.54775 z"
     id="path2849"
     style="fill:#000000;fill-rule:evenodd;stroke:none" />
  <path
     d="m 308.01128,196.34671 c -0.95029,0.42373 -2.03095,1.0647 -3.11414,3.02045 1.17775,-0.93488 2.80336,-2.55456 3.11414,-3.02045 z"
     id="path2851-0"
     style="fill:#000000;fill-rule:evenodd;stroke:none" />
  <path
     d="m 305.45222,197.83143 c -0.81817,0.2603 -2.28477,1.45858 -2.83221,1.88016 0.78338,-0.0835 2.01247,-0.78841 2.83221,-1.88016 z"
     id="path2853"
     style="fill:#000000;fill-rule:evenodd;stroke:none" />
  <path
     d="m 324.84418,214.29269 c -0.37936,-1.00903 0.20838,-4.51749 1.00899,-6.41776 -0.30866,1.67841 -0.94606,5.93325 -1.00899,6.41776 z"
     id="path2857"
     style="fill:#000000;fill-rule:evenodd;stroke:none" />
  <path
     d="m 325.70024,206.15431 c -0.54823,0.83731 -1.25648,3.69553 -1.0947,5.59073 0.27087,-1.12953 1.10641,-4.49741 1.0947,-5.59073 z"
     id="path2859-4"
     style="fill:#000000;fill-rule:evenodd;stroke:none" />
  <path
     d="m 322.98056,208.87849 c -0.27233,-2.27851 0.82345,-5.60146 1.57377,-7.63045 -0.1023,1.86485 -0.88984,5.51602 -1.57377,7.63045 z"
     id="path2861-44"
     style="fill:#000000;fill-rule:evenodd;stroke:none" />
  <path
     d="m 323.75067,209.55683 c -0.17,-1.19468 0.3031,-4.80671 1.04456,-7.01027 0.0471,1.79162 -0.55547,5.86967 -1.04456,7.01027 z"
     id="path2863-3"
     style="fill:#000000;fill-rule:evenodd;stroke:none" />
  <path
     d="m 323.47266,208.38951 c -0.53052,1.18646 -0.86511,3.21624 -0.34895,4.76528 0.2998,-1.85298 0.40067,-4.17719 0.34895,-4.76528 z"
     id="path2865-1"
     style="fill:#000000;fill-rule:evenodd;stroke:none" />
  <path
     d="m 321.55656,203.82665 c 0.18058,-0.75302 1.66256,-3.45359 2.32323,-4.23097 -0.61417,1.6939 -1.75027,3.5705 -2.32323,4.23097 z"
     id="path2867-76"
     style="fill:#000000;fill-rule:evenodd;stroke:none" />
  <path
     d="m 322.43755,203.37986 c 0.7557,-0.81895 1.46502,-2.47264 1.7196,-3.49196 -0.64557,0.82396 -1.47287,2.54202 -1.7196,3.49196 z"
     id="path2869-4"
     style="fill:#000000;fill-rule:evenodd;stroke:none" />
  <path
     d="m 325.63484,215.21522 c 7.4e-4,-1.81985 0.22111,-4.44695 0.62961,-5.88224 0.22357,1.79998 -0.3114,4.12171 -0.62961,5.88224 z"
     id="path2871"
     style="fill:#000000;fill-rule:evenodd;stroke:none" />
  <path
     d="m 328.88917,212.94981 c 1.76887,0.48922 6.09375,2.03723 8.45535,4.18819 -2.02531,-1.03166 -6.9541,-2.92389 -8.45535,-4.18819 z"
     id="path2873"
     style="fill:#000000;fill-rule:evenodd;stroke:none" />
  <path
     d="m 338.50343,219.17868 c -2.55112,-0.52028 -6.9594,-3.6803 -8.97262,-5.25698 2.38704,1.1868 8.46715,4.69093 8.97262,5.25698 z"
     id="path2875"
     style="fill:#000000;fill-rule:evenodd;stroke:none" />
  <path
     d="m 332.8125,215.375 c 1.16808,0.70689 4.01775,2.5505 6.03125,3.28125 -0.10448,-0.19801 -0.20964,-0.3964 -0.3125,-0.59375 -1.92874,-1.08486 -4.94209,-2.42813 -5.71875,-2.6875 z"
     id="path2877"
     style="fill:#000000;fill-rule:evenodd;stroke:none" />
  <path
     d="m 329.95409,221.86587 c -0.56723,-1.26204 -0.60014,-4.49835 -0.50528,-6.0784 0.28793,1.86496 0.60964,5.52876 0.50528,6.0784 z"
     id="path2879-6"
     style="fill:#000000;fill-rule:evenodd;stroke:none" />
  <path
     d="m 330.58725,222.27131 c -0.51251,-1.04603 -0.75037,-4.0094 -0.68286,-5.69746 0.45886,1.17285 0.67495,4.93016 0.68286,5.69746 z"
     id="path2881"
     style="fill:#000000;fill-rule:evenodd;stroke:none" />
  <path
     d="m 331.24412,222.28175 c -0.5627,-0.99255 -0.85486,-3.89374 -0.8102,-4.938 0.75909,2.00596 0.85969,4.43947 0.8102,4.938 z"
     id="path2883"
     style="fill:#000000;fill-rule:evenodd;stroke:none" />
  <path
     d="m 331.11569,218.41777 c 0.006,0.98779 0.36904,3.38024 0.81267,3.98241 0.0734,-1.14139 -0.48498,-3.41909 -0.81267,-3.98241 z"
     id="path2885"
     style="fill:#000000;fill-rule:evenodd;stroke:none" />
  <path
     d="m 331.74482,219.19437 c 0.0465,0.91653 0.40055,2.52735 1.01278,3.16374 0.11322,-0.35579 -0.80641,-2.97731 -1.01278,-3.16374 z"
     id="path2887"
     style="fill:#000000;fill-rule:evenodd;stroke:none" />
  <path
     d="m 333.19055,220.54213 c 0.22685,0.57104 0.63158,1.2369 1.55839,1.82435 -0.25364,-0.68724 -1.08415,-1.46178 -1.55839,-1.82435 z"
     id="path2889"
     style="fill:#000000;fill-rule:evenodd;stroke:none" />
  <path
     d="m 336.76843,222.06712 c -0.68459,-0.14487 -2.44456,-2.04193 -3.09369,-2.65261 0.79697,0.43534 3.11877,1.90454 3.09369,2.65261 z"
     id="path2891"
     style="fill:#000000;fill-rule:evenodd;stroke:none" />
  <path
     d="m 327.36166,219.0657 c -0.39786,-0.94245 -0.72157,-3.44203 -0.0117,-7.13171 0.0568,1.55048 0.0562,6.71377 0.0117,7.13171 z"
     id="path2893"
     style="fill:#000000;fill-rule:evenodd;stroke:none" />
  <path
     d="m 328.34147,221.99144 c -0.53544,-1.06675 -1.08466,-4.56129 -0.57377,-8.72219 0.0686,1.35297 0.48062,8.17996 0.57377,8.72219 z"
     id="path2895-0"
     style="fill:#000000;fill-rule:evenodd;stroke:none" />
  <path
     d="m 326.06941,218.60619 c -0.0503,-0.12872 -1.09317,-1.27912 0.74142,-8.24196 -0.40417,2.38335 -0.87156,7.83287 -0.74142,8.24196 z"
     id="path2897"
     style="fill:#000000;fill-rule:evenodd;stroke:none" />
  <path
     d="m 335.92069,222.17576 c -1.18656,-0.42308 -3.0602,-2.77153 -4.0281,-3.93063 1.04588,0.77831 3.75153,3.22268 4.0281,3.93063 z"
     id="path2899"
     style="fill:#000000;fill-rule:evenodd;stroke:none" />
  <path
     d="m 333.28354,222.37519 c -0.39201,-0.3958 -0.72109,-1.27612 -0.72615,-2.2385 0.66415,1.01646 0.71287,1.97663 0.72615,2.2385 z"
     id="path2901"
     style="fill:#000000;fill-rule:evenodd;stroke:none" />
  <path
     d="m 318.25702,206.92573 c -0.10041,-0.68538 0.5626,-3.57282 5.15675,-7.45956 -1.62763,1.98598 -4.86674,7.13855 -5.15675,7.45956 z"
     id="path2903"
     style="fill:#000000;fill-rule:evenodd;stroke:none" />
  <path
     d="m 319.19148,207.80667 c -0.19607,-0.50188 0.0912,-2.45058 2.07438,-5.06901 -0.84269,1.93713 -1.71443,4.7321 -2.07438,5.06901 z"
     id="path2905"
     style="fill:#000000;fill-rule:evenodd;stroke:none" />
  <path
     d="m 318.51647,202.12123 c 0.50562,-0.38423 2.17429,-1.99183 4.87516,-3.0915 -2.07478,0.13239 -4.40767,2.11769 -4.87516,3.0915 z"
     id="path2907"
     style="fill:#000000;fill-rule:evenodd;stroke:none" />
  <path
     d="m 318.23803,204.82638 c 0.74131,-0.91274 2.50402,-3.27641 4.87466,-5.25742 -1.04014,0.60279 -4.57992,2.93388 -4.87466,5.25742 z"
     id="path2909"
     style="fill:#000000;fill-rule:evenodd;stroke:none" />
  <path
     d="m 323.09975,202.76384 c -1.30805,1.81662 -2.55695,3.93654 -2.01723,6.3814 0.65496,-2.61486 1.58285,-5.02479 2.01723,-6.3814 z"
     id="path2911"
     style="fill:#000000;fill-rule:evenodd;stroke:none" />
  <path
     d="m 320.67248,204.61045 c -0.39391,0.84073 -0.91219,2.33312 -0.50282,3.1688 0.47952,-1.18812 0.39988,-2.13069 0.50282,-3.1688 z"
     id="path3348-7"
     style="fill:#000000;fill-rule:evenodd;stroke:none" />
  <path
     d="m 325.03125,190.03125 c 0.20308,0.32551 0.69882,0.80279 1.8125,1.25 -0.15556,-0.24107 -0.34259,-0.45834 -0.5,-0.6875 -0.40327,-0.23847 -0.83266,-0.46578 -1.3125,-0.5625 z"
     id="path3354-24"
     style="fill:#000000;fill-rule:evenodd;stroke:none" />
  <path
     d="m 326.90933,191.95723 c -1.32928,-0.40179 -2.64678,-1.54506 -2.92649,-1.70374 1.02619,0.26899 2.04649,0.90872 2.92649,1.70374 z"
     id="path3356-3"
     style="fill:#000000;fill-rule:evenodd;stroke:none" />
  <path
     d="m 322.52699,205.02279 c -0.55862,1.68911 -1.57872,5.05439 -1.03102,6.18173 0.59736,-1.68539 1.00188,-4.34667 1.03102,-6.18173 z"
     id="path3358-3"
     style="fill:#000000;fill-rule:evenodd;stroke:none" />
  <path
     d="m 322.75116,206.68784 c -0.43303,2.13496 -0.82883,3.97117 -0.2303,5.4426 0.35504,-1.60712 0.15396,-3.84962 0.2303,-5.4426 z"
     id="path3360-6"
     style="fill:#000000;fill-rule:evenodd;stroke:none" />
  <path
     d="m 324.61796,206.8512 c 0.15145,-1.14532 0.31817,-2.85512 0.37492,-3.82203 0.37865,1.4248 0.25463,2.48295 -0.37492,3.82203 z"
     id="path3368-1"
     style="fill:#000000;fill-rule:evenodd;stroke:none" />
  <path
     d="m 324.42623,211.82422 c -0.1459,0.56621 -0.20623,1.44241 0.009,1.90297 0.10753,-0.63411 0.1979,-0.9181 -0.009,-1.90297 z"
     id="path3370-7"
     style="fill:#000000;fill-rule:evenodd;stroke:none" />
  <path
     d="m 332.18555,213.31655 c 1.44812,1.17622 3.44831,2.34154 4.82216,2.26034 -1.72166,-1.05616 -3.46485,-1.5614 -4.82216,-2.26034 z"
     id="path3372-0"
     style="fill:#000000;fill-rule:evenodd;stroke:none" />
  <path
     d="m 332.90382,214.14682 c -1.20437,-1.02159 -3.47031,-2.25485 -4.34297,-2.2455 0.76332,0.92326 3.52231,1.90295 4.34297,2.2455 z"
     id="path3374-9"
     style="fill:#000000;fill-rule:evenodd;stroke:none" />
  <path
     d="m 332.13834,213.07447 c -1.02968,-0.33195 -3.34902,-1.4282 -4.19443,-2.25845 1.02968,0.33195 2.49176,1.05258 4.19443,2.25845 z"
     id="path3376-7"
     style="fill:#000000;fill-rule:evenodd;stroke:none" />
  <path
     d="m 334.23368,219.44274 c -0.7876,-0.37915 -2.41563,-1.34897 -3.03815,-2.23416 1.11335,0.51644 2.6484,1.65575 3.03815,2.23416 z"
     id="path3378-5"
     style="fill:#000000;fill-rule:evenodd;stroke:none" />
  <path
     d="m 337.88582,221.72381 c -1.22158,-0.33813 -2.95551,-1.80589 -4.50698,-3.47345 1.91169,1.19526 4.04643,2.3887 4.50698,3.47345 z"
     id="path3380-0"
     style="fill:#000000;fill-rule:evenodd;stroke:none" />
  <path
     d="m 334.32942,218.53822 c -1.16813,-0.49457 -3.03422,-1.46534 -3.90333,-2.53257 1.03115,0.36415 2.93764,1.60979 3.90333,2.53257 z"
     id="path3382-6"
     style="fill:#000000;fill-rule:evenodd;stroke:none" />
  <path
     d="m 330.03289,214.93196 c 0.74978,0.83509 2.26952,1.72464 4.18908,2.56571 -1.46029,-1.03724 -3.053,-2.18408 -4.18908,-2.56571 z"
     id="path3384-43"
     style="fill:#000000;fill-rule:evenodd;stroke:none" />
  <path
     d="m 334.5084,217.724 c 1.6926,1.30483 3.11809,2.22825 4.69907,2.54588 -1.2551,-1.04417 -3.06313,-1.71248 -4.69907,-2.54588 z"
     id="path3386-0"
     style="fill:#000000;fill-rule:evenodd;stroke:none" />
  <path
     d="m 333.52653,212.54348 c -1.34145,-0.27333 -3.42563,-1.80235 -4.42713,-2.85153 2.3827,1.35842 3.92186,2.61164 4.42713,2.85153 z"
     id="path3854-9"
     style="fill:#000000;fill-rule:evenodd;stroke:none" />
  <path
     d="m 328.46496,208.97583 c 0.7468,0.67468 4.84716,3.19918 5.80485,3.54481 -0.91432,-0.82603 -4.6333,-3.17583 -5.80485,-3.54481 z"
     id="path3856-75"
     style="fill:#000000;fill-rule:evenodd;stroke:none" />
  <path
     d="m 334.47565,211.81257 c -1.56068,-0.44593 -4.24477,-2.1743 -4.92057,-2.78484 2.39942,0.94034 3.4005,1.61396 4.92057,2.78484 z"
     id="path3858"
     style="fill:#000000;fill-rule:evenodd;stroke:none" />
  <path
     d="m 319.14131,200.57191 c 1.3457,-1.55134 3.20754,-1.82794 3.65356,-1.70722 -1.45912,0.34812 -3.09086,1.57815 -3.65356,1.70722 z"
     id="path3872"
     style="fill:#000000;fill-rule:evenodd;stroke:none" />
  <path
     d="m 322.59792,189.89828 c 0.70548,0.68645 1.58714,1.28658 2.2473,1.58841 -0.39673,-0.70211 -1.43798,-1.39732 -2.2473,-1.58841 z"
     id="path3904"
     style="fill:#000000;fill-rule:evenodd;stroke:none" />
  <path
     d="m 332.9621,212.61247 c 1.18163,0.92024 2.86322,2.0995 3.91323,2.45894 -0.41411,-0.56177 -1.6263,-2.00683 -3.91323,-2.45894 z"
     id="path3920"
     style="fill:#000000;fill-rule:evenodd;stroke:none" />
  <path
     d="m 335.875,215.6875 c 0.55237,0.38635 1.34683,1.1066 2.3125,1.75 -0.15731,-0.30573 -0.31568,-0.60318 -0.46875,-0.90625 -0.71113,-0.48256 -1.47769,-0.80629 -1.84375,-0.84375 z"
     id="path3922"
     style="fill:#000000;fill-rule:evenodd;stroke:none" />
  <path
     d="m 299.04846,188.67112 c -2.24897,-0.33233 -7.33177,2.05391 -9.42074,4.19029 2.38589,-1.04313 6.27988,-3.25733 9.42074,-4.19029 z"
     id="path3028-2"
     style="fill:#000000;fill-rule:evenodd;stroke:none" />
  <path
     d="m 329.95101,211.39942 c -0.57077,-0.47039 -1.73085,-1.50828 -2.4721,-1.58957 0.18888,0.44221 1.5741,1.23089 2.4721,1.58957 z"
     id="path4642"
     style="fill:#000000;fill-rule:evenodd;stroke:none" />
  <path
     d="m 304.95669,189.11887 c 0.98893,-0.24737 1.96306,0.0226 2.67227,0.38445 -0.75234,0.24091 -1.90776,-0.15275 -2.67227,-0.38445 z"
     id="path6625"
     style="fill:#000000;fill-rule:evenodd;stroke:none" />
  <path
     d="m 307.66896,192.48565 c -0.46305,-0.26735 -1.55634,-0.44984 -2.98406,0.0721 1.66545,-0.005 2.09811,0.1844 2.98406,-0.0721 z"
     id="path6627"
     style="fill:#000000;fill-rule:evenodd;stroke:none" />
  <path
     d="m 307.72991,191.08124 c -0.3055,0.1555 -1.37421,-0.0469 -1.79168,-0.15096 0.73039,-0.19569 1.36354,-0.16324 1.79168,0.15096 z"
     id="path6629"
     style="fill:#000000;fill-rule:evenodd;stroke:none" />
  <path
     d="m 307.67722,190.3249 c -0.32719,0.13009 -1.09539,-0.058 -1.41409,-0.23123 0.32656,-0.0994 0.98111,-0.074 1.41409,0.23123 z"
     id="path6631"
     style="fill:#000000;fill-rule:evenodd;stroke:none" />
  <path
     d="m 307.61966,193.59863 c -0.46839,-0.37284 -1.3123,-0.33002 -1.95688,-0.006 0.79651,0.0654 1.24885,0.12173 1.95688,0.006 z"
     id="path6633"
     style="fill:#000000;fill-rule:evenodd;stroke:none" />
  <path
     d="m 329.125,205.21875 c 1.01518,0.99865 3.38501,2.73536 5.03125,3.6875 -0.11819,-0.27747 -0.20231,-0.48487 -0.3125,-0.75 -1.41728,-1.21547 -3.44219,-2.64445 -4.71875,-2.9375 z"
     id="path3568-6"
     style="fill:#000000;fill-rule:evenodd;stroke:none" />
  <path
     d="m 332.2502,205.32769 c -1.82788,0.008 -4.64464,-0.61533 -5.98722,-1.60533 0.62514,-0.19041 4.73722,0.97424 5.98722,1.60533 z"
     id="path3570"
     style="fill:#000000;fill-rule:evenodd;stroke:none" />
  <path
     d="m 325.98587,202.77242 c 1.68629,1.1676 3.41873,1.33274 5.84106,1.17246 -1.71804,-0.69806 -4.65026,-1.03402 -5.84106,-1.17246 z"
     id="path3572"
     style="fill:#000000;fill-rule:evenodd;stroke:none" />
  <path
     d="m 325.76514,201.27977 c 1.09735,0.5973 3.02772,1.45424 6.49433,1.24098 -2.35396,-0.7032 -5.97219,-1.26747 -6.49433,-1.24098 z"
     id="path3574"
     style="fill:#000000;fill-rule:evenodd;stroke:none" />
  <path
     d="m 330.71875,201.6875 c -0.16787,0.006 -0.30838,0.0279 -0.4375,0.0625 0.34489,0.16639 0.87544,0.28844 1.4375,0.40625 -0.0427,-0.13627 -0.11315,-0.27172 -0.15625,-0.40625 -0.29509,-0.0368 -0.59783,-0.0716 -0.84375,-0.0625 z"
     id="path3576"
     style="fill:#000000;fill-rule:evenodd;stroke:none" />
  <path
     d="m 330.65625,205.53125 c 0.64685,0.34479 1.54438,0.67039 2.46875,0.8125 -0.0744,-0.19175 -0.18177,-0.44399 -0.25,-0.625 -0.75599,-0.17055 -1.55768,-0.25203 -2.21875,-0.1875 z"
     id="path3578"
     style="fill:#000000;fill-rule:evenodd;stroke:none" />
  <path
     d="m 326.52325,205.16744 c 0.7243,1.01022 2.43411,1.92659 3.80836,2.28101 -0.99105,-1.10886 -2.37221,-1.97996 -3.80836,-2.28101 z"
     id="path3580"
     style="fill:#000000;fill-rule:evenodd;stroke:none" />
  <path
     d="m 325.50353,200.54521 c 0.56843,0.14905 2.52216,0.0499 3.81055,-0.47696 -1.00027,-0.30123 -2.9198,-0.0498 -3.81055,0.47696 z"
     id="path3582"
     style="fill:#000000;fill-rule:evenodd;stroke:none" />
  <path
     d="m 325.81085,201.96506 c 0.83052,0.65832 3.0858,1.12925 4.43345,1.21702 -0.87861,-0.36673 -3.75256,-1.24243 -4.43345,-1.21702 z"
     id="path3584"
     style="fill:#000000;fill-rule:evenodd;stroke:none" />
  <path
     d="m 326.27364,204.36386 c 0.70881,0.5605 1.82306,1.09879 3.25828,1.52396 -1.1039,-0.95909 -2.47789,-1.54805 -3.25828,-1.52396 z"
     id="path3586"
     style="fill:#000000;fill-rule:evenodd;stroke:none" />
  <path
     d="m 326.60406,206.02334 c 0.2908,0.69845 0.9935,1.28295 2.04914,1.45375 -0.5208,-0.68402 -1.6859,-1.37732 -2.04914,-1.45375 z"
     id="path3588-1"
     style="fill:#000000;fill-rule:evenodd;stroke:none" />
  <path
     d="m 329.0625,200.71875 c -1.34261,-0.009 -2.73562,0.0816 -3.40625,0.21875 1.10014,0.36633 3.66344,0.73281 5.78125,0.3125 -0.0464,-0.14082 -0.10942,-0.26737 -0.15625,-0.40625 -0.6066,-0.0875 -1.38773,-0.11918 -2.21875,-0.125 z"
     id="path3590"
     style="fill:#000000;fill-rule:evenodd;stroke:none" />
  <path
     d="m 330.4375,204.15625 c -0.17593,0.0121 -0.34747,0.0337 -0.5,0.0625 0.6397,0.31915 1.63016,0.43703 2.59375,0.46875 -0.0492,-0.1419 -0.11274,-0.27503 -0.15625,-0.40625 -0.67336,-0.0877 -1.35407,-0.16524 -1.9375,-0.125 z"
     id="path3592"
     style="fill:#000000;fill-rule:evenodd;stroke:none" />
  <path
     d="m 325.49415,200.15994 c 0.55238,-0.1676 2.66507,-0.4599 3.72894,-0.73822 -0.83496,-0.36895 -3.0459,-0.16196 -3.72894,0.73822 z"
     id="path3594"
     style="fill:#000000;fill-rule:evenodd;stroke:none" />
  <path
     d="m 330.90625,202.71875 c -0.40544,-0.005 -0.76722,0.0311 -1.03125,0.0625 0.58027,0.28054 1.35255,0.43529 2.1875,0.53125 -0.0528,-0.18002 -0.10268,-0.35409 -0.15625,-0.53125 -0.35005,-0.0253 -0.69129,-0.059 -1,-0.0625 z"
     id="path3596"
     style="fill:#000000;fill-rule:evenodd;stroke:none" />
  <path
     d="m 326.43953,199.22745 c 0.47199,-0.0769 1.57974,-0.13303 2.17966,-0.29562 -0.54356,-0.28976 -1.46521,-0.21662 -2.17966,0.29562 z"
     id="path3600"
     style="fill:#000000;fill-rule:evenodd;stroke:none" />
  <path
     d="m 331.90625,206.34375 c 0.38997,0.34844 1.02363,0.79262 1.6875,1.125 -0.0939,-0.23146 -0.19446,-0.46791 -0.28125,-0.6875 -0.47023,-0.23677 -0.97404,-0.39013 -1.40625,-0.4375 z"
     id="path2758-8"
     style="fill:#000000;fill-rule:evenodd;stroke:none" />
  <path
     d="m 332.5625,204.90625 c -0.2451,-0.0196 -0.44861,0.002 -0.625,0.0312 0.23855,0.12485 0.49819,0.24405 0.78125,0.34375 -0.0519,-0.14213 -0.0777,-0.24115 -0.125,-0.375 -0.01,-8.3e-4 -0.0217,7.6e-4 -0.0312,0 z"
     id="path2760-2"
     style="fill:#000000;fill-rule:evenodd;stroke:none" />
  <path
     d="m 333.80139,209.16579 c -1.09359,-0.15474 -3.50475,-1.81404 -4.62368,-3.17816 1.15988,0.50884 3.73914,2.32606 4.62368,3.17816 z"
     id="path2762-3"
     style="fill:#000000;fill-rule:evenodd;stroke:none" />
  <path
     d="m 331.4375,203.53125 c 0.16983,0.10707 0.47256,0.23112 0.8125,0.34375 -0.0318,-0.10121 -0.0974,-0.25068 -0.125,-0.34375 -0.25014,-0.0153 -0.4833,-0.0189 -0.6875,0 z"
     id="path2764-6"
     style="fill:#000000;fill-rule:evenodd;stroke:none" />
  <path
     d="m 328.57472,207.04928 c 0.3898,0.49676 1.40089,1.06768 2.48613,1.15494 -0.76963,-0.56047 -1.88406,-1.05089 -2.48613,-1.15494 z"
     id="path5050"
     style="fill:#000000;fill-rule:evenodd;stroke:none" />
  <path
     d="m 327.27139,208.77931 c 0.26593,0.39109 1.506,1.15314 2.2947,1.64917 -0.72643,-0.844 -1.64365,-1.53338 -2.2947,-1.64917 z"
     id="path5052"
     style="fill:#000000;fill-rule:evenodd;stroke:none" />
  <path
     d="m 316.46734,193.09858 c -0.0481,0.0557 -0.0877,0.12612 -0.10666,0.19903 0.0302,0.0359 0.0393,0.0909 0.12046,0.10424 0.10167,0.0168 0.28254,0.29798 0.3159,0.37779 0.0335,0.08 0.10102,0.12607 0.17459,0.13472 0.0737,0.009 0.26747,0.30648 0.35094,0.30417 0.0838,-0.002 0.0941,-0.10662 0.12791,-0.1375 0.0338,-0.0309 0.13552,-0.0851 0.0637,-0.18259 -0.12524,-0.1701 -0.15288,-0.25471 -0.10673,-0.3504 0.0465,-0.0963 0.0618,-0.17334 -0.0177,-0.28288 -0.0788,-0.10855 -0.25277,-0.0717 -0.34646,-0.0443 -0.0899,0.0263 -0.22687,-0.15407 -0.28389,-0.20622 -0.0147,-0.0134 -0.0302,-0.0232 -0.0455,-0.0317 -0.089,-0.0165 -0.17518,0.0331 -0.24653,0.11569 z"
     id="path2651"
     style="fill:#000000;fill-opacity:1;fill-rule:evenodd;stroke:#000000;stroke-width:0.99999994px;stroke-linecap:butt;stroke-linejoin:miter;stroke-opacity:1" />
  <path
     d="m 314.38894,192.03474 c -0.0268,0.0345 -0.0275,0.0522 -0.008,0.084 0.0235,0.0381 0.10322,0.10873 0.17734,0.10316 0.074,-0.006 0.13709,0.016 0.21971,0.0807 0.0829,0.0649 0.0957,0.0636 0.22976,0.002 0.135,-0.0617 0.19639,0.0195 0.19859,0.0837 0.002,0.0644 0.0236,0.10606 0.12773,0.11631 0.15711,0.0155 0.33312,-0.31948 0.37505,-0.46911 0.0419,-0.14953 -0.03,-0.19132 -0.0808,-0.20088 -0.0507,-0.01 -0.0963,-0.0516 -0.12904,-0.0945 -0.0328,-0.0429 -0.20076,-0.14772 -0.27357,-0.1036 -0.0729,0.0442 -0.1994,0.0392 -0.26949,0.0243 -0.0703,-0.0149 -0.11322,-0.0249 -0.13649,0.035 -0.0495,0.12738 -0.12333,0.1569 -0.23149,0.23993 -0.0634,0.0487 -0.15159,0.037 -0.19949,0.0986 z"
     id="path2665"
     style="fill:#000000;fill-rule:evenodd;stroke:none" />
  <path
     d="m 311.59699,193.77755 c -0.0325,0.0423 -0.0464,0.10358 -0.0639,0.14102 -0.0345,0.0739 -0.129,0.12829 -0.17759,0.18741 -0.0479,0.0584 -0.0295,0.14819 -0.0208,0.1864 0.009,0.0378 -0.0578,0.12007 -0.14621,0.17747 -0.0874,0.0567 -0.14961,0.25055 -0.18634,0.29765 -0.0365,0.0468 0.0306,0.0904 0.0977,0.0143 0.0672,-0.0762 0.0521,-4.2e-4 0.002,0.0337 -0.0501,0.0341 -0.0802,0.0805 -0.003,0.0661 0.0774,-0.0144 0.0557,0.0639 0.0335,0.12208 -0.0224,0.0585 0.0298,0.0513 0.0686,0.0389 0.0387,-0.0124 0.0849,-0.005 0.11414,0.0425 0.0296,0.0481 0.0747,0.032 0.12078,0.0261 -0.003,0.003 -0.006,0.007 -0.01,0.0106 0.19777,-0.10714 0.34649,-0.008 0.57055,-0.0559 0.0118,-0.12257 -0.0812,-0.27114 -0.0516,-0.31893 0.0297,-0.0478 0.0374,-0.1393 -0.0209,-0.13162 0.0347,-0.0753 -0.003,-0.16741 0.0669,-0.20182 0.0697,-0.0345 -0.0229,-0.1329 0.11602,-0.17499 0.13953,-0.0423 0.27919,-0.19555 0.25668,-0.36256 -0.0229,-0.16979 -0.21936,-0.19199 -0.29047,-0.17961 -0.071,0.0124 -0.17221,0.0854 -0.30381,0.0531 -0.0896,-0.0377 -0.14008,-0.0143 -0.17262,0.0281 z"
     id="path2676-1"
     style="fill:#000000;fill-rule:evenodd;stroke:none" />
  <path
     d="m 321.91544,196.18424 c -0.15662,0.17336 -0.10366,0.15123 -0.12876,0.21586 -0.0251,0.0645 0.0535,0.22169 0.0555,0.29306 0.002,0.0711 0.18897,0.28918 0.21633,0.36659 0.0724,0.20477 0.22202,0.2782 0.2574,0.14697 0.0653,-0.24234 0.26049,-0.31411 0.47418,-0.37311 0.19843,-0.0548 0.38089,-0.18299 0.39496,-0.37198 0.003,-0.0355 -0.025,-0.0714 -0.0208,-0.0952 0.0104,-0.0594 -0.0514,-0.13085 -0.0776,-0.20539 -0.0263,-0.0749 -0.28197,-0.12646 -0.3175,-0.14053 -0.0356,-0.0141 -0.12674,-0.11241 -0.12728,-0.16468 -5.4e-4,-0.0524 -0.0498,-0.18326 -0.19729,-0.10554 -0.14786,0.0779 -0.37249,0.26054 -0.52911,0.43391 z"
     id="path2683"
     style="fill:#000000;fill-rule:evenodd;stroke:#000000;stroke-width:0.99999994px;stroke-linecap:butt;stroke-linejoin:miter;stroke-opacity:1" />
  <path
     d="m 330.09426,198.47818 c 0.28208,0.18063 0.56244,0.19144 0.6177,0.47297 0.0499,0.25411 -0.1781,1.10073 -0.52358,1.97601 -0.34548,0.87528 -0.66551,1.9962 -0.71782,2.24578 -0.0523,0.24958 -0.84483,2.30421 -0.89715,2.55379 -0.0523,0.24959 -0.43557,0.89285 -0.4211,1.17804 0.0145,0.28518 0.19063,1.56879 -0.0374,1.68433 -0.22807,0.11554 -0.89378,0.0583 -0.90825,-0.22684 -0.0145,-0.28518 0.11826,-0.48686 0.13761,-0.61781 -0.17575,-0.13404 0.23725,-0.5638 0.28252,-0.69605 0.0453,-0.13227 0.13714,-0.37086 0.19472,-0.51674 0.0576,-0.14588 0.32482,-0.77026 0.34417,-0.9012 0.0194,-0.13095 0.23032,-0.58353 0.33186,-0.88759 0.10154,-0.30407 0.59253,-1.6416 0.59694,-1.81077 0.004,-0.16918 0.25447,-0.36381 0.19735,-0.46488 -0.0571,-0.10108 -0.22497,-0.0796 -0.24517,-0.2215 -0.0202,-0.14194 0.15602,-0.25484 0.2215,-0.24517 0.0655,0.01 0.13357,0.0712 0.1068,-0.20036 -0.0268,-0.27157 0.18923,-0.13463 0.14418,-0.48818 -0.0316,-0.24821 0.0976,-0.38184 0.14682,-0.43633 -0.0773,-0.243 -0.0171,-0.33703 -0.0412,-0.55674 -0.0241,-0.21971 -0.0521,-1.26618 0.0389,-1.36404 0.10519,-0.11311 0.006,-0.28806 -0.0729,-0.41218 -0.0476,-0.0745 0.0152,-0.20903 0.0821,-0.23765 0.0945,-0.0404 0.21552,0.0446 0.42143,0.17311 z"
     id="path2464-8"
     style="fill:#000000;fill-rule:evenodd;stroke:none" />
</svg>
