<?xml version="1.0" encoding="UTF-8" standalone="no"?>
<!-- Created with Inkscape (http://www.inkscape.org/) -->

<svg
   xmlns:dc="http://purl.org/dc/elements/1.1/"
   xmlns:cc="http://creativecommons.org/ns#"
   xmlns:rdf="http://www.w3.org/1999/02/22-rdf-syntax-ns#"
   xmlns:svg="http://www.w3.org/2000/svg"
   xmlns="http://www.w3.org/2000/svg"
   version="1.1"
   width="560"
   height="560"
   id="tie_neck">
  <g
     transform="matrix(-1,0,0,1,803.65828,11.92667)"
     id="g294317"
     style="display:inline;enable-background:new">
    <path
       d="m 285.34746,172.08068 c 4.41305,-3.17042 6.34952,-7.84812 3.42375,-17.82989 0.92418,6.49344 -1.93177,16.90685 -5.34823,17.30504 -1.22878,0.14322 -3.84895,0.17495 -6.12333,-0.34991 -2.27439,-0.52485 -10.35985,-4.60978 -12.28432,-12.13274 -1.43014,8.23802 6.86079,13.53236 11.05965,13.88227 4.19886,0.3499 8.04781,1.22466 9.27248,-0.87477 z"
       transform="translate(245.5625,0)"
       id="path294315"
       style="color:#000000;fill:#d40000;fill-opacity:1;stroke:#800000;stroke-width:0.25;stroke-linecap:butt;stroke-linejoin:miter;stroke-miterlimit:4;stroke-opacity:1;stroke-dasharray:none;stroke-dashoffset:0;marker:none;visibility:visible;display:inline;overflow:visible;enable-background:accumulate" />
    <path
       d="m 528.62188,177.80824 c 8.35754,26.06311 8.48802,69.99972 10.66374,95.6588 -2.64721,4.81294 -4.16453,8.72914 -7.05964,13.15758 -3.65688,-3.07531 -8.44282,-8.41434 -10.00762,-11.09856 0.58798,-17.89616 0.37576,-76.42017 3.46344,-97.22031 -0.16533,-1.48365 2.61494,-1.82113 2.94008,-0.49751 z"
       id="path32285-2-1"
       style="color:#000000;fill:#d40000;fill-opacity:1;fill-rule:evenodd;stroke:#800000;stroke-width:0.30729535;stroke-linecap:butt;stroke-linejoin:miter;stroke-miterlimit:4;stroke-opacity:1;stroke-dasharray:none;stroke-dashoffset:0;marker:none;visibility:visible;display:inline;overflow:visible;enable-background:accumulate" />
    <path
       d="m 521.16211,172.91059 c 3.05168,0.408 3.13385,8.00772 4.26719,7.67379 0.49303,-1.1557 3.53181,-1.32137 3.82679,-0.24243 0.90517,0.25863 1.99228,-6.39688 2.38021,-7.94861 0.38793,-1.55173 -8.92246,-2.84484 -10.47419,0.51725 z"
       id="path2433-0-7"
       style="color:#000000;fill:#d40000;fill-opacity:1;stroke:#800000;stroke-width:0.30762449;stroke-linecap:butt;stroke-linejoin:miter;stroke-miterlimit:4;stroke-opacity:1;stroke-dasharray:none;stroke-dashoffset:0;marker:none;visibility:visible;display:inline;overflow:visible;enable-background:accumulate" />
    <path
       d="m 527.71812,180.94329 c -4.02659,-0.21941 -5.14572,48.34199 2.55084,48.34199 7.56401,0 2.52659,-48.06533 -2.55084,-48.34199 z"
       id="path49283"
       style="color:#000000;fill:#ff0000;stroke:none;stroke-width:0.5;marker:none;visibility:visible;display:inline;overflow:visible;enable-background:accumulate" />
    <path
       d="m 527.90819,182.80318 c 0.34707,9.86336 -2.7034,24.49917 2.03324,24.49917 3.27023,0 -0.77113,-16.50372 -2.03324,-24.49917 z"
       id="path49283-2"
       style="color:#000000;fill:#d40000;stroke:none;stroke-width:0.5;marker:none;visibility:visible;display:inline;overflow:visible;enable-background:accumulate" />
  </g>
</svg>
