<?xml version="1.0" encoding="UTF-8" standalone="no"?>
<svg xmlns="http://www.w3.org/2000/svg" id="tie_neck" width="560" height="560">
  <g id="g294317" style="display:inline;enable-background:new">
    <path id="path294315" d="M272.7 184c-4.4-3.2-6.3-7.8-3.4-17.8-1 6.5 2 17 5.4 17.3 1.2 0 3.8.2 6-.4 2.4-.4 10.5-4.5 12.4-12 1.5 8.2-6.8 13.5-11 14-4.2.2-8 1-9.3-1z" style="color:#000000;fill:#d40000;fill-opacity:1;stroke:#800000;stroke-width:0.25;stroke-linecap:butt;stroke-linejoin:miter;stroke-miterlimit:4;stroke-opacity:1;stroke-dasharray:none;stroke-dashoffset:0;marker:none;visibility:visible;display:inline;overflow:visible;enable-background:accumulate"/>
    <path id="path32285-2-1" d="M275 189.7c-8.3 26-8.5 70-10.6 95.7 2.6 4.8 4 8.7 7 13.2 3.7-3 8.5-8.5 10-11-.5-18-.3-76.6-3.4-97.4 0-1.5-2.6-1.8-3-.5z" style="color:#000000;fill:#d40000;fill-opacity:1;fill-rule:evenodd;stroke:#800000;stroke-width:0.30729535;stroke-linecap:butt;stroke-linejoin:miter;stroke-miterlimit:4;stroke-opacity:1;stroke-dasharray:none;stroke-dashoffset:0;marker:none;visibility:visible;display:inline;overflow:visible;enable-background:accumulate"/>
    <path id="path2433-0-7" d="M282.5 184.8c-3 .4-3 8-4.3 7.7-.5-1-3.5-1.3-3.8-.2-1 .2-2-6.4-2.4-8-.4-1.5 9-2.8 10.5.5z" style="color:#000000;fill:#d40000;fill-opacity:1;stroke:#800000;stroke-width:0.30762449;stroke-linecap:butt;stroke-linejoin:miter;stroke-miterlimit:4;stroke-opacity:1;stroke-dasharray:none;stroke-dashoffset:0;marker:none;visibility:visible;display:inline;overflow:visible;enable-background:accumulate"/>
    <path id="path49283" d="M276 193c4-.3 5 48.2-2.6 48.2s-2.5-48 2.5-48.3z" style="color:#000000;fill:#ff0000;stroke:none;stroke-width:0.5;marker:none;visibility:visible;display:inline;overflow:visible;enable-background:accumulate"/>
    <path id="path49283-2" d="M275.8 194.7c-.4 10 2.7 24.5-2 24.5-3.4 0 .7-16.5 2-24.5z" style="color:#000000;fill:#d40000;stroke:none;stroke-width:0.5;marker:none;visibility:visible;display:inline;overflow:visible;enable-background:accumulate"/>
  </g>
</svg>
