<?xml version="1.0" encoding="UTF-8" standalone="no"?>
<!-- Created with Inkscape (http://www.inkscape.org/) -->

<svg
   xmlns:dc="http://purl.org/dc/elements/1.1/"
   xmlns:cc="http://creativecommons.org/ns#"
   xmlns:rdf="http://www.w3.org/1999/02/22-rdf-syntax-ns#"
   xmlns:svg="http://www.w3.org/2000/svg"
   xmlns="http://www.w3.org/2000/svg"
   version="1.1"
   width="560"
   height="560"
   id="underwear_string">
  <g
     transform="translate(-245.1105,-1)"
     id="g71503"
     style="display:inline;enable-background:new">
    <path
       d="m 483.98592,300.66023 c 17.93156,-0.9962 24.24082,10.62611 36.85933,7.96958 12.61851,-2.65653 20.58809,-18.92776 39.18379,-27.56148"
       id="path71465"
       style="color:#000000;fill:none;stroke:#aa0000;stroke-width:0.5;stroke-linecap:butt;stroke-linejoin:miter;stroke-miterlimit:4;stroke-opacity:1;stroke-dasharray:none;stroke-dashoffset:0;marker:none;visibility:visible;display:inline;overflow:visible;enable-background:accumulate" />
    <g
       id="g71496">
      <path
         d="m 273.95448,308.96188 c 2.9886,7.96958 6.97339,19.59189 11.95438,19.25983"
         transform="translate(245.5625,0)"
         id="path71485"
         style="color:#000000;fill:none;stroke:#aa0000;stroke-width:0.5;stroke-linecap:butt;stroke-linejoin:miter;stroke-miterlimit:4;stroke-opacity:1;stroke-dasharray:none;stroke-dashoffset:0;marker:none;visibility:visible;display:inline;overflow:visible;enable-background:accumulate" />
      <path
         d="m 284.25889,327.86627 c -1.66033,-1.9924 -5.01206,-17.23889 -4.01069,-21.04988 -4.52955,2.25701 -8.44438,2.53982 -12.27091,1.81342 5.64512,6.97339 11.63267,19.23646 16.2816,19.23646 z"
         transform="translate(245.5625,0)"
         id="path71487"
         style="color:#000000;fill:#ff0000;stroke:#aa0000;stroke-width:0.5;stroke-linecap:butt;stroke-linejoin:miter;stroke-miterlimit:4;stroke-opacity:1;stroke-dasharray:none;stroke-dashoffset:0;marker:none;visibility:visible;display:inline;overflow:visible;enable-background:accumulate" />
      <path
         d="m 275.19142,317.81091 c 1.24003,2.52776 4.3401,10.73104 9.491,10.44488 -1.4785,-1.38311 -2.43237,-1.14465 -4.86474,-12.87724 0.23646,1.84581 1.33341,7.62971 2.48007,10.73103 -0.66771,-0.95387 -0.81079,-1.4308 -1.00157,-1.62158 0.19976,0.6722 0.8862,2.18492 1.26775,2.56646 -0.85849,-0.81079 -1.64031,-2.03858 -3.17549,-5.9527 0.7631,2.57545 1.86005,4.8203 2.48006,5.5357 -0.76309,-0.57232 -1.37087,-1.61384 -1.84781,-2.52001 0.23847,0.57232 0.60903,1.26 0.75211,1.64155 -0.90618,-1.09695 -4.72289,-5.75419 -5.58138,-7.94809 z"
         transform="translate(245.5625,0)"
         id="path71490"
         style="color:#000000;fill:#d40000;stroke:none;marker:none;visibility:visible;display:inline;overflow:visible;enable-background:accumulate" />
      <path
         d="m 279.98413,306.62515 c -0.75909,0.39952 -0.79904,1.39832 -0.71914,3.11626 -0.19976,-0.9189 -0.39952,-1.51818 -0.27966,-1.9177 -0.19976,0.15981 -0.39952,0.35957 -0.39952,0.67919 -0.11986,-0.55933 -0.15981,-0.71914 -0.0799,-0.9189 -0.23971,0.39952 -0.23971,0.95885 -0.19976,1.35837 -0.19976,-0.35957 -0.35957,-1.07871 -0.0799,-1.51818 0.71914,-0.19976 1.43827,-0.59928 1.75789,-0.79904 z"
         transform="translate(245.5625,0)"
         id="path71492"
         style="color:#000000;fill:#d40000;stroke:none;marker:none;visibility:visible;display:inline;overflow:visible;enable-background:accumulate" />
      <path
         d="m 268.35808,308.74261 c 0.87894,0.75909 2.0775,1.63803 2.87655,2.71674 -0.35957,-0.83899 -1.07871,-1.71794 -1.35837,-2.07751 0.95884,0.9189 1.39832,1.35837 2.39712,1.71794 -0.39952,-0.31962 -1.35837,-1.19856 -1.71794,-1.63803 0.35957,-0.04 0.55933,0.1598 0.9189,0.43947 -0.0399,-0.23971 -0.0799,-0.47943 0.15981,-0.71914 0.04,0.15981 0.27966,0.87895 0.43947,1.11866 -0.04,-0.51938 0.0399,-0.83899 0.11986,-1.03875 0.11985,0.27966 0.23971,1.15861 0.39952,1.39832 -0.15981,-0.59928 -0.15981,-1.31842 -0.0799,-1.67799 -1.39322,0.16548 -2.66208,-0.0352 -4.15497,-0.23971 z"
         transform="translate(245.5625,0)"
         id="path71494"
         style="color:#000000;fill:#d40000;stroke:none;marker:none;visibility:visible;display:inline;overflow:visible;enable-background:accumulate" />
    </g>
  </g>
</svg>
