<?xml version="1.0" encoding="UTF-8" standalone="no"?>
<svg xmlns="http://www.w3.org/2000/svg" id="veil_khimar_2_of_2" width="560" height="560">
  <g id="g56620" style="display:none;enable-background:new">
    <g id="g55231" style="display:inline;enable-background:new">
      <path id="path55233" d="M267 137.3l-1-1.7c-.5-1-2-3.2-2.5-2.4-.4.7 0 1.8 0 2.6-.2.8 0 2 .2 3.3.8 3.8 1.5 5 2.4 6.4 1 1.4 2.3 2 3 1" style="stroke-dasharray: none; stroke-opacity: 1; stroke-miterlimit: 4; stroke-linejoin: round; stroke-linecap: round; stroke-width: 0.5; stroke: #c0a0a1; fill: #F0C8C9;"/>
      <path id="path55235" d="M266.7 140c0 .8 0 1-.3 1-.2.4 0 1.5.2 1.8.3.4.2 1.2 0 1.2 0 0-.3 0-.3-.6 0-.8-1-.6-1.6-2.7-.3-1.7 0-2 .2-2s0-1.3-.3-1.6c0-.2-.4-.5-.6-.6v1.2c0 .4-.2 3.2.8 4.7 1 1.4 1.7 2.7 1.5 2.7-.2 0-1.5-2.2-2-3.4-.4-1.3-.8-3.2-1-4.5 0-1 .2-1.3.5-1.2.3 0 1 1.2 1.4 2 .3 1 .6 1 1 1.2.2 0 .4.4.3 1z" style="stroke: none; fill: #d3b0b1;"/>
    </g>
    <g id="g55237" style="display:inline;enable-background:new">
      <path id="path55239" d="M298 136.3l1.7-2.4c.5-.8 1-2 1.8-1.6.5.5 0 2 0 2.7.2.8.2 1.8 0 3-.6 3.6-1.3 4.7-2 6.2-1 1.5-2 2-2.8 1" style="stroke-dashoffset: 0; stroke-dasharray: none; stroke-opacity: 1; stroke-miterlimit: 4; stroke-linejoin: round; stroke-linecap: round; stroke-width: 0.5; stroke: #c0a0a1; fill: #F0C8C9;"/>
      <path id="path55241" d="M298.5 139.2c0 .7.2.8.4 1 0 .2 0 1.3-.3 1.7-.3.2-.2 1 0 1 0 0 .3 0 .3-.7s1.2-.6 1.5-2.7c.3-1.7 0-2-.3-2-.2 0 0-1.3 0-1.6l.7-.7v1c0 .5.2 3.3-.7 4.8-1 1.7-1.7 3-1.4 3 0 0 1.3-2 1.7-3.4.4-1.2.7-3 .7-4.4 0-1.2-.2-1.5-.5-1.3-.3 0-1 1-1.3 2-.3 1-.7 1-1 1.2-.2 0-.4.5-.3 1.2z" style="stroke: none; fill: #d3b0b1;"/>
    </g>
  </g>
  <g id="g7400">
    <path id="path4241-5" d="m 266.35058,146.55622 c 0,14.98797 -13.06483,19.79809 -18.54395,21.67606 -10.06871,3.45106 -16.50872,11.09281 -17.8509,15.86643 -1.3422,4.77363 0.22203,28.2867 0.20261,34.74612 -0.0105,3.52992 6.69997,11.87921 11.19698,16.24824 6.39051,6.20863 15.3121,18.01565 24.71182,18.18621 6.64247,0.12053 25.31399,-3.62864 37.03107,-10.92737 12.72271,-7.92513 23.41001,-27.24926 33.98134,-28.53311 -3.10254,-9.95763 -9.60613,-21.77571 -12.7212,-26.94632 -1.67461,-2.77963 -9.39536,-6.27158 -13.15349,-9.49468 -3.75814,-3.2231 -7.77,-7.25904 -10.12538,-14.48995 -2.03343,-6.24257 -2.82826,-17.25796 -3.0967,-18.60091 -0.26844,-1.34297 -30.82688,-10.89172 -31.6322,2.26928 z" style="opacity:1;fill:#808080;fill-opacity:1;stroke:#4d4d4d;stroke-width:1;stroke-linecap:round;stroke-linejoin:round;stroke-miterlimit:4;stroke-dasharray:none;stroke-dashoffset:0;stroke-opacity:1"/>
    <path id="path4328" d="m 241.47686,234.72879 c -0.0214,-7.45577 0.26602,-22.95925 9.01155,-32.84485 5.19341,-5.87043 8.10388,-24.19017 10.28404,-41.29785" style="opacity:1;fill:none;fill-opacity:1;stroke:#4d4d4d;stroke-width:1;stroke-linecap:round;stroke-linejoin:round;stroke-miterlimit:4;stroke-dasharray:none;stroke-dashoffset:0;stroke-opacity:1"/>
    <path id="path4328-5" d="m 304.52754,240.40563 c 1.25288,-7.01159 -5.44891,-26.46612 -7.37973,-37.49545 -1.86774,-10.66901 1.34655,-27.85857 2.5909,-45.85639" style="opacity:1;fill:none;fill-opacity:1;stroke:#4d4d4d;stroke-width:1;stroke-linecap:round;stroke-linejoin:round;stroke-miterlimit:4;stroke-dasharray:none;stroke-dashoffset:0;stroke-opacity:1"/>
    <path id="path4345" d="m 266.58658,252.76535 c -3.09734,-33.62831 14.70657,-77.55196 15.59153,-111.62275" style="opacity:1;fill:none;fill-opacity:1;stroke:#4d4d4d;stroke-width:1;stroke-linecap:round;stroke-linejoin:round;stroke-miterlimit:4;stroke-dasharray:none;stroke-dashoffset:0;stroke-opacity:1"/>
  </g>
</svg>
