<?xml version="1.0" encoding="UTF-8" standalone="no"?>
<svg xmlns="http://www.w3.org/2000/svg" id="veil_shayla_2_of_2" width="560" height="560">
  <path id="path5899" d="m 283.07897,118.3798 c -31.78174,2.12522 -30.41269,85.92666 2.12522,73.53253 25.95156,-9.8853 19.72777,-80.18951 -2.12522,-73.53253 z" style="opacity:1;fill:#666666;fill-opacity:1;stroke:none;stroke-width:1;stroke-linecap:round;stroke-linejoin:round;stroke-miterlimit:4;stroke-dasharray:none;stroke-dashoffset:0;stroke-opacity:1"/>
  <g id="g56620" style="display:none;enable-background:new">
    <g id="g55231" style="display:inline;enable-background:new">
      <path id="path55233" d="M267 137.3l-1-1.7c-.5-1-2-3.2-2.5-2.4-.4.7 0 1.8 0 2.6-.2.8 0 2 .2 3.3.8 3.8 1.5 5 2.4 6.4 1 1.4 2.3 2 3 1" style="stroke-dasharray: none; stroke-opacity: 1; stroke-miterlimit: 4; stroke-linejoin: round; stroke-linecap: round; stroke-width: 0.5; stroke: #c0a0a1; fill: #F0C8C9;"/>
      <path id="path55235" d="M266.7 140c0 .8 0 1-.3 1-.2.4 0 1.5.2 1.8.3.4.2 1.2 0 1.2 0 0-.3 0-.3-.6 0-.8-1-.6-1.6-2.7-.3-1.7 0-2 .2-2s0-1.3-.3-1.6c0-.2-.4-.5-.6-.6v1.2c0 .4-.2 3.2.8 4.7 1 1.4 1.7 2.7 1.5 2.7-.2 0-1.5-2.2-2-3.4-.4-1.3-.8-3.2-1-4.5 0-1 .2-1.3.5-1.2.3 0 1 1.2 1.4 2 .3 1 .6 1 1 1.2.2 0 .4.4.3 1z" style="stroke: none; fill: #d3b0b1;"/>
    </g>
    <g id="g55237" style="display:inline;enable-background:new">
      <path id="path55239" d="M298 136.3l1.7-2.4c.5-.8 1-2 1.8-1.6.5.5 0 2 0 2.7.2.8.2 1.8 0 3-.6 3.6-1.3 4.7-2 6.2-1 1.5-2 2-2.8 1" style="stroke-dashoffset: 0; stroke-dasharray: none; stroke-opacity: 1; stroke-miterlimit: 4; stroke-linejoin: round; stroke-linecap: round; stroke-width: 0.5; stroke: #c0a0a1; fill: #F0C8C9;"/>
      <path id="path55241" d="M298.5 139.2c0 .7.2.8.4 1 0 .2 0 1.3-.3 1.7-.3.2-.2 1 0 1 0 0 .3 0 .3-.7s1.2-.6 1.5-2.7c.3-1.7 0-2-.3-2-.2 0 0-1.3 0-1.6l.7-.7v1c0 .5.2 3.3-.7 4.8-1 1.7-1.7 3-1.4 3 0 0 1.3-2 1.7-3.4.4-1.2.7-3 .7-4.4 0-1.2-.2-1.5-.5-1.3-.3 0-1 1-1.3 2-.3 1-.7 1-1 1.2-.2 0-.4.5-.3 1.2z" style="stroke: none; fill: #d3b0b1;"/>
    </g>
  </g>
</svg>
