<?xml version="1.0" encoding="UTF-8" standalone="no"?>
<svg xmlns="http://www.w3.org/2000/svg" id="veil_shayla_1_of_2" width="560" height="560">
  <g id="g56620" style="display:none;enable-background:new">
    <g id="g55231" style="display:inline;enable-background:new">
      <path id="path55233" d="M267 137.3l-1-1.7c-.5-1-2-3.2-2.5-2.4-.4.7 0 1.8 0 2.6-.2.8 0 2 .2 3.3.8 3.8 1.5 5 2.4 6.4 1 1.4 2.3 2 3 1" style="stroke-dasharray: none; stroke-opacity: 1; stroke-miterlimit: 4; stroke-linejoin: round; stroke-linecap: round; stroke-width: 0.5; stroke: #c0a0a1; fill: #F0C8C9;"/>
      <path id="path55235" d="M266.7 140c0 .8 0 1-.3 1-.2.4 0 1.5.2 1.8.3.4.2 1.2 0 1.2 0 0-.3 0-.3-.6 0-.8-1-.6-1.6-2.7-.3-1.7 0-2 .2-2s0-1.3-.3-1.6c0-.2-.4-.5-.6-.6v1.2c0 .4-.2 3.2.8 4.7 1 1.4 1.7 2.7 1.5 2.7-.2 0-1.5-2.2-2-3.4-.4-1.3-.8-3.2-1-4.5 0-1 .2-1.3.5-1.2.3 0 1 1.2 1.4 2 .3 1 .6 1 1 1.2.2 0 .4.4.3 1z" style="stroke: none; fill: #d3b0b1;"/>
    </g>
    <g id="g55237" style="display:inline;enable-background:new">
      <path id="path55239" d="M298 136.3l1.7-2.4c.5-.8 1-2 1.8-1.6.5.5 0 2 0 2.7.2.8.2 1.8 0 3-.6 3.6-1.3 4.7-2 6.2-1 1.5-2 2-2.8 1" style="stroke-dashoffset: 0; stroke-dasharray: none; stroke-opacity: 1; stroke-miterlimit: 4; stroke-linejoin: round; stroke-linecap: round; stroke-width: 0.5; stroke: #c0a0a1; fill: #F0C8C9;"/>
      <path id="path55241" d="M298.5 139.2c0 .7.2.8.4 1 0 .2 0 1.3-.3 1.7-.3.2-.2 1 0 1 0 0 .3 0 .3-.7s1.2-.6 1.5-2.7c.3-1.7 0-2-.3-2-.2 0 0-1.3 0-1.6l.7-.7v1c0 .5.2 3.3-.7 4.8-1 1.7-1.7 3-1.4 3 0 0 1.3-2 1.7-3.4.4-1.2.7-3 .7-4.4 0-1.2-.2-1.5-.5-1.3-.3 0-1 1-1.3 2-.3 1-.7 1-1 1.2-.2 0-.4.5-.3 1.2z" style="stroke: none; fill: #d3b0b1;"/>
    </g>
  </g>
  <g id="g5885" transform="matrix(1.17478 0 0 1.17293 -191.91 -.61)">
    <path id="path4138-2" d="m 383.54218,131.0885 c 0.49154,-2.94921 0.24577,-14.50026 1.72037,-18.43253 1.4746,-3.93227 7.37301,-16.466386 17.94099,-16.712156 10.56798,-0.24576 16.95792,8.847616 18.92406,26.051306 -6.07633,-3.95829 -3.5472,-11.7829 -18.18975,-12.59737 -6.14258,-0.34167 -13.99527,3.77555 -20.39567,21.69075 z" style="opacity:1;fill:#808080;fill-opacity:1;stroke:#4d4d4d;stroke-width:0.85189539;stroke-linecap:round;stroke-linejoin:round;stroke-miterlimit:4;stroke-dasharray:none;stroke-dashoffset:0;stroke-opacity:1"/>
    <g id="g5878">
      <path id="path4212" d="m 421.99366,212.25129 c 0,0 0,5.43416 0,6.1837 0,0.74954 -2.71708,0.0937 -2.81078,1.03062 -0.0937,0.93693 -3.46662,-0.28108 -3.46662,0.65585 0,0.93692 -2.71708,0.37477 -2.81077,1.31169 -0.0937,0.93693 -3.27924,0.65585 -3.27924,-0.0937 0,-0.74954 -3.37293,-2.06123 -4.68463,-0.93692 0,-2.43601 0,-7.21433 0,-7.21433" style="opacity:1;fill:#808080;fill-opacity:1;stroke:#4d4d4d;stroke-width:0.85189539;stroke-linecap:round;stroke-linejoin:round;stroke-miterlimit:4;stroke-dasharray:none;stroke-dashoffset:0;stroke-opacity:1"/>
      <path id="path4138-8" d="m 414.99935,101.27927 c 3.6662,4.35826 6.05559,11.33006 7.12825,20.71585 1.96614,17.20369 -0.7373,41.78039 0.24577,49.39917 0.98307,7.61877 1.05431,31.44377 0.49153,39.32273 -0.1751,2.45142 -1.35172,2.08902 -1.96613,2.08902 -0.61442,0 -1.59749,1.22883 -3.19498,1.10595 -1.59748,-0.12289 -3.6865,1.22883 -6.02129,1.22883 -2.33478,0 -3.31785,-1.35172 -5.03822,-1.35172 -1.72037,0 -2.45767,-0.86018 -3.07209,-2.82632 -0.61442,-1.96613 -1.59748,-21.6275 -1.4746,-27.77168 0.12288,-6.14417 3.80939,-25.68265 7.61878,-34.2845 3.80939,-8.60184 13.64007,-29.0005 4.30092,-40.55155" style="opacity:1;fill:#808080;fill-opacity:1;stroke:#4d4d4d;stroke-width:0.85189539;stroke-linecap:round;stroke-linejoin:round;stroke-miterlimit:4;stroke-dasharray:none;stroke-dashoffset:0;stroke-opacity:1"/>
      <path id="path4353" d="m 408.11888,213.91199 c -2.2119,-11.05952 -3.56969,-32.47147 0,-48.41611 3.68651,-16.46639 12.53412,-32.19548 10.56798,-47.43303" style="opacity:1;fill:none;fill-opacity:1;stroke:#4d4d4d;stroke-width:0.4259477;stroke-linecap:round;stroke-linejoin:round;stroke-miterlimit:4;stroke-dasharray:none;stroke-dashoffset:0;stroke-opacity:1"/>
      <path id="path4355" d="m 415.98343,214.15775 c -2.20381,-13.46767 -3.56987,-33.09965 -1.58532,-49.19058 2.18529,-17.71859 6.13606,-29.02635 5.02605,-45.42972" style="opacity:1;fill:none;fill-opacity:1;stroke:#4d4d4d;stroke-width:0.4259477;stroke-linecap:round;stroke-linejoin:round;stroke-miterlimit:4;stroke-dasharray:none;stroke-dashoffset:0;stroke-opacity:1"/>
      <path id="path4357" d="m 420.16146,212.92892 c -2.2119,-12.28835 -2.9492,-40.79733 -2.45767,-51.61108 0.49154,-10.81375 4.66958,-22.11903 1.72037,-42.02616" style="opacity:1;fill:none;fill-opacity:1;stroke:#4d4d4d;stroke-width:0.4259477;stroke-linecap:round;stroke-linejoin:round;stroke-miterlimit:4;stroke-dasharray:none;stroke-dashoffset:0;stroke-opacity:1"/>
    </g>
    <g id="g5860">
      <path id="path4138" d="m 394.13163,99.554114 c -4.95705,4.080036 -7.88939,10.489356 -8.86908,13.101856 -1.4746,3.93227 -1.22883,15.48332 -1.72037,18.43253 -0.49153,2.9492 -3.29075,17.71883 -1.46565,25.21716 2.41985,9.94183 17.71466,19.59422 27.85971,19.59422 10.14505,0 12.97623,-4.95456 17.22299,-12.0325 4.24677,-7.07794 5.66235,-7.78574 6.84201,-7.5498 1.65152,-1.88746 0.58117,-3.40716 -1.33736,-3.6574 -0.5839,-1.33463 -1.83512,-2.41902 -3.83706,-1.75171 -0.91756,-1.91852 -3.67023,-3.16974 -7.34046,-2.08535 -3.67023,1.08438 -7.75753,3.92047 -16.59945,2.9195 -6.97409,-0.78952 -11.97734,-5.7363 -13.09605,-8.6751 -1.40789,-3.69845 -4.33755,-24.69063 2.83608,-36.36864" style="opacity:1;fill:#808080;fill-opacity:1;stroke:#4d4d4d;stroke-width:0.85189539;stroke-linecap:round;stroke-linejoin:round;stroke-miterlimit:4;stroke-dasharray:none;stroke-dashoffset:0;stroke-opacity:1"/>
      <path id="path4347" d="m 387.72022,115.11364 c 0.7373,7.86455 0,20.8902 -1.4746,28.01744 -1.4746,7.12724 -0.7373,17.44946 11.79681,22.61056 12.53412,5.16111 21.6275,4.17804 34.65315,-12.77988" style="opacity:1;fill:none;fill-opacity:1;stroke:#4d4d4d;stroke-width:0.4259477;stroke-linecap:round;stroke-linejoin:round;stroke-miterlimit:4;stroke-dasharray:none;stroke-dashoffset:0;stroke-opacity:1"/>
      <path id="path4349" d="m 428.76331,150.74986 c -8.35608,12.53411 -37.84812,17.20369 -38.83119,-18.92406" style="opacity:1;fill:none;fill-opacity:1;stroke:#4d4d4d;stroke-width:0.4259477;stroke-linecap:round;stroke-linejoin:round;stroke-miterlimit:4;stroke-dasharray:none;stroke-dashoffset:0;stroke-opacity:1"/>
      <path id="path4351" d="m 396.8136,153.69906 c 5.65264,5.65264 19.66136,5.65264 24.33093,-4.91534" style="opacity:1;fill:none;fill-opacity:1;stroke:#4d4d4d;stroke-width:0.4259477;stroke-linecap:round;stroke-linejoin:round;stroke-miterlimit:4;stroke-dasharray:none;stroke-dashoffset:0;stroke-opacity:1"/>
    </g>
  </g>
</svg>
