<?xml version="1.0" encoding="UTF-8" standalone="no"?>
<svg xmlns="http://www.w3.org/2000/svg" id="veil_niqab" width="560" height="560">
  <g id="g56620" style="display:none;enable-background:new">
    <g id="g55231" style="display:inline;enable-background:new">
      <path id="path55233" d="M267 137.3l-1-1.7c-.5-1-2-3.2-2.5-2.4-.4.7 0 1.8 0 2.6-.2.8 0 2 .2 3.3.8 3.8 1.5 5 2.4 6.4 1 1.4 2.3 2 3 1" style="stroke-dasharray: none; stroke-opacity: 1; stroke-miterlimit: 4; stroke-linejoin: round; stroke-linecap: round; stroke-width: 0.5; stroke: #c0a0a1; fill: #F0C8C9;"/>
      <path id="path55235" d="M266.7 140c0 .8 0 1-.3 1-.2.4 0 1.5.2 1.8.3.4.2 1.2 0 1.2 0 0-.3 0-.3-.6 0-.8-1-.6-1.6-2.7-.3-1.7 0-2 .2-2s0-1.3-.3-1.6c0-.2-.4-.5-.6-.6v1.2c0 .4-.2 3.2.8 4.7 1 1.4 1.7 2.7 1.5 2.7-.2 0-1.5-2.2-2-3.4-.4-1.3-.8-3.2-1-4.5 0-1 .2-1.3.5-1.2.3 0 1 1.2 1.4 2 .3 1 .6 1 1 1.2.2 0 .4.4.3 1z" style="stroke: none; fill: #d3b0b1;"/>
    </g>
    <g id="g55237" style="display:inline;enable-background:new">
      <path id="path55239" d="M298 136.3l1.7-2.4c.5-.8 1-2 1.8-1.6.5.5 0 2 0 2.7.2.8.2 1.8 0 3-.6 3.6-1.3 4.7-2 6.2-1 1.5-2 2-2.8 1" style="stroke-dashoffset: 0; stroke-dasharray: none; stroke-opacity: 1; stroke-miterlimit: 4; stroke-linejoin: round; stroke-linecap: round; stroke-width: 0.5; stroke: #c0a0a1; fill: #F0C8C9;"/>
      <path id="path55241" d="M298.5 139.2c0 .7.2.8.4 1 0 .2 0 1.3-.3 1.7-.3.2-.2 1 0 1 0 0 .3 0 .3-.7s1.2-.6 1.5-2.7c.3-1.7 0-2-.3-2-.2 0 0-1.3 0-1.6l.7-.7v1c0 .5.2 3.3-.7 4.8-1 1.7-1.7 3-1.4 3 0 0 1.3-2 1.7-3.4.4-1.2.7-3 .7-4.4 0-1.2-.2-1.5-.5-1.3-.3 0-1 1-1.3 2-.3 1-.7 1-1 1.2-.2 0-.4.5-.3 1.2z" style="stroke: none; fill: #d3b0b1;"/>
    </g>
  </g>
  <g id="g6115" transform="matrix(1.16553 0 0 1.1662 -351.958 -94.25)">
    <path id="path4290" d="M 282.44141 110.56836 C 275.95691 110.56836 270.08952 114.27432 267.46484 118.44531 C 265.92092 118.29083 262.21709 119.83719 261.75391 123.69922 C 261.29073 127.56124 256.50457 150.42343 255.42383 155.67578 C 254.34308 160.92814 259.43661 163.24654 257.73828 169.42578 C 256.03997 175.60502 251.25449 194.9141 250.32812 206.3457 C 275.18536 224.11101 295.25722 218.08685 311.93164 209.12695 C 311.77724 207.89111 306.06327 178.38476 304.82812 170.19727 C 303.59299 162.00977 308.99715 158.45681 307.29883 155.36719 C 305.6005 152.27757 301.74023 125.55299 301.74023 123.69922 C 301.74023 121.84545 300.81452 119.21894 297.57227 119.06445 C 295.25637 115.20243 288.92591 110.56836 282.44141 110.56836 z M 281.0293 124.48633 C 289.9631 124.48633 297.39648 127.77473 297.39648 140.14844 C 297.39648 150.64386 290.94796 163.04883 283.25 163.04883 C 273.49008 163.04883 266.65626 144.76339 266.41406 137.84375 C 266.14173 130.0628 272.12325 124.48633 281.0293 124.48633 z" style="opacity:1;fill:#808080;fill-opacity:1;stroke:#4d4d4d;stroke-width:1;stroke-linecap:round;stroke-linejoin:round;stroke-miterlimit:4;stroke-dasharray:none;stroke-dashoffset:0;stroke-opacity:1" transform="matrix(.85798 0 0 .8575 301.973 80.818)"/>
    <path id="path4286" d="m 559.40396,198.67769 c 0.52986,13.77646 2.91425,49.01242 3.97398,54.04613 -8.87522,4.37138 -28.48019,6.49083 -41.85926,-1.72206 1.98699,-11.39208 6.49083,-49.14489 7.0207,-52.58901 7.35471,7.10409 23.42092,7.96564 30.86458,0.26494 z" style="opacity:1;fill:#808080;fill-opacity:1;stroke:#4d4d4d;stroke-width:0.85773575;stroke-linecap:round;stroke-linejoin:round;stroke-miterlimit:4;stroke-dasharray:none;stroke-dashoffset:0;stroke-opacity:1"/>
    <path id="path4288" d="m 560.06629,186.88821 0,12.45181 c -10.9016,-3.14668 -20.65314,-3.29387 -32.45417,-0.7948 -0.26494,-2.64932 -0.26494,-10.72975 -0.3974,-11.78948 11.94619,-1.90378 24.21144,-1.66985 32.85157,0.13247 z" style="opacity:1;fill:#808080;fill-opacity:1;stroke:#4d4d4d;stroke-width:0.85773575;stroke-linecap:round;stroke-linejoin:round;stroke-miterlimit:4;stroke-dasharray:none;stroke-dashoffset:0;stroke-opacity:1"/>
  </g>
</svg>
