<?xml version="1.0" encoding="UTF-8" standalone="no"?>
<!-- Created with Inkscape (http://www.inkscape.org/) -->

<svg
   xmlns:dc="http://purl.org/dc/elements/1.1/"
   xmlns:cc="http://creativecommons.org/ns#"
   xmlns:rdf="http://www.w3.org/1999/02/22-rdf-syntax-ns#"
   xmlns:svg="http://www.w3.org/2000/svg"
   xmlns="http://www.w3.org/2000/svg"
   version="1.1"
   width="560"
   height="560"
   id="wings_devil">
  <g
     transform="translate(-3.6917843e-6,-1.0000026)"
     id="g212601"
     style="display:inline;enable-background:new">
    <g
       transform="matrix(-0.67252132,-0.01057982,-0.01057982,0.67252132,-6.3078961,-17.19634)"
       id="g23230"
       style="display:inline;enable-background:new">
      <path
         d="m -238.8218,374.5515 c -4.03804,-16.15219 -9.87078,-36.79109 -15.70351,-39.48312 -5.83273,-2.69203 -12.56281,-8.0761 -14.80617,-10.76813 -2.24336,-2.69203 -5.38406,-1.79468 -8.52477,-2.24336 -3.1407,-0.44867 -12.56281,2.24336 -17.04952,2.69204 -4.48672,0.44867 -11.66547,7.62742 -13.46016,10.31945 -1.79469,2.69203 -8.07609,10.31945 -10.31945,13.90882 -2.24336,-15.25484 -6.73008,-30.06101 -17.04953,-35.44507 -10.31945,-5.38406 -20.6389,-9.87078 -24.22828,-10.31945 -3.58937,-0.44867 -19.29289,-2.24336 -24.22828,-4.48672 -4.93539,-2.24336 -20.46237,-12.25022 -18.84421,-18.84422 17.94687,-73.1335 78.97063,-232.052179 100.05381,-229.271291 9.07257,1.196678 69.09546,288.047301 64.16007,323.941051 z"
         id="path22944"
         style="fill:#5f8dd3;fill-opacity:1;fill-rule:evenodd;stroke:#0b1728;stroke-width:1.48675776px;stroke-linecap:butt;stroke-linejoin:miter;stroke-opacity:1" />
      <path
         d="m -295.52407,70.34375 c 0.0633,0.0043 0.1236,0.0239 0.1875,0.03125 6.72721,23.552383 16.40809,65.49155 25.90625,110.96875 -2.26992,41.09594 14.56682,99.94596 22.84375,166.8125 -2.5245,-6.72387 -5.23435,-11.84614 -7.9375,-13.09375 -0.0328,-0.0151 -0.0609,-0.0472 -0.0937,-0.0625 -6.51029,-46.15099 -32.63204,-209.375 -36.59375,-209.375 -4.22169,0 20.22963,166.15091 23.75,200.59375 -0.7631,-0.70953 -1.42695,-1.36859 -1.875,-1.90625 -1.72786,-2.07344 -3.99249,-2.02391 -6.375,-2.09375 -3.7911,-36.61292 -13.56492,-116.27619 -23.75,-187.0625 -0.61462,25.81394 6.39915,160.30815 8,189.03125 -1.29564,0.24722 -2.48149,0.4669 -3.4375,0.5625 -2.52636,0.25263 -5.89588,2.6385 -8.6875,5.15625 1.86354,-65.63002 -2.19178,-210.63251 1.59375,-247.40625 0.90221,-8.764277 3.31056,-12.371323 6.46875,-12.15625 z"
         id="path22960"
         style="fill:#5178b4;fill-opacity:1;fill-rule:evenodd;stroke:none" />
      <path
         d="m -306.77407,79.625 c 0.37258,0.07009 0.70106,0.403633 0.96875,0.96875 5.23791,11.057809 -5.82187,218.05294 -11.84375,266.8125 -0.40491,0.57738 -0.74219,1.1 -1.03125,1.5625 -2.20966,-15.02564 -6.60119,-29.60745 -16.59375,-35.1875 8.04991,-61.37221 17.28581,-155.15625 13.625,-155.15625 -3.41791,0 -24.17602,109.21015 -29.3125,147.65625 -4.0294,-1.70314 -7.29238,-2.84905 -9,-3.0625 -0.17722,-0.0222 -0.67272,-0.0964 -0.90625,-0.125 2.89955,-25.55663 11.6712,-104.60292 28.40625,-143.84375 -15.22843,32.36041 -24.10866,52.66703 -27.28125,60.28125 16.93368,-44.14856 45.39297,-141.331369 52.96875,-139.90625 z"
         id="path22962"
         style="fill:#5178b4;fill-opacity:1;fill-rule:evenodd;stroke:none" />
      <path
         d="m -406.62506,277.18971 c 6.28141,-27.36898 45.6251,-133.78869 62.75708,-170.59072 17.13198,-36.802025 28.77197,-49.258464 35.05338,-59.129244 6.2814,-9.87078 12.56281,3.589375 13.90883,8.973436 1.34601,5.384062 0.44867,6.281406 1.79468,10.319452 1.34602,4.038046 0,7.627421 3.14071,16.152185 3.1407,8.524765 12.13761,41.351921 17.35424,68.734941 5.71066,29.97629 26.35169,131.957 29.12178,152.01159 1.1779,8.52767 5.55954,26.92987 6.77681,36.10524 1.38288,10.42362 0.73006,27.75338 1.03485,30.15728 0.52372,4.13051 0.95178,9.51776 -3.48985,10.7868 -4.44162,1.26903 -7.61421,-4.44163 -5.07614,-9.51777 2.53807,-5.07614 4.44163,-15.22843 3.80711,-24.11167 -0.63452,-8.88325 -14.08373,-79.7623 -16.32709,-91.87644 -2.24336,-12.11413 -29.99271,-146.70224 -42.04854,-169.544881 -2.53808,10.152284 -3.17259,39.340101 -3.17259,52.030461 0,12.69035 -5.07615,138.95938 -6.9797,159.89847 -1.90355,20.93909 -6.34518,49.49239 -5.07614,54.56853 1.26903,5.07614 -1.90356,4.44162 -5.71066,5.07614 -3.80711,0.63452 -6.34518,-4.44162 -3.17259,-7.61421 3.17259,-3.17259 10.15228,-77.41117 10.7868,-100.25381 0.63452,-22.84264 3.80711,-146.5736 5.71066,-158.629439 -10.7868,8.248731 -16.49746,31.091369 -20.30457,43.781729 -3.8071,12.69035 -28.5533,75.50761 -33.62944,89.467 -5.07614,13.95939 -27.91878,92.00508 -26.64974,95.17766 1.26903,3.17259 -1.26904,8.88325 -5.71066,8.24874 -4.44163,-0.63452 -4.44163,-5.07615 -1.26904,-9.51777 3.17259,-4.44163 29.82233,-96.4467 34.26396,-109.13706 4.44162,-12.69035 19.67005,-51.39593 22.84264,-61.54822 3.17259,-10.15228 19.67005,-62.817257 22.84264,-65.989846 3.17259,-3.172588 -2.53807,-10.152284 -2.53807,-14.593908 -3.80711,8.248731 -8.24873,19.670051 -11.42132,24.746193 -3.17259,5.076142 -15.22843,22.842641 -18.40102,31.091371 -3.17259,8.24873 -6.34518,20.30457 -10.15228,27.91878 -3.80711,7.61421 -45.68528,102.15736 -41.87817,137.69035 -4.44163,2.53808 -7.61422,-7.61421 -8.18856,-10.88136 z"
         id="path22942"
         style="fill:#214478;fill-opacity:1;fill-rule:evenodd;stroke:#0b1728;stroke-width:1.48675776px;stroke-linecap:butt;stroke-linejoin:miter;stroke-opacity:1" />
      <path
         d="m -236.95173,377.53807 c -3.17259,25.06345 -9.20051,33.9467 -32.99493,42.51269 17.44924,-13.64213 24.7462,-14.27665 26.01523,-41.87817 2.85533,-1.90355 4.44163,-0.95178 6.9797,-0.63452 z"
         id="path22956"
         style="fill:#afc6e9;fill-rule:evenodd;stroke:#5f8dd3;stroke-width:1.48675776px;stroke-linecap:butt;stroke-linejoin:miter;stroke-opacity:1" />
      <path
         d="m -316.26646,356.59898 c -1.58629,-1.26903 -4.75888,-0.95177 -6.34517,-0.63451 -2.22082,16.1802 -9.20051,39.3401 -14.59391,48.22335 13.64213,-15.54569 18.40101,-40.9264 20.93908,-47.58884 z"
         id="path22958"
         style="fill:#afc6e9;fill-rule:evenodd;stroke:#5f8dd3;stroke-width:1.48675776px;stroke-linecap:butt;stroke-linejoin:miter;stroke-opacity:1" />
      <path
         d="m -307.5768,46.543729 c 3.05195,-8.719851 9.07389,-15.355811 15.35581,-20.939742 -4.88594,9.77188 -6.28192,18.845768 -6.28192,23.731708 0,4.88594 -10.90788,2.448011 -9.07389,-2.791966 z"
         id="path22992"
         style="fill:#afc6e9;fill-rule:evenodd;stroke:#5f8dd3;stroke-width:1.48675776px;stroke-linecap:butt;stroke-linejoin:miter;stroke-opacity:1" />
    </g>
    <g
       transform="matrix(-0.67255932,0.00779839,0.00779839,0.67255932,-6.4686205,14.95028)"
       id="g23219"
       style="display:inline;enable-background:new">
      <path
         d="m -457.77364,330.13299 0,0 c -4.03805,-7.62742 -16.60086,-39.93179 -17.94688,-45.31586 -3.58937,4.03805 -11.21679,-3.1407 -13.01148,-6.73007 -1.79469,-3.58938 -8.07609,-7.17875 -12.56281,16.60085 -7.17875,-10.31945 -22.43359,-22.43359 -24.67695,-24.22827 -2.24336,-1.79469 -7.62742,0 -11.66547,-0.89735 -4.03804,-0.89734 -7.62742,6.73008 -13.46015,5.38406 -5.83273,-1.34601 -11.21679,-8.07609 -14.3575,-0.89734 -3.1407,7.17875 -4.48672,5.83273 -6.73007,6.73008 -2.24336,0.89734 -3.58938,0.89734 -4.93539,5.83273 -1.34602,4.93539 -9.87078,5.83273 -12.11414,16.60086 -2.24336,10.76812 -3.58938,8.97343 -4.48672,14.3575 -6.73008,-9.42211 -13.90883,-19.29289 -22.43359,-18.84422 -8.52477,0.44867 -13.90883,7.62742 -18.84422,11.66547 -4.93539,4.03804 -14.3575,9.87078 -19.29289,22.88226 10.76812,-101.39983 60.5707,-280.868558 101.84851,-290.739333 7.17874,-12.562811 12.56281,-5.832734 16.15218,5.384061 3.58937,11.216795 14.80617,46.213197 18.39554,60.122022 3.58938,13.90883 15.25485,42.17515 18.84422,50.25124 3.58937,8.0761 29.16367,63.7114 35.89375,82.10694 6.73007,18.39555 25.12562,45.31586 33.65038,54.73797 -8.52476,11.66546 -22.43359,30.50968 -28.26632,34.9964 z"
         id="path22934"
         style="fill:#5f8dd3;fill-opacity:1;fill-rule:evenodd;stroke:#0b1728;stroke-width:1.48675776px;stroke-linecap:butt;stroke-linejoin:miter;stroke-opacity:1" />
      <path
         d="m -477.18871,295.72666 c 3.48995,11.86586 5.58393,30.71163 2.79196,48.16141 10.46987,-21.63773 6.97992,-41.87948 4.88594,-49.55739 -2.09397,-7.6779 -8.37589,2.09398 -7.6779,1.39598 z"
         id="path22998"
         style="fill:#afc6e9;fill-rule:evenodd;stroke:#5f8dd3;stroke-width:1.48675776px;stroke-linecap:butt;stroke-linejoin:miter;stroke-opacity:1" />
      <path
         d="m -503.01439,299.91461 c 4.18794,15.35581 1.39598,34.20158 -0.698,43.27547 11.86586,-18.84577 8.3759,-39.08752 6.97992,-46.06743 -2.79197,0 -6.28192,2.79196 -6.28192,2.79196 z"
         id="path23000"
         style="fill:#afc6e9;fill-rule:evenodd;stroke:#5f8dd3;stroke-width:1.48675776px;stroke-linecap:butt;stroke-linejoin:miter;stroke-opacity:1" />
      <path
         d="m -595.14926,322.25034 c 1.39598,13.26183 6.28192,38.38953 15.35581,43.27547 -5.58393,-13.95983 -9.77188,-35.59757 -9.07389,-43.97346 -0.69799,-0.698 -6.97991,0.69799 -6.28192,0.69799 z"
         id="path23002"
         style="fill:#afc6e9;fill-rule:evenodd;stroke:#5f8dd3;stroke-width:1.48675776px;stroke-linecap:butt;stroke-linejoin:miter;stroke-opacity:1" />
      <path
         d="m -653.08255,348.07602 c 9.77188,15.35581 23.03372,28.61765 40.4835,32.8056 -15.35581,-9.77188 -31.40961,-23.73171 -34.89957,-36.29556 -1.39598,0 -6.28192,4.18795 -5.58393,3.48996 z"
         id="path23004"
         style="fill:#afc6e9;fill-rule:evenodd;stroke:#5f8dd3;stroke-width:1.48675776px;stroke-linecap:butt;stroke-linejoin:miter;stroke-opacity:1" />
      <path
         d="m -550.05532,38.96875 c 22.91621,84.71223 60.54249,167.69245 62.46875,179.25 1.82525,10.95148 20.13497,77.7843 29.1875,110.65625 -4.56353,-9.34795 -16.0288,-38.92769 -17.3125,-44.0625 -3.01895,3.39631 -8.89093,-1.14853 -11.75,-4.8125 -11.95006,-45.89587 -42.82107,-152.81959 -56.375,-187.15625 5.55776,17.59957 37.18515,148.17962 49.21875,183.78125 -0.32672,0.3029 -0.66529,0.67678 -1,1.125 -30.60959,-48.23355 -47.37923,-145.04239 -52.15625,-192.8125 -1.97421,11.845307 -3.95587,35.53907 -2.96875,55.28125 -1.97422,-8.88398 -2.95234,-8.8801 -8.875,-69.09375 -5.69274,23.719731 16.67131,171.12218 21.0625,198.40625 -1.91799,0.14061 -3.77048,1.91163 -5.875,3.4375 -8.76751,-39.12201 -15.77304,-114.8584 -19.15625,-173.21875 -4.65455,30.72009 1.11242,138.7286 2.625,171.09375 -1.75362,-0.24075 -3.30069,0.47747 -4.5,3.21875 -0.79637,1.82028 -1.48427,3.06912 -2.09375,3.96875 -3.21413,-36.38052 -5.33375,-100.87778 -6.875,-148.65625 -6.24916,47.31506 -1.21413,125.91163 2,151.5 -1.6806,0.64538 -2.87205,0.94296 -3.9375,3.5 -4.96536,-35.3613 -4.68868,-102.42579 -2.03125,-152.03125 -9.16888,42.17686 -9.79382,142.19539 -5.09375,160.96875 -2.36758,2.12645 -4.72337,4.97844 -5.75,9.90625 -0.44821,2.15143 -0.8386,3.6941 -1.21875,5 -4.65536,-17.48089 -2.56943,-128.36815 8.125,-182.8125 -8.06568,20.61229 -27.52402,142.12601 -29.5625,173.9375 -1.37981,-0.47022 -2.79636,-0.70151 -4.25,-0.625 -6.73982,0.35473 -11.5124,4.92226 -15.65625,8.8125 7.6378,-25.98784 22.35996,-113.56091 39.59375,-187.03125 -35.45939,83.32958 -53.38704,170.60332 -48.8125,194.6875 -4.64002,3.89278 -9.97048,9.36535 -13.28125,18.09375 10.76811,-101.39982 60.59719,-280.879225 101.875,-290.75 0.81937,-1.433894 1.60239,-2.609266 2.375,-3.5625 z"
         id="path23006"
         style="fill:#5178b4;fill-opacity:1;fill-rule:evenodd;stroke:none" />
      <path
         d="m -542.18032,224.125 c 2.08447,6.25339 10.02387,34.21035 14.40625,45.625 -1.17955,-0.19548 -2.6318,-0.12076 -4.15625,-0.0312 -3.45597,-10.13751 -8.42765,-29.19261 -10.25,-45.59375 z"
         id="path23008"
         style="opacity:0.15;fill:#000000;fill-rule:evenodd;stroke:#0b1728;stroke-width:1.48675776px;stroke-linecap:butt;stroke-linejoin:miter;stroke-opacity:1" />
      <path
         d="m -421.8799,287.95783 c -11.2168,-10.31945 -11.2168,-10.31945 -11.2168,-10.31945 0,0 -20.6389,-22.88227 -29.16366,-35.44508 -8.52477,-12.56281 -26.47164,-36.34241 -29.16367,-43.96984 -2.69203,-7.62742 -7.17875,-21.53624 -9.42211,-28.26632 -2.24336,-6.73008 -10.31945,-23.33093 -14.3575,-35.44507 -4.03804,-12.11414 -13.01148,-37.688436 -15.70351,-44.418513 -2.69203,-6.730077 -8.97344,-26.471637 -8.52477,-29.61234 0.44868,-3.140703 6.28141,-25.125622 -6.73007,-34.54773 -13.01149,-9.422108 -19.74156,4.486718 -21.98492,8.524765 -2.24336,4.038046 -9.42211,19.74156 -10.76813,24.67695 -9.87078,13.908826 -63.56268,140.836598 -77.7702,264.468858 0,29.41118 5.08537,28.51384 9.57209,25.37313 4.48672,-3.1407 -1.79469,-9.4221 -3.14071,-12.11413 -1.34601,-2.69204 6.25898,-75.44174 20.85289,-124.29961 14.5939,-48.85787 41.87817,-142.766497 69.79695,-157.994923 -15.22843,31.091371 -31.42516,74.110803 -35.01453,145.898293 -3.58937,71.78749 1.79469,105.88655 -0.89734,115.75733 -2.69203,9.87078 2.24336,10.99247 3.81371,10.99247 4.20119,-1.12571 5.6084,-4.26238 3.58938,-9.87078 0,-10.76812 -2.91637,-53.16761 -2.4677,-71.11448 0.44867,-17.94687 -0.7494,-115.52069 34.78359,-189.759268 -4.44162,72.335028 13.32487,171.319798 50.76142,238.578678 0,7.61421 4.44163,10.15228 6.9797,9.20051 2.53807,-0.95178 3.8071,-5.07615 0.31726,-9.83503 -3.48985,-4.75888 -53.80752,-86.77067 -52.01283,-232.140334 17.94687,55.635304 64.60874,181.263414 71.78749,225.233254 -2.69204,10.76812 2.24335,10.76812 4.48671,10.76812 2.24336,0 7.62742,-0.89735 3.14071,-9.87078 -4.48672,-8.97344 -18.84422,-56.08398 -24.67695,-80.31226 17.04953,24.22828 41.2778,72.23617 61.46803,95.11843"
         id="path22892"
         style="fill:#214478;fill-opacity:1;fill-rule:evenodd;stroke:#0b1728;stroke-width:1.48675776px;stroke-linecap:butt;stroke-linejoin:miter;stroke-opacity:1" />
      <path
         d="m -546.98785,26.301978 c 1.32672,-7.516284 -4.18795,-18.1477766 -8.3759,-23.7317079 2.79196,6.2819227 -0.60603,16.4216469 -1.39598,23.7317079 -0.34993,3.238204 8.8173,5.407982 9.77188,0 z"
         id="path22994"
         style="fill:#afc6e9;fill-rule:evenodd;stroke:#5f8dd3;stroke-width:1.48675776px;stroke-linecap:butt;stroke-linejoin:miter;stroke-opacity:1" />
    </g>
  </g>
</svg>
