<?xml version="1.0" encoding="UTF-8" standalone="no"?>
<svg xmlns="http://www.w3.org/2000/svg" id="wings_angel" width="560" height="560" id="female_silhouette">
  <path id="path2302-8" d="M282 112.7c-9.7 0-13.6 5.8-15 11.6-.8 3-1 5.8-1 8.2l.3 3v.5c0-.2 0-.4-.3-.6l-.6-.8-.7-.3c-.4 0-.7 0-1 .4l-.4 1c-.2 1 0 2 .3 3.4.6 3 1.2 4 1.5 4.6l1 1.8c.5 1 1 1.3 1.5 1.5h.7l1 5c.2 1 .5 2 1 3 0 .4.3.7.5 1 0 2.7-.4 6-1 8.8-1 3.5-2 5.4-2.8 6.4l-1.6 2c-2 1.6-4 2.4-6.5 2.7h-5.3-.2v.2h-.3c-6-3.6-14.6-5.6-19.8 2.4-6.6 10.2-1 23.4-1.6 32.2-.2 3.6-.2 27.7-5 36.5-2.6 4.5-6 13-11.7 33.7-3 12-8 20.7-8.7 22.8v.4c-.3.6-.5 1.2-.5 1.8-.8 4.2-1.7 12.5-2.4 17-.2 1.2.5 11 .7 11.4 1 3 .8 7.5 1 9 0 1.6 1.6 1.6 2.7-.6.7 3 3 2.8 3 0-.2-1.2-1-4-2.4-6.2.3-1.4.5-3 .4-4 1.7 0 4.5.6 5 .3 1-.5 2-.7 3-.8v.3c.7 2.7 3.4 3.2 4 0 .3-2-.7-6.3-2-7.5-.3-1-.2-2.4 0-3.5.2-1.8 1.2-6.2-4-11.8l.3-.6v-.4c.2-2.5 1.4-6.4 11.3-22.3 4.4-7.2 8-13.6 10.7-19 1-1.8 1.7-3.4 2.4-5l2.4-5c0 3.2-.4 6-.6 7.6 0 .2 0 .5-.2.8l-2 10.2c-1 3.8-1.5 6.3-1.6 8.3v.2c0 4 .2 7.4.4 10l.5 3.2v1c0 4 0 7.6-.2 9.5-.2 3.8-1.5 15.6-1.5 19.2 0 5.2.4 10.4.7 13.6.6 5.6 1.6 12.7 3.3 22.7l3 15.8 1 6.8c0 .8.2 1.8 0 2.6 0 7.3 1 12.3 2 15.2.5 1.6 1.5 3.7 2.8 5.8 1.2 1.8 2.6 3.6 3.4 4.6 0 .3 0 .6.2 1 0 .6.5 2 1 4.5l3 9c1.4 4.5 2.8 8 3.8 10 .8 1.7 2.3 4.4 4 6.2 1.8 2.2 3.6 4.7 4.6 6.2 1.8 2.8 4 6.5 6.4 10.8l1.2 2.3c0 1 .3 2 .6 3l.5 2.8.2 2c0 1.8.2 4.4 0 7.6 0 2.6 0 5.2-.3 7.6l-.7 5-.7 2.6c-1 3-1.5 5-1.6 7.2v7c-3.3 3-5 6-5 8.7-.3 2 .4 3.3 1.5 4.3-.4 2-.2 4 .2 5.3.3 1.3 1.3 4 4 5 4 1.6 8 1 11.6-.7 1.6-1 3-2 4-3 1-.8 1.7-2 1.8-2.8.2-.5 0-1.2 0-1.8 0-.7-.3-1.5-.5-2.4l-1.6-6-.5-1.8c.5-1.2.8-2.5 1-3.7l.5-2c1.2-5.3 2.8-9 5-11 1.3-1 4-2 5.6-3.7 2-2.3 3-4 3.4-5.7.4-1.8 0-3.4-.8-4.6l-.8-1.4-2.3-3-2.6-3.6-1.6-3.2 1.6-4.8c2-6 4.3-13.5 5.8-21.4 1.5-7.3 1.8-12.4 1.8-15v-2c0-3.5-.5-6.8-1.3-10.6-.7-3.7-1.5-7-1.8-10.2-.5-4.2.3-9 .8-11.6.6-3.2 1.5-7 3.2-13 1.6-6 3.5-12.4 5-18.7l4.4-18.7c.8-3.6 2.6-11.5 3.8-19 1.4-8.5 1.7-14 1.7-18.4v-.8c0-1.6-.2-3.3-.4-5l.3.2.4.3c.6.2 1.3 0 1.7-.6.5-.5 1-1.7 1-2.7.5-.2 1.4-1.3 1.6-2 .8-.4 2.5-1 3-1.7 3 0 7-4 7.4-8 .8-.3 1.3-1 1.6-1.6 0-.2.3-.6.6-1v-.4c.4-.4.7-1 1-1.5l3.6-5.4c2.3-3.6 5.7-9.3 8.2-15 1.4-3.5 2.7-7 3.6-10l1-3.7.3-1.3v-1-.5c-.2-1.5-.8-3-2-4.7-1.5-2.3-4.2-5.6-7.5-9.3-2.2-2.5-4-5.4-5.6-7.7-1.3-2-3-5-4.8-8.7-1.6-3.3-3-6.5-4-9-1-2.4-1.3-3.8-1.5-4.5v-.4c-1.2-3.8-3-8-5.3-12-2.5-3.7-5.4-6.2-8.4-7.5-3-1.2-5.8-1-8-.6-.2 0-.4 0-.7.2h-.2c-.5-.2-1.4-.2-2.3 0-1.7.4-5 .4-8.3-1.2-3.8-1.7-5.5-4.4-6-7v-.7c0-1 0-2.7.2-5.3.3-2.7.8-5.6 1.4-8.8l1-6.2c.2-.2.3-.3.3-.5.4-1.7.6-3.2.7-4.5v-2c.2-.2.2-.4.2-.6.3.2.6.2 1 0h.3c.2-.3.7-.7 1-1.5l.6-1.4c.5-.7 1-2 1.7-5 .3-1.6.2-2.7 0-3.4 0-.4 0-.6-.2-.8 0 0 0-.2-.2-.3l-1-.2c-.2 0-.4.2-.6.4-.3.2-.5.5-.6.8l-.3.5v-.2-3.2c0-2.3-.2-5.2-1-8-1-3-2.3-5.7-4.8-7.8-2.5-2-5.8-3.4-10.5-3.5h-.4zm32.6 98.8c.4 1.8 1 3.6 1.8 5.5 1.8 4.2 4.4 7.4 7 10.4l4 4.3c2.8 2.8 8.2 8 12.7 16.5l-1 5.3c-.3 2.7-.8 6.2-2 10.4-1 4-2.8 7.8-4.3 10.5-.7 1.4-1.4 2.6-2 3.3l-.7 1-.3.6c-.3.3-.5 1-.7 1.5.2-.5 0 .4-.3 1-1 .3-3 .2-5 .2-1-.3-1.8-.6-2.4-.6-1.4-.2-3-.6-5-.5l.5 1.4c-1.7-3.8-3.6-7.6-5-10.3l-.4-.6-1-2c-1.2-2.4-2.6-4.3-4-6L304 261c-.4-.3-.8-.7-1-1.2-.7-.8-1.2-1.7-1.4-3.4 0-1.5 0-3.7.7-7.2.8-3.8 1.6-6.6 2.4-9l2.2-5.6.7-1.7c1.2-3 4.2-10 7.3-21.2zm5.4 75c-.3 0-.7.4-1.2.7v-.4c.4-.2.8-.4 1.2-.4zm3.7 4c-.6.4-2 2.2-2.4 3l-.4.3c0-.2 0-.3-.2-.5 0-.4-.2-.7-.3-1 1-.5 2-1 3.2-1.8zm3.7 3.2c-.6.5-1.7 2-2.2 2.4-.2.3-1.6 2.2-2 3l-.7 2.6v-.4l-.5-2.6c.7-.6 1.8-1.7 2.2-3 1-.5 2-1.4 3.2-2zM213 324.2c1 0 2 1.6 2.2 3.2 0 .8.3 1.5.6 2.4h-.4c-.8 0-1.8 0-2.7.3-.3-.5-1.2-1-2.4-1v-.6c1.7-1 .5-3 2.4-4 0-.2.3-.2.4-.2zm70.5 3.3c.5.3 1 .6 1.6.6h1c-.5 3.6-1 8-1.3 14.7-.4 7.4-.6 10.5-1 14-.2 1.7-.7 4-1.8 8.5-1.2 4.4-2.4 9-3.4 14-.7 3.6-1.2 6.3-1.4 8.4-.5 4.3-1 12.3 1 19.4l.6 2 .6 3v.3s-.3-1 0 .4c-.3-.3-.4-.6-.6-1l-2-4-1.7-3.5-.2-1c-.2-.5-.3-1-.2-1.4v-.8c0-.3 0-.8.2-1.4v-4.3-13-5l-.4-11.8-.2-9 1-3.6c.3-1.2-.7 3 1.5-5.4 1-4.4 1.8-7.7 2-10.4l.4-2.8c2.4-1.8 3.7-4 4.3-6l.2-1z" style="color:#000000;display:inline;overflow:visible;visibility:visible;fill:#ffffff;stroke:none;stroke-width:1;stroke-linecap:butt;stroke-linejoin:miter;stroke-miterlimit:4;stroke-dasharray:none;stroke-dashoffset:0;stroke-opacity:1;marker:none;enable-background:accumulate"/>
</svg>
