<?xml version="1.0" encoding="UTF-8" standalone="no"?>
<svg xmlns="http://www.w3.org/2000/svg" id="wings_angel" width="560" height="560" id="male_silhouette">
  <path id="male_silhouette_path" d="M280.7 100c-5 0-10 1.6-13.4 7-2.5 3.8-2.6 11.5-2.4 17 0 .3 0 .5-.2.7-.2 1-.3 2.4-.2 4.4 0 2 .5 4 1 5.8l.6 6.7c0 1.2.2 2.2.4 3 .2 1 .5 1.6.8 2 .2 0 .5.3.8.6 0 2.2 0 4.5.2 6v5h-.2l-3.7 3-4.5 3.5-1 .8-4.4 3.7-1.6 1.2-1 .5h-.2c-1 .2-1.3.5-2.5 1-2-.2-2.8-.2-3.7 0h-.3s-.2 0-.3.2c-.7-.2-1.4-.2-2-.2-1.6 0-3.8.6-6.4 2-2.6 1.7-5 4-7 6.7-1 1-1.7 2.2-2 3-1 1.6-2 3.8-2.5 7s-.7 6.6-.6 10l.4 9.3v.5c0 2 .2 5-.5 6.8l-1.4 4c-.6 1.7-1.3 4-2 7.2-.5 3-.8 7-1 9.4-.2 1.7-.5 3.4-1.3 5.8l-2.2 5.7c0 .4-.2.7-.4 1 0 .3 0 .7-.2 1v-.7c-.5 1.5-.8 2.8-1 4-1 4-2 10.4-1.8 20.6.2 12.7.7 19.7 1 24.4.5 5 .7 6.4.3 8.7l-.3 2.8v.4c0 .3.2.6.3.8 0 .3.3.6.4 1l.3 2c0 1.2-.4 2.2-.8 3.3v.2c-1 2.4-1 5-.5 8l.5 2.8.2 2-.4 1v.8c0 .3 0 .4.3.5 0 .2.2.2.4.4l.3.3c0 .3.2.4.4 1l1 1h1.8c.7 0 1 0 1.3-.2.3.5 1 1.8 1 2.2l.7 1c.3.3.5.5.8.6h.5l1.5.6 1.8.3c.6 0 1.2 0 1.7-.2.5 0 .7 0 1.7.3.8.2 1.5 0 2 0h.2c.5 0 1.2 0 2-.4l1.7-1.3.3.5.4 1 .4.8.4.6c.3.3 1 .5 1.2.5h.2c.2 0 .5 0 .8-.3.2-.2.4-.5.4-1v-4-.2c0-1.2-.2-3.4-1-5-.3-1-.5-2.4-.5-3.2V327c0-1.6 0-3.6-.2-4.6l-.8-2.4c-.4-1-1.7-3.2-3.5-4.8-1.8-1.7-1.5-.7-3-2-.5-.6-1-1.2-1.2-2 1-3.2 12.4-46.6 17.3-69.6.7 2.6 1.2 5 1.5 7.6.8 6.2.4 10.3-.2 13l-.3 1.4c-1.3 4-1.4 7-1 10 0 .6.2 1.2.3 1.6l.8 3.4c.4 1.5.5 3 .5 4v1l-.4 9c0 5-.4 8-1 11 0 1.3-.6 3.7-1.4 6.3-1 2.8-1.7 7.8-2.2 11.8 0 .5 0 1-.2 1.4-.4 3.2-.8 9.3-1.2 17-.3 6.8-.4 11.7-.4 15.6-.2 7-.4 15.5.2 23.6l.2 3.7c.2 2.4.4 5 .5 8.8v8c-.3 4-.8 9-1.8 14.8-1.5 8.7-1.3 6-2.2 11.8 0 .8-.2 1.4-.3 2-.2 3 0 7.2 1 14.3 1.8 12.5 1.5 8.5 3 19.8l.7 5 1.6 12.8c.5 5 .7 8.7 0 10.6-1 1.7-1 3.7-.8 4.6 0 .5 0 1 .2 1.8l.2 3c0 1-.3 1.5-.6 1.8-.8 1-1.4 2-2.4 3.8-1 1.6-2 3.7-3.7 5l-5.3 5c-2.4 2.2-4 3.5-5.2 4.2-.5.3-1 .7-1 1-.7.8-1.4 2.3-1 4.4.2 2.2 2 4.6 5.7 5.4 4.5 1 9 0 11.3-.6 1-.4 2.6-1 4-1.8 1.5-.8 3-2 3.6-3.3.8-1.6 1.4-5 1.6-5.5l.6-1.2c0-.2.3-.4.5-.5.4-.2 1-.5 2.3-.4 2.5.3 3.8-.8 4.3-1.6l.3-.7c.6-1.3.8-3.4 0-6.5-.8-3.2-.8-5-.7-5.6 0-.5 0-1 .3-1.3 0-.4.2-.6.2-.6l.3-.4s0-.3.2-.5v-.5c.2-.2.2-.5.3-1 0-1 0-2.6-.7-4.4l-.3-2V489c0-3 .2-6.8.6-10.2.5-5 1.2-8.7 1.8-11.4.5-2.2 1.6-6 3-8.3 1.3-2 2-3.8 2.4-5 .7-2.4 1.2-5.6 1.2-10 0-4-.7-8.3-1.6-12.3-1.5-6.7-2-10.3-1.6-13.5.2-1.8 1-4.5 2.7-7.4.8-1.5 1.4-3 1.7-4 .8-2.4 1.5-5.8 2.4-11.7 1-6.2 1.8-11.4 3-17.6.4-2 1-3.5 1.3-4.7.4-1.8 1.4-4 3-7.2 1.4-3.3 2.8-6.2 4-9.5.5-1.3.8-2.4 1-3.3.8-2.6 2-7.7 2.6-14.8.7-7.8.7-14.4.7-20.2l.8.8c1.4 1.2 3 2.3 4.6 3-1 2.7-1.8 6-2.4 10.5-1.2 8-1 15.6-.6 20 .2 2 .8 5.7 1.8 9.5 1 4 1.5 6.7 1.7 8 .3 2.3.3 4.3 0 6.7 0 1.7-.2 3.2 0 5 0 1.5.3 3 .8 4.7v.5c.5 1 .8 2.2 1 4 .4 1.2.6 2.6.6 3.3v2c0 1.4 0 3.4.5 6 .3 2.8 1 5.5 1.8 7.5v.3c.5 1.2 1 2.4 1.4 4 .4 1.7.6 3 .6 4 0 3-.5 5-1.5 10.7-.7 3.7-1.2 7.5-1.3 12 0 4.5.5 8.6 1 11.8l1 5c1.5 5.7 2.6 11 3 16.3.6 5 .4 8.6.2 11 0 .8-.2 1.5-.3 2-.4 1.5-.8 3-1.4 4.4-.6 1.3-1.2 2.2-1.6 2.7-1 1-1.3 2.6-1.3 4.2 0 1.3.2 2.4.3 3 .2.5.5 1.3 1 2 .3.2.4.7.5 1 .2 1 .3 3 0 5.7-.5 2.6-1.3 5.8-2.4 7.4-1 2-1.7 5.4-.7 8.4.6 2 2 3.6 4 4.6 1.8 1 4 1.3 6 1.3 4 0 9.3-.8 13-3.5 2.6-2 3.7-5 2.3-8l-4.3-8.6c-1.4-3-1.8-5-1.7-6.2 0-.3 0-.7.3-1 .7-2 1-3.4 1-4.6 0-1.5-.2-2.3-.8-5.6v-2.4l.4-4c.5-3 1.2-7 2-10.3l1.7-8c.8-3.3 2.3-8.8 3.4-12.4l1-4c.6-3 1.3-8 1.6-14.6.3-6.6 0-14-1.2-19.4-1.3-6.3-2.5-16-2.8-24-.2-3.4-.2-6.2-.2-8.5 0-1.8.3-5.2 1-8.6.4-3.6 1.2-6 2-8 0-.4.2-.8.3-1 1-3.4 2.4-8.5 3.2-15l.7-7.2c1 1 3.2-.2 4-1.4.7.3 1.5.8 2.2 1.4-1.2 0-3 .5-4 1-1 .8-.8 1.8.4 1.6 1.3-.3 2.3 0 2.7-.3.8.2 2.3.4 3.4 0 1.4-.4 2.5-1.8 4-2.5 1.7-.7 2.2-2 3.5-3.2 1.5-1.3 3-2.2 4-3.5 1-1.6 1.2-3.3 1-4-1-3.3-.5-8.8-1.8-14.2l1.6-3.3c.7-2 .8-4.2.4-6.5v-1.5c-.2-.4-.2-1-.3-2 0-1.4 0-3.3-.3-6 0-3.8-.2-10.4-.5-16.3l-1-17c-.7-6-1.2-9-1.7-10.8 0-.3-.2-.5-.3-.8-1-2.8-1.5-3.5-2.7-6.6-1-2.4-1.5-4.3-1.8-6 0-1-.2-3 0-5.6 0-3.4-.3-6-.5-7.5-.2-1.6-.7-3.7-1.4-6-.7-2-1.5-3.8-2-4.8l-.2-.8V216l1-7c.3-3 .3-5.6.2-7.7 0-2.3-.5-7-2.3-12.4-3-9-8-12.5-12-13.8l-.8-.2c-1-.7-2.2-1-3.5-1.3l-.4-.2c-.7-.5-2.2-.8-4.5-.8h-.5c-.3 0-.7-.2-1.2-.5l-2.7-1.8-6.5-5.6-1-.8-5.3-5.3c-1-1-1.5-1.8-2-2.5s-.7-1.2-.8-1.5v-.4-4.4-1.3l.5-2.6c.2-.3.5-.6.6-1 0 0 0-.2.2-.3.4-1 .8-2.7 1-5l.3-4 .5-2 .7-3.2c.6-3.3.3-5.6-.8-7.3-.2-2 0-2.6-.2-6 0-2.3-.4-5-1.3-7.8-1-2.4-2.3-4.8-4.8-6.6-2.3-1.7-5.7-2.8-10.5-3zm0 0c4.8 0 8 1.2 10.4 3 2.6 1.6 4 4 4.8 6.4l1 4c-1-6.4-4.4-13.2-16-13.2-5 0-10 1.7-13.4 7 3.5-5.4 8.4-7 13.3-7zm16.6 23.3c.5.7.8 1.6 1 2.5-.2-.8-.5-1.6-1-2.3v-.2zM317.5 230c.3 2 .6 3.6 1 4.8v.8c1 3.4 2.3 6 3.8 9.2 1 2 1.4 3 1.6 4v2.7c-.3 3 .4 8 1.2 11.6 0 .5.2.8.3 1 .8 3.5 2.3 8.2 3.7 11.5 0 .5.3 1 .5 1.4l2 6.5 3 11.5c1 4.2 1.7 8 2.3 11l.6 3.7v1.3c.2.4.2.6 0 .7l-.7 3c-.2.7 0 1.4.2 2.4-1 1.3-2.8 2.7-4.2 5.8-1.7 4-2 7.6-2.4 8.6-.6 1-.3 4.7-1 5.7-.6 1-1 2.6-1 4v-5c0 2.3.6-10.5.6-10.6v-5.8c-.2-5.6-1-14-3.4-23.3-.4-1.7-1-3.2-1.3-4.7 0-.7-.3-1.3-.4-2 0-.4-.2-1-.4-1.4 0-.6-.2-1.2-.4-1.7-2-4.6-3.5-8-4.2-10l-2-6c-.5-2.3-.7-3.8-1-4.7v-1c-.5-2-.6-3-.8-4.8-.2-1.4-.3-2.5-.8-3.4-.5-1-.8-2.4-1-3.4v-.2c-.2-1.3-.4-3.2-.3-5.5 0-3.5.6-8 2-10.7.8-1.8 1.6-4.3 2.5-7zm-85 99.4c0 .7-.2 2 .3 3.2-.7-.7-1.3-.7-2-.6v-.8c.4-1 .8-1.4 1.7-1.8zM337 333h.3c-.2 2.3 0 4 1 6l-.8 1c-.7-1.8-1.4-3-2.4-3.8 1-1.8.8-3.3 2-3.2zm-3.5 6.6s0 .2.2.3l1.3 2.6c-.7-.4-1.5-.5-2.2-.5l.2-1.2.5-1.2z" style="display:inline;fill:#ffffff;fill-opacity:1;stroke:none;stroke-width:1;stroke-linecap:butt;stroke-linejoin:miter;stroke-miterlimit:4;stroke-dasharray:none;stroke-opacity:1;enable-background:new"/>
</svg>
