<?xml version="1.0" encoding="UTF-8" standalone="no"?>
<svg xmlns="http://www.w3.org/2000/svg" id="body_head_default" width="560" height="560">
  <path id="path24484" d="M265.8 135c.6 4 .6 10.2 2 11.4 1 1.3 7.5 5.5 8.7 6.2 1 .6 5.7 1.6 8.6.4 3-1.3 9.4-5.6 10.4-8.2 1-2.7 1.4-7.3 1.4-9 0-1.6 3.2-8 .5-12.3-.6-6 2-23.2-16.6-23.2-5 0-10 1.7-13.4 7-2 3-2.5 9-2.3 17-.7 3.3 0 7.7.8 10.7z" style="fill:#ffd5d5;fill-opacity:1;stroke:#de8787;stroke-width:1;stroke-linecap:butt;stroke-linejoin:miter;stroke-miterlimit:4;stroke-opacity:1;stroke-dasharray:none;display:inline;enable-background:new"/>
</svg>
