<?xml version="1.0" encoding="UTF-8" standalone="no"?>
<!-- Created with Inkscape (http://www.inkscape.org/) -->

<svg
   xmlns:dc="http://purl.org/dc/elements/1.1/"
   xmlns:cc="http://creativecommons.org/ns#"
   xmlns:rdf="http://www.w3.org/1999/02/22-rdf-syntax-ns#"
   xmlns:svg="http://www.w3.org/2000/svg"
   xmlns="http://www.w3.org/2000/svg"
   version="1.1"
   width="560"
   height="560"
   id="body_head_default">
  <path
     d="m 265.78938,135.0002 c 0.61078,3.8774 0.62716,10.1599 1.88147,11.4143 1.25432,1.2543 7.65134,5.519 8.78022,6.1461 1.12889,0.6272 5.76986,1.6664 8.65479,0.4121 2.88493,-1.2543 9.28195,-5.5548 10.2854,-8.1888 1.00345,-2.6341 1.4524,-7.2751 1.4524,-8.9057 0,-1.6306 3.19558,-8.1166 0.46898,-12.3812 -0.62716,-5.9581 2.09243,-23.2414 -16.59689,-23.2414 -4.99617,0 -9.94174,1.7078 -13.39947,7.0951 -1.98154,3.0873 -2.56435,9.0637 -2.27949,16.9878 -0.75259,3.2612 -0.12544,7.6513 0.75259,10.6617 z"
     id="path24484"
     style="fill:#ffd5d5;fill-opacity:1;stroke:#de8787;stroke-width:1;stroke-linecap:butt;stroke-linejoin:miter;stroke-miterlimit:4;stroke-opacity:1;stroke-dasharray:none;display:inline;enable-background:new" />
</svg>
