<?xml version="1.0" encoding="UTF-8" standalone="no"?>
<!-- Created with Inkscape (http://www.inkscape.org/) -->

<svg
   xmlns:dc="http://purl.org/dc/elements/1.1/"
   xmlns:cc="http://creativecommons.org/ns#"
   xmlns:rdf="http://www.w3.org/1999/02/22-rdf-syntax-ns#"
   xmlns:svg="http://www.w3.org/2000/svg"
   xmlns="http://www.w3.org/2000/svg"
   version="1.1"
   width="560"
   height="560"
   id="body_ears_default">
  <g
     id="g112259">
    <path
       d="m 296.75544,127.7922 c -0.15049,1.4297 -1.27376,3.5199 -2.92928,5.0059 -1.65552,1.4861 -3.88554,4.4942 -4.52513,5.9615 1.80591,-2.7089 4.06779,-5.3047 5.19365,-6.0785 1.12584,-0.7739 2.33601,-2.9701 2.26076,-4.8889 z"
       id="path24532"
       style="fill:#e9afaf;stroke:none;display:inline;enable-background:new" />
    <path
       d="m 265.52192,128.2035 c 0.15049,1.4297 1.00242,3.4476 2.34145,4.8385 1.33902,1.3909 3.11893,4.2503 3.75853,5.7176 -1.80592,-2.7089 -3.41669,-5.0964 -4.36104,-5.8198 -0.94434,-0.7236 -1.81419,-2.8175 -1.73894,-4.7363 z"
       id="path24530"
       style="fill:#e9afaf;stroke:none;display:inline;enable-background:new" />
    <path
       d="m 280.28579,101.482 c -1.84277,0.3397 -3.34146,5.1223 -2.26741,6.5799 1.77039,2.4028 5.95187,1.6401 6.58516,-1.304 0.37049,-1.7224 -1.80008,-5.7405 -4.31775,-5.2759 z"
       id="path14527-7-1-0-7"
       style="fill:#ffffff;stroke:none;display:inline;enable-background:new" />
    <g
       transform="translate(-246.26492,-2413.7841)"
       id="g20631"
       style="fill:#ffd5d5;stroke:#de8787;display:inline;enable-background:new">
      <path
         d="m 543.91091,2539.113 c 0.56444,-1.2857 0.81531,-1.9442 1.41111,-1.9442 0.5958,0 1.22296,0.2822 1.22296,2.1323 0,1.8501 -0.94074,7.181 -1.34839,8.5921 -0.40766,1.4111 -1.75605,2.9163 -2.63407,1.7874"
         id="path3028-8"
         style="fill:#ffd5d5;stroke:#de8787;stroke-width:0.5;stroke-linecap:butt;stroke-linejoin:miter;stroke-miterlimit:4;stroke-opacity:1;stroke-dasharray:none" />
      <path
         d="m 544.13042,2543.1268 c 0.53308,0.8466 0.43901,1.8501 0.0941,2.4773 -0.34494,0.6271 -0.50173,1.8814 -0.12543,1.8814 0.37629,0 0.47037,-0.6585 0.50173,-1.1288 0.0314,-0.4704 0.37629,-0.9408 0.53308,-1.1289 0.15679,-0.1882 0.62116,-3.1202 0.28222,-3.6375 -0.5958,-0.9094 -0.0255,-1.8306 0.18815,-2.2578 0.50173,-1.0035 0.3643,0.1251 0.34494,1.0034 -0.0191,0.8652 -0.0206,2.0902 -0.0627,2.8536 -0.035,0.6332 -0.65852,2.5714 -0.9721,3.3867 -0.31357,0.8153 -1.03481,2.101 -0.78394,2.195 0.25086,0.094 1.00345,-1.6619 1.25431,-2.5086 0.25087,-0.8467 0.84667,-3.1044 0.94074,-4.9232 0.0941,-1.8188 0.34494,-3.324 -0.15679,-3.1358 -0.50172,0.1882 -1.56789,2.3832 -1.81876,3.1672 -0.25086,0.7839 -0.2195,1.756 -0.2195,1.756 z"
         id="path3030-1"
         style="fill:#e9afaf;stroke:none" />
    </g>
    <g
       transform="translate(-246.26492,-2413.7841)"
       id="g35894"
       style="display:inline;enable-background:new">
      <path
         d="m 511.27036,2539.471 c -0.56444,-1.2857 -0.81531,-1.9442 -1.41111,-1.9442 -0.5958,0 -1.22296,0.2822 -1.22296,2.1323 0,1.8501 0.94074,7.181 1.34839,8.5921 0.40766,1.4111 1.75605,2.9163 2.63407,1.7874"
         id="path24488"
         style="fill:#ffd5d5;stroke:#de8787;stroke-width:0.5;stroke-linecap:round;stroke-linejoin:miter;stroke-miterlimit:4;stroke-opacity:1;stroke-dasharray:none" />
      <path
         d="m 511.05085,2543.4848 c -0.53308,0.8467 -0.43901,1.8501 -0.0941,2.4773 0.34494,0.6271 0.50173,1.8814 0.12543,1.8814 -0.37629,0 -0.47037,-0.6585 -0.50173,-1.1288 -0.0313,-0.4704 -0.37629,-0.9408 -0.53308,-1.1289 -0.15679,-0.1882 -0.62116,-3.1202 -0.28222,-3.6375 0.5958,-0.9094 0.0254,-1.8306 -0.18815,-2.2578 -0.50173,-1.0035 -0.3643,0.1251 -0.34494,1.0034 0.0191,0.8652 0.0206,2.0902 0.0627,2.8536 0.035,0.6332 0.65852,2.5714 0.9721,3.3867 0.31357,0.8153 1.03481,2.1009 0.78394,2.195 -0.25086,0.094 -1.00345,-1.662 -1.25431,-2.5086 -0.25087,-0.8467 -0.84667,-3.1045 -0.94074,-4.9232 -0.0941,-1.8188 -0.34494,-3.3239 0.15679,-3.1358 0.50172,0.1881 1.56789,2.3832 1.81876,3.1672 0.25086,0.7839 0.2195,1.756 0.2195,1.756 z"
         id="path24490"
         style="fill:#e9afaf;stroke:none" />
    </g>
  </g>
</svg>
