<?xml version="1.0" encoding="UTF-8" standalone="no"?>
<svg xmlns="http://www.w3.org/2000/svg" id="brows_revulsion" width="560" height="560">
  <path id="path37208" d="m 266.41646,125.60796 c 1.30225,-1.33588 2.45064,-1.89897 3.98528,-2.1279 4.69878,-0.70094 6.89859,3.52634 7.71749,1.82524 0.0945,1.1783 -1.0534,1.89952 -1.40046,1.7514 -2.12618,-0.90741 -5.10844,-2.36073 -6.32325,-2.28824 -0.95883,0.0572 -2.28561,0.13002 -3.97906,0.8395 z" style="display:inline;fill:#ffe680;fill-opacity:1;stroke:#d4aa00;stroke-width:0.25;stroke-miterlimit:4;stroke-dasharray:none;stroke-opacity:1;enable-background:new"/>
  <path id="path37232" d="m 295.0009,125.65615 c -1.30225,-1.33588 -2.45064,-1.89897 -3.98528,-2.1279 -4.69878,-0.70094 -6.89859,3.47815 -7.71749,1.77705 -0.0945,1.1783 1.0534,1.89952 1.40046,1.7514 2.12618,-0.90741 5.10844,-2.31254 6.32325,-2.24005 0.95883,0.0572 2.28561,0.13002 3.97906,0.8395 z" style="display:inline;fill:#ffe680;fill-opacity:1;stroke:#d4aa00;stroke-width:0.25;stroke-miterlimit:4;stroke-dasharray:none;stroke-opacity:1;enable-background:new"/>
</svg>
