<?xml version="1.0" encoding="UTF-8" standalone="no"?>
<svg xmlns="http://www.w3.org/2000/svg" id="brows_fear" width="560" height="560">
  <path id="path107647" d="m 266.75738,124.12753 c 1.09296,-1.80627 1.66807,-2.86754 3.1821,-3.20697 1.51403,-0.33953 8.01106,0.31411 8.03617,-0.75665 0.43724,1.09825 -0.4481,2.13142 -0.82272,2.08611 -0.37464,-0.0454 -5.62308,-0.10106 -6.84004,-0.0963 -1.21698,0.005 -2.76083,0.19795 -3.55551,1.97385 z" style="display:inline;fill:#ffe680;fill-opacity:1;stroke:#d4aa00;stroke-width:0.25;stroke-miterlimit:4;stroke-dasharray:none;stroke-opacity:1;enable-background:new"/>
  <path id="path107657" d="m 294.75447,124.29569 c -1.03821,-1.83829 -1.58117,-2.91639 -3.08437,-3.30103 -1.50304,-0.38522 -8.01685,0.0733 -8.00981,-0.99763 -0.47001,1.0846 0.38391,2.14385 0.7597,2.10987 0.37585,-0.0342 5.62358,0.0678 6.83986,0.10903 1.21626,0.0413 2.75363,0.28083 3.49462,2.07976 z" style="display:inline;fill:#ffe680;fill-opacity:1;stroke:#d4aa00;stroke-width:0.25;stroke-miterlimit:4;stroke-dasharray:none;stroke-opacity:1;enable-background:new"/>
</svg>
