<?xml version="1.0" encoding="UTF-8" standalone="no"?>
<svg xmlns="http://www.w3.org/2000/svg" id="brows_alertness" width="560" height="560">
  <path id="right_brow" d="m 266.36827,124.39551 c 1.57633,-1.4044 2.74065,-1.8959 3.98528,-2.1279 2.5916,-0.48308 5.15114,0.15698 6.44192,0.86963 0.61994,0.34227 0.40167,1.82637 0.0603,1.66547 -2.14919,-1.01295 -4.34636,-1.31896 -6.50848,-1.2467 -0.90615,0.0303 -2.43894,-0.0222 -3.97906,0.8395 z" style="display:inline;fill:#ffe680;fill-opacity:1;stroke:#d4aa00;stroke-width:0.25;stroke-miterlimit:4;stroke-dasharray:none;stroke-opacity:1;enable-background:new"/>
  <path id="left_brow" d="m 295.20485,124.61121 c -1.00904,-1.4604 -2.44858,-2.36683 -3.99181,-2.52809 -2.66734,-0.27872 -4.7928,0.24412 -6.582,0.84112 -1.12128,0.37414 -0.30522,1.84914 0.0474,1.71487 1.72486,-0.65678 4.28674,-1.21448 6.58023,-1.0105 1.21218,0.10781 2.28785,0.24749 3.94618,0.9826 z" style="display:inline;fill:#ffe680;fill-opacity:1;stroke:#d4aa00;stroke-width:0.25;stroke-miterlimit:4;stroke-dasharray:none;stroke-opacity:1;enable-background:new"/>
</svg>
