<?xml version="1.0" encoding="UTF-8" standalone="no"?>
<!-- Created with Inkscape (http://www.inkscape.org/) -->

<svg
   xmlns:dc="http://purl.org/dc/elements/1.1/"
   xmlns:cc="http://creativecommons.org/ns#"
   xmlns:rdf="http://www.w3.org/1999/02/22-rdf-syntax-ns#"
   xmlns:svg="http://www.w3.org/2000/svg"
   xmlns="http://www.w3.org/2000/svg"
   version="1.1"
   width="560"
   height="560"
   id="brows_neutral">
  <path
     d="m 266.36827,124.3955 c 1.57633,-1.4044 2.43842,-2.2493 3.98528,-2.1279 1.54688,0.1213 7.56346,2.6589 7.90272,1.643 0.0945,1.1783 -1.05579,1.905 -1.40046,1.7514 -0.34467,-0.1537 -5.34407,-1.7522 -6.50848,-2.106 -1.16439,-0.3539 -2.69673,-0.6237 -3.97906,0.8395 z"
     id="path11239-2-2"
     style="fill:#ffe680;fill-opacity:1;stroke:#d4aa00;stroke-width:0.25;stroke-miterlimit:4;stroke-opacity:1;stroke-dasharray:none;display:inline;enable-background:new" />
  <path
     d="m 295.20485,124.6112 c -1.52462,-1.4604 -2.35564,-2.3359 -3.90588,-2.2703 -1.55026,0.065 -7.6545,2.3841 -7.95687,1.3567 -0.13695,1.1741 0.98635,1.9418 1.33634,1.8008 0.34999,-0.1412 5.40382,-1.5582 6.58023,-1.8698 1.17642,-0.3115 2.7175,-0.5259 3.94618,0.9826 z"
     id="path24504-0-9-2"
     style="fill:#ffe680;fill-opacity:1;stroke:#d4aa00;stroke-width:0.25;stroke-miterlimit:4;stroke-opacity:1;stroke-dasharray:none;display:inline;enable-background:new" />
</svg>
