<?xml version="1.0" encoding="UTF-8" standalone="no"?>
<svg xmlns="http://www.w3.org/2000/svg" id="brows_concern" width="560" height="560">
  <path id="path38009" d="m 266.4627,125.88943 c 1.49288,-1.4928 2.30491,-2.38592 3.85619,-2.35376 1.5513,0.0321 7.84028,0.99239 8.1205,-0.0413 0.16217,1.17091 -0.94439,1.96261 -1.29733,1.82911 -0.35294,-0.13361 -5.57237,-0.21495 -6.75522,-0.50114 -1.18283,-0.28629 -2.72816,-0.46744 -3.92414,1.06714 z" style="display:inline;fill:#ffe680;fill-opacity:1;stroke:#d4aa00;stroke-width:0.25;stroke-miterlimit:4;stroke-dasharray:none;stroke-opacity:1;enable-background:new"/>
  <path id="path38027" d="m 295.09127,126.18549 c -1.42571,-1.55711 -2.19761,-2.48516 -3.74882,-2.52122 -1.55119,-0.0367 -8.20312,0.85541 -8.43756,-0.18959 -0.21354,1.16261 0.85707,2.00223 1.21554,1.88445 0.35849,-0.11798 5.90319,-0.17868 7.09748,-0.41256 1.19429,-0.23379 2.7461,-0.34681 3.87336,1.23892 z" style="display:inline;fill:#ffe680;fill-opacity:1;stroke:#d4aa00;stroke-width:0.25;stroke-miterlimit:4;stroke-dasharray:none;stroke-opacity:1;enable-background:new"/>
</svg>
