<?xml version="1.0" encoding="UTF-8" standalone="no"?>
<!-- Created with Inkscape (http://www.inkscape.org/) -->

<svg
   xmlns:dc="http://purl.org/dc/elements/1.1/"
   xmlns:cc="http://creativecommons.org/ns#"
   xmlns:rdf="http://www.w3.org/1999/02/22-rdf-syntax-ns#"
   xmlns:svg="http://www.w3.org/2000/svg"
   xmlns="http://www.w3.org/2000/svg"
   version="1.1"
   width="560"
   height="560"
   id="coat_trench_2_of_2">
  <path
     d="m 335.6394,379.49944 c -13.6858,-3.37641 -18.9805,2.4077 -23.5718,3.66809 -0.013,0.003 -0.027,-0.003 -0.039,0 -0.5188,0.13398 -0.9387,0.18316 -1.296,0.12227 -0.3678,-0.0627 -1.736,0.31638 -1.9267,-3.42104 -0.2226,-0.23624 -4.1174,3.19938 -3.7558,-0.13963 -1.0191,-1.45374 -15.0481,-5.58168 -19.2722,-0.47585 -1.736,2.09829 -8.7726,1.12447 -8.7041,-0.0694 -3.1629,-2.27114 -33.4853,0.5098 -33.543,-0.64438 -0.1617,-3.2359 6.1144,-79.33636 6.1144,-87.41565 38.2848,2.46479 52.6433,-8.88676 74.4926,-18.06171 -7.0988,77.14208 3.3297,86.68466 11.5026,106.43734 z"
     id="path6336-0-1"
     style="color:#000000;fill:#d45500;fill-opacity:1;fill-rule:evenodd;stroke:#000000;stroke-width:0.48907527;stroke-linecap:butt;stroke-linejoin:miter;stroke-miterlimit:4;stroke-opacity:1;stroke-dasharray:none;stroke-dashoffset:0;marker:none;visibility:visible;display:inline;overflow:visible;enable-background:accumulate" />
  <path
     d="m 271.90625,296.59375 c 0.4685,0.94826 0.9277,1.85129 1.6875,3.5 10.1402,22.12295 5.7865,46.06111 5.9375,70.84375 0.20682,4.64749 -0.17478,8.55421 3.4375,9.46875 0.01,0.003 0.0211,-0.002 0.0312,0 1.18671,-0.1451 2.24333,-0.50607 2.78125,-1.15625 2.03426,-2.45889 6.34097,-2.77541 10.375,-2.28125 -2.0575,-1.38912 -2.85579,-4.20574 -2.1875,-6.65625 1.1448,-4.19758 2.3094,-14.50273 -1.125,-25.1875 -4.4098,-16.27309 -8.8687,-30.21048 -16.5625,-46.5625 -1.511,-0.78044 -2.9978,-1.50309 -4.375,-1.96875 z"
     id="path6386-3-3"
     style="color:#000000;fill:#aa4400;fill-opacity:1;fill-rule:evenodd;stroke:none;marker:none;visibility:visible;display:inline;overflow:visible;enable-background:accumulate" />
</svg>
