<?xml version="1.0" encoding="UTF-8" standalone="no"?>
<!-- Created with Inkscape (http://www.inkscape.org/) -->

<svg
   xmlns:dc="http://purl.org/dc/elements/1.1/"
   xmlns:cc="http://creativecommons.org/ns#"
   xmlns:rdf="http://www.w3.org/1999/02/22-rdf-syntax-ns#"
   xmlns:svg="http://www.w3.org/2000/svg"
   xmlns="http://www.w3.org/2000/svg"
   version="1.1"
   width="560"
   height="560"
   id="coat_trench_1_of_2">
  <path
     d="m 297.28125,161.53125 c -0.7569,5.02094 -2.28225,63.09295 -1.40625,72.09375 -4.59707,23.43877 11.00966,51.58431 11.21875,67.875 0.35554,27.70167 11.59224,59.34347 22.375,83.90625 1.13482,2.89498 2.19942,5.51419 3.5,7.375 0.65034,0.93041 1.34257,1.64086 2.15625,2.15625 0.15236,0.0964 0.35744,0.1981 0.53125,0.15625 5.2708,0.57648 8.10445,-1.53094 10.28125,-5.5 -0.71544,-2.00432 -2.51515,-21.79455 -4.59375,-43.75 -0.0827,0.0425 -0.16097,0.0859 -0.25,0.125 -1.6269,0.7145 -2.69342,2.1047 -4.21875,2.625 -1.03155,0.3519 -2.61195,0.0602 -3.40625,-0.125 -0.37572,0.1876 -1.34793,0.0755 -2.625,0.3125 -1.27707,0.2366 -1.37333,-0.71905 -0.34375,-1.46875 1.02959,-0.7496 3.52978,-1.21395 4.5625,-1.09375 1.26178,-1.3889 2.53823,-2.73265 3.5625,-3.34375 0.25691,-0.86034 1.36404,-2.01122 2.15625,-2.90625 -0.14908,-1.56025 -0.28581,-2.8034 -0.4375,-4.375 -1.16151,-2.19434 -2.27283,-2.46952 -3.46875,-2.5625 -1.27089,-0.099 -0.6182,1.9353 -2.46875,4.3125 0.0177,0.7417 -0.84181,1.85275 -1.40625,3.46875 5e-4,0.862 -0.51355,2.3871 -0.75,3.5625 -0.42379,2.1067 -6.41721,4.37085 -4.03125,-2.21875 0.42018,-1.4838 0.56525,-4.08585 1.34375,-5.09375 0.7785,-1.008 0.47619,-4.6135 1,-5.625 0.5238,-1.0116 0.73404,-4.76895 2.4375,-8.65625 1.461,-3.3339 3.5929,-4.70625 4.375,-5.96875 l 1.15625,0.40625 c -1.94297,-18.79476 -3.93512,-35.28428 -5.5625,-40.625 -6.15837,-20.21056 -21.40332,-97.48586 -3.53125,-104.09375 -5.0938,-1.97483 -9.68305,-3.21673 -14.40625,-4.5625 -5.4244,-1.54558 -11.0169,-3.24421 -17.75,-6.40625 z"
     id="path6338-0-9"
     style="color:#000000;fill:#d45500;fill-opacity:1;fill-rule:evenodd;stroke:#4d4d4d;stroke-width:0.48907527;stroke-linecap:butt;stroke-linejoin:miter;stroke-miterlimit:4;stroke-opacity:1;stroke-dasharray:none;stroke-dashoffset:0;marker:none;visibility:visible;display:inline;overflow:visible;enable-background:accumulate" />
  <path
     d="m 324.875,302.34375 c 2.22104,12.18507 3.38182,31.21996 4.375,33.6875 0.0803,0.19958 0.19366,0.63447 0.3125,1 0.75951,-1.03493 0.47959,-4.58881 1,-5.59375 0.5238,-1.0116 0.73404,-4.76895 2.4375,-8.65625 0.4035,-0.92076 0.852,-1.68125 1.3125,-2.34375 -2.07434,-2.95363 -4.21501,-7.39694 -6,-11.71875 -0.90708,-2.1961 -1.90211,-4.37677 -3.375,-6.3125 -0.0215,-0.0283 -0.0401,-0.036 -0.0625,-0.0625 z m 11.8125,4.625 c -0.60175,0.002 0.0301,0.0297 2.03125,0.0312 0.01,-0.0103 0.0214,-0.021 0.0312,-0.0312 0.0443,0.002 -1.37745,-0.002 -2.0625,0 z M 338.71875,307 c -2.051,2.15131 -3.25711,5.50614 -3.375,8.34375 -0.0807,1.94278 -0.3419,3.56428 -0.59375,4.46875 1.06061,-1.37017 2.12826,-2.19814 2.625,-3 l 1.1875,0.40625 C 338.5932,313.75731 338.73502,310.34678 339,307 c -0.3592,-2.1e-4 -0.004,2.2e-4 -0.28125,0 z m -2.0625,26.03125 c -0.97941,0.15007 -0.51511,2.08387 -2.25,4.3125 0.0177,0.7417 -0.84181,1.85275 -1.40625,3.46875 5e-4,0.862 -0.51355,2.3871 -0.75,3.5625 -0.0504,0.25068 -0.15878,0.51014 -0.34375,0.75 0.13754,0.50544 0.23515,0.91997 0.375,1.4375 1.03678,-0.27972 2.1646,-0.41552 2.78125,-0.34375 1.26178,-1.3889 2.53823,-2.73265 3.5625,-3.34375 0.14825,-0.49647 0.6256,-1.09992 1.125,-1.6875 -0.23066,-2.42865 -0.45393,-4.85249 -0.625,-7.28125 -0.74198,-0.66419 -1.48148,-0.81525 -2.25,-0.875 -0.0794,-0.006 -0.15346,-0.01 -0.21875,0 z m 3.625,13.40625 c -1.19629,0.73879 -2.15685,1.73007 -3.40625,2.15625 -1.03155,0.3519 -2.61195,0.0602 -3.40625,-0.125 -0.13337,0.0666 -0.35413,0.0749 -0.625,0.0937 1.1997,4.47243 2.42035,9.1406 3,11.21875 1.31153,4.70174 4.20925,16.0589 4.46875,20.3125 0.25708,4.2144 0.27864,12.79168 4.65625,11.1875 0.39952,-0.30021 0.82555,-0.5341 1.21875,-0.90625 -1.55283,-12.84575 -4.18331,-28.20589 -5.90625,-43.9375 z"
     id="path6352-6-7"
     style="color:#000000;fill:#aa4400;fill-opacity:1;fill-rule:evenodd;stroke:none;marker:none;visibility:visible;display:inline;overflow:visible;enable-background:accumulate" />
  <path
     d="m 267.59188,150.95865 c -3.38141,6.27904 -8.72086,9.95993 -14.96688,13.91635 -5.7356,2.41044 -14.286,4.40509 -15.9375,5.90625 -2.5735,22.34883 -5.42019,85.95721 0.40625,91.09375 -0.64368,1.37657 -2.17246,4.33896 -0.875,9.21875 -0.82734,7.2167 -2.29647,16.79366 -3.09375,25.90625 -0.63704,7.28092 -0.86737,13.11854 -1.03125,17.96875 0.20099,0.1587 0.39545,0.30312 0.59375,0.5 2.09383,2.0788 3.58466,5.29265 4.125,7.09375 0.54033,1.8011 -0.0156,6.85905 1.03125,9.53125 1.07199,2.7363 0.78125,7.35505 0.78125,9.15625 0,1.4232 -1.58738,1.03785 -1.96875,0.46875 -0.22468,-0.3353 -1.14515,-2.4487 -1.375,-3.125 -1.42345,0.94685 -2.65,1.37446 -3.71875,1.5625 -0.60313,18.94149 -1.33967,44.79407 -0.9375,50.3125 0.75299,0.2474 3.49631,2.3105 5.75,2.3125 -0.006,0.0297 -0.0213,0.0949 -0.0312,0.125 1.04049,0.10642 2.06112,0.2389 3.0625,0.4375 1.31441,0.26066 2.59356,0.57845 3.8125,0.9375 2.43799,0.71808 4.66797,1.58195 6.53125,2.28125 1.86348,0.69929 4.5691,1.1192 5.59375,1.25 0.51238,0.0654 5.45995,0.36927 5.71875,0.1875 0.2589,-0.18178 0.375,-0.5349 0.375,-1.03125 -0.2481,-3.72258 0.3801,-31.2622 1.0625,-58.375 0.6824,-27.11278 2.63575,-57.50223 2.71875,-59.75 0.5974,-6.91385 2.7916,-13.70594 3.5625,-20.71875 0.0721,-1.71422 0.25875,-15.67641 0.21875,-30.25 -0.33128,-17.11977 -2.65561,-32.29004 -1.9688,-47.71875 -1.87866,-9.81385 1.25808,-22.04649 0.56063,-29.1976 z M 232.53125,329.4375 c -0.26017,0.0976 -0.46846,0.20003 -0.65625,0.3125 -0.0354,1.03758 -0.0234,1.11292 -0.0625,2.28125 0.32131,0.0868 0.63284,0.2253 1,0.53125 -0.57034,-1.1407 -0.42384,-2.412 -0.28125,-3.125 z"
     id="path6314-7-3"
     style="color:#000000;fill:#d45500;fill-opacity:1;fill-rule:evenodd;stroke:#803300;stroke-width:0.48907527;stroke-linecap:butt;stroke-linejoin:miter;stroke-miterlimit:4;stroke-opacity:1;stroke-dasharray:none;stroke-dashoffset:0;marker:none;visibility:visible;display:inline;overflow:visible;enable-background:accumulate" />
  <path
     d="m 262.75,321.96875 c -1.48452,22.26781 -7.89564,58.88474 -9.875,65.8125 -1.97936,6.92777 -5.45814,0.50058 -7.4375,-5.4375 -1.82283,-5.46849 -3.64083,-29.778 -3.53125,-36.6875 -0.91821,18.67201 -0.92367,34.33047 -1.40625,39.15625 -0.49484,4.9484 -8.40625,3.97965 -8.40625,-0.96875 0,-4.9484 -0.005,-20.28096 -0.5,-23.25 -0.23416,0.39922 -0.43574,0.79154 -0.65625,1.1875 -0.34342,13.08423 -0.5705,25.14725 -0.3125,28.6875 0.75299,0.2474 3.49631,2.3105 5.75,2.3125 -0.006,0.0297 -0.0214,0.0949 -0.0312,0.125 1.04049,0.10642 2.06112,0.2389 3.0625,0.4375 1.31441,0.26066 2.59356,0.57845 3.8125,0.9375 2.43799,0.71808 4.66797,1.58195 6.53125,2.28125 1.86348,0.69929 4.5691,1.1192 5.59375,1.25 0.51238,0.0654 5.45995,0.36927 5.71875,0.1875 0.2589,-0.18178 0.375,-0.5349 0.375,-1.03125 -0.2481,-3.72258 0.3801,-31.2622 1.0625,-58.375 0.13147,-5.22337 0.29665,-10.5393 0.5,-15.78125 -0.0895,-0.28365 -0.15892,-0.55845 -0.25,-0.84375 z m -20.84375,23.6875 c 0.0233,-0.47445 0.038,-0.92802 0.0625,-1.40625 -0.0391,0.31306 -0.0531,0.81291 -0.0625,1.40625 z"
     id="path293547"
     style="color:#000000;fill:#aa4400;fill-opacity:1;stroke:none;marker:none;visibility:visible;display:inline;overflow:visible;enable-background:accumulate" />
  <path
     d="m 308.89818,173.54895 c 13.81622,-5.81736 25.45093,7.27169 25.45093,7.27169 l -19.26999,26.1781 c 0,-12.72546 -3.63585,-32.35904 -6.18094,-33.44979 z"
     id="path293390-1"
     style="color:#000000;fill:#d45500;fill-opacity:1;stroke:none;stroke-width:0.5;marker:none;visibility:visible;display:inline;overflow:visible;enable-background:accumulate" />
  <path
     d="m 294.38679,165.34733 c -0.54359,-0.88589 -1.01113,-1.73467 -1.57837,-2.63279 0.60282,0.57619 1.20591,1.08461 1.82797,1.347 1.48203,0.62505 3.59693,1.05842 6.24021,1.6218 2.64339,0.56339 14.75465,4.14902 13.59153,3.37193 -2.94622,-1.96828 2.86806,0.74612 6.2606,1.34736 1.69632,0.30063 3.32387,0.59399 4.80267,0.92243 1.47891,0.32844 2.79793,0.70518 3.90211,1.16544 -0.80004,-0.0414 -1.58461,-0.0268 -2.2969,0.14623 -0.8253,0.20058 -1.60326,0.51599 -2.31767,0.97111 -0.71432,0.45511 -1.36479,1.05134 -1.97356,1.72392 -0.44626,0.49292 -0.8488,1.0818 -1.24324,1.67063 -0.0179,-0.0199 -0.10453,-0.0181 -0.11835,-0.0393 -1.68612,-2.56847 -11.20778,-2.67299 -12.4909,-4.2052 -1.28293,-1.5322 -4.49363,-3.27748 -6.39713,-3.48207 -1.90321,-0.20459 -0.67454,-0.39527 -7.7744,-3.72067 -0.18692,-0.0706 -0.25665,-0.13846 -0.43457,-0.20788 z"
     id="path6350-1-8"
     style="color:#000000;fill:#aa4400;fill-opacity:1;fill-rule:evenodd;stroke:none;stroke-width:0.5;marker:none;visibility:visible;display:inline;overflow:visible;enable-background:accumulate" />
  <path
     d="m 299.1853,180.93352 c 1.5058,11.60234 8.5011,39.01536 9.4474,52.25072 0.9461,13.23538 1.31807,33.33682 3.61226,35.05524 1.57449,0.71584 2.34892,-2.09098 2.81596,-4.37354 0.46662,-2.28255 1.98092,-4.65666 2.93939,-2.92697 0.95829,1.72974 -1.19114,4.98324 -1.38136,7.29279 -0.19005,2.30955 0.59445,8.84727 1.77462,11.90714 1.18019,3.05986 3.74216,8.7933 6.82326,9.36595 3.0812,0.57263 -1.98638,-28.46109 -3.26591,-30.15143 -1.27936,-1.69034 -3.65625,-6.0175 -3.45303,-8.10835 0.20324,-2.09085 1.19818,-2.29498 -1.24782,-7.88711 -2.44599,-5.59216 -2.62941,-7.4136 -3.14068,-10.70157 -0.51137,-3.28795 -12.63079,-47.31515 -14.92409,-51.72287 z"
     id="path6342-5-0"
     style="color:#000000;fill:#aa4400;fill-opacity:1;fill-rule:evenodd;stroke:none;marker:none;visibility:visible;display:inline;overflow:visible;enable-background:accumulate" />
  <path
     d="m 318.5023,179.29963 c -3.4224,9.84354 -16.36234,55.69067 -17.63097,67.63005 2.33164,2.66655 -1.62554,9.08526 -0.41178,8.66613 1.21375,-0.41914 5.38468,4.10366 1.81045,9.03911 -1.20106,2.26796 4.36879,22.8837 9.04549,32.90567 4.6766,10.02195 5.13069,16.39994 6.24222,18.79047 1.11162,2.3906 -0.83567,-11.08037 -0.59662,-17.98005 0.23896,-6.89969 2.75451,-7.40237 3.52086,1.12986 0.43862,4.88221 1.27827,7.63288 2.24702,9.96498 0.0306,0.57175 0.0837,1.16326 0.15969,1.71538 0.19753,1.42641 -0.0965,6.59563 -0.44257,11.61998 -0.19172,2.78006 -0.38718,5.41876 -0.58458,7.61179 -5.6728,-6.59677 -11.7752,-24.04294 -16.74661,-40.84662 -3.513,-15.64918 -6.24493,-34.47184 -10.45043,-41.95087 -5.3472,-17.50253 5.43991,-48.0304 11.07231,-65.38239 -7.8929,6.27031 -7.80148,-0.62816 -7.80148,-0.62816 l 11.3034,-10.77795 z"
     id="path6378-2-4"
     style="color:#000000;fill:#aa4400;fill-opacity:1;fill-rule:evenodd;stroke:none;marker:none;visibility:visible;display:inline;overflow:visible;enable-background:accumulate" />
  <path
     d="m 302.5513,154.94222 c 1.3321,1.64296 2.7056,3.31599 3.6818,4.87245 1.3782,2.19757 2.4479,4.25035 3.2314,6.01614 1.5668,3.53157 2.0732,5.88043 2.0732,5.88043 l -10.87046,6.15921 14.67604,-3.55171 c 0,0 -13.08448,57.38787 -15.38109,64.51038 -0.57399,1.78063 -1.02628,3.39228 -1.30451,4.87587 -0.27794,1.48359 -0.38051,2.83516 -0.37594,4.12501 0.004,1.28985 0.13298,2.49208 0.4133,3.68783 0.28014,1.19575 0.69392,2.38132 1.22525,3.5821 1.3783,3.11389 3.11361,10.48309 3.93569,18.68904 0.80443,8.02933 3.92463,16.01789 6.24157,22.74484 0.5513,1.60063 -2.56029,2.74037 -3.13239,4.02566 0,0 -0.19932,-0.42176 -0.24086,-0.52016 -0.39126,-0.92514 -1.18919,-3.11019 -2.7156,-6.32342 -1.52633,-3.21324 -2.84115,-7.31397 -3.64754,-11.67691 -1.61279,-8.72591 -2.99493,-18.33146 -4.71588,-23.05078 -0.86057,-2.35966 -1.67862,-4.52524 -2.37526,-6.68209 -0.3482,-1.07843 -0.66093,-2.14933 -0.94531,-3.25065 -0.28448,-1.10131 -0.50241,-2.23009 -0.6529,-3.40979 -0.30136,-2.35937 -0.35507,-4.92147 -0.23787,-7.88154 0.1171,-2.96007 0.41762,-6.3098 0.74078,-10.26198 0.64671,-7.90435 0.65928,-23.22697 0.48925,-36.83888 -0.16983,-13.61192 0.13978,-25.36226 0.3995,-27.01959 0.82363,-5.2557 1.89672,-9.87364 1.97177,-14.95572 2.8718,1.01488 4.93702,4.3976 7.51602,6.25426 z"
     id="path6344-7-8"
     style="color:#000000;fill:#d45500;fill-opacity:1;fill-rule:evenodd;stroke:#803300;stroke-width:0.48907527;stroke-linecap:butt;stroke-linejoin:miter;stroke-miterlimit:4;stroke-opacity:1;stroke-dasharray:none;stroke-dashoffset:0;marker:none;visibility:visible;display:inline;overflow:visible;enable-background:accumulate" />
  <path
     d="m 326.4521,314.14986 c 0.3929,-3.45464 0.5833,-8.18586 0.3781,-12.66354 -0.2162,-4.71895 -0.7493,-8.92409 -1.1706,-10.08449 -0.4216,-1.16036 -0.7216,-2.41018 -0.8252,-3.42915 -0.1042,-1.01895 -0.024,-1.80546 0.3587,-2.01259 0.1914,-0.10359 0.403,-0.29876 0.5355,-0.64185 0.1323,-0.34306 0.2023,-0.83351 0.1189,-1.5736 -0.083,-0.74006 -0.3265,-1.74086 -0.7694,-3.02904 -0.4434,-1.28806 -1.0973,-2.87428 -1.9916,-4.83826 -0.8942,-1.96402 -1.5491,-4.09988 -1.9735,-6.22281 -0.4242,-2.12299 -0.621,-4.2322 -0.6299,-6.14075 -0.01,-1.90852 0.175,-3.62842 0.4624,-5.04832 0.2875,-1.4199 0.6895,-2.53343 1.0977,-3.27107 0.4084,-0.73765 0.6736,-1.53313 0.8286,-2.33431 0.1551,-0.80115 0.1926,-1.60349 0.1167,-2.36167 -0.076,-0.75813 -0.2509,-1.47809 -0.5393,-2.1089 -0.2883,-0.63081 -0.6862,-1.19489 -1.1712,-1.63841 -0.4851,-0.44352 -1.7295,-1.30785 -2.1713,-1.79949 -0.4417,-0.49163 -0.8691,-1.08385 -1.2467,-1.89773 -0.3776,-0.81388 -0.7065,-1.84128 -0.9223,-3.22189 -0.2157,-1.38061 -0.3169,-3.12019 -0.2212,-5.31021 0.1911,-4.37999 0.3864,-6.65036 0.3805,-7.96524 -0.01,-1.31488 -0.144,-1.66189 -0.3245,-2.16733 -0.1804,-0.50545 -0.5175,-1.17294 -0.6967,-2.2119 -0.089,-0.51946 -0.1356,-1.13998 -0.1124,-1.86623 0.023,-0.72625 0.1174,-1.56181 0.3339,-2.5425 0.194,-1.06952 0.1605,-1.9234 0,-2.87448 -0.1591,-0.95108 -0.4397,-1.98684 -0.7372,-3.47658 -0.1488,-0.74487 0.031,-3.49575 0.3456,-7.31145 0.1569,-1.90785 0.8956,-4.17379 0.9386,-6.47038 0.041,-2.29661 0.2142,-4.68791 0.5167,-7.0794 0.3023,-2.39151 0.7403,-4.765 1.3721,-6.96426 0.632,-2.19924 1.4401,-4.23347 2.4496,-5.94222 0.5047,-0.8544 1.0685,-1.61694 1.6746,-2.29194 0.6063,-0.67498 1.2542,-1.27379 1.9668,-1.73173 0.7125,-0.45795 1.4892,-0.77645 2.3138,-0.98029 0.7115,-0.17592 1.4962,-0.19355 2.2963,-0.15536 0.2818,0.11611 0.689,0.16605 0.9389,0.29574 4.1735,2.16593 9.7091,12.35907 7.9257,26.42121 3.6716,4.4111 1.7397,12.30386 1.6765,14.742 -0.063,2.43814 2.0184,21.93748 5.7366,39.58696 3.5467,13.22103 7.0033,39.26651 7.3679,42.6272 5e-4,0.007 0.012,0.0279 0.015,0.0341 -0.065,0.0387 -0.1215,0.072 -0.1863,0.11039 0.3919,3.15814 0.672,8.0965 0.3173,12.25897 -0.355,4.16245 1.5679,8.59372 1.0585,8.88923 -2.7178,-1.95203 -10.212,3.69855 -14.9005,2.22312 -2.3442,-0.73772 -4.7282,-1.63006 -6.9475,-2.53697 -1.9707,-0.80534 -3.7419,-1.47875 -5.3819,-2.06296 -0.1634,-0.25097 -0.473,-0.71982 -0.6022,-0.92966 z"
     id="path6346-0-0"
     style="color:#000000;fill:#d45500;fill-opacity:1;fill-rule:evenodd;stroke:#803300;stroke-width:0.48907527;stroke-linecap:butt;stroke-linejoin:miter;stroke-miterlimit:4;stroke-opacity:1;stroke-dasharray:none;stroke-dashoffset:0;marker:none;visibility:visible;display:inline;overflow:visible;enable-background:accumulate" />
  <path
     d="m 320.1245,180.18393 c 0.3579,-0.83141 0.6283,-1.80782 1.0574,-2.53411 0.5047,-0.85439 1.0684,-1.61695 1.6747,-2.29193 0.6061,-0.67499 1.2542,-1.2738 1.9667,-1.73174 0.7126,-0.45795 1.4893,-0.77645 2.3138,-0.9803 0.7116,-0.1759 1.4961,-0.19355 2.2963,-0.15535 0.2819,0.11611 0.689,0.16605 0.9389,0.29573 0.5216,0.27074 1.0591,0.66011 1.5785,1.16008 0.5196,0.49999 1.028,1.10682 1.5291,1.82914 1.0022,1.44466 1.9299,3.34327 2.7687,5.63123 0.8388,2.28797 1.5757,4.96948 2.1416,8.03263 0.5659,3.06318 0.3536,6.25259 -0.092,9.7681 0.9179,1.10278 0.9008,2.51771 1.2907,3.92023 0.3896,1.40253 0.5578,2.87985 0.6229,4.28122 0.1301,2.80274 -0.2056,5.32148 -0.2372,6.54054 -0.015,0.60954 0.1257,2.33352 0.2697,4.77928 0.1442,2.44575 0.2841,5.61471 0.5294,9.2006 0.2454,3.58591 0.6254,7.60677 1.1922,11.81532 0.2834,2.10428 1.6558,4.80353 2.1873,7.05752 0.5314,2.254 1.0931,4.52811 1.5579,6.73429 0.4434,1.65263 0.8328,3.48528 1.196,5.43826 0.3639,1.95297 0.7195,4.03463 1.0966,6.18339 0.7543,4.29748 1.6199,8.8786 2.4298,13.1982 0.8101,4.3196 1.4932,8.35035 1.9298,11.5142 0.4364,3.16383 0.6241,5.45298 0.7152,6.29315 5e-4,0.007 0.012,0.0279 0.015,0.0341 -0.065,0.0387 -0.1214,0.072 -0.186,0.11039 0.3918,3.15813 0.6719,8.09649 0.3172,12.25895 -0.3549,4.16245 1.5679,8.59373 1.0586,8.88924 -2.7179,-1.95203 -10.212,3.69936 -14.9007,2.22379 -2.1681,-0.68246 -4.3539,-1.46639 -6.4282,-2.30326 8e-4,-0.23233 -0.049,-0.48245 0.063,-0.67408 2.7979,-4.80859 6.9841,-2.79112 8.8125,-3.42571 1.8285,-0.63453 1.2284,-8.32931 -0.1954,-11.65899 -1.4237,-3.32976 -3.4783,-8.09547 -9.8194,-16.37948 -6.3409,-8.28409 -3.8925,-6.67652 -0.2525,-4.2668 3.64,2.40969 13.3729,12.51629 14.7643,9.99027 1.3913,-2.526 3.6298,-5.98657 -4.2139,-10.56255 -7.8436,-4.576 -0.5749,-7.61293 0.011,-12.77348 0.5859,-5.1606 -2.2041,-6.39198 -6.5682,-9.93909 -8.6202,-6.70277 -0.9282,-8.65755 1.6154,-8.16501 10.23,0.48082 1.6062,-8.51519 -0.4946,-10.73439 -2.1007,-2.21917 -4.9545,-6.26211 -3.7771,-10.25614 1.1775,-3.99404 -1.9647,-9.87697 -3.1391,-13.60561 -1.1742,-3.72862 -3.5321,-18.75393 -4.0257,-21.48986 -0.4936,-2.73592 3.0609,-6.98 -1.3193,-6.55793 -4.3801,0.42206 -0.8176,-4.18191 0.8402,-6.51497 1.6187,-2.27773 -1.3324,-4.03669 -5.1321,-0.1792 z"
     id="path6348-6-5"
     style="color:#000000;fill:#aa4400;fill-opacity:1;fill-rule:evenodd;stroke:none;marker:none;visibility:visible;display:inline;overflow:visible;enable-background:accumulate" />
  <path
     d="m 236.69367,172.05508 c 15.05332,-4.08542 24.95609,6.77685 24.95609,6.77685 l -18.77515,26.67294 c 0,-12.72546 -3.63585,-32.35904 -6.18094,-33.44979 z"
     id="path293390"
     style="color:#000000;fill:#d45500;fill-opacity:1;stroke:none;stroke-width:0.5;marker:none;visibility:visible;display:inline;overflow:visible;enable-background:accumulate" />
  <path
     d="m 236.75275,170.84813 c 0.9124,0.12201 1.77656,0.36904 2.55952,0.89162 0.88605,0.59141 1.6844,1.45113 2.41366,2.49625 0.72936,1.04512 1.36966,2.30468 1.94913,3.74239 0.57937,1.43771 1.09087,3.04767 1.5262,4.81753 0.87055,3.53972 1.35564,7.61965 1.31949,11.93139 -0.0361,4.31175 -0.27918,8.89188 -0.6476,13.48947 -0.36832,4.5976 -0.8933,9.22412 -1.5833,13.6831 -0.69055,4.45895 -1.54534,8.76306 -2.45179,12.65376 -1.81323,7.78137 -1.90194,12.97469 -2.28022,15.0985 -0.75655,4.24762 -3.39306,21.23948 -2.7341,36.51473 0.81521,11.72831 0.26986,28.75851 0.51026,33.57298 -0.3181,0.72279 -1.76873,0.68579 -2.19221,0.27956 -0.23111,-0.50998 0.65945,-1.67317 0.58225,-1.60467 -3.48166,-2.9318 -23.36701,-5.39938 -26.50563,0.70329 -0.49942,-0.0144 -1.01825,-0.57876 -1.06378,-0.94584 -0.95666,-7.70266 -0.78737,-31.46428 -0.3059,-39.58791 0.48148,-8.1236 -0.21476,-22.26972 5.6527,-36.90778 1.65042,-3.99122 2.38305,-11.15185 2.69285,-13.53834 0.98308,-7.57321 4.09487,-19.92474 5.38367,-28.14509 4.49695,-28.68298 12.29517,-28.81712 15.08317,-29.08386 0.0125,-0.001 0.083,-0.0537 0.091,-0.0611 z"
     id="path6324-7-4"
     style="color:#000000;fill:#d45500;fill-opacity:1;fill-rule:evenodd;stroke:#803300;stroke-width:0.48907527;stroke-linecap:butt;stroke-linejoin:miter;stroke-miterlimit:4;stroke-opacity:1;stroke-dasharray:none;stroke-dashoffset:0;marker:none;visibility:visible;display:inline;overflow:visible;enable-background:accumulate" />
  <path
     d="m 244.71534,209.63362 c -0.83816,4.04335 -1.85814,8.09691 -2.9069,12.01812 -1.18012,4.41 -2.30771,8.68682 -3.21416,12.57752 -1.81323,7.78138 -1.01665,13.07491 -1.13148,15.22699 -0.22966,4.30415 0.86809,22.66319 -0.63906,36.71062 0.40765,5.86416 0.45296,13.10913 0.49782,19.45013 0.0391,5.52197 0.0424,9.6004 0.0808,12.33776 -0.57127,-2.60295 -5.064,-5.79803 -11.2379,-6.91803 10.81862,-3.17666 0.0457,-23.86124 2.42621,-32.41165 2.38037,-8.55043 0.065,-23.02952 -1.51181,-28.77373 -1.57684,-5.74418 3.01438,-7.28483 6.2278,-11.01479 3.21319,-3.72995 7.27624,-18.58842 11.32296,-29.5045 0.0461,0.0913 0.0413,0.20946 0.0859,0.30156 z"
     id="path6380-4-6"
     style="color:#000000;fill:#aa4400;fill-opacity:1;fill-rule:evenodd;stroke:none;marker:none;visibility:visible;display:inline;overflow:visible;enable-background:accumulate" />
  <path
     d="m 245.9375,193.3125 c -3.00244,8.79288 -10.0845,33.7599 -6.28125,55.5625 0.31131,-2.43366 0.53859,-7.23629 2.1875,-14.3125 0.90645,-3.8907 1.74695,-8.1973 2.4375,-12.65625 0.69,-4.45898 1.22543,-9.0899 1.59375,-13.6875 0.0921,-1.1494 0.17484,-2.29421 0.25,-3.4375 0.0123,-3.97124 -0.0364,-7.91863 -0.1875,-11.46875 z"
     id="path293527"
     style="color:#000000;fill:#aa4400;fill-opacity:1;stroke:none;marker:none;visibility:visible;display:inline;overflow:visible;enable-background:accumulate" />
  <path
     d="m 251.7216,184.89225 c 3.93744,10.36523 -0.79097,47.12434 -2.14279,60.38866 -1.35163,13.26435 2.45625,33.56167 0.17381,34.88113 -1.58209,0.50234 -2.46462,-1.92996 -3.0005,-4.05355 -0.53545,-2.12358 -2.11755,-4.50035 -3.05038,-2.82053 -0.93266,1.67987 1.33266,4.63134 1.6045,6.5323 0.27167,1.90096 -0.25979,6.71379 -1.31202,8.93464 -1.05225,2.22084 -3.3384,7.03377 -6.38441,7.60391 -3.04611,0.57013 0.82364,-22.95247 2.07885,-24.64107 1.25503,-1.6886 3.60631,-6.01393 3.39429,-8.10415 -0.21204,-2.09022 -1.24583,-2.29158 1.29423,-7.89043 2.54005,-5.59888 0.76903,-6.92726 1.38307,-10.22257 0.61414,-3.29529 6.14221,-42.09768 5.96131,-60.60834 z"
     id="path6342-5-0-5"
     style="color:#000000;fill:#aa4400;fill-opacity:1;fill-rule:evenodd;stroke:none;marker:none;visibility:visible;display:inline;overflow:visible;enable-background:accumulate" />
  <path
     d="m 245.87308,177.32027 c 3.4224,9.84354 15.61889,57.66969 15.65263,69.25624 -2.62166,2.58369 0.82305,8.90059 -0.37311,8.48729 -1.19615,-0.41329 -5.61312,4.26606 -1.79896,9.50112 1.32083,2.42133 0.58834,26.65035 -2.9213,37.24667 -3.50953,10.59631 -5.66315,17.66538 -6.30244,19.53954 -0.63936,1.87422 -2.00632,-8.24919 -2.78033,-15.41186 -0.77391,-7.16269 -3.55289,-7.36116 -3.51642,1.32398 0.0208,4.96971 -0.057,7.07226 -0.47346,8.91097 0.10048,0.45744 0.18564,0.92281 0.23951,1.3516 0.13815,1.10775 1.75523,4.92581 2.7269,8.85565 0.53788,2.17445 0.83433,4.36992 0.96903,6.31218 5.85981,-5.84874 11.29585,-21.30278 14.19291,-39.78274 1.64662,-17.10933 3.27507,-31.40345 7.48057,-38.88248 5.3472,-17.50253 -5.43991,-80.44243 -6.61875,-88.14504 -6.95231,-2.63681 -10.26019,7.04187 -10.26019,7.04187 l 8.49021,3.57241 z"
     id="path6378-2-4-2"
     style="color:#000000;fill:#aa4400;fill-opacity:1;fill-rule:evenodd;stroke:none;marker:none;visibility:visible;display:inline;overflow:visible;enable-background:accumulate" />
  <path
     d="m 268.7347,256.47507 c -3.5784,-28.66322 -14.5115,-53.30551 -21.024,-81.41939 2.9851,0.5288 11.4339,1.00367 15.2112,1.49456 -1.6062,-1.50213 -9.99333,-4.48952 -11.92443,-5.51654 2.7817,-6.30684 6.7406,-11.95477 9.4839,-16.73315 1.4713,-1.10831 6.38294,-4.75405 7.68364,-5.72086 -0.211,1.86237 0.54626,6.36072 0.52132,8.36546 -0.043,2.98323 0.14977,4.57398 -0.20123,8.17139 -0.3509,3.59743 -0.8073,7.6312 -0.917,11.79894 -0.055,2.08387 -0.016,4.2128 0.1379,6.3175 0.152,2.1047 0.4099,4.18795 0.8739,6.23743 0.4639,2.04948 0.8892,6.40737 1.2262,11.79113 0.3369,5.38376 0.6004,11.79261 0.8014,18.05954 0.4023,12.53385 0.6636,24.4871 0.6516,25.9681 -1.0677,3.23728 0.1322,8.71899 -2.5244,11.18589 z"
     id="path6316-6-0"
     style="color:#000000;fill:#d45500;fill-opacity:1;stroke:#803300;stroke-width:0.48907527;stroke-linecap:butt;stroke-linejoin:miter;stroke-miterlimit:4;stroke-opacity:1;stroke-dasharray:none;stroke-dashoffset:0;marker:none;visibility:visible;display:inline;overflow:visible;enable-background:accumulate" />
</svg>
