<?xml version="1.0" encoding="UTF-8" standalone="no"?>
<!-- Created with Inkscape (http://www.inkscape.org/) -->

<svg
   xmlns:dc="http://purl.org/dc/elements/1.1/"
   xmlns:cc="http://creativecommons.org/ns#"
   xmlns:rdf="http://www.w3.org/1999/02/22-rdf-syntax-ns#"
   xmlns:svg="http://www.w3.org/2000/svg"
   xmlns="http://www.w3.org/2000/svg"
   version="1.1"
   width="560"
   height="560"
   id="coat_lab">
  <path
     d="m 233.56668,174.73579 c 1.52034,-2.32884 6.33735,-4.33701 8.3682,-5.12524 2.03086,-0.78823 5.03072,-3.21382 6.63934,-4.54119 1.60862,-1.32735 6.37907,-2.32371 7.82639,-1.92035 1.44732,0.40336 3.23369,-0.90448 4.5828,-2.012 1.3491,-1.10753 3.02683,-3.68276 5.40154,-6.95766 2.37472,-3.27489 11.1546,1.50121 18.14634,2.08467 4.33797,0.36202 9.49313,-1.70735 10.98307,-4.09929 0,0 0.41999,4.08548 1.0693,5.92096 1.28497,-0.38892 0.89449,1.07342 2.53139,1.49143 1.63688,0.41802 0.72997,3.64978 3.54696,4.9065 2.81698,1.25671 3.04592,1.03199 5.34628,0.34603 2.30036,-0.68599 3.80003,0.33271 5.45432,1.89034 1.65429,1.55766 4.01481,-0.36464 10.11445,6.84568 2.29916,2.02914 6.68082,4.24621 6.94882,5.73074 2.3461,-0.44672 3.14578,1.38424 2.86936,2.47257 -1.74183,6.85806 -5.15157,25.70544 -7.26264,32.39685 -1.00837,3.19626 0.57229,25.56777 -1.89951,38.88441 -2.47179,13.31666 -3.58895,14.59582 -1.75932,19.76665 1.82962,5.17084 7.18928,30.42922 7.02459,41.31657 -0.16469,10.88736 -1.26994,69.15722 -1.40546,82.03387 -0.13557,12.87666 1.5899,33.27723 1.28706,39.45628 -0.30284,6.17904 -1.78325,21.21962 -1.38584,23.22113 0.39742,2.00153 -5.95123,5.15896 -9.47206,6.22518 -3.52084,1.06622 -10.53829,2.70433 -13.07047,3.819 -2.5322,1.11469 -30.62132,13.1168 -46.66264,11.83513 -5.07542,-0.40553 -10.55594,0.22251 -11.98217,-0.25007 -4.94959,-1.64007 -10.83125,-6.21489 -10.80307,-6.8324 0.0449,-0.98517 -0.41263,-12.3769 -0.45387,-16.59078 -0.0412,-4.21387 0.1134,-48.30559 0.51982,-51.03825 0.40641,-2.73267 1.61468,-6.42957 1.20889,-7.95261 -0.40579,-1.52307 -0.37245,-14.55678 0.88393,-23.02696 1.25639,-8.47023 2.1505,-10.937 1.51539,-12.72506 -0.6351,-1.78807 -1.95065,-4.6137 -1.56738,-6.85313 0.38329,-2.23945 1.44915,-24.24887 1.37674,-27.25632 -0.0724,-3.00745 -2.00987,-11.3101 -1.50419,-15.50695 0.50567,-4.19685 0.67206,-8.89725 0.56434,-10.6371 -0.10773,-1.73981 0.63937,-9.7829 1.09529,-11.33532 0.85971,-2.92726 5.52012,-10.36342 4.76497,-15.50766 -0.75516,-5.14425 -2.08978,-10.3356 -2.77871,-12.32968 -0.68892,-1.99407 -2.35383,-4.7945 -2.44548,-7.23786 -0.0916,-2.44335 0.7584,-10.42087 0.68043,-12.62171 -0.078,-2.20083 1.73318,-8.4486 1.45602,-11.61434 1.56072,-16.86133 -19.79777,-49.07175 -7.75316,-56.67203 z"
     id="path5520"
     style="color:#000000;fill:#e6e6e6;stroke:#b3b3b3;stroke-width:1;stroke-linecap:butt;stroke-linejoin:miter;stroke-miterlimit:4;stroke-opacity:1;stroke-dasharray:none;stroke-dashoffset:0;marker:none;visibility:visible;display:inline;overflow:visible;enable-background:accumulate" />
  <path
     d="m 268.625,153.0625 c -0.96749,0.0966 -1.75855,0.44725 -2.25,1.125 -2.37471,3.2749 -4.05715,5.82997 -5.40625,6.9375 -1.34911,1.10752 -3.11518,2.43461 -4.5625,2.03125 -1.44732,-0.40336 -6.23513,0.5789 -7.84375,1.90625 -1.60862,1.32737 -4.59414,3.77427 -6.625,4.5625 -2.03085,0.78823 -6.85466,2.79616 -8.375,5.125 -4.61318,2.91096 -4.30371,9.42629 -2.28125,17.3125 1.75367,-0.29849 3.68202,-0.40689 4.9375,-2.53125 1.50992,-2.55487 -2.57494,-8.88586 -3.65625,-10.84375 -1.08131,-1.9579 8.21659,-9.31469 9.71875,-7.1875 1.50215,2.12721 0.027,6.65239 0.90625,8.75 0.65263,1.55707 -0.0553,13.51546 0.625,13.09375 0.68031,-0.42171 0.75331,-1.27941 1.25,-5.28125 0.49669,-4.00185 -0.30076,-7.88426 -0.125,-13.1875 0.17575,-5.30324 5.85377,-7.94437 8.25,-8.6875 2.39621,-0.74314 3.68025,-0.98969 5.03125,-2.09375 1.351,-1.10406 3.69731,-3.78021 4.875,-2.28125 -0.33361,-1.03415 -0.4132,-2.67748 1.5625,-3.84375 1.97569,-1.16626 4.53658,0.0193 4.0625,1.96875 0.48381,-0.82338 0.71077,-2.15797 0.15625,-2.96875 -0.55452,-0.81078 -1.31511,0.50394 -0.15625,-1 0.8422,-1.093 2.71641,0.14359 6.34375,2.28125 -3.84326,-4.30791 -7.57422,-3.7102 -7.3125,-4.3125 0.26172,-0.60229 1.3025,-0.49397 2.6875,0.28125 -0.57548,-0.45927 -1.17494,-0.84065 -1.8125,-1.15625 z"
     id="path3039"
     style="color:#000000;fill:#cccccc;stroke:none;marker:none;visibility:visible;display:inline;overflow:visible;enable-background:accumulate" />
  <path
     d="m 249.93205,172.48133 a 2.274742,1.6410827 2.80585 0 1 -4.54403,-0.2227 2.274742,1.6410827 2.80585 1 1 4.54403,0.2227 z"
     id="path5543-36"
     style="color:#000000;fill:#333333;stroke:#000000;stroke-width:1;stroke-linecap:round;stroke-linejoin:miter;stroke-miterlimit:4;stroke-opacity:1;stroke-dasharray:none;stroke-dashoffset:0;marker:none;visibility:visible;display:inline;overflow:visible;enable-background:new" />
  <path
     d="m 251.32808,191.59892 a 2.2747378,2.1359974 2.80585 1 1 -4.54402,-0.2227 2.2747378,2.1359974 2.80585 0 1 4.54402,0.2227 z"
     id="path5543-3"
     style="color:#000000;fill:#333333;stroke:#000000;stroke-width:1;stroke-linecap:round;stroke-linejoin:miter;stroke-miterlimit:4;stroke-opacity:1;stroke-dasharray:none;stroke-dashoffset:0;marker:none;visibility:visible;display:inline;overflow:visible;enable-background:new" />
  <path
     d="m 257.94375,165.74003 a 2.0077655,1.2698933 14.160277 0 1 -3.89352,-0.98234 2.0077655,1.2698933 14.160277 1 1 3.89352,0.98234 z"
     id="path5543-3-5"
     style="color:#000000;fill:#333333;stroke:#000000;stroke-width:1;stroke-linecap:round;stroke-linejoin:miter;stroke-miterlimit:4;stroke-opacity:1;stroke-dasharray:none;stroke-dashoffset:0;marker:none;visibility:visible;display:inline;overflow:visible;enable-background:new" />
  <path
     d="m 264.02831,161.23718 a 1.6223161,2.1680784 62.352 0 1 3.84103,-2.01214 1.6223161,2.1680784 62.352 0 1 -3.84103,2.01214 z"
     id="path5543-4"
     style="color:#000000;fill:#333333;stroke:#000000;stroke-width:1;stroke-linecap:round;stroke-linejoin:miter;stroke-miterlimit:4;stroke-opacity:1;stroke-dasharray:none;stroke-dashoffset:0;marker:none;visibility:visible;display:inline;overflow:visible;enable-background:new" />
  <path
     d="m 252.99772,214.35909 a 2.2747382,2.1359977 60.389358 1 1 -2.24791,-3.95533 2.2747382,2.1359977 60.389358 0 1 2.24791,3.95533 z"
     id="path5543-3-1"
     style="color:#000000;fill:#333333;stroke:#000000;stroke-width:1;stroke-linecap:round;stroke-linejoin:miter;stroke-miterlimit:4;stroke-opacity:1;stroke-dasharray:none;stroke-dashoffset:0;marker:none;visibility:visible;display:inline;overflow:visible;enable-background:new" />
  <path
     d="m 255.12679,237.4778 a 2.2747382,2.1359977 60.389358 1 1 -2.24791,-3.95533 2.2747382,2.1359977 60.389358 0 1 2.24791,3.95533 z"
     id="path5543-3-1-6"
     style="color:#000000;fill:#333333;stroke:#000000;stroke-width:1;stroke-linecap:round;stroke-linejoin:miter;stroke-miterlimit:4;stroke-opacity:1;stroke-dasharray:none;stroke-dashoffset:0;marker:none;visibility:visible;display:inline;overflow:visible;enable-background:new" />
  <path
     d="m 255.00855,258.87347 a 2.2747378,1.8325655 60.389358 1 1 -2.24791,-3.95532 2.2747378,1.8325655 60.389358 0 1 2.24791,3.95532 z"
     id="path5543-3-1-6-9"
     style="color:#000000;fill:#333333;stroke:#000000;stroke-width:1;stroke-linecap:round;stroke-linejoin:miter;stroke-miterlimit:4;stroke-opacity:1;stroke-dasharray:none;stroke-dashoffset:0;marker:none;visibility:visible;display:inline;overflow:visible;enable-background:new" />
  <path
     d="m 255.99107,298.05525 a 1.8607716,2.2747378 35.222341 1 0 2.62391,-3.71656 1.8607716,2.2747378 35.222341 0 0 -2.62391,3.71656 z"
     id="path5543-3-1-6-9-3"
     style="color:#000000;fill:#333333;stroke:#000000;stroke-width:1;stroke-linecap:round;stroke-linejoin:miter;stroke-miterlimit:4;stroke-opacity:1;stroke-dasharray:none;stroke-dashoffset:0;marker:none;visibility:visible;display:inline;overflow:visible;enable-background:new" />
  <path
     d="m 253.44226,319.08465 a 2.2747378,1.8607716 86.907823 1 0 -0.24541,-4.54285 2.2747378,1.8607716 86.907823 1 0 0.24541,4.54285 z"
     id="path5543-3-1-6-9-3-2"
     style="color:#000000;fill:#333333;stroke:#000000;stroke-width:1;stroke-linecap:round;stroke-linejoin:miter;stroke-miterlimit:4;stroke-opacity:1;stroke-dasharray:none;stroke-dashoffset:0;marker:none;visibility:visible;display:inline;overflow:visible;enable-background:new" />
  <path
     d="m 251.64688,340.55142 a 2.2747378,1.9116285 86.907823 1 0 -0.24541,-4.54285 2.2747378,1.9116285 86.907823 0 0 0.24541,4.54285 z"
     id="path5543-3-1-6-9-3-2-0"
     style="color:#000000;fill:#333333;stroke:#000000;stroke-width:1;stroke-linecap:round;stroke-linejoin:miter;stroke-miterlimit:4;stroke-opacity:1;stroke-dasharray:none;stroke-dashoffset:0;marker:none;visibility:visible;display:inline;overflow:visible;enable-background:new" />
  <path
     d="m 251.70524,362.10904 a 2.2747378,1.9116285 86.907823 1 0 -0.24541,-4.54285 2.2747378,1.9116285 86.907823 0 0 0.24541,4.54285 z"
     id="path5543-3-1-6-9-3-2-0-9"
     style="color:#000000;fill:#333333;stroke:#000000;stroke-width:1;stroke-linecap:round;stroke-linejoin:miter;stroke-miterlimit:4;stroke-opacity:1;stroke-dasharray:none;stroke-dashoffset:0;marker:none;visibility:visible;display:inline;overflow:visible;enable-background:new" />
  <path
     d="m 252.51587,384.93382 a 2.2747383,1.911629 85.105922 0 0 -0.38813,-4.53289 2.2747383,1.911629 85.105922 1 0 0.38813,4.53289 z"
     id="path5543-3-1-6-9-3-2-0-9-8"
     style="color:#000000;fill:#333333;stroke:#000000;stroke-width:1;stroke-linecap:round;stroke-linejoin:miter;stroke-miterlimit:4;stroke-opacity:1;stroke-dasharray:none;stroke-dashoffset:0;marker:none;visibility:visible;display:inline;overflow:visible;enable-background:new" />
  <path
     d="m 295.53125,152.40625 c -0.79495,2.13449 1.2554,6.34893 -0.34375,10.5 0.88836,-1.69832 1.26981,-3.56706 1.71875,-3.90625 0.44896,-0.3392 0.78493,3.34068 0.90625,6.5 0.12132,3.15932 3.08527,4.03971 4.46875,2.3125 1.38349,-1.72722 2.49582,-2.05641 3.40625,-0.46875 0.91043,1.58766 3.57684,-2.97827 4.84375,-0.0312 1.26692,2.947 1.84002,2.50525 2.03125,1.75 0.19123,-0.75526 1.99348,-1.8243 3.65625,-0.4375 0.85431,0.71251 0.99772,1.76597 0.59375,2.5625 -0.33849,0.6674 -1.38946,1.06479 -2.25,0.90625 -1.00544,-0.1852 -0.14476,0.89374 1,1.59375 1.41368,0.86444 2.9939,2.6046 3.0625,3.625 0.1307,1.94382 1.29387,15.30559 0.625,17.65625 -0.66889,2.35065 -7.0568,44.8287 -6.03125,47.96875 1.02555,3.14008 3.79059,10.01842 3.625,12.125 -0.1656,2.10657 -0.88923,10.96484 -1.15625,14.59375 0.0608,3.62412 3.91112,-0.40503 3.40625,-3.4375 0.0479,-1.49896 -0.43309,-8.81212 -0.4375,-10.59375 -0.004,-1.78164 -1.31429,-7.36823 -1.4375,-8.90625 -0.12323,-1.53804 -0.41567,-13.51401 -0.25,-22.3125 0.16565,-8.79848 4.89303,-24.84303 4.9375,-27.15625 0.0445,-2.31323 -1.35303,-19.03164 -1.53125,-20.46875 -0.17822,-1.43711 -0.3246,-2.24011 -1.03125,-3.5 -0.70664,-1.2599 -1.08949,-2.46649 -0.125,-1.6875 0.9645,0.77898 2.90398,3.48553 3.34375,5.59375 0.43978,2.10822 1.50274,8.23505 1.03125,14.25 1.15675,-5.32837 4.06024,-9.05893 5.8125,-10.4375 1.25413,-0.98667 2.89867,-0.97505 2.15625,-0.15625 -0.74243,0.81882 -3.09893,4.53496 -4.34375,10.59375 2.05456,-6.96609 4.71574,-9.79617 4.40625,-8.6875 -0.30826,1.10423 -0.31954,2.72229 0.3125,5.5 0.54959,-2.59516 1.0628,-4.87039 1.46875,-6.46875 0.27642,-1.08833 -0.5289,-2.94672 -2.875,-2.5 -0.268,-1.48453 -4.66959,-3.68961 -6.96875,-5.71875 -6.09964,-7.21032 -8.43946,-5.28609 -10.09375,-6.84375 -1.65429,-1.55763 -3.16839,-2.56099 -5.46875,-1.875 -2.30036,0.68596 -2.52677,0.88171 -5.34375,-0.375 -2.81699,-1.25672 -1.89437,-4.48823 -3.53125,-4.90625 -1.6369,-0.41801 -1.24628,-1.85767 -2.53125,-1.46875 -0.61379,-1.73507 -1.0196,-5.28287 -1.0625,-5.6875 z"
     id="path5899"
     style="color:#000000;fill:#cccccc;stroke:none;marker:none;visibility:visible;display:inline;overflow:visible;enable-background:accumulate" />
  <path
     d="m 241.1723,232.81251 c 0.8744,-1.46421 1.21391,-1.94665 1.32454,-3.988 0.11062,-2.04134 0.56083,-10.04295 -0.70338,-12.3897 0.59039,0.56915 1.42593,-0.38235 2.08295,-1.00657 -1.08975,0.0692 -1.73069,0.35285 -2.50768,0.28105 1.47133,-1.06528 2.02942,-2.72397 0.40312,-6.49066 -1.62632,-3.76668 1.3833,-2.27587 1.60516,-0.87859 0.22185,1.39729 1.4893,1.71927 0.65685,-0.67224 -0.83246,-2.39152 -2.30894,-6.55783 -3.29999,-9.71169 -0.99103,-3.15386 1.07761,-4.54228 1.92961,-1.03336 0.38978,1.60522 1.1548,3.90165 1.31563,4.77136 -0.11345,-1.59692 0.11895,-1.81845 0.0836,-2.92141 0.19471,1.97389 0.97913,4.97663 0.70194,5.92368 -0.27719,0.94705 0.0645,2.44058 0.45224,3.20774 0.38774,0.76718 -0.29026,4.83046 -0.96898,7.07031 -0.67871,2.23986 -1.77084,5.77605 -0.97169,9.35495 0.79916,3.57888 1.03196,12.15179 1.13525,18.36479 0.10331,6.21299 -0.23047,17.85033 -0.13539,20.04192 0.0951,2.19157 1.68273,4.24507 2.33141,9.37608 0.64867,5.13101 -0.43249,0.45801 -1.29547,-3.35947 -0.86299,-3.81751 -1.51432,-6.17027 -2.1595,-9.86379 -0.64518,-3.69353 -0.99693,-15.28716 -0.8377,-18.31825 0.15923,-3.03111 1.14088,-9.21699 0.82029,-9.48627 -0.22719,4.32813 -1.42809,17.23067 -1.40533,19.18048 0.0228,1.9498 0.14973,8.65256 1.08513,11.27222 -1.27021,-3.61605 -1.22058,-6.0489 -1.3162,-6.90816 -0.0956,-0.85925 -2.76539,3.08432 -0.6038,7.74092 -5.8487,-3.22134 -0.50914,-26.88114 0.27743,-29.55734 z"
     transform="translate(0,-1)"
     id="path5903"
     style="color:#000000;fill:#cccccc;stroke:none;marker:none;visibility:visible;display:inline;overflow:visible;enable-background:accumulate" />
  <path
     d="m 282.51734,270.21816 c -0.016,-1.35928 -0.19498,-2.73316 0.33759,-3.89294 0.53249,-1.15979 1.7634,-2.95579 2.32815,-5.83741 0.56474,-2.88161 -1.64506,-3.38075 -1.70224,-1.14707 -0.0572,2.23368 -0.076,3.94403 -0.43528,4.77585 -0.35931,0.83181 -1.9913,2.95303 -0.52822,6.10157 z"
     id="path3035"
     style="color:#000000;fill:#cccccc;stroke:none;stroke-width:0.5;marker:none;visibility:visible;display:inline;overflow:visible;enable-background:accumulate" />
  <path
     d="m 256.30556,269.06139 c 0.44242,-5.25152 10.82584,-46.76246 10.49124,-53.93706 -0.33458,-7.17459 -2.17666,-4.93517 -2.84704,-3.18353 -0.50317,1.31479 -0.54691,2.87007 -1.2692,6.01004 -0.74265,3.22844 -7.23566,13.6615 -5.93729,15.71811 1.15135,1.82375 0.23181,4.40751 -1.43849,5.04866 -3.46824,1.33124 -0.46538,5.49389 -1.61457,10.19055 -1.14919,4.69664 -0.66051,4.23416 1.28995,5.05519 2.59494,1.09231 2.55314,6.74096 -1.67602,5.85124 0.66736,1.58518 1.37035,7.60346 1.45705,9.14379 0.43831,1.39333 1.54441,0.10302 1.54441,0.10302 z"
     id="path3037"
     style="color:#000000;fill:#cccccc;stroke:none;marker:none;visibility:visible;display:inline;overflow:visible;enable-background:accumulate" />
  <path
     d="m 247.46875,276.78125 c -0.48246,-0.0198 -1.54106,0.8036 -2.21875,2.96875 -1.20479,3.84914 -1.58599,4.85987 -1.90625,6.40625 -0.32025,1.54638 -1.46513,3.57701 -1.9375,4.59375 -0.4288,0.92296 -2.34213,5.07341 -2.84375,11 0.002,0.0933 -0.004,0.24009 0,0.3125 0.10772,1.73985 -0.0881,6.42815 -0.59375,10.625 -0.50568,4.19685 1.45885,12.49255 1.53125,15.5 0.0724,3.00745 -0.99171,25.0418 -1.375,27.28125 -0.38327,2.23943 0.9274,5.05568 1.5625,6.84375 0.63511,1.78806 -0.27486,4.24852 -1.53125,12.71875 -1.25638,8.47018 -1.28079,21.50818 -0.875,23.03125 0.40579,1.52304 -0.81234,5.20483 -1.21875,7.9375 -0.40642,2.73266 -0.5412,46.84863 -0.5,51.0625 0.036,3.67355 0.34623,12.41039 0.40625,15.34375 0.004,0.009 -0.004,0.0227 0,0.0312 0.48883,1.01796 1.04766,1.92203 1.59375,2.78125 2.06701,1.66233 5.86178,4.1273 9.25,5.25 0.67436,0.22345 2.29672,0.19932 4.3125,0.15625 0.16245,-8.35748 -0.12734,-17.94641 -0.15625,-22.375 -0.0289,-4.434 -0.24664,-49.77798 -0.71875,-55.21875 -0.47212,-5.44075 -1.4237,-21.47988 -1.09375,-23.1875 0.32994,-1.70763 0.53204,-15.97502 0.125,-17.71875 -0.40705,-1.74372 -0.5487,-3.47987 -0.21875,-5.1875 0.32994,-1.7076 -1.07278,-18.5198 -0.71875,-20.71875 0.35402,-2.19894 0.6315,-19.1448 0.75,-21.34375 0.11851,-2.19895 0.22487,-7.58043 0.5,-10.75 -1.18926,4.34973 -1.40802,25.42171 -1.75,27.375 -0.34199,1.95328 -0.75177,0.20906 -1.0625,-3.5 -0.31073,-3.70905 -2.39839,-19.42518 -1.46875,-20.9375 0.92962,-1.51232 1.28625,-1.6687 1.5,-3.5625 0.21375,-1.8938 0.33784,-8.30177 1.125,-10.34375 0.78717,-2.04196 1.06616,-4.27668 1.03125,-6.1875 -0.0348,-1.91082 0.32939,-6.61178 0.34375,-8.3125 0.0144,-1.70072 -0.66793,-1.23106 -0.84375,1.3125 -0.17579,2.54356 -0.5237,6.9422 -4.21875,13 0.001,-3.63942 0.33873,-4.12733 0.65625,-5.5 0.31751,-1.37267 0.7029,-2.91465 0.6875,-4.28125 -0.0154,-1.36659 -0.18259,-3.06279 1.53125,-5 0.7498,-0.84753 0.719,-1.39084 0.34375,-1.40625 z"
     id="path3206-4"
     style="color:#000000;fill:#cccccc;stroke:none;marker:none;visibility:visible;display:inline;overflow:visible;enable-background:accumulate" />
  <path
     d="m 242.91181,293.95339 c 0.8749,3.682 1.22984,10.96936 0.65928,15.09586 -0.57062,4.12651 0.63471,15.60849 0.63815,19.09124 0.004,3.48274 -0.53637,10.94382 0.54339,13.7828 -2.60059,-3.78417 -2.82031,-6.40686 -3.19671,-9.3855 -0.3764,-2.97863 -2.52225,-13.84239 -1.75525,-18.30781 0.767,-4.46542 2.17062,-8.37564 2.14549,-11.14651 -0.0251,-2.77087 1.16935,-5.13472 0.96565,-9.13008 z"
     id="path3208-8"
     style="color:#000000;fill:#b3b3b3;stroke:none;stroke-width:0.5;marker:none;visibility:visible;display:inline;overflow:visible;enable-background:accumulate" />
  <path
     d="m 275.33584,274.59861 c 0.69382,-3.99127 0.71997,-5.88312 1.73354,-7.71084 1.01356,-1.82772 4.87109,-6.97165 4.98113,-9.8776 0.11002,-2.90597 0.63334,-4.33054 -1.3083,-7.1668 -1.94163,-2.83627 -4.18376,-13.34821 -2.90723,-16.77654 1.27652,-3.42834 1.52558,-8.60853 0.92885,-10.56031 -0.59675,-1.95177 -4.46096,4.3319 -4.07669,8.1518 0.38427,3.8199 -3.07537,8.31521 -4.99245,11.73015 -1.91709,3.41494 -1.28538,11.32391 -1.51552,14.39987 -0.23013,3.07596 -0.65538,12.08729 -0.18397,15.21138 0.47141,3.12407 1.73386,0.34258 3.56819,-4.04891 1.83432,-4.39151 2.40672,-6.71629 1.07979,-9.18172 -1.32695,-2.46545 -1.8343,-5.11748 -0.60145,-5.73856 1.23284,-0.62109 2.98958,-2.06566 2.41647,-4.36038 -1.03068,-4.12678 2.23364,-3.63273 3.64298,0.98588 1.70117,5.57495 0.28959,12.11249 -1.24295,14.614 -1.53256,2.50151 -3.08578,6.43319 -3.05823,9.28379 0.0275,2.8506 1.0436,1.96357 1.53584,1.04479 z"
     id="path3228-57"
     style="color:#000000;fill:#cccccc;stroke:none;marker:none;visibility:visible;display:inline;overflow:visible;enable-background:accumulate" />
  <path
     d="m 252.40231,271.70926 c -0.44817,-5.29061 -0.23562,-12.06799 -0.60964,-13.11492 -0.37404,-1.0469 -0.1206,-3.06819 0.28949,-3.717 0.41008,-0.6488 -0.68877,-4.47496 -0.49288,-5.82083 0.19589,-1.34586 0.39161,-8.9913 0.0524,-9.87209 -0.33919,-0.8808 -0.45475,-3.27657 -0.97208,-4.0038 -0.51734,-0.72721 1.03801,-6.77651 0.33429,-8.19476 -0.70373,-1.41825 -2.17545,-8.84935 -2.12242,-9.86397 0.0531,-1.01463 -0.86062,-3.82436 -0.65263,-4.82619 0.20797,-1.00181 -1.3761,-7.64297 -1.60407,-8.86338 -0.22795,-1.2204 -0.64644,-4.17578 -0.45135,-4.84253 -0.65168,3.02301 -0.98617,3.5023 -0.74766,4.55296 0.2385,1.05066 -0.23854,1.34703 0.39508,3.45957 0.63362,2.11254 0.58886,5.5188 -0.18513,8.34061 -0.77393,2.8218 -0.57606,7.60244 0.83507,10.27513 1.41114,2.67268 -0.40895,9.56129 1.77097,11.62748 2.17991,2.0662 1.90507,3.91556 1.38263,7.28221 -0.52243,3.36664 -0.46893,5.07676 0.0336,7.15994 0.50253,2.08318 -0.97476,5.88638 -0.52739,7.62105 0.44739,1.73466 -0.82947,4.36612 0.12634,6.81295 0.95582,2.44686 1.50865,4.52112 1.58415,6.73443 0.0754,2.21331 1.92152,2.67111 1.56119,-0.74686 z"
     id="path3230-8"
     style="color:#000000;fill:#cccccc;stroke:none;marker:none;visibility:visible;display:inline;overflow:visible;enable-background:accumulate" />
  <path
     d="m 247.61993,269.86257 c -1.08861,-3.81697 -1.72804,-5.22687 -2.12729,-6.10742 -0.39925,-0.88055 -0.71158,-2.43809 -0.58995,-3.45265 0.12164,-1.01457 -0.0536,-4.61068 -0.021,-6.99866 0.0326,-2.38798 1.08376,-1.96379 1.49439,-0.39648 0.41064,1.56729 -0.065,5.11204 0.61551,6.18449 0.68049,1.07245 0.89082,3.64081 0.59706,4.98192 -0.29374,1.34111 1.27564,4.34196 1.47843,6.73593 0.20279,2.39398 -1.1804,0.0918 -1.44717,-0.94713 z"
     id="path3232-5"
     style="color:#000000;fill:#cccccc;stroke:none;stroke-width:0.5;marker:none;visibility:visible;display:inline;overflow:visible;enable-background:accumulate" />
  <path
     d="m 321.75,270.1875 c -1.36552,0.82798 -2.34101,1.86309 -2.1875,2.8125 0.45883,2.83779 2.72866,6.53705 3.71875,8.28125 0.46934,0.82708 1.44323,2.55587 2.34375,4.53125 -1.23714,-5.99828 -2.45017,-11.0045 -3.15625,-13 -0.34735,-0.98167 -0.57292,-1.81486 -0.71875,-2.625 z m -8.84375,0.875 c -0.69926,-0.058 -1.28238,1.19884 -0.375,4.1875 1.81476,5.9773 3.05101,23.98645 2.46875,26.03125 -0.58224,2.04481 -3.64738,5.04826 -7,12.125 -3.35263,7.07674 -4.2812,28.46266 -4.3125,34.125 -0.0313,5.66234 -6.08354,28.52563 -8.875,25.1875 -2.79146,-3.33811 5.30207,-43.80956 8.40625,-52.34375 3.10418,-8.5342 7.35449,-12.87427 9.3125,-26.15625 -2.37436,9.16084 -7.51095,16.76857 -11.28125,22 -3.77029,5.23144 -8.84032,25.36261 -13.15625,33.03125 -4.31593,7.66865 -16.43985,18.89032 -19,25.90625 -2.56015,7.01595 -16.08665,16.43466 -18.5,10.40625 2.16537,16.11272 3.09323,67.86902 3.3125,78.46875 0.21926,10.5997 4.91327,14.77315 10,16.5 0.12992,0.0441 0.4301,0.10739 0.625,0.15625 16.22613,-1.21928 38.65538,-10.82165 40.90625,-11.8125 2.53218,-1.11467 9.57291,-2.74628 13.09375,-3.8125 3.52083,-1.06622 9.86617,-4.21722 9.46875,-6.21875 -0.39741,-2.00151 1.07216,-17.03971 1.375,-23.21875 0.30284,-6.17905 -1.41682,-26.59209 -1.28125,-39.46875 0.13552,-12.87665 1.24156,-71.14389 1.40625,-82.03125 0.064,-4.23178 -0.70774,-10.6369 -1.78125,-17.1875 0.0123,7.74328 -0.16137,21.94944 0.0312,23.375 0.244,1.80585 -0.97119,17.288 -2.65625,13.46875 -1.68507,-3.81926 -0.1601,-39.00389 -0.96875,-43.65625 -0.80866,-4.65236 -3.6174,-9.27545 -4.28125,-12.875 -0.66386,-3.59955 -4.07229,-4.22259 -3.90625,-1.375 0.16605,2.8476 5.72499,14.37483 5.59375,16.9375 -0.13123,2.56267 -1.92022,23.76111 -2.4375,32.125 -0.51727,8.3639 -7.87594,49.80952 -8.6875,61.34375 -0.81154,11.5342 -9.9085,36.46177 -13.71875,33.8125 -3.81024,-2.64932 2.89929,-29.41936 6.5625,-38.84375 3.66322,-9.42443 7.70551,-57.42754 10.96875,-65.78125 3.26324,-8.35371 1.95417,-32.03821 -0.28125,-40.625 0.45789,-2.34106 -0.33199,-3.72322 -1.03125,-3.78125 z"
     id="path3234-7"
     style="color:#000000;fill:#cccccc;stroke:none;marker:none;visibility:visible;display:inline;overflow:visible;enable-background:accumulate" />
  <path
     d="m 314.34846,267.95034 c 0.70085,-7.17147 0.54986,-14.13675 -0.35068,-17.38269 -0.90055,-3.24592 -1.4852,-3.82754 -1.56828,-5.25214 -0.43399,4.22477 0.77167,5.19408 0.88507,7.52444 0.1134,2.33038 0.53304,14.85403 0.2608,15.77488 -0.27224,0.92086 0.67619,0.72527 0.77309,-0.66449 z"
     id="path3365"
     style="color:#000000;fill:#cccccc;stroke:none;stroke-width:0.5;marker:none;visibility:visible;display:inline;overflow:visible;enable-background:accumulate" />
  <path
     d="m 304.91922,167.41028 c -0.4431,-0.77577 -1.45776,0.11313 -2.2642,1.08018 -0.80643,0.96706 -3.4761,1.96064 -5.62865,-1.66549 -0.0602,1.85766 0.56094,3.01558 1.87526,3.11011 -3.43662,0.24592 -3.62934,-4.64907 -2.47863,-6.50706 -2.75813,2.62851 -1.06272,4.63655 -1.72499,6.84574 -0.2809,0.93704 -4.77432,6.20641 -5.96168,11.0409 -1.18736,4.83449 0.26706,25.05633 -2.05665,40.86671 0.92748,-2.03417 1.69765,-3.03085 2.18744,-4.40855 0.5959,4.31407 -1.40481,11.44226 -1.57433,14.85357 -0.16953,3.41129 0.13402,8.18415 0.68796,9.55931 0.55392,1.37517 7.16919,-24.3562 7.95789,-35.36048 -1.22364,0.96063 -1.62324,3.42277 -3.4303,4.3306 3.06287,-10.06602 1.59035,-21.79834 0.24991,-25.86219 -1.34043,-4.06383 0.28172,-3.66053 2.16716,-2.72248 1.88545,0.93807 2.52534,-0.65386 1.0095,-2.32036 -1.51584,-1.66649 -1.62109,-1.98013 -0.57952,-1.38931 1.04157,0.59082 1.69523,3.09062 2.50062,2.42279 0.80539,-0.66783 -0.69713,-2.72344 -1.84295,-3.91459 -1.14582,-1.19115 -0.69804,-3.3384 1.39478,-2.29655 2.09283,1.04185 1.35139,-0.19451 0.79228,-1.06027 -0.55905,-0.86596 0.5892,-3.51028 1.73523,-2.81151 1.14602,0.69873 1.77595,0.15638 1.53508,1.92313 -0.10618,0.77876 -2.4064,-0.0224 -1.90147,1.15253 0.50493,1.17496 2.15755,4.25348 3.33731,5.07812 1.17975,0.82462 1.74447,-1.69124 1.55293,-3.35192 -0.19154,-1.66071 -1.24475,-4.61276 -0.28421,-5.73484 0.96052,-1.12209 1.37278,-2.59352 0.74422,-2.85808 z"
     id="path3677"
     style="color:#000000;fill:#cccccc;stroke:none;marker:none;visibility:visible;display:inline;overflow:visible;enable-background:accumulate" />
  <path
     d="m 319.88533,267.93717 c 0.18305,-4.23613 -0.18763,-6.48703 -0.0487,-10.09742 0.13889,-3.6104 0.50655,-6.19981 0.0332,-7.62038 -0.47341,-1.42057 -0.8418,-0.9925 -1.11671,-4.227 -0.27487,-3.23451 -0.99503,-9.35771 -0.54192,-15.63103 0.45313,-6.27332 2.04176,-0.2546 2.36822,4.04818 0.32646,4.30279 -0.3031,10.01342 0.39775,13.74264 0.70088,3.72924 -0.76766,14.44467 -0.4592,18.19337 0.30847,3.74868 -0.59459,4.86013 -0.63265,1.59164 z"
     id="path4793-9"
     style="color:#000000;fill:#cccccc;stroke:none;stroke-width:0.5;marker:none;visibility:visible;display:inline;overflow:visible;enable-background:accumulate" />
  <path
     d="m 316.2246,267.24415 c 1.90674,-9.76179 3.94802,-19.58302 4.15281,-25.03843 0.20479,-5.45542 2.44288,-11.04483 3.13485,-15.67204 0.69195,-4.6272 1.62716,-9.44078 2.58775,-11.98421 0.9606,-2.54345 -1.19988,14.21262 -3.36246,24.79695 -2.16257,10.58434 -5.00374,22.88797 -6.51295,27.89773 z"
     id="path4795-2"
     style="color:#000000;fill:#cccccc;stroke:none;stroke-width:0.5;marker:none;visibility:visible;display:inline;overflow:visible;enable-background:accumulate" />
  <path
     d="m 311.41615,267.47784 c -0.0274,-5.12085 -2.2144,-18.65706 -3.34279,-24.22572 -1.12838,-5.56864 0.72664,0.27163 1.32186,2.06842 -1.46614,-8.22113 -2.17405,-14.43012 -2.16093,-17.09482 0.0131,-2.6647 -0.28675,-6.86588 0.63141,-9.38775 1.16139,-3.18994 1.63289,-0.67082 1.4245,0.85385 -0.34789,2.54539 1.11795,0.6923 1.21247,-1.30884 0.26125,-5.53078 1.27418,-18.9112 1.028,-24.53413 -0.33529,-7.65743 -0.33603,-14.41082 -0.84541,-16.53158 -0.50939,-2.12074 -1.03866,-0.79441 -1.30578,1.07541 -0.26712,1.86981 -1.86991,-0.41557 -1.87245,-2.46501 -0.003,-2.04946 0.53634,-5.19193 0.14709,-6.16124 -0.38927,-0.96929 -0.24186,-2.24422 1.09848,-2.5536 1.34034,-0.30938 1.64711,2.20812 2.12775,3.3177 0.48064,1.10959 2.11826,0.96936 2.8872,2.37115 0.76895,1.40179 2.65899,2.0548 2.31965,3.41504 -0.30045,1.20438 -1.13828,2.14351 0.50441,3.51118 1.64267,1.36766 0.20384,2.5596 -0.60423,2.32216 -0.80807,-0.23743 -2.41214,0.42804 -0.81342,2.65621 1.5987,2.22816 1.97777,3.01925 0.39202,3.67449 -1.58575,0.65524 0.30239,2.02854 -0.79832,3.72668 -1.10071,1.69815 -1.41923,16.12737 -3.57556,29.62553 -2.15634,13.49816 -0.36456,26.72263 0.604,33.36306 0.96859,6.64042 0.87741,11.51508 0.68048,13.25645 -0.19692,1.74138 -1.17486,0.30074 -1.06043,-0.97464 z"
     id="path4797-3"
     style="color:#000000;fill:#cccccc;stroke:none;marker:none;visibility:visible;display:inline;overflow:visible;enable-background:accumulate" />
  <path
     d="m 268.3051,162.18748 c -0.83883,1.48901 -2.25724,1.33592 -3.43317,1.06656 2.68504,0.86106 3.57763,2.43203 4.46599,3.77151 2.7225,4.10515 9.74369,5.96191 8.30807,2.74687 -0.43093,-0.96504 -2.74016,-3.3205 -5.27027,-4.35464 -1.18189,-0.48307 -3.19576,-0.84047 -4.07062,-3.2303 z"
     id="path5334"
     style="color:#000000;fill:#cccccc;stroke:none;marker:none;visibility:visible;display:inline;overflow:visible;enable-background:accumulate" />
  <path
     d="m 258.65102,164.81831 c 0.61434,1.42474 -0.10942,2.98953 -1.67444,2.82298 -1.81465,-0.19312 -2.60783,-0.91905 -3.00532,-1.31806 -0.39748,-0.399 -1.08789,-0.1857 -1.82843,0.66453 -0.74055,0.85022 -1.3889,1.28145 -2.01214,1.3592 2.37308,0.46076 3.41093,0.42838 4.70347,1.06421 1.29254,0.63584 5.21747,2.33697 7.65359,2.59867 2.43611,0.26171 0.96882,-2.46131 -0.0244,-3.56741 -0.99317,-1.1061 -1.54001,-1.80811 -2.28953,-2.24574 -0.74952,-0.43762 -0.40459,-0.973 -1.52284,-1.37838 z"
     id="path5336"
     style="color:#000000;fill:#cccccc;stroke:none;marker:none;visibility:visible;display:inline;overflow:visible;enable-background:accumulate" />
  <path
     d="m 250.54733,170.91653 c 0.92518,0.73788 0.70033,3.841 -1.69074,4.58509 0.55433,-0.013 0.86364,-0.0517 1.12769,-0.30792 -0.48799,0.80069 -1.03767,1.59472 -1.24639,2.77761 -0.20872,1.18288 -0.1503,3.80654 0.0903,4.74996 0.24063,0.94343 0.94685,-1.24392 0.65687,-2.33546 -0.29,-1.09153 -0.27363,-3.003 0.56818,-3.62394 0.84181,-0.62095 1.62501,-0.46766 2.57089,-0.084 0.94587,0.38369 3.34128,-0.0705 2.09149,-1.19728 -1.24978,-1.12675 -2.14098,-1.43452 -2.75671,-1.35744 -0.61574,0.0771 -0.18462,-0.80076 0.44961,-1.94301 0.0264,-0.35289 -0.12624,0.0579 -0.39476,0.38503 0.17906,-0.76337 0.29265,-1.46295 0.12517,-2.47792 -0.0801,1.06005 -0.19879,1.83021 -0.63086,2.709 0.013,-0.99408 0.0663,-1.70037 -0.13394,-2.29114 0.007,0.71288 0.0205,1.35463 -0.077,1.84221 -0.18994,-0.73125 -0.41148,-1.03935 -0.74981,-1.43083 z"
     id="path5338"
     style="color:#000000;fill:#cccccc;stroke:none;marker:none;visibility:visible;display:inline;overflow:visible;enable-background:accumulate" />
  <path
     d="m 318.75976,374.14672 c -1.68884,18.03181 -10.03916,40.56771 -12.78325,47.27651 2.16536,-3.11425 4.31105,-5.82689 6.15355,-10.56715 -2.2755,13.57505 -4.8345,24.72093 -12.01566,31.61481 3.90946,-5.8466 2.34249,-6.72848 4.185,-11.46874 -4.50786,9.84273 -13.41344,19.06738 -18.79146,22.02417 7.8072,-3.24027 12.36237,-5.83486 15.29153,-8.10656 -1.78347,3.53551 -12.69695,12.66175 -15.22453,14.95314 4.97643,-2.97648 9.07097,-4.38599 11.98045,-6.25613 -2.70471,5.90566 -7.95669,14.50426 -11.80711,19.14612 6.29928,-5.32694 16.46864,-15.69727 19.85843,-19.15405 -0.59839,3.99612 -8.25987,12.47667 -11.64966,15.93345 4.51582,-1.79144 11.94111,-5.45298 16.01597,-6.4609 4.07486,-1.00791 2.44091,-8.73639 2.559,-11.1459 -1.09839,5.98438 -1.53934,6.76788 -3.96851,7.05136 -2.42918,0.28348 5.72434,-18.23658 7.09828,-29.84308 -2.05901,9.15763 -8.41733,15.6893 -13.91344,21.05559 9.1024,-13.24048 16.95274,-33.78813 18.83462,-39.33157 1.88187,-5.5434 0.3149,-6.42531 -2.5749,-4.95676 -2.88979,1.46856 -2.21267,-4.13389 -0.85047,-7.28751 1.36219,-3.1536 3.74406,-10.68526 3.51961,-14.31918 -0.22444,-3.6339 -0.10636,-6.04338 -1.91745,-10.15762 z"
     id="path5340"
     style="color:#000000;fill:#b3b3b3;stroke:none;stroke-width:0.5;marker:none;visibility:visible;display:inline;overflow:visible;enable-background:accumulate" />
  <path
     d="m 328.44882,366.36303 c -0.64949,13.25219 -1.53896,47.8276 -10.05468,65.52483 3.87009,-5.04345 8.03542,-16.11058 8.51572,-17.69723 2.5238,14.21281 -0.14535,35.81949 -4.35798,39.63851 0.63776,-4.7993 3.09836,-13.93729 2.83454,-16.76805 -2.80312,7.91355 -7.71256,17.73659 -9.45666,20.46895 2.44884,-0.68506 3.40947,-3.85835 4.67325,-5.00407 -1.11806,6.38596 -4.12595,10.26399 -5.40943,11.81127 4.13392,-2.21266 4.93707,-2.1733 7.06308,-4.48439 1.0276,3.67331 -3.12599,6.28754 -6.81895,7.71673 22.93549,0.98106 15.85917,-23.11332 13.01111,-101.20655 z"
     transform="translate(0,-1)"
     id="path5342"
     style="color:#000000;fill:#b3b3b3;stroke:none;stroke-width:0.5;marker:none;visibility:visible;display:inline;overflow:visible;enable-background:accumulate" />
  <path
     d="m 247.8526,189.22973 c 2.15514,0.0252 1.36413,2.09285 1.11137,2.30114 -0.45217,0.37261 -0.42441,0.75098 0.24577,0.41542 0.38816,-0.19436 1.07478,-0.15439 1.19226,0.005 0.009,0.391 -0.38056,1.16961 -1.49192,1.44615 2.6912,1.28917 3.67167,-5.7433 -1.05748,-4.16804 z"
     id="path5344"
     style="color:#000000;fill:#1a1a1a;stroke:none;stroke-width:0.5;marker:none;visibility:visible;display:inline;overflow:visible;enable-background:accumulate" />
  <path
     d="m 300.20458,166.50443 a 2.1680784,1.4728713 69.06428 0 1 -1.54939,-4.04989 2.1680784,1.4728713 69.06428 0 1 1.54939,4.04989 z"
     id="path5543-4-9"
     style="color:#000000;fill:#333333;stroke:#000000;stroke-width:1;stroke-linecap:round;stroke-linejoin:miter;stroke-miterlimit:4;stroke-opacity:1;stroke-dasharray:none;stroke-dashoffset:0;marker:none;visibility:visible;display:inline;overflow:visible;enable-background:new" />
  <path
     d="m 305.85331,166.7273 a 1.1241207,1.8992488 43.041577 1 0 2.59258,-2.77616 1.1241207,1.8992488 43.041577 1 0 -2.59258,2.77616 z"
     id="path5543-4-9-8"
     style="color:#000000;fill:#333333;stroke:#000000;stroke-width:1;stroke-linecap:round;stroke-linejoin:miter;stroke-miterlimit:4;stroke-opacity:1;stroke-dasharray:none;stroke-dashoffset:0;marker:none;visibility:visible;display:inline;overflow:visible;enable-background:new" />
  <path
     d="m 316.63544,170.24765 a 2.1680784,1.4728713 8.7269168 0 1 -4.28595,-0.65791 2.1680784,1.4728713 8.7269168 1 1 4.28595,0.65791 z"
     id="path5543-4-9-0"
     style="color:#000000;fill:#333333;stroke:#000000;stroke-width:1;stroke-linecap:round;stroke-linejoin:miter;stroke-miterlimit:4;stroke-opacity:1;stroke-dasharray:none;stroke-dashoffset:0;marker:none;visibility:visible;display:inline;overflow:visible;enable-background:new" />
  <path
     d="m 242.74581,268.14464 c 2.79063,-0.15234 8.85022,-0.59397 11.58432,-0.57945 2.73411,0.0145 21.77536,1.3952 27.6416,1.25875 5.86622,-0.13646 22.83557,-1.56992 26.27034,-1.94587 3.43473,-0.37612 10.75945,-1.1698 13.4289,-1.97754 0.38615,2.7793 0.6466,6.22012 1.9716,11.87055 -3.94248,0.43395 -22.56394,4.68021 -42.2398,4.02129 -19.67585,-0.65892 -29.3129,-2.45285 -37.53573,-1.07138 0.0291,-2.74634 0.43026,-8.55102 -1.12123,-11.57635 z"
     id="path3033-9"
     style="color:#000000;fill:#333333;stroke:#000000;stroke-width:0.5;stroke-linecap:butt;stroke-linejoin:miter;stroke-miterlimit:4;stroke-opacity:1;stroke-dasharray:none;stroke-dashoffset:0;marker:none;visibility:visible;display:inline;overflow:visible;enable-background:accumulate" />
  <path
     d="m 256.98673,270.82414 -0.57193,7.85466 c 0,0 8.116,0.77057 8.8439,0.5386 0.72789,-0.23196 0.98675,-6.41677 1.00077,-7.37958 -2.73928,-0.72569 -7.99471,-1.20668 -9.27274,-1.01368 z"
     id="path5306"
     style="color:#000000;fill:#ffffff;stroke:none;stroke-width:0.5;marker:none;visibility:visible;display:inline;overflow:visible;enable-background:accumulate" />
  <path
     d="m 282.30058,280.7849 0.67039,-12.0417 c 4.32671,-3.6e-4 16.60146,-1.2819 19.72542,-1.59927 0.60309,2.04762 -1.86098,6.20487 -4.13331,7.65817 2.32321,-0.35921 3.69819,-1.69022 4.25239,-2.08489 -1.18658,1.87816 -1.88715,2.54571 -3.60189,3.60484 3.09258,0.47986 6.03992,-1.49364 6.5225,-2.97927 2.76747,0.62562 1.79283,4.01883 0.9488,4.54425 1.70384,-0.63746 3.01017,-2.92048 2.52258,-3.89086 2.49153,1.17366 1.61688,3.61237 1.22099,4.42549 -6.06732,0.68453 -23.63365,2.70189 -28.12787,2.36324 z"
     id="path5308"
     style="color:#000000;fill:#ffffff;stroke:none;stroke-width:0.5;marker:none;visibility:visible;display:inline;overflow:visible;enable-background:accumulate" />
  <path
     d="m 331.37101,181.67367 c 2.50274,0.58648 1.99938,-3.36968 4.77563,5.14273 3.62663,11.1198 2.45806,20.86573 2.96877,28.09986 0.26739,3.7875 3.49505,16.40939 4.28656,23.41867 0.98698,8.74029 1.24922,11.61807 2.87851,17.37207 2.21367,7.81778 1.18801,16.84441 3.17041,19.02598 2.4766,2.72542 1.87988,5.38023 0.90537,7.56743 -0.49906,1.12009 0.36983,3.3123 1.16499,3.97517 2.39097,1.99321 0.66605,5.22058 0.55708,5.66881 -0.69482,2.85788 -0.0318,14.53828 0.30134,16.704 -0.37127,-4.61842 -15.16547,-4.00778 -19.65031,0.36103 -1.73647,-4.22785 -5.40235,-29.39949 -7.19593,-35.90159 -1.79358,-6.50213 -3.61644,-18.6997 -3.0279,-23.61113 0.58854,-4.91134 -3.84639,-8.07934 -2.85195,-16.81311 0.69062,-6.06545 0.005,-10.86211 1.97349,-19.79472 2.77185,-12.57809 3.579,-27.53437 9.74394,-31.2152 z"
     id="path3013-4-9-2-5-8"
     style="fill:#e6e6e6;fill-opacity:1;stroke:#b3b3b3;stroke-width:1;stroke-linecap:round;stroke-linejoin:miter;stroke-miterlimit:4;stroke-opacity:1;stroke-dasharray:none;display:inline" />
  <path
     d="m 326.96875,187.90625 c -2.45461,6.45769 -3.42858,16.2781 -5.34375,24.96875 -1.96849,8.93261 -1.27813,13.74705 -1.96875,19.8125 -0.99444,8.73377 3.43229,11.90116 2.84375,16.8125 -0.58854,4.91143 1.23767,17.09162 3.03125,23.59375 1.79358,6.5021 5.45103,31.6784 7.1875,35.90625 1.67662,-1.63324 4.79646,-2.74407 8.0625,-3.25 -1.31723,-6.69341 -3.23684,-24.96939 -6.25,-33.40625 3.96878,1.9844 9.26039,2.63018 11.90625,5.9375 -3.96879,-8.59904 -12.56246,-7.93742 -16.53125,-15.875 2.64586,0.66147 7.28642,1.9844 10.59375,0 -2.64586,-0.66146 -7.27082,-1.9635 -8.59375,-6.59375 2.64586,0.66146 5.28638,-1.32296 12.5625,3.96875 -6.61465,-13.22929 -17.20833,-12.5832 -18.53125,-25.8125 3.96878,4.63025 7.95303,9.25518 17.875,12.5625 -3.30732,-4.63025 -13.23432,-9.26552 -19.1875,-19.1875 3.96878,5.29172 7.94264,8.59897 15.21875,7.9375 -7.27611,-5.29172 -11.92186,-11.90092 -13.90625,-24.46875 5.95318,4.63025 11.25517,11.901 14.5625,16.53125 -1.32293,-4.63025 -4.64574,-11.88014 -13.90625,-19.15625 3.96879,1.32293 4.63017,3.30728 7.9375,3.96875 -1.69216,-3.94837 -7.19791,-11.78558 -7.5625,-24.25 z"
     id="path15969-3"
     style="fill:#cccccc;fill-opacity:1;stroke:none" />
  <path
     d="m 230.18678,178.62175 c -9.34631,10.09595 -7.31261,25.89884 -8.20848,29.68425 -0.89587,3.78541 -5.81393,19.13919 -4.8979,22.86172 1.04313,4.23907 -1.104,9.84155 -1.91391,11.08805 -2.45408,3.77698 -4.06934,3.1952 -4.57627,27.45265 -0.0169,0.80712 -2.96535,7.78792 -1.42731,12.67774 1.46085,4.64442 -1.01315,9.74975 -1.00356,12.11322 0.0169,4.15806 1.58819,16.56936 2.82356,19.63165 5.73614,-11.84822 23.42142,-6.7737 23.38793,-3.75829 -0.46397,-3.32014 1.69049,-18.32589 -0.35579,-20.51773 -1.57476,-1.68678 -0.69861,-4.84578 0.49959,-6.69855 1.20804,-1.86797 2.49933,-4.11705 1.84464,-6.30274 -1.1407,-3.80828 -0.80972,-11.39968 0.0734,-12.83371 1.9848,-3.22286 -0.62701,-17.3793 0.9951,-19.36349 5.48886,-6.71405 5.76177,-14.79349 5.9251,-23.33703 0.19176,-10.03123 -3.69183,-21.5206 -5.71475,-27.01061 -1.27891,-3.47084 -3.2418,-8.09013 -4.60125,-12.11212 -0.47907,-1.41736 -1.89055,-5.56019 -2.8501,-3.57501 z"
     id="path3011-6-3-2-5-9"
     style="fill:#e6e6e6;fill-opacity:1;stroke:#b3b3b3;stroke-width:1;stroke-linecap:round;stroke-linejoin:miter;stroke-miterlimit:4;stroke-opacity:1;stroke-dasharray:none;display:inline" />
  <path
     d="m 224.99481,222.77628 c -3.88088,-6.06388 -6.06388,-14.55332 -1.69789,-22.8002 -0.24255,11.88522 5.09367,14.79588 9.21711,16.49376"
     id="path50460-1"
     style="color:#000000;fill:#e6e6e6;stroke:#b3b3b3;stroke-width:0.5;stroke-linecap:round;stroke-linejoin:miter;stroke-miterlimit:4;stroke-opacity:1;stroke-dasharray:none;stroke-dashoffset:0;marker:none;visibility:visible;display:inline;overflow:visible;enable-background:accumulate" />
  <path
     d="m 230.75,183.125 c 2.93202,21.74114 -2.19088,33.38073 -6.84375,22.1875 2.19381,6.02804 4.95441,12.65315 10.96875,9.125 -1.61764,7.62351 -10.82966,16.27117 -12.5,3.53125 -3.64073,21.425 12.06307,5.48131 13.5,0.15625 0.10003,9.4412 -6.26975,13.60155 -12.15625,17.15625 5.8865,-0.72814 9.86036,-3.68799 15.21875,-7.9375 -5.95318,9.92198 -14.465,15.62138 -21.59375,17.125 9.22716,0.86152 16.31247,-5.86975 20.28125,-10.5 -5.14436,12.53449 -12.94785,9.80196 -19.5625,23.03125 7.27612,-5.29171 10.94789,-0.52604 13.59375,-1.1875 -1.32293,4.63025 -6.63539,8.71354 -9.28125,9.375 3.30733,1.9844 8.63539,-2.11978 11.28125,-2.78125 -3.96879,7.93758 -12.56246,7.27596 -16.53125,15.875 2.64586,-3.30732 7.93747,-3.9531 11.90625,-5.9375 -3.64934,3.20501 -7.10468,8.63738 -2.59375,12.46875 3.25606,2.76555 1.94813,12.39351 2.125,22.3125 1.9e-4,0.0105 -1.9e-4,0.0208 0,0.0312 3.37063,0.71364 5.82497,2.09565 5.8125,3.21875 -0.46397,-3.32014 1.67128,-18.33941 -0.375,-20.53125 -1.57476,-1.68678 -0.6982,-4.83473 0.5,-6.6875 1.20804,-1.86797 2.49844,-4.12681 1.84375,-6.3125 -1.1407,-3.80828 -0.78937,-11.37847 0.0937,-12.8125 1.9848,-3.22286 -0.62211,-17.39081 1,-19.375 4.23333,-5.17827 5.34805,-11.17334 5.71875,-17.5625 -0.002,-0.0103 0.002,-0.0209 0,-0.0312 -2.65151,-17.43907 -7.587,-30.95706 -12.40625,-43.9375 z"
     id="path15969-6-5"
     style="fill:#cccccc;fill-opacity:1;stroke:none;display:inline" />
</svg>
