<?xml version="1.0" encoding="UTF-8" standalone="no"?>
<!-- Created with Inkscape (http://www.inkscape.org/) -->

<svg
   xmlns:dc="http://purl.org/dc/elements/1.1/"
   xmlns:cc="http://creativecommons.org/ns#"
   xmlns:rdf="http://www.w3.org/1999/02/22-rdf-syntax-ns#"
   xmlns:svg="http://www.w3.org/2000/svg"
   xmlns="http://www.w3.org/2000/svg"
   version="1.1"
   width="560"
   height="560"
   id="face_neutral">
  <path
     d="m 269.42031,128.7017 c 2.02515,2.2783 4.72536,1.2235 6.03328,0.4219 -2.06735,0.7595 -4.55661,0.6329 -6.03328,-0.4219 z"
     id="path24506-5"
     style="fill:#e9afaf;stroke:none;display:inline;enable-background:new" />
  <path
     d="m 291.52829,128.7017 c -2.02516,2.2783 -4.72537,1.2235 -6.03329,0.4219 2.06735,0.7595 4.55661,0.6329 6.03329,-0.4219 z"
     id="path24508-0"
     style="fill:#e9afaf;stroke:none;display:inline;enable-background:new" />
  <path
     d="m 291.72383,126.44312 c -2.75733,-2.37352 -4.84431,-1.2276 -6.38565,0.15694 2.05023,-2.578 4.95233,-2.04018 6.38565,-0.15694 z"
     id="path10044-6-19"
     style="fill:#e9afaf;fill-opacity:1;stroke:none;display:inline;enable-background:new" />
  <path
     d="m 268.90677,126.3702 c 2.84377,-2.5464 6.07691,-1.2276 7.00195,-0.3361 -1.64056,-1.93683 -4.88201,-2.06649 -7.00195,0.3361 z"
     id="path26224-2-35-7-4"
     style="fill:#e9afaf;fill-opacity:1;stroke:none;display:inline;enable-background:new" />
  <path
     d="m 275.20283,144.9992 c 1.75584,0.7449 2.81998,0.2661 5.05469,0.2661 2.23471,0 4.84187,-0.1064 5.42715,-0.2129 -1.01094,0.4789 -3.56489,0.6917 -3.93734,0.6917 1.54301,0.2661 2.02187,0.1064 2.39432,0.1597 -0.90452,0.4256 -2.02187,0.3192 -2.44753,0.4256 0.90452,0.3725 1.4898,0.4257 2.34112,0.3193 -1.27698,0.4788 -2.60716,0.1064 -4.41621,0.2128 -1.80905,0.1064 -3.08602,0.266 -3.56489,-0.1064 0.85132,0.1596 1.01094,-0.2661 1.59622,-0.2661 -1.17056,-0.266 -1.80905,-0.6385 -2.39433,-0.9045 0.85132,0.266 1.54301,0.1064 1.91547,0.053 -1.17057,-0.1596 -1.64943,-0.6385 -1.96867,-0.6385 z"
     id="path24528-9"
     style="fill:#e9afaf;stroke:none;display:inline;enable-background:new" />
</svg>
