<?xml version="1.0" encoding="UTF-8" standalone="no"?>
<!-- Created with Inkscape (http://www.inkscape.org/) -->

<svg
   xmlns:svg="http://www.w3.org/2000/svg"
   xmlns="http://www.w3.org/2000/svg"
   version="1.1"
   width="560"
   height="560"
   id="facialhair_moustache">
  <g
     transform="translate(0,-492.36218)"
     id="layer1">
    <path
       d="m 290.1168,632.86735 c -2.64098,1.30456 -4.62947,-3.53035 -7.8009,-2.10627 -1.11675,0.50147 -2.3621,0.27272 -3.07297,-0.12557 -2.38895,-1.33849 -5.03693,3.04289 -7.98593,2.30527 0.4454,0.48547 1.09237,0.93313 2.2774,0.8917 0.76032,-0.0266 2.74947,-1.04364 3.29633,-1.38797 1.60945,-0.79853 1.87556,-0.073 3.58524,-0.073 1.70598,0 2.39118,-0.78498 3.99492,0.12476 0.84274,0.47804 2.21531,1.03376 2.8491,1.30481 1.37815,0.5894 2.50616,-0.0662 2.85681,-0.93373 z"
       id="path21830"
       style="color:#000000;fill:#ffe680;fill-opacity:1;fill-rule:evenodd;stroke:#d4aa00;stroke-width:0.25;stroke-linecap:butt;stroke-linejoin:miter;stroke-miterlimit:4;stroke-opacity:1;stroke-dasharray:none;stroke-dashoffset:0;marker:none;visibility:visible;display:inline;overflow:visible;enable-background:accumulate" />
  </g>
</svg>
