<?xml version="1.0" encoding="UTF-8" standalone="no"?>
<!-- Created with Inkscape (http://www.inkscape.org/) -->

<svg
   xmlns:dc="http://purl.org/dc/elements/1.1/"
   xmlns:cc="http://creativecommons.org/ns#"
   xmlns:rdf="http://www.w3.org/1999/02/22-rdf-syntax-ns#"
   xmlns:svg="http://www.w3.org/2000/svg"
   xmlns="http://www.w3.org/2000/svg"
   version="1.1"
   width="560"
   height="560"
   id="facialhair_beard_guru">
  <path
     d="m 270.73855,145.46595 0,0 c -0.84278,-2.89758 -0.71947,-4.03982 -1.74495,-4.48074 -0.78912,-0.33929 -0.97558,-5.69367 -1.35713,-7.6578 -0.93246,-0.87195 -1.56798,-3.05122 -1.87739,-4.3155 -0.87753,2.38617 2.22346,7.06804 0.0655,8.21509 -2.45619,1.30557 -3.8681,3.83493 -4.01526,6.53947 -0.0918,1.68756 1.21934,4.16224 -0.23297,6.46792 -5.35575,8.50275 -0.62595,16.76639 -7.69833,18.07277 6.09524,-0.68606 5.08294,-7.01816 6.50369,-12.1904 0.38864,1.14765 1.02723,2.50819 1.9656,4.15098 4.48333,7.84891 -11.13486,10.41956 -11.53853,17.25659 2.9997,-6.01536 11.49552,-7.34414 13.17185,-10.25101 0.30364,2.57202 0.51066,5.33468 0.66982,7.42905 0.24579,3.23447 -3.9558,10.53391 1.2305,16.74633 -1.04791,-4.14733 -0.33248,-7.69518 0.24477,-9.72161 0.034,2.79882 0.991,5.69561 1.81652,8.33997 2.12934,6.82088 -3.77179,7.85599 -1.76315,17.5393 0.58764,-7.17737 2.95869,-8.25279 3.50549,-10.08203 0.84263,5.84162 0.9336,11.03332 -0.129,13.56917 -1.29483,3.09011 -3.14164,8.05727 -1.81259,13.06568 1.42013,5.35164 5.68235,8.91026 2.62262,12.55411 6.12018,-2.16218 -0.56217,-12.66327 -0.61026,-13.48224 1.64068,1.71628 4.11793,1.40866 4.70065,0.25089 -1.87339,0.12454 -5.66642,-2.06673 -3.1008,-5.44501 0.91165,-1.20037 2.40284,-2.87885 3.2919,-3.9341 0.36621,1.28641 1.05021,4.46831 0.78809,7.18065 2.46369,-2.5563 0.48885,-8.13657 0.61623,-9.19392 0.17367,-1.44084 1.03274,-2.5272 0.99197,-4.18041 1.70235,7.03085 2.05742,17.21236 -0.87111,19.50555 6.03479,-0.9769 7.29901,-13.87047 6.5667,-20.06677 1.44142,11.02294 0.51758,13.05189 -0.23925,14.83206 1.63939,-1.02933 2.32499,-5.64537 2.08375,-8.81905 0.7348,4.22043 1.10381,5.97132 -3.02743,13.00098 -0.57085,0.97135 -4.81337,9.19276 0.7427,15.31087 -3.06564,-5.40574 -0.24554,-12.07379 0.55964,-12.91624 7.23354,-7.5684 6.42547,-17.88403 3.74026,-24.65061 3.56853,9.01849 3.91362,11.90253 3.83362,15.12992 0.50682,-0.81356 0.97701,-1.67786 1.31496,-2.75869 0.28634,-0.91555 1.28154,4.28665 1.56732,6.65633 1.13359,-2.31996 0.38881,-7.23953 0.81178,-6.31664 0.57159,1.24719 0.88189,2.21228 1.21569,3.93191 0.71398,-2.1759 1.2078,-3.48518 1.12543,-5.27215 0.93368,3.59329 0.74916,7.13854 0.11784,8.19241 -0.63132,1.0539 -7.67218,7.33811 -1.24203,12.24948 -4.17516,-5.89799 2.55904,-7.19579 4.51412,-11.37139 -0.15602,0.97484 -0.70605,3.6794 1.65919,5.36025 -1.37877,-2.15829 -0.13003,-7.77107 0.35413,-9.05168 1.55818,-4.12114 2.23917,-9.50939 1.08144,-16.05387 1.10885,2.23457 1.72939,6.96042 2.07001,10.58304 0.87024,-5.72547 0.70569,-10.47186 -2.2624,-18.21724 0.50706,-1.18442 0.80591,-3.62662 0.38055,-8.16155 1.55631,2.28235 4.59536,4.24589 4.27508,11.43024 2.42659,-8.34352 -4.12798,-13.16608 -3.62082,-19.21068 1.3085,2.02837 2.9115,3.50322 4.16769,4.3055 -1.95966,-2.88973 -3.23534,-6.76475 -4.01116,-10.53865 -1.07674,-5.23766 -0.48878,-6.9975 -1.15529,-8.87456 0.75582,1.31357 1.98861,6.92328 3.17148,8.94478 -1.59406,-6.9959 -2.40362,-12.61635 -2.35453,-17.79215 0.0426,-4.48889 -0.4807,-8.01527 -1.25858,-10.91178 1.92341,1.44016 2.26626,9.40334 7.02773,12.79291 -4.21448,-3.17664 -3.44375,-14.77114 -11.89365,-22.20825 -1.78874,-1.57434 -1.37054,-2.0564 -0.96915,-7.92489 -0.0744,0.68942 -0.89181,1.9981 -1.10306,2.77562 -0.25187,1.53342 0.072,3.61486 -0.39681,5.05309 -1.3253,4.06546 -3.33521,7.31871 -4.73517,9.16801 -0.30161,-2.02827 0.12327,-5.16538 -3.62603,-6.60049 -1.84809,-0.70739 -3.84479,-1.55092 -5.10804,-0.92307 -0.79472,0.395 -0.61377,1.05961 -0.31137,1.55201 0.46429,0.75599 5.29636,0.43999 6.18089,2.18636 -0.36805,1.1159 -0.7381,3.92863 -1.53419,4.42056 -1.5173,-1.23691 -3.34109,-1.92904 -4.98823,-1.19891 -1.75099,-0.60179 -4.76994,-0.92774 -6.29987,2.539 -0.50991,-3.68698 0.56804,-6.72057 2.09842,-7.13312 0.80495,-0.21702 3.25077,-0.14864 3.69017,-0.8505 0.29964,-0.47862 0.15939,-1.22473 -0.22835,-1.46712 -1.0345,-0.6467 -2.85661,-0.37232 -3.95025,0.58269 -1.09365,0.95501 -3.1446,0.0732 -5.47238,6.34289 z"
     id="path3398-2"
     style="fill:#ffe680;fill-opacity:1;fill-rule:evenodd;stroke:#d4aa00;stroke-width:0.5;stroke-miterlimit:4;stroke-opacity:1;stroke-dasharray:none;display:inline" />
  <path
     d="m 262.9375,150.3125 c -0.30122,0.0743 -2.00437,3.36639 -2.53125,5.90625 0.39118,1.12903 1.02303,2.46155 1.9375,4.0625 1.37749,2.41155 0.86213,4.30816 -0.53125,6 1.43582,-0.91291 2.12475,-2.62797 1.8125,-6.375 -0.33907,-4.06886 -1.02658,-7.81792 -0.6875,-9.34375 0.0424,-0.19073 0.051,-0.26258 0,-0.25 z"
     id="path307795"
     style="color:#000000;fill:#ffd42a;fill-opacity:1;stroke:none;marker:none;visibility:visible;display:inline;overflow:visible;enable-background:accumulate" />
  <path
     d="m 269.5625,147.6875 c -1.18675,1.8649 -0.49607,3.23353 -1.34375,5.4375 0.67814,-0.33907 1.3531,-0.68432 2.03125,-2.71875 -0.33907,2.54303 -0.67572,8.30614 -3.21875,12.375 1.01721,-3.89932 -0.87032,-7.98353 -0.53125,-10.1875 -0.84768,3.05165 0.34768,6.29211 -0.5,9.34375 -0.74172,2.67019 -3.16404,6.23001 -6.03125,8.21875 1.85006,-0.95446 3.38314,-1.80532 4,-2.875 0.30364,2.57202 0.52834,5.31188 0.6875,7.40625 1.16548,-4.7644 2.44531,-10.50993 3.71875,-12.59375 1.8649,-3.05164 2.53125,-10.68975 2.53125,-14.25 -0.67814,0.84768 -0.33121,0.85386 -1.6875,2.71875 0,-1.52582 0.51329,-2.53593 0.34375,-2.875 z"
     id="path307797"
     style="color:#000000;fill:#ffd42a;fill-opacity:1;stroke:none;marker:none;visibility:visible;display:inline;overflow:visible;enable-background:accumulate" />
  <path
     d="m 273.28125,160.90625 c -0.84768,5.93375 -4.74682,11.36003 -6.78125,15.9375 -1.66757,3.75204 -2.25466,6.18456 -1.125,10.9375 -0.0904,-2.5318 0.35314,-4.66933 0.75,-6.0625 0.034,2.79882 0.98698,5.69939 1.8125,8.34375 1.06467,3.41044 0.11428,5.3657 -0.84375,7.6875 2.14325,-3.82749 2.6334,-6.35376 2.96875,-9.875 0.33907,1.52582 0.16954,2.88043 0,4.40625 0.84768,-2.54303 0.69143,-6.43582 -0.15625,-10.84375 -0.84768,1.69536 -0.8531,3.53742 -1.53125,6.25 -0.5086,-9.49401 3.89764,-13.71239 4.40625,-17.78125 -0.84768,1.86489 -2.36247,5.24607 -3.71875,6.09375 2.3735,-5.59468 4.72736,-11.70303 4.21875,-15.09375 z"
     id="path307799"
     style="color:#000000;fill:#ffd42a;fill-opacity:1;stroke:none;marker:none;visibility:visible;display:inline;overflow:visible;enable-background:accumulate" />
  <path
     d="m 278.875,151.75 c 0.33907,3.56026 -1.17028,10.17646 -2.1875,13.90625 -1.01721,3.72979 -0.83907,8.64521 -0.5,12.375 0.33907,3.72979 0.84618,10.17796 -2.375,16.28125 0.67814,-2.71257 1.3344,-7.95621 0.65625,-9.3125 -0.33907,2.71258 -1.16243,5.56942 -3.875,9.46875 -2.16236,3.10839 -3.04107,4.96349 -3.5625,8.40625 0.93828,-3.08152 2.26324,-4.02898 2.65625,-5.34375 0.84263,5.84162 0.9376,11.02665 -0.125,13.5625 -0.60497,1.44375 -1.34675,3.29899 -1.8125,5.375 1.10982,-3.625 5.20895,-10.68002 5.875,-13.84375 -0.50861,0.84768 -0.67029,1.51403 -1.6875,2.53125 0,-2.03443 2.02339,-9.16243 3.71875,-11.875 -0.16954,1.52582 -0.32654,3.57803 -1.34375,6.96875 6.95097,-14.58009 3.04453,-24.92721 2.875,-29.84375 -0.16954,-4.91654 2.70471,-15.6046 1.6875,-18.65625 z"
     id="path307801"
     style="color:#000000;fill:#ffd42a;fill-opacity:1;stroke:none;marker:none;visibility:visible;display:inline;overflow:visible;enable-background:accumulate" />
  <path
     d="m 280.0625,160.5625 c -0.50861,3.56025 0.009,4.76553 0.6875,8.15625 0.67814,3.39072 1.52582,14.41786 0,18.65625 -1.52582,4.2384 -1.34375,7.78742 -1.34375,10.5 0,2.71257 -0.014,8.97961 -1.03125,12.03125 -1.01722,-4.91654 -0.66485,-7.61321 -0.15625,-10.15625 -1.52582,2.54304 -2.88361,8.61864 -2.375,12.6875 0.46342,3.70736 1.02898,6.03095 -0.40625,8.71875 -0.004,0.0411 0.004,0.084 0,0.125 2.46369,-2.5563 0.49762,-8.13015 0.625,-9.1875 0.17367,-1.44084 1.00952,-2.53429 0.96875,-4.1875 1.44276,5.95871 1.92138,14.17262 0.25,17.9375 3.70454,-5.88199 2.61798,-11.86385 2.78125,-20.84375 0.16953,-9.32447 1.18357,-13.90775 2.03125,-16.28125 0.84768,-2.3735 3.23597,-7.12014 2.21875,-13.5625 0,2.03443 -1.18825,7.95697 -2.375,10.5 1.01722,-6.61189 0.009,-14.23821 -0.5,-16.78125 -0.5086,-2.54303 -1.375,-4.24364 -1.375,-8.3125 z m -5.25,46.8125 c -0.33908,1.8649 -3.55857,6.60928 -4.40625,10 -0.29278,1.1711 -0.2125,2.28553 0.125,3.25 -0.11653,-0.74801 0.0752,-1.62286 0.8125,-2.59375 0.91165,-1.20037 2.42344,-2.88225 3.3125,-3.9375 0.29618,1.04041 0.76922,3.32479 0.8125,5.59375 0.10177,-1.57477 -0.0932,-3.3717 -0.3125,-4.6875 -0.33907,-2.03443 -0.51329,-3.89521 -0.34375,-7.625 z m -6.09375,11 c -1.01722,4.06886 1.00075,7.82261 2.1875,9.6875 1.07744,1.69312 2.85376,5.47013 0,8.4375 5.17216,-2.58246 -1.10966,-12.48787 -1.15625,-13.28125 1.57816,1.65088 3.92942,1.4247 4.625,0.375 -3.39275,1.41222 -5.49129,-1.42448 -5.65625,-5.21875 z m 3.34375,4.40625 c 0.47816,0.35257 1.02807,0.56879 1.625,0.65625 -0.52323,-0.10276 -1.11162,-0.32744 -1.625,-0.65625 z m 1.625,0.65625 c 0.24844,0.0364 0.51855,0.0489 0.78125,0.0312 -0.23417,0.0156 -0.50326,0.0233 -0.78125,-0.0312 z m 2.78125,3.6875 c -0.0949,0.0996 -0.17829,0.20063 -0.28125,0.28125 0.0445,-0.007 0.081,-0.0228 0.125,-0.0312 0.0479,-0.0833 0.10478,-0.16557 0.15625,-0.25 z"
     id="path307803"
     style="color:#000000;fill:#ffd42a;fill-opacity:1;stroke:none;marker:none;visibility:visible;display:inline;overflow:visible;enable-background:accumulate" />
  <path
     d="m 264.98455,149.53647 c -0.16954,-2.71257 -0.33908,-5.42515 1.35628,-7.45958 -0.33907,1.35629 -0.67814,2.03443 -0.67814,3.05165 0.84768,-2.03443 1.18675,-2.71257 2.03443,-3.22118 -1.18675,2.54304 -2.3735,4.06886 -2.71257,7.62911 z"
     transform="translate(0,-1)"
     id="path307805"
     style="color:#000000;fill:#ffd42a;fill-opacity:1;stroke:none;marker:none;visibility:visible;display:inline;overflow:visible;enable-background:accumulate" />
  <path
     d="m 293.3125,143.125 c 0.33908,1.8649 0.83589,3.19761 2.53125,5.0625 1.69536,1.86489 3.89297,4.92946 4.0625,13.40625 -0.67814,-4.91654 -1.0101,-7.10853 -2.875,-9.3125 2.03443,4.2384 2.52732,12.17646 3.375,15.90625 0.72157,3.1749 2.57086,6.76472 4.5625,10.78125 -0.40655,-1.30963 -0.75738,-2.63653 -1.03125,-3.96875 -1.07674,-5.23766 -0.48974,-6.99794 -1.15625,-8.875 0.7427,1.29077 1.96112,6.70602 3.125,8.8125 -1.6319,-5.00299 -4.99669,-15.14297 -6.5,-21.15625 -1.69536,-6.78143 -5.4156,-8.62182 -6.09375,-10.65625 z"
     id="path307839"
     style="color:#000000;fill:#ffd42a;fill-opacity:1;stroke:none;marker:none;visibility:visible;display:inline;overflow:visible;enable-background:accumulate" />
  <path
     d="m 267.53125,135.15625 c -0.35586,0.62275 -0.63066,1.04124 -1.09375,1.4375 -0.12234,0.26972 -0.33338,0.46999 -0.625,0.625 -1.38161,0.73438 -2.41222,1.86532 -3.09375,3.1875 0.72191,-0.92803 1.61168,-1.32479 2.4375,-1.53125 -1.52582,1.18675 -2.38829,4.05464 -2.21875,5.75 0.84768,-3.39072 3.06793,-5.74139 4.59375,-6.25 -0.5086,0 -1.375,-0.1875 -1.375,-0.1875 1.35628,-0.5086 1.375,-1.8445 1.375,-3.03125 z"
     id="path307807"
     style="color:#000000;fill:#ffd42a;fill-opacity:1;stroke:none;marker:none;visibility:visible;display:inline;overflow:visible;enable-background:accumulate" />
  <path
     d="m 286.40625,184.28125 c -0.47952,2.03796 -0.73358,4.10187 -1.8125,7.21875 -1.07892,3.11688 -1.69262,8.63312 -1.8125,11.75 -0.47952,-3.23676 -0.23976,-5.65978 0,-7.9375 -1.67832,5.99399 -0.93238,9.96345 -0.8125,17.15625 0.10362,6.21731 -1.4318,10.81967 -3.46875,13.8125 4.02183,-3.46011 4.87583,-13.64217 4.25,-18.9375 0.76466,5.84754 0.84481,9.12778 0.65625,11.21875 0.95176,-4.80393 -0.36188,-9.80358 0.21875,-14.59375 0.35964,1.31868 0.84834,3.35858 1.6875,4.4375 -1.91808,-6.5934 -1.32839,-10.20586 -0.96875,-13.5625 0.35964,-3.35664 2.30226,-5.64742 2.0625,-10.5625 z"
     id="path307809"
     style="color:#000000;fill:#ffd42a;fill-opacity:1;stroke:none;marker:none;visibility:visible;display:inline;overflow:visible;enable-background:accumulate" />
  <path
     d="m 290.59375,167.53125 c 3.89933,6.78143 4.40307,15.75767 6.4375,20.84375 1.67078,4.17693 4.13745,6.62605 5.71875,8.78125 0.50706,-1.18442 0.80036,-3.62132 0.375,-8.15625 1.55631,2.28235 4.60153,4.25315 4.28125,11.4375 0.0868,-0.29833 0.15422,-0.58545 0.21875,-0.875 0.3405,-9.26778 -5.63052,-14.04596 -8.21875,-17.28125 -2.71258,-3.39072 -5.08271,-10.17253 -8.8125,-14.75 z"
     id="path307990"
     style="fill:#ffd42a;fill-opacity:1;stroke:none;display:inline;enable-background:new" />
  <path
     d="m 286.5,193.625 c -0.50861,1.52582 -3.28898,3.57885 0.34375,14.25 2.71257,7.96818 0.0379,15.08087 -3.375,18.65625 -3.2557,3.41075 -4.52089,11.06305 -1.34375,14.8125 -2.7614,-5.34077 -0.0695,-11.76907 0.71875,-12.59375 6.78144,-7.09537 6.52483,-16.60723 4.25,-23.34375 3.06765,7.95131 3.41955,10.78585 3.34375,13.84375 0.0722,-0.11596 0.11703,-0.2565 0.1875,-0.375 0.82789,-3.43369 0.0591,-5.70636 -0.375,-9.46875 1.35629,1.18675 1.3445,2.71239 2.53125,6.78125 -0.67815,-6.44236 -3.04996,-9.68039 -4.40625,-12.5625 -1.35628,-2.88211 -2.72268,-6.27021 -1.875,-10 z"
     id="path307811"
     style="color:#000000;fill:#ffd42a;fill-opacity:1;stroke:none;marker:none;visibility:visible;display:inline;overflow:visible;enable-background:accumulate" />
  <path
     d="m 282.53125,147.15625 c 1.17032,1.74524 1.5447,6.84976 0.75,10.1875 -0.84768,3.56025 1.35779,7.79604 2.375,10 1.01722,2.20397 2.56718,6.7835 2.90625,10.34375 0.33907,3.56025 -0.52265,10.52339 -1.03125,12.21875 -0.50861,1.69536 1.18432,7.95771 3.21875,11.6875 -1.52583,-4.74701 -2.8836,-9.32018 -2.375,-14.40625 0.16954,4.23839 1.02021,7.7951 4.75,15.59375 3.50026,7.31873 3.39449,11.97679 2.25,17.84375 0.69057,-2.09775 1.17445,-3.40558 1.09375,-5.15625 0.93368,3.59329 0.75632,7.13363 0.125,8.1875 -0.22544,0.37634 -1.26393,1.46543 -2.21875,2.875 0.57715,-0.61192 1.28738,-1.46052 2.15625,-2.5625 6.95097,-8.81587 -1.3765,-19.66785 -3.75,-23.90625 -2.3735,-4.23839 -4.73129,-7.63099 -3.375,-17.125 0.50861,6.6119 2.71239,9.16935 6.78125,15.78125 4.06886,6.61189 5.74925,16.43263 4.5625,22.875 1.18675,-3.72979 1.53051,-4.74196 0.34375,-13.21875 -1.18675,-8.47679 -4.24757,-12.37332 -7.46875,-16.78125 1.35628,0.67814 3.72961,2.20379 6.78125,6.78125 -2.88211,-7.79865 -8.12575,-8.65307 -9.3125,-10.6875 -1.18675,-2.03444 -1.00468,-6.92646 -1.34375,-10.65625 0.67815,1.35628 0.9914,2.18039 1.5,5.0625 -0.16953,-6.95097 -4.7195,-14.90382 -5.90625,-18.125 -1.18675,-3.22119 -0.50861,-6.439 0,-8.8125 0.50861,-2.3735 0.33439,-4.25543 -0.34375,-5.78125 0.16953,1.35629 0.16018,3.55464 -0.6875,5.25 0.16189,-2.5902 0.13737,-5.30743 -1.78125,-7.46875 z m 9.90625,60.21875 c 1.18674,5.63707 1.60641,10.60987 0.78125,15.0625 0.031,0.22005 0.071,0.49884 0.0937,0.6875 1.13359,-2.31996 0.38953,-7.23539 0.8125,-6.3125 0.54865,1.19715 0.86846,2.15589 1.1875,3.75 0.22001,-3.2213 -0.4852,-8.25853 -2.875,-13.1875 z"
     id="path307986"
     style="fill:#ffd42a;fill-opacity:1;stroke:none;display:inline;enable-background:new" />
  <path
     d="m 289.90625,152.09375 c 1.69536,2.8821 2.70153,6.10068 3.71875,10 -2.88211,-3.05164 -3.21482,-4.58196 -4.0625,-7.125 0.67814,7.45958 4.06325,8.31942 5.25,12.21875 -1.18675,-1.18675 -1.85311,-1.86639 -2.53125,-2.375 1.86489,2.54304 4.57729,5.93657 6.78125,11.53125 1.82044,4.6211 3.99809,7.26683 5.84375,10.34375 -0.73117,-1.795 -1.28349,-3.57981 -1.125,-5.46875 1.3085,2.02837 2.93131,3.51022 4.1875,4.3125 -0.22429,-0.33074 -0.44961,-0.67633 -0.65625,-1.03125 -0.0234,-0.0283 -0.0392,-0.0655 -0.0625,-0.0937 -8.59821,-10.43301 -10.94283,-20.63232 -11.90625,-23.84375 -1.01722,-3.39072 -3.23354,-6.60386 -5.4375,-8.46875 z"
     id="path307835"
     style="color:#000000;fill:#ffd42a;fill-opacity:1;stroke:none;marker:none;visibility:visible;display:inline;overflow:visible;enable-background:accumulate" />
  <path
     d="m 286.5156,156.82651 c -0.16954,4.2384 -0.67814,6.10329 1.01722,10.00262 1.69535,3.89932 3.89932,7.62911 5.25561,17.29266 0,-8.4768 -1.35629,-10.8503 -3.39072,-15.08869 -2.03443,-4.2384 -2.71257,-4.91654 -2.3735,-7.12051 0.33907,-2.20397 -0.33907,-3.89933 -0.50861,-5.08608 z"
     transform="translate(0,-1)"
     id="path307837"
     style="color:#000000;fill:#ffd42a;fill-opacity:1;stroke:none;marker:none;visibility:visible;display:inline;overflow:visible;enable-background:accumulate" />
  <path
     d="m 298.21875,141.25 c 4.57747,4.747 4.40625,13.38192 4.40625,17.28125 -1.69536,-5.08608 -1.54211,-11.68039 -4.59375,-14.5625 1.69536,2.54304 2.38436,7.28818 3.0625,11.1875 0.58026,3.33646 1.70801,6.42185 3.28125,11.5625 -0.51541,-3.40832 -0.77796,-6.48963 -0.75,-9.4375 0.0426,-4.48889 -0.50337,-8.04099 -1.28125,-10.9375 1.85494,1.3889 2.26657,8.83688 6.5625,12.40625 -0.0821,-0.0951 -0.17125,-0.18732 -0.25,-0.28125 -2.39998,-2.86244 -3.27894,-5.17943 -4.15625,-8.25 -1.01721,-3.56025 -2.89053,-7.61246 -6.28125,-8.96875 z"
     id="path307841"
     style="color:#000000;fill:#ffd42a;fill-opacity:1;stroke:none;marker:none;visibility:visible;display:inline;overflow:visible;enable-background:accumulate" />
  <path
     d="m 275.15625,142.4375 c -2.03443,2.71257 -1.79454,4.75149 -1.625,7.125 0.16953,2.3735 -0.0762,5.16205 -0.5,7.28125 1.18675,-2.62781 1.96444,-6.11246 2.21875,-7.46875 0.2543,0.93245 0.41954,2.64839 0.25,4.34375 0.93245,-2.45827 -0.27151,-6.03668 1,-7.5625 -0.0848,1.10198 -0.16058,1.69293 0.0937,3.21875 0.33907,-1.52582 0.69256,-2.77264 1.625,-3.28125 0.93245,0.67815 1.25468,1.58121 1.59375,2.9375 0.33908,-1.52582 0.76759,-2.70116 0.34375,-3.125 0.93244,0.5086 1.1875,2.63978 1.1875,4.84375 0.5086,-2.28874 0.51755,-3.47848 0.0937,-4.75 1.44106,-0.5086 3.13473,-0.44536 4.40625,1.25 1.27152,1.69536 2.20976,4.32261 2.125,6.1875 -0.0848,1.8649 -0.36022,7.39989 1.84375,11.46875 -1.01722,-4.15363 -1.53125,-9.91206 -1.53125,-12.03125 0,-1.86755 -1.30333,-5.07007 -1.5,-8.0625 -0.23172,0.85344 -0.52698,1.60939 -0.90625,1.84375 -1.5173,-1.23691 -3.32161,-1.94888 -4.96875,-1.21875 -1.75099,-0.60179 -4.78257,-0.90424 -6.3125,2.5625 -0.30926,-2.23612 -0.0431,-4.24601 0.5625,-5.5625 z"
     id="path307843"
     style="color:#000000;fill:#ffd42a;fill-opacity:1;stroke:none;marker:none;visibility:visible;display:inline;overflow:visible;enable-background:accumulate" />
  <path
     d="m 295.28125,135.1875 c -0.03,0.58968 -0.0909,1.16816 -0.25,1.65625 -0.19906,0.61063 -0.43069,1.20927 -0.65625,1.78125 0.28318,1.15609 0.88831,2.12538 2.46875,3.46875 -1.10199,-1.78013 -1.42422,-2.36676 -1.59375,-3.46875 -0.15624,-1.01555 0.40631,-1.6272 0.0312,-3.4375 z m -0.96875,3.59375 c -0.2296,0.57335 -0.47196,1.12673 -0.71875,1.65625 0.16154,1.22698 0.72485,2.5546 1.90625,3.875 1.44106,1.61059 2.54061,2.52376 3.21875,4.8125 -0.2543,-2.3735 -1.44255,-3.98747 -2.375,-5.34375 -0.8802,-1.28029 -2.04412,-2.64172 -2.03125,-5 z M 292.53125,142.5 c -0.32099,0.57803 -0.62552,1.13252 -0.9375,1.625 0.29666,0.82473 0.73349,1.63974 1.71875,2.625 -0.62767,-1.31241 -1.08065,-2.54827 -0.78125,-4.25 z m -1.375,2.28125 c -0.29782,0.44317 -0.61171,0.87096 -0.875,1.21875 -0.14736,0.94829 -0.24928,2.00218 0.125,3.125 0.67814,2.03443 4.59487,4.41037 6.375,10.9375 -0.16954,-3.56025 -2.7906,-7.11677 -3.46875,-8.21875 -0.67814,-1.10198 -1.875,-3.12575 -1.875,-4.3125 0.59338,1.52582 3.81325,3.81437 5,6.78125 -0.84768,-3.64502 -3.14334,-6.29529 -3.90625,-7.3125 -0.53087,-0.70783 -1.10477,-0.89299 -1.375,-2.21875 z"
     id="path307845"
     style="color:#000000;fill:#ffd42a;fill-opacity:1;stroke:none;marker:none;visibility:visible;display:inline;overflow:visible;enable-background:accumulate" />
</svg>
