<?xml version="1.0" encoding="UTF-8" standalone="no"?>
<!-- Created with Inkscape (http://www.inkscape.org/) -->

<svg
   xmlns:svg="http://www.w3.org/2000/svg"
   xmlns="http://www.w3.org/2000/svg"
   version="1.1"
   width="560"
   height="560"
   id="facialhair_chinpuff">
  <g
     transform="translate(0,-492.36218)"
     id="layer1">
    <path
       d="m 275.37158,642.82385 c 0.10607,0.10942 0.65155,0.69194 0.83482,0.81135 -0.0117,-0.16711 -0.13399,-0.47988 -0.16516,-0.70465 0.32218,0.0488 1.00024,0.11603 1.83856,0.2239 0.0835,0.18451 0.35622,0.47247 0.52953,0.69875 0.026,-0.18694 0.13204,-0.46856 0.12088,-0.61209 0.69018,0.095 1.78009,0.14235 2.54771,0.1587 0.16782,0.21024 0.22653,0.58256 0.38929,0.88926 0.088,-0.31263 0.28642,-0.70361 0.31929,-0.86018 0.94084,-0.0562 2.27303,-0.2877 2.88991,-0.3702 -0.0788,0.21938 -0.38647,0.70578 -0.62657,0.97864 0.36791,-0.14252 1.17679,-0.92868 1.36824,-1.08453 0.0323,0.13953 0.0159,0.86202 -0.0741,0.99262 0.18909,-0.1185 0.6446,-0.75722 0.70716,-1.07683 0.3699,-0.061 0.79035,-0.17507 0.79035,-0.17507 -0.001,0.26978 -0.11544,1.89745 -0.41126,3.73558 l -0.53677,-0.24732 c 0.0682,0.29046 0.401,0.97314 0.401,0.97314 -0.0274,0.88564 -0.20512,2.23709 -0.49176,3.09737 -0.20941,-0.16651 -0.67831,-0.46563 -0.67831,-0.46563 0.18121,0.42879 0.27444,0.57888 0.46442,0.98252 -0.22718,1.05145 -0.41217,1.79451 -0.55599,1.95071 0.003,-0.0644 -0.21876,-0.17058 -0.3546,-0.18819 -0.017,0.20876 -0.29506,0.54261 -0.59404,0.84068 0.0272,-0.22553 -0.0153,-0.47055 -0.12123,-0.62944 -0.0883,0.24716 -0.28319,0.62305 -0.38545,0.80014 -0.44352,0.0143 -0.93466,-0.0665 -1.32119,-0.0296 0.0202,-0.15496 -0.051,-0.58719 -0.14185,-0.66497 -0.0588,0.13094 -0.17125,0.39411 -0.31556,0.71206 -0.27807,0.12303 -0.56497,0.1287 -0.80169,0.25211 -0.2286,-0.24605 -0.45994,-0.79612 -0.51085,-0.94729 -0.0805,0.15061 -0.0931,0.45922 -0.0688,0.77522 -0.63831,-0.10088 -1.54413,-0.0188 -2.09721,-0.276 -0.20102,-0.23614 -0.38343,-0.52026 -0.48245,-0.65733 -0.0635,0.19327 -0.0758,0.50005 -0.0786,0.58199 -0.57605,-0.33623 -0.98636,-1.64956 -1.37467,-3.34151 0.0965,-0.42 0.3389,-0.89795 0.49959,-1.24986 0,0 -0.50715,0.18944 -0.68551,0.3956 -0.17487,-0.84578 -0.33264,-1.73267 -0.45531,-2.55314 0.15278,-0.27012 0.44241,-0.73155 0.52121,-1.01342 0,0 -0.42549,0.27375 -0.67087,0.40397 -0.20304,-1.579 -0.19614,-2.93031 -0.22186,-3.10711 z"
       id="path305475"
       style="color:#000000;fill:#ffe680;fill-opacity:1;stroke:#d4aa00;stroke-width:0.25;stroke-miterlimit:4;stroke-opacity:1;stroke-dasharray:none;marker:none;visibility:visible;display:inline;overflow:visible;enable-background:accumulate" />
  </g>
</svg>
