<?xml version="1.0" encoding="UTF-8" standalone="no"?>
<!-- Created with Inkscape (http://www.inkscape.org/) -->

<svg
   xmlns:svg="http://www.w3.org/2000/svg"
   xmlns="http://www.w3.org/2000/svg"
   version="1.1"
   width="560"
   height="560"
   id="facialhair_soulpatch">
  <g
     transform="translate(0,-492.36218)"
     id="layer1">
    <path
       d="m 278.32786,637.33052 c 0.10608,0.10942 0.34909,0.37816 0.4797,0.48342 0.0197,-0.15902 0.0601,-0.31187 0.10767,-0.39799 0.50729,0.0602 1.03925,0.0903 1.56848,0.0918 0.0523,0.20408 0.17623,0.5038 0.26186,0.64036 0.0507,-0.16077 0.18085,-0.50977 0.18276,-0.64579 0.46051,-0.0126 0.86593,-0.0401 1.29201,-0.0948 0.0293,0.14026 0.016,0.42036 -0.008,0.5369 0.0893,-0.0967 0.32572,-0.33786 0.4161,-0.57539 0.25833,-0.0397 0.41736,-0.0941 0.64749,-0.14934 -0.003,0.67421 -0.0617,1.21371 -0.17783,1.6617 -0.0409,-0.0536 -0.29759,-0.14675 -0.41926,-0.17489 0.0965,0.17479 0.1989,0.59894 0.15479,0.87787 -0.2081,0.40091 -0.49114,0.71766 -0.8523,1.01225 -0.0593,-0.16445 -0.31458,-0.3655 -0.40049,-0.44102 0.013,0.14097 0.0411,0.40875 0.002,0.73818 -0.19379,0.13387 -0.40485,0.26753 -0.63351,0.40729 -0.63458,-0.34423 -1.09468,-0.71096 -1.43281,-1.08006 -0.044,-0.27417 -0.0441,-0.70291 -0.046,-0.84006 -0.11564,0.0727 -0.26231,0.30217 -0.31195,0.38629 -0.65963,-0.98203 -0.75747,-1.93557 -0.83039,-2.43676 z"
       id="path39855"
       style="color:#000000;fill:#ffe680;fill-opacity:1;stroke:#d4aa00;stroke-width:0.25;stroke-miterlimit:4;stroke-opacity:1;stroke-dasharray:none;marker:none;visibility:visible;display:inline;overflow:visible;enable-background:accumulate" />
  </g>
</svg>
