<?xml version="1.0" encoding="UTF-8" standalone="no"?>
<!-- Created with Inkscape (http://www.inkscape.org/) -->

<svg
   xmlns:svg="http://www.w3.org/2000/svg"
   xmlns="http://www.w3.org/2000/svg"
   version="1.1"
   width="560"
   height="560"
   id="facialhair_beard_intelectual">
  <defs
     id="defs159377">
    <clipPath
       id="clipPath30513-1-9">
      <path
         d="m 802.7007,239.5223 c 9.88067,-5.2428 21.97945,-3.428 27.02062,11.6955 5.04116,15.1235 0,27.6256 1.61317,31.2552 1.61317,3.6297 3.83128,9.4774 3.62963,18.3499 -0.20164,8.8724 1.61317,9.4773 4.43622,18.3498 2.82305,8.8724 3.62964,49 4.43622,54.2429 0.80659,5.2428 -1.20987,7.6625 -2.41975,10.2839 -1.20988,2.6214 -8.26751,-1.2098 -9.27574,-3.8313 -1.00823,-2.6214 -0.40329,-3.0246 0.20165,-5.8477 0.60494,-2.823 -5.84775,-30.0453 -8.2675,-36.498 -2.41976,-6.4527 -5.44446,-18.7531 -5.24281,-23.7943 0.20165,-5.0411 -2.82305,-7.8642 -5.24281,-16.9383 -2.41976,-9.0741 -3.42799,-28.4321 -1.61317,-41.5392"
         id="path30515-4-4"
         style="fill:none;stroke:#552200;stroke-width:1px;stroke-linecap:butt;stroke-linejoin:miter;stroke-opacity:1;display:inline" />
    </clipPath>
    <clipPath
       id="clipPath30446-4-3">
      <path
         d="m 751.28086,2651.7015 c -9.88068,-6.0494 -18.14818,-7.0576 -27.22227,3.8313 -9.07409,10.8889 -2.21811,30.0453 -5.04116,36.6996 -2.82305,6.6544 -3.42799,10.6873 -4.23457,20.3663 -0.80659,9.679 -7.46092,11.2922 -7.05763,37.3046 0.40329,26.0124 2.21811,28.2305 1.41153,33.2717 -0.80659,5.0411 0.40329,2.4197 0.80658,7.0576 0.40329,4.6379 12.30043,1.0082 12.70373,-4.0329 0.40329,-5.0412 0.60494,-3.8313 -0.4033,-8.2676 -1.00823,-4.4362 1.81482,-27.8271 5.24281,-36.2963 3.42799,-8.4692 1.81482,-19.7613 3.42799,-21.9795 1.61317,-2.2181 8.2675,-7.0576 9.07409,-49.4033"
         id="path30448-9-3"
         style="fill:none;stroke:#552200;stroke-width:1px;stroke-linecap:butt;stroke-linejoin:miter;stroke-opacity:1;display:inline" />
    </clipPath>
    <clipPath
       id="clipPath53682">
      <path
         d="m 493.45523,302.43478 c 16.08,-1.34 22.78001,1.34001 27.13501,4.02001 4.355,2.68 6.03,9.045 13.40001,8.375 7.37,-0.67 9.715,-13.06501 16.75,-16.41501 -5.025,0.67 -11.055,4.35501 -13.735,5.36001 7.035,-5.69501 19.43001,-11.05501 32.83001,-7.37001 -22.44501,50.25003 -57.28502,28.47502 -76.38003,6.03 z"
         id="path53684"
         style="color:#000000;fill:none;stroke:#000000;stroke-width:0.5;stroke-linecap:butt;stroke-linejoin:miter;stroke-miterlimit:4;stroke-opacity:1;stroke-dasharray:none;stroke-dashoffset:0;marker:none;visibility:visible;display:inline;overflow:visible;enable-background:accumulate" />
    </clipPath>
    <clipPath
       id="clipPath30567-5">
      <path
         d="m 742.00512,344.7818 c -0.40329,7.6625 0.4033,17.7448 -2.41975,27.4239 -2.82305,9.679 -5.6461,47.5885 -3.62964,69.3663 2.01646,21.7779 -2.01646,38.7162 -3.22634,47.1853 -1.20988,8.4692 1.61317,22.5844 3.22634,35.8931 1.61317,13.3086 4.03293,24.6008 2.41976,28.6338 -1.61317,4.0329 0.80658,8.8724 -1.20988,11.2922 -2.01647,2.4197 -3.22634,6.4526 -6.04939,8.8724 -2.82305,2.4198 -7.66257,7.6626 -10.48562,9.2757 -2.82305,1.6132 -3.22634,8.4692 3.62964,9.6791 6.85598,1.2098 16.13171,-1.6132 18.14818,-5.2428 2.01646,-3.6297 1.20987,-8.0659 5.64609,-7.6626 4.43623,0.4033 5.6461,-3.2263 4.43623,-8.4692 -1.20988,-5.2428 -0.4033,-7.2592 0,-7.6625 0.40329,-0.4033 1.20987,-3.2264 0,-6.4527 -1.20988,-3.2263 0.40329,-27.4239 4.83951,-35.8931 4.43622,-8.4691 3.62964,-18.9547 2.01646,-27.0206 -1.61317,-8.0658 -2.41975,-14.5185 0.80659,-21.3745 3.22634,-6.856 4.43622,-18.5515 7.66256,-33.07 3.22635,-14.5186 12.90537,-23.391 12.90537,-60.0907"
         id="path30569-8"
         style="fill:none;stroke:#552200;stroke-width:1px;stroke-linecap:butt;stroke-linejoin:miter;stroke-opacity:1;display:inline" />
    </clipPath>
    <clipPath
       id="clipPath30544-9-9-6">
      <path
         d="m 763.78294,201.2095 c -1.20988,6.856 -0.4033,15.7284 -0.80659,18.9548 -4.43622,3.6296 -14.51854,12.5021 -16.53501,12.9053 -2.01646,0.4033 -2.93904,2.0505 -6.85597,2.8231 -18.81752,3.7116 -6.00413,42.0071 -1.61318,56.0577 4.31894,13.8201 6.0494,25.4074 3.62964,33.8766 -2.41976,8.4691 0.80659,11.2922 0.40329,18.9548 -0.5842,49.2569 27.96402,51.0242 38.71611,34.6832 16.53501,18.5514 46.37868,-8.8725 36.69965,-30.6503 -9.67902,-21.7778 -7.25927,-26.6173 -8.87244,-29.8437 -1.61317,-3.2263 -2.0341,-14.8836 0.4033,-20.1646 2.41975,-5.2428 4.83951,-16.535 7.25926,-20.568 2.41976,-4.0329 13.71196,-39.926 -2.82304,-41.9424 -10.80883,-1.3182 -3.22635,-2.4198 -6.45269,-2.4198 -3.22634,0 -18.14818,-13.3696 -18.14818,-17.3416 0,-4.0329 0,-11.2922 0.80659,-15.3251 0.80658,-4.0329 -19.35805,-2.4198 -25.81074,0 z"
         id="path30546-4-7-23"
         style="fill:none;stroke:#552200;stroke-width:1px;stroke-linecap:butt;stroke-linejoin:miter;stroke-opacity:1;display:inline" />
    </clipPath>
    <clipPath
       id="clipPath30486-6">
      <path
         d="m 763.78294,201.2095 c -1.20988,6.856 -0.4033,15.7284 -0.80659,18.9548 -4.43622,3.6296 -14.51854,12.5021 -16.53501,12.9053 -2.01646,0.4033 -2.93904,2.0505 -6.85597,2.8231 -18.81752,3.7116 -6.00413,42.0071 -1.61318,56.0577 4.31894,13.8201 6.0494,25.4074 3.62964,33.8766 -2.41976,8.4691 0.80659,11.2922 0.40329,18.9548 -0.5842,49.2569 27.96402,51.0242 38.71611,34.6832 16.53501,18.5514 46.37868,-8.8725 36.69965,-30.6503 -9.67902,-21.7778 -7.25927,-26.6173 -8.87244,-29.8437 -1.61317,-3.2263 -2.0341,-14.8836 0.4033,-20.1646 2.41975,-5.2428 4.83951,-16.535 7.25926,-20.568 2.41976,-4.0329 13.71196,-39.926 -2.82304,-41.9424 -10.80883,-1.3182 -3.22635,-2.4198 -6.45269,-2.4198 -3.22634,0 -18.14818,-13.3696 -18.14818,-17.3416 0,-4.0329 0,-11.2922 0.80659,-15.3251 0.80658,-4.0329 -19.35805,-2.4198 -25.81074,0 z"
         id="path30488-26"
         style="fill:none;stroke:#552200;stroke-width:1px;stroke-linecap:butt;stroke-linejoin:miter;stroke-opacity:1;display:inline" />
    </clipPath>
    <clipPath
       id="clipPath30490-3">
      <path
         d="m 763.78294,2602.7481 c -1.20988,6.856 -0.4033,26.9739 -0.80659,30.2003 -4.43622,3.6296 -14.51854,12.5021 -16.53501,12.9053 -2.01646,0.4033 -2.93904,2.0505 -6.85597,2.8231 -18.81752,3.7116 -6.00413,42.0071 -1.61318,56.0577 4.31894,13.8201 6.0494,25.4074 3.62964,33.8766 -2.41976,8.4691 0.80659,11.2922 0.40329,18.9548 -0.5842,49.2569 27.96402,51.0242 38.71611,34.6832 16.53501,18.5514 46.37868,-8.8725 36.69965,-30.6503 -9.67902,-21.7778 -7.25927,-26.6173 -8.87244,-29.8437 -1.61317,-3.2263 -2.0341,-14.8836 0.4033,-20.1646 2.41975,-5.2428 4.83951,-16.535 7.25926,-20.568 2.41976,-4.0329 13.71196,-39.926 -2.82304,-41.9424 -10.80883,-1.3182 -3.22635,-2.4198 -6.45269,-2.4198 -3.22634,0 -18.14818,-13.3696 -18.14818,-17.3416 0,-4.0329 0,-22.5377 0.80659,-26.5706 0.80658,-4.0329 -19.35805,-2.4198 -25.81074,0 z"
         id="path30492-8"
         style="fill:none;stroke:#552200;stroke-width:1px;stroke-linecap:butt;stroke-linejoin:miter;stroke-opacity:1;display:inline" />
    </clipPath>
  </defs>
  <g
     transform="translate(0,-492.36218)"
     id="layer1">
    <path
       d="m 295.29502,624.62468 c 0.20149,3.2147 -0.56142,9.02091 -0.95657,10.39001 -0.34266,0.26793 -1.00017,0.95268 -1.71883,1.67318 0.13672,0.25854 0.0358,1.0265 0.0358,1.0265 0,0 -0.30139,-0.38089 -0.49975,-0.56601 -0.95351,0.93438 -1.67246,1.54544 -2.09236,1.48852 0.0599,-0.34205 0.15017,-1.02495 0.18878,-1.74497 -0.16328,-0.30463 -0.44644,-0.74473 -0.68236,-0.97798 0,0 0.33402,0.0614 0.68925,0.23806 -0.0236,-0.42994 -0.0852,-1.18131 -0.2059,-1.43577 -0.40957,-0.8631 -7.16729,-4.7726 -8.13152,-4.4333 -0.96422,0.3394 -2.15228,0.56542 -2.76932,0.12782 -0.61707,-0.4381 -5.71125,2.66198 -6.68386,3.29508 -0.47268,0.30768 -0.6769,1.09602 -0.74359,1.95757 0.2451,-0.23777 0.57382,-0.32953 0.77974,-0.30153 -0.20078,0.2359 -0.61493,0.64081 -0.80611,0.96934 -0.004,0.6998 0.059,1.37972 0.12138,1.82942 -1.86199,0.046 -3.55709,-2.10814 -3.88663,-2.62944 -0.52382,-1.04478 -0.46809,-4.8425 -0.43933,-6.50005 0.0371,-2.13766 -1.03658,-2.9975 -1.55923,-6.16161 -0.0527,2.4298 1.29345,5.28627 0.39872,6.4224 -0.26134,0.33185 -0.61005,0.8591 -0.71728,1.50355 -0.0639,0.38378 -0.10078,0.80912 -0.1159,1.2595 -0.0971,2.89054 0.70422,6.81265 1.0519,7.3999 0.17642,0.29799 1.9922,2.11204 4.37055,4.16013 -0.20561,-0.48381 -0.12178,-0.83942 -0.067,-1.34626 0.15732,0.34931 0.61056,1.6124 0.90508,2.05757 2.06223,1.72454 4.42495,3.5087 6.47876,4.62692 -0.27611,-0.61503 -0.28898,-0.9379 -0.12625,-1.32066 0.21138,0.48526 0.60364,1.04005 0.59074,1.56469 1.09191,0.55184 2.0782,0.88936 2.86019,0.89503 0.40564,0.003 0.86252,-0.0938 1.35755,-0.27175 0.0538,-0.48736 0.3168,-1.16559 0.68563,-1.51993 0.15476,0.33447 0.2556,0.85076 0.21332,1.13095 1.67057,-0.83149 3.639,-2.35175 5.50652,-4.00181 0.1737,-0.3661 0.29999,-0.92928 0.2512,-1.45414 0.24318,-0.0666 0.47113,0.41928 0.46555,0.81037 3.1687,-2.89134 5.88303,-5.95475 6.08913,-6.31132 0.40141,-0.69448 0.92748,-6.52566 0.32123,-9.31501 -0.43234,-1.98914 0.0752,-6.06801 0.30991,-8.0396 -0.17418,1.48127 -0.95839,2.73144 -1.4691,3.50463 z m -14.68289,7.93646 c 0.26515,0.023 0.51787,0.1191 0.71157,0.3479 0.20009,0.23656 1.17392,0.63055 2.28472,1.05554 0.1244,-0.28985 0.12601,-0.75073 0.0465,-0.99745 0.28139,0.23921 0.57312,0.81274 0.59779,1.24246 1.58593,0.60136 3.20253,1.21622 3.13476,1.50413 -0.12573,0.5343 0.50715,2.8501 0.0254,4.62119 -0.45521,0.47561 -1.16856,1.02571 -1.9013,1.48207 0.18871,0.4285 0.33055,0.75302 0.13395,1.13265 -0.30951,-0.24114 -0.63946,-0.59236 -0.88016,-0.70552 -0.83184,0.43194 -1.58055,0.66125 -1.87518,0.42658 0.12684,-1.51606 0.44819,-2.61229 0.76459,-3.40259 0.31656,-0.79 -0.682,-1.2953 -1.11796,-1.897 -0.26246,0.077 -1.06717,0.0305 -1.62727,0.12225 0,0 -0.19471,0.59845 -0.34331,0.91987 -0.22887,-0.21507 -0.35139,-0.59409 -0.33274,-0.93539 -0.49117,-0.005 -0.94842,-0.008 -1.25686,0.0165 -0.42848,0.4372 -1.8241,0.86829 -1.06904,1.74209 0.69428,1.1904 1.16656,3.2273 0.8776,3.4727 -0.94347,-0.49597 -1.80482,-1.08736 -2.51325,-1.6582 -0.28088,0.16033 -0.61943,0.45876 -0.86781,0.74732 -0.047,-0.59506 0.0454,-0.99788 0.19095,-1.32708 -0.62375,-0.56969 -1.05209,-1.07257 -1.2032,-1.37453 -0.16939,-0.33849 -0.30443,-1.35188 -0.29116,-2.33385 0,0 -0.56088,-0.0702 -0.78018,0.0465 0.33533,-0.32007 0.59069,-0.62057 0.82369,-0.80362 0.0431,-0.39752 0.0899,-1.61974 0.30108,-2.13476 0.1402,0.16124 0.16982,0.60859 0.3004,0.72669 0.0489,-0.36659 0.21205,-0.65176 0.36512,-0.92224 0.0639,0.188 0.0704,0.46 0.10989,0.75766 0.58432,-0.19486 1.13554,-0.35177 1.63608,-0.48633 0.039,-0.43758 0.54963,-0.98706 0.54963,-0.98706 0,0 0.21394,0.38498 0.16198,0.79978 0.96758,-0.25219 1.6546,-0.43579 1.88113,-0.71079 0.25683,-0.3116 0.72079,-0.5194 1.16262,-0.4872 z"
       id="path3156-7-7-6"
       style="color:#000000;fill:#ffe680;fill-opacity:1;fill-rule:evenodd;stroke:#d4aa00;stroke-width:0.25;stroke-linecap:butt;stroke-linejoin:miter;stroke-miterlimit:4;stroke-opacity:1;stroke-dasharray:none;stroke-dashoffset:0;marker:none;visibility:visible;display:inline;overflow:visible;enable-background:accumulate" />
  </g>
</svg>
