<?xml version="1.0" encoding="UTF-8" standalone="no"?>
<svg xmlns="http://www.w3.org/2000/svg" id="facialhair_moustache_thick" width="560" height="560">
  <g id="layer1">
    <path id="path19211" d="M290.5 142.6c-.5-1-1.8-1.7-2.8-2.3l2.8 1.4c-1-2.2-6.4-4.4-8.6-3.4-1.2.5-2.4 0-3.2 0-3-1-7 1.6-8 3.2.4-.2 1-.7 2.8-1.6-2 1.4-2.7 1.7-3 3 2 .6 4.3-.5 5.6-1.8-.7.7-1.6 1.4-2.8 2.2 2.2-.5 4.3-2.2 4.8-2.7-.2.5-1.4 1.4-1.7 2 1.6-.5 2.2-1 3-2.2-.4.5-.8 1.4-1 1.8 1-.2 1.7-.7 2-1.6.3.7.8 1.4 1.7 1.7-.3-.7-1-2.2-.8-2 .6 1.2 1.8 2.2 3.3 2.7-.2-.4-1.2-1-1-1.7.4.7 2 2.3 3.5 2.3-.3-.7-1-1-1-1.7.6.5 1.4 1.3 2.5 1.4l-1.4-1.2c1.5 1 3 .5 3.2.4z" style="color:#000000;fill:#ffe680;fill-opacity:1;fill-rule:evenodd;stroke:#d4aa00;stroke-width:0.25;stroke-linecap:butt;stroke-linejoin:miter;stroke-miterlimit:4;stroke-opacity:1;stroke-dasharray:none;stroke-dashoffset:0;marker:none;visibility:visible;display:inline;overflow:visible;enable-background:accumulate"/>
  </g>
</svg>
