<?xml version="1.0" encoding="UTF-8" standalone="no"?>
<!-- Created with Inkscape (http://www.inkscape.org/) -->

<svg
   xmlns:svg="http://www.w3.org/2000/svg"
   xmlns="http://www.w3.org/2000/svg"
   version="1.1"
   width="560"
   height="560"
   id="facialhair_muttonchops">
  <g
     transform="translate(0,-492.36218)"
     id="layer1">
    <path
       d="m 287.29612,639.38837 c 0.42255,0.0404 1.0515,0.3835 1.54767,0.28858 -0.4313,0.29283 -1.09242,0.71665 -1.43069,0.65795 -0.12968,1.98246 -0.16266,2.88922 -0.32666,3.64417 0.30939,-0.0138 0.95554,-1.9e-4 0.95554,-1.9e-4 -0.33012,0.15245 -0.38375,0.73706 -0.81711,0.83425 l -2.2e-4,10e-6 c 1.4182,0.41014 2.09946,0.18021 2.64285,-0.55415 0.1737,-0.3661 0.29999,-0.92928 0.2512,-1.45414 0.24318,-0.0666 0.47113,0.41928 0.46555,0.81037 0.84894,-0.70118 1.91849,-1.5923 2.61697,-2.19065 0.2275,-0.43524 0.20049,-0.71937 0.24716,-1.24688 0.24851,0.12177 0.33961,0.27729 0.32954,0.77141 0.70618,-0.88432 1.61301,-1.84495 1.90481,-2.38438 0.36532,-0.67536 0.72471,-2.44867 0.89854,-4.38636 -0.17351,-0.29068 -0.17766,-0.66284 -0.47742,-1.22715 0.40823,0.19887 0.47083,0.46259 0.67462,0.68546 0.0724,-1.43667 -0.093,-3.41318 -0.32422,-4.47702 -0.43233,-1.98914 0.0752,-6.06801 0.30991,-8.0396 -0.17418,1.48127 -1.34148,2.92299 -1.85219,3.69618 0.0213,0.69466 -0.0705,1.30161 -0.10886,1.7972 -0.0665,1.23986 -0.30319,2.1101 -0.58044,2.94842 0.21582,0.21526 1.18941,1.22968 1.41122,1.72011 -0.46491,-0.2106 -1.42559,-0.6821 -1.69013,-0.93175 -0.20439,1.1635 -0.87409,2.88699 -1.07383,3.57905 -0.34266,0.26793 -0.74998,1.42895 -1.31533,2.2261 0.15653,0.26845 0.18324,1.10022 0.18324,1.10022 0,0 -0.3372,-0.3988 -0.54007,-0.58617 -0.71873,1.05177 -0.90116,1.25387 -1.59604,1.73668 -0.55875,0.53329 -2.30561,0.98228 -2.30561,0.98228 z m -15.08433,-1.72843 c -0.50429,-0.0853 -0.92364,-0.55825 -1.27118,-1.19025 -0.20905,-0.15294 -0.68818,0.0182 -1.07168,0.29432 0.11045,-0.43171 0.33818,-1.03529 0.63111,-1.22776 -0.5173,-1.22984 -0.96812,-2.3982 -1.14741,-2.68183 -0.28332,-0.5651 -0.1084,-1.10703 -0.3923,-1.97825 -0.26423,0.0893 -0.70348,0.0244 -0.70348,0.0244 0.0514,-0.22531 0.27135,-0.49987 0.43681,-0.70717 -0.20732,-0.5657 -0.42704,-1.18925 -0.5341,-1.64507 -0.16666,-0.70971 -0.28181,-1.94582 -0.30731,-2.71487 -0.40839,-0.11332 -1.56588,-1.98713 -1.91765,-2.96402 -0.0527,2.4298 1.29345,5.28627 0.39872,6.4224 -0.26134,0.33185 -0.61005,0.8591 -0.71728,1.50355 -0.0639,0.38378 -0.10078,0.80912 -0.1159,1.2595 -0.0155,0.46202 -0.13641,1.61609 0.0186,2.16386 0.24298,-0.13066 0.70682,-0.43634 0.91925,-0.28249 -0.34043,0.2601 -0.69643,0.57113 -0.83103,0.9023 0.0952,1.09709 0.22446,2.14041 0.28508,2.9424 0.38603,-0.49937 0.66648,-0.16543 1.02807,-0.5533 -0.27604,0.48349 -0.48038,1.03625 -0.54818,1.4166 0.17642,0.29799 1.9922,1.66175 4.37055,3.70984 -0.20561,-0.48381 -0.12178,-0.83942 -0.067,-1.34626 0.15732,0.34931 0.61056,1.6124 0.90508,2.05757 0.84299,0.70494 1.73618,1.32979 2.99819,1.28463 -0.81053,-0.81052 -0.70606,-2.37939 -0.60442,-4.83372 z"
       id="path308609"
       style="color:#000000;fill:#ffe680;fill-opacity:1;fill-rule:evenodd;stroke:#d4aa00;stroke-width:0.25;stroke-linecap:butt;stroke-linejoin:miter;stroke-miterlimit:4;stroke-opacity:1;stroke-dasharray:none;stroke-dashoffset:0;marker:none;visibility:visible;display:inline;overflow:visible;enable-background:accumulate" />
  </g>
</svg>
