<?xml version="1.0" encoding="UTF-8" standalone="no"?>
<!-- Created with Inkscape (http://www.inkscape.org/) -->

<svg
   xmlns:svg="http://www.w3.org/2000/svg"
   xmlns="http://www.w3.org/2000/svg"
   version="1.1"
   width="560"
   height="560"
   id="facialhair_winnfield">
  <g
     transform="translate(0,-492.36218)"
     id="layer1">
    <path
       d="m 289.72311,643.40576 c 0,1.04493 -1.18709,1.98063 -1.8321,2.25385 -0.0558,-0.37896 -0.0691,-0.58957 -0.27342,-0.85027 -0.2179,0.29809 -0.15614,0.59037 -0.38368,0.96718 -0.3715,-0.0421 -0.61965,-0.31156 -0.52646,-0.84575 0.10969,-0.6288 0.1141,-2.34809 0.0868,-4.23404 0.26833,-0.32147 0.49387,-0.80405 0.50099,-1.11812 0,0 -0.31227,0.11309 -0.51463,0.28948 -0.0487,-2.66942 -0.1382,-5.40223 -0.0692,-5.69557 -0.41971,-0.01 -0.89721,-0.1533 -0.89721,-0.1533 -0.14468,-0.26309 -0.34331,-0.74125 -0.35987,-1.18634 0,0 -0.26557,0.54397 -0.20279,1.05821 -0.26054,-0.15541 -0.58939,-0.3917 -1.42594,-0.74936 -1.10092,-0.47069 -1.95744,0.0844 -2.99969,0.20967 0.027,-0.28347 -0.15872,-0.70954 -0.40573,-0.95354 -0.0283,0.26415 -0.0966,0.72666 0.0186,0.97756 -0.53292,0.0201 -1.04956,-0.0907 -1.53866,-0.18359 -0.15543,-0.17482 -0.0651,-0.65714 -0.0857,-0.85205 -0.12318,0.0843 -0.44188,0.49757 -0.42246,0.77743 -0.26195,0.0133 -0.80299,-0.021 -0.94804,0.0186 -0.66958,0.20314 -1.02507,0.64657 -1.34739,0.95753 -0.0924,-0.35547 -0.2449,-0.55802 -0.27577,-0.76752 -0.23296,0.43189 -0.26577,0.71611 -0.25563,1.09571 -0.14659,0.0251 -0.31184,-0.61352 -0.47001,-0.89249 -0.10393,-0.0538 -0.13031,0.65736 -0.25607,0.9523 -0.27192,-0.10684 -0.36,-0.99576 -0.39634,-0.72358 -0.0961,0.71999 -0.12182,2.02843 -0.10842,3.49259 -0.26162,-0.13286 -0.33726,-0.21955 -0.59119,-0.25686 -0.0356,0.17966 0.4464,0.71345 0.59953,0.91068 0.0472,2.92232 0.22516,6.19416 0.30251,6.61931 0.0326,0.17935 -0.28046,0.34425 -0.58927,0.1003 -0.14382,-0.37727 -0.29255,-0.80682 -0.42238,-1.03284 -0.1073,0.17243 -0.1018,0.65064 -0.11433,0.99523 -0.6137,-0.27943 -1.8153,-0.97708 -1.8153,-1.56233 0,-0.21995 -0.0168,-0.71332 -0.0363,-1.37011 0,0 0.40004,-0.56455 0.5538,-0.69395 l -0.57111,0.0851 c -0.0384,-1.43145 -0.0718,-3.35231 9.2e-4,-4.97343 0.12035,-0.34464 0.36625,-0.71134 0.59753,-0.9401 0,0 -0.3638,0.0471 -0.54883,0.11772 0.10191,-1.3437 0.30436,-2.33157 0.68124,-2.38652 1.35064,-0.19692 5.80625,-3.99487 7.47028,-2.51008 0.56443,0.50364 1.07797,0.0954 2.04219,-0.24403 0.96423,-0.3393 6.83302,2.03603 7.24263,2.89911 0.0792,0.16687 0.1497,0.57807 0.21192,1.14832 -0.17663,-0.17249 -0.43815,-0.34122 -0.63895,-0.30101 0.17601,0.24211 0.37963,0.74891 0.71157,1.07957 0.20864,2.58261 0.3024,6.91881 0.3024,8.47136 z"
       id="path17740"
       style="color:#000000;fill:#ffe680;fill-opacity:1;fill-rule:evenodd;stroke:#d4aa00;stroke-width:0.25;stroke-linecap:butt;stroke-linejoin:miter;stroke-miterlimit:4;stroke-opacity:1;stroke-dasharray:none;stroke-dashoffset:0;marker:none;visibility:visible;display:inline;overflow:visible;enable-background:accumulate" />
  </g>
</svg>
