<?xml version="1.0" encoding="UTF-8" standalone="no"?>
<!-- Created with Inkscape (http://www.inkscape.org/) -->

<svg
   xmlns:svg="http://www.w3.org/2000/svg"
   xmlns="http://www.w3.org/2000/svg"
   version="1.1"
   width="560"
   height="560"
   id="facialhair_muttonchops_friendly">
  <g
     transform="translate(0,-492.36218)"
     id="layer1">
    <path
       d="m 287.22465,644.81314 c 1.4182,0.41014 2.09946,0.18021 2.64285,-0.55415 0.1737,-0.3661 0.29999,-0.92928 0.2512,-1.45414 0.24318,-0.0666 0.47113,0.41928 0.46555,0.81037 0.84894,-0.70118 1.91849,-1.5923 2.61697,-2.19065 0.2275,-0.43524 0.20049,-0.71937 0.24716,-1.24688 0.24851,0.12177 0.33961,0.27729 0.32954,0.77141 0.70618,-0.88432 1.61301,-1.84495 1.90481,-2.38438 0.36532,-0.67536 0.72471,-2.44867 0.89854,-4.38636 -0.17351,-0.29068 -0.17766,-0.66284 -0.47742,-1.22715 0.40823,0.19887 0.47083,0.46259 0.67462,0.68546 0.0724,-1.43667 -0.093,-3.41318 -0.32422,-4.47702 -0.43233,-1.98914 0.0752,-6.06801 0.30991,-8.0396 -0.17418,1.48127 -0.95839,2.73144 -1.4691,3.50463 l -4e-5,0 c 0.0824,1.31431 0.004,3.0618 -0.14543,4.76214 0.25507,0.23489 0.51788,0.89392 0.73969,1.38435 -0.20951,-0.0829 -0.53551,-0.23706 -0.84175,-0.50756 -0.21562,2.05176 -0.50934,4.05902 -0.70908,4.75108 -0.34266,0.26793 -1.00017,0.95268 -1.71883,1.67318 0.13672,0.25854 0.0358,1.0265 0.0358,1.0265 0,0 -0.30139,-0.38089 -0.49975,-0.56601 -0.95351,0.93438 -1.67246,1.54544 -2.09236,1.48852 0.0599,-0.34205 0.15017,-1.02495 0.18878,-1.74497 -0.16328,-0.30463 -0.44644,-0.74473 -0.68236,-0.97798 0,0 0.33402,0.0614 0.68925,0.23806 -0.0236,-0.42994 -0.0852,-1.18131 -0.2059,-1.43577 -0.40957,-0.8631 -7.16729,-4.7726 -8.13152,-4.4333 -0.96422,0.3394 -2.15228,0.56542 -2.76932,0.12782 -0.61707,-0.4381 -5.71125,2.66198 -6.68386,3.29508 -0.47268,0.30768 -0.6769,1.09602 -0.74359,1.95757 0.2451,-0.23777 0.57382,-0.32953 0.77974,-0.30153 -0.20078,0.2359 -0.61493,0.64081 -0.80611,0.96934 -0.004,0.6998 0.059,1.37972 0.12138,1.82942 -0.58235,0.0144 -1.12194,-0.29214 -1.59864,-0.73621 -0.25307,-0.091 -0.74714,0.0939 -1.10478,0.32334 0.0482,-0.33369 0.20013,-0.81655 0.49158,-1.00206 -0.72177,-0.9247 -1.22532,-2.01158 -1.40461,-2.29521 -0.28332,-0.5651 -0.41567,-1.25657 -0.52845,-2.36784 -0.27576,0.10284 -0.67439,-0.0237 -0.67439,-0.0237 0.0879,-0.27597 0.35361,-0.61084 0.5656,-0.87883 -0.06,-0.76919 -0.083,-1.53239 -0.0723,-2.14899 0.0371,-2.13766 -1.03658,-2.9975 -1.55923,-6.16161 -0.0527,2.4298 1.29345,5.28627 0.39872,6.4224 -0.26134,0.33185 -0.61005,0.8591 -0.71728,1.50355 -0.0639,0.38378 -0.10078,0.80912 -0.1159,1.2595 -0.0155,0.46202 -0.13641,1.61609 0.0186,2.16386 0.24298,-0.13066 0.70682,-0.43634 0.91925,-0.28249 -0.34043,0.2601 -0.69643,0.57113 -0.83103,0.9023 0.0952,1.09709 0.22446,2.14041 0.28508,2.9424 0.38603,-0.49937 0.66648,-0.16543 1.02807,-0.5533 -0.27604,0.48349 -0.48038,1.03625 -0.54818,1.4166 0.17642,0.29799 1.9922,1.66175 4.37055,3.70984 -0.20561,-0.48381 -0.12178,-0.83942 -0.067,-1.34626 0.15732,0.34931 0.61056,1.6124 0.90508,2.05757 0.84299,0.70494 1.73618,1.32979 2.99819,1.28463 -0.81053,-0.81052 -0.63065,-2.47927 -0.63716,-4.8032 -0.001,-0.3785 0.14586,-1.80217 0.15913,-2.78414 0,0 -0.56088,-0.0702 -0.78018,0.0465 0.33533,-0.32007 0.59069,-0.62057 0.82369,-0.80362 0.0431,-0.39752 0.0899,-1.61974 0.30108,-2.13476 0.1402,0.16124 0.16982,0.60859 0.3004,0.72669 0.0489,-0.36659 0.21205,-0.65176 0.36512,-0.92224 0.0639,0.188 0.0704,0.46 0.10989,0.75766 0.58432,-0.19486 1.13554,-0.35177 1.63608,-0.48633 0.039,-0.43758 0.54963,-0.98706 0.54963,-0.98706 0,0 0.21394,0.38498 0.16198,0.79978 0.96758,-0.25219 1.6546,-0.43579 1.88113,-0.71079 0.25683,-0.3116 0.72079,-0.5194 1.16262,-0.4872 l -3e-5,-2.7e-4 c 0.26515,0.023 0.51787,0.1191 0.71157,0.3479 0.20009,0.23656 1.17392,0.63055 2.28472,1.05554 0.1244,-0.28985 0.12601,-0.75073 0.0465,-0.99745 0.28139,0.23921 0.57312,0.81274 0.59779,1.24246 1.58593,0.60136 3.20253,1.21622 3.13476,1.50413 -0.0562,0.23866 -0.0332,0.8207 -10e-4,1.55498 0.28363,0.0986 0.57572,0.46441 0.69911,0.88908 0,0 -0.18774,-0.31126 -0.70746,-0.40746 0.0111,0.54037 0.0691,2.06343 0.035,2.58459 -0.12968,1.98246 -0.16266,2.88922 -0.32666,3.64417 0.30939,-0.0138 0.95554,-1.9e-4 0.95554,-1.9e-4 -0.33012,0.15245 -0.38375,0.73706 -0.81711,0.83425 z"
       id="path308519"
       style="color:#000000;fill:#ffe680;fill-opacity:1;fill-rule:evenodd;stroke:#d4aa00;stroke-width:0.25;stroke-linecap:butt;stroke-linejoin:miter;stroke-miterlimit:4;stroke-opacity:1;stroke-dasharray:none;stroke-dashoffset:0;marker:none;visibility:visible;display:inline;overflow:visible;enable-background:accumulate" />
  </g>
</svg>
