<?xml version="1.0" encoding="UTF-8" standalone="no"?>
<!-- Created with Inkscape (http://www.inkscape.org/) -->

<svg
   xmlns:svg="http://www.w3.org/2000/svg"
   xmlns="http://www.w3.org/2000/svg"
   version="1.1"
   width="560"
   height="560"
   id="facialhair_moustache_thick">
  <g
     transform="translate(0,-492.36218)"
     id="layer1">
    <path
       d="m 290.45049,634.9529 c -0.48019,-0.93208 -1.78437,-1.7356 -2.76357,-2.26422 0.65718,0.17371 1.58276,0.65337 2.78445,1.36629 -1.06777,-2.15296 -6.4116,-4.41153 -8.60244,-3.41579 -1.11446,0.50652 -2.28243,0.0719 -3.07297,-0.12557 -3.09261,-0.77266 -7.03206,1.7868 -8.04188,3.38955 0.45597,-0.26044 0.9836,-0.75083 2.83233,-1.6125 -2.11274,1.44507 -2.63809,1.78499 -2.99888,3.03886 2.09652,0.60657 4.28211,-0.47754 5.60345,-1.76133 -0.71465,0.71247 -1.63872,1.43065 -2.81362,2.15778 2.233,-0.49855 4.35613,-2.18094 4.80446,-2.66561 -0.22974,0.53105 -1.38666,1.44402 -1.63924,1.90812 1.51663,-0.37843 2.14448,-0.97451 2.8604,-2.07299 -0.30262,0.48601 -0.65305,1.33663 -0.83738,1.73078 0.91537,-0.20332 1.63333,-0.64009 1.93379,-1.5874 0.26478,0.73128 0.75883,1.42553 1.72052,1.69351 -0.27936,-0.66123 -1.03909,-2.21617 -0.84393,-1.86504 0.58091,1.04514 1.80975,2.06203 3.33511,2.63616 -0.24984,-0.52439 -1.18975,-1.28931 -1.15608,-1.81994 0.54479,0.64106 2.28645,2.26448 3.64015,2.2987 -0.30894,-0.72823 -0.93429,-1.166 -1.07581,-1.69074 0.70132,0.52763 1.52245,1.40859 2.53326,1.44773 -0.40651,-0.4826 -0.66273,-0.69285 -1.30355,-1.14113 1.47793,0.81734 2.9399,0.45397 3.10143,0.35478 z"
       id="path19211"
       style="color:#000000;fill:#ffe680;fill-opacity:1;fill-rule:evenodd;stroke:#d4aa00;stroke-width:0.25;stroke-linecap:butt;stroke-linejoin:miter;stroke-miterlimit:4;stroke-opacity:1;stroke-dasharray:none;stroke-dashoffset:0;marker:none;visibility:visible;display:inline;overflow:visible;enable-background:accumulate" />
  </g>
</svg>
