<?xml version="1.0" encoding="UTF-8" standalone="no"?>
<svg xmlns="http://www.w3.org/2000/svg" id="facialhair_winnfield" width="560" height="560">
  <g id="layer1">
    <path id="path17740" d="M289.7 151c0 1-1.2 2-1.8 2.3l-.4-1c-.2.4 0 .7-.4 1-.3 0-.6-.2-.5-.7v-4.3c.4-.3.6-.8.6-1 0 0-.3 0-.5.2 0-2.7-.2-5.4 0-5.7h-1l-.3-1.3s-.3.5-.2 1c-.3 0-.6-.4-1.5-.7-1-.5-2 0-3 .2 0-.3 0-.7-.4-1v1c-.5 0-1 0-1.5-.2-.3 0-.2-.6-.2-.8 0 0-.4.5-.4.8h-1c-.6.2-1 .6-1.3 1 0-.4 0-.6-.2-.8-.2.4-.2.7-.2 1-.2 0-.3-.6-.5-.8 0 0 0 .6-.2 1-.2-.2-.3-1-.4-.8v3.5l-.7-.4c0 .2.5.7.6 1 0 3 .3 6 .3 6.6 0 0-.2.3-.5 0 0-.3-.2-.7-.4-1v1c-.7-.3-2-1-2-1.5v-1.4l.6-.7h-.5v-5c0-.2.3-.6.5-.8h-.5c0-1.3.3-2.2.7-2.3 1.3-.2 5.8-4 7.5-2.5.4.5 1 0 2-.3s6.7 2 7 3c.2 0 .3.5.3 1l-.6-.2.7 1c.2 2.7.3 7 .3 8.5z" style="color:#000000;fill:#ffe680;fill-opacity:1;fill-rule:evenodd;stroke:#d4aa00;stroke-width:0.25;stroke-linecap:butt;stroke-linejoin:miter;stroke-miterlimit:4;stroke-opacity:1;stroke-dasharray:none;stroke-dashoffset:0;marker:none;visibility:visible;display:inline;overflow:visible;enable-background:accumulate"/>
  </g>
</svg>
