<?xml version="1.0" encoding="UTF-8" standalone="no"?>
<!-- Created with Inkscape (http://www.inkscape.org/) -->

<svg
   xmlns:svg="http://www.w3.org/2000/svg"
   xmlns="http://www.w3.org/2000/svg"
   version="1.1"
   width="560"
   height="560"
   id="facialhair_beard_boxed">
  <defs
     id="defs159377">
    <clipPath
       id="clipPath30513-1-9">
      <path
         d="m 802.7007,239.5223 c 9.88067,-5.2428 21.97945,-3.428 27.02062,11.6955 5.04116,15.1235 0,27.6256 1.61317,31.2552 1.61317,3.6297 3.83128,9.4774 3.62963,18.3499 -0.20164,8.8724 1.61317,9.4773 4.43622,18.3498 2.82305,8.8724 3.62964,49 4.43622,54.2429 0.80659,5.2428 -1.20987,7.6625 -2.41975,10.2839 -1.20988,2.6214 -8.26751,-1.2098 -9.27574,-3.8313 -1.00823,-2.6214 -0.40329,-3.0246 0.20165,-5.8477 0.60494,-2.823 -5.84775,-30.0453 -8.2675,-36.498 -2.41976,-6.4527 -5.44446,-18.7531 -5.24281,-23.7943 0.20165,-5.0411 -2.82305,-7.8642 -5.24281,-16.9383 -2.41976,-9.0741 -3.42799,-28.4321 -1.61317,-41.5392"
         id="path30515-4-4"
         style="fill:none;stroke:#552200;stroke-width:1px;stroke-linecap:butt;stroke-linejoin:miter;stroke-opacity:1;display:inline" />
    </clipPath>
    <clipPath
       id="clipPath30446-4-3">
      <path
         d="m 751.28086,2651.7015 c -9.88068,-6.0494 -18.14818,-7.0576 -27.22227,3.8313 -9.07409,10.8889 -2.21811,30.0453 -5.04116,36.6996 -2.82305,6.6544 -3.42799,10.6873 -4.23457,20.3663 -0.80659,9.679 -7.46092,11.2922 -7.05763,37.3046 0.40329,26.0124 2.21811,28.2305 1.41153,33.2717 -0.80659,5.0411 0.40329,2.4197 0.80658,7.0576 0.40329,4.6379 12.30043,1.0082 12.70373,-4.0329 0.40329,-5.0412 0.60494,-3.8313 -0.4033,-8.2676 -1.00823,-4.4362 1.81482,-27.8271 5.24281,-36.2963 3.42799,-8.4692 1.81482,-19.7613 3.42799,-21.9795 1.61317,-2.2181 8.2675,-7.0576 9.07409,-49.4033"
         id="path30448-9-3"
         style="fill:none;stroke:#552200;stroke-width:1px;stroke-linecap:butt;stroke-linejoin:miter;stroke-opacity:1;display:inline" />
    </clipPath>
    <clipPath
       id="clipPath53682">
      <path
         d="m 493.45523,302.43478 c 16.08,-1.34 22.78001,1.34001 27.13501,4.02001 4.355,2.68 6.03,9.045 13.40001,8.375 7.37,-0.67 9.715,-13.06501 16.75,-16.41501 -5.025,0.67 -11.055,4.35501 -13.735,5.36001 7.035,-5.69501 19.43001,-11.05501 32.83001,-7.37001 -22.44501,50.25003 -57.28502,28.47502 -76.38003,6.03 z"
         id="path53684"
         style="color:#000000;fill:none;stroke:#000000;stroke-width:0.5;stroke-linecap:butt;stroke-linejoin:miter;stroke-miterlimit:4;stroke-opacity:1;stroke-dasharray:none;stroke-dashoffset:0;marker:none;visibility:visible;display:inline;overflow:visible;enable-background:accumulate" />
    </clipPath>
    <clipPath
       id="clipPath30567-5">
      <path
         d="m 742.00512,344.7818 c -0.40329,7.6625 0.4033,17.7448 -2.41975,27.4239 -2.82305,9.679 -5.6461,47.5885 -3.62964,69.3663 2.01646,21.7779 -2.01646,38.7162 -3.22634,47.1853 -1.20988,8.4692 1.61317,22.5844 3.22634,35.8931 1.61317,13.3086 4.03293,24.6008 2.41976,28.6338 -1.61317,4.0329 0.80658,8.8724 -1.20988,11.2922 -2.01647,2.4197 -3.22634,6.4526 -6.04939,8.8724 -2.82305,2.4198 -7.66257,7.6626 -10.48562,9.2757 -2.82305,1.6132 -3.22634,8.4692 3.62964,9.6791 6.85598,1.2098 16.13171,-1.6132 18.14818,-5.2428 2.01646,-3.6297 1.20987,-8.0659 5.64609,-7.6626 4.43623,0.4033 5.6461,-3.2263 4.43623,-8.4692 -1.20988,-5.2428 -0.4033,-7.2592 0,-7.6625 0.40329,-0.4033 1.20987,-3.2264 0,-6.4527 -1.20988,-3.2263 0.40329,-27.4239 4.83951,-35.8931 4.43622,-8.4691 3.62964,-18.9547 2.01646,-27.0206 -1.61317,-8.0658 -2.41975,-14.5185 0.80659,-21.3745 3.22634,-6.856 4.43622,-18.5515 7.66256,-33.07 3.22635,-14.5186 12.90537,-23.391 12.90537,-60.0907"
         id="path30569-8"
         style="fill:none;stroke:#552200;stroke-width:1px;stroke-linecap:butt;stroke-linejoin:miter;stroke-opacity:1;display:inline" />
    </clipPath>
    <clipPath
       id="clipPath30544-9-9-6">
      <path
         d="m 763.78294,201.2095 c -1.20988,6.856 -0.4033,15.7284 -0.80659,18.9548 -4.43622,3.6296 -14.51854,12.5021 -16.53501,12.9053 -2.01646,0.4033 -2.93904,2.0505 -6.85597,2.8231 -18.81752,3.7116 -6.00413,42.0071 -1.61318,56.0577 4.31894,13.8201 6.0494,25.4074 3.62964,33.8766 -2.41976,8.4691 0.80659,11.2922 0.40329,18.9548 -0.5842,49.2569 27.96402,51.0242 38.71611,34.6832 16.53501,18.5514 46.37868,-8.8725 36.69965,-30.6503 -9.67902,-21.7778 -7.25927,-26.6173 -8.87244,-29.8437 -1.61317,-3.2263 -2.0341,-14.8836 0.4033,-20.1646 2.41975,-5.2428 4.83951,-16.535 7.25926,-20.568 2.41976,-4.0329 13.71196,-39.926 -2.82304,-41.9424 -10.80883,-1.3182 -3.22635,-2.4198 -6.45269,-2.4198 -3.22634,0 -18.14818,-13.3696 -18.14818,-17.3416 0,-4.0329 0,-11.2922 0.80659,-15.3251 0.80658,-4.0329 -19.35805,-2.4198 -25.81074,0 z"
         id="path30546-4-7-23"
         style="fill:none;stroke:#552200;stroke-width:1px;stroke-linecap:butt;stroke-linejoin:miter;stroke-opacity:1;display:inline" />
    </clipPath>
    <clipPath
       id="clipPath30486-6">
      <path
         d="m 763.78294,201.2095 c -1.20988,6.856 -0.4033,15.7284 -0.80659,18.9548 -4.43622,3.6296 -14.51854,12.5021 -16.53501,12.9053 -2.01646,0.4033 -2.93904,2.0505 -6.85597,2.8231 -18.81752,3.7116 -6.00413,42.0071 -1.61318,56.0577 4.31894,13.8201 6.0494,25.4074 3.62964,33.8766 -2.41976,8.4691 0.80659,11.2922 0.40329,18.9548 -0.5842,49.2569 27.96402,51.0242 38.71611,34.6832 16.53501,18.5514 46.37868,-8.8725 36.69965,-30.6503 -9.67902,-21.7778 -7.25927,-26.6173 -8.87244,-29.8437 -1.61317,-3.2263 -2.0341,-14.8836 0.4033,-20.1646 2.41975,-5.2428 4.83951,-16.535 7.25926,-20.568 2.41976,-4.0329 13.71196,-39.926 -2.82304,-41.9424 -10.80883,-1.3182 -3.22635,-2.4198 -6.45269,-2.4198 -3.22634,0 -18.14818,-13.3696 -18.14818,-17.3416 0,-4.0329 0,-11.2922 0.80659,-15.3251 0.80658,-4.0329 -19.35805,-2.4198 -25.81074,0 z"
         id="path30488-26"
         style="fill:none;stroke:#552200;stroke-width:1px;stroke-linecap:butt;stroke-linejoin:miter;stroke-opacity:1;display:inline" />
    </clipPath>
    <clipPath
       id="clipPath30490-3">
      <path
         d="m 763.78294,2602.7481 c -1.20988,6.856 -0.4033,26.9739 -0.80659,30.2003 -4.43622,3.6296 -14.51854,12.5021 -16.53501,12.9053 -2.01646,0.4033 -2.93904,2.0505 -6.85597,2.8231 -18.81752,3.7116 -6.00413,42.0071 -1.61318,56.0577 4.31894,13.8201 6.0494,25.4074 3.62964,33.8766 -2.41976,8.4691 0.80659,11.2922 0.40329,18.9548 -0.5842,49.2569 27.96402,51.0242 38.71611,34.6832 16.53501,18.5514 46.37868,-8.8725 36.69965,-30.6503 -9.67902,-21.7778 -7.25927,-26.6173 -8.87244,-29.8437 -1.61317,-3.2263 -2.0341,-14.8836 0.4033,-20.1646 2.41975,-5.2428 4.83951,-16.535 7.25926,-20.568 2.41976,-4.0329 13.71196,-39.926 -2.82304,-41.9424 -10.80883,-1.3182 -3.22635,-2.4198 -6.45269,-2.4198 -3.22634,0 -18.14818,-13.3696 -18.14818,-17.3416 0,-4.0329 0,-22.5377 0.80659,-26.5706 0.80658,-4.0329 -19.35805,-2.4198 -25.81074,0 z"
         id="path30492-8"
         style="fill:none;stroke:#552200;stroke-width:1px;stroke-linecap:butt;stroke-linejoin:miter;stroke-opacity:1;display:inline" />
    </clipPath>
  </defs>
  <g
     transform="translate(0,-492.36218)"
     id="layer1">
    <path
       d="m 295.29502,624.62468 c 0.20149,3.2147 0.16131,9.0765 -0.12265,10.5012 -0.34266,0.26793 -1.7229,1.84219 -2.44156,2.56269 0.13672,0.25854 0.0358,1.0265 0.0358,1.0265 0,0 -0.30139,-0.38089 -0.49975,-0.56601 -0.95351,0.93438 -2.89554,2.10138 -3.64901,2.48922 0.0599,-0.34205 0.10704,-1.33866 0.0518,-2.96028 -0.20512,-0.70008 -0.54672,-1.71176 -0.79735,-2.11369 0,0 0.32529,0.0302 0.70815,0.45208 -0.0762,-0.92273 -0.18573,-2.04641 -0.30643,-2.30087 -0.40957,-0.8631 -5.38826,-3.7719 -6.35249,-3.4326 -0.96422,0.3394 -2.15228,0.56542 -2.76932,0.12782 -0.61707,-0.4381 -4.82174,1.88366 -5.79435,2.51676 -0.47268,0.30768 -0.63171,1.3603 -0.73137,3.00522 0.26263,-0.45377 0.5881,-0.64872 0.77947,-0.62553 -0.19722,0.4563 -0.62694,1.29376 -0.83465,1.90613 -0.0301,1.31923 0.0756,2.27663 0.13797,2.72633 -1.86199,0.046 -4.89136,-4.33193 -5.2209,-4.85323 0.0321,-1.71191 -0.13452,-8.06698 -0.10576,-9.72453 -0.29647,-0.46982 -1.03658,-1.32966 -1.44804,-2.49237 -0.0527,2.4298 1.29345,5.28627 0.39872,6.4224 -0.26134,0.33185 -0.61005,0.8591 -0.71728,1.50355 -0.0639,0.38378 -0.10078,0.80912 -0.1159,1.2595 -0.0292,0.86883 0.007,1.85542 0.08,2.8292 0.13278,-0.0659 0.35636,-0.22807 0.5249,-0.29528 -0.0894,0.35723 -0.31697,0.76688 -0.51374,1.02685 0.0686,1.86844 0.17338,3.51746 0.32974,3.89852 0.1435,0.34972 1.96358,3.08924 4.24106,5.29585 -0.19051,-0.50754 -0.0946,-0.88217 -0.0122,-1.43243 0.13336,0.38696 0.53793,1.72654 0.83245,2.17171 1.98361,1.41005 3.89751,2.93355 6.38906,3.65593 -0.32674,-0.53547 -0.20311,-0.82575 -0.0436,-1.20349 0.25199,0.42143 0.77714,1.04819 0.78664,1.53764 1.02793,0.56253 2.41647,0.77154 3.22956,0.80054 0.42177,0.0151 0.91157,-0.057 1.47157,-0.18624 0.0946,-0.45672 0.18698,-1.26295 0.55581,-1.61729 0.15476,0.33447 0.56611,1.08365 0.48914,1.33781 1.99156,-0.59074 4.93332,-1.79378 6.80084,-3.44384 0.1737,-0.3661 0.27597,-0.9473 0.17691,-1.50985 0.23261,-0.0745 0.49591,0.43786 0.50783,0.84207 2.3356,-2.00267 4.52221,-3.33042 5.17603,-7.17682 0.14612,-0.85962 0.10854,-2.38867 0.22605,-4.21305 -0.14362,-0.26856 -0.56854,-1.05027 -0.58441,-1.34924 0.26351,0.15816 0.54063,0.52651 0.75232,0.65781 0.0398,-1.35363 -0.23387,-3.47262 -0.46189,-4.52172 -0.43233,-1.98914 0.0752,-6.06801 0.30991,-8.0396 -0.17418,1.48127 -0.95839,2.73144 -1.4691,3.50463 z m -14.68289,7.93646 c 0.26515,0.023 0.51787,0.1191 0.71157,0.3479 0.20009,0.23656 1.17392,0.63055 2.28472,1.05554 0.1244,-0.28985 0.12601,-0.75073 0.0465,-0.99745 0.28139,0.23921 0.57312,0.81274 0.59779,1.24246 1.58593,0.60136 2.80942,1.21622 2.74165,1.50413 -0.12573,0.5343 0.11403,3.58236 0.0254,5.5107 -0.45521,0.47561 -0.77545,0.85265 -1.50819,1.07417 0.18871,0.39715 0.33055,0.6608 0.13395,0.93206 -0.30951,-0.23439 -0.63946,-0.58757 -0.88016,-0.73273 -0.83184,0.20204 -1.65917,0.40744 -1.9538,0.17277 -0.0495,-1.09991 0.003,-2.31129 0.16258,-3.18021 -0.35057,-0.53505 -0.35796,-1.2953 -0.51595,-2.11938 -0.26246,0.077 -0.98855,0.0305 -1.54865,0.12225 0,0 -0.19471,0.59845 -0.34331,0.91987 -0.22887,-0.21507 -0.35139,-0.59409 -0.33274,-0.93539 -0.49117,-0.005 -0.94842,-0.008 -1.25686,0.0165 -0.0949,0.60398 0.024,1.34562 -0.22163,1.99704 0.0136,0.85683 0.31915,2.97235 0.0302,3.21775 -0.94347,-0.49597 -1.64785,-0.58808 -2.41485,-0.94417 -0.28602,0.17917 -0.62154,0.42574 -0.86989,0.64962 -0.0628,-0.48641 -0.0424,-0.6348 0.0794,-0.86827 -0.7707,-0.1335 -1.29406,-0.46665 -1.45265,-0.81348 -0.17777,-0.38879 -0.1765,-2.27333 -0.0665,-3.76826 0,0 -0.54563,-0.16636 -0.7663,-0.0465 0.34836,-0.37451 0.61689,-0.72933 0.84989,-0.91238 0.0431,-0.39752 0.0899,-1.61974 0.30108,-2.13476 0.1402,0.16124 0.16982,0.60859 0.3004,0.72669 0.0489,-0.36659 0.21205,-0.65176 0.36512,-0.92224 0.0639,0.188 0.0704,0.46 0.10989,0.75766 0.58432,-0.19486 1.13554,-0.35177 1.63608,-0.48633 0.039,-0.43758 0.54963,-0.98706 0.54963,-0.98706 0,0 0.21394,0.38498 0.16198,0.79978 0.96758,-0.25219 1.6546,-0.43579 1.88113,-0.71079 0.25683,-0.3116 0.72079,-0.5194 1.16262,-0.4872 z"
       id="path3156-7-7-6-4"
       style="color:#000000;fill:#ffe680;fill-opacity:1;fill-rule:evenodd;stroke:#d4aa00;stroke-width:0.25;stroke-linecap:butt;stroke-linejoin:miter;stroke-miterlimit:4;stroke-opacity:1;stroke-dasharray:none;stroke-dashoffset:0;marker:none;visibility:visible;display:inline;overflow:visible;enable-background:accumulate" />
  </g>
</svg>
