<?xml version="1.0" encoding="UTF-8" standalone="no"?>
<!-- Created with Inkscape (http://www.inkscape.org/) -->

<svg
   xmlns:svg="http://www.w3.org/2000/svg"
   xmlns="http://www.w3.org/2000/svg"
   version="1.1"
   width="560"
   height="560"
   id="facialhair_beard_rap">
  <g
     transform="translate(0,-492.36218)"
     id="layer1">
    <path
       d="m 295.74013,623.67881 c -0.0211,2.99215 0.27259,10.13365 -0.84596,13.11625 -0.17574,0.71304 -1.27778,1.56399 -1.99644,2.28449 0.13672,0.25854 0.0358,1.0265 0.0358,1.0265 0,0 -0.30139,-0.38089 -0.49975,-0.56601 -0.95351,0.93438 -3.3977,2.59323 -4.15117,2.98107 0.0182,-0.59205 0.0745,-3.09325 0.0518,-4.5193 -0.0934,-0.2531 -0.29529,-0.42668 -0.46211,-0.94036 0.13968,0.0838 0.35323,0.16988 0.45672,0.25652 -0.0762,-0.92273 0.0936,-2.49339 -0.0271,-2.74785 -0.29783,-0.44405 -5.4162,-3.12936 -6.38043,-2.79006 -0.96422,0.3394 -2.15228,0.56542 -2.76932,0.12782 -0.61707,-0.4381 -4.56348,1.15441 -5.47828,1.8685 -0.75205,0.58704 -0.61278,2.00879 -0.82418,3.8772 0.26263,-0.45377 0.30897,-0.48133 0.50034,-0.45814 -0.19722,0.4563 -0.29171,0.51154 -0.49942,1.12391 -0.0301,1.31923 -0.0357,2.3451 -0.029,3.23992 -2.08548,-1.07146 -4.55658,-3.15813 -5.27559,-4.40274 -0.86187,-2.04715 -0.63925,-10.63995 -0.61049,-12.2975 -0.29647,-0.46982 -0.5896,-0.8268 -1.00106,-1.98951 -0.0527,2.4298 1.29345,5.28627 0.39872,6.4224 -0.26134,0.33185 -0.66522,0.91381 -0.77245,1.55826 0.268,-0.17612 0.67208,-0.35675 0.67208,-0.35675 -0.0863,0.28876 -0.38462,0.56622 -0.48458,0.92342 0.005,0.83464 0.009,2.13194 0.16963,3.01776 0.12773,-0.0609 0.33727,-0.20899 0.4993,-0.26968 -0.0575,0.32528 -0.24715,0.69705 -0.42225,0.93536 0.23547,1.70156 0.51262,2.63913 0.67868,2.96975 0.15241,0.30343 1.50157,2.32208 3.87167,3.9632 -0.20228,-0.44301 -0.16437,-0.53531 -0.0882,-1.06233 0.14302,0.33341 0.63279,1.23554 0.94061,1.60171 1.72143,1.11329 3.91875,2.76832 6.55831,3.5758 -0.0546,-0.27802 -0.37623,-0.652 -0.21742,-1.06569 0.25858,0.38197 0.45946,0.82716 0.80383,1.17532 1.04081,0.41922 2.60293,0.50964 3.41602,0.44597 0.42177,-0.033 0.96627,-0.0533 1.52294,-0.2451 0.26032,-0.34071 0.40343,-0.82268 0.54345,-1.05985 0.15643,0.33849 0.1232,0.77806 0.21471,1.06041 1.97063,-0.78343 5.11539,-2.47284 6.90337,-4.05127 0.16271,-0.36458 0.41852,-0.7248 0.31054,-1.28592 0.22483,-0.0609 0.43566,0.35215 0.45464,0.76173 2.2336,-1.86429 4.16242,-3.11985 4.74749,-6.60872 0.13075,-0.77972 0.0157,-2.39531 0.11568,-4.00067 -0.14486,-0.24384 -0.57335,-0.94347 -0.59143,-1.20389 0.263,0.14502 0.54108,0.47744 0.75232,0.60187 0.0293,-1.1896 -0.24986,-3.03363 -0.47788,-3.93899 -0.43233,-1.7166 0.0752,-3.64198 0.30991,-5.61357 -0.33518,1.07978 -0.71248,1.86054 -1.0241,2.55876 z m -15.32356,8.79853 c 0.15341,0.13474 0.29438,0.31465 0.40427,0.45964 0.45152,-0.0149 1.67678,-0.34723 2.78758,0.0778 0.0406,-0.12223 0.0143,-0.33167 0.0186,-0.46665 0.14171,0.0995 0.37757,0.42162 0.40224,0.62785 1.58593,0.60136 3.50783,1.3559 3.44006,1.64381 -0.12573,0.5343 -0.0324,6.14047 -0.12152,8.06881 -0.45521,0.47561 -0.70883,0.80834 -1.44157,1.02986 0.0702,0.19961 0.0935,0.6608 -0.1031,0.93206 -0.30951,-0.23439 -0.16536,-0.50855 -0.40606,-0.65371 -0.47627,0.24155 -1.65917,0.56547 -2.19085,0.60736 -0.69065,0.23108 -3.45222,-0.0446 -4.97455,-0.47518 -0.86446,-0.10088 -1.64785,-0.58808 -2.41485,-0.94417 -0.28602,0.17917 -0.31272,0.38624 -0.56107,0.61012 -0.0628,-0.48641 0.19979,-0.74309 -0.0319,-0.86827 -0.61267,-0.33104 -1.25456,-0.7037 -1.41315,-1.05053 -0.0665,-1.00082 -0.0185,-4.11666 0.0915,-5.61159 0,0 -0.3876,0.1102 -0.60827,0.23006 0.34836,-0.37451 0.41935,-0.68982 0.65235,-0.87287 0.0431,-0.39752 -0.0286,-1.2969 0.18255,-1.81192 0.1402,0.16124 0.48589,-0.089 0.61647,0.0291 0.0489,-0.36659 0.33057,-0.19122 0.48364,-0.4617 0.0639,0.188 -0.0481,-5.4e-4 -0.009,0.29712 0.58432,-0.19486 1.13554,-0.51939 1.63608,-0.65395 0.039,-0.43758 0.54963,-0.76356 0.54963,-0.76356 0,0 0.21394,0.16148 0.16198,0.57628 0.96758,-0.25219 2.07365,-0.0167 2.60748,-0.12412 0.0879,-0.19117 0.24061,-0.43161 0.24061,-0.43161 z"
       id="path305030"
       style="color:#000000;fill:#ffe680;fill-opacity:1;stroke:#d4aa00;stroke-width:0.25;stroke-linecap:butt;stroke-linejoin:miter;stroke-miterlimit:4;stroke-opacity:1;stroke-dasharray:none;stroke-dashoffset:0;marker:none;visibility:visible;display:inline;overflow:visible;enable-background:accumulate" />
  </g>
</svg>
