<?xml version="1.0" encoding="UTF-8" standalone="no"?>
<!-- Created with Inkscape (http://www.inkscape.org/) -->

<svg
   xmlns:svg="http://www.w3.org/2000/svg"
   xmlns="http://www.w3.org/2000/svg"
   version="1.1"
   width="560"
   height="560"
   id="facialhair_goatee">
  <g
     transform="translate(0,-492.36218)"
     id="layer1">
    <path
       d="m 289.61715,643.07271 c 0,-0.42571 0.002,-1.03532 9.7e-4,-1.74543 -0.12634,-0.26539 -0.34833,-0.37142 -0.48877,-0.68754 0.0723,0.0611 0.30752,0.2114 0.48756,0.21105 -0.008,-2.25626 -0.0641,-6.89633 -0.36857,-7.53788 -0.4096,-0.86308 -6.39057,-3.36929 -7.3548,-3.02999 -0.96422,0.3394 -2.08854,0.92218 -2.65297,0.41854 -1.66403,-1.48479 -5.43874,1.96415 -6.78938,2.16106 -1.14838,0.16743 -0.28457,8.4874 -0.28457,9.65195 0,0.39466 0.20097,0.89044 0.53938,1.43241 -0.005,-0.1731 0.22194,-0.71347 0.22194,-0.71347 -0.0346,0.30389 0.0644,0.67818 0.14837,1.21807 0.61559,0.85882 1.42074,1.6987 2.37866,2.51369 0.0577,-0.53716 0.36518,-0.9057 0.58009,-0.85781 0.007,0.49939 -0.19275,0.75119 0.0881,1.42208 0.0804,-0.39747 0.39974,-0.88021 0.64528,-1.07896 -0.002,0.28416 -0.15066,0.98471 -0.094,1.46335 1.43552,0.96272 3.08823,1.78614 4.26836,1.99885 -0.0177,-0.50106 -0.10584,-1.20921 -0.0139,-1.64536 0.13165,0.44801 0.25893,1.34662 0.55274,1.69865 0.40805,-0.43416 0.41213,-1.02448 0.65278,-1.41556 0.0521,0.3968 -0.0685,1.17994 -0.0733,1.34212 0.92528,-0.50074 2.36431,-1.51001 3.70862,-2.63397 0.0921,-0.44134 0.24449,-0.83966 0.20385,-1.01654 0.0785,0.13656 0.24158,0.38155 0.20676,0.69078 0.90169,-0.79631 1.92067,-1.68392 2.61339,-2.45628 0.0347,-0.4343 -0.0467,-0.72102 -0.0917,-1.02714 0.21432,0.25403 0.376,0.41156 0.39517,0.66884 0.32123,-0.40606 0.51993,-0.76638 0.51993,-1.04551 z m -9.17836,-10.23647 c 0.01,-0.14066 0.0829,-0.4538 0.15395,-0.61746 0.1081,0.12322 0.2465,0.38389 0.33154,0.56416 0.5935,-0.13611 0.91404,-0.48695 1.44223,-0.50199 -0.0265,-0.21111 0.0176,-0.5979 0.0176,-0.5979 0.18887,0.11335 0.30275,0.32326 0.3349,0.63511 0,0 0.23874,0.0669 0.37592,0.12554 0.5767,0.24656 1.08015,0.5024 1.55025,0.73931 0.0661,-0.19484 0.0481,-0.44894 0.0424,-0.62605 0.19278,0.13896 0.33055,0.5716 0.36422,0.82918 0.54563,0.26846 1.05996,0.4976 1.61225,0.63841 -0.0919,-0.15916 -0.10001,-0.47479 -0.11929,-0.6068 0.0906,0.11507 0.3779,0.41429 0.5958,0.70356 0.19037,0.0287 0.38695,0.0463 0.5922,0.0512 -0.0655,0.27812 0.0116,1.54469 0.0613,2.73772 0.16117,-0.0821 0.43348,-0.18207 0.43348,-0.18207 -0.0575,0.15415 -0.0508,0.46963 -0.40897,0.69181 0.0238,0.88266 0.0157,1.75761 -0.0898,2.36243 -1.1375,1.1885 -4.72641,2.755 -5.36211,2.24867 0.0231,-0.16897 0.0669,-0.35744 0.12391,-0.55547 -0.0904,-0.11755 -0.21392,-0.56784 -0.27837,-0.7986 0,0 0.35834,0.26995 0.46457,0.36912 0.26807,-0.72181 0.63413,-1.6539 0.72328,-1.93114 -0.31757,-0.3885 -0.64341,-1.00618 -0.89595,-1.55867 -0.3189,0.0964 -2.15775,0.21834 -3.05521,0.0721 -0.21935,0.73127 -0.25106,1.12967 -0.5527,1.69532 0.2076,0.35594 0.38755,0.72624 0.5301,1.07704 0.12617,-0.27462 0.2077,-0.31336 0.30757,-0.63919 0.16266,0.38104 0.0389,0.74296 -0.15325,1.06434 0.16097,0.54376 0.25549,1.15753 0.10594,1.28454 -1.36326,0.11716 -2.45402,-0.12745 -3.31296,-0.51193 -0.14234,0.10579 -0.29619,0.31089 -0.41591,0.46699 -0.0476,-0.22267 -0.10637,-0.49748 -0.006,-0.67624 -1.24511,-0.6795 -1.91806,-1.61798 -2.18394,-1.91468 -0.13792,-0.75804 -0.34373,-4.68465 0.15028,-5.70695 0.0282,0.23849 0.25075,0.46355 0.45218,0.39957 0.11788,-0.20492 0.44354,-0.64102 0.65209,-0.84487 -0.01,0.15262 -0.0208,0.44352 -0.19159,0.75105 0.83504,-0.0929 1.54376,-1.15225 2.61344,-1.47677 0.28727,-0.0872 1.18803,0.065 1.49558,0.0961 0.20403,-0.1704 0.36663,-0.24746 0.48204,-0.45741 0.0535,0.19405 0.16404,0.42452 0.0583,0.49883 0.33235,0.0624 0.67381,0.0753 0.95895,0.10211 z"
       id="path32589"
       style="color:#000000;fill:#ffe680;fill-opacity:1;fill-rule:evenodd;stroke:#d4aa00;stroke-width:0.25;stroke-linecap:butt;stroke-linejoin:miter;stroke-miterlimit:4;stroke-opacity:1;stroke-dasharray:none;stroke-dashoffset:0;marker:none;visibility:visible;display:inline;overflow:visible;enable-background:accumulate" />
  </g>
</svg>
