<?xml version="1.0" encoding="UTF-8" standalone="no"?>
<svg xmlns="http://www.w3.org/2000/svg" id="glasses_hipster" width="560" height="560">
  <g id="layer1">
    <path id="path3046-6" d="M291 134.7c2-.3 2-.3 3.2-1.8.5-.7 1.6-3 2-4 0-.5 0-1 .2-1 .2-.5 1-1.2 1-1.2.4 0 .5-.3.6-1.3 0-.8 0-.8-.2-.8 0 0-1.3 0-2.6-.3-4.6-.4-8.8-.2-12.2.5-1 0-1.3.2-1.7 0H279c-1.3-.5-4.5-1-7-1l-8 .3v1l.2 1 .5.3c.7.3 1 1 1.2 2 0 1 .8 3 1.8 4.7.4.6.5.7 1.2 1 1.7.4 4.4.4 6.2 0 1 0 1.5-.6 2.5-2 .8-1.3 1-1.8 1.5-3 .4-1 .6-1.3 1.2-1.4 1-.5 1.8 0 2.2 1.2.4 1.3 1.6 3.5 2.5 4.6.5.4.7.5 1.3.7 1 .2 3.8.3 4.8.2zm-4-1.2c-.7-.3-2-1.4-2.4-2-.3-.7-.7-2-.7-3 0-2 .4-2.6 3-3 2-.4 5.3 0 6.6.5 1.2.5 1.5 1.3 1.3 2.8-.4 1.7-1.7 3.8-2.8 4.5-1 .6-3.8.8-5.2.2zm-16.7 0c-1.8-.8-3.2-3-3.2-5.4 0-1.7 1-2.4 4-2.7 1.4-.2 3 0 4.7.2 1.8.4 2.2 1 2.3 2.8 0 1.4-.3 2.3-1 3.3-1 1.5-2.3 2-4.6 2-1 0-1.6 0-2-.2z" style="fill:#000000;display:inline;enable-background:new"/>
  </g>
</svg>
