<?xml version="1.0" encoding="UTF-8" standalone="no"?>
<!-- Created with Inkscape (http://www.inkscape.org/) -->

<svg
   xmlns:svg="http://www.w3.org/2000/svg"
   xmlns="http://www.w3.org/2000/svg"
   version="1.1"
   width="560"
   height="560"
   id="glasses_goggles">
  <g
     transform="translate(0,-492.36218)"
     id="layer1">
    <g
       transform="matrix(0.98893282,0,0,0.98893282,2.92199,492.71756)"
       id="g205891"
       style="display:inline;enable-background:new">
      <path
         d="m 280.72572,127.10149 c -0.0635,0.004 -1.6539,0.10588 -2.20578,0.46041 0,0 0.56787,0.92192 0.69248,1.87164 0.48429,-0.41405 1.05079,-0.57914 1.62306,-0.61575 0.57231,-0.0366 1.15534,0.055 1.68839,0.40393 0.004,-0.95784 0.44835,-1.94461 0.44835,-1.94461 -0.59254,-0.28132 -2.18287,-0.17969 -2.2465,-0.17562 z"
         id="path15969-7"
         style="fill:#000000;fill-rule:evenodd;stroke:#000000;stroke-width:0.44191548px;stroke-linecap:butt;stroke-linejoin:miter;stroke-opacity:1" />
      <path
         d="m 297.3148,129.71591 c -1.0859,-0.97316 -0.41951,-0.50719 -1.49681,-0.40822 1.28707,-1.34688 1.89486,-4.22328 2.24923,-5.38913 0.13297,2.48732 -0.79454,3.78725 -0.75242,5.79735 z"
         id="path15985"
         style="fill:#000000;fill-rule:evenodd;stroke:#000000;stroke-width:0.44191548px;stroke-linecap:butt;stroke-linejoin:miter;stroke-opacity:1" />
      <path
         d="m 284.7458,124.58588 c -1.82976,0.82792 -3.02816,2.87711 -1.94639,6.73938 1.37933,2.16006 4.31287,4.62075 10.85836,2.26596 2.20447,-0.79307 2.09661,-2.05452 2.94992,-2.1868 0.41646,-0.17197 0.91645,-0.56941 0.91645,-0.56941 0.6899,-1.16226 -0.45061,-3.13495 -0.69135,-3.71795 -1.58773,-0.95325 -2.4213,-1.14927 -3.92212,-2.18681 -0.91453,-0.63227 -5.31049,-1.63589 -8.16487,-0.34437 z m 1.6826,0.4435 c 1.23118,-0.50838 5.54593,-0.52461 6.73979,2.36662 0.41042,0.99393 1.17911,4.70175 -1.80359,5.93338 -3.33654,1.37774 -6.99764,-1.33929 -7.62304,-2.85385 0,0 -0.9608,-3.93994 2.68684,-5.44615 z"
         id="path15979"
         style="fill:#1a1a1a;fill-rule:evenodd;stroke:none" />
      <path
         d="m 294.68965,125.97223 c 0.75913,0.16907 1.4742,1.37291 1.74093,1.75143 0.24256,0.34425 0.13179,2.33098 -0.6338,2.64711 -0.76562,0.31615 -0.0744,-1.55648 -0.16635,-2.24777 -0.0635,-0.47774 -0.46203,-1.65913 -0.94078,-2.15077 z"
         id="path15983"
         style="fill:#666666;stroke:none" />
      <g
         transform="translate(0,0.42326775)"
         id="g205851"
         style="opacity:0.8">
        <g
           transform="matrix(0.14961106,-0.06177824,0.06177824,0.14961106,185.96939,128.92617)"
           id="g15973">
          <path
             d="m 582.84215,214.62527 c -24.38056,0 -23.10076,23.0939 -23.10076,23.0939 0,10.12335 9.65978,30.04647 31.96133,30.04647 19.93628,0 24.05011,-17.07593 24.05011,-23.71938 0,-19.32496 -24.68133,-29.42099 -32.91068,-29.42099 z"
             id="path15975"
             style="fill:#000000;fill-rule:evenodd;stroke:#000000;stroke-width:2.73016167px;stroke-linecap:butt;stroke-linejoin:miter;stroke-opacity:1" />
          <path
             d="m 603.50895,222.59648 c -9.83326,3.95906 -21.8191,12.42617 -39.34984,29.37227 2.96091,5.02303 7.47095,9.81806 13.6875,12.78125 9.99368,-10.66413 25.10336,-22.47817 36.69885,-30.01247 -4.32956,-4.96808 -5.6458,-9.86551 -11.03651,-12.14105 z"
             id="path15977"
             style="fill:#ffffff;fill-opacity:1;fill-rule:evenodd;stroke:none" />
        </g>
        <g
           transform="matrix(0.14754783,0.0665557,-0.0665557,0.14754783,216.71769,59.769961)"
           id="g15989">
          <path
             d="m 500.76297,218.76341 c 24.25975,2.4243 20.68994,25.27649 20.68994,25.27649 -1.00663,10.07318 -12.5996,28.93704 -34.79062,26.71947 -19.83748,-1.98237 -22.23297,-19.38273 -21.57238,-25.99325 1.92159,-19.22919 27.4845,-26.82098 35.67306,-26.00271 z"
             id="path15991"
             style="fill:#000000;fill-rule:evenodd;stroke:#000000;stroke-width:2.73016167px;stroke-linecap:butt;stroke-linejoin:miter;stroke-opacity:1" />
          <path
             d="m 495.77028,217.61174 c -8.46271,9.45418 -10.42533,33.94168 -19.25062,50.32332 2.74453,6.07357 9.14493,2.11892 20.0813,3.2118 0.10526,0.0105 0.20771,0.0217 0.3125,0.0312 2.85009,-5.0456 6.1075,-36.90748 15.00173,-49.59646 -2.35675,-4.26071 -8.56716,-2.32462 -16.14491,-3.96991 z"
             id="path15993"
             style="fill:#ffffff;fill-opacity:1;fill-rule:evenodd;stroke:none" />
        </g>
      </g>
      <path
         d="m 266.83543,128.45418 c 0,0 -0.15461,0.57429 -0.29054,0.98726 0.39754,-0.28857 0.84423,-0.39007 1.08367,-0.27244 -0.37491,0.50638 -0.33359,0.7653 -0.35457,1.03753 -2.91841,-0.0514 -3.10359,-5.77146 -2.71537,-7.51953 0,0 0.0383,0.99847 0.14677,1.55919 0.0885,1.22874 0.56064,4.0273 2.13004,4.20799 z"
         id="path15995"
         style="fill:#000000;fill-rule:evenodd;stroke:#000000;stroke-width:0.44191551px;stroke-linecap:butt;stroke-linejoin:miter;stroke-opacity:1" />
      <path
         d="m 276.90195,124.71241 c -2.67406,-1.12274 -6.38584,-0.73935 -7.27398,-0.28465 -1.62408,0.8314 -1.1089,0.81762 -4.33602,2.80466 -0.31524,0.54632 -0.27952,2.43824 0.25169,3.68104 0,0 0.46728,0.27262 0.85754,0.4978 0.57428,0.50573 0.19535,0.73721 1.35148,1.50409 5.49878,3.64742 9.82158,0.46527 11.4727,-1.49487 1.39866,-3.81259 -0.10769,-5.77778 -2.32341,-6.70807 z m -1.11028,0.54239 c 0.095,0.0403 0.17936,0.0775 0.25151,0.119 3.4181,1.97232 1.93413,5.81251 1.93413,5.81251 -0.81893,1.41929 -4.72414,3.47857 -7.85078,1.67444 -2.79504,-1.61279 -1.61433,-5.08782 -1.07689,-6.01922 1.46565,-2.53999 5.31576,-2.1892 6.74203,-1.58673 z"
         id="path15997"
         style="fill:#1a1a1a;fill-rule:evenodd;stroke:none" />
      <path
         d="m 276.40887,124.86331 c -1.7742,-0.74928 -6.56284,-1.18822 -8.38606,1.9716 -0.66877,1.1589 -1.51667,4.27722 1.96007,6.28337 3.47673,2.00615 7.42342,0.014 8.44238,-1.75197 0,0 2.54944,-3.89687 -1.70238,-6.35025 -0.0897,-0.0518 -0.19574,-0.1028 -0.31401,-0.15275 z m -0.6172,0.81476 c 0.095,0.0403 0.17936,0.0775 0.25151,0.119 3.4181,1.97232 1.36977,5.10706 1.36977,5.10706 -0.81893,1.41929 -3.78354,3.43154 -6.91018,1.62741 -2.79504,-1.61279 -1.99057,-4.33534 -1.45313,-5.26674 1.46565,-2.53999 5.31576,-2.1892 6.74202,-1.58673 z"
         id="path15999"
         style="fill:#b3b3b3;fill-rule:evenodd;stroke:none" />
      <path
         d="m 267.65953,125.76137 c -0.77475,0.63434 -1.57363,1.34985 -1.88492,1.69231 -0.28801,0.3168 -0.42796,2.48853 0.28942,2.90248 0.71744,0.41398 0.34541,-2.17532 0.45131,-2.4015 0.20302,-0.43386 0.60503,-1.76879 1.14419,-2.19329 z"
         id="path16001"
         style="fill:#666666;stroke:none" />
      <path
         d="m 285.86076,124.5816 c -4.53727,1.87355 -2.52521,6.07745 -2.52521,6.07745 0.77817,1.88453 4.42617,4.37816 8.13632,2.84615 3.71022,-1.53205 3.28687,-4.73641 2.7762,-5.97314 -1.48519,-3.59673 -6.85581,-3.58286 -8.38731,-2.95046 z m 0.56764,0.87105 c 1.23118,-0.50838 5.54593,-0.52461 6.73979,2.36662 0.41042,0.99393 0.8499,3.80818 -2.1328,5.03981 -3.33654,1.37774 -6.01001,-1.01008 -6.63541,-2.52464 0,0 -1.61922,-3.37558 2.02842,-4.88179 z"
         id="path15981"
         style="fill:#b3b3b3;fill-opacity:1;fill-rule:evenodd;stroke:none" />
    </g>
  </g>
</svg>
