<?xml version="1.0" encoding="UTF-8" standalone="no"?>
<!-- Created with Inkscape (http://www.inkscape.org/) -->

<svg
   xmlns:svg="http://www.w3.org/2000/svg"
   xmlns="http://www.w3.org/2000/svg"
   version="1.1"
   width="560"
   height="560"
   id="glasses_rayban">
  <g
     transform="translate(0,-492.36218)"
     id="layer1">
    <g
       transform="translate(-246.26493,491.36218)"
       id="g45988"
       style="display:inline;enable-background:new">
      <path
         d="m 512.35056,129.07297 c -0.43967,5.48421 3.0108,6.71511 6.13964,6.6513 2.78558,-0.0568 6.76498,-3.752 6.70812,-7.21977 -0.0568,-3.46774 -6.19648,-3.06981 -8.01563,-3.06981 -1.81916,0 -4.53193,-0.1063 -4.83213,3.63828 z"
         id="path43732-0"
         style="opacity:0.75;color:#000000;fill:#000000;stroke:none;stroke-width:0.611;marker:none;visibility:visible;display:inline;overflow:visible;enable-background:accumulate" />
      <path
         d="m 541.64692,129.07297 c 0.43967,5.48421 -3.01079,6.71511 -6.13964,6.6513 -2.78557,-0.0568 -6.76497,-3.752 -6.70812,-7.21977 0.0569,-3.46774 6.19649,-3.06981 8.01564,-3.06981 1.81915,0 4.53192,-0.1063 4.83212,3.63828 z"
         id="path43732-3-7"
         style="opacity:0.75;color:#000000;fill:#000000;stroke:none;stroke-width:0.611;marker:none;visibility:visible;display:inline;overflow:visible;enable-background:accumulate" />
      <g
         transform="translate(1.0822853,0)"
         id="g45942">
        <path
           d="m 511.26827,129.07297 c -0.43967,5.48421 3.0108,6.71511 6.13964,6.6513 2.78558,-0.0568 6.76498,-3.752 6.70812,-7.21977 -0.0568,-3.46774 -6.19648,-3.06981 -8.01563,-3.06981 -1.81916,0 -4.53193,-0.1063 -4.83213,3.63828 z"
           id="path43732"
           style="color:#000000;fill:none;stroke:#aa8800;stroke-width:0.611;stroke-linecap:butt;stroke-linejoin:miter;stroke-miterlimit:4;stroke-opacity:1;stroke-dasharray:none;stroke-dashoffset:0;marker:none;visibility:visible;display:inline;overflow:visible;enable-background:accumulate" />
        <path
           d="m 540.56463,129.07297 c 0.43967,5.48421 -3.01079,6.71511 -6.13964,6.6513 -2.78557,-0.0568 -6.76497,-3.752 -6.70812,-7.21977 0.0569,-3.46774 6.19649,-3.06981 8.01564,-3.06981 1.81915,0 4.53192,-0.1063 4.83212,3.63828 z"
           id="path43732-3"
           style="color:#000000;fill:none;stroke:#aa8800;stroke-width:0.611;stroke-linecap:butt;stroke-linejoin:miter;stroke-miterlimit:4;stroke-opacity:1;stroke-dasharray:none;stroke-dashoffset:0;marker:none;visibility:visible;display:inline;overflow:visible;enable-background:accumulate" />
        <path
           d="m 523.94275,129.24352 c 0,-1.22912 0.66206,-1.92181 1.85499,-1.92181 1.57999,0 2.18913,0.70724 1.86368,1.92181"
           id="path43752"
           style="color:#000000;fill:none;stroke:#aa8800;stroke-width:0.611;stroke-linecap:round;stroke-linejoin:round;stroke-miterlimit:4;stroke-opacity:1;stroke-dasharray:none;stroke-dashoffset:0;marker:none;visibility:visible;display:inline;overflow:visible;enable-background:accumulate" />
        <path
           d="m 519.79555,125.54836 11.96718,0"
           id="path43754"
           style="color:#000000;fill:none;stroke:#aa8800;stroke-width:0.611;stroke-linecap:round;stroke-linejoin:round;stroke-miterlimit:4;stroke-opacity:1;stroke-dasharray:none;stroke-dashoffset:0;marker:none;visibility:visible;display:inline;overflow:visible;enable-background:accumulate" />
        <path
           d="m 540.6021,129.41407 0.85273,0 1.15423,-4.76301"
           id="path43756"
           style="color:#000000;fill:none;stroke:#aa8800;stroke-width:0.611;stroke-linecap:round;stroke-linejoin:round;stroke-miterlimit:4;stroke-opacity:1;stroke-dasharray:none;stroke-dashoffset:0;marker:none;visibility:visible;display:inline;overflow:visible;enable-background:accumulate" />
        <path
           d="m 511.32513,129.41407 -0.56849,0 -0.26482,-4.86303"
           id="path43756-2"
           style="color:#000000;fill:none;stroke:#aa8800;stroke-width:0.611;stroke-linecap:round;stroke-linejoin:round;stroke-miterlimit:4;stroke-opacity:1;stroke-dasharray:none;stroke-dashoffset:0;marker:none;visibility:visible;display:inline;overflow:visible;enable-background:accumulate" />
      </g>
    </g>
  </g>
</svg>
