<?xml version="1.0" encoding="UTF-8" standalone="no"?>
<!-- Created with Inkscape (http://www.inkscape.org/) -->

<svg
   xmlns:dc="http://purl.org/dc/elements/1.1/"
   xmlns:cc="http://creativecommons.org/ns#"
   xmlns:rdf="http://www.w3.org/1999/02/22-rdf-syntax-ns#"
   xmlns:svg="http://www.w3.org/2000/svg"
   xmlns="http://www.w3.org/2000/svg"
   version="1.1"
   width="560"
   height="560"
   id="gloves_motorcycle">
  <path
     d="m 235.2484,338.59735 c -0.65895,-2.30632 -0.98842,-2.85544 -0.76877,-4.28315 -1.09824,-0.4393 -1.42772,-1.42772 -2.08666,-2.85544"
     id="path33513"
     style="color:#000000;fill:none;stroke:#de8787;stroke-width:0.5;stroke-linecap:butt;stroke-linejoin:miter;stroke-miterlimit:4;stroke-opacity:1;stroke-dasharray:none;stroke-dashoffset:0;marker:none;visibility:visible;display:inline;overflow:visible;enable-background:accumulate" />
  <path
     d="m 227.09375,311.875 c -3.3765,-0.0937 -9.88474,0.7133 -11.71875,2.3125 0.0975,1.15832 -0.0214,2.5658 -0.71875,4.53125 -1.98124,5.5835 0.35284,10.61245 -0.1875,12.59375 -0.54034,1.9812 -0.22784,1.7795 0.3125,2.5 0.54034,0.7204 0.99481,1.85565 1.84375,2.15625 0.72045,0.2551 2.45463,0.21155 3.0625,-0.15625 0.66045,1.2458 1.62917,3.5101 2.34375,3.625 1.54983,0.2494 4.42684,1.8982 5.5,0.75 1.55223,-0.1276 3.99268,0.90555 7.75,-1.59375 0.22985,0.6763 1.15032,2.7897 1.375,3.125 0.38137,0.5691 1.96875,0.95445 1.96875,-0.46875 0,-1.8012 0.29074,-6.41995 -0.78125,-9.15625 -1.04686,-2.6722 -0.49092,-7.73015 -1.03125,-9.53125 -0.54034,-1.8011 -2.03118,-5.01494 -4.125,-7.09375 -1.24538,-1.23646 -2.55598,-1.53229 -3.53125,-3.1875 -0.13733,-0.23307 -0.937,-0.37502 -2.0625,-0.40625 z m -4.40625,3.1875 c 0.24044,-7.7e-4 0.47423,0.0149 0.6875,0.0312 0,0 1.71871,5.90018 1.0625,9.3125 -3.14985,0.39374 -6.06263,1.05629 -8.6875,1.84375 -0.65622,-4.59352 0.13752,-7.33136 0.53125,-9.5625 2.41161,-1.14838 4.72316,-1.61961 6.40625,-1.625 z m 9.84375,14.375 c -0.14259,0.713 -0.28909,1.9843 0.28125,3.125 -0.85551,-0.7129 -1.4394,-0.7051 -2.4375,-0.5625 0.71293,-1.711 1.01556,-2.1347 2.15625,-2.5625 z"
     id="path21926-1-8-3"
     style="fill:#333333;stroke:#000000;stroke-width:1;stroke-linecap:round;stroke-linejoin:round;stroke-miterlimit:4;stroke-opacity:1;stroke-dasharray:none;stroke-dashoffset:0;marker:none;visibility:visible;display:inline;overflow:visible;enable-background:accumulate" />
  <path
     d="m 228.40625,312 c 0.69418,1.5784 0.79598,2.67134 2.59375,3.75 1.96865,1.18119 3.13756,6.1688 4.1875,7.21875 1.04995,1.04995 0.78749,3.14379 0.65625,4.0625 -0.13124,0.9187 -0.12493,4.33133 1.1875,5.90625 1.31244,1.57492 1.29374,6.57502 1.03125,6.96875 -0.26249,0.39373 -3.27498,-2.22515 -2.75,-5.375 -1.18119,-2.09989 -1.95623,-5.13755 -1.5625,-6.1875 0.39374,-1.04995 0.53122,-4.05008 -0.125,-5.625 0.26249,1.44368 -0.41253,3.91881 -0.9375,4.96875 0.52497,-1.70616 0.38749,-2.74379 0.125,-3.53125 -0.13124,1.70616 -0.51252,3.13755 -0.90625,4.1875 -0.26249,-1.70616 -0.25628,-1.95005 -0.78125,-3 0.39373,1.31244 0.006,2.61255 -0.125,3.53125 -0.78746,-1.18119 -2.51259,-0.24385 -4.21875,-2.34375 0.78746,3.28109 -1.0375,3.54381 -0.90625,4.59375 0.13124,1.04995 -1.83129,1.57499 -2.75,1.3125 1.31244,0.9187 2.49385,1.3125 4.59375,1.3125 2.09989,0 4.20005,0.90007 5.25,2.34375 -1e-5,-0.9187 1.025,-1.81871 1.15625,-1.03125 0.13124,0.78746 0.94368,3.40625 -0.5,3.40625 -1.44368,0 -1.7313,1.55622 -2.78125,1.03125 -1.04995,-0.52498 -4.46257,-5.37503 -5.90625,-6.03125 1.04995,1.83741 1.96875,3.68128 1.96875,4.46875 0,0.9187 -1.42504,1.06243 -2.34375,-0.25 0.26249,1.31243 -0.78753,1.57499 -1.3125,1.3125 -0.52498,-0.26249 -1.83754,-1.60003 -2.625,-2.125 -0.16067,-0.10712 -0.42914,-0.32067 -0.6875,-0.5625 0.64197,1.27395 1.45812,3.02279 2.09375,3.125 1.54983,0.2494 4.42684,1.8982 5.5,0.75 1.55223,-0.1276 3.99268,0.90555 7.75,-1.59375 0.22985,0.6763 1.15032,2.7897 1.375,3.125 0.38137,0.5691 1.96875,0.95445 1.96875,-0.46875 0,-1.8012 0.29074,-6.41995 -0.78125,-9.15625 -1.04686,-2.6722 -0.49092,-7.73015 -1.03125,-9.53125 -0.54034,-1.8011 -2.03118,-5.01494 -4.125,-7.09375 -1.24538,-1.23646 -2.55598,-1.53229 -3.53125,-3.1875 -0.0737,-0.12508 -0.34678,-0.21169 -0.75,-0.28125 z m 4.125,17.4375 c -0.14259,0.713 -0.28909,1.9843 0.28125,3.125 -0.85551,-0.7129 -1.4394,-0.7051 -2.4375,-0.5625 0.71293,-1.711 1.01556,-2.1347 2.15625,-2.5625 z m -15.0625,4.3125 c 0.39373,1.31244 0.78109,1.56867 -2.5,0.125 0.0284,0.14178 0.091,0.26704 0.125,0.40625 0.42584,0.67526 0.8427,1.44369 1.53125,1.6875 0.65917,0.2334 2.1577,0.22372 2.875,-0.0625 -0.94944,-0.9435 -2.03125,-2.15625 -2.03125,-2.15625 z"
     id="path310262"
     style="color:#000000;fill:#1a1a1a;stroke:none;stroke-width:0.5;marker:none;visibility:visible;display:inline;overflow:visible;enable-background:accumulate" />
  <path
     d="m 231.30281,340.264 c -3.10432,-2.6077 -4.59439,-6.0845 -6.45698,-6.7054 -1.86259,-0.6208 -2.48345,-0.1241 -1.98676,-3.8493"
     id="path3408-4-5"
     style="fill:#333333;stroke:#000000;stroke-width:0.5;stroke-linecap:round;stroke-linejoin:round;stroke-miterlimit:4;stroke-opacity:1;stroke-dasharray:none;display:inline;enable-background:new" />
  <g
     transform="translate(-4.2771632e-8,-1)"
     id="g310272"
     style="fill:#1a1a1a;stroke:none">
    <path
       d="m 222.58893,330.79895 c -0.9187,0.52497 -1.96865,0.65622 -2.0999,1.44368 -0.13124,0.78746 -0.65621,1.57492 -1.44367,1.44368 1.31243,1.31243 4.33103,0.65621 5.64347,0.78746 -1.83741,-0.78746 -1.96866,-0.26249 -2.0999,-3.67482 z"
       id="path310264"
       style="color:#000000;fill:#1a1a1a;stroke:none;stroke-width:0.5;marker:none;visibility:visible;display:inline;overflow:visible;enable-background:accumulate" />
    <path
       d="m 215.76427,332.37387 c 0,0 0.65622,-2.23114 0.65622,-3.80606 0.78746,1.18119 0.78746,1.44368 -0.65622,3.80606 z"
       id="path310266"
       style="color:#000000;fill:#1a1a1a;stroke:none;stroke-width:0.5;marker:none;visibility:visible;display:inline;overflow:visible;enable-background:accumulate" />
    <path
       d="m 219.70157,330.66771 c 1.44368,-1.04995 1.31244,-3.28109 0.78746,-3.41233 -0.52497,-0.13125 -0.9187,0.13124 -0.9187,0.13124 0.26249,1.18119 0.13124,3.28109 0.13124,3.28109 z"
       id="path310268"
       style="color:#000000;fill:#1a1a1a;stroke:none;stroke-width:0.5;marker:none;visibility:visible;display:inline;overflow:visible;enable-background:accumulate" />
    <path
       d="m 224.82007,331.19268 c -0.78746,-1.96865 -1.44368,-4.33104 -1.44368,-4.33104 0.78746,-0.26248 1.57492,0 1.96865,-0.52497 0.39373,-0.52497 0.26249,-1.18119 0.39373,-1.96865 0.52498,2.62487 -1.18119,3.41233 -0.9187,6.82466 z"
       id="path310270"
       style="color:#000000;fill:#1a1a1a;stroke:none;stroke-width:0.5;marker:none;visibility:visible;display:inline;overflow:visible;enable-background:accumulate" />
  </g>
  <path
     d="m 226.8326,340.5123 c -2.23511,-2.4834 -5.09108,-6.8295 -6.45698,-7.0778 -1.3659,-0.2484 -2.11093,-1.4901 -2.11093,-3.4769"
     id="path3410-96-4"
     style="fill:#333333;stroke:#000000;stroke-width:0.5;stroke-linecap:round;stroke-linejoin:round;stroke-miterlimit:4;stroke-opacity:1;stroke-dasharray:none;display:inline;enable-background:new" />
  <path
     d="m 219.50641,336.1663 c -0.99338,-1.2418 -1.49007,-2.111 -2.48345,-2.856"
     id="path3412-3-3"
     style="fill:#333333;stroke:#000000;stroke-width:0.5;stroke-linecap:round;stroke-linejoin:round;stroke-miterlimit:4;stroke-opacity:1;stroke-dasharray:none;display:inline;enable-background:new" />
  <path
     d="m 229.93691,328.095 c 0.24835,1.9868 0.86921,1.7385 0.49669,4.2219 0.99338,0.2484 2.35928,2.856 2.7318,4.2219"
     id="path3414-3-8"
     style="fill:#333333;stroke:#000000;stroke-width:0.5;stroke-linecap:round;stroke-linejoin:round;stroke-miterlimit:4;stroke-opacity:1;stroke-dasharray:none;display:inline;enable-background:new" />
  <path
     d="m 235.1883,338.7235 c -0.52497,-1.31243 -1.18119,-2.88735 -1.04994,-4.06854 -0.78747,-0.91871 -0.78747,-1.04995 -1.70617,-2.62487"
     id="path310255"
     style="color:#000000;fill:none;stroke:#000000;stroke-width:1;stroke-linecap:butt;stroke-linejoin:miter;stroke-miterlimit:4;stroke-opacity:1;stroke-dasharray:none;stroke-dashoffset:0;marker:none;visibility:visible;display:inline;overflow:visible;enable-background:accumulate" />
  <path
     d="m 216.55173,316.54336 c 1.57492,-0.65622 4.46228,-1.70617 6.69342,-1.70617 2.23114,0 2.62487,-0.26248 2.62487,-0.26248 l 1.70616,-1.31244 -2.09989,-1.44368 c -2.75612,0.39373 -5.77472,0.13125 -9.18705,2.0999"
     id="path310259"
     style="color:#000000;fill:none;stroke:#000000;stroke-width:0.5;stroke-linecap:butt;stroke-linejoin:miter;stroke-miterlimit:4;stroke-opacity:1;stroke-dasharray:none;stroke-dashoffset:0;marker:none;visibility:visible;display:inline;overflow:visible;enable-background:accumulate" />
  <path
     d="m 231.64473,318.90574 c 0.13124,0.78746 -0.26249,2.0999 -0.26249,3.28109 -0.52497,-0.52498 -1.96865,-1.96865 -1.96865,-1.96865 0.65622,2.23113 0.78746,3.9373 0.78746,4.59352 -1.04995,-0.91871 -2.23114,-1.83741 -2.23114,-1.83741 1.57492,2.75611 2.49363,3.80606 2.75612,4.59352 0.39373,-1.96865 0.13124,-3.9373 0,-4.46228 0.78746,1.44368 0.78746,2.62487 1.18119,3.41233 0.65621,-1.83741 -0.39373,-7.08715 -0.26249,-7.61212 z"
     id="path310304"
     style="color:#000000;fill:#1a1a1a;stroke:none;stroke-width:0.5;marker:none;visibility:visible;display:inline;overflow:visible;enable-background:accumulate" />
  <path
     d="m 233.35089,323.76175 c 0.52498,-1.70617 -0.26248,-2.49363 -0.52497,-3.41233 -0.26249,1.44368 0.52497,2.62487 0.52497,3.41233 z"
     id="path310306"
     style="color:#000000;fill:#1a1a1a;stroke:none;stroke-width:0.5;marker:none;visibility:visible;display:inline;overflow:visible;enable-background:accumulate" />
  <path
     d="m 337.375,332.5 c -0.31329,2.50637 -0.13209,4.37862 1.03125,6.4375 -0.3422,0.33361 -0.64923,0.69784 -0.875,0.96875 -0.74504,-1.7384 -1.50662,-2.8808 -2.5,-3.75 -0.99338,-0.8692 -3.6101,-0.0993 -1.375,3.75 0.67249,1.15819 1.07535,1.98552 1.375,2.6875 -1.44462,-0.70034 -2.81846,-0.628 -3.71875,-0.21875 -1.36589,0.6209 -0.99008,1.97115 0.5,2.34375 1.49007,0.3725 2.72537,1.5074 3.71875,2.625 1.8984,0.27119 1.95392,-1.42846 1.84375,-2.375 2.0178,-0.82193 6.50676,-4.86141 5.96875,-5.9375 -0.25814,-0.51627 -0.72317,-1.30324 -1.1875,-2.03125 1.18243,-1.59229 0.65158,-3.23781 -4.78125,-4.5 z"
     id="path3420-7-2"
     style="fill:#000000;stroke:#000000;stroke-width:0.5;stroke-linecap:round;stroke-linejoin:round;stroke-miterlimit:4;stroke-opacity:1;stroke-dasharray:none;display:inline;enable-background:new" />
  <path
     d="m 337.375,316.8125 c -0.7821,1.2625 -2.914,2.63485 -4.375,5.96875 -1.70346,3.8873 -1.9137,7.64465 -2.4375,8.65625 -0.52381,1.0115 -0.2215,4.617 -1,5.625 -0.7785,1.0079 -0.92357,3.60995 -1.34375,5.09375 -2.38596,6.5896 3.60746,4.32545 4.03125,2.21875 0.23645,-1.1754 0.7505,-2.7005 0.75,-3.5625 0.56444,-1.616 1.42395,-2.72705 1.40625,-3.46875 1.85055,-2.3772 1.19786,-4.4115 2.46875,-4.3125 1.6207,0.126 3.10676,0.5384 4.71875,5.6875 0.17702,0.5654 -2.55251,2.76235 -2.96875,4.15625 -1.02427,0.6111 -2.30072,1.95485 -3.5625,3.34375 -1.03272,-0.1202 -3.53291,0.34415 -4.5625,1.09375 -1.02958,0.7497 -0.93332,1.70535 0.34375,1.46875 1.27707,-0.237 2.24928,-0.1249 2.625,-0.3125 0.7943,0.1852 2.3747,0.4769 3.40625,0.125 1.52533,-0.5203 2.59185,-1.9105 4.21875,-2.625 1.60257,-0.7039 2.13109,-1.96715 3.4375,-3.15625 1.43275,-1.304 3.04222,-2.23515 3.90625,-3.53125 1.01734,-1.526 1.27679,-3.25355 1.03125,-4.09375 -0.9719,-3.3254 -0.42367,-9.3383 -1.96875,-14.9375 l -10.125,-3.4375 z m 5.625,4.78125 c 1.01859,0.20372 3.85219,0.46875 4.53125,0.46875 0.27162,1.29021 0.70254,6.52413 0.90625,8.96875 -0.47534,0.33953 -1.23326,0.8179 -3.40625,0.75 -0.40744,-1.1544 -2.71031,-5.90943 -2.03125,-10.1875 z"
     id="path21924-9-4-8"
     style="fill:#333333;stroke:#000000;stroke-width:1;stroke-linecap:round;stroke-linejoin:miter;stroke-miterlimit:4;stroke-opacity:1;stroke-dasharray:none;stroke-dashoffset:0;marker:none;visibility:visible;display:inline;overflow:visible;enable-background:accumulate" />
  <path
     d="m 347.84025,320.05952 c -1.3712,0.14692 -2.55283,-0.24278 -3.54486,-0.6901 -1.33085,-0.6001 -2.50898,-1.0048 -2.50898,-1.0048 l -1.66927,1.03608 0.72185,2.15296 c 2.11084,0.0417 4.4015,2.0042 7.57197,0.99283"
     id="path310259-4"
     style="color:#000000;fill:#333333;stroke:#000000;stroke-width:0.5;stroke-linecap:butt;stroke-linejoin:miter;stroke-miterlimit:4;stroke-opacity:1;stroke-dasharray:none;stroke-dashoffset:0;marker:none;visibility:visible;display:inline;overflow:visible;enable-background:accumulate" />
  <path
     d="m 336,328.84375 c -0.20372,2.91995 -1.09138,5.77229 -1.90625,7.0625 -0.27163,-0.40743 -0.004,-0.80169 -0.34375,-0.9375 0.20372,2.17299 -0.6755,3.94476 -1.21875,5.03125 0,0 0.0162,-0.50422 -0.1875,-0.84375 0,1.49393 -0.49222,3.39611 -1.375,5.09375 -0.6025,1.15865 -2.45821,1.58382 -3.28125,0.8125 0.19194,1.93711 2.10808,1.68246 3.40625,0.78125 0.11052,-0.0767 0.24402,-0.1336 0.34375,-0.21875 0.42742,-0.36492 0.7266,-0.82297 0.8125,-1.25 0.23645,-1.1754 0.7505,-2.7005 0.75,-3.5625 0.56444,-1.616 1.42395,-2.72705 1.40625,-3.46875 1.85055,-2.3772 1.19786,-4.4115 2.46875,-4.3125 1.62069,0.126 3.10676,0.5384 4.71875,5.6875 0.076,0.24288 -0.41711,0.81671 -1,1.46875 1.40126,-0.62295 2.56443,-0.55445 3.75,-0.40625 -2.2409,-1.1544 -2.65269,-2.72786 -3.875,-4.96875 0.27162,0.27162 1.0451,1.2326 1.65625,1.84375 -2.03718,-3.93855 -2.94357,-3.86841 -4.4375,-4.34375 0.88277,-0.95068 1.08716,-1.09797 1.5625,-1.4375 -1.08649,0 -1.40928,0.70253 -2.15625,0.90625 -0.0679,-0.40743 0.0625,-1.16891 0.0625,-2.1875 -0.27163,0.61115 -0.32753,1.0331 -0.53125,2.1875 -0.33953,-0.95068 -0.35338,-2.05473 -0.625,-2.9375 z m 12.96875,3.40625 c -0.2484,0.13051 -0.57028,0.25259 -1.03125,0.40625 0,0.27162 1.09797,2.16469 1.4375,2.84375 0.33953,0.67906 -0.27466,1.98378 -0.75,2.1875 -0.47534,0.20372 -1.08597,-2.57701 -1.96875,-4.75 0.0679,0.61116 0.68631,2.71638 1.09375,3.53125 0.40743,0.81487 -0.20675,1.82872 -0.75,1.625 -0.54325,-0.20371 -1.08175,-1.63951 -1.625,-3.8125 0,0.95068 1.0679,4.80591 1,5.28125 -0.0679,0.47535 -0.79272,1.09256 -2.21875,1.5 -1.42602,0.40743 -1.76569,3.25422 -3.53125,3.59375 -1.76555,0.33953 -2.25303,1.11604 -3,2.40625 -0.74697,1.29021 -1.00066,1.07449 -2.5625,0.53125 -1.18113,-0.41083 -3.80326,0.99091 -5.15625,1 0.14207,0.18755 0.43933,0.27979 0.9375,0.1875 1.27707,-0.237 2.24928,-0.1249 2.625,-0.3125 0.7943,0.1852 2.3747,0.4769 3.40625,0.125 1.52532,-0.5203 2.59185,-1.9105 4.21875,-2.625 1.60257,-0.7039 2.13109,-1.96715 3.4375,-3.15625 1.43275,-1.304 3.04222,-2.23515 3.90625,-3.53125 1.01734,-1.526 1.27679,-3.25355 1.03125,-4.09375 -0.24298,-0.83135 -0.39058,-1.81867 -0.5,-2.9375 z m -19.90625,5.96875 c -0.28241,0.95834 -0.45304,2.15361 -0.65625,3.15625 0.61549,-0.59565 1.19946,-0.27482 1.875,-0.5 1.01859,-0.33953 1.08649,-1.36841 0,-1.84375 -0.57812,-0.25293 -0.96871,-0.49572 -1.21875,-0.8125 z"
     id="path310479"
     style="color:#000000;fill:#1a1a1a;stroke:none;stroke-width:0.5;marker:none;visibility:visible;display:inline;overflow:visible;enable-background:accumulate" />
</svg>
