<?xml version="1.0" encoding="UTF-8" standalone="no"?>
<!-- Created with Inkscape (http://www.inkscape.org/) -->

<svg
   xmlns:svg="http://www.w3.org/2000/svg"
   xmlns="http://www.w3.org/2000/svg"
   version="1.1"
   width="560"
   height="560"
   id="hair_balding_crazy">
  <defs
     id="defs159377">
    <clipPath
       id="clipPath30513-1-9">
      <path
         d="m 802.7007,239.5223 c 9.88067,-5.2428 21.97945,-3.428 27.02062,11.6955 5.04116,15.1235 0,27.6256 1.61317,31.2552 1.61317,3.6297 3.83128,9.4774 3.62963,18.3499 -0.20164,8.8724 1.61317,9.4773 4.43622,18.3498 2.82305,8.8724 3.62964,49 4.43622,54.2429 0.80659,5.2428 -1.20987,7.6625 -2.41975,10.2839 -1.20988,2.6214 -8.26751,-1.2098 -9.27574,-3.8313 -1.00823,-2.6214 -0.40329,-3.0246 0.20165,-5.8477 0.60494,-2.823 -5.84775,-30.0453 -8.2675,-36.498 -2.41976,-6.4527 -5.44446,-18.7531 -5.24281,-23.7943 0.20165,-5.0411 -2.82305,-7.8642 -5.24281,-16.9383 -2.41976,-9.0741 -3.42799,-28.4321 -1.61317,-41.5392"
         id="path30515-4-4"
         style="fill:none;stroke:#552200;stroke-width:1px;stroke-linecap:butt;stroke-linejoin:miter;stroke-opacity:1;display:inline" />
    </clipPath>
    <clipPath
       id="clipPath30446-4-3">
      <path
         d="m 751.28086,2651.7015 c -9.88068,-6.0494 -18.14818,-7.0576 -27.22227,3.8313 -9.07409,10.8889 -2.21811,30.0453 -5.04116,36.6996 -2.82305,6.6544 -3.42799,10.6873 -4.23457,20.3663 -0.80659,9.679 -7.46092,11.2922 -7.05763,37.3046 0.40329,26.0124 2.21811,28.2305 1.41153,33.2717 -0.80659,5.0411 0.40329,2.4197 0.80658,7.0576 0.40329,4.6379 12.30043,1.0082 12.70373,-4.0329 0.40329,-5.0412 0.60494,-3.8313 -0.4033,-8.2676 -1.00823,-4.4362 1.81482,-27.8271 5.24281,-36.2963 3.42799,-8.4692 1.81482,-19.7613 3.42799,-21.9795 1.61317,-2.2181 8.2675,-7.0576 9.07409,-49.4033"
         id="path30448-9-3"
         style="fill:none;stroke:#552200;stroke-width:1px;stroke-linecap:butt;stroke-linejoin:miter;stroke-opacity:1;display:inline" />
    </clipPath>
    <clipPath
       id="clipPath53682">
      <path
         d="m 493.45523,302.43478 c 16.08,-1.34 22.78001,1.34001 27.13501,4.02001 4.355,2.68 6.03,9.045 13.40001,8.375 7.37,-0.67 9.715,-13.06501 16.75,-16.41501 -5.025,0.67 -11.055,4.35501 -13.735,5.36001 7.035,-5.69501 19.43001,-11.05501 32.83001,-7.37001 -22.44501,50.25003 -57.28502,28.47502 -76.38003,6.03 z"
         id="path53684"
         style="color:#000000;fill:none;stroke:#000000;stroke-width:0.5;stroke-linecap:butt;stroke-linejoin:miter;stroke-miterlimit:4;stroke-opacity:1;stroke-dasharray:none;stroke-dashoffset:0;marker:none;visibility:visible;display:inline;overflow:visible;enable-background:accumulate" />
    </clipPath>
    <clipPath
       id="clipPath30567-5">
      <path
         d="m 742.00512,344.7818 c -0.40329,7.6625 0.4033,17.7448 -2.41975,27.4239 -2.82305,9.679 -5.6461,47.5885 -3.62964,69.3663 2.01646,21.7779 -2.01646,38.7162 -3.22634,47.1853 -1.20988,8.4692 1.61317,22.5844 3.22634,35.8931 1.61317,13.3086 4.03293,24.6008 2.41976,28.6338 -1.61317,4.0329 0.80658,8.8724 -1.20988,11.2922 -2.01647,2.4197 -3.22634,6.4526 -6.04939,8.8724 -2.82305,2.4198 -7.66257,7.6626 -10.48562,9.2757 -2.82305,1.6132 -3.22634,8.4692 3.62964,9.6791 6.85598,1.2098 16.13171,-1.6132 18.14818,-5.2428 2.01646,-3.6297 1.20987,-8.0659 5.64609,-7.6626 4.43623,0.4033 5.6461,-3.2263 4.43623,-8.4692 -1.20988,-5.2428 -0.4033,-7.2592 0,-7.6625 0.40329,-0.4033 1.20987,-3.2264 0,-6.4527 -1.20988,-3.2263 0.40329,-27.4239 4.83951,-35.8931 4.43622,-8.4691 3.62964,-18.9547 2.01646,-27.0206 -1.61317,-8.0658 -2.41975,-14.5185 0.80659,-21.3745 3.22634,-6.856 4.43622,-18.5515 7.66256,-33.07 3.22635,-14.5186 12.90537,-23.391 12.90537,-60.0907"
         id="path30569-8"
         style="fill:none;stroke:#552200;stroke-width:1px;stroke-linecap:butt;stroke-linejoin:miter;stroke-opacity:1;display:inline" />
    </clipPath>
    <clipPath
       id="clipPath30544-9-9-6">
      <path
         d="m 763.78294,201.2095 c -1.20988,6.856 -0.4033,15.7284 -0.80659,18.9548 -4.43622,3.6296 -14.51854,12.5021 -16.53501,12.9053 -2.01646,0.4033 -2.93904,2.0505 -6.85597,2.8231 -18.81752,3.7116 -6.00413,42.0071 -1.61318,56.0577 4.31894,13.8201 6.0494,25.4074 3.62964,33.8766 -2.41976,8.4691 0.80659,11.2922 0.40329,18.9548 -0.5842,49.2569 27.96402,51.0242 38.71611,34.6832 16.53501,18.5514 46.37868,-8.8725 36.69965,-30.6503 -9.67902,-21.7778 -7.25927,-26.6173 -8.87244,-29.8437 -1.61317,-3.2263 -2.0341,-14.8836 0.4033,-20.1646 2.41975,-5.2428 4.83951,-16.535 7.25926,-20.568 2.41976,-4.0329 13.71196,-39.926 -2.82304,-41.9424 -10.80883,-1.3182 -3.22635,-2.4198 -6.45269,-2.4198 -3.22634,0 -18.14818,-13.3696 -18.14818,-17.3416 0,-4.0329 0,-11.2922 0.80659,-15.3251 0.80658,-4.0329 -19.35805,-2.4198 -25.81074,0 z"
         id="path30546-4-7-23"
         style="fill:none;stroke:#552200;stroke-width:1px;stroke-linecap:butt;stroke-linejoin:miter;stroke-opacity:1;display:inline" />
    </clipPath>
    <clipPath
       id="clipPath30486-6">
      <path
         d="m 763.78294,201.2095 c -1.20988,6.856 -0.4033,15.7284 -0.80659,18.9548 -4.43622,3.6296 -14.51854,12.5021 -16.53501,12.9053 -2.01646,0.4033 -2.93904,2.0505 -6.85597,2.8231 -18.81752,3.7116 -6.00413,42.0071 -1.61318,56.0577 4.31894,13.8201 6.0494,25.4074 3.62964,33.8766 -2.41976,8.4691 0.80659,11.2922 0.40329,18.9548 -0.5842,49.2569 27.96402,51.0242 38.71611,34.6832 16.53501,18.5514 46.37868,-8.8725 36.69965,-30.6503 -9.67902,-21.7778 -7.25927,-26.6173 -8.87244,-29.8437 -1.61317,-3.2263 -2.0341,-14.8836 0.4033,-20.1646 2.41975,-5.2428 4.83951,-16.535 7.25926,-20.568 2.41976,-4.0329 13.71196,-39.926 -2.82304,-41.9424 -10.80883,-1.3182 -3.22635,-2.4198 -6.45269,-2.4198 -3.22634,0 -18.14818,-13.3696 -18.14818,-17.3416 0,-4.0329 0,-11.2922 0.80659,-15.3251 0.80658,-4.0329 -19.35805,-2.4198 -25.81074,0 z"
         id="path30488-26"
         style="fill:none;stroke:#552200;stroke-width:1px;stroke-linecap:butt;stroke-linejoin:miter;stroke-opacity:1;display:inline" />
    </clipPath>
    <clipPath
       id="clipPath30490-3">
      <path
         d="m 763.78294,2602.7481 c -1.20988,6.856 -0.4033,26.9739 -0.80659,30.2003 -4.43622,3.6296 -14.51854,12.5021 -16.53501,12.9053 -2.01646,0.4033 -2.93904,2.0505 -6.85597,2.8231 -18.81752,3.7116 -6.00413,42.0071 -1.61318,56.0577 4.31894,13.8201 6.0494,25.4074 3.62964,33.8766 -2.41976,8.4691 0.80659,11.2922 0.40329,18.9548 -0.5842,49.2569 27.96402,51.0242 38.71611,34.6832 16.53501,18.5514 46.37868,-8.8725 36.69965,-30.6503 -9.67902,-21.7778 -7.25927,-26.6173 -8.87244,-29.8437 -1.61317,-3.2263 -2.0341,-14.8836 0.4033,-20.1646 2.41975,-5.2428 4.83951,-16.535 7.25926,-20.568 2.41976,-4.0329 13.71196,-39.926 -2.82304,-41.9424 -10.80883,-1.3182 -3.22635,-2.4198 -6.45269,-2.4198 -3.22634,0 -18.14818,-13.3696 -18.14818,-17.3416 0,-4.0329 0,-22.5377 0.80659,-26.5706 0.80658,-4.0329 -19.35805,-2.4198 -25.81074,0 z"
         id="path30492-8"
         style="fill:none;stroke:#552200;stroke-width:1px;stroke-linecap:butt;stroke-linejoin:miter;stroke-opacity:1;display:inline" />
    </clipPath>
  </defs>
  <g
     transform="translate(0,-492.36218)"
     id="layer1">
    <path
       d="m 266.36772,604.17051 c -0.0457,0.11183 -0.1714,0.58398 -0.4958,0.49581 -0.0182,0.3308 1.08328,0.8932 1.30052,0.98267 -0.4101,0.16414 -0.95536,0.221 -1.25182,0.63787 0.24489,0.30693 0.91657,0.59112 1.15542,0.54213 -0.216,0.20154 -0.92407,0.63408 -1.40589,0.53435 0.26402,0.41425 0.95207,0.60236 1.34897,0.60297 -0.29541,0.41575 -0.65842,0.70097 -1.12854,0.78419 0.16816,0.29902 0.68046,0.86316 0.88688,0.88676 -0.17865,0.22226 0.10765,0.47512 0.005,0.66962 -0.23779,0.0129 -0.62821,0.15289 -0.94529,0.44241 0.35161,0.0367 0.88767,0.211 1.11514,0.49066 0.0113,0.20007 -0.71798,0.28187 -1.31784,0.28091 0.41355,0.30445 0.67611,0.3783 1.30214,0.49474 -0.45478,0.2842 -0.79587,0.68218 -0.85272,1.13695 -0.0294,0.23505 -0.0521,1.24516 0.76452,1.66159 -0.29563,0.0168 -0.51653,0.4802 -0.42046,0.86275 0.5521,-0.13712 1.12013,0.53983 1.10881,0.61917 -0.0568,0.39793 -0.51164,1.25067 -1.02326,2.9561 -0.51165,1.70546 0.17054,4.49101 0.68218,6.08281 -0.68218,-0.34109 -0.89527,-1.05193 -1.2932,-1.62042 -0.26984,-2.51699 -0.32623,-6.7767 -1.42123,-7.00503 -0.58591,-0.24534 -2.62466,-1.16963 -3.69385,0.55666 0.10684,-1.01806 0.8715,-1.85632 0.8715,-1.85632 -1.18709,0.12513 -2.16608,0.40039 -3.42918,-0.57216 2.54195,0.6944 3.38122,-0.43229 6.20561,-0.60504 -3.18374,-0.32101 -7.77204,-2.80234 -10.15647,0.0504 1.0969,-3.22727 6.70165,-2.11814 8.27878,-2.26742 -2.02125,-1.47673 -4.46795,0.41653 -7.61481,-1.51113 4.12724,0.91762 2.13878,-0.50551 6.68774,-0.56961 -0.84792,-0.6907 -7.76925,-0.29124 -11.28821,0.79704 3.20472,-2.24211 8.40886,-1.44067 11.0445,-2.91355 -6.6688,1.15671 -13.26757,-0.85339 -14.32507,3.74833 -0.46831,-5.11282 8.56894,-4.73962 13.28778,-5.31641 -2.66314,0.004 -4.76572,-0.39462 -6.56597,-0.89993 -0.49392,-0.13864 -3.62754,-0.42778 -4.95958,-0.0155 0.28223,-0.35325 1.18205,-0.50044 2.98377,-0.6042 -2.12789,-0.72103 -3.90036,-1.42781 -5.9199,-1.43034 4.08993,-0.99604 10.89268,2.51584 16.15064,2.07504 -10.52429,-1.42923 -6.17112,-5.74311 -18.05335,-5.69629 5.87985,-0.81999 9.01825,0.17826 11.64163,1.40281 -1.61618,-1.05691 -3.00607,-2.70577 -3.27729,-3.60788 1.36925,1.5226 3.56334,3.48648 5.39827,4.43877 1.6192,0.84033 2.93205,1.31742 5.04017,1.89194 -3.12859,-2.07372 -1.48652,-4.03544 -3.96109,-5.74044 2.54906,0.78431 3.28388,3.27061 5.10635,4.86152 -0.30089,-1.02329 0.53246,-1.14606 0.27433,-2.33263 1.71858,0.84993 0.53044,3.13727 2.16059,3.57741 z m 52.85037,-3.14702 c -9.72173,-1.86274 -17.45863,1.85969 -20.17926,3.61182 0.91833,-0.27883 10.10895,-4.11534 13.47953,-0.39921 -2.32936,-1.75761 -5.38078,-0.46774 -9.835,-0.13867 5.44964,0.003 8.94142,3.37541 18.47561,1.53679 -7.4423,3.41534 -12.24639,-0.0103 -20.12578,0.65677 9.54724,-0.16848 6.74063,5.50132 14.93545,2.88294 -4.58858,2.19671 -7.06372,1.35723 -9.19963,0.54123 0.58696,0.73695 1.06411,1.27584 2.06175,1.57595 -2.37577,-0.42049 -3.96085,-2.23577 -4.29405,-2.30047 -1.083,-0.21027 -2.24236,-0.12992 -3.71486,0.64938 6.9168,0.81942 4.6065,4.72453 9.77897,3.11443 -6.29898,2.98052 -4.92561,-2.76561 -10.98177,-1.1681 2.47292,0.66492 2.01713,1.64366 5.45617,3.10424 -3.39329,-0.18059 -3.31758,-1.9907 -4.82586,-1.70861 -0.45479,0.6822 -0.45479,0.79591 -2.04654,2.50139 0.70828,-0.84432 2.91782,-1.50042 4.20388,-0.23121 -1.03256,-0.68303 -3.69229,0.23116 -4.37444,0.91335 0,0 -0.94495,0.93482 -0.87505,1.53321 0.17054,1.70544 -0.17049,5.1732 -0.65607,5.57115 -0.28425,0.39792 -0.22276,0.17054 -0.7344,0.22737 1.19382,-4.37731 0.50322,-5.00094 0.10528,-5.1715 -0.39794,-0.17054 -0.22739,-4.09308 -0.34109,-4.43418 -0.11371,-0.34109 -0.62533,-1.7623 -1.6486,-2.04652 0.0609,-0.18279 0.9783,-0.31401 1.2377,-0.43583 -0.21556,-0.21549 -0.80795,-0.37209 -1.16656,-0.41619 -0.0147,-0.85513 -0.0647,-2.45508 -0.21488,-3.40631 0.81859,0.3696 1.18984,0.17202 1.84265,0.0313 -0.96828,-0.33532 -1.62516,-0.82397 -2.16456,-1.29264 0.51601,-0.12511 0.9275,-0.52132 1.2563,-0.58767 -0.13166,-0.46194 -0.78455,-0.57969 -1.41599,-0.60078 0.1137,0 1.13697,-0.45477 1.13697,-1.19383 0.50691,-0.5645 1.75233,-0.13336 2.05654,-0.97078 0.19108,-0.52602 -0.43914,-1.50941 -0.63632,-2.04158 0.49276,-0.78087 1.78182,-1.99952 1.12135,-3.24553 0.51117,0.12426 1.59278,2.03759 0.0617,3.67197 4.29653,-3.66158 12.13805,-1.59877 11.25162,-7.91568 1.96882,6.78855 -6.85184,5.58025 -8.71111,8.86287 5.79594,-2.73164 13.63313,-3.78717 19.68029,-1.28086 z"
       id="path308680"
       style="color:#000000;fill:#ffe680;fill-opacity:1;stroke:#d4aa00;stroke-width:0.3125;stroke-miterlimit:4;stroke-dasharray:none;marker:none;visibility:visible;display:inline;overflow:visible;enable-background:accumulate" />
  </g>
</svg>
