<?xml version="1.0" encoding="UTF-8" standalone="no"?>
<!-- Created with Inkscape (http://www.inkscape.org/) -->

<svg
   xmlns:dc="http://purl.org/dc/elements/1.1/"
   xmlns:cc="http://creativecommons.org/ns#"
   xmlns:rdf="http://www.w3.org/1999/02/22-rdf-syntax-ns#"
   xmlns:svg="http://www.w3.org/2000/svg"
   xmlns="http://www.w3.org/2000/svg"
   version="1.1"
   width="560"
   height="560"
   id="hair_crewcut">
  <g
     transform="translate(0,-0.999996)"
     id="g40735"
     style="display:inline;enable-background:new">
    <path
       d="m 265.86802,130.79851 c 0.19515,-0.64026 0.0799,-1.44986 0.34785,-1.92386 -0.0796,-1.62956 -0.56656,-5.89346 0.0381,-6.59413 0.60462,-0.70069 1.8326,-1.52844 1.8326,-1.52844 l -0.0604,-0.40945 -0.56747,-0.029 0.83956,-0.52617 -0.97278,-0.0495 1.03059,-1.08536 -1.24075,0.42445 c 0,0 0.82043,-1.74627 1.18599,-2.5404 -0.008,0.16213 -1.26304,0.0175 -1.26304,0.0175 -0.2143,-0.57983 -0.0697,-0.9794 -0.0697,-0.9794 0,0 -1.62543,-0.002 -2.08444,1.03169 -0.29972,0.67466 -0.273,5.81362 -0.39865,8.52327 1.0957,1.26677 0.92853,2.17387 1.11347,2.97298 0.5329,2.30285 0.26908,2.69579 0.26908,2.69579 z"
       id="path3008-8-6"
       style="opacity:0.3;color:#000000;fill:#ffe680;fill-opacity:1;stroke:#d4aa00;stroke-width:0.25;stroke-linecap:butt;stroke-linejoin:miter;stroke-miterlimit:4;stroke-opacity:1;stroke-dasharray:none;stroke-dashoffset:0;marker:none;visibility:visible;display:inline;overflow:visible;enable-background:accumulate" />
    <path
       d="m 296.78378,131.05502 c -0.16945,-0.64754 -0.80667,-2.55355 -1.05551,-3.03787 0.14453,-1.62508 0.62773,-5.499 0.0516,-6.22325 -0.57617,-0.72426 -0.90424,-0.91353 -0.90424,-0.91353 l -0.015,-0.45404 0.58192,8.7e-4 -0.99842,-0.6524 1.00479,0.005 -1.411,-1.34468 1.96748,0.85784 c 0,0 -1.91545,-2.3789 -2.24902,-3.18699 0.002,0.16233 1.48133,0.38414 1.48133,0.38414 0.2211,-0.57916 1.05406,-0.69082 1.05406,-0.69082 0,0 0.62646,-0.50675 1.04385,0.54391 0.34377,0.86537 0.28217,5.72405 0.5464,8.06517 0,0 -0.89669,1.28084 -1.00682,1.68296 -0.6244,2.27975 -0.0914,4.96348 -0.0914,4.96348 z"
       id="path3008-2-7"
       style="opacity:0.3;color:#000000;fill:#ffe680;fill-opacity:1;stroke:#d4aa00;stroke-width:0.25;stroke-linecap:butt;stroke-linejoin:miter;stroke-miterlimit:4;stroke-opacity:1;stroke-dasharray:none;stroke-dashoffset:0;marker:none;visibility:visible;display:inline;overflow:visible;enable-background:accumulate" />
    <path
       d="m 280.83299,99.289566 c 0,0 0.0173,0.32675 0.009,0.44819 0.0579,-0.23999 0.23137,-0.39033 0.39909,-0.45971 -0.009,0.12145 -0.0695,0.40192 -0.0608,0.850124 0.17641,-0.190834 0.10703,-0.358554 0.29503,-0.711294 0.0665,0.2082 0.0896,0.45398 0.33247,0.47137 -0.0173,-0.32675 0.0261,-0.36434 0.0377,-0.52627 0.0347,0.0839 0.16475,0.54075 0.39895,0.679574 -0.0636,-0.248684 0.0405,-0.566744 0.10131,-0.847214 0.2371,0.0983 0.29199,0.46847 0.55798,0.73163 -0.0665,-0.2082 -0.0694,-0.16772 -0.0491,-0.45109 0.27179,0.18221 0.32958,0.51185 0.52329,0.647784 -0.0231,-0.245784 0.14173,-0.274684 0.11573,-0.479984 0.35564,0.14751 0.63032,0.28923 0.97728,0.558194 0,0 -0.17634,-0.378814 -0.48281,-0.644884 0.19951,0.055 0.4366,0.15331 0.67081,0.29214 0,0 -0.026,-0.20531 -0.0636,-0.24869 0.98597,0.436764 0.63612,0.20828 0.9339,0.595784 0,0 -0.0607,-0.289164 -0.0838,-0.534954 0.4395,0.11283 0.66791,0.33262 0.8728,0.560354 0.0491,-0.284204 -0.0756,-0.552064 -0.17779,-0.732004 0.17175,0.0123 0.30668,0.13703 0.35164,0.31287 0.0961,-0.13698 0.26377,-0.0674 0.32102,-0.0633 -0.42123,0.25757 -0.27406,0.613364 -0.0123,0.574544 -0.0613,-0.349644 0.0225,-0.314874 0.10841,-0.30872 0.0142,0.60521 0.58063,0.32926 1.16532,1.00407 -0.15946,-0.18404 -0.53763,-0.93039 -0.57235,-1.249364 0.19828,0.445764 0.69094,1.200304 1.32474,1.590914 -0.21671,-0.18814 -0.67871,-0.96925 -0.78496,-1.494744 0.23504,0.736104 0.76048,1.032654 1.08144,1.372104 -0.21056,-0.27401 -0.43746,-0.72182 -0.62554,-0.90791 0.40889,0.31698 0.81163,0.71982 1.08964,1.2576 -0.13693,-0.49891 -0.22071,-0.93648 -0.53963,-1.30455 0.52339,0.32516 0.78711,0.66052 1.32268,1.61953 -0.18803,-0.58889 -0.59482,-1.33728 -0.99347,-1.79738 0.86889,0.72392 1.12236,1.2024 1.4146,2.3454 -0.14711,-0.75859 -0.17973,-1.50898 -0.48022,-2.13468 0.42113,0.54802 0.64798,1.39862 0.99547,2.17155 -0.14507,-0.78721 -0.29833,-1.45992 -0.71531,-2.46799 0.41703,0.60527 0.90554,1.81986 1.58824,3.53745 -0.0919,-0.72586 -0.45779,-1.64396 -0.66831,-2.32076 0.18194,0.27196 0.36183,0.57254 0.86873,1.9323 -0.17984,-0.70338 -0.45779,-1.64395 -0.76237,-2.21241 0.30054,0.22291 0.42318,0.5194 0.8504,1.38434 -0.0858,-0.40894 -0.17979,-1.10618 -0.6234,-1.74212 0.26782,0.27811 0.4007,0.43147 0.65417,0.90995 -0.0409,-0.23309 -0.17978,-1.10618 -0.37601,-1.580564 0.21466,0.216764 0.62145,0.965154 0.77261,2.069284 0.13094,-0.6236 0.25174,-1.90967 0.21103,-3.351154 0.27385,0.99782 0.23484,2.347294 0.18363,3.062914 0.10431,-0.25148 0.35993,-0.60722 0.41109,-0.92004 0.004,0.34554 -0.0717,1.00187 -0.16381,1.88719 0.1636,-0.27601 0.56041,-1.39847 0.63005,-2.37171 0.11435,1.21658 -0.0964,2.15095 -1.04324,3.72317 1.11447,-1.09988 1.31904,-1.94838 1.5972,-2.61899 -0.0307,0.42937 -0.12899,1.40056 -1.34168,3.06884 1.10014,-0.8995 2.03682,-2.73139 2.23315,-3.0626 -0.0369,0.51525 0.0224,0.89352 -1.02671,2.28579 0.40285,-0.40274 1.60934,-1.58235 3.19195,-1.98699 -0.93852,0.24933 -2.282,1.33282 -3.09793,2.28143 1.15324,-0.43536 3.5251,-1.0137 4.98287,-0.47781 -2.39834,-0.25793 -3.97076,0.40638 -4.45539,0.74573 0.32921,-0.17784 3.26538,-0.60071 4.29173,-0.0669 -0.49681,-0.29449 -1.90557,-0.30898 -2.43721,-0.11686 0.50706,0.15137 1.54984,0.0534 2.30217,0.79771 -2.70701,-0.76913 -3.59443,-0.42983 -5.72107,1.14428 0.72796,-0.52334 2.7359,-1.2428 3.3084,-1.20184 -0.27806,-0.13498 -0.35169,0.0899 -0.71158,0.29434 0.40485,-0.0286 0.96915,0.12689 1.05497,0.53583 -0.91189,-0.12279 -0.97324,-0.0696 -2.32685,0.35139 1.86466,0.47868 3.22226,0.806 4.15853,2.19648 -0.71147,-0.51125 -1.99134,-1.12072 -3.43078,-1.10864 1.86057,0.53594 3.19349,2.01234 3.27522,2.47853 -0.42933,-0.43352 -0.56021,-0.21271 -0.84646,-0.23319 0.094,0.29444 0.64193,0.6789 0.92408,0.75663 -0.27805,-0.13498 -0.56839,-0.0982 -0.9078,-0.18004 0.26577,0.30673 0.93228,0.64214 1.31255,0.95706 -0.50296,-0.20862 -1.07136,-0.30683 -1.28397,-0.55222 0.13897,0.47029 0.27785,1.74617 0.71536,2.06519 -0.27805,-0.13498 -0.66651,-0.33541 -1.05497,-0.53583 0.30663,0.53982 0.85864,0.86704 1.07535,1.05517 -0.38846,-0.20042 -0.50705,-0.15137 -1.00182,-0.47448 0.15127,0.29853 0.93228,0.64214 0.92409,0.75664 -0.3394,-0.0818 -0.49886,-0.26587 -0.61746,-0.21682 0.15537,0.24129 1.08355,0.94068 1.45971,1.31285 -0.62155,-0.15956 -0.73195,-0.225 -1.10402,-0.65442 0.2249,0.0736 0.29843,0.65432 0.52733,1.4763 -0.20032,-0.41714 -0.67051,-1.08375 -0.96085,-1.04698 0.15126,0.29853 1.02619,1.74217 0.90749,2.59682 -0.13897,-0.47029 -0.52334,-0.72797 -0.52334,-0.72797 l 0.37197,1.23502 -0.38436,-0.25768 0.13078,0.58479 -0.38845,-0.20042 0.40883,0.71976 -0.65831,-0.4499 0.73185,1.03059 -0.66651,-0.3354 0.556,1.07555 -0.5602,-0.21271 0.17574,0.76063 c -0.117,-0.0853 -1.19971,-1.65953 -1.78575,-2.2599 0.11375,0.28546 0.22469,0.6611 0.33832,0.87907 -0.8971,-0.68468 -1.84446,-1.86599 -1.92989,-2.08324 -0.39854,-1.01346 -1.55731,-5.578 -2.01111,-6.47361 -3.34516,0.91149 -7.52039,1.36078 -9.2092,0.83713 -0.96101,0.16141 -1.11038,1.04263 -3.14894,1.38588 1.17777,-0.37607 2.08168,-1.74996 2.43337,-1.83988 -0.82607,0.28615 -3.02215,1.22232 -4.50654,1.05856 0.81788,-0.17165 1.24321,-0.48647 1.53765,-0.58049 -1.0264,-0.13099 -1.86067,0.26966 -2.74809,0.60896 -0.69658,0.26633 -2.40106,0.74419 -3.58833,-0.0437 1.19178,0.33377 2.28946,0.29004 3.15656,-0.38907 -2.27586,0.72107 -3.84153,-0.28537 -3.98454,-0.57379 0.98953,0.64623 1.8156,0.36009 2.22454,0.27426 -0.85464,-0.11869 -1.68062,-0.63814 -2.23263,-0.96535 -0.55201,-0.32722 -1.9301,-0.36829 -3.02614,0.47397 -1.09604,0.84225 -1.26389,2.3839 -2.9609,1.97475 0.19623,0.47438 0.54792,0.38447 0.78101,0.3436 -0.15137,0.50706 -0.88752,1.14489 -1.19835,1.46791 0.65842,-0.35569 1.07556,-0.55601 1.31275,-0.65412 -0.49897,0.53972 -0.78941,1.38208 -0.94078,1.88913 0.4581,-0.77282 0.69529,-0.87093 1.11652,-1.1285 -0.40495,0.83416 -1.58701,2.87866 -2.12684,3.18529 0.50716,-0.65422 0.4581,-0.77282 0.30684,-1.07136 -0.13908,0.33531 -0.17595,0.85055 -0.69939,0.92818 0.49077,-0.42522 0.47858,-1.05906 0.47858,-1.05906 -0.38037,0.49066 -0.28225,0.72786 -0.8016,0.74824 0.37218,-0.37617 0.49087,-1.23082 0.4582,-1.57841 -0.29864,0.95685 -0.1147,1.60299 -2.06129,2.26929 0.83836,-0.45789 0.67071,-0.52743 0.86294,-0.80139 -0.35988,0.20442 -0.65432,0.29844 -0.65432,0.29844 0.0655,-0.916 -0.0202,-2.13053 0.24569,-2.62939 -0.29854,0.15127 -0.56441,0.65013 -0.69939,0.92818 0.40905,-0.89141 0.65853,-1.16127 0.84257,-1.32073 -0.22081,-0.13089 -0.27806,-0.13499 -0.46619,0.0817 0.18414,-0.96505 0.42553,-1.926 0.90401,-2.17948 0,0 -0.35214,0.0644 -0.57193,0.29278 0.29214,-0.6708 0.51482,-0.93969 0.57558,-1.22017 0.0608,-0.28047 0.25455,-0.71418 0.59288,-0.89342 -0.19951,-0.055 -0.57543,0.0809 -0.92245,0.38157 0.24006,-0.51177 0.72591,-1.04665 1.14521,-1.22009 -0.10696,-0.2111 -0.61591,0.078 -0.78653,0.18785 0.46275,-0.78067 1.62528,-1.67401 2.70677,-2.00351 -0.69688,0.0722 -1.4979,0.46246 -1.87382,0.59831 0.65357,-0.60425 1.77844,-0.97134 2.06761,-1.03203 -0.60723,-0.0434 -1.98657,0.46819 -2.24395,0.65321 0.81261,-0.55218 1.37073,-0.95982 1.81893,-0.96844 -0.82412,0.14447 -1.44873,0.34391 -2.53304,0.14426 1.21445,0.0869 1.92581,-0.18771 2.62276,-0.82955 -0.75184,0.27171 -1.13645,0.52901 -1.64533,0.24846 0.85301,0.0203 1.38803,-0.63307 2.77889,-0.73699 -0.59854,-0.1649 -1.27224,-0.41655 -1.61919,-0.68551 0.91659,0.26903 1.60478,0.31828 2.1918,0.0755 -0.6564,0.0751 -0.93398,-0.0261 -1.17107,-0.12449 0.77784,-0.0664 0.74315,-0.15026 1.0728,-0.20805 -0.72867,-0.0521 -1.44575,-0.26621 -2.43759,-0.0524 0.54364,-0.20523 0.70846,-0.23413 0.95425,-0.25723 -0.36723,0.0144 -0.52047,-0.11862 -0.6766,-0.21117 0.68239,0.13021 1.5123,-0.0952 2.1918,0.0755 -0.0925,-0.41351 -0.2833,-0.58992 -0.80956,-0.62757 0.50606,-0.24861 1.44003,-0.22247 1.85926,0.17373 -0.0694,-0.16772 -0.052,-0.41061 -0.29489,-0.42799 0.32675,-0.0173 0.58123,-0.16186 0.96866,0.11 -0.50019,-0.40199 -1.09293,-0.64785 -3.06501,-0.38208 1.6974,-0.40749 2.05015,-0.2195 3.21832,-0.0545 -0.37585,-0.43378 -1.04376,-0.7664 -1.43988,-0.91681 0.72577,0.0926 1.30982,0.45993 1.65967,0.68841 -0.13377,-0.23117 -0.23598,-0.41111 -0.62854,-0.55429 1.01411,0.30274 1.64385,0.3478 1.89334,0.0779 -0.50706,-0.15137 -1.01821,-0.24549 -1.47211,-0.33551 1.15319,-0.0326 2.07737,-0.0815 2.07737,-0.0815 -0.6747,-0.22091 -1.7011,-0.3519 -2.10185,-0.38057 1.38219,-0.0162 2.24093,0.0453 2.64168,0.0739 -0.21671,-0.18814 -0.42113,-0.54802 -0.81778,-0.63395 0.51115,0.0941 1.64795,0.29055 1.64795,0.29055 -0.14717,-0.35578 -0.51924,-0.78521 -0.9077,-0.98563 0.40894,-0.0858 1.06317,0.42133 1.27578,0.66671 0.12679,-0.16355 -0.13078,-0.58478 -0.13078,-0.58478 0.38845,0.20042 0.65832,0.44991 0.65832,0.44991 0.12678,-0.16356 -0.0327,-0.3476 -0.41294,-0.662524 0.86694,-0.053 2.22864,0.217014 2.57623,0.184344 -0.43751,-0.319024 -0.76872,-0.515354 -1.09993,-0.711674 0.51525,0.0369 0.89142,0.40904 1.12042,0.42543 -0.0245,-0.4621 -0.18803,-0.58889 -0.46609,-0.72387 0.40484,-0.0286 0.98543,0.70348 0.98543,0.70348 -0.0368,-0.29034 -0.40064,-0.83426 -0.61735,-1.0224 0.5643,0.15547 1.53334,1.08795 1.75415,1.218844 -0.14307,-0.413044 -0.24528,-0.592984 -0.51514,-0.842474 0.68289,0.10641 1.07545,0.24959 1.17766,0.42953 0.008,-0.1145 0.0164,-0.229 0.20862,-0.50296 0.14717,0.35579 0.0204,0.51935 0.46608,0.72387 0.18814,-0.21671 0.19633,-0.33121 -0.0245,-0.46209 0.11859,-0.0491 0.50296,0.20861 0.53972,0.49896 -0.0409,-0.2331 0.0304,-0.38448 0.21767,-0.60932 z"
       id="path2987-5-7"
       style="color:#000000;fill:#ffe680;fill-opacity:1;stroke:#d4aa00;stroke-width:0.25;stroke-linecap:butt;stroke-linejoin:miter;stroke-miterlimit:4;stroke-opacity:1;stroke-dasharray:none;stroke-dashoffset:0;marker:none;visibility:visible;display:inline;overflow:visible;enable-background:accumulate" />
  </g>
</svg>
