<?xml version="1.0" encoding="UTF-8" standalone="no"?>
<svg xmlns="http://www.w3.org/2000/svg" id="hair_crewcut" width="560" height="560">
  <g id="g40735" style="display:inline;enable-background:new">
    <path id="path3008-8-6" d="M266 129.8c0-.6 0-1.5.2-2 0-1.6-.6-5.8 0-6.5.7-.7 2-1.5 2-1.5l-.2-.5h-.5l.8-.5h-1l1-1-1.2.3s1-1.7 1.3-2.5c0 .2-1.3 0-1.3 0-.2-.5 0-1 0-1s-1.7 0-2 1c-.4.8-.4 6-.5 8.6 1 1.4 1 2.3 1 3 .6 2.4.4 2.8.4 2.8z" style="opacity:0.3;color:#000000;fill:#ffe680;fill-opacity:1;stroke:#d4aa00;stroke-width:0.25;stroke-linecap:butt;stroke-linejoin:miter;stroke-miterlimit:4;stroke-opacity:1;stroke-dasharray:none;stroke-dashoffset:0;marker:none;visibility:visible;display:inline;overflow:visible;enable-background:accumulate"/>
    <path id="path3008-2-7" d="M296.8 130l-1-3c0-1.6.6-5.5 0-6.2l-1-1v-.4h.6l-1-.6h1l-1.4-1.4 2 1s-2-2.5-2.2-3.3c0 .3 1.4.5 1.4.5.3-.6 1-.7 1-.7s.7-.5 1 .5c.5 1 .4 5.8.7 8 0 0-1 1.4-1 1.8-.7 2.4-.2 5-.2 5z" style="opacity:0.3;color:#000000;fill:#ffe680;fill-opacity:1;stroke:#d4aa00;stroke-width:0.25;stroke-linecap:butt;stroke-linejoin:miter;stroke-miterlimit:4;stroke-opacity:1;stroke-dasharray:none;stroke-dashoffset:0;marker:none;visibility:visible;display:inline;overflow:visible;enable-background:accumulate"/>
    <path id="path2987-5-7" d="M280.8 98.3v.4c0-.2.3-.4.4-.4v.8c.2 0 0-.2.3-.6 0 .2 0 .5.3.5v-.6s.2.5.4.6v-.8c.4 0 .4.5.7.7-.2-.3-.2-.2 0-.5 0 .2.2.5.4.6v-.4c.4.2.7.3 1 .6 0 0 0-.4-.4-.6.2 0 .4 0 .7.2v-.2c1 .4.5.2.8.6v-.5c.4 0 .6.3.8.5 0-.3 0-.5-.2-.7.3 0 .4 0 .5.3h.3c-.4.2-.3.6 0 .5V99c0 .6.7.3 1.3 1l-.5-1.2c.2.4.7 1.2 1.3 1.5-.2 0-.7-1-.8-1.4.3.6.8 1 1 1.2l-.5-1c.4.4.8.8 1 1.4 0-.5 0-1-.5-1.3.6.3.8.6 1.4 1.6-.2-.7-.6-1.4-1-2 .8.8 1 1.3 1.4 2.4-.2-.7-.2-1.5-.5-2 .4.5.7 1.3 1 2 0-.7-.3-1.4-.7-2.4.4.6 1 1.8 1.6 3.5 0-.7-.5-1.6-.7-2.3l1 2c-.3-.7-.6-1.7-1-2.3.4.2.5.5 1 1.3 0-.4-.2-1-.7-1.7l.7 1-.4-1.7c.3 0 .7 1 1 2v-3.4c.4 1 .3 2.4.3 3 0-.2.4-.5.4-.8l-.2 2c.2-.4.6-1.5.7-2.5 0 1.2 0 2-1 3.7 1-1 1.2-2 1.5-2.6 0 .4 0 1.4-1.3 3 1-.8 2-2.7 2.2-3 0 .5 0 1-1 2.3.4-.4 1.6-1.6 3.2-2-1 .3-2.3 1.3-3 2.3 1-.5 3.4-1 5-.5-2.5-.3-4 .4-4.6.8.3-.2 3.3-.6 4.3 0-.5-.4-2-.4-2.4-.2.6.2 1.6 0 2.4 1-2.7-1-3.6-.6-5.8 1 .8-.5 2.8-1.2 3.4-1.2-.3 0-.4 0-.8.3.4 0 1 .2 1 .6-.8 0-1 0-2.2.4 1.8.5 3.2.8 4 2.2-.6-.5-2-1-3.3-1 2 .4 3.2 2 3.3 2.4-.5-.5-.6-.3-1-.3.2.3.8.7 1 .8h-1c.4.2 1 .5 1.5 1-.5-.4-1-.5-1.3-.7 0 .5.2 1.8.7 2-.4 0-.8-.3-1.2-.5.3.6 1 1 1 1-.3 0-.4 0-1-.4l1 .8c-.3 0-.5-.3-.6-.2.2.2 1 1 1.5 1.3-.7-.2-.8-.3-1-.7l.4 1.5c0-.3-.6-1-1-1 .3.3 1.2 1.8 1 2.6 0-.4-.5-.7-.5-.7l.4 1h-.5v.5l-.3-.2.5.7-.7-.5.7 1-.6-.3.6 1h-.5l.2.7c0-.2-1.2-1.8-1.8-2.4l.4 1c-1-.8-2-2-2-2.2-.3-1-1.5-5.6-2-6.5-3.3.8-7.5 1.3-9.2.8-1 0-1 1-3 1.3 1-.2 2-1.6 2.3-1.7-1 .3-3 1.2-4.6 1 .8 0 1.3-.4 1.6-.5-1 0-2 .3-2.8.6-.7.3-2.4.7-3.6 0 1.2.3 2.3.2 3.2-.4-2.3.7-4-.3-4-.6 1 .6 1.8.3 2.2.3-.8-.2-1.7-.7-2.2-1-.6-.3-2-.4-3 .5-1 .8-1.3 2.4-3 2 .2.4.5.3.8.3-.2.5-1 1-1.2 1.5l1.3-.7c-.5.5-.8 1.4-1 2 .5-1 .7-1 1.2-1.2-.5 1-1.7 3-2.3 3.2.5-.6.5-.7.3-1 0 .3 0 .8-.7 1 .5-.5.5-1.2.5-1.2-.4.5-.3.8-.8.8.4-.4.5-1.2.5-1.6-.3 1 0 1.6-2 2.3.8-.5.6-.5.8-.8l-.7.3c0-1 0-2 .3-2.6-.4 0-.7.6-.8 1 .4-1 .6-1.3.8-1.4-.2-.2-.3-.2-.5 0 .2-1 .5-2 1-2 0 0-.4 0-.6.2l.5-1.3c0-.3.2-.8.5-1 0 0-.5 0-1 .4l1.3-1.2c0-.2-.6 0-.8.2.4-.8 1.6-1.7 2.7-2-.7 0-1.5.4-2 .6.8-.6 2-1 2.2-1-.6 0-2 .4-2.3.6 1-.5 1.5-1 2-1-1 .2-1.5.4-2.6.2 1.2 0 2-.2 2.7-.8-.7.2-1 .5-1.6.2 1 0 1.4-.6 2.8-.7l-1.6-.7c1 .2 1.6.3 2.2 0h-1.2c.8 0 .7-.2 1-.3-.7 0-1.4-.2-2.4 0l1-.3c-.4 0-.5 0-.7-.2h2.2c0-.3-.3-.5-.8-.6.4-.2 1.3-.2 1.7.2 0 0 0-.4-.3-.4.4 0 .6-.2 1 0-.5-.3-1-.5-3-.3 1.6-.5 2-.3 3.2 0-.4-.6-1-1-1.5-1 1 0 1.4.4 1.8.6 0-.2-.2-.4-.6-.5 1 .4 1.6.4 2 .2l-1.6-.4h2c-.6-.3-1.6-.4-2-.4h2.6c-.2 0-.4-.5-.8-.6l1.6.3c0-.3-.5-.7-1-1 .5 0 1.2.5 1.4.8v-.6l.5.4s0-.3-.5-.6l2.6.2-1-.7c.5 0 1 .4 1 .4 0-.6 0-.7-.4-.8.4 0 1 .7 1 .7 0-.4-.4-1-.6-1.2.6.2 1.5 1 1.8 1.3l-.6-.8c.7 0 1 .3 1.2.4l.2-.5c.2.5 0 .7.5 1 .3-.4.3-.5 0-.6.2 0 .6.2.6.5 0-.3 0-.5.2-.7z" style="color:#000000;fill:#ffe680;fill-opacity:1;stroke:#d4aa00;stroke-width:0.25;stroke-linecap:butt;stroke-linejoin:miter;stroke-miterlimit:4;stroke-opacity:1;stroke-dasharray:none;stroke-dashoffset:0;marker:none;visibility:visible;display:inline;overflow:visible;enable-background:accumulate"/>
  </g>
</svg>
