<?xml version="1.0" encoding="UTF-8" standalone="no"?>
<svg xmlns="http://www.w3.org/2000/svg" id="hair_short" width="560" height="560">
  <g id="layer1">
    <path id="path24496-5" d="M298 129.3c.4 1 .3 2 0 2.5-.4.6-.5 2-.2 2 .4 0 .5-.8.5-1.2 0-.5.4-1 .6-1.2 0 0 .5-3 .2-3.6-.6-1 0-1.8 0-2.3.6-1 .5.2.5 1v3c0 .5-.7 2.5-1 3.3-.4.8-1 2-.8 2.2 0 0 1-1.7 1-2.5.4-1 1-3 1-5 .2-1.8.4-3.3 0-3-.6 0-1.7 2.3-2 3-.2 1 0 1.8 0 1.8z" style="fill:#e9afaf;stroke:none;display:inline;enable-background:new"/>
    <path id="path25543-9" d="M299.3 105.3v.8c.6.2 1.2 1.3 1.7 2-.3-.2-1.3-.4-1.6-.2.3 0 1.6 1.5 2 2.5-.4-.3-.4-.4-.5 0 0 .4 0 1.3.2 1.8H300c.2.4.5.7 1 .8-1.3 1-1 6.4-.8 7.8-.4.7-.4.8-2 2.5 1-.2 1.3-.7 2-1-.2.6-1.5 1-2.2 1.8-.6.7-.3 2.4 0 4.2 0 1.7-.3 5-.6 5.5-.3.4-.6.2-1 .3 1-4.4 0-7.7-.5-7.8-.5-.2-.4-4-.5-4.5 0-.3-.6-1.7-1.6-2 .3-1.4-.4-5.4-.7-6.7 0 0 1-.5 1-1.2-2 .5-3.5 1.2-1.3-.6 0 3-24.4-4-26.6.8-.5 1.3.8 6.4.5 8-.5 0-1 .5-1 1v4c0 .5-.5 1.4-1 3-.5 1.8.2 4.6.7 6.2-.7-.4-1-1-1.4-1.5 0-2.4.2-10 0-10.6 0-.8-.8-2-1.2-2.5.4 0 .3 0 .7.2-1-3.3-.6-6-1-6.4l.4.2c.2-1 0-3.7-.4-4 0-.2.2 0 .5 0 0-.4 0-1-.2-1.2.2-.2.4-.2.7.2-.2-.7-.4-1.4-.8-1.4.5-.3 1.3-.4 1.7 0 0-.6-.2-1-.6-1 .3-.4.6-.3 1 0-.3-.4 0-.7-.5-.8.8-.7 2.4-2.3 2.4-3h.3c.3 0 .6-.4.3-.5 7.3-4.8 20.2-10.4 25.6-2.5.4 0 .7-.3.6-.6.3.6.2 1.3 0 1.4l1-.3c0 .3 0 .7-.4 1 .4 0 .8 0 1-.7.3 0 .5 1.5.3 1.7.3 0 .6-.3 1-.5 0 0 .3.8 0 1 .6 0 .5.6 1 .4 0 0 .4 1 1 1 0 .8.2 1.2.8 1.7z" style="color:#000000;fill:#ffe680;fill-opacity:1;stroke:#d4aa00;stroke-width:0.3125;stroke-miterlimit:4;stroke-dasharray:none;marker:none;visibility:visible;display:inline;overflow:visible;enable-background:accumulate"/>
  </g>
</svg>
