<?xml version="1.0" encoding="UTF-8" standalone="no"?>
<!-- Created with Inkscape (http://www.inkscape.org/) -->

<svg
   xmlns:svg="http://www.w3.org/2000/svg"
   xmlns="http://www.w3.org/2000/svg"
   version="1.1"
   width="560"
   height="560"
   id="hair_balding">
  <defs
     id="defs159377" />
  <g
     transform="translate(0,-492.36218)"
     id="layer1">
    <path
       d="m 297.86549,621.70488 c 0.53308,0.8466 0.43901,1.8501 0.0941,2.4773 -0.34494,0.6271 -0.50173,1.8814 -0.12543,1.8814 0.37629,0 0.47037,-0.6585 0.50173,-1.1288 0.0314,-0.4704 0.37629,-0.9408 0.53308,-1.1289 0.15679,-0.1882 0.62116,-3.1202 0.28222,-3.6375 -0.5958,-0.9094 -0.0255,-1.8306 0.18815,-2.2578 0.50173,-1.0035 0.3643,0.1251 0.34494,1.0034 -0.0191,0.8652 -0.0206,2.0902 -0.0627,2.8536 -0.035,0.6332 -0.65852,2.5714 -0.9721,3.3867 -0.31357,0.8153 -1.03481,2.101 -0.78394,2.195 0.25086,0.094 1.00345,-1.6619 1.25431,-2.5086 0.25087,-0.8467 0.84667,-3.1044 0.94074,-4.9232 0.0941,-1.8188 0.34494,-3.324 -0.15679,-3.1358 -0.50172,0.1882 -1.56789,2.3832 -1.81876,3.1672 -0.25086,0.7839 -0.2195,1.756 -0.2195,1.756 z"
       id="path25535"
       style="fill:#e9afaf;stroke:none;display:inline;enable-background:new" />
    <path
       d="m 266.36772,604.17051 c -0.51165,1.25067 0.79588,6.42386 0.56847,7.84509 -0.45478,0.2842 -0.79587,0.68218 -0.85272,1.13695 -0.0568,0.45479 0,3.75198 -0.0568,4.14995 -0.0568,0.39793 -0.51164,1.25067 -1.02326,2.9561 -0.51165,1.70546 0.17054,4.49101 0.68218,6.08281 -0.68218,-0.34109 -0.96644,-0.9096 -1.36437,-1.47809 0.11369,-2.38761 0.22741,-9.94846 0.11369,-10.63066 -0.11369,-0.68219 -0.90958,-1.98968 -1.30751,-2.38762 0.28424,0.11366 0.17054,0 0.56848,0.17056 -0.85274,-3.29725 -0.62533,-5.96912 -1.08013,-6.31022 0.22739,-0.11368 0.1137,-0.11368 0.51165,0.11372 1.74016,-1.53961 2.37653,-1.42354 3.24032,-1.64859 z m 34.79127,0.28421 c -0.51163,-0.0568 -0.62533,0 -1.3075,0 0.34109,0.34109 0.68217,0.62535 1.25066,0.73902 -1.36437,0.90956 -0.96643,6.36704 -0.85273,7.78824 -0.45479,0.6822 -0.45479,0.79591 -2.04654,2.50139 0.90957,-0.3411 1.30751,-0.79591 1.9897,-1.13701 -0.2274,0.62535 -1.47806,1.13701 -2.16026,1.81915 -0.68217,0.68218 -0.34108,2.44449 -0.17054,4.14996 0.17054,1.70544 -0.17054,5.1732 -0.45478,5.57115 -0.28425,0.39792 -0.62534,0.17054 -1.13698,0.22737 1.19382,-4.37731 0,-7.61769 -0.39794,-7.78825 -0.39794,-0.17054 -0.22739,-4.09308 -0.34109,-4.43418 -0.11371,-0.34109 -0.62533,-1.7623 -1.6486,-2.04652 0.45478,-1.36437 -0.28424,-5.34376 -0.62534,-6.70813 0.1137,0 1.13697,-0.45477 1.13697,-1.19383 2.25499,-0.71492 4.50998,0.33778 6.76497,0.51164 z"
       id="path25543"
       style="color:#000000;fill:#ffe680;fill-opacity:1;stroke:#d4aa00;stroke-width:0.3125;stroke-miterlimit:4;stroke-dasharray:none;marker:none;visibility:visible;display:inline;overflow:visible;enable-background:accumulate" />
  </g>
</svg>
