<?xml version="1.0" encoding="UTF-8" standalone="no"?>
<!-- Created with Inkscape (http://www.inkscape.org/) -->

<svg
   xmlns:svg="http://www.w3.org/2000/svg"
   xmlns="http://www.w3.org/2000/svg"
   version="1.1"
   width="560"
   height="560"
   id="hair_mohawk">
  <g
     transform="translate(0,-492.36218)"
     id="layer1">
    <g
       transform="translate(0,491.36218)"
       id="g295724"
       style="display:inline;enable-background:new">
      <path
         d="m 280.85992,101.58264 c -2.9832,-1.41223 -7.45546,-12.817737 -8.09462,-14.889108 0.2152,1.333305 1.87044,7.489706 2.49623,11.570171 -0.90765,-0.255568 -3.11295,-3.544808 -3.84434,-4.407968 0.2842,0.824948 2.46192,5.516553 2.79455,8.099145"
         id="path15187-3-8-5-3-3-1"
         style="color:#000000;fill:#ffd42a;fill-opacity:1;stroke:#d4aa00;stroke-width:0.11947157;stroke-linecap:butt;stroke-linejoin:miter;stroke-miterlimit:4;stroke-opacity:1;stroke-dasharray:none;stroke-dashoffset:0;marker:none;visibility:visible;display:inline;overflow:visible;enable-background:accumulate" />
      <path
         d="m 286.57621,106.55404 c -0.51767,-0.41289 0.0268,-1.34003 0.80408,-1.57359 -0.57843,-0.43975 -0.0462,-1.21302 0.60056,-1.29524 -0.30241,-0.27449 -0.9222,-1.42854 -0.30878,-1.5322 -1.08655,-0.79101 3.43917,-13.952898 4.95415,-18.552776 -1.77863,3.540576 -6.25529,12.567165 -7.87919,13.879538 -0.22898,-3.693757 2.9904,-18.52504 3.52917,-27.789276 -1.4693,8.004996 -4.75265,20.888309 -6.11825,24.109417 -0.68743,-4.661708 -0.0915,-28.038316 -1.2066,-36.431756 -0.0868,9.648728 -0.98487,25.007742 -1.83394,34.016892 -0.11945,-0.90426 -2.13384,-10.801327 -3.08947,-16.5187 0.37278,7.486921 1.56967,25.971691 -1.40268,26.923841 0.18717,-0.0125 0.81536,0.3162 0.29819,1.21438 0.92367,-0.10618 1.02557,0.94917 0.77602,1.62542 0.70399,-0.11116 1.16045,-0.002 1.10428,0.65966 0.61912,0.30807 1.55201,0.613 0.79833,1.22026 1.13667,-0.16748 1.77697,0.0742 1.79492,1.56175 1.2407,-0.6467 2.30199,1.77724 2.85307,2.69934 0.83106,-1.62265 1.50643,-2.60805 2.54815,-2.44525 -0.23829,-2.0101 1.27845,-1.75144 1.77799,-1.77171 z"
         id="path15187-3-8-5-3-3-2-6-6"
         style="color:#000000;fill:#ffd42a;fill-opacity:1;stroke:#d4aa00;stroke-width:0.11947157;stroke-linecap:butt;stroke-linejoin:miter;stroke-miterlimit:4;stroke-opacity:1;stroke-dasharray:none;stroke-dashoffset:0;marker:none;visibility:visible;display:inline;overflow:visible;enable-background:accumulate" />
      <path
         d="m 286.31751,79.959867 c -3.73211,16.464043 -5.52321,21.763953 -8.2959,26.224373 4.83986,-3.02007 6.09983,-13.541502 8.2959,-26.224373 z"
         id="path295447"
         style="color:#000000;fill:#ffe680;fill-opacity:1;stroke:none;stroke-width:0.5;marker:none;visibility:visible;display:inline;overflow:visible;enable-background:accumulate" />
      <path
         d="m 280.74561,69.877282 c 0.2511,8.308636 1.04162,30.204228 -4.73452,34.408648 3.21349,-4.392143 4.17303,-17.222636 4.73452,-34.408648 z"
         id="path295447-9"
         style="color:#000000;fill:#ffe680;fill-opacity:1;stroke:none;stroke-width:0.5;marker:none;visibility:visible;display:inline;overflow:visible;enable-background:accumulate" />
      <path
         d="m 290.88151,88.065833 c -4.74537,8.921344 -6.40737,18.180057 -8.57541,22.286917 0.91544,-4.53446 1.57971,-9.96333 8.57541,-22.286917 z"
         id="path295447-3"
         style="color:#000000;fill:#ffe680;fill-opacity:1;stroke:none;stroke-width:0.5;marker:none;visibility:visible;display:inline;overflow:visible;enable-background:accumulate" />
      <path
         d="m 279.83546,106.33018 c 1.16741,-2.64255 2.89206,-6.388044 3.81893,-9.463276 -0.35184,2.001198 -1.73148,8.494706 -3.81893,9.463276 z"
         id="path295485"
         style="color:#000000;fill:#ffe680;fill-opacity:1;stroke:none;stroke-width:0.5;marker:none;visibility:visible;display:inline;overflow:visible;enable-background:accumulate" />
      <path
         d="m 277.40207,104.77162 c 1.07314,-1.71926 3.1989,-7.846841 3.42264,-13.728034 0.91692,6.638325 -1.28504,11.103034 -3.42264,13.728034 z"
         id="path295485-6"
         style="color:#000000;fill:#ffe680;fill-opacity:1;stroke:none;stroke-width:0.5;marker:none;visibility:visible;display:inline;overflow:visible;enable-background:accumulate" />
      <path
         d="m 275.41157,102.81256 c 1.07314,-1.71926 1.73784,-11.79643 1.43646,-17.486513 1.06836,5.74648 0.70114,14.861513 -1.43646,17.486513 z"
         id="path295485-6-9"
         style="color:#000000;fill:#ffe680;fill-opacity:1;stroke:none;stroke-width:0.5;marker:none;visibility:visible;display:inline;overflow:visible;enable-background:accumulate" />
      <path
         d="m 287.28752,105.09434 c -0.69319,-3.66064 0.80681,-7.848678 1.97933,-12.625023 -1.9852,5.087804 -3.35245,9.749223 -1.97933,12.625023 z"
         id="path295485-4"
         style="color:#000000;fill:#ffe680;fill-opacity:1;stroke:none;stroke-width:0.5;marker:none;visibility:visible;display:inline;overflow:visible;enable-background:accumulate" />
      <path
         d="m 281.81579,109.56973 c 0.13351,-1.94468 1.95813,-8.55622 2.7996,-10.16843 -2.31558,2.76597 -3.87219,7.874 -2.7996,10.16843 z"
         id="path295485-41"
         style="color:#000000;fill:#ffe680;fill-opacity:1;stroke:none;stroke-width:0.5;marker:none;visibility:visible;display:inline;overflow:visible;enable-background:accumulate" />
      <path
         d="m 276.05433,103.28942 c 0.95553,-1.56907 1.97012,-9.40387 1.91931,-11.901267 1.15087,4.878577 -0.6845,10.903627 -1.91931,11.901267 z"
         id="path295485-2"
         style="color:#000000;fill:#ffe680;fill-opacity:1;stroke:none;stroke-width:0.5;marker:none;visibility:visible;display:inline;overflow:visible;enable-background:accumulate" />
      <path
         d="m 286.25313,106.35669 c -0.2685,-2.45589 0.38212,-6.03099 0.53536,-7.019135 -0.54127,1.096285 -1.99346,4.737945 -0.53536,7.019135 z"
         id="path295485-4-9"
         style="color:#000000;fill:#ffe680;fill-opacity:1;stroke:none;stroke-width:0.5;marker:none;visibility:visible;display:inline;overflow:visible;enable-background:accumulate" />
    </g>
  </g>
</svg>
