<?xml version="1.0" encoding="UTF-8" standalone="no"?>
<!-- Created with Inkscape (http://www.inkscape.org/) -->

<svg
   xmlns:dc="http://purl.org/dc/elements/1.1/"
   xmlns:cc="http://creativecommons.org/ns#"
   xmlns:rdf="http://www.w3.org/1999/02/22-rdf-syntax-ns#"
   xmlns:svg="http://www.w3.org/2000/svg"
   xmlns="http://www.w3.org/2000/svg"
   version="1.1"
   width="560"
   height="560"
   id="hat_fedora_1_of_2">
  <path
     d="m 285.24752,95.286058 c -0.92633,-0.167524 -1.93408,-0.288631 -3.03534,-0.357984 -7.93698,-0.499821 -13.71228,2.514612 -16.99192,9.047916 -0.90868,1.81018 -0.83075,9.08708 -1.39298,12.43971 -3.28675,0.55565 -11.15457,-0.45943 -11.65633,2.97545 5.74725,-4.50714 19.401,1.16337 31.3048,1.16337 10.10818,0 23.14679,-3.36599 26.46336,2.16654 -1.55213,-3.21069 -5.61114,-4.10622 -11.49608,-4.28025 -0.37371,-4.73394 -1.43936,-11.31259 -2.69257,-14.48787 -1.59399,-4.038748 -4.01867,-7.494217 -10.50289,-8.666893 z"
     id="path6546-7"
     style="color:#000000;fill:#999999;fill-opacity:1;fill-rule:evenodd;stroke:#666666;stroke-width:0.38891977;stroke-linecap:butt;stroke-linejoin:miter;stroke-miterlimit:4;stroke-opacity:1;stroke-dasharray:none;stroke-dashoffset:0;marker:none;visibility:visible;display:inline;overflow:visible;enable-background:accumulate" />
  <path
     d="m 280.75,94.875 c -7.18638,-0.05674 -12.4566,2.968778 -15.53125,9.09375 -0.90869,1.81018 -0.84402,9.08487 -1.40625,12.4375 -1.21201,0.2049 -3.06301,0.19741 -4.9375,0.28125 3.03838,0.32466 6.00541,1.50943 9.03125,0.84375 5.52823,-1.21621 12.47445,-1.88436 20.65625,0.4375 3.84056,1.08989 7.8643,0.6439 11.5,0.5625 -0.53708,-0.0282 -1.01152,-0.0756 -1.625,-0.0937 -0.37372,-4.73394 -1.43429,-11.32472 -2.6875,-14.5 -1.594,-4.038748 -4.01578,-7.483574 -10.5,-8.65625 -0.92633,-0.167525 -1.92999,-0.274396 -3.03125,-0.34375 -0.49606,-0.03124 -0.98966,-0.05872 -1.46875,-0.0625 z m -3.96875,1.46875 c 0.26754,-0.0146 0.52516,-0.01021 0.78125,0 1.36584,0.05445 2.53719,0.464022 3.34375,1.25 1.38256,3.44016 -12.36262,12.39767 -15.21875,7.3125 1.92075,-5.341633 7.08063,-8.34356 11.09375,-8.5625 z m 8.125,0.34375 c 0.41929,-0.05715 1.00576,0.330754 1.34375,1.25 1.9446,-1.510845 4.20973,0.355328 -0.4375,2.40625 -1.86676,-2.226947 -1.60507,-3.561004 -0.90625,-3.65625 z m 4.78125,4.53125 c 0.78273,-0.0893 1.47663,0.6903 1.46875,1.15625 -0.0105,0.62125 0.0683,0.75844 1.09375,0.84375 1.02545,0.0853 1.45841,-0.052 1.75,0.625 -0.67022,0.81115 -2.15393,1.0609 -2.59375,1.1875 -0.43983,0.12662 -3.51765,-0.24287 -4.4375,-2.59375 -0.53403,-0.77365 0.87835,0.27551 1.90625,-0.78125 0.25698,-0.26419 0.55159,-0.40773 0.8125,-0.4375 z m -32.5625,16.125 c -1.63467,0.0489 -2.96407,0.37231 -4.51444,1.09375 -0.21592,0.27684 -0.38285,0.59463 -0.4375,0.96875 2.87363,-2.25357 7.6511,-1.97745 13.29569,-1.125 -3.4897,-0.56508 -6.20684,-1.00137 -8.34375,-0.9375 z m 11.21875,1.40625 c 4.8953,0.82181 10.15756,1.8125 15.125,1.8125 8.48047,0 19.09081,-2.37908 24.25,0.125 -0.21939,-0.15951 -0.43812,-0.30037 -0.65625,-0.4375 -2.0206,-0.8519 -5.12549,-1.2455 -10.75,-0.84375 -9.28744,0.66339 -18.6813,0.78109 -27.96875,-0.65625 z m 39.375,1.9375 c 0.73952,0.53766 1.5021,1.18958 2.34375,2.03125 -0.53407,-0.8909 -1.35351,-1.55062 -2.34375,-2.03125 z"
     id="path6546-7-7"
     style="color:#000000;fill:#808080;fill-opacity:1;fill-rule:evenodd;stroke:none;marker:none;visibility:visible;display:inline;overflow:visible;enable-background:accumulate" />
  <path
     d="m 282.4255,106.79197 c -1.76083,-0.35959 -3.81158,0.0226 -5.90016,0.55485 -2.61426,0.66621 -5.29707,1.80327 -7.76797,3.04708 -1.66334,0.8373 -3.24779,1.71505 -4.58596,2.55996 -0.067,1.15381 -0.19466,2.38531 -0.34417,3.46184 1.45869,-0.0716 3.03883,-0.1563 4.28071,-0.25688 2.89079,-0.23604 6.29543,-0.41081 10.54255,-0.3778 9.76343,0.0759 16.16011,2.99851 19.79245,2.54928 -0.0654,-0.82871 -0.17567,-1.64408 -0.2808,-2.55769 -6.16225,-6.3877 -10.78588,-7.96961 -15.73665,-8.98064 z"
     id="path6550-3"
     style="color:#000000;fill:#ff0000;fill-opacity:1;fill-rule:evenodd;stroke:#aa0000;stroke-width:0.38891977;stroke-linecap:butt;stroke-linejoin:miter;stroke-miterlimit:4;stroke-opacity:1;stroke-dasharray:none;stroke-dashoffset:0;marker:none;visibility:visible;display:inline;overflow:visible;enable-background:accumulate" />
  <path
     d="m 276.51574,107.33858 c -2.61426,0.66621 -5.28639,1.80963 -7.75729,3.05345 -1.66333,0.83731 -3.24151,1.71295 -4.57968,2.55786 -0.008,0.11508 -0.0114,0.23998 -0.0196,0.35338 -0.086,1.18196 -0.19987,2.27965 -0.34044,3.11779 0.23732,-0.002 0.55809,-0.0495 0.80917,-0.0587 1.07844,-0.0394 2.19635,-0.10835 3.46617,-0.21203 0.062,-0.005 0.13263,-0.0141 0.19503,-0.0193 -0.15893,-0.0477 -0.25072,-0.15374 -0.16237,-0.38691 0.31668,-0.83635 1.483,-0.96876 2.17955,-1.49072 0.89392,-0.66988 -0.15573,-0.97408 -0.0109,-1.36832 0.30625,-0.83361 1.17974,-0.51278 1.72468,-1.18828 0.36177,-0.44846 0.14534,-0.85759 -0.20189,-1.00105 -0.63341,-0.26175 0.68702,-1.26193 1.57077,-1.42757 1.21415,-0.22759 1.96798,-1.53433 3.12689,-1.92965 z m 2.2777,-0.0674 c -0.5746,0.18734 -0.73258,0.72354 -0.70881,1.38184 0.0233,0.64693 -0.68131,1.29258 -0.31062,2.03932 0.38279,0.77118 -0.0648,1.54264 -0.38618,2.25584 -0.48142,1.06867 0.32263,2.2778 1.26402,2.82907 0.47847,0.0167 0.87974,0.007 1.37906,0.0365 7.41655,0.43341 16.688,2.65042 18.65675,2.702 0.63965,0.0168 1.07008,0.04 1.37369,0.0128 -0.54057,-0.0277 -1.02493,-0.0707 -1.61391,-0.083 -0.0655,-0.8287 -0.17746,-1.76394 -0.28259,-2.67756 -3.39342,-3.34293 -8.60158,-7.82031 -15.34702,-8.88515 -0.13583,-0.0215 -0.25612,-0.0668 -0.39319,-0.0854 0.10405,0.0204 0.18689,0.0421 0.24021,0.0702 -1.19851,0.0945 -2.41777,0.20544 -3.61064,0.34444 -0.10037,0.0117 -0.17861,0.0327 -0.26077,0.0591 z"
     id="path6714-3"
     style="color:#000000;fill:#d40000;fill-opacity:1;fill-rule:evenodd;stroke:none;stroke-width:0.46110123;marker:none;visibility:visible;display:inline;overflow:visible;enable-background:accumulate" />
  <path
     d="m 276.51574,107.33858 c -2.61426,0.66621 -5.28639,1.80964 -7.7573,3.05345 -1.66332,0.83731 -3.2415,1.71295 -4.57967,2.55786 -0.008,0.11508 -0.0114,0.23998 -0.0196,0.35338 -0.086,1.18196 -0.19988,2.27965 -0.34045,3.11779 0.23732,-0.002 0.5581,-0.0495 0.80918,-0.0587 1.07844,-0.0394 2.19635,-0.10834 3.46617,-0.21203 0.062,-0.005 0.13263,-0.0141 0.19503,-0.0193 -0.15894,-0.0477 -0.25072,-0.15374 -0.16238,-0.38691 0.31669,-0.83634 1.483,-0.96876 2.17956,-1.49072 0.89391,-0.66987 -0.15573,-0.97407 -0.0109,-1.36832 0.30624,-0.83361 1.17974,-0.51277 1.72467,-1.18828 0.36178,-0.44846 0.14534,-0.85759 -0.20188,-1.00105 -0.63341,-0.26175 0.68702,-1.26193 1.57076,-1.42757 1.21415,-0.22758 1.96798,-1.53432 3.12689,-1.92965 z m 2.27769,-0.0674 c -0.57459,0.18735 -0.73257,0.72355 -0.70881,1.38184 0.0233,0.64693 -0.6813,1.29258 -0.31061,2.03932 0.38279,0.77118 -0.0648,1.54264 -0.38618,2.25584 -0.48142,1.06867 0.32262,2.2778 1.26401,2.82907 0.47847,0.0167 0.87974,0.007 1.37907,0.0365 7.41655,0.43342 16.688,2.65042 18.65674,2.70201 0.63966,0.0168 1.07008,0.04 1.3737,0.0128 -0.54057,-0.0277 -1.02493,-0.0707 -1.61391,-0.083 -0.22649,-5.79861 -12.32424,-10.98012 -16.02281,-11.64811 -0.055,0.0526 -2.6128,0.3271 -3.37043,0.41464 -0.10036,0.0117 -0.1786,0.0327 -0.26077,0.0591 z"
     id="path6714-3-6"
     style="color:#000000;fill:#d40000;fill-opacity:1;fill-rule:evenodd;stroke:none;marker:none;visibility:visible;display:inline;overflow:visible;enable-background:accumulate" />
</svg>
