<?xml version="1.0" encoding="UTF-8" standalone="no"?>
<!-- Created with Inkscape (http://www.inkscape.org/) -->

<svg
   xmlns:dc="http://purl.org/dc/elements/1.1/"
   xmlns:cc="http://creativecommons.org/ns#"
   xmlns:rdf="http://www.w3.org/1999/02/22-rdf-syntax-ns#"
   xmlns:svg="http://www.w3.org/2000/svg"
   xmlns="http://www.w3.org/2000/svg"
   version="1.1"
   width="560"
   height="560"
   id="hat_police">
  <path
     d="m 263.68762,116.57059 0.19923,1.29495 c 0.25681,3.97961 9.48454,5.36223 17.12688,5.36223 6.17475,0 17.75378,0.35128 16.11594,-5.76259 -1.23125,-4.59617 -30.00488,-4.27333 -33.44205,-0.89459 z"
     id="path3580-7"
     style="fill:#1a1a1a;fill-rule:evenodd;stroke:#000000;stroke-width:0.82599545px;stroke-linecap:butt;stroke-linejoin:miter;stroke-opacity:1" />
  <path
     d="m 297.44144,119.21885 c -1.33837,1.96041 -2.90588,3.06506 -7.86929,3.48639 1.34148,-3.26303 -0.94073,-7.3818 -7.04222,-10.03531 10.33163,-1.84954 14.89597,0.42544 14.91151,6.54892 z"
     id="path3584-3"
     style="fill:#e6e6e6;fill-opacity:1;fill-rule:evenodd;stroke:none" />
  <path
     d="m 273.04623,122.19257 c -1.77588,-3.39198 1.06969,-5.59477 2.46563,-7.69427 -5.20552,-0.28039 -9.10956,0.28221 -9.17356,2.55292 -0.064,2.27072 3.60109,5.0532 6.70793,5.14135 z"
     id="path3586-1"
     style="fill:#e6e6e6;fill-rule:evenodd;stroke:none" />
  <path
     d="m 1025.0248,171.49143 c -1.5781,-4.33975 -6.7069,-12.23021 -16.1755,-20.5152 19.7262,1.97262 25.2495,14.59736 16.1755,20.5152 z"
     transform="matrix(0.33856398,0.00954181,-0.00954181,0.33856398,-49.34576,53.497675)"
     clip-path="url(#clipPath4266-5-9-7-1)"
     id="path3588-7"
     style="fill:#ffffff;fill-rule:evenodd;stroke:none" />
  <path
     d="m 264.31566,121.21039 c -0.51182,-7.13667 4.06865,-6.91989 17.59536,-7.17625 6.12517,-0.11608 13.54147,0.58089 15.45363,4.14884 0.39969,0.7458 0.36569,2.26993 0.41098,2.66801 1.69848,-2.17429 -0.0856,-3.8196 -0.0716,-5.46349 0.006,-0.6737 -0.21695,-3.26081 -0.24947,-4.89765 -0.0325,-1.63684 -6.05522,-2.43435 -11.45732,-2.92268 -5.4021,-0.48833 -21.05498,-0.90249 -22.8506,3.85485 0.22886,2.81104 0.23615,5.74528 0.35397,7.33308 0.0895,1.2067 0.43213,2.31073 0.81504,2.45529 z"
     id="path3547-3-2"
     style="fill:#373e48;fill-opacity:1;fill-rule:evenodd;stroke:#000000;stroke-width:0.82599545px;stroke-linecap:butt;stroke-linejoin:miter;stroke-opacity:1" />
  <path
     d="m 297.86583,117.73753 c 0.38207,-1.01885 -0.52476,-0.89559 -0.0804,-1.53785 2.43512,-0.6765 4.19506,-1.73861 4.93395,-2.35413 1.25323,-1.044 1.60245,-2.41157 2.23941,-2.50399 1.33567,-0.19379 1.98804,-3.02955 0.24081,-3.37117 -0.97066,-0.18978 -2.3518,-0.90948 -2.78543,-1.99679 -0.96804,-2.42729 -3.75326,-3.78644 -3.52434,-5.77156 -3.94237,-0.7375 -15.86247,-5.432008 -17.8804,-6.691889 -3.85033,0.960872 -9.34965,3.871289 -17.19175,4.315318 -0.69549,1.715261 -0.0996,1.598431 -2.03671,3.412241 -1.93715,1.8138 -3.46169,4.57489 -4.27914,5.62039 -0.81749,1.0455 -0.7972,1.1796 -2.31508,1.13791 -1.51787,-0.0418 -1.78414,1.28656 -1.02425,2.37587 0.75989,1.08931 0.88524,2.11077 2.37843,3.87726 1.08155,1.27951 3.24139,1.86388 4.96694,2.32945 1.1536,0.31126 1.83656,-0.10892 2.30724,0.28569 2.75044,-7.90593 32.47325,-2.78272 34.05068,0.87325 z"
     id="path3569-2-4"
     style="fill:#373e48;fill-opacity:1;fill-rule:evenodd;stroke:#000000;stroke-width:0.82599545px;stroke-linecap:butt;stroke-linejoin:miter;stroke-opacity:1" />
  <path
     d="m 263.60248,115.09906 c 5.9086,-4.85416 29.44284,-3.02203 33.92473,0.38481 -0.0226,0.80143 -0.19382,1.83455 -0.0678,2.40428 -4.35646,-2.81703 -24.22175,-6.2162 -33.90967,-0.91909 -0.11854,-0.53805 0.1825,-1.73266 0.0527,-1.87 z"
     id="path3571-0-8"
     style="fill:#1a1a1a;fill-rule:evenodd;stroke:#000000;stroke-width:0.82599545px;stroke-linecap:butt;stroke-linejoin:miter;stroke-opacity:1" />
  <path
     d="m 284.12156,111.68435 c -4.55896,-0.1011 -9.35406,-0.008 -13.25782,0.40991 -0.79177,0.58641 -2.14227,0.81174 -2.03749,1.28732 0.0954,0.4332 1.31556,1.0613 2.48109,1.3829 13.95346,-1.41947 23.52922,0.89599 26.25195,2.82387 -0.12603,-0.2709 0.0451,-1.60026 0.0677,-2.40169 -2.36548,-1.1294 -6.99723,-3.35795 -13.50543,-3.50231 z"
     id="path3575-7-2"
     style="fill:#1a1a1a;fill-rule:evenodd;stroke:#000000;stroke-width:0.82599545px;stroke-linecap:butt;stroke-linejoin:miter;stroke-opacity:1" />
  <path
     d="m 1032.9415,123.15647 c -4.092,6.13716 -16.3947,15.6217 -24.2319,20.0851 10.025,2.51126 27.3878,-2.23066 24.2319,-20.0851 z"
     transform="matrix(0.33856398,0.00954181,-0.00954181,0.33856398,-49.34576,53.497675)"
     clip-path="url(#clipPath4260-5-3-9-4)"
     id="path3614-1"
     style="fill:#1c1f24;fill-opacity:1;fill-rule:evenodd;stroke:none" />
  <path
     d="m 281,93.5 c -3.36904,0.840763 -7.98491,3.194826 -14.34375,4.0625 -0.0204,0.0069 -0.0423,-0.0068 -0.0625,0 -1.33084,0.450712 -2.12798,0.824834 -2.09375,1.1875 0.0982,1.040901 3.27417,6.05264 3.71875,5.59375 0.44456,-0.45889 -1.26042,-4.928089 3.125,-6.5 4.38539,-1.571913 8.26963,4.01536 9.90625,4.0625 1.63659,0.0471 3.78075,-5.18347 5.65625,-4.65625 4.83245,2.02678 4.94885,7.50595 5.625,8.28125 0.67615,0.7753 0.4108,2.07676 0.875,2.5625 0.41915,0.4386 3.49718,-1.35276 5.28125,-3.96875 -0.0199,-0.10506 -0.0388,-0.21227 -0.0625,-0.3125 -1.23592,1.17366 -4.0394,3.44111 -4.0625,2.71875 -0.0271,-0.84604 2.24462,-2.93304 3.4375,-4.78125 -0.15752,-0.59346 -0.21851,-1.17937 0,-1.875 -4.06222,-0.783109 -14.98207,-5.115119 -17,-6.375 z"
     id="path3616-0"
     style="fill:#1c1f24;fill-opacity:1;fill-rule:evenodd;stroke:none" />
  <path
     d="m 928.71815,105.54181 c 0.36428,3.06388 1.1834,5.8492 2.62266,7.5209 1.43935,1.67169 5.46414,8.63694 6.10587,11.42266 0.64174,2.78572 5.19845,8.35863 14.89166,7.81769 -9.34499,3.60576 -13.83042,3.60363 -15.18771,4.15987 2.37082,-1.66993 3.15057,-3.34037 2.88406,-4.45484 -0.26651,-1.11447 -0.93326,-2.22939 -2.76305,-4.73758 -1.82972,-2.50821 -2.3519,-4.73657 -2.66721,-6.12934 -0.3153,-1.39274 -3.94694,-4.17966 -4.53526,-5.85093 -0.58841,-1.67128 -2.51064,-6.40651 -1.35102,-9.74843 z"
     transform="matrix(0.33856398,0.00954181,-0.00954181,0.33856398,-49.34576,53.497675)"
     clip-path="url(#clipPath4252-44-8-3-9)"
     id="path3620-8"
     style="fill:#1c1f24;fill-opacity:1;fill-rule:evenodd;stroke:none" />
  <path
     d="m 258.71875,105.15625 c -0.45717,0.63931 -0.94322,1.33511 -1.21875,1.6875 -0.42636,0.54528 -0.62984,0.87744 -0.9375,1.03125 -0.48322,1.23448 0.17835,2.58807 1.9375,2.8125 -4.20356,0.29691 -3.80418,-1.75094 -2.9375,-2.6875 -0.13011,4.7e-4 -0.21258,0.004 -0.375,0 -1.51787,-0.0418 -1.79114,1.28569 -1.03125,2.375 0.0814,0.11671 0.14244,0.24477 0.1875,0.375 1.86832,0.92371 4.61743,1.76884 7.5625,1.53125 -0.73984,0.35709 -2.68108,0.96969 -4.78125,0.15625 0.91865,0.68648 4.82086,2.01236 6.75,1.5 0.18797,0.005 -0.0985,-2.7426 -0.3125,-2.9375 -1.54315,-0.32682 -0.90421,-1.73041 -1.53125,-2.03125 -0.62707,-0.30084 -0.8659,-0.48685 -1.125,-1.34375 -0.0969,1.03575 -0.0673,1.24282 0.0937,1.625 -0.62293,-0.60524 -2.05507,-2.22246 -2.28125,-4.09375 z"
     id="path3624-4"
     style="fill:#1c1f24;fill-opacity:1;fill-rule:evenodd;stroke:none" />
  <path
     d="m 263.00044,117.5879 c -1.2224,-0.30803 -0.4145,-3.24618 0.75067,-2.91975 1.06104,0.29726 0.41615,3.21376 -0.75067,2.91975 z"
     id="path3573-5-3"
     style="fill:#808000;fill-rule:evenodd;stroke:none" />
  <path
     d="m 306.1875,109.25 c -0.20872,1.02838 -1.79414,2.3003 -3.4375,2.625 0.75022,-0.019 1.2723,-0.07 1.875,-0.34375 0.10705,-0.0965 0.22432,-0.17017 0.34375,-0.1875 0.78207,-0.11347 1.31224,-1.13726 1.28125,-2.03125 -0.0218,-0.0188 -0.0397,-0.045 -0.0625,-0.0625 z m -2.03125,2.875 c -1.73067,1.27686 -5.21128,1.605 -7.3125,2.0625 -0.17973,0.0463 -0.271,1.31842 0.34375,1.0625 0.56011,-0.23324 2.77351,-0.87651 5.59375,-1.46875 0.64854,-0.56096 1.04583,-1.16922 1.375,-1.65625 z"
     id="path3622-1-7"
     style="fill:#1c1f24;fill-opacity:1;fill-rule:evenodd;stroke:none;display:inline;enable-background:new" />
  <path
     d="m 255.53125,112.84375 c 0.25742,0.42231 0.54584,0.86897 1,1.40625 0.37809,0.4473 0.89172,0.82299 1.46875,1.125 3.17843,-0.084 5.73432,0.0771 6.375,0.1875 0.11279,0.0194 0.19063,0.016 0.25,-0.0312 0.28603,-0.22779 0.0286,-1.0894 -0.125,-1.09375 -2.49823,0.0238 -6.80214,0.65011 -8.4375,-0.90625 0.77466,0.21017 1.29926,0.13491 2.125,-0.0312 -0.92913,0.0268 -1.89604,-0.25138 -2.65625,-0.65625 z m 2.59375,2.59375 c 0.77664,0.38852 1.65437,0.66588 2.5,0.90625 -0.82876,-0.35317 -1.74296,-0.75342 -2.5,-0.90625 z"
     id="path3622-1"
     style="fill:#1c1f24;fill-opacity:1;fill-rule:evenodd;stroke:none" />
</svg>
