<?xml version="1.0" encoding="UTF-8" standalone="no"?>
<!-- Created with Inkscape (http://www.inkscape.org/) -->

<svg
   xmlns:dc="http://purl.org/dc/elements/1.1/"
   xmlns:cc="http://creativecommons.org/ns#"
   xmlns:rdf="http://www.w3.org/1999/02/22-rdf-syntax-ns#"
   xmlns:svg="http://www.w3.org/2000/svg"
   xmlns="http://www.w3.org/2000/svg"
   version="1.1"
   width="560"
   height="560"
   id="hat_fedora_2_of_2">
  <path
     d="m 310.01578,123.40337 c 0.0244,-0.23116 0.0771,-0.47311 0.0338,-0.6823 -0.0704,-0.3373 -0.22341,-0.64562 -0.44561,-0.92682 -0.22227,-0.28119 -0.50905,-0.52835 -0.85474,-0.75441 -0.34569,-0.22607 -0.74771,-0.42346 -1.18775,-0.59552 -0.44004,-0.17206 -0.92317,-0.31876 -1.42846,-0.43795 -0.50533,-0.11919 -1.03545,-0.2143 -1.57695,-0.28173 -0.5415,-0.0674 -1.09339,-0.11167 -1.64201,-0.1285 -0.54859,-0.0168 -1.0882,-0.009 -1.61484,0.0234 -1.05323,0.0654 -2.83925,0.2377 -5.11066,0.4159 -2.27146,0.17819 -5.03501,0.36826 -8.04573,0.46201 -1.50534,0.0469 -3.0668,0.0683 -4.66718,0.0571 -1.60037,-0.0112 -3.2319,-0.0603 -4.86746,-0.15432 -1.63553,-0.094 -3.27867,-0.23239 -4.8895,-0.4338 -1.61085,-0.20141 -3.19491,-0.46402 -4.72119,-0.79751 -1.52628,-0.33351 -2.9304,-0.60066 -4.22095,-0.8154 -1.29054,-0.21475 -2.46566,-0.37644 -3.53606,-0.48709 -1.07041,-0.11063 -2.03385,-0.17408 -2.8997,-0.19525 -0.86584,-0.0212 -1.63324,-0.002 -2.31017,0.0512 -0.6769,0.0537 -1.26391,0.13849 -1.76747,0.25231 -0.50357,0.11382 -0.92747,0.2576 -1.27329,0.41692 -0.34581,0.15938 -0.61172,0.3387 -0.81539,0.52894 -0.16003,0.14946 -0.25444,0.31017 -0.33531,0.47062 0.61899,2.42566 5.60662,9.47446 28.8895,11.66408 15.04337,1.41473 27.65225,-3.5389 29.28708,-7.65187 z"
     id="path6542-8"
     style="color:#000000;fill:#000000;fill-opacity:1;fill-rule:evenodd;stroke:none;marker:none;visibility:visible;display:inline;overflow:visible;enable-background:accumulate" />
</svg>
