<?xml version="1.0" encoding="UTF-8" standalone="no"?>
<!-- Created with Inkscape (http://www.inkscape.org/) -->

<svg
   xmlns:dc="http://purl.org/dc/elements/1.1/"
   xmlns:cc="http://creativecommons.org/ns#"
   xmlns:rdf="http://www.w3.org/1999/02/22-rdf-syntax-ns#"
   xmlns:svg="http://www.w3.org/2000/svg"
   xmlns="http://www.w3.org/2000/svg"
   version="1.1"
   width="560"
   height="560"
   id="hat_top">
  <path
     d="m 264.67797,112.4219 c 1.41102,-8.5713 -0.96757,-17.2126 -1.89162,-22.157 -0.92407,-4.9443 4.3824,-11.1846 17.77501,-11.1846 13.38836,0 19.43235,4.42 18.68963,10.7095 -0.6987,5.9166 -4.20132,10.8835 -1.97091,22.8907 -3.3994,1.1647 -21.64624,-5.8353 -32.60211,-0.2586 z"
     id="path3021-11-6"
     style="fill:#333333;stroke:#1a1a1a;stroke-width:0.38881806px;stroke-linecap:butt;stroke-linejoin:miter;stroke-opacity:1;display:inline;enable-background:new" />
  <path
     d="m 288.28125,79.71875 c -0.66621,6.332895 -1.63991,22.29705 -1.125,31.71875 3.20549,0.55387 5.99284,1.12602 7.90625,1.3125 -0.0694,-2.85234 0.0993,-7.79018 0.78125,-12.65625 0.7573,-5.404065 2.17614,-10.613033 2.90625,-14.09375 -1.25491,-3.022294 -4.72036,-5.257023 -10.46875,-6.28125 z"
     id="path292880"
     style="color:#000000;fill:#1a1a1a;stroke:none;stroke-width:0.5;marker:none;visibility:visible;display:inline;overflow:visible;enable-background:accumulate" />
  <path
     d="m 274.5625,79.5625 c -5.48512,0.952297 -8.94009,3.203022 -10.625,5.75 0.55256,3.295015 1.75695,8.345435 2.5625,14.09375 0.59782,4.26601 0.52862,8.93705 0.28125,12.15625 2.76163,-0.96449 5.83996,-1.32486 8.96875,-1.3125 0.38253,-9.63377 -0.54834,-24.744671 -1.1875,-30.6875 z"
     id="path292880-9"
     style="color:#000000;fill:#1a1a1a;stroke:none;stroke-width:0.5;marker:none;visibility:visible;display:inline;overflow:visible;enable-background:accumulate" />
  <path
     d="m 279.39947,114.17857 c -0.50739,-4.56645 0.16912,-23.33966 -1.69128,-34.332981 3.0443,-0.507384 5.41209,-0.338256 6.93425,-0.169128 -0.50739,3.213432 -1.35303,23.339669 -1.01477,34.332989 -1.01477,-0.16913 -4.2282,0.16912 -4.2282,0.16912 z"
     id="path292972"
     style="color:#000000;fill:#4d4d4d;stroke:none;stroke-width:0.5;marker:none;visibility:visible;display:inline;overflow:visible;enable-background:accumulate" />
  <path
     d="m 264.39681,125.4827 c -0.50262,-5.148 0.79114,-6.4194 3.65265,-8.463 3.08671,-2.2043 6.66648,-1.8491 13.56613,-1.8491 5.60176,0 10.59245,0.1158 13.37633,2.0306 2.66149,1.8307 3.113,4.456 2.56951,6.2666 0.2605,0.9217 0.33459,1.7902 0.39273,2.5732 5.4721,-3.3406 10.4737,-12.4431 2.95512,-19.2049 -4.0829,-3.672 -10.98368,3.6816 -19.45606,3.6816 -9.11377,0 -10.71087,-6.6331 -17.83212,-3.6673 -8.29177,3.4532 -9.35077,13.062 0.77571,18.6323 z"
     id="path3019-5-0"
     style="fill:#333333;stroke:#1a1a1a;stroke-width:0.38881806px;stroke-linecap:butt;stroke-linejoin:miter;stroke-opacity:1;display:inline;enable-background:new" />
  <path
     d="m 268.4375,109.96875 c -2.1141,0.10571 -4.24433,0.8216 -6.78125,2.34375 -4.53527,2.72116 -4.0647,6.68184 0.3125,11.59375 0.72543,0.55102 1.53853,1.068 2.4375,1.5625 -0.50262,-5.148 0.79474,-6.3939 3.65625,-8.4375 3.08671,-2.2043 6.66285,-1.875 13.5625,-1.875 5.60176,0 10.59112,0.11645 13.375,2.03125 2.66149,1.8307 3.10599,4.47065 2.5625,6.28125 0.21025,0.7439 0.28674,1.43614 0.34375,2.09375 4.00233,-2.86891 6.61787,-8.03565 6.1875,-10.1875 -0.3058,-1.529 -9.13753,-6.28503 -14.71875,-4.59375 -5.58122,1.69128 -9.63942,2.39166 -14.375,0.53125 -2.3678,-0.93021 -4.4484,-1.44946 -6.5625,-1.34375 z"
     id="path292926"
     style="color:#000000;fill:#1a1a1a;stroke:none;stroke-width:0.5;marker:none;visibility:visible;display:inline;overflow:visible;enable-background:accumulate" />
</svg>
