<?xml version="1.0" encoding="UTF-8" standalone="no"?>
<!-- Created with Inkscape (http://www.inkscape.org/) -->

<svg
   xmlns:dc="http://purl.org/dc/elements/1.1/"
   xmlns:cc="http://creativecommons.org/ns#"
   xmlns:rdf="http://www.w3.org/1999/02/22-rdf-syntax-ns#"
   xmlns:svg="http://www.w3.org/2000/svg"
   xmlns="http://www.w3.org/2000/svg"
   version="1.1"
   width="560"
   height="560"
   id="hat_strainer_1_of_2">
  <g
     transform="matrix(0.15596879,0,0,0.15596879,32.320127,77.619081)"
     id="g5893"
     style="display:inline;enable-background:new">
    <path
       d="m 1593.9062,110.3125 c -15.9282,0.19986 -31.3066,2.97652 -44.2812,9.0625 -36.8031,11.8069 -63.6541,34.92766 -82.25,61.75 0.486,-0.56687 0.9157,-0.9317 1.1875,-1 0.078,-0.0195 0.1365,-0.0309 0.1875,0 0.4089,0.24744 -0.2475,2.07552 -1.4688,4.09375 -1.2211,2.01823 -2.5286,3.46619 -2.9374,3.21875 -0.3741,-0.2263 0.1621,-1.78696 1.1874,-3.59375 -13.2281,19.84069 -22.055,41.53331 -27.125,62.0625 -0.9038,3.1045 -0.7179,6.32792 0.375,9.625 2.2448,-3.86184 5.2142,-7.46526 8.875,-10.78125 0.2931,-0.38672 0.6278,-0.67467 0.9688,-0.84375 6.88,-5.94784 15.9707,-10.96189 26.8125,-14.90625 0.7356,-1.4092 1.8051,-2.4822 3.0313,-2.8125 0.2863,-0.0772 0.5719,-0.0996 0.8437,-0.0937 0.7613,0.0165 1.4387,0.36251 2,0.9375 17.2255,-5.3739 38.229,-8.30685 61.4687,-8.40625 19.427,-0.0831 40.4064,1.80735 62.0313,5.90625 56.154,10.64375 102.8389,33.52209 126.625,59.125 0.6077,-0.58482 1.3099,-0.94379 2.0313,-0.96875 0.3969,-0.0137 0.7876,0.0662 1.1874,0.25 2.1003,0.9654 3.3025,4.44849 2.7188,7.8125 6.1364,8.19635 9.8831,16.5816 10.8125,24.84375 1.447,-2.81372 2.461,-5.87891 3.0313,-9.21875 14.8759,-104.65774 -34.6197,-130.34474 -57.2188,-162.5 -19.3368,-18.95259 -59.3733,-33.23487 -96.9062,-33.5625 -1.0664,-0.009 -2.1256,-0.0133 -3.1876,0 z m 20.375,12.28125 c 0.6766,-0.0378 1.5688,0.0289 2.5,0.21875 1.8631,0.37976 3.2019,1.09859 3,1.59375 -0.2015,0.49516 -1.8869,0.59851 -3.75,0.21875 -1.8627,-0.37976 -3.2016,-1.09859 -3,-1.59375 0.101,-0.24758 0.5736,-0.3997 1.25,-0.4375 z m -33.75,5.09375 c 1.9203,-0.12039 3.4383,0.27385 3.5313,0.96875 0.1062,0.79418 -1.6944,1.69158 -4,2 -2.3056,0.30842 -4.2376,-0.0808 -4.3437,-0.875 -0.1065,-0.79418 1.6631,-1.69158 3.9687,-2 0.2882,-0.0385 0.5694,-0.0765 0.8437,-0.0937 z m 59.5,0.5 c 0.6725,-0.0939 1.9305,0.17876 3.25,0.71875 1.7598,0.71999 2.9467,1.67606 2.6563,2.125 -0.2904,0.44894 -1.9593,0.21999 -3.7187,-0.5 -1.7598,-0.71999 -2.9467,-1.67606 -2.6563,-2.125 0.073,-0.11223 0.2447,-0.18745 0.4687,-0.21875 z m -86.75,0.96875 c 1.2037,-0.0628 2.1838,0.17049 2.5313,0.6875 0.5561,0.82721 -0.7207,2.06078 -2.8437,2.75 -2.1232,0.68922 -4.2877,0.57721 -4.8438,-0.25 -0.5561,-0.82721 0.7206,-2.06078 2.8438,-2.75 0.7959,-0.25846 1.5904,-0.3998 2.3124,-0.4375 z m 61.1563,1.5 c 0.5342,-0.001 1.0875,0.0716 1.6563,0.1875 2.2743,0.4637 3.7648,1.73352 3.3124,2.84375 -0.4522,1.11025 -2.663,1.61995 -4.9374,1.15625 -2.2747,-0.4637 -3.7648,-1.73352 -3.3126,-2.84375 0.3394,-0.83267 1.6788,-1.33975 3.2813,-1.34375 z m 52.25,5.09375 c 0.5182,-0.001 1.3347,0.28904 2.1875,0.78125 1.3645,0.78753 2.3415,1.84083 2.1875,2.375 -0.154,0.53417 -1.3855,0.35003 -2.75,-0.4375 -1.3645,-0.78753 -2.3415,-1.87208 -2.1875,-2.40625 0.058,-0.20032 0.2516,-0.31189 0.5625,-0.3125 z m -24.875,0.40625 c 0.663,-0.0472 1.4522,0.0368 2.3125,0.25 2.294,0.56855 4.1565,1.88562 4.1562,2.96875 -10e-5,1.08313 -1.8622,1.50605 -4.1562,0.9375 -2.294,-0.56855 -4.1565,-1.88562 -4.1562,-2.96875 0,-0.67695 0.7387,-1.1089 1.8437,-1.1875 z m -65.4063,2.71875 c 1.5408,0.0301 2.7011,0.54022 2.8438,1.34375 0.1903,1.07137 -1.5222,2.2495 -3.8125,2.65625 -2.2903,0.40675 -4.2785,-0.11613 -4.4687,-1.1875 -0.1905,-1.07137 1.4909,-2.28075 3.7812,-2.6875 0.5726,-0.1017 1.1427,-0.1351 1.6562,-0.125 z m -29.4687,1.25 c 0.9815,-0.0483 1.7693,0.16495 2.125,0.59375 0.7114,0.85759 -0.5597,2.33873 -2.8437,3.34375 -2.2842,1.00502 -4.7262,1.13884 -5.4376,0.28125 -0.7112,-0.85759 0.5598,-2.36998 2.8438,-3.375 1.142,-0.50251 2.331,-0.79545 3.3125,-0.84375 z m 64.9375,1.8125 c 0.862,-0.0601 1.8067,0.0453 2.7188,0.34375 2.4317,0.79582 3.7218,2.63919 2.9062,4.125 -0.8156,1.48581 -3.4432,2.04582 -5.875,1.25 -2.4318,-0.79582 -3.7531,-2.63919 -2.9375,-4.125 0.5098,-0.92863 1.7508,-1.49358 3.1875,-1.59375 z m -94.0625,4.125 c 0.7191,-0.0444 1.2522,0.12013 1.4063,0.46875 0.3076,0.69724 -0.9883,1.94842 -2.875,2.78125 -1.8872,0.83283 -3.6611,0.91599 -3.9688,0.21875 -0.3077,-0.69724 0.9568,-1.91717 2.8438,-2.75 0.9432,-0.41641 1.8746,-0.67435 2.5937,-0.71875 z m 151.5,0.15625 c 0.1549,-0.0197 0.313,-0.0112 0.5,0 0.7479,0.045 1.7244,0.33592 2.75,0.875 2.0511,1.07817 3.5126,2.71554 3.2813,3.65625 -0.2317,0.94071 -2.0741,0.82817 -4.125,-0.25 -2.0513,-1.07817 -3.5128,-2.71554 -3.2813,-3.65625 0.087,-0.35277 0.4102,-0.56579 0.875,-0.625 z m 19.7187,0.6875 c 0.4854,-0.0868 1.4098,0.25591 2.375,0.9375 1.2871,0.90879 2.1709,2.07586 1.9688,2.59375 -0.2021,0.51789 -1.4317,0.19004 -2.7188,-0.71875 -1.2868,-0.90879 -2.1708,-2.07586 -1.9687,-2.59375 0.051,-0.12945 0.182,-0.18985 0.3437,-0.21875 z m -47.5312,1.625 c 0.666,-0.0301 1.4667,0.079 2.3125,0.34375 2.2555,0.70607 4.0418,2.23843 3.9687,3.4375 -0.073,1.19907 -1.9632,1.61232 -4.2187,0.90625 -2.2555,-0.70607 -4.0418,-2.26968 -3.9687,-3.46875 0.045,-0.74942 0.7962,-1.16865 1.9062,-1.21875 z m -71.125,3.375 c 2.4956,-0.13018 4.5885,1.31441 4.6875,3.21875 0.099,1.90434 -1.8169,3.52607 -4.3125,3.65625 -2.4956,0.13018 -4.6197,-1.28316 -4.7188,-3.1875 -0.099,-1.90434 1.8482,-3.55732 4.3438,-3.6875 z m -30.0938,2.9375 c 0.7848,0.0561 1.4701,0.29939 1.9376,0.71875 1.2463,1.11829 0.4863,3.13227 -1.6876,4.5 -2.1736,1.36773 -4.9411,1.58704 -6.1874,0.46875 -1.2466,-1.11829 -0.4863,-3.13227 1.6874,-4.5 1.3587,-0.85483 2.9425,-1.2811 4.25,-1.1875 z m 153.3438,1.625 c 0.7297,-0.05 2.0292,0.58912 3.3438,1.75 1.7527,1.54784 2.8502,3.42461 2.4687,4.15625 -0.3815,0.73164 -2.091,0.0478 -3.8437,-1.5 -1.7529,-1.54784 -2.8817,-3.39336 -2.5,-4.125 0.095,-0.18295 0.288,-0.26455 0.5312,-0.28125 z m -84.0938,0.25 c 0.3124,0.0112 0.6451,0.037 0.9688,0.0937 2.59,0.45381 4.4454,2.25046 4.1562,4 -0.2889,1.74954 -2.6287,2.79756 -5.2187,2.34375 -2.59,-0.45381 -4.4451,-2.25046 -4.1563,-4 0.2531,-1.53085 2.0645,-2.5165 4.25,-2.4375 z m 63.1563,2.9375 c 0.7259,-0.0213 1.6049,0.0949 2.5313,0.375 2.4698,0.74703 4.4057,2.34762 4.3437,3.5625 -0.062,1.21488 -2.0924,1.59078 -4.5625,0.84375 -2.4701,-0.74703 -4.437,-2.34762 -4.375,-3.5625 0.039,-0.7593 0.8526,-1.18325 2.0625,-1.21875 z m -162.625,0.15625 c 0.1228,-0.013 0.238,-0.007 0.3437,0 0.2825,0.0174 0.5252,0.11111 0.6563,0.28125 0.5245,0.68056 -0.5645,2.36194 -2.4063,3.78125 -1.8416,1.41935 -3.7567,2.02431 -4.2812,1.34375 -0.5245,-0.68056 0.5332,-2.39319 2.375,-3.8125 1.2086,-0.93142 2.4529,-1.50287 3.3125,-1.59375 z m 132.6875,2.84375 c 0.4985,-0.0209 1.0586,0.0191 1.625,0.1875 2.2654,0.67354 4.0215,2.71095 3.9375,4.53125 -0.084,1.8203 -1.9846,2.73604 -4.25,2.0625 -2.2654,-0.67354 -4.0215,-2.6797 -3.9375,-4.5 0.063,-1.36522 1.1296,-2.21865 2.625,-2.28125 z m -76.625,3.90625 c 1.2349,-0.0635 2.4744,0.35506 3.4062,1.25 1.8636,1.78989 1.8115,4.85999 -0.094,6.84375 -1.9052,1.98376 -4.9488,2.13364 -6.8125,0.34375 -1.8642,-1.78989 -1.8427,-4.85999 0.062,-6.84375 0.9526,-0.99188 2.2026,-1.53025 3.4375,-1.59375 z m -79.2188,2.375 c 0.2564,-0.039 0.4296,0.005 0.5313,0.125 0.4066,0.47911 -0.7266,2.12937 -2.5625,3.6875 -1.8359,1.55813 -3.6559,2.44786 -4.0625,1.96875 -0.4066,-0.47911 0.7266,-2.12937 2.5625,-3.6875 1.3769,-1.1686 2.7624,-1.97682 3.5312,-2.09375 z m 47.4688,0.84375 c 0.8004,0.0242 1.5376,0.27851 2.0938,0.8125 1.4825,1.42398 1.1239,4.20374 -0.7813,6.1875 -1.9052,1.98376 -4.6423,2.42398 -6.125,1 -1.4827,-1.42398 -1.1552,-4.17249 0.75,-6.15625 1.1907,-1.23985 2.7284,-1.88405 4.0625,-1.84375 z m 163.0312,0.6875 c 0.825,-0.0856 2.278,0.6385 3.6876,1.9375 1.8792,1.732 3.0055,3.82314 2.5312,4.6875 -0.4743,0.86436 -2.3706,0.1695 -4.25,-1.5625 -1.8794,-1.732 -3.0368,-3.82314 -2.5625,-4.6875 0.1186,-0.21609 0.319,-0.3465 0.5937,-0.375 z m -88.7812,0.84375 c 0.1582,-1e-4 0.3081,0.0139 0.4688,0.0312 2.569,0.27633 4.4191,2.70283 4.125,5.4375 -0.2944,2.73467 -2.6182,4.71383 -5.1876,4.4375 -2.5691,-0.27633 -4.3878,-2.70283 -4.0937,-5.4375 0.2757,-2.56375 2.3144,-4.46775 4.6875,-4.46875 z m 65.4375,1.96875 c 0.5458,-0.002 1.1434,0.12415 1.75,0.34375 2.4265,0.8784 4.1891,3.27655 3.9687,5.375 -0.2202,2.09845 -2.3547,3.09715 -4.7812,2.21875 -2.4265,-0.8784 -4.2203,-3.3078 -4,-5.40625 0.1653,-1.57384 1.425,-2.52525 3.0625,-2.53125 z m -170.25,0.8125 c 0.7678,-0.0605 1.4585,0.1337 1.9375,0.59375 1.2774,1.2268 0.6668,3.9365 -1.375,6.0625 -2.0418,2.126 -4.7539,2.8518 -6.0312,1.625 -1.2776,-1.2268 -0.6356,-3.9365 1.4062,-6.0625 1.2761,-1.32875 2.7829,-2.11785 4.0625,-2.21875 z m 137.0937,4.0625 c 0.6347,-0.0266 1.3414,0.0356 2.0626,0.25 2.8838,0.85747 5.1385,3.43264 5.0312,5.75 -0.1073,2.31736 -2.5535,3.51372 -5.4375,2.65625 -2.884,-0.85747 -5.1385,-3.43264 -5.0313,-5.75 0.081,-1.73802 1.4714,-2.82655 3.375,-2.90625 z m -160.4062,6.625 c 0.1223,0.01 0.2225,0.0596 0.3125,0.125 0.7158,0.52286 0.012,2.68857 -1.5625,4.84375 -1.5743,2.15518 -3.4406,3.49161 -4.1562,2.96875 -0.7159,-0.52286 -0.012,-2.68857 1.5624,-4.84375 1.3778,-1.88578 2.9874,-3.16125 3.8438,-3.09375 z m 219.3438,0.9375 c 1.0091,0.0453 2.3994,0.72164 3.7187,1.9375 2.1109,1.94538 3.2633,4.49858 2.5937,5.71875 -0.6693,1.22017 -2.9203,0.63288 -5.0312,-1.3125 -2.1109,-1.94538 -3.2632,-4.49858 -2.5938,-5.71875 0.2512,-0.45756 0.7068,-0.6522 1.3126,-0.625 z m 22.0624,1.625 c 0.7379,0.11347 1.8688,1.08063 2.9063,2.53125 1.3833,1.93416 2.05,4.01277 1.5,4.65625 -0.55,0.64348 -2.1167,-0.40959 -3.5,-2.34375 -1.3833,-1.93416 -2.05,-4.01277 -1.5,-4.65625 0.1375,-0.1609 0.3481,-0.2253 0.5937,-0.1875 z M 1673.25,191.375 c 0.8377,-0.0281 1.8005,0.21156 2.75,0.71875 2.532,1.35251 4.1367,4.16686 3.5938,6.3125 -0.5432,2.14564 -3.0305,2.79001 -5.5626,1.4375 -2.5319,-1.35251 -4.1678,-4.19811 -3.625,-6.34375 0.3397,-1.34103 1.4476,-2.0782 2.8438,-2.125 z m -212.1562,5.4375 c 0.1069,-0.007 0.2012,0.0141 0.2812,0.0625 0.6397,0.38712 0.095,2.45359 -1.2188,4.625 -1.3137,2.17141 -2.8915,3.63712 -3.5312,3.25 -0.6397,-0.38712 -0.095,-2.48484 1.2188,-4.65625 1.1495,-1.89999 2.5002,-3.23405 3.25,-3.28125 z m 275.7187,5.84375 c 0.4908,-0.108 1.5597,1.41734 2.4063,3.40625 0.8463,1.98891 1.147,3.67325 0.6562,3.78125 -0.4908,0.108 -1.5599,-1.41734 -2.4062,-3.40625 -0.8466,-1.98891 -1.1471,-3.67325 -0.6563,-3.78125 z m -12.0313,0.75 c 0.6486,0.007 1.7625,1.36483 2.6563,3.34375 1.0215,2.26163 1.3581,4.48326 0.7813,4.9375 -0.5772,0.45424 -1.8537,-1.01962 -2.875,-3.28125 -1.0216,-2.26163 -1.3895,-4.45201 -0.8126,-4.90625 0.072,-0.0567 0.157,-0.0948 0.25,-0.0937 z m -24.1874,0.1875 c 0.9869,0.0303 2.1513,0.48992 3.2812,1.375 2.2599,1.77016 3.4715,4.54115 2.7188,6.21875 -0.753,1.6776 -3.1776,1.61391 -5.4376,-0.15625 -2.2597,-1.77016 -3.5027,-4.5724 -2.75,-6.25 0.3765,-0.8388 1.2003,-1.2178 2.1876,-1.1875 z m 24.9374,18.59375 c 0.9413,-0.21016 2.3684,1.09366 3.4063,3.21875 1.1862,2.42868 1.3978,4.99831 0.5,5.75 -0.8978,0.75169 -2.5638,-0.60257 -3.75,-3.03125 -1.1862,-2.42868 -1.4289,-4.99831 -0.5313,-5.75 0.1125,-0.094 0.2407,-0.1575 0.375,-0.1875 z M 1482.6562,230 c 0.047,0.31926 0.087,0.65393 0.094,1 -0.01,-0.34939 -0.045,-0.6789 -0.094,-1 z m 259.5,7.1875 c 0.9145,0.0477 2.2226,1.9293 3.0938,4.59375 0.9957,3.04509 1.0605,5.9659 0.1562,6.53125 -0.904,0.56535 -2.4419,-1.45491 -3.4374,-4.5 -0.9958,-3.04509 -1.0606,-5.9659 -0.1563,-6.53125 0.113,-0.0706 0.2132,-0.10075 0.3437,-0.0937 z M 1446.0625,250 c -0.028,0.43168 -0.04,0.86656 -0.031,1.3125 -0.01,-0.44185 0,-0.8844 0.031,-1.3125 z m 284.125,35.5 c -0.117,0.26494 -0.2203,0.54736 -0.3125,0.84375 0.093,-0.30174 0.1937,-0.57346 0.3125,-0.84375 z"
       id="path3007-6"
       style="color:#000000;fill:#cccccc;stroke:#999999;stroke-width:3.20576978;stroke-linecap:butt;stroke-linejoin:miter;stroke-miterlimit:4;stroke-opacity:1;stroke-dasharray:none;stroke-dashoffset:0;marker:none;visibility:visible;display:inline;overflow:visible;enable-background:accumulate" />
    <path
       d="m 1593.9062,110.3125 c -15.9281,0.19986 -31.3066,2.97652 -44.2812,9.0625 -2.8865,0.92603 -5.7039,1.93845 -8.4688,3 -22.6757,15.81897 -70.3464,33.7656 -82.5937,107.25 0,0 0.4474,-1.33328 5.375,-1.78125 -0.2238,-5.8206 2.114,-29.32769 18.2187,-53.28125 -0.6561,0.29615 -1.1553,0.37826 -1.3437,0.15625 -0.4066,-0.47911 0.7266,-2.12937 2.5625,-3.6875 0.9162,-0.77759 1.8229,-1.35778 2.5625,-1.71875 16.8661,-22.20057 46.2679,-43.71922 97.1563,-50.78125 -55.0553,7.94913 -86.8981,38.93948 -102,67.125 10e-5,0.93921 -0.6874,2.51091 -1.8438,4.09375 -0.1968,0.2694 -0.3907,0.53947 -0.5938,0.78125 -6.1065,12.8706 -8.7103,24.82242 -8.4374,33.28125 -3e-4,0 2.2288,-0.89579 3.125,-1.34375 2.5855,-28.2284 17.9279,-54.48097 41.625,-72.6875 -1.3097,0.34206 -2.363,0.27293 -2.5938,-0.25 -0.3077,-0.69724 0.9568,-1.91717 2.8438,-2.75 0.943,-0.41641 1.8746,-0.67435 2.5937,-0.71875 0.7191,-0.0444 1.2522,0.12013 1.4063,0.46875 0.017,0.0383 -0.01,0.0836 0,0.125 8.6559,-6.05107 18.3181,-11.065 28.7812,-14.78125 0.05,-0.77482 1.2208,-1.71383 2.9688,-2.28125 0.7958,-0.25846 1.5905,-0.3998 2.3124,-0.4375 0.8884,-0.0463 1.6446,0.0726 2.125,0.34375 0.01,0.004 0.024,-0.005 0.031,0 18.126,-5.18306 38.3868,-6.57721 59.9063,-2.90625 20.611,3.51604 39.0327,10.35422 54.4687,19.625 0.015,0.009 0.047,-0.009 0.062,0 0.74,0.0562 1.6882,0.34976 2.6875,0.875 1.5383,0.80863 2.7464,1.93584 3.1563,2.84375 9.1329,6.17805 17.0319,13.29949 23.5312,21.125 0.5833,0.32941 1.2191,0.76814 1.8438,1.34375 1.704,1.57069 2.7601,3.42764 2.5937,4.40625 16.6589,23.42533 21.2493,52.44748 8.875,82.40625 0,0 3.125,2.68764 3.125,1.34375 25.534,-68.98644 -24.6403,-114.69584 -77.5,-134.40625 10.6133,3.23984 20.1278,6.96381 28.5937,11.125 -0.4664,-0.48033 -0.74,-0.92794 -0.6562,-1.21875 0.058,-0.20032 0.2516,-0.31189 0.5625,-0.3125 0.5182,-0.001 1.3347,0.28904 2.1875,0.78125 1.3645,0.78753 2.3415,1.84083 2.1875,2.375 -0.055,0.1921 -0.2409,0.30085 -0.5313,0.3125 31.8678,16.75798 48.1424,39.87612 53.7188,65.3125 -0.014,-0.50319 0.082,-0.87422 0.2812,-1.03125 0.072,-0.0567 0.1572,-0.0949 0.25,-0.0937 0.6486,0.007 1.7625,1.36483 2.6563,3.34375 1.0215,2.26163 1.3579,4.48326 0.7813,4.9375 -0.5773,0.45424 -1.8537,-1.01962 -2.875,-3.28125 -0.2512,-0.5557 -0.4574,-1.1026 -0.625,-1.625 0.9922,5.12729 1.5679,10.35345 1.75,15.625 0.8116,0.43931 1.7372,1.50222 2.4687,3 0.4235,0.86707 0.7061,1.74864 0.875,2.5625 0.7565,-13.30179 -0.8519,-23.91769 -4.3437,-33.34375 -0.731,-0.2571 -1.7272,-1.13848 -2.6563,-2.4375 -1.3833,-1.93416 -2.05,-4.01277 -1.5,-4.65625 0.1375,-0.1609 0.3481,-0.2253 0.5937,-0.1875 0.1436,0.0221 0.2993,0.10367 0.4688,0.1875 -7.3802,-14.86339 -19.615,-27.58608 -34.4688,-45.25 6.1404,5.79917 13.8563,12.6433 21.5313,20.125 -5.7118,-6.3412 -11.0741,-12.32276 -15.4375,-18.53125 -19.3368,-18.95259 -59.3734,-33.23487 -96.9062,-33.5625 -1.0665,-0.009 -2.1256,-0.0133 -3.1876,0 z m 20.375,12.28125 c 0.6768,-0.0378 1.5688,0.0289 2.5,0.21875 1.8633,0.37976 3.2021,1.09859 3,1.59375 -0.2014,0.49516 -1.8868,0.59851 -3.75,0.21875 -1.8626,-0.37976 -3.2016,-1.09859 -3,-1.59375 0.1011,-0.24758 0.5736,-0.3997 1.25,-0.4375 z m 25.75,5.59375 c 0.6726,-0.0939 1.9306,0.17876 3.25,0.71875 1.76,0.71999 2.9467,1.67606 2.6563,2.125 -0.2904,0.44894 -1.9593,0.21999 -3.7187,-0.5 -1.76,-0.71999 -2.9467,-1.67606 -2.6563,-2.125 0.073,-0.11223 0.245,-0.18745 0.4687,-0.21875 z m -41.625,5.34375 c -18.0499,-0.11587 -35.4869,3.6094 -51.0624,9.9375 -0.3431,0.20788 -0.7095,0.41079 -1.125,0.59375 -0.5392,0.23716 -1.0935,0.42394 -1.625,0.5625 -0.032,0.008 -0.062,0.0234 -0.094,0.0312 -17.0402,7.37517 -31.6572,17.88228 -42.1875,29.84375 0.5196,-0.22356 1.0201,-0.36841 1.5,-0.40625 0.7678,-0.0605 1.4585,0.1337 1.9375,0.59375 0.3326,0.31946 0.5403,0.73468 0.625,1.21875 20.7421,-24.11533 58.5722,-43.6987 105.8438,-38.09375 48.6739,5.77125 76.9552,37.49239 89,65.84375 0.8397,0.16127 1.7517,0.60402 2.6562,1.3125 2.2599,1.77016 3.4714,4.54115 2.7188,6.21875 -0.3723,0.82935 -1.1577,1.23633 -2.125,1.21875 6.0764,19.10589 4.4253,35.06536 -3.5626,37.84375 0.4483,3.58371 4.0313,3.59375 4.0313,3.59375 15.4714,-16.95902 4.0599,-59.41319 -27.6563,-89.03125 -0.676,-0.006 -1.4448,-0.12205 -2.2812,-0.375 -2.4701,-0.74703 -4.437,-2.34762 -4.375,-3.5625 0.026,-0.5062 0.3976,-0.87012 1,-1.0625 -14.7864,-12.17402 -33.3488,-21.46031 -55.125,-24.8125 -0.6422,0.0322 -1.3264,-0.0126 -2.0312,-0.15625 -0.3841,-0.0783 -0.7288,-0.19289 -1.0626,-0.3125 -5.0344,-0.63811 -10.0314,-0.96811 -15,-1 z m 90.625,13.375 c 0.4856,-0.0868 1.41,0.25591 2.375,0.9375 1.2873,0.90879 2.1709,2.07586 1.9688,2.59375 -0.2021,0.51789 -1.4317,0.19004 -2.7188,-0.71875 -1.2867,-0.90879 -2.1708,-2.07586 -1.9687,-2.59375 0.051,-0.12945 0.182,-0.18985 0.3437,-0.21875 z m -96.0937,5.65625 c -6.076,0.0686 -12.1342,0.68645 -18.0625,1.75 0.099,0.2612 0.1726,0.52685 0.1875,0.8125 0.099,1.90434 -1.8169,3.52607 -4.3125,3.65625 -2.2111,0.11534 -4.1159,-0.98656 -4.5938,-2.5625 -11.7703,3.0469 -22.7489,7.81982 -32.0624,13.59375 0.096,-0.004 0.1871,-0.0341 0.2812,-0.0312 0.8004,0.0242 1.5376,0.27851 2.0938,0.8125 1.2028,1.1555 1.1891,3.20876 0.125,5 19.3404,-10.07542 46.8447,-15.08216 69.7812,-13.84375 -0.8129,-0.74022 -1.244,-1.68298 -1.0938,-2.59375 0.2532,-1.53085 2.0647,-2.5165 4.25,-2.4375 0.3126,0.0112 0.6451,0.037 0.9688,0.0937 2.59,0.45381 4.4456,2.25046 4.1562,4 -0.1014,0.61523 -0.4693,1.12432 -1,1.53125 4.9502,0.59362 9.5967,1.51241 13.7813,2.78125 18.3325,5.55866 34.3023,15.36163 46.125,26.25 0.7627,0.0313 1.6008,0.2718 2.4375,0.71875 2.2038,1.17722 3.6933,3.45022 3.6875,5.4375 0,0.0105 10e-5,0.0207 0,0.0312 16.4981,18.0607 21.3385,37.39324 6.875,44.625 -0.448,4.03167 5.375,4.46875 5.375,4.46875 20.1408,-16.72707 -6.1248,-56.29216 -43.875,-78.375 -0.5803,1.18383 -2.1594,1.7035 -4,1.15625 -2.2654,-0.67354 -4.0215,-2.6797 -3.9375,-4.5 0.015,-0.31582 0.073,-0.61741 0.1875,-0.875 -9.5883,-4.78914 -19.734,-8.35245 -29.9063,-10.125 -5.7803,-1.0073 -11.6248,-1.44094 -17.4687,-1.375 z m -63.5313,20.3125 c -16.8315,11.80471 -26.7241,26.9252 -22.9062,40.1875 1.3439,0.89593 6.7188,0 6.7188,0 -3.8822,-14.14532 4.2282,-25.84461 18.125,-34.5 -0.6747,-0.0803 -1.2999,-0.3189 -1.7813,-0.78125 -1.1912,-1.144 -1.1812,-3.13583 -0.1563,-4.90625 z m 60.0938,2.15625 c -34.0115,0.27588 -49.7941,12.76909 -54.3438,16.96875 -5.8233,5.37557 -8.5224,13.89508 7.1563,21.0625 0,0 8.5305,-0.0103 15.25,-0.90625 -21.5023,-2.23983 -17.0238,-21.93666 10.75,-30 11.951,-3.46964 24.8369,-3.6978 37.25,-2.03125 -1.1543,-1.01741 -1.8106,-2.61838 -1.625,-4.34375 0.01,-0.0534 0.024,-0.10342 0.031,-0.15625 -5.1472,-0.43797 -9.9726,-0.63022 -14.4688,-0.59375 z m 23.7188,1.59375 c 0,0.0532 0.01,0.10284 0,0.15625 -0.202,1.8748 -1.3716,3.3812 -2.9063,4.0625 22.7953,3.96795 43.3341,13.94378 52.5313,21.46875 11.8588,9.70292 12.5415,21.958 10.75,25.09375 -1.7921,3.13575 -7.6447,3.5625 -18.8438,3.5625 0,0 3.6142,2.6875 6.75,2.6875 3.1357,0 11.2103,2.45735 18.8125,-1.34375 5.3755,-2.68778 0.5793,-22.00901 -7.625,-30 -5.2505,-5.11397 -14.9695,-11.17747 -25.6875,-16.0625 -0.9963,0.84089 -2.635,1.09842 -4.4375,0.5625 -2.318,-0.6892 -4.2073,-2.49222 -4.8125,-4.375 -5.2025,-1.91196 -10.4085,-3.42747 -15.25,-4.3125 -3.2019,-0.58531 -6.2845,-1.09135 -9.2812,-1.5 z m -115.4688,3.46875 c -9.378,12.57276 -14.2275,26.39033 -12.75,39.6875 1.3439,0 4.0312,-1.34375 4.0312,-1.34375 -0.827,-10.89264 3.4452,-23.53687 11.9376,-35.59375 -1.0536,0.25975 -2.0062,0.12578 -2.625,-0.46875 -0.556,-0.53373 -0.7218,-1.35633 -0.5938,-2.28125 z m 103.3125,9.625 c -30.1808,0.26559 -57.4524,17.5081 7.5625,29.625 86.1294,16.05205 39.4172,-24.7358 1.7812,-29.125 -3.0853,-0.35986 -6.2215,-0.52748 -9.3437,-0.5 z m 127.625,6.78125 c 7.1674,14.33484 10.3597,28.68316 6.7187,40.3125 -3.7919,12.11244 -6.4074,22.14884 -6.7187,34.9375 0,0 2.6874,1.79157 4.0313,2.6875 -0.448,-9.40725 1.7913,-24.20743 5.375,-32.71875 3.5837,-8.51131 4.0326,-25.06038 -9.4063,-45.21875 z m -2.2187,32.96875 c -0.3366,11.61939 -2.3991,23.45122 -5.8438,35.125 0,0 0.8957,-0.0209 2.6875,0.875 3.4709,-13.36308 5.4854,-24.66279 6.2813,-34.53125 -0.053,0.0718 -0.092,0.16488 -0.1563,0.21875 -0.7122,0.59629 -1.9127,-0.14827 -2.9687,-1.6875 z"
       id="path3007-6-4"
       style="color:#000000;fill:#b3b3b3;stroke:none;marker:none;visibility:visible;display:inline;overflow:visible;enable-background:accumulate" />
    <path
       d="m 1758.0938,328.625 c 8.5553,-45.13585 -59.246,-95.89458 -151.4688,-113.375 -21.6147,-4.09697 -42.6604,-6.0028 -62.3125,-5.9375 -64.197,0.21332 -113.6373,21.44286 -120.1875,56 m 10.4375,1.97254 c 5.6395,-29.75282 49.9381,-48.41077 108.2187,-48.66004 19.4269,-0.0831 40.4064,1.80735 62.0313,5.90625 86.4996,16.39562 150.5194,62.45836 143,102.12879"
       id="path2987-58-7"
       style="color:#000000;fill:#cccccc;stroke:#999999;stroke-width:6.41153955;stroke-linecap:round;stroke-linejoin:miter;stroke-miterlimit:4;stroke-opacity:1;stroke-dasharray:none;stroke-dashoffset:0;marker:none;visibility:visible;display:inline;overflow:visible;enable-background:new" />
  </g>
</svg>
