<?xml version="1.0" encoding="UTF-8" standalone="no"?>
<!-- Created with Inkscape (http://www.inkscape.org/) -->

<svg
   xmlns:dc="http://purl.org/dc/elements/1.1/"
   xmlns:cc="http://creativecommons.org/ns#"
   xmlns:rdf="http://www.w3.org/1999/02/22-rdf-syntax-ns#"
   xmlns:svg="http://www.w3.org/2000/svg"
   xmlns="http://www.w3.org/2000/svg"
   version="1.1"
   width="560"
   height="560"
   id="hat_scumbag">
 
  <g
     transform="matrix(0.12982517,0,0,0.12982517,235.02587,131.4862)"
     id="g4475"
     style="display:inline;enable-background:new">
    <path
       d="m 220.16667,-78.071684 c 15.72881,-0.54237 21.69492,-13.01695 53.15254,-27.661016 31.45763,-14.64407 118.24089,-58.22627 152.40678,-57.49152 50.44068,1.08474 29.69298,22.85498 82.44068,3.79661 38.73176,-13.99425 30.91525,-25.49153 -3.25424,-24.40678 -31.5584,1.00186 -36.88136,-14.64407 -40.13559,-23.86441 -3.25424,-9.22034 -23.00077,-53.29218 -40.13559,-76.47458 -9.22034,-12.47457 -30.91526,-21.69491 -34.71187,-22.77966 -3.79661,-1.08474 -107.47486,3.04413 -148.06779,21.69492 -20.0678,9.22033 -33.08475,31.45762 -55.86441,55.32203 -11.38983,11.9322 -30.37288,41.22034 -11.38983,79.18644 13.15408,26.30816 37.42373,66.711866 45.55932,72.677966 z"
       id="path2987-2-5"
       style="color:#000000;fill:#844e30;fill-opacity:1;stroke:none;stroke-width:0.5;marker:none;visibility:visible;display:inline;overflow:visible;enable-background:accumulate" />
    <path
       d="m 477.22917,-189.69774 c -3.8158,10.21746 -9.29155,17.57635 -23.78125,22.40625 -9.98521,3.3284 -16.68275,4.05788 -21.65625,4.3125 42.69501,2.62677 25.88727,21.80432 76.375,3.5625 38.73176,-13.99425 30.91949,-25.491 -3.25,-24.40625 -13.27709,0.4215 -21.89819,-2.12135 -27.6875,-5.875 z"
       id="path2991-8-0"
       style="color:#000000;fill:#19120f;fill-opacity:1;stroke:none;stroke-width:0.5;marker:none;visibility:visible;display:inline;overflow:visible;enable-background:accumulate" />
    <path
       d="m 384.15625,-307.09375 c -1.47127,0.0204 -3.27559,0.0628 -5.21875,0.125 l -0.4375,4.6875 c 1.46571,0.53298 5.05994,2.46349 8,4.21875 2.94006,1.75526 5.375,3.34375 5.375,3.34375 l 0.75,0.46875 0.875,-0.0625 c 2.74816,-0.27482 4.39104,-2.09818 5.5,-3.125 1.10896,-1.02682 1.58102,-1.5 3.125,-1.5 l 0,-2.625 c -1.15901,-0.60952 -2.27767,-1.13901 -3.34375,-1.65625 -1.36713,0.58848 -2.42813,1.42188 -3.1875,2.125 -0.95876,0.88774 -1.49621,1.29243 -2.03125,1.53125 -0.71089,-0.4531 -2.04608,-1.31622 -4.5,-2.78125 -0.76123,-0.45447 -1.55899,-0.88928 -2.34375,-1.34375 2.30598,-0.58296 4.03125,-1.0625 4.03125,-1.0625 l -0.625,-2.125 c -0.0554,-0.0169 -0.13809,-0.0484 -0.1875,-0.0625 -0.47458,-0.13559 -2.50367,-0.20176 -5.78125,-0.15625 z m -24.65625,1.125 c -7.30304,0.47171 -15.50295,1.11161 -24.1875,1.9375 l 0,2.3125 c 2.90768,0 5.60422,0.0633 8.15625,0.1875 -1.35541,1.20745 -2.78198,2.39099 -5.0625,3.53125 -1.56049,0.78024 -2.84741,0.79961 -4.625,0.40625 -0.56296,-0.12458 -1.17593,-0.31174 -1.8125,-0.53125 -2.05319,-1.65919 -4.5199,-3.37686 -7.03125,-4.875 -1.55491,0.16963 -3.11792,0.34947 -4.6875,0.53125 l -0.0625,0.125 c -0.12377,-0.0307 -0.2499,-0.064 -0.375,-0.0937 -7.91583,0.92184 -15.96019,2.02944 -23.875,3.28125 -3.95314,2.31339 -7.18859,5.44869 -10.1875,9.21875 -3.34237,4.20184 -6.52994,9.16704 -10.46875,14.875 l -3.375,-2.03125 -1.625,-0.96875 -1.375,1.28125 c 0,0 -3.37186,3.14181 -7.28125,6.71875 -0.99556,-1.7598 -1.3216,-3.45752 -0.9375,-5.25 0.65683,-3.0652 0.49628,-5.89125 -0.59375,-8.28125 -1.09003,-2.39 -3.17253,-4.20354 -5.71875,-5.0625 -0.53112,-0.17917 -1.08828,-0.32941 -1.65625,-0.4375 l -0.125,-0.28125 c -3.89826,1.29286 -7.52298,2.65667 -10.71875,4.125 -9.9296,4.56225 -18.14233,12.31867 -26.65625,21.875 -0.27498,0.34805 -0.57032,0.68212 -0.84375,1.03125 -0.0203,-0.0125 -0.0426,-0.0192 -0.0625,-0.0312 -0.65286,0.74023 -1.31052,1.48982 -1.96875,2.25 l -1.09375,1.75 c 0.021,0.0131 0.0415,0.0182 0.0625,0.0312 -1.7107,2.25012 -3.46184,4.54402 -5.28125,6.875 L 205.25,-251.75 c -1.06131,1.25922 -2.12431,2.48888 -3.21875,3.78125 l -0.125,0.3125 0.8125,0.3125 c -3.43485,4.1717 -7.30972,8.48762 -12.15625,13.03125 -1.71021,1.60332 -3.19766,2.97367 -4.46875,4.28125 -0.031,0.0325 -0.0627,0.0612 -0.0937,0.0937 -0.10987,0.1151 -0.23251,0.25668 -0.34375,0.375 -0.32147,0.34113 -0.64824,0.69595 -0.9375,1.03125 -1.4048,1.62841 -2.42373,3.2117 -3.03125,5.0625 -0.28925,0.8812 -0.43991,1.7682 -0.5,2.6875 l -1.875,-0.9375 c -7.47006,10.61237 -14.69375,26.69605 -12.28125,46.53125 1.32569,6.22704 3.7014,13.10442 6.3125,19.96875 -0.18348,0.11599 -0.39774,0.26597 -0.625,0.40625 0.58733,1.34447 1.19131,2.69511 1.875,4.0625 l 0.0625,0.125 0.21875,0.34375 c 0.0825,-0.0524 0.228,-0.13393 0.3125,-0.1875 0.58937,1.48466 1.1894,2.89505 1.78125,4.34375 3.33435,6.45796 7.19178,13.51963 11.21875,20.59375 -2.39072,-7.44983 -7.47322,-24.51578 -8.71875,-27.65625 2.90385,-1.81549 6.25768,-3.87038 10.3125,-6.34375 l 4.28125,8.78125 1.25,2.625 2.40625,-1.65625 c 0,0 0.62756,-0.4606 1.5625,-1.125 1.20931,5.49304 1.84071,11.81445 1.59375,19.59375 -0.11403,3.59177 -0.0633,6.88817 0.15625,9.96875 -0.86317,0.5885 -1.67509,1.28918 -2.34375,2.125 l -0.5,0.625 -0.0312,0.8125 c -0.21802,4.36033 0.84625,8.75213 2.25,12.65625 -0.018,0.0126 -0.0402,0.0219 -0.0625,0.0312 3.17338,5.09284 6.23025,9.795957 9.03125,13.84375 l 0.6875,-0.40625 1.25,-0.75 c 3.07642,4.424897 6.87186,8.96591 11.375,14.125 1.06112,-0.131942 2.10029,-0.316362 3.09375,-0.5625 l 1.71875,-1.5 C 222.63751,-85.884723 218.73265,-90.568172 215.625,-95 l 2.5625,-1.53125 1.59375,-0.96875 -0.4375,-1.78125 -2.59375,-10.53125 c 3.92428,-2.40532 8.29149,-4.99716 13.0625,-7.71875 1.08691,2.14925 2.30848,4.17449 3.625,6.09375 4.19241,6.11181 9.11712,11.542 13.375,19.6875 l 4.4375,-2.3125 c -4.56298,-8.72918 -9.75642,-14.48791 -13.6875,-20.21875 -1.27597,-1.86014 -2.41443,-3.72752 -3.40625,-5.6875 10.66411,-5.96671 23.08297,-12.50898 36.90625,-19.28125 l 5.46875,10.28125 1.1875,2.21875 2.21875,-1.1875 8.46875,-4.625 c 2.88912,5.99421 5.4516,11.53291 7.40625,16.09375 l 2.1875,-0.9375 c 0.80581,-0.38102 1.55135,-0.73651 2.375,-1.125 -2.01819,-4.70399 -4.62728,-10.34515 -7.5625,-16.4375 l 11,-6 2.1875,-1.1875 -1.1875,-2.1875 -4.59375,-8.53125 c 9.35462,-4.17432 19.09785,-8.32314 29.1875,-12.40625 l 5.125,10.21875 1.09375,2.1875 2.21875,-1.03125 9.125,-4.34375 c 2.04008,5.05345 4.02381,10.3465 5.90625,15.90625 l 3.59375,-1.21875 c 0.37276,-0.1526 0.75254,-0.28577 1.125,-0.4375 -1.94038,-5.72693 -3.95695,-11.19804 -6.0625,-16.40625 l 9.09375,-4.34375 2.25,-1.09375 -1.0625,-2.21875 -3.8125,-8.21875 c 8.40141,-3.05475 16.95939,-5.99582 25.625,-8.8125 l 4,9.3125 0.9375,2.125 2.1875,-0.75 7.625,-2.625 c 2.58134,6.08936 5.14361,11.77851 7.6875,16.5 0.78085,-0.18553 1.51963,-0.36332 2.28125,-0.53125 l 2.40625,-1.3125 c -2.46331,-4.50191 -5.05434,-10.14951 -7.65625,-16.28125 l 6.625,-2.28125 2.34375,-0.78125 -0.78125,-2.34375 -2.8125,-8.625 c 2.71523,-0.77398 5.42901,-1.54166 8.15625,-2.28125 l -1.3125,-4.84375 c -2.81359,0.76301 -5.60666,1.54521 -8.40625,2.34375 l -3.21875,-9.90625 -0.71875,-2.28125 -2.3125,0.625 -8.8125,2.4375 c -3.56826,-8.98643 -6.93208,-17.25965 -10.125,-23.15625 l 1.5,0.125 5,0.40625 -2.6875,-4.21875 -4.875,-7.75 c 1.46888,0.26568 2.82774,0.6221 4.03125,1.09375 L 386.5,-244.75 c -2.78534,-1.09156 -5.91888,-1.71996 -9.34375,-1.96875 l -4.625,-7.34375 -0.78125,-1.1875 -1.40625,0.0312 -5.90625,0.15625 c -4.16586,-6.78871 -7.6449,-13.71598 -9.03125,-19.78125 -0.47521,-2.07903 -1.20314,-3.94095 -2.09375,-5.625 l 14.0625,-4.59375 6.71875,-2.1875 -6.59375,-2.5 -8.03125,-3.0625 -1.15625,-4.0625 c -1.84586,0.52739 -3.56096,1.07332 -5.21875,1.625 l -6.375,-2.4375 c 1.02894,-0.91155 1.93596,-1.77872 2.78125,-2.46875 0.34676,-0.28307 0.6948,-0.55668 1.0625,-0.8125 1.26939,0.13545 2.48506,0.26733 3.65625,0.4375 l 4.375,2.375 13.875,7.46875 0.84375,0.4375 0.90625,-0.21875 3.5625,-0.78125 c 0.85708,0.72932 1.68851,1.47701 2.4375,2.25 0.0976,0.10073 0.18516,0.21074 0.28125,0.3125 -0.87852,0.31215 -1.7596,0.61834 -2.59375,0.875 l -4.5,1.375 3.6875,2.96875 c 2.8947,2.31575 5.51644,4.53948 6.96875,6.71875 -3.29381,1.53659 -6.69522,3.38015 -10.15625,5.6875 l 2.78125,4.15625 c 3.37287,-2.24858 6.67981,-4.01336 9.90625,-5.5 0.83528,1.00612 1.77501,1.84537 2.59375,2.6875 1.47678,1.51897 2.70968,2.98348 3.4375,5.3125 l 0.71875,2.3125 2.34375,-0.625 4.03125,-1.125 c 0.10685,0.093 0.20401,0.18858 0.3125,0.28125 8.51871,7.2764 13.23268,14.00024 17.625,21.5625 l -0.0312,0 -4.40625,0.28125 2.53125,3.625 6.78125,9.71875 c -4.45076,1.35381 -9.76974,2.65014 -16.15625,3.5625 l 0.71875,4.9375 c 7.37342,-1.05334 13.48409,-2.62992 18.4375,-4.21875 l 5.875,8.4375 1.15625,1.65625 1.375,-0.59375 c 0.45787,0.65733 0.89164,1.29676 1.375,1.96875 15.71703,21.85051 18.34711,25.50358 20.625,45.625 l 4.96875,-0.5625 c -2.32429,-20.53122 -5.8,-26.09848 -21.53125,-47.96875 -0.27071,-0.37636 -0.51893,-0.7222 -0.78125,-1.09375 1.41759,-0.63639 2.87491,-1.31246 3.8125,-1.78125 l 2.5,-1.28125 -1.53125,-2.34375 -4.65625,-7.125 c 0.70808,-0.21976 1.56022,-0.41672 2.46875,-0.625 l 4.3125,7.84375 1.15625,2.09375 2.15625,-1.0625 8.5,-4.28125 c -0.14768,-0.32211 -0.31783,-0.6726 -0.46875,-1 l -1.71875,-3.46875 -6.40625,3.21875 -2.46875,-4.53125 c 0.10175,-0.0258 0.21151,-0.0362 0.3125,-0.0625 1.66779,-0.43508 3.241,-0.9315 4.65625,-1.875 0.61093,-0.40729 1.20209,-1.01075 1.65625,-1.71875 -0.46578,-0.96705 -0.95397,-1.94834 -1.4375,-2.9375 l -2.6875,0.34375 c -0.0433,0.0101 -0.10893,0.0414 -0.28125,0.15625 -0.51695,0.34463 -1.70539,0.80902 -3.15625,1.1875 -0.50057,0.13058 -1.04771,0.25622 -1.59375,0.375 l -4.125,-7.53125 7.09375,-2.28125 -1.46875,-4.53125 c -0.0408,-0.0783 -0.0528,-0.17172 -0.0937,-0.25 l -9.9375,3.21875 -2.90625,0.9375 1.46875,2.65625 4.90625,8.9375 c -0.94653,0.25431 -1.87911,0.54346 -2.75,0.90625 l -5.34375,-8.15625 -0.8125,-1.21875 -1.4375,0.0937 -5.09375,0.34375 c -0.17465,-0.30954 -0.3555,-0.62948 -0.53125,-0.9375 -4.32653,-7.58257 -9.10894,-14.75226 -17.1875,-22.125 l 0.5,-0.125 3.59375,-1 -2.28125,-2.9375 -6.375,-8.3125 c 0.745,-0.24593 1.51578,-0.50526 2.25,-0.75 1.42662,-0.47554 2.6752,-0.93817 3.84375,-1.40625 3.00943,3.07897 6.28569,6.41069 7.9375,8.0625 l 0.9375,0.9375 1.3125,-0.25 c 6.76082,-1.35216 10.61584,-2.26777 13.21875,-4.53125 -0.6281,-0.97499 -1.2803,-1.90931 -1.90625,-2.84375 l -1.125,-1.125 c -0.87662,0.87662 -3.97729,2.01621 -9.875,3.28125 -1.63901,-1.65291 -3.44086,-3.52336 -5.46875,-5.59375 0.34335,-0.13018 0.69536,-0.26049 1.03125,-0.375 2.73631,-0.93283 5.33684,-1.41074 9.625,-0.90625 l 0.34375,-2.84375 c -0.68167,-0.78842 -1.4223,-1.55523 -2.1875,-2.3125 -1.47831,-0.0607 -2.86363,-0.0175 -4.125,0.125 -1.93242,0.21829 -3.63511,0.63697 -5.25,1.1875 -1.11254,0.37927 -2.18294,0.80375 -3.25,1.25 -0.93391,-0.95741 -2.24006,-2.28368 -2.90625,-2.96875 0.88427,-0.45493 1.72824,-0.94678 2.40625,-1.375 1.62345,-1.02534 2.85883,-1.7873 5.5625,-1.9375 l -0.15625,-2.6875 c -0.94905,-0.67021 -1.94021,-1.28118 -2.90625,-1.90625 -2.23555,0.54462 -3.91226,1.50709 -5.1875,2.3125 -1.75739,1.10993 -2.67723,1.80507 -4.53125,1.9375 l -5.34375,0.375 3.71875,3.84375 c 0,0 2.40325,2.47805 4.3125,4.4375 -0.52632,0.19606 -1.02454,0.40402 -1.59375,0.59375 -1.23844,0.41281 -2.57051,0.84971 -3.875,1.28125 l -6.8125,-8.875 -1.1875,-1.53125 -1.78125,0.78125 c 0,0 -1.29116,0.5473 -2.46875,1.03125 -0.54272,-0.62686 -1.0923,-1.26073 -1.6875,-1.875 -0.0302,-0.0312 -0.0634,-0.0626 -0.0937,-0.0937 l 0.0937,-0.0312 6.5625,-1.46875 -5.90625,-3.1875 -13.875,-7.46875 -0.84375,-0.4375 -0.90625,0.21875 -5.46875,1.21875 c -1.19911,-0.31673 -2.44084,-0.60419 -3.75,-0.875 z m -46.9375,7.5625 c 5.14395,0.0448 9.12908,1.54125 12.84375,3.0625 1.36586,0.55935 2.69985,1.13115 4.03125,1.625 0.70336,0.58307 1.32861,1.14111 1.8125,1.625 l 0.0312,0.0312 c 0.19566,0.19343 0.38953,0.36627 0.59375,0.53125 l -8.375,5.25 -3.96875,2.5 4.3125,1.90625 2.15625,0.9375 c -1.55297,1.16888 -3.088,2.34903 -4.625,3.53125 -7.87799,6.05955 -16.38552,12.29755 -33.71875,18.65625 -0.86233,-0.0328 -1.73702,-0.0619 -2.65625,-0.0312 -1.21436,0.0405 -2.55049,-0.047 -3.9375,-0.25 l 5.03125,-6.21875 1.84375,-2.21875 -2.5,-1.5 -5.8125,-3.5 c 3.91019,-5.68951 6.97854,-10.53731 10.03125,-14.375 4.84305,-6.0884 9.30496,-9.63338 17.34375,-11.0625 2.00538,-0.35651 3.84785,-0.51493 5.5625,-0.5 z m 31.53125,5.0625 L 346,-292.625 c -1.13988,0.47382 -2.23245,0.95127 -3.28125,1.4375 -0.3598,-0.21954 -0.71167,-0.42314 -1.0625,-0.625 z m 8.90625,3.375 6.125,2.34375 -8.71875,2.875 c -0.9689,-1.14313 -1.99707,-2.14634 -3.0625,-3.0625 1.74673,-0.73238 3.62756,-1.4515 5.65625,-2.15625 z m -16.21875,1.21875 c 0.18771,0.0993 0.37094,0.20943 0.5625,0.3125 -2.41133,1.34166 -4.60974,2.69493 -6.65625,4.09375 l -0.53125,-0.21875 z m 5.46875,3.28125 c 1.0052,0.72012 1.98489,1.52494 2.90625,2.40625 l -6.625,2.1875 -2.4375,-1.0625 c 1.89565,-1.19848 3.90783,-2.39621 6.15625,-3.53125 z m 41.53125,0.75 c 0.26545,0.36309 0.52272,0.72335 0.78125,1.09375 -0.36025,-0.32607 -0.72413,-0.65233 -1.09375,-0.96875 0.11312,-0.0437 0.20034,-0.0821 0.3125,-0.125 z m -133.625,0.40625 c 1.03673,0.0106 1.90862,0.16458 2.625,0.40625 1.43275,0.48334 2.25333,1.21748 2.78125,2.375 0.52792,1.15752 0.71247,2.88348 0.21875,5.1875 -0.72773,3.3961 0.16353,6.71937 1.9375,9.5 0.0474,0.0743 0.10762,0.14505 0.15625,0.21875 -2.0315,1.82656 -4.07686,3.62047 -5.8125,5.09375 -2.15049,1.82542 -4.21305,3.2784 -4.28125,3.3125 -0.29735,0.14868 -0.64458,0.37029 -1,0.78125 -0.35542,0.41096 -0.65625,1.11501 -0.65625,1.8125 0,1.39497 0.75387,1.99143 1.1875,2.34375 0.86725,0.70464 1.64123,0.96312 2.65625,1.34375 0.73565,0.27587 1.59971,0.53759 2.5,0.8125 -1.79935,1.11864 -3.61286,2.21288 -5.4375,3.28125 -0.0943,-0.0422 -0.18577,-0.0835 -0.28125,-0.125 -4.23664,-1.8396 -10.54651,-2.94967 -14.5625,-5.125 -2.52538,-1.36791 -4.52864,-2.39798 -6.3125,-3.28125 l 4.9375,-6.1875 1.90625,-2.40625 -2.75,-1.375 -3.9375,-1.96875 c 5.21007,-5.43801 11.52541,-10.56925 20.75,-15.625 1.24223,-0.24565 2.39011,-0.38511 3.375,-0.375 z M 348.5,-278.875 c 0.87996,1.49917 1.58773,3.18463 2.03125,5.125 1.40628,6.15248 4.43327,12.612 8.09375,18.875 l -6.75,0.1875 -4.3125,0.15625 2.28125,3.65625 4.125,6.71875 c -4.84025,1.13655 -9.92743,2.56548 -15.25,4.28125 -3.78469,1.22002 -7.68061,2.58764 -11.65625,4.0625 l -4.34375,-8.3125 -1.125,-2.15625 -2.1875,1.09375 -10.03125,4.90625 c -0.3202,-0.68912 -0.62049,-1.36447 -0.90625,-2.03125 -2.37892,-5.5508 -4.95679,-9.81134 -8.75,-12.65625 -1.01022,-0.75767 -2.08855,-1.38039 -3.25,-1.90625 13.367,-5.67695 21.11194,-11.3437 27.9375,-16.59375 2.30797,-1.77524 4.49785,-3.49651 6.78125,-5.15625 l 6.21875,2.71875 0.875,0.375 0.90625,-0.3125 z m 47.4375,2.75 5.15625,6.71875 c -2.08624,-2.09728 -3.80943,-4.32859 -5.40625,-6.625 0.0841,-0.0294 0.16605,-0.0645 0.25,-0.0937 z m -125,4.28125 1.46875,0.875 c -1.44132,2.01006 -2.96695,4.07804 -4.65625,6.25 -0.1178,0.15146 -0.22618,0.28902 -0.34375,0.4375 -0.91991,-0.62126 -1.7924,-1.25479 -2.5625,-1.9375 2.96578,-2.71023 5.24974,-4.83312 6.09375,-5.625 z m 5.78125,3.46875 3.6875,2.21875 -4.75,5.8125 c -1.29014,-0.41876 -2.57179,-0.90422 -3.8125,-1.46875 1.77292,-2.28528 3.37523,-4.46161 4.875,-6.5625 z m -54.15625,3.90625 2.40625,1.21875 -3.6875,4.65625 c -0.85241,-0.41424 -1.68139,-0.82739 -2.5,-1.25 0.55079,-0.69905 1.09717,-1.40808 1.65625,-2.09375 0.69417,-0.85135 1.40803,-1.6969 2.125,-2.53125 z m 38.5625,1.625 c 0.92385,0.85035 1.93893,1.63389 3,2.375 -2.10635,2.24015 -4.21108,4.06681 -6.28125,5.65625 -1.73782,-0.45792 -3.28357,-0.90635 -4.625,-1.34375 0.69277,-0.5664 1.19124,-0.82294 2.0625,-1.5625 1.77509,-1.50676 3.81176,-3.30255 5.84375,-5.125 z m 7.40625,5 c 1.21402,0.61557 2.47803,1.16864 3.75,1.65625 l -2.90625,3.59375 c -0.23674,0.084 -0.48354,0.16576 -0.71875,0.25 -0.87424,-0.17662 -2.47447,-0.50831 -4.6875,-1 1.51205,-1.33164 3.03353,-2.82012 4.5625,-4.5 z m -52.84375,2 c 0.80679,0.42687 1.60494,0.85656 2.40625,1.25 l -4.71875,5.9375 -2.46875,-0.9375 c 1.65276,-2.13965 3.23652,-4.21893 4.78125,-6.25 z m 72.78125,2.125 c 3.57589,0.24757 6.12745,1.15809 8.25,2.75 2.72655,2.04491 4.93298,5.43736 7.15625,10.625 0.31921,0.74483 0.67741,1.48681 1.03125,2.25 l -9.90625,4.8125 -2.46875,1.21875 1.4375,2.34375 3.71875,6.125 c -7.86088,3.57241 -15.80603,7.38739 -23.71875,11.34375 -1.48358,0.74179 -2.95845,1.49981 -4.4375,2.25 l -3.15625,-6.875 -1.0625,-2.3125 -2.28125,1.09375 -11.09375,5.28125 c -2.71435,-4.81789 -5.01106,-8.84932 -6.1875,-10.6875 -1.69238,-2.64435 -3.51862,-4.47673 -5,-5.8125 -1.29048,-1.16364 -2.03132,-1.83391 -2.3125,-2.125 0.72536,-0.74529 2.7225,-2.20194 6.125,-4.28125 1.59624,-0.97548 2.85038,-1.86605 3.84375,-2.75 6.16469,-2.96528 12.95884,-5.87574 20.59375,-8.65625 0.0654,0.0134 0.5625,0.125 0.5625,0.125 l 1.5,0.28125 0.9375,-1.15625 0.375,-0.4375 c 2.47486,-0.86094 5.00201,-1.73063 7.65625,-2.5625 3.00545,-0.94194 5.8198,-1.89466 8.4375,-2.84375 z m -65.78125,1.34375 c 1.99828,0.96993 4.19824,2.07092 7.125,3.65625 3.77417,2.04434 8.32286,3.23958 11.71875,4.25 -3.77755,2.51309 -7.58357,5.59214 -11.3125,10 -5.50164,3.19527 -10.52862,6.37779 -15.28125,9.4375 -9.00346,5.79638 -17.04861,11.14795 -25.78125,15.5625 -0.19933,-0.68553 -0.4306,-1.37339 -0.71875,-2.09375 -2.24621,-5.61551 -2.68092,-8.26933 -2,-10.34375 0.68092,-2.07442 2.99114,-4.49365 7.53125,-8.75 5.54813,-5.20138 9.89553,-10.12484 13.6875,-14.8125 l 5.65625,2.125 1.71875,0.65625 1.125,-1.4375 z m 146.34375,2.1875 2.15625,3.40625 c -0.42105,0.0182 -0.85318,0.0354 -1.28125,0.0625 -0.78831,-1.13734 -1.57006,-2.27181 -2.34375,-3.4375 z m -7.40625,0.21875 c 0.83384,1.29835 1.67247,2.58155 2.53125,3.84375 -1.62422,0.22725 -3.29654,0.51742 -5,0.84375 l -2.78125,-4.53125 z m -102.6875,0.59375 c 0.40852,0.0993 0.81378,0.18506 1.21875,0.28125 -1.4489,0.58181 -2.86151,1.15992 -4.25,1.75 1.00282,-0.63814 2.01108,-1.31041 3.03125,-2.03125 z m 114.53125,7.65625 c 0.29794,-0.003 0.61435,-0.002 0.90625,0 l 4.28125,6.71875 -0.21875,-0.0312 c -0.0301,-0.0401 -0.0637,-0.0854 -0.0937,-0.125 -1.53651,-2.0254 -3.1954,-4.25556 -4.875,-6.5625 z M 367.5,-241.375 c 1.46716,2.04115 2.88413,3.952 4.28125,5.8125 l -6.96875,-0.5625 -2.75,-4.46875 c 1.88642,-0.31293 3.69142,-0.5998 5.4375,-0.78125 z m -48.09375,1.71875 2.96875,5.625 c -2.65756,1.02946 -5.34668,2.09878 -8.0625,3.21875 -0.98291,-1.74264 -1.87126,-3.41004 -2.71875,-5.03125 z m 37.375,0.0312 4.4375,7.21875 0.6875,1.0625 1.25,0.0937 12.5,1 c 3.0874,5.01018 7.09357,14.46579 11.3125,24.96875 l -8,2.21875 -2.78125,0.78125 1.15625,2.625 4.28125,9.90625 c -8.71828,2.83607 -17.30681,5.83546 -25.75,8.90625 l -4.90625,-10.5625 -1.03125,-2.1875 -2.21875,0.96875 -9.28125,4 c -5.08574,-9.79283 -10.09918,-18.45538 -14.65625,-26.125 l 9.15625,-4.25 2.40625,-1.09375 -1.25,-2.3125 -4.6875,-8.96875 c 3.70813,-1.368 7.32463,-2.61559 10.84375,-3.75 5.83713,-1.88164 11.37658,-3.39902 16.53125,-4.5 z m 70.40625,2 4.03125,6.15625 c -0.48441,0.198 -1.0337,0.41861 -1.5625,0.625 -1.31501,-2.30869 -2.58761,-4.51285 -3.78125,-6.6875 z m -120.09375,3.96875 c 0.80923,1.56537 1.67614,3.16299 2.59375,4.8125 -2.44813,1.04092 -4.92759,2.08739 -7.40625,3.1875 l -2.625,-4.3437 z m -73.78125,3.21875 c 0.12731,0.50479 0.33167,0.97653 0.5625,1.34375 0.98249,1.56305 2.20817,2.30696 3.53125,3.5 1.32308,1.19304 2.78051,2.6629 4.15625,4.8125 1.01505,1.58602 3.23388,5.46077 5.875,10.15625 l -8.28125,3.9375 -2.34375,1.09375 1.21875,2.3125 4.0625,7.75 c -3.93578,2.14852 -7.79188,4.29454 -11.5625,6.40625 l -2,-7.3125 -0.59375,-2.25 -2.3125,0.46875 -4.34375,0.90625 c 0.17828,-8.08443 1.68359,-15.83213 5.40625,-22.875 2.21483,-4.19022 4.41869,-7.50279 6.625,-10.25 z m 91.40625,0.84375 3.75,7.15625 -7.25,3.375 c -1.5093,-2.53213 -3.053,-5.05855 -4.40625,-7.375 2.667,-1.09528 5.30357,-2.15249 7.90625,-3.15625 z M 434,-227.1875 l 3.59375,5.46875 c -0.8302,0.37722 -1.30125,0.57942 -1.875,0.84375 -1.26247,-1.91947 -2.44455,-3.78922 -3.53125,-5.59375 0.63822,-0.25349 1.24432,-0.48146 1.8125,-0.71875 z m -210.65625,2.71875 c -0.35585,0.63164 -0.70919,1.26908 -1.0625,1.9375 -4.36052,8.24964 -5.92884,17.1765 -6,26.25 l -3.6875,0.78125 -2.03125,0.40625 0.0625,2.09375 0.28125,15.0625 c -2.63194,1.53301 -5.04382,2.95468 -7.5,4.40625 l -4.875,-9.78125 -1.34375,-2.6875 -2.375,1.78125 -3.46875,2.59375 c -3.31916,-6.34793 -2.91061,-10.06913 -2.21875,-14.3125 0.40626,-2.49174 0.94859,-5.23435 0.84375,-8.34375 9.63336,-4.71981 18.23954,-10.50007 27.65625,-16.5625 1.86537,-1.20091 3.77212,-2.40285 5.71875,-3.625 z m 88.8125,0 c 1.38289,2.3908 2.90216,4.97882 4.4375,7.5625 l -7.03125,3.28125 -4.65625,-7.71875 c 2.4316,-1.07554 4.85239,-2.10888 7.25,-3.125 z m -131,4.46875 c -0.002,2.89406 0.98935,6.11401 2.65625,10.28125 0.34535,0.86339 0.59004,1.66332 0.78125,2.4375 -3.36117,1.51833 -6.8739,2.8885 -10.59375,4.09375 1.68981,-5.51545 4.04881,-10.5784 7.15625,-16.8125 z m 119.125,0.71875 6.15625,10.15625 1.15625,1.9375 2.03125,-0.96875 9.53125,-4.4375 c 4.56431,7.68343 9.60063,16.29283 14.65625,25.96875 l -9.96875,4.28125 -2.40625,1.0625 1.15625,2.375 4.5625,9.09375 c -10.13676,4.1033 -19.94984,8.2738 -29.34375,12.46875 l -4.40625,-8.15625 -1.03125,-1.9375 -2.0625,0.78125 -11.25,4.3125 c -2.78689,-5.39575 -5.61838,-10.82646 -8.40625,-16.09375 -1.73245,-3.27323 -3.365,-6.29883 -5.03125,-9.40625 l 8.71875,-7.0625 1.5,-1.21875 -0.78125,-1.78125 -3.46875,-7.5625 c 1.53139,-0.77725 3.05782,-1.54454 4.59375,-2.3125 8.04122,-4.02061 16.12559,-7.88941 24.09375,-11.5 z m -37.40625,6.8125 2.15625,4.75 c -2.66399,1.36978 -5.30422,2.77159 -7.9375,4.15625 -0.92683,-1.68581 -1.83808,-3.34631 -2.6875,-4.875 z m -13,6.1875 c 0.88063,1.58591 1.81194,3.29863 2.78125,5.0625 -2.07955,1.10635 -4.13846,2.20546 -6.1875,3.3125 l -2.84375,-5.40625 z m 149.8125,2.6875 2.4375,7.53125 c -1.81023,0.53048 -3.63468,1.04973 -5.4375,1.59375 -0.97012,-2.44897 -1.95097,-4.89572 -2.90625,-7.3125 -0.0213,-0.0538 -0.0412,-0.10249 -0.0625,-0.15625 z m -132.5625,0.40625 2.5625,5.625 -6.46875,5.21875 c -1.32231,-2.45075 -2.51301,-4.57619 -3.75,-6.84375 2.53732,-1.33431 5.09112,-2.68012 7.65625,-4 z M 184.96875,-202 c -0.14648,1.67921 -0.47287,3.35858 -0.78125,5.25 -0.74175,4.54938 -1.08324,10.21234 2.8125,17.59375 0.10672,0.20221 0.20585,0.39304 0.3125,0.59375 l -3.34375,2.5 -1.65625,1.21875 0.90625,1.875 4.34375,8.90625 c -3.84614,2.34337 -7.05553,4.34737 -9.90625,6.125 -4.03775,-10.82547 -7.1572,-21.706 -6.6875,-27.96875 0.33228,-4.4304 0.87225,-8.19351 1.59375,-11.625 4.40698,-1.28702 8.50832,-2.78108 12.40625,-4.46875 z m 203.875,1.40625 c 0.0899,0.22701 0.1913,0.42868 0.28125,0.65625 0.90453,2.28839 1.83053,4.61344 2.75,6.9375 -1.83719,0.5684 -3.67196,1.13748 -5.5,1.71875 L 383.03125,-199 z m -133.78125,3.75 c 1.37768,2.52561 2.70591,4.97032 4.1875,7.71875 l -5.75,4.65625 -4.71875,-9.03125 c 2.07376,-1.12085 4.17663,-2.22396 6.28125,-3.34375 z m -30.71875,4 1.6875,6.25 c -1.3767,0.77824 -2.71544,1.51342 -4.0625,2.28125 -0.3084,-2.64722 -0.51835,-5.29819 -0.625,-7.90625 z m 179.34375,1.53125 2.09375,6.4375 -4.59375,1.59375 c -0.88059,-2.13955 -1.77676,-4.30327 -2.65625,-6.5 1.71397,-0.5166 3.43602,-1.02724 5.15625,-1.53125 z m -187.3125,0.125 c 0.15884,3.19581 0.48353,6.37926 0.90625,9.5625 -0.4828,0.27776 -0.95931,0.53661 -1.4375,0.8125 l -0.1875,-10.21875 z m 28.03125,0.0937 6.09375,11.65625 1.40625,2.71875 2.375,-1.90625 7.375,-6 c 1.52099,2.83902 2.99528,5.57021 4.5625,8.53125 2.69903,5.09945 5.45319,10.33541 8.15625,15.5625 l -9.53125,3.65625 -2.65625,1 1.34375,2.5 5.15625,9.6875 c -13.60939,6.67502 -25.89817,13.10054 -36.5,19.03125 -0.95517,-2.91974 -1.57193,-6.20215 -1.75,-10.15625 -0.43342,-9.62445 -3.09659,-20.53222 -5.4375,-31.8125 l 8.4375,-2.90625 2.21875,-0.78125 -0.59375,-2.25 -3.1875,-11.625 c 4.07682,-2.28927 8.25765,-4.57219 12.53125,-6.90625 z m 149.3125,2.78125 c 0.89656,2.24329 1.8155,4.45915 2.71875,6.65625 l -5.125,1.75 -2.90625,-6.71875 c 1.76794,-0.56142 3.53644,-1.13845 5.3125,-1.6875 z m -46.25,1.21875 3.71875,7.96875 c -2.26787,0.84026 -4.53849,1.64721 -6.78125,2.5 -1.22164,-2.5936 -2.45711,-5.11021 -3.6875,-7.5625 z m -11.375,4.90625 c 1.21054,2.39931 2.42389,4.83959 3.625,7.375 -2.65616,1.02777 -5.2901,2.08328 -7.90625,3.125 l -3.53125,-7.125 z m -108.71875,0.5625 2.21875,8.125 L 224,-171.5938 c -0.37921,-1.96802 -0.7388,-3.92905 -1.0625,-5.90625 -0.0804,-0.49109 -0.14275,-0.97795 -0.21875,-1.46875 1.53497,-0.87826 3.08095,-1.76337 4.65625,-2.65625 z m -31.96875,3.21875 3.71875,7.4063 c -0.5826,0.34701 -1.08606,0.62801 -1.65625,0.96875 -1.20729,-2.42076 -2.44768,-4.77305 -3.71875,-7.125 z m 22.65625,2.09375 c 0.35412,2.13689 0.74845,4.26627 1.15625,6.375 l -3.125,1.0625 -0.125,-6.21875 c 0.691,-0.40064 1.39243,-0.81377 2.09375,-1.21875 z m 135.25,1.75 2.9375,6.34375 -6.65625,3.15625 c -1.00455,-2.37279 -2.03828,-4.67165 -3.0625,-6.9375 2.24484,-0.85357 4.51164,-1.72175 6.78125,-2.5625 z m -163.59375,0.4375 c 1.21331,2.23663 2.3854,4.42803 3.5,6.65625 -0.456,0.27482 -0.92884,0.54289 -1.375,0.8125 l -3.25,-6.625 z m 21.3125,1.90625 0.125,6.875 0.0625,3.4375 3.25,-1.125 5.71875,-1.9687 c 2.31259,11.1962 4.85832,21.70865 5.25,30.40625 0.21575,4.79094 1.08765,8.84045 2.375,12.4375 -4.45921,2.54313 -8.52473,4.96247 -12.28125,7.25 l -2.15625,-8.78125 -0.65625,-2.625 -2.5625,0.84375 c 0,0 -1.95957,0.66458 -4.25,1.65625 -0.0948,-2.28516 -0.1149,-4.70882 -0.0312,-7.34375 l 0,-0.0937 c 0.28044,-9.09706 -0.65045,-16.44891 -2.28125,-22.8125 2.10963,-1.59748 4.20383,-3.25477 5.5,-4.875 l 1,-1.25 -0.71875,-1.4375 -3.71875,-7.4375 c 1.75461,-1.03784 3.52785,-2.07484 5.375,-3.15625 z m 130.8125,2 c 1.08351,2.38443 2.12677,4.80655 3.1875,7.3125 l -7.125,3.40625 -3.8125,-7.65625 c 2.56616,-1.02143 5.14575,-2.05473 7.75,-3.0625 z m -140.5,3.71875 2.71875,5.40625 c -0.55014,0.52778 -1.24531,1.14051 -2.03125,1.8125 -0.73818,-2.16024 -1.53538,-4.20918 -2.40625,-6.1875 0.60645,-0.36283 1.09793,-0.66113 1.71875,-1.03125 z m -6,3.625 c 0.93841,2.15937 1.84857,4.39828 2.59375,6.78125 -0.20492,0.14017 -0.39656,0.26173 -0.6875,0.46875 l -3.1875,-6.5 c 0.41263,-0.2496 0.85998,-0.4958 1.28125,-0.75 z m 94.71875,1.6875 3.15625,5.90625 c -2.88386,1.30711 -5.73283,2.60268 -8.53125,3.90625 -1.08819,-2.15205 -2.19241,-4.31389 -3.3125,-6.5 z m -13.40625,5.125 c 1.17998,2.29969 2.32416,4.58255 3.46875,6.84375 -2.35698,1.11414 -4.68006,2.23734 -6.96875,3.34375 L 269.25,-153.2188 z m 18.96875,5.25 3.59375,6.65625 -8.59375,4.6875 c -1.1817,-2.41257 -2.39563,-4.85542 -3.65625,-7.375 2.83687,-1.32081 5.731,-2.64393 8.65625,-3.96875 z m -13.21875,6.125 c 1.3041,2.60338 2.5642,5.1418 3.78125,7.625 l -6.4375,3.5 -4.1875,-7.875 c 2.24455,-1.08384 4.53291,-2.15831 6.84375,-3.25 z m -73.1875,24.96875 1.84375,7.53125 c -1.06954,0.67143 -2.09795,1.3277 -3.09375,1.96875 -0.75093,-2.54951 -1.30036,-5.25264 -1.65625,-8.21875 0.4232,-0.22396 0.86069,-0.45692 1.3125,-0.65625 0.84316,-0.37198 0.92148,-0.36636 1.59375,-0.625 z m 3.09375,12.6875 1.71875,7.15625 -1.15625,0.6875 c -0.95652,-1.59869 -1.8166,-3.20136 -2.5625,-4.8125 -0.21326,-0.46065 -0.42739,-0.90909 -0.625,-1.375 0.842,-0.54595 1.72363,-1.08523 2.625,-1.65625 z"
       id="path3049-41"
       style="font-size:medium;font-style:normal;font-variant:normal;font-weight:normal;font-stretch:normal;text-indent:0;text-align:start;text-decoration:none;line-height:normal;letter-spacing:normal;word-spacing:normal;text-transform:none;direction:ltr;block-progression:tb;writing-mode:lr-tb;text-anchor:start;baseline-shift:baseline;color:#000000;fill:#31160c;fill-opacity:1;stroke:none;stroke-width:5;marker:none;visibility:visible;display:inline;overflow:visible;enable-background:accumulate;font-family:Sans;-inkscape-font-specification:Sans" />
    <path
       d="m 260.46875,-149.96875 c -1.57153,0.10626 -3.38295,0.7696 -5.28125,1.71875 -4.33898,2.16949 -17.71557,8.9767 -20.15625,10.875 -2.44068,1.89831 -4.28337,4.78495 -2.65625,9.9375 1.62712,5.15254 4.07045,9.50582 5.96875,13.03125 1.89831,3.52542 4.06833,3.24205 7.59375,1.34375 3.52543,-1.89831 20.95339,-11.63294 24.75,-13.53125 3.79661,-1.8983 1.77224,-7.56038 0.6875,-9.1875 -1.08475,-1.62712 -5.04406,-8.40488 -6.34375,-11.4375 -0.91526,-2.13559 -2.54196,-2.88662 -4.5625,-2.75 z m 0.21875,4.4375 c 0.54718,-0.0124 1.05913,0.31518 1.5625,1.25 1.31116,2.435 4.21594,8.05688 5.75,11.125 1.53407,3.06813 0.96586,2.6932 -1.71875,3.84375 -1.53406,-2.3011 -5.75289,-9.79554 -8.4375,-14.78125 0.95879,-0.47939 1.93178,-1.4169 2.84375,-1.4375 z m -18.5625,10.1875 c 1.89831,4.0678 6.78019,13.34164 7.59375,14.96875 -1.62712,1.35594 -3.57835,2.79074 -4.6875,3.28125 -1.66003,0.73413 -2.7447,-1.47339 -3.75,-3.4375 -0.52422,-1.02418 -2.72775,-5.87183 -3.8125,-8.3125 -1.08474,-2.44068 0.70079,-4.52227 4.65625,-6.5 z"
       id="path2989-65"
       style="color:#000000;fill:#bd9166;fill-opacity:1;stroke:none;stroke-width:0.5;marker:none;visibility:visible;display:inline;overflow:visible;enable-background:accumulate" />
  </g>
</svg>
