<?xml version="1.0" encoding="UTF-8" standalone="no"?>
<svg xmlns="http://www.w3.org/2000/svg" id="hat_magritte" width="560" height="560">
  <g id="g211443" style="display:inline;enable-background:new">
    <g id="g4317">
      <path id="path3650-1" d="M298.2 114c0-3.7.4-7.4 0-11.4-.3-4.4-2.7-12.5-17-12.4-14.4 0-16.5 8.5-16.6 12.4V114c11.6-2 22.6-1.4 33.6 0z" style="fill:#666666;fill-opacity:1;fill-rule:nonzero;stroke:#333333;stroke-width:15.17858219;stroke-miterlimit:4;stroke-dasharray:none;display:inline"/>
      <path id="path3650-1-5" d="M281.2 90.2H279c10.4.5 6 4 3 3.2-2.8-.7-5 0-6 2.3-.7 2.2-8 13.5-11.4 9.2v9c11.6-2 22.6-1.4 33.6 0 0-3.7.4-7.4 0-11.4-.3-4.4-2.7-12.5-17-12.4z" style="fill:#4d4d4d;fill-opacity:1;fill-rule:nonzero;stroke:none;display:inline"/>
    </g>
    <g id="g4309">
      <path id="path2995-6-68" d="M281 112.8c-5.7 0-11.3.5-16.8 1.4v1c5 1 11.8 1.8 17.6 2 6.4 0 12-1 16.5-2l.2-1c-6-1-12-1.4-17.6-1.4z" style="fill:#b3b3b3;fill-opacity:1;stroke:#808080;stroke-width:15.17858219px;stroke-linecap:butt;stroke-linejoin:miter;stroke-opacity:1;display:inline"/>
      <path id="path3293-6" d="M294.3 114c-4.3 0-15.6.7-25.8 2 4.2.5 9 1 13.3 1 6.4 0 12-.7 16.5-1.7l.2-1-2.5-.2h-1.7z" style="color:#000000;fill:#999999;stroke:none;marker:none;visibility:visible;display:inline;overflow:visible;enable-background:accumulate"/>
    </g>
    <g id="g4313">
      <path id="path3042-4-8" d="M303 114.4h-1c-5.2 1.3-12 2.7-20.2 2.7-8 0-18.4-1.7-22-2.5-3.6-.7-3.2 2.2-3 2.2 0 .5.6 1.4 1.3 2 2 1.7 3.8 3.4 6.4 3.7V121c0-.2 2-.5 3-.6 8.2-.7 9.4-.7 14.4-.6 5 0 11.3.3 15.4 1.2 1 .2 1.4.5 1.5.7v.7c4.5-1 7-3.2 8.2-4.8.4-.7-.4-.7-.4-.7s-.2-.2-.6-.2h1s-1-2.5-4-2.4z" style="fill:#666666;fill-opacity:1;stroke:#333333;stroke-width:15.17858219;display:inline"/>
      <path id="path3061-9" d="M257.7 115.7c-1.6 0-1 1.8.4 3 2 1.7 3.8 3.4 6.4 3.7V121c0-.2 2-.5 3-.6 8.2-.7 9.4-.7 14.4-.6 5 0 11.3.3 15.4 1.2 1 .2 1.4.5 1.5.7v.7c4.5-1 7-3.2 8.2-4.8.4-.7-.4-.7-.4-.7s-4-.7-7.7.2c-5.7 1.3-10.4 1.2-17.3 1-7 0-19.3-1-22.5-2.2l-1.5-.3z" style="fill:#4d4d4d;fill-opacity:1;stroke:none;display:inline"/>
    </g>
  </g>
</svg>
