<?xml version="1.0" encoding="UTF-8" standalone="no"?>
<!-- Created with Inkscape (http://www.inkscape.org/) -->

<svg
   xmlns:dc="http://purl.org/dc/elements/1.1/"
   xmlns:cc="http://creativecommons.org/ns#"
   xmlns:rdf="http://www.w3.org/1999/02/22-rdf-syntax-ns#"
   xmlns:svg="http://www.w3.org/2000/svg"
   xmlns="http://www.w3.org/2000/svg"
   version="1.1"
   width="560"
   height="560"
   id="hat_strainer_2_of_2">
  <g
     transform="matrix(0.15596879,0,0,0.15596879,32.320128,77.619081)"
     id="g5898"
     style="display:inline;enable-background:new">
    <g
       id="g5863">
      <path
         d="m 839.01218,315.5976 a 169.95731,90.684967 0 1 1 -339.91462,0 169.95731,90.684967 0 1 1 339.91462,0 z"
         transform="matrix(0.64288409,0.12185582,-0.12185582,0.64288409,1234.1809,-160.8378)"
         id="path2987-3-81"
         style="color:#000000;fill:#cccccc;stroke:#999999;stroke-width:6.41153955;stroke-linecap:round;stroke-linejoin:miter;stroke-miterlimit:4;stroke-opacity:1;stroke-dasharray:none;stroke-dashoffset:0;marker:none;visibility:visible;display:inline;overflow:visible;enable-background:new" />
      <path
         d="m 1595.375,64.90625 c -9.9821,0.0035 -18.9443,0.833815 -26.0938,2.40625 -36.5996,8.049668 -60.423,28.168129 -48.75,59.1875 12.289,24.33655 48.591,46.71461 94.2813,55.375 20.1958,3.82802 39.6468,4.48957 56.8437,2.46875 12.2694,-2.0963 18.912,-5.75989 24.5938,-8.15625 2.9258,-1.23399 32.8019,-5.10417 36.4688,-35.03125 3.8715,-31.60174 -39.7629,-52.11243 -54,-58.8125 -25.6614,-12.075898 -57.8339,-17.44632 -83.3438,-17.4375 z m -10.75,1.53125 c 1.0329,-0.0036 1.9671,0.05151 2.75,0.15625 l 1.125,31.46875 c -7.0687,0.95396 -14.8426,1.921045 -23.4375,2.875 l -5.1563,-28.625 c 5.0469,-3.294287 17.4883,-5.849561 24.7188,-5.875 z m 86.9688,14.21875 18.0624,8.875 -14.2812,26.59375 -10.125,-5.375 2.5312,-5.71875 -6.6562,-3.46875 10.4688,-20.90625 z m -143.5313,9.625 c 4.6804,-0.0164 6.7401,2.868919 8,4.96875 1.3439,2.23982 8.4895,12.09361 8.9375,13.4375 0.4479,1.34389 4.9273,1.34346 2.6875,4.03125 -2.2399,2.68778 -0.4272,4.03097 0.4687,6.71875 l -21.9687,10.75 c -10.3032,-16.1267 -7.157,-34.05147 0.9063,-39.875 0.3359,-0.028 0.6567,-0.03016 0.9687,-0.03125 z m 58.75,10.65625 -0.5937,2.84375 -24.0313,5.71875 0,-5.125 c 7.2606,-1.61648 14.3986,-3.3039 24.625,-3.4375 z m 73.375,4.09375 c 5.0681,1.58379 3.4687,5.40625 3.4687,5.40625 0,0 10.1577,8.85371 12.375,10.4375 2.2174,1.58379 -2.5312,2.84375 -2.5312,2.84375 l -15.8438,-10.125 5.375,-1.59375 -5.0624,-2.84375 2.2187,-4.125 z m 58.9063,8.5625 c 25.9737,28.825 3.8221,53.53702 -22.4688,62.40625 l -1.9062,-25.65625 c 4.1173,-3.48434 9.48,-14.89636 -0.6563,-20.28125 0,0 19.0129,-12.66765 25.0313,-16.46875 z"
         id="path3077-4-2"
         style="color:#000000;fill:#b3b3b3;stroke:none;marker:none;visibility:visible;display:inline;overflow:visible;enable-background:accumulate" />
    </g>
    <path
       d="m 1544.3125,209.3125 c -64.197,0.21332 -113.6373,21.44286 -120.1875,56 -8.5553,45.13585 59.2772,95.89458 151.5,113.375 92.2228,17.48042 173.9134,-4.92665 182.4688,-50.0625 8.5553,-45.13585 -59.246,-95.89458 -151.4688,-113.375 -21.6147,-4.09697 -42.6604,-6.0028 -62.3125,-5.9375 z m -65,16.78125 c 1.9027,0.0412 3.3795,2.05194 3.4375,4.90625 0.067,3.26206 -1.739,6.38241 -4.0312,7 -2.2924,0.61759 -4.2143,-1.51919 -4.2813,-4.78125 -0.067,-3.26206 1.7387,-6.41366 4.0313,-7.03125 0.2865,-0.0772 0.5719,-0.0998 0.8437,-0.0937 z m -9.3437,16.78125 c 1.8215,0.008 3.3545,2.17994 3.625,5.34375 0.3088,3.61578 -1.1677,7.14538 -3.3126,7.875 -2.1445,0.72962 -4.1287,-1.60297 -4.4374,-5.21875 -0.3089,-3.61578 1.1679,-7.14538 3.3124,-7.875 0.2682,-0.0912 0.5522,-0.126 0.8126,-0.125 z m -20.7188,0.875 c 1.543,-0.0706 2.804,2.46587 2.875,5.9375 0.076,3.70307 -1.2242,7.07784 -2.9062,7.53125 -1.6824,0.45341 -3.1115,-2.20318 -3.1876,-5.90625 -0.076,-3.70307 1.224,-7.07784 2.9063,-7.53125 0.1051,-0.0282 0.2096,-0.0263 0.3125,-0.0312 z m 11.125,17.0625 c 1.8295,-0.21057 3.6838,1.37055 4.5312,4.0625 1.0434,3.31317 0.1579,7.05881 -2,8.375 -2.1576,1.31619 -4.7695,-0.31183 -5.8124,-3.625 -1.0434,-3.31317 -0.1265,-7.05881 2.0312,-8.375 0.4046,-0.24679 0.8278,-0.3889 1.25,-0.4375 z m 17.4062,3 c 1.0496,-0.0434 2.3439,0.60599 3.5,1.84375 1.8503,1.98041 2.6161,4.72827 1.6876,6.15625 -0.9288,1.42798 -3.1811,0.98041 -5.0313,-1 -1.8502,-1.98041 -2.6163,-4.72827 -1.6875,-6.15625 0.3483,-0.53549 0.9017,-0.81775 1.5312,-0.84375 z m 0.063,14.8125 c 0.1652,-0.0166 0.3261,-0.0203 0.5,0 1.158,0.13514 2.4788,1.06657 3.5312,2.625 1.6839,2.49349 2.0169,5.65851 0.75,7.0625 -1.2669,1.40399 -3.6599,0.52474 -5.3438,-1.96875 -1.6837,-2.49349 -2.0168,-5.65851 -0.75,-7.0625 0.3564,-0.39488 0.8163,-0.60645 1.3126,-0.65625 z m 255.625,4.0625 c 0.397,-0.0137 0.7876,0.0662 1.1874,0.25 2.1331,0.98049 3.3372,4.55656 2.6876,7.96875 -0.6499,3.41219 -2.8983,5.38674 -5.0313,4.40625 -2.133,-0.98049 -3.3372,-4.55656 -2.6875,-7.96875 0.5279,-2.77241 2.1227,-4.59665 3.8438,-4.65625 z"
       id="path2987-58"
       style="color:#000000;fill:#cccccc;stroke:#999999;stroke-width:6.41153955;stroke-linecap:round;stroke-linejoin:miter;stroke-miterlimit:4;stroke-opacity:1;stroke-dasharray:none;stroke-dashoffset:0;marker:none;visibility:visible;display:inline;overflow:visible;enable-background:new" />
    <path
       d="m 1542.7812,218.625 c -23.2397,0.0994 -44.2432,3.03235 -61.4687,8.40625 0.8416,0.86205 1.4027,2.25651 1.4375,3.96875 0.067,3.26206 -1.739,6.38241 -4.0312,7 -2.2924,0.61759 -4.2143,-1.51919 -4.2813,-4.78125 -0.031,-1.51742 0.3602,-2.99308 1,-4.21875 -10.8418,3.94436 -19.9325,8.95841 -26.8125,14.90625 0.1019,-0.0505 0.2074,-0.0967 0.3125,-0.125 0.1051,-0.0282 0.2096,-0.0263 0.3125,-0.0312 1.543,-0.0706 2.804,2.46587 2.875,5.9375 0.076,3.70307 -1.2242,7.07784 -2.9062,7.53125 -1.6824,0.45341 -3.1115,-2.20318 -3.1876,-5.90625 -0.055,-2.69719 0.6044,-5.21563 1.625,-6.5625 -6.9763,6.31907 -11.5305,13.65916 -13.0937,21.90625 -7.5194,39.67043 56.5316,85.13563 143.0313,101.53125 86.4996,16.39562 162.6993,-2.48582 170.2187,-42.15625 2.191,-11.55897 -1.694,-23.60256 -10.4375,-35.28125 -0.01,0.0526 -0.021,0.10375 -0.031,0.15625 -0.6499,3.41219 -2.8983,5.38674 -5.0313,4.40625 -2.133,-0.98049 -3.3372,-4.55656 -2.6875,-7.96875 0.3066,-1.61044 0.9702,-2.87696 1.8125,-3.6875 -23.7861,-25.60291 -70.471,-48.48125 -126.625,-59.125 -21.6249,-4.0989 -42.6044,-5.98934 -62.0313,-5.90625 z m -72.8124,24.25 c 1.8215,0.008 3.3545,2.17994 3.625,5.34375 0.3088,3.61578 -1.1677,7.14538 -3.3126,7.875 -2.1445,0.72962 -4.1287,-1.60297 -4.4374,-5.21875 -0.3089,-3.61578 1.1679,-7.14538 3.3124,-7.875 0.2682,-0.0912 0.5522,-0.126 0.8126,-0.125 z m -9.5938,17.9375 c 1.8295,-0.21057 3.6838,1.37055 4.5312,4.0625 1.0434,3.31317 0.1579,7.05881 -2,8.375 -2.1576,1.31619 -4.7695,-0.31183 -5.8124,-3.625 -1.0434,-3.31317 -0.1265,-7.05881 2.0312,-8.375 0.4046,-0.24679 0.8278,-0.3889 1.25,-0.4375 z m 17.4062,3 c 1.0496,-0.0434 2.3439,0.60599 3.5,1.84375 1.8503,1.98041 2.6161,4.72827 1.6876,6.15625 -0.9288,1.42798 -3.1811,0.98041 -5.0313,-1 -1.8502,-1.98041 -2.6163,-4.72827 -1.6875,-6.15625 0.3483,-0.53549 0.9017,-0.81775 1.5312,-0.84375 z m 0.063,14.8125 c 0.1652,-0.0166 0.3261,-0.0203 0.5,0 1.158,0.13514 2.4788,1.06657 3.5312,2.625 1.6839,2.49349 2.0169,5.65851 0.75,7.0625 -1.2669,1.40399 -3.6599,0.52474 -5.3438,-1.96875 -1.6837,-2.49349 -2.0168,-5.65851 -0.75,-7.0625 0.3564,-0.39488 0.8163,-0.60645 1.3126,-0.65625 z"
       id="path2987-7-86"
       style="color:#000000;fill:#b3b3b3;stroke:none;marker:none;visibility:visible;display:inline;overflow:visible;enable-background:new" />
  </g>
</svg>
