<?xml version="1.0" encoding="UTF-8" standalone="no"?>
<!-- Created with Inkscape (http://www.inkscape.org/) -->

<svg
   xmlns:dc="http://purl.org/dc/elements/1.1/"
   xmlns:cc="http://creativecommons.org/ns#"
   xmlns:rdf="http://www.w3.org/1999/02/22-rdf-syntax-ns#"
   xmlns:svg="http://www.w3.org/2000/svg"
   xmlns="http://www.w3.org/2000/svg"
   version="1.1"
   width="560"
   height="560"
   id="hat_magritte">
  <g
     transform="matrix(1.0125061,0,0,1.0125061,-2.8997538,-0.68180601)"
     id="g211443"
     style="display:inline;enable-background:new">
    <g
       transform="matrix(0.06506855,0,0,0.06506855,140.81228,79.04876)"
       id="g4317">
      <path
         d="m 2401.8975,526.85834 c -1.4409,-57.48747 6.1667,-113.99724 1.3451,-174.86542 -5.3134,-67.07723 -41.8839,-189.10227 -259.6079,-188.3166 -217.7239,0.78567 -249.2911,129.75509 -250.192,188.3166 l -2.6903,174.86542 c 177.3668,-30.44167 344.4971,-23.15231 511.1451,0 z"
         id="path3650-1"
         style="fill:#666666;fill-opacity:1;fill-rule:nonzero;stroke:#333333;stroke-width:15.17858219;stroke-miterlimit:4;stroke-dasharray:none;display:inline" />
      <path
         d="m 1984,25.375 c -11.2976,0.04077 -22.0581,0.452952 -32.375,1.15625 157.3687,6.958675 89.0388,58.728442 46.75,48.15625 -44.0587,-11.014675 -78.6618,1.580981 -91.25,34.625 -12.52,32.86506 -123.1071,204.24372 -173.8438,139.53125 l -2.1562,139.71875 c 177.3668,-30.44167 344.5083,-23.15231 511.1562,0 -1.4409,-57.48747 6.1654,-113.97557 1.3438,-174.84375 C 2238.3116,146.64152 2201.724,24.58933 1984,25.375 z"
         transform="translate(159.62513,138.28733)"
         id="path3650-1-5"
         style="fill:#4d4d4d;fill-opacity:1;fill-rule:nonzero;stroke:none;display:inline" />
    </g>
    <g
       transform="matrix(0.06506855,0,0,0.06506855,140.81228,79.04876)"
       id="g4309">
      <path
         d="m 1980.4375,368.96875 c -85.6916,-0.0836 -169.3332,6.60582 -253.9063,20.34375 l 2.2813,17.59375 c 72.6093,11.95385 177.5522,25.85749 265.5625,25.9375 95.807,0.0871 179.6265,-12.03356 249.6875,-26.375 l 2.5313,-17.15625 c -92.7429,-13.40653 -180.4647,-20.26015 -266.1563,-20.34375 z"
         transform="translate(159.62513,138.28733)"
         id="path2995-6-68"
         style="fill:#b3b3b3;fill-opacity:1;stroke:#808080;stroke-width:15.17858219px;stroke-linecap:butt;stroke-linejoin:miter;stroke-opacity:1;display:inline" />
      <path
         d="m 2182.7188,387.5625 c -65.3254,0.51236 -235.3904,9.27192 -390.9063,28.90625 63.5817,8.75679 137.7117,16.31605 202.5625,16.375 95.807,0.0871 179.6265,-12.03356 249.6875,-26.375 l 2.5313,-17.15625 c -0.7607,0.003 -1.4254,0.0538 -1.9376,0.15625 -6.0018,1.20036 -13.1931,2.41357 -36,-1.1875 -3.5634,-0.56267 -12.5565,-0.8237 -25.9374,-0.71875 z"
         transform="translate(159.62513,138.28733)"
         id="path3293-6"
         style="color:#000000;fill:#999999;stroke:none;marker:none;visibility:visible;display:inline;overflow:visible;enable-background:accumulate" />
    </g>
    <g
       transform="matrix(0.06506855,0,0,0.06506855,140.81228,79.04876)"
       id="g4313">
      <path
         d="m 2316.625,391.9375 c -5.1206,0.0492 -10.5855,0.67434 -16.4062,2.0625 -79.6508,18.99518 -182.9369,38.95551 -305.8438,38.84375 -122.9069,-0.11172 -279.2047,-27.16385 -333.6875,-38.25 C 1606.2047,383.5076 1611.2327,427 1614.2812,427 c 0.1755,-0.33429 0.3898,-0.66542 0.5938,-1 1.2247,9.3827 9.3179,22.01818 20.375,32.4375 27.3491,25.77177 55.7289,50.56674 94.875,54.75 -0.046,-7.32745 -0.094,-14.51436 -0.094,-18.40625 1.8973,-5.81069 30.488,-9.29737 44.9063,-10.5625 125.085,-10.97559 142.7597,-11.34406 219.4375,-9.5 76.6778,1.84406 171.3002,4.54043 232.8125,18.0625 13.6818,3.00762 21.8862,6.85921 22,10.125 0.091,2.60972 0.1315,6.38821 0.1563,10.5 68.4163,-14.35072 105.3146,-47.59676 124.9374,-72.3125 7.991,-10.06493 -4.8909,-10.90063 -4.625,-11.21875 0,0 -3.6609,-0.54534 -9.9374,-1.15625 6.1374,0.2823 11.9037,0.91788 17.3437,1.96875 0,0 -18.7415,-39.15068 -60.4375,-38.75 z"
         transform="translate(159.62513,138.28733)"
         id="path3042-4-8"
         style="fill:#666666;fill-opacity:1;stroke:#333333;stroke-width:15.17858219;display:inline" />
      <path
         d="m 1788.0626,550.78733 c -23.8441,0.24297 -13.4652,26.82936 6.8125,45.9375 27.3422,25.76522 55.7433,50.55786 94.875,54.75 -0.046,-7.32745 -0.094,-14.51436 -0.094,-18.40625 1.8973,-5.81069 30.488,-9.29737 44.9063,-10.5625 125.085,-10.97559 142.7597,-11.34406 219.4375,-9.5 76.6778,1.84406 171.3002,4.54043 232.8125,18.0625 13.6818,3.00762 21.8862,6.85921 22,10.125 0.091,2.60329 0.1314,6.36944 0.1563,10.46875 68.414,-14.34988 105.3148,-47.56579 124.9374,-72.28125 7.991,-10.06493 -4.891,-10.90063 -4.625,-11.21875 0,0 -59.8074,-8.95704 -116.3437,4.75 -85.6601,20.76803 -156.9241,18.21212 -260.9687,17 -104.0447,-1.21211 -292.1611,-18.07998 -341.625,-34.65625 -9.4454,-3.16531 -16.7788,-4.52482 -22.2813,-4.46875 z"
         id="path3061-9"
         style="fill:#4d4d4d;fill-opacity:1;stroke:none;display:inline" />
    </g>
  </g>
</svg>
