<?xml version="1.0" encoding="UTF-8" standalone="no"?>
<!-- Created with Inkscape (http://www.inkscape.org/) -->

<svg
   xmlns:svg="http://www.w3.org/2000/svg"
   xmlns="http://www.w3.org/2000/svg"
   version="1.1"
   width="560"
   height="560"
   id="hat_cap">
  <g
     transform="translate(0,-492.36218)"
     id="layer1">
    <g
       transform="matrix(0.06644487,0,0,0.06644487,225.32587,604.70968)"
       id="g7297"
       style="display:inline;enable-background:new">
      <g
         transform="translate(1.341617,0)"
         id="g7299">
        <path
           d="m 608.33038,73.32748 c -1.85748,10.522491 -10.00534,2.234792 -14.41131,10.862418 -4.65333,9.112021 -5.51688,31.844452 -5.2655,47.797802 -8.9116,-5.19381 -22.33502,-33.206381 -24.88121,-40.84253 -2.54616,-7.636148 -15.27702,-20.363067 -12.73086,-35.63538 2.54619,-15.272297 12.73086,-29.271905 11.45778,-44.544201 -1.27308,-15.272313 26.55148,-38.537238 34.37332,-69.998056 3.13157,-12.595743 3.81927,-33.089989 10.1847,-44.544213 6.36543,-11.45423 90.38911,-100.54266 131.12786,-115.81496 40.73875,-15.2723 87.84293,-3.11771 100.57379,-1.84502 12.73087,1.27269 81.47752,-4.51844 110.75849,12.02656 29.28099,16.54499 44.55802,34.36268 52.19656,38.18075 7.6385,3.81808 17.8232,12.72692 25.4617,25.45384 7.6385,12.72692 19.0963,21.63576 26.7348,29.27191 7.6385,7.63615 45.8311,49.634985 45.8311,94.179202 0,17.817674 29.281,34.362675 29.281,53.453054 0,19.090379 -7.6385,48.362284 -40.7388,72.543434 -5.0923,-17.817691 -7.6385,-31.817299 -12.7308,-48.3623 -14.004,12.726919 -47.3452,22.403926 -68.7467,15.272313 C 960.97522,55.509806 909.47926,4.6021292 825.45559,4.6021292 692.97172,4.6021292 645.24988,115.32632 608.33038,73.32748 z"
           id="path7301"
           style="fill:#e6e6e6;fill-opacity:1;fill-rule:evenodd;stroke:#b3b3b3;stroke-width:7.52503538;stroke-linecap:butt;stroke-linejoin:miter;stroke-miterlimit:4;stroke-opacity:1;stroke-dasharray:none" />
        <path
           d="m 624.24066,192.65955 c 51.75866,42.34799 69.79576,-50.1902 153.7075,-50.1902 96.46249,0 127.82818,93.32241 181.93949,41.56376 l 0.20222,-0.23713 C 895.35698,4.0340762 703.09063,5.9669999 624.24066,192.65955 z"
           transform="matrix(1.6233747,0,0,1.622872,-455.96956,-244.42508)"
           id="path7303"
           style="fill:#e6e6e6;fill-opacity:1;fill-rule:evenodd;stroke:none" />
        <path
           d="m 808.03057,-225.71134 c -16.9326,6.62617 -17.94752,19.7566 18.00931,24.14022 52.19654,6.36346 69.76,18.25579 43.27308,30.53028 -9.32788,4.32268 -7.03942,22.35615 18.66881,32.60959 10.16444,4.05395 19.08473,15.80252 27.1408,39.96322 24.18859,72.543434 -44.52922,39.410327 -34.34453,64.864166 10.18468,25.4538383 53.4509,1.28262 112.01286,50.917609 11.4577,11.454214 30.5447,29.269567 56.0064,13.997271 -25.4617,24.18115 -48.3438,3.837362 -62.34771,-5.071475 -14.00391,-8.908837 -43.29048,-40.745723 -132.4065,-48.381872 52.19655,13.9996082 113.31753,53.463149 143.87159,77.644283 10.98802,8.696159 22.43642,14.566022 33.93872,17.1923 17.0062,-1.83654 34.4888,-8.840271 43.6789,-17.1923 0.8809,2.862178 1.6801,5.625166 2.435,8.367933 4.3975,-2.973702 8.7346,-6.565328 12.8856,-10.903671 -3.0039,4.804788 -7.3077,9.117798 -12.3783,12.780117 3.3392,12.403724 12.4351,48.505159 12.0091,62.536759 15.203,-11.10644 30.0857,-30.387048 33.6558,-42.67498 5.5189,-18.995701 12.6261,-33.453429 12.6261,-35.997654 0,-29.626421 -37.0349,-53.9351128 -37.0349,-71.752787 0,-44.544217 -38.1711,-86.541139 -45.8096,-94.177289 -7.6385,-7.63615 -19.0964,-16.53549 -26.7349,-29.26241 -7.6386,-12.72692 -17.8283,-21.64073 -25.4667,-25.45881 -7.63855,-3.81807 -22.92068,-21.64321 -52.20168,-38.1882 -29.28097,-16.545 -98.01373,-10.74671 -110.7446,-12.0194 -5.28333,-0.52817 -16.5311,-2.92452 -30.74265,-4.4629 z"
           id="path7305"
           style="fill:#cfcfcf;fill-opacity:1;fill-rule:evenodd;stroke:none" />
        <path
           d="m 557.40693,68.236709 c 11.00075,8.997819 21.06314,14.243396 30.55003,16.564996 0.31452,12.092295 3.09119,32.056915 0.84937,41.854195 -7.54961,-7.86795 -14.38594,-22.24109 -15.83839,-30.661832 -0.77998,-4.522035 -2.70063,-10.799142 -7.20167,-12.599004 -4.50103,-1.799862 -7.20166,-7.199433 -8.35934,-15.158355 z"
           id="path7307"
           style="opacity:0.1;fill:#000000;fill-rule:evenodd;stroke:none" />
        <path
           d="m 1079.9752,71.141255 c 7.2184,-4.003958 14.6241,-9.552203 22.3126,-16.904154 l 0.3282,-0.384831 c 7.058,7.057998 21.174,10.194885 29.8005,2.352666 -3.1369,5.489553 -12.5476,28.23199 -14.9002,33.721543 -2.3527,5.489554 -8.6265,14.115991 -27.4478,30.584651 -0.7842,-11.76332 -5.4896,-29.800429 -10.0933,-49.369875 z"
           id="path7309"
           style="opacity:0.1;fill:#000000;fill-rule:evenodd;stroke:none" />
        <path
           d="m 557.40693,68.236709 c 84.0237,68.725371 113.30468,-81.45227 249.52487,-81.45227 156.59477,0 207.513,151.450331 295.356,67.452662"
           id="path7311"
           style="fill:none;stroke:#b3b3b3;stroke-width:7.52503538;stroke-linecap:butt;stroke-linejoin:miter;stroke-miterlimit:4;stroke-opacity:1;stroke-dasharray:none" />
        <path
           d="m 834.93971,-221.93702 c 3.81924,29.27191 12.73086,170.540701 0,209.994148"
           id="path7313"
           style="fill:#e6e6e6;fill-opacity:1;stroke:#b3b3b3;stroke-width:3.76251769;stroke-linecap:butt;stroke-linejoin:miter;stroke-miterlimit:4;stroke-opacity:1;stroke-dasharray:none" />
      </g>
    </g>
  </g>
</svg>
