<?xml version="1.0" encoding="UTF-8" standalone="no"?>
<!-- Created with Inkscape (http://www.inkscape.org/) -->

<svg
   xmlns:dc="http://purl.org/dc/elements/1.1/"
   xmlns:cc="http://creativecommons.org/ns#"
   xmlns:rdf="http://www.w3.org/1999/02/22-rdf-syntax-ns#"
   xmlns:svg="http://www.w3.org/2000/svg"
   xmlns="http://www.w3.org/2000/svg"
   version="1.1"
   width="560"
   height="560"
   id="hat_helmet_vietnam_2_of_2">
  <metadata
     id="metadata36785">
    <rdf:RDF>
      <cc:Work
         rdf:about="">
        <dc:format>image/svg+xml</dc:format>
        <dc:type
           rdf:resource="http://purl.org/dc/dcmitype/StillImage" />
        <dc:title></dc:title>
      </cc:Work>
    </rdf:RDF>
  </metadata>
  <defs
     id="defs36783" />
  <g
     transform="translate(-3.7097352e-6,-1.000002)"
     id="g35491"
     style="display:inline;enable-background:new">
    <path
       d="m 261.65161,131.84626 c -3.62619,1.08232 -5.27632,0.42551 -5.87203,-0.59571 -0.0851,-2.38286 0.59571,-3.48918 2.89347,-4.93591 2.68011,-1.68749 4.93609,-2.30863 10.04202,-2.21265 4.52733,0.0851 25.21929,0 29.44526,0 2.72326,0 7.53175,0.61743 8.59529,2.63816 0.85102,1.61693 0.59572,2.46795 0.34041,3.23387 -1.53183,1.27653 -3.99175,3.17775 -7.57407,1.53183 -2.80036,-1.28665 -10.97814,-0.2553 -18.21181,-0.2553 -7.23366,0 -14.95277,-0.80883 -19.65854,0.59571 z"
       id="path34297-4-52-4"
       style="color:#000000;fill:#677821;fill-opacity:1;stroke:#22280b;stroke-linecap:round;stroke-linejoin:round;stroke-opacity:1;marker:none;visibility:visible;display:inline;overflow:visible;enable-background:accumulate" />
    <path
       d="m 261.65161,131.84626 c -3.62619,1.08232 -5.27632,0.42551 -5.87203,-0.59571 -0.0851,-2.38286 0.59571,-3.48918 2.89347,-4.93591 2.68011,-1.68749 4.93609,-2.30863 10.04202,-2.21265 4.52733,0.0851 25.21929,0 29.44526,0 2.72326,0 7.53175,0.61743 8.59529,2.63816 0.85102,1.61693 0.59572,2.46795 0.34041,3.23387 -1.53183,1.27653 -3.99175,3.17775 -7.57407,1.53183 -2.80036,-1.28665 -10.97814,-0.2553 -18.21181,-0.2553 -7.23366,0 -14.95277,-0.80883 -19.65854,0.59571 z"
       id="path34297-4-52"
       style="color:#000000;fill:#445016;stroke:none;marker:none;visibility:visible;display:inline;overflow:visible;enable-background:accumulate" />
  </g>
</svg>
