<?xml version="1.0" encoding="UTF-8" standalone="no"?>
<!-- Created with Inkscape (http://www.inkscape.org/) -->

<svg
   xmlns:dc="http://purl.org/dc/elements/1.1/"
   xmlns:cc="http://creativecommons.org/ns#"
   xmlns:rdf="http://www.w3.org/1999/02/22-rdf-syntax-ns#"
   xmlns:svg="http://www.w3.org/2000/svg"
   xmlns="http://www.w3.org/2000/svg"
   version="1.1"
   width="560"
   height="560"
   id="holster_revolver_chest">
  <g
     transform="translate(0,-1.0000004)"
     id="g42784"
     style="display:inline;enable-background:new">
    <g
       transform="translate(140.36069,2.1213204)"
       id="g42548">
      <path
         d="m 162.87359,226.39615 -0.0728,-0.50961 c 0,0 1.96564,-1.96564 2.40245,-2.47525 0.43681,-0.50962 1.45603,-0.94643 2.25685,-0.14561 -0.1456,1.67444 -3.71288,2.62086 -4.5865,3.13047 z"
         id="path4120-6"
         style="color:#000000;fill:#c35a2e;fill-opacity:1;stroke:#3c1406;stroke-width:0.5;stroke-linecap:butt;stroke-linejoin:miter;stroke-miterlimit:4;stroke-opacity:1;stroke-dasharray:none;stroke-dashoffset:0;marker:none;visibility:visible;display:inline;overflow:visible;enable-background:accumulate" />
      <path
         d="m 413.93424,370.83331 a 13.989328,17.843781 0 1 1 -27.97865,0 13.989328,17.843781 0 1 1 27.97865,0 z"
         transform="matrix(0.19379769,0,0,0.19379769,91.116516,153.8015)"
         id="path2993-9-3-9"
         style="color:#000000;fill:none;stroke:#808080;stroke-width:4;stroke-linecap:round;stroke-linejoin:miter;stroke-miterlimit:4;stroke-opacity:1;stroke-dasharray:none;stroke-dashoffset:0;marker:none;visibility:visible;display:inline;overflow:visible;enable-background:new" />
      <path
         d="m 168.18811,227.85219 c 0.94642,0.50961 2.32965,0.58241 3.56728,0.50961 1.23762,-0.0728 4.79498,-1.24094 4.86778,-2.33296 0.0728,-1.09203 0.01,-5.23841 0.01,-5.23841 -1.01923,0.2912 -1.09203,2.03844 -3.34888,2.03844 -2.25685,0 -4.87771,0 -4.87771,0 z"
         id="path4122-0"
         style="color:#000000;fill:#c35a2e;fill-opacity:1;stroke:#3c1406;stroke-width:0.5;stroke-linecap:butt;stroke-linejoin:miter;stroke-miterlimit:4;stroke-opacity:1;stroke-dasharray:none;stroke-dashoffset:0;marker:none;visibility:visible;display:inline;overflow:visible;enable-background:accumulate" />
      <path
         d="m 151.07973,233.82192 13.97791,-9.0274 c 0,0 1.60163,-0.14561 1.74724,-1.01923 0.2184,-0.2912 0.50961,-0.58241 0.50961,-0.58241 0.36401,0.29121 0.43681,0.80082 0.43681,1.23763 0,0.43681 0.72801,4.00409 0.72801,4.3681 0,0.364 -0.72801,0.50961 -1.16482,0.72801 -0.43681,0.21841 -16.38037,9.97383 -16.38037,9.97383 z"
         id="path4098-5-5"
         style="color:#000000;fill:#c35a2e;fill-opacity:1;stroke:#3c1406;stroke-width:0.5;stroke-linecap:butt;stroke-linejoin:miter;stroke-miterlimit:4;stroke-opacity:1;stroke-dasharray:none;stroke-dashoffset:0;marker:none;visibility:visible;display:inline;overflow:visible;enable-background:accumulate" />
      <path
         d="m 176.6319,220.79061 c -1.01923,0.29121 -1.09222,2.04093 -3.34907,2.04093 l -1.13856,0 c 0.35506,0.53205 0.42299,1.31495 0.46632,1.83503 0.0644,0.77339 -0.28117,2.48337 -0.82364,3.69427 0.14921,-0.0102 0.32307,-0.0318 0.52084,-0.0666 1.9e-4,-5.8e-4 0.006,5.8e-4 0.006,0 0.25434,-0.69409 0.5206,-2.26065 0.58139,-3.41569 0.071,-1.34798 0.7778,-0.71119 0.6359,-0.0727 -0.13237,0.5957 -0.26392,2.18421 -0.68434,3.37329 1.48485,-0.35114 3.80839,-1.29949 3.86491,-2.14745 0.0728,-1.09202 -0.0798,-5.24109 -0.0798,-5.24109 z m -8.22429,2.04093 -0.0787,1.86531 c 0.31146,-0.71391 0.75417,-1.40248 1.30207,-1.86531 l -1.22334,0 z"
         id="path4285-3"
         style="color:#000000;fill:#803010;fill-opacity:1;stroke:none;marker:none;visibility:visible;display:inline;overflow:visible;enable-background:accumulate" />
      <g
         id="g42544">
        <path
           d="m 646.50715,362.15366 a 3.9444077,5.8226967 0 1 1 -7.88881,0 3.9444077,5.8226967 0 1 1 7.88881,0 z"
           transform="matrix(0.19379769,0,0,0.19379769,40.785262,157.48564)"
           id="path4100-42"
           style="color:#000000;fill:#b3b3b3;stroke:#808080;stroke-width:1;stroke-linecap:round;stroke-linejoin:miter;stroke-miterlimit:4;stroke-opacity:1;stroke-dasharray:none;stroke-dashoffset:0;marker:none;visibility:visible;display:inline;overflow:visible;enable-background:new" />
        <path
           d="m 165.3125,226.53125 c -0.42218,0 -0.75,0.50179 -0.75,1.125 0,0.22229 0.0186,0.4503 0.0937,0.625 0.0732,-1.05772 1.16569,-1.95341 1.375,-0.15625 0.0387,-0.135 0.0312,-0.31295 0.0312,-0.46875 0,-0.62321 -0.32782,-1.125 -0.75,-1.125 z"
           id="path4287-3"
           style="color:#000000;fill:#ffffff;stroke:none;marker:none;visibility:visible;display:inline;overflow:visible;enable-background:accumulate" />
      </g>
    </g>
    <g
       transform="translate(134.35028,2.1213204)"
       id="g42646">
      <path
         d="m 413.93424,370.83331 a 13.989328,17.843781 0 1 1 -27.97865,0 13.989328,17.843781 0 1 1 27.97865,0 z"
         transform="matrix(0.19379769,0,0,0.19379769,40.592639,156.56544)"
         id="path2993-6-4"
         style="color:#000000;fill:none;stroke:#000000;stroke-width:4;stroke-linecap:round;stroke-linejoin:miter;stroke-miterlimit:4;stroke-opacity:1;stroke-dasharray:none;stroke-dashoffset:0;marker:none;visibility:visible;display:inline;overflow:visible;enable-background:new" />
      <path
         d="m 109.37521,226.91603 7.32157,-1.21585 0.0968,5.13172 -7.60396,0.9401 c -0.0864,-0.52363 -0.40304,-1.19672 -0.55535,-1.85611 0.2272,-0.54975 0.49616,-2.54025 0.74094,-2.99986 z"
         id="path2987-6-23"
         style="color:#000000;fill:#c35a2e;fill-opacity:1;stroke:#3c1406;stroke-width:0.5;stroke-linecap:butt;stroke-linejoin:miter;stroke-miterlimit:4;stroke-opacity:1;stroke-dasharray:none;stroke-dashoffset:0;marker:none;visibility:visible;display:inline;overflow:visible;enable-background:accumulate" />
      <path
         d="m 117.66503,225.70018 0.19365,5.61585 c -1.45237,-0.3873 -4.74442,0.96825 -6.77775,0.3873 -0.87142,-0.87142 -1.98491,-2.27539 -1.98491,-2.27539 0,0 1.5492,-2.51745 1.98491,-3.00157 1.9365,-0.0968 4.74443,-0.82301 6.5841,-0.72619 z"
         id="path2989-0-3"
         style="color:#000000;fill:#c35a2e;fill-opacity:1;stroke:#3c1406;stroke-width:0.5;stroke-linecap:butt;stroke-linejoin:miter;stroke-miterlimit:4;stroke-opacity:1;stroke-dasharray:none;stroke-dashoffset:0;marker:none;visibility:visible;display:inline;overflow:visible;enable-background:accumulate" />
      <path
         d="m 114.72232,226.87474 -3.19523,0.43571 -1.20187,2.04378 c 0.35355,0.44194 1.31557,1.53232 1.31557,1.53232 0,0 2.43749,-0.0884 3.44351,-0.53874"
         id="path2991-2-40"
         style="color:#000000;fill:none;stroke:#3c1406;stroke-width:0.25;stroke-linecap:butt;stroke-linejoin:miter;stroke-miterlimit:4;stroke-opacity:1;stroke-dasharray:0.75, 0.25;stroke-dashoffset:0;marker:none;visibility:visible;display:inline;overflow:visible;enable-background:accumulate" />
      <path
         d="m 118.73011,225.55494 -0.33889,5.56744 6.9714,1.40396 0.87142,-5.71267 c 0,0 -3.38887,-0.3873 -4.50236,-0.7746 -1.11349,-0.3873 -2.66269,-0.48413 -3.00157,-0.48413 z"
         id="path2995-16"
         style="color:#000000;fill:#c35a2e;fill-opacity:1;stroke:#3c1406;stroke-width:0.5;stroke-linecap:butt;stroke-linejoin:miter;stroke-miterlimit:4;stroke-opacity:1;stroke-dasharray:none;stroke-dashoffset:0;marker:none;visibility:visible;display:inline;overflow:visible;enable-background:accumulate" />
    </g>
    <g
       transform="translate(134.35028,2.1213204)"
       id="g42635">
      <path
         d="m 418.43081,370.83331 a 18.485897,18.485897 0 1 1 -36.97179,0 18.485897,18.485897 0 1 1 36.97179,0 z"
         transform="matrix(0.19379769,0,0,0.19379769,63.2978,127.78762)"
         id="path2993-8-4"
         style="color:#000000;fill:none;stroke:#808080;stroke-width:4;stroke-linecap:round;stroke-linejoin:miter;stroke-miterlimit:4;stroke-opacity:1;stroke-dasharray:none;stroke-dashoffset:0;marker:none;visibility:visible;display:inline;overflow:visible;enable-background:new" />
      <path
         d="m 138.41161,201.65083 c 0.38397,-0.096 4.51159,-2.01582 5.66349,-2.39978 0.67193,1.72784 3.07172,7.00736 3.16771,7.48732 0.096,0.47995 -0.86392,4.3196 -1.53586,4.41559 -0.67194,0.096 -3.74366,-0.95991 -4.12763,-2.11181 -0.38396,-1.15189 -2.87973,-7.10335 -3.16771,-7.39132 z"
         id="path3861-7"
         style="color:#000000;fill:#c35a2e;fill-opacity:1;stroke:#3c1406;stroke-width:0.5;stroke-linecap:butt;stroke-linejoin:miter;stroke-miterlimit:4;stroke-opacity:1;stroke-dasharray:none;stroke-dashoffset:0;marker:none;visibility:visible;display:inline;overflow:visible;enable-background:accumulate" />
      <path
         d="m 125.13342,162.95415 c -1.24898,0.91994 -3.30614,2.44782 -4.26671,3.19656 3.87351,6.8129 9.84673,21.35519 16.88329,34.25554 l 5.375,-2.59375 c 0,0 -12.80805,-25.83517 -17.99158,-34.85835 z m 7.89783,20.8271 c 0.3711,0 0.6875,0.3164 0.6875,0.6875 0,0.3711 -0.3164,0.65625 -0.6875,0.65625 -0.3711,0 -0.65625,-0.28515 -0.65625,-0.65625 0,-0.3711 0.28515,-0.6875 0.65625,-0.6875 z"
         id="path3863-4"
         style="color:#000000;fill:#c35a2e;fill-opacity:1;stroke:#3c1406;stroke-width:0.5;stroke-linecap:butt;stroke-linejoin:miter;stroke-miterlimit:4;stroke-opacity:1;stroke-dasharray:none;stroke-dashoffset:0;marker:none;visibility:visible;display:inline;overflow:visible;enable-background:accumulate" />
      <path
         d="m 132.79728,183.84187 c -0.25332,0.0962 -0.43604,0.33671 -0.43604,0.62379 0,0.3711 0.30113,0.67223 0.67223,0.67223 0.24779,0 0.4649,-0.13348 0.5814,-0.33309 -0.0757,0.0295 -0.1561,0.0485 -0.24225,0.0485 -0.3711,0 -0.67224,-0.30113 -0.67224,-0.67223 0,-0.12468 0.0377,-0.23908 0.0969,-0.33915 z"
         id="path3869-1-9"
         style="color:#000000;fill:#803010;fill-opacity:1;stroke:none;marker:none;visibility:visible;display:inline;overflow:visible;enable-background:new" />
      <path
         d="m 477.98077,139.98285 a 3.4672182,3.4672182 0 1 1 -6.93444,0 3.4672182,3.4672182 0 1 1 6.93444,0 z"
         transform="matrix(0.33067159,0,0,0.33067159,-12.59217,161.64638)"
         id="path3869-4-4"
         style="color:#000000;fill:#b3b3b3;stroke:#808080;stroke-width:1;stroke-linecap:round;stroke-linejoin:miter;stroke-miterlimit:4;stroke-opacity:1;stroke-dasharray:none;stroke-dashoffset:0;marker:none;visibility:visible;display:inline;overflow:visible;enable-background:new" />
      <path
         d="m 144.92175,201.2655 c -0.40041,0.53712 -1.01015,0.86917 -2.44064,1.44137 -1.4998,0.59992 -2.52278,0.19649 -3.53681,0 0.83514,1.82677 2.34261,5.45927 2.63444,6.33476 0.14399,0.43196 0.66439,0.84984 1.29602,1.19912 0.006,0.002 0.0119,0.004 0.0182,0.006 0.0877,0.0245 0.17526,0.0415 0.26647,0.0606 -0.40725,-0.20363 -0.81381,-0.81129 -1.01744,-1.15067 -0.20362,-0.33938 -0.50014,-1.19889 -0.63589,-1.53827 -0.13576,-0.33938 0.73507,-0.11884 0.9387,0.0848 0.20363,0.20363 0.10501,0.84386 0.64801,1.38687 -0.36323,-0.77968 -0.60907,-2.10354 0.88421,-2.64655 1.49327,-0.54301 2.23827,0.81483 2.37402,1.28996 0.0679,-0.33938 -0.0646,-0.88671 0.47844,-0.75096 0.18919,0.0473 0.30239,0.17904 0.36337,0.3452 0.0287,-0.16762 0.0416,-0.30434 0.0485,-0.41182 -0.0115,-0.10342 -0.0255,-0.21054 -0.0424,-0.32098 -0.24612,-0.70001 -1.40157,-3.30109 -2.27712,-5.32943 z"
         id="path3927-44"
         style="color:#000000;fill:#803010;fill-opacity:1;stroke:none;marker:none;visibility:visible;display:inline;overflow:visible;enable-background:accumulate" />
      <path
         d="m 121.27487,166.77371 c 3.86987,6.89267 9.50139,20.86658 16.46425,33.63181 l 5.37789,-2.59205 c 0,0 -0.44383,-0.9062 -0.55717,-1.13856 -1.50066,0.61496 -3.69095,1.55887 -4.9479,2.27713 -3.44612,-5.16919 -11.71658,-24.20962 -15.91841,-32.1969 -0.27574,-0.0739 -0.66714,-0.39554 -0.66714,-0.39554 z"
         id="path4446-6"
         style="color:#000000;fill:#803010;fill-opacity:1;stroke:none;marker:none;visibility:visible;display:inline;overflow:visible;enable-background:accumulate" />
      <path
         d="m 142.05928,193.29959 c 0,0 -1.82383,-4.60758 -2.2078,-5.08754 -0.38397,-0.47995 -1.24789,-0.38397 -2.01582,0 -0.76793,0.38397 -3.64767,2.11181 -4.60758,2.68776 -0.95991,0.57594 -0.86392,1.15189 -0.57595,1.91982 0.28798,0.76793 2.39979,4.89556 2.39979,4.89556 0,0 0.43196,-1.39188 1.15189,-1.96782 0.7968,-0.63744 5.13553,-2.59177 5.85547,-2.44778 z"
         id="path3867-0"
         style="color:#000000;fill:#c35a2e;fill-opacity:1;stroke:#3c1406;stroke-width:0.5;stroke-linecap:butt;stroke-linejoin:miter;stroke-miterlimit:4;stroke-opacity:1;stroke-dasharray:none;stroke-dashoffset:0;marker:none;visibility:visible;display:inline;overflow:visible;enable-background:accumulate" />
      <path
         d="m 136.39579,197.71519 c -0.57594,0.67193 -1.24788,0.28797 -1.43986,-0.28798 -0.19199,-0.57595 -0.28798,-1.24788 0.67194,-1.82383 0.95991,-0.57595 5.08753,-2.49578 5.4715,-2.59177 0.38396,-0.096 0.76793,-0.19198 0.95991,0.28798 0.19198,0.47995 -0.76793,0.86392 -0.76793,0.86392 l -0.19198,-0.47996 -4.99155,2.39978 z"
         id="path3865-0"
         style="color:#000000;fill:#803010;fill-opacity:1;stroke:none;marker:none;visibility:visible;display:inline;overflow:visible;enable-background:accumulate" />
    </g>
    <g
       transform="translate(134.35028,2.1213204)"
       id="g42671">
      <g
         id="g42667">
        <path
           d="m 121.19914,228.99223 c 0.69403,-5.32605 6.99171,-3.60294 12.0063,-8.18171 3.64491,-3.32813 5.66426,-4.69601 6.09998,-11.86106 0.3943,-6.48414 4.50236,-6.72934 6.05156,-6.68093 1.5492,0.0484 4.30871,1.21032 4.35712,6.14839 0.0484,4.93808 0.0484,9.73091 2.85634,11.13487 2.80792,1.40397 3.92141,2.56587 4.59919,5.37379 0.67777,2.80793 -14.29669,18.76709 -17.00632,16.69529 -1.45805,-1.11484 -3.17709,-6.39073 -8.16818,-6.81914 -3.57461,-0.30683 -11.63818,0.65359 -10.79599,-5.8095 z"
           id="path3765-81"
           style="color:#000000;fill:#c35a2e;fill-opacity:1;stroke:#3c1406;stroke-width:0.5;stroke-linecap:butt;stroke-linejoin:miter;stroke-miterlimit:4;stroke-opacity:1;stroke-dasharray:none;stroke-dashoffset:0;marker:none;visibility:visible;display:inline;overflow:visible;enable-background:accumulate" />
        <path
           d="m 154.46598,221.69171 c -0.99774,-0.35214 -2.69975,-1.29118 -3.81487,-2.17154 -1.11511,-0.88035 -1.8194,-1.7607 -1.93678,-6.10378 -0.11738,-4.34307 0.88036,-9.39043 -3.93224,-9.6252 -4.8126,-0.23476 -4.34308,5.10605 -4.51915,7.39497 -0.17607,2.28892 -0.46952,5.51688 -4.04962,8.68616 -3.58011,3.16927 -4.46046,4.10831 -8.74485,5.63426 -4.28438,1.52594 -5.3995,1.93677 -5.34081,4.51914 0.0587,2.58237 2.81713,3.40404 7.39497,3.22797 4.57784,-0.17608 6.98414,1.11511 10.2121,4.81259"
           id="path3948-9"
           style="color:#000000;fill:none;stroke:#3c1406;stroke-width:0.25;stroke-linecap:butt;stroke-linejoin:miter;stroke-miterlimit:4;stroke-opacity:1;stroke-dasharray:0.75, 0.25;stroke-dashoffset:0;marker:none;visibility:visible;display:inline;overflow:visible;enable-background:accumulate" />
      </g>
      <g
         id="g42622">
        <path
           d="m 117.51817,229.74503 c 1.87819,2.07248 8.45935,7.65886 9.39141,8.8818 1.52884,-2.47526 3.27608,-5.09612 5.02332,-6.11534 1.74724,-1.01922 4.36809,-2.47526 7.20736,0.0728 0.0791,-0.0324 0.84552,0.71819 1.18982,1.07742 -1.26141,1.26488 -2.75004,3.02333 0.11856,5.32974 4.64872,3.73767 19.03502,-14.69777 14.28486,-17.321 -2.22481,-1.22862 -2.38861,1.03776 -3.298,0.94546 -4.12516,-0.41872 -6.80821,0.85218 -8.16557,2.36082 0,0 -0.77449,-0.005 -1.14026,0.31396 -0.61051,0.53317 -1.31497,0.15904 -1.31497,0.15904 -0.58242,-0.43681 -2.00072,-1.17177 -3.34888,-1.96564 -1.04409,-0.61482 -5.89693,-0.21841 -8.37219,1.09202 -2.47525,1.31043 -9.0274,3.93129 -11.13865,4.5865 z"
           id="path4078-3-7"
           style="color:#000000;fill:#333333;stroke:#000000;stroke-width:0.09689885;stroke-linecap:butt;stroke-linejoin:miter;stroke-miterlimit:4;stroke-opacity:1;stroke-dasharray:none;stroke-dashoffset:0;marker:none;visibility:visible;display:inline;overflow:visible;enable-background:accumulate" />
        <path
           d="m 149.69283,221.35308 c -0.34372,0.45829 -1.54675,0.51558 -2.11962,0.51558 -0.17186,-1.66132 0.57287,-1.37489 0.40101,-3.89552 0.57287,-0.0573 1.03116,0.57287 1.03116,1.3176 0,0.74473 0.68745,0.97388 0.68745,2.06234 z"
           id="path4245-8"
           style="color:#000000;fill:#333333;stroke:#000000;stroke-width:0.09689885;stroke-linecap:butt;stroke-linejoin:miter;stroke-miterlimit:4;stroke-opacity:1;stroke-dasharray:none;stroke-dashoffset:0;marker:none;visibility:visible;display:inline;overflow:visible;enable-background:accumulate" />
        <path
           d="m 153.62448,221.48102 c -0.26789,0.01 -0.48129,0.0454 -0.5814,0.0363 -0.40041,-0.0364 -1.12708,0.80407 -0.76307,1.60489 0,0 -0.94445,0.0727 -1.12645,0.0363 -0.18028,-0.0361 -0.32663,-0.14976 -0.85998,-0.61168 -0.1123,-0.003 -0.22928,-0.0115 -0.33915,-0.0121 -0.12183,-5.8e-4 -0.23846,0.004 -0.35731,0.006 0.36967,0.22238 1.26665,0.80078 1.41109,1.01744 0.1456,0.2184 0.79858,0.39907 1.2718,0.76307 -0.21841,-0.3276 0.0722,-0.6904 0.36337,-0.6904 -0.29121,-0.40041 0.32652,-0.61805 0.61773,-0.43604 0.2912,0.182 0.32818,0.65425 -0.32704,0.54505 0.94642,0.98282 0.18252,1.12696 -0.29069,0.83575 0.1092,0.18201 0.25442,0.944 0.21802,1.38081 0,0 -0.25411,-0.21808 -0.39971,-0.18168 0.36401,0.50961 0.91225,0.69244 -1.2718,2.98569 0,0 -0.87731,-0.79871 -1.35052,-1.19912 -0.47322,-0.40041 -1.08935,-0.10997 -1.52616,0.43604 -0.18201,-0.2912 -0.50757,-0.68906 -1.16279,-1.45348 0.18201,-0.69161 0.65362,-1.56855 0.90843,-1.56855 -0.2184,0.18201 -0.0725,0.36274 -0.18169,0.72674 0,0 0.36299,-0.29057 0.5814,-0.36337 -0.47321,0.25481 -0.83671,1.23993 -0.2907,2.14995 0.83722,-1.85645 2.18405,-2.62316 3.45808,-2.14995 0,0 -0.65311,-0.47174 -1.19913,-0.83575 0.18201,-0.0728 0.47194,-0.21802 0.72675,-0.21802 -1.96565,-1.09203 -4.29345,1.34928 -4.51186,2.0591 0.18201,0.273 0.65369,0.63532 0.87209,0.96293 -0.2548,0.1092 -0.47212,0.0366 -0.61773,-0.10901 -2.03844,-1.52884 -3.97094,-0.72821 -5.06296,0.10901 1.74724,-1.89284 1.93007,-1.78638 2.98569,-1.89558 0.14561,-0.25481 1.56772,-1.48951 2.04094,-1.67151 0.47321,-0.182 0.65515,-0.58139 0.0363,-0.58139 -0.61881,0 -2.36637,0.90683 -3.27639,1.81685 0.58242,0.0364 0.40054,0.58178 -0.0727,0.36337 -0.47321,-0.2184 -0.80477,0.10844 -1.20518,0.43605 -0.40041,0.3276 -0.7263,0.4363 -0.9811,0.29069 -0.22667,-0.12952 -1.75316,-1.04543 -3.79723,-2.19233 0.94867,0.63571 2.36223,1.79903 2.96147,2.45275 -0.2912,-0.2184 -1.34906,-0.9141 -2.18628,-1.13251 -0.25488,-0.13724 -1.11209,3.05246 -0.93265,6.28632 0.56477,0.22357 1.14262,0.57323 1.73207,1.10222 0.0791,-0.0324 0.84876,0.71877 1.19307,1.078 -0.6842,0.68608 -1.43378,1.52209 -1.5201,2.50726 0.56761,0.77061 1.33689,1.3648 2.36796,1.65939 4.32534,1.23581 10.38868,-5.32132 13.1843,-10.04114 1.37615,-2.6886 1.84504,-5.0392 0.58139,-5.98351 -0.0192,-0.0143 -0.0406,-0.0287 -0.0606,-0.0424 -0.0379,-0.0232 -0.0764,-0.047 -0.11507,-0.0666 -0.38707,-0.19653 -0.80975,-0.22405 -1.14461,-0.21196 z m -16.81195,1.96825 c 0.26673,0.14731 0.49344,0.2768 0.74491,0.41788 -0.31623,-0.21158 -0.58111,-0.36327 -0.74491,-0.41788 z"
           id="path4467-9"
           style="color:#000000;fill:#1a1a1a;stroke:none;marker:none;visibility:visible;display:inline;overflow:visible;enable-background:accumulate" />
        <g
           id="g42595">
          <path
             d="m 117.51817,229.74503 c 1.87819,2.07248 8.45935,7.65886 9.39141,8.8818 1.52884,-2.47526 3.27608,-5.09612 5.02332,-6.11534 1.74724,-1.01922 4.36809,-2.47526 7.20736,0.0728 1.60163,-0.65521 3.85849,-3.71288 3.85849,-3.71288 -2.40246,-1.89284 -5.82414,-4.80491 -5.82414,-4.80491 -0.87362,-0.87362 -4.8777,-0.50961 -7.35296,0.80082 -2.47525,1.31043 -9.31861,4.4409 -11.42986,5.09611 z"
             id="path4078-17"
             style="color:#000000;fill:#ac7064;fill-opacity:1;stroke:#39180c;stroke-width:0.09689885;stroke-linecap:butt;stroke-linejoin:miter;stroke-miterlimit:4;stroke-opacity:1;stroke-dasharray:none;stroke-dashoffset:0;marker:none;visibility:visible;display:inline;overflow:visible;enable-background:accumulate" />
          <path
             d="m 466.46097,365.48529 a 2.9560266,2.9560266 0 1 1 -5.91205,0 2.9560266,2.9560266 0 1 1 5.91205,0 z"
             transform="matrix(0.2683897,0,0,0.2683897,6.6459154,130.27826)"
             id="path4247-0-4"
             style="color:#000000;fill:#b3b3b3;stroke:#808080;stroke-width:1;stroke-linecap:round;stroke-linejoin:miter;stroke-miterlimit:4;stroke-opacity:1;stroke-dasharray:none;stroke-dashoffset:0;marker:none;visibility:visible;display:inline;overflow:visible;enable-background:new" />
          <path
             d="m 131.03125,227.5625 c -0.049,0 -0.0785,0.0228 -0.125,0.0312 0.31639,0 0.5625,0.24611 0.5625,0.5625 0,0.31639 -0.24611,0.59375 -0.5625,0.59375 -0.31639,0 -0.5625,-0.27736 -0.5625,-0.59375 0,-0.057 0.0158,-0.10433 0.0312,-0.15625 -0.0638,0.1143 -0.125,0.23479 -0.125,0.375 0,0.43816 0.34309,0.78125 0.78125,0.78125 0.43816,0 0.8125,-0.34309 0.8125,-0.78125 0,-0.43816 -0.37434,-0.8125 -0.8125,-0.8125 z"
             id="path4247-0-4-7"
             style="color:#000000;fill:#999999;stroke:none;marker:none;visibility:visible;display:inline;overflow:visible;enable-background:new" />
          <path
             d="m 130.25846,225.59533 c 3.49448,-2.03844 5.67853,-1.60163 7.42577,-0.2912 -2.83927,-0.0728 -4.51371,-0.43681 -7.42577,0.2912 z"
             id="path4490-6"
             style="color:#000000;fill:#ffffff;stroke:none;marker:none;visibility:visible;display:inline;overflow:visible;enable-background:accumulate" />
          <path
             d="m 117.58402,229.81839 c 1.95164,2.11942 8.38333,7.57875 9.32046,8.79963 0.21764,-2.18749 -4.57818,-6.42294 -9.32046,-8.79963 z"
             id="path4289-8"
             style="color:#000000;fill:#4e280e;fill-opacity:1;stroke:none;marker:none;visibility:visible;display:inline;overflow:visible;enable-background:accumulate" />
        </g>
        <path
           d="m 466.46097,365.48529 a 2.9560266,2.9560266 0 1 1 -5.91205,0 2.9560266,2.9560266 0 1 1 5.91205,0 z"
           transform="matrix(0.45072575,0,0,0.45072575,-70.162621,64.066768)"
           id="path4247-0-8-12"
           style="color:#000000;fill:#b3b3b3;stroke:#808080;stroke-width:1;stroke-linecap:round;stroke-linejoin:miter;stroke-miterlimit:4;stroke-opacity:1;stroke-dasharray:none;stroke-dashoffset:0;marker:none;visibility:visible;display:inline;overflow:visible;enable-background:new" />
      </g>
      <g
         id="g42661">
        <path
           d="m 152.4252,219.50338 c 2.13015,-0.3873 3.0984,1.06508 3.58253,1.64603 0.48412,0.58095 4.13636,3.33664 5.72619,4.74442 2.65482,2.35083 7.69869,6.44673 10.89391,9.25465 3.19523,2.80793 10.29724,10.11035 12.23374,11.65955 0.19365,2.51745 -3.29205,5.90632 -5.22855,7.45552 -1.9365,1.5492 -2.51745,1.64603 -3.29205,2.7111 -0.7746,1.06508 -2.90475,0.58095 -4.35712,-0.87142 -1.45238,-1.45238 -8.1333,-6.5841 -14.62057,-7.84283 -6.48728,-1.25872 -16.76376,-1.20791 -17.8158,-8.42377 -1.35555,-9.29761 11.71582,-6.00315 14.23327,-13.65232 2.51745,-7.64918 -1.35555,-4.2603 -1.35555,-6.68093 z"
           id="path3785-11"
           style="color:#000000;fill:#c35a2e;fill-opacity:1;stroke:#3c1406;stroke-width:0.5;stroke-linecap:butt;stroke-linejoin:miter;stroke-miterlimit:4;stroke-opacity:1;stroke-dasharray:none;stroke-dashoffset:0;marker:none;visibility:visible;display:inline;overflow:visible;enable-background:accumulate" />
        <path
           d="m 155.50795,222.87394 c -0.20041,5.2106 -3.60553,8.61956 -9.41736,10.22283 -5.4966,1.5163 -5.9782,3.38774 -6.35293,7.655 1.75957,6.3004 11.42247,6.30649 17.62348,7.50967 6.48727,1.25872 13.17329,6.39037 14.62567,7.84275 1.45237,1.45237 3.57979,1.93716 4.35439,0.87209 -0.89577,0.0935 -2.71133,0.25014 -4.39679,-1.43532 -7.01427,-7.41509 -18.64143,-9.0171 -20.64551,-9.2175 -2.00407,-0.20041 -6.21138,-0.6017 -9.2175,-4.20905 -1.31518,-1.57821 0.39931,-2.20199 3.13105,-2.26501 3.51222,-0.081 8.70805,0.75756 11.30082,1.6594 4.54114,1.57952 15.66201,11.30183 20.01567,15.23128 0.69287,-0.85058 1.32607,-1.05237 3.10682,-2.47697 0.77525,-0.6202 1.79498,-1.53794 2.73134,-2.57388 0.58449,-1.38216 0.99927,-2.76162 0.99927,-2.76162 0,0 -2.60796,-3.00877 -5.61408,-5.61407 0.80163,1.20244 -0.60174,4.41163 -2.0046,5.61407 -1.40285,1.20245 -4.60376,-2.60356 -6.40743,-5.00845 -1.80367,-2.4049 -4.8113,-7.81683 -8.21823,-10.62254 0.60122,1.40285 -2.00345,5.80847 -4.60876,3.40357 -2.6053,-2.40489 -0.003,-9.01646 -1.00532,-13.82625 z"
           id="path3952-54"
           style="color:#000000;fill:#803010;fill-opacity:1;stroke:none;marker:none;visibility:visible;display:inline;overflow:visible;enable-background:accumulate" />
        <path
           d="m 184.19479,245.96603 c 0.11847,1.4217 -0.77009,4.26511 -4.02817,6.81233 -3.25807,2.54722 -3.73197,2.90265 -4.26511,3.37655 -0.53314,0.4739 -1.95485,0.41467 -2.78418,-0.23695 -0.82933,-0.65161 -9.47803,-7.87861 -15.69799,-8.58947 -6.21996,-0.71085 -13.09154,-1.95484 -15.46104,-5.92377 -2.36951,-3.96893 -0.0592,-6.45691 4.14663,-7.52319 4.20588,-1.06628 8.28797,-3.49645 9.47804,-7.93785 0.80488,-3.00388 0.17771,-5.09445 0.17771,-5.09445"
           id="path3787-0"
           style="color:#000000;fill:none;stroke:#3c1406;stroke-width:0.25;stroke-linecap:butt;stroke-linejoin:miter;stroke-miterlimit:4;stroke-opacity:1;stroke-dasharray:0.75, 0.25;stroke-dashoffset:0;marker:none;visibility:visible;display:inline;overflow:visible;enable-background:accumulate" />
        <path
           d="m 153.56219,220.5164 c -1.02872,1.17062 -3.93753,2.05745 -5.46288,2.1284 -1.52535,0.0709 -3.22807,0.88683 -4.07943,1.63177 1.17062,-1.9865 2.97976,-2.41218 4.54058,-2.73144 1.74324,-0.35658 2.97976,-0.42568 3.0507,-1.13515 0.0709,-0.70946 0.78042,-0.21284 0.99325,-0.17736 0.21285,0.21284 0.95778,0.28378 0.95778,0.28378 z"
           id="path4291-6"
           style="color:#000000;fill:#c35a2e;fill-opacity:1;stroke:#3c1406;stroke-width:0.5;stroke-linecap:butt;stroke-linejoin:miter;stroke-miterlimit:4;stroke-opacity:1;stroke-dasharray:none;stroke-dashoffset:0;marker:none;visibility:visible;display:inline;overflow:visible;enable-background:accumulate" />
      </g>
    </g>
  </g>
</svg>
