<?xml version="1.0" encoding="UTF-8" standalone="no"?>
<svg xmlns="http://www.w3.org/2000/svg" id="holster_revolver_chest" width="560" height="560">
  <g id="g42784" style="display:inline;enable-background:new">
    <g id="g42548">
      <path id="path4120-6" d="M303.2 227.5v-.5l2.4-2.5c.4-.5 1.4-1 2.2 0 0 1.6-3.7 2.5-4.6 3z" style="color:#000000;fill:#c35a2e;fill-opacity:1;stroke:#3c1406;stroke-width:0.5;stroke-linecap:butt;stroke-linejoin:miter;stroke-miterlimit:4;stroke-opacity:1;stroke-dasharray:none;stroke-dashoffset:0;marker:none;visibility:visible;display:inline;overflow:visible;enable-background:accumulate"/>
      <path id="path2993-9-3-9" d="M311.8 227a2.7 3.5 0 1 1-5.4 0 2.7 3.5 0 1 1 5.4 0z" style="color:#000000;fill:none;stroke:#808080;stroke-width:4;stroke-linecap:round;stroke-linejoin:miter;stroke-miterlimit:4;stroke-opacity:1;stroke-dasharray:none;stroke-dashoffset:0;marker:none;visibility:visible;display:inline;overflow:visible;enable-background:new"/>
      <path id="path4122-0" d="M308.5 229c1 .5 2.4.6 3.6.5 1.4 0 5-1.3 5-2.4v-5c-1 .2-1 2-3.4 2h-4.8z" style="color:#000000;fill:#c35a2e;fill-opacity:1;stroke:#3c1406;stroke-width:0.5;stroke-linecap:butt;stroke-linejoin:miter;stroke-miterlimit:4;stroke-opacity:1;stroke-dasharray:none;stroke-dashoffset:0;marker:none;visibility:visible;display:inline;overflow:visible;enable-background:accumulate"/>
      <path id="path4098-5-5" d="M291.4 235l14-9s1.6-.2 1.8-1l.5-.7c.3.3.4.8.4 1.3l.8 4.3c0 .3-.7.4-1 .6l-16.5 10z" style="color:#000000;fill:#c35a2e;fill-opacity:1;stroke:#3c1406;stroke-width:0.5;stroke-linecap:butt;stroke-linejoin:miter;stroke-miterlimit:4;stroke-opacity:1;stroke-dasharray:none;stroke-dashoffset:0;marker:none;visibility:visible;display:inline;overflow:visible;enable-background:accumulate"/>
      <path id="path4285-3" d="M317 222c-1 .2-1 2-3.4 2h-1c.3.5.3 1.3.4 1.8 0 .8-.3 2.5-1 3.7h.7c.2-.8.5-2.3.6-3.5 0-1.3.7-.7.6 0l-.8 3.3c1.5-.4 3.8-1.3 4-2l-.2-5.4zm-8.2 2v1.8c.2-.7.6-1.4 1.2-1.8h-1.2z" style="color:#000000;fill:#803010;fill-opacity:1;stroke:none;marker:none;visibility:visible;display:inline;overflow:visible;enable-background:accumulate"/>
      <g id="g42544">
        <path id="path4100-42" d="M306.6 229a.8 1 0 1 1-1.6 0 .8 1 0 1 1 1.6 0z" style="color:#000000;fill:#b3b3b3;stroke:#808080;stroke-width:1;stroke-linecap:round;stroke-linejoin:miter;stroke-miterlimit:4;stroke-opacity:1;stroke-dasharray:none;stroke-dashoffset:0;marker:none;visibility:visible;display:inline;overflow:visible;enable-background:new"/>
        <path id="path4287-3" d="M305.7 227.7c-.4 0-.8.5-.8 1v.7c0-1 1.2-2 1.4-.2v-.4c0-.6-.3-1-.7-1z" style="color:#000000;fill:#ffffff;stroke:none;marker:none;visibility:visible;display:inline;overflow:visible;enable-background:accumulate"/>
      </g>
    </g>
    <g id="g42646">
      <path id="path2993-6-4" d="M255.2 229.6a2.7 3.5 0 1 1-5.4 0 2.7 3.5 0 1 1 5.4 0z" style="color:#000000;fill:none;stroke:#000000;stroke-width:4;stroke-linecap:round;stroke-linejoin:miter;stroke-miterlimit:4;stroke-opacity:1;stroke-dasharray:none;stroke-dashoffset:0;marker:none;visibility:visible;display:inline;overflow:visible;enable-background:new"/>
      <path id="path2987-6-23" d="M243.7 228l7.3-1.2v5.2l-7.5 1c0-.6-.4-1.3-.5-2l.7-3z" style="color:#000000;fill:#c35a2e;fill-opacity:1;stroke:#3c1406;stroke-width:0.5;stroke-linecap:butt;stroke-linejoin:miter;stroke-miterlimit:4;stroke-opacity:1;stroke-dasharray:none;stroke-dashoffset:0;marker:none;visibility:visible;display:inline;overflow:visible;enable-background:accumulate"/>
      <path id="path2989-0-3" d="M252 226.8l.2 5.6c-1.4-.4-4.7 1-6.8.4l-2-2.3 2-3c2 0 4.8-.8 6.6-.7z" style="color:#000000;fill:#c35a2e;fill-opacity:1;stroke:#3c1406;stroke-width:0.5;stroke-linecap:butt;stroke-linejoin:miter;stroke-miterlimit:4;stroke-opacity:1;stroke-dasharray:none;stroke-dashoffset:0;marker:none;visibility:visible;display:inline;overflow:visible;enable-background:accumulate"/>
      <path id="path2991-2-40" d="M249 228l-3 .4-1.3 2 1.3 1.6s2.4 0 3.4-.5" style="color:#000000;fill:none;stroke:#3c1406;stroke-width:0.25;stroke-linecap:butt;stroke-linejoin:miter;stroke-miterlimit:4;stroke-opacity:1;stroke-dasharray:0.75, 0.25;stroke-dashoffset:0;marker:none;visibility:visible;display:inline;overflow:visible;enable-background:accumulate"/>
      <path id="path2995-16" d="M253 226.7l-.3 5.5 7 1.4 1-5.7s-3.5-.5-4.6-.8c-1-.4-2.6-.5-3-.5z" style="color:#000000;fill:#c35a2e;fill-opacity:1;stroke:#3c1406;stroke-width:0.5;stroke-linecap:butt;stroke-linejoin:miter;stroke-miterlimit:4;stroke-opacity:1;stroke-dasharray:none;stroke-dashoffset:0;marker:none;visibility:visible;display:inline;overflow:visible;enable-background:accumulate"/>
    </g>
    <g id="g42635">
      <path id="path2993-8-4" d="M278.8 201a3.6 3.6 0 1 1-7 0 3.6 3.6 0 1 1 7 0z" style="color:#000000;fill:none;stroke:#808080;stroke-width:4;stroke-linecap:round;stroke-linejoin:miter;stroke-miterlimit:4;stroke-opacity:1;stroke-dasharray:none;stroke-dashoffset:0;marker:none;visibility:visible;display:inline;overflow:visible;enable-background:new"/>
      <path id="path3861-7" d="M272.8 202.8c.3 0 4.5-2 5.6-2.4l3.2 7.5c0 .3-1 4.2-1.5 4.3-.6 0-3.7-1-4-2l-3.2-7.5z" style="color:#000000;fill:#c35a2e;fill-opacity:1;stroke:#3c1406;stroke-width:0.5;stroke-linecap:butt;stroke-linejoin:miter;stroke-miterlimit:4;stroke-opacity:1;stroke-dasharray:none;stroke-dashoffset:0;marker:none;visibility:visible;display:inline;overflow:visible;enable-background:accumulate"/>
      <path id="path3863-4" d="M259.5 164l-4.3 3.3c4 6.8 10 21.3 17 34.2l5.3-2.6s-12.8-26-18-35zm8 21c.3 0 .6.2.6.6 0 .4-.2.6-.6.6-.4 0-.7-.2-.7-.6 0-.4.3-.7.7-.7z" style="color:#000000;fill:#c35a2e;fill-opacity:1;stroke:#3c1406;stroke-width:0.5;stroke-linecap:butt;stroke-linejoin:miter;stroke-miterlimit:4;stroke-opacity:1;stroke-dasharray:none;stroke-dashoffset:0;marker:none;visibility:visible;display:inline;overflow:visible;enable-background:accumulate"/>
      <path id="path3869-1-9" d="M267 185s-.3.3-.3.6c0 .4.3.7.7.7.2 0 .4-.2.6-.4h-.3c-.3 0-.6-.3-.6-.7v-.3z" style="color:#000000;fill:#803010;fill-opacity:1;stroke:none;marker:none;visibility:visible;display:inline;overflow:visible;enable-background:new"/>
      <path id="path3869-4-4" d="M280 209a1 1 0 1 1-2.3 0 1 1 0 1 1 2.3 0z" style="color:#000000;fill:#b3b3b3;stroke:#808080;stroke-width:1;stroke-linecap:round;stroke-linejoin:miter;stroke-miterlimit:4;stroke-opacity:1;stroke-dasharray:none;stroke-dashoffset:0;marker:none;visibility:visible;display:inline;overflow:visible;enable-background:new"/>
      <path id="path3927-44" d="M279.3 202.4c-.4.5-1 1-2.5 1.4-1.5.6-2.5.2-3.5 0l2.6 6.4c0 .4.6.8 1.2 1.2h.3c-.4-.2-.8-.8-1-1l-.6-1.7c-.3-.3.6 0 .8 0 .2.3 0 1 .6 1.5-.3-.8-.6-2 1-2.6 1.4-.6 2.2.8 2.3 1.3 0-.5 0-1 .5-1l.3.4v-.4-.3l-2.2-5.3z" style="color:#000000;fill:#803010;fill-opacity:1;stroke:none;marker:none;visibility:visible;display:inline;overflow:visible;enable-background:accumulate"/>
      <path id="path4446-6" d="M255.6 168c4 6.8 9.5 20.8 16.5 33.5l5.5-2.6-.6-1.2c-1.6.6-3.8 1.6-5 2.3-3.5-5-11.8-24-16-32l-.6-.5z" style="color:#000000;fill:#803010;fill-opacity:1;stroke:none;marker:none;visibility:visible;display:inline;overflow:visible;enable-background:accumulate"/>
      <path id="path3867-0" d="M276.4 194.4s-1.8-4.6-2.2-5c-.4-.5-1.2-.5-2 0-.8.3-3.7 2-4.6 2.6-1 .6-1 1.2-.6 2l2.4 4.8s.4-1.4 1.2-2c.8-.6 5-2.5 5.8-2.4z" style="color:#000000;fill:#c35a2e;fill-opacity:1;stroke:#3c1406;stroke-width:0.5;stroke-linecap:butt;stroke-linejoin:miter;stroke-miterlimit:4;stroke-opacity:1;stroke-dasharray:none;stroke-dashoffset:0;marker:none;visibility:visible;display:inline;overflow:visible;enable-background:accumulate"/>
      <path id="path3865-0" d="M270.7 198.8c-.5.7-1.2.3-1.4-.3-.2-.5-.3-1.2.7-1.8 1-.6 5-2.5 5.4-2.6.4 0 .8 0 1 .4.2.5-.8 1-.8 1l-.2-.6-5 2.4z" style="color:#000000;fill:#803010;fill-opacity:1;stroke:none;marker:none;visibility:visible;display:inline;overflow:visible;enable-background:accumulate"/>
    </g>
    <g id="g42671">
      <g id="g42667">
        <path id="path3765-81" d="M255.5 230c.7-5.2 7-3.5 12-8 3.7-3.4 5.7-4.8 6.2-12 .3-6.4 4.5-6.7 6-6.6 1.6 0 4.3 1.2 4.4 6 0 5 0 10 3 11.3 2.7 1.4 3.8 2.5 4.5 5.3.7 3-14.3 18.8-17 16.7-1.4-1-3.2-6.3-8.2-6.8-3.5-.4-11.6.6-10.8-6z" style="color:#000000;fill:#c35a2e;fill-opacity:1;stroke:#3c1406;stroke-width:0.5;stroke-linecap:butt;stroke-linejoin:miter;stroke-miterlimit:4;stroke-opacity:1;stroke-dasharray:none;stroke-dashoffset:0;marker:none;visibility:visible;display:inline;overflow:visible;enable-background:accumulate"/>
        <path id="path3948-9" d="M288.8 222.8c-1-.3-2.7-1.3-3.8-2.2-1-.8-1.8-1.7-2-6 0-4.4 1-9.5-4-9.7-4.7-.3-4.2 5-4.4 7.3-.2 2.3-.5 5.5-4 8.7-3.6 3.2-4.5 4-8.8 5.6-4.3 1.6-5.4 2-5.3 4.5 0 2.7 2.8 3.6 7.4 3.4 4.5-.2 7 1 10 4.8" style="color:#000000;fill:none;stroke:#3c1406;stroke-width:0.25;stroke-linecap:butt;stroke-linejoin:miter;stroke-miterlimit:4;stroke-opacity:1;stroke-dasharray:0.75, 0.25;stroke-dashoffset:0;marker:none;visibility:visible;display:inline;overflow:visible;enable-background:accumulate"/>
      </g>
      <g id="g42622">
        <path id="path4078-3-7" d="M252 231c1.7 2 8.3 7.5 9.3 8.7 1.5-2.4 3.2-5 5-6 1.7-1 4.4-2.5 7.2 0l1.2 1c-1.3 1.3-2.8 3 0 5.4 4.7 4 19-14.6 14.4-17.2-2-1.2-2.3 1-3.2 1-4-.5-6.8.8-8.2 2.3 0 0-.8 0-1 .4-.7.5-1.4.2-1.4.2-.6-.5-2-1.2-3.4-2-1-.6-6-.2-8.4 1-2.4 1.4-9 4-11 4.7z" style="color:#000000;fill:#333333;stroke:#000000;stroke-width:0.09689885;stroke-linecap:butt;stroke-linejoin:miter;stroke-miterlimit:4;stroke-opacity:1;stroke-dasharray:none;stroke-dashoffset:0;marker:none;visibility:visible;display:inline;overflow:visible;enable-background:accumulate"/>
        <path id="path4245-8" d="M284 222.5c-.3.4-1.5.5-2 .5-.2-1.7.5-1.4.3-4 .6 0 1 .7 1 1.4 0 .8.7 1 .7 2z" style="color:#000000;fill:#333333;stroke:#000000;stroke-width:0.09689885;stroke-linecap:butt;stroke-linejoin:miter;stroke-miterlimit:4;stroke-opacity:1;stroke-dasharray:none;stroke-dashoffset:0;marker:none;visibility:visible;display:inline;overflow:visible;enable-background:accumulate"/>
        <path id="path4467-9" d="M288 222.6h-.6c-.4 0-1 .8-.8 1.6h-1c-.3 0-.4 0-1-.5h-.3-.4l1.4 1c0 .2.8.4 1.2.7-.2-.3 0-.6.4-.6-.3-.4.3-.7.6-.5.3.2.3.7-.3.6 1 .8.2 1-.3.7l.2 1.4h-.4c.4.4 1 .6-1.3 3 0 0-.8-1-1.3-1.3-.5-.4-1 0-1.5.4l-1.2-1.3c.2-.7.7-1.6 1-1.6-.3.3-.2.5-.3.8l.6-.3c-.5.2-.8 1.2-.3 2 1-1.7 2.2-2.5 3.5-2l-1.2-1h.7c-2-1.2-4.3 1.3-4.5 2l1 1c-.4 0-.6 0-.8-.2-2-1.5-4-.7-5 0 1.7-1.8 2-1.7 3-1.8 0-.2 1.5-1.5 2-1.6.5-.3.7-.7 0-.7-.6 0-2.3 1-3.2 1.8.6 0 .4.7 0 .5-.6-.3-1 0-1.3.4-.4.2-.7.3-1 .2-.2 0-1.7-1-3.8-2.2 1 .6 2.3 1.8 3 2.4-.4-.2-1.5-1-2.3-1-.3-.2-1 3-1 6.2.6.2 1.2.6 1.8 1l1.2 1.2c-.7.7-1.5 1.5-1.5 2.5.5.8 1.3 1.4 2.3 1.6 4.4 1.2 10.4-5.4 13.2-10 1.4-2.8 2-5 .6-6 0 0 0-.2-.2-.2-.3-.2-.7-.2-1-.2zm-16.8 2l.7.4-.8-.4z" style="color:#000000;fill:#1a1a1a;stroke:none;marker:none;visibility:visible;display:inline;overflow:visible;enable-background:accumulate"/>
        <g id="g42595">
          <path id="path4078-17" d="M252 231c1.7 2 8.3 7.5 9.3 8.7 1.5-2.4 3.2-5 5-6 1.7-1 4.4-2.5 7.2 0 1.6-.6 3.8-3.7 3.8-3.7l-5.8-4.8c-.8-1-5-.5-7.3.8-2.5 1.3-9.3 4.4-11.5 5z" style="color:#000000;fill:#ac7064;fill-opacity:1;stroke:#39180c;stroke-width:0.09689885;stroke-linecap:butt;stroke-linejoin:miter;stroke-miterlimit:4;stroke-opacity:1;stroke-dasharray:none;stroke-dashoffset:0;marker:none;visibility:visible;display:inline;overflow:visible;enable-background:accumulate"/>
          <path id="path4247-0-4" d="M266 229.3a.8.8 0 1 1-1.6 0 .8.8 0 1 1 1.6 0z" style="color:#000000;fill:#b3b3b3;stroke:#808080;stroke-width:1;stroke-linecap:round;stroke-linejoin:miter;stroke-miterlimit:4;stroke-opacity:1;stroke-dasharray:none;stroke-dashoffset:0;marker:none;visibility:visible;display:inline;overflow:visible;enable-background:new"/>
          <path id="path4247-0-4-7" d="M265.4 228.7c.2 0 .4.3.4.6s-.2.6-.5.6c-.4 0-.6-.4-.6-.7v-.2.5c0 .4.2.8.7.8.4 0 .8-.4.8-.8s-.4-.8-.8-.8z" style="color:#000000;fill:#999999;stroke:none;marker:none;visibility:visible;display:inline;overflow:visible;enable-background:new"/>
          <path id="path4490-6" d="M264.6 226.7c3.5-2 5.7-1.6 7.4-.3-2.8 0-4.5-.4-7.4.3z" style="color:#000000;fill:#ffffff;stroke:none;marker:none;visibility:visible;display:inline;overflow:visible;enable-background:accumulate"/>
          <path id="path4289-8" d="M252 231c2 2 8.3 7.5 9.3 8.7.2-2-4.6-6.4-9.4-8.8z" style="color:#000000;fill:#4e280e;fill-opacity:1;stroke:none;marker:none;visibility:visible;display:inline;overflow:visible;enable-background:accumulate"/>
        </g>
        <path id="path4247-0-8-12" d="M274.6 230a1.3 1.3 0 1 1-2.7 0 1.3 1.3 0 1 1 2.6 0z" style="color:#000000;fill:#b3b3b3;stroke:#808080;stroke-width:1;stroke-linecap:round;stroke-linejoin:miter;stroke-miterlimit:4;stroke-opacity:1;stroke-dasharray:none;stroke-dashoffset:0;marker:none;visibility:visible;display:inline;overflow:visible;enable-background:new"/>
      </g>
      <g id="g42661">
        <path id="path3785-11" d="M286.8 220.6c2-.4 3 1 3.6 1.7.4.6 4 3.3 5.7 4.7l11 9.3c3.2 2.8 10.3 10 12.2 11.6.2 2.4-3.3 5.8-5.2 7.4-2 1.5-2.5 1.6-3.3 2.7-.8 1.2-3 .7-4.4-.8-1.4-1.4-8-6.6-14.6-7.8-6.5-1.3-16.8-1.2-17.8-8.4-1.5-9.3 11.6-6 14-13.7 2.6-7.6-1.2-4.3-1.2-6.7z" style="color:#000000;fill:#c35a2e;fill-opacity:1;stroke:#3c1406;stroke-width:0.5;stroke-linecap:butt;stroke-linejoin:miter;stroke-miterlimit:4;stroke-opacity:1;stroke-dasharray:none;stroke-dashoffset:0;marker:none;visibility:visible;display:inline;overflow:visible;enable-background:accumulate"/>
        <path id="path3952-54" d="M290 224c-.3 5.2-3.7 8.6-9.6 10.2-5.5 1.5-6 3.4-6.3 7.7 1.8 6.2 11.5 6.2 17.7 7.4 6.5 1.2 13.2 6.4 14.6 7.8 1.5 1.5 3.6 2 4.4 1-1 0-2.7 0-4.4-1.5-7-7.5-18.6-9-20.7-9.3-2-.2-6.2-.6-9.2-4.2-1.3-1.5.4-2.2 3.2-2.2 3.5 0 8.7.7 11.3 1.6 4.4 1.6 15.5 11.3 20 15.3.6-1 1.2-1.2 3-2.6.8-.6 1.8-1.6 2.7-2.6l1-2.8s-2.6-3-5.6-5.6c1 1.2-.5 4.4-2 5.6-1.3 1.3-4.5-2.6-6.3-5-1.8-2.4-4.8-7.8-8.2-10.6.6 1.4-2 5.8-4.6 3.4-2.7-2.4 0-9-1-13.8z" style="color:#000000;fill:#803010;fill-opacity:1;stroke:none;marker:none;visibility:visible;display:inline;overflow:visible;enable-background:accumulate"/>
        <path id="path3787-0" d="M318.5 247c.2 1.5-.7 4.4-4 7l-4.2 3.3c-.6.4-2 .4-2.8-.3-1-.6-9.5-7.8-15.7-8.6-6.3-.7-13-2-15.5-6-2.4-3.8 0-6.3 4.2-7.4 4.2-1 8.2-3.5 9.4-8 .7-3 0-5 0-5" style="color:#000000;fill:none;stroke:#3c1406;stroke-width:0.25;stroke-linecap:butt;stroke-linejoin:miter;stroke-miterlimit:4;stroke-opacity:1;stroke-dasharray:0.75, 0.25;stroke-dashoffset:0;marker:none;visibility:visible;display:inline;overflow:visible;enable-background:accumulate"/>
        <path id="path4291-6" d="M288 221.6c-1 1.2-4 2-5.6 2.2-1.5 0-3.2 1-4 1.6 1-2 3-2.4 4.5-2.7 1.7-.4 3-.5 3-1.2s.7-.2 1 0h1z" style="color:#000000;fill:#c35a2e;fill-opacity:1;stroke:#3c1406;stroke-width:0.5;stroke-linecap:butt;stroke-linejoin:miter;stroke-miterlimit:4;stroke-opacity:1;stroke-dasharray:none;stroke-dashoffset:0;marker:none;visibility:visible;display:inline;overflow:visible;enable-background:accumulate"/>
      </g>
    </g>
  </g>
</svg>
