<?xml version="1.0" encoding="UTF-8" standalone="no"?>
<!-- Created with Inkscape (http://www.inkscape.org/) -->

<svg
   xmlns:dc="http://purl.org/dc/elements/1.1/"
   xmlns:cc="http://creativecommons.org/ns#"
   xmlns:rdf="http://www.w3.org/1999/02/22-rdf-syntax-ns#"
   xmlns:svg="http://www.w3.org/2000/svg"
   xmlns="http://www.w3.org/2000/svg"
   version="1.1"
   width="560"
   height="560"
   id="horns_devil">
  <path
     d="m 269.92971,112.0262 c 1.45362,-0.98685 3.05871,-0.30653 3.13661,2.97708 0.0977,4.11778 -1.98139,5.09331 -3.86277,3.91646 -1.88139,-1.17683 -2.04826,-4.12176 0.72616,-6.89354 z"
     id="path24052-8"
     style="color:#000000;fill:#aa0000;stroke:#800000;stroke-width:0.24999999;stroke-linecap:butt;stroke-linejoin:miter;stroke-miterlimit:4;stroke-opacity:1;stroke-dasharray:none;stroke-dashoffset:0;marker:none;visibility:visible;display:inline;overflow:visible;enable-background:accumulate" />
  <path
     d="m 259.61143,105.32295 c 3.23994,-0.29083 4.26592,0.85528 5.02214,2.27956 0.75621,1.42426 -0.30188,1.75835 2.35944,2.33135 2.66131,0.573 4.983,2.58706 4.98726,5.00935 0.004,2.42228 -1.06497,3.45803 -2.3523,3.13798 -1.28732,-0.32004 -2.47268,-3.28321 -4.3932,-4.15255 -1.92051,-0.86933 -2.92554,-2.79399 -3.27781,-4.3231 -0.35228,-1.52911 -0.0322,-2.81644 -2.34553,-4.28259 z"
     id="path24050-5"
     style="color:#000000;fill:#d40000;stroke:#800000;stroke-width:0.49999997;stroke-linecap:round;stroke-linejoin:miter;stroke-miterlimit:4;stroke-opacity:1;stroke-dasharray:none;stroke-dashoffset:0;marker:none;visibility:visible;display:inline;overflow:visible;enable-background:accumulate" />
  <path
     d="m 259.625,105.3125 c 2.31333,1.46615 1.99147,2.75214 2.34375,4.28125 0.26154,1.13526 0.88009,2.49118 1.96875,3.46875 1.05224,-0.94932 1.68344,-2.2497 2.3125,-2.5625 -0.25524,0.38101 -0.10461,0.4774 -0.4375,1.46875 0.41675,-0.5672 1.23345,-1.69535 1.9375,-1.8125 -0.24948,-0.0815 -0.49236,-0.16328 -0.75,-0.21875 -2.66132,-0.573 -1.61879,-0.91949 -2.375,-2.34375 -0.5297,-0.99764 -1.19369,-1.86105 -2.65625,-2.1875 1.92563,0.9709 2.17444,2.51494 2,3 0.15289,-0.11838 0.43886,-0.12296 0.71875,-0.15625 0.058,0.6276 -0.58812,1.85292 -1.71875,3.15625 0.069,-0.54254 0.55732,-2.14293 0.90625,-2.71875 -0.62019,0.54131 -0.96889,0.97805 -1.25,1.5625 -0.11716,-0.70404 0.1424,-1.08243 0.40625,-1.53125 -0.45004,0.2873 -0.44665,0.77181 -0.75,-0.0937 -0.27017,-0.7709 -0.26816,-2.68657 -2.53125,-3.3125 -0.0453,0.004 -0.0788,-0.004 -0.125,0 z M 268,110.25 c -0.37951,0.22696 -0.77068,0.69907 -1.53125,1.9375 1.0887,-1.51539 1.70742,-1.57635 2.15625,-1.3125 -0.80637,0.37979 -1.43166,1.46087 -1.1875,2.25 0.15289,-0.11837 0.5273,-0.41284 0.875,-0.4375 0.0666,0.55978 -0.68826,1.63615 -1.46875,1.8125 0.10233,-0.26264 0.39966,-0.43354 0.375,-0.78125 -0.37359,0.22812 -1.36694,0.44136 -1.78125,-0.0937 0.17876,-0.32183 0.29398,-0.63303 0.21875,-1.125 -0.18466,0.27567 -0.81434,0.79684 -1.34375,0.875 0.28353,0.21139 0.5983,0.40896 0.9375,0.5625 1.92052,0.86934 3.08768,3.83621 4.375,4.15625 1.28733,0.32005 2.34775,-0.73397 2.34375,-3.15625 -0.004,-2.09883 -1.74072,-3.8735 -3.9375,-4.6875 -0.009,-0.003 -0.0223,0.003 -0.0312,0 z"
     id="path24110-6"
     style="color:#000000;fill:#aa0000;stroke:none;marker:none;visibility:visible;display:inline;overflow:visible;enable-background:accumulate" />
  <path
     d="m 289.91108,117.27975 c 0.71353,2.25989 2.32911,2.5246 3.8311,1.75106 0.91556,-0.47149 3.19389,-3.35527 0.56508,-5.35906 -3.20704,-2.44453 -5.68621,-0.47778 -4.39618,3.608 z"
     id="path24054-7"
     style="color:#000000;fill:#aa0000;stroke:#800000;stroke-width:0.2872532;stroke-linecap:butt;stroke-linejoin:miter;stroke-miterlimit:4;stroke-opacity:1;stroke-dasharray:none;stroke-dashoffset:0;marker:none;visibility:visible;display:inline;overflow:visible;enable-background:accumulate" />
  <path
     d="m 293.49825,118.32524 c 1.33803,-0.37188 2.70378,-1.36081 3.07292,-2.22511 0.36913,-0.8643 2.9032,-1.27563 2.78486,-4.86377 -0.11837,-3.58813 2.31113,-4.12273 3.146,-4.51296 -2.7359,-1.6009 -6.07713,-1.4164 -6.44287,2.2008 -0.36573,3.61722 -4.08854,2.30232 -5.22473,4.68642 -1.13619,2.3841 0.69002,5.28663 2.66382,4.71462 z"
     id="path3014-5-0"
     style="color:#000000;fill:#aa0000;stroke:#800000;stroke-width:0.2872532;stroke-linecap:round;stroke-linejoin:miter;stroke-miterlimit:4;stroke-opacity:1;stroke-dasharray:none;stroke-dashoffset:0;marker:none;visibility:visible;display:inline;overflow:visible;enable-background:accumulate" />
  <path
     d="m 300.17033,106.22443 c -1.72023,0.77519 -2.12781,1.44668 -2.63861,1.22852 0.64224,0.33468 0.86196,1.09291 1.51855,1.25253 -0.46663,0.10269 -1.37117,-0.0421 -1.66277,0.075 1.00669,0.18838 1.43076,1.03386 1.67922,1.44197 -0.75874,-0.20327 -0.51025,0.20483 -1.26899,0.002 0.54057,0.71406 0.99388,1.63244 1.0093,2.30339 -0.70073,-0.48048 -0.77365,-0.45121 -1.50313,-0.58159 0.96413,1.13654 0.6012,2.55187 0.14948,2.90249 -0.45176,0.35064 -2.52418,-0.59492 -2.74443,-1.77614 -0.68533,0.19049 -0.74229,1.3137 -0.68324,1.8825 -1.18279,-1.04875 -0.93641,-2.33265 -0.41229,-3.13555 1.66276,-0.075 1.80801,-0.55652 2.36242,-0.44052 -5.1e-4,-0.423 0.21817,-0.51079 -0.2341,-0.58316 0.37887,-0.32138 1.55956,-0.96463 2.40557,-0.96568 -0.49695,-0.81621 -1.05137,-0.93223 -1.99953,-0.97481 0.32031,-0.46716 1.18068,-0.64326 1.32648,-0.70179 -0.39425,-0.34957 -0.35115,-0.87474 -0.78851,-0.69916 0.64147,-0.80412 1.79845,-1.41262 3.48458,-1.22956 z"
     id="path24118-4"
     style="color:#000000;fill:#d40000;stroke:none;marker:none;visibility:visible;display:inline;overflow:visible;enable-background:accumulate" />
</svg>
