<?xml version="1.0" encoding="UTF-8" standalone="no"?>
<svg xmlns="http://www.w3.org/2000/svg" id="iris_laughing" width="560" height="560">
  <path id="path42966" d="M 273.08398 126.50391 C 272.52597 126.49764 271.91327 126.61193 271.2207 126.81641 A 1.5446309 1.5446309 0 0 0 271.20312 127.04688 A 1.5446309 1.5446309 0 0 0 271.20508 127.07812 C 272.1759 126.99689 273.28632 127.04049 274.2832 127.1875 A 1.5446309 1.5446309 0 0 0 274.29102 127.04688 A 1.5446309 1.5446309 0 0 0 274.25195 126.70703 C 273.87142 126.5855 273.49009 126.50847 273.08398 126.50391 z" style="fill:#2ad4ff;fill-opacity:1;stroke:none;stroke-width:0.5;stroke-linecap:round;stroke-miterlimit:4;stroke-dasharray:none"/>
  <path id="path42968" d="M 273.08398 126.50391 C 272.53261 126.49772 271.92824 126.60896 271.24609 126.80859 C 271.23345 126.88817 271.22266 126.96765 271.22266 127.05078 C 271.22266 127.05945 271.22447 127.06754 271.22461 127.07617 C 271.62061 127.04382 272.03444 127.03021 272.46094 127.03906 C 272.56892 127.02111 272.68407 127.00977 272.8125 127.00977 C 273.07 127.00977 273.26263 127.03843 273.41016 127.08789 C 273.71173 127.11367 274.00948 127.14677 274.29688 127.18945 C 274.30105 127.14315 274.31055 127.09818 274.31055 127.05078 C 274.31055 126.93327 274.29439 126.82093 274.26953 126.71094 C 273.88335 126.58574 273.49622 126.50853 273.08398 126.50391 z" style="display:inline;fill:#089cc1;fill-opacity:1;stroke:none;enable-background:new"/>
  <path id="path42974" d="M 288.12109 126.32031 C 287.66893 126.35303 287.24434 126.46139 286.82617 126.63672 A 1.5446309 1.5446309 0 0 0 286.8125 126.83594 A 1.5446309 1.5446309 0 0 0 286.83398 127.08594 C 288.0875 126.80937 289.08563 126.84989 289.89844 126.92969 A 1.5446309 1.5446309 0 0 0 289.90234 126.83594 A 1.5446309 1.5446309 0 0 0 289.86328 126.49414 C 289.22852 126.34863 288.65304 126.28182 288.12109 126.32031 z" style="fill:#2ad4ff;stroke:none;stroke-width:0.5;stroke-linecap:round;stroke-miterlimit:4;stroke-dasharray:none"/>
  <path id="path42978" d="M 288.12109 126.32031 C 287.67101 126.35288 287.24834 126.46092 286.83203 126.63477 C 286.82336 126.70102 286.8125 126.76731 286.8125 126.83594 C 286.8125 126.92204 286.8263 127.00367 286.83984 127.08594 C 287.13784 127.02039 287.42752 126.96418 287.70117 126.93164 C 287.88432 126.846 288.11559 126.79297 288.4043 126.79297 C 288.66393 126.79297 288.8579 126.8228 289.00586 126.87305 C 289.34183 126.88115 289.61058 126.90209 289.89258 126.92969 C 289.89453 126.8979 289.90234 126.86821 289.90234 126.83594 C 289.90234 126.71843 289.88619 126.60414 289.86133 126.49414 C 289.22729 126.34893 288.65254 126.28185 288.12109 126.32031 z" style="fill:#089cc1;fill-opacity:1;stroke:none"/>
</svg>
