<?xml version="1.0" encoding="UTF-8" standalone="no"?>
<svg xmlns="http://www.w3.org/2000/svg" id="iris_human" width="560" height="560">
  <g id="g119327">
    <path id="path24512-8" d="M272.4 126h-1l-.2 1c0 .5.2 1 .6 1.2.6 0 1.2.2 1.8 0 .4-.2.7-.6.7-1.2 0-.2 0-.5-.2-.7-.4-.2-1-.4-1.6-.4z" style="fill:#2ad4ff;fill-opacity:1;stroke:none"/>
    <path id="path117671-9" d="M272.6 126v.5l-.3-.5.2.6-.6-.6.3.7-.6-.5.6.6-.8-.3.7.4h-.8.8l-.8.3h.8l-.7.3.8-.3-.6.6.7-.5-.4.7.5-.7-.2.8.3-.7v.7l.2-.7.3.7v-.7l.4.6-.3-.7.7.5-.5-.6.7.3-.8-.5 1 .2-1-.3h1-1l.8-.4-.8.2.7-.5-.8.4.4-.6-.6.6.2-.6-.3.5v-.5l-.2.5v-.5h-.2z" style="color:#000000;fill:#00aad4;fill-opacity:1;stroke:none;marker:none;visibility:visible;display:inline;overflow:visible;enable-background:new"/>
    <path id="path24518-5" d="M288 125.8c-.3 0-.7.2-1 .4l-.2.6c0 .7.4 1.2 1 1.4h1.2c.5-.2 1-.7 1-1.4 0-.3-.2-.6-.4-.8-.5-.2-1-.2-1.5-.2z" style="fill:#2ad4ff;stroke:none"/>
    <path id="path117671-3" d="M288.2 125.8v.5l-.2-.4v.3l-.3-.4.3.4-.7-.4.6.6-1-.3.8.4h-.8.8l-.8.4h.8l-.7.4 1-.3-.7.7.7-.5-.4.8.5-.7v.8l.3-.6v.8-.8l.4.8v-1l.3.8-.3-.7.6.5-.5-.6.7.3-.6-.5.7.2-.8-.3.7-.2h-.8l.7-.4-1 .2.8-.5-.7.5.4-.6-.5.4v-.6l-.2.5v-.5.5l-.2-.5z" style="color:#000000;fill:#00aad4;fill-opacity:1;stroke:none;marker:none;visibility:visible;display:inline;overflow:visible;enable-background:new"/>
    <path id="path24518-5-9" d="M289.3 126c.2 0 .4.5.4.8 0 .8-.6 1.3-1.3 1.3-.7 0-1.3-.4-1.3-1.2 0-.3.2-.5.3-.8l-.7.4v.4c0 .6.2 1 .6 1.4h2.4c.4-.4.6-1 .6-1.4 0-.2 0-.5-.2-.7h-.7z" style="font-size:medium;font-style:normal;font-variant:normal;font-weight:normal;font-stretch:normal;text-indent:0;text-align:start;text-decoration:none;line-height:normal;letter-spacing:normal;word-spacing:normal;text-transform:none;direction:ltr;block-progression:tb;writing-mode:lr-tb;text-anchor:start;baseline-shift:baseline;color:#000000;fill:#00aad4;fill-opacity:1;stroke:none;stroke-width:0;marker:none;visibility:visible;display:inline;overflow:visible;enable-background:accumulate;font-family:Sans;-inkscape-font-specification:Sans"/>
    <path id="path24512-8-0" d="M272 126l-1 .3v.7c0 .5 0 .8.3 1.2h1.4c-.7 0-1.2-.5-1.2-1.2 0-.4.2-.8.5-1zm.8 2.3h1.3c.4-.4.5-.8.5-1.3v-.5l-.8-.3c.2.2.3.5.3.8 0 .7-.5 1.3-1.2 1.3z" style="font-size:medium;font-style:normal;font-variant:normal;font-weight:normal;font-stretch:normal;text-indent:0;text-align:start;text-decoration:none;line-height:normal;letter-spacing:normal;word-spacing:normal;text-transform:none;direction:ltr;block-progression:tb;writing-mode:lr-tb;text-anchor:start;baseline-shift:baseline;color:#000000;fill:#00aad4;fill-opacity:1;stroke:none;marker:none;visibility:visible;display:inline;overflow:visible;enable-background:accumulate;font-family:Sans;-inkscape-font-specification:Sans"/>
  </g>
</svg>
