<?xml version="1.0" encoding="UTF-8" standalone="no"?>
<svg xmlns="http://www.w3.org/2000/svg" id="iris_dejection" width="560" height="560">
  <path id="path46629-1-37" d="M 288.55859 126.08789 C 287.95679 126.07033 287.39623 126.15384 286.91211 126.29688 A 1.5446309 1.5446309 0 0 0 286.8125 126.83594 A 1.5446309 1.5446309 0 0 0 288.35742 128.37891 A 1.5446309 1.5446309 0 0 0 289.90234 126.83594 A 1.5446309 1.5446309 0 0 0 289.79688 126.27344 C 289.37897 126.1718 288.96226 126.09967 288.55859 126.08789 z" style="fill:#2ad4ff;stroke:none;stroke-width:0.5;stroke-linecap:round;stroke-miterlimit:4;stroke-dasharray:none"/>
  <path id="path46633-6-52" d="M 288.55859 126.08789 C 287.95824 126.07038 287.39938 126.15452 286.91602 126.29688 C 286.85311 126.46518 286.8125 126.64569 286.8125 126.83594 C 286.8125 127.30146 287.01996 127.71875 287.3457 128.00195 C 287.05715 127.30482 287.45701 126.79297 288.4043 126.79297 C 289.46612 126.79297 289.45636 127.24976 289.50586 127.86914 C 289.75274 127.59535 289.90234 127.23362 289.90234 126.83594 C 289.90234 126.63703 289.86144 126.44806 289.79297 126.27344 C 289.37626 126.17237 288.96109 126.09963 288.55859 126.08789 z" style="fill:#089cc1;fill-opacity:1;stroke:none"/>
  <path id="path46621-7-73" d="M 273.69922 126.41406 C 272.9727 126.36091 272.11876 126.46187 271.23828 126.71875 A 1.5446309 1.5446309 0 0 0 271.20312 127.04688 A 1.5446309 1.5446309 0 0 0 272.74805 128.58984 A 1.5446309 1.5446309 0 0 0 274.29102 127.04688 A 1.5446309 1.5446309 0 0 0 274.18945 126.49023 C 274.02855 126.46223 273.87622 126.42701 273.69922 126.41406 z" style="fill:#2ad4ff;fill-opacity:1;stroke:none;stroke-width:0.5;stroke-linecap:round;stroke-miterlimit:4;stroke-dasharray:none"/>
  <path id="path46623-9-4" d="M 273.69922 126.41406 C 272.9797 126.36142 272.13509 126.45992 271.26367 126.71094 C 271.23881 126.82093 271.22266 126.93327 271.22266 127.05078 C 271.22266 127.5163 271.42818 127.9336 271.75391 128.2168 C 271.46536 127.51967 271.86521 127.00977 272.8125 127.00977 C 273.87432 127.00977 273.86456 127.46656 273.91406 128.08594 C 274.16094 127.81215 274.31055 127.44846 274.31055 127.05078 C 274.31055 126.85274 274.27103 126.66619 274.20312 126.49219 C 274.03824 126.46299 273.88115 126.42737 273.69922 126.41406 z" style="display:inline;fill:#089cc1;fill-opacity:1;stroke:none;enable-background:new"/>
</svg>
