<?xml version="1.0" encoding="UTF-8" standalone="no"?>
<!-- Created with Inkscape (http://www.inkscape.org/) -->

<svg
   xmlns:dc="http://purl.org/dc/elements/1.1/"
   xmlns:cc="http://creativecommons.org/ns#"
   xmlns:rdf="http://www.w3.org/1999/02/22-rdf-syntax-ns#"
   xmlns:svg="http://www.w3.org/2000/svg"
   xmlns="http://www.w3.org/2000/svg"
   version="1.1"
   width="560"
   height="560"
   id="iris_human">
  <g
     transform="translate(0,-2.7909995e-6)"
     id="g119327">
    <path
       d="m 272.4375,125.9375 c -0.30751,0.0135 -0.62446,0.0828 -0.9375,0.1875 -0.19115,0.2571 -0.3125,0.56126 -0.3125,0.90625 0,0.50055 0.25588,0.93649 0.625,1.21875 0.59332,0.0922 1.20766,0.13 1.8125,0.0625 0.41087,-0.27758 0.65625,-0.74808 0.65625,-1.28125 0,-0.26659 -0.0686,-0.49989 -0.1875,-0.71875 -0.54173,-0.24498 -1.08749,-0.39992 -1.65625,-0.375 z"
       id="path24512-8"
       style="fill:#2ad4ff;fill-opacity:1;stroke:none" />
    <path
       d="m 272.59375,125.9375 0,0.5625 -0.28125,-0.53125 c -0.0101,8.3e-4 -0.0211,-9.3e-4 -0.0312,0 l 0.1875,0.59375 -0.53125,-0.53125 0.40625,0.625 -0.6875,-0.4375 0.59375,0.5625 -0.78125,-0.25 0.71875,0.375 -0.8125,0 0.8125,0.15625 -0.8125,0.21875 0.84375,-0.0625 -0.71875,0.40625 0.78125,-0.28125 -0.59375,0.59375 0.6875,-0.46875 -0.40625,0.71875 0.53125,-0.65625 -0.1875,0.78125 0.3125,-0.71875 0.0625,0.75 0.0937,-0.75 0.28125,0.75 -0.125,-0.78125 0.46875,0.65625 -0.34375,-0.75 0.625,0.53125 -0.53125,-0.625 0.75,0.34375 -0.65625,-0.46875 0.8125,0.125 -0.78125,-0.28125 0.8125,-0.0937 -0.8125,-0.0625 0.75,-0.3125 -0.8125,0.1875 0.65625,-0.53125 -0.71875,0.40625 0.40625,-0.5625 c -0.012,-0.004 -0.0192,-0.0278 -0.0312,-0.0312 l -0.5,0.5 0.1875,-0.5625 c -0.0101,-0.002 -0.0211,0.002 -0.0312,0 l -0.28125,0.5 L 272.9375,126 c -0.0134,-0.001 -0.0192,-0.0229 -0.0312,-0.0312 -0.0102,-9.8e-4 -0.021,8.8e-4 -0.0312,0 l -0.125,0.53125 -0.0937,-0.53125 c -0.0127,-2.8e-4 -0.0188,-0.0223 -0.0312,-0.0312 -0.0102,-1.2e-4 -0.021,3e-5 -0.0312,0 z"
       id="path117671-9"
       style="color:#000000;fill:#00aad4;fill-opacity:1;stroke:none;marker:none;visibility:visible;display:inline;overflow:visible;enable-background:new" />
    <path
       d="m 288.125,125.84375 c -0.41077,0.0558 -0.81837,0.18274 -1.1875,0.375 -0.004,0.008 0.003,0.0227 0,0.0312 -0.0715,0.17791 -0.125,0.39026 -0.125,0.59375 0,0.63981 0.38311,1.17176 0.9375,1.40625 0.42393,0.0283 0.85982,0.0305 1.28125,-0.0312 0.51771,-0.24946 0.875,-0.76185 0.875,-1.375 0,-0.3199 -0.1147,-0.62848 -0.28125,-0.875 -0.52662,-0.15305 -1.01955,-0.19027 -1.5,-0.125 z"
       id="path24518-5"
       style="fill:#2ad4ff;stroke:none" />
    <path
       d="m 288.21875,125.84375 0,0.46875 L 288,125.875 c -0.0195,0.003 -0.0431,-0.004 -0.0625,0 l 0.15625,0.46875 -0.375,-0.40625 c -0.0213,0.006 -0.0413,0.0253 -0.0625,0.0312 l 0.3125,0.46875 -0.625,-0.40625 0.53125,0.53125 -0.78125,-0.21875 0.71875,0.34375 -0.8125,0 0.8125,0.15625 L 287,127.0625 287.84375,127 287.125,127.40625 287.90625,127.125 287.3125,127.71875 288,127.25 l -0.40625,0.71875 0.53125,-0.625 -0.1875,0.78125 0.3125,-0.75 0.0625,0.8125 0.0937,-0.8125 0.28125,0.78125 -0.125,-0.8125 0.46875,0.6875 -0.34375,-0.75 0.625,0.5 -0.53125,-0.625 0.75,0.34375 -0.65625,-0.46875 0.8125,0.125 -0.78125,-0.28125 0.8125,-0.0937 -0.8125,-0.0312 0.75,-0.34375 -0.8125,0.1875 0.65625,-0.5 -0.71875,0.375 0.375,-0.5625 -0.5,0.46875 0.1875,-0.53125 c -0.0218,-0.002 -0.0408,10e-4 -0.0625,0 l -0.25,0.46875 0.0312,-0.46875 c -0.0214,1.2e-4 -0.0412,-5.2e-4 -0.0625,0 l -0.125,0.4375 -0.0937,-0.4375 c -0.021,0.002 -0.0416,-0.002 -0.0625,0 z"
       id="path117671-3"
       style="color:#000000;fill:#00aad4;fill-opacity:1;stroke:none;marker:none;visibility:visible;display:inline;overflow:visible;enable-background:new" />
    <path
       d="m 289.28125,125.90625 c 0.23409,0.23409 0.375,0.57852 0.375,0.9375 0,0.71796 -0.56328,1.28125 -1.28125,1.28125 -0.71796,0 -1.3125,-0.56329 -1.3125,-1.28125 0,-0.30227 0.10917,-0.59266 0.28125,-0.8125 -0.25651,0.0962 -0.4822,0.22269 -0.71875,0.375 -0.0336,0.13686 -0.0625,0.29053 -0.0625,0.4375 0,0.54328 0.24138,1.01422 0.625,1.34375 0.79212,0.13213 1.65669,0.10924 2.4375,-0.0937 0.32506,-0.32506 0.53125,-0.75591 0.53125,-1.25 0,-0.24705 -0.0652,-0.50421 -0.15625,-0.71875 -0.24522,-0.0961 -0.48196,-0.17204 -0.71875,-0.21875 z"
       id="path24518-5-9"
       style="font-size:medium;font-style:normal;font-variant:normal;font-weight:normal;font-stretch:normal;text-indent:0;text-align:start;text-decoration:none;line-height:normal;letter-spacing:normal;word-spacing:normal;text-transform:none;direction:ltr;block-progression:tb;writing-mode:lr-tb;text-anchor:start;baseline-shift:baseline;color:#000000;fill:#00aad4;fill-opacity:1;stroke:none;stroke-width:0;marker:none;visibility:visible;display:inline;overflow:visible;enable-background:accumulate;font-family:Sans;-inkscape-font-specification:Sans" />
    <path
       d="m 272.03125,126 c -0.30404,0.0512 -0.59758,0.17005 -0.90625,0.3125 -0.10161,0.22469 -0.15625,0.45688 -0.15625,0.71875 0,0.42473 0.12671,0.81708 0.375,1.125 0.45242,0.10427 0.92093,0.17743 1.40625,0.1875 -0.71796,0 -1.28125,-0.59454 -1.28125,-1.3125 0,-0.44083 0.22827,-0.79753 0.5625,-1.03125 z m 0.71875,2.34375 c 0.45467,0.009 0.90584,-0.0411 1.34375,-0.125 0.28104,-0.31693 0.4375,-0.73237 0.4375,-1.1875 0,-0.20239 -0.0315,-0.38074 -0.0937,-0.5625 -0.25912,-0.14348 -0.5146,-0.22634 -0.78125,-0.3125 0.22342,0.23251 0.375,0.52535 0.375,0.875 0,0.71796 -0.56328,1.3125 -1.28125,1.3125 z"
       id="path24512-8-0"
       style="font-size:medium;font-style:normal;font-variant:normal;font-weight:normal;font-stretch:normal;text-indent:0;text-align:start;text-decoration:none;line-height:normal;letter-spacing:normal;word-spacing:normal;text-transform:none;direction:ltr;block-progression:tb;writing-mode:lr-tb;text-anchor:start;baseline-shift:baseline;color:#000000;fill:#00aad4;fill-opacity:1;stroke:none;marker:none;visibility:visible;display:inline;overflow:visible;enable-background:accumulate;font-family:Sans;-inkscape-font-specification:Sans" />
  </g>
</svg>
