<?xml version="1.0" encoding="UTF-8" standalone="no"?>
<svg xmlns="http://www.w3.org/2000/svg" id="iris_cruel" width="560" height="560">
  <g id="g51119">
    <path id="path46621-7-2-6" d="m 271.81641,126.44141 c -0.17096,10e-4 -0.33757,0.0106 -0.5,0.0273 a 1.5446309,1.5446309 0 0 0 -0.11329,0.57813 1.5446309,1.5446309 0 0 0 0.12305,0.60156 c 0.97235,0.0685 1.96694,0.0582 2.83399,0.0195 a 1.5446309,1.5446309 0 0 0 0.13086,-0.62109 1.5446309,1.5446309 0 0 0 -0.0176,-0.22657 c -0.74744,-0.21758 -1.63058,-0.38558 -2.45703,-0.3789 z" style="fill:#2ad4ff;fill-opacity:1;stroke:none;stroke-width:0.5;stroke-linecap:round;stroke-miterlimit:4;stroke-dasharray:none"/>
    <path id="path46623-9-7-1" d="m 271.81641,126.44141 c -0.16273,10e-4 -0.32147,0.0102 -0.47657,0.0254 -0.0743,0.18083 -0.11718,0.37638 -0.11718,0.58398 0,0.21249 0.0474,0.4134 0.125,0.59766 0.11045,0.008 0.22236,0.006 0.33398,0.0117 0.0747,-0.39371 0.46323,-0.65039 1.13086,-0.65039 0.80963,0 0.99583,0.26747 1.06055,0.66796 0.10206,-0.004 0.20658,-0.005 0.30468,-0.01 0.0829,-0.1894 0.13282,-0.39722 0.13282,-0.61719 0,-0.0778 -0.0123,-0.15183 -0.0234,-0.22656 -0.7501,-0.21961 -1.63918,-0.38953 -2.4707,-0.38281 z" style="display:inline;fill:#089cc1;fill-opacity:1;stroke:none;enable-background:new"/>
    <path id="path46629-1-00-3" d="m 289.58789,126.29102 c -0.9071,-0.005 -1.94229,0.15738 -2.76758,0.40234 a 1.5446309,1.5446309 0 0 0 -0.008,0.14258 1.5446309,1.5446309 0 0 0 0.16992,0.70312 c 0.89724,-0.0232 1.92426,-0.1012 2.83985,-0.21679 a 1.5446309,1.5446309 0 0 0 0.0801,-0.48633 1.5446309,1.5446309 0 0 0 -0.0937,-0.52735 c -0.0775,-0.003 -0.14055,-0.0171 -0.2207,-0.0176 z" style="fill:#2ad4ff;stroke:none;stroke-width:0.5;stroke-linecap:round;stroke-miterlimit:4;stroke-dasharray:none"/>
    <path id="path46633-6-1-9" d="m 289.58789,126.29102 c -0.90498,-0.005 -1.93728,0.15643 -2.76172,0.40039 -0.005,0.0481 -0.0137,0.0952 -0.0137,0.14453 0,0.25465 0.0666,0.49136 0.17578,0.70312 0.0847,-0.002 0.18007,-0.009 0.26758,-0.0117 0.0305,-0.44278 0.43301,-0.73437 1.14844,-0.73437 0.73849,0 0.94726,0.22958 1.02929,0.57226 0.12885,-0.0142 0.26082,-0.0254 0.38477,-0.041 0.0518,-0.15439 0.084,-0.31645 0.084,-0.48828 0,-0.18585 -0.0375,-0.36231 -0.0976,-0.52735 -0.0762,-0.003 -0.13806,-0.0171 -0.2168,-0.0176 z" style="fill:#089cc1;fill-opacity:1;stroke:none"/>
  </g>
  <path id="path34774-0" d="m 294.56646,127.18771 c -0.25093,-0.33106 -1.37021,-0.28361 -2.62478,-0.18414 0.94493,0.14025 2.14671,0.3655 2.62478,0.18414 z" style="display:inline;fill:#e9afaf;fill-opacity:1;stroke:none;enable-background:new"/>
</svg>
