<?xml version="1.0" encoding="UTF-8" standalone="no"?>
<svg xmlns="http://www.w3.org/2000/svg" id="iris_terror" width="560" height="560">
  <path id="path46621-7-44" d="M 272.74805 125.50195 A 1.5446309 1.5446309 0 0 0 271.20312 127.04688 A 1.5446309 1.5446309 0 0 0 271.25 127.41602 C 272.21282 127.41371 273.16984 127.4134 274.23828 127.44336 A 1.5446309 1.5446309 0 0 0 274.29102 127.04688 A 1.5446309 1.5446309 0 0 0 272.74805 125.50195 z" style="fill:#2ad4ff;fill-opacity:1;stroke:none;stroke-width:0.5;stroke-linecap:round;stroke-miterlimit:4;stroke-dasharray:none"/>
  <path id="path46623-9-25" d="M 272.76758 125.50781 C 271.9145 125.50781 271.22266 126.1977 271.22266 127.05078 C 271.22266 127.17675 271.24108 127.2988 271.26953 127.41602 C 271.46102 127.41556 271.57003 127.41824 271.7793 127.41797 C 271.94708 127.16556 272.29435 127.00977 272.8125 127.00977 C 273.43792 127.00977 273.6763 127.18091 273.78906 127.4375 C 273.94271 127.4405 274.10565 127.44111 274.25391 127.44531 C 274.2874 127.31881 274.31055 127.18781 274.31055 127.05078 C 274.31055 126.1977 273.62066 125.50781 272.76758 125.50781 z" style="display:inline;fill:#089cc1;fill-opacity:1;stroke:none;enable-background:new"/>
  <path id="path46629-1-55" d="M 288.35742 125.29102 A 1.5446309 1.5446309 0 0 0 286.8125 126.83594 A 1.5446309 1.5446309 0 0 0 286.89648 127.33008 C 287.96498 127.21891 288.9277 127.15542 289.87891 127.09766 A 1.5446309 1.5446309 0 0 0 289.90234 126.83594 A 1.5446309 1.5446309 0 0 0 288.35742 125.29102 z" style="fill:#2ad4ff;stroke:none;stroke-width:0.5;stroke-linecap:round;stroke-miterlimit:4;stroke-dasharray:none"/>
  <path id="path46633-6-7" d="M 288.35742 125.29102 C 287.50435 125.29102 286.8125 125.98286 286.8125 126.83594 C 286.8125 127.0104 286.84903 127.17366 286.90234 127.33008 C 287.04039 127.31573 287.17525 127.30278 287.31641 127.28906 C 287.45589 126.98394 287.82775 126.79297 288.4043 126.79297 C 288.95645 126.79297 289.2123 126.9215 289.34375 127.12695 C 289.55557 127.11224 289.68177 127.10952 289.87695 127.09766 C 289.89174 127.01184 289.90234 126.92597 289.90234 126.83594 C 289.90234 125.98286 289.2105 125.29102 288.35742 125.29102 z" style="fill:#089cc1;fill-opacity:1;stroke:none"/>
</svg>
