<svg xmlns="http://www.w3.org/2000/svg" width="560" height="560" id="iris_shock">
<path d="M272.748 125.502a1.545 1.545 0 0 0-1.545 1.545 1.545 1.545 0 0 0 .477 1.113c.73.06 1.512.002 2.25-.12a1.545 1.545 0 0 0 .36-.993 1.545 1.545 0 0 0-1.542-1.545z" fill="#2ad4ff"/>
<path d="M272.768 125.508c-.853 0-1.545.69-1.545 1.543 0 .44.187.833.482 1.114.01 0 .022.003.033.004-.25-.67.15-1.158 1.075-1.158 1.034 0 1.05.436 1.097 1.03.014 0 .03-.002.043-.005.222-.267.358-.61.358-.984 0-.852-.69-1.542-1.542-1.542z" fill="#089cc1"/><path d="M288.357 125.29a1.545 1.545 0 0 0-1.545 1.546 1.545 1.545 0 0 0 .655 1.258c.65.03 1.348-.048 2.02-.21a1.545 1.545 0 0 0 .415-1.048 1.545 1.545 0 0 0-1.545-1.545z" fill="#2ad4ff"/><path d="M288.357 125.29c-.853 0-1.545.693-1.545 1.546 0 .465.208.883.534 1.166-.29-.697.11-1.21 1.058-1.21 1.062 0 1.052.458 1.102 1.077.247-.275.396-.636.396-1.034 0-.853-.69-1.545-1.545-1.545z" fill="#089cc1"/>
</svg>
