<?xml version="1.0" encoding="UTF-8" standalone="no"?>
<svg xmlns="http://www.w3.org/2000/svg" id="iris_outrage" width="560" height="560">
  <path id="circle64274" d="M 272.74805 125.50195 A 1.5446309 1.5446309 0 0 0 271.20312 127.04688 A 1.5446309 1.5446309 0 0 0 271.26562 127.47852 C 272.27061 127.52004 273.24508 127.55563 274.19922 127.56836 A 1.5446309 1.5446309 0 0 0 274.29102 127.04688 A 1.5446309 1.5446309 0 0 0 272.74805 125.50195 z" style="fill:#2ad4ff;fill-opacity:1;stroke:none;stroke-width:0.5;stroke-linecap:round;stroke-miterlimit:4;stroke-dasharray:none"/>
  <path id="path64276" d="M 272.76758 125.50781 C 271.9145 125.50781 271.22266 126.1977 271.22266 127.05078 C 271.22266 127.19985 271.24966 127.34214 271.28906 127.47852 C 271.44342 127.48489 271.5729 127.48967 271.73242 127.49609 C 271.87554 127.19696 272.24241 127.00977 272.8125 127.00977 C 273.53426 127.00977 273.74947 127.23107 273.83594 127.56055 C 273.96357 127.56314 274.0967 127.56678 274.21875 127.56836 C 274.27642 127.40638 274.31055 127.23255 274.31055 127.05078 C 274.31055 126.1977 273.62066 125.50781 272.76758 125.50781 z" style="display:inline;fill:#089cc1;fill-opacity:1;stroke:none;enable-background:new"/>
  <path id="circle64282" d="M 288.35742 125.29102 A 1.5446309 1.5446309 0 0 0 286.8125 126.83594 A 1.5446309 1.5446309 0 0 0 286.91797 127.39453 C 287.93154 127.33884 288.95917 127.29908 289.84766 127.23828 A 1.5446309 1.5446309 0 0 0 289.90234 126.83594 A 1.5446309 1.5446309 0 0 0 288.35742 125.29102 z" style="fill:#2ad4ff;stroke:none;stroke-width:0.5;stroke-linecap:round;stroke-miterlimit:4;stroke-dasharray:none"/>
  <path id="path64286" d="M 288.35742 125.29102 C 287.50435 125.29102 286.8125 125.98286 286.8125 126.83594 C 286.8125 127.03455 286.8575 127.22012 286.92578 127.39453 C 287.04969 127.38774 287.16357 127.37919 287.28906 127.37305 C 287.39583 127.01973 287.7773 126.79297 288.4043 126.79297 C 289.06501 126.79297 289.29335 126.98302 289.39648 127.26562 C 289.5518 127.25705 289.69579 127.24824 289.8418 127.23828 C 289.87704 127.10876 289.90234 126.97663 289.90234 126.83594 C 289.90234 125.98286 289.2105 125.29102 288.35742 125.29102 z" style="fill:#089cc1;fill-opacity:1;stroke:none"/>
</svg>
