<?xml version="1.0" encoding="UTF-8" standalone="no"?>
<svg xmlns="http://www.w3.org/2000/svg" id="iris_melancholy" width="560" height="560">
  <path id="path46621-7-67" d="M 273.82617 126.49805 C 273.08374 126.45369 272.18189 126.56266 271.2207 126.82227 A 1.5446309 1.5446309 0 0 0 271.20312 127.04688 A 1.5446309 1.5446309 0 0 0 271.92383 128.35156 C 272.49006 128.39828 273.08852 128.36922 273.68945 128.26758 A 1.5446309 1.5446309 0 0 0 274.29102 127.04688 A 1.5446309 1.5446309 0 0 0 274.20898 126.55078 C 274.08089 126.53332 273.96563 126.50638 273.82617 126.49805 z" style="fill:#2ad4ff;fill-opacity:1;stroke:none;stroke-width:0.5;stroke-linecap:round;stroke-miterlimit:4;stroke-dasharray:none"/>
  <path id="path46623-9-11" d="M 273.82617 126.49805 C 273.09038 126.45409 272.19751 126.5602 271.24609 126.81445 C 271.23404 126.89221 271.22266 126.96964 271.22266 127.05078 C 271.22266 127.5163 271.42818 127.9336 271.75391 128.2168 C 271.46536 127.51967 271.86521 127.00977 272.8125 127.00977 C 273.87432 127.00977 273.86456 127.46656 273.91406 128.08594 C 274.16094 127.81215 274.31055 127.44846 274.31055 127.05078 C 274.31055 126.87494 274.27482 126.7102 274.2207 126.55273 C 274.08905 126.53445 273.96992 126.50663 273.82617 126.49805 z" style="display:inline;fill:#089cc1;fill-opacity:1;stroke:none;enable-background:new"/>
  <path id="path46629-1-76" d="M 288.55859 126.32031 C 287.93688 126.2957 287.35563 126.35067 286.86133 126.46484 A 1.5446309 1.5446309 0 0 0 286.8125 126.83594 A 1.5446309 1.5446309 0 0 0 287.52734 128.13477 C 288.06958 128.20042 288.64018 128.20348 289.19141 128.13672 A 1.5446309 1.5446309 0 0 0 289.19336 128.13477 A 1.5446309 1.5446309 0 0 0 289.90234 126.83594 A 1.5446309 1.5446309 0 0 0 289.86133 126.48828 C 289.42196 126.40141 288.9831 126.33712 288.55859 126.32031 z" style="fill:#2ad4ff;stroke:none;stroke-width:0.5;stroke-linecap:round;stroke-miterlimit:4;stroke-dasharray:none"/>
  <path id="path46633-6-10" d="M 288.55859 126.32031 C 287.93774 126.29573 287.35715 126.34905 286.86328 126.46289 C 286.83349 126.58267 286.8125 126.70693 286.8125 126.83594 C 286.8125 127.30146 287.01996 127.71875 287.3457 128.00195 C 287.05715 127.30482 287.45701 126.79297 288.4043 126.79297 C 289.46612 126.79297 289.45636 127.24976 289.50586 127.86914 C 289.75274 127.59535 289.90234 127.23362 289.90234 126.83594 C 289.90234 126.71625 289.88514 126.60015 289.85938 126.48828 C 289.42062 126.40163 288.9825 126.33709 288.55859 126.32031 z" style="fill:#089cc1;fill-opacity:1;stroke:none"/>
</svg>
