<?xml version="1.0" encoding="UTF-8" standalone="no"?>
<!-- Created with Inkscape (http://www.inkscape.org/) -->

<svg
   xmlns:dc="http://purl.org/dc/elements/1.1/"
   xmlns:cc="http://creativecommons.org/ns#"
   xmlns:rdf="http://www.w3.org/1999/02/22-rdf-syntax-ns#"
   xmlns:svg="http://www.w3.org/2000/svg"
   xmlns="http://www.w3.org/2000/svg"
   version="1.1"
   width="560"
   height="560"
   id="jacket_suit">
  <path
     d="m 285.81457,258.62337 c 1.33949,12.03881 4.70338,70.46904 6.62639,75.41473 10.98246,1.10902 40.28813,-6.15967 36.86807,-14.10552 -1.32004,-12.85614 -4.50713,-37.26449 -5.91882,-43.7384 -0.33231,-1.52396 -1.68024,-3.96652 -1.1135,-6.26131 0.28514,-1.1546 1.67886,-3.7795 -1.18522,-6.34748 -2.40251,-2.15408 -1.05503,-17.93376 -1.06049,-21.63703 -0.0147,-9.95825 -0.70196,-21.87836 1.71779,-25.91136 2.41976,-4.0329 25.00284,-29.0219 5.97696,-41.49063 -3.83541,-2.51356 -10.88329,-3.66462 -13.5275,-4.3863 -3.28703,-0.89713 -11.17283,-7.17205 -16.5954,-11.14405 11.46954,33.70896 -6.82115,61.21709 -11.78823,99.60735 z"
     id="path2987-8-1-1-2"
     style="fill:#808080;fill-opacity:1;stroke:#4d4d4d;stroke-width:1;stroke-linecap:butt;stroke-linejoin:miter;stroke-miterlimit:4;stroke-opacity:1;stroke-dasharray:none;display:inline" />
  <path
     d="m 299.69494,163.70217 c 5.64929,3.95451 9.03886,8.47394 14.40569,9.6038 -3.67204,0 -9.6038,0 -9.6038,0 3.67204,4.23697 7.06162,8.47394 7.06162,8.47394 l -9.32133,3.9545 c 4.23697,3.38958 9.88626,7.34408 9.88626,7.34408 -4.23698,18.3602 -12.42845,44.06448 -20.61992,54.79813 -4.08766,5.35625 0.8474,4.23697 3.10711,3.38958 -3.38957,3.38957 -5.08436,4.23697 -6.21422,4.23697 -1.12986,0 -3.10711,-4.51944 -1.41232,-8.75641 1.69479,-4.23697 13.84076,-64.68439 12.71091,-83.04459 z"
     id="path306009"
     style="color:#000000;fill:#666666;fill-opacity:1;stroke:none;stroke-width:0.5;marker:none;visibility:visible;display:inline;overflow:visible;enable-background:accumulate" />
  <path
     d="m 282.88328,263.11708 c 3.68438,-12.78665 22.88835,-41.93712 28.24472,-72.21009 -1.91829,-2.29476 -6.52193,-4.3197 -8.46306,-7.44765 3.47338,-1.90101 6.31865,-2.91919 7.82579,-3.98178 -8.83878,-10.76601 -8.57207,-26.67682 -15.70706,-29.08923 1.81011,49.79909 -13.07055,101.52913 -11.90017,112.72875 z"
     id="path32433-4-1-3"
     style="color:#000000;fill:#808080;fill-opacity:1;fill-rule:evenodd;stroke:#4d4d4d;stroke-width:1;stroke-linecap:butt;stroke-linejoin:miter;stroke-miterlimit:4;stroke-opacity:1;stroke-dasharray:none;stroke-dashoffset:0;marker:none;visibility:visible;display:inline;overflow:visible;enable-background:accumulate" />
  <path
     d="m 292.16425,290.42867 a 2.0017904,2.4259163 4.2189084 1 0 -0.36163,4.83833 2.0017904,2.4259163 4.2189084 1 0 0.36163,-4.83833 z"
     id="path32371-7-9-2"
     style="color:#000000;fill:#808080;fill-opacity:1;fill-rule:nonzero;stroke:#4d4d4d;stroke-width:0.5;stroke-linecap:butt;stroke-linejoin:miter;stroke-miterlimit:4;stroke-opacity:1;stroke-dasharray:none;stroke-dashoffset:0;marker:none;visibility:visible;display:inline;overflow:visible;enable-background:accumulate" />
  <path
     d="m 288.74372,259.01984 c 6.60066,-6.25327 17.02276,-11.11691 21.539,-12.50652 4.51624,-1.38961 6.60067,15.63314 1.38962,17.02276 -3.67981,0.98128 -14.0337,0.54375 -21.14292,-1.27068 -1.15403,-1.316 -1.2411,-3.79017 -1.7857,-3.24556 z"
     id="path16046"
     style="fill:#666666;fill-opacity:1;stroke:none" />
  <path
     d="m 319.39839,269.44068 c -5.24326,0.98311 -20.64532,-0.65541 -25.56088,-2.62163 13.10815,12.78044 25.56088,7.20948 25.56088,2.62163 z"
     id="path16096"
     style="fill:#666666;fill-opacity:1;stroke:none;display:inline" />
  <path
     d="m 323.4375,202.6875 c -3.10711,9.03886 -2.54362,17.50265 -21.46875,38.6875 7.62655,-6.49669 11.83647,-11.30036 13.53125,-14.125 1.69479,-2.82465 2.00122,5.36771 1.71875,7.0625 -0.28246,1.69479 -0.85556,6.49029 -5.375,8.75 4.23697,-1.12985 7.6335,5.95749 5.65625,15.84375 -1.97726,9.88626 4.78003,3.95175 5.0625,7.90625 0.28246,3.9545 -3.66928,8.46025 -7.90625,10.4375 3.9545,0.84739 7.64653,-1.41209 9.90625,21.75 2.25972,23.1621 1.41597,25.71268 -0.84375,27.125 -2.25456,1.40909 -18.02496,7.59457 -31.5625,6.78125 0.004,0.0204 -0.004,0.0425 0,0.0625 0.53203,0.41268 1.06495,0.79066 1.59375,1.15625 11.81762,0.47859 38.85548,-6.5369 35.5625,-14.1875 -1.32004,-12.85614 -4.52581,-37.27609 -5.9375,-43.75 -0.33231,-1.52396 -1.66049,-3.95521 -1.09375,-6.25 0.28514,-1.1546 1.67658,-3.77577 -1.1875,-6.34375 -2.40251,-2.15408 -1.05704,-17.95298 -1.0625,-21.65625 -0.0147,-9.95825 -0.701,-21.87325 1.71875,-25.90625 0.40634,-0.67722 1.40526,-1.98693 2.65625,-3.6875 -0.50405,-5.2217 -0.87709,-9.19793 -0.96875,-9.65625 z"
     id="path306037"
     style="color:#000000;fill:#666666;fill-opacity:1;stroke:none;stroke-width:0.5;marker:none;visibility:visible;display:inline;overflow:visible;enable-background:accumulate" />
  <path
     d="m 328.08954,175.32949 c 2.50274,0.58648 5.28085,1.44315 8.0571,11.48691 3.11617,11.2735 2.45806,20.86573 2.96877,28.09986 0.26739,3.7875 3.49505,16.40939 4.28656,23.41867 0.98698,8.74029 1.24922,11.61807 2.87851,17.37207 2.21367,7.81778 1.18801,16.84441 3.17041,19.02598 2.4766,2.72542 1.87988,5.38023 0.90537,7.56743 -0.49906,1.12009 0.36983,3.3123 1.16499,3.97517 2.39097,1.99321 0.66605,5.22058 0.55708,5.66881 -0.69482,2.85788 -0.0318,14.53828 0.30134,16.704 -0.37127,-4.61842 -15.16547,-4.00778 -19.65031,0.36103 -1.73647,-4.22785 -5.40235,-29.39949 -7.19593,-35.90159 -1.79358,-6.50213 -3.61644,-18.6997 -3.0279,-23.61113 0.58854,-4.91134 -3.84639,-8.07934 -2.85195,-16.81311 0.69062,-6.06545 0.005,-10.86211 1.97349,-19.79472 2.77185,-12.57809 5.76665,-24.69043 6.46247,-37.55938 z"
     id="path3013-4-9-2-5"
     style="fill:#808080;fill-opacity:1;stroke:#4d4d4d;stroke-width:1;stroke-linecap:round;stroke-linejoin:miter;stroke-miterlimit:4;stroke-opacity:1;stroke-dasharray:none;display:inline" />
  <path
     d="m 326.9375,186.40625 c -1.29074,8.87953 -3.34847,17.55639 -5.3125,26.46875 -1.96849,8.93261 -1.27813,13.74705 -1.96875,19.8125 -0.99444,8.73377 3.43229,11.90116 2.84375,16.8125 -0.58854,4.91143 1.23767,17.09162 3.03125,23.59375 1.79358,6.5021 5.45103,31.6784 7.1875,35.90625 1.67662,-1.63324 4.79646,-2.74407 8.0625,-3.25 -1.31723,-6.69341 -3.23684,-24.96939 -6.25,-33.40625 3.96878,1.9844 9.26039,2.63018 11.90625,5.9375 -3.96879,-8.59904 -12.56246,-7.93742 -16.53125,-15.875 2.64586,0.66147 7.28642,1.9844 10.59375,0 -2.64586,-0.66146 -7.27082,-1.9635 -8.59375,-6.59375 2.64586,0.66146 5.28638,-1.32296 12.5625,3.96875 -6.61465,-13.22929 -17.20833,-12.5832 -18.53125,-25.8125 3.96878,4.63025 7.95303,9.25518 17.875,12.5625 -3.30732,-4.63025 -13.23432,-9.26552 -19.1875,-19.1875 3.96878,5.29172 7.94264,8.59897 15.21875,7.9375 -7.27611,-5.29172 -11.92186,-11.90092 -13.90625,-24.46875 5.95318,4.63025 11.25517,11.901 14.5625,16.53125 -1.32293,-4.63025 -4.64574,-11.88014 -13.90625,-19.15625 3.96879,1.32293 4.63017,3.30728 7.9375,3.96875 -1.75951,-4.10551 -7.65787,-12.40177 -7.59375,-25.75 z"
     id="path15969"
     style="fill:#666666;fill-opacity:1;stroke:none" />
  <path
     d="m 285.56787,291.99123 a 1.5032665,1.5032665 0 1 1 -3.00653,0 1.5032665,1.5032665 0 1 1 3.00653,0 z"
     id="path298431-1-9-2-3-8-7"
     style="color:#000000;fill:none;stroke:#b3b3b3;stroke-width:0.5;stroke-linecap:round;stroke-linejoin:miter;stroke-miterlimit:4;stroke-opacity:1;stroke-dasharray:none;stroke-dashoffset:0;marker:none;visibility:visible;display:inline;overflow:visible;enable-background:new" />
  <path
     d="m 265.7044,158.89946 c -2.76774,2.5868 -10.84395,8.25252 -14.00266,9.17763 -2.25768,0.66122 -18.90218,3.18416 -20.31407,6.28763 -4.0063,8.80623 7.08711,40.2145 9.93863,54.6564 1.31433,6.65659 4.65892,30.41349 3.23951,32.70138 -1.69546,2.73282 -2.03171,5.36318 -0.9997,7.10279 2.20275,3.71308 0.74868,8.49115 -0.86042,14.0011 -2.09177,7.16274 -3.47104,38.08655 -3.4448,41.67288 7.31577,4.36276 25.248,8.86882 43.84424,9.90021 1.70956,-6.5666 7.08438,-52.69508 6.3542,-71.37362 -0.73914,-18.90748 -36.26257,-83.43464 -23.75493,-104.1264 z"
     id="path2987-8-1-1-1"
     style="fill:#808080;fill-opacity:1;stroke:#4d4d4d;stroke-width:1;stroke-linecap:butt;stroke-linejoin:miter;stroke-miterlimit:4;stroke-opacity:1;stroke-dasharray:none;display:inline" />
  <path
     d="m 272.76407,212.70199 c -5.86474,-0.20956 -11.51436,-1.25786 -14.90433,-1.14092 -3.38997,0.11694 -7.52153,-0.48036 -10.21802,-1.26444"
     id="path4521-0-4"
     style="color:#000000;fill:none;stroke:#4d4d4d;stroke-width:0.26044887;stroke-linecap:butt;stroke-linejoin:miter;stroke-miterlimit:4;stroke-opacity:1;stroke-dasharray:none;stroke-dashoffset:0;marker:none;visibility:visible;display:inline;overflow:visible;enable-background:accumulate" />
  <path
     d="m 273.89391,217.27283 c -3.36257,1.81981 -10.51108,1.8391 -14.92003,1.60221 -4.40893,-0.23688 -7.78585,-0.8479 -10.93882,-1.81922"
     id="path4523-4-6"
     style="color:#000000;fill:none;stroke:#4d4d4d;stroke-width:0.26044887;stroke-linecap:butt;stroke-linejoin:miter;stroke-miterlimit:4;stroke-opacity:1;stroke-dasharray:none;stroke-dashoffset:0;marker:none;visibility:visible;display:inline;overflow:visible;enable-background:accumulate" />
  <path
     d="m 263.7653,213.46679 c 1.32293,33.7347 3.96878,31.08884 1.32293,53.57864 -2.64586,22.48979 18.521,25.79712 13.89075,-3.30733 -2.22611,-13.99269 -4.55522,-29.09907 -7.35467,-37.01423 -3.02334,-8.54818 -6.48522,-9.47914 -7.85901,-13.25708 z"
     id="path15913"
     style="fill:#666666;fill-opacity:1;stroke:none;display:inline" />
  <path
     d="m 265.39681,161.29504 c -5.02262,4.72502 -10.26999,9.11957 -15.41885,11.00866 3.63395,-0.52749 8.37433,3.98723 8.37433,3.98723 -3.02531,4.72052 -5.48862,5.44597 -5.48862,5.44597 l 9.51026,6.52895 c -3.14117,2.55076 -10.42352,4.73359 -10.42352,4.73359 6.83052,17.56112 20.16179,44.54396 28.77251,55.52223 8.63691,11.01165 2.38257,9.09907 0.0246,8.58508 3.84134,2.8675 4.37799,-0.12145 7.74651,2.56673 0.88312,0.70475 0.0252,-9.26966 -2.26061,-13.21922 -2.28586,-3.94957 -19.31722,-66.82715 -20.83657,-85.15922 z"
     id="path306009-5"
     style="color:#000000;fill:#666666;fill-opacity:1;stroke:none;stroke-width:0.5;marker:none;visibility:visible;display:inline;overflow:visible;enable-background:accumulate" />
  <path
     d="m 289.21631,265.43495 c 2.21738,-10.52823 -26.09663,-38.87669 -36.61185,-74.0826 1.78166,-2.33602 6.9809,-4.30524 8.72309,-7.32225 -3.72507,-1.91498 -6.71884,-2.99126 -8.33308,-4.07505 6.26466,-9.18973 9.93134,-26.02914 15.3324,-28.44155 -1.81011,49.79909 28.01985,106.36421 20.88922,113.92145 z"
     id="path32433-4-1"
     style="color:#000000;fill:#808080;fill-opacity:1;fill-rule:evenodd;stroke:#4d4d4d;stroke-width:1;stroke-linecap:butt;stroke-linejoin:miter;stroke-miterlimit:4;stroke-opacity:1;stroke-dasharray:none;stroke-dashoffset:0;marker:none;visibility:visible;display:inline;overflow:visible;enable-background:accumulate" />
  <path
     d="m 281.03992,291.83427 c 2.51175,-0.30084 4.96291,-0.61172 4.86256,0.18192 -0.11545,0.91304 -2.04647,-0.44428 -4.86256,-0.18192 z"
     id="path5469-5-3"
     style="fill:#4d4d4d;stroke:#4d4d4d;stroke-width:0.26044887;stroke-linecap:butt;stroke-linejoin:miter;stroke-miterlimit:4;stroke-opacity:1;stroke-dasharray:none;stroke-dashoffset:0;marker:none;visibility:visible;display:inline;overflow:visible;enable-background:accumulate" />
  <path
     d="m 231.1875,186.9375 c 0.0369,0.24314 0.0541,0.47194 0.0937,0.71875 0.2571,1.10547 0.50495,2.4201 0.71875,3.84375 0.0147,0.0741 0.0164,0.14447 0.0312,0.21875 2.52254,12.62091 7.49905,28.28631 9.28125,37.3125 1.31433,6.65659 4.66941,30.39961 3.25,32.6875 -1.69546,2.73282 -2.03201,5.35414 -1,7.09375 2.20275,3.71308 0.76535,8.49005 -0.84375,14 -2.09177,7.16274 -3.49499,38.10117 -3.46875,41.6875 7.31577,4.36276 25.24751,8.87486 43.84375,9.90625 0.0614,-0.23579 0.14837,-0.63405 0.21875,-0.96875 -37.26643,-3.40301 -36.99908,-10.99539 -37.5625,-13.8125 -0.56493,-2.82465 -1.97239,-25.13196 -1.125,-30.78125 0.84739,-5.64929 2.82675,-7.92171 6.78125,-11.59375 3.9545,-3.67204 5.64808,-5.37136 0.28125,-6.21875 -5.36682,-0.8474 -8.47361,-3.08525 -7.34375,-5.0625 1.12985,-1.97726 5.35556,-1.72361 9.875,-0.59375 4.51943,1.12986 -0.57553,-7.0561 -4.8125,-15.8125 -4.23697,-8.7564 -4.50851,-21.1875 -2.53125,-21.1875 1.97725,0 2.54428,0.5625 6.78125,0.5625 -8.67188,-1.35498 -19.59336,-33.6217 -22.46875,-42 z"
     id="path306070"
     style="color:#000000;fill:#666666;fill-opacity:1;stroke:none;stroke-width:0.5;marker:none;visibility:visible;display:inline;overflow:visible;enable-background:accumulate" />
  <path
     d="m 282.82141,293.1572 c 2.59652,0.39947 3.99465,0.79894 4.39411,-0.79893 -0.39946,4.39412 -0.99866,7.78958 -1.59786,9.7869 0.39947,-4.59385 1.59786,-7.3901 -2.79625,-8.98797 z"
     id="path306094"
     style="color:#000000;fill:#666666;fill-opacity:1;stroke:none;stroke-width:0.5;marker:none;visibility:visible;display:inline;overflow:visible;enable-background:accumulate" />
  <path
     d="m 286.40124,259.69263 a 2.0017904,2.4259163 4.2189084 1 0 -0.36163,4.83833 2.0017904,2.4259163 4.2189084 1 0 0.36163,-4.83833 z"
     id="path32371-7-9"
     style="color:#000000;fill:#808080;fill-opacity:1;fill-rule:nonzero;stroke:#4d4d4d;stroke-width:0.5;stroke-linecap:butt;stroke-linejoin:miter;stroke-miterlimit:4;stroke-opacity:1;stroke-dasharray:none;stroke-dashoffset:0;marker:none;visibility:visible;display:inline;overflow:visible;enable-background:accumulate" />
  <path
     d="m 231.71813,174.02769 c -7.37742,8.56459 -8.84396,30.4929 -9.73983,34.27831 -0.89587,3.78541 -5.81393,19.13919 -4.8979,22.86172 1.04313,4.23907 -1.104,9.84155 -1.91391,11.08805 -2.45408,3.77698 -4.06934,3.1952 -4.57627,27.45265 -0.0169,0.80712 -2.96535,7.78792 -1.42731,12.67774 1.46085,4.64442 -1.01315,9.74975 -1.00356,12.11322 0.0169,4.15806 1.58819,16.56936 2.82356,19.63165 5.73614,-11.84822 23.42142,-6.7737 23.38793,-3.75829 -0.46397,-3.32014 1.69049,-18.32589 -0.35579,-20.51773 -1.57476,-1.68678 -0.69861,-4.84578 0.49959,-6.69855 1.20804,-1.86797 2.49933,-4.11705 1.84464,-6.30274 -1.1407,-3.80828 -0.80972,-11.39968 0.0734,-12.83371 1.9848,-3.22286 -0.62701,-17.3793 0.9951,-19.36349 5.48886,-6.71405 5.76177,-14.79349 5.9251,-23.33703 0.19176,-10.03123 -0.41035,-20.42678 -2.43327,-25.91679 -1.27891,-3.47084 -5.50443,-10.90951 -8.1015,-17.80001 z"
     id="path3011-6-3-2-5"
     style="fill:#808080;fill-opacity:1;stroke:#4d4d4d;stroke-width:1;stroke-linecap:round;stroke-linejoin:miter;stroke-miterlimit:4;stroke-opacity:1;stroke-dasharray:none;display:inline" />
  <path
     d="m 224.99481,222.77628 c -3.88088,-6.06388 -6.06388,-14.55332 -1.69789,-22.8002 -0.24255,11.88522 5.09367,14.79588 9.21711,16.49376"
     id="path50460"
     style="color:#000000;fill:#808080;stroke:#4d4d4d;stroke-width:0.5;stroke-linecap:round;stroke-linejoin:miter;stroke-miterlimit:4;stroke-opacity:1;stroke-dasharray:none;stroke-dashoffset:0;marker:none;visibility:visible;display:inline;overflow:visible;enable-background:accumulate" />
  <path
     d="m 230.75,183.125 c 2.93202,21.74114 -2.19088,33.38073 -6.84375,22.1875 2.19381,6.02804 4.95441,12.65315 10.96875,9.125 -1.61764,7.62351 -10.82966,16.27117 -12.5,3.53125 -3.64073,21.425 12.06307,5.48131 13.5,0.15625 0.10003,9.4412 -6.26975,13.60155 -12.15625,17.15625 5.8865,-0.72814 9.86036,-3.68799 15.21875,-7.9375 -5.95318,9.92198 -14.465,15.62138 -21.59375,17.125 9.22716,0.86152 16.31247,-5.86975 20.28125,-10.5 -5.14436,12.53449 -12.94785,9.80196 -19.5625,23.03125 7.27612,-5.29171 10.94789,-0.52604 13.59375,-1.1875 -1.32293,4.63025 -6.63539,8.71354 -9.28125,9.375 3.30733,1.9844 8.63539,-2.11978 11.28125,-2.78125 -3.96879,7.93758 -12.56246,7.27596 -16.53125,15.875 2.64586,-3.30732 7.93747,-3.9531 11.90625,-5.9375 -3.64934,3.20501 -7.10468,8.63738 -2.59375,12.46875 3.25606,2.76555 1.94813,12.39351 2.125,22.3125 1.9e-4,0.0105 -1.9e-4,0.0208 0,0.0312 3.37063,0.71364 5.82497,2.09565 5.8125,3.21875 -0.46397,-3.32014 1.67128,-18.33941 -0.375,-20.53125 -1.57476,-1.68678 -0.6982,-4.83473 0.5,-6.6875 1.20804,-1.86797 2.49844,-4.12681 1.84375,-6.3125 -1.1407,-3.80828 -0.78937,-11.37847 0.0937,-12.8125 1.9848,-3.22286 -0.62211,-17.39081 1,-19.375 4.23333,-5.17827 5.34805,-11.17334 5.71875,-17.5625 -0.002,-0.0103 0.002,-0.0209 0,-0.0312 -2.65151,-17.43907 -7.587,-30.95706 -12.40625,-43.9375 z"
     id="path15969-6"
     style="fill:#666666;fill-opacity:1;stroke:none;display:inline" />
</svg>
