<?xml version="1.0" encoding="UTF-8" standalone="no"?>
<!-- Created with Inkscape (http://www.inkscape.org/) -->

<svg
   xmlns:dc="http://purl.org/dc/elements/1.1/"
   xmlns:cc="http://creativecommons.org/ns#"
   xmlns:rdf="http://www.w3.org/1999/02/22-rdf-syntax-ns#"
   xmlns:svg="http://www.w3.org/2000/svg"
   xmlns="http://www.w3.org/2000/svg"
   version="1.1"
   width="560"
   height="560"
   id="lips_neutral">
  <path
     d="m 274.82907,142.7597 c 1.58117,0.6563 1.31799,1.7976 5.46483,1.7976 4.14685,0 5.84291,-1.0777 6.46941,-1.5252 -5.53257,-2.6857 -10.58019,-1.2685 -11.93424,-0.2724 z"
     id="path24524-4"
     style="fill:#e9afaf;stroke:#de8787;stroke-width:0.1;stroke-miterlimit:4;stroke-opacity:1;stroke-dasharray:none;display:inline;enable-background:new" />
  <path
     d="m 284.34568,142.4951 c -1.20642,-0.2692 -2.77005,0.082 -3.96339,0.082 -1.00109,0 -2.6411,-0.5981 -4.11368,0.036 -1.14497,0.4934 -1.90925,0.3952 -2.83409,-0.7442 0.97546,0.3995 1.42859,0.2921 3.00976,-0.8117 1.58117,-1.1039 2.11817,-0.2984 3.93801,-0.2984 1.81984,0 2.32256,-0.9656 4.27026,0.2182 1.62858,0.9899 2.93834,1.3896 3.35601,1.2703 -0.94648,1.4329 -2.35779,0.5389 -3.66288,0.2477 z"
     id="path24526-67"
     style="fill:#de8787;stroke:none;display:inline;enable-background:new" />
</svg>
