<?xml version="1.0" encoding="UTF-8" standalone="no"?>
<!-- Created with Inkscape (http://www.inkscape.org/) -->

<svg
   xmlns:dc="http://purl.org/dc/elements/1.1/"
   xmlns:cc="http://creativecommons.org/ns#"
   xmlns:rdf="http://www.w3.org/1999/02/22-rdf-syntax-ns#"
   xmlns:svg="http://www.w3.org/2000/svg"
   xmlns="http://www.w3.org/2000/svg"
   version="1.1"
   width="560"
   height="560"
   id="mask_robin">
  <path
     d="m 264.375,121.65625 c -0.16839,0.84197 0,2.1875 0,2.1875 1.85234,-0.25259 0.26337,9.18232 8.09375,9.6875 7.83038,0.50519 6.07041,-5.6467 8.34375,-5.5625 2.27333,0.0842 1.51419,5.6467 8.25,5.5625 6.73581,-0.0842 7.88892,-9.25956 8.5625,-9.34375 0.0842,-0.84198 0.0937,-1.5 0.0937,-1.5 -0.58938,1.93654 -1.25272,3.87405 -4.03125,1.9375 -2.77852,-1.93654 -8.25532,-2.53807 -10.78125,0.15625 -2.52593,2.69432 -3.87418,1.01296 -4.96875,-0.25 -1.09457,-1.26297 -5.98539,-2.62664 -9.4375,-0.4375 -3.4521,2.18914 -4.0408,-2.10071 -4.125,-2.4375 z m 7.75,3.625 c 2.33435,-0.0699 4.02492,0.88503 5.65625,1.9375 -1.34716,1.93655 -7.94022,3.45729 -10.71875,-0.5 2.02074,-0.97879 3.66189,-1.39557 5.0625,-1.4375 z m 16.15625,0 c 1.54469,-0.0879 3.39247,0.29557 5.75,1.4375 -2.77853,3.95729 -9.37159,2.43655 -10.71875,0.5 1.46819,-0.94722 2.98272,-1.82446 4.96875,-1.9375 z"
     id="path293978"
     style="color:#000000;fill:#333333;stroke:#000000;stroke-width:0.5;stroke-linecap:butt;stroke-linejoin:miter;stroke-miterlimit:4;stroke-opacity:1;stroke-dasharray:none;stroke-dashoffset:0;marker:none;visibility:visible;display:inline;overflow:visible;enable-background:accumulate" />
  <path
     d="m 264.375,121.65625 c -0.16839,0.84197 0,2.1875 0,2.1875 1.65649,-0.22588 0.55641,7.29572 5.90625,9.25 l 0.0625,-4.15625 c -1.27682,-0.3375 -2.44697,-1.03054 -3.28125,-2.21875 1.27053,-0.61541 2.37003,-1.00117 3.375,-1.21875 l 0.0312,-2.25 c -0.68122,0.18514 -1.34985,0.45128 -1.96875,0.84375 -3.4521,2.18914 -4.0408,-2.10071 -4.125,-2.4375 z m 33.34375,1.03125 c -0.58938,1.93654 -1.25272,3.87405 -4.03125,1.9375 -0.73994,-0.51572 -1.67152,-0.92942 -2.6875,-1.21875 0.11441,0.68389 0.24213,1.49799 0.375,2.28125 0.81257,0.23306 1.68513,0.56086 2.65625,1.03125 -0.57977,0.82574 -1.32662,1.4178 -2.15625,1.8125 0.33893,1.97787 0.40981,2.51321 0.65625,3.9375 3.69452,-2.42792 4.55889,-8.2144 5.09375,-8.28125 0.0842,-0.84198 0.0937,-1.5 0.0937,-1.5 z m -11.15625,0.375 c -1.4289,0.20194 -2.73683,0.73804 -3.65625,1.71875 -2.52593,2.69432 -3.87418,1.01296 -4.96875,-0.25 -0.50078,-0.57783 -1.81755,-1.1674 -3.40625,-1.4375 l 0.0625,2.53125 c 1.16889,0.35921 2.1944,0.95304 3.1875,1.59375 -0.48741,0.70066 -1.66203,1.36671 -3.09375,1.71875 l 0.0937,4.53125 c 5.1412,-0.7554 4.01889,-5.57453 6.03125,-5.5 1.78695,0.0662 1.72249,3.50469 4.875,4.9375 l 0.375,-4.09375 c -1.26908,-0.36619 -2.30352,-0.95193 -2.75,-1.59375 0.95225,-0.61435 1.92402,-1.19643 3.03125,-1.5625 l 0.21875,-2.59375 z"
     id="path294002"
     style="color:#000000;fill:#1a1a1a;stroke:none;marker:none;visibility:visible;display:inline;overflow:visible;enable-background:accumulate" />
</svg>
