<?xml version="1.0" encoding="UTF-8" standalone="no"?>
<!-- Created with Inkscape (http://www.inkscape.org/) -->

<svg
   xmlns:svg="http://www.w3.org/2000/svg"
   xmlns="http://www.w3.org/2000/svg"
   version="1.1"
   width="560"
   height="560"
   id="mask_guy_fawkes">
  <g
     transform="translate(0,-492.36218)"
     id="layer1">
    <path
       d="m 280.16505,603.4835 c -3.67419,0.003 -7.28842,0.82536 -10.87555,1.52128 -2.13066,0.41337 -3.82752,1.62938 -4.17543,3.81939 -1.5907,5.72375 -1.6385,11.79059 -1.1005,17.67277 0.59318,4.86252 1.50155,10.20783 5.27593,13.69154 2.89826,2.84042 5.41562,6.80189 9.35427,7.83298 1.8645,0.48811 4.31926,-0.20397 5.69672,-1.03576 3.29125,-1.98747 5.9652,-4.74834 8.54507,-7.54168 1.87437,-2.02945 2.6944,-4.63712 3.43098,-7.218 1.51093,-6.24473 2.05598,-12.83103 1.0034,-19.19405 -0.61231,-3.0789 -1.72969,-6.71755 -4.88753,-8.02719 -3.98749,-1.00847 -8.15206,-1.48782 -12.26736,-1.52128 z m -7.44457,15.08335 c 1.07865,0.008 2.2337,0.35931 3.52808,1.06814 -1.72584,0.43145 -4.20227,0.95382 -6.66775,-0.0324 1.04783,-0.67801 2.06102,-1.04347 3.13967,-1.03577 z m 15.76307,0.16184 c 1.12488,0.008 2.18894,0.35776 3.23677,1.03577 -2.46547,0.98619 -4.24083,0.6811 -6.82958,0.0647 1.29437,-0.77046 2.46794,-1.1082 3.59281,-1.1005 z"
       id="path4283"
       style="fill:#f2f2f2;fill-opacity:1;stroke:#808080;stroke-width:0.5;stroke-miterlimit:4;stroke-dasharray:none;display:inline;enable-background:new" />
    <path
       d="m 271.84655,617.17504 c -0.94939,0.006 -1.8172,0.18228 -2.26574,0.48552 -0.25654,0.17343 -0.65152,0.5333 -1.16523,1.13287 -0.73941,0.86294 -0.97002,1.08439 -1.35945,1.1976 -0.18322,0.0533 -0.21735,0.0565 -0.42078,0 -0.33709,-0.0937 -0.65039,-0.34889 -0.97103,-0.80919 -0.13236,-0.19003 -0.13149,-0.1056 0,0.12947 0.1597,0.28622 0.37472,0.57933 0.55025,0.74446 0.0795,0.0748 0.11024,0.14059 0.097,0.16183 -0.0131,0.0212 -0.0775,0.0868 -0.16184,0.12948 -0.18201,0.0922 -0.65171,0.41277 -0.71209,0.48551 -0.0233,0.0281 0.0803,-0.008 0.25895,-0.0971 0.17872,-0.0887 0.45461,-0.19348 0.58261,-0.22658 0.49151,-0.12709 0.72724,0.006 0.35605,0.19421 -0.30026,0.15215 -0.76787,0.43046 -1.1005,0.67972 -0.33731,0.25276 -0.39355,0.35989 -0.0971,0.16184 0.47958,-0.3204 1.33091,-0.69864 1.81259,-0.77682 0.54446,-0.0884 0.86432,-0.0229 1.52128,0.2913 0.7821,0.37407 1.67233,0.61936 2.62178,0.67973 0.6749,0.0429 0.74801,0.0415 1.35945,0 0.94017,-0.0637 1.93898,-0.2662 2.58941,-0.51789 0.7394,-0.28611 1.20737,-0.60358 1.55365,-1.03576 0.12796,-0.15969 0.16184,-0.19928 0.16184,-0.38842 0,-1.09117 -1.47515,-2.0854 -3.68992,-2.49231 -0.49626,-0.0912 -1.02398,-0.13265 -1.52128,-0.12947 z m 0.22658,0.35604 c 0.56175,10e-4 0.73726,0.0166 1.13287,0.0971 1.19406,0.24309 2.3187,0.79742 2.91309,1.39181 0.19698,0.19699 0.30475,0.32368 0.22657,0.32368 -0.0117,0 -0.19199,-0.0735 -0.38841,-0.19421 -0.42233,-0.25953 -1.22476,-0.65816 -1.58602,-0.77682 -0.53448,-0.17558 -0.84731,-0.23876 -1.48891,-0.25895 -0.72063,-0.0227 -1.24588,0.0576 -1.87733,0.25895 -0.90299,0.28789 -1.79494,0.82817 -2.0068,1.22997 -0.10692,0.2028 0.0979,0.37456 0.67973,0.58262 0.69199,0.24745 1.3013,0.36845 2.26574,0.42078 1.48592,0.0806 3.23655,-0.14097 4.04596,-0.48552 0.16745,-0.0713 0.30963,-0.1114 0.32368,-0.0971 0.0374,0.0381 -0.32488,0.35657 -0.55026,0.48551 -0.42302,0.24203 -1.23844,0.45188 -2.00679,0.51789 -0.97453,0.0837 -1.85019,0.0702 -2.65416,-0.0324 -0.90398,-0.11538 -1.17851,-0.1431 -1.48891,-0.22657 -0.58736,-0.15796 -1.22997,-0.53269 -1.22997,-0.71209 0,-0.13441 0.28703,-0.70979 0.48551,-1.0034 0.37981,-0.56183 1.01007,-1.03574 1.65076,-1.26234 0.51837,-0.18334 0.8329,-0.26027 1.55365,-0.25895 z m 0.64735,1.03577 c 1.07865,0.008 2.2337,0.35931 3.52808,1.06814 -1.72584,0.43145 -4.20227,0.95382 -6.66775,-0.0324 1.04783,-0.67801 2.06102,-1.04347 3.13967,-1.03577 z"
       id="path5585"
       style="fill:#000000;display:inline;enable-background:new" />
    <path
       d="m 289.19564,617.33688 c -0.39444,5e-4 -0.79043,0.0258 -1.06813,0.0647 -1.18257,0.16571 -2.28854,0.51689 -3.04257,1.0034 -0.381,0.24584 -0.80131,0.6775 -0.93866,0.97103 -0.11344,0.2424 -0.17384,0.60001 -0.12947,0.77683 0.0577,0.22978 0.70071,0.75334 1.1976,1.0034 0.66133,0.33279 1.66469,0.58967 2.58942,0.67972 0.23189,0.0226 0.41238,0.0569 0.42078,0.0647 0.0393,0.0365 1.33326,0.0151 1.78023,-0.0324 0.80607,-0.0856 1.64984,-0.32223 2.23337,-0.61499 0.54249,-0.27216 0.78612,-0.32657 1.1976,-0.32368 0.62455,0.004 1.43076,0.26713 2.16864,0.74446 0.14442,0.0934 0.25483,0.16351 0.22657,0.12947 -0.10264,-0.12369 -0.67621,-0.50741 -1.13287,-0.77682 -0.45793,-0.27017 -0.52835,-0.37637 -0.38841,-0.42078 0.18361,-0.0583 0.74631,0.10699 1.13287,0.32367 0.1079,0.0605 0.21686,0.10681 0.22657,0.0971 0.0259,-0.0259 -0.48936,-0.37497 -0.71209,-0.48552 -0.10519,-0.0522 -0.21595,-0.13416 -0.22657,-0.16184 -0.0112,-0.0291 0.066,-0.10697 0.16184,-0.1942 0.16674,-0.15174 0.40424,-0.49034 0.55025,-0.77683 0.11959,-0.23465 0.0982,-0.22493 -0.097,0.0324 -0.35411,0.46635 -0.70222,0.70509 -1.03577,0.74446 -0.46756,0.0552 -0.79724,-0.19159 -1.71549,-1.26234 -0.96236,-1.12222 -1.33536,-1.3482 -2.39521,-1.52129 -0.23431,-0.0383 -0.60896,-0.0652 -1.0034,-0.0647 z m -0.1942,0.35604 c 0.33969,-3.3e-4 0.66405,0.0248 0.87392,0.0647 0.98656,0.18777 1.81982,0.68195 2.33048,1.42418 0.15989,0.23239 0.42741,0.81242 0.45315,0.97103 0.0205,0.12614 -0.005,0.14824 -0.19421,0.29131 -0.47386,0.35777 -1.04535,0.53059 -2.23337,0.67972 -1.5377,0.19302 -3.15041,0.15357 -4.14307,-0.12947 -0.47881,-0.13653 -0.96506,-0.38439 -1.1976,-0.61499 -0.2514,-0.2493 -0.20519,-0.32802 0.097,-0.16184 0.92731,0.5098 3.56028,0.72198 5.34067,0.42078 1.00438,-0.16991 1.81259,-0.53156 1.81259,-0.77682 0,-0.12994 -0.2797,-0.4229 -0.61498,-0.64735 -1.32743,-0.88864 -3.05847,-1.20369 -4.53148,-0.77683 -0.5733,0.16614 -1.52196,0.64229 -2.03917,1.0034 -0.14614,0.10203 -0.27954,0.17361 -0.29131,0.16184 -0.0804,-0.0804 0.42683,-0.60639 0.84156,-0.87393 0.69575,-0.44883 1.6483,-0.81801 2.55705,-0.97103 0.23975,-0.0404 0.59897,-0.0644 0.93866,-0.0647 z m -0.51789,1.03577 c 1.12488,0.008 2.18894,0.35776 3.23677,1.03577 -2.46547,0.98619 -4.24083,0.6811 -6.82958,0.0647 1.29437,-0.77046 2.46794,-1.1082 3.59281,-1.1005 z"
       id="path5583"
       style="fill:#000000;display:inline;enable-background:new" />
    <path
       d="m 278.67792,620.96086 c -0.0122,-0.0122 -0.0208,0.009 -0.0193,0.0481 0.002,0.0427 0.0105,0.0514 0.0222,0.0222 0.0106,-0.0265 0.009,-0.0581 -0.003,-0.0703 z"
       id="path4641"
       style="fill:#dfb4aa;display:inline;enable-background:new" />
    <g
       transform="matrix(0.03666282,0,0,0.03666282,256.2993,599.40087)"
       id="g5982"
       style="fill:#ffaaaa;display:inline;enable-background:new">
      <path
         d="m 967.28571,784.38182 c -15.79466,-3.0832 -29.93878,-10.7762 -41.5,-22.5718 -16.36442,-16.69606 -23.25426,-33.53386 -23.16385,-56.60921 0.13318,-33.98885 21.12341,-62.73039 54.55378,-74.69951 10.69239,-3.82821 29.12746,-4.8904 40.39559,-2.32752 20.89107,4.75157 36.18407,14.48572 48.27617,30.72823 5.9063,7.93354 8.95,14.38226 12.4549,26.38874 3.7036,12.68707 3.7064,29.05911 0.01,41.82231 -2.9184,10.0691 -4.9747,14.4654 -11.1235,23.7807 -9.8396,14.90676 -27.5303,27.42266 -45.2446,32.00936 -9.9751,2.5829 -25.58665,3.249 -34.65573,1.4787 z"
         id="path4635"
         style="fill:#ffd5d5;fill-opacity:1" />
      <path
         d="m 330.78571,778.22732 c -25.75155,-6.8601 -45.55797,-26.00866 -55.17226,-53.33966 -2.53865,-7.2167 -3.65999,-29.67166 -1.89553,-37.9582 4.48575,-21.06669 15.21788,-37.84699 31.82599,-49.76178 13.75597,-9.86864 28.51891,-14.58638 45.7418,-14.61751 14.38928,-0.026 23.27767,1.99542 36.15388,8.22227 9.24408,4.47038 11.53351,6.14509 20.20517,14.77998 8.68947,8.65262 10.35226,10.90895 14.91449,20.23833 6.7758,13.85593 8.26039,20.1353 8.33041,35.23518 0.0433,9.34228 -0.43936,14.17113 -2.02565,20.26483 -4.88748,18.7752 -16.8709,35.7945 -32.7477,46.50956 -6.3756,4.303 -9.68186,5.8864 -19.29126,9.239 -7.56293,2.6386 -10.14013,3.0215 -22.53934,3.349 -12.51665,0.3306 -15.00656,0.1016 -23.5,-2.161 z"
         id="path4633"
         style="fill:#ffd5d5;fill-opacity:1" />
      <path
         d="m 723.34375,962.59375 c -19.84784,0.24859 -39.88732,1.2043 -63.0625,2.96875 -34.1,0 -62,-0.27146 -62,-0.625 l -3.3125,0.15625 -1.28125,1.125 -78.09375,-0.125 -35.03125,-0.0312 3.53125,4.6875 c 7.3963,6.92512 18.8069,13.94012 31.6875,19.53125 40.7386,17.6834 90.5043,26.3074 152,26.2812 32.4118,-0.014 44.28,-0.8048 69,-4.4687 25.9003,-3.8389 38.2736,-6.4411 57.5,-12.1875 20.7117,-6.1905 46.52235,-19.1116 55.34375,-27.6875 l 5.09375,-6 -45.5,0 -82.40625,0 -3.15625,-3.28125 c -0.077,-0.0801 -0.22603,-0.24935 -0.3125,-0.34375 z m -62.0625,93.96875 c -8.9028,0 -16.9778,0.044 -24.4375,0.094 l 48.875,0 c -7.4597,-0.049 -15.5347,-0.094 -24.4375,-0.094 z"
         id="path5669"
         style="fill:#ffaaaa" />
    </g>
    <path
       d="m 280.30517,648.16491 c -0.44514,-0.47414 -0.52762,-0.67801 -0.73941,-1.82774 -0.0501,-0.27222 -0.14932,-0.80179 -0.22037,-1.17682 -0.23521,-1.24147 -0.30315,-2.44916 -0.18532,-3.29399 0.031,-0.22207 0.1313,-0.69695 0.22295,-1.05532 0.14373,-0.56198 0.16397,-0.68605 0.14718,-0.90247 -0.0304,-0.39312 -0.26427,-0.83266 -0.73429,-1.38058 -0.11243,-0.13107 -0.20464,-0.25068 -0.20492,-0.26581 -3.8e-4,-0.0151 0.87389,-0.0275 1.94262,-0.0275 1.06871,0 1.94313,0.009 1.94313,0.0193 0,0.0106 -0.12073,0.16436 -0.26828,0.34164 -0.47727,0.57343 -0.68496,0.99801 -0.68496,1.40023 0,0.12544 0.0599,0.4439 0.14892,0.79167 0.0819,0.32 0.18052,0.78805 0.21914,1.0401 0.14018,0.91502 0.0699,2.11496 -0.20307,3.46464 -0.0286,0.14115 -0.0785,0.40512 -0.11114,0.5866 -0.20317,1.13158 -0.29233,1.49284 -0.43965,1.78135 -0.10016,0.19615 -0.42823,0.5851 -0.54425,0.64524 -0.10405,0.054 -0.10705,0.0525 -0.28828,-0.14056 z"
       id="path5573"
       style="fill:#000000;display:inline;enable-background:new" />
    <path
       d="m 278.20552,635.59666 c -1.30801,-0.10217 -1.81481,-0.19433 -1.81481,-0.33003 0,-0.0383 0.0435,-0.10383 0.0966,-0.14562 0.0964,-0.0758 0.10536,-0.076 4.10128,-0.076 3.99592,0 4.0049,1.9e-4 4.10129,0.076 0.0531,0.0418 0.0966,0.0982 0.0966,0.12537 0,0.10215 -0.61907,0.24072 -1.50318,0.33649 -0.84425,0.0914 -3.97474,0.1 -5.0778,0.0138 z"
       id="path5575"
       style="fill:#000000;display:inline;enable-background:new" />
    <path
       d="m 271.88118,634.69782 c -0.76365,-0.19822 -1.15875,-0.40612 -1.53391,-0.80718 -0.28869,-0.30861 -0.37723,-0.44262 -0.73912,-1.11871 -0.1673,-0.31256 -0.65646,-1.20677 -1.08703,-1.98716 -0.43056,-0.78038 -0.78283,-1.43798 -0.78283,-1.46132 0,-0.0266 0.0331,-0.0341 0.089,-0.0201 0.17929,0.045 0.78293,0.0943 1.16146,0.095 l 0.38882,6.3e-4 0.89438,1.57858 c 0.4919,0.86822 0.94586,1.63965 1.00879,1.7143 0.21554,0.25562 0.36897,0.30183 1.12376,0.33846 1.91555,0.093 3.31009,-0.007 3.86172,-0.27693 0.32623,-0.15962 1.4717,-1.34818 1.91659,-1.98872 0.0455,-0.0655 0.10405,-0.11915 0.13009,-0.11915 0.026,0 0.16928,0.0563 0.31833,0.1252 1.0081,0.46577 2.45226,0.45305 3.75007,-0.033 0.18917,-0.0709 0.35333,-0.12882 0.3648,-0.12882 0.0115,0 0.2232,0.26809 0.47053,0.59577 0.55499,0.73529 1.10193,1.29876 1.38661,1.42857 0.27196,0.124 0.42874,0.15787 1.13655,0.24552 1.54385,0.19118 3.05107,0.20727 3.3787,0.0361 0.0334,-0.0175 0.65935,-0.77755 1.391,-1.68909 0.73167,-0.91155 1.35798,-1.68505 1.39182,-1.7189 0.051,-0.0509 0.16802,-0.065 0.68045,-0.0815 0.3404,-0.011 0.65603,-0.0316 0.70141,-0.0457 0.0608,-0.019 0.0824,-0.011 0.0824,0.0302 0,0.0308 -0.3073,0.5318 -0.6829,1.11333 -0.37559,0.58153 -0.84167,1.31013 -1.03573,1.61912 -0.66676,1.06169 -1.3643,1.93365 -1.83909,2.29899 -0.1237,0.0952 -0.33494,0.20714 -0.51453,0.27268 l -0.30466,0.11119 -3.02134,0 -3.02133,0 -0.11548,-0.12022 c -0.0635,-0.0661 -0.21784,-0.26822 -0.34293,-0.44912 -0.28373,-0.41034 -1.22588,-1.59258 -1.51019,-1.89506 -0.21236,-0.22594 -0.21272,-0.22613 -0.45061,-0.24128 l -0.23807,-0.0152 -0.25489,0.32469 c -0.1402,0.17859 -0.45097,0.59478 -0.69062,0.92488 -0.53469,0.73651 -0.79033,1.04501 -1.06556,1.28586 l -0.21188,0.18541 -2.86316,-0.004 -2.86317,-0.004 -0.45828,-0.11895 z"
       id="path5577"
       style="fill:#000000;display:inline;enable-background:new" />
    <path
       d="m 283.07807,630.26436 c -0.0324,-0.0845 0.052,-0.33332 0.14068,-0.41455 0.18816,-0.17242 0.7157,-0.37754 0.97096,-0.37754 0.22839,0 0.30348,0.0495 0.30348,0.20012 0,0.2237 -0.32638,0.4637 -0.79615,0.58543 -0.28296,0.0733 -0.59209,0.0766 -0.61897,0.007 z"
       id="path5579"
       style="fill:#000000;display:inline;enable-background:new" />
    <path
       d="m 277.31635,630.1121 c -0.47191,-0.10511 -0.85232,-0.37288 -0.85232,-0.59995 0,-0.27582 0.38936,-0.27626 0.98201,-10e-4 0.27931,0.12966 0.30973,0.15454 0.37815,0.30922 0.0409,0.0925 0.0692,0.20469 0.0629,0.24926 -0.009,0.0687 -0.0366,0.082 -0.17652,0.0873 -0.0907,0.004 -0.26813,-0.0167 -0.39421,-0.0447 z"
       id="path5581"
       style="fill:#000000;display:inline;enable-background:new" />
    <path
       d="m 264.3249,620.6633 c -0.25454,-0.17005 -0.31298,-0.48452 -0.13618,-0.73282 0.28309,-0.39756 0.91012,-0.1859 0.9097,0.30709 -3.6e-4,0.41163 -0.43584,0.65131 -0.77352,0.42573 z"
       id="path5587"
       style="fill:#000000;display:inline;enable-background:new" />
    <path
       d="m 296.49728,620.711 c -0.0997,-0.0403 -0.26599,-0.23947 -0.29437,-0.35251 -0.0642,-0.25582 0.13991,-0.57245 0.40055,-0.62134 0.1849,-0.0347 0.29936,10e-4 0.45215,0.14103 0.32927,0.30176 0.10509,0.87328 -0.33969,0.86602 -0.0783,-10e-4 -0.17667,-0.0162 -0.21864,-0.0332 z"
       id="path5589"
       style="fill:#000000;display:inline;enable-background:new" />
    <path
       d="m 277.0323,615.46634 c -0.25592,-0.0512 -0.50618,-0.16879 -0.85266,-0.40054 -1.71017,-1.14392 -3.78825,-2.07671 -5.30803,-2.38261 -2.01909,-0.4064 -3.48576,-0.0879 -4.61714,1.00253 -0.3384,0.32615 -0.30989,0.18553 0.0848,-0.41842 0.27453,-0.42006 0.92297,-1.0695 1.33368,-1.33575 0.56018,-0.36314 1.12831,-0.58166 1.82512,-0.70201 0.47758,-0.0825 1.52652,-0.055 2.14477,0.0563 1.36659,0.24588 2.77417,0.8331 4.05594,1.69206 0.69829,0.46795 1.47875,1.15131 1.89249,1.65701 0.1907,0.2331 0.21093,0.27445 0.21093,0.43117 0,0.34576 -0.28977,0.49641 -0.76993,0.40029 z"
       id="path5591"
       style="fill:#000000;display:inline;enable-background:new" />
    <g
       transform="matrix(0.03666282,0,0,0.03666282,256.2993,599.40087)"
       id="g6011"
       style="display:inline;enable-background:new">
      <path
         d="m 927.34375,286.71875 c -12.6765,0.004 -27.45573,1.18523 -37.1875,3.25 -15.7828,3.3487 -35.04585,9.60205 -49.96875,16.21875 -11.9103,5.2809 -31.73475,15.5108 -38.53125,19.875 -13.2611,8.5152 -21.04725,13.89025 -20.65625,14.28125 0.2507,0.2507 3.67435,-0.7112 7.59375,-2.125 16.037,-5.7848 51.3999,-13.3068 77.8125,-16.5625 4.5375,-0.5593 11.7375,-1.43805 16,-1.96875 13.95209,-1.73689 48.97064,-2.44226 53.96875,1.59375 11.80264,0.0895 22.78529,1.16527 31.125,3.28125 30.7103,7.79192 55.913,24.84739 73.9062,50.0625 5.6641,7.9376 12.0236,19.50762 11.1876,20.34375 -0.3558,0.35569 -3.6781,-2.31538 -7.375,-5.90625 -11.6167,-11.28344 -19.9552,-16.77338 -34.1563,-22.5 -22.615,-9.11952 -45.69585,-11.1159 -77.28125,-6.71875 C 889.56575,365.99918 832.3939,390.13606 778,425.625 c -4.57171,2.98278 -8.40169,5.29604 -11.8125,7.125 -1.15022,2.87541 -4.62093,10.32572 -7.03125,15.71875 -2.9964,6.7045 -6.7949,15.9 -8.4375,20.4375 -1.6426,4.5376 -4.13015,11.3163 -5.53125,15.0625 -2.5235,6.747 -12.53125,43.0314 -12.53125,45.4375 -0.002,2.5309 1.64275,0.86925 8.65625,-8.59375 17.3738,-23.442 44.9097,-52.9537 67.625,-72.5 37.429,-32.2073 79.32265,-53.71345 122.71875,-63.03125 10.7962,-2.3181 32.00095,-4.638 42.46875,-4.625 25.9905,0.0309 64.9382,7.58895 75.5,14.65625 6.5202,4.3629 6.579,2.85445 0.4375,-10.34375 -14.292,-30.7138 -21.2033,-42.58555 -32.4063,-55.78125 -20.00625,-23.5649 -46.12275,-38.11425 -74.99995,-41.71875 -4.21788,-0.52647 -9.55045,-0.75191 -15.3125,-0.75 z"
         id="path5274"
         style="fill:#cccccc;fill-opacity:1" />
      <path
         d="m 393.59375,286.75 c -11.40857,0.10404 -23.35175,1.11562 -30.625,2.78125 -29.6071,6.7804 -52.2026,22.7921 -72.8125,51.625 -3.5383,4.95 -8.199,12.6 -10.375,17 -10.0214,20.2629 -18.32615,38.6426 -17.71875,39.25 0.367,0.367 1.6625,0.0207 2.875,-0.75 8.1557,-5.184 25.81285,-10.3715 46.21875,-13.625 19.4593,-3.1025 55.2946,-2.0398 75,2.25 47.8747,10.422 94.36205,36.31545 136.40625,75.96875 18.1719,17.1385 43.6408,46.04835 57,64.65625 3.0377,4.2308 5.09375,5.8746 5.09375,4.125 0,-1.3759 -8.0787,-31.4316 -10.3125,-38.375 -3.9618,-12.3149 -12.61265,-34.8235 -17.40625,-45.3125 -1.59605,-3.49244 -4.54691,-9.7646 -6.4375,-14 -2.55711,-1.41954 -5.25386,-3.05842 -8.25,-5.0625 -46.646,-31.20103 -103.32825,-56.65625 -144.78125,-65 -55.0714,-11.08488 -95.0785,-2.39938 -125.9375,27.34375 -9.2299,8.8961 -8.4535,5.0667 2.3125,-11.40625 7.4881,-11.45759 25.1726,-29.17553 36.375,-36.4375 15.2793,-9.90477 30.77565,-15.87374 49.78125,-19.15625 4.02204,-0.69466 9.52975,-1.10634 15.71875,-1.25 2.8036,-1.25162 7.01646,-2.96925 9.4375,-3.71875 2.35627,-0.72945 3.6199,-1 7.3125,-1 7.919,0 39.93485,2.50785 49.78125,3.90625 3.7825,0.5371 13.65625,1.9462 21.90625,3.125 19.1678,2.7387 48.1464,9.15955 61,13.53125 5.5,1.8707 10.3835,3.40625 10.875,3.40625 0.4916,0.004 -1.0834,-1.4466 -3.5,-3.25 -15.4586,-11.536 -49.5201,-29.5164 -70.375,-37.125 -16.498,-6.0191 -36.7052,-11.171 -49.75,-12.6875 -5.319,-0.61838 -11.96736,-0.87493 -18.8125,-0.8125 z"
         id="path5276"
         style="fill:#cccccc;fill-opacity:1" />
      <path
         d="m 488,752.65625 c -0.8602,0 -3.21455,1.2908 -5.21875,2.875 -10.9807,8.6797 -37.7009,23.43585 -54.625,30.15625 -22.907,9.0962 -36.5539,13.071 -57,16.5625 -18.4159,3.1447 -32.2187,3.86805 -47.5,2.53125 -27.9396,-2.4442 -48.1041,-11.1617 -64.75,-28 -5.7263,-5.7924 -8.251,-7.7891 -8.25,-6.5 0.002,2.1322 7.07695,27.55485 12.53125,45.03125 5.7819,18.5265 11.7107,33.69315 18.9375,48.34375 3.6626,7.425 8.09715,16.425 9.84375,20 3.6309,7.432 16.571,31.3498 22.1875,41 13.4342,23.0825 40.62955,63.0346 64.34375,94.49995 22.7628,30.2034 61.67005,76.9619 76.96875,92.5 l 8.375,8.5 -7.78125,-11.5 c -4.2828,-6.3246 -9.64745,-14.1996 -11.90625,-17.5 -15.7029,-22.942 -38.5962,-59.8225 -58.6875,-94.49995 -11.311,-19.5227 -12.8125,-22.41825 -12.8125,-24.46875 0,-2.6633 1.5738,-1.76065 11.1875,6.21875 19.116,15.8664 33.974,25.73005 52.1875,34.68755 9.7216,4.7811 31.4203,13.0801 32.1875,12.3124 0.1511,-0.1507 -3.63595,-2.0661 -8.40625,-4.25 -19.0403,-8.7163 -42.59655,-23.42825 -57.65625,-35.99995 C 388.92765,974.11315 369.5401,955.4173 360.25,944.75 c -8.1977,-9.4129 -9.59535,-11.7242 -22.46875,-37.3125 -7.5511,-15.0092 -18.17325,-36.95625 -23.59375,-48.78125 -5.4205,-11.825 -12.4728,-27.2071 -15.6875,-34.1875 -8.0422,-17.4623 -7.95895,-18.03475 2.71875,-14.34375 l 6.9375,2.375 0.0312,0.0312 c 3.91038,0.73419 8.0696,1.47529 13.03125,2.21875 11.54852,1.73038 16.31211,1.88716 32.53125,1.3125 2.5084,-0.0889 4.48259,-0.1604 6.46875,-0.25 0.5407,-0.0914 1.11319,-0.15625 1.71875,-0.15625 5.4846,-0.0124 31.67025,-3.8332 44.21875,-6.4375 52.0038,-10.7929 91.5,-30.3732 91.5,-45.375 0,-2.7942 -0.8399,-4.27825 -4.0625,-7.34375 -2.2231,-2.1149 -4.73355,-3.84375 -5.59375,-3.84375 z m 349.6875,1.75 c -0.60207,0.0407 -1.17294,0.28959 -1.9375,0.6875 -8.0212,4.1742 -9.8119,11.6003 -4.4375,18.375 3.9469,4.9753 17.75585,14.01295 29.15625,19.09375 24.02576,10.70738 60.2895,19.78047 95.34375,23.9375 0.0297,0.003 0.064,-0.003 0.0937,0 4.51701,0.41485 9.38358,0.75244 15.25,1.03125 11.66428,0.55429 16.42219,0.24228 32.5,-1.96875 6.5593,-0.90203 11.0925,-1.57077 14.75,-2.28125 l 0,0.0937 c 1.7933,-0.53579 3.7759,-1.11139 6.5,-1.96875 4.7052,-1.4805 7.0852,-1.82095 7.8126,-1.09375 0.9963,0.9967 -0.3869,4.32675 -17.5313,41.84375 -6.6691,14.5941 -7.735,16.8166 -21.12505,44 -12.1665,24.6995 -14.11605,27.9799 -22.59375,38.5 -10.4302,12.943 -32.78895,35.6122 -46.53125,47.1875 -16.32,13.7464 -33.11345,24.9958 -52.78125,35.2813 -6.05,3.1639 -11.18495,5.9169 -11.40625,6.125 -0.2214,0.208 3.3786,-1.0129 8,-2.6875 25.0282,-9.0695 52.24685,-26.22205 76.65625,-48.31255 7.8279,-7.0842 12.01655,-10.17095 12.78125,-9.40625 0.6788,0.6788 -2.329,8.8911 -3.9375,10.75 -0.7376,0.8523 -4.704,7.6375 -8.8125,15.0625 -4.1084,7.425 -9.86225,17.5499 -12.78125,22.5 -2.919,4.9502 -7.40225,12.6005 -9.96875,17 -2.5665,4.4004 -7.3987,12.2754 -10.75,17.5 -20.7158,32.2976 -28.9321,44.7392 -38.125,57.8126 -5.6796,8.0766 -10.76065,15.4561 -11.28125,16.4062 -3.0528,5.571 7.9966,-5.8794 26.125,-27.125 28.0703,-32.897 46.7012,-56.1881 67.3125,-84.0939 5.4842,-7.425 11.1321,-15.077 12.5625,-16.9999 6.0582,-8.1437 24.43005,-35.73885 34.4688,-51.78125 10.8678,-17.3674 25.9523,-44.56555 32.8438,-59.21875 3.2326,-6.875 7.868,-16.325 10.2812,-21 6.634,-12.8515 14.8322,-36.3232 23.9688,-68.5 6.3557,-22.3857 6.3147,-22.6605 -3.1876,-13.125 -13.2663,13.3137 -25.3018,19.9797 -45.75,25.3125 -8.5842,2.2387 -12.6944,2.6703 -29,3.0625 -16.2246,0.3902 -20.9719,0.14285 -32.5,-1.71875 -17.9752,-2.9028 -26.9522,-5.0954 -42.5,-10.375 -28.5842,-9.7065 -53.19305,-21.93845 -72.90625,-36.28125 -3.79094,-2.75818 -5.23795,-3.71461 -6.5625,-3.625 z"
         id="path5296"
         style="fill:#cccccc;fill-opacity:1" />
    </g>
    <path
       d="m 282.50061,618.15963 c -0.0177,10e-4 -0.0378,0.0499 -0.0618,0.14207 -0.18816,0.72049 -0.30336,3.68525 -0.22686,5.83855 0.0597,1.67789 0.1118,2.3107 0.28071,3.36496 0.21073,1.31533 0.0825,1.75836 -0.57973,2.00385 -0.52552,0.19479 -0.94661,0.2917 -1.32903,0.30476 -0.338,0.0115 -0.40844,3e-4 -0.89022,-0.13634 -0.28743,-0.0815 -0.5954,-0.18238 -0.68513,-0.22456 -0.20815,-0.0978 -0.44328,-0.35193 -0.49381,-0.5339 -0.0664,-0.23917 -0.0458,-0.82556 0.0505,-1.41725 0.15952,-0.9815 0.21815,-1.63986 0.27611,-3.12321 0.0662,-1.69205 0.0296,-3.68177 -0.0928,-5.05947 -0.0792,-0.89126 -0.14332,-1.22351 -0.22227,-1.14457 -0.0148,0.0148 -0.0398,0.38547 -0.055,0.82377 -0.0547,1.57399 -0.30626,2.95902 -0.75158,4.13373 -0.32309,0.85229 -0.89093,1.8259 -1.57192,2.69472 -0.16131,0.20581 -0.39583,0.50454 -0.52015,0.66337 -0.7911,1.01067 -0.89037,1.66306 -0.39642,2.5916 0.17961,0.33763 0.40713,0.66795 0.46057,0.66795 0.0467,0 0.047,-0.002 -0.0745,-0.27268 -0.46847,-1.04412 -0.34899,-1.67226 0.47891,-2.51484 0.51458,-0.5237 1.49972,-1.44583 1.57421,-1.47338 0.19065,-0.0705 0.22203,0.17261 0.12488,0.96125 -0.17936,1.45585 -0.16925,2.10061 0.0435,2.6993 0.11821,0.3326 0.32592,0.57217 0.72066,0.83293 0.45672,0.3017 0.86356,0.45887 1.41954,0.5488 0.22621,0.0366 0.88644,0.0199 1.13654,-0.0286 0.4285,-0.0832 0.6465,-0.1571 1.08155,-0.36777 0.64289,-0.31132 0.88817,-0.57619 1.08728,-1.17321 0.0792,-0.23771 0.085,-0.31343 0.0824,-1.02656 -0.002,-0.57348 -0.0231,-0.91959 -0.0824,-1.35653 -0.0963,-0.70881 -0.1016,-0.98104 -0.0217,-1.06093 0.0317,-0.0317 0.0727,-0.0573 0.0917,-0.0573 0.0553,0 0.80195,0.69264 1.47797,1.37142 0.66888,0.67163 0.87495,1.04041 0.87532,1.56505 1.1e-4,0.35476 -0.057,0.59267 -0.23831,0.99791 -0.23567,0.52667 -0.0968,0.45299 0.26237,-0.13977 0.34818,-0.57461 0.46575,-1.09636 0.35403,-1.57192 -0.10419,-0.44348 -0.22337,-0.63202 -1.19269,-1.87897 -0.68812,-0.8852 -1.16598,-1.69364 -1.50547,-2.54578 -0.46659,-1.17114 -0.73652,-2.56845 -0.78939,-4.08561 -0.0245,-0.70586 -0.0522,-1.01577 -0.0974,-1.01281 z"
       id="path5760"
       style="fill:#cccccc;fill-opacity:1;display:inline;enable-background:new" />
    <path
       d="m 283.86366,615.46635 c 0.25593,-0.0512 0.50618,-0.1688 0.85266,-0.40055 1.71018,-1.14392 3.78826,-2.0767 5.30804,-2.38261 2.01908,-0.4064 3.48576,-0.0879 4.61714,1.00253 0.33839,0.32615 0.30989,0.18553 -0.0848,-0.41842 -0.27453,-0.42006 -0.92297,-1.0695 -1.33369,-1.33575 -0.56017,-0.36313 -1.12831,-0.58166 -1.82511,-0.70201 -0.47758,-0.0825 -1.52652,-0.055 -2.14477,0.0563 -1.36659,0.24587 -2.77418,0.83309 -4.05594,1.69205 -0.69829,0.46795 -1.47875,1.15131 -1.89249,1.65701 -0.19071,0.2331 -0.21094,0.27445 -0.21094,0.43117 0,0.34576 0.28977,0.49641 0.76993,0.4003 z"
       id="path5591-5"
       style="fill:#000000;display:inline;enable-background:new" />
  </g>
</svg>
