<?xml version="1.0" encoding="UTF-8" standalone="no"?>
<!-- Created with Inkscape (http://www.inkscape.org/) -->

<svg
   xmlns:dc="http://purl.org/dc/elements/1.1/"
   xmlns:cc="http://creativecommons.org/ns#"
   xmlns:rdf="http://www.w3.org/1999/02/22-rdf-syntax-ns#"
   xmlns:svg="http://www.w3.org/2000/svg"
   xmlns="http://www.w3.org/2000/svg"
   version="1.1"
   width="560"
   height="560"
   id="mask_horse">
  <g
     transform="matrix(0.56006934,0,0,0.56006934,133.69569,81.36182)"
     id="g4413"
     style="display:inline;enable-background:new">
    <path
       d="m 229.31149,84.527232 c -1.01123,13.550381 -2.83143,35.797278 -3.64041,46.313988 -0.80897,10.51672 -1.21346,17.79752 -5.25835,19.61772 2.22469,5.66285 6.06733,7.88754 9.50549,8.89876 3.43816,1.01123 8.35418,15.52999 34.58381,13.55039 6.4822,-0.48923 10.17989,-3.71329 14.07178,-4.36461 9.6451,-1.61414 11.87228,-7.3328 16.66939,-9.59027 6.87631,-3.23592 13.59261,-6.5594 7.88754,-11.12345 -3.03367,-2.42693 -5.05611,-6.47182 -4.65162,-16.3818 0.40448,-9.90999 -1.21347,-43.078082 -2.62918,-48.740929 -1.41572,-5.662847 -45.50502,-12.741405 -66.53845,1.820201 z"
       id="path3032-0"
       style="color:#000000;fill:#aa866b;fill-opacity:1;stroke:#775d49;stroke-width:1;stroke-linecap:butt;stroke-linejoin:miter;stroke-miterlimit:4;stroke-opacity:1;stroke-dasharray:none;stroke-dashoffset:0;marker:none;visibility:visible;display:inline;overflow:visible;enable-background:accumulate" />
    <path
       d="m 288.96875,136.90625 c -0.55416,0.0134 -1.13771,0.10699 -1.78125,0.25 -2.57415,0.57203 -7.16049,12.29873 -3.15625,16.875 3.07495,3.51423 4.62675,6.52819 3.5,10.84375 2.99885,-2.16092 4.93813,-4.59772 7.71875,-5.90625 6.38373,-3.00412 12.60893,-6.1099 8.90625,-10.1875 -5.76533,-1.95539 -8.96719,-7.13192 -10.6875,-9.34375 -1.50159,-1.93062 -2.83753,-2.57147 -4.5,-2.53125 z"
       id="path3158-3"
       style="color:#000000;fill:#916e54;fill-opacity:1;stroke:none;marker:none;visibility:visible;display:inline;overflow:visible;enable-background:accumulate" />
    <path
       d="m 264.6575,76.046828 c -12.524,0.01728 -26.14162,2.254297 -35.34375,8.625 -0.95239,12.761985 -2.57057,32.624732 -3.4375,43.750002 2.44686,8.92543 12.42598,14.24012 13.75,22.5625 1.41571,8.89876 0.21105,11.5548 2.03125,13.375 1.8202,1.8202 10.29182,5.23526 12.71875,5.4375 -6.26958,-6.47182 9.12237,-26.67562 22.875,-31.125 13.75263,-4.44938 18.99229,-6.68353 20.8125,1.40625 1.29823,5.76992 3.53761,7.4114 5,7.8125 -2.99571,-2.43306 -4.9952,-6.47698 -4.59375,-16.3125 0.40448,-9.90999 -1.20929,-43.087155 -2.625,-48.750002 -0.79634,-3.185351 -15.08521,-6.803469 -31.1875,-6.78125 z"
       id="path3045-4"
       style="color:#000000;fill:#916e54;fill-opacity:1;stroke:none;marker:none;visibility:visible;display:inline;overflow:visible;enable-background:accumulate" />
    <path
       d="m 290.18709,133.4704 c 4.85387,-9.90998 11.93243,-21.64016 11.73018,-34.786047 -0.20224,-13.145899 -2.62918,-21.842413 -2.83142,-24.269348 0.40449,-4.449379 1.8202,-9.505492 -0.60674,-17.393029 0.40449,-8.696514 -4.85386,-12.336916 -6.06733,-15.370584 6.00691,-8.636093 9.40606,-11.428503 6.47182,-38.6287042 -3.84264,7.6852922 -7.07856,16.1795622 -21.03343,28.7187232 -5.86509,-2.22469 -15.57283,-5.865091 -31.55014,2.022445 -5.05612,-2.831423 -11.93243,-9.707737 -14.35936,-14.561606 -2.42694,-4.853868 -6.55596,-8.882239 -7.48305,-10.1122264 -1.17701,-1.561553 -6.13302,21.0939124 10.51671,35.1905474 -1.8202,4.853869 -7.2808,6.67407 -7.68529,12.539161 -0.40449,5.865091 5.05611,8.696514 0.60673,14.359361 -1.11234,1.112345 -0.80897,5.865091 -0.40448,7.483047 -1.58049,5.227758 -2.04266,15.115829 -1.86222,22.64177 0.0657,2.73938 1.46953,5.88009 1.91912,8.52856 0.61383,3.61607 0.30381,8.67883 1.56105,11.70551 5.4606,13.14589 14.35936,13.34814 13.34814,19.21323 -1.01122,5.86509 -1.8202,29.93219 22.04465,27.50525 23.86486,-2.42693 25.68506,-18.60649 25.68506,-34.78606 z"
       id="path2987-7-91"
       style="color:#000000;fill:#aa866b;fill-opacity:1;stroke:#775d49;stroke-width:1;stroke-linecap:butt;stroke-linejoin:miter;stroke-miterlimit:4;stroke-opacity:1;stroke-dasharray:none;stroke-dashoffset:0;marker:none;visibility:visible;display:inline;overflow:visible;enable-background:accumulate" />
    <path
       d="m 258.67164,116.06721 c 3.43816,-7.68529 2.01753,-26.600484 -0.43919,-38.214047 -2.22469,-10.516716 -10.11222,-21.235676 -9.101,-35.595037 1.01122,-14.359361 45.39043,-6.907954 35.19055,-1.415712 -10.51671,5.662847 -11.12345,32.561369 -12.13467,40.448905 -1.01123,7.887537 -4.85808,23.115111 1.22783,32.634971 -4.97655,4.2226 -11.10312,5.57908 -14.74352,2.14092 z"
       id="path3036-0"
       style="color:#000000;fill:#c0bec2;fill-opacity:1;stroke:none;marker:none;visibility:visible;display:inline;overflow:visible;enable-background:accumulate" />
    <path
       d="m 273.625,126.875 c -13.53031,0.52912 -27.875,9.9375 -27.875,9.9375 -0.79639,0 -2.13829,1.08348 -3.21875,2.90625 0.011,0.32687 7e-4,0.66468 -0.0625,1.03125 -1.01122,5.86509 -1.8336,29.92694 22.03125,27.5 23.86486,-2.42693 25.6875,-18.60168 25.6875,-34.78125 0.006,-0.0119 0.0254,-0.0193 0.0312,-0.0312 -0.019,-0.0225 -0.0433,-0.0401 -0.0625,-0.0625 -4.39595,-5.13812 -10.38111,-6.74051 -16.53125,-6.5 z"
       id="path4392"
       style="color:#000000;fill:#333333;fill-opacity:1;stroke:#000000;stroke-width:0.5;stroke-linecap:butt;stroke-linejoin:miter;stroke-miterlimit:4;stroke-opacity:1;stroke-dasharray:none;stroke-dashoffset:0;marker:none;visibility:visible;display:inline;overflow:visible;enable-background:accumulate" />
    <path
       d="m 245.69329,141.1557 c -1.8202,-0.60674 -4.85387,2.02244 -2.83142,10.51671 0,-2.42693 -0.40449,-5.25836 1.41571,-5.05611 1.01122,5.05611 3.84265,18.60649 20.22445,17.19078 16.38181,-1.41571 25.28057,-15.77507 25.8873,-29.5277 -3.03366,5.25836 -3.03366,21.64017 -25.8873,21.84241 -16.78677,0.14855 -18.80874,-10.51671 -19.81996,-11.52794 0,-1.41571 0,-3.23591 1.01122,-3.43815 z"
       id="path3011-6"
       style="color:#000000;fill:#1a1a1a;stroke:none;marker:none;visibility:visible;display:inline;overflow:visible;enable-background:accumulate" />
    <g
       id="g4384">
      <path
         d="m 253.28303,159.32985 c -0.14301,-6.43538 3.4322,-7.43644 4.14725,0.28602 -1.28708,1.14407 -2.71717,1.43009 -4.14725,-0.28602 z"
         id="path3166-0"
         style="color:#000000;fill:#d1cbc7;fill-opacity:1;stroke:#888083;stroke-width:0.5;stroke-linecap:butt;stroke-linejoin:miter;stroke-miterlimit:4;stroke-opacity:1;stroke-dasharray:none;stroke-dashoffset:0;marker:none;visibility:visible;display:inline;overflow:visible;enable-background:accumulate" />
      <path
         d="m 272.73218,158.04277 c -0.14301,-6.43538 4.71929,-9.86758 4.86229,-1.14406 -0.42903,1.28707 -3.71822,2.71716 -4.86229,1.14406 z"
         id="path3166-2-8"
         style="color:#000000;fill:#d1cbc7;fill-opacity:1;stroke:#888083;stroke-width:0.5;stroke-linecap:butt;stroke-linejoin:miter;stroke-miterlimit:4;stroke-opacity:1;stroke-dasharray:none;stroke-dashoffset:0;marker:none;visibility:visible;display:inline;overflow:visible;enable-background:accumulate" />
      <path
         d="m 250.8859,155.73811 c -0.0942,-4.24013 2.26141,-4.8997 2.73253,0.18845 -0.84802,0.75381 -1.79027,0.94226 -2.73253,-0.18845 z"
         id="path3166-5-7"
         style="color:#000000;fill:#d1cbc7;fill-opacity:1;stroke:#888083;stroke-width:0.5;stroke-linecap:butt;stroke-linejoin:miter;stroke-miterlimit:4;stroke-opacity:1;stroke-dasharray:none;stroke-dashoffset:0;marker:none;visibility:visible;display:inline;overflow:visible;enable-background:accumulate" />
      <path
         d="m 257.87757,161.3203 c -0.23387,-10.52358 5.61256,-12.16055 6.78184,0.46771 -2.73622,1.32957 -6.16754,0.86065 -6.78184,-0.46771 z"
         id="path3166-5-3-1"
         style="color:#000000;fill:#d1cbc7;fill-opacity:1;stroke:#888083;stroke-width:0.5;stroke-linecap:butt;stroke-linejoin:miter;stroke-miterlimit:4;stroke-opacity:1;stroke-dasharray:none;stroke-dashoffset:0;marker:none;visibility:visible;display:inline;overflow:visible;enable-background:accumulate" />
      <path
         d="m 272.0572,161.3203 c 1.25949,-11.20235 -7.48399,-12.36136 -6.78185,0.46771 2.73623,1.32957 6.16754,0.86065 6.78185,-0.46771 z"
         id="path3166-5-3-2-1"
         style="color:#000000;fill:#d1cbc7;fill-opacity:1;stroke:#888083;stroke-width:0.5;stroke-linecap:butt;stroke-linejoin:miter;stroke-miterlimit:4;stroke-opacity:1;stroke-dasharray:none;stroke-dashoffset:0;marker:none;visibility:visible;display:inline;overflow:visible;enable-background:accumulate" />
      <path
         d="m 276.72514,154.20578 c -0.0831,-3.73928 2.74214,-5.73356 2.82523,-0.66476 -0.24929,0.74785 -2.16047,1.5788 -2.82523,0.66476 z"
         id="path3166-2-0-3"
         style="color:#000000;fill:#d1cbc7;fill-opacity:1;stroke:#888083;stroke-width:0.5;stroke-linecap:butt;stroke-linejoin:miter;stroke-miterlimit:4;stroke-opacity:1;stroke-dasharray:none;stroke-dashoffset:0;marker:none;visibility:visible;display:inline;overflow:visible;enable-background:accumulate" />
    </g>
    <path
       d="m 287.03303,128.011 c 3.86123,0.28602 5.57733,3.4322 4.29025,6.43538 -1.28707,3.00318 -9.86758,16.01695 -15.44491,19.16314 -5.57733,3.14618 -18.87712,4.14724 -24.45445,-1.00106 -5.57733,-5.14831 -9.72458,-9.72458 -5.29131,-17.87606 3.00317,-5.14831 0,-14.87288 4.00423,-18.59111 4.00424,-3.71822 10.1536,1.14407 14.44386,1.14407 4.29025,0 11.58369,-8.4375 17.87606,-2.00212 6.29237,6.43539 1.7161,10.58263 4.57627,12.72776 z"
       id="path3287-9"
       style="color:#000000;fill:#333333;stroke:#000000;marker:none;visibility:visible;display:inline;overflow:visible;enable-background:accumulate" />
    <path
       d="m 290.90795,73.606028 c 4.65162,1.213467 7.48305,0.202245 8.49427,-2.831423 0.80898,-3.438157 1.01122,-9.101004 -0.60673,-10.516716 -3.84265,2.22469 -6.87632,9.505493 -7.88754,11.123449 -1.01123,1.617956 -1.21347,1.820201 0,2.22469 z"
       id="path2989-1-1"
       style="color:#000000;fill:#dacfc5;fill-opacity:1;stroke:#ffd5d5;stroke-width:0.5;stroke-linecap:butt;stroke-linejoin:miter;stroke-miterlimit:4;stroke-opacity:1;stroke-dasharray:none;stroke-dashoffset:0;marker:none;visibility:visible;display:inline;overflow:visible;enable-background:accumulate" />
    <path
       d="m 250.13684,139.02265 c -5.1483,-3.00318 -7.29343,-5.1483 -5.43432,-14.44386 1.85911,-9.29555 6.14937,-9.43855 8.15148,-7.72245 2.00212,1.7161 2.57416,4.57627 2.57416,17.44703"
       id="path3289-2"
       style="color:#000000;fill:#333333;fill-opacity:1;stroke:#000000;marker:none;visibility:visible;display:inline;overflow:visible;enable-background:accumulate" />
    <path
       d="m 258.4347,145.40283 c -4.65163,-1.8202 -5.56891,-9.58927 -5.56891,-15.45436 0,-5.86509 1.52402,-9.01723 -2.92536,-10.63518 1.01122,0.80897 0.40449,2.02244 1.01122,2.62918 -2.37614,1.18299 -3.77769,11.7496 1.65266,13.4666 0.40449,4.44938 2.39223,9.58927 5.83039,9.99376 z"
       id="path3009-2-5"
       style="color:#000000;fill:#1a1a1a;stroke:none;marker:none;visibility:visible;display:inline;overflow:visible;enable-background:accumulate" />
    <path
       d="m 293.62625,63.883353 c -3.03367,4.853869 -4.45928,7.310082 -5.875,10.34375 -1.41571,3.033668 -0.99538,8.08781 3.65625,10.3125 -1.21347,-1.415712 -1.4375,-3.255283 -1.4375,-4.46875 1.8202,4.44938 6.28653,2.639745 7.5,2.4375 -2.02244,-0.808978 -2.03125,-3.034771 -2.03125,-3.84375 1.01122,1.820201 3.64327,1.603212 4.25,0.1875 0,12.336916 2.64216,26.298197 -0.59375,33.781247 -3.23591,7.48304 -3.64502,7.50176 -4.65625,7.90625 1.21347,-8.89876 3.21765,-23.891297 -0.625,-34.812497 -0.40449,9.50549 -4.03653,16.586047 -5.25,18.406247 -1.21346,1.8202 -3.43573,6.26695 -3.03125,13.75 1.01123,-6.67407 2.21281,-9.88909 4.4375,-13.125 2.22469,-3.23591 4.04951,-6.482827 4.65625,-9.718747 0.60673,4.24714 -4.62853,10.713907 -5.4375,16.781247 0.80897,-2.02245 1.41154,-2.21105 2.625,-4.03125 -0.20224,4.85387 1.01299,8.89855 0.40625,10.71875 -0.60673,1.8202 -3.85079,4.66153 -5.46875,5.875 0.0491,1.21942 -0.0456,2.29237 -0.0456,3.72246 2.89487,-0.3857 4.00483,1.28476 4.23305,3.87129 4.80309,-9.59874 11.16126,-20.7684 10.96875,-33.281247 -0.20224,-13.145904 -2.61026,-21.854315 -2.8125,-24.28125 0.0171,-0.188468 0.0421,-0.402936 0.0625,-0.59375 -1.37159,1.460263 -3.2149,1.848317 -4.125,2 -1.21347,0.202245 -5.4375,-1.40625 -5.4375,-1.40625 0,0 3.42451,-9.115538 4.03125,-10.53125 z M 294.22,102.94585 c 0,0.80898 1.00946,7.27465 -0.40625,12.9375 0.15356,-7.09449 -1.76948,-8.16932 0.40625,-12.9375 z"
       id="path3038-00"
       style="color:#000000;fill:#916e54;fill-opacity:1;stroke:none;marker:none;visibility:visible;display:inline;overflow:visible;enable-background:accumulate" />
    <path
       d="m 299.69258,59.448911 c -1.8202,0.606733 -4.04489,2.224689 -5.05611,3.235912 0.80898,-1.820201 0.80898,-2.831423 1.41571,-4.247135 -1.21347,1.011223 -2.83142,2.629179 -3.43816,3.438157 1.41571,-3.235913 2.02245,-4.247135 3.23592,-5.258358 -1.41572,0.404489 -4.0449,2.831424 -5.05612,5.460602 1.01122,-4.449379 3.03367,-6.674069 3.6404,-7.483047 -3.84264,2.831423 -5.25835,6.876314 -6.06733,8.292026 -0.80898,1.415711 -2.83143,2.426934 -4.44938,3.438156 2.22469,-2.426934 3.03367,-6.471824 4.24713,-7.685292 -2.62918,1.011223 -4.85387,5.258358 -5.4606,8.696515 -0.60673,-3.033668 -0.20224,-6.674069 1.41571,-10.314471 -2.22469,1.617956 -4.24713,7.685292 -4.44938,10.112227 -0.20224,-5.865092 0.80898,-6.471825 1.21347,-7.887537 -1.41571,0.808978 -2.62918,5.460602 -3.03367,6.674069 0,-3.033667 -0.20224,-3.640401 0.40449,-5.258357 -1.61795,1.213467 -3.03367,3.640401 -3.23591,5.460602 1.21347,-5.258358 2.02244,-12.336916 7.68529,-18.404252 -1.41571,0.404489 -3.6404,3.033668 -4.65162,4.44938 2.22469,-4.247135 3.43815,-6.067336 3.43815,-6.067336 -1.61795,1.213467 -2.83142,2.629179 -3.84264,4.04489 1.21347,-3.640401 2.42693,-5.460602 3.84264,-6.674069 1.41572,-1.213467 19.61772,-4.853868 18.20201,15.977318 z"
       id="path3043-5"
       style="color:#000000;fill:#916e54;fill-opacity:1;stroke:none;marker:none;visibility:visible;display:inline;overflow:visible;enable-background:accumulate" />
    <path
       d="m 269.96875,102 c -0.72967,0.0125 -1.58968,0.24908 -2.53125,0.84375 -0.80899,0.51094 -1.70196,1.90972 -2.59375,3.90625 0.1471,0.13256 0.2839,0.27621 0.4375,0.40625 -0.33622,0.89657 -0.89497,1.61208 -1.5,2.28125 -0.83864,1.0959 -2.76381,2.73125 -2.46565,3.21045 0.76175,-0.81558 1.0664,-0.32151 1.46565,-0.0854 2.57989,1.52537 3.02126,7.30604 8.28125,9.65625 -0.45308,-1.35925 -1.32817,-3.60171 -1.78125,-5.1875 2.03888,2.49196 0.43406,4.29323 5.53125,7.125 -0.90616,-1.92561 0.34736,-4.30094 -2.9375,-6 1.35925,1.58579 0.4571,2.47277 1.25,3.71875 -1.24598,-0.56635 -2.38673,-3.62123 -2.5,-5.09375 -0.11327,-1.47252 0.89435,-3.50796 -1.03125,-5.09375 1.58579,-0.11327 1.60171,2.04306 3.1875,3.0625 1.5858,1.01944 1.35179,3.0666 3.84375,5.21875 -1.47252,-3.05832 -2.03913,-4.99615 -2.71875,-5.5625 -0.67963,-0.56635 -0.89468,-2.50008 -2.59375,-3.40625 0.67963,-0.56635 1.79692,0.4649 2.25,1.03125 -0.22654,-2.15215 -0.7851,-3.63689 -0.21875,-5.5625 0.44247,-1.50438 -0.76904,-4.51343 -3.375,-4.46875 z m -7.34375,11.1875 c -0.49648,-0.0253 -1.04679,0.57566 -1.23502,1.87543 0.13082,-0.0558 0.93621,-0.60549 1.0747,-0.58241 0.67963,0.11327 2.28147,4.2306 2.84782,6.26948 -2.15214,-0.56635 -1.82037,-3.7345 -2.5,-5.09375 -0.49013,-0.98026 -0.62446,-0.52167 -0.875,0.0937 -0.01,0.0246 -0.0208,0.0374 -0.0312,0.0625 -0.10411,0.41329 -0.19497,0.7992 -0.3125,1.3125 0.64416,1.62495 1.37079,3.03093 -0.25,5.09375 -0.0349,0.0349 -0.0638,0.10931 -0.0937,0.15625 0.0812,1.60499 1.35712,2.6052 2.125,4.03125 -1.88313,-0.39645 -2.63954,-1.74021 -2.34375,-3.4375 -0.17366,0.81499 -0.14304,2.01666 -0.0312,2.84375 0.6227,1.09247 2.0334,3.36692 2.25,4.125 0.22654,0.7929 -0.20707,1.14469 -0.0937,2.84375 0.56635,-0.7929 0.44538,-2.83596 1.125,-3.0625 0,1.47252 0.55864,3.2774 1.125,3.84375 0.023,0.8418 0.1798,3.33605 0.90625,4.0625 1.01944,1.01944 0.11721,2.37517 0.34375,4.1875 -0.22654,-0.90616 -1.25393,-3.8321 -1.59375,-4.625 -0.33981,1.24598 0.79298,3.94931 0.90625,4.96875 -1.01944,-1.92561 -1.58596,-5.88689 -1.8125,-7.8125 -1.13271,0.67963 -1.47654,5.42593 -1.25,7.125 0.22654,1.69907 0.58981,4.1095 0.25,5.46875 -0.67661,-1.44987 -1.31585,-2.68499 -2.25,-4.0625 0.0926,0.34286 0.19536,0.67811 0.25,1 0.0987,0.58149 0.14108,1.23734 0.1875,1.90625 4.64052,11.46862 8.04598,9.25701 8.9375,13.9375 -0.67962,-4.19103 -0.5821,-7.35556 -1.375,-8.375 -0.7929,-1.01944 -4.49598,-3.07858 -3.25,-8.0625 0.33981,3.39813 1.78133,5.43365 2.6875,6 0.90616,0.56635 0.80471,0.91413 1.03125,1.59375 -0.33982,-2.60523 -0.10154,-7.24237 0.125,-9.28125 0,2.26542 1.11335,7.68758 1.90625,8.59375 -0.56636,-4.87065 -0.78108,-9.83637 1.03125,-14.59375 0.56635,1.01944 0.46096,1.36729 0.6875,2.5 0.56635,-3.17158 0.0859,-5.90248 -0.59375,-7.375 0.90617,1.01944 1.04692,1.80479 1.5,2.9375 0.11327,-2.26542 -0.34375,-3.625 -0.34375,-3.625 1.35925,2.83177 2.26952,10.79331 2.15625,14.53125 0.67963,-4.87065 0.32808,-10.20719 -0.125,-11.90625 1.01944,1.58579 1.47269,3.63304 1.8125,6.125 0.33982,-4.64411 0.008,-9.32037 -0.21875,-10 -0.22654,-0.67963 -1.82037,-3.72269 -2.5,-4.0625 0.22654,1.24598 0.35548,1.92585 0.46875,2.71875 -0.67963,-1.13271 -1.1446,-2.15633 -1.9375,-3.0625 0.7929,1.13271 1.01173,1.24623 1.125,2.71875 -0.45308,0.11327 -1.23442,-1.46096 -1.6875,-1.6875 0.22654,1.24598 0.0937,2.69537 0.0937,3.375 -1.01944,-2.03888 -1.68365,-3.26567 -2.25,-3.71875 0.90616,2.26542 1.48048,6.22285 1.59375,8.375 -0.45308,-3.17159 -1.83218,-7.6916 -3.53125,-9.84375 1.01944,1.69906 1.71096,4.54306 1.9375,5.5625 l -1.03125,-0.8125 c 0.33981,1.01944 0.46883,1.69537 1.375,2.375 -0.7929,0.22654 -3.30085,-0.33588 -4.09375,0.34375 0.90616,-0.90617 1.5899,-0.91798 2.15625,-1.03125 -0.67962,-0.56635 -0.79298,-1.22662 -0.90625,-1.90625 0.11327,0 0.45317,-0.35942 0.90625,-0.8125 -1.47252,-2.15215 -2.48056,-4.64091 -3.5,-7.8125 -0.36779,-1.92264 -2.30259,-6.28163 -2.9064,-6.31245 z m -2.25,27.78125 c 0.1002,0.3817 0.20096,0.74623 0.3125,1.125 -0.11035,-0.37844 -0.21319,-0.74357 -0.3125,-1.125 z"
       transform="matrix(1.7854932,0,0,1.7854932,-238.71275,-147.05646)"
       id="path3068-3"
       style="color:#000000;fill:#916e54;fill-opacity:1;stroke:none;marker:none;visibility:visible;display:inline;overflow:visible;enable-background:accumulate" />
    <path
       d="m 236.39004,75.830717 c -5.25835,1.617956 -7.68529,-1.617956 -8.69651,-4.651624 -0.80898,-3.438157 0,-6.674069 1.61796,-8.089781 3.84264,2.22469 6.06733,8.898759 7.07855,10.516715 1.01123,1.617956 1.21347,1.820201 0,2.22469 z"
       id="path2989-13"
       style="color:#000000;fill:#dacfc5;fill-opacity:1;stroke:#ffd5d5;stroke-width:0.5;stroke-linecap:butt;stroke-linejoin:miter;stroke-miterlimit:4;stroke-opacity:1;stroke-dasharray:none;stroke-dashoffset:0;marker:none;visibility:visible;display:inline;overflow:visible;enable-background:accumulate" />
    <path
       d="m 280.0325,114.13335 c -7.57944,5.43432 -4.57045,13.17479 -1.28125,16.75 3.28919,3.57521 0.55032,10.15413 -0.59375,12.15625 3.2892,-3.71822 3.15254,-9.03761 2.4375,-11.46875 0,0 3.96915,-1.69696 3.5625,-8 -0.57204,-8.86653 -4.98835,-6.13665 -7.5625,-3.5625 0.14301,-2.28813 3.58051,-4.87394 3.4375,-5.875 z m 0.5625,4.4375 c 2.81548,-0.18801 5.385,7.84382 0.15625,12 1.28707,-4.71928 0.85435,-10.27066 -0.71875,-11.84375 0.1877,-0.0894 0.3748,-0.14372 0.5625,-0.15625 z"
       id="path3153-7"
       style="color:#000000;fill:#1a1a1a;stroke:none;marker:none;visibility:visible;display:inline;overflow:visible;enable-background:accumulate" />
    <path
       d="m 257.43028,122.29066 c 4.00423,3.71822 0.85805,9.58157 4.14724,12.58474 -4.86229,-2.57415 -1.85911,-9.43855 -4.14724,-12.58474 z"
       id="path3160-7"
       style="color:#000000;fill:#1a1a1a;stroke:none;marker:none;visibility:visible;display:inline;overflow:visible;enable-background:accumulate" />
    <path
       d="m 270.15803,117.14235 c -3.00318,1.71611 -1.85911,8.72352 1.57309,15.01589 -1.00106,-6.57839 -2.14512,-8.15148 -1.57309,-15.01589 z"
       id="path3162-5-9"
       style="color:#000000;fill:#1a1a1a;stroke:none;marker:none;visibility:visible;display:inline;overflow:visible;enable-background:accumulate" />
    <path
       d="m 265.72477,140.02371 c 3.00318,-4.00424 2.57415,-11.72669 1.00106,-18.16208 0.28601,8.58051 -0.57204,15.1589 -1.00106,18.16208 z"
       id="path3164-14"
       style="color:#000000;fill:#1a1a1a;stroke:none;marker:none;visibility:visible;display:inline;overflow:visible;enable-background:accumulate" />
    <path
       d="m 271.58811,114.99723 c 3.43221,-3.00318 7.29344,-3.43221 9.86759,-1.7161 -0.28602,-1.14407 -1.7161,-2.14513 -2.43114,-2.71717 1.57309,-0.42902 2.28813,0.42903 3.4322,1.43009 -1.14407,-2.57415 -3.71822,-11.58369 -3.86123,-16.731997 -0.14301,-5.148297 1.48292,-5.205032 -0.57203,-13.013763 -0.71505,-2.717161 -1.43009,-5.577331 -1.28708,-8.580509 -1.5731,2.431144 -0.71504,13.728813 0.28602,18.73411 1.00106,5.005292 0.14301,8.580509 -0.71505,9.867579 -0.85805,1.28708 -0.85805,2.86017 0.42903,4.43327 1.28708,1.57309 -0.14301,1.7161 -1.57309,2.43114 -1.43009,0.71504 -3.2892,1.85911 -3.57522,5.86335 z"
       id="path3168-6"
       style="color:#000000;fill:#916e54;fill-opacity:1;stroke:none;marker:none;visibility:visible;display:inline;overflow:visible;enable-background:accumulate" />
    <path
       d="m 283.1718,108.99087 c -1.28708,-5.72034 -1.43008,-12.727747 0.71504,-18.734106 2.28814,5.863349 0.42903,8.294489 -0.14301,9.152539 1.43009,-0.85805 2.00212,-2.28813 2.57416,-4.14724 -0.42903,3.14618 -1.00106,4.14724 -2.00212,6.292367 -1.00106,2.14513 -1.43009,5.14831 -1.14407,7.43644 z"
       id="path3170-7-8"
       style="color:#000000;fill:#916e54;fill-opacity:1;stroke:none;marker:none;visibility:visible;display:inline;overflow:visible;enable-background:accumulate" />
    <path
       d="m 283.45782,85.537484 c 0.57203,-6.292373 -0.14301,-8.008475 -0.71504,-9.295551 -1.00106,2.86017 -0.85806,8.580509 -0.42903,11.154661 -2.43114,-6.57839 -1.85911,-7.579449 -0.85805,-10.725635 1.00106,-3.146187 0.14301,-6.149365 0.42902,-9.009534 0.28602,-2.86017 -1.7161,-7.150424 -1.7161,-10.010594 3.14619,-2.860169 2.86017,-3.289194 3.14619,-0.85805 0.28602,2.431144 -0.57203,13.013771 1.00106,18.591101 1.57309,5.577331 0,7.865466 -0.85805,10.153602 z"
       id="path3172-7"
       style="color:#000000;fill:#916e54;fill-opacity:1;stroke:none;marker:none;visibility:visible;display:inline;overflow:visible;enable-background:accumulate" />
    <path
       d="m 229.875,63.46875 c -0.47746,3.360388 0.52116,10.762767 1.8125,10.90625 0.94098,0.104553 1.60101,-3.731846 1.40625,-7.1875 -0.89963,-1.451152 -1.96314,-2.813733 -3.21875,-3.71875 z"
       id="path3311-32"
       style="color:#000000;fill:#4d453b;fill-opacity:1;stroke:#13100e;stroke-width:0.5;stroke-linecap:butt;stroke-linejoin:miter;stroke-miterlimit:4;stroke-opacity:1;stroke-dasharray:none;stroke-dashoffset:0;marker:none;visibility:visible;display:inline;overflow:visible;enable-background:accumulate" />
    <path
       d="m 297.90625,60.875 c -1.06048,0.846582 -2.05362,2.059615 -2.9375,3.34375 -0.19722,3.420231 0.38935,7.383673 1.34375,7.125 0.97881,-0.265291 2.32019,-7.412503 1.59375,-10.46875 z"
       id="path3311-3-9"
       style="color:#000000;fill:#4d453b;fill-opacity:1;stroke:#13100e;stroke-width:0.5;stroke-linecap:butt;stroke-linejoin:miter;stroke-miterlimit:4;stroke-opacity:1;stroke-dasharray:none;stroke-dashoffset:0;marker:none;visibility:visible;display:inline;overflow:visible;enable-background:accumulate" />
    <path
       d="m 270.77579,26.121737 c -1.49596,-3.365907 -0.37399,-6.357823 2.99191,-7.666787 -1.49596,1.121969 -2.43093,3.552901 -1.30896,6.357823 2.05694,-2.056943 3.92689,-4.113885 5.79684,-9.536735 0.37399,2.056943 0,5.04886 -3.7399,10.471709 3.17891,-3.739896 7.85378,-9.536735 11.40669,-9.162745 -2.05695,0.186995 -5.04886,2.991917 -7.66679,7.853782 1.30896,-0.934974 5.04886,-3.926891 8.22777,-3.365907 -1.86995,0 -3.7399,1.682953 -6.54482,3.552901 1.86995,-0.560984 3.36591,-1.308963 4.86187,-0.747979 -1.30897,0.186995 -3.5529,1.308964 -5.23586,3.552901 3.36591,0.934974 4.86187,-0.560984 6.54482,-4.861864 0.187,1.308963 0.56098,3.365906 -2.99192,7.479792 1.86995,-1.495959 3.5529,-3.552902 4.86187,-5.609844 0,1.121968 -1.68295,4.861864 -2.99192,7.666787 2.24394,-1.495959 3.36591,-3.552902 5.23586,-5.796839 -0.56099,1.495958 -1.12197,4.30088 -4.11389,7.666787 2.99192,-1.869948 5.23585,-3.926891 7.2928,-5.796839 -0.37399,0.747979 -2.43093,4.67487 -6.35783,6.918807 3.17892,-0.560984 6.73182,-1.308963 8.97575,-3.552901 -1.30896,3.926891 -4.48787,3.365907 -6.9188,5.796839 2.05694,0.934974 5.23585,0.934974 7.29279,-2.804922 -0.37399,0.934974 -1.86994,4.487875 -5.64282,5.667295 4.86229,-0.286017 6.57839,-4.147246 9.72458,-4.147246 -1.5731,0.572034 -2.57416,3.146186 -6.29238,5.720339 2.57416,-0.286017 4.86229,-2.288136 6.14937,-3.003178 -0.85805,1.85911 -2.57415,3.575212 -4.57627,4.290254 1.28707,0.429025 2.28813,-0.143008 3.28919,-0.715042 1.00106,-0.572034 3.00318,-0.858051 4.29026,1.287076 -1.5731,-1.001059 -3.2892,-0.572034 -4.65464,0.64457 4.44938,1.415712 7.2808,0.404489 9.50549,-1.213467 -1.21347,1.617956 -3.43816,2.831423 -5.4606,3.235912 0,0 1.41571,0.808979 2.42693,3.235913 -1.61795,-1.820201 -4.04489,-1.011223 -6.87631,-2.022445 1.8202,1.8202 5.05611,4.247134 7.88754,3.438157 -5.05612,4.247135 -11.73019,-5.865092 -17.59528,-8.089782 3.43816,2.022446 5.05612,4.853869 7.6853,6.876314 2.62918,2.022446 4.44937,2.426935 6.06733,3.438157 -7.88754,1.415712 -12.94365,-6.876314 -19.61772,-9.101003 -6.67407,-2.22469 -10.71896,-6.067336 -14.96609,-4.247135 -1.21347,-0.808978 -2.02245,-1.213467 -2.83143,-2.22469 -0.40449,1.213467 -0.80898,1.415712 -1.21346,1.820201 -5.05612,-2.629179 -18.40426,9.707737 -36.20177,11.123449 1.19428,-0.907795 4.05445,-2.480888 4.9125,-2.909914 -2.00212,0.143009 -3.71822,0.572034 -4.43326,1.287077 0.85805,-1.716102 1.28708,-2.145128 2.28813,-2.574153 -0.85805,-0.572034 -1.28707,-0.143008 -2.00211,0.143008 1.43008,-2.860169 3.28919,-2.288135 4.00423,-1.85911 -1.14406,-1.144068 -2.14512,-2.431144 -5.00529,-3.575212 2.43114,0.143009 3.57521,0.572034 5.43432,1.716102 -3.71822,-3.003178 -4.71928,-3.575212 -12.29873,-6.292373 3.2892,-0.286017 13.58581,3.003178 15.87394,4.433263 -3.71822,-3.289195 -9.58157,-6.292373 -12.58474,-8.008475 4.14724,1.00106 9.00953,4.433263 13.72881,5.148305 -2.34758,-1.02352 -6.57879,-4.064701 -8.82662,-8.03146 4.89233,5.156786 10.18134,7.140166 13.75143,7.536842 -2.38006,-2.24783 -5.55347,-6.74349 -7.00794,-9.123546 1.32225,1.718929 6.08236,5.817913 10.04912,7.272391 -0.92558,-2.24783 -3.96676,-4.76011 -7.27239,-6.082363 5.42123,0 6.21459,1.057802 8.06574,1.983379 -1.19003,-2.24783 -2.24783,-3.437857 -6.47904,-5.553462 4.23121,0.528901 7.14017,2.908957 8.99132,4.098984 -0.92558,-1.851154 -2.77673,-3.041182 -3.57008,-3.570083 3.17341,0.528901 5.68569,2.776731 5.68569,2.776731 -0.39668,-1.586703 -1.71893,-2.644505 -2.77674,-3.305632 2.64451,-0.26445 6.08237,0.793352 7.93352,1.851154 -0.92557,-1.983379 -2.77673,-2.51228 -3.96676,-2.908956 0.5289,-0.396676 2.90896,0.661126 3.43786,0.925577 -0.79335,-1.454478 -1.0578,-1.454478 -2.38005,-1.98338 1.19002,-0.528901 3.1734,-0.132225 4.2312,0.793352 -1.45447,-2.380055 -2.6445,-2.24783 -4.2312,-2.51228 2.77673,-1.454479 5.42123,0.132225 6.08236,0.793351 0.26445,-1.190027 -1.5867,-3.173407 -2.90896,-4.098984 1.19003,0.661127 3.96676,1.586704 4.09899,2.24783 -1.05781,-2.644506 -1.45448,-3.570083 -2.38006,-4.231209 2.90896,1.190028 3.57008,3.305632 4.76011,5.421237 1.0578,-0.132225 0,-2.776731 -0.5289,-3.966759 1.85115,0.661127 2.90896,5.024561 4.36344,5.817913 -0.66113,-1.322253 -0.26445,-4.49566 0.39667,-6.346814 -0.26445,1.983379 0.82026,6.866062 3.84799,8.259254 z"
       id="path3034-6"
       style="color:#000000;fill:#71462c;fill-opacity:1;stroke:#663c24;stroke-width:0.5;stroke-linecap:butt;stroke-linejoin:miter;stroke-miterlimit:4;stroke-opacity:1;stroke-dasharray:none;stroke-dashoffset:0;marker:none;visibility:visible;display:inline;overflow:visible;enable-background:accumulate" />
  </g>
</svg>
