<?xml version="1.0" encoding="UTF-8" standalone="no"?>
<svg xmlns="http://www.w3.org/2000/svg" id="mouth_outrage" width="560" height="560">
  <path id="path64563" d="m 276.17001,147.41391 c -1.11097,-0.54787 -1.28562,-1.76381 -1.53914,-3.25008 0.22619,-1.25224 1.67604,-4.46585 3.67861,-4.02843 1.13656,0.24826 3.07266,0.38786 4.03999,-0.007 1.0915,-0.44611 2.29079,-0.28919 2.93638,0.20802 0.92109,0.7094 1.73573,3.06642 1.78589,3.76313 -0.16626,0.6032 -0.0934,2.22663 -0.98509,2.85986 -1.06563,0.75677 -4.17911,1.76104 -4.90656,1.67291 -2.05755,-0.24928 -3.62993,-0.53779 -5.01008,-1.21841 z" style="color:#000000;display:inline;overflow:visible;visibility:visible;fill:#800000;fill-opacity:1;fill-rule:evenodd;stroke:#de8787;stroke-width:0.12364834;stroke-linecap:butt;stroke-linejoin:miter;stroke-miterlimit:4;stroke-dasharray:none;stroke-dashoffset:0;stroke-opacity:1;marker:none;enable-background:accumulate"/>
  <path id="path64567" d="m 282.45902,141.23957 c -0.0478,0.008 -0.0808,0.0248 -0.13137,0.0309 -0.22349,0.027 -0.47471,0.0397 -0.74189,0.0386 -0.53436,-0.002 -1.13781,-0.0493 -1.73881,-0.085 -0.21291,-0.0126 -0.40149,2.3e-4 -0.61051,-0.008 -0.87817,0.78418 -1.09738,2.22581 -1.09738,3.18395 0,1.36241 0.13825,4.49999 1.56879,3.13757 0.81745,-0.54496 2.29575,0.10968 2.73826,0.0375 1.58723,-0.25884 1.28031,-0.92281 1.28031,-2.96644 0,-1.36465 -0.37611,-2.65364 -1.2674,-3.36941 z" style="color:#000000;display:inline;overflow:visible;visibility:visible;fill:#550000;fill-opacity:1;fill-rule:evenodd;stroke:none;stroke-width:0.5;marker:none;enable-background:accumulate"/>
  <path id="path64571" d="m 280.98196,145.90884 c -2.76853,0 -3.13749,-0.65629 -3.13749,-2.10776 0,-1.27848 1.25193,-2.3004 2.03721,-2.3004 0.99387,0 1.31834,0.80557 0.83578,1.13251 -1.62688,1.10224 2.02038,1.36675 1.04473,0.10617 -0.47819,-0.61784 0.20677,-1.20329 0.83578,-1.20329 0.57697,0 1.61669,0.39683 1.61669,1.89718 0,1.50035 -1.24772,2.54638 -3.2327,2.47559 z" style="color:#000000;display:inline;overflow:visible;visibility:visible;fill:#000000;fill-opacity:1;fill-rule:evenodd;stroke:#000000;stroke-width:0.12364835;stroke-linecap:butt;stroke-linejoin:miter;stroke-miterlimit:4;stroke-dasharray:none;stroke-dashoffset:0;stroke-opacity:1;marker:none;enable-background:accumulate"/>
  <path id="path64575" d="m 281.25368,144.72011 c -1.04462,-0.12511 -4.16959,-2.03379 -5.11595,1.15149 -5e-4,0.0174 0.008,0.0366 0.008,0.0541 1.1015,1.06796 3.62514,2.40342 4.70637,2.40342 0.73278,0 3.69434,-1.15323 4.76819,-2.04793 -0.39048,-3.91751 -3.57459,-1.46622 -4.36661,-1.56108 z" style="color:#000000;display:inline;overflow:visible;visibility:visible;fill:#a02c2c;fill-opacity:1;fill-rule:evenodd;stroke:#501616;stroke-width:0.12364834;stroke-linecap:butt;stroke-linejoin:miter;stroke-miterlimit:4;stroke-dasharray:none;stroke-dashoffset:0;stroke-opacity:1;marker:none;enable-background:accumulate"/>
  <path id="path64579" d="m 281.12041,145.1938 c -3.6104,-3.54229 -4.63222,2.58859 0,2.17986 4.63221,-0.40872 3.67852,-5.38154 0,-2.17986 z" style="color:#000000;display:inline;overflow:visible;visibility:visible;fill:#b85757;fill-opacity:1;fill-rule:evenodd;stroke:none;stroke-width:0.5;marker:none;enable-background:accumulate"/>
  <path id="path64585" d="M 274.98633 145.58789 C 274.96167 145.5844 274.94617 145.59067 274.92383 145.58984 C 275.01617 145.94689 275.12181 146.28767 275.2832 146.56836 C 275.46528 146.52402 275.66229 146.48633 275.86523 146.48633 C 276.01314 145.93774 275.65935 145.7207 275.54102 145.7207 C 275.45227 145.7207 275.18739 145.61632 274.98633 145.58789 z" style="color:#000000;display:inline;overflow:visible;visibility:visible;fill:#f2f2f2;stroke:#cccccc;stroke-width:0.25000003;stroke-linecap:butt;stroke-linejoin:miter;stroke-miterlimit:4;stroke-dasharray:none;stroke-dashoffset:0;stroke-opacity:1;marker:none;enable-background:accumulate"/>
  <path id="path64587" d="M 275.91016 145.95312 C 275.79183 145.99642 275.80557 145.95157 275.61328 145.98047 C 275.421 146.00934 275.33316 146.1255 275.31836 146.22656 C 275.30946 146.28737 275.25972 146.35512 275.20703 146.41797 C 275.32301 146.65194 275.46928 146.8577 275.65039 147.03516 C 275.8585 146.89933 276.0839 146.75801 276.25 146.73242 C 276.37612 146.48062 276.39311 146.19384 276.38281 146.08203 C 276.3976 145.981 276.02848 145.90983 275.91016 145.95312 z" style="color:#000000;display:inline;overflow:visible;visibility:visible;fill:#f2f2f2;stroke:#cccccc;stroke-width:0.25000003;stroke-linecap:butt;stroke-linejoin:miter;stroke-miterlimit:4;stroke-dasharray:none;stroke-dashoffset:0;stroke-opacity:1;marker:none;enable-background:accumulate"/>
  <path id="path64589" d="m 276.83961,146.86768 c -0.27194,0.0817 -0.53341,0.32666 -0.70075,0.46958 -0.16734,0.14291 -0.37652,0.22458 -0.36606,0.0715 0.0105,-0.15313 0.0418,-0.57166 0.15688,-0.83708 0.11505,-0.26541 0.25102,-0.42874 0.46019,-0.60228 0.20918,-0.17354 0.73212,0.0715 0.70075,0.19396 -0.0314,0.12249 -0.0418,0.48999 -0.25101,0.70436 z" style="color:#000000;display:inline;overflow:visible;visibility:visible;fill:#f2f2f2;stroke:#cccccc;stroke-width:0.25000003;stroke-linecap:butt;stroke-linejoin:miter;stroke-miterlimit:4;stroke-dasharray:none;stroke-dashoffset:0;stroke-opacity:1;marker:none;enable-background:accumulate"/>
  <path id="path64591" d="m 277.38347,147.05143 c -0.28239,0.22458 -0.51249,0.63291 -0.79488,0.7452 -0.28239,0.11229 -0.27193,-0.0408 -0.25101,-0.18375 0.0209,-0.14292 -0.0732,-0.56145 0.0837,-0.89832 0.15688,-0.33687 0.44973,-0.67374 0.5857,-0.68395 0.13596,-0.0102 0.40789,0.11229 0.43927,0.15312 0.0314,0.0408 0.16734,0.16333 0.13596,0.26542 -0.0314,0.10208 -0.0523,0.38791 -0.19871,0.60228 z" style="color:#000000;display:inline;overflow:visible;visibility:visible;fill:#f2f2f2;stroke:#cccccc;stroke-width:0.25000003;stroke-linecap:butt;stroke-linejoin:miter;stroke-miterlimit:4;stroke-dasharray:none;stroke-dashoffset:0;stroke-opacity:1;marker:none;enable-background:accumulate"/>
  <g id="g64593" style="stroke:#cccccc;stroke-width:47.47182465;stroke-miterlimit:4;stroke-dasharray:none">
    <path id="path64595" d="m 5332.272,3202.0825 c -31.3777,0.9805 -43.1654,7.8483 -72.5963,78.4825 -29.4309,70.6342 -66.7101,70.6342 -80.4445,74.5583 -13.7345,3.9241 -49.0516,-5.8862 -47.0895,-23.5447 1.9621,-17.6586 -11.7724,-151.0788 3.9241,-188.3579 15.6965,-37.2792 21.5827,-113.7996 51.0136,-143.2305 29.4309,-29.4309 49.0516,-52.9757 78.4825,-51.0136 29.4309,1.962 98.1031,80.4445 96.141,90.2548 -1.9621,9.8103 2.008,161.8687 -29.4309,162.8511 z" style="color:#000000;display:inline;overflow:visible;visibility:visible;fill:#f2f2f2;stroke:#cccccc;stroke-width:47.47182465;stroke-linecap:butt;stroke-linejoin:miter;stroke-miterlimit:4;stroke-dasharray:none;stroke-dashoffset:0;stroke-opacity:1;marker:none;enable-background:accumulate" transform="matrix(0.00533055,0,0,0.00520279,249.73348,130.82041)"/>
    <path id="path64597" d="m 5279.612,3033.3293 c 7.5682,6.8893 11.8607,16.5565 3.9311,21.3496 -3.9738,2.4021 -11.3189,11.535 -9.8279,23.2466 0.892,7.0068 -8.6839,43.8728 -15.228,52.053 -10.483,13.1037 -15.7245,-10.4829 -6.5519,-22.2762 9.1726,-11.7933 14.4141,-20.9659 13.1037,-24.897 -1.3104,-3.9311 -2.6207,-9.1726 3.9311,-20.9659 6.5518,-11.7933 6.9356,-16.492 3.0045,-20.4231 -3.9311,-3.9311 -0.2748,-15.2894 7.6374,-8.087 z" style="color:#000000;display:inline;overflow:visible;visibility:visible;fill:#ffffff;stroke:none;stroke-width:15.7275238;marker:none;enable-background:accumulate" transform="matrix(0.00533055,0,0,0.00520279,249.73348,130.82041)"/>
    <path id="path64599" d="m 5220.3911,3205.1946 c 0,0 14.8251,0 20.3845,-5.5594 5.5595,-5.5594 0,-24.0908 0,-24.0908 0,0 3.7063,-12.972 -3.7062,-16.6782 -7.4126,-3.7063 -18.5314,1.8531 -16.6783,11.1188 1.8531,9.2657 9.2657,18.5314 0,35.2096 z" style="color:#000000;display:inline;overflow:visible;visibility:visible;fill:#ffffff;stroke:none;stroke-width:15.7275238;marker:none;enable-background:accumulate" transform="matrix(0.00533055,0,0,0.00520279,249.73348,130.82041)"/>
  </g>
  <path id="path64601" d="m 279.3079,147.52101 c 0.0837,-0.245 0.0941,-1.02082 -0.11505,-0.97999 -0.0523,-0.051 -0.13596,-0.0613 -0.19872,-0.051 -0.0627,-0.0715 -0.21963,-0.0408 -0.21963,-0.0408 0,0 -0.39744,-0.0715 -0.49157,-0.0306 -0.0941,0.0408 -0.0732,0.28583 -0.0941,0.38791 -0.0209,0.10208 0.10459,0.90853 0.12551,1.10249 0.0209,0.19395 0.40789,0.48999 0.58569,0.14291 0.1778,-0.34708 0.29285,-0.43895 0.4079,-0.53082 z" style="color:#000000;display:inline;overflow:visible;visibility:visible;fill:#f2f2f2;stroke:#cccccc;stroke-width:0.25000003;stroke-linecap:butt;stroke-linejoin:miter;stroke-miterlimit:4;stroke-dasharray:none;stroke-dashoffset:0;stroke-opacity:1;marker:none;enable-background:accumulate"/>
  <path id="path64603" d="M 286.85352 145.50195 C 286.62562 145.53062 286.49967 145.64313 286.44531 145.70117 C 286.36881 145.78287 286.21347 145.92797 286.36133 146.47656 C 286.40791 146.47656 286.45001 146.48744 286.49609 146.49023 C 286.67217 146.19686 286.78345 145.85155 286.85352 145.50195 z" style="color:#000000;display:inline;overflow:visible;visibility:visible;fill:#f2f2f2;stroke:#cccccc;stroke-width:0.25000003;stroke-linecap:butt;stroke-linejoin:miter;stroke-miterlimit:4;stroke-dasharray:none;stroke-dashoffset:0;stroke-opacity:1;marker:none;enable-background:accumulate"/>
  <g id="g64605" style="stroke:#cccccc;stroke-width:47.47182465;stroke-miterlimit:4;stroke-dasharray:none">
    <path id="path64607" d="m 5742.1949,3226.1459 c 15.2612,6.9369 47.8444,46.5387 57.5561,61.8 9.7117,15.2612 61.952,28.639 93.9071,-14.112 30.8592,-41.2849 37.2214,-78.2105 41.3836,-93.4718 4.1621,-15.2613 12.4864,-29.1351 13.8738,-56.8829 1.3874,-27.7477 6.937,-88.7927 8.3243,-94.3423 1.3874,-5.5495 -5.5495,-13.8739 -8.3243,-16.6486 -2.7747,-2.7748 2.91,-14.8712 -8.4226,-20.6834 -11.3326,-5.8122 -23.0205,-1.1631 -38.1609,-2.5879 -15.1402,-1.4247 -37.1946,-0.6457 -46.8181,-6.0752 -12.9219,-7.2903 -44.5668,-3.6661 -56.7179,-6.237 -12.151,-2.5709 -43.1625,-8.4355 -51.4868,-2.8859 -8.3244,5.5495 -10.5898,4.5616 -13.5192,39.4193 -2.9292,34.8577 8.4049,165.5365 8.4049,212.7077 z" style="color:#000000;display:inline;overflow:visible;visibility:visible;fill:#f2f2f2;stroke:#cccccc;stroke-width:47.47182465;stroke-linecap:butt;stroke-linejoin:miter;stroke-miterlimit:4;stroke-dasharray:none;stroke-dashoffset:0;stroke-opacity:1;marker:none;enable-background:accumulate" transform="matrix(0.00533055,0,0,0.00520279,249.73348,130.82041)"/>
    <path id="path64609" d="m 5852.3115,3180.1773 c 2.9747,-15.5789 -4.6328,-38.916 -4.6328,-49.1082 0,-10.1923 8.3391,-28.7237 11.1188,-35.2097 -5.5594,-0.9265 -11.1188,7.4126 -15.7517,12.972 -3.7062,-6.486 -5.5594,-18.5314 -4.6328,-28.7236 -5.5594,4.6328 -17.6048,19.4579 -14.8251,25.0173 2.7797,5.5595 8.3391,19.458 6.486,22.2377 -1.8532,2.7797 -1.8532,3.7063 2.7797,12.972 4.6328,9.2657 13.8985,29.1939 13.8985,44.4753 0,13.8985 8.3391,23.1643 12.972,30.5768 -7.4126,-12.972 -9.2636,-25.5157 -7.4126,-35.2096 z" style="color:#000000;display:inline;overflow:visible;visibility:visible;fill:#ffffff;stroke:none;stroke-width:15.7275238;marker:none;enable-background:accumulate" transform="matrix(0.00533055,0,0,0.00520279,249.73348,130.82041)"/>
  </g>
  <g id="g64611" style="stroke:#cccccc;stroke-width:47.47182465;stroke-miterlimit:4;stroke-dasharray:none">
    <path id="path64613" d="m 5747.2425,3226.1459 c -15.2612,6.9369 -36.072,81.8558 -45.7837,97.1171 -9.7117,15.2612 -84.6306,29.1351 -109.6036,-18.0361 -24.973,-47.1711 -33.2973,-109.6035 -37.4595,-124.8648 -4.1621,-15.2613 -12.4864,-29.1351 -13.8738,-56.8829 -1.3874,-27.7477 -6.937,-88.7927 -8.3243,-94.3423 -1.3874,-5.5495 5.5495,-13.8739 8.3243,-16.6486 2.7747,-2.7748 -2.7748,-11.0991 8.3243,-16.6487 11.0991,-5.5495 22.1982,-4.1621 36.0721,-4.1621 13.8738,0 51.3333,4.1621 61.045,4.1621 9.7117,0 22.1982,1.3874 33.2973,0 11.0991,-1.3874 38.8468,-9.7117 47.1711,-4.1621 8.3244,5.5495 9.7117,5.5495 15.2613,37.4594 5.5495,31.9099 5.5495,149.8378 5.5495,197.009 z" style="color:#000000;display:inline;overflow:visible;visibility:visible;fill:#f2f2f2;stroke:#cccccc;stroke-width:47.47182465;stroke-linecap:butt;stroke-linejoin:miter;stroke-miterlimit:4;stroke-dasharray:none;stroke-dashoffset:0;stroke-opacity:1;marker:none;enable-background:accumulate" transform="matrix(0.00533055,0,0,0.00520279,249.73348,130.82041)"/>
    <path id="path64615" d="m 5681.8227,3144.0411 c -0.9265,-19.458 -2.7797,-37.0628 2.7797,-40.7691 5.5594,-3.7063 9.2657,-10.1923 9.2657,-14.8251 0,-4.6329 0,-22.2377 2.7798,-25.944 2.7797,-3.7062 6.4859,-20.3845 11.1188,-27.797 -4.6329,1.8531 -12.972,2.7797 -12.972,2.7797 -0.9266,7.4125 -2.7797,12.0454 -5.5594,16.6782 -2.7797,4.6329 -9.2657,38.9159 -10.1923,43.5488 3.7063,-22.2377 8.3392,-45.4019 11.1189,-51.8879 -3.7063,6.486 -3.7063,7.4125 -8.3392,11.1188 -2.7797,12.0454 -10.1922,53.7411 -12.0454,58.3739 -1.8531,4.6328 0.9266,32.4299 0,37.9894 4.6329,-3.7063 7.4126,-8.3392 12.0454,-9.2657 z" style="color:#000000;display:inline;overflow:visible;visibility:visible;fill:#ffffff;stroke:none;stroke-width:15.7275238;marker:none;enable-background:accumulate" transform="matrix(0.00533055,0,0,0.00520279,249.73348,130.82041)"/>
    <path id="path64617" d="m 5608.3552,3149.634 0,-24.8969 c -7.8622,-18.3452 -9.1726,-44.5525 3.9311,-52.4147 -1.3104,-2.6208 -10.4829,-10.483 -9.1726,-17.0348 -11.7933,3.9311 -11.7933,9.1726 -10.4829,14.414 1.3104,5.2415 -3.9311,1.3104 -2.6207,14.4141 1.3103,13.1036 -1.3104,23.5866 18.3451,65.5183 z" style="color:#000000;display:inline;overflow:visible;visibility:visible;fill:#ffffff;stroke:none;stroke-width:15.7275238;marker:none;enable-background:accumulate" transform="matrix(0.00533055,0,0,0.00520279,249.73348,130.82041)"/>
    <path id="path64619" d="m 5631.9418,3106.3919 c 1.3104,-23.5866 5.2415,-57.6561 15.7244,-58.9665 -14.414,-5.2415 -9.1726,-18.3451 7.8622,-23.5866 -18.3451,-1.3104 -26.2073,0 -30.1384,6.5518 -3.9311,6.5519 0,17.0348 -2.6208,19.6555 -2.6207,2.6208 1.3104,10.483 11.7933,10.483 -5.2414,9.1725 -6.5518,18.3451 -11.7933,27.5177 5.2415,10.4829 3.9311,3.9311 9.1726,18.3451 z" style="color:#000000;display:inline;overflow:visible;visibility:visible;fill:#ffffff;stroke:none;stroke-width:15.7275238;marker:none;enable-background:accumulate" transform="matrix(0.00533055,0,0,0.00520279,249.73348,130.82041)"/>
  </g>
  <path id="path64623" d="M 286.20703 145.74609 C 286.01475 145.71719 285.90156 145.91486 285.77539 145.92188 C 285.63615 145.92988 285.46619 145.89964 285.35547 146.16406 C 285.34517 146.27587 285.51864 146.48062 285.64453 146.73242 C 285.78068 146.81921 285.92452 146.90566 286.06836 146.96875 C 286.07315 146.96539 286.08122 146.96233 286.08594 146.95898 C 286.3905 146.7427 286.5776 146.40822 286.70508 146.04102 C 286.66657 145.97531 286.62709 145.9049 286.59766 145.87891 C 286.54106 145.82891 286.39931 145.77496 286.20703 145.74609 z" style="color:#000000;display:inline;overflow:visible;visibility:visible;fill:#f2f2f2;stroke:#cccccc;stroke-width:0.25000003;stroke-linecap:butt;stroke-linejoin:miter;stroke-miterlimit:4;stroke-dasharray:none;stroke-dashoffset:0;stroke-opacity:1;marker:none;enable-background:accumulate"/>
  <path id="path64625" d="m 285.9994,146.58008 c -0.0908,-0.0818 -0.34925,-0.19089 -0.33528,-0.25225 -0.0419,0.0341 -0.0559,-0.0205 -0.10478,-0.0682 0.007,0.12954 0.0419,0.15681 0.16066,0.19771 0.11874,0.0409 0.20955,0.0886 0.2794,0.12272 z" style="color:#000000;display:inline;overflow:visible;visibility:visible;fill:#ffffff;stroke:none;stroke-width:15.7275238;stroke-miterlimit:4;stroke-dasharray:none;marker:none;enable-background:accumulate"/>
  <g id="g64627" style="stroke:#cccccc;stroke-width:47.47182465;stroke-miterlimit:4;stroke-dasharray:none">
    <path id="path64629" d="m 6554.223,3084.3588 c 51.0136,15.6965 78.4824,54.9378 109.8754,82.4067 31.393,27.4688 100.0651,51.0135 98.1031,21.5826 -1.9621,-29.4309 -9.8103,-96.1411 -11.7724,-121.6479 -4.2484,-55.2281 -52.9756,-119.6856 -92.2169,-153.0407 -13.5704,-11.5349 -38.4371,-0.068 -62.4727,-2.7372 -35.5599,-3.9491 -92.4566,22.6518 -88.606,38.0543 5.8862,23.5447 7.8483,94.1789 47.0895,135.3822 z" style="color:#000000;display:inline;overflow:visible;visibility:visible;fill:#f2f2f2;stroke:#cccccc;stroke-width:47.47182465;stroke-linecap:butt;stroke-linejoin:miter;stroke-miterlimit:4;stroke-dasharray:none;stroke-dashoffset:0;stroke-opacity:1;marker:none;enable-background:accumulate" transform="matrix(0.00533055,0,0,0.00520279,249.73348,130.82041)"/>
    <path id="path64631" d="m 6676.3045,3109.0127 c 6.5518,-22.2763 1.3103,-44.5525 -13.1037,-58.9666 6.5518,27.5177 11.7933,44.5525 13.1037,58.9666 z" style="color:#000000;display:inline;overflow:visible;visibility:visible;fill:#ffffff;stroke:none;stroke-width:15.7275238;marker:none;enable-background:accumulate" transform="matrix(0.00533055,0,0,0.00520279,249.73348,130.82041)"/>
  </g>
  <g id="g64633" style="stroke:#cccccc;stroke-width:47.47182465;stroke-miterlimit:4;stroke-dasharray:none">
    <path id="path64635" d="m 6420.1873,3139.2965 c 52.9756,43.1654 68.6721,113.7997 121.6478,135.3823 52.9756,21.5827 88.8691,12.0167 90.2548,-15.6965 1.9621,-39.2412 7.8483,-139.3064 -21.5827,-204.0544 -29.4309,-64.748 -84.3686,-129.4961 -109.8754,-131.4581 -25.5068,-1.9621 -62.786,43.1654 -72.5963,45.1274 -9.6198,1.9239 -35.3171,11.7724 -35.3171,35.3171 0,20.4845 0,94.1789 27.4689,135.3822 z" style="color:#000000;display:inline;overflow:visible;visibility:visible;fill:#f2f2f2;stroke:#cccccc;stroke-width:47.47182465;stroke-linecap:butt;stroke-linejoin:miter;stroke-miterlimit:4;stroke-dasharray:none;stroke-dashoffset:0;stroke-opacity:1;marker:none;enable-background:accumulate" transform="matrix(0.00533055,0,0,0.00520279,249.73348,130.82041)"/>
    <path id="path64637" d="m 6500.7153,3115.5645 c 6.5518,15.7244 26.2073,52.4147 23.5866,72.0702 -2.6207,19.6555 -32.7592,-27.5177 -40.6214,-40.6214 -7.8622,-13.1037 -20.9659,0 -24.897,-7.8622 -3.9311,-7.8622 -27.5177,-57.6562 -34.0695,-62.8976 -6.5519,-5.2415 -13.1037,-13.1037 -2.6208,-18.3452 -6.5518,-22.2762 14.4141,-14.414 14.4141,3.9311 0,18.3452 20.9659,56.3458 28.8281,57.6562 7.8622,1.3104 3.9311,-7.8622 35.3799,-3.9311 z" style="color:#000000;display:inline;overflow:visible;visibility:visible;fill:#ffffff;stroke:none;stroke-width:15.7275238;marker:none;enable-background:accumulate" transform="matrix(0.00533055,0,0,0.00520279,249.73348,130.82041)"/>
    <path id="path64639" d="m 6566.2336,3157.4962 c -3.9311,-18.3451 -17.0347,-45.8628 -23.5866,-56.3458 7.8622,26.2074 1.3104,27.5178 23.5866,56.3458 z" style="color:#000000;display:inline;overflow:visible;visibility:visible;fill:#ffffff;stroke:none;stroke-width:15.7275238;marker:none;enable-background:accumulate" transform="matrix(0.00533055,0,0,0.00520279,249.73348,130.82041)"/>
  </g>
  <g id="g64641" style="stroke:#cccccc;stroke-width:47.47182465;stroke-miterlimit:4;stroke-dasharray:none">
    <path id="path64643" d="m 6202.5139,3206.0066 c 35.3018,18.6391 35.3172,25.5069 64.7481,96.1411 29.4309,70.6342 90.2548,49.0515 103.9892,52.9756 13.7345,3.9241 41.8645,-6.5632 47.0895,-23.5447 7.8482,-25.5068 9.1978,-162.2959 1.9621,-202.0923 -11.7724,-64.7481 -6.3938,-108.0352 -43.1654,-127.534 -29.2389,-15.5045 -53.0362,-54.3315 -77.2452,-61.8647 -16.5829,-5.1602 -36.3624,13.9775 -48.3267,14.7752 -29.4309,1.9621 -62.786,64.748 -76.5204,78.4824 -7.0743,7.0743 -0.3464,157.9752 27.4688,172.6614 z" style="color:#000000;display:inline;overflow:visible;visibility:visible;fill:#f2f2f2;stroke:#cccccc;stroke-width:47.47182465;stroke-linecap:butt;stroke-linejoin:miter;stroke-miterlimit:4;stroke-dasharray:none;stroke-dashoffset:0;stroke-opacity:1;marker:none;enable-background:accumulate" transform="matrix(0.00533055,0,0,0.00520279,249.73348,130.82041)"/>
    <path id="path64645" d="m 6257.2224,3046.7513 c -2.7797,-7.4126 -7.3269,-5.5505 -8.3391,3.7062 -0.979,8.9537 13.2838,64.3256 28.4647,90.2644 14.144,24.1673 16.3732,51.9341 17.8638,64.4728 1.2471,10.4906 10.1923,8.3391 8.3391,-1e-4 -2.878,-12.9504 -9.2657,-63.9333 -15.7517,-70.4192 -6.486,-6.486 -20.3845,-37.0628 -30.5768,-88.0241 z" style="color:#000000;display:inline;overflow:visible;visibility:visible;fill:#ffffff;stroke:none;stroke-width:15.7275238;marker:none;enable-background:accumulate" transform="matrix(0.00533055,0,0,0.00520279,249.73348,130.82041)"/>
  </g>
  <g id="g64647" style="stroke:#cccccc;stroke-width:47.47182465;stroke-miterlimit:4;stroke-dasharray:none">
    <path id="path64649" d="m 5943.8998,3152.6872 c 6.295,-76.564 -12.4035,-151.9871 14.1731,-145.4543 1.1256,-6.0541 8.0549,-15.4438 21.9731,-13.507 18.0493,2.5117 39.7658,-0.076 47.6431,1.485 13.9945,-12.7161 47.5551,-4.127 47.5551,-4.127 0,0 80.6848,-5.7859 98.1912,3.1966 17.5063,8.9826 11.201,55.1327 12.6463,75.0165 1.4455,19.8838 -14.953,163.8435 -21.0652,201.3045 -12.8117,78.5225 -113.8629,109.0338 -147.1534,41.2925 -33.2907,-67.7413 -52.3851,-140.2649 -73.9633,-159.2068 z" style="color:#000000;display:inline;overflow:visible;visibility:visible;fill:#f2f2f2;stroke:#cccccc;stroke-width:47.47182465;stroke-linecap:butt;stroke-linejoin:miter;stroke-miterlimit:4;stroke-dasharray:none;stroke-dashoffset:0;stroke-opacity:1;marker:none;enable-background:accumulate" transform="matrix(0.00533055,0,0,0.00520279,249.73348,130.82041)"/>
    <path id="path64651" d="m 5991.297,3068.0624 c -9.2657,-44.4754 -1.8532,-63.0067 29.6502,-51.888 -12.972,9.2657 -29.6502,44.4754 -29.6502,51.888 z" style="color:#000000;display:inline;overflow:visible;visibility:visible;fill:#ffffff;stroke:none;stroke-width:15.7275238;marker:none;enable-background:accumulate" transform="matrix(0.00533055,0,0,0.00520279,249.73348,130.82041)"/>
  </g>
  <path id="path64661" d="M 276.11719 141.13867 C 275.99828 141.27784 275.88005 141.41459 275.77344 141.56836 C 275.8776 141.52543 275.99984 141.45625 276.09375 141.40625 C 276.15343 141.37445 276.14713 141.2638 276.11719 141.13867 z" style="color:#000000;display:inline;overflow:visible;visibility:visible;fill:#f2f2f2;stroke:#cccccc;stroke-width:0.25000003;stroke-linecap:butt;stroke-linejoin:miter;stroke-miterlimit:4;stroke-dasharray:none;stroke-dashoffset:0;stroke-opacity:1;marker:none;enable-background:accumulate"/>
  <path id="path64667" d="M 285.49805 140.54688 C 285.36034 140.78998 285.3328 141.22956 285.4668 141.29297 C 285.62635 141.36842 285.87589 141.64317 285.96289 141.60547 C 286.00641 141.58661 286.07669 141.48314 286.11719 141.43164 C 285.92575 141.08302 285.71789 140.77803 285.49805 140.54688 z" style="color:#000000;display:inline;overflow:visible;visibility:visible;fill:#f2f2f2;stroke:#cccccc;stroke-width:0.25000003;stroke-linecap:butt;stroke-linejoin:miter;stroke-miterlimit:4;stroke-dasharray:none;stroke-dashoffset:0;stroke-opacity:1;marker:none;enable-background:accumulate"/>
  <path id="path64669" d="M 285.20898 140.28711 C 285.12078 140.38429 285.02597 140.4768 284.9707 140.50195 C 284.80616 140.75879 284.66466 141.48081 284.8457 141.56641 C 284.92912 141.60586 285.03846 141.72232 285.10156 141.76172 C 285.17333 141.80652 285.31684 141.78998 285.40234 141.77148 C 285.49669 141.75113 285.54075 141.62533 285.56055 141.57812 C 285.60149 141.48052 285.68077 140.97158 285.69727 140.85742 C 285.69943 140.84238 285.68807 140.78759 285.6875 140.76172 C 285.55691 140.59334 285.42269 140.44186 285.28516 140.33594 C 285.262 140.3181 285.23353 140.30406 285.20898 140.28711 z" style="color:#000000;display:inline;overflow:visible;visibility:visible;fill:#f2f2f2;stroke:#cccccc;stroke-width:0.25000003;stroke-linecap:butt;stroke-linejoin:miter;stroke-miterlimit:4;stroke-dasharray:none;stroke-dashoffset:0;stroke-opacity:1;marker:none;enable-background:accumulate"/>
  <path id="path64673" d="M 276.45508 140.78125 C 276.24769 140.97321 276.05408 141.18767 275.87695 141.42773 C 275.92053 141.58682 275.97094 141.74182 276.01172 141.76172 C 276.09942 141.80452 276.42121 141.73213 276.58203 141.64648 C 276.71388 141.5763 276.58448 141.10476 276.45508 140.78125 z" style="color:#000000;display:inline;overflow:visible;visibility:visible;fill:#f2f2f2;stroke:#cccccc;stroke-width:0.25000003;stroke-linecap:butt;stroke-linejoin:miter;stroke-miterlimit:4;stroke-dasharray:none;stroke-dashoffset:0;stroke-opacity:1;marker:none;enable-background:accumulate"/>
  <path id="path64675" d="m 276.19249,140.43504 c -0.0559,0.12953 -0.014,0.29316 0.0559,0.51814 -0.0279,-0.25907 0.007,-0.43633 -0.0559,-0.51814 z" style="color:#000000;display:inline;overflow:visible;visibility:visible;fill:#ffffff;stroke:none;stroke-width:15.7275238;stroke-miterlimit:4;stroke-dasharray:none;marker:none;enable-background:accumulate"/>
  <path id="path64679" d="M 277.05469 140.33594 C 276.78342 140.48072 276.52861 140.68021 276.29492 140.92188 C 276.29994 140.95654 276.29889 141.00155 276.30469 141.0332 C 276.37779 141.43273 276.47892 141.88943 276.68359 141.91797 C 276.88827 141.94647 277.09399 141.8036 277.21094 141.68945 C 277.3279 141.57529 277.34209 141.53245 277.48828 141.50391 C 277.63448 141.47541 277.47452 140.77686 277.41602 140.64844 C 277.23392 140.62872 277.13606 140.48295 277.05469 140.33594 z" style="color:#000000;display:inline;overflow:visible;visibility:visible;fill:#f2f2f2;stroke:#cccccc;stroke-width:0.25000003;stroke-linecap:butt;stroke-linejoin:miter;stroke-miterlimit:4;stroke-dasharray:none;stroke-dashoffset:0;stroke-opacity:1;marker:none;enable-background:accumulate"/>
  <path id="path64681" d="m 276.61997,140.09643 c 0.25101,0.21437 0.32422,0.75541 0.39744,0.88811 0.0732,0.13271 0.23009,0.13271 0.27193,0.0919 -0.11505,0.19395 -0.26148,0.26541 -0.28239,0.21437 -0.0209,-0.051 -0.14643,-0.29604 -0.18826,-0.42875 -0.0418,-0.1327 -0.0628,-0.53082 -0.19872,-0.76561 z" style="color:#000000;display:inline;overflow:visible;visibility:visible;fill:#ffffff;stroke:none;stroke-width:15.7275238;stroke-miterlimit:4;stroke-dasharray:none;marker:none;enable-background:accumulate"/>
  <g id="g64683" style="stroke:#cccccc;stroke-width:47.47182465;stroke-miterlimit:4;stroke-dasharray:none">
    <path id="path64685" d="m 5442.5811,2683.5355 c -13.713,-13.7129 -90.5053,-79.5349 -123.4163,-120.6737 -23.3031,-29.1289 -71.3072,-65.8221 -115.1886,10.9703 -43.8813,76.7924 -49.3665,268.7734 -27.4258,304.427 21.9407,35.6536 38.3962,30.1684 57.5943,30.1684 13.7129,19.1981 19.1981,13.7129 35.6536,10.9703 30.1684,21.9407 82.2775,-5.4851 87.7627,-8.2277 5.4851,-2.7426 30.1684,2.7426 65.822,-24.6833 35.6536,-27.4258 38.3962,-16.4555 19.1981,-202.9513 z" style="color:#000000;display:inline;overflow:visible;visibility:visible;fill:#f2f2f2;stroke:#cccccc;stroke-width:47.47182465;stroke-linecap:butt;stroke-linejoin:miter;stroke-miterlimit:4;stroke-dasharray:none;stroke-dashoffset:0;stroke-opacity:1;marker:none;enable-background:accumulate" transform="matrix(0.00533055,0,0,0.00520279,249.73348,126.52975)"/>
    <path id="path64687" d="m 5393.0959,2839.1011 c -3.9241,52.9757 -11.7724,19.6206 -23.5448,-3.9241 -11.7723,-23.5447 -23.5447,-90.2548 -33.355,-111.8375 13.7344,35.3171 29.4309,68.6722 39.2412,70.6342 7.8483,17.6586 11.7724,33.3551 17.6586,45.1274 z" style="color:#000000;display:inline;overflow:visible;visibility:visible;fill:#ffffff;stroke:none;stroke-width:15.7275238;marker:none;enable-background:accumulate" transform="matrix(0.00533055,0,0,0.00520279,249.73348,126.52975)"/>
  </g>
  <path id="path64691" d="M 284.31836 139.94922 C 284.25704 140.0106 284.1763 140.07678 284.14648 140.12109 C 284.03127 140.29232 283.98822 140.60511 283.73633 140.69141 C 283.67053 140.81983 283.62642 141.46163 283.75781 141.5625 C 283.89059 141.66445 283.92564 141.70456 284.07031 141.83984 C 284.19495 141.9564 284.40866 142.05398 284.55859 142.08008 C 284.73196 142.11027 284.78777 142.06277 284.85547 141.9043 C 284.94488 141.69507 284.96458 141.44837 285.04688 141.04883 C 285.09346 140.82258 285.07069 140.46645 285.01758 140.16602 C 284.81695 140.06042 284.57066 140.00012 284.31836 139.94922 z" style="color:#000000;display:inline;overflow:visible;visibility:visible;fill:#f2f2f2;stroke:#cccccc;stroke-width:0.25000003;stroke-linecap:butt;stroke-linejoin:miter;stroke-miterlimit:4;stroke-dasharray:none;stroke-dashoffset:0;stroke-opacity:1;marker:none;enable-background:accumulate"/>
  <path id="path64693" d="m 284.52557,140.16234 c -0.0559,0.10908 -0.0978,0.21816 -0.11176,0.36815 -0.0279,-0.25907 -0.0279,-0.27271 0.11176,-0.36815 z" style="color:#000000;display:inline;overflow:visible;visibility:visible;fill:#ffffff;stroke:none;stroke-width:15.7275238;stroke-miterlimit:4;stroke-dasharray:none;marker:none;enable-background:accumulate"/>
  <path id="path64695" d="m 284.38587,140.58503 c 0.0419,0.16362 0.0279,0.32724 0,0.40905 -0.0279,0.0818 -0.18161,0.35451 -0.19558,0.53177 -0.0419,-0.0954 -0.0838,-0.13635 -0.0838,-0.13635 l 0.0838,-0.19089 -0.12573,0.17725 -0.0978,-0.10908 c 0.16764,-0.0682 0.22352,-0.17725 0.22352,-0.23179 0,-0.0545 0.014,-0.12272 0.0698,-0.17726 -0.0419,0.0954 0,0.21816 -0.0559,0.31361 0.11176,-0.12272 0.1397,-0.17726 0.12573,-0.2318 -0.014,-0.0545 -0.0419,-0.0954 0,-0.13635 0.0419,-0.0409 0.0559,-0.14999 0.0559,-0.21816 z" style="color:#000000;display:inline;overflow:visible;visibility:visible;fill:#ffffff;stroke:none;stroke-width:15.7275238;stroke-miterlimit:4;stroke-dasharray:none;marker:none;enable-background:accumulate"/>
  <path id="path64697" d="m 284.63733,141.30087 c 0.007,0.10908 -0.0629,0.19089 -0.0559,0.25225 0.007,0.0614 -0.0419,0.0545 -0.0419,0.0273 0,-0.0273 -0.0349,-0.0477 0.007,-0.0954 0.0419,-0.0477 0.0629,-0.15681 0.0908,-0.18408 z" style="color:#000000;display:inline;overflow:visible;visibility:visible;fill:#ffffff;stroke:none;stroke-width:15.7275238;stroke-miterlimit:4;stroke-dasharray:none;marker:none;enable-background:accumulate"/>
  <g id="g64699" style="stroke:#cccccc;stroke-width:47.47182465;stroke-miterlimit:4;stroke-dasharray:none">
    <path id="path64701" d="m 6123.0189,2700.2039 c 49.7213,-47.0694 55.6569,-69.3624 92.7084,-110.5012 26.2348,-29.1289 93.2304,-67.69 150.9568,39.6249 12.8685,23.9231 14.9938,50.2778 22.0622,76.6581 16.3344,60.9633 12.5215,121.9553 8.814,152.85 -5.1682,43.0652 -12.7317,34.4414 -34.3177,52.3666 -18.9526,15.7384 -71.5592,22.0372 -109.5084,16.5198 -20.09,10.8416 -42.9346,3.8684 -71.0563,0.097 -20.6306,-2.767 -51.931,-3.8947 -54.6794,-52.431 -6.7645,-91.2544 -11.4723,-144.5909 -4.9796,-175.1842 z" style="color:#000000;display:inline;overflow:visible;visibility:visible;fill:#f2f2f2;stroke:#cccccc;stroke-width:47.47182465;stroke-linecap:butt;stroke-linejoin:miter;stroke-miterlimit:4;stroke-dasharray:none;stroke-dashoffset:0;stroke-opacity:1;marker:none;enable-background:accumulate" transform="matrix(0.00533055,0,0,0.00520279,249.73348,126.52975)"/>
    <path id="path64703" d="m 6215.0552,2711.9714 c 0,0 -28.8281,96.9672 -28.8281,104.8294 0,7.8622 -6.5518,23.5866 -6.5518,28.828 0,5.2415 0,15.7244 -6.5518,28.8281 3.9311,-18.3451 2.6207,-36.6903 3.9311,-45.8628 1.3103,-9.1726 6.5518,-23.5866 9.1725,-32.7592 2.6208,-9.1726 -1.3103,-10.483 2.6208,-17.0348 3.9311,-6.5518 5.6252,-12.336 9.5563,-20.1982 3.9311,-7.8622 11.4096,-37.458 16.651,-46.6305 z" style="color:#000000;display:inline;overflow:visible;visibility:visible;fill:#ffffff;stroke:none;stroke-width:15.7275238;marker:none;enable-background:accumulate" transform="matrix(0.00533055,0,0,0.00520279,249.73348,126.52975)"/>
  </g>
  <path id="path64707" d="M 282.19531 140.17578 C 281.78762 140.30895 281.24738 140.35699 280.67773 140.36133 C 280.64646 140.43963 280.61824 140.52195 280.59766 140.61328 C 280.56319 140.76611 280.48352 141.55298 280.47852 141.72656 C 280.47682 141.78126 280.54688 141.79688 280.54688 141.79688 C 280.5454 141.90437 280.7142 141.85293 280.8125 141.86523 C 281.06691 141.89723 281.42935 141.91667 281.73242 141.88867 C 281.89549 141.87357 282.05557 141.9197 282.13867 141.79883 C 282.40733 141.77801 282.40034 141.35569 282.40234 141.30859 C 282.41355 140.98733 282.30628 140.46204 282.19531 140.17578 z" style="color:#000000;display:inline;overflow:visible;visibility:visible;fill:#f2f2f2;stroke:#cccccc;stroke-width:0.25000003;stroke-linecap:butt;stroke-linejoin:miter;stroke-miterlimit:4;stroke-dasharray:none;stroke-dashoffset:0;stroke-opacity:1;marker:none;enable-background:accumulate"/>
  <path id="path64709" d="m 281.89223,141.64857 c 0.014,-0.0886 -0.0209,-0.37497 -0.0209,-0.44996 0,-0.075 -0.0838,0.075 -0.0978,0.1159 -0.014,0.0409 0.014,0.41587 0.014,0.41587 0,0 0.0698,-0.0614 0.10477,-0.0818 z" style="color:#000000;display:inline;overflow:visible;visibility:visible;fill:#ffffff;stroke:none;stroke-width:15.7275238;stroke-miterlimit:4;stroke-dasharray:none;marker:none;enable-background:accumulate"/>
  <path id="path64711" d="m 280.97021,141.06907 c 0.007,-0.0341 0.0698,-0.32724 0.0698,-0.32724 0,0 -0.0349,-0.0682 -0.014,-0.26588 -0.0279,0.13635 -0.0349,0.18407 -0.0699,0.23179 0.014,0.075 0.021,0.25907 0.014,0.36133 z" style="color:#000000;display:inline;overflow:visible;visibility:visible;fill:#ffffff;stroke:none;stroke-width:15.7275238;stroke-miterlimit:4;stroke-dasharray:none;marker:none;enable-background:accumulate"/>
  <path id="path64715" d="M 278.84961 140.22266 C 278.70712 140.73153 278.67188 141.46656 278.67188 141.58984 C 278.67188 141.76107 279.02655 141.98 279.63672 141.84766 C 279.97297 141.86196 280.51462 141.87595 280.5 141.61914 C 280.49 141.44582 280.48428 140.76183 280.42578 140.61914 C 280.41313 140.58828 280.37395 140.48309 280.32422 140.36914 C 279.80636 140.35427 279.30789 140.29534 278.84961 140.22266 z" style="color:#000000;display:inline;overflow:visible;visibility:visible;fill:#f2f2f2;stroke:#cccccc;stroke-width:0.25000003;stroke-linecap:butt;stroke-linejoin:miter;stroke-miterlimit:4;stroke-dasharray:none;stroke-dashoffset:0;stroke-opacity:1;marker:none;enable-background:accumulate"/>
  <path id="path64717" d="m 279.95635,140.46393 c 0.0627,0.18374 0.0627,0.30624 0.0732,0.58186 -0.0837,-0.27562 -0.16734,-0.32666 -0.0732,-0.58186 z" style="color:#000000;display:inline;overflow:visible;visibility:visible;fill:#ffffff;stroke:none;stroke-width:15.7275238;stroke-miterlimit:4;stroke-dasharray:none;marker:none;enable-background:accumulate"/>
  <path id="path64719" d="m 278.99413,140.62726 c 0,0.10208 0.0732,0.23478 0.12551,0.29603 -0.0105,0.1225 -0.0105,0.18375 0.0418,0.25521 -0.0418,0.0306 0,0.10208 0.0209,0.14291 0.0209,0.0408 0.0627,0.11229 0.10459,0.18375 -0.12551,-0.0919 -0.20918,-0.17354 -0.20918,-0.17354 0,0 -0.0209,-0.0408 0.0209,-0.0715 -0.0209,-0.0306 -0.0314,-0.0408 -0.0105,-0.0817 0.0105,-0.0408 -0.0105,-0.11229 -0.0314,-0.15312 -0.0209,-0.0408 0.0104,-0.0715 -0.0105,-0.11229 -0.0209,-0.0408 -0.0523,-0.1225 -0.0523,-0.15313 0,-0.0306 0.0209,-0.0714 0,-0.1327 z" style="color:#000000;display:inline;overflow:visible;visibility:visible;fill:#ffffff;stroke:none;stroke-width:15.7275238;stroke-miterlimit:4;stroke-dasharray:none;marker:none;enable-background:accumulate"/>
  <path id="path64721" d="m 279.58719,140.39413 c 0.014,0.3477 0.0698,1.19308 0.0838,1.28171 0.014,0.0886 -0.12573,0.0205 -0.13272,-0.0341 -0.007,-0.0545 -0.0768,-0.35451 -0.0559,-0.41587 0.021,-0.0614 0.0559,-0.20453 0.0349,-0.26589 -0.021,-0.0614 0.0489,-0.14998 0.0349,-0.19089 -0.014,-0.0409 -0.0419,-0.0614 -0.0279,-0.10908 0.014,-0.0477 0.0349,-0.16362 0.021,-0.19089 -0.014,-0.0273 0.0279,-0.0477 0.0419,-0.075 z" style="color:#000000;display:inline;overflow:visible;visibility:visible;fill:#ffffff;stroke:none;stroke-width:15.7275238;stroke-miterlimit:4;stroke-dasharray:none;marker:none;enable-background:accumulate"/>
  <path id="path64723" d="m 274.59572,143.92002 c -0.3009,4.87147 2.38901,5.53149 6.53585,5.53149 4.14685,0 6.27701,-1.88714 5.96707,-5.34415 -0.18217,0.98814 -0.93097,2.29816 -1.79368,2.90759 -1.1044,0.78016 -3.21406,-0.007 -4.47449,-0.007 -1.50394,0 -3.65711,0.98902 -4.71523,0.17408 -1.07901,-0.83056 -1.33465,-2.16517 -1.51952,-3.26236 z" style="display:inline;fill:#e9afaf;stroke:none;enable-background:new"/>
  <path id="upperlip"  d="m 284.34569,140.76175 c -1.20161,-0.28992 -2.77005,0.082 -3.96339,0.082 -1.00109,0 -2.93961,-0.49519 -3.82088,0.0726 -0.48958,0.31543 -1.80439,1.76259 -1.89461,3.81624 -0.55398,-1.33386 0.59106,-3.75853 1.96832,-4.86233 1.50475,-1.20599 2.02929,-0.1311 3.84913,-0.1311 1.81984,0 3.381,-1.27461 4.93431,0.39336 1.01681,1.09186 1.92872,2.40761 1.60216,4.33631 -0.11626,-1.92663 -1.24697,-3.36252 -2.67504,-3.70708 z" style="display:inline;fill:#de8787;stroke:none;enable-background:new"/>
</svg>
