<?xml version="1.0" encoding="UTF-8" standalone="no"?>
<!-- Created with Inkscape (http://www.inkscape.org/) -->

<svg
   xmlns:dc="http://purl.org/dc/elements/1.1/"
   xmlns:cc="http://creativecommons.org/ns#"
   xmlns:rdf="http://www.w3.org/1999/02/22-rdf-syntax-ns#"
   xmlns:svg="http://www.w3.org/2000/svg"
   xmlns="http://www.w3.org/2000/svg"
   xmlns:sodipodi="http://sodipodi.sourceforge.net/DTD/sodipodi-0.dtd"
   xmlns:inkscape="http://www.inkscape.org/namespaces/inkscape"
   version="1.1"
   width="560"
   height="560"
   id="eyes_neutral"
   inkscape:version="0.91pre2 r13516"
   sodipodi:docname="mouth_shock.svg">
  <sodipodi:namedview
     pagecolor="#ffffff"
     bordercolor="#666666"
     borderopacity="1"
     objecttolerance="10"
     gridtolerance="10"
     guidetolerance="10"
     inkscape:pageopacity="0"
     inkscape:pageshadow="2"
     inkscape:window-width="640"
     inkscape:window-height="480"
     id="namedview48578"
     showgrid="false"
     inkscape:zoom="19.534764"
     inkscape:cx="280.68002"
     inkscape:cy="414.97138"
     inkscape:window-x="10"
     inkscape:window-y="34"
     inkscape:window-maximized="0"
     inkscape:current-layer="eyes_neutral" />
  <metadata
     id="metadata33021">
    <rdf:RDF>
      <cc:Work
         rdf:about="">
        <dc:format>image/svg+xml</dc:format>
        <dc:type
           rdf:resource="http://purl.org/dc/dcmitype/StillImage" />
        <dc:title></dc:title>
      </cc:Work>
    </rdf:RDF>
  </metadata>
  <defs
     id="defs33019">
    <clipPath
       id="clipPath17580">
      <path
         d="m 537.94192,127.97425 c -0.24161,0.59472 -1.61691,2.45324 -5.53838,0.8735 -0.59472,0.0558 -1.56115,0.14868 -1.59832,0.1301 -0.0372,-0.0186 -0.0929,-0.1301 -0.0186,-0.18585 0.0743,-0.0558 0.39028,-0.39029 0.92925,-0.52039 0.53897,-0.13009 1.85852,-1.747 3.10372,-1.747 1.2452,0 2.84353,0.96643 3.12231,1.44964 z"
         id="path17582"
         style="color:#000000;fill:none;stroke:#008080;stroke-width:0.02662179;stroke-linecap:butt;stroke-linejoin:miter;stroke-miterlimit:4;stroke-opacity:1;stroke-dasharray:none;stroke-dashoffset:0;marker:none;visibility:visible;display:inline;overflow:visible;enable-background:accumulate" />
    </clipPath>
    <clipPath
       id="clipPath17632">
      <path
         d="m 515.63686,127.97425 c 0.24161,0.59472 1.61691,2.45324 5.53838,0.8735 0.59472,0.0558 1.56115,0.14868 1.59832,0.1301 0.0372,-0.0186 0.0929,-0.1301 0.0186,-0.18585 -0.0743,-0.0558 -0.39028,-0.39029 -0.92925,-0.52039 -0.53897,-0.13009 -1.85852,-1.747 -3.10372,-1.747 -1.24521,0 -2.84353,0.96643 -3.12231,1.44964 z"
         id="path17634"
         style="color:#000000;fill:#e6e6e6;stroke:#de8787;stroke-width:0.02662179;stroke-linecap:butt;stroke-linejoin:miter;stroke-miterlimit:4;stroke-opacity:1;stroke-dasharray:none;stroke-dashoffset:0;marker:none;visibility:visible;display:inline;overflow:visible;enable-background:accumulate" />
    </clipPath>
    <clipPath
       clipPathUnits="userSpaceOnUse"
       id="clipPath95568">
      <path
         sodipodi:nodetypes="ssssssss"
         id="path95570"
         d="m 552.90935,154.83331 c -1.23871,0 -4.52418,-1.37629 -5.22058,-2.2536 -0.57653,-0.72632 0.0706,-5.68377 1.38117,-5.60619 1.16133,0.0687 2.66765,0.29644 3.71213,0.32956 2.00916,0.0637 3.91961,-0.9584 4.5652,-0.46119 0.9211,0.7094 1.04374,2.65122 1.0939,3.34793 0.0275,0.38176 -0.038,1.89447 -0.92973,2.5277 -1.06564,0.75677 -3.86932,2.11579 -4.60209,2.11579 z"
         style="color:#000000;display:inline;overflow:visible;visibility:visible;fill:none;stroke:#de8787;stroke-width:0.12364889;stroke-linecap:butt;stroke-linejoin:miter;stroke-miterlimit:4;stroke-dasharray:none;stroke-dashoffset:0;stroke-opacity:1;marker:none;enable-background:accumulate"
         inkscape:connector-curvature="0" />
    </clipPath>
    <clipPath
       clipPathUnits="userSpaceOnUse"
       id="clipPath95564">
      <path
         sodipodi:nodetypes="ssssssss"
         id="path95566"
         d="m 558.82317,149.32734 c -1.23871,0 -4.52418,-1.37629 -5.22058,-2.2536 -0.57653,-0.72632 0.0706,-5.68377 1.38117,-5.60619 1.16133,0.0687 2.66765,0.29644 3.71213,0.32956 2.00916,0.0637 3.91961,-0.9584 4.5652,-0.46119 0.9211,0.7094 1.04374,2.65122 1.0939,3.34793 0.0275,0.38176 -0.038,1.89447 -0.92973,2.5277 -1.06564,0.75677 -3.86932,2.11579 -4.60209,2.11579 z"
         style="color:#000000;display:inline;overflow:visible;visibility:visible;fill:none;stroke:#de8787;stroke-width:0.12364889;stroke-linecap:butt;stroke-linejoin:miter;stroke-miterlimit:4;stroke-dasharray:none;stroke-dashoffset:0;stroke-opacity:1;marker:none;enable-background:accumulate"
         inkscape:connector-curvature="0" />
    </clipPath>
    <clipPath
       clipPathUnits="userSpaceOnUse"
       id="clipPath95560">
      <path
         sodipodi:nodetypes="ssssssss"
         id="path95562"
         d="m 552.90935,154.83331 c -1.23871,0 -4.52418,-1.37629 -5.22058,-2.2536 -0.57653,-0.72632 0.0706,-5.68377 1.38117,-5.60619 1.16133,0.0687 2.66765,0.29644 3.71213,0.32956 2.00916,0.0637 3.91961,-0.9584 4.5652,-0.46119 0.9211,0.7094 1.04374,2.65122 1.0939,3.34793 0.0275,0.38176 -0.038,1.89447 -0.92973,2.5277 -1.06564,0.75677 -3.86932,2.11579 -4.60209,2.11579 z"
         style="color:#000000;display:inline;overflow:visible;visibility:visible;fill:none;stroke:#de8787;stroke-width:0.12364889;stroke-linecap:butt;stroke-linejoin:miter;stroke-miterlimit:4;stroke-dasharray:none;stroke-dashoffset:0;stroke-opacity:1;marker:none;enable-background:accumulate"
         inkscape:connector-curvature="0" />
    </clipPath>
    <clipPath
       clipPathUnits="userSpaceOnUse"
       id="clipPath95556">
      <path
         sodipodi:nodetypes="ssssssss"
         id="path95558"
         d="m 558.82317,149.32734 c -1.23871,0 -4.52418,-1.37629 -5.22058,-2.2536 -0.57653,-0.72632 0.0706,-5.68377 1.38117,-5.60619 1.16133,0.0687 2.66765,0.29644 3.71213,0.32956 2.00916,0.0637 3.91961,-0.9584 4.5652,-0.46119 0.9211,0.7094 1.04374,2.65122 1.0939,3.34793 0.0275,0.38176 -0.038,1.89447 -0.92973,2.5277 -1.06564,0.75677 -3.86932,2.11579 -4.60209,2.11579 z"
         style="color:#000000;display:inline;overflow:visible;visibility:visible;fill:none;stroke:#de8787;stroke-width:0.12364889;stroke-linecap:butt;stroke-linejoin:miter;stroke-miterlimit:4;stroke-dasharray:none;stroke-dashoffset:0;stroke-opacity:1;marker:none;enable-background:accumulate"
         inkscape:connector-curvature="0" />
    </clipPath>
    <clipPath
       clipPathUnits="userSpaceOnUse"
       id="clipPath95552">
      <path
         sodipodi:nodetypes="ssssssss"
         id="path95554"
         d="m 552.90935,154.83331 c -1.23871,0 -4.52418,-1.37629 -5.22058,-2.2536 -0.57653,-0.72632 0.0706,-5.68377 1.38117,-5.60619 1.16133,0.0687 2.66765,0.29644 3.71213,0.32956 2.00916,0.0637 3.91961,-0.9584 4.5652,-0.46119 0.9211,0.7094 1.04374,2.65122 1.0939,3.34793 0.0275,0.38176 -0.038,1.89447 -0.92973,2.5277 -1.06564,0.75677 -3.86932,2.11579 -4.60209,2.11579 z"
         style="color:#000000;display:inline;overflow:visible;visibility:visible;fill:none;stroke:#de8787;stroke-width:0.12364889;stroke-linecap:butt;stroke-linejoin:miter;stroke-miterlimit:4;stroke-dasharray:none;stroke-dashoffset:0;stroke-opacity:1;marker:none;enable-background:accumulate"
         inkscape:connector-curvature="0" />
    </clipPath>
    <clipPath
       clipPathUnits="userSpaceOnUse"
       id="clipPath95548">
      <path
         sodipodi:nodetypes="ssssssss"
         id="path95550"
         d="m 558.82317,149.32734 c -1.23871,0 -4.52418,-1.37629 -5.22058,-2.2536 -0.57653,-0.72632 0.0706,-5.68377 1.38117,-5.60619 1.16133,0.0687 2.66765,0.29644 3.71213,0.32956 2.00916,0.0637 3.91961,-0.9584 4.5652,-0.46119 0.9211,0.7094 1.04374,2.65122 1.0939,3.34793 0.0275,0.38176 -0.038,1.89447 -0.92973,2.5277 -1.06564,0.75677 -3.86932,2.11579 -4.60209,2.11579 z"
         style="color:#000000;display:inline;overflow:visible;visibility:visible;fill:none;stroke:#de8787;stroke-width:0.12364889;stroke-linecap:butt;stroke-linejoin:miter;stroke-miterlimit:4;stroke-dasharray:none;stroke-dashoffset:0;stroke-opacity:1;marker:none;enable-background:accumulate"
         inkscape:connector-curvature="0" />
    </clipPath>
    <clipPath
       clipPathUnits="userSpaceOnUse"
       id="clipPath95544">
      <path
         sodipodi:nodetypes="ssssssss"
         id="path95546"
         d="m 552.90935,154.83331 c -1.23871,0 -4.52418,-1.37629 -5.22058,-2.2536 -0.57653,-0.72632 0.0706,-5.68377 1.38117,-5.60619 1.16133,0.0687 2.66765,0.29644 3.71213,0.32956 2.00916,0.0637 3.91961,-0.9584 4.5652,-0.46119 0.9211,0.7094 1.04374,2.65122 1.0939,3.34793 0.0275,0.38176 -0.038,1.89447 -0.92973,2.5277 -1.06564,0.75677 -3.86932,2.11579 -4.60209,2.11579 z"
         style="color:#000000;display:inline;overflow:visible;visibility:visible;fill:none;stroke:#de8787;stroke-width:0.12364889;stroke-linecap:butt;stroke-linejoin:miter;stroke-miterlimit:4;stroke-dasharray:none;stroke-dashoffset:0;stroke-opacity:1;marker:none;enable-background:accumulate"
         inkscape:connector-curvature="0" />
    </clipPath>
    <clipPath
       clipPathUnits="userSpaceOnUse"
       id="clipPath95540">
      <path
         sodipodi:nodetypes="ssssssss"
         id="path95542"
         d="m 558.82317,149.32734 c -1.23871,0 -4.52418,-1.37629 -5.22058,-2.2536 -0.57653,-0.72632 0.0706,-5.68377 1.38117,-5.60619 1.16133,0.0687 2.66765,0.29644 3.71213,0.32956 2.00916,0.0637 3.91961,-0.9584 4.5652,-0.46119 0.9211,0.7094 1.04374,2.65122 1.0939,3.34793 0.0275,0.38176 -0.038,1.89447 -0.92973,2.5277 -1.06564,0.75677 -3.86932,2.11579 -4.60209,2.11579 z"
         style="color:#000000;display:inline;overflow:visible;visibility:visible;fill:none;stroke:#de8787;stroke-width:0.12364889;stroke-linecap:butt;stroke-linejoin:miter;stroke-miterlimit:4;stroke-dasharray:none;stroke-dashoffset:0;stroke-opacity:1;marker:none;enable-background:accumulate"
         inkscape:connector-curvature="0" />
    </clipPath>
    <clipPath
       clipPathUnits="userSpaceOnUse"
       id="clipPath95536">
      <path
         sodipodi:nodetypes="ssssssss"
         id="path95538"
         d="m 552.90935,154.83331 c -1.23871,0 -4.52418,-1.37629 -5.22058,-2.2536 -0.57653,-0.72632 0.0706,-5.68377 1.38117,-5.60619 1.16133,0.0687 2.66765,0.29644 3.71213,0.32956 2.00916,0.0637 3.91961,-0.9584 4.5652,-0.46119 0.9211,0.7094 1.04374,2.65122 1.0939,3.34793 0.0275,0.38176 -0.038,1.89447 -0.92973,2.5277 -1.06564,0.75677 -3.86932,2.11579 -4.60209,2.11579 z"
         style="color:#000000;display:inline;overflow:visible;visibility:visible;fill:none;stroke:#de8787;stroke-width:0.12364889;stroke-linecap:butt;stroke-linejoin:miter;stroke-miterlimit:4;stroke-dasharray:none;stroke-dashoffset:0;stroke-opacity:1;marker:none;enable-background:accumulate"
         inkscape:connector-curvature="0" />
    </clipPath>
    <clipPath
       clipPathUnits="userSpaceOnUse"
       id="clipPath95532">
      <path
         sodipodi:nodetypes="ssssssss"
         id="path95534"
         d="m 558.82317,149.32734 c -1.23871,0 -4.52418,-1.37629 -5.22058,-2.2536 -0.57653,-0.72632 0.0706,-5.68377 1.38117,-5.60619 1.16133,0.0687 2.66765,0.29644 3.71213,0.32956 2.00916,0.0637 3.91961,-0.9584 4.5652,-0.46119 0.9211,0.7094 1.04374,2.65122 1.0939,3.34793 0.0275,0.38176 -0.038,1.89447 -0.92973,2.5277 -1.06564,0.75677 -3.86932,2.11579 -4.60209,2.11579 z"
         style="color:#000000;display:inline;overflow:visible;visibility:visible;fill:none;stroke:#de8787;stroke-width:0.12364889;stroke-linecap:butt;stroke-linejoin:miter;stroke-miterlimit:4;stroke-dasharray:none;stroke-dashoffset:0;stroke-opacity:1;marker:none;enable-background:accumulate"
         inkscape:connector-curvature="0" />
    </clipPath>
    <clipPath
       clipPathUnits="userSpaceOnUse"
       id="clipPath95528">
      <path
         sodipodi:nodetypes="ssssssss"
         id="path95530"
         d="m 5837.0056,3364.9138 c -232.3794,0 -848.7267,-264.5292 -979.3699,-433.1522 -108.1558,-139.602 13.2444,-1092.4465 259.1046,-1077.5353 217.8631,13.2044 500.4455,56.9771 696.3878,63.3429 376.9142,12.2435 735.3106,-184.2088 856.4219,-88.6428 172.7965,136.3499 195.8035,509.5766 205.2134,643.4874 5.1589,73.3761 -7.1287,364.1258 -174.4154,485.8355 -199.9118,145.4547 -725.8763,406.6645 -863.3424,406.6645 z"
         style="color:#000000;display:inline;overflow:visible;visibility:visible;fill:none;stroke:#de8787;stroke-width:0.12364889;stroke-linecap:butt;stroke-linejoin:miter;stroke-miterlimit:4;stroke-dasharray:none;stroke-dashoffset:0;stroke-opacity:1;marker:none;enable-background:accumulate"
         inkscape:connector-curvature="0" />
    </clipPath>
    <clipPath
       clipPathUnits="userSpaceOnUse"
       id="clipPath95524">
      <path
         sodipodi:nodetypes="ssssssss"
         id="path95526"
         d="m 558.82317,149.32734 c -1.23871,0 -4.52418,-1.37629 -5.22058,-2.2536 -0.57653,-0.72632 0.0706,-5.68377 1.38117,-5.60619 1.16133,0.0687 2.66765,0.29644 3.71213,0.32956 2.00916,0.0637 3.91961,-0.9584 4.5652,-0.46119 0.9211,0.7094 1.04374,2.65122 1.0939,3.34793 0.0275,0.38176 -0.038,1.89447 -0.92973,2.5277 -1.06564,0.75677 -3.86932,2.11579 -4.60209,2.11579 z"
         style="color:#000000;display:inline;overflow:visible;visibility:visible;fill:none;stroke:#de8787;stroke-width:0.12364889;stroke-linecap:butt;stroke-linejoin:miter;stroke-miterlimit:4;stroke-dasharray:none;stroke-dashoffset:0;stroke-opacity:1;marker:none;enable-background:accumulate"
         inkscape:connector-curvature="0" />
    </clipPath>
    <clipPath
       clipPathUnits="userSpaceOnUse"
       id="clipPath99972">
      <path
         inkscape:connector-curvature="0"
         style="color:#000000;display:inline;overflow:visible;visibility:visible;fill:none;stroke:#de8787;stroke-width:0.12364889;stroke-linecap:butt;stroke-linejoin:miter;stroke-miterlimit:4;stroke-dasharray:none;stroke-dashoffset:0;stroke-opacity:1;marker:none;enable-background:accumulate"
         d="m 5837.0056,4189.5983 c -232.3794,0 -848.7267,-264.5293 -979.3699,-433.1522 -108.1558,-139.6021 13.2444,-1092.4466 259.1046,-1077.5354 217.8631,13.2045 500.4455,56.9772 696.3878,63.343 376.9142,12.2434 735.3106,-184.2089 856.4219,-88.6428 172.7965,136.3499 195.8035,509.5765 205.2134,643.4874 5.1589,73.376 -7.1287,364.1258 -174.4154,485.8355 -199.9118,145.4546 -725.8763,406.6645 -863.3424,406.6645 z"
         id="path99974"
         sodipodi:nodetypes="ssssssss" />
    </clipPath>
    <clipPath
       clipPathUnits="userSpaceOnUse"
       id="clipPath35775">
      <path
         clip-path="none"
         sodipodi:nodetypes="scsssscs"
         id="path35777"
         d="m 5837.0056,4189.5983 c -232.3644,2.6524 -1019.8141,-189.4061 -1150.4573,-358.0291 30.344,-339.9311 184.3318,-1167.5697 430.192,-1152.6585 217.8631,13.2045 820.4819,10.7058 1001.951,-65.2822 204.7631,-85.7444 364.5703,44.5818 485.6816,140.1478 172.7946,136.35 260.9787,409.4111 270.3886,543.322 5.159,73.376 62.0011,346.418 90.5817,479.9329 -199.91,145.4546 -610.6575,406.6645 -1128.3376,412.5671 z"
         style="color:#000000;display:inline;overflow:visible;visibility:visible;fill:#800000;fill-opacity:1;fill-rule:evenodd;stroke:none;stroke-width:0.12364834;marker:none;enable-background:accumulate"
         inkscape:connector-curvature="0" />
    </clipPath>
    <clipPath
       clipPathUnits="userSpaceOnUse"
       id="clipPath35779">
      <path
         clip-path="none"
         sodipodi:nodetypes="scsssscs"
         id="path35781"
         d="m 5837.0056,3364.9138 c -232.3644,2.6524 -1019.8141,-189.406 -1150.4573,-358.029 30.344,-339.9311 184.3318,-1167.5697 430.192,-1152.6585 217.8631,13.2044 820.4819,10.7058 1001.951,-65.2823 204.7631,-85.7444 364.5703,44.5819 485.6816,140.1479 172.7946,136.3499 260.9787,409.4111 270.3886,543.3219 5.159,73.3761 62.0011,346.418 90.5817,479.9329 -199.91,145.4547 -610.6575,406.6645 -1128.3376,412.5671 z"
         style="color:#000000;display:inline;overflow:visible;visibility:visible;fill:#800000;fill-opacity:1;fill-rule:evenodd;stroke:none;stroke-width:0.12364834;marker:none;enable-background:accumulate"
         inkscape:connector-curvature="0" />
    </clipPath>
    <clipPath
       clipPathUnits="userSpaceOnUse"
       id="clipPath95536-0">
      <path
         sodipodi:nodetypes="ssssssss"
         id="path95538-5"
         d="m 552.90935,154.83331 c -1.23871,0 -4.52418,-1.37629 -5.22058,-2.2536 -0.57653,-0.72632 0.0706,-5.68377 1.38117,-5.60619 1.16133,0.0687 2.66765,0.29644 3.71213,0.32956 2.00916,0.0637 3.91961,-0.9584 4.5652,-0.46119 0.9211,0.7094 1.04374,2.65122 1.0939,3.34793 0.0275,0.38176 -0.038,1.89447 -0.92973,2.5277 -1.06564,0.75677 -3.86932,2.11579 -4.60209,2.11579 z"
         style="color:#000000;display:inline;overflow:visible;visibility:visible;fill:none;stroke:#de8787;stroke-width:0.12364889;stroke-linecap:butt;stroke-linejoin:miter;stroke-miterlimit:4;stroke-dasharray:none;stroke-dashoffset:0;stroke-opacity:1;marker:none;enable-background:accumulate"
         inkscape:connector-curvature="0" />
    </clipPath>
    <clipPath
       clipPathUnits="userSpaceOnUse"
       id="clipPath95544-5">
      <path
         sodipodi:nodetypes="ssssssss"
         id="path95546-9"
         d="m 552.90935,154.83331 c -1.23871,0 -4.52418,-1.37629 -5.22058,-2.2536 -0.57653,-0.72632 0.0706,-5.68377 1.38117,-5.60619 1.16133,0.0687 2.66765,0.29644 3.71213,0.32956 2.00916,0.0637 3.91961,-0.9584 4.5652,-0.46119 0.9211,0.7094 1.04374,2.65122 1.0939,3.34793 0.0275,0.38176 -0.038,1.89447 -0.92973,2.5277 -1.06564,0.75677 -3.86932,2.11579 -4.60209,2.11579 z"
         style="color:#000000;display:inline;overflow:visible;visibility:visible;fill:none;stroke:#de8787;stroke-width:0.12364889;stroke-linecap:butt;stroke-linejoin:miter;stroke-miterlimit:4;stroke-dasharray:none;stroke-dashoffset:0;stroke-opacity:1;marker:none;enable-background:accumulate"
         inkscape:connector-curvature="0" />
    </clipPath>
    <clipPath
       clipPathUnits="userSpaceOnUse"
       id="clipPath95552-0">
      <path
         sodipodi:nodetypes="ssssssss"
         id="path95554-8"
         d="m 552.90935,154.83331 c -1.23871,0 -4.52418,-1.37629 -5.22058,-2.2536 -0.57653,-0.72632 0.0706,-5.68377 1.38117,-5.60619 1.16133,0.0687 2.66765,0.29644 3.71213,0.32956 2.00916,0.0637 3.91961,-0.9584 4.5652,-0.46119 0.9211,0.7094 1.04374,2.65122 1.0939,3.34793 0.0275,0.38176 -0.038,1.89447 -0.92973,2.5277 -1.06564,0.75677 -3.86932,2.11579 -4.60209,2.11579 z"
         style="color:#000000;display:inline;overflow:visible;visibility:visible;fill:none;stroke:#de8787;stroke-width:0.12364889;stroke-linecap:butt;stroke-linejoin:miter;stroke-miterlimit:4;stroke-dasharray:none;stroke-dashoffset:0;stroke-opacity:1;marker:none;enable-background:accumulate"
         inkscape:connector-curvature="0" />
    </clipPath>
    <clipPath
       clipPathUnits="userSpaceOnUse"
       id="clipPath95560-1">
      <path
         sodipodi:nodetypes="ssssssss"
         id="path95562-5"
         d="m 552.90935,154.83331 c -1.23871,0 -4.52418,-1.37629 -5.22058,-2.2536 -0.57653,-0.72632 0.0706,-5.68377 1.38117,-5.60619 1.16133,0.0687 2.66765,0.29644 3.71213,0.32956 2.00916,0.0637 3.91961,-0.9584 4.5652,-0.46119 0.9211,0.7094 1.04374,2.65122 1.0939,3.34793 0.0275,0.38176 -0.038,1.89447 -0.92973,2.5277 -1.06564,0.75677 -3.86932,2.11579 -4.60209,2.11579 z"
         style="color:#000000;display:inline;overflow:visible;visibility:visible;fill:none;stroke:#de8787;stroke-width:0.12364889;stroke-linecap:butt;stroke-linejoin:miter;stroke-miterlimit:4;stroke-dasharray:none;stroke-dashoffset:0;stroke-opacity:1;marker:none;enable-background:accumulate"
         inkscape:connector-curvature="0" />
    </clipPath>
    <clipPath
       clipPathUnits="userSpaceOnUse"
       id="clipPath37621">
      <path
         inkscape:connector-curvature="0"
         style="color:#000000;display:inline;overflow:visible;visibility:visible;fill:#800000;fill-opacity:1;fill-rule:evenodd;stroke:none;stroke-width:0.12364834;marker:none;enable-background:accumulate"
         d="m 5811.5842,3412.569 c -232.3644,2.6524 -994.9424,60.7059 -1150.4573,-379.7347 30.344,-339.9311 226.7008,-629.2912 472.561,-614.38 217.8631,13.2045 545.0826,136.5921 726.5517,60.6041 204.7631,-85.7444 623.022,-172.4652 744.1333,-76.8992 172.7946,136.3499 377.0493,222.5364 386.4592,356.4472 5.1589,73.3761 17.9531,81.835 46.5393,215.3499 -58.9677,434.2612 -708.1071,432.7101 -1225.7872,438.6127 z"
         id="path37623"
         sodipodi:nodetypes="scsssscs"
         clip-path="none" />
    </clipPath>
    <clipPath
       clipPathUnits="userSpaceOnUse"
       id="clipPath37625">
      <path
         inkscape:connector-curvature="0"
         style="color:#000000;display:inline;overflow:visible;visibility:visible;fill:#800000;fill-opacity:1;fill-rule:evenodd;stroke:none;stroke-width:0.12364834;marker:none;enable-background:accumulate"
         d="m 5811.5842,3382.2776 c -232.3644,2.6524 -994.9424,60.7059 -1150.4573,-379.7347 30.344,-339.9311 226.7008,-629.2912 472.561,-614.38 217.8631,13.2044 545.0826,136.5921 726.5517,60.604 204.7631,-85.7444 623.022,-172.4651 744.1333,-76.8991 172.7946,136.3499 377.0493,222.5364 386.4592,356.4472 5.1589,73.376 17.9531,81.8349 46.5393,215.3498 -58.9677,434.2613 -708.1071,432.7102 -1225.7872,438.6128 z"
         id="path37627"
         sodipodi:nodetypes="scsssscs"
         clip-path="none" />
    </clipPath>
    <clipPath
       clipPathUnits="userSpaceOnUse"
       id="clipPath37629">
      <path
         inkscape:connector-curvature="0"
         style="color:#000000;display:inline;overflow:visible;visibility:visible;fill:#800000;fill-opacity:1;fill-rule:evenodd;stroke:none;stroke-width:0.12364834;marker:none;enable-background:accumulate"
         d="m 552.77384,152.61998 c -1.23863,0.0138 -5.30359,0.31584 -6.13257,-1.97568 0.16175,-1.76859 1.20844,-3.27407 2.51901,-3.19649 1.16133,0.0687 2.90559,0.71066 3.87292,0.31531 1.0915,-0.44611 3.32105,-0.8973 3.96664,-0.40009 0.92109,0.7094 2.00988,1.15781 2.06004,1.85452 0.0275,0.38176 0.0957,0.42577 0.24808,1.12042 -0.31433,2.25937 -3.7746,2.2513 -6.53412,2.28201 z"
         id="path37631"
         sodipodi:nodetypes="scsssscs"
         clip-path="none" />
    </clipPath>
    <clipPath
       clipPathUnits="userSpaceOnUse"
       id="clipPath37633">
      <path
         inkscape:connector-curvature="0"
         style="color:#000000;display:inline;overflow:visible;visibility:visible;fill:#800000;fill-opacity:1;fill-rule:evenodd;stroke:none;stroke-width:0.12364834;marker:none;enable-background:accumulate"
         d="m 552.77384,152.61998 c -1.23863,0.0138 -5.30359,0.31584 -6.13257,-1.97568 0.16175,-1.76859 1.20844,-3.27407 2.51901,-3.19649 1.16133,0.0687 2.90559,0.71066 3.87292,0.31531 1.0915,-0.44611 3.32105,-0.8973 3.96664,-0.40009 0.92109,0.7094 2.00988,1.15781 2.06004,1.85452 0.0275,0.38176 0.0957,0.42577 0.24808,1.12042 -0.31433,2.25937 -3.7746,2.2513 -6.53412,2.28201 z"
         id="path37635"
         sodipodi:nodetypes="scsssscs"
         clip-path="none" />
    </clipPath>
    <clipPath
       clipPathUnits="userSpaceOnUse"
       id="clipPath95552-0-2">
      <path
         sodipodi:nodetypes="ssssssss"
         id="path95554-37"
         d="m 552.90935,154.83331 c -1.23871,0 -4.52418,-1.37629 -5.22058,-2.2536 -0.57653,-0.72632 0.0706,-5.68377 1.38117,-5.60619 1.16133,0.0687 2.66765,0.29644 3.71213,0.32956 2.00916,0.0637 3.91961,-0.9584 4.5652,-0.46119 0.9211,0.7094 1.04374,2.65122 1.0939,3.34793 0.0275,0.38176 -0.038,1.89447 -0.92973,2.5277 -1.06564,0.75677 -3.86932,2.11579 -4.60209,2.11579 z"
         style="color:#000000;display:inline;overflow:visible;visibility:visible;fill:none;stroke:#de8787;stroke-width:0.12364889;stroke-linecap:butt;stroke-linejoin:miter;stroke-miterlimit:4;stroke-dasharray:none;stroke-dashoffset:0;stroke-opacity:1;marker:none;enable-background:accumulate"
         inkscape:connector-curvature="0" />
    </clipPath>
    <clipPath
       clipPathUnits="userSpaceOnUse"
       id="clipPath60705-4">
      <path
         style="color:#000000;display:inline;overflow:visible;visibility:visible;fill:#f9f9f9;fill-opacity:1;fill-rule:evenodd;stroke:none;stroke-width:0.32081631;marker:none;enable-background:accumulate"
         d="m 516.98769,2555.8224 c 0.003,-3e-4 1.96286,0.638 1.96839,0.6376 6.66947,-1.3587 10.84647,-0.949 16.8513,-0.1438 -2.59471,1.9848 -5.5861,3.3422 -8.58697,3.2577 -3.17166,-0.089 -4.09048,-1.0425 -10.23272,-3.7516 z"
         id="path60707-1"
         inkscape:connector-curvature="0"
         sodipodi:nodetypes="cccscc" />
    </clipPath>
    <clipPath
       clipPathUnits="userSpaceOnUse"
       id="clipPath43276">
      <path
         clip-path="none"
         sodipodi:nodetypes="ccsssccc"
         id="path43278"
         d="M 5162.1127,3681.8053 C 4943.3492,3550.52 4630.843,3132.5039 4421.8514,2666.8614 c 152.7516,44.6511 356.905,177.5836 663.5319,-32.5921 181.3922,-124.3352 450.6627,-4.1516 646.7025,-3.7288 209.4381,0.3844 648.9687,-27.6563 799.9437,-3.0945 156.0421,25.396 385.6507,48.918 628.363,33.9069 -18.8874,70.9753 -497.1964,815.2145 -664.4831,936.9242 -224.7329,131.81 -1081.1567,59.7468 -1333.7967,83.5186 z"
         style="color:#000000;display:inline;overflow:visible;visibility:visible;fill:#800000;fill-opacity:1;fill-rule:evenodd;stroke:none;stroke-width:0.12364834;marker:none;enable-background:accumulate"
         inkscape:connector-curvature="0" />
    </clipPath>
    <clipPath
       clipPathUnits="userSpaceOnUse"
       id="clipPath43280">
      <path
         clip-path="none"
         sodipodi:nodetypes="ccsssccc"
         id="path43282"
         d="m 5162.1127,3256.8718 c -218.7635,-131.2853 -531.2697,-549.3014 -740.2613,-1014.9439 152.7516,44.651 356.905,177.5836 663.5319,-32.5921 181.3922,-124.3353 450.6627,-4.1517 646.7025,-3.7288 209.4381,0.3844 648.9687,-27.6563 799.9437,-3.0945 156.0421,25.396 385.6507,48.918 628.363,33.9068 -18.8874,70.9754 -497.1964,815.2145 -664.4831,936.9242 -224.7329,131.8101 -1081.1567,59.7468 -1333.7967,83.5187 z"
         style="color:#000000;display:inline;overflow:visible;visibility:visible;fill:#800000;fill-opacity:1;fill-rule:evenodd;stroke:none;stroke-width:0.12364834;marker:none;enable-background:accumulate"
         inkscape:connector-curvature="0" />
    </clipPath>
    <clipPath
       clipPathUnits="userSpaceOnUse"
       id="clipPath31298">
      <path
         clip-path="none"
         sodipodi:nodetypes="sssssscs"
         id="path31300"
         d="m 5856.5589,4062.726 c -232.1111,11.4169 -962.3585,140.2497 -1054.2233,-362.9399 -31.9854,-175.1983 -23.2284,-603.4205 283.3985,-813.5962 181.3922,-124.3352 519.4624,58.0977 715.5022,58.5263 209.438,0.3844 702.8899,-184.7989 811.4341,-74.585 229.9406,233.4786 224.9017,486.3045 247.4116,833.0261 4.765,73.4049 -118.6538,163.9294 -285.9405,285.6391 -224.7123,131.8197 -464.2879,61.4613 -717.5826,73.9296 z"
         style="color:#000000;display:inline;overflow:visible;visibility:visible;fill:#800000;fill-opacity:1;fill-rule:evenodd;stroke:#de8787;stroke-width:0.12364889;stroke-linecap:butt;stroke-linejoin:miter;stroke-miterlimit:4;stroke-dasharray:none;stroke-dashoffset:0;stroke-opacity:1;marker:none;enable-background:accumulate"
         inkscape:connector-curvature="0" />
    </clipPath>
    <clipPath
       clipPathUnits="userSpaceOnUse"
       id="clipPath31302">
      <path
         clip-path="none"
         sodipodi:nodetypes="sssssscs"
         id="path31304"
         d="m 5856.5589,3238.0415 c -232.1111,11.417 -962.3585,140.2498 -1054.2233,-362.9399 -31.9854,-175.1983 -23.2284,-603.4204 283.3985,-813.5961 181.3922,-124.3353 519.4624,58.0976 715.5022,58.5263 209.438,0.3844 702.8899,-184.799 811.4341,-74.585 229.9406,233.4785 224.9017,486.3044 247.4116,833.0261 4.765,73.4048 -118.6538,163.9293 -285.9405,285.639 -224.7123,131.8197 -464.2879,61.4613 -717.5826,73.9296 z"
         style="color:#000000;display:inline;overflow:visible;visibility:visible;fill:#800000;fill-opacity:1;fill-rule:evenodd;stroke:#de8787;stroke-width:0.12364889;stroke-linecap:butt;stroke-linejoin:miter;stroke-miterlimit:4;stroke-dasharray:none;stroke-dashoffset:0;stroke-opacity:1;marker:none;enable-background:accumulate"
         inkscape:connector-curvature="0" />
    </clipPath>
    <clipPath
       clipPathUnits="userSpaceOnUse"
       id="clipPath40548-1">
      <path
         clip-path="none"
         sodipodi:nodetypes="cssssscc"
         id="path40550-6"
         d="m 5837.0074,4189.5983 c -232.3794,0 -1025.2994,-160.9771 -1130.4349,-539.5586 -47.6067,-171.433 72.1839,-719.1642 378.8108,-929.3398 181.3922,-124.3353 450.6627,-4.1517 646.7025,-3.7288 209.4381,0.3844 800.1782,-62.6818 905.3963,50.9361 303.6759,327.9125 322.3795,740.3855 280.3707,898.2412 -18.8874,70.9753 -138.6593,307.4177 -305.946,429.1274 -224.7329,131.8101 -522.2594,70.5506 -774.8994,94.3225 z"
         style="color:#000000;display:inline;overflow:visible;visibility:visible;fill:#800000;fill-opacity:1;fill-rule:evenodd;stroke:none;stroke-width:0.12364834;marker:none;enable-background:accumulate"
         inkscape:connector-curvature="0" />
    </clipPath>
    <clipPath
       clipPathUnits="userSpaceOnUse"
       id="clipPath40557-2">
      <path
         inkscape:connector-curvature="0"
         style="color:#000000;display:inline;overflow:visible;visibility:visible;fill:#800000;fill-opacity:1;fill-rule:evenodd;stroke:none;stroke-width:0.12364834;marker:none;enable-background:accumulate"
         d="m 5893.6564,3384.2611 c -779.9871,67.7137 -949.7669,-112.6107 -1187.0839,-558.9059 -48.2164,-171.2542 72.1839,-719.1641 378.8108,-929.3398 181.3922,-124.3352 450.6627,-4.1516 646.7025,-3.7288 209.4381,0.3844 800.1782,-62.6817 905.3963,50.9362 303.6759,327.9125 322.3795,740.3854 280.3707,898.2411 -18.8874,70.9754 -138.6593,307.4178 -305.946,429.1275 -224.7329,131.81 -465.6105,89.8979 -718.2504,113.6697 z"
         id="path40559-7"
         sodipodi:nodetypes="ccsssscc"
         clip-path="none" />
    </clipPath>
    <clipPath
       clipPathUnits="userSpaceOnUse"
       id="clipPath47563">
      <path
         inkscape:connector-curvature="0"
         style="color:#000000;display:inline;overflow:visible;visibility:visible;fill:#800000;fill-opacity:1;fill-rule:evenodd;stroke:#de8787;stroke-width:0.12364834;stroke-linecap:butt;stroke-linejoin:miter;stroke-miterlimit:4;stroke-dasharray:none;stroke-dashoffset:0;stroke-opacity:1;marker:none;enable-background:accumulate"
         d="m 520.98439,144.27601 c 4.87681,-4.4733 8.68344,-0.84787 10.69852,-0.0131 -4.10822,2.38525 -9.29617,1.66346 -10.69852,0.0131 z"
         id="path47565"
         sodipodi:nodetypes="ccc"
         clip-path="none" />
    </clipPath>
  </defs>
  <path
     style="color:#000000;display:inline;overflow:visible;visibility:visible;fill:#800000;fill-opacity:1;fill-rule:evenodd;stroke:none;stroke-width:0.32081631;marker:none;enable-background:accumulate"
     d="m 276.42945,143.82727 c 1.07246,-2.04874 2.40766,-2.37338 4.32882,-2.49175 1.84994,-0.11403 3.15523,1.53997 4.42034,2.6728 -1.12895,1.19341 -1.9659,1.92273 -4.12418,1.54949 -4.5634,-0.78924 -3.25038,-1.41432 -4.62498,-1.73054 z"
     id="path47647"
     inkscape:connector-curvature="0"
     sodipodi:nodetypes="cscsc" />
  <path
     style="color:#000000;display:inline;overflow:visible;visibility:visible;fill:#e9afaf;fill-opacity:1;fill-rule:evenodd;stroke:none;stroke-width:0.32081631;marker:none;enable-background:accumulate"
     d="m 275.93707,144.33842 c 0.72378,0.0433 1.32813,1.01788 1.85499,1.43365 1.43998,1.13624 3.94119,1.32429 5.96361,0.22385 0.71579,-0.38943 1.09171,-1.46535 1.68704,-1.79583 -0.23166,-0.63631 -1.96406,-0.30219 -2.90819,0.26764 -1.58858,0.95881 -2.79237,0.50164 -3.37834,0.15019 -1.69442,-1.01651 -3.06761,-1.03316 -3.42277,-0.42273 z"
     id="path47649"
     inkscape:connector-curvature="0"
     sodipodi:nodetypes="csscsscc" />
  <path
     style="color:#000000;display:inline;overflow:visible;visibility:visible;fill:#de8787;fill-opacity:1;fill-rule:evenodd;stroke:none;stroke-width:0.32081631;marker:none;enable-background:accumulate"
     d="m 275.37814,144.41671 c 1.20292,0.3648 2.2547,-1.78472 2.99085,-2.33357 0.71084,-0.53004 1.73128,0.12213 2.49188,0.13387 0.7006,0.0114 1.41912,-0.50323 2.18385,-0.0297 1.18937,0.73656 1.52877,2.85666 3.1641,2.15535 -0.79793,-0.33561 -1.47723,-2.92166 -2.99922,-3.68878 -0.60613,-0.30516 -1.51855,0.2803 -2.3104,0.27004 -0.79182,-0.0114 -1.42646,-0.6703 -2.22962,-0.33412 -2.05163,0.85879 -2.35571,3.74715 -3.29144,3.82686 z"
     id="path47651"
     inkscape:connector-curvature="0"
     sodipodi:nodetypes="cssscssscc" />
</svg>
