<?xml version="1.0" encoding="UTF-8" standalone="no"?>
<svg xmlns="http://www.w3.org/2000/svg" width="560" height="560" id="mouth_anger">
  <path fill="maroon" fill-rule="evenodd" stroke="#de8787" stroke-width=".124" d="M552.91 154.833c-1.24 0-4.594-1.912-5.29-2.79-.577-.726.14-5.147 1.45-5.07 1.16.07 4.374.056 5.34-.34 1.092-.445 2.292-.29 2.937.21.92.71 1.044 2.65 1.094 3.347.03.382-.036 1.894-.93 2.528-1.063.756-3.867 2.115-4.6 2.115z" transform="translate(-272.062 -6.506)" clip-path="url(#a)" overflow="visible" color="#000"/>
  <path fill="#500" fill-rule="evenodd" d="M554.52 147.746c-.047.008-.08.024-.13.03-.224.027-.476.04-.743.04-.534-.003-1.138-.05-1.74-.086-.212-.013-.4 0-.61-.008-.877.784-1.097 2.226-1.097 3.184 0 1.362.14 4.5 1.57 3.138.817-.545 2.295.11 2.738.037 1.587-.257 1.28-.92 1.28-2.964 0-1.365-.376-2.654-1.268-3.37z" transform="translate(-272.062 -6.506)" clip-path="url(#c)" color="#000" overflow="visible"/>
  <path fill-rule="evenodd" stroke="#000" stroke-width=".124" d="M553.043 152.415c-2.768 0-3.137-.656-3.137-2.108 0-1.278 1.252-2.3 2.037-2.3.994 0 1.318.805.836 1.132-1.63 1.1 2.02 1.365 1.043.104-.48-.618.206-1.203.835-1.203.576 0 1.616.398 1.616 1.898s-1.248 2.546-3.233 2.475z" transform="translate(-272.062 -6.506)" clip-path="url(#e)" color="#000" overflow="visible"/>
  <path fill="#a02c2c" fill-rule="evenodd" stroke="#501616" stroke-width=".124" d="M553.315 151.226c-1.045-.125-4.17-2.034-5.116 1.152 0 .017.006.036.006.054 1.102 1.068 3.625 2.403 4.707 2.403.732 0 3.694-1.153 4.768-2.048-.39-3.917-3.574-1.466-4.366-1.56z" transform="translate(-272.062 -6.506)" clip-path="url(#g)" color="#000" overflow="visible"/>
  <path fill="#b85757" fill-rule="evenodd" d="M281.12 145.07c-3.61-2.21-4.632 1.616 0 1.36 4.632-.255 3.678-3.356 0-1.36z" clip-path="url(#i)" overflow="visible" color="#000"/>
  <path fill="#f2f2f2" stroke="#ccc" stroke-width=".237" d="M276.36 145.88c-.112.043-.098 0-.278.028-.042.007-.062.03-.094.043.2.167.462.344.737.53.062-.197.086-.39.078-.474.014-.097-.333-.167-.444-.125z" color="#000" overflow="visible"/>
  <path fill="#f2f2f2" stroke="#ccc" stroke-width=".237" d="M277 145.84c-.073 0-.14.015-.19.056-.196.167-.323.325-.43.58-.022.05-.03.113-.044.17.162.106.337.21.53.315.113-.084.24-.16.366-.2.197-.206.205-.558.235-.676.022-.088-.248-.243-.467-.244z" color="#000" overflow="visible"/>
  <path fill="#f2f2f2" stroke="#ccc" stroke-width=".237" d="M277.39 145.955c-.13.01-.403.335-.55.658-.043.094-.063.194-.074.293.213.12.437.237.677.352.097-.114.193-.234.3-.32.136-.207.155-.482.185-.58.03-.1-.098-.215-.127-.254-.03-.04-.284-.16-.41-.15z" color="#000" overflow="visible"/>
  <path fill="#f2f2f2" stroke="#ccc" stroke-width=".237" d="M278.468 147.35c-.157.004-.216.038-.363.39-.147.354-.334.354-.402.374-.07.02-.246-.03-.236-.118.01-.088-.06-.755.02-.942.078-.186.108-.57.255-.716.147-.147.245-.265.392-.255.147.01.49.402.48.45-.01.05.01.81-.146.816z" overflow="visible" color="#000"/>
  <path fill="#fff" d="M278.204 146.505c.038.034.06.083.02.107-.02.012-.056.057-.05.116.005.035-.042.22-.075.26-.053.066-.08-.052-.034-.11.046-.06.072-.106.066-.126-.007-.02-.013-.046.02-.104.032-.06.034-.083.014-.103-.02-.02 0-.076.04-.04zm-.296.86s.074 0 .102-.028c.028-.028 0-.12 0-.12s.02-.066-.018-.084c-.037-.02-.093.01-.084.055.01.047.047.093 0 .176z" overflow="visible" color="#000"/>
  <path fill="#f2f2f2" stroke="#ccc" stroke-width=".237" d="M279.547 147.388c.078-.235.088-.98-.108-.942-.05-.05-.13-.06-.187-.05-.06-.067-.206-.038-.206-.038s-.373-.07-.462-.03c-.088.04-.068.275-.088.373-.02.1.098.874.118 1.06.02.187.382.472.55.138.166-.333.274-.422.382-.51zm.97.08c.077.036.24.234.288.31.05.076.31.143.47-.07.154-.207.186-.392.207-.468.02-.076.062-.146.07-.284.006-.14.034-.444.04-.472.008-.028-.027-.07-.04-.083-.015-.013.013-.074-.043-.103-.058-.03-.116-.006-.192-.013-.076-.007-.186-.003-.234-.03-.065-.036-.223-.018-.284-.03-.06-.014-.215-.043-.257-.016-.042.028-.053.023-.068.198-.014.174.042.827.042 1.063z" overflow="visible" color="#000"/>
  <path fill="#fff" d="M281.068 147.24c.015-.08-.023-.195-.023-.246 0-.05.042-.144.055-.176-.027-.005-.055.037-.078.064-.02-.032-.028-.092-.024-.143-.027.022-.088.096-.074.124.014.028.042.097.033.11-.01.015-.01.02.014.066s.07.146.07.222c0 .07.042.116.065.153-.037-.065-.046-.127-.037-.176z" overflow="visible" color="#000"/>
  <path fill="#f2f2f2" stroke="#ccc" stroke-width=".237" d="M280.543 147.47c-.077.034-.18.408-.23.485-.048.076-.422.145-.547-.09-.125-.236-.167-.55-.188-.625-.02-.076-.062-.146-.07-.284-.006-.14-.034-.444-.04-.472-.008-.028.027-.07.04-.083.015-.013-.013-.055.043-.082.056-.028.112-.02.18-.02.07 0 .258.02.306.02.05 0 .11.007.167 0 .055-.007.194-.05.235-.02.042.026.05.026.077.186.028.16.028.75.028.985z" overflow="visible" color="#000"/>
  <path fill="#fff" d="M280.215 147.06c-.005-.1-.013-.187.014-.205.027-.02.046-.05.046-.074 0-.023 0-.11.014-.13.013-.018.032-.1.055-.138-.023.01-.065.014-.065.014-.005.037-.014.06-.028.083-.013.022-.046.194-.05.217.018-.11.04-.227.055-.26-.018.033-.018.038-.042.056-.014.06-.05.27-.06.292-.01.023.005.162 0 .19.023-.02.037-.042.06-.046zm-.367.027v-.125c-.04-.092-.046-.223.02-.262-.007-.013-.053-.052-.046-.085-.06.02-.06.046-.052.072.007.026-.02.007-.014.072.007.064-.007.117.092.327zm.118-.217c.007-.118.026-.288.08-.295-.073-.026-.047-.09.038-.117-.092-.007-.13 0-.15.032-.02.033 0 .086-.014.1-.013.012.007.05.06.05-.027.047-.034.093-.06.14.026.05.02.018.046.09z" overflow="visible" color="#000"/>
  <path fill="#f2f2f2" stroke="#ccc" stroke-width=".237" d="M284.96 145.883c-.054.005-.115.016-.175.01-.178-.02-.462.114-.443.19.03.117.042.458.228.665.313-.178.608-.35.823-.5-.09-.136-.197-.258-.295-.342-.034-.03-.082-.03-.137-.023z" color="#000" overflow="visible"/>
  <path fill="#fff" d="M285.188 146.883c.033-.11.007-.222-.066-.294.033.136.06.22.066.293z" overflow="visible" color="#000"/>
  <path fill="#f2f2f2" stroke="#ccc" stroke-width=".237" d="M284.31 145.955c-.13-.01-.314.217-.363.227-.048.01-.177.058-.177.175 0 .103 0 .472.138.678.017.014.028.032.043.047.337-.175.613-.332.89-.498-.15-.313-.408-.62-.53-.63z" color="#000" overflow="visible"/>
  <path fill="#fff" d="M284.31 146.916c.033.08.13.262.118.36-.013.1-.164-.137-.203-.203-.04-.065-.105 0-.125-.04-.02-.038-.137-.287-.17-.313-.033-.027-.066-.066-.013-.092-.033-.11.072-.072.072.02 0 .09.104.28.143.288.04.007.02-.04.177-.02zm.328.21c-.02-.092-.086-.23-.118-.282.04.13.007.138.118.282z" overflow="visible" color="#000"/>
  <g stroke="#ccc" stroke-width="47.472" color="#000">
    <path fill="#f2f2f2" stroke-width=".23736000000000002" d="M282.82 147.368c.175.094.176.128.323.48.147.354.45.246.52.266.068.02.21-.033.235-.118.04-.127.046-.81.01-1.01-.06-.324-.032-.54-.216-.638-.146-.077-.265-.272-.386-.31-.083-.025-.182.07-.242.075-.147.01-.314.323-.382.392-.036.035-.002.79.137.863z" overflow="visible"/>
    <path fill="#fff" stroke="none" stroke-width=".23736000000000002" d="M283.092 146.572c-.013-.037-.036-.028-.04.02-.006.043.065.32.14.45.072.12.083.26.09.322.007.053.05.042.042 0-.014-.064-.046-.32-.08-.352-.03-.032-.1-.185-.152-.44z" overflow="visible"/>
  </g>
  <g stroke="#ccc" stroke-width="47.472" color="#000">
    <path fill="#f2f2f2" stroke-width=".23736000000000002" d="M281.526 147.102c.03-.383-.062-.76.07-.727.006-.03.04-.078.11-.068.09.013.2 0 .24.007.07-.063.237-.02.237-.02s.403-.03.49.016c.088.045.057.275.064.375.007.1-.075.82-.106 1.006-.063.394-.568.547-.734.208-.167-.34-.262-.702-.37-.796z" overflow="visible"/>
    <path fill="#fff" stroke="none" stroke-width=".23736000000000002" d="M281.763 146.68c-.046-.224-.01-.316.148-.26-.064.046-.147.222-.147.26z" overflow="visible"/>
  </g>
  <path fill="#f2f2f2" stroke="#ccc" stroke-width=".237" d="M276.436 140.79c-.14.164-.26.398-.372.66.013.022.027.082.038.087.072.036.296-.12.43-.193.103-.057.012-.33-.096-.555zM285.396 140.45c-.168.204-.21.72-.072.786.15.073.383.337.465.3.04-.017.106-.117.144-.167.006-.007.01-.02.015-.028-.135-.35-.315-.662-.554-.89z" color="#000" overflow="visible"/>
  <path fill="#f2f2f2" stroke="#ccc" stroke-width=".237" d="M285.115 140.23c-.094.11-.195.218-.256.247-.155.246-.29.94-.12 1.02.078.04.183.15.242.19.068.042.2.028.282.01.088-.02.13-.142.148-.187.038-.094.114-.582.13-.692.004-.038-.016-.15-.024-.242-.074-.087-.146-.173-.233-.24-.05-.04-.112-.072-.17-.107zm-8.34.278c-.19.078-.364.273-.52.533.034.186.128.61.2.646.082.04.384-.028.535-.11.15-.082-.056-.794-.193-1.04-.007-.013-.015-.017-.022-.028z" color="#000" overflow="visible"/>
  <path fill="#fff" d="M276.625 140.412c-.053.124-.013.28.052.498-.026-.25.007-.42-.052-.498z" overflow="visible" color="#000"/>
  <path fill="#f2f2f2" stroke="#ccc" stroke-width=".237" d="M277.008 140.47c-.11-.008-.213.03-.313.09.01.148.012.305.034.426.067.384.164.824.356.852.192.027.384-.11.494-.22.11-.11.123-.15.26-.18.137-.026-.014-.697-.07-.82-.095-.012-.164-.068-.223-.136-.178-.005-.408-.006-.54-.013z" color="#000" overflow="visible"/>
  <path fill="#fff" d="M277.026 140.086c.235.206.304.726.372.854.07.127.216.127.255.088-.107.186-.245.255-.264.206-.02-.05-.14-.284-.178-.412-.04-.128-.06-.51-.186-.736z" overflow="visible" color="#000"/>
  <path fill="#f2f2f2" stroke="#ccc" stroke-width=".237" d="M279.02 140.466c-.07-.07-.453-.398-.618-.603-.116-.146-.356-.33-.576.054-.22.384-.247 1.344-.137 1.523.11.178.19.15.287.15.07.096.096.07.178.055.15.11.412-.027.44-.04.027-.015.15.013.328-.124.18-.136.192-.082.096-1.014z" overflow="visible" color="#000"/>
  <path fill="#fff" d="M278.772 141.244c-.02.265-.06.098-.118-.02-.06-.117-.118-.45-.167-.56.07.178.148.344.197.354.04.09.058.167.088.226z" overflow="visible" color="#000"/>
  <path fill="#f2f2f2" stroke="#ccc" stroke-width=".237" d="M283.702 140.658c.236-.082.275-.384.383-.55.108-.163.51-.548.634-.397.034.043.112.096.147.213.09.298.12.803.063 1.078-.077.385-.095.622-.18.823-.063.153-.115.198-.277.17-.14-.026-.343-.12-.46-.232-.135-.13-.167-.167-.292-.265-.122-.097-.08-.713-.018-.837z" overflow="visible" color="#000"/>
  <path fill="#fff" d="M284.44 140.15c-.05.104-.09.21-.104.353-.026-.25-.026-.262.105-.353zm-.13.406c.04.157.026.314 0 .393-.026.077-.17.34-.183.51-.04-.092-.08-.13-.08-.13l.08-.185-.118.17-.093-.104c.157-.065.21-.17.21-.222 0-.052.013-.118.065-.17-.04.092 0 .21-.052.3.104-.117.13-.17.118-.222-.014-.052-.04-.09 0-.13.04-.04.052-.145.052-.21zm.236.688c.007.105-.06.183-.053.242.007.06-.04.053-.04.026 0-.026-.032-.046.008-.09.04-.047.06-.152.086-.178z" overflow="visible" color="#000"/>
  <g stroke="#ccc" stroke-width="47.472" color="#000">
    <path fill="#f2f2f2" stroke-width=".23736000000000002" d="M282.42 140.55c.25-.236.28-.347.465-.553.13-.146.466-.34.755.198.064.12.075.25.11.383.082.305.063.61.044.765-.026.215-.063.172-.17.26-.096.08-.36.112-.55.084-.1.054-.214.02-.354 0-.103-.013-.26-.02-.274-.262-.033-.456-.057-.723-.025-.876z" overflow="visible"/>
    <path fill="#fff" stroke="none" stroke-width=".23736000000000002" d="M282.882 140.608s-.144.485-.144.524c0 .04-.033.118-.033.144 0 .027 0 .08-.033.145.02-.09.013-.183.02-.23.006-.045.032-.117.046-.162.013-.046-.007-.053.013-.086.02-.032.03-.06.048-.1.02-.04.057-.188.084-.234z" overflow="visible"/>
  </g>
  <g stroke="#ccc" stroke-width="47.472" color="#000">
    <path fill="#f2f2f2" stroke-width=".23736000000000002" d="M282.158 139.982c.125.11.306.862.292 1.27 0 .045.005.45-.247.47-.078.116-.23.073-.383.087-.284.026-.624.008-.862-.023-.093-.012-.25.037-.248-.067 0 0-.066-.014-.065-.067.005-.166.08-.924.112-1.07.18-.817.823-1.106 1.4-.6z" overflow="visible"/>
    <path fill="#fff" stroke="none" stroke-width=".23736000000000002" d="M281.97 141.578c.014-.085-.02-.36-.02-.433 0-.072-.077.073-.09.112-.014.04.013.4.013.4s.065-.06.098-.08zm-.864-.557l.066-.314s-.033-.065-.013-.255c-.028.132-.034.178-.067.224.013.072.02.25.013.347z" overflow="visible"/>
  </g>
  <path fill="#f2f2f2" stroke="#ccc" stroke-width=".237" d="M280.525 140.412c-.487.036-.962.063-1.464.072-.08.448-.11.94-.11 1.037 0 .166.333.377.905.25.316.013.823.026.81-.22-.01-.168-.014-.823-.07-.96l-.07-.178z" color="#000" overflow="visible"/>
  <path fill="#fff" d="M280.155 140.44c.06.176.06.294.07.56-.08-.266-.158-.315-.07-.56zm-.902.156c0 .098.068.226.117.285-.01.12-.01.177.04.246-.04.03 0 .098.02.137.02.04.058.108.097.177-.118-.088-.196-.167-.196-.167s-.02-.04.02-.068c-.02-.03-.03-.04-.01-.08.01-.038-.01-.107-.03-.146-.018-.04.01-.07-.01-.11-.018-.038-.048-.117-.048-.146 0-.03.02-.07 0-.128zm.556-.224c.012.334.064 1.147.077 1.232.014.085-.117.02-.124-.033-.007-.05-.072-.34-.052-.398.02-.06.053-.197.033-.256-.02-.06.046-.144.033-.183-.013-.04-.04-.06-.026-.105.013-.046.033-.157.02-.184-.014-.026.026-.046.04-.072z" overflow="visible" color="#000"/>
  <path fill="#e9afaf" d="M275.558 145.632c.154.758 1.426 3.82 5.573 3.82 4.15 0 4.294-3.015 4.92-3.973-2.823 1.063-2.923 2.56-5.17 2.56-3.036 0-4.545-3.217-5.408-2.582z"/>
  <path fill="#de8787" d="M284.345 140.762c-1.206-.27-2.77.082-3.963.082-1 0-2.94-.495-3.82.072-.49.316-1.082 3.622-1.09 4.624-.553-1.334-.215-4.566 1.163-5.67 1.504-1.206 2.03-.13 3.85-.13 1.82 0 3.38-1.275 4.933.393 1.017 1.09 1.46 3.763.55 5.58.686-2.543-.318-4.66-1.623-4.95z"/>
</svg>
