<?xml version="1.0" encoding="UTF-8" standalone="no"?>
<svg xmlns="http://www.w3.org/2000/svg" id="mouth_cruel" width="560" height="560">
  <g id="g67410" style="display:inline;enable-background:new">
    <path id="path67412" d="m 520.02685,2555.5616 c 4.86607,-0.9913 12.01002,-0.1976 14.14368,-0.1973 -2.19721,2.1577 -5.27053,3.4991 -7.45997,3.4374 -2.36253,-0.1893 -4.7956,-1.0169 -6.68371,-3.2401 z" style="color:#000000;display:inline;overflow:visible;visibility:visible;fill:#f9f9f9;fill-opacity:1;fill-rule:evenodd;stroke:none;stroke-width:0.32081631;marker:none;enable-background:accumulate" transform="translate(-246.26492,-2413.7841)"/>
    <path id="path67414" d="m 522.89001,2558.8018 c 2.19515,1.0358 5.4312,0.7913 6.99605,0.3691 1.81212,-0.4889 3.27889,-2.1933 4.51282,-4.1041 -1.17718,0.8988 -2.53146,2.1408 -3.94162,2.6994 -0.98139,0.3888 -6.1665,0.3563 -6.81578,0.1434 -1.52538,-0.5002 -2.26084,-1.4546 -3.86108,-2.607 0.88642,1.3423 1.95143,2.9394 3.10961,3.4992 z" style="color:#000000;display:inline;overflow:visible;visibility:visible;fill:#e9afaf;fill-opacity:1;fill-rule:evenodd;stroke:none;stroke-width:0.32081631;marker:none;enable-background:accumulate" transform="translate(-246.26492,-2413.7841)"/>
    <g id="g67416" transform="translate(-246.26492,-2413.7841) matrix(0.72960373,0,0,0.72960373,141.79516,690.69785)" style="display:inline;enable-background:new" clip-path="url(#clipPath60705-4-0)">
      <path id="path67418" d="m 521.76641,2557.1127 c -0.55253,0.1466 -1.12783,-0.056 -1.26226,-0.4602 -7.27439,-1.6249 13.98588,-1.0766 16.57893,-0.9545 0.16815,0.3508 -1.48545,1.3316 -2.74418,1.2344 0.0523,0.1839 -0.71847,0.545 -1.30701,0.3671 -0.53383,0.2659 -1.09774,0 -1.37198,-0.075 -0.0457,0.2256 -0.85046,0.4627 -1.40055,0.2334 -0.31791,0.3064 -2.22673,0.3316 -2.62217,0.064 -0.7905,0.1939 -2.24105,0.095 -2.62394,-0.2115 -0.27516,0.077 -1.32875,0.1144 -1.6906,-0.139 -0.50785,0.2145 -1.21217,0.1461 -1.55624,-0.059 z" style="display:inline;overflow:visible;visibility:visible;fill:none;stroke:#cccccc;stroke-width:0.25;stroke-linecap:butt;stroke-linejoin:miter;stroke-miterlimit:4;stroke-dasharray:none;stroke-dashoffset:0;stroke-opacity:1;marker:none;enable-background:accumulate"/>
    </g>
    <path id="upperlip" d="m 524.61473,2555.3216 c 0.47657,-0.035 1.75046,0.1365 2.51107,0.1483 0.70059,0.011 1.4635,-0.1656 2.18385,-0.03 1.8673,0.3516 4.66893,0.3551 5.27771,-0.5577 -1.06522,0.62 -3.85179,0.04 -5.1089,-0.4479 -0.65069,-0.2526 -1.52249,0.2836 -2.31434,0.2733 -0.79181,-0.011 -1.81494,-0.4744 -2.63508,-0.182 -1.62227,0.5784 -3.99476,1.27 -5.45854,0.3789 1.67444,1.5384 4.4431,0.5015 5.54423,0.4171 z" style="color:#000000;display:inline;overflow:visible;visibility:visible;fill:#de8787;fill-opacity:1;fill-rule:evenodd;stroke:none;stroke-width:0.32081631;marker:none;enable-background:accumulate" transform="translate(-246.26492,-2413.7841)"/>
  </g>
  <path id="path67844" d="m 272.45206,139.51184 c -0.91039,1.11241 -0.95814,2.28889 -0.005,3.86113 -0.48166,-1.81462 -0.42498,-3.05208 0.005,-3.86113 z" style="color:#000000;display:inline;overflow:visible;visibility:visible;fill:#e9afaf;fill-opacity:1;stroke:none;stroke-width:0.5;marker:none;enable-background:accumulate"/>
  <path id="path67846" d="m 288.70507,139.4715 c 1.01964,1.01321 1.18774,2.17859 0.40076,3.84027 0.29309,-1.85443 0.10985,-3.07956 -0.40076,-3.84027 z" style="color:#000000;display:inline;overflow:visible;visibility:visible;fill:#e9afaf;fill-opacity:1;stroke:none;stroke-width:0.5;marker:none;enable-background:accumulate"/>
</svg>
