<?xml version="1.0" encoding="UTF-8" standalone="no"?>
<svg xmlns="http://www.w3.org/2000/svg" id="eyes_neutral" width="560" height="560">
  <defs id="defs33019">
    <clipPath id="clipPath17580">
      <path id="path17582" d="m 537.94192,127.97425 c -0.24161,0.59472 -1.61691,2.45324 -5.53838,0.8735 -0.59472,0.0558 -1.56115,0.14868 -1.59832,0.1301 -0.0372,-0.0186 -0.0929,-0.1301 -0.0186,-0.18585 0.0743,-0.0558 0.39028,-0.39029 0.92925,-0.52039 0.53897,-0.13009 1.85852,-1.747 3.10372,-1.747 1.2452,0 2.84353,0.96643 3.12231,1.44964 z" style="color:#000000;fill:none;stroke:#008080;stroke-width:0.02662179;stroke-linecap:butt;stroke-linejoin:miter;stroke-miterlimit:4;stroke-opacity:1;stroke-dasharray:none;stroke-dashoffset:0;marker:none;visibility:visible;display:inline;overflow:visible;enable-background:accumulate"/>
    </clipPath>
    <clipPath id="clipPath17632">
      <path id="path17634" d="m 515.63686,127.97425 c 0.24161,0.59472 1.61691,2.45324 5.53838,0.8735 0.59472,0.0558 1.56115,0.14868 1.59832,0.1301 0.0372,-0.0186 0.0929,-0.1301 0.0186,-0.18585 -0.0743,-0.0558 -0.39028,-0.39029 -0.92925,-0.52039 -0.53897,-0.13009 -1.85852,-1.747 -3.10372,-1.747 -1.24521,0 -2.84353,0.96643 -3.12231,1.44964 z" style="color:#000000;fill:#e6e6e6;stroke:#de8787;stroke-width:0.02662179;stroke-linecap:butt;stroke-linejoin:miter;stroke-miterlimit:4;stroke-opacity:1;stroke-dasharray:none;stroke-dashoffset:0;marker:none;visibility:visible;display:inline;overflow:visible;enable-background:accumulate"/>
    </clipPath>
    <clipPath id="clipPath95568">
      <path id="path95570" d="m 552.90935,154.83331 c -1.23871,0 -4.52418,-1.37629 -5.22058,-2.2536 -0.57653,-0.72632 0.0706,-5.68377 1.38117,-5.60619 1.16133,0.0687 2.66765,0.29644 3.71213,0.32956 2.00916,0.0637 3.91961,-0.9584 4.5652,-0.46119 0.9211,0.7094 1.04374,2.65122 1.0939,3.34793 0.0275,0.38176 -0.038,1.89447 -0.92973,2.5277 -1.06564,0.75677 -3.86932,2.11579 -4.60209,2.11579 z" style="color:#000000;display:inline;overflow:visible;visibility:visible;fill:none;stroke:#de8787;stroke-width:0.12364889;stroke-linecap:butt;stroke-linejoin:miter;stroke-miterlimit:4;stroke-dasharray:none;stroke-dashoffset:0;stroke-opacity:1;marker:none;enable-background:accumulate"/>
    </clipPath>
    <clipPath id="clipPath95564">
      <path id="path95566" d="m 558.82317,149.32734 c -1.23871,0 -4.52418,-1.37629 -5.22058,-2.2536 -0.57653,-0.72632 0.0706,-5.68377 1.38117,-5.60619 1.16133,0.0687 2.66765,0.29644 3.71213,0.32956 2.00916,0.0637 3.91961,-0.9584 4.5652,-0.46119 0.9211,0.7094 1.04374,2.65122 1.0939,3.34793 0.0275,0.38176 -0.038,1.89447 -0.92973,2.5277 -1.06564,0.75677 -3.86932,2.11579 -4.60209,2.11579 z" style="color:#000000;display:inline;overflow:visible;visibility:visible;fill:none;stroke:#de8787;stroke-width:0.12364889;stroke-linecap:butt;stroke-linejoin:miter;stroke-miterlimit:4;stroke-dasharray:none;stroke-dashoffset:0;stroke-opacity:1;marker:none;enable-background:accumulate"/>
    </clipPath>
    <clipPath id="clipPath95560">
      <path id="path95562" d="m 552.90935,154.83331 c -1.23871,0 -4.52418,-1.37629 -5.22058,-2.2536 -0.57653,-0.72632 0.0706,-5.68377 1.38117,-5.60619 1.16133,0.0687 2.66765,0.29644 3.71213,0.32956 2.00916,0.0637 3.91961,-0.9584 4.5652,-0.46119 0.9211,0.7094 1.04374,2.65122 1.0939,3.34793 0.0275,0.38176 -0.038,1.89447 -0.92973,2.5277 -1.06564,0.75677 -3.86932,2.11579 -4.60209,2.11579 z" style="color:#000000;display:inline;overflow:visible;visibility:visible;fill:none;stroke:#de8787;stroke-width:0.12364889;stroke-linecap:butt;stroke-linejoin:miter;stroke-miterlimit:4;stroke-dasharray:none;stroke-dashoffset:0;stroke-opacity:1;marker:none;enable-background:accumulate"/>
    </clipPath>
    <clipPath id="clipPath95556">
      <path id="path95558" d="m 558.82317,149.32734 c -1.23871,0 -4.52418,-1.37629 -5.22058,-2.2536 -0.57653,-0.72632 0.0706,-5.68377 1.38117,-5.60619 1.16133,0.0687 2.66765,0.29644 3.71213,0.32956 2.00916,0.0637 3.91961,-0.9584 4.5652,-0.46119 0.9211,0.7094 1.04374,2.65122 1.0939,3.34793 0.0275,0.38176 -0.038,1.89447 -0.92973,2.5277 -1.06564,0.75677 -3.86932,2.11579 -4.60209,2.11579 z" style="color:#000000;display:inline;overflow:visible;visibility:visible;fill:none;stroke:#de8787;stroke-width:0.12364889;stroke-linecap:butt;stroke-linejoin:miter;stroke-miterlimit:4;stroke-dasharray:none;stroke-dashoffset:0;stroke-opacity:1;marker:none;enable-background:accumulate"/>
    </clipPath>
    <clipPath id="clipPath95552">
      <path id="path95554" d="m 552.90935,154.83331 c -1.23871,0 -4.52418,-1.37629 -5.22058,-2.2536 -0.57653,-0.72632 0.0706,-5.68377 1.38117,-5.60619 1.16133,0.0687 2.66765,0.29644 3.71213,0.32956 2.00916,0.0637 3.91961,-0.9584 4.5652,-0.46119 0.9211,0.7094 1.04374,2.65122 1.0939,3.34793 0.0275,0.38176 -0.038,1.89447 -0.92973,2.5277 -1.06564,0.75677 -3.86932,2.11579 -4.60209,2.11579 z" style="color:#000000;display:inline;overflow:visible;visibility:visible;fill:none;stroke:#de8787;stroke-width:0.12364889;stroke-linecap:butt;stroke-linejoin:miter;stroke-miterlimit:4;stroke-dasharray:none;stroke-dashoffset:0;stroke-opacity:1;marker:none;enable-background:accumulate"/>
    </clipPath>
    <clipPath id="clipPath95548">
      <path id="path95550" d="m 558.82317,149.32734 c -1.23871,0 -4.52418,-1.37629 -5.22058,-2.2536 -0.57653,-0.72632 0.0706,-5.68377 1.38117,-5.60619 1.16133,0.0687 2.66765,0.29644 3.71213,0.32956 2.00916,0.0637 3.91961,-0.9584 4.5652,-0.46119 0.9211,0.7094 1.04374,2.65122 1.0939,3.34793 0.0275,0.38176 -0.038,1.89447 -0.92973,2.5277 -1.06564,0.75677 -3.86932,2.11579 -4.60209,2.11579 z" style="color:#000000;display:inline;overflow:visible;visibility:visible;fill:none;stroke:#de8787;stroke-width:0.12364889;stroke-linecap:butt;stroke-linejoin:miter;stroke-miterlimit:4;stroke-dasharray:none;stroke-dashoffset:0;stroke-opacity:1;marker:none;enable-background:accumulate"/>
    </clipPath>
    <clipPath id="clipPath95544">
      <path id="path95546" d="m 552.90935,154.83331 c -1.23871,0 -4.52418,-1.37629 -5.22058,-2.2536 -0.57653,-0.72632 0.0706,-5.68377 1.38117,-5.60619 1.16133,0.0687 2.66765,0.29644 3.71213,0.32956 2.00916,0.0637 3.91961,-0.9584 4.5652,-0.46119 0.9211,0.7094 1.04374,2.65122 1.0939,3.34793 0.0275,0.38176 -0.038,1.89447 -0.92973,2.5277 -1.06564,0.75677 -3.86932,2.11579 -4.60209,2.11579 z" style="color:#000000;display:inline;overflow:visible;visibility:visible;fill:none;stroke:#de8787;stroke-width:0.12364889;stroke-linecap:butt;stroke-linejoin:miter;stroke-miterlimit:4;stroke-dasharray:none;stroke-dashoffset:0;stroke-opacity:1;marker:none;enable-background:accumulate"/>
    </clipPath>
    <clipPath id="clipPath95540">
      <path id="path95542" d="m 558.82317,149.32734 c -1.23871,0 -4.52418,-1.37629 -5.22058,-2.2536 -0.57653,-0.72632 0.0706,-5.68377 1.38117,-5.60619 1.16133,0.0687 2.66765,0.29644 3.71213,0.32956 2.00916,0.0637 3.91961,-0.9584 4.5652,-0.46119 0.9211,0.7094 1.04374,2.65122 1.0939,3.34793 0.0275,0.38176 -0.038,1.89447 -0.92973,2.5277 -1.06564,0.75677 -3.86932,2.11579 -4.60209,2.11579 z" style="color:#000000;display:inline;overflow:visible;visibility:visible;fill:none;stroke:#de8787;stroke-width:0.12364889;stroke-linecap:butt;stroke-linejoin:miter;stroke-miterlimit:4;stroke-dasharray:none;stroke-dashoffset:0;stroke-opacity:1;marker:none;enable-background:accumulate"/>
    </clipPath>
    <clipPath id="clipPath95536">
      <path id="path95538" d="m 552.90935,154.83331 c -1.23871,0 -4.52418,-1.37629 -5.22058,-2.2536 -0.57653,-0.72632 0.0706,-5.68377 1.38117,-5.60619 1.16133,0.0687 2.66765,0.29644 3.71213,0.32956 2.00916,0.0637 3.91961,-0.9584 4.5652,-0.46119 0.9211,0.7094 1.04374,2.65122 1.0939,3.34793 0.0275,0.38176 -0.038,1.89447 -0.92973,2.5277 -1.06564,0.75677 -3.86932,2.11579 -4.60209,2.11579 z" style="color:#000000;display:inline;overflow:visible;visibility:visible;fill:none;stroke:#de8787;stroke-width:0.12364889;stroke-linecap:butt;stroke-linejoin:miter;stroke-miterlimit:4;stroke-dasharray:none;stroke-dashoffset:0;stroke-opacity:1;marker:none;enable-background:accumulate"/>
    </clipPath>
    <clipPath id="clipPath95532">
      <path id="path95534" d="m 558.82317,149.32734 c -1.23871,0 -4.52418,-1.37629 -5.22058,-2.2536 -0.57653,-0.72632 0.0706,-5.68377 1.38117,-5.60619 1.16133,0.0687 2.66765,0.29644 3.71213,0.32956 2.00916,0.0637 3.91961,-0.9584 4.5652,-0.46119 0.9211,0.7094 1.04374,2.65122 1.0939,3.34793 0.0275,0.38176 -0.038,1.89447 -0.92973,2.5277 -1.06564,0.75677 -3.86932,2.11579 -4.60209,2.11579 z" style="color:#000000;display:inline;overflow:visible;visibility:visible;fill:none;stroke:#de8787;stroke-width:0.12364889;stroke-linecap:butt;stroke-linejoin:miter;stroke-miterlimit:4;stroke-dasharray:none;stroke-dashoffset:0;stroke-opacity:1;marker:none;enable-background:accumulate"/>
    </clipPath>
    <clipPath id="clipPath95528">
      <path id="path95530" d="m 5837.0056,3364.9138 c -232.3794,0 -848.7267,-264.5292 -979.3699,-433.1522 -108.1558,-139.602 13.2444,-1092.4465 259.1046,-1077.5353 217.8631,13.2044 500.4455,56.9771 696.3878,63.3429 376.9142,12.2435 735.3106,-184.2088 856.4219,-88.6428 172.7965,136.3499 195.8035,509.5766 205.2134,643.4874 5.1589,73.3761 -7.1287,364.1258 -174.4154,485.8355 -199.9118,145.4547 -725.8763,406.6645 -863.3424,406.6645 z" style="color:#000000;display:inline;overflow:visible;visibility:visible;fill:none;stroke:#de8787;stroke-width:0.12364889;stroke-linecap:butt;stroke-linejoin:miter;stroke-miterlimit:4;stroke-dasharray:none;stroke-dashoffset:0;stroke-opacity:1;marker:none;enable-background:accumulate"/>
    </clipPath>
    <clipPath id="clipPath95524">
      <path id="path95526" d="m 558.82317,149.32734 c -1.23871,0 -4.52418,-1.37629 -5.22058,-2.2536 -0.57653,-0.72632 0.0706,-5.68377 1.38117,-5.60619 1.16133,0.0687 2.66765,0.29644 3.71213,0.32956 2.00916,0.0637 3.91961,-0.9584 4.5652,-0.46119 0.9211,0.7094 1.04374,2.65122 1.0939,3.34793 0.0275,0.38176 -0.038,1.89447 -0.92973,2.5277 -1.06564,0.75677 -3.86932,2.11579 -4.60209,2.11579 z" style="color:#000000;display:inline;overflow:visible;visibility:visible;fill:none;stroke:#de8787;stroke-width:0.12364889;stroke-linecap:butt;stroke-linejoin:miter;stroke-miterlimit:4;stroke-dasharray:none;stroke-dashoffset:0;stroke-opacity:1;marker:none;enable-background:accumulate"/>
    </clipPath>
    <clipPath id="clipPath99972">
      <path id="path99974" d="m 5837.0056,4189.5983 c -232.3794,0 -848.7267,-264.5293 -979.3699,-433.1522 -108.1558,-139.6021 13.2444,-1092.4466 259.1046,-1077.5354 217.8631,13.2045 500.4455,56.9772 696.3878,63.343 376.9142,12.2434 735.3106,-184.2089 856.4219,-88.6428 172.7965,136.3499 195.8035,509.5765 205.2134,643.4874 5.1589,73.376 -7.1287,364.1258 -174.4154,485.8355 -199.9118,145.4546 -725.8763,406.6645 -863.3424,406.6645 z" style="color:#000000;display:inline;overflow:visible;visibility:visible;fill:none;stroke:#de8787;stroke-width:0.12364889;stroke-linecap:butt;stroke-linejoin:miter;stroke-miterlimit:4;stroke-dasharray:none;stroke-dashoffset:0;stroke-opacity:1;marker:none;enable-background:accumulate"/>
    </clipPath>
    <clipPath id="clipPath35775">
      <path id="path35777" d="m 5837.0056,4189.5983 c -232.3644,2.6524 -1019.8141,-189.4061 -1150.4573,-358.0291 30.344,-339.9311 184.3318,-1167.5697 430.192,-1152.6585 217.8631,13.2045 820.4819,10.7058 1001.951,-65.2822 204.7631,-85.7444 364.5703,44.5818 485.6816,140.1478 172.7946,136.35 260.9787,409.4111 270.3886,543.322 5.159,73.376 62.0011,346.418 90.5817,479.9329 -199.91,145.4546 -610.6575,406.6645 -1128.3376,412.5671 z" style="color:#000000;display:inline;overflow:visible;visibility:visible;fill:#800000;fill-opacity:1;fill-rule:evenodd;stroke:none;stroke-width:0.12364834;marker:none;enable-background:accumulate"/>
    </clipPath>
    <clipPath id="clipPath35779">
      <path id="path35781" d="m 5837.0056,3364.9138 c -232.3644,2.6524 -1019.8141,-189.406 -1150.4573,-358.029 30.344,-339.9311 184.3318,-1167.5697 430.192,-1152.6585 217.8631,13.2044 820.4819,10.7058 1001.951,-65.2823 204.7631,-85.7444 364.5703,44.5819 485.6816,140.1479 172.7946,136.3499 260.9787,409.4111 270.3886,543.3219 5.159,73.3761 62.0011,346.418 90.5817,479.9329 -199.91,145.4547 -610.6575,406.6645 -1128.3376,412.5671 z" style="color:#000000;display:inline;overflow:visible;visibility:visible;fill:#800000;fill-opacity:1;fill-rule:evenodd;stroke:none;stroke-width:0.12364834;marker:none;enable-background:accumulate"/>
    </clipPath>
    <clipPath id="clipPath95536-0">
      <path id="path95538-5" d="m 552.90935,154.83331 c -1.23871,0 -4.52418,-1.37629 -5.22058,-2.2536 -0.57653,-0.72632 0.0706,-5.68377 1.38117,-5.60619 1.16133,0.0687 2.66765,0.29644 3.71213,0.32956 2.00916,0.0637 3.91961,-0.9584 4.5652,-0.46119 0.9211,0.7094 1.04374,2.65122 1.0939,3.34793 0.0275,0.38176 -0.038,1.89447 -0.92973,2.5277 -1.06564,0.75677 -3.86932,2.11579 -4.60209,2.11579 z" style="color:#000000;display:inline;overflow:visible;visibility:visible;fill:none;stroke:#de8787;stroke-width:0.12364889;stroke-linecap:butt;stroke-linejoin:miter;stroke-miterlimit:4;stroke-dasharray:none;stroke-dashoffset:0;stroke-opacity:1;marker:none;enable-background:accumulate"/>
    </clipPath>
    <clipPath id="clipPath95544-5">
      <path id="path95546-9" d="m 552.90935,154.83331 c -1.23871,0 -4.52418,-1.37629 -5.22058,-2.2536 -0.57653,-0.72632 0.0706,-5.68377 1.38117,-5.60619 1.16133,0.0687 2.66765,0.29644 3.71213,0.32956 2.00916,0.0637 3.91961,-0.9584 4.5652,-0.46119 0.9211,0.7094 1.04374,2.65122 1.0939,3.34793 0.0275,0.38176 -0.038,1.89447 -0.92973,2.5277 -1.06564,0.75677 -3.86932,2.11579 -4.60209,2.11579 z" style="color:#000000;display:inline;overflow:visible;visibility:visible;fill:none;stroke:#de8787;stroke-width:0.12364889;stroke-linecap:butt;stroke-linejoin:miter;stroke-miterlimit:4;stroke-dasharray:none;stroke-dashoffset:0;stroke-opacity:1;marker:none;enable-background:accumulate"/>
    </clipPath>
    <clipPath id="clipPath95552-0">
      <path id="path95554-8" d="m 552.90935,154.83331 c -1.23871,0 -4.52418,-1.37629 -5.22058,-2.2536 -0.57653,-0.72632 0.0706,-5.68377 1.38117,-5.60619 1.16133,0.0687 2.66765,0.29644 3.71213,0.32956 2.00916,0.0637 3.91961,-0.9584 4.5652,-0.46119 0.9211,0.7094 1.04374,2.65122 1.0939,3.34793 0.0275,0.38176 -0.038,1.89447 -0.92973,2.5277 -1.06564,0.75677 -3.86932,2.11579 -4.60209,2.11579 z" style="color:#000000;display:inline;overflow:visible;visibility:visible;fill:none;stroke:#de8787;stroke-width:0.12364889;stroke-linecap:butt;stroke-linejoin:miter;stroke-miterlimit:4;stroke-dasharray:none;stroke-dashoffset:0;stroke-opacity:1;marker:none;enable-background:accumulate"/>
    </clipPath>
    <clipPath id="clipPath95560-1">
      <path id="path95562-5" d="m 552.90935,154.83331 c -1.23871,0 -4.52418,-1.37629 -5.22058,-2.2536 -0.57653,-0.72632 0.0706,-5.68377 1.38117,-5.60619 1.16133,0.0687 2.66765,0.29644 3.71213,0.32956 2.00916,0.0637 3.91961,-0.9584 4.5652,-0.46119 0.9211,0.7094 1.04374,2.65122 1.0939,3.34793 0.0275,0.38176 -0.038,1.89447 -0.92973,2.5277 -1.06564,0.75677 -3.86932,2.11579 -4.60209,2.11579 z" style="color:#000000;display:inline;overflow:visible;visibility:visible;fill:none;stroke:#de8787;stroke-width:0.12364889;stroke-linecap:butt;stroke-linejoin:miter;stroke-miterlimit:4;stroke-dasharray:none;stroke-dashoffset:0;stroke-opacity:1;marker:none;enable-background:accumulate"/>
    </clipPath>
    <clipPath id="clipPath37621">
      <path id="path37623" d="m 5811.5842,3412.569 c -232.3644,2.6524 -994.9424,60.7059 -1150.4573,-379.7347 30.344,-339.9311 226.7008,-629.2912 472.561,-614.38 217.8631,13.2045 545.0826,136.5921 726.5517,60.6041 204.7631,-85.7444 623.022,-172.4652 744.1333,-76.8992 172.7946,136.3499 377.0493,222.5364 386.4592,356.4472 5.1589,73.3761 17.9531,81.835 46.5393,215.3499 -58.9677,434.2612 -708.1071,432.7101 -1225.7872,438.6127 z" style="color:#000000;display:inline;overflow:visible;visibility:visible;fill:#800000;fill-opacity:1;fill-rule:evenodd;stroke:none;stroke-width:0.12364834;marker:none;enable-background:accumulate"/>
    </clipPath>
    <clipPath id="clipPath37625">
      <path id="path37627" d="m 5811.5842,3382.2776 c -232.3644,2.6524 -994.9424,60.7059 -1150.4573,-379.7347 30.344,-339.9311 226.7008,-629.2912 472.561,-614.38 217.8631,13.2044 545.0826,136.5921 726.5517,60.604 204.7631,-85.7444 623.022,-172.4651 744.1333,-76.8991 172.7946,136.3499 377.0493,222.5364 386.4592,356.4472 5.1589,73.376 17.9531,81.8349 46.5393,215.3498 -58.9677,434.2613 -708.1071,432.7102 -1225.7872,438.6128 z" style="color:#000000;display:inline;overflow:visible;visibility:visible;fill:#800000;fill-opacity:1;fill-rule:evenodd;stroke:none;stroke-width:0.12364834;marker:none;enable-background:accumulate"/>
    </clipPath>
    <clipPath id="clipPath37629">
      <path id="path37631" d="m 552.77384,152.61998 c -1.23863,0.0138 -5.30359,0.31584 -6.13257,-1.97568 0.16175,-1.76859 1.20844,-3.27407 2.51901,-3.19649 1.16133,0.0687 2.90559,0.71066 3.87292,0.31531 1.0915,-0.44611 3.32105,-0.8973 3.96664,-0.40009 0.92109,0.7094 2.00988,1.15781 2.06004,1.85452 0.0275,0.38176 0.0957,0.42577 0.24808,1.12042 -0.31433,2.25937 -3.7746,2.2513 -6.53412,2.28201 z" style="color:#000000;display:inline;overflow:visible;visibility:visible;fill:#800000;fill-opacity:1;fill-rule:evenodd;stroke:none;stroke-width:0.12364834;marker:none;enable-background:accumulate"/>
    </clipPath>
    <clipPath id="clipPath37633">
      <path id="path37635" d="m 552.77384,152.61998 c -1.23863,0.0138 -5.30359,0.31584 -6.13257,-1.97568 0.16175,-1.76859 1.20844,-3.27407 2.51901,-3.19649 1.16133,0.0687 2.90559,0.71066 3.87292,0.31531 1.0915,-0.44611 3.32105,-0.8973 3.96664,-0.40009 0.92109,0.7094 2.00988,1.15781 2.06004,1.85452 0.0275,0.38176 0.0957,0.42577 0.24808,1.12042 -0.31433,2.25937 -3.7746,2.2513 -6.53412,2.28201 z" style="color:#000000;display:inline;overflow:visible;visibility:visible;fill:#800000;fill-opacity:1;fill-rule:evenodd;stroke:none;stroke-width:0.12364834;marker:none;enable-background:accumulate"/>
    </clipPath>
    <clipPath id="clipPath95552-0-2">
      <path id="path95554-37" d="m 552.90935,154.83331 c -1.23871,0 -4.52418,-1.37629 -5.22058,-2.2536 -0.57653,-0.72632 0.0706,-5.68377 1.38117,-5.60619 1.16133,0.0687 2.66765,0.29644 3.71213,0.32956 2.00916,0.0637 3.91961,-0.9584 4.5652,-0.46119 0.9211,0.7094 1.04374,2.65122 1.0939,3.34793 0.0275,0.38176 -0.038,1.89447 -0.92973,2.5277 -1.06564,0.75677 -3.86932,2.11579 -4.60209,2.11579 z" style="color:#000000;display:inline;overflow:visible;visibility:visible;fill:none;stroke:#de8787;stroke-width:0.12364889;stroke-linecap:butt;stroke-linejoin:miter;stroke-miterlimit:4;stroke-dasharray:none;stroke-dashoffset:0;stroke-opacity:1;marker:none;enable-background:accumulate"/>
    </clipPath>
    <clipPath id="clipPath60705-4">
      <path id="path60707-1" d="m 516.98769,2555.8224 c 0.003,-3e-4 1.96286,0.638 1.96839,0.6376 6.66947,-1.3587 10.84647,-0.949 16.8513,-0.1438 -2.59471,1.9848 -5.5861,3.3422 -8.58697,3.2577 -3.17166,-0.089 -4.09048,-1.0425 -10.23272,-3.7516 z" style="color:#000000;display:inline;overflow:visible;visibility:visible;fill:#f9f9f9;fill-opacity:1;fill-rule:evenodd;stroke:none;stroke-width:0.32081631;marker:none;enable-background:accumulate"/>
    </clipPath>
    <clipPath id="clipPath43276">
      <path id="path43278" d="M 5162.1127,3681.8053 C 4943.3492,3550.52 4630.843,3132.5039 4421.8514,2666.8614 c 152.7516,44.6511 356.905,177.5836 663.5319,-32.5921 181.3922,-124.3352 450.6627,-4.1516 646.7025,-3.7288 209.4381,0.3844 648.9687,-27.6563 799.9437,-3.0945 156.0421,25.396 385.6507,48.918 628.363,33.9069 -18.8874,70.9753 -497.1964,815.2145 -664.4831,936.9242 -224.7329,131.81 -1081.1567,59.7468 -1333.7967,83.5186 z" style="color:#000000;display:inline;overflow:visible;visibility:visible;fill:#800000;fill-opacity:1;fill-rule:evenodd;stroke:none;stroke-width:0.12364834;marker:none;enable-background:accumulate"/>
    </clipPath>
    <clipPath id="clipPath43280">
      <path id="path43282" d="m 5162.1127,3256.8718 c -218.7635,-131.2853 -531.2697,-549.3014 -740.2613,-1014.9439 152.7516,44.651 356.905,177.5836 663.5319,-32.5921 181.3922,-124.3353 450.6627,-4.1517 646.7025,-3.7288 209.4381,0.3844 648.9687,-27.6563 799.9437,-3.0945 156.0421,25.396 385.6507,48.918 628.363,33.9068 -18.8874,70.9754 -497.1964,815.2145 -664.4831,936.9242 -224.7329,131.8101 -1081.1567,59.7468 -1333.7967,83.5187 z" style="color:#000000;display:inline;overflow:visible;visibility:visible;fill:#800000;fill-opacity:1;fill-rule:evenodd;stroke:none;stroke-width:0.12364834;marker:none;enable-background:accumulate"/>
    </clipPath>
    <clipPath id="clipPath31298">
      <path id="path31300" d="m 5856.5589,4062.726 c -232.1111,11.4169 -962.3585,140.2497 -1054.2233,-362.9399 -31.9854,-175.1983 -23.2284,-603.4205 283.3985,-813.5962 181.3922,-124.3352 519.4624,58.0977 715.5022,58.5263 209.438,0.3844 702.8899,-184.7989 811.4341,-74.585 229.9406,233.4786 224.9017,486.3045 247.4116,833.0261 4.765,73.4049 -118.6538,163.9294 -285.9405,285.6391 -224.7123,131.8197 -464.2879,61.4613 -717.5826,73.9296 z" style="color:#000000;display:inline;overflow:visible;visibility:visible;fill:#800000;fill-opacity:1;fill-rule:evenodd;stroke:#de8787;stroke-width:0.12364889;stroke-linecap:butt;stroke-linejoin:miter;stroke-miterlimit:4;stroke-dasharray:none;stroke-dashoffset:0;stroke-opacity:1;marker:none;enable-background:accumulate"/>
    </clipPath>
    <clipPath id="clipPath31302">
      <path id="path31304" d="m 5856.5589,3238.0415 c -232.1111,11.417 -962.3585,140.2498 -1054.2233,-362.9399 -31.9854,-175.1983 -23.2284,-603.4204 283.3985,-813.5961 181.3922,-124.3353 519.4624,58.0976 715.5022,58.5263 209.438,0.3844 702.8899,-184.799 811.4341,-74.585 229.9406,233.4785 224.9017,486.3044 247.4116,833.0261 4.765,73.4048 -118.6538,163.9293 -285.9405,285.639 -224.7123,131.8197 -464.2879,61.4613 -717.5826,73.9296 z" style="color:#000000;display:inline;overflow:visible;visibility:visible;fill:#800000;fill-opacity:1;fill-rule:evenodd;stroke:#de8787;stroke-width:0.12364889;stroke-linecap:butt;stroke-linejoin:miter;stroke-miterlimit:4;stroke-dasharray:none;stroke-dashoffset:0;stroke-opacity:1;marker:none;enable-background:accumulate"/>
    </clipPath>
    <clipPath id="clipPath40548-1">
      <path id="path40550-6" d="m 5837.0074,4189.5983 c -232.3794,0 -1025.2994,-160.9771 -1130.4349,-539.5586 -47.6067,-171.433 72.1839,-719.1642 378.8108,-929.3398 181.3922,-124.3353 450.6627,-4.1517 646.7025,-3.7288 209.4381,0.3844 800.1782,-62.6818 905.3963,50.9361 303.6759,327.9125 322.3795,740.3855 280.3707,898.2412 -18.8874,70.9753 -138.6593,307.4177 -305.946,429.1274 -224.7329,131.8101 -522.2594,70.5506 -774.8994,94.3225 z" style="color:#000000;display:inline;overflow:visible;visibility:visible;fill:#800000;fill-opacity:1;fill-rule:evenodd;stroke:none;stroke-width:0.12364834;marker:none;enable-background:accumulate"/>
    </clipPath>
    <clipPath id="clipPath40557-2">
      <path id="path40559-7" d="m 5893.6564,3384.2611 c -779.9871,67.7137 -949.7669,-112.6107 -1187.0839,-558.9059 -48.2164,-171.2542 72.1839,-719.1641 378.8108,-929.3398 181.3922,-124.3352 450.6627,-4.1516 646.7025,-3.7288 209.4381,0.3844 800.1782,-62.6817 905.3963,50.9362 303.6759,327.9125 322.3795,740.3854 280.3707,898.2411 -18.8874,70.9754 -138.6593,307.4178 -305.946,429.1275 -224.7329,131.81 -465.6105,89.8979 -718.2504,113.6697 z" style="color:#000000;display:inline;overflow:visible;visibility:visible;fill:#800000;fill-opacity:1;fill-rule:evenodd;stroke:none;stroke-width:0.12364834;marker:none;enable-background:accumulate"/>
    </clipPath>
    <clipPath id="clipPath47563">
      <path id="path47565" d="m 520.98439,144.27601 c 4.87681,-4.4733 8.68344,-0.84787 10.69852,-0.0131 -4.10822,2.38525 -9.29617,1.66346 -10.69852,0.0131 z" style="color:#000000;display:inline;overflow:visible;visibility:visible;fill:#800000;fill-opacity:1;fill-rule:evenodd;stroke:#de8787;stroke-width:0.12364834;stroke-linecap:butt;stroke-linejoin:miter;stroke-miterlimit:4;stroke-dasharray:none;stroke-dashoffset:0;stroke-opacity:1;marker:none;enable-background:accumulate"/>
    </clipPath>
    <clipPath id="clipPath65806">
      <path id="path65808" d="m 4959.4376,4014.0309 c -208.4157,-105.3031 -241.1796,-339.0123 -288.7395,-624.6802 42.4328,-240.6862 314.4216,-858.3568 690.0996,-774.2826 213.2162,47.7167 576.4245,74.5484 757.8936,-1.3455 204.7631,-85.7443 429.7474,-55.5836 550.8587,39.9824 172.7946,136.35 325.6194,589.38 335.0293,723.2908 -31.1901,115.9378 -17.5217,427.9685 -184.8009,549.6782 -199.9099,145.4546 -783.9922,338.4799 -920.4603,321.5409 -385.9921,-47.9128 -680.9673,-103.3657 -939.8805,-234.184 z" style="color:#000000;display:inline;overflow:visible;visibility:visible;fill:#800000;fill-opacity:1;fill-rule:evenodd;stroke:#de8787;stroke-width:23.47924423;stroke-linecap:butt;stroke-linejoin:miter;stroke-miterlimit:4;stroke-dasharray:none;stroke-dashoffset:0;stroke-opacity:1;marker:none;enable-background:accumulate"/>
    </clipPath>
    <clipPath id="clipPath65810">
      <path id="path65812" d="m 4959.4376,3189.3465 c -208.4157,-105.3031 -241.1796,-339.0124 -288.7395,-624.6802 42.4328,-240.6863 314.4216,-858.3568 690.0996,-774.2827 213.2162,47.7167 576.4245,74.5485 757.8936,-1.3454 204.7631,-85.7444 429.7474,-55.5836 550.8587,39.9824 172.7946,136.3499 325.6194,589.3799 335.0293,723.2908 -31.1901,115.9378 -17.5217,427.9684 -184.8009,549.6781 -199.9099,145.4547 -783.9922,338.4799 -920.4603,321.541 -385.9921,-47.9128 -680.9673,-103.3657 -939.8805,-234.184 z" style="color:#000000;display:inline;overflow:visible;visibility:visible;fill:#800000;fill-opacity:1;fill-rule:evenodd;stroke:#de8787;stroke-width:23.47924423;stroke-linecap:butt;stroke-linejoin:miter;stroke-miterlimit:4;stroke-dasharray:none;stroke-dashoffset:0;stroke-opacity:1;marker:none;enable-background:accumulate"/>
    </clipPath>
    <clipPath id="clipPath65806-9">
      <path id="path65808-3" d="m 4959.4376,4014.0309 c -208.4157,-105.3031 -241.1796,-339.0123 -288.7395,-624.6802 42.4328,-240.6862 314.4216,-858.3568 690.0996,-774.2826 213.2162,47.7167 576.4245,74.5484 757.8936,-1.3455 204.7631,-85.7443 429.7474,-55.5836 550.8587,39.9824 172.7946,136.35 325.6194,589.38 335.0293,723.2908 -31.1901,115.9378 -17.5217,427.9685 -184.8009,549.6782 -199.9099,145.4546 -783.9922,338.4799 -920.4603,321.5409 -385.9921,-47.9128 -680.9673,-103.3657 -939.8805,-234.184 z" style="color:#000000;display:inline;overflow:visible;visibility:visible;fill:#800000;fill-opacity:1;fill-rule:evenodd;stroke:#de8787;stroke-width:23.47924423;stroke-linecap:butt;stroke-linejoin:miter;stroke-miterlimit:4;stroke-dasharray:none;stroke-dashoffset:0;stroke-opacity:1;marker:none;enable-background:accumulate"/>
    </clipPath>
    <clipPath id="clipPath65810-3">
      <path id="path65812-4" d="m 4959.4376,3189.3465 c -208.4157,-105.3031 -241.1796,-339.0124 -288.7395,-624.6802 42.4328,-240.6863 314.4216,-858.3568 690.0996,-774.2827 213.2162,47.7167 576.4245,74.5485 757.8936,-1.3454 204.7631,-85.7444 429.7474,-55.5836 550.8587,39.9824 172.7946,136.3499 325.6194,589.3799 335.0293,723.2908 -31.1901,115.9378 -17.5217,427.9684 -184.8009,549.6781 -199.9099,145.4547 -783.9922,338.4799 -920.4603,321.541 -385.9921,-47.9128 -680.9673,-103.3657 -939.8805,-234.184 z" style="color:#000000;display:inline;overflow:visible;visibility:visible;fill:#800000;fill-opacity:1;fill-rule:evenodd;stroke:#de8787;stroke-width:23.47924423;stroke-linecap:butt;stroke-linejoin:miter;stroke-miterlimit:4;stroke-dasharray:none;stroke-dashoffset:0;stroke-opacity:1;marker:none;enable-background:accumulate"/>
    </clipPath>
    <clipPath id="clipPath67340">
      <path id="path67342" d="m 5837.0074,4073.8008 c -232.3794,0 -950.1158,-22.6725 -1059.2884,-524.1323 -37.8741,-173.9605 76.8101,-529.2545 383.437,-739.4301 181.3921,-124.3353 477.3016,-177.2876 673.3414,-176.859 209.438,0.3844 617.6529,82.9516 722.871,196.5695 303.676,327.9126 334.1569,524.4244 336.5469,691.3772 1.1255,73.5586 -152.4871,230.0323 -319.7738,351.742 -199.9099,145.4547 -599.6679,200.7327 -737.1341,200.7327 z" style="color:#000000;display:inline;overflow:visible;visibility:visible;fill:#800000;fill-opacity:1;fill-rule:evenodd;stroke:#de8787;stroke-width:23.47924423;stroke-linecap:butt;stroke-linejoin:miter;stroke-miterlimit:4;stroke-dasharray:none;stroke-dashoffset:0;stroke-opacity:1;marker:none;enable-background:accumulate"/>
    </clipPath>
    <clipPath id="clipPath67344">
      <path id="path67346" d="m 5837.0074,3364.9138 c -232.3794,0 -950.1158,-22.6724 -1059.2884,-524.1322 -37.8741,-173.9605 76.8101,-529.2545 383.437,-739.4302 181.3921,-124.3352 477.3016,-177.2876 673.3414,-176.859 209.438,0.3844 617.6529,82.9517 722.871,196.5696 303.676,327.9125 334.1569,524.4244 336.5469,691.3771 1.1255,73.5586 -152.4871,230.0323 -319.7738,351.742 -199.9099,145.4547 -599.6679,200.7327 -737.1341,200.7327 z" style="color:#000000;display:inline;overflow:visible;visibility:visible;fill:#800000;fill-opacity:1;fill-rule:evenodd;stroke:#de8787;stroke-width:23.47924423;stroke-linecap:butt;stroke-linejoin:miter;stroke-miterlimit:4;stroke-dasharray:none;stroke-dashoffset:0;stroke-opacity:1;marker:none;enable-background:accumulate"/>
    </clipPath>
    <clipPath id="clipPath60705-4-0">
      <path id="path60707-1-6" d="m 516.98769,2555.8224 c 0.003,-3e-4 1.96286,0.638 1.96839,0.6376 6.66947,-1.3587 10.84647,-0.949 16.8513,-0.1438 -2.59471,1.9848 -5.5861,3.3422 -8.58697,3.2577 -3.17166,-0.089 -4.09048,-1.0425 -10.23272,-3.7516 z" style="color:#000000;display:inline;overflow:visible;visibility:visible;fill:#f9f9f9;fill-opacity:1;fill-rule:evenodd;stroke:none;stroke-width:0.32081631;marker:none;enable-background:accumulate"/>
    </clipPath>
    <clipPath id="clipPath68456">
      <path id="path68458" d="m 5837.0074,4189.5983 c -619.482,106.4063 -921.4433,-73.9161 -1130.4349,-539.5586 -47.6067,-171.433 84.7417,-539.0339 441.6017,-774.9438 183.3826,-121.2292 475.7783,-171.4138 671.8181,-170.991 209.4381,0.3844 561.5762,27.3834 666.7942,141.0013 303.676,327.9125 473.0751,663.1865 431.0663,821.0422 -18.8874,70.9753 -138.6593,307.4177 -305.946,429.1274 -224.7329,131.8101 -522.2594,70.5506 -774.8994,94.3225 z" style="color:#000000;display:inline;overflow:visible;visibility:visible;fill:#800000;fill-opacity:1;fill-rule:evenodd;stroke:none;stroke-width:0.12364834;marker:none;enable-background:accumulate"/>
    </clipPath>
    <clipPath id="clipPath40557-2-4">
      <path id="path40559-7-5" d="m 5893.6564,3384.2611 c -779.9871,67.7137 -949.7669,-112.6107 -1187.0839,-558.9059 -48.2164,-171.2542 72.1839,-719.1641 378.8108,-929.3398 181.3922,-124.3352 450.6627,-4.1516 646.7025,-3.7288 209.4381,0.3844 800.1782,-62.6817 905.3963,50.9362 303.6759,327.9125 322.3795,740.3854 280.3707,898.2411 -18.8874,70.9754 -138.6593,307.4178 -305.946,429.1275 -224.7329,131.81 -465.6105,89.8979 -718.2504,113.6697 z" style="color:#000000;display:inline;overflow:visible;visibility:visible;fill:#800000;fill-opacity:1;fill-rule:evenodd;stroke:none;stroke-width:0.12364834;marker:none;enable-background:accumulate"/>
    </clipPath>
    <clipPath id="clipPath70113">
      <path id="path70115" d="m 5008.1099,3142.7023 c 201.1912,-393.7772 451.6719,-456.1745 812.0775,-478.9257 347.0449,-21.9171 725.1128,214.1082 829.2465,513.7243 -211.7886,129.3018 -443.1625,296.2142 -853.6061,316.0151 -438.7314,21.1636 -529.8459,-199.0548 -787.7179,-350.8137 z" style="color:#000000;display:inline;overflow:visible;visibility:visible;fill:none;fill-opacity:1;fill-rule:evenodd;stroke:#000000;stroke-width:60.91893005;marker:none;enable-background:accumulate"/>
    </clipPath>
    <clipPath id="clipPath70117">
      <path id="path70119" d="m 5008.1099,2963.9693 c 201.1912,-393.7772 451.6719,-456.1744 812.0775,-478.9257 347.0449,-21.9171 725.1128,214.1082 829.2465,513.7244 -211.7886,129.3017 -443.1625,296.2141 -853.6061,316.015 -438.7314,21.1637 -529.8459,-199.0547 -787.7179,-350.8137 z" style="color:#000000;display:inline;overflow:visible;visibility:visible;fill:none;fill-opacity:1;fill-rule:evenodd;stroke:#000000;stroke-width:60.91893005;marker:none;enable-background:accumulate"/>
    </clipPath>
    <clipPath id="clipPath115532-3">
      <path id="path115534-6" d="m 5837.0074,4189.5964 c -232.3794,0 -657.0804,22.8166 -979.3698,-433.1523 -102.0364,-144.3571 41.2903,-565.6465 347.9172,-775.8222 181.3921,-124.3352 450.6627,-113.6025 646.7025,-113.1739 209.438,0.3845 599.893,-35.3214 705.1111,78.2965 303.6741,327.9125 298.6352,533.5214 256.6264,691.3771 -18.8874,70.9754 -72.5685,230.0324 -239.8533,351.7421 -199.9099,145.4546 -599.6679,200.7327 -737.1341,200.7327 z" style="color:#000000;display:inline;overflow:visible;visibility:visible;fill:none;stroke:#de8787;stroke-width:0.12364889;stroke-linecap:butt;stroke-linejoin:miter;stroke-miterlimit:4;stroke-dasharray:none;stroke-dashoffset:0;stroke-opacity:1;marker:none;enable-background:accumulate"/>
    </clipPath>
    <clipPath id="clipPath115536-0">
      <path id="path115538-6" d="m 5837.0074,3364.9119 c -232.3794,0 -657.0804,22.8166 -979.3698,-433.1522 -102.0364,-144.3572 41.2903,-565.6465 347.9172,-775.8222 181.3921,-124.3352 450.6627,-113.6025 646.7025,-113.1739 209.438,0.3844 599.893,-35.3214 705.1111,78.2964 303.6741,327.9126 298.6352,533.5215 256.6264,691.3772 -18.8874,70.9754 -72.5685,230.0323 -239.8533,351.742 -199.9099,145.4547 -599.6679,200.7327 -737.1341,200.7327 z" style="color:#000000;display:inline;overflow:visible;visibility:visible;fill:none;stroke:#de8787;stroke-width:0.12364889;stroke-linecap:butt;stroke-linejoin:miter;stroke-miterlimit:4;stroke-dasharray:none;stroke-dashoffset:0;stroke-opacity:1;marker:none;enable-background:accumulate"/>
    </clipPath>
    <clipPath id="clipPath60705-4-5">
      <path id="path60707-1-8" d="m 516.98769,2555.8224 c 0.003,-3e-4 1.96286,0.638 1.96839,0.6376 6.66947,-1.3587 10.84647,-0.949 16.8513,-0.1438 -2.59471,1.9848 -5.5861,3.3422 -8.58697,3.2577 -3.17166,-0.089 -4.09048,-1.0425 -10.23272,-3.7516 z" style="color:#000000;display:inline;overflow:visible;visibility:visible;fill:#f9f9f9;fill-opacity:1;fill-rule:evenodd;stroke:none;stroke-width:0.32081631;marker:none;enable-background:accumulate"/>
    </clipPath>
  </defs>
  <g id="g60709-5-6" style="display:inline;enable-background:new">
    <path id="path66488-3-4-9-4-4" d="m 520.02685,2555.5616 c 4.86607,-0.9913 12.01002,-0.1976 14.14368,-0.1973 -2.19721,2.1577 -5.27053,3.4991 -7.45997,3.4374 -2.36253,-0.1893 -4.7956,-1.0169 -6.68371,-3.2401 z" style="color:#000000;display:inline;overflow:visible;visibility:visible;fill:#f9f9f9;fill-opacity:1;fill-rule:evenodd;stroke:none;stroke-width:0.32081631;marker:none;enable-background:accumulate" transform="translate(-246.26492,-2413.7841)"/>
    <path id="path66484-2-2-6-7-5" d="m 522.89001,2558.8018 c 2.19515,1.0358 5.4312,0.7913 6.99605,0.3691 1.81212,-0.4889 3.27889,-2.1933 4.51282,-4.1041 -1.17718,0.8988 -2.53146,2.1408 -3.94162,2.6994 -0.98139,0.3888 -6.1665,0.3563 -6.81578,0.1434 -1.52538,-0.5002 -2.26084,-1.4546 -3.86108,-2.607 0.88642,1.3423 1.95143,2.9394 3.10961,3.4992 z" style="color:#000000;display:inline;overflow:visible;visibility:visible;fill:#e9afaf;fill-opacity:1;fill-rule:evenodd;stroke:none;stroke-width:0.32081631;marker:none;enable-background:accumulate" transform="translate(-246.26492,-2413.7841)"/>
    <g id="g60577-7-7" clip-path="url(#clipPath60705-4-5)" style="display:inline;enable-background:new" transform="translate(-246.26492,-2413.7841) matrix(0.72960373,0,0,0.72960373,141.79516,690.69785)">
      <path id="path4721-3-2" d="m 521.76641,2557.1127 c -0.55253,0.1466 -1.12783,-0.056 -1.26226,-0.4602 -7.27439,-1.6249 13.98588,-1.0766 16.57893,-0.9545 0.16815,0.3508 -1.48545,1.3316 -2.74418,1.2344 0.0523,0.1839 -0.71847,0.545 -1.30701,0.3671 -0.53383,0.2659 -1.09774,0 -1.37198,-0.075 -0.0457,0.2256 -0.85046,0.4627 -1.40055,0.2334 -0.31791,0.3064 -2.22673,0.3316 -2.62217,0.064 -0.7905,0.1939 -2.24105,0.095 -2.62394,-0.2115 -0.27516,0.077 -1.32875,0.1144 -1.6906,-0.139 -0.50785,0.2145 -1.21217,0.1461 -1.55624,-0.059 z" style="display:inline;overflow:visible;visibility:visible;fill:none;stroke:#cccccc;stroke-width:0.25;stroke-linecap:butt;stroke-linejoin:miter;stroke-miterlimit:4;stroke-dasharray:none;stroke-dashoffset:0;stroke-opacity:1;marker:none;enable-background:accumulate"/>
    </g>
    <path id="path66486-6-3-1-9-9" d="m 524.61473,2555.3216 c 0.47657,-0.035 1.75046,0.1365 2.51107,0.1483 0.70059,0.011 1.4635,-0.1656 2.18385,-0.03 1.8673,0.3516 4.66893,0.3551 5.27771,-0.5577 -1.06522,0.62 -3.85179,0.04 -5.1089,-0.4479 -0.65069,-0.2526 -1.52249,0.2836 -2.31434,0.2733 -0.79181,-0.011 -1.81494,-0.4744 -2.63508,-0.182 -1.62227,0.5784 -3.99476,1.27 -5.45854,0.3789 1.67444,1.5384 4.4431,0.5015 5.54423,0.4171 z" style="color:#000000;display:inline;overflow:visible;visibility:visible;fill:#de8787;fill-opacity:1;fill-rule:evenodd;stroke:none;stroke-width:0.32081631;marker:none;enable-background:accumulate" transform="translate(-246.26492,-2413.7841)"/>
  </g>
  <path id="path106731-49" d="m 272.45206,139.51184 c -0.91039,1.11241 -0.95814,2.28889 -0.005,3.86113 -0.48166,-1.81462 -0.42498,-3.05208 0.005,-3.86113 z" style="color:#000000;display:inline;overflow:visible;visibility:visible;fill:#e9afaf;fill-opacity:1;stroke:none;stroke-width:0.5;marker:none;enable-background:accumulate"/>
  <path id="path106731-4-22" d="m 288.70507,139.4715 c 1.01964,1.01321 1.18774,2.17859 0.40076,3.84027 0.29309,-1.85443 0.10985,-3.07956 -0.40076,-3.84027 z" style="color:#000000;display:inline;overflow:visible;visibility:visible;fill:#e9afaf;fill-opacity:1;stroke:none;stroke-width:0.5;marker:none;enable-background:accumulate"/>
</svg>
