<?xml version="1.0" encoding="UTF-8" standalone="no"?>
<svg xmlns="http://www.w3.org/2000/svg" id="mouth_omg" width="560" height="560">
  <path id="path5114-0-4-8-2" d="m 280.84793,148.32735 c -1.23871,0 -3.5026,0.11871 -5.22058,-2.2536 -0.54391,-0.75106 0.2201,-2.94294 1.85459,-4.03644 0.96692,-0.64689 2.40228,-0.59105 3.44728,-0.58882 1.11642,0.002 3.19776,-0.18377 3.75863,0.40736 1.61876,1.70606 1.5919,2.7758 1.36797,3.59709 -0.10068,0.36927 -0.38683,1.19681 -1.27856,1.83004 -1.06563,0.75677 -3.19656,1.04437 -3.92933,1.04437 z" style="color:#000000;display:inline;overflow:visible;visibility:visible;fill:#800000;fill-opacity:1;fill-rule:evenodd;stroke:#de8787;stroke-width:0.12364834;stroke-linecap:butt;stroke-linejoin:miter;stroke-miterlimit:4;stroke-dasharray:none;stroke-dashoffset:0;stroke-opacity:1;marker:none;enable-background:accumulate"/>
  <path id="path5127-2-7-4-6" d="m 282.45902,141.23957 c -0.0478,0.008 -0.0808,0.0248 -0.13137,0.0309 -0.22349,0.027 -0.47471,0.0397 -0.74189,0.0386 -0.53436,-0.002 -1.13781,-0.0493 -1.73881,-0.085 -0.21291,-0.0126 -0.40149,2.3e-4 -0.61051,-0.008 -0.87817,0.78418 -1.09738,2.22581 -1.09738,3.18395 0,1.36241 0.13825,4.49999 1.56879,3.13757 0.81745,-0.54496 2.29575,0.10968 2.73826,0.0375 1.58723,-0.25884 1.28031,-0.92281 1.28031,-2.96644 0,-1.36465 -0.37611,-2.65364 -1.2674,-3.36941 z" style="color:#000000;display:inline;overflow:visible;visibility:visible;fill:#550000;fill-opacity:1;fill-rule:evenodd;stroke:none;stroke-width:0.5;marker:none;enable-background:accumulate"/>
  <path id="path5125-7-0-6-9" d="m 280.98196,145.90884 c -2.76853,0 -3.13749,-0.65629 -3.13749,-2.10776 0,-1.27848 1.25193,-2.3004 2.03721,-2.3004 0.99387,0 1.31834,0.80557 0.83578,1.13251 -1.62688,1.10224 2.02038,1.36675 1.04473,0.10617 -0.47819,-0.61784 0.20677,-1.20329 0.83578,-1.20329 0.57697,0 1.61669,0.39683 1.61669,1.89718 0,1.50035 -1.24772,2.54638 -3.2327,2.47559 z" style="color:#000000;display:inline;overflow:visible;visibility:visible;fill:#000000;fill-opacity:1;fill-rule:evenodd;stroke:#000000;stroke-width:0.12364835;stroke-linecap:butt;stroke-linejoin:miter;stroke-miterlimit:4;stroke-dasharray:none;stroke-dashoffset:0;stroke-opacity:1;marker:none;enable-background:accumulate"/>
  <path id="path5121-4-5-8-1" d="m 281.25368,144.72011 c -1.04462,-0.12511 -4.16959,-2.03379 -5.11595,1.15149 -5e-4,0.0174 0.008,0.0366 0.008,0.0541 1.1015,1.06796 3.62514,2.40342 4.70637,2.40342 0.73278,0 3.69434,-1.15323 4.76819,-2.04793 -0.39048,-3.91751 -3.57459,-1.46622 -4.36661,-1.56108 z" style="color:#000000;display:inline;overflow:visible;visibility:visible;fill:#a02c2c;fill-opacity:1;fill-rule:evenodd;stroke:#501616;stroke-width:0.12364834;stroke-linecap:butt;stroke-linejoin:miter;stroke-miterlimit:4;stroke-dasharray:none;stroke-dashoffset:0;stroke-opacity:1;marker:none;enable-background:accumulate"/>
  <path id="path5123-2-7-4-7" d="m 281.12041,145.1938 c -5.2549,-3.21837 -4.63222,1.94076 0,1.53203 4.63221,-0.40872 4.7001,-4.28521 0,-1.53203 z" style="color:#000000;display:inline;overflow:visible;visibility:visible;fill:#b85757;fill-opacity:1;fill-rule:evenodd;stroke:none;stroke-width:0.5;marker:none;enable-background:accumulate"/>
  <path id="path4044-6-3-3-3-4" d="M 276.5918 145.91016 C 276.51385 145.90967 276.44292 145.92536 276.39062 145.96875 C 276.20877 146.11962 276.08602 146.27515 275.98047 146.48438 C 276.15843 146.68943 276.33823 146.8776 276.52344 147.03906 C 276.62452 146.97011 276.72979 146.90025 276.83984 146.86719 C 277.04905 146.65282 277.05844 146.28655 277.08984 146.16406 C 277.11337 146.07222 276.82565 145.9116 276.5918 145.91016 z" style="color:#000000;display:inline;overflow:visible;visibility:visible;fill:#f2f2f2;stroke:#cccccc;stroke-width:0.25000003;stroke-linecap:butt;stroke-linejoin:miter;stroke-miterlimit:4;stroke-dasharray:none;stroke-dashoffset:0;stroke-opacity:1;marker:none;enable-background:accumulate"/>
  <path id="path4046-5-5-8-1-7" d="m 277.38346,147.05143 c -0.28239,0.22458 -0.51249,0.63291 -0.79488,0.7452 -0.28239,0.11229 -0.27193,-0.0408 -0.25101,-0.18375 0.0209,-0.14292 -0.0732,-0.56145 0.0837,-0.89832 0.15688,-0.33687 0.44973,-0.67374 0.5857,-0.68395 0.13596,-0.0102 0.40789,0.11229 0.43927,0.15312 0.0314,0.0408 0.16734,0.16333 0.13596,0.26542 -0.0314,0.10208 -0.0523,0.38791 -0.19871,0.60228 z" style="color:#000000;display:inline;overflow:visible;visibility:visible;fill:#f2f2f2;stroke:#cccccc;stroke-width:0.25000003;stroke-linecap:butt;stroke-linejoin:miter;stroke-miterlimit:4;stroke-dasharray:none;stroke-dashoffset:0;stroke-opacity:1;marker:none;enable-background:accumulate"/>
  <g id="g4549-1-3-1-2" style="stroke:#cccccc;stroke-width:47.47182465;stroke-miterlimit:4;stroke-dasharray:none">
    <path id="path4048-4-2-68-2-5" d="m 5332.272,3202.0825 c -31.3777,0.9805 -43.1654,7.8483 -72.5963,78.4825 -29.4309,70.6342 -66.7101,70.6342 -80.4445,74.5583 -13.7345,3.9241 -49.0516,-5.8862 -47.0895,-23.5447 1.9621,-17.6586 -11.7724,-151.0788 3.9241,-188.3579 15.6965,-37.2792 21.5827,-113.7996 51.0136,-143.2305 29.4309,-29.4309 49.0516,-52.9757 78.4825,-51.0136 29.4309,1.962 98.1031,80.4445 96.141,90.2548 -1.9621,9.8103 2.008,161.8687 -29.4309,162.8511 z" style="color:#000000;display:inline;overflow:visible;visibility:visible;fill:#f2f2f2;stroke:#cccccc;stroke-width:47.47182465;stroke-linecap:butt;stroke-linejoin:miter;stroke-miterlimit:4;stroke-dasharray:none;stroke-dashoffset:0;stroke-opacity:1;marker:none;enable-background:accumulate" transform="matrix(0.00533055,0,0,0.00520279,249.73347,130.82041)"/>
    <path id="path4236-0-0-0-7-3" d="m 5279.612,3033.3293 c 7.5682,6.8893 11.8607,16.5565 3.9311,21.3496 -3.9738,2.4021 -11.3189,11.535 -9.8279,23.2466 0.892,7.0068 -8.6839,43.8728 -15.228,52.053 -10.483,13.1037 -15.7245,-10.4829 -6.5519,-22.2762 9.1726,-11.7933 14.4141,-20.9659 13.1037,-24.897 -1.3104,-3.9311 -2.6207,-9.1726 3.9311,-20.9659 6.5518,-11.7933 6.9356,-16.492 3.0045,-20.4231 -3.9311,-3.9311 -0.2748,-15.2894 7.6374,-8.087 z" style="color:#000000;display:inline;overflow:visible;visibility:visible;fill:#ffffff;stroke:none;stroke-width:15.7275238;marker:none;enable-background:accumulate" transform="matrix(0.00533055,0,0,0.00520279,249.73347,130.82041)"/>
    <path id="path4254-5-4-3-7-9-2" d="m 5220.3911,3205.1946 c 0,0 14.8251,0 20.3845,-5.5594 5.5595,-5.5594 0,-24.0908 0,-24.0908 0,0 3.7063,-12.972 -3.7062,-16.6782 -7.4126,-3.7063 -18.5314,1.8531 -16.6783,11.1188 1.8531,9.2657 9.2657,18.5314 0,35.2096 z" style="color:#000000;display:inline;overflow:visible;visibility:visible;fill:#ffffff;stroke:none;stroke-width:15.7275238;marker:none;enable-background:accumulate" transform="matrix(0.00533055,0,0,0.00520279,249.73347,130.82041)"/>
  </g>
  <path id="path4050-5-4-9-1-7" d="m 279.30789,147.52101 c 0.0837,-0.245 0.0941,-1.02082 -0.11505,-0.97999 -0.0523,-0.051 -0.13596,-0.0613 -0.19872,-0.051 -0.0627,-0.0715 -0.21963,-0.0408 -0.21963,-0.0408 0,0 -0.39744,-0.0715 -0.49157,-0.0306 -0.0941,0.0408 -0.0732,0.28583 -0.0941,0.38791 -0.0209,0.10208 0.10459,0.90853 0.12551,1.10249 0.0209,0.19395 0.40789,0.48999 0.58569,0.14291 0.1778,-0.34708 0.29285,-0.43895 0.4079,-0.53082 z" style="color:#000000;display:inline;overflow:visible;visibility:visible;fill:#f2f2f2;stroke:#cccccc;stroke-width:0.25000003;stroke-linecap:butt;stroke-linejoin:miter;stroke-miterlimit:4;stroke-dasharray:none;stroke-dashoffset:0;stroke-opacity:1;marker:none;enable-background:accumulate"/>
  <g id="g4560-6-0-7-2" style="stroke:#cccccc;stroke-width:47.47182465;stroke-miterlimit:4;stroke-dasharray:none">
    <path id="path4063-2-2-8-57-6-0" d="m 5742.1949,3226.1459 c 15.2612,6.9369 47.8444,46.5387 57.5561,61.8 9.7117,15.2612 61.952,28.639 93.9071,-14.112 30.8592,-41.2849 37.2214,-78.2105 41.3836,-93.4718 4.1621,-15.2613 12.4864,-29.1351 13.8738,-56.8829 1.3874,-27.7477 6.937,-88.7927 8.3243,-94.3423 1.3874,-5.5495 -5.5495,-13.8739 -8.3243,-16.6486 -2.7747,-2.7748 2.91,-14.8712 -8.4226,-20.6834 -11.3326,-5.8122 -23.0205,-1.1631 -38.1609,-2.5879 -15.1402,-1.4247 -37.1946,-0.6457 -46.8181,-6.0752 -12.9219,-7.2903 -44.5668,-3.6661 -56.7179,-6.237 -12.151,-2.5709 -43.1625,-8.4355 -51.4868,-2.8859 -8.3244,5.5495 -10.5898,4.5616 -13.5192,39.4193 -2.9292,34.8577 8.4049,165.5365 8.4049,212.7077 z" style="color:#000000;display:inline;overflow:visible;visibility:visible;fill:#f2f2f2;stroke:#cccccc;stroke-width:47.47182465;stroke-linecap:butt;stroke-linejoin:miter;stroke-miterlimit:4;stroke-dasharray:none;stroke-dashoffset:0;stroke-opacity:1;marker:none;enable-background:accumulate" transform="matrix(0.00533055,0,0,0.00520279,249.73347,130.82041)"/>
    <path id="path4230-5-1-5-9-8" d="m 5852.3115,3180.1773 c 2.9747,-15.5789 -4.6328,-38.916 -4.6328,-49.1082 0,-10.1923 8.3391,-28.7237 11.1188,-35.2097 -5.5594,-0.9265 -11.1188,7.4126 -15.7517,12.972 -3.7062,-6.486 -5.5594,-18.5314 -4.6328,-28.7236 -5.5594,4.6328 -17.6048,19.4579 -14.8251,25.0173 2.7797,5.5595 8.3391,19.458 6.486,22.2377 -1.8532,2.7797 -1.8532,3.7063 2.7797,12.972 4.6328,9.2657 13.8985,29.1939 13.8985,44.4753 0,13.8985 8.3391,23.1643 12.972,30.5768 -7.4126,-12.972 -9.2636,-25.5157 -7.4126,-35.2096 z" style="color:#000000;display:inline;overflow:visible;visibility:visible;fill:#ffffff;stroke:none;stroke-width:15.7275238;marker:none;enable-background:accumulate" transform="matrix(0.00533055,0,0,0.00520279,249.73347,130.82041)"/>
  </g>
  <g id="g4554-2-4-61-7" style="stroke:#cccccc;stroke-width:47.47182465;stroke-miterlimit:4;stroke-dasharray:none">
    <path id="path4063-9-7-7-1-7" d="m 5747.2425,3226.1459 c -15.2612,6.9369 -36.072,81.8558 -45.7837,97.1171 -9.7117,15.2612 -84.6306,29.1351 -109.6036,-18.0361 -24.973,-47.1711 -33.2973,-109.6035 -37.4595,-124.8648 -4.1621,-15.2613 -12.4864,-29.1351 -13.8738,-56.8829 -1.3874,-27.7477 -6.937,-88.7927 -8.3243,-94.3423 -1.3874,-5.5495 5.5495,-13.8739 8.3243,-16.6486 2.7747,-2.7748 -2.7748,-11.0991 8.3243,-16.6487 11.0991,-5.5495 22.1982,-4.1621 36.0721,-4.1621 13.8738,0 51.3333,4.1621 61.045,4.1621 9.7117,0 22.1982,1.3874 33.2973,0 11.0991,-1.3874 38.8468,-9.7117 47.1711,-4.1621 8.3244,5.5495 9.7117,5.5495 15.2613,37.4594 5.5495,31.9099 5.5495,149.8378 5.5495,197.009 z" style="color:#000000;display:inline;overflow:visible;visibility:visible;fill:#f2f2f2;stroke:#cccccc;stroke-width:47.47182465;stroke-linecap:butt;stroke-linejoin:miter;stroke-miterlimit:4;stroke-dasharray:none;stroke-dashoffset:0;stroke-opacity:1;marker:none;enable-background:accumulate" transform="matrix(0.00533055,0,0,0.00520279,249.73347,130.82041)"/>
    <path id="path4228-8-8-3-4-2" d="m 5681.8227,3144.0411 c -0.9265,-19.458 -2.7797,-37.0628 2.7797,-40.7691 5.5594,-3.7063 9.2657,-10.1923 9.2657,-14.8251 0,-4.6329 0,-22.2377 2.7798,-25.944 2.7797,-3.7062 6.4859,-20.3845 11.1188,-27.797 -4.6329,1.8531 -12.972,2.7797 -12.972,2.7797 -0.9266,7.4125 -2.7797,12.0454 -5.5594,16.6782 -2.7797,4.6329 -9.2657,38.9159 -10.1923,43.5488 3.7063,-22.2377 8.3392,-45.4019 11.1189,-51.8879 -3.7063,6.486 -3.7063,7.4125 -8.3392,11.1188 -2.7797,12.0454 -10.1922,53.7411 -12.0454,58.3739 -1.8531,4.6328 0.9266,32.4299 0,37.9894 4.6329,-3.7063 7.4126,-8.3392 12.0454,-9.2657 z" style="color:#000000;display:inline;overflow:visible;visibility:visible;fill:#ffffff;stroke:none;stroke-width:15.7275238;marker:none;enable-background:accumulate" transform="matrix(0.00533055,0,0,0.00520279,249.73347,130.82041)"/>
    <path id="path4238-2-3-4-5-3" d="m 5608.3552,3149.634 0,-24.8969 c -7.8622,-18.3452 -9.1726,-44.5525 3.9311,-52.4147 -1.3104,-2.6208 -10.4829,-10.483 -9.1726,-17.0348 -11.7933,3.9311 -11.7933,9.1726 -10.4829,14.414 1.3104,5.2415 -3.9311,1.3104 -2.6207,14.4141 1.3103,13.1036 -1.3104,23.5866 18.3451,65.5183 z" style="color:#000000;display:inline;overflow:visible;visibility:visible;fill:#ffffff;stroke:none;stroke-width:15.7275238;marker:none;enable-background:accumulate" transform="matrix(0.00533055,0,0,0.00520279,249.73347,130.82041)"/>
    <path id="path4240-0-4-0-6-0" d="m 5631.9418,3106.3919 c 1.3104,-23.5866 5.2415,-57.6561 15.7244,-58.9665 -14.414,-5.2415 -9.1726,-18.3451 7.8622,-23.5866 -18.3451,-1.3104 -26.2073,0 -30.1384,6.5518 -3.9311,6.5519 0,17.0348 -2.6208,19.6555 -2.6207,2.6208 1.3104,10.483 11.7933,10.483 -5.2414,9.1725 -6.5518,18.3451 -11.7933,27.5177 5.2415,10.4829 3.9311,3.9311 9.1726,18.3451 z" style="color:#000000;display:inline;overflow:visible;visibility:visible;fill:#ffffff;stroke:none;stroke-width:15.7275238;marker:none;enable-background:accumulate" transform="matrix(0.00533055,0,0,0.00520279,249.73347,130.82041)"/>
  </g>
  <path id="path4044-9-2-9-8-2-6" d="M 285.08008 145.95508 C 285.02188 145.96076 284.95664 145.97176 284.89258 145.96484 C 284.70303 145.94434 284.39939 146.08392 284.41992 146.16406 C 284.45132 146.28655 284.46266 146.65282 284.67188 146.86719 C 284.81434 146.90999 284.921 146.98671 285.01562 147.07031 C 285.25681 146.86085 285.45019 146.64753 285.59375 146.43359 C 285.4938 146.25447 285.3525 146.08657 285.22461 145.98047 C 285.18846 145.95047 285.13828 145.9494 285.08008 145.95508 z" style="color:#000000;display:inline;overflow:visible;visibility:visible;fill:#f2f2f2;stroke:#cccccc;stroke-width:0.25000003;stroke-linecap:butt;stroke-linejoin:miter;stroke-miterlimit:4;stroke-dasharray:none;stroke-dashoffset:0;stroke-opacity:1;marker:none;enable-background:accumulate"/>
  <path id="path4256-3-1-4-0-1" d="m 285.32184,146.99595 c 0.0349,-0.1159 0.007,-0.2318 -0.0698,-0.30679 0.0349,0.14317 0.0629,0.2318 0.0698,0.30679 z" style="color:#000000;display:inline;overflow:visible;visibility:visible;fill:#ffffff;stroke:none;stroke-width:15.7275238;stroke-miterlimit:4;stroke-dasharray:none;marker:none;enable-background:accumulate"/>
  <path id="path4046-1-48-3-8-8-1" d="M 284.38477 146.03125 C 284.24881 146.02105 284.05035 146.25542 283.99805 146.26562 C 283.94675 146.27562 283.81055 146.32677 283.81055 146.44922 C 283.81055 146.55579 283.81061 146.93993 283.95703 147.1543 C 284.10412 147.27127 284.19754 147.42424 284.29297 147.5625 C 284.46891 147.47722 284.63397 147.38502 284.77734 147.2832 C 284.88982 147.20333 284.9665 147.11404 285.06055 147.0293 C 285.04154 146.91748 285.0145 146.8089 284.9707 146.71484 C 284.81382 146.37797 284.52074 146.04146 284.38477 146.03125 z" style="color:#000000;display:inline;overflow:visible;visibility:visible;fill:#f2f2f2;stroke:#cccccc;stroke-width:0.25000003;stroke-linecap:butt;stroke-linejoin:miter;stroke-miterlimit:4;stroke-dasharray:none;stroke-dashoffset:0;stroke-opacity:1;marker:none;enable-background:accumulate"/>
  <path id="path4242-9-7-23-05-9" d="m 284.38586,147.03004 c 0.0349,0.0818 0.1397,0.2727 0.12573,0.37496 -0.014,0.10227 -0.17463,-0.14316 -0.21654,-0.21134 -0.0419,-0.0682 -0.11176,0 -0.13271,-0.0409 -0.021,-0.0409 -0.14669,-0.29997 -0.18161,-0.32724 -0.0349,-0.0273 -0.0698,-0.0682 -0.014,-0.0954 -0.0349,-0.11589 0.0768,-0.075 0.0768,0.0205 0,0.0954 0.11176,0.29315 0.15367,0.29997 0.0419,0.007 0.021,-0.0409 0.1886,-0.0204 z" style="color:#000000;display:inline;overflow:visible;visibility:visible;fill:#ffffff;stroke:none;stroke-width:15.7275238;stroke-miterlimit:4;stroke-dasharray:none;marker:none;enable-background:accumulate"/>
  <path id="path4258-3-0-7-9-5" d="m 284.73511,147.2482 c -0.021,-0.0954 -0.0908,-0.23861 -0.12573,-0.29316 0.0419,0.13636 0.007,0.14317 0.12573,0.29316 z" style="color:#000000;display:inline;overflow:visible;visibility:visible;fill:#ffffff;stroke:none;stroke-width:15.7275238;stroke-miterlimit:4;stroke-dasharray:none;marker:none;enable-background:accumulate"/>
  <g id="g4568-2-9-5-4" style="stroke:#cccccc;stroke-width:47.47182465;stroke-miterlimit:4;stroke-dasharray:none">
    <path id="path4048-8-3-0-3-3-7" d="m 6202.5139,3206.0066 c 35.3018,18.6391 35.3172,25.5069 64.7481,96.1411 29.4309,70.6342 90.2548,49.0515 103.9892,52.9756 13.7345,3.9241 41.8645,-6.5632 47.0895,-23.5447 7.8482,-25.5068 9.1978,-162.2959 1.9621,-202.0923 -11.7724,-64.7481 -6.3938,-108.0352 -43.1654,-127.534 -29.2389,-15.5045 -53.0362,-54.3315 -77.2452,-61.8647 -16.5829,-5.1602 -36.3624,13.9775 -48.3267,14.7752 -29.4309,1.9621 -62.786,64.748 -76.5204,78.4824 -7.0743,7.0743 -0.3464,157.9752 27.4688,172.6614 z" style="color:#000000;display:inline;overflow:visible;visibility:visible;fill:#f2f2f2;stroke:#cccccc;stroke-width:47.47182465;stroke-linecap:butt;stroke-linejoin:miter;stroke-miterlimit:4;stroke-dasharray:none;stroke-dashoffset:0;stroke-opacity:1;marker:none;enable-background:accumulate" transform="matrix(0.00533055,0,0,0.00520279,249.73347,130.82041)"/>
    <path id="path4226-2-8-2-7-3" d="m 6257.2224,3046.7513 c -2.7797,-7.4126 -7.3269,-5.5505 -8.3391,3.7062 -0.979,8.9537 13.2838,64.3256 28.4647,90.2644 14.144,24.1673 16.3732,51.9341 17.8638,64.4728 1.2471,10.4906 10.1923,8.3391 8.3391,-1e-4 -2.878,-12.9504 -9.2657,-63.9333 -15.7517,-70.4192 -6.486,-6.486 -20.3845,-37.0628 -30.5768,-88.0241 z" style="color:#000000;display:inline;overflow:visible;visibility:visible;fill:#ffffff;stroke:none;stroke-width:15.7275238;marker:none;enable-background:accumulate" transform="matrix(0.00533055,0,0,0.00520279,249.73347,130.82041)"/>
  </g>
  <g id="g4564-0-9-0-0" style="stroke:#cccccc;stroke-width:47.47182465;stroke-miterlimit:4;stroke-dasharray:none">
    <path id="path4050-6-9-9-9-4-7" d="m 5943.8998,3152.6872 c 6.295,-76.564 -12.4035,-151.9871 14.1731,-145.4543 1.1256,-6.0541 8.0549,-15.4438 21.9731,-13.507 18.0493,2.5117 39.7658,-0.076 47.6431,1.485 13.9945,-12.7161 47.5551,-4.127 47.5551,-4.127 0,0 80.6848,-5.7859 98.1912,3.1966 17.5063,8.9826 11.201,55.1327 12.6463,75.0165 1.4455,19.8838 -14.953,163.8435 -21.0652,201.3045 -12.8117,78.5225 -113.8629,109.0338 -147.1534,41.2925 -33.2907,-67.7413 -52.3851,-140.2649 -73.9633,-159.2068 z" style="color:#000000;display:inline;overflow:visible;visibility:visible;fill:#f2f2f2;stroke:#cccccc;stroke-width:47.47182465;stroke-linecap:butt;stroke-linejoin:miter;stroke-miterlimit:4;stroke-dasharray:none;stroke-dashoffset:0;stroke-opacity:1;marker:none;enable-background:accumulate" transform="matrix(0.00533055,0,0,0.00520279,249.73347,130.82041)"/>
    <path id="path4252-4-3-9-1-7" d="m 5991.297,3068.0624 c -9.2657,-44.4754 -1.8532,-63.0067 29.6502,-51.888 -12.972,9.2657 -29.6502,44.4754 -29.6502,51.888 z" style="color:#000000;display:inline;overflow:visible;visibility:visible;fill:#ffffff;stroke:none;stroke-width:15.7275238;marker:none;enable-background:accumulate" transform="matrix(0.00533055,0,0,0.00520279,249.73347,130.82041)"/>
  </g>
  <path id="lowerlip" d="m 275.41359,145.61466 c 0.0722,0.35638 0.18539,1.61224 0.9113,2.43556 1.51926,1.72312 3.30565,0.97771 4.80667,0.97771 1.11511,0 2.48092,1.05851 4.16386,-1.47836 0.67541,-1.01812 0.51194,-1.6296 0.80039,-2.07036 -1.25547,0.4734 -1.60552,0.90471 -1.99048,1.57149 -0.73623,1.27519 -1.70003,0.64265 -3.2242,0.68889 -1.25037,0.0379 -2.88431,0.64845 -3.92337,-0.85101 -0.39378,-0.56826 -1.03677,-1.64719 -1.54417,-1.27392 z" style="display:inline;fill:#e9afaf;stroke:none;enable-background:new"/>
  <path id="upperlip" d="m 284.01874,142.37539 c -1.01614,-0.70384 -2.09428,-0.37572 -3.28762,-0.37572 -1.00109,0 -2.02719,-0.36455 -3.58121,0.72649 -0.47665,0.33465 -1.46963,1.68701 -1.67614,2.8134 -0.1304,-1.48336 0.21375,-2.71067 1.55368,-3.85949 1.36452,-1.16991 2.38446,-0.78499 3.7558,-0.78499 1.39626,0 2.82045,-0.81689 4.37376,0.85108 1.01681,1.09186 1.22181,2.27444 0.8123,3.96784 -0.095,-1.69272 -0.726,-2.4904 -1.95057,-3.33861 z" style="display:inline;fill:#de8787;stroke:none;enable-background:new"/>
</svg>
