<?xml version="1.0" encoding="UTF-8" standalone="no"?>
<svg xmlns="http://www.w3.org/2000/svg" width="560" height="560" id="mouth_shock">
<path d="M276.43 143.827c1.072-2.048 2.407-2.373 4.328-2.49 1.85-.116 3.156 1.538 4.42 2.67-1.128 1.195-1.965 1.924-4.124 1.55-4.563-.788-3.25-1.414-4.625-1.73z" color="#000" overflow="visible" fill="maroon" fill-rule="evenodd"/><path d="M275.937 144.338c.724.044 1.328 1.018 1.855 1.434 1.44 1.136 3.94 1.324 5.964.224.715-.39 1.09-1.465 1.687-1.796-.232-.636-1.964-.302-2.908.268-1.59.96-2.793.5-3.38.15-1.693-1.017-3.066-1.033-3.422-.423z" color="#000" overflow="visible" fill="#e9afaf" fill-rule="evenodd"/>
<path d="M275.378 144.417c1.203.365 2.255-1.785 2.99-2.334.712-.53 1.732.122 2.493.134.7.01 1.42-.503 2.185-.03 1.19.737 1.528 2.857 3.164 2.156-.8-.336-1.478-2.922-3-3.69-.607-.304-1.52.28-2.31.27-.793-.01-1.427-.67-2.23-.333-2.052.86-2.356 3.747-3.292 3.827z" color="#000" overflow="visible" fill="#de8787" fill-rule="evenodd"/>
</svg>
