<?xml version="1.0" encoding="UTF-8" standalone="no"?>
<svg xmlns="http://www.w3.org/2000/svg" id="mouth_melancholy" width="560" height="560">
  <path id="path43930" d="m 275.43679,142.37483 c 1.01399,0.009 1.39826,0.71018 1.88671,0.89941 0.8497,0.32918 2.02457,0.42483 3.29517,0.42483 1.53571,0 2.6114,-0.2179 3.75995,-0.52617 0.6985,-0.18751 0.77211,-1.20241 1.62837,-0.97365 -1.3749,-1.2751 -8.42021,-0.83775 -10.5702,0.17555 z" style="display:inline;fill:#e9afaf;stroke:none;enable-background:new"/>
  <path id="path43932" d="m 283.99354,141.87375 c -0.85607,-0.0918 -2.40715,0.47398 -3.39434,0.47398 -1.00109,0 -1.89967,-0.54265 -3.02929,-0.37458 -1.07089,0.15933 -1.28808,0.0947 -2.01836,0.42662 0.28163,-0.77622 2.06867,-1.32137 2.59998,-1.39318 1.51007,-0.20411 1.51094,0.27365 2.54963,0.27365 1.17654,0 1.45849,-0.3627 2.64794,-0.2827 1.05218,0.0708 2.43798,0.32519 2.73311,1.21925 -0.62546,-0.49458 -1.47284,-0.27702 -2.08867,-0.34304 z" style="display:inline;fill:#de8787;stroke:none;enable-background:new"/>
</svg>
