<?xml version="1.0" encoding="UTF-8" standalone="no"?>
<svg xmlns="http://www.w3.org/2000/svg" id="mouth_caged" width="560" height="560">
  <path id="path66370" d="m 280.84793,148.32735 c -1.23871,0 -5.06464,-0.11796 -5.64659,-2.72695 -0.20189,-0.90508 0.40944,-2.7536 2.04393,-3.8471 0.96692,-0.64689 2.54428,-0.92239 3.58928,-0.92016 1.11642,0.002 3.29243,0.43158 3.8533,1.02271 1.61876,1.70606 1.78124,2.72847 1.79398,3.59709 0.006,0.38271 -0.81284,1.19681 -1.70457,1.83004 -1.06563,0.75677 -3.19656,1.04437 -3.92933,1.04437 z" style="color:#000000;display:inline;overflow:visible;visibility:visible;fill:#800000;fill-opacity:1;fill-rule:evenodd;stroke:#de8787;stroke-width:0.12364834;stroke-linecap:butt;stroke-linejoin:miter;stroke-miterlimit:4;stroke-dasharray:none;stroke-dashoffset:0;stroke-opacity:1;marker:none;enable-background:accumulate"/>
  <path id="path66372" d="m 282.45902,141.23957 c -0.0478,0.008 -0.0808,0.0248 -0.13137,0.0309 -0.22349,0.027 -0.47471,0.0397 -0.74189,0.0386 -0.53436,-0.002 -1.13781,-0.0493 -1.73881,-0.085 -0.21291,-0.0126 -0.40149,2.3e-4 -0.61051,-0.008 -0.87817,0.78418 -1.09738,2.22581 -1.09738,3.18395 0,1.36241 0.13825,4.49999 1.56879,3.13757 0.81745,-0.54496 2.29575,0.10968 2.73826,0.0375 1.58723,-0.25884 1.28031,-0.92281 1.28031,-2.96644 0,-1.36465 -0.37611,-2.65364 -1.2674,-3.36941 z" style="color:#000000;display:inline;overflow:visible;visibility:visible;fill:#550000;fill-opacity:1;fill-rule:evenodd;stroke:none;stroke-width:0.5;marker:none;enable-background:accumulate"/>
  <path id="path66374" d="m 280.98196,145.90884 c -2.76853,0 -3.13749,-0.65629 -3.13749,-2.10776 0,-1.27848 1.25193,-2.3004 2.03721,-2.3004 0.99387,0 1.31834,0.80557 0.83578,1.13251 -1.62688,1.10224 2.02038,1.36675 1.04473,0.10617 -0.47819,-0.61784 0.20677,-1.20329 0.83578,-1.20329 0.57697,0 1.61669,0.39683 1.61669,1.89718 0,1.50035 -1.24772,2.54638 -3.2327,2.47559 z" style="color:#000000;display:inline;overflow:visible;visibility:visible;fill:#000000;fill-opacity:1;fill-rule:evenodd;stroke:#000000;stroke-width:0.12364835;stroke-linecap:butt;stroke-linejoin:miter;stroke-miterlimit:4;stroke-dasharray:none;stroke-dashoffset:0;stroke-opacity:1;marker:none;enable-background:accumulate"/>
  <path id="path66376" d="m 281.25368,144.72011 c -1.04462,-0.12511 -4.16959,-2.03379 -5.11595,1.15149 -5e-4,0.0174 0.008,0.0366 0.008,0.0541 1.1015,1.06796 3.62514,2.40342 4.70637,2.40342 0.73278,0 3.69434,-1.15323 4.76819,-2.04793 -0.39048,-3.91751 -3.57459,-1.46622 -4.36661,-1.56108 z" style="color:#000000;display:inline;overflow:visible;visibility:visible;fill:#a02c2c;fill-opacity:1;fill-rule:evenodd;stroke:#501616;stroke-width:0.12364834;stroke-linecap:butt;stroke-linejoin:miter;stroke-miterlimit:4;stroke-dasharray:none;stroke-dashoffset:0;stroke-opacity:1;marker:none;enable-background:accumulate"/>
  <path id="path66378" d="m 281.12041,145.1938 c -5.2549,-3.21837 -4.63222,1.94076 0,1.53203 4.63221,-0.40872 4.7001,-4.28521 0,-1.53203 z" style="color:#000000;display:inline;overflow:visible;visibility:visible;fill:#b85757;fill-opacity:1;fill-rule:evenodd;stroke:none;stroke-width:0.5;marker:none;enable-background:accumulate"/>
  <path id="path66382" d="M 275.21289 145.63867 C 275.29218 145.97111 275.42629 146.2622 275.59961 146.51758 C 275.68892 146.50584 275.77525 146.48633 275.86523 146.48633 C 276.01314 145.93774 275.65935 145.7207 275.54102 145.7207 C 275.48424 145.7207 275.35061 145.67724 275.21289 145.63867 z" style="color:#000000;display:inline;overflow:visible;visibility:visible;fill:#f2f2f2;stroke:#cccccc;stroke-width:0.25000003;stroke-linecap:butt;stroke-linejoin:miter;stroke-miterlimit:4;stroke-dasharray:none;stroke-dashoffset:0;stroke-opacity:1;marker:none;enable-background:accumulate"/>
  <path id="path66384" d="M 275.91016 145.95312 C 275.79183 145.99642 275.80557 145.95157 275.61328 145.98047 C 275.49063 145.99888 275.42303 146.05451 275.37695 146.11719 C 275.5085 146.41113 275.68639 146.66572 275.90039 146.88672 C 276.02805 146.81239 276.15279 146.7474 276.25 146.73242 C 276.37612 146.48062 276.39311 146.19384 276.38281 146.08203 C 276.3976 145.981 276.02848 145.90983 275.91016 145.95312 z" style="color:#000000;display:inline;overflow:visible;visibility:visible;fill:#f2f2f2;stroke:#cccccc;stroke-width:0.25000003;stroke-linecap:butt;stroke-linejoin:miter;stroke-miterlimit:4;stroke-dasharray:none;stroke-dashoffset:0;stroke-opacity:1;marker:none;enable-background:accumulate"/>
  <path id="path66386" d="m 276.8396,146.86768 c -0.27194,0.0817 -0.53341,0.32666 -0.70075,0.46958 -0.16734,0.14291 -0.37652,0.22458 -0.36606,0.0715 0.0105,-0.15313 0.0418,-0.57166 0.15688,-0.83708 0.11505,-0.26541 0.25102,-0.42874 0.46019,-0.60228 0.20918,-0.17354 0.73212,0.0715 0.70075,0.19396 -0.0314,0.12249 -0.0418,0.48999 -0.25101,0.70436 z" style="color:#000000;display:inline;overflow:visible;visibility:visible;fill:#f2f2f2;stroke:#cccccc;stroke-width:0.25000003;stroke-linecap:butt;stroke-linejoin:miter;stroke-miterlimit:4;stroke-dasharray:none;stroke-dashoffset:0;stroke-opacity:1;marker:none;enable-background:accumulate"/>
  <path id="path66388" d="m 277.38346,147.05143 c -0.28239,0.22458 -0.51249,0.63291 -0.79488,0.7452 -0.28239,0.11229 -0.27193,-0.0408 -0.25101,-0.18375 0.0209,-0.14292 -0.0732,-0.56145 0.0837,-0.89832 0.15688,-0.33687 0.44973,-0.67374 0.5857,-0.68395 0.13596,-0.0102 0.40789,0.11229 0.43927,0.15312 0.0314,0.0408 0.16734,0.16333 0.13596,0.26542 -0.0314,0.10208 -0.0523,0.38791 -0.19871,0.60228 z" style="color:#000000;display:inline;overflow:visible;visibility:visible;fill:#f2f2f2;stroke:#cccccc;stroke-width:0.25000003;stroke-linecap:butt;stroke-linejoin:miter;stroke-miterlimit:4;stroke-dasharray:none;stroke-dashoffset:0;stroke-opacity:1;marker:none;enable-background:accumulate"/>
  <path id="path66392" d="m 278.15741,147.48017 c -0.16726,0.005 -0.23009,0.0408 -0.38698,0.40833 -0.15688,0.3675 -0.3556,0.3675 -0.42881,0.38791 -0.0732,0.0204 -0.26147,-0.0306 -0.25101,-0.1225 0.0105,-0.0919 -0.0628,-0.78603 0.0209,-0.97998 0.0837,-0.19396 0.11504,-0.59208 0.27193,-0.7452 0.15688,-0.15312 0.26147,-0.27562 0.41835,-0.26541 0.15688,0.0102 0.52294,0.41853 0.51249,0.46957 -0.0105,0.051 0.0107,0.84217 -0.15689,0.84728 z" style="color:#000000;display:inline;overflow:visible;visibility:visible;fill:#f2f2f2;stroke:#cccccc;stroke-width:0.25000003;stroke-linecap:butt;stroke-linejoin:miter;stroke-miterlimit:4;stroke-dasharray:none;stroke-dashoffset:0;stroke-opacity:1;marker:none;enable-background:accumulate"/>
  <path id="path66394" d="m 277.87671,146.60219 c 0.0403,0.0358 0.0632,0.0861 0.0209,0.11107 -0.0212,0.0125 -0.0603,0.06 -0.0524,0.12095 0.005,0.0364 -0.0463,0.22826 -0.0812,0.27082 -0.0559,0.0682 -0.0838,-0.0545 -0.0349,-0.1159 0.0489,-0.0614 0.0768,-0.10908 0.0698,-0.12953 -0.007,-0.0205 -0.014,-0.0477 0.021,-0.10908 0.0349,-0.0614 0.037,-0.0858 0.016,-0.10626 -0.0209,-0.0205 -0.001,-0.0796 0.0407,-0.0421 z" style="color:#000000;display:inline;overflow:visible;visibility:visible;fill:#ffffff;stroke:none;stroke-width:15.7275238;stroke-miterlimit:4;stroke-dasharray:none;marker:none;enable-background:accumulate"/>
  <path id="path66396" d="m 277.56103,147.49636 c 0,0 0.079,0 0.10866,-0.0289 0.0296,-0.0289 0,-0.12534 0,-0.12534 0,0 0.0197,-0.0675 -0.0198,-0.0868 -0.0395,-0.0193 -0.0988,0.01 -0.0889,0.0579 0.01,0.0482 0.0494,0.0964 0,0.18318 z" style="color:#000000;display:inline;overflow:visible;visibility:visible;fill:#ffffff;stroke:none;stroke-width:15.7275238;stroke-miterlimit:4;stroke-dasharray:none;marker:none;enable-background:accumulate"/>
  <path id="path66398" d="m 279.30789,147.52101 c 0.0837,-0.245 0.0941,-1.02082 -0.11505,-0.97999 -0.0523,-0.051 -0.13596,-0.0613 -0.19872,-0.051 -0.0627,-0.0715 -0.21963,-0.0408 -0.21963,-0.0408 0,0 -0.39744,-0.0715 -0.49157,-0.0306 -0.0941,0.0408 -0.0732,0.28583 -0.0941,0.38791 -0.0209,0.10208 0.10459,0.90853 0.12551,1.10249 0.0209,0.19395 0.40789,0.48999 0.58569,0.14291 0.1778,-0.34708 0.29285,-0.43895 0.4079,-0.53082 z" style="color:#000000;display:inline;overflow:visible;visibility:visible;fill:#f2f2f2;stroke:#cccccc;stroke-width:0.25000003;stroke-linecap:butt;stroke-linejoin:miter;stroke-miterlimit:4;stroke-dasharray:none;stroke-dashoffset:0;stroke-opacity:1;marker:none;enable-background:accumulate"/>
  <path id="path66404" d="m 280.34253,147.60537 c 0.0813,0.0361 0.25503,0.24213 0.3068,0.32153 0.0518,0.0794 0.33024,0.149 0.50058,-0.0734 0.1645,-0.2148 0.19841,-0.40691 0.2206,-0.48631 0.0222,-0.0794 0.0666,-0.15159 0.0739,-0.29595 0.007,-0.14437 0.037,-0.46197 0.0444,-0.49085 0.007,-0.0289 -0.0296,-0.0722 -0.0444,-0.0866 -0.0148,-0.0144 0.0155,-0.0774 -0.0449,-0.10761 -0.0604,-0.0302 -0.12271,-0.006 -0.20341,-0.0135 -0.0807,-0.007 -0.19827,-0.003 -0.24957,-0.0316 -0.0689,-0.0379 -0.23757,-0.0191 -0.30234,-0.0325 -0.0648,-0.0134 -0.23008,-0.0439 -0.27445,-0.015 -0.0444,0.0289 -0.0565,0.0237 -0.0721,0.20509 -0.0156,0.18135 0.0448,0.86125 0.0448,1.10667 z" style="color:#000000;display:inline;overflow:visible;visibility:visible;fill:#f2f2f2;stroke:#cccccc;stroke-width:0.25000003;stroke-linecap:butt;stroke-linejoin:miter;stroke-miterlimit:4;stroke-dasharray:none;stroke-dashoffset:0;stroke-opacity:1;marker:none;enable-background:accumulate"/>
  <path id="path66406" d="m 280.92951,147.3662 c 0.0159,-0.0811 -0.0247,-0.20247 -0.0247,-0.25549 0,-0.053 0.0445,-0.14945 0.0593,-0.18319 -0.0296,-0.005 -0.0593,0.0386 -0.084,0.0675 -0.0198,-0.0337 -0.0296,-0.0964 -0.0247,-0.14945 -0.0296,0.0241 -0.0938,0.10124 -0.079,0.13016 0.0148,0.0289 0.0444,0.10124 0.0346,0.1157 -0.01,0.0145 -0.01,0.0193 0.0148,0.0675 0.0247,0.0482 0.0741,0.15189 0.0741,0.2314 0,0.0723 0.0445,0.12052 0.0691,0.15908 -0.0395,-0.0675 -0.0494,-0.13275 -0.0395,-0.18319 z" style="color:#000000;display:inline;overflow:visible;visibility:visible;fill:#ffffff;stroke:none;stroke-width:15.7275238;stroke-miterlimit:4;stroke-dasharray:none;marker:none;enable-background:accumulate"/>
  <path id="path66410" d="m 280.36943,147.60537 c -0.0814,0.0361 -0.19228,0.42588 -0.24405,0.50528 -0.0518,0.0794 -0.45113,0.15158 -0.58425,-0.0938 -0.13312,-0.24542 -0.17749,-0.57024 -0.19968,-0.64964 -0.0222,-0.0794 -0.0666,-0.15159 -0.074,-0.29595 -0.007,-0.14437 -0.037,-0.46197 -0.0444,-0.49085 -0.007,-0.0289 0.0296,-0.0722 0.0444,-0.0866 0.0148,-0.0144 -0.0148,-0.0577 0.0444,-0.0866 0.0592,-0.0289 0.11833,-0.0216 0.19229,-0.0216 0.0739,0 0.27363,0.0216 0.3254,0.0216 0.0518,0 0.11833,0.007 0.17749,0 0.0592,-0.007 0.20708,-0.0505 0.25145,-0.0216 0.0444,0.0289 0.0518,0.0289 0.0813,0.19489 0.0296,0.16602 0.0296,0.77958 0.0296,1.025 z" style="color:#000000;display:inline;overflow:visible;visibility:visible;fill:#f2f2f2;stroke:#cccccc;stroke-width:0.25000003;stroke-linecap:butt;stroke-linejoin:miter;stroke-miterlimit:4;stroke-dasharray:none;stroke-dashoffset:0;stroke-opacity:1;marker:none;enable-background:accumulate"/>
  <path id="path66412" d="m 280.02071,147.1782 c -0.005,-0.10124 -0.0148,-0.19283 0.0148,-0.21212 0.0296,-0.0193 0.0494,-0.053 0.0494,-0.0771 0,-0.0241 0,-0.1157 0.0148,-0.13498 0.0148,-0.0193 0.0346,-0.10606 0.0593,-0.14462 -0.0247,0.01 -0.0692,0.0145 -0.0692,0.0145 -0.005,0.0386 -0.0148,0.0627 -0.0296,0.0868 -0.0148,0.0241 -0.0494,0.20247 -0.0543,0.22658 0.0198,-0.1157 0.0445,-0.23622 0.0593,-0.26996 -0.0197,0.0337 -0.0197,0.0386 -0.0444,0.0579 -0.0148,0.0627 -0.0543,0.2796 -0.0642,0.3037 -0.01,0.0241 0.005,0.16873 0,0.19765 0.0247,-0.0193 0.0395,-0.0434 0.0642,-0.0482 z" style="color:#000000;display:inline;overflow:visible;visibility:visible;fill:#ffffff;stroke:none;stroke-width:15.7275238;stroke-miterlimit:4;stroke-dasharray:none;marker:none;enable-background:accumulate"/>
  <path id="path66414" d="m 279.62909,147.20729 0,-0.12953 c -0.0419,-0.0954 -0.0489,-0.2318 0.0209,-0.2727 -0.007,-0.0136 -0.0559,-0.0545 -0.0489,-0.0886 -0.0629,0.0205 -0.0629,0.0477 -0.0559,0.075 0.007,0.0273 -0.021,0.007 -0.014,0.075 0.007,0.0682 -0.007,0.12271 0.0978,0.34087 z" style="color:#000000;display:inline;overflow:visible;visibility:visible;fill:#ffffff;stroke:none;stroke-width:15.7275238;stroke-miterlimit:4;stroke-dasharray:none;marker:none;enable-background:accumulate"/>
  <path id="path66416" d="m 279.75482,146.98231 c 0.007,-0.12271 0.0279,-0.29997 0.0838,-0.30679 -0.0768,-0.0273 -0.0489,-0.0954 0.0419,-0.12271 -0.0978,-0.007 -0.1397,0 -0.16066,0.0341 -0.021,0.0341 0,0.0886 -0.014,0.10226 -0.014,0.0136 0.007,0.0545 0.0629,0.0545 -0.0279,0.0477 -0.0349,0.0954 -0.0629,0.14317 0.0279,0.0545 0.021,0.0205 0.0489,0.0954 z" style="color:#000000;display:inline;overflow:visible;visibility:visible;fill:#ffffff;stroke:none;stroke-width:15.7275238;stroke-miterlimit:4;stroke-dasharray:none;marker:none;enable-background:accumulate"/>
  <path id="path66420" d="M 286.20703 145.74609 C 286.01475 145.71719 285.90156 145.91486 285.77539 145.92188 C 285.63615 145.92988 285.46619 145.89964 285.35547 146.16406 C 285.34675 146.25869 285.46947 146.42903 285.58398 146.62891 C 285.92311 146.32464 286.21071 146.02492 286.35938 145.78125 C 286.31072 145.76835 286.26645 145.75501 286.20703 145.74609 z" style="color:#000000;display:inline;overflow:visible;visibility:visible;fill:#f2f2f2;stroke:#cccccc;stroke-width:0.25000003;stroke-linecap:butt;stroke-linejoin:miter;stroke-miterlimit:4;stroke-dasharray:none;stroke-dashoffset:0;stroke-opacity:1;marker:none;enable-background:accumulate"/>
  <path id="path66422" d="m 285.99939,146.58008 c -0.0908,-0.0818 -0.34925,-0.19089 -0.33528,-0.25225 -0.0419,0.0341 -0.0559,-0.0205 -0.10478,-0.0682 0.007,0.12954 0.0419,0.15681 0.16066,0.19771 0.11874,0.0409 0.20955,0.0886 0.2794,0.12272 z" style="color:#000000;display:inline;overflow:visible;visibility:visible;fill:#ffffff;stroke:none;stroke-width:15.7275238;stroke-miterlimit:4;stroke-dasharray:none;marker:none;enable-background:accumulate"/>
  <path id="path66426" d="M 285.08008 145.95508 C 285.02188 145.96076 284.95664 145.97176 284.89258 145.96484 C 284.70303 145.94434 284.39939 146.08392 284.41992 146.16406 C 284.45132 146.28655 284.46266 146.65282 284.67188 146.86719 C 284.823 146.91259 284.93252 146.99643 285.03125 147.08594 C 285.25854 146.91274 285.46636 146.73732 285.66016 146.55859 C 285.56828 146.33365 285.38236 146.11134 285.22461 145.98047 C 285.18846 145.95047 285.13828 145.9494 285.08008 145.95508 z" style="color:#000000;display:inline;overflow:visible;visibility:visible;fill:#f2f2f2;stroke:#cccccc;stroke-width:0.25000003;stroke-linecap:butt;stroke-linejoin:miter;stroke-miterlimit:4;stroke-dasharray:none;stroke-dashoffset:0;stroke-opacity:1;marker:none;enable-background:accumulate"/>
  <path id="path66428" d="m 285.32184,146.99595 c 0.0349,-0.1159 0.007,-0.2318 -0.0698,-0.30679 0.0349,0.14317 0.0629,0.2318 0.0698,0.30679 z" style="color:#000000;display:inline;overflow:visible;visibility:visible;fill:#ffffff;stroke:none;stroke-width:15.7275238;stroke-miterlimit:4;stroke-dasharray:none;marker:none;enable-background:accumulate"/>
  <path id="path66432" d="m 283.9566,147.15351 c 0.28239,0.22458 0.36606,0.59208 0.64845,0.70437 0.28239,0.11229 0.47372,0.0625 0.48111,-0.0817 0.0105,-0.20416 0.0418,-0.72478 -0.11505,-1.06165 -0.15688,-0.33687 -0.44973,-0.67374 -0.5857,-0.68395 -0.13596,-0.0102 -0.33468,0.22458 -0.38698,0.23479 -0.0513,0.01 -0.18825,0.0613 -0.18825,0.18375 0,0.10657 0,0.48999 0.14642,0.70436 z" style="color:#000000;display:inline;overflow:visible;visibility:visible;fill:#f2f2f2;stroke:#cccccc;stroke-width:0.25000003;stroke-linecap:butt;stroke-linejoin:miter;stroke-miterlimit:4;stroke-dasharray:none;stroke-dashoffset:0;stroke-opacity:1;marker:none;enable-background:accumulate"/>
  <path id="path66434" d="m 284.38586,147.03004 c 0.0349,0.0818 0.1397,0.2727 0.12573,0.37496 -0.014,0.10227 -0.17463,-0.14316 -0.21654,-0.21134 -0.0419,-0.0682 -0.11176,0 -0.13271,-0.0409 -0.021,-0.0409 -0.14669,-0.29997 -0.18161,-0.32724 -0.0349,-0.0273 -0.0698,-0.0682 -0.014,-0.0954 -0.0349,-0.11589 0.0768,-0.075 0.0768,0.0205 0,0.0954 0.11176,0.29315 0.15367,0.29997 0.0419,0.007 0.021,-0.0409 0.1886,-0.0204 z" style="color:#000000;display:inline;overflow:visible;visibility:visible;fill:#ffffff;stroke:none;stroke-width:15.7275238;stroke-miterlimit:4;stroke-dasharray:none;marker:none;enable-background:accumulate"/>
  <path id="path66436" d="m 284.73511,147.2482 c -0.021,-0.0954 -0.0908,-0.23861 -0.12573,-0.29316 0.0419,0.13636 0.007,0.14317 0.12573,0.29316 z" style="color:#000000;display:inline;overflow:visible;visibility:visible;fill:#ffffff;stroke:none;stroke-width:15.7275238;stroke-miterlimit:4;stroke-dasharray:none;marker:none;enable-background:accumulate"/>
  <path id="path66440" d="m 282.79628,147.50059 c 0.18818,0.097 0.18826,0.13271 0.34514,0.5002 0.15689,0.3675 0.48111,0.25521 0.55432,0.27562 0.0732,0.0204 0.22316,-0.0341 0.25102,-0.1225 0.0418,-0.1327 0.049,-0.84439 0.0105,-1.05144 -0.0628,-0.33687 -0.0341,-0.56208 -0.2301,-0.66353 -0.15586,-0.0807 -0.28271,-0.28268 -0.41176,-0.32187 -0.0884,-0.0269 -0.19383,0.0727 -0.25761,0.0769 -0.15688,0.0102 -0.33468,0.33687 -0.40789,0.40833 -0.0377,0.0368 -0.002,0.82191 0.14642,0.89832 z" style="color:#000000;display:inline;overflow:visible;visibility:visible;fill:#f2f2f2;stroke:#cccccc;stroke-width:0.25000003;stroke-linecap:butt;stroke-linejoin:miter;stroke-miterlimit:4;stroke-dasharray:none;stroke-dashoffset:0;stroke-opacity:1;marker:none;enable-background:accumulate"/>
  <path id="path66442" d="m 283.08791,146.67202 c -0.0148,-0.0386 -0.0391,-0.0289 -0.0445,0.0193 -0.005,0.0466 0.0708,0.33467 0.15174,0.46963 0.0754,0.12573 0.0873,0.2702 0.0952,0.33543 0.007,0.0546 0.0543,0.0434 0.0444,0 -0.0153,-0.0674 -0.0494,-0.33263 -0.084,-0.36637 -0.0346,-0.0337 -0.10866,-0.19283 -0.16299,-0.45797 z" style="color:#000000;display:inline;overflow:visible;visibility:visible;fill:#ffffff;stroke:none;stroke-width:15.7275238;stroke-miterlimit:4;stroke-dasharray:none;marker:none;enable-background:accumulate"/>
  <path id="path66446" d="m 281.41773,147.22318 c 0.0335,-0.39835 -0.0661,-0.79076 0.0756,-0.75677 0.006,-0.0315 0.0429,-0.0804 0.11712,-0.0703 0.0962,0.0131 0.21198,-4e-4 0.25397,0.008 0.0746,-0.0662 0.25349,-0.0215 0.25349,-0.0215 0,0 0.4301,-0.0301 0.52342,0.0166 0.0933,0.0467 0.0597,0.28685 0.0674,0.3903 0.008,0.10345 -0.0797,0.85244 -0.11229,1.04734 -0.0683,0.40854 -0.60695,0.56728 -0.78441,0.21484 -0.17746,-0.35244 -0.27924,-0.72977 -0.39426,-0.82832 z" style="color:#000000;display:inline;overflow:visible;visibility:visible;fill:#f2f2f2;stroke:#cccccc;stroke-width:0.25000003;stroke-linecap:butt;stroke-linejoin:miter;stroke-miterlimit:4;stroke-dasharray:none;stroke-dashoffset:0;stroke-opacity:1;marker:none;enable-background:accumulate"/>
  <path id="path66448" d="m 281.67038,146.78289 c -0.0494,-0.23139 -0.01,-0.32781 0.15805,-0.26996 -0.0692,0.0482 -0.15805,0.2314 -0.15805,0.26996 z" style="color:#000000;display:inline;overflow:visible;visibility:visible;fill:#ffffff;stroke:none;stroke-width:15.7275238;stroke-miterlimit:4;stroke-dasharray:none;marker:none;enable-background:accumulate"/>
  <path id="path67300" d="m 280.84793,148.32734 c -1.23871,0 -3.5026,0.11871 -5.22058,-2.2536 -0.54391,-0.75106 0.2201,-2.94294 1.85459,-4.03644 0.96692,-0.64689 2.40228,-0.59105 3.44728,-0.58882 1.11642,0.002 3.19776,-0.18377 3.75863,0.40736 1.61875,1.70606 1.59189,2.7758 1.36796,3.59709 -0.10068,0.36927 -0.38683,1.19681 -1.27855,1.83004 -1.06563,0.75677 -3.19656,1.04437 -3.92933,1.04437 z" style="color:#000000;display:inline;overflow:visible;visibility:visible;fill:none;stroke:#de8787;stroke-width:0.00065117;stroke-linecap:butt;stroke-linejoin:miter;stroke-miterlimit:4;stroke-dasharray:none;stroke-dashoffset:0;stroke-opacity:1;marker:none;enable-background:accumulate"/>
  <path id="path66470" d="m 276.19248,141.03751 c -0.0559,0.12953 -0.014,0.29316 0.0559,0.51814 -0.0279,-0.25907 0.007,-0.43633 -0.0559,-0.51814 z" style="color:#000000;display:inline;overflow:visible;visibility:visible;fill:#ffffff;stroke:none;stroke-width:15.7275238;stroke-miterlimit:4;stroke-dasharray:none;marker:none;enable-background:accumulate"/>
  <path id="path66480" d="M 278.74805 141.12891 C 278.2056 141.27478 277.68074 141.46847 277.26758 141.74023 C 277.27437 141.9083 277.29242 142.05079 277.32812 142.10742 C 277.44509 142.29292 277.53243 142.26367 277.63477 142.26367 C 277.70787 142.36357 277.73651 142.33451 277.82422 142.32031 C 277.98504 142.43447 278.26373 142.2936 278.29297 142.2793 C 278.32217 142.265 278.45253 142.29312 278.64258 142.15039 C 278.82865 142.01069 278.84342 142.03725 278.74805 141.12891 z" style="color:#000000;display:inline;overflow:visible;visibility:visible;fill:#f2f2f2;stroke:#cccccc;stroke-width:0.25000003;stroke-linecap:butt;stroke-linejoin:miter;stroke-miterlimit:4;stroke-dasharray:none;stroke-dashoffset:0;stroke-opacity:1;marker:none;enable-background:accumulate"/>
  <path id="path66482" d="m 278.48164,141.90347 c -0.0209,0.27562 -0.0628,0.10208 -0.12551,-0.0204 -0.0627,-0.1225 -0.12551,-0.46958 -0.1778,-0.58187 0.0732,0.18375 0.15688,0.35729 0.20918,0.3675 0.0418,0.0919 0.0627,0.17354 0.0941,0.23479 z" style="color:#000000;display:inline;overflow:visible;visibility:visible;fill:#ffffff;stroke:none;stroke-width:15.7275238;stroke-miterlimit:4;stroke-dasharray:none;marker:none;enable-background:accumulate"/>
  <path id="path66486" d="M 283.72656 141.35938 C 283.66917 141.54231 283.63595 142.0705 283.75781 142.16406 C 283.89059 142.26601 283.92564 142.30613 284.07031 142.44141 C 284.19495 142.55797 284.40866 142.65554 284.55859 142.68164 C 284.73196 142.71183 284.78777 142.66433 284.85547 142.50586 C 284.89943 142.40299 284.92718 142.29102 284.95312 142.15625 C 284.86421 142.05629 284.78714 141.96048 284.6875 141.85547 C 284.5095 141.66786 284.14442 141.50593 283.72656 141.35938 z" style="color:#000000;display:inline;overflow:visible;visibility:visible;fill:#f2f2f2;stroke:#cccccc;stroke-width:0.25000003;stroke-linecap:butt;stroke-linejoin:miter;stroke-miterlimit:4;stroke-dasharray:none;stroke-dashoffset:0;stroke-opacity:1;marker:none;enable-background:accumulate"/>
  <path id="path66488" d="m 284.52556,140.76481 c -0.0559,0.10908 -0.0978,0.21816 -0.11176,0.36815 -0.0279,-0.25907 -0.0279,-0.27271 0.11176,-0.36815 z" style="color:#000000;display:inline;overflow:visible;visibility:visible;fill:#ffffff;stroke:none;stroke-width:15.7275238;stroke-miterlimit:4;stroke-dasharray:none;marker:none;enable-background:accumulate"/>
  <path id="path66490" d="m 284.38586,141.1875 c 0.0419,0.16362 0.0279,0.32724 0,0.40905 -0.0279,0.0818 -0.18161,0.35451 -0.19558,0.53177 -0.0419,-0.0954 -0.0838,-0.13635 -0.0838,-0.13635 l 0.0838,-0.19089 -0.12573,0.17725 -0.0978,-0.10908 c 0.16764,-0.0682 0.22352,-0.17725 0.22352,-0.23179 0,-0.0545 0.014,-0.12272 0.0699,-0.17726 -0.0419,0.0955 0,0.21816 -0.0559,0.31361 0.11176,-0.12272 0.1397,-0.17726 0.12573,-0.2318 -0.014,-0.0545 -0.0419,-0.0954 0,-0.13635 0.0419,-0.0409 0.0559,-0.14999 0.0559,-0.21816 z" style="color:#000000;display:inline;overflow:visible;visibility:visible;fill:#ffffff;stroke:none;stroke-width:15.7275238;stroke-miterlimit:4;stroke-dasharray:none;marker:none;enable-background:accumulate"/>
  <path id="path66492" d="m 284.63732,141.90334 c 0.007,0.10908 -0.0629,0.19089 -0.0559,0.25225 0.007,0.0614 -0.0419,0.0545 -0.0419,0.0273 0,-0.0273 -0.0349,-0.0477 0.007,-0.0954 0.0419,-0.0477 0.0629,-0.15681 0.0908,-0.18408 z" style="color:#000000;display:inline;overflow:visible;visibility:visible;fill:#ffffff;stroke:none;stroke-width:15.7275238;stroke-miterlimit:4;stroke-dasharray:none;marker:none;enable-background:accumulate"/>
  <path id="path66496" d="m 282.37253,141.18081 c 0.26504,-0.24489 0.29668,-0.36087 0.49419,-0.57491 0.13984,-0.15155 0.49696,-0.35218 0.80468,0.20616 0.0686,0.12447 0.0799,0.26158 0.1176,0.39884 0.0871,0.31717 0.0668,0.6345 0.047,0.79524 -0.0275,0.22406 -0.0679,0.17919 -0.18294,0.27245 -0.10102,0.0819 -0.38145,0.11466 -0.58374,0.0859 -0.10709,0.0564 -0.22886,0.0201 -0.37877,5.1e-4 -0.10997,-0.0144 -0.27682,-0.0203 -0.29147,-0.27279 -0.0361,-0.47478 -0.0611,-0.75228 -0.0265,-0.91145 z" style="color:#000000;display:inline;overflow:visible;visibility:visible;fill:#f2f2f2;stroke:#cccccc;stroke-width:0.25000003;stroke-linecap:butt;stroke-linejoin:miter;stroke-miterlimit:4;stroke-dasharray:none;stroke-dashoffset:0;stroke-opacity:1;marker:none;enable-background:accumulate"/>
  <path id="path66498" d="m 282.86313,141.24204 c 0,0 -0.15367,0.5045 -0.15367,0.5454 0,0.0409 -0.0349,0.12272 -0.0349,0.14999 0,0.0273 0,0.0818 -0.0349,0.14999 0.021,-0.0954 0.014,-0.1909 0.021,-0.23862 0.007,-0.0477 0.0349,-0.12272 0.0489,-0.17044 0.014,-0.0477 -0.007,-0.0545 0.014,-0.0886 0.021,-0.0341 0.03,-0.0642 0.0509,-0.10508 0.021,-0.0409 0.0608,-0.19489 0.0888,-0.24261 z" style="color:#000000;display:inline;overflow:visible;visibility:visible;fill:#ffffff;stroke:none;stroke-width:15.7275238;stroke-miterlimit:4;stroke-dasharray:none;marker:none;enable-background:accumulate"/>
  <path id="path66502" d="M 280.83398 140.83398 C 280.80508 140.83392 280.76797 140.83948 280.73828 140.83984 C 280.68046 140.95075 280.63001 141.07125 280.59766 141.21484 C 280.56319 141.36767 280.48352 142.1565 280.47852 142.33008 C 280.47682 142.38478 280.54688 142.39844 280.54688 142.39844 C 280.54541 142.50594 280.7142 142.45645 280.8125 142.46875 C 281.06691 142.50075 281.42935 142.52029 281.73242 142.49219 C 281.89549 142.47709 282.05557 142.52126 282.13867 142.40039 C 282.40733 142.37957 282.40034 141.95921 282.40234 141.91211 C 282.41127 141.65635 282.34332 141.28181 282.25977 140.99023 C 281.73287 140.89889 281.21869 140.83467 280.83398 140.83398 z" style="color:#000000;display:inline;overflow:visible;visibility:visible;fill:#f2f2f2;stroke:#cccccc;stroke-width:0.25000003;stroke-linecap:butt;stroke-linejoin:miter;stroke-miterlimit:4;stroke-dasharray:none;stroke-dashoffset:0;stroke-opacity:1;marker:none;enable-background:accumulate"/>
  <path id="path66504" d="m 281.89222,142.25104 c 0.014,-0.0886 -0.021,-0.37497 -0.021,-0.44996 0,-0.075 -0.0838,0.075 -0.0978,0.1159 -0.014,0.0409 0.014,0.41587 0.014,0.41587 0,0 0.0699,-0.0614 0.10477,-0.0818 z" style="color:#000000;display:inline;overflow:visible;visibility:visible;fill:#ffffff;stroke:none;stroke-width:15.7275238;stroke-miterlimit:4;stroke-dasharray:none;marker:none;enable-background:accumulate"/>
  <path id="path66506" d="m 280.9702,141.67154 c 0.007,-0.0341 0.0699,-0.32724 0.0699,-0.32724 0,0 -0.0349,-0.0682 -0.014,-0.26588 -0.0279,0.13635 -0.0349,0.18407 -0.0698,0.23179 0.014,0.075 0.021,0.25907 0.014,0.36133 z" style="color:#000000;display:inline;overflow:visible;visibility:visible;fill:#ffffff;stroke:none;stroke-width:15.7275238;stroke-miterlimit:4;stroke-dasharray:none;marker:none;enable-background:accumulate"/>
  <path id="path66510" d="M 280.26953 140.86719 C 279.79904 140.90316 279.29515 140.98352 278.78711 141.11719 C 278.7008 141.58145 278.67188 142.09207 278.67188 142.19336 C 278.67188 142.36459 279.02655 142.58156 279.63672 142.44922 C 279.97297 142.46352 280.51462 142.47751 280.5 142.2207 C 280.49 142.04738 280.48428 141.36535 280.42578 141.22266 C 280.40899 141.18169 280.35161 141.0351 280.26953 140.86719 z" style="color:#000000;display:inline;overflow:visible;visibility:visible;fill:#f2f2f2;stroke:#cccccc;stroke-width:0.25000003;stroke-linecap:butt;stroke-linejoin:miter;stroke-miterlimit:4;stroke-dasharray:none;stroke-dashoffset:0;stroke-opacity:1;marker:none;enable-background:accumulate"/>
  <path id="path66512" d="m 279.95634,141.0664 c 0.0627,0.18374 0.0627,0.30624 0.0732,0.58186 -0.0837,-0.27562 -0.16734,-0.32666 -0.0732,-0.58186 z" style="color:#000000;display:inline;overflow:visible;visibility:visible;fill:#ffffff;stroke:none;stroke-width:15.7275238;stroke-miterlimit:4;stroke-dasharray:none;marker:none;enable-background:accumulate"/>
  <path id="path66514" d="m 278.99412,141.22973 c 0,0.10208 0.0732,0.23478 0.12551,0.29603 -0.0105,0.1225 -0.0105,0.18375 0.0418,0.25521 -0.0418,0.0306 0,0.10208 0.0209,0.14291 0.0209,0.0408 0.0627,0.11229 0.10459,0.18375 -0.12551,-0.0919 -0.20918,-0.17354 -0.20918,-0.17354 0,0 -0.0209,-0.0408 0.0209,-0.0715 -0.0209,-0.0306 -0.0314,-0.0408 -0.0105,-0.0817 0.0105,-0.0408 -0.0105,-0.11229 -0.0314,-0.15312 -0.0209,-0.0408 0.0105,-0.0715 -0.0105,-0.11229 -0.0209,-0.0408 -0.0523,-0.1225 -0.0523,-0.15313 0,-0.0306 0.0209,-0.0714 0,-0.1327 z" style="color:#000000;display:inline;overflow:visible;visibility:visible;fill:#ffffff;stroke:none;stroke-width:15.7275238;stroke-miterlimit:4;stroke-dasharray:none;marker:none;enable-background:accumulate"/>
  <path id="path66516" d="m 279.58718,140.9966 c 0.014,0.3477 0.0699,1.19308 0.0838,1.28171 0.014,0.0886 -0.12573,0.0204 -0.13272,-0.0341 -0.007,-0.0545 -0.0768,-0.35451 -0.0559,-0.41587 0.021,-0.0614 0.0559,-0.20453 0.0349,-0.26589 -0.021,-0.0614 0.0489,-0.14998 0.0349,-0.19089 -0.014,-0.0409 -0.0419,-0.0614 -0.0279,-0.10908 0.014,-0.0477 0.0349,-0.16362 0.021,-0.19089 -0.014,-0.0273 0.0279,-0.0477 0.0419,-0.075 z" style="color:#000000;display:inline;overflow:visible;visibility:visible;fill:#ffffff;stroke:none;stroke-width:15.7275238;stroke-miterlimit:4;stroke-dasharray:none;marker:none;enable-background:accumulate"/>
  <path id="path67298" d="m 280.84793,148.32734 c -1.23871,0 -3.5026,0.11871 -5.22058,-2.2536 -0.54391,-0.75106 0.2201,-2.94294 1.85459,-4.03644 0.96692,-0.64689 2.40228,-0.59105 3.44728,-0.58882 1.11642,0.002 3.19776,-0.18377 3.75863,0.40736 1.61875,1.70606 1.59189,2.7758 1.36796,3.59709 -0.10068,0.36927 -0.38683,1.19681 -1.27855,1.83004 -1.06563,0.75677 -3.19656,1.04437 -3.92933,1.04437 z" style="color:#000000;display:inline;overflow:visible;visibility:visible;fill:none;stroke:#de8787;stroke-width:0.00065117;stroke-linecap:butt;stroke-linejoin:miter;stroke-miterlimit:4;stroke-dasharray:none;stroke-dashoffset:0;stroke-opacity:1;marker:none;enable-background:accumulate"/>
  <path id="path66518" d="m 275.17692,144.95198 c -0.16448,0.68772 -0.10568,2.02249 0.81663,2.95624 1.87133,1.89454 3.73166,0.74103 5.23268,0.74103 1.11511,0 2.249,0.84957 4.40053,-1.09968 0.90544,-0.82032 0.97717,-1.57414 0.9424,-2.2597 -0.45079,0.99408 -1.10821,1.22887 -1.70648,1.7135 -1.39891,1.13318 -2.36271,0.3113 -3.88688,0.35754 -1.25037,0.0379 -2.7423,1.07447 -4.44405,-0.0936 -0.57001,-0.39125 -1.13144,-1.22118 -1.35483,-2.31528 z" style="display:inline;fill:#e9afaf;stroke:none;enable-background:new"/>
  <path id="upperlip" d="m 283.61709,141.77292 c -1.01614,-0.70384 -1.69263,-0.37572 -2.88597,-0.37572 -1.00109,0 -1.62554,-0.36455 -3.17956,0.72649 -0.47665,0.33465 -2.15529,2.14748 -2.3618,3.27387 -0.1304,-1.48336 0.89941,-3.17114 2.23934,-4.31996 1.36452,-1.16991 1.98281,-0.78499 3.35415,-0.78499 1.39626,0 2.4188,-0.81689 3.97211,0.85108 1.01681,1.09186 1.74249,2.36098 1.80157,4.52297 -0.4297,-2.09437 -1.71527,-3.04553 -2.93984,-3.89374 z" style="display:inline;fill:#de8787;stroke:none;enable-background:new"/>
</svg>
