<?xml version="1.0" encoding="UTF-8" standalone="no"?>
<svg xmlns="http://www.w3.org/2000/svg" id="mouth_anxiety" width="560" height="560">
  <path id="path5114-0-4-7" fill="maroon" fill-rule="evenodd" stroke="#de8787" stroke-width=".124" d="M280.848 146.71c-1.24 0-3.82.8-4.996-.726-.74-.963.04-2.09 1.675-3.183.967-.644 2.492-1.04 3.537-1.036 1.116.002 2.254-.004 2.815.587 1.617 1.707 2.49 1.788 2.265 2.61-.1.37-.792 1.106-1.683 1.74-1.066.756-2.882.01-3.615.01z" color="#000" overflow="visible"/>
  <path id="path5127-2-7-9" fill="#500" fill-rule="evenodd" stroke-width=".5" d="M282.46 142.05c-.05.007-.082.023-.132.03-.224.027-.475.04-.742.038-.535-.002-1.138-.05-1.74-.085-.032.347-.4 0-.61-.008-.878.784-1.097 1.417-1.097 2.375 0 1.362.72 2.927 1.477 2.418.817-.545 2.52.335 2.963.263 1.588-.257 1.146-.427 1.146-2.47 0-1.365-.376-1.845-1.267-2.56z" color="#000" overflow="visible"/>
  <path id="path5125-7-0-0" fill-rule="evenodd" stroke="#000" stroke-width=".124" d="M280.982 145.91c-2.77 0-3.138-.657-3.138-2.11 0-1.277 1.163-1.58 1.948-1.58.994 0 1.408.086.925.413-1.626 1.102 2.02 1.367 1.045.106-.478-.62.656-.53 1.285-.53.577 0 1.168.576 1.168 1.222 0 1.096-1.248 2.547-3.233 2.476z" color="#000" overflow="visible"/>
  <path id="path5121-4-5-1" fill="#a02c2c" fill-rule="evenodd" stroke="#501616" stroke-width=".124" d="M281.254 144.72c-1.045-.125-4.17-2.034-5.116 1.152 0 .017.008.036.008.054 1.1 1.068 3.76.965 4.84.965.734 0 3.336-.12 4.41-1.012-.48-3.558-3.35-1.062-4.142-1.157z" color="#000" overflow="visible"/>
  <path id="path5123-2-7-7" fill="#b85757" fill-rule="evenodd" stroke-width=".5" d="M281.12 145.194c-5.254-3.22-4.632 1.94 0 1.532 4.633-.41 4.7-4.285 0-1.532z" color="#000" overflow="visible"/>
  <path id="path4040-19-6-7-5" fill="#f2f2f2" stroke="#ccc" stroke-width=".237" d="M275.79 144.46c-.18.32-.238.636-.186.94.207-.064.48-.136.757-.136.14-.528-.194-.735-.305-.735-.046 0-.155-.04-.264-.07z" color="#000" overflow="visible"/>
  <path id="path4042-3-9-0-6" fill="#f2f2f2" stroke="#ccc" stroke-width=".237" d="M276.72 145.5c-.262.04-.734.444-.9.5-.167.055-.18-.167-.21-.236-.026-.07-.013-.39.043-.458.055-.07.18-.195.194-.292.014-.097.097-.208.278-.236.18-.027.166.014.277-.027.11-.04.458.028.444.126.01.107-.007.382-.125.624z" overflow="visible" color="#000"/>
  <path id="path4044-6-3-3-8" fill="#f2f2f2" stroke="#ccc" stroke-width=".237" d="M277.274 145.63c-.255.08-.5.314-.657.452-.157.137-.353.215-.343.068.01-.147.04-.55.147-.804.11-.255.236-.412.432-.58.197-.166.687.07.658.187-.03.118-.04.47-.236.677z" overflow="visible" color="#000"/>
  <path id="path4046-5-5-8-6" fill="#f2f2f2" stroke="#ccc" stroke-width=".237" d="M277.784 145.807c-.265.216-.48.608-.745.716-.266.108-.256-.04-.237-.177.02-.137-.068-.54.08-.863.146-.324.42-.647.548-.657.13-.01.384.108.413.147.03.04.157.157.128.255-.03.098-.048.373-.186.58z" overflow="visible" color="#000"/>
  <path id="path4048-4-2-68-4" fill="#f2f2f2" stroke="#ccc" stroke-width=".237" d="M278.51 146.22c-.157.004-.216.038-.363.39-.147.355-.333.355-.402.374-.07.02-.245-.03-.235-.118.01-.088-.06-.755.02-.94.078-.188.107-.57.254-.718.147-.147.246-.264.393-.255.147.01.49.403.48.452-.01.05.01.81-.147.814z" overflow="visible" color="#000"/>
  <path id="path4236-0-0-0-3" fill="#fff" stroke-width="15.728" d="M278.247 145.375c.038.035.06.083.02.107-.02.012-.057.058-.05.116.005.035-.043.22-.075.26-.053.066-.08-.052-.033-.11.045-.06.07-.106.064-.125-.007-.02-.013-.046.02-.105.033-.06.035-.083.015-.102-.02-.02-.002-.077.037-.04z" overflow="visible" color="#000"/>
  <path id="path4254-5-4-3-7-0" fill="#fff" stroke-width="15.728" d="M277.95 146.235s.075 0 .103-.028c.028-.028 0-.12 0-.12s.018-.066-.02-.084c-.036-.02-.09.01-.082.055.01.047.047.093 0 .177z" overflow="visible" color="#000"/>
  <path id="path4050-5-4-9-9" fill="#f2f2f2" stroke="#ccc" stroke-width=".237" d="M279.59 146.258c.078-.235.088-.98-.108-.942-.05-.05-.128-.058-.187-.05-.06-.067-.206-.038-.206-.038s-.374-.068-.462-.03c-.088.04-.07.275-.088.374-.02.098.098.873.117 1.06.02.186.383.47.55.136.167-.333.275-.42.382-.51z" overflow="visible" color="#000"/>
  <path id="path4063-2-2-8-57-9" fill="#f2f2f2" stroke="#ccc" stroke-width=".237" d="M280.56 146.34c.076.034.24.232.288.308.048.077.31.143.47-.07.154-.207.185-.39.206-.468.02-.076.063-.145.07-.284.007-.14.034-.444.04-.472.008-.028-.027-.07-.04-.083-.014-.013.014-.073-.043-.102-.055-.03-.114-.006-.19-.013-.075-.007-.185-.003-.233-.03-.065-.037-.223-.02-.284-.032-.06-.013-.216-.042-.257-.014-.042.026-.053.02-.068.196-.015.174.042.827.042 1.063z" overflow="visible" color="#000"/>
  <path id="path4230-5-1-5-0" fill="#fff" stroke-width="15.728" d="M281.11 146.11c.015-.078-.023-.195-.023-.246 0-.05.042-.144.056-.176-.028-.005-.056.037-.08.065-.017-.033-.027-.093-.022-.144-.027.022-.087.096-.073.124.014.028.04.098.032.11-.01.015-.01.02.013.066.023.047.07.146.07.223 0 .07.04.115.064.153-.037-.065-.046-.128-.037-.176z" overflow="visible" color="#000"/>
  <path id="path4063-9-7-7-9" fill="#f2f2f2" stroke="#ccc" stroke-width=".237" d="M280.585 146.34c-.076.034-.18.41-.23.485-.047.076-.422.146-.547-.09-.125-.236-.166-.548-.187-.625-.02-.076-.06-.145-.068-.284-.007-.14-.035-.444-.042-.472-.007-.027.028-.07.042-.083.013-.013-.014-.054.04-.082.057-.028.112-.02.18-.02.07 0 .258.02.307.02.047 0 .11.007.165 0 .056-.007.194-.05.236-.02.043.027.05.027.077.186.028.16.028.75.028.985z" overflow="visible" color="#000"/>
  <path id="path4228-8-8-3-3" fill="#fff" stroke-width="15.728" d="M280.258 145.93c-.005-.1-.014-.187.014-.205.028-.02.046-.05.046-.074 0-.022 0-.11.014-.13.014-.017.033-.1.056-.138-.023.01-.065.014-.065.014-.005.037-.014.06-.028.083-.014.023-.046.194-.05.217.018-.11.04-.227.055-.26-.02.033-.02.038-.042.056-.014.06-.05.27-.06.292-.01.023.005.162 0 .19.023-.018.037-.042.06-.046z" overflow="visible" color="#000"/>
  <path id="path4238-2-3-4-8" fill="#fff" stroke-width="15.728" d="M279.89 145.957v-.125c-.04-.09-.045-.223.02-.262-.007-.013-.052-.052-.045-.085-.06.02-.06.046-.053.072.007.026-.02.007-.013.072.006.065-.008.117.09.327z" overflow="visible" color="#000"/>
  <path id="path4240-0-4-0-7" fill="#fff" stroke-width="15.728" d="M280.01 145.74c.006-.117.025-.288.077-.294-.072-.027-.046-.092.04-.118-.092-.007-.13 0-.15.032-.02.033 0 .086-.014.1-.013.012.007.05.06.05-.027.047-.034.093-.06.14.026.05.02.018.046.09z" overflow="visible" color="#000"/>
  <path id="path4042-7-7-7-7-6" fill="#f2f2f2" stroke="#ccc" stroke-width=".237" d="M286.063 144.553c-.18-.028-.288.16-.407.168-.13.008-.29-.02-.394.233-.01.108.153.305.27.547.058.037.12.066.177.102.225-.254.34-.38.382-.538.016-.135-.004-.387-.03-.51z" color="#000" overflow="visible"/>
  <path id="path4244-5-4-0-7" fill="#fff" stroke-width="15.728" d="M285.866 145.354c-.085-.08-.328-.184-.314-.242-.04.032-.053-.02-.1-.066.008.125.04.15.152.19.11.04.196.085.262.118z" overflow="visible" color="#000"/>
  <path id="path4044-9-2-9-8-96" fill="#f2f2f2" stroke="#ccc" stroke-width=".237" d="M285.004 144.754c-.055.005-.116.016-.176.01-.178-.02-.462.112-.443.19.03.117.038.47.234.677.254.08.393.276.55.413.016.014.043.02.062.033.14-.124.274-.25.385-.367-.006-.06-.013-.132-.015-.167-.022-.276-.265-.6-.46-.766-.035-.03-.084-.03-.138-.023z" color="#000" overflow="visible"/>
  <path id="path4256-3-1-4-7" fill="#fff" stroke-width="15.728" d="M285.23 145.754c.033-.112.007-.223-.065-.295.033.136.06.222.065.294z" overflow="visible" color="#000"/>
  <path id="path4046-1-48-3-8-7" fill="#f2f2f2" stroke="#ccc" stroke-width=".237" d="M283.95 145.905c.265.216.343.57.608.677.265.108.444.06.45-.08.01-.195.04-.695-.107-1.02-.146-.323-.42-.646-.548-.656-.127-.01-.314.216-.363.226-.05.01-.177.058-.177.176 0 .103 0 .47.137.677z" overflow="visible" color="#000"/>
  <path id="path4242-9-7-23-0" fill="#fff" stroke-width="15.728" d="M284.353 145.786c.032.08.13.262.117.36-.013.1-.163-.137-.203-.202-.04-.066-.104 0-.124-.04-.02-.04-.138-.288-.17-.314-.033-.026-.066-.066-.014-.092-.033-.11.072-.072.072.02s.104.282.144.288c.04.007.02-.04.177-.02z" overflow="visible" color="#000"/>
  <path id="path4258-3-0-7-6" fill="#fff" stroke-width="15.728" d="M284.68 145.996c-.02-.092-.085-.23-.118-.282.04.13.007.138.118.282z" overflow="visible" color="#000"/>
  <path id="path4048-8-3-0-3-6" fill="#f2f2f2" stroke="#ccc" stroke-width=".237" d="M282.862 146.24c.176.092.176.126.323.48.147.352.452.245.52.264.07.02.21-.033.236-.118.04-.127.047-.81.01-1.01-.058-.324-.03-.54-.215-.638-.146-.077-.265-.27-.386-.31-.084-.025-.183.07-.243.075-.147.01-.314.324-.383.392-.035.036-.002.79.138.864z" overflow="visible" color="#000"/>
  <path id="path4226-2-8-2-4" fill="#fff" stroke-width="15.728" d="M283.135 145.442c-.014-.037-.037-.028-.042.02-.005.044.067.32.143.45.07.12.082.26.09.322.005.053.05.042.04 0-.014-.064-.046-.32-.078-.352-.033-.032-.102-.185-.153-.44z" overflow="visible" color="#000"/>
  <path id="path4050-6-9-9-9-2" fill="#f2f2f2" stroke="#ccc" stroke-width=".237" d="M281.568 145.972c.032-.383-.062-.76.07-.727.007-.03.042-.078.11-.068.092.013.2 0 .24.007.07-.063.237-.02.237-.02s.404-.03.49.016c.09.044.057.275.064.375.006.1-.075.82-.106 1.006-.064.394-.57.546-.736.208-.166-.34-.262-.702-.37-.796z" overflow="visible" color="#000"/>
  <path id="path4252-4-3-9-3" fill="#fff" stroke-width="15.728" d="M281.805 145.55c-.046-.224-.01-.316.15-.26-.066.046-.15.222-.15.26z" overflow="visible" color="#000"/>
  <path id="path4248-4-8-7-6" fill="#fff" stroke-width="15.728" d="M276.667 142.068c-.052.124-.013.282.053.498-.027-.25.007-.42-.053-.498z" overflow="visible" color="#000"/>
  <path id="path3778-7-2-6-3" fill="#f2f2f2" stroke="#ccc" stroke-width=".237" d="M277.893 142.605c-.122.066-.257.123-.366.196-.217.146-.417.294-.603.44.054.137.118.242.205.254.19.028.38-.11.49-.22.11-.11.126-.15.263-.178.086-.018.056-.26.01-.49z" color="#000" overflow="visible"/>
  <path id="path3776-9-8-4-2" fill="#f2f2f2" stroke="#ccc" stroke-width=".237" d="M279.053 142.113c-.5.157-.974.36-1.377.608.005.172.022.32.056.376.11.178.192.15.288.15.068.096.095.068.177.055.15.11.412-.027.44-.04.027-.014.152.014.33-.123.178-.137.19-.082.096-1.014-.002 0-.01-.008-.01-.01z" color="#000" overflow="visible"/>
  <path id="path4105-2-0-5-3" fill="#fff" stroke-width="15.728" d="M278.814 142.9c-.02.265-.058.098-.117-.02-.06-.117-.118-.45-.167-.56.07.178.147.345.196.354.04.09.06.167.088.226z" overflow="visible" color="#000"/>
  <path id="path3778-6-3-3-2-1" fill="#f2f2f2" stroke="#ccc" stroke-width=".237" d="M283.793 142.28c-.017.01-.03.027-.05.034-.06.124-.103.74.02.836.125.098.158.138.294.268.117.112.318.205.46.23.16.03.212-.015.276-.168.026-.06.04-.14.057-.21-.287-.248-.604-.53-.97-.918-.026-.027-.06-.046-.087-.07z" color="#000" overflow="visible"/>
  <path id="path4222-2-1-34-1" fill="#fff" stroke-width="15.728" d="M284.353 142.212c.04.157.026.314 0 .393-.027.08-.17.34-.184.51-.04-.09-.08-.13-.08-.13l.08-.183-.12.17-.09-.105c.157-.065.21-.17.21-.223 0-.052.012-.118.065-.17-.04.092 0 .21-.053.3.105-.116.13-.17.118-.22-.013-.054-.04-.093 0-.132.04-.04.053-.144.053-.21z" overflow="visible" color="#000"/>
  <path id="path4246-8-3-7-1" fill="#fff" stroke-width="15.728" d="M284.588 142.9c.007.105-.06.183-.052.242.007.06-.04.053-.04.027 0-.028-.032-.047.008-.093s.06-.15.085-.177z" overflow="visible" color="#000"/>
  <path id="path3776-5-1-1-5-4" fill="#f2f2f2" stroke="#ccc" stroke-width=".237" d="M282.766 141.857c-.075.102-.15.204-.3.348-.034.153-.012.42.022.877.014.243.17.248.274.262.14.02.255.054.355 0 .19.027.454-.006.55-.084.107-.09.143-.047.17-.262.016-.145.03-.425-.036-.71-.26-.233-.62-.36-1.034-.43z" color="#000" overflow="visible"/>
  <path id="path4224-5-4-7-9" fill="#fff" stroke-width="15.728" d="M282.924 142.264s-.144.485-.144.525c0 .038-.033.116-.033.143 0 .026 0 .078-.033.144.02-.092.014-.184.02-.23.007-.045.033-.117.046-.163.013-.046-.007-.053.013-.085.02-.034.028-.063.048-.102.02-.04.058-.188.084-.234z" overflow="visible" color="#000"/>
  <path id="path3006-0-2-3-3-0" fill="#f2f2f2" stroke="#ccc" stroke-width=".237" d="M281.064 141.764c-.022 0-.05.005-.074.006-.082.128-.15.283-.19.468-.033.147-.108.904-.113 1.07 0 .053.065.07.065.07 0 .102.156.054.248.065.24.03.58.05.863.022.153-.015.305.03.383-.086.252-.02.244-.427.246-.472.01-.316-.094-.833-.2-1.103-.395-.03-.808-.04-1.228-.04z" color="#000" overflow="visible"/>
  <path id="path4232-8-4-9-6" fill="#fff" stroke-width="15.728" d="M282.014 143.234c.013-.085-.02-.36-.02-.432 0-.072-.08.072-.092.11-.013.04.013.4.013.4s.066-.058.1-.078z" overflow="visible" color="#000"/>
  <path id="path4234-9-7-1-1" fill="#fff" stroke-width="15.728" d="M281.15 142.677l.064-.314s-.033-.066-.013-.256c-.025.13-.032.177-.064.223.013.072.02.25.013.347z" overflow="visible" color="#000"/>
  <path id="path3006-2-9-60-9" fill="#f2f2f2" stroke="#ccc" stroke-width=".237" d="M280.438 141.814c-.426.05-.874.142-1.327.28-.088.458-.116.983-.116 1.084 0 .164.332.375.904.248.316.013.823.026.81-.22-.01-.167-.014-.823-.07-.96-.018-.047-.096-.233-.2-.432z" color="#000" overflow="visible"/>
  <path id="path4103-96-3-9-9" fill="#fff" stroke-width="15.728" d="M280.198 142.096c.06.176.06.294.068.56-.078-.266-.157-.315-.068-.56z" overflow="visible" color="#000"/>
  <path id="path4107-6-5-94-9" fill="#fff" stroke-width="15.728" d="M279.295 142.253c0 .098.07.225.118.284-.01.118-.01.177.04.245-.04.03 0 .098.02.138.018.04.058.108.097.176-.118-.088-.196-.167-.196-.167s-.02-.04.02-.07c-.02-.03-.03-.038-.01-.078.01-.04-.01-.108-.03-.147-.02-.04.01-.07-.01-.108-.02-.04-.05-.118-.05-.147 0-.03.02-.07 0-.127z" overflow="visible" color="#000"/>
  <path id="path4250-0-7-4-6-5" fill="#fff" stroke-width="15.728" d="M279.85 142.03c.014.333.067 1.145.08 1.23.013.085-.118.02-.124-.033-.007-.052-.073-.34-.053-.4.02-.058.053-.196.033-.255-.02-.06.046-.144.033-.183-.014-.04-.04-.06-.027-.106.013-.046.032-.157.02-.183-.014-.026.025-.045.04-.072z" overflow="visible" color="#000"/>
  <path id="lowerlip" fill="#e9afaf" d="M275.414 145.615c.072.356.058.59.956 1.222 1.43 1.003 3.305.438 4.807.438 1.115 0 2.937.645 4.163-.94.365-.47.962-.82.756-1.62-.267.43-1.178 1.062-1.946 1.122-.78.062-1.7.103-3.224.15-1.25.037-3.068.577-4.332-.338-.56-.407-.898-.77-1-1.16 0 0-.27.404-.18 1.124z"/>
  <path id="upperlip" fill="#de8787" d="M283.48 142.825c-.477-.254-1.645-.376-2.84-.376-1 0-1.71-.23-3.265.86-.477.334-1.92 1.057-1.9 2.23-.716-1.305 1.19-2.153 1.777-2.87 1.382-1.69 2.115-1.057 3.486-1.057 1.397 0 2.698-.663 3.7.85.483.73 2.484 1.826 1.53 3.25.622-1.292-1.174-2.188-2.49-2.89z"/>
</svg>
