<?xml version="1.0" encoding="UTF-8" standalone="no"?>
<!-- Created with Inkscape (http://www.inkscape.org/) -->

<svg
   xmlns:dc="http://purl.org/dc/elements/1.1/"
   xmlns:cc="http://creativecommons.org/ns#"
   xmlns:rdf="http://www.w3.org/1999/02/22-rdf-syntax-ns#"
   xmlns:svg="http://www.w3.org/2000/svg"
   xmlns="http://www.w3.org/2000/svg"
   version="1.1"
   width="560"
   height="560"
   id="nose_default">

  <path
     d="m 278.34206,136.9803 c -0.33671,1.1873 -1.46321,0.6917 -1.56962,0.053 -0.10642,-0.6385 0.45226,-1.1971 0.90453,-1.2503 0.45226,-0.053 0.90235,0.2667 1.43443,-0.3452 0.53207,-0.6119 1.05441,0.5422 0.8991,1.012 -0.13193,0.3991 0.0628,0.8139 0.54075,1.2242 0.28075,0.2411 1.03645,0.3703 1.00985,-0.5875 -0.0266,-0.9577 0.45226,-0.8247 1.22377,-0.8247 0.7715,0 1.38339,0.9046 0.13302,1.1706 0.39905,0.6917 2.15489,0.5587 1.86225,-1.7292 1.38339,0.6916 0.23944,2.0218 -0.37245,2.3145 1.56962,1.0641 1.4632,1.7292 0.6917,1.5696 -0.77151,-0.1596 -2.28792,-0.6651 -3.80433,-0.4789 -1.51641,0.1862 -2.55395,-0.4522 -2.66036,-0.9311 -0.10642,-0.4789 0.29264,-0.5321 0.55867,-0.9045 0.26604,-0.3725 -0.67205,-0.9248 -0.85131,-0.2927 z"
     id="path24538"
     style="fill:#e9afaf;stroke:none;display:inline;enable-background:new" />
</svg>
