<?xml version="1.0" encoding="UTF-8" standalone="no"?>
<!-- Created with Inkscape (http://www.inkscape.org/) -->

<svg
   xmlns:svg="http://www.w3.org/2000/svg"
   xmlns="http://www.w3.org/2000/svg"
   version="1.1"
   width="560"
   height="560"
   id="nose">
  <g
     transform="translate(0,-492.36218)"
     id="layer1">
    <path
       d="m 277.37217,625.83308 c -0.75259,0.8475 -1.4007,2.5627 -0.86516,3.58 0.6584,1.2507 1.90933,0.537 1.87949,-0.03 -0.32817,0.3281 -0.92483,0.3878 -0.92483,-0.03 0,-0.4177 0.179,-0.6265 1.04417,-0.6265 0.49018,0 0.80997,0.3315 0.92483,0.716 0.12477,0.4177 0.41932,1.2846 1.05719,1.2846 0.76265,0 0.93519,-0.7214 1.09082,-1.1951 0.18005,-0.548 0.56683,-0.9248 0.95467,-0.9248 0.38783,0 1.01433,0.179 0.9845,0.537 -0.0443,0.5318 -0.56684,0.5668 -0.8055,0.5072 0.50716,1.1038 1.93917,0.2983 1.99883,-0.5371 0.0597,-0.8353 0.14917,-1.6706 -0.74583,-3.0131"
       id="path24536"
       style="fill:none;stroke:#de8787;stroke-width:0.25;stroke-linecap:round;stroke-linejoin:miter;stroke-miterlimit:4;stroke-opacity:1;stroke-dasharray:none;display:inline;enable-background:new" />
    <path
       d="m 278.34206,629.34248 c -0.33671,1.1873 -1.46321,0.6917 -1.56962,0.053 -0.10642,-0.6385 0.45226,-1.1971 0.90453,-1.2503 0.45226,-0.053 0.90235,0.2667 1.43443,-0.3452 0.53207,-0.6119 1.05441,0.5422 0.8991,1.012 -0.13193,0.3991 0.0628,0.8139 0.54075,1.2242 0.28075,0.2411 1.03645,0.3703 1.00985,-0.5875 -0.0266,-0.9577 0.45226,-0.8247 1.22377,-0.8247 0.7715,0 1.38339,0.9046 0.13302,1.1706 0.39905,0.6917 2.15489,0.5587 1.86225,-1.7292 1.38339,0.6916 0.23944,2.0218 -0.37245,2.3145 1.56962,1.0641 1.4632,1.7292 0.6917,1.5696 -0.77151,-0.1596 -2.28792,-0.6651 -3.80433,-0.4789 -1.51641,0.1862 -2.55395,-0.4522 -2.66036,-0.9311 -0.10642,-0.4789 0.29264,-0.5321 0.55867,-0.9045 0.26604,-0.3725 -0.67205,-0.9248 -0.85131,-0.2927 z"
       id="path24538"
       style="fill:#e9afaf;stroke:none;display:inline;enable-background:new" />
    <path
       d="m 281.9098,625.15992 c 0.86143,2.65815 -3.04618,2.61899 -2.20002,0.16512 0.84616,-2.45387 0.59231,-2.40042 0.33847,-3.12043 -0.25385,-0.72 0.0846,-2.09097 0.93078,-2.00636 0.84616,0.0846 1.18462,1.42797 0.67693,2.14562 -0.5077,0.71765 -0.0735,1.80592 0.25384,2.81605 z"
       id="path95678"
       style="color:#000000;fill:#ffffff;stroke:none;stroke-width:0.5;marker:none;visibility:visible;display:inline;overflow:visible;enable-background:accumulate" />
  </g>
</svg>
