<?xml version="1.0" encoding="UTF-8" standalone="no"?>
<svg xmlns="http://www.w3.org/2000/svg" id="pants_snowboard" width="560" height="560">
  <path id="path3366-94" d="M237.088 340.12c-.143 1.863-2.15 5.747-1.037 7.448 1.12 1.7 1.17 3.055-.14 5.078-1.31 2.022-2.11 9.46-1.44 11.49.67 2.034-1.84 10.126-1.07 14.52.77 4.392 5.94 10.664 6.05 13.193.11 2.52-2.52 2.17-3.65 5.87-1.12 3.7-.01 9.85 1.65 11.55 1.22 1.24 2.1 3.51 1.8 4.35-.3.83-.27 1.54 0 2.38.28.84-1.94 3.95-3.27 5.8-1.32 1.84-2.3 2.34-2.17 7.73.14 5.39 2.93 7.25 3.33 9.28.4 2.02-2.59 7.74-3.69 10.6-1.09 2.86-4.04 15-3.08 18.55.96 3.54-1.55 5.57-.69 8.44.86 2.87-1.65 5.06-.28 9.29 1.38 4.23 5.37 5.92 5.38 6.43.01.51-1.01 1.18-1.16 2.37-.16 1.18-.16 11.34.69 11.68.85.34 2.25-2.03 3.95-2.71 1.7-.68 11.34-.17 15.18.85 3.85 1.02 8.2 8.13 8.93 9.49.73 1.35 3.76-1.19 4.14-3.73.39-2.54 1.89-1.52 1.78-3.72-.1-2.2 2.37-4.4 2.99-7.27.63-2.87.16-5.75-.16-7.94-.32-2.2-.3-20.24-.42-22.43-.11-2.19.18-4.89.84-6.57.66-1.69-.08-3.54-.62-4.72-.54-1.18-.34-2.7.95-3.87 1.29-1.18 3.07-9.58 3.95-13.62.88-4.03.55-9.58 1.29-11.6s.06-6.22 1.04-9.25c.98-3.02-1.69-10.43-1.33-11.78.36-1.34-.34-4.04-.69-6.4-.35-2.36.13-6.4-.04-8.76-.17-2.36 2.09-15.17 4.17-20.57s5.38-19.94 5.71-21.13c.34-1.19-.43-1 0-.48.42.51 1.76 11.94 2.11 15.35s2.29 21.82 2.34 25.73c.05 3.92-1.83 12.25-2.87 18.88-1.03 6.63.9 14.96 2.13 18.53 1.23 3.57-.41 6.28.04 7.81.45 1.53.12 2.89-.34 6.96-.45 4.07.59 9.16.21 10.18-.38 1.02-3.82 4.06-4.39 6.1-.57 2.03.11 12.03.55 13.39.44 1.35.04 2.88.61 3.56.57.68-1.88 18.8-1.51 20.49.37 1.69-.24 5.92.48 8.63.72 2.71 2.21 7.09 2.23 6.24.01-.85-.11 2.9.74 3.23.84.34 3.23-1.87 4.11-3.22.88-1.35 5.41-7.79 6.84-8.47 1.42-.68 12.84-1.06 16.79.28 3.95 1.34 7.98 3.02 7.98 3.02l2.51 5.75c1.12-.77-.07-3.31.75-6.11.81-2.8-.79-10.77.91-12.82s2.03-7.82.88-10.62c-1.14-2.81-.58-13.28-.13-17.45.45-4.18.02-10.06.02-13.05.01-2.99 1.99-5.21.86-9.74s-1.69-14.61-2.91-16.15c-1.22-1.53-4.494-5.55-3.44-7.35 1.06-1.79 1.44-2.39 1.08-3.68-.36-1.28 2.42-6.41 3.17-8.38.74-1.97.36-8.38.78-10.95.42-2.57-1.67-5.56-.76-10.268.91-4.7 2.97-17.43 2.52-18.8-.45-1.368-1.6-3.675-.95-6.065s1.205-3.24.51-4.78c-.7-1.53.26-2.81-.24-4.6-.5-1.79.48-7.67.23-9.035-.25-1.36-.326-12.343-.53-17.78 1.39-3.87-.16-6.65-1.82-10.03-1.656-3.38-1.295-9.006-.5-18.73-12.6 8.83-71.43 7.56-91.44 1.764.02 3.73.43 27.97 2.44 31.36 2.01 3.387 2.445 7.51-.77 10.89z" style="fill:#e6e6e6;fill-rule:evenodd;stroke:#b3b3b3;stroke-width:1.00000012px;stroke-linecap:butt;stroke-linejoin:miter;stroke-opacity:1"/>
  <path id="path4187-27" d="M235.41 297.87c.026 3.736.438 27.972 2.45 31.36 2.01 3.386 2.442 7.513-.773 10.89-.016.21-.062.452-.12.707-.01.04-.014.08-.024.12-.048.292-.1.583-.173.866 3.5-.994 5.808.713 5.845 2.238.037 1.53-2.232 1.85-3.93 3.54-1.697 1.69-.93 7.11-.08 6.61.852-.5 1.796 1.03.652 2.54-1.143 1.52.378 6.43.494 8.12.12 1.69-1.24 2.02-2.56.66-1.32-1.36-1.39 2.53-1.24 4.39.15 1.86-.66 4.56-1.05 6.08-.38 1.52 1.03 3.55 1.44 2.38.42-1.18 1.05-3.88.93-5.23-.11-1.35-.19-2.36.39-1.68.58.68.93 2.68.85 3.89-.07 1.17 1.12.85 1.19-.33.08-1.18-.9-4.56 1.84-7.42 2.74-2.85 4.9.88 3.33 2.89-1.57 2.02-.82 2.7-2.07 4.21s-3.71 8.59-2.86 11.8c.85 3.21 2.38 4.74-.7 9.44-3.08 4.7-.35 10.28-.7 11.62-.35 1.35-.14 1.69.64 1.02.78-.67 1.21-1.34 1.77-2.35.57-1 1.52-.16 1.22.18-.3.34-.25 2.19-1.56 4.04s.29 5.22 1.32 3.88c1.03-1.34 8-32.47 8.04-33.99.04-1.52 1.31-2.52 1.62-.83.32 1.69 1.73 6.08 4.17 8.96 2.44 2.88 7.29 13.85 10.12 16.39 2.83 2.54 4.23 8.94 1.32 10.11s-9.18-7.44-9.21-9.29c-.03-1.85-2.54-2.2-3.06-.86-.51 1.34-2.68-.18-2.78 1.84-.1 2.02 1.63 2.7 1.58 3.71-.05 1.01.02 3.03 2.17 3.21 2.16.18 8.9 5.93 9.88 4.59.98-1.34 3.24-1 2.81 1.02-.43 2.02-3.47 3.35-4.98 2.67-1.51-.68-3.25-.34-2 .84 1.26 1.18.93 2.7.41 3.87-.52 1.18-.04 2.69 1.14 1.69 1.17-1.01 8.41-9.39 9.22-10.74.82-1.34-1.58-1.68-1.01-2.35.57-.67.15-5.22-.74-6.23-.89-1.02-1.64-3.88-1.35-5.9.29-2.02-2.82-6.08-3.6-7.6-.79-1.52.83-1.68 1.95.01s3.51 3.22 3.63 6.42c.12 3.2 1.6 10.12 3.33 10.62 1.86-.31-3.99-25.75 5.05-38.933.21-.66.42-1.31.63-1.84 2.08-5.4 5.37-19.947 5.71-21.13.34-1.186-.43-.99 0-.48.42.513 1.76 11.94 2.11 15.35.14 1.36.63 5.26 1.07 9.51 1.81 6.98 3.76 11.52 4.33 11.86 1.01.61 1.77 3.74.02 3.38-1.75-.36-1.89 1.2-2.17 2.407-.17.696-.97 3.147-1.71 5.676-.45 2.69-1.01 5.644-1.52 8.505-.12 3.02.05 6.1.99 4.59 1.35-2.16 2.23-10.22 2.64-11.9.42-1.68 2.4-2.76 1.53-.595-.87 2.16-1.55 12.63-3.14 15.27-1.59 2.64.55 3.73-.41 6.61-.96 2.88-1.11 5.282.57 7.33 1.68 2.04 1.79 3.96.88 6.24-.9 2.28.03 2.76-.28 5.04-.315 2.28-.1 10.56.84 9.48s.48-12.11 2.11-13.07c1.63-.96 2.35-7.68.32-10.69-2.02-3.01-2.99-5.53-2.74-6.49.24-.96 1.25-4.93 1.757-1.92.5 3 13.88 10.68 16.204 11.88 2.33 1.19 2.25 2.19.64 2.91-1.6.724-4.87.33-6.79-.028-1.92-.36-3.01.72-1.94 2.64 1.07 1.92 3.1 4.645 6.33 5.007 3.23.37 4.55.61 5.71-.97 1.15-1.57 2.008-.84 3.03.36s5.76 4.23 8.007 5.19c2.247.965 4.3-.61 2.72 1.205-1.58 1.81-20.17-5.51-21.13-3.95-.96 1.56 9.197 4.09 15.89 5.65 6.38 1.48 7.95-.325 8.156-2.9-.045-.244-.1-.495-.16-.753-.385-.23-1.28.12-2.28-.32-1.29-.56-3.36-16.14-6.51-17.828-3.15-1.69-4.684-4.51-5.33-5.07-.65-.567-.43-2.63 1.4-2.26 1.73.354 4.7 2.21 6.75 1.156.71-1.24.97-1.872.66-2.96-.11-.39.09-1.15.41-2.05-.23-.98-.54-1.816-.68-2.16-.39-.94-3.224-1.13-4.75.75-1.523 1.88-4.34 2.63-4.79 3.95-.46 1.315-2.24 4.51-2 6.2.23 1.69 2.47 5.826 1.05 8.27-1.42 2.44-1.756.19-1.77-1.69-.02-1.88-1.596-9.21.105-11.09 1.7-1.88-.26-2.44-1.62-.374-1.36 2.07-1.91-1.68-2.08-3.173-.18-1.49-.12-3.92.07-4.67.184-.744 1.55-1.12 1.86.56.31 1.68-1.2 3.71.27 3.9 1.47.19 1.92-.185 1.93-1.125 0-.94.75-.94 1.89 0 1.13.94 3.33-3.384.04-3.95-3.28-.564-7.67-1.885-6.52-5.645.64-3.1 5.15-6.06 4.12-6.85-1.026-.79.73-8.33-1.986-8.39-2.72-.06-5.44 14.02-6.2 17.06-.754 3.03-3.483 3.76-2.382-.4 1.1-4.16 4.09-16.984 4.255-17.976.16-.998-1.995-6.09-2.945-7.54-.95-1.46.53-.99 1.16-.4.63.592 3.17 4.03 3.99 4.89.82.86 2.43-1.26 3.47-.8 1.04.46-.67-2.437-2.698-3.77-2.03-1.33.22-3.25 1.73-2.26 1.51 1 2.84.21 4.02-.12 1.18-.33.27 1.66 2.08 2.19s-.58 2.99.65 3.12c1.23.132 1.09 1.53 1.057 2.06-.04.53 1.49.53 1.4-1.06-.09-1.6-1.156-.868-.81-2.99.34-2.13-.84-1.86-.64-3.26.194-1.397.274-3.256 1.7-3.12 1.43.133 1.69 6.51 3.575 7.44 1.89.93 1.34-1.79.88-2.523-.46-.73-1.06-3.52.32-7.5.46-1.46 1.02-3.12 1.006-4.18-.013-1.07 1.537-1.2 1.41.66s-1.02 4.25-1.024 5.378c-.01 1.122.95 1.32.86 2.19-.09.86.82 1.33 1.04.13.22-1.198.75-1.928.26-3.25-.49-1.33.22-4.25.36-5.04.14-.8-1.08-1.4-.93-2.66.15-1.26.54-3.25-1.593-2.33s-5.33 2.65-6.19 3.04c-.86.4-1.1 2.52-.6 3.45.49.93.49 1.66-.316 2.13-.81.463-1.25-.73-.99-1.794.254-1.06-.53-2.585-1.32-2.92-.8-.33-4.02-3.26-4.93-3.26-.91 0-1.48-.864-.76-1.66.714-.79 1.233.006 1.243.34.01.33 4.71 3.46 5.34 3.59.63.13 5.15-2.45 5.74-2.84.6-.4-.35-1.06-1.08-1.4-.74-.33-.49-1.86.5-1.46.99.4 2.474 1.4 3.102 1.6.627.2 1.795-.86 1.6-2.12-.194-1.26.656-2.054-.17-3.115-.825-1.06-.91-2.72 2.37-2.12l.07-.08c.04-.512.05-1.05-.12-1.65-.5-1.795.48-7.67.23-9.04-.25-1.36-.325-12.35-.53-17.785 1.39-3.86-.16-6.64-1.82-10.02-1.655-3.38-1.295-9.01-.5-18.73-1.11 2.6-21.73 6.74-44.335 6.74-17.62 0-46.88-2.72-47.1-4.98z" style="fill:#cccccc;fill-rule:evenodd;"/>
  <path id="path3563-41" d="M324.66 501.117c1.82-1.404-4.498-8.625-6.244-9.46-1.746-.835-12.04 1.395-13.685-1.953-1.64-3.35-2.74-5.382-4.49-6.936-1.75-1.554-4.29-3.468-4.41-7.42-.12-3.953-8.2-.958-6.92-5.032 1.28-4.073 14.93-.49 15.64-3.846.71-3.356-10.66-5.98-9.99-7.537.67-1.56 9.49 3.584 9.95 1.187.46-2.398-11.67-3.225-10.59-5.023 1.09-1.798 8.87-2.643 13.42-2.414 3.12.156 6.36-1.163 10.38-1.12 3.65.04 3.68 3.258 1.46 3.578-2.52.37-5.12.61-4.71 2.18.39 1.52 5.84.95 7.61 2.14 1.38.93 3.46.39 3.05-1.33-.4-1.7-1.93-2.86-2.27-6.58-.19-2.11-14.78-6.64-15.79-7.48-1.01-.83-2.17 3.25-3.34.49-1.16-2.75-4.43-12.35-6.57-14.99-2.15-2.64-3.08-7.21-4.59-6.25-1.51.96 4.76 11.29 5.88 12.49 1.12 1.2.42 2.16-.54 2.76-.96.6-1.58 3.72-.88 5.28.7 1.56-.99 2.76-2.94 4.68s-2.59 3.24-1.48 4.68c1.11 1.44-.46 2.16-2.2 2.64-1.74.48-4.69 6.47-2.87 8.03 1.82 1.56 1.61 3.36-.14 4.67-1.75 1.32-.82 2.04 0 2.76.82.72 1.46 2.64.48 3.6-.97.96 1.89 1.56.41 2.76s-.76 6.47-1.87 7.91c-1.12 1.44-.41 2.52 1.63 2.28 2.04-.24 2.28.84.54 1.56-1.74.72-3.2 3.59-.88 2.87 2.33-.72 8.79-2.88 11.94-2.52 3.15.36 5.47 1.79.87 2.4-4.59.61-14.71 3.36-12.44 9.35.01-2.15 1.53-3.23 2.89-3.83-.15 2.04 4.39 2.51 8.36.23s9.89-4.37 11.58-2.93c1.69 1.44 9.55 3.46 10.79 4.77 1.24 1.31 4.63 1.43 3.07 1.43z" style="fill:#cccccc;fill-rule:evenodd;"/>
  <path id="path3827-67" d="M235.837 498.837c.754 1.053 4.827-2.452 5.578-3.128.75-.68-2.303-2.29-2.814-2.38-.51-.09-1.23.87-1 1.27.7 1.18-2.52 3.16-1.76 4.23z" style="fill:#cccccc;fill-rule:evenodd;"/>
  <path id="path3829-177" d="M269.64 496.494c.33-1.91-11.008-5.333-14.794-9.223-3.787-3.88-6.156-2.54-7.863-4.06-1.707-1.52-10.42-7.11-9.46-8.29.96-1.18 3.57 1.44 5.492 1.28 1.923-.16 4.64 4.91 6.356 4.74 1.72-.16.5-12.73.7-14.59.21-1.85.93-7.58-.88-9.44-1.8-1.86-10.47-6.27-11.59-8.8-1.11-2.53-1.49-1.18-2.15.84-.66 2.02.02 7.25-1.52 9.44-1.54 2.19-3.54 5.39-1.26 5.74 2.29.34 3.07 1.53 1.64 3.38-1.42 1.85 5.56.86 8.38.19 2.82-.67 2.96 1.52.99 2.19-1.97.67-6.49 1.68-8.67.15-2.17-1.52-3.8.16-3.3 2.53.5 2.37-.77 4.56-2.53 1.52.73 2.12-.51 6.93-.51 6.93 1.46-2.7 3.1-1.18 2.82.35-.28 1.52-1.85 4.73 3.57 7.95 5.41 3.22 10.23 3.56 13.18 3.23 2.96-.33 3.74-1.85 5.05.01 1.32 1.86 7.36 3.56 9.86 3.56 2.49 0 6.53 2.19 6.54.43z" style="fill:#cccccc;fill-rule:evenodd;"/>
  <path id="path3981-72" d="M268.7 473.4c1.22-.72-2.005-9.178-5.728-10.02-3.722-.844-11.574 3.068-10.583 4.144.99 1.075 2.64.125 3.67.247 1.03.13 2.48 1.68 2.78 1.08.3-.59-1.53-.95-1.68-1.67-.16-.71 4.46-.58 5.95.25 1.49.84 4.57 6.57 5.58 5.97z" style="fill:#cccccc;fill-rule:evenodd;"/>
  <path id="path3985-46" d="M313.27 471.243c-.036-1.193-4.27-1.356-4.12-2.55.153-1.193 18.018-3.112 17.696-4.816-.323-1.703-9.864-1.753-11.84-1.845-3.538-.164-5.64-2.924-7.302-1.815-2 1.335.916 6.268-2.65 8.987-3.564 2.718-7.498 1.706-7.095 4.586.4 2.88 5.23 1.396 6.03-.18.82-1.61 2.37-1.468 2.75.163.61 2.66 6.39.026 6.52-2.53z" style="fill:#cccccc;fill-rule:evenodd;"/>
  <path id="path3987-0" d="M304.148 482.417c.472 1.537 11.427 2.95 14.194 2.43 2.767-.517 6.425-.36 8.018.483 1.593.844 1.977-1.538 1.142-2.555-.835-1.017-1.566-3.056-1.21-4.76.354-1.702-.546-5.274.125-7.83.67-2.56-1.708-2.55-4.28-.84-2.57 1.712-11.986 7.356-13.35 8.55-1.365 1.194-6.395 4.522-4.64 4.522z" style="fill:#cccccc;fill-rule:evenodd;"/>
  <path id="path3989-65" d="M320.57 490.328c.365-1.23 4.436-.377 6.79-2.07 1.208-.868 1.435.48 0 1.804-1.96 1.81-.008 4.203-1.64 5.29-.828.552-1.54-1.676-2.57-2.87-.877-1.02-1.47-2.153-2.58-2.154z" style="fill:#cccccc;fill-rule:evenodd;"/>
  <path id="path4183-3" d="M237.64 443.526c-.155-2.147 2.397-5.047 8.77-5.205 8.247-.2 16.122-6.83 17.604-8.85-.007 2.14.526 5.24.742 6.31-.63-.71-1.185-1.79-1.345-2.26-1.53 1.54-6.63 3.9-6.15 6.4.48 2.5 8.69-2.23 8.69-2.23.45 2.38-1.85 5.11-1.4 7.61.45 2.5.34 3.81-.37 4.64-.7.83 1.01 2.62-.99 4.17-1.99 1.54-1.95 3.33-.06 6.43-2.71-3.7-1.94-6.43-.88-7.14s1.04-2.26.39-3.33.05-2.02.79-2.49c.74-.47-.07-2.02-.9-1.31-.83.71-2.8 2.49-5.48 1.77-2.68-.72-3.98-4.41-2.85-5.84-1.01 1.43-1.41 4.4-1.98 5.71-.57 1.31-9.76-4.34-14.54-4.34z" style="fill:#cccccc;fill-rule:evenodd;"/>
  <path id="path4185-6" d="M250.673 387.38c-1.132 24.877-10.206 32.58-13.26 35.424-3.055 2.842-3.03 10.94 2.257 12.87 5.285 1.927 18.17-3.495 20.47-5.39 2.303-1.894-6.91-12.64-8.02-16.216-1.11-3.576-2.377-7.002-1.84-12.153.52-5 .58-10.983.393-14.534z" style="fill:#cccccc;fill-rule:evenodd;"/>
  <path id="path4419-4" d="M259.182 498.776c-.518 1.04 4.463 3.728 5.39 3.954.925.227.062 2.597 1.092 2.485 1.03-.113.783-4.402-.14-4.854-.922-.45-5.884-2.5-6.342-1.58z" style="fill:#cccccc;fill-rule:evenodd;"/>
  <path id="path4421-35" d="M262.79 478.152c.55-1.57-8.334-5.968-10.603-5.65-1.25.175-.768 6.46-.326 6.757.78.33 2.76-1.58 5.1-1.68 2.35-.11 5.13 2.58 5.83.57z" style="fill:#cccccc;fill-rule:evenodd;"/>
  <path id="path4423-9" d="M274.53 413.467c-1.783-.006-1.65 1.455-.706 1.458.944.003 1.527.68 1.16 1.24-.367.56-1.53 1.567-3.758 4.592-2.228 3.024-4.958 6.27-3.48 7.4 1.48 1.126 4.935-2.007 5.962-.993 1.027 1.013-2.96 7.176-4.533 9.304-1.572 2.13-2.527 5.382-2.217 6.506.31 1.124.156 2.92-.307 3.593-.46.673 0 2.36.65 1.462.65-.9 4.88-5.83 5.9-9.42.04 5.05-4.08 9.98-5.08 10.54-.99.56-1.63 1.57-.84 2.35.67.67 2.54 3.94 3.76 6.38-.06-.15-.12-.31-.18-.43-.1-.23-.17-.47-.21-.71-.6-1.72-.75-3.05-.42-3.44.47-.56 2.18-5.05 3.17-9.09 1-4.04 1.94-9.65 1.66-11.56-.27-1.91 1.86-5.72 1.4-7.41-.46-1.69.23-6.74.16-8.65-.06-1.91-.27-3.15-2.06-3.15z" style="fill:#cccccc;fill-rule:evenodd;"/>
  <path id="path4731-92" d="M288.98 484.93c1.145.767 6.753-.94 6.983-2.717.23-1.778-1.618-4.022-1.504-5.426.11-1.404-1-1.497-1.39-.748-.4.74-.9 1.02-1.48.56-.59-.47-.99-.85-1.47.46-.47 1.31-1 3.09.37 3.27 1.37.18.55.75-.42 1.03s-2.2 2.82-1.11 3.55z" style="fill:#cccccc;fill-rule:evenodd;"/>
  <path id="path5050-7" d="M323.365 408.343c1.28-.262.046-3.61 1.49-4.01 1.442-.403-.01-3.344.206-4.413.22-1.07.24-1.872-.9-1.605-1.13.267-5.23-8.158-4.85-9.36.38-1.204 1.52-3.61.49-6.55-1.03-2.942-.27-12.168-7.39-8.424-7.12 3.75-2.72 8.66-1.48 8.79 1.25.13 1.31 1.6.79 2.79-.52 1.2-4.07.17-2.97-.09 1.11-.26 1.31 5.35.54 5.89s-2.15 2.81.44 2.41c2.59-.4 4.06-1.06 4.54-2.13.48-1.07 2.53 0 1.14 1.61s-3.09 2.14-4.07 2.41c-.98.27-1.1 2.14.71 1.74 1.81-.4 4.16-1.47 3.3.81-.87 2.27-2.2 6.15 0 6.56 2.2.4 4.03-.67 5.14.54 1.11 1.2 3.3 5.07 2.91 3.08z" style="fill:#cccccc;fill-rule:evenodd;"/>
  <path id="path5056-42" d="M271.334 388.296c-.1-1.334-6.683-2.26-8.918-3.854-2.235-1.594-4.528-4.774-5.62-4.5-1.09.275 3.303 7.378 5.64 8.04 2.338.662 9.013 1.83 8.898.314z" style="fill:#cccccc;fill-rule:evenodd;"/>
  <path id="path5386-7" d="M255.065 484.56c-.104-2.125 6.05-1.31 6.25-2.76.197-1.45 1.654-1.844 1.832-.13.06.59.026 1.79.698 2.326 1.52 1.213.93 3.023-1.194 1.76-1.84-1.09-7.46 1.32-7.58-1.197z" style="fill:#cccccc;fill-rule:evenodd;"/>
  <path id="path3561-94" d="M286.75 501.274c-.802 1.57-1.17 3.427-1.252 5.304.76 2.67 1.944 6.052 1.958 5.296.015-.847-.105 2.897.74 3.236.843.338 3.237-1.86 4.116-3.216.047-.073.195-.288.262-.39-1.883 1.03-2.402-.674-2.367-1.97.043-1.556 1.173-1.017 1.4-.54.227.48 5.566-4.492 3.937-5.927-1.63-1.435-5.53 3.177-7.087 3.296-1.558.12-1.658-3.95-1.708-5.09z" style="fill:#cccccc;fill-rule:evenodd;"/>
</svg>
