<?xml version="1.0" encoding="UTF-8" standalone="no"?>
<!-- Created with Inkscape (http://www.inkscape.org/) -->

<svg
   xmlns:dc="http://purl.org/dc/elements/1.1/"
   xmlns:cc="http://creativecommons.org/ns#"
   xmlns:rdf="http://www.w3.org/1999/02/22-rdf-syntax-ns#"
   xmlns:svg="http://www.w3.org/2000/svg"
   xmlns="http://www.w3.org/2000/svg"
   version="1.1"
   width="560"
   height="560"
   id="pants_leather">
  <path
     d="m 290.65033,276.2868 c 11.33695,-1.7615 24.31331,-5.2379 30.52471,-4.1418 4.27383,11.2777 6.46937,24.5907 7.35412,41.0422 2.14902,39.9597 -5.9313,55.2087 -5.10498,60.6536 0.67978,4.4794 -0.86522,6.6661 -2.70068,9.2179 2.05115,3.6275 1.75892,3.9883 -0.14425,5.8062 1.13096,2.1688 1.17028,4.3375 0.49421,4.7017 2.00963,2.8919 2.49788,6.8662 1.2564,7.2349 -1.15867,0.3441 -0.68033,1.7695 0.73554,2.2006 1.71489,0.5224 1.01777,2.6064 0.22523,3.9561 -1.62462,2.7666 3.23629,1.7995 1.07668,5.0747 3.46973,1.0752 -0.14495,4.7206 0.86325,7.2615 1.0081,2.5409 1.49607,4.3921 -0.60569,5.5607 3.63242,18.5352 -4.66341,47.9232 -4.04724,60.937 0.61615,13.0136 4.7295,19.2737 -13.4711,19.9178 -18.2005,0.644 -12.50493,-7.1497 -11.26858,-18.9077 1.23634,-11.7581 -6.96543,-52.5781 -0.289,-67.784 -1.05081,-2.9722 -1.29163,-7.2964 -0.94793,-9.487 -2.60654,-1.9008 -0.29125,-3.3486 -0.86008,-4.9999 -0.98075,-2.849 -1.41744,-4.6027 0.54026,-5.5565 -2.63301,-11.2868 -5.77653,-55.5741 -6.13312,-62.4322 -0.18992,-3.6526 1.13827,-8.5486 1.49111,-11.4813 -0.88727,0.072 -1.32762,-0.6641 -2.1466,-0.8831 -1.23148,7.339 -0.76385,12.2837 -1.60269,21.2017 -0.64288,6.8346 -12.11109,39.0859 -14.60209,43.2701 1.08317,4.8983 -0.12816,5.9046 -1.4517,6.2986 0.34725,2.2642 -0.9721,3.7929 -0.56583,5.3007 0.40625,1.5076 1.81884,3.9473 0.12561,4.1695 -1.69325,0.2221 0.12416,4.2674 -1.63054,5.3316 1.25771,4.5912 2.52958,18.8153 -0.54007,43.5808 -1.37917,11.129 -0.54181,24.4827 -3.42116,37.0571 -1.64328,7.1762 -0.6671,10.2289 -1.03593,12.7066 -0.36891,2.4778 -4.41865,5.8326 -12.39241,6.6939 -7.97365,0.8612 -16.41287,-5.6904 -14.28147,-10.0875 2.13129,-4.3972 4.93392,-6.1231 4.67505,-11.6773 -0.25886,-5.5542 -6.96561,-61.2514 -1.44715,-68.2174 -2.34652,-3.9823 0.24396,-11.6286 1.1555,-12.8685 -0.90907,-3.7011 -1.50994,-5.7889 -0.0727,-6.9275 -2.73973,-4.3517 -1.86896,-5.677 -1.08887,-6.4352 0.77999,-0.7583 1.89495,-0.5717 0.4046,-3.0279 -1.49027,-2.4564 3.87793,-1.7111 1.58705,-3.5962 -2.29087,-1.8851 -1.04375,-4.3384 0.0386,-4.341 -1.66541,-4.8918 -2.62049,-26.2354 0.83901,-61.1535 -0.70455,-4.1091 -0.52802,-7.4524 0.48194,-7.4513 -0.48051,-4.8867 1.093,-7.4633 2.1073,-7.4636 1.39449,-9.1287 -1.53492,-20.2689 0.23061,-29.762 15.27479,1.2679 31.03169,1.7775 45.64508,-0.4931 z"
     id="path5976-9-8"
     style="fill:#460000;fill-opacity:1;fill-rule:evenodd;stroke:#000000;stroke-width:0.36197829;stroke-linecap:butt;stroke-linejoin:miter;stroke-miterlimit:4;stroke-opacity:1;stroke-dasharray:none;stroke-dashoffset:0;marker:none;visibility:visible;display:inline;overflow:visible;enable-background:accumulate" />
  <path
     d="m 251.21574,277.1116 c 1.78503,0.1277 3.65384,0.2777 5.39226,0.3768 3.29022,0.1878 6.5012,0.3235 9.66415,0.3581 3.16296,0.035 12.96042,-0.4666 15.83205,-0.6376 2.87164,-0.1713 5.72007,-0.4708 8.55174,-0.9276 5.66334,-0.9134 1.15653,-1.218 9.07868,-2.2733 3.96108,-0.5276 7.85779,-0.9825 11.15964,-1.2271 1.65093,-0.1223 3.1452,-0.19 4.42883,-0.1974 1.28362,-0.01 2.35323,0.045 3.12965,0.1823 1.37216,5.9366 6.83704,12.9483 7.55296,20.0164 0.66653,6.5804 1.80351,12.7527 2.13141,18.6431 0.21547,3.8707 -1.04405,6.8378 -1.10124,10.4211 -4.57275,4.2102 -5.64561,8.4981 -8.31022,8.1487 2.30559,16.1809 -7.45733,35.986 -9.13037,39.5324 -1.67302,3.5464 -1.63207,7.593 2.83936,10.0948 4.47143,2.502 7.79773,7.4943 0.80026,11.0083 -6.99754,3.5139 -5.89813,4.0137 -2.23988,4.5068 3.65824,0.493 6.2177,0.4941 4.00835,2.5006 -2.20935,2.0066 -2.55898,3.0111 0.50776,3.0027 3.06673,-0.01 2.52901,2.9914 0.56209,3.4977 -1.96689,0.5064 -1.58087,3.0124 1.48702,3.0031 3.06788,-0.01 1.38649,2.489 -1.68133,2.4976 -3.06781,0.01 -4.64888,3.5258 -0.43193,4.5178 4.21696,0.992 6.87967,3.8505 3.53392,10.2274 -3.34577,6.377 -6.02792,18.5319 -3.46196,31.048 2.56595,12.5158 -2.00596,36.9729 -0.85351,41.0629 1.11888,3.9708 1.55593,8.8967 -9.55237,9.1536 -1.332,-0.024 -2.75414,-0.039 -3.80521,-0.1916 -1.60488,-0.2324 -2.89599,-0.5946 -3.91729,-1.056 -1.0213,-0.4612 -1.7714,-1.0164 -2.31038,-1.6633 -0.53898,-0.6467 -0.86555,-1.3981 -1.03289,-2.2131 -0.16734,-0.8152 -0.17003,-1.6898 -0.0812,-2.6693 0.0888,-0.9794 0.25782,-2.0578 0.48519,-3.2028 0.45474,-2.2899 1.08105,-4.9148 1.39009,-7.8546 0.15452,-1.4698 0.1921,-3.3599 0.12713,-5.6172 -0.0411,-1.4412 -0.16348,-3.2297 -0.27491,-4.9389 0.86382,-4.5136 1.875,-9.7618 3.04332,-15.8716 1.97817,-4.8686 3.37875,-10.0838 0.74847,-10.9587 -2.63027,-0.875 -1.16637,-4.1807 1.56647,-5.8185 2.73283,-1.6378 4.21759,-4.924 0.0537,-6.5527 -4.16393,-1.6288 -3.41526,-8.3796 0.033,-3.2 3.44828,5.1799 8.41851,0.7315 2.97594,-2.7811 -5.44259,-3.5128 6.10566,-18.889 -1.39867,-21.0118 -7.50433,-2.1228 -2.09613,-2.8504 2.17608,-3.9253 4.2722,-1.0749 5.89257,-3.1957 1.47608,-3.5422 -4.4165,-0.3465 -6.05341,-5.6912 -4.3657,-7.1175 1.6877,-1.4262 3.33887,-3.2158 -2.52966,-7.1248 -5.86853,-3.909 -7.27183,-3.1843 -2.29695,-8.8906 4.37491,-5.0181 2.03529,5.4083 -5.67733,-23.6829 -0.23107,-3.4778 -2.15602,-6.8624 -2.33706,-9.6501 -0.16702,-2.567 -0.30795,-4.742 -0.47109,-6.3909 -0.16314,-1.649 -0.34268,-2.7624 -0.54078,-3.1744 -0.79241,-1.6482 -0.4573,-2.9989 0.13102,-5.1521 0.296,-1.0833 0.52839,-2.3754 0.37292,-3.3548 -0.15547,-0.9795 -0.20197,-1.8773 -0.11378,-2.6104 -0.88728,0.072 -0.23683,-1.0325 -1.05584,-1.2515 -0.58163,1.8353 -0.19356,4.9589 -0.86472,6.4994 -0.67117,1.5404 -4.89697,2.375 -5.60033,3.8352 -0.70336,1.4602 1.04969,2.0468 0.37576,3.6421 -0.1181,0.2796 -0.22198,0.6317 -0.33751,0.9194 -3.27719,2.2099 -8.95814,4.6193 -10.50535,5.4955 -2.58646,1.4645 -10.14794,9.3769 -6.67798,14.0151 3.46994,4.6381 -5.79612,15.0486 -11.80147,12.179 -6.00532,-2.8695 -4.38113,-31.132 -3.54274,-38.5783 0.83813,-7.4463 1.72107,-12.3974 0.25076,-16.6522 -1.47032,-4.2549 9.06325,-18.943 7.31083,-22.8896 -1.55998,-3.5133 -6.71139,-5.8626 -4.87525,-15.5341 z"
     id="path9846-6-3"
     style="fill:#000000;fill-opacity:1;fill-rule:evenodd;stroke:none;marker:none;visibility:visible;display:inline;overflow:visible;enable-background:accumulate" />
  <path
     d="m 325.37502,289.6314 c -1.69556,-0.8013 -11.10036,-1.6617 -25.29545,4.499 -17.98445,7.8053 -18.53084,3.2605 -24.94344,1.7205 -4.4122,-1.0596 -24.83472,-5.8103 -30.22032,-3.0768 0.1622,-1.5293 0.2852,-3.0487 0.4977,-4.5247 0.3271,-2.2712 0.4071,-4.1598 0.8504,-5.9953 3.047,-1.6601 13.54322,-2.0108 22.62812,0.543 10.2137,2.871 20.94455,9.0554 40.60087,1.0644 3.71636,-1.5108 -2.4718,-6.1742 10.20204,-6.099 -3.97397,-0.1742 5.2348,9.8766 5.68008,11.8689 z"
     id="path6172-3-7"
     style="fill:#000000;fill-opacity:1;fill-rule:evenodd;stroke:none;marker:none;visibility:visible;display:inline;overflow:visible;enable-background:accumulate" />
  <path
     d="m 242.68826,508.5568 c -0.45678,-0.6488 -0.88172,-1.3805 -1.23784,-2.2501 -0.36818,-0.8988 -0.68809,-1.9337 -0.92855,-3.1094 0.62375,-0.069 1.20009,-0.2081 1.72418,-0.4251 0.52407,-0.217 1.00994,-0.509 1.4296,-0.8327 0.41966,-0.3239 0.78814,-0.6841 1.09822,-1.0746 0.31007,-0.3906 0.55609,-0.8015 0.7515,-1.2184 0.39082,-0.834 0.54383,-1.696 0.44913,-2.3881 -0.0473,-0.346 -0.15164,-0.6503 -0.3265,-0.8979 -0.17486,-0.2475 -0.4174,-0.4161 -0.72467,-0.5242 -0.61454,-0.2161 -1.14118,-0.5135 -1.52342,-0.8372 -0.38222,-0.3234 -0.60656,-0.6755 -0.64915,-1.0115 -0.0427,-0.336 0.10544,-0.656 0.50472,-0.9163 0.39929,-0.2605 1.04511,-0.4831 1.97107,-0.6049 0.46297,-0.061 0.843,-0.1543 1.1666,-0.314 0.32358,-0.16 0.58827,-0.3695 0.7888,-0.6001 0.40108,-0.4611 0.56823,-1.0298 0.56239,-1.6203 -0.006,-0.5904 -0.18675,-1.2122 -0.49254,-1.7368 -0.30584,-0.5247 -0.73765,-0.9584 -1.23313,-1.2151 -0.49549,-0.2566 -0.98331,-0.6585 -1.40062,-1.1577 -0.4173,-0.4989 -0.75392,-1.1073 -0.91646,-1.7237 -0.16257,-0.6165 -0.15707,-1.2468 0.1162,-1.8457 0.13672,-0.2996 0.33722,-0.5844 0.61549,-0.8561 0.27828,-0.2716 0.62443,-0.522 1.06394,-0.7533 0.87903,-0.4629 1.49302,-0.9098 1.87363,-1.2912 0.38062,-0.3816 0.53302,-0.6975 0.48885,-1.0203 -0.0441,-0.3229 -0.28595,-0.6472 -0.69612,-0.9571 -0.41016,-0.3098 -0.98746,-0.6271 -1.7131,-0.9834 -0.36284,-0.1781 -0.70737,-0.6618 -1.02156,-1.4052 -0.31421,-0.7434 -0.60671,-1.7418 -0.86236,-2.9176 -0.5113,-2.3517 -0.89179,-5.4449 -1.06712,-8.6484 -0.0877,-1.6019 -0.11411,-3.2116 -0.0816,-4.7792 0.0325,-1.5675 0.1258,-3.0754 0.30148,-4.4388 0.17569,-1.3634 0.43179,-2.5808 0.76675,-3.5793 0.33495,-0.9985 0.73959,-1.7781 1.24298,-2.2636 1.33873,-0.9828 2.15454,-2.045 2.99798,-2.7288 0.84346,-0.6838 1.43064,-1.2723 1.78627,-1.745 0.35563,-0.4724 0.48337,-0.8342 0.42436,-1.1302 -0.0589,-0.296 -0.31651,-0.5116 -0.7217,-0.673 -0.81037,-0.3226 -2.24764,-0.4386 -4.04867,-0.4965 -1.80103,-0.058 -3.95557,-0.079 -6.21974,-0.2341 0.73188,-1.0811 2.18201,-4.0432 4.15882,-6.9299 0.9884,-1.4434 2.10328,-2.8491 3.34219,-4.0125 0.61947,-0.5818 1.25805,-1.1062 1.93424,-1.5306 0.67619,-0.4243 1.39393,-0.768 2.1232,-0.9788 1.45852,-0.4215 2.40464,-0.8461 2.9681,-1.2594 0.28171,-0.2069 0.46789,-0.4324 0.5685,-0.6189 0.10056,-0.1867 0.12453,-0.3478 0.0712,-0.5042 -0.10656,-0.3128 -0.49974,-0.5537 -1.06192,-0.6873 -0.56218,-0.1335 -1.29062,-0.154 -2.09677,-0.029 -1.61227,0.2494 -2.64378,0.8851 -3.51985,1.0479 -0.43803,0.081 -0.84407,0.029 -1.26502,-0.2347 -0.42152,-0.271 -0.87207,-0.7662 -1.39151,-1.6089 2.53572,-0.7542 4.05584,-1.3887 4.85827,-1.8865 0.40123,-0.2489 0.61671,-0.4791 0.69718,-0.6614 0.0805,-0.1825 0.0247,-0.3138 -0.14469,-0.4331 -0.33871,-0.2387 -1.09314,-0.353 -2.01337,-0.3635 -0.92029,-0.011 -2.01018,0.069 -2.95278,0.2538 -0.94215,0.1932 -1.7069,0.3225 -2.3225,0.3551 -0.61565,0.032 -1.07305,-0.01 -1.42421,-0.1702 -0.3511,-0.1649 -0.5912,-0.4465 -0.74244,-0.8463 -0.15123,-0.3999 -0.21019,-0.9184 -0.22794,-1.5895 4.52356,-1.0516 7.30419,-1.9538 8.90502,-2.7066 0.80041,-0.3766 1.30998,-0.7282 1.57015,-1.0633 0.26015,-0.3352 0.27422,-0.6542 0.10949,-0.9834 -0.16472,-0.3292 -0.50892,-0.6643 -0.98692,-1.0248 -0.47802,-0.3605 -1.08603,-0.7332 -1.76681,-1.1617 -1.36159,-0.8573 -3.01005,-1.895 -4.51191,-3.2201 0.93464,0.2657 1.64547,0.4223 2.20026,0.4854 0.55481,0.064 0.95409,0.041 1.19699,-0.07 0.2429,-0.1121 0.34481,-0.3077 0.34133,-0.5706 -0.003,-0.2626 -0.11579,-0.6031 -0.30118,-0.9907 -0.37083,-0.7751 -2.4411,-2.0149 -3.16701,-3.1392 -0.3037,-0.4704 -0.55234,-1.0283 -0.85216,-1.5334 0.42306,0.7061 0.8998,1.4868 1.47441,2.2036 0.65279,0.8145 2.76887,1.7695 3.55668,2.2241 0.3939,0.2274 0.80508,0.3982 1.22506,0.4608 0.42002,0.062 0.85211,0.024 1.2914,-0.1273 1.01189,-0.2927 1.73952,-0.595 2.2525,-0.9294 0.513,-0.3345 0.8046,-0.6985 0.89913,-1.0674 0.0946,-0.3691 -1.35266,-0.9837 -1.60487,-1.3837 -0.25227,-0.4001 -0.65632,-0.8126 -1.17689,-1.2384 -1.04112,-0.8516 -2.55354,-1.7972 -4.21601,-2.7002 -1.66248,-0.9031 -3.47161,-1.8449 -5.14247,-2.7768 0.63694,0.1066 1.22536,0.1232 1.75716,0.066 0.53171,-0.057 0.9925,-0.1913 1.4102,-0.3792 0.41771,-0.1879 0.7902,-0.4209 1.08504,-0.7069 0.29484,-0.286 0.52133,-0.6124 0.68445,-0.9637 0.16313,-0.3513 0.25661,-0.7425 0.27896,-1.1264 0.0224,-0.384 -0.0189,-0.7642 -0.14665,-1.1481 -0.12784,-0.3839 -0.34371,-0.7714 -0.63141,-1.1227 -0.28771,-0.3513 -0.65854,-0.6709 -1.11627,-0.957 0.49062,0.07 0.86406,0.034 1.14691,-0.074 0.28291,-0.1082 0.47724,-0.2911 0.57943,-0.5408 0.10216,-0.2498 0.12525,-0.5597 0.0735,-0.914 -0.0517,-0.3541 -0.18862,-0.748 -0.36774,-1.1696 -0.3583,-0.8432 -0.94569,-1.7958 -1.65607,-2.6868 -0.71039,-0.8911 -1.52448,-1.7109 -2.37887,-2.3531 0.96894,0.4986 2.10226,0.9431 3.28185,1.2978 1.17956,0.3546 2.40554,0.621 3.48956,0.6882 0.54206,0.034 1.03919,0.011 1.50056,-0.053 0.4612,-0.065 0.88573,-0.1755 1.22856,-0.3567 0.34285,-0.181 0.60081,-0.4373 0.78779,-0.752 0.18696,-0.3147 0.28454,-0.7036 0.27832,-1.1692 -0.006,-0.4656 -0.059,-0.8935 -0.18531,-1.3052 -0.12631,-0.4117 -0.30568,-0.8067 -0.54148,-1.1849 -0.47162,-0.7564 -1.15851,-1.4541 -2.00511,-2.1978 -1.69317,-1.4874 -4.06824,-3.1268 -6.74743,-5.5243 1.5477,0.7736 2.87609,1.3855 4.00452,1.8316 1.12841,0.446 2.05658,0.7246 2.84037,0.9114 0.78378,0.1868 1.42777,0.2712 1.94174,0.2672 0.51416,0 0.90575,-0.089 1.22463,-0.2155 0.63778,-0.2524 2.35673,-0.4456 2.65585,-0.7767 0.14957,-0.1655 0.28335,-0.3149 0.46091,-0.3973 0.1776,-0.082 0.39381,-0.097 0.67317,-0.029 0.27936,0.068 0.50599,0.1925 0.7145,0.3645 0.20852,0.1721 0.40304,0.3942 0.56281,0.6441 0.31954,0.4997 0.55483,1.1227 0.81183,1.7798 0.257,0.6572 0.53341,1.337 0.90367,1.9456 0.37025,0.6085 0.82645,1.1495 1.48478,1.5015 0.65835,0.3521 1.04319,0.6942 1.18308,0.9929 0.13994,0.2989 0.0412,0.5515 -0.23882,0.6794 -0.27993,0.128 -0.74935,0.149 -1.3521,-0.012 -0.60268,-0.1607 -1.33069,-0.5133 -2.15933,-1.0793 -0.41432,-0.2831 -0.79288,-0.4672 -1.09799,-0.5743 -0.30512,-0.1072 -0.54831,-0.1338 -0.73596,-0.087 -0.18782,0.046 -0.31868,0.1754 -0.38092,0.3525 -0.0622,0.177 -0.046,0.4135 0.0252,0.6993 0.14262,0.5717 0.55141,1.3357 1.27503,2.2094 0.72361,0.8738 1.7531,1.859 3.10801,2.8528 0.67744,0.4967 1.21283,0.9407 1.62275,1.3662 0.4099,0.4255 0.69358,0.8347 0.87646,1.1853 0.18291,0.3507 0.25715,0.6616 0.25255,0.9338 -0.005,0.2723 -0.0876,0.4911 -0.2408,0.6812 -0.30639,0.3801 -0.88031,0.5947 -1.54992,0.6233 -0.66958,0.029 -1.43682,-0.1196 -2.16038,-0.4727 -0.72357,-0.3532 -1.31336,-0.499 -1.75386,-0.4776 -0.44055,0.021 -0.73859,0.21 -0.86067,0.4983 -0.12208,0.2884 -0.0742,0.6755 0.1561,1.1229 0.23025,0.4475 0.64038,0.9441 1.25464,1.4423 0.30713,0.2491 0.64272,0.4161 0.99894,0.5305 0.35621,0.1142 0.75469,0.184 1.14065,0.2008 0.77189,0.034 1.57231,-0.099 2.34836,-0.2326 0.77604,-0.1334 1.51004,-0.2772 2.13857,-0.2792 0.31391,0 0.61188,0.043 0.86101,0.1313 0.24902,0.087 0.46243,0.2243 0.62757,0.4381 0.16512,0.2137 0.25614,0.4342 0.29451,0.6522 0.0385,0.2179 0.007,0.4233 -0.0739,0.633 -0.16178,0.4194 -0.54008,0.8246 -1.13564,1.1365 -0.59554,0.3119 -1.40332,0.5531 -2.37756,0.6572 -0.97427,0.104 -2.12365,0.072 -3.4235,-0.1318 -1.29986,-0.2043 -2.09694,-0.2607 -2.4918,-0.1902 -0.19735,0.036 -0.28576,0.1006 -0.29714,0.1897 -0.0114,0.089 0.0618,0.2161 0.20886,0.3498 0.58808,0.5346 2.33705,1.3679 4.33201,2.2116 0.99749,0.4219 2.02568,0.7765 2.87343,1.0953 0.84776,0.3189 1.51719,0.6147 1.77866,0.9173 0.13074,0.1512 0.14913,0.3045 0.0516,0.4685 -0.0975,0.1642 -0.31057,0.339 -0.6917,0.5284 -0.7623,0.3788 -2.14651,0.805 -4.39105,1.37 -2.24453,0.5649 -3.6888,1.0109 -4.47178,1.4171 -0.3915,0.2032 -0.60375,0.4168 -0.69721,0.6109 -0.0935,0.1941 -0.0681,0.389 0.0888,0.5957 0.31388,0.4136 1.09956,0.8739 2.12167,1.4696 1.02212,0.5956 2.28224,1.3134 3.61953,2.2704 -2.07718,-0.076 -3.62389,0.036 -4.69537,0.2748 -0.53574,0.119 -0.94431,0.2802 -1.25197,0.4543 -0.30764,0.1744 -0.50152,0.3769 -0.59819,0.5886 -0.0967,0.2117 -0.0931,0.4165 0.003,0.6477 0.0964,0.2312 0.29028,0.4751 0.56092,0.7069 0.54126,0.4634 1.39793,0.8999 2.5212,1.2491 -1.87975,-0.475 -3.22481,-0.6304 -4.10311,-0.5869 -0.43983,0.014 -0.75815,0.1048 -0.96323,0.22 -0.20515,0.114 -0.31065,0.2508 -0.29419,0.4325 0.0161,0.1815 0.14765,0.399 0.37237,0.6199 0.22467,0.2207 0.55676,0.4438 0.97553,0.6752 0.83756,0.4628 2.03437,0.9362 3.55936,1.2644 0.76249,0.1639 1.42105,0.3643 1.96472,0.6091 0.54367,0.2447 0.97039,0.5141 1.31055,0.8236 0.34018,0.3097 0.59329,0.656 0.74435,1.0142 0.15108,0.3583 0.21606,0.7414 0.19173,1.1319 -0.0244,0.3905 -0.13754,0.7941 -0.32427,1.1999 -0.18675,0.4058 -0.44694,0.8116 -0.78341,1.2145 -0.67292,0.806 -1.62863,1.6001 -2.82675,2.277 -1.19812,0.6767 -2.12769,1.2537 -2.7783,1.7999 -0.65061,0.5461 -1.02521,1.0487 -1.18866,1.5323 -0.16347,0.4835 -0.108,0.9597 0.14935,1.4472 0.25738,0.488 0.70431,1.0032 1.31225,1.5588 0.60791,0.5553 1.06495,1.2881 1.37322,2.1363 0.3083,0.8484 0.48289,1.8114 0.48203,2.7234 -4.5e-4,0.912 -0.17998,1.7769 -0.49915,2.5185 -0.31917,0.7415 -0.79181,1.3566 -1.43859,1.6841 -0.64682,0.3273 -1.44874,0.688 -2.15495,1.0943 -0.70621,0.4063 -1.3067,0.8393 -1.58053,1.3493 -0.13692,0.255 -0.2041,0.5332 -0.1401,0.8194 0.0641,0.2861 0.25738,0.5806 0.58337,0.8989 0.32596,0.3182 0.79486,0.6654 1.44207,1.0123 0.64721,0.3468 1.56706,0.798 2.58438,1.1559 1.01734,0.358 1.79584,0.4552 2.38204,0.3678 0.58651,-0.085 0.97678,-0.3834 1.24132,-0.7857 0.26454,-0.4024 0.3777,-0.9396 0.42931,-1.536 0.0516,-0.5964 0.0258,-1.2625 -0.0452,-1.949 -0.14186,-1.3731 -0.44539,-2.818 -0.47486,-3.8769 -0.0148,-0.5296 0.0523,-0.9579 0.21783,-1.2387 0.16557,-0.2805 0.44085,-0.4037 0.8874,-0.3244 0.44652,0.079 0.75385,-0.041 0.95636,-0.2779 0.2025,-0.2365 0.29779,-0.6064 0.31937,-1.0733 0.0433,-0.9331 -0.20942,-2.244 -0.5168,-3.5999 -0.30739,-1.3561 -0.67091,-2.7433 -0.82526,-3.8569 -0.0773,-0.5568 -0.0981,-1.0565 -0.0409,-1.4285 0.0572,-0.3718 0.20308,-0.6189 0.45853,-0.7244 0.5109,-0.2111 0.66027,-0.4745 0.67036,-0.7665 0.0104,-0.2919 -0.1373,-0.6197 -0.24994,-0.9597 -0.1126,-0.34 -0.18701,-0.7021 -0.0447,-1.0548 0.14226,-0.3528 0.51533,-0.6875 1.28806,-1.0159 1.23974,-0.7541 2.06329,-1.326 2.5225,-1.8172 0.22964,-0.2454 0.3541,-0.4728 0.40756,-0.6904 0.0534,-0.2176 0.0256,-0.4381 -0.0855,-0.6524 -0.22216,-0.4284 -0.7582,-0.8567 -1.57307,-1.4189 -0.81486,-0.5624 -1.89743,-1.2514 -3.22271,-2.1444 0.38689,0.1399 0.75605,0.1925 1.11239,0.1747 0.35607,-0.016 0.6943,-0.1143 1.00698,-0.2646 0.62534,-0.2993 1.15495,-0.8347 1.52694,-1.5048 0.37199,-0.67 0.59395,-1.4591 0.60762,-2.2995 0.007,-0.4203 -0.0363,-0.8524 -0.13887,-1.28 -0.10261,-0.4277 -0.2794,-0.8445 -0.50488,-1.2573 0.48348,0.1353 0.8762,0.3301 1.18383,0.5791 0.30762,0.249 0.5266,0.5429 0.68517,0.8725 0.1586,0.3298 0.2665,0.6894 0.30238,1.0671 0.0358,0.3777 0.009,0.7731 -0.0513,1.1654 -0.12148,0.7846 -0.42272,1.5559 -0.77491,2.188 -0.35216,0.6322 -0.74488,1.1252 -1.1187,1.3071 0.38982,-0.064 0.72161,-0.059 1.01818,0.016 0.29656,0.076 0.53586,0.2177 0.74726,0.4209 0.2114,0.2033 0.40377,0.4768 0.5379,0.7965 0.13415,0.3197 0.21451,0.7014 0.27912,1.1277 0.12923,0.8527 0.14447,1.9047 0.0405,3.1269 -0.10385,1.2222 -0.32797,2.5995 -0.60606,4.1138 0.24939,0.6795 0.38715,1.7157 0.40882,3.0174 0.0216,1.3016 -0.0655,2.8641 -0.21905,4.6173 -0.30698,3.5064 -0.90597,7.7609 -1.59128,11.94 -0.6853,4.1791 -1.34553,8.3801 -1.79229,11.6528 -0.44676,3.2726 -0.69767,5.6192 -0.5657,6.2004 0.264,1.1625 0.6086,3.077 0.69095,4.9491 0.0412,0.9362 0.0152,1.8597 -0.11514,2.6851 -0.13031,0.8254 -0.3564,1.5329 -0.73725,2.0663 -0.19045,0.2665 -0.39089,0.926 -0.57381,1.873 -0.18291,0.9468 -0.36136,2.1974 -0.54071,3.6096 -0.35871,2.8244 -0.7193,6.3375 -1.11764,9.7183 -0.79676,6.7611 -1.85416,12.8099 -1.87447,13.8507 -0.0102,0.5204 -0.0494,1.0978 -0.20081,1.7452 -0.15144,0.6474 -0.40371,1.3535 -0.84329,2.1031 -0.22801,0.3887 -0.66542,0.8304 -1.00207,1.24 -1.8991,0.8579 -4.15085,1.5966 -7.15619,1.9213 -2.69397,0.291 -5.33955,-0.2296 -7.68982,-1.2265 z"
     id="path9965-8-5"
     style="fill:#000000;fill-opacity:1;fill-rule:evenodd;stroke:none;marker:none;visibility:visible;display:inline;overflow:visible;enable-background:accumulate" />
  <path
     d="m 284.43443,284.4938 c 4.3824,0 7.9409,3.5585 7.9409,7.9409 0,4.3824 -3.5585,7.9409 -7.9409,7.9409 -4.3823,0 -7.9409,-3.5585 -7.9409,-7.9409 0,-4.3824 3.5586,-7.9409 7.9409,-7.9409 z m 0,2.2397 c -3.1451,0 -5.7012,2.556 -5.7012,5.7012 0,3.1451 2.5561,5.7012 5.7012,5.7012 3.1451,0 5.7012,-2.5561 5.7012,-5.7012 0,-3.1452 -2.5561,-5.7012 -5.7012,-5.7012 z"
     id="path13879-4-2"
     style="fill:#808080;fill-opacity:1;fill-rule:nonzero;stroke:none;stroke-width:0.5;marker:none;visibility:visible;display:inline;overflow:visible;enable-background:accumulate" />
  <path
     d="m 284.43443,284.4938 c 4.3824,0 7.9409,3.5585 7.9409,7.9409 0,4.3824 -3.5585,7.9409 -7.9409,7.9409 -4.3823,0 -7.9409,-3.5585 -7.9409,-7.9409 0,-4.3824 3.5586,-7.9409 7.9409,-7.9409 z"
     id="path13879-4-2-5"
     style="fill:none;stroke:url(#linearGradient296646-9);stroke-width:0.5;stroke-miterlimit:4;stroke-dasharray:none;marker:none;visibility:visible;display:inline;overflow:visible;enable-background:accumulate" />
  <path
     d="m 284.43443,298.1359 c -3.1451,0 -5.7012,-2.556 -5.7012,-5.7012 0,-3.1451 2.5561,-5.7012 5.7012,-5.7012 3.1451,0 5.7012,2.5561 5.7012,5.7012 0,3.1452 -2.5561,5.7012 -5.7012,5.7012 z"
     id="path13879-4-2-0"
     style="fill:none;stroke:url(#linearGradient297913);stroke-width:0.5;stroke-miterlimit:4;stroke-dasharray:none;marker:none;visibility:visible;display:inline;overflow:visible;enable-background:accumulate" />
</svg>
