<?xml version="1.0" encoding="UTF-8" standalone="no"?>
<!-- Created with Inkscape (http://www.inkscape.org/) -->

<svg
   xmlns:dc="http://purl.org/dc/elements/1.1/"
   xmlns:cc="http://creativecommons.org/ns#"
   xmlns:rdf="http://www.w3.org/1999/02/22-rdf-syntax-ns#"
   xmlns:svg="http://www.w3.org/2000/svg"
   xmlns="http://www.w3.org/2000/svg"
   version="1.1"
   width="560"
   height="560"
   id="pants_suit">
  <path
     d="m 318.89405,264.61585 c -11.96323,9.33996 -47.25197,14.14961 -73.86965,8.25154 0.57161,7.18575 -1.67498,13.11874 1.19435,18.00761 0.0336,3.39121 0.29206,6.51895 0.6875,9.4375 -0.31381,3.20811 -0.84124,6.46457 -1.78125,9.6875 -2.82305,9.679 -5.64145,47.5972 -3.625,69.375 0.86584,9.35116 0.72736,19.07535 -2.22912,25.09012 -1.98438,4.0371 -0.33355,17.26003 -0.98963,22.09738 -0.44209,3.25957 -1.51275,13.34429 -1.88449,17.81341 1.41279,11.66916 2.1217,23.11397 3.45285,32.16575 0,0 -1.04403,8.88307 -1.8939,12.01309 0.14377,6.30699 2.41875,10.81116 2.41875,13.04354 1.52206,5.22764 17.69749,7.01761 24.03312,4.72128 0.0774,-2.13913 3.46987,-9.27638 5.65678,-14.33619 -0.69213,-3.46791 -4.72502,-9.24071 -4.03259,-13.76653 1.21187,-7.92101 3.43072,-39.27133 2.82501,-47.47464 -0.54288,-7.35227 0.0692,-15.94606 1.15492,-21.01824 1.58605,-7.40935 4.63781,-22.43781 6.91403,-32.73698 5.36452,-24.27275 9.19089,-36.92899 11.8555,-55.17449 0.41782,14.23059 0.19419,27.54135 2.5,39.5625 3.13688,15.6844 -0.28529,15.94875 2.28125,24.21875 2.56654,8.2699 -1.00188,11.38235 2.63125,24.7875 1.45774,5.37863 1.32759,15.60388 -0.18127,19.87218 -1.43247,4.0522 -1.30107,21.25284 -0.59732,24.24743 0.84517,3.59631 0.75968,12.48057 0.73897,15.47562 -0.0273,3.95553 -3.63929,15.18935 -3.74441,16.47567 -0.31561,3.86197 3.43177,12.13098 3.47382,17.23535 0.71592,7.02891 20.41678,5.51565 24.82721,0 0.1367,-2.74263 -0.57555,-7.8173 -0.88055,-13.56144 1.48149,-3.76937 2.13996,-10.06889 4.48276,-13.57901 -0.39614,-1.42232 -0.90208,-4.70005 -1.54857,-6.76571 0.0572,-3.31382 1.54505,-10.02928 2.31686,-14.53759 2.50244,-14.61719 3.45012,-28.20495 1.16875,-38.75625 -2.28136,-10.5513 2.18359,-28.21459 1.57837,-47.425 -0.32585,-10.343 0.51538,-24.5186 0.51538,-43.625 0,-9.65161 -0.71561,-18.50449 -2.28125,-26.8125 0.22426,-2.56111 0.0931,-5.07592 -0.5,-7.4375 -0.80937,-1.86922 -1.55148,-6.15089 -1.34528,-8.00949 0.34597,-3.1186 -0.95086,-5.54518 -1.66175,-6.55668 -3.08831,-4.3943 -2.66704,-11.0494 -3.6614,-12.00548 z"
     id="path47858"
     style="fill:#808080;stroke:#4d4d4d;stroke-width:1;stroke-linecap:butt;stroke-linejoin:miter;stroke-miterlimit:4;stroke-opacity:1;stroke-dasharray:none;display:inline" />
  <path
     d="m 240.17041,425.45316 c 0.4372,-10.49288 -2.18602,-17.48813 1.74881,-20.11135 3.93483,-2.62322 14.76933,3.66164 18.2398,7.93808 -1.81724,-2.07685 -5.04169,-3.73006 -8.62132,-4.00325 -3.31999,-0.25337 -1.78983,5.34325 -5.24644,4.80923 -1.68039,-0.25961 -4.46762,0.95642 -4.80924,3.93483 -0.40166,3.50189 -1.31161,1.74882 -1.31161,7.43246 z"
     id="path47880"
     style="fill:#666666;stroke:none;display:inline" />
  <path
     d="m 298.60729,423.73914 c 1.63639,-13.78518 -3.84249,-15.87295 -2.54062,-25.62063 2.44143,1.29193 7.20896,4.88567 12.68355,4.53616 4.56948,-0.29171 8.54263,4.05884 10.96229,8.42889 -5.71981,-2.83124 -9.20558,0.26569 -11.33634,2.12751 -3.28398,2.86948 -7.43246,1.30743 -9.76888,10.52807 z"
     id="path47906"
     style="fill:#666666;stroke:none;display:inline" />
  <path
     d="m 247.96523,483.04077 c 0.90862,8.27742 12.95252,15.14729 18.46067,7.88706 -5.65268,-6.17611 -12.33054,-4.44905 -18.46067,-7.88706 z"
     id="path4479-9-1"
     style="color:#000000;fill:#666666;stroke:none;stroke-width:0.26044887;marker:none;visibility:visible;display:inline;overflow:visible;enable-background:accumulate" />
  <path
     d="m 315.90452,477.84634 c -6.98808,-1.33164 -18.50382,2.33277 -20.20912,5.4454 3.0669,5.14717 13.88252,-1.32834 20.20912,-5.4454 z"
     id="path4512-4-5"
     style="color:#000000;fill:#666666;stroke:none;stroke-width:0.26044887;marker:none;visibility:visible;display:inline;overflow:visible;enable-background:accumulate" />
  <path
     d="m 245.78125,307.40625 c -0.19552,0.86118 -0.40601,1.73578 -0.65625,2.59375 -2.82305,9.679 -5.64145,47.5972 -3.625,69.375 0.86584,9.35116 0.73773,19.07898 -2.21875,25.09375 -1.98438,4.0371 -0.34392,17.2564 -1,22.09375 -0.44209,3.25957 -1.50326,13.34338 -1.875,17.8125 1.41279,11.66916 2.10635,23.10447 3.4375,32.15625 0,0 -1.02513,8.90123 -1.875,12.03125 0.14377,6.30699 2.40625,10.79887 2.40625,13.03125 1.26189,4.33405 12.58301,6.29257 20.03125,5.53125 -6.51511,-2.18099 -16.07031,-9.28349 -20.3125,-15.34375 4.16884,2.08442 6.25933,0 8.34375,0 -3.47403,-4.86364 -5.54058,-12.49674 -7.625,-18.75 8.33768,7.64287 15.26866,10.39895 19.4375,11.09375 -14.1325,-14.35957 -18.97763,-21.76114 -19.4375,-36.125 5.82563,5.03924 13.01622,9.64583 19.4375,13.90625 -10.76963,-8.5948 -16.21861,-15.73957 -18.75,-20.15625 7.16971,1.00119 14.41679,-1.86539 19.4375,-5.5625 -5.74572,2.86689 -14.22091,2.73362 -17.34375,0 6.7167,-5.55845 15.7321,-14.57457 19.4375,-19.4375 -3.15327,1.98317 -16.02589,11.99557 -21.375,13.75 -2.08442,-11.1169 -5.87119,-19.68989 -0.6875,-27.4375 8.42849,-12.59733 18.32213,-31.61426 22.625,-46.375 -4.35423,14.60268 -14.34726,24.87701 -18.84375,27.25 0.58116,-26.59963 -1.67696,-44.63809 9.9375,-59.8125 0,0 -8.184,9.00831 -11.09375,14.09375 -0.20823,-3.4862 1.14975,-17.92082 2.1875,-30.8125 z"
     id="path16050"
     style="fill:#666666;fill-opacity:1;stroke:none" />
  <path
     d="m 318.4375,274.59375 c -3.10404,0.0596 -6.58798,1.07457 -8.71875,1.9375 0.39917,1.15799 0.74955,8.06912 1.25,9.59375 4.32887,13.18791 14.20678,33.20079 13.21875,52.09375 -5.30972,-6.37167 -11.9973,-10.94342 -16.6875,-15.28125 5.77276,8.65597 11.371,25.61957 15.8125,40.25 -2.11639,-5.58395 -7.44464,-15.21465 -10.9375,-18 5.55846,8.33767 11.10106,25.68627 10.40625,34.71875 -3.47403,-6.25326 -15.80059,-21.5032 -22.90625,-26.40625 9.03248,9.7273 22.91356,33.37174 22.21875,39.625 -2.08441,-1.38962 -7.76389,-2.47313 -14.59375,-3.46875 5.02124,3.09442 14.00253,11.59128 15.96875,23.625 0.67224,4.11428 -5.2166,20.49066 -15.28125,25.6875 4.86365,-1.38962 14.06872,-4.1507 16.6875,-6.9375 -4.20831,9.81242 -6.07809,18.67142 -12.1875,25.90625 3.63111,-1.47869 7.66772,-7.15737 9.4375,-9.71875 -1.52817,4.2315 -3.01361,16.78772 -8.9375,23.96875 4.02289,0.86483 7.79155,-0.58458 9.3125,-0.375 -4.16884,5.55845 -9.42368,15.09578 -22.625,17.875 4.86364,0.69481 7.63107,0.0166 15.96875,1.40625 0,0 -10.43952,0.68019 -13.21875,1.375 -2.77922,0.69481 -2.0625,4.875 -2.0625,4.875 0,0 2.0779,5.5552 12.5,6.25 -2.65449,1.99087 -10.38301,3.34665 -17.125,0.4375 1.33296,6.62223 20.44636,5.07743 24.78125,-0.34375 0.1367,-2.74263 -0.57,-7.81836 -0.875,-13.5625 1.48149,-3.76937 2.12595,-10.05238 4.46875,-13.5625 -0.39614,-1.42232 -0.91601,-4.71559 -1.5625,-6.78125 0.0572,-3.31382 1.57194,-10.02294 2.34375,-14.53125 2.50244,-14.61719 3.43762,-28.1987 1.15625,-38.75 -2.28136,-10.5513 2.19897,-28.22709 1.59375,-47.4375 -0.32585,-10.343 0.5,-24.5186 0.5,-43.625 0,-9.65161 -0.71561,-18.50449 -2.28125,-26.8125 0.22426,-2.56111 0.0931,-5.07592 -0.5,-7.4375 -0.80937,-1.86922 -1.54995,-6.1414 -1.34375,-8 0.34597,-3.1186 -0.94536,-5.551 -1.65625,-6.5625 -0.36485,-0.51914 -0.66249,-1.08712 -0.9375,-1.65625 -0.95064,-0.29667 -2.04839,-0.39687 -3.1875,-0.375 z"
     id="path16048"
     style="fill:#666666;fill-opacity:1;stroke:none;display:inline" />
  <path
     d="m 269.9375,310.90625 c 10.64684,3.54895 15.52207,7.53803 16.1875,9.3125 0.66543,1.77448 -1.76421,4.67527 -7.53125,5.5625 2.88352,0.22181 7.10358,-0.90013 8.65625,-1.34375 -1.10905,6.87608 -9.10687,29.93052 -21.75,48.5625 5.10161,-6.87609 13.53496,-21.26902 15.53125,-22.15625 1.73718,-0.77208 -3.24619,16.10242 -6.46875,37.15625 0.81832,-3.88175 1.6426,-7.68615 2.375,-11 5.36452,-24.27275 9.17914,-36.942 11.84375,-55.1875 0.23368,7.95892 0.26914,15.61871 0.65625,22.9375 1.49613,-10.50213 5.24655,-19.70242 3.125,-21.1875 -2.21809,-1.55266 -2.21197,-3.56862 -0.4375,-3.125 1.77447,0.44362 9.08523,5.77579 11.96875,8.4375 -11.09046,-10.64684 -12.64076,-11.31447 -34.15625,-17.96875 z"
     id="path311186"
     style="color:#000000;fill:#666666;fill-opacity:1;stroke:none;stroke-width:0.5;marker:none;visibility:visible;display:inline;overflow:visible;enable-background:accumulate" />
  <path
     d="m 276.37431,310.2428 c 8.42875,3.10533 13.97399,7.54151 26.83892,6.43246 -9.09418,-1.77447 -19.96283,-4.65799 -26.83892,-6.43246 z"
     id="path311188"
     style="color:#000000;fill:#666666;fill-opacity:1;stroke:none;stroke-width:0.5;marker:none;visibility:visible;display:inline;overflow:visible;enable-background:accumulate" />
  <path
     d="m 285.77473,277.47364 a 1.6963307,1.6963307 0 0 1 -3.39266,0 1.6963307,1.6963307 0 1 1 3.39266,0 z"
     id="path47860"
     style="fill:#b7c4c8;fill-opacity:1;stroke:#dbe2e3;stroke-width:0.42378223;stroke-linecap:round;stroke-linejoin:round;stroke-miterlimit:4;stroke-dasharray:none;display:inline" />
  <path
     d="m 309.42034,277.14273 c 2.18601,3.21072 2.18602,9.98895 3.93483,11.41594 1.74881,1.427 8.74406,1.07024 11.36728,3.21074"
     id="path47864"
     style="fill:none;stroke:#4d4d4d;stroke-width:0.5;stroke-linecap:butt;stroke-linejoin:miter;stroke-miterlimit:4;stroke-opacity:1;stroke-dasharray:none;display:inline" />
  <path
     d="m 261.59337,281.61326 c 0.43721,3.06042 1.31161,13.1161 -0.4372,14.86491 -1.74881,1.74882 -10.49288,3.49763 -14.42771,3.49763"
     id="path47862"
     style="fill:none;stroke:#4d4d4d;stroke-width:0.5;stroke-linecap:butt;stroke-linejoin:miter;stroke-miterlimit:4;stroke-opacity:1;stroke-dasharray:none;display:inline;enable-background:new" />
  <path
     d="m 244.84355,276.23449 c 6.39139,3.39244 26.87184,3.81571 32.97163,3.28385 l 14.43667,-1.41479 c 6.59649,-1.11742 23.24776,-7.04867 27.62295,-10.04045 l 1.45267,4.93241 c -1.18902,2.52663 -22.38198,10.67 -28.66464,10.98427 l -14.5368,1.42461 c -9.76602,0.23366 -25.6499,-0.0298 -33.63313,-3.32897 z"
     id="path47866"
     style="fill:#aa4400;fill-opacity:1;stroke:#552200;stroke-width:0.5;stroke-miterlimit:4;stroke-dasharray:none;display:inline" />
  <path
     d="m 280.77766,275.28156 c 0.45426,5.67822 2.20921,11.17904 1.856,14.57521 -0.18945,1.82159 -0.45511,7.52766 0.57122,11.61565 0.74434,2.9648 -0.0335,7.43075 0.0826,8.01151 0.22713,1.13564 2.85859,2.04416 4.90275,2.72554"
     id="path73219"
     style="color:#000000;fill:none;stroke:#4d4d4d;stroke-width:0.5;stroke-linecap:butt;stroke-linejoin:miter;stroke-miterlimit:4;stroke-opacity:1;stroke-dasharray:none;stroke-dashoffset:0;marker:none;visibility:visible;display:inline;overflow:visible;enable-background:accumulate" />
  <path
     d="m 288.87163,322.88453 c 1.13564,-2.04416 1.5899,-3.1798 0,-4.31545 -1.5899,-1.13564 -2.27129,-2.72554 -0.90852,-3.40693 1.36278,-0.68139 -0.45425,-1.36277 0.22713,-3.1798 0.68139,-1.81704 0.6928,-8.97966 0.0114,-11.25095 -0.68139,-2.27129 -1.04157,-7.82788 -0.36018,-10.32629 0.68139,-2.49842 -0.22713,-11.44579 -1.13564,-15.67189"
     id="path73221"
     style="color:#000000;fill:none;stroke:#4d4d4d;stroke-width:0.5;stroke-linecap:butt;stroke-linejoin:miter;stroke-miterlimit:4;stroke-opacity:1;stroke-dasharray:none;stroke-dashoffset:0;marker:none;visibility:visible;display:inline;overflow:visible;enable-background:accumulate" />
  <rect
     width="11.160457"
     height="6.8975415"
     x="250.81381"
     y="305.20706"
     transform="matrix(0.99523237,-0.09753221,0.09753221,0.99523237,0,0)"
     id="rect47874"
     style="fill:#aa4400;fill-opacity:1;stroke:#dbe2e3;stroke-width:1.1887747;stroke-linecap:round;stroke-linejoin:round;stroke-miterlimit:4;stroke-dasharray:none" />
  <path
     d="m 279.82236,282.75436 c 0.0885,-0.0295 4.40878,-0.53082 4.40878,-0.53082"
     id="path47876"
     style="fill:#1a1a1a;stroke:#dbe2e3;stroke-width:0.68145561px;stroke-linecap:round;stroke-linejoin:round;stroke-opacity:1" />
  <path
     d="m 302.53456,272.53642 c 1.4603,1.50244 1.90514,6.32683 2.5052,10.21892 2.72014,-0.12859 1.9488,-0.17437 3.04657,-0.88801 -0.56783,-4.07039 -0.56372,-8.41466 -2.4816,-10.05318 -1.10728,0.2235 -3.07017,0.72227 -3.07017,0.72227 z"
     id="path47890"
     style="fill:#808080;fill-opacity:1;stroke:#666666;stroke-width:0.25;stroke-miterlimit:4;stroke-opacity:1;stroke-dasharray:none;display:inline" />
  <path
     d="m 313.65226,269.2098 c 1.58538,1.41551 1.98797,5.52137 2.91984,9.36973 0.88546,-0.51049 1.70198,-0.73931 2.73596,-1.5138 -0.91498,-4.02806 -1.28287,-7.45343 -3.33639,-8.9786 -1.08544,0.28608 -2.31943,1.12267 -2.31943,1.12267 z"
     id="path47896"
     style="fill:#808080;fill-opacity:1;stroke:#666666;stroke-width:0.25;stroke-miterlimit:4;stroke-opacity:1;stroke-dasharray:none;display:inline" />
  <path
     d="m 268.35615,276.73122 c -1.01684,0.76516 -0.46409,6.51398 0.005,10.41796 0,0 -2.26901,-0.13952 -2.89062,-0.31615 -0.54962,-4.07205 -0.76764,-9.11098 -0.14444,-10.25206 0.65862,0.17872 3.0293,0.15025 3.0293,0.15025 z"
     id="path47884"
     style="fill:#808080;fill-opacity:1;stroke:#666666;stroke-width:0.25;stroke-miterlimit:4;stroke-opacity:1;stroke-dasharray:none;display:inline" />
  <path
     d="m 252.17963,275.75849 c -1.01684,1.72879 -0.46409,6.51397 0.005,10.41795 -0.92098,0.0443 -2.1084,-0.46072 -2.89062,-0.63735 -0.54962,-4.07205 -1.24944,-7.98675 0.17677,-9.93085 1.14043,0.0181 2.70809,0.15025 2.70809,0.15025 z"
     id="path47902"
     style="fill:#808080;fill-opacity:1;stroke:#666666;stroke-width:0.25;stroke-miterlimit:4;stroke-opacity:1;stroke-dasharray:none;display:inline" />
  <path
     d="m 270.00491,280.5061 c 0,0 5.56792,0 6.66582,-0.0784 1.0979,-0.0784 1.41159,4.7837 0.62737,4.70528 -0.78421,-0.0784 -3.52896,0 -4.86213,0 -1.33316,0 -0.47052,-4.54844 -2.43106,-4.62686 z"
     id="path310860"
     style="color:#000000;fill:#d45500;stroke:none;stroke-width:0.5;marker:none;visibility:visible;display:inline;overflow:visible;enable-background:accumulate" />
  <path
     d="m 286.31656,279.56504 c -0.86263,0.23527 -1.96053,1.72527 -1.56843,1.88211 0.39211,0.15685 0.62738,1.01948 0.15685,1.49001 -0.47053,0.47053 -0.15684,1.88212 1.33316,1.64685 1.49001,-0.23526 2.74475,-0.39211 3.45054,-0.39211 0.7058,0 0,-1.01947 -0.54895,-1.25474 -0.54895,-0.23526 -1.17632,-1.72527 -0.62737,-2.11738 0.54895,-0.3921 0.7058,-1.64685 -0.0784,-1.56842 -0.78421,0.0784 -1.41158,0.23526 -2.11738,0.31368 z"
     id="path310862"
     style="color:#000000;fill:#d45500;fill-opacity:1;stroke:none;stroke-width:0.5;marker:none;visibility:visible;display:inline;overflow:visible;enable-background:accumulate" />
  <path
     d="m 296.3545,277.91819 c -3.05843,0.78422 -3.05843,5.72476 0.0784,5.09739 3.13685,-0.62737 5.64634,-1.49 6.50897,-1.80369 -1.33316,-0.0784 -1.64685,-4.62686 -3.52896,-4.15633 -1.88211,0.47053 -2.1958,0.54895 -3.05844,0.86263 z"
     id="path310864"
     style="color:#000000;fill:#d45500;fill-opacity:1;stroke:none;stroke-width:0.5;marker:none;visibility:visible;display:inline;overflow:visible;enable-background:accumulate" />
</svg>
