<?xml version="1.0" encoding="UTF-8" standalone="no"?>
<!-- Created with Inkscape (http://www.inkscape.org/) -->

<svg
   xmlns:dc="http://purl.org/dc/elements/1.1/"
   xmlns:cc="http://creativecommons.org/ns#"
   xmlns:rdf="http://www.w3.org/1999/02/22-rdf-syntax-ns#"
   xmlns:svg="http://www.w3.org/2000/svg"
   xmlns="http://www.w3.org/2000/svg"
   version="1.1"
   width="560"
   height="560"
   id="pet_rat">
  <g
     transform="matrix(-0.39969555,0,0,0.39969555,550.96795,415.6349)"
     id="g47"
     style="display:inline;enable-background:new">
    <path
       d="m 414.853,268.587 c -1.166,-0.063 -2.266,-0.24 -3.42,-0.179 -1.616,0.083 -1.469,-1.53 -1.822,-2.607 1.225,-0.351 2.279,-0.484 3.556,-0.424 0.318,0.014 1.36,-0.088 1.618,0.11 -0.894,-0.691 -2.138,-0.477 -3.175,-0.373 -6.429,0.646 -4.348,-4.25 -9.685,1.069 -5.29,5.274 -12.646,7.954 -18.613,12.441 -15.757,11.851 -36.246,28.694 -19.592,49.502 5.005,6.255 13.372,10.601 20.887,13.104 7.051,2.349 16.905,5.008 24.215,2.771 -2.614,2.095 -9.675,1.526 -12.989,1.477 -5.909,-0.088 -11.374,-0.972 -17.099,-2.496 -13.072,-3.48 -22.531,-13.772 -25.944,-26.692 -3.355,-12.697 6.479,-25.317 15.499,-33.07 4.956,-4.26 10.098,-7.95 15.783,-11.257 4.233,-2.464 9.073,-3.966 12.829,-7.208 1.348,-1.163 6.021,-9.341 6.39,-9.394 -0.258,0.038 -0.52,0.077 -0.766,0.136 0.56,-0.969 1.506,-1.798 2.369,-2.566 -0.567,0.272 -1.245,0.28 -1.845,0.463 0.486,-0.921 4.817,-6.262 6.042,-6.214 -0.526,-0.021 -1.202,-0.385 -1.636,-0.434 1.351,-1.934 3.223,-3.286 4.947,-4.966 -0.297,-0.129 -0.489,-0.332 -0.866,-0.426 0.599,-0.525 1.452,-0.772 2.167,-1.199 -0.168,-0.026 -0.434,-0.06 -0.608,-0.108 0.672,-0.465 0.552,-0.916 0.854,-1.45 -0.194,-0.022 -0.451,-0.068 -0.651,-0.106 0.988,-0.795 2.099,-1.485 3.039,-2.266 -0.294,-0.097 -0.539,-0.331 -0.848,-0.414 0.671,-0.38 1.377,-0.844 1.695,-1.542 -0.23,-0.043 -0.453,-0.107 -0.669,-0.173 0.94,-0.157 1.581,-0.697 1.205,-1.564 1.327,-0.53 2.772,-0.644 2.165,-2.365 1.544,-0.607 3.18,-0.627 4.774,-1.008 -0.683,-0.239 -1.242,-0.725 -1.472,-1.463 1.604,-0.635 3.351,-0.324 4.937,-0.77 -0.187,-0.258 -0.317,-0.563 -0.504,-0.824 2.126,1.004 5.614,-0.252 7.85,-0.58 2.469,-0.362 5.051,-0.269 7.458,-0.799 -0.191,-0.192 -0.337,-0.42 -0.526,-0.615 0.683,0.314 1.428,0.537 2.146,0.734 0.013,-0.258 0.195,-0.632 0.195,-0.899 0.911,0.313 1.96,0.586 2.97,0.581 -0.08,-0.147 -0.109,-0.305 -0.084,-0.471 0.55,0.436 1.212,0.745 1.951,0.914 -0.106,-0.237 -0.192,-0.521 -0.323,-0.741 0.902,0.285 1.824,0.536 2.635,0.873 0.051,-0.235 0.134,-0.468 0.187,-0.703 2.796,0.492 5.684,1.828 8.602,2.409 2.527,0.503 5.986,1.149 8.126,2.314 -0.486,-0.878 -0.11,-0.5 -0.026,-1.183 0.317,0.126 0.603,0.305 0.896,0.514 0.063,-0.221 0.093,-0.432 0.176,-0.652 1.387,0.953 7.469,2.853 7.149,-0.302 0.07,0.689 3.994,0.974 4.549,1.192 -0.313,-0.511 -0.247,-1.069 -0.487,-1.565 0.919,0.257 1.513,0.958 2.338,1.363 0.001,-0.135 -0.067,-0.439 -0.063,-0.528 0.373,0.375 1.136,0.633 1.546,0.983 0.767,-0.433 0.693,-1.171 0.307,-1.952 0.608,1.049 1.265,2.468 2.551,2.601 0.074,-0.686 -0.184,-1.426 -0.674,-1.941 0.485,0.643 0.948,1.327 1.438,1.99 0.303,-0.894 0.192,-1.915 -0.063,-2.797 1.075,0.985 0.389,2.709 2.143,3.133 0.018,-0.536 0.188,-0.987 0.025,-1.532 0.38,2.053 2.073,1.561 3.566,2.266 0.024,-0.293 0.15,-0.602 0.149,-0.922 0.553,1.5 1.676,2.593 3.357,2.432 -0.282,-1.621 -2.487,-2.541 -2.768,-4.283 -0.381,-2.357 2.432,-2.731 4.236,-2.603 2.049,0.147 4.408,0.501 5.52,2.481 1.028,1.836 -0.322,4.348 0.744,6.013 0.809,1.258 1.519,0.576 2.758,1.138 0.949,0.43 1.298,1.538 2.157,2.096 0.96,0.624 2.387,0.792 3.499,1.029 3.466,0.748 5.521,1.983 8.214,4.102 2.979,2.345 6.605,3.85 9.784,5.9 1.19,0.769 2.88,1.819 2.324,3.476 -0.283,0.841 -2.955,3.493 -3.706,4.061 -1.392,1.051 -3.735,1.913 -5.439,1.647 -1,-0.155 -1.581,-0.679 -2.552,-0.667 -1.097,0.01 -1.794,0.619 -2.767,0.956 -1.591,0.551 -3.361,0.75 -5.007,1.086 -1.528,0.313 -3.167,0.976 -4.742,0.873 -0.042,-0.082 -0.018,-0.134 0.072,-0.153 -0.758,0.065 -1.574,0.199 -2.197,0.66 0.085,-0.195 0.062,-0.66 0.109,-0.808 -0.66,0.021 -1.181,0.597 -1.668,0.971 0.148,-0.352 -0.028,-0.88 -0.003,-1.11 -0.523,0.313 -1.035,0.66 -1.577,0.954 0.066,-0.355 -0.169,-0.729 -0.171,-0.988 -0.509,0.177 -1.023,0.495 -1.541,0.672 0.264,-0.178 0.496,-0.469 0.786,-0.651 -1.241,-0.26 -2.306,0.526 -3.446,0.814 0.249,-0.178 0.491,-0.625 0.695,-0.826 -0.952,-0.062 -1.603,0.707 -2.427,1.009 0.083,-0.198 0.051,-0.693 0.104,-0.845 -0.505,0.051 -0.943,0.352 -1.18,0.811 0.167,-0.369 0.281,-0.773 0.49,-1.149 -0.581,-0.034 -1.179,0.218 -1.676,0.487 0.099,-0.164 0.177,-0.618 0.316,-0.831 -0.677,-0.012 -1.287,0.383 -1.882,0.656 0.183,-0.301 0.212,-0.716 0.625,-1.01 -1.314,0.199 -3.454,1.032 -4.437,1.948 0.486,0.143 1.123,0.125 1.677,0.157 -0.553,0.653 -0.126,1.255 0.029,1.993 -0.155,-0.099 -0.334,-0.134 -0.509,-0.217 -0.252,1.524 -0.077,2.399 0.697,3.707 -0.256,-0.146 -0.61,-0.143 -0.883,-0.268 0.51,2.218 1.352,1.136 3.086,1.592 1.199,0.313 2.887,1.653 3.196,2.86 -0.606,-0.364 -1.289,-0.632 -1.865,-0.998 0.257,0.421 0.34,0.906 0.252,1.395 -0.88,-0.412 -1.918,-1.28 -2.939,-1.212 -0.849,0.056 -2.061,1.343 -2.748,1.195 -1.198,-0.263 -0.815,-1.613 -1.081,-2.417 -0.331,-1 -1.371,-2.063 -2.149,-2.756 -0.393,0.247 -0.774,0.561 -1.148,0.832 -0.139,-0.694 -0.611,-1.248 -0.535,-2.013 -0.536,0.25 -0.784,0.884 -1.022,1.319 -0.139,-0.584 -0.255,-1.142 -0.422,-1.711 -0.441,0.131 -0.754,0.563 -1.164,0.83 0.171,-0.705 0.713,-1.904 1.336,-2.369 0.142,0.729 0.534,0.739 1.088,0.469 0.611,-0.297 1.232,-1.3 1.914,-0.593 0.437,-0.622 1.178,-1.071 1.53,-1.647 -0.675,0.023 -1.307,0.244 -1.871,0.616 0.003,-0.158 0.042,-0.208 0.018,-0.319 -0.707,0.275 -1.369,0.714 -1.961,1.185 0.102,-0.235 0.095,-0.591 0.171,-0.796 -0.78,0.264 -1.411,0.936 -2.052,1.367 0.088,-0.259 0.065,-0.685 0.16,-0.97 -1.138,1.249 -2.752,1.406 -3.858,2.841 0.231,-0.802 0.968,-1.982 0.907,-2.743 -0.01,-0.142 -0.591,-0.904 -0.656,-1.303 -0.082,-0.489 0.849,-4.161 0.81,-4.194 0.086,0.067 0.127,0.19 0.217,0.253 1.518,-1.316 2.463,-3.571 3.896,-5.053 -1.196,1.165 -2.619,3.324 -4.083,4.019 -0.062,-0.176 -0.147,-0.321 -0.204,-0.458 -0.61,0.98 -0.546,2.072 -0.821,3.158 -0.14,-0.031 -0.414,-0.008 -0.553,-0.046 0.124,0.604 0.403,1.218 0.3,1.878 -0.178,-0.098 -0.458,-0.137 -0.644,-0.27 0.067,0.962 0.319,2.127 -0.013,3.088 -0.945,2.734 -1.312,4.839 -0.684,7.814 1.077,0.326 1.819,-0.441 2.939,-0.327 0.94,0.096 2.65,1.212 3.143,1.927 0.755,1.098 -0.072,1.08 -1.215,0.655 -0.475,-0.173 -0.86,-0.706 -1.414,-0.672 -0.42,0.027 -1.028,0.607 -1.5,0.706 0.813,0.298 1.495,0.949 1.31,1.901 -0.734,-0.102 -1.296,-0.767 -2.029,-0.815 -0.724,-0.046 -1.413,0.702 -2.124,0.793 -1.161,0.151 -4.072,-1.71 -3,-3.251 -0.57,0.395 -1.361,0.62 -2.055,0.67 0.283,-0.699 0.639,-1.422 0.486,-2.206 -0.414,0.407 -0.926,0.74 -1.479,0.801 0.279,-1.42 0.555,-2.654 0.424,-4.116 -0.241,0.565 -0.621,1.099 -1.208,1.291 0.426,-1.105 0.625,-2.356 0.637,-3.537 0.001,-0.141 -0.633,-3.251 -1.122,-2.55 0.214,-0.307 0.333,-0.882 0.484,-1.157 -1.943,-0.05 -0.785,-2.222 -2.398,-2.854 0.031,-0.534 0.384,-0.994 0.789,-1.366 -2.211,-0.819 3.71,-8.413 4.753,-9.693 -1.37,0.786 -7.492,8.457 -5.888,9.692 -0.82,0.658 -0.335,0.893 -0.026,1.575 0.147,0.325 0.541,0.544 0.665,0.876 0.118,0.326 -0.146,0.814 -0.124,0.869 0.313,0.769 1.109,1.314 1.511,2.084 0.346,0.665 0.417,1.421 0.724,2.067 -0.836,0.301 -2.318,-0.284 -2.552,1.302 0.048,-0.331 0.005,-0.707 0.039,-1.043 -0.655,0.358 -1.284,1.045 -1.977,1.522 0.079,-0.419 -0.123,-0.931 -0.112,-1.202 -1.605,1.053 -2.768,0.519 -4.177,1.761 -0.004,-0.353 -0.19,-0.729 -0.214,-1.077 -0.76,0.092 -1.415,0.605 -2.194,0.91 -0.82,-1.252 -2.232,0.455 -3.244,0.926 -10e-4,-0.344 -0.22,-0.716 -0.25,-1.043 -0.946,0.255 -1.729,0.953 -2.663,1.222 -0.053,-0.265 -0.184,-0.527 -0.259,-0.784 -0.449,0.334 -1.077,0.527 -1.578,0.748 0.043,-1.294 -1.363,-0.16 -1.921,0.062 0.564,-0.943 1.233,-1.855 1.732,-2.804 0.294,-0.563 0.447,-1.218 0.734,-1.744 0.04,0.269 0.114,0.526 0.176,0.78 1.572,-0.793 1.873,-3.123 1.827,-4.646 0.008,0.29 0.522,0.733 0.748,0.844 0.275,0.131 0.185,-4.529 0.107,-4.944 -0.291,-1.59 -0.779,-3.152 -1.27,-4.694 -0.412,-1.3 -1.031,-2.551 -1.579,-3.816 -0.324,-0.747 -0.598,-1.627 -1.052,-2.303 -0.404,-0.6 -1.153,-0.955 -1.452,-1.623 -1.235,-0.621 -3.148,-0.332 -4.494,-0.347 1.438,0.172 3.597,0.009 4.785,0.916 1.21,0.925 1.686,2.344 2.03,3.735 0.524,2.124 1.374,4.14 1.801,6.301 0.31,1.567 1.139,3.746 0.693,5.313 -0.214,-0.416 -0.541,-1.018 -0.841,-1.453 0.157,1.42 0.289,4.697 -1.048,5.599 0.089,-0.481 0.032,-0.91 -0.043,-1.334 -0.257,1.527 -1.664,3.255 -2.416,4.571 -0.496,0.871 -0.938,1.958 -1.582,2.727 -0.846,1.011 -2.309,1.237 -3.371,1.937 0.366,0.055 0.67,-0.175 1.032,-0.097 -0.068,0.09 -0.134,0.228 -0.173,0.287 0.379,-0.127 0.728,-0.431 1.044,-0.68 0.042,0.336 0.033,0.71 0.194,1.024 0.263,-0.328 0.139,-0.801 0.427,-1.118 0.236,-0.245 1.805,0.79 2.147,0.851 0.852,0.151 1.762,-0.022 2.604,-0.162 0.526,-0.087 1.157,-0.143 1.666,0.052 0.24,0.092 0.529,0.222 0.662,0.458 0.122,0.216 -0.031,0.61 0.032,0.709 0.228,0.366 1.131,0.452 1.594,0.649 0.555,0.234 1.164,0.535 1.526,1.038 -0.564,0.381 -1.655,-0.077 -2.124,0.424 0.504,0.409 1.694,0.933 1.798,1.666 0.118,0.841 -1.446,-0.087 -2.021,0.103 0.404,0.291 1.809,1.855 0.752,2.111 -0.293,0.071 -0.762,-0.418 -1.002,-0.554 -0.531,-0.302 -1.098,-0.481 -1.678,-0.621 -1.713,-0.412 -3.278,-0.282 -5.03,-0.321 -1.995,-0.043 -4.039,-0.27 -6.008,-0.594 -1.117,-0.184 -2.208,-0.494 -3.319,-0.707 -0.685,-0.128 -2.812,-0.406 -2.725,-1.344 0.056,-0.594 0.508,-0.775 0.118,-1.308 -0.157,-0.215 -0.668,-0.48 -0.888,-0.721 -0.334,-0.373 -0.644,-0.811 -1.101,-1.045 -0.56,-0.287 -0.925,-0.601 -1.568,-0.454 -0.547,0.126 -1.006,0.655 -1.612,0.484 0.104,-0.67 0.074,-1.365 0.175,-2.047 -0.633,0.43 -0.89,1.177 -1.732,1.333 0.274,-0.496 0.286,-1.115 0.187,-1.627 -0.056,0.022 -0.14,0.068 -0.191,0.086 -1.15,-0.864 -2.392,-1.574 -3.648,-2.292 0.108,0.272 0.216,0.59 0.125,0.881 -0.748,-0.515 -1.795,-1.001 -2.711,-1.145 0.297,0.105 0.555,0.315 0.584,0.595 -0.864,-0.369 -1.81,-0.834 -2.707,-1.219 -1.016,1.27 -3.74,1.178 -5.14,0.973 1.315,0.802 3.51,0.247 4.777,-0.234 0.446,-0.169 0.296,-0.307 0.8,-0.162 0.285,0.082 0.533,0.435 0.798,0.571 0.562,0.293 1.288,0.616 1.922,0.657 -0.004,-0.12 0.073,-0.259 0.06,-0.387 0.463,0.483 1.195,0.753 1.793,0.99 0.025,-0.261 0.072,-0.529 0.219,-0.747 0.595,0.362 0.976,1.058 1.539,1.447 0.002,0.073 -0.063,0.151 -0.091,0.216 0.268,0.137 0.313,0.314 0.102,0.534 0.729,0.779 1.337,1.005 0.746,2.139 -0.183,-0.127 -0.528,-0.572 -0.792,-0.546 -0.521,0.052 -0.237,0.507 -0.814,0.318 -0.27,-0.087 -0.424,-0.427 -0.742,-0.515 -0.285,-0.079 -0.642,-0.036 -0.939,-0.039 -1.987,-0.008 -3.805,-0.487 -5.744,-0.851 -1.509,-0.282 -2.98,-0.474 -4.497,-0.488 -0.198,0 -0.397,-0.007 -0.589,-0.016 z"
       id="path49-8"
       style="fill:#666666" />
    <path
       d="m 479.028,262.536 c -0.46,1.333 -0.847,2.703 -0.959,4.114 -0.029,0.354 -0.059,3.835 0.378,3.76 -0.168,0.03 -0.277,-0.022 -0.412,-0.179 -0.046,0.293 0.171,0.755 -0.089,0.994 -0.179,-0.126 -0.314,-0.335 -0.462,-0.507 -0.262,0.315 -0.419,0.777 -0.739,1.073 -0.092,-0.352 -0.023,-0.822 -0.323,-1.068 -0.298,0.507 -0.729,0.931 -1.156,1.349 0,-0.514 0.135,-1.021 0.131,-1.546 -0.612,0.908 -1.958,1.334 -2.998,1.411 0.283,-0.699 0.639,-1.422 0.486,-2.206 -0.414,0.407 -0.926,0.74 -1.479,0.801 0.279,-1.42 0.555,-2.654 0.424,-4.116 -0.241,0.565 -0.621,1.099 -1.208,1.291 0.426,-1.105 0.625,-2.356 0.637,-3.537 10e-4,-0.141 -0.633,-3.251 -1.122,-2.55 0.214,-0.307 0.333,-0.882 0.484,-1.157 -1.943,-0.05 -0.785,-2.222 -2.398,-2.854 0.031,-0.534 0.384,-0.994 0.789,-1.366 -2.211,-0.819 3.71,-8.413 4.753,-9.693 -1.37,0.786 -7.492,8.457 -5.888,9.692 -0.82,0.658 -0.335,0.893 -0.026,1.575 0.147,0.325 0.541,0.544 0.665,0.876 0.118,0.326 -0.146,0.814 -0.124,0.869 0.313,0.769 1.109,1.314 1.511,2.084 0.346,0.665 0.417,1.421 0.724,2.067 -0.836,0.301 -2.318,-0.284 -2.552,1.302 0.048,-0.331 0.005,-0.707 0.039,-1.043 -0.655,0.358 -1.284,1.045 -1.977,1.522 0.079,-0.419 -0.123,-0.931 -0.112,-1.202 -1.605,1.053 -2.768,0.519 -4.177,1.761 -0.004,-0.353 -0.19,-0.729 -0.214,-1.077 -0.76,0.092 -1.415,0.605 -2.194,0.91 -0.82,-1.252 -2.232,0.455 -3.244,0.926 -0.001,-0.344 -0.22,-0.716 -0.25,-1.043 -0.946,0.255 -1.729,0.953 -2.663,1.222 -0.053,-0.265 -0.184,-0.527 -0.259,-0.784 -0.449,0.334 -1.077,0.527 -1.578,0.748 0.043,-1.294 -1.363,-0.16 -1.921,0.062 0.564,-0.943 1.233,-1.855 1.732,-2.804 0.294,-0.563 0.447,-1.218 0.734,-1.744 0.04,0.269 0.114,0.526 0.176,0.78 1.572,-0.793 1.873,-3.123 1.827,-4.646 0.008,0.29 0.522,0.733 0.748,0.844 0.275,0.131 0.185,-4.529 0.107,-4.944 -0.291,-1.59 -0.779,-3.152 -1.27,-4.694 -0.412,-1.3 -1.031,-2.551 -1.579,-3.816 -0.324,-0.747 -0.598,-1.627 -1.052,-2.303 -0.404,-0.6 -1.153,-0.955 -1.452,-1.623 -1.235,-0.621 -3.148,-0.332 -4.494,-0.347 1.438,0.172 3.597,0.009 4.785,0.916 1.21,0.925 1.686,2.344 2.03,3.735 0.524,2.124 1.374,4.14 1.801,6.301 0.31,1.567 1.139,3.746 0.693,5.313 -0.214,-0.416 -0.541,-1.018 -0.841,-1.453 0.157,1.42 0.289,4.697 -1.048,5.599 0.089,-0.481 0.032,-0.91 -0.043,-1.334 -0.257,1.527 -1.664,3.255 -2.416,4.571 -0.496,0.871 -0.938,1.958 -1.582,2.727 -0.846,1.011 -2.309,1.237 -3.371,1.937 0.366,0.055 0.67,-0.175 1.032,-0.097 -0.068,0.09 -0.134,0.228 -0.173,0.287 0.379,-0.127 0.728,-0.431 1.044,-0.68 0.044,0.346 0.048,0.643 0.198,0.958 0.178,-1.246 0.454,-1.027 1.215,-0.658 0.41,0.199 1.283,1.825 1.199,1.801 -0.508,-0.153 -1.038,-0.402 -1.576,-0.488 0.217,0.541 0.573,0.989 0.887,1.495 -0.859,-0.585 -2.322,-0.732 -3.331,-0.784 0.323,0.344 0.855,0.541 1.355,0.675 -0.933,0.026 -1.814,-0.085 -2.708,-0.344 0.167,0.531 0.526,0.999 0.944,1.355 -1.269,-0.019 -2.544,-0.902 -3.592,-1.53 0.155,0.298 0.173,0.72 0.326,1.024 -0.638,-0.202 -1.058,-0.784 -1.686,-0.974 -0.001,0.236 -0.122,0.512 -0.118,0.748 -0.519,-0.018 -0.813,-0.372 -0.879,-0.919 -1.923,0.472 -2.059,0.77 -3.503,-0.674 -0.537,-0.535 -1.117,-1.339 -1.913,-1.51 -0.9,-0.192 -1.494,0.525 -2.327,0.408 0,-0.279 -0.095,-1.861 0.127,-2.012 -0.631,0.429 -0.889,1.175 -1.73,1.332 0.274,-0.496 0.286,-1.115 0.187,-1.627 -0.056,0.022 -0.14,0.068 -0.191,0.086 -1.15,-0.864 -2.392,-1.574 -3.648,-2.292 0.108,0.272 0.216,0.59 0.125,0.881 -0.748,-0.515 -1.795,-1.001 -2.711,-1.145 0.297,0.105 0.555,0.315 0.584,0.595 -0.864,-0.369 -1.81,-0.834 -2.707,-1.219 -1.016,1.27 -3.74,1.178 -5.14,0.973 1.315,0.802 3.51,0.247 4.777,-0.234 0.926,-0.352 1.323,0.198 2.029,0.862 -0.456,-0.165 -1.518,-0.34 -1.86,0.059 0.11,0.141 0.238,0.295 0.36,0.436 -0.301,0.055 -0.61,-0.177 -0.896,-0.052 0.049,0.311 0.166,0.631 0.173,0.928 -0.568,-0.254 -1.084,-0.934 -1.75,-0.983 -0.033,0.275 0.096,0.519 -0.012,0.762 -0.438,-0.477 -1.934,-1.033 -2.488,-0.833 0.003,0.048 0.011,0.075 0.01,0.129 -0.697,0.37 -1.568,-0.129 -2.186,0.327 0.05,0.125 -0.008,0.286 0.014,0.385 -0.863,0.08 -1.258,-0.373 -1.998,-0.632 -0.378,-0.134 -0.601,-0.173 -0.744,0.311 -0.233,-0.167 -0.563,-0.36 -0.588,-0.708 -0.465,0.162 -0.771,0.397 -1.101,0.756 -0.157,-0.147 -0.381,-0.815 -0.375,-1.046 0.013,-0.458 0.133,-0.429 0.635,-0.545 0.939,-0.218 1.902,-0.291 2.864,-0.245 0.318,0.014 1.36,-0.088 1.618,0.11 -0.894,-0.691 -2.138,-0.477 -3.175,-0.373 -0.944,0.095 -2.177,0.729 -3.083,0.254 0.069,0.115 0.075,0.261 0.147,0.385 -0.026,-0.045 -0.882,-0.232 -1.016,-0.303 -0.25,-0.135 -0.63,-0.375 -0.816,-0.595 -0.457,-0.543 -0.325,-1.114 -0.083,-1.761 -0.07,0.041 -0.129,0.094 -0.178,0.16 -0.06,-0.017 -0.175,-0.083 -0.235,-0.066 0.08,-0.364 0.192,-0.76 0.243,-1.114 -0.854,0.567 -1.409,1.785 -2.338,2.343 0.546,-0.929 1.058,-1.731 1.271,-2.852 -0.489,0.088 -0.757,0.663 -0.997,1.029 -0.073,-0.793 0.137,-1.293 0.393,-2.015 -0.577,0.431 -0.967,1.164 -1.261,1.813 -0.272,-0.482 0.122,-0.958 0.006,-1.435 -0.729,0.382 -1.373,0.929 -2.096,1.305 0.153,-0.363 0.679,-1.457 0.354,-1.813 -0.139,-0.15 -1.035,-0.091 -1.262,-0.104 1.394,-1.593 1.734,-3.071 2.633,-4.985 -0.259,0.038 -0.522,0.077 -0.769,0.136 0.56,-0.969 1.506,-1.798 2.369,-2.566 -0.567,0.272 -1.245,0.28 -1.845,0.463 0.486,-0.921 4.817,-6.262 6.042,-6.214 -0.526,-0.021 -1.202,-0.385 -1.636,-0.434 1.351,-1.934 3.223,-3.286 4.947,-4.966 -0.297,-0.129 -0.489,-0.332 -0.866,-0.426 0.599,-0.525 1.452,-0.772 2.167,-1.199 -0.168,-0.026 -0.434,-0.06 -0.608,-0.108 0.672,-0.465 0.552,-0.916 0.854,-1.45 -0.194,-0.022 -0.451,-0.068 -0.651,-0.106 0.988,-0.795 2.099,-1.485 3.039,-2.266 -0.294,-0.097 -0.539,-0.331 -0.848,-0.414 0.671,-0.38 1.377,-0.844 1.695,-1.542 -0.23,-0.043 -0.453,-0.107 -0.669,-0.173 0.94,-0.157 1.581,-0.697 1.205,-1.564 1.327,-0.53 2.772,-0.644 2.165,-2.365 1.544,-0.607 3.18,-0.627 4.774,-1.008 -0.683,-0.239 -1.242,-0.725 -1.472,-1.463 1.604,-0.635 3.351,-0.324 4.937,-0.77 -0.187,-0.258 -0.317,-0.563 -0.504,-0.824 2.126,1.004 5.614,-0.252 7.85,-0.58 2.469,-0.362 5.051,-0.269 7.458,-0.799 -0.191,-0.192 -0.337,-0.42 -0.526,-0.615 0.683,0.314 1.428,0.537 2.146,0.734 0.013,-0.258 0.195,-0.632 0.195,-0.899 0.911,0.313 1.96,0.586 2.97,0.581 -0.08,-0.147 -0.109,-0.305 -0.084,-0.471 0.55,0.436 1.212,0.745 1.951,0.914 -0.106,-0.237 -0.192,-0.521 -0.323,-0.741 0.902,0.285 1.824,0.536 2.635,0.873 0.051,-0.235 0.134,-0.468 0.187,-0.703 2.796,0.492 5.684,1.828 8.602,2.409 2.527,0.503 5.986,1.149 8.126,2.314 -0.486,-0.878 -0.11,-0.5 -0.026,-1.183 0.317,0.126 0.603,0.305 0.896,0.514 0.063,-0.221 0.093,-0.432 0.176,-0.652 1.387,0.953 7.469,2.853 7.149,-0.302 0.07,0.689 3.994,0.974 4.549,1.192 -0.313,-0.511 -0.247,-1.069 -0.487,-1.565 0.919,0.257 1.513,0.958 2.338,1.363 0.001,-0.135 -0.067,-0.439 -0.063,-0.528 0.373,0.375 1.136,0.633 1.546,0.983 0.767,-0.433 0.693,-1.171 0.307,-1.952 0.608,1.049 1.265,2.468 2.551,2.601 0.074,-0.686 -0.184,-1.426 -0.674,-1.941 0.485,0.643 0.948,1.327 1.438,1.99 0.303,-0.894 0.192,-1.915 -0.063,-2.797 1.075,0.985 0.389,2.709 2.143,3.133 0.018,-0.536 0.188,-0.987 0.025,-1.532 0.38,2.053 2.073,1.561 3.566,2.266 0.024,-0.293 0.15,-0.602 0.149,-0.922 0.553,1.5 1.676,2.593 3.357,2.432 -0.282,-1.621 -2.487,-2.541 -2.768,-4.283 -0.381,-2.357 2.432,-2.731 4.236,-2.603 2.049,0.147 4.408,0.501 5.52,2.481 1.028,1.836 -0.322,4.348 0.744,6.013 0.809,1.258 1.519,0.576 2.758,1.138 0.949,0.43 1.298,1.538 2.157,2.096 0.96,0.624 2.387,0.792 3.499,1.029 3.466,0.748 5.521,1.983 8.214,4.102 2.979,2.345 6.605,3.85 9.784,5.9 1.19,0.769 2.88,1.819 2.324,3.476 -0.283,0.841 -2.955,3.493 -3.706,4.061 -1.392,1.051 -3.735,1.913 -5.439,1.647 -1,-0.155 -1.581,-0.679 -2.552,-0.667 -1.097,0.01 -1.794,0.619 -2.767,0.956 -1.591,0.551 -3.361,0.75 -5.007,1.086 -1.528,0.313 -3.167,0.976 -4.742,0.873 -0.042,-0.082 -0.018,-0.134 0.072,-0.153 -0.758,0.065 -1.574,0.199 -2.197,0.66 0.085,-0.195 0.062,-0.66 0.109,-0.808 -0.66,0.021 -1.181,0.597 -1.668,0.971 0.148,-0.352 -0.028,-0.88 -0.003,-1.11 -0.523,0.313 -1.035,0.66 -1.577,0.954 0.066,-0.355 -0.169,-0.729 -0.171,-0.988 -0.509,0.177 -1.023,0.495 -1.541,0.672 0.264,-0.178 0.496,-0.469 0.786,-0.651 -1.241,-0.26 -2.306,0.526 -3.446,0.814 0.249,-0.178 0.491,-0.625 0.695,-0.826 -0.952,-0.062 -1.603,0.707 -2.427,1.009 0.083,-0.198 0.051,-0.693 0.104,-0.845 -0.505,0.051 -0.943,0.352 -1.18,0.811 0.167,-0.369 0.281,-0.773 0.49,-1.149 -0.581,-0.034 -1.179,0.218 -1.676,0.487 0.099,-0.164 0.177,-0.618 0.316,-0.831 -0.677,-0.012 -1.287,0.383 -1.882,0.656 0.183,-0.301 0.212,-0.716 0.625,-1.01 -1.314,0.199 -3.454,1.032 -4.437,1.948 0.486,0.143 1.123,0.125 1.677,0.157 -0.553,0.653 -0.126,1.255 0.029,1.993 -0.155,-0.099 -0.334,-0.134 -0.509,-0.217 -0.252,1.524 -0.077,2.399 0.697,3.707 -0.168,-0.283 -0.834,-0.219 -0.935,0.078 -0.105,0.301 0.352,0.937 0.509,1.175 -0.411,0.095 -0.672,-0.289 -1.055,-0.246 -0.049,0.316 0.279,0.428 0.338,0.723 -0.246,0.118 -0.547,-0.144 -0.774,-0.267 -0.034,0.316 0.157,0.587 0.117,0.912 -0.301,-0.063 -0.489,-0.359 -0.586,-0.641 -0.023,0.4 -0.147,0.83 -0.438,1.104 -0.305,-0.717 -0.139,-1.357 -0.737,-1.932 -0.514,-0.494 -1.028,-1.031 -1.569,-1.513 -0.393,0.247 -0.774,0.561 -1.148,0.832 -0.139,-0.694 -0.611,-1.248 -0.535,-2.013 -0.536,0.25 -0.784,0.884 -1.022,1.319 -0.139,-0.584 -0.255,-1.142 -0.422,-1.711 -0.441,0.131 -0.754,0.563 -1.164,0.83 0.171,-0.705 0.713,-1.904 1.336,-2.369 0.142,0.729 0.534,0.739 1.088,0.469 0.611,-0.297 1.232,-1.3 1.914,-0.593 0.437,-0.622 1.178,-1.071 1.53,-1.647 -0.675,0.023 -1.307,0.244 -1.871,0.616 0.003,-0.158 0.042,-0.208 0.018,-0.319 -0.707,0.275 -1.369,0.714 -1.961,1.185 0.102,-0.235 0.095,-0.591 0.171,-0.796 -0.78,0.264 -1.411,0.936 -2.052,1.367 0.088,-0.259 0.065,-0.685 0.16,-0.97 -1.138,1.249 -2.752,1.406 -3.858,2.841 0.231,-0.802 0.968,-1.982 0.907,-2.743 -0.01,-0.142 -0.591,-0.904 -0.656,-1.303 -0.082,-0.489 0.849,-4.161 0.81,-4.194 0.086,0.067 0.127,0.19 0.217,0.253 1.518,-1.316 2.463,-3.571 3.896,-5.053 -1.196,1.165 -2.619,3.324 -4.083,4.019 -0.062,-0.176 -0.147,-0.321 -0.204,-0.458 -0.61,0.98 -0.546,2.072 -0.821,3.158 -0.14,-0.031 -0.414,-0.008 -0.553,-0.046 0.124,0.604 0.403,1.218 0.3,1.878 -0.178,-0.098 -0.458,-0.137 -0.644,-0.27 0.066,0.964 0.317,2.129 -0.015,3.09 z"
       id="path51-0"
       style="fill:#3a3939" />
    <path
       d="m 519.862,250.278 c 3.2,0.268 2.649,-5.299 -0.153,-4.312 -2.118,0.747 -2.401,4.098 0.153,4.312 z"
       id="path53-8"
       style="fill:#ffffff" />
    <path
       d="m 522.428,247.2 c -0.089,-0.055 -0.196,-0.017 -0.284,-0.12 0.244,0.916 0.309,2.172 -0.695,2.882 -0.435,0.31 -1.084,0.57 -1.57,0.637 -0.22,0.032 -0.52,-0.182 -0.641,0.147 -0.107,0.283 0.209,0.462 0.436,0.248 -0.048,0.17 -0.131,0.349 -0.233,0.501 0.529,-0.172 0.917,-0.614 1.408,-0.826 -0.005,0.098 0.034,0.225 0.021,0.32 0.036,-0.057 0.141,-0.153 0.187,-0.236 0.013,0.279 -0.053,0.551 -0.131,0.813 0.518,-0.279 0.984,-1.025 1.095,-1.591 0.024,0.048 0.07,0.106 0.097,0.162 0.381,-0.348 0.591,-0.91 1.081,-1.13 0.375,-0.168 0.968,-0.167 1.38,-0.165 0.886,10e-4 1.868,0.271 2.247,1.157 0.494,1.151 -0.323,1.853 -1.226,2.438 -0.539,0.349 -0.992,0.385 -1.582,0.512 -0.532,0.114 -0.583,0.269 -0.36,0.858 0.197,0.52 0.595,0.862 1.059,1.159 0.826,0.53 1.894,0.537 2.791,0.141 -0.18,0.178 -0.373,0.352 -0.617,0.341 -0.494,0.901 0.656,2.398 1.025,3.112 -0.628,-0.814 -1.494,-2.028 -1.508,-3.096 -0.572,0.188 -1.408,0.192 -1.82,-0.325 -0.396,0.405 -0.623,1 -0.801,1.539 -0.163,0.491 -0.305,1.06 -0.363,1.572 -0.056,0.524 0.14,0.996 0.118,1.489 -0.19,-0.908 -0.179,-1.855 0,-2.787 0.117,-0.606 0.306,-1.583 0.84,-1.986 -0.39,-0.348 -0.854,-0.558 -1.084,-1.095 -0.149,-0.348 -0.187,-0.674 -0.214,-1.047 -0.029,-0.388 -0.563,-1.175 -0.473,-1.493 -0.159,0.556 0.094,1.045 -0.363,1.504 -0.458,0.462 -0.786,1.01 -1.127,1.547 -2.164,3.418 -4.089,7.846 -4.425,11.929 0.198,-2.419 1.178,-5.065 2.225,-7.275 0.496,-1.046 1.002,-2.09 1.578,-3.097 0.529,-0.925 1.215,-2.237 2.115,-2.848 -0.24,0.164 0.73,1.53 0.652,1.838 -0.095,0.391 -0.588,0.803 -0.773,1.178 -0.42,0.853 -0.787,1.881 -1.031,2.8 -0.352,1.329 -0.532,2.692 -0.753,4.046 -0.33,2.035 0.156,3.969 0.549,5.944 -0.065,-1.479 -0.428,-2.974 -0.449,-4.446 -0.012,-0.937 0.109,-1.927 0.264,-2.847 0.138,-0.838 0.351,-1.703 0.588,-2.5 0.233,-0.79 0.555,-1.523 0.885,-2.273 0.254,-0.582 0.45,-1.267 1.061,-1.581 -0.08,0.042 1.559,1.035 1.625,1.165 0.133,0.252 -0.171,1.118 -0.204,1.392 -0.114,0.978 -0.148,1.96 -0.114,2.944 0.055,1.678 0.407,3.453 1.117,4.979 0.302,0.647 0.722,1.268 0.984,1.92 -0.741,-0.876 -1.208,-2.415 -1.431,-3.525 -0.223,-1.127 -0.389,-2.292 -0.407,-3.434 -0.014,-0.982 0.019,-1.934 0.131,-2.881 0.092,-0.739 0.127,-1.454 1.036,-1.446 0.086,2.127 1.011,4.115 2.178,5.862 -0.824,-1.232 -1.54,-2.702 -1.832,-4.161 -0.218,-1.094 -0.042,-1.66 0.893,-2.226 0.133,1.357 0.564,2.426 1.319,3.564 -0.414,-0.724 -1.727,-2.966 -0.764,-3.754 0.56,0.284 1.497,-0.263 2.289,-0.876 0.524,-0.406 0.982,-0.839 1.226,-1.083 0.437,-0.439 2.172,-1.441 1.832,-2.237 -0.147,-0.349 -0.788,-0.338 -1.107,-0.318 0.126,0.469 0.474,1.217 -0.074,1.579 -0.199,0.13 -0.358,0.009 -0.558,0.071 -0.335,0.103 -0.3,0.136 -0.55,0.367 -0.393,0.362 -0.764,0.804 -1.293,1.026 0.743,-0.544 1.486,-1.142 0.964,-2.053 -0.391,-0.68 -0.881,-1.662 -0.049,-2.299 -0.132,0.101 -1.431,-0.349 -1.619,-0.39 -0.706,-0.158 -1.431,-0.437 -2.137,-0.55 -0.728,-0.117 -1.446,-0.118 -2.138,-0.359 -0.38,-0.134 -1.262,-0.256 -1.372,-0.725 0.259,-0.162 0.701,-0.086 1.008,-0.139 -0.983,-0.174 -1.619,-1.408 -0.25,-1.308 -0.17,-0.121 -0.326,-0.269 -0.422,-0.455 0.217,-0.115 0.446,-0.034 0.676,-0.014 -0.252,-0.132 -0.496,-0.287 -0.676,-0.509 0.245,-0.014 0.503,-0.001 0.747,-0.019 -0.149,-0.163 -0.333,-0.29 -0.494,-0.441 0.129,0.021 0.29,-0.032 0.419,-0.016 -0.136,-0.193 -0.37,-0.332 -0.492,-0.507 0.412,0.083 0.812,0.308 1.219,0.374 -0.408,-0.326 -1.034,-0.493 -1.5,-0.772 -0.461,-0.279 -0.903,-0.65 -1.351,-0.908 0.122,0.418 0.493,0.853 0.83,1.146 -0.263,-0.063 -0.521,-0.167 -0.766,-0.281 0.245,0.385 0.679,0.862 0.842,1.273 -0.395,0.129 -0.76,0.035 -1.157,0.017 0.096,0.292 0.338,0.491 0.437,0.774 -0.208,-0.084 -0.424,-0.22 -0.63,-0.316 0.233,0.292 0.6,0.563 0.559,0.964 -0.094,-0.035 -0.247,0 -0.358,-0.062 0.104,0.276 0.262,0.621 0.387,0.981"
       id="path55-1"
       style="fill:#666666" />
    <path
       d="m 497.324,225.752 c 2.17,-0.632 5.035,-0.234 6.594,1.575 0.431,0.498 0.768,1.1 0.783,1.766 0.015,0.7 -0.195,1.427 -0.202,2.133 -0.005,0.71 0.152,1.518 0.057,2.233 -0.612,-0.44 -1.221,-0.109 -0.977,-1.151 -0.44,0.212 -0.349,0.86 -0.691,1.081 -0.173,-0.212 -0.217,-0.475 -0.358,-0.709 -0.268,0.161 -0.148,0.448 -0.309,0.718 -0.87,-0.361 -1.189,-1.854 -1.587,-2.6 -0.43,-0.804 -1.599,-2.758 -2.661,-2.758 -0.004,0.216 0.023,0.452 -0.064,0.641 -0.238,-0.04 -0.481,-0.104 -0.71,-0.188 0.236,0.378 0.239,0.863 0.583,1.161 0.181,0.159 0.558,0.192 0.755,0.339 0.612,0.451 1.823,2.176 1.405,2.994 -0.093,-0.5 -0.383,-1.31 -0.775,-1.628 0.154,0.379 0.12,0.841 0.097,1.248 -0.569,-0.276 -1.04,-1.001 -1.353,-1.493 0.081,0.372 0.147,0.985 0.003,1.348 0.025,-0.89 -0.657,-1.919 -1.26,-2.531 -0.669,-0.679 -1.422,-1.296 -1.248,-2.331 0.162,-0.97 1.009,-1.584 1.918,-1.848 z"
       id="path57-2"
       style="fill:#d1d1d1" />
    <path
       d="m 517.68,247.436 c -0.397,0.062 -0.697,-0.218 -0.791,-0.587 -0.116,-0.437 0.186,-0.563 0.25,-0.936 0.136,-0.805 -0.875,-0.907 -1.565,-1.243 0.206,0.228 1.183,1.292 0.179,0.992 0.763,1.401 -1.508,1.485 -2.385,1.525 -1.284,0.058 -2.407,-0.554 -3.693,-0.492 0.693,0.038 1.229,0.344 1.792,0.718 -0.387,0.101 -0.796,0.211 -1.147,0.401 0.418,0.084 0.781,-0.08 1.196,-0.08 0.305,0 0.574,0.16 0.834,0.168 0.945,0.035 1.993,-0.072 2.912,-0.051 -1.581,0.262 -3.105,0.471 -4.231,1.738 0.62,-0.278 1.3,-0.318 1.97,-0.379 -0.344,0.169 -0.935,0.415 -0.822,0.807 0.38,-0.174 0.834,-0.341 1.251,-0.245 -0.758,0.915 -0.914,2.183 -0.702,3.349 0.344,-1.167 1.443,-2.513 2.682,-2.752 -0.447,0.56 -1.317,0.997 -1.329,1.809 0.619,-0.029 1.352,-0.825 1.491,0.18 0.113,0.805 -0.723,1.223 -1.165,1.716 0.662,-0.196 1.303,-0.488 1.936,-0.708 -0.005,0.972 -1.42,1.716 -2.137,2.202 1.682,-0.381 3.295,-2.051 3.759,-3.666 -0.495,-0.087 -1,-0.033 -1.5,-0.137 0.125,-0.123 0.212,-0.381 0.299,-0.495 -0.555,-0.285 -1.058,-0.7 0.01,-1.032 0.61,-0.19 1.005,0.427 0.493,0.918 0.397,-0.045 0.72,-0.344 1.106,-0.411 0.064,0.214 0.05,0.471 -0.028,0.694 0.275,-0.134 0.725,-0.633 0.468,-0.949 -0.18,-0.224 -0.959,-0.149 -1.262,-0.416 -0.834,-0.732 -0.463,-1.95 -0.275,-2.614"
       id="path59-2"
       style="fill:#666666" />
    <path
       d="m 520.27,246.152 c -0.426,0.088 -0.995,0.243 -1.239,0.641 1.385,0.141 -0.697,2.083 -0.528,0.657 -0.629,1.204 0.415,3.002 2.028,2.511 1.517,-0.46 1.582,-4.032 -0.197,-3.809"
       id="path61-56" />
    <path
       d="m 519.286,248.968 c 0.596,0.088 0.876,-0.926 0.248,-0.878 -0.417,0.032 -0.885,0.786 -0.248,0.878 z"
       id="path63-1"
       style="fill:#ffffff" />
    <path
       d="m 509.148,242.162 c -0.316,-1.376 -0.603,-2.95 -1.128,-4.25 -0.236,-0.583 -0.62,-1.034 -1.033,-1.506 -0.571,-0.654 -1.527,-1.411 -2.35,-1.7 -1.989,-0.697 -4.066,0.179 -5.365,1.68 -0.937,1.086 -1.397,2.25 -1.509,3.701 -0.118,1.558 0.056,3.335 0.279,4.873 0.227,1.583 1.041,3.526 2.079,4.742 0.764,0.896 2.381,2.075 3.589,2.277 0.236,0.04 0.498,-0.031 0.737,-0.008 0.6,0.055 1.197,0.291 1.81,0.319 1.157,0.05 0.786,-0.479 1.247,-1.099 0.307,-0.412 1.429,-1.028 1.517,-1.505 0.119,-0.628 -0.682,-1.096 -0.661,-1.703 0.021,-0.65 0.578,-1.336 0.647,-2.023 0.035,-0.333 -0.063,-0.706 -0.44,-0.781 0.087,0.41 0.376,0.818 0.509,1.231 -0.277,-0.351 -0.821,-1.091 -1.349,-0.887 -0.028,0.324 0.307,0.637 0.363,0.951 -0.209,-0.218 -0.551,-0.409 -0.713,-0.694 -0.081,0.326 -0.055,0.945 -0.4,1.081 -0.369,0.144 -1.164,-0.287 -1.433,-0.489 0.235,0.541 -0.358,2.024 -0.985,2.207 -1.558,0.451 -2.23,-3.23 -1.297,-4.067 1.209,-1.089 4.588,1.826 4.525,-0.314 0.411,0.379 0.831,0.276 0.75,-0.339 0.451,0.283 0.685,0.807 1.123,1.11 -0.227,-0.316 -0.344,-0.762 -0.447,-1.14 0.424,0.253 0.591,0.266 1.09,0.222 -0.39,-0.408 -0.81,-0.776 -1.043,-1.299 -0.14,-0.312 -0.173,-0.732 -0.309,-0.979"
       id="path65-0"
       style="fill:#666666" />
    <path
       d="m 505.811,246.748 c -0.263,0.474 -0.28,1.04 -0.538,1.495 -0.403,0.716 -1.331,0.822 -2.014,0.38 -0.83,-0.537 -1.265,-1.632 -1.353,-2.582 -0.036,-0.4 0.35,-2.867 1.138,-2.242 -0.661,1.174 -0.806,2.663 -0.04,3.839 -0.057,-0.73 -0.436,-1.335 -0.334,-2.143 0.069,-0.546 0.279,-1.132 0.788,-1.387 1.248,-0.629 2.499,0.479 2.417,1.764 0.207,-0.43 0.241,-0.916 0.12,-1.375 -0.055,-0.211 -0.45,-0.665 -0.285,-0.887 0.171,-0.228 0.915,0.175 1.132,0.25 -0.381,-0.599 -0.868,-1.142 -1.334,-1.675 0.567,0.218 1.13,0.433 1.672,0.695 -0.213,-0.798 -0.816,-1.481 -1.047,-2.265 0.597,0.297 1.145,0.948 1.451,1.531 -0.641,-1.221 -0.883,-3.064 -2.091,-3.909 -2.139,-1.499 -4.941,-0.008 -5.734,2.25 -0.469,1.335 -0.331,2.728 -0.157,4.111 0.075,0.604 0.154,1.226 0.327,1.817 0.266,0.911 0.707,2.362 1.56,2.871 -0.149,-0.375 -0.594,-0.705 -0.838,-1.022 -0.423,-0.552 -0.782,-1.237 -0.974,-1.902 -0.772,-2.696 -1.143,-7.04 1.539,-8.841 1.794,-1.204 4.348,-0.604 5.515,1.108 0.386,0.568 0.61,1.264 0.833,1.912 0.179,0.522 0.25,1.145 0.525,1.623 0.637,1.101 0.457,-1.147 0.403,-1.474 -0.151,-0.95 -0.429,-1.888 -0.861,-2.748 -0.878,-1.743 -2.455,-3.022 -4.492,-2.831 -4.606,0.432 -5.399,6.208 -4.697,9.918 0.37,1.958 1.327,3.847 2.862,5.146 0.781,0.662 1.698,1.149 2.686,1.417 0.707,0.194 2.198,0.169 2.725,-0.466 0.301,-0.36 0.247,-0.709 0.716,-0.987 -0.311,-0.008 -0.608,0.031 -0.877,0.125 0.278,-0.373 0.696,-0.528 1.008,-0.827 -0.79,-0.261 -2.023,-0.273 -2.518,-1.041 0.75,0.003 1.901,0.533 2.648,0.24 -0.554,-0.088 -1.411,-0.761 -1.593,-1.292 0.075,0.221 1.421,0.825 1.493,0.376 0.074,-0.515 -1.743,-1.04 -1.781,-0.972 z"
       id="path67-4"
       style="fill:#d1d1d1" />
    <path
       d="m 497.157,248.921 c -0.532,-0.33 -0.993,-0.732 -1.509,-1.028 0.201,0.438 0.351,0.897 0.444,1.36 -0.31,-0.119 -0.67,-0.063 -0.967,-0.171 0.164,0.128 0.327,0.381 0.448,0.497 -0.829,0.232 -1.811,0.295 -2.426,0.876 0.574,0.057 1.167,0.02 1.745,0.061 -0.771,1.124 -2.258,1.072 -2.554,2.792 0.401,-0.421 0.655,-0.286 1.133,-0.348 -0.23,0.361 -0.42,0.929 -0.165,1.356 0.131,-0.103 0.564,-0.218 0.684,-0.305 0.106,0.982 -0.226,1.941 -0.122,2.909 0.385,-0.37 0.547,-1.139 0.99,-1.671 -0.045,0.636 -0.004,1.379 0.524,1.816 0.043,-0.261 0.203,-0.546 0.242,-0.778 0.157,0.602 0.456,1.45 1.13,1.02 0.359,0.538 0.819,1.102 1.426,1.189 -0.011,-0.206 0.074,-0.467 0.057,-0.666 0.14,0.238 0.636,0.485 0.801,0.67 0.047,-0.219 0.206,-0.432 0.25,-0.67 0.493,1.099 1.785,0.415 2.687,0.177 -0.092,0.137 -0.193,0.396 -0.27,0.491 0.714,-0.244 1.479,-0.466 2.208,-0.694 -0.192,0.066 -0.428,0.116 -0.626,0.169 0.019,-1.132 -3.132,-0.714 -4.038,-0.72 0.476,-0.102 1.102,-0.33 1.521,-0.674 -1.005,0.336 -2.325,-0.003 -3.359,-0.155 0.439,-0.11 0.838,-0.394 1.236,-0.58 -0.445,-0.059 -0.993,-0.238 -1.306,-0.43 0.25,0.027 0.593,-0.073 0.857,-0.073 -0.324,-0.456 -0.788,-0.903 -1.08,-1.389 0.27,0.065 0.696,0.024 1.031,0.181 -0.544,-0.551 -1.089,-1.057 -1.125,-1.843 0.602,0.263 1.304,0.446 1.9,0.578 -0.308,-0.359 -0.592,-0.739 -0.849,-1.14 0.284,0.076 0.675,0.011 0.99,0.139 -0.167,-0.194 -0.276,-0.608 -0.458,-0.829 0.952,-0.072 1.831,0.379 2.684,0.784 -0.835,-0.919 -1.942,-1.544 -2.745,-2.554 -0.577,-0.727 -0.895,-1.773 -1.579,-2.38 0.001,0.612 0.156,1.213 0.16,1.803 -0.145,-0.168 -0.335,-0.194 -0.495,-0.294"
       id="path69-1"
       style="fill:#666666" />
    <path
       d="m 477.62,260.782 c 0.131,0.293 0.546,0.684 0.71,1.009 0.438,-0.901 -0.17,-2.417 -0.469,-3.288 1.718,0.299 0.435,-1.342 0.485,-2.232 0.145,0.094 0.625,0.157 0.817,0.312 0.134,-0.724 -0.202,-1.413 -0.479,-2.052 0.319,0.088 0.657,-0.021 1.001,0.134 -0.068,-0.28 0.112,-0.727 0.054,-1.01 0.274,0.073 0.543,-0.044 0.846,0.096 0.493,-0.764 1.351,-1.134 2.22,-1.361 -0.073,0.03 -0.111,0.088 -0.111,0.17 1.985,-0.687 2.421,-2.73 3.26,-4.326 0.102,0.287 0.291,0.426 0.396,0.639 0.58,-1.122 -0.714,-3.095 -1.378,-4.092 0.234,0.823 0.336,2.103 -0.027,2.86 -0.087,-0.233 -0.246,-0.378 -0.353,-0.583 -0.291,2.131 -0.979,2.423 -2.41,1.041 0.101,0.919 0.357,2.006 -0.066,2.906 -0.12,-0.162 -0.493,-0.403 -0.629,-0.647 0.081,0.542 -0.183,0.843 -0.369,1.214 -0.575,-0.553 -1.136,-1.335 -1.737,-1.78 0.174,0.897 0.601,1.834 0.479,2.753 -0.305,-0.392 -0.714,-0.685 -1.177,-0.823 0.103,0.191 0.151,0.496 0.27,0.705 -1.099,-0.28 -2.587,-0.477 -3.723,-0.372 0.885,0.429 1.507,1.007 1.977,1.865 -1.208,-0.689 -2.213,-1.287 -3.589,-1.433 1.427,0.908 2.939,1.776 3.476,3.583 -0.601,-0.145 -1.154,-0.485 -1.688,-0.813 0.459,0.614 1.179,1.235 1.142,2.028 -0.768,-0.508 -1.67,-0.651 -2.578,-0.833 0.487,1.016 1.817,1.916 1.72,3.11 -0.473,-0.214 -1.023,-0.416 -1.552,-0.32 0.424,0.523 1.292,0.713 1.69,1.385 -0.44,0.135 -1.058,0.252 -1.321,0.657 0.657,-0.099 1.361,0.096 1.838,0.551 -0.205,0.079 -0.413,0.242 -0.604,0.312 0.613,-0.07 1.249,0.163 1.689,0.6 -0.233,0.168 -0.519,0.654 -0.796,0.874 0.658,0.472 0.814,1.393 0.819,2.174 -0.125,-0.149 -0.255,-0.442 -0.339,-0.601 0.872,-0.514 0.439,-1.636 0.357,-2.462 0.161,-0.021 0.313,-0.03 0.476,-0.04 -0.008,-0.46 -0.122,-0.958 -0.311,-1.382 0.316,-0.008 0.201,0.179 0.333,0.348"
       id="path71-2"
       style="fill:#666666" />
    <path
       d="m 438.547,242.817 c -0.844,0.548 -2.392,0.921 -2.775,1.899 1.394,-0.599 2.896,-1.302 4.47,-1.215 -0.589,0.436 -1.165,1.009 -1.127,1.713 0.774,-0.334 1.53,-0.743 2.374,-0.817 -0.278,0.538 -0.91,0.934 -1.187,1.41 1.117,-0.106 2.27,-1.473 3.638,-1.217 -0.331,0.322 -0.709,0.821 -0.635,1.347 1.019,-0.144 1.757,-0.572 2.742,0.061 -0.101,0.09 -0.249,0.374 -0.373,0.48 0.734,0.638 1.819,1.305 2.413,2.068 -0.247,-0.002 -0.567,0.082 -0.816,0.063 0.839,0.466 2.251,1.074 2.413,2.202 -0.1,0.019 -0.198,0.04 -0.297,0.058 0.025,0.645 0.539,0.938 0.85,1.495 0.505,0.896 0.777,1.833 0.877,2.871 0.125,1.307 -0.039,2.865 -0.332,4.064 1.475,-2.455 1.343,-6.206 0.166,-8.749 0.413,0.35 0.784,0.753 1.181,1.122 0,-1.071 -0.72,-2.106 -1.181,-3.042 0.142,0.07 0.252,0.153 0.387,0.233 0.1,-0.707 -1.245,-3.215 -1.789,-3.785 -1.149,-1.203 -3.021,-0.825 -4.505,-1.523 0.243,-0.083 0.499,-0.288 0.646,-0.354 -1.028,-0.084 -2.186,0.099 -3.144,-0.159 0.24,-0.169 0.375,-0.396 0.541,-0.546 -1.256,-0.166 -4.434,0.04 -5.411,0.669"
       id="path73-4"
       style="fill:#666666" />
    <path
       d="m 413.604,242.119 c -1.174,1.173 -2.711,2.399 -3.656,3.647 1.03,-0.344 1.813,-1.308 2.924,-1.543 -0.584,0.57 -1.149,1.25 -1.347,2.043 0.482,-0.483 1.042,-0.951 1.711,-0.989 -0.11,0.314 -0.027,0.888 -0.128,1.188 0.293,-0.259 0.784,-0.337 1.129,-0.499 -0.03,0.326 0.203,0.827 0.227,1.074 0.35,-0.488 1.043,-0.707 1.583,-0.399 0.873,0.495 0.34,1.395 0.18,2.282 0.708,-0.293 1.24,-0.957 2.089,-0.855 -0.118,0.4 -0.383,0.841 -0.703,1.189 1.072,-0.553 1.933,0.398 0.75,1.035 0.672,0.024 1.351,-0.117 1.824,0.379 -0.412,0.275 -0.802,0.623 -1.134,1.016 1.361,-0.122 1.776,0.674 2.557,1.524 -0.201,-0.111 -0.463,-0.167 -0.652,-0.259 -0.03,0.818 1.109,1.458 -0.022,2.071 0.542,0.604 1.363,0.964 1.591,1.885 -0.253,-0.481 -0.512,-0.974 -0.706,-1.473 0.242,0.124 0.616,0.179 0.801,0.265 -0.404,-0.301 -0.717,-0.744 -0.801,-1.175 0.163,-0.002 0.333,-0.023 0.496,-0.034 -0.327,-0.944 -1.155,-1.548 0.008,-2.212 -0.427,-0.08 -0.83,-0.407 -1.209,-0.559 0.201,-0.465 0.65,-0.94 0.816,-1.385 -0.411,0.146 -0.905,0.081 -1.306,0.138 0.262,-0.395 0.524,-0.792 0.787,-1.187 -0.542,-0.015 -1.051,0.179 -1.531,0.468 0.042,-0.614 0.494,-1.115 0.698,-1.695 -0.585,0.137 -1.167,0.344 -1.745,0.294 0.157,-0.831 0.804,-1.428 1.06,-2.224 -0.806,0.156 -1.552,0.587 -2.292,0.888 0.277,-0.811 1.005,-1.454 1.202,-2.25 -0.681,0.399 -1.434,0.746 -2.228,0.828 0.094,-0.611 0.31,-1.313 0.028,-1.862 -0.511,0.275 -1.023,0.635 -1.592,0.646 0.002,-0.553 0.277,-1.065 0.288,-1.562 -0.335,0.208 -0.831,0.31 -1.132,0.626 0.443,-1.226 1.571,-2.252 1.672,-3.54 -1.225,1.176 -2.35,2.653 -3.805,3.61"
       id="path75-4"
       style="fill:#666666" />
    <path
       d="m 486.69,236.711 c 0.603,0.114 1.096,0.495 1.412,0.997 -0.142,-0.477 -0.229,-1.01 -0.173,-1.507 0.337,0.219 0.839,0.218 1.19,0.317 -0.143,-0.293 -0.113,-0.855 -0.321,-1.175 0.24,0.044 0.602,-0.097 0.845,-0.053 -0.048,-0.429 -0.17,-0.92 -0.331,-1.342 0.919,0 2.546,0.095 3.131,-0.688 -1.596,-0.982 -2.237,-2.24 -3.319,-3.642 0.034,0.847 0.314,1.688 0.504,2.511 -0.419,-0.843 -1.219,-1.311 -2,-1.716 0.41,0.649 0.963,1.289 0.96,2.068 -0.301,-0.272 -0.716,-0.458 -0.99,-0.75 0.415,0.538 0.918,1.034 1.179,1.643 -0.299,-0.063 -0.721,0.102 -1.019,0.05 0.117,0.309 0.026,0.881 0.126,1.181 -0.153,-0.061 -0.33,-0.096 -0.485,-0.159 0.17,0.294 0.195,0.896 0.313,1.155 -0.206,-0.106 -0.445,-0.133 -0.657,-0.229 0.084,0.254 0.122,0.538 0.267,0.781 -0.396,0.326 -0.145,0.454 -0.109,0.907"
       id="path77-5"
       style="fill:#666666" />
    <path
       d="m 449.885,225.896 c 0.239,0.503 0.815,0.965 1.211,1.186 -0.383,-0.034 -0.822,0.133 -1.158,0.159 0.705,0.562 1.491,1.015 2.161,1.623 -0.372,0.076 -0.635,0.423 -0.947,0.525 0.748,0.356 1.384,0.985 1.849,1.689 -0.434,-0.931 -0.889,-1.934 -1.356,-2.853 0.225,0.066 0.477,0.041 0.672,0.089 -0.27,-0.438 -0.701,-0.868 -0.992,-1.354 0.234,0.014 0.557,-0.071 0.778,-0.049 -0.571,-0.442 -1.403,-0.661 -1.869,-1.19"
       id="path79-4"
       style="fill:#666666" />
  </g>
</svg>
