<?xml version="1.0" encoding="UTF-8" standalone="no"?>
<svg xmlns="http://www.w3.org/2000/svg" id="pet_fox" width="560" height="560" xmlns:xlink="http://www.w3.org/1999/xlink">
  <linearGradient id="linearGradient16223" x1="251.7" x2="247.4" y1="263.3" y2="240.5" xlink:href="#linearGradient16217" gradientUnits="userSpaceOnUse"/>
  <linearGradient id="linearGradient16217">
    <stop id="stop16219" style="stop-color:#000000;stop-opacity:1" offset="0"/>
    <stop id="stop16221" style="stop-color:#000000;stop-opacity:0" offset="1"/>
  </linearGradient>
  <linearGradient id="linearGradient16215" x1="157.2" x2="150.3" y1="231.2" y2="212.4" xlink:href="#linearGradient16209" gradientUnits="userSpaceOnUse"/>
  <linearGradient id="linearGradient16209">
    <stop id="stop16211" style="stop-color:#000000;stop-opacity:1" offset="0"/>
    <stop id="stop16213" style="stop-color:#000000;stop-opacity:0" offset="1"/>
  </linearGradient>
  <linearGradient id="linearGradient16231" x1="260.6" x2="255" y1="103" y2="114.4" xlink:href="#linearGradient16225" gradientUnits="userSpaceOnUse"/>
  <linearGradient id="linearGradient16225">
    <stop id="stop16227" style="stop-color:#552200;stop-opacity:1" offset="0"/>
    <stop id="stop16229" style="stop-color:#552200;stop-opacity:0" offset="1"/>
  </linearGradient>
  <linearGradient id="linearGradient16199" x1="150.7" x2="142.9" y1="257.5" y2="242" xlink:href="#linearGradient16193" gradientUnits="userSpaceOnUse"/>
  <linearGradient id="linearGradient16193">
    <stop id="stop16195" style="stop-color:#1a1a1a;stop-opacity:1" offset="0"/>
    <stop id="stop16197" style="stop-color:#1a1a1a;stop-opacity:0" offset="1"/>
  </linearGradient>
  <linearGradient id="linearGradient16207" x1="250.4" x2="238.5" y1="287.1" y2="254.8" xlink:href="#linearGradient16201" gradientUnits="userSpaceOnUse"/>
  <linearGradient id="linearGradient16201">
    <stop id="stop16203" style="stop-color:#1a1a1a;stop-opacity:1" offset="0"/>
    <stop id="stop16205" style="stop-color:#1a1a1a;stop-opacity:0" offset="1"/>
  </linearGradient>
  <g id="g3162" style="display:inline;enable-background:new">
    <g id="g3133">
      <g id="g15220">
        <path id="path15142" d="M103.4 434.7c-3-1.8-16.6-1-24.5 3.8-8 5-4.8 8-9 11.5.7 0 1.4.3 1.6 0-1.5 1.4-3 6.8-5 8 1-.5.8 0 2-.7-2.4 5-10.3 17.8-11.2 20.7-1 3-1.5 8.6-3.3 11-1.7 2.5-2.2 4-2.4 5 3.6.7 6.7-.2 8.3-1 1.5-.6 7.4-4.6 12-6 4.4-1.3 9.3-7.6 9-13.5.3 2.7 1.2 3.6 2 4.7-.3-1.8.2-3.6.4-4.7 1.6-.4 1.6-.7 2.7-1-1-.4-.6-3 .3-4.6.7.8 1 1.7 2.3 1.7-.5-2.3-1.8-4.5-.7-9.7 1-5.2 7-8.8 10-9" style="fill:#aa4400;fill-opacity:1;fill-rule:evenodd;stroke:#552200;stroke-width:2.44955945px;stroke-linecap:butt;stroke-linejoin:miter;stroke-opacity:1"/>
        <path id="path15176" d="M63 467.4c-2.6 4.6-5 9-5.6 10.6-1 3-1.5 8.6-3.3 11-1.7 2.6-2.2 4-2.4 5 3.6.7 6.7-.2 8.3-1 1.5-.6 7.4-4.6 12-6 1.6-.5 3.4-1.8 5-3.4-1.4.8-2.4.5-3.2 1.3.2-.5 1-1.3 1-1.7-1.3 1.4-2.5 2.5-4.3 2.6.8-.6 1.4-2.4 1.6-4-.7 1.5-2.5 1.7-3.7 3 .3-1.2 2.2-4.4 2-6.4-.3 1-1 2-1.7 2 .7-1 1.6-4 1.8-6.8-.3 2.3-2.2 3.4-4 3.5 2.2-1.2 1.8-2.7 1.2-4.2.2 1.6-1.2 2-1.2 2s0 .2-.7.3c1-1.2.5-3.4.3-5 .2 1.3-.6 3.6-1.8 4 .6-1.2 1-3.2.4-4.5-.4.4-1 2-3.3 3.7 1-4 3.4-6 5.5-8.4-1.5.7-2 2-3.8 2.4z" style="fill:#cccccc;fill-opacity:1;fill-rule:evenodd;stroke:#552200;stroke-width:2.44955945px;stroke-linecap:butt;stroke-linejoin:miter;stroke-opacity:1"/>
      </g>
      <g id="g16233">
        <path id="path15167" d="M151.4 477c-1.7 1-5 4.8-5.4 6.5-.3 1.8 0 7-.5 7.8-.4.8-1 4.5-1 7 0 2.6-2 5.5.6 8.2 2.6 2.7.5 2.7 3.3 4.3 2.7 1.6 3.6 6 2 7s-5.2 1.3-7-2.4c-1.7-3.6-2-4.6-3.2-6-1.2-1.2-1.3-3-1.8-4.3-.5-1.2 1.4-5-.5-9.2-.2-1 0-8-7.2-16" style="fill:#803300;fill-rule:evenodd;stroke:#552200;stroke-width:2.44955945px;stroke-linecap:butt;stroke-linejoin:miter;stroke-opacity:1"/>
        <path id="path15191" d="M143 496.5c-1.4 0-3.2.7-4.5 2 .4 3-.7 5.5-.3 6.6.5 1.3.6 3.2 2 4.5 1.2 1.3 1.4 2.3 3 6 2 3.6 5.5 3.3 7 2.3 1.7-1 .8-5.4-2-7-2.7-1.6-.6-1.6-3-4.3-2.7-2.7-.8-5.6-.8-8v-1.7c-.3-.2-.8-.4-1.4-.3z" style="fill:url(#linearGradient16223);fill-opacity:1;fill-rule:evenodd;stroke:none"/>
        <path id="path15169" d="M113.6 478c-3.6.7-6.3 2.8-6.5 3.5 0 .6 0 2-1.3 2.7-1.5.8-.7 4 .6 6 1.3 1.6 1.3 4.7 3.7 6.2 2.4 1.6 2.2 5.5.3 5.8-2 .3-6.2-1-7-3.4-.5-2.4 0-4-1.8-5.5-2-1.6-.6-5-1.7-6.7-1-1.8-3.4-2.8-4-4.3-.7-1.6 1.3-7.2-5-13.4" style="fill:#803300;fill-rule:evenodd;stroke:#552200;stroke-width:2.44955945px;stroke-linecap:butt;stroke-linejoin:miter;stroke-opacity:1"/>
        <path id="path15187" d="M104.2 487c-1.5 0-3.3 1.2-3.8 3.2 0 1.2.2 2.3 1 3 2 1.6 1.4 3.2 2 5.6.7 2.4 5 3.7 7 3.4 1.8-.3 2-4.2-.4-5.8-2.4-1.6-2.4-4.6-3.7-6.3-.6-.7-1-1.8-1.3-3h-.8z" style="fill:url(#linearGradient16215);fill-opacity:1;fill-rule:evenodd;stroke:none"/>
        <path id="path15140" d="M118 436.7c-1.7-2.7-6.2-2.7-8-2.7-1.8 0-7.7-.2-8.6.7-1 1-5.2-.2-10 2.5-4.6 2.7-3.5 5.6-8.5 8.3-5 2.7-5 17 1 22.4 6 5.3 11.7 17.6 10.2 27.8 0 5.2 5 7.7 5.4 13 .4 5.6 2.4 9 6.6 8 3-.7.4-7.7-.3-9.7-.7-2-5.3-9-5-10.7.2-1.8.4-8 .2-10.8-.2-2.8-2-9.3 1.3-10 5.5 3.6 14.7 4 19.7 4 5 .3 8 8 7.4 9.3-.4 1.4.5 4 2.7 7.5 2.3 3.4 6.6 14.6 6.3 17-.2 2.2 1.4 2.8 1 4.6-.5 1.7.8 2.6 1.5 3-.8 4.6 2.8 11.8 10 9.8 2.8-.7 2.3-5.6-3-11.3 1.7-1.3-2.4-6-2.6-8.3-.2-2.3-3.6-10.4-3.6-11.5 0-1.2-2.7-6-2.5-11 .2-4.6 1-5 1.8-5.3 1-.2 2.6-1.3 3.5-2.2 1-1 3-2.7 6.8-3.4 3.8-.7 5.8-9 6.3-10.6 1 .7 1 .4 1.6 1.3 1-1.5.2-4.5 0-5.8 1 .7 1.3 2.7 1.8 3 .4-2 .6-3 .4-4.8.5-.2 1.4.5 1.8 1.2.4-1 0-3-.2-3 1 0 1 0 2 .5-.7-1.5-1.8-3.4-2.5-4.5 1.4.7 1.8 2.3 2.7 3 .5-1.2 0-2.5-.4-3.4 1 .4.7.4 1 1 0-1.5-.6-3-.6-3 1.2.4 1.2 1 2 1.3-.4-2 .3-4 0-4.6-.6-.7-14-13.8-32.6-10-4-2-8-3.3-16.5-2.7z" style="fill:#aa4400;fill-opacity:1;fill-rule:evenodd;stroke:#552200;stroke-width:2.44955945px;stroke-linecap:butt;stroke-linejoin:miter;stroke-opacity:1"/>
        <path id="path15205" d="M153.2 443c-4.5 0-8.2 2.4-9.6 8-1 3.2-1 3.5-.7 4.7 0 1.2-1.7 3.8-1 6.6.2-2 2-4.6 2-6.6.3 3.8-.5 5-1 5.5-.3.7-.8 1.5-.7 3 0 1.2-2.7 3.8-2 6.2-.6-.8-1-2.4-1-3.4-.5 1-.7 3-.6 4-.4-1.4-.7-3-.7-3.8-.3 1.7.2 6.3-.4 8 0-1.7-.2-3.4-.4-4.2-.2 2.6-1.4 4-1.6 4.8 0-2-.3-2-.6-3 0 2.5-2.7 4.4-1.4 7.8 0-1 .4-1.8 1-2.4 0 2.2 0 4.5 1.6 5.2 0-.8-.4-1.7 0-2.6.2 1 .3 1.7 1.2 2-.5-1.6-.4-2.6-.2-3.3 1.2 1.7 2 5 2.3 7.3.3-2.8 1-3.2 1.6-3.4 1-.2 2.6-1.3 3.5-2.2 1-1 3-2.7 6.8-3.4 3.8-.7 5.8-9 6.3-10.6 1 .7 1 .4 1.6 1.3 1-1.5.2-4.5 0-5.8 1 .7 1.3 2.7 1.8 3 .4-2 .6-3 .4-4.8.5-.2 1.4.5 1.8 1.2.4-1 0-3-.2-3 1 0 1 0 2 .5-.7-1.5-1.8-3.4-2.5-4.5 1.4.7 2 2.3 2.8 3 .4-1.2 0-2.5-.5-3.4 1 .4.7.4 1 1 0-1.5-.5-3-.5-3 1 .4 1 .8 1.8 1.3-.2-2 .5-4 0-4.6 0-.2-1.4-1.6-3.7-3.2-3.5-2.2-7-3.3-10-3.3z" style="fill:#cccccc;fill-opacity:1;fill-rule:evenodd;stroke:none"/>
        <path id="path15144" d="M161.3 458c-3.5-4.6-2-8-.4-8.6 1.3-.5 3.5-1 6.4-.3 3 .7 10.2 1.4 9.7-3 2.4-.3 3-2.3 2.7-4.3.3-1.6 0-2-1.5-2.7-1.6-.8-3.8-2.8-5.5-4.3.6-1.7.3-5.6-2-8.6.2-4.2 3-4.7 3.5-11 .2-1.2.8-2.3 1-4.2-3.3-.5-10 3-12 5.4-1.6 2-3 2.2-4 3.4-.6.6-3.4-.2-4-.7-1.7-2-8.2-10-12.8-7-1.6.8-1.7 11-2.6 12.4-.6 1-1 5.4.3 8.6 0-.3-2.8 6-6.6 7-1 .2-3.2 1-4 0" style="fill:#aa4400;fill-rule:evenodd;stroke:url(#linearGradient16231);stroke-width:2.44955945px;stroke-linecap:butt;stroke-linejoin:miter;stroke-opacity:1"/>
        <path id="path15146" d="M156.7 433.6c2.4-1.4 5-.8 5.7-.8.5.5.4 1.3.2 1.6-1.6.5-4.8.3-6-.8z" style="fill:#808000;fill-rule:evenodd;stroke:#552200;stroke-width:2.44955945px;stroke-linecap:butt;stroke-linejoin:miter;stroke-opacity:1"/>
        <path id="path15148" d="M172.6 434.8c-2-1.7-2.7-3-1.3-5.7" style="fill:none;stroke:#552200;stroke-width:2.44955945px;stroke-linecap:butt;stroke-linejoin:miter;stroke-opacity:1"/>
        <path id="path15150" d="M170.7 432.3c.5-.4 1-.3 1.3-.2v1.2c-.5.2-1 0-1.3-1z" style="fill:#808000;fill-rule:evenodd;stroke:#552200;stroke-width:2.44955945px;stroke-linecap:butt;stroke-linejoin:miter;stroke-opacity:1"/>
        <path id="path15171" d="M157.8 438c-2.3 0-3.3.6-4.7 1.6 1.4-.2 2.8.6 3.3 1-2 .2-3.8 0-5.5 0 1.6.5 3.8 1.3 4.4 1.3-2.4.2-3.7.5-5.7 0l1.8-.4c-2.4-.4-7 .2-8.7 4.5 1-.5 2-1.8 3.2-1.8-2 1.5-1 3-3.3 4.4-1 .5-1.5 1.8-1.5 2.7.7-1 2.3-1.7 3-2.6 0 1.4-2.7 3.2-1 6-.2-1 0-2.2 1.3-3-1 2 .4 6 .2 7 1-.5.8-2.3 1.2-3 .4.7-.2 2 1 3.4.3-.6 0-2 .4-3 .2 2.5 1 4.7 2.6 5.6 0-2-2-5-1.5-7.5.8 1.7 1 4.7 2 5.3.8-1.2 0-3.8.2-5 1.5 2 1 5.8 4.8 8.5 0 0 1-3.4.3-6.6.5.5 1 2.6 2.6 3.6 0-1.3-1.3-2.8-1.5-4.3 1 .6 1.4 2.7 3 3-.8-1-1-1.8-1-2.3.4.7 2 1.5 2.7 1.5-3.3-4.4-1.8-7.8-.3-8.3 1.3-.5 3.5-1 6.4-.3 3 .7 10.2 1.4 9.7-3 2.3-.3 3-2.3 2.7-4.3 0-.8.2-1.2 0-1.6-1.8 1.8-5 0-6 .3-1 .2-2 .8-3.6.4-1.6-.5-3.6-1.3-4.7-1-1.2 0-3.2-1.5-6.4-1.6h-1.2z" style="fill:#cccccc;fill-rule:evenodd;stroke:none"/>
        <path id="path15157" d="M177.2 446c-3-.4-4 .2-5 .6-.8.4-2.6 1.5-6.6-1-1-.6-2.8-1.3-4.3-1" style="fill:none;stroke:#ff5555;stroke-width:2.44955945px;stroke-linecap:butt;stroke-linejoin:miter;stroke-opacity:1"/>
        <path id="path15159" d="M175 411.4c-2.2.3-10.3 3.5-9.6 11 2 .8 4 2.4 4.4 3 .4-2 1.5-4.5 2-5.2.7-.8 1.6-3.6 2-4.8.2-1 1-3.2 1.3-4z" style="fill:#cccccc;fill-opacity:1;fill-rule:evenodd;stroke:none"/>
        <path id="path15161" d="M142.4 413c3.8-1.4 8 4.3 8 6.7 0 2.4-.6 4.2 1.2 5.6-1 2.4-4 5.4-8.5 2.7-1.5-1-2.4-3.3-1.3-4 1-.6.3-4 .2-5-.3-1-.4-3.4.4-6z" style="fill:#cccccc;fill-opacity:1;fill-rule:evenodd;stroke:none"/>
        <path id="path15163" d="M162 428.5c-1 .5-3 1.3-4.7.6-1.6-.5-2.4-.5-3.6-.7.8.4 1.7 1.3 2.4 2-1.4-.5-2.6 0-3 .6 1.2-.7 1.5-.3 2 0-1 .5-2.3 1-3 .5 1 .8 1.7.7 2.5.7-.4.4-.6.7-1 .6" style="fill:none;stroke:#552200;stroke-width:2.44955945px;stroke-linecap:butt;stroke-linejoin:miter;stroke-opacity:1"/>
        <path id="path15165" d="M169.6 428.5c.3-.6 1-1 1-1v.8c.5-.4 1-.6 1.3.4" style="fill:none;stroke:#552200;stroke-width:2.44955945px;stroke-linecap:butt;stroke-linejoin:miter;stroke-opacity:1"/>
        <path id="path15185" d="M99 497h-.6c-1.8.8-2.4 2.7-2 4.7 1.3 2.2 3 4.3 3.2 7.2.4 5.4 2.4 8.7 6.6 7.8 3-.7.4-7.7-.3-9.7-.6-1.5-3.5-6.2-4.6-9-.7-.6-1.4-1-2.3-1z" style="fill:url(#linearGradient16199);fill-opacity:1;fill-rule:evenodd;stroke:none"/>
        <path id="path15189" d="M137.5 497.7c-1 0-2 1.5-2 5.2 1.7 4 3.3 8.8 3 10.2 0 2.2 1.5 3 1 4.7-.4 1.7 1 2.6 1.6 3-.8 4.6 2.8 11.8 10 9.8 2.8-.8 2.3-5.7-3-11.3 1.7-1.3-2.4-6-2.6-8.3-.2-1.6-1.8-5.8-2.8-8.7-1.4-2.5-3.5-5-5-4.8z" style="fill:url(#linearGradient16207);fill-opacity:1;fill-rule:evenodd;stroke:none"/>
        <path id="path15210" d="M161.3 433.6a.6.6 0 1 1-1.2 0 .6.6 0 1 1 1.3 0z" style="color:#000000;fill:#000000;fill-opacity:1;fill-rule:nonzero;stroke:none;stroke-width:3.75;marker:none;visibility:visible;display:inline;overflow:visible;enable-background:accumulate"/>
        <path id="path15212" d="M171.8 432.6a.3.3 0 1 1-.7 0 .3.3 0 1 1 .8 0z" style="color:#000000;fill:#000000;fill-opacity:1;fill-rule:nonzero;stroke:none;stroke-width:3.75;marker:none;visibility:visible;display:inline;overflow:visible;enable-background:accumulate"/>
        <path id="path15152" d="M177.7 439c-1 0-1.8.6-2 .8-.6.5-1.3.2-1.7.4-.4.3.3 2.2 1.6 2 2.6-.4.8 1.2 2.2 1.7 1.5-.8.3-2.6 2-2.5 0-1.2 0-1.6-1-2.2l-1-.2z" style="fill:#1a1a1a;fill-rule:evenodd;stroke:none"/>
        <path id="path15214" d="M172 432.4a.3.3 0 1 1-.6 0 .3.3 0 1 1 .7 0z" style="color:#000000;fill:#ffffff;fill-opacity:1;fill-rule:nonzero;stroke:none;stroke-width:3.75;marker:none;visibility:visible;display:inline;overflow:visible;enable-background:accumulate"/>
        <path id="path15216" d="M161.5 433.3a.3.3 0 1 1-.7 0 .3.3 0 1 1 .7 0z" style="color:#000000;fill:#ffffff;fill-opacity:1;fill-rule:nonzero;stroke:none;stroke-width:3.75;marker:none;visibility:visible;display:inline;overflow:visible;enable-background:accumulate"/>
      </g>
    </g>
  </g>
</svg>
