<?xml version="1.0" encoding="UTF-8" standalone="no"?>
<!-- Created with Inkscape (http://www.inkscape.org/) -->

<svg
   xmlns:dc="http://purl.org/dc/elements/1.1/"
   xmlns:cc="http://creativecommons.org/ns#"
   xmlns:rdf="http://www.w3.org/1999/02/22-rdf-syntax-ns#"
   xmlns:svg="http://www.w3.org/2000/svg"
   xmlns="http://www.w3.org/2000/svg"
   version="1.1"
   width="560"
   height="560"
   id="pet_siamese_cat">
  <g
     transform="matrix(0.25968631,0,0,0.25968631,90.56005,411.4949)"
     id="g3132"
     style="display:inline;overflow:visible;enable-background:new">
    <path
       d="M 12.632,352.324 C 18.691,315.818 13.03,273.996 7.817,237.613 5.858,223.937 7.796,211.338 5.245,197.537 2.019,180.082 1.276,161.955 3.768,144.466 c 2.369,-16.62 7.825,-31.312 14.008,-46.736 3.371,-8.408 6.978,-16.666 10.34,-25.06 1.857,-4.635 11.107,-9.583 11.107,-13.704 0,-20.405 14.513,-48.083 31.024,-58.967 22.13,44.455 62.824,18.889 96.029,4.423 -6.977,11.392 -21.281,26.299 -23.639,39.802 2.387,-1.881 3.646,-1.711 5.91,-2.948 -2.32,2.337 -3.682,5.05 -5.91,7.37 1.836,-1.189 4.068,-1.766 5.91,-2.947 -15.154,15.576 -0.29,34.14 -7.387,51.594 -4.047,9.953 -10.342,14.55 -10.342,25.798 0,8.64 -8.83,13.195 -16.25,14.005 6.418,4.035 9.605,12.173 12.433,19.224 5.525,13.782 14.944,23.614 21.546,36.794 10.514,20.993 19.379,46.036 22.16,69.286 1.416,11.83 1.477,23.494 1.477,35.379 0,8.42 14.287,20.205 17.729,28.01 7.944,18.008 -2.369,38.867 -14.773,51.596 -17.539,18.002 -44.193,23.92 -68.328,29.943 -22.277,5.559 -46.22,11.867 -69.065,6.174 -17.281,-4.309 -37.598,-27.496 -8.207,-17.717 20.356,6.773 45.329,3.115 65.492,-4.068 21.634,-7.707 89.388,-23.871 71.246,-61.506 -10.194,19.4 -46.141,41.66 -65.005,42.752 -9.727,0.563 -11.129,-2.258 -16.988,-8.109 -7.89,-7.879 7.692,-17.059 12.557,-21.375 -5.702,0.475 -29.335,-4.422 -31.486,3.088 -2.649,9.25 -6.209,16.475 -9.88,24.922 -2.933,6.748 -16.743,33.406 -30.285,19.9 -2.576,-2.57 -8.928,-6.152 -11.081,-8.109 -1.175,-1.066 -2.338,-5.168 -2.954,-5.895 -1.63,-1.924 -6.372,0.547 -8.126,-2.949 -3.209,-6.395 -4.797,-24.411 9.602,-22.112 m 26.593,-23.586 c -0.399,-15.939 5.826,-31.592 4.432,-47.174 4.163,17.432 -5.48,30.953 -4.432,47.174"
       id="path3-1"
       style="fill:#f2f2d3;fill-rule:evenodd" />
    <path
       d="m 18.543,403.919 c -5.293,-3.238 -8.415,-15.256 -10e-4,-11.057 7.052,3.518 18.597,6.002 26.593,6.633 23.329,1.84 47.802,-7.076 69.435,-14.74 20.461,-7.248 40.762,-11.033 49.518,-32.869 3.426,-8.541 1.426,-14.168 2.189,-21.676 1.186,-11.635 6.756,-21.363 5.908,-33.904 1.438,8.818 10.703,15.816 14.773,23.588 5.463,10.426 4.432,16.979 4.432,28.006 0,19.965 -21.941,38.633 -38.41,45.699 -35.009,15.026 -101.021,36.707 -134.437,10.32"
       id="path5-2"
       style="fill:#402b14;fill-rule:evenodd" />
    <path
       d="m 2.291,370.013 c -3.647,-2.658 -2.781,-11.178 1.479,-14.742 7.216,-6.037 8.817,-0.359 14.774,4.424 -0.985,0 -1.97,0 -2.955,0 3.059,0.412 6.439,1.594 10.342,1.475 -2.279,3.574 0.74,2.217 -1.479,4.422 6.13,6.275 37.237,7.988 30.286,-5.896 -6.319,-12.621 13.003,-26.506 18.467,-29.484 2.529,3.17 4.727,2.76 7.387,4.422 0.005,-1.441 -0.15,-2.99 0,-4.422 1.266,2.109 3.284,3.871 4.432,5.898 0,-0.984 0,-1.967 0,-2.949 16.245,10.346 46.005,24.016 66.481,11.793 -11.687,13.08 -39.516,32.416 -56.14,28.01 -19.985,-5.299 -10.222,-19.105 1.477,-29.484 -10.441,0.867 -18.719,-0.98 -29.109,1.094 -4.45,0.887 -6.236,16.379 -8.563,21.018 -4.057,8.088 -6.668,18.742 -14.034,23.588 -7.443,4.896 -23.342,4.092 -29.547,-1.475 -1.521,-1.365 -2.885,-8.49 -4.432,-10.318 -3.283,-3.878 -8.662,1.749 -8.866,-7.374"
       id="path7-0"
       style="fill:#402b14;fill-rule:evenodd" />
    <path
       d="m 102.751,113.512 c -7.825,-0.4 -17.241,-4.277 -23.637,-7.372 0,0.982 0,1.965 0,2.947 -3.871,-3.057 -10.298,-3.425 -13.297,-5.896 -1.686,0.489 -0.694,1.444 -2.955,1.475 8.134,-16.622 -20.013,-6.817 -19.205,-20.64 2.173,2.509 5.218,3.741 7.387,5.898 -0.492,-0.492 -0.984,-0.983 -1.477,-1.475 2,0.673 5.263,0.984 7.387,1.475 -0.22,-4.855 1.706,-9.249 1.477,-14.743 1.65,4.326 3.696,5.986 7.387,8.844 -0.492,-0.491 -0.984,-0.982 -1.477,-1.473 7.45,2.131 12.475,-3.448 20.682,-2.95 -0.59,-0.31 -2.217,-1.149 -2.955,-1.473 1.01,0.024 3.53,0.416 4.434,0 0.492,-1.476 -10e-4,-1.967 -1.479,-1.475 8.395,-3.073 4.854,-10.979 7.387,-17.69 0.492,0.492 0.984,0.983 1.477,1.475 -0.455,-7.471 -7.069,-13.092 -14.771,-11.793 1.897,-0.419 1.381,-0.784 2.953,-1.475 -0.984,0 -1.969,0 -2.953,0 2.42,-3.837 1.598,-4.547 2.953,-8.844 -0.492,0.983 -0.984,1.966 -1.477,2.949 C 87.906,24.553 77.989,19.592 70.25,5.896 62.44,9.605 49.673,26.269 49.567,35.379 c -0.106,9.048 5.263,7.199 14.773,8.846 -3.752,1.777 -6.308,3.336 -10.342,4.422 0.985,0 1.97,0 2.955,0 -5.689,0.928 -8.969,2.925 -4.432,7.372 -0.985,0 -1.97,0 -2.955,0 2.596,0.654 4.771,2.373 7.387,2.947 -1.5,0.88 -2.354,2.512 -2.955,2.949 -8.495,-7.456 -11.761,-8.6 -16.25,5.895 2.05,-23.918 11.796,-54.163 32.5,-67.81 5.308,10.663 15.108,15.198 17.729,28.009 -0.492,-0.492 -0.984,-0.983 -1.477,-1.475 3.178,7.035 -0.418,10.959 2.215,16.216 3.464,6.916 10.788,10.126 12.557,17.689 0.889,-1.438 0.858,-1.401 1.479,-2.947 0.813,3.622 2.242,6.464 2.956,10.317 0.492,-1.474 0.984,-2.948 1.477,-4.422 0.492,0.983 0.984,1.966 1.477,2.949 0.389,-10.762 -2.07,-13.104 -5.909,-23.587 6.995,5.443 11.104,11.966 11.819,20.638 0.047,-4.641 0.666,-7.085 0,-11.794 1.553,3.751 3.92,6.847 5.91,10.321 0,-7.246 -3.098,-17.447 2.953,-20.638 -1.483,0.571 -2.934,0.395 -4.432,1.473 1.383,-4.795 3.831,-9.524 7.387,-13.266 -2.201,-0.152 -1.379,0.641 -2.955,1.473 -4.006,-3.072 -0.516,-2.867 -5.908,-4.422 12.309,-8.929 34.621,-15.956 48.752,-22.112 -3.393,7.677 -7.406,14.062 -13.297,20.639 2.617,-3.739 6.053,-8.295 5.91,-13.269 -3.617,2.285 -6.572,5.234 -8.865,8.846 0,-0.983 0,-1.966 0,-2.949 -8.728,7.725 -18.6,20.412 -20.682,30.957 -1.254,6.35 2.104,24.83 11.818,22.112 -0.3,5.949 3.24,10.436 2.955,16.216 -0.417,8.463 -7.155,14.046 -9.604,21.376 -1.617,4.842 -4.264,7.209 -7.387,10.319 -2.506,2.497 -2.991,8.172 -5.17,12.53 2.34,0.617 1.221,0.492 1.477,2.949 1.494,-0.956 2.85,-2.007 4.434,-2.949 -6.705,7.956 -28.726,10.793 -36.935,4.422 5.116,1.791 6.808,0.925 11.818,0 -0.926,-0.022 4.31,-2.212 7.388,-4.422 -4.024,-5.67 0.029,-10.955 -7.388,-14.743 1.853,0.025 4.097,-0.36 5.909,0 -3.039,-0.341 -5.673,-1.183 -8.864,-1.473 0.986,-0.489 1.971,-0.981 2.956,-1.471"
       id="path9-9"
       style="fill:#5e3f1d;fill-rule:evenodd" />
    <path
       d="m 93.886,101.718 c -14,5.972 -15.579,-18.768 -2.953,-13.268 -0.496,2.101 -0.685,5.449 -1.479,7.37 7.448,-16.294 15.544,7.921 4.432,5.898"
       id="path11-5"
       style="fill:#402b14;fill-rule:evenodd;stroke:#000000;stroke-width:0.345;stroke-miterlimit:9.4285717;stroke-opacity:1;stroke-dasharray:none" />
    <path
       d="m 124.912,106.14 c 0.633,-5.191 1.719,-10.465 5.908,-13.268 -0.369,1.998 -1.129,3.804 -1.477,5.896 0.217,-0.676 9.558,-15.316 8.863,-5.896 -0.665,9.03 -6.71,8.915 -13.294,13.268"
       id="path13-44"
       style="fill:#402b14;fill-rule:evenodd;stroke:#000000;stroke-width:0.345;stroke-miterlimit:9.4285717;stroke-opacity:1;stroke-dasharray:none" />
    <path
       d="m 59.909,39.803 c -2.639,-1.001 -4.353,-1.976 -7.387,-1.475 1.669,0.971 2.923,1.828 4.432,2.949 -17.847,8.169 3.53,-31.236 13.295,-35.38 5.997,10.614 23.498,25.403 2.955,32.431 0.203,0.533 1.475,-2.851 1.477,-2.949 -1.456,1.493 -3.02,2.891 -4.432,4.424 0.493,-1.475 0.986,-2.949 1.479,-4.424 -1.467,1.167 -2.548,2.311 -4.434,2.949 0.934,-1.669 2.095,-2.032 1.479,-4.422 -4.364,1.916 -5.541,2.343 -10.342,2.949 0.492,0.983 0.985,1.965 1.478,2.948 M 130.82,45.7 c -0.461,-8.389 12.979,-22.498 19.205,-28.009 0,0.983 0,1.966 0,2.949 2.293,-3.612 5.248,-6.561 8.865,-8.846 0.256,8.98 -19.434,44.122 -28.07,33.906"
       id="path15-0"
       style="fill:#e0d0d0;fill-rule:evenodd" />
    <path
       d="m 83.546,88.45 c 6.697,-3.035 8.618,0.645 5.908,7.37 4.643,-10.871 13.798,-2.913 7.387,2.949 -6.909,6.317 -16.474,-3.386 -13.295,-10.319 m 42.843,13.268 c 1.063,-3.607 0.93,-6.317 4.432,-8.846 -0.337,1.824 -1.043,4.046 -1.477,5.896 6.722,-20.868 13.545,6.025 -2.955,2.95"
       id="path17-05"
       style="fill:#7dcfff;fill-rule:evenodd" />
    <path
       d="m 14.109,346.425 c 0,-39.086 -6.917,-77.719 -7.387,-116.457 -0.361,-29.781 -11.33,-66.64 0,-95.819 -0.701,7.808 -0.462,19.444 8.866,20.638 -15.974,21.559 -2.956,37.54 -2.956,60.439 0,11.422 -1.172,15.934 4.433,24.322 5.225,7.822 12.63,9.063 16.249,15.482 -6.329,4.744 0.247,12.582 1.479,19.16 2.102,11.223 -4.39,23.672 0.738,33.908 6.64,13.252 4.026,50.619 -11.08,56.018 0.492,-1.523 1.186,-1.025 1.479,-2.947 -3.903,0.119 -7.283,-1.063 -10.342,-1.475 0.985,0 1.97,0 2.955,0 -5.419,-1.625 -3.542,-1.438 -5.911,-5.898 12.593,3.074 18.472,-21.209 17.729,-30.955 -0.493,0.49 -0.986,0.982 -1.479,1.475 -0.062,-3.385 2.715,-12.652 10e-4,-14.006 -4.198,-2.096 -6.066,-5.07 -5.909,-9.582 -5.199,5.127 1.232,18.652 0,26.535 -0.767,4.912 -4.457,16.037 -8.865,19.162 m 42.845,-4.422 c -3.088,-7.838 6.707,-12.666 8.863,-20.637 1.447,-5.348 -3.66,-10.811 0,-16.217 1.606,-2.371 9.049,-0.809 13.297,-5.896 5.476,-6.559 0.823,-15.324 11.818,-17.689 -9.896,-7.613 5.886,-15.787 0,-25.061 -6.092,8.109 -13.14,21.988 -23.639,23.586 0.285,-6.4 1.264,-17.334 8.866,-13.268 -0.295,-9.588 11.818,-10.145 11.818,-22.111 0,-5.656 6.327,-10.088 8.863,-14.742 3.006,-5.516 2.751,-7.457 4.432,-13.268 4.564,-15.774 7.854,-30.711 7.388,-47.172 -0.269,-9.423 5.068,-23.752 1.479,-32.432 9.029,-1.074 11.475,8.16 14.771,14.741 6.007,11.99 12.501,21.3 19.207,32.431 10.795,17.917 17.945,41.289 23.637,61.178 9.728,33.99 13.71,98.85 -32.502,102.453 11.701,-10.01 8.998,-26.488 13.297,-39.801 3.43,-10.619 16.27,-17.648 11.08,-28.01 -5.294,-10.57 10.114,-19.174 6.648,-26.535 -4.593,-9.76 -21.957,-1.063 -28.07,-4.422 3.722,-5.213 13.297,-6.641 13.297,-15.479 0,-13.092 0.054,-25.306 -7.387,-36.117 -5.569,-8.093 -13.031,-11.941 -15.156,-22.55 -3.045,-15.194 -6.61,-25.568 -15.867,-37.89 0,7.371 -0.006,14.742 0,22.112 0.004,6.454 2.282,15.946 0.738,22.112 -4.142,16.534 -1.745,31.137 -3.693,47.172 -6.549,-2.842 -10.656,13.891 -14.036,20.639 -2.747,5.484 9.397,13.471 2.216,20.639 -8.527,8.51 -16.15,25.633 -20.683,36.854 -5.603,13.871 -12.434,22.517 -20.682,35.38 m 10.339,-41.275 c 2.56,-4.965 3.644,-10.645 2.955,-16.215 15.198,1.639 -1.736,16.58 -2.955,16.215 M 40.701,259.453 c -5.515,-12.689 -17.672,-20.838 -22.158,-33.908 4.77,9.6 13.253,5.066 19.205,10.32 7.032,6.209 2.97,12.959 2.953,23.588 M 93.886,101.718 c -8.408,3.586 -14.938,-5.245 -10.34,-13.268 -5.278,10.777 11.472,15.825 16.25,5.897 1.392,5.579 -0.179,8.414 -5.91,7.371 m 31.026,4.422 c 3.428,-6.159 12.442,-4.742 13.295,-14.743 0.81,9.886 -6.701,10.383 -13.295,14.743 m -85.687,7.372 c 7.06,-22.465 -25.177,-32.625 0,-53.071 -2.893,8.539 -3.72,16.864 -0.738,25.797 3.106,9.307 12.4,17.4 14.036,25.797 -5.058,-3.144 -11.853,-6.827 -13.298,1.477 M 95.364,32.431 c -2.571,-2.138 -4.35,-4.655 -4.432,-8.846 7.613,2.731 15.761,0.774 23.638,2.95 -5.42,1.543 -6.238,6.479 -8.863,11.793 -1.908,-4.483 -4.734,-7.735 -8.866,-10.319 -0.541,1.621 -0.998,2.774 -1.477,4.422"
       id="path19-2"
       style="fill:#bfad84;fill-rule:evenodd" />
    <path
       d="M 12.632,352.324 C 18.691,315.818 13.03,273.996 7.817,237.613 5.858,223.937 7.796,211.338 5.245,197.537 2.019,180.082 1.276,161.955 3.768,144.466 c 2.369,-16.62 7.825,-31.312 14.008,-46.736 3.371,-8.408 6.978,-16.666 10.34,-25.06 1.857,-4.635 11.107,-9.583 11.107,-13.704 0,-20.405 14.513,-48.083 31.024,-58.967 22.13,44.455 62.824,18.889 96.029,4.423 -6.977,11.392 -21.281,26.299 -23.639,39.802 2.387,-1.881 3.646,-1.711 5.91,-2.948 -2.32,2.337 -3.682,5.05 -5.91,7.37 1.836,-1.189 4.068,-1.766 5.91,-2.947 -15.154,15.576 -0.29,34.14 -7.387,51.594 -4.047,9.953 -10.342,14.55 -10.342,25.798 0,8.64 -8.83,13.195 -16.25,14.005 6.418,4.035 9.605,12.173 12.433,19.224 5.525,13.782 14.944,23.614 21.546,36.794 10.514,20.993 19.379,46.036 22.16,69.286 1.416,11.83 1.477,23.494 1.477,35.379 0,8.42 14.287,20.205 17.729,28.01 7.944,18.008 -2.369,38.867 -14.773,51.596 -17.539,18.002 -44.193,23.92 -68.328,29.943 -22.277,5.559 -46.22,11.867 -69.065,6.174 -17.281,-4.309 -37.598,-27.496 -8.207,-17.717 20.356,6.773 45.329,3.115 65.492,-4.068 21.634,-7.707 89.388,-23.871 71.246,-61.506 -10.194,19.4 -46.141,41.66 -65.005,42.752 -9.727,0.563 -11.129,-2.258 -16.988,-8.109 -7.89,-7.879 7.692,-17.059 12.557,-21.375 -5.702,0.475 -29.335,-4.422 -31.486,3.088 -2.649,9.25 -6.209,16.475 -9.88,24.922 -2.933,6.748 -16.743,33.406 -30.285,19.9 -2.576,-2.57 -8.928,-6.152 -11.081,-8.109 -1.175,-1.066 -2.338,-5.168 -2.954,-5.895 -1.63,-1.924 -6.372,0.547 -8.126,-2.949 -3.209,-6.395 -4.797,-24.411 9.602,-22.112"
       id="path21-7"
       style="fill:none;stroke:#000000;stroke-width:0;stroke-linecap:square;stroke-miterlimit:10" />
    <path
       d="m 39.225,328.738 c -0.399,-15.939 5.826,-31.592 4.432,-47.174 4.163,17.432 -5.48,30.953 -4.432,47.174"
       id="path23-6"
       style="fill:none;stroke:#000000;stroke-width:0;stroke-linecap:square;stroke-miterlimit:10" />
    <line
       y2="359.69501"
       y1="358.22"
       x2="2.2909999"
       x1="5.2459998"
       style="fill:none;stroke:#000000;stroke-width:0;stroke-linecap:square;stroke-miterlimit:10"
       id="line25" />
    <path
       d="m 5.246,365.591 c -1.687,1.838 -2.341,2.75 -2.955,4.422"
       id="path27-41"
       style="fill:none;stroke:#000000;stroke-width:0;stroke-linecap:square;stroke-miterlimit:10" />
    <path
       d="m 9.677,370.013 c -0.608,2.756 -0.158,5.383 1.479,7.371"
       id="path29-2"
       style="fill:none;stroke:#000000;stroke-width:0;stroke-linecap:square;stroke-miterlimit:10" />
    <path
       d="m 12.632,378.857 c 0.827,-10.305 7.636,-8.51 13.297,-14.74 8.159,-8.98 12.013,-23.629 13.295,-35.379"
       id="path31-9"
       style="fill:none;stroke:#000000;stroke-width:0;stroke-linecap:square;stroke-miterlimit:10" />
    <path
       d="m 18.543,375.91 c -1.876,2.258 -2.856,4.611 -2.955,7.369"
       id="path33-5"
       style="fill:none;stroke:#000000;stroke-width:0;stroke-linecap:square;stroke-miterlimit:10" />
    <path
       d="m 24.451,390.65 c 0,-2.457 0,-4.914 0,-7.371"
       id="path35-3"
       style="fill:none;stroke:#000000;stroke-width:0;stroke-linecap:square;stroke-miterlimit:10" />
    <path
       d="m 37.748,381.806 c -2.13,3.209 -1.811,6.266 1.477,8.844"
       id="path37-2"
       style="fill:none;stroke:#000000;stroke-width:0;stroke-linecap:square;stroke-miterlimit:10" />
    <path
       d="m 21.496,403.919 c 0.678,1.148 1.639,1.682 2.955,1.475"
       id="path39-51"
       style="fill:none;stroke:#000000;stroke-width:0;stroke-linecap:square;stroke-miterlimit:10" />
    <path
       d="m 27.406,408.341 c 1.969,0 3.939,0 5.908,0"
       id="path41-1"
       style="fill:none;stroke:#000000;stroke-width:0;stroke-linecap:square;stroke-miterlimit:10" />
    <path
       d="m 33.314,411.289 c 1.786,-1.252 3.756,-1.748 5.91,-1.473"
       id="path43-2"
       style="fill:none;stroke:#000000;stroke-width:0;stroke-linecap:square;stroke-miterlimit:10" />
    <path
       d="m 61.385,412.765 c 2.954,-0.986 5.908,-1.969 8.863,-2.949"
       id="path45-41"
       style="fill:none;stroke:#000000;stroke-width:0;stroke-linecap:square;stroke-miterlimit:10" />
    <path
       d="m 70.249,412.765 c 3.274,-0.826 6.23,-2.303 8.866,-4.424"
       id="path47-9"
       style="fill:none;stroke:#000000;stroke-width:0;stroke-linecap:square;stroke-miterlimit:10" />
    <path
       d="m 108.66,406.867 c 2.037,-2.514 4.516,-4.498 7.387,-5.895"
       id="path49-5"
       style="fill:none;stroke:#000000;stroke-width:0;stroke-linecap:square;stroke-miterlimit:10" />
    <path
       d="m 116.047,403.919 c 3.272,-1.645 5.734,-4.102 7.387,-7.371"
       id="path51-4"
       style="fill:none;stroke:#000000;stroke-width:0;stroke-linecap:square;stroke-miterlimit:10" />
    <path
       d="m 123.434,400.972 c 1.998,-1.58 3.482,-3.549 4.434,-5.9"
       id="path53-35"
       style="fill:none;stroke:#000000;stroke-width:0;stroke-linecap:square;stroke-miterlimit:10" />
    <path
       d="m 130.82,398.023 c -0.457,-1.828 0.004,-3.332 1.479,-4.424"
       id="path55-7"
       style="fill:none;stroke:#000000;stroke-width:0;stroke-linecap:square;stroke-miterlimit:10" />
    <path
       d="m 135.252,396.548 c 1.15,-0.676 1.686,-1.633 1.479,-2.949"
       id="path57-5"
       style="fill:none;stroke:#000000;stroke-width:0;stroke-linecap:square;stroke-miterlimit:10" />
    <path
       d="m 175.141,377.384 c 0,-1.475 0,-2.947 0,-4.422"
       id="path59-7"
       style="fill:none;stroke:#000000;stroke-width:0;stroke-linecap:square;stroke-miterlimit:10" />
    <path
       d="m 178.096,372.962 c 1.621,-1.967 1.621,-3.934 0,-5.898"
       id="path61-9"
       style="fill:none;stroke:#000000;stroke-width:0;stroke-linecap:square;stroke-miterlimit:10" />
    <path
       d="m 181.051,370.013 c 1.121,-2.334 1.624,-4.811 1.477,-7.371"
       id="path63-0"
       style="fill:none;stroke:#000000;stroke-width:0;stroke-linecap:square;stroke-miterlimit:10" />
    <path
       d="m 188.438,330.21 c -1.402,-2.867 -3.393,-5.34 -5.91,-7.369"
       id="path65-1"
       style="fill:none;stroke:#000000;stroke-width:0;stroke-linecap:square;stroke-miterlimit:10" />
    <path
       d="m 185.482,322.841 c -1.375,-2.281 -3.343,-3.326 -5.91,-2.947"
       id="path67-3"
       style="fill:none;stroke:#000000;stroke-width:0;stroke-linecap:square;stroke-miterlimit:10" />
    <line
       y2="343.478"
       y1="342.00299"
       x2="96.841003"
       x1="98.319"
       style="fill:none;stroke:#000000;stroke-width:0;stroke-linecap:square;stroke-miterlimit:10"
       id="line69" />
    <path
       d="m 18.543,356.746 c -2.448,-4.424 -1.775,-9.754 0,-14.742"
       id="path71-21"
       style="fill:none;stroke:#000000;stroke-width:0;stroke-linecap:square;stroke-miterlimit:10" />
    <path
       d="m 20.02,355.271 c 0,-1.965 0,-3.93 0,-5.896"
       id="path73-0"
       style="fill:none;stroke:#000000;stroke-width:0;stroke-linecap:square;stroke-miterlimit:10" />
    <path
       d="m 24.451,355.271 c -1.905,-0.365 -2.048,-2.162 -1.477,-4.424"
       id="path75-48"
       style="fill:none;stroke:#000000;stroke-width:0;stroke-linecap:square;stroke-miterlimit:10" />
    <line
       y2="355.271"
       y1="353.79599"
       x2="85.022003"
       x1="86.500999"
       style="fill:none;stroke:#000000;stroke-width:0;stroke-linecap:square;stroke-miterlimit:10"
       id="line77" />
    <path
       d="m 86.501,358.22 c -1.637,1.988 -2.087,4.615 -1.479,7.371"
       id="path79-9"
       style="fill:none;stroke:#000000;stroke-width:0;stroke-linecap:square;stroke-miterlimit:10" />
    <path
       d="m 90.933,370.013 c -0.488,-3.135 -0.008,-6.121 1.477,-8.844"
       id="path81-0"
       style="fill:none;stroke:#000000;stroke-width:0;stroke-linecap:square;stroke-miterlimit:10" />
    <path
       d="m 102.751,364.117 c -1.949,2.529 -2.087,5.186 0,7.371"
       id="path83-2"
       style="fill:none;stroke:#000000;stroke-width:0;stroke-linecap:square;stroke-miterlimit:10" />
    <path
       d="m 117.525,365.591 c 0,-1.475 0,-2.949 0,-4.422"
       id="path85-3"
       style="fill:none;stroke:#000000;stroke-width:0;stroke-linecap:square;stroke-miterlimit:10" />
    <path
       d="m 120.48,362.642 c 0.273,-2.15 -0.223,-4.117 -1.479,-5.896"
       id="path87-0"
       style="fill:none;stroke:#000000;stroke-width:0;stroke-linecap:square;stroke-miterlimit:10" />
    <path
       d="m 123.434,361.169 c 0,-0.984 0,-1.967 0,-2.949"
       id="path89-9"
       style="fill:none;stroke:#000000;stroke-width:0;stroke-linecap:square;stroke-miterlimit:10" />
    <path
       d="m 64.34,333.16 c 0,-1.967 0,-3.932 0,-5.896"
       id="path91-7"
       style="fill:none;stroke:#000000;stroke-width:0;stroke-linecap:square;stroke-miterlimit:10" />
    <path
       d="m 67.293,328.738 c -1.255,-1.781 -1.751,-3.746 -1.477,-5.896"
       id="path93-4"
       style="fill:none;stroke:#000000;stroke-width:0;stroke-linecap:square;stroke-miterlimit:10" />
    <path
       d="m 93.886,336.109 c -1.121,-2.334 -1.623,-4.811 -1.477,-7.371"
       id="path95-5"
       style="fill:none;stroke:#000000;stroke-width:0;stroke-linecap:square;stroke-miterlimit:10" />
    <path
       d="M 98.319,337.582 C 95.784,332.117 94.69,325.887 95.364,319.894"
       id="path97-0"
       style="fill:none;stroke:#000000;stroke-width:0;stroke-linecap:square;stroke-miterlimit:10" />
    <path
       d="m 104.229,342.003 c -1.402,-4.447 -2.366,-8.771 -2.956,-13.266"
       id="path99-7"
       style="fill:none;stroke:#000000;stroke-width:0;stroke-linecap:square;stroke-miterlimit:10" />
    <line
       y2="336.10901"
       y1="343.478"
       x2="107.184"
       x1="107.184"
       style="fill:none;stroke:#000000;stroke-width:0;stroke-linecap:square;stroke-miterlimit:10"
       id="line101" />
    <line
       y2="339.056"
       y1="344.953"
       x2="110.139"
       x1="110.139"
       style="fill:none;stroke:#000000;stroke-width:0;stroke-linecap:square;stroke-miterlimit:10"
       id="line103" />
    <line
       y2="340.53101"
       y1="343.478"
       x2="113.094"
       x1="114.57"
       style="fill:none;stroke:#000000;stroke-width:0;stroke-linecap:square;stroke-miterlimit:10"
       id="line105" />
    <line
       y2="340.53101"
       y1="343.478"
       x2="119.002"
       x1="120.48"
       style="fill:none;stroke:#000000;stroke-width:0;stroke-linecap:square;stroke-miterlimit:10"
       id="line107" />
    <path
       d="m 155.936,337.582 c 0,-4.422 0,-8.844 0,-13.266"
       id="path109-76"
       style="fill:none;stroke:#000000;stroke-width:0;stroke-linecap:square;stroke-miterlimit:10" />
    <path
       d="m 160.367,333.16 c 0.742,-6.463 -0.215,-13.258 -2.955,-19.166"
       id="path111-8"
       style="fill:none;stroke:#000000;stroke-width:0;stroke-linecap:square;stroke-miterlimit:10" />
    <path
       d="m 164.799,324.316 c 0.49,-4.287 -0.502,-8.221 -2.955,-11.795"
       id="path113-8"
       style="fill:none;stroke:#000000;stroke-width:0;stroke-linecap:square;stroke-miterlimit:10" />
    <path
       d="m 172.186,296.306 c 0.746,11.049 -1.011,23.861 -5.908,33.904"
       id="path115-3"
       style="fill:none;stroke:#000000;stroke-width:0;stroke-linecap:square;stroke-miterlimit:10" />
    <path
       d="m 151.504,344.953 c -20.951,12.506 -65.873,2.303 -63.526,-26.537 -0.492,0.492 -0.984,0.986 -1.477,1.479 0.544,-4.674 0.337,-7.529 2.953,-11.795 -1.2,1.391 -2.962,2.354 -4.432,4.422 -0.667,-14.246 7.189,-26.979 14.773,-38.33"
       id="path117-4"
       style="fill:none;stroke:#000000;stroke-width:0;stroke-linecap:square;stroke-miterlimit:10" />
    <path
       d="m 85.022,312.521 c -1.873,-3.27 -3.353,-6.715 -4.432,-10.32"
       id="path119-3"
       style="fill:none;stroke:#000000;stroke-width:0;stroke-linecap:square;stroke-miterlimit:10" />
    <path
       d="m 24.451,316.943 c 1.474,-1.092 1.934,-2.596 1.479,-4.422"
       id="path121-82"
       style="fill:none;stroke:#000000;stroke-width:0;stroke-linecap:square;stroke-miterlimit:10" />
    <path
       d="m 21.496,315.468 c 0.591,-1.953 1.627,-4.006 2.955,-5.896"
       id="path123-05"
       style="fill:none;stroke:#000000;stroke-width:0;stroke-linecap:square;stroke-miterlimit:10" />
    <path
       d="m 20.02,309.572 c 1.356,-1.205 2.346,-2.695 2.955,-4.422"
       id="path125-1"
       style="fill:none;stroke:#000000;stroke-width:0;stroke-linecap:square;stroke-miterlimit:10" />
    <path
       d="m 18.543,308.099 c 1.231,-2.6 2.711,-5.061 4.432,-7.371"
       id="path127-0"
       style="fill:none;stroke:#000000;stroke-width:0;stroke-linecap:square;stroke-miterlimit:10" />
    <path
       d="m 17.064,303.677 c 0.951,-2.35 2.434,-4.318 4.432,-5.898"
       id="path129-6"
       style="fill:none;stroke:#000000;stroke-width:0;stroke-linecap:square;stroke-miterlimit:10" />
    <line
       y2="294.832"
       y1="296.306"
       x2="18.542999"
       x1="17.063999"
       style="fill:none;stroke:#000000;stroke-width:0;stroke-linecap:square;stroke-miterlimit:10"
       id="line131" />
    <path
       d="M 43.657,281.564 C 41.69,266.81 40.406,257.386 45.136,243.238"
       id="path133-6"
       style="fill:none;stroke:#000000;stroke-width:0;stroke-linecap:square;stroke-miterlimit:10" />
    <path
       d="M 40.701,259.453 C 35.186,246.764 23.029,238.615 18.543,225.545"
       id="path135-40"
       style="fill:none;stroke:#000000;stroke-width:0;stroke-linecap:square;stroke-miterlimit:10" />
    <path
       d="m 65.817,344.953 c 5.434,-17.619 10.012,-36.285 19.206,-52.332 6.32,-11.033 22.201,-29.141 20.685,-42.014 0.413,1.383 1.188,3.254 1.477,4.424 3.193,-7.586 0.841,-15.162 -2.955,-22.115 4.094,3.258 4.629,3.918 5.91,8.846 0.25,-5.271 -0.545,-7.197 -2.955,-11.793 1.617,1.396 2.829,1.531 4.432,2.947 3.103,-6.891 0.957,-14.869 -2.955,-20.637"
       id="path137-80"
       style="fill:none;stroke:#000000;stroke-width:0;stroke-linecap:square;stroke-miterlimit:10" />
    <line
       y2="288.935"
       y1="293.35699"
       x2="142.63901"
       x1="144.117"
       style="fill:none;stroke:#000000;stroke-width:0;stroke-linecap:square;stroke-miterlimit:10"
       id="line139" />
    <path
       d="m 147.072,290.408 c -0.986,-1.965 -1.972,-3.93 -2.955,-5.895"
       id="path141-8"
       style="fill:none;stroke:#000000;stroke-width:0;stroke-linecap:square;stroke-miterlimit:10" />
    <path
       d="m 150.025,285.986 c -0.984,-1.965 -1.969,-3.932 -2.953,-5.896"
       id="path143-7"
       style="fill:none;stroke:#000000;stroke-width:0;stroke-linecap:square;stroke-miterlimit:10" />
    <path
       d="m 152.98,283.039 c -0.984,-1.967 -1.969,-3.932 -2.955,-5.898"
       id="path145-22"
       style="fill:none;stroke:#000000;stroke-width:0;stroke-linecap:square;stroke-miterlimit:10" />
    <path
       d="m 155.936,281.564 c -0.702,-2.572 -1.688,-5.031 -2.955,-7.373"
       id="path147-14"
       style="fill:none;stroke:#000000;stroke-width:0;stroke-linecap:square;stroke-miterlimit:10" />
    <path
       d="m 166.277,280.089 c -1.564,-5.285 -4.12,-10.301 -7.387,-14.742"
       id="path149-20"
       style="fill:none;stroke:#000000;stroke-width:0;stroke-linecap:square;stroke-miterlimit:10" />
    <path
       d="m 166.277,272.718 c -2.781,-5.711 -5.633,-11.947 -11.818,-14.742"
       id="path151-8"
       style="fill:none;stroke:#000000;stroke-width:0;stroke-linecap:square;stroke-miterlimit:10" />
    <path
       d="m 166.277,272.718 c 0.572,-3.426 -0.433,-6.51 -2.955,-8.844"
       id="path153-7"
       style="fill:none;stroke:#000000;stroke-width:0;stroke-linecap:square;stroke-miterlimit:10" />
    <path
       d="m 12.632,243.238 c -0.275,-2.152 0.221,-4.119 1.477,-5.9"
       id="path155-2"
       style="fill:none;stroke:#000000;stroke-width:0;stroke-linecap:square;stroke-miterlimit:10" />
    <path
       d="m 14.109,247.66 c 0.986,-2.949 1.972,-5.898 2.955,-8.848"
       id="path157-7"
       style="fill:none;stroke:#000000;stroke-width:0;stroke-linecap:square;stroke-miterlimit:10" />
    <path
       d="m 18.543,252.082 c 1.472,-1.092 1.932,-2.598 1.477,-4.422"
       id="path159-68"
       style="fill:none;stroke:#000000;stroke-width:0;stroke-linecap:square;stroke-miterlimit:10" />
    <path
       d="m 21.496,255.031 c 0.514,-2.279 1.45,-3.928 2.955,-4.424"
       id="path161-6"
       style="fill:none;stroke:#000000;stroke-width:0;stroke-linecap:square;stroke-miterlimit:10" />
    <path
       d="m 45.135,283.039 c 0,-1.967 0,-3.932 0,-5.898"
       id="path163-4"
       style="fill:none;stroke:#000000;stroke-width:0;stroke-linecap:square;stroke-miterlimit:10" />
    <path
       d="m 48.088,283.039 c 0,-1.475 0,-2.949 0,-4.424"
       id="path165-1"
       style="fill:none;stroke:#000000;stroke-width:0;stroke-linecap:square;stroke-miterlimit:10" />
    <path
       d="m 86.501,260.925 c 0.456,-1.826 -0.004,-3.332 -1.479,-4.422"
       id="path167-0"
       style="fill:none;stroke:#000000;stroke-width:0;stroke-linecap:square;stroke-miterlimit:10" />
    <path
       d="m 90.933,262.4 c -0.275,-4.678 -1.82,-9.262 -4.432,-13.268"
       id="path169-7"
       style="fill:none;stroke:#000000;stroke-width:0;stroke-linecap:square;stroke-miterlimit:10" />
    <path
       d="m 92.409,257.976 c -1.121,-2.332 -1.623,-4.809 -1.477,-7.369"
       id="path171-2"
       style="fill:none;stroke:#000000;stroke-width:0;stroke-linecap:square;stroke-miterlimit:10" />
    <path
       d="m 93.886,249.132 c -0.608,-1.727 -1.598,-3.215 -2.953,-4.422"
       id="path173-4"
       style="fill:none;stroke:#000000;stroke-width:0;stroke-linecap:square;stroke-miterlimit:10" />
    <path
       d="m 98.319,252.082 c -1.676,-4.432 -4.168,-8.428 -7.387,-11.795"
       id="path175-7"
       style="fill:none;stroke:#000000;stroke-width:0;stroke-linecap:square;stroke-miterlimit:10" />
    <line
       y2="240.287"
       y1="243.23801"
       x2="95.363998"
       x1="96.841003"
       style="fill:none;stroke:#000000;stroke-width:0;stroke-linecap:square;stroke-miterlimit:10"
       id="line177" />
    <path
       d="m 138.207,252.082 c 0.275,-2.15 -0.221,-4.117 -1.477,-5.896"
       id="path179-7"
       style="fill:none;stroke:#000000;stroke-width:0;stroke-linecap:square;stroke-miterlimit:10" />
    <line
       y2="243.23801"
       y1="246.185"
       x2="138.207"
       x1="139.686"
       style="fill:none;stroke:#000000;stroke-width:0;stroke-linecap:square;stroke-miterlimit:10"
       id="line181" />
    <line
       y2="241.761"
       y1="244.71001"
       x2="142.63901"
       x1="142.63901"
       style="fill:none;stroke:#000000;stroke-width:0;stroke-linecap:square;stroke-miterlimit:10"
       id="line183" />
    <path
       d="m 147.072,250.607 c 0.274,-2.15 -0.223,-4.117 -1.479,-5.896"
       id="path185-5"
       style="fill:none;stroke:#000000;stroke-width:0;stroke-linecap:square;stroke-miterlimit:10" />
    <path
       d="m 148.549,250.607 c 0.676,-4.311 -0.334,-8.496 -2.955,-11.795"
       id="path187-9"
       style="fill:none;stroke:#000000;stroke-width:0;stroke-linecap:square;stroke-miterlimit:10" />
    <path
       d="m 152.98,249.132 c 0.479,-5.639 -1.633,-11.053 -5.908,-14.742"
       id="path189-6"
       style="fill:none;stroke:#000000;stroke-width:0;stroke-linecap:square;stroke-miterlimit:10" />
    <path
       d="m 157.412,247.66 c -1.758,-2.627 -2.743,-5.59 -2.953,-8.848"
       id="path191-3"
       style="fill:none;stroke:#000000;stroke-width:0;stroke-linecap:square;stroke-miterlimit:10" />
    <path
       d="m 160.367,246.185 c -0.984,-1.967 -1.97,-3.932 -2.955,-5.898"
       id="path193-56"
       style="fill:none;stroke:#000000;stroke-width:0;stroke-linecap:square;stroke-miterlimit:10" />
    <path
       d="m 161.844,241.761 c -0.977,-1.313 -1.498,-2.83 -1.477,-4.424"
       id="path195-2"
       style="fill:none;stroke:#000000;stroke-width:0;stroke-linecap:square;stroke-miterlimit:10" />
    <line
       y2="212.27901"
       y1="216.701"
       x2="11.156"
       x1="11.156"
       style="fill:none;stroke:#000000;stroke-width:0;stroke-linecap:square;stroke-miterlimit:10"
       id="line197" />
    <path
       d="m 14.109,224.072 c -1.122,-2.332 -1.624,-4.811 -1.477,-7.371"
       id="path199-76"
       style="fill:none;stroke:#000000;stroke-width:0;stroke-linecap:square;stroke-miterlimit:10" />
    <path
       d="m 39.225,244.71 c -0.077,-3.283 0.979,-6.451 2.955,-8.846"
       id="path201-9"
       style="fill:none;stroke:#000000;stroke-width:0;stroke-linecap:square;stroke-miterlimit:10" />
    <path
       d="m 40.701,249.132 c 0.875,-7.383 4.716,-14.463 8.866,-20.639"
       id="path203-9"
       style="fill:none;stroke:#000000;stroke-width:0;stroke-linecap:square;stroke-miterlimit:10" />
    <path
       d="m 51.043,221.123 c -0.571,-3.426 0.433,-6.512 2.955,-8.844"
       id="path205-9"
       style="fill:none;stroke:#000000;stroke-width:0;stroke-linecap:square;stroke-miterlimit:10" />
    <path
       d="m 52.522,219.65 c 1.003,-2.996 2.483,-5.979 4.432,-8.844"
       id="path207-2"
       style="fill:none;stroke:#000000;stroke-width:0;stroke-linecap:square;stroke-miterlimit:10" />
    <path
       d="m 96.841,222.597 c -1.822,-3.613 -3.743,-6.967 -5.908,-10.318"
       id="path209-4"
       style="fill:none;stroke:#000000;stroke-width:0;stroke-linecap:square;stroke-miterlimit:10" />
    <path
       d="m 99.796,219.65 c -1.798,-4.643 -4.962,-8.701 -8.863,-11.793"
       id="path211-1"
       style="fill:none;stroke:#000000;stroke-width:0;stroke-linecap:square;stroke-miterlimit:10" />
    <path
       d="m 99.796,216.701 c -0.099,-2.76 -1.079,-5.113 -2.955,-7.372"
       id="path213-24"
       style="fill:none;stroke:#000000;stroke-width:0;stroke-linecap:square;stroke-miterlimit:10" />
    <path
       d="m 101.272,212.279 c -0.607,-1.727 -1.597,-3.216 -2.953,-4.422"
       id="path215-06"
       style="fill:none;stroke:#000000;stroke-width:0;stroke-linecap:square;stroke-miterlimit:10" />
    <path
       d="m 114.57,215.228 c -1.261,-5.008 -3.656,-9.744 -7.387,-13.269"
       id="path217-2"
       style="fill:none;stroke:#000000;stroke-width:0;stroke-linecap:square;stroke-miterlimit:10" />
    <path
       d="m 113.094,203.434 c -0.609,-1.727 -1.6,-3.216 -2.955,-4.422"
       id="path219-6"
       style="fill:none;stroke:#000000;stroke-width:0;stroke-linecap:square;stroke-miterlimit:10" />
    <path
       d="m 117.525,209.329 c -1.281,-6.875 -3.592,-14.359 -8.865,-19.163"
       id="path221-4"
       style="fill:none;stroke:#000000;stroke-width:0;stroke-linecap:square;stroke-miterlimit:10" />
    <path
       d="m 5.246,173.95 c 0.109,-3.686 1.174,-7.422 2.955,-10.319"
       id="path223"
       style="fill:none;stroke:#000000;stroke-width:0;stroke-linecap:square;stroke-miterlimit:10" />
    <path
       d="m 6.722,172.476 c 0.986,-1.964 1.971,-3.93 2.955,-5.895"
       id="path225-0"
       style="fill:none;stroke:#000000;stroke-width:0;stroke-linecap:square;stroke-miterlimit:10" />
    <line
       y2="169.528"
       y1="173.95"
       x2="12.632"
       x1="11.156"
       style="fill:none;stroke:#000000;stroke-width:0;stroke-linecap:square;stroke-miterlimit:10"
       id="line227" />
    <line
       y2="172.476"
       y1="176.897"
       x2="15.588"
       x1="15.588"
       style="fill:none;stroke:#000000;stroke-width:0;stroke-linecap:square;stroke-miterlimit:10"
       id="line229" />
    <line
       y2="173.95"
       y1="178.37399"
       x2="17.063999"
       x1="17.063999"
       style="fill:none;stroke:#000000;stroke-width:0;stroke-linecap:square;stroke-miterlimit:10"
       id="line231" />
    <line
       y2="175.425"
       y1="178.37399"
       x2="21.496"
       x1="21.496"
       style="fill:none;stroke:#000000;stroke-width:0;stroke-linecap:square;stroke-miterlimit:10"
       id="line233" />
    <line
       y2="188.69099"
       y1="191.64101"
       x2="39.224998"
       x1="39.224998"
       style="fill:none;stroke:#000000;stroke-width:0;stroke-linecap:square;stroke-miterlimit:10"
       id="line235" />
    <path
       d="m 43.657,191.641 c -2.066,-1.877 -2.066,-4.02 0,-5.897"
       id="path237-0"
       style="fill:none;stroke:#000000;stroke-width:0;stroke-linecap:square;stroke-miterlimit:10" />
    <path
       d="m 46.612,191.641 c 0,-2.457 0,-4.915 0,-7.372"
       id="path239-8"
       style="fill:none;stroke:#000000;stroke-width:0;stroke-linecap:square;stroke-miterlimit:10" />
    <line
       y2="185.744"
       y1="188.69099"
       x2="49.567001"
       x1="49.567001"
       style="fill:none;stroke:#000000;stroke-width:0;stroke-linecap:square;stroke-miterlimit:10"
       id="line241" />
    <line
       y2="184.269"
       y1="187.218"
       x2="52.521999"
       x1="52.521999"
       style="fill:none;stroke:#000000;stroke-width:0;stroke-linecap:square;stroke-miterlimit:10"
       id="line243" />
    <path
       d="m 121.957,166.581 c 0.021,-1.593 -0.501,-3.109 -1.477,-4.422"
       id="path245-0"
       style="fill:none;stroke:#000000;stroke-width:0;stroke-linecap:square;stroke-miterlimit:10" />
    <path
       d="m 124.912,166.581 c -2.212,-5.467 -4.421,-11.082 -7.387,-16.215"
       id="path247-9"
       style="fill:none;stroke:#000000;stroke-width:0;stroke-linecap:square;stroke-miterlimit:10" />
    <path
       d="m 129.344,129.727 c 7.756,-0.608 15.434,0.221 22.16,4.422"
       id="path249-2"
       style="fill:none;stroke:#000000;stroke-width:0.345;stroke-linecap:square;stroke-miterlimit:9.4285717;stroke-opacity:1;stroke-dasharray:none" />
    <path
       d="m 129.344,128.25 c 8.275,-2.195 19.109,-3.231 26.592,1.477"
       id="path251"
       style="fill:none;stroke:#000000;stroke-width:0.345;stroke-linecap:square;stroke-miterlimit:9.4285717;stroke-opacity:1;stroke-dasharray:none" />
    <path
       d="m 173.664,128.25 c -10.928,-9.895 -29.786,-2.113 -42.844,-2.947"
       id="path253-7"
       style="fill:none;stroke:#000000;stroke-width:0.345;stroke-linecap:square;stroke-miterlimit:9.4285717;stroke-opacity:1;stroke-dasharray:none" />
    <path
       d="m 130.82,123.829 c 6.098,-0.61 11.705,-2.459 17.729,-2.948"
       id="path255"
       style="fill:none;stroke:#000000;stroke-width:0.345;stroke-linecap:square;stroke-miterlimit:9.4285717;stroke-opacity:1;stroke-dasharray:none" />
    <path
       d="m 130.82,120.881 c 9.086,-3.551 20.25,-6.594 29.547,-2.947"
       id="path257-8"
       style="fill:none;stroke:#000000;stroke-width:0.345;stroke-linecap:square;stroke-miterlimit:9.4285717;stroke-opacity:1;stroke-dasharray:none" />
    <path
       d="m 87.978,128.25 c -12.976,2.879 -30.034,4.915 -38.411,16.216"
       id="path259"
       style="fill:none;stroke:#000000;stroke-width:0.345;stroke-linecap:square;stroke-miterlimit:9.4285717;stroke-opacity:1;stroke-dasharray:none" />
    <path
       d="m 89.454,126.778 c -15.08,0 -29.304,-0.424 -42.842,7.372"
       id="path261-9"
       style="fill:none;stroke:#000000;stroke-width:0.345;stroke-linecap:square;stroke-miterlimit:9.4285717;stroke-opacity:1;stroke-dasharray:none" />
    <path
       d="m 28.883,135.622 c 14.91,-17.813 36.752,-10.49 56.14,-11.793"
       id="path263"
       style="fill:none;stroke:#000000;stroke-width:0.345;stroke-linecap:square;stroke-miterlimit:9.4285717;stroke-opacity:1;stroke-dasharray:none" />
    <path
       d="M 89.454,123.829 C 81.674,121.89 73.888,119.1 65.817,119.407"
       id="path265-2"
       style="fill:none;stroke:#000000;stroke-width:0.345;stroke-linecap:square;stroke-miterlimit:9.4285717;stroke-opacity:1;stroke-dasharray:none" />
    <path
       d="m 83.546,120.881 c -10.7,-6.952 -22.891,-11.658 -35.458,-7.369"
       id="path267-7"
       style="fill:none;stroke:#000000;stroke-width:0.345;stroke-linecap:square;stroke-miterlimit:9.4285717;stroke-opacity:1;stroke-dasharray:none" />
    <path
       d="m 14.109,131.2 c -0.021,-1.593 0.502,-3.11 1.479,-4.422"
       id="path269-7"
       style="fill:none;stroke:#000000;stroke-width:0.345;stroke-linecap:square;stroke-miterlimit:9.4285717;stroke-opacity:1;stroke-dasharray:none" />
    <path
       d="m 11.156,126.778 c 1.675,-1.092 2.749,-2.623 2.954,-4.422"
       id="path271-6"
       style="fill:none;stroke:#000000;stroke-width:0.345;stroke-linecap:square;stroke-miterlimit:9.4285717;stroke-opacity:1;stroke-dasharray:none" />
    <path
       d="m 11.156,123.829 c 1.079,-3.604 2.559,-7.048 4.432,-10.317"
       id="path273-4"
       style="fill:none;stroke:#000000;stroke-width:0.345;stroke-linecap:square;stroke-miterlimit:9.4285717;stroke-opacity:1;stroke-dasharray:none" />
    <path
       d="m 12.632,114.984 c 0.16,-4.586 2.292,-8.788 5.911,-11.793"
       id="path275-38"
       style="fill:none;stroke:#000000;stroke-width:0.345;stroke-linecap:square;stroke-miterlimit:9.4285717;stroke-opacity:1;stroke-dasharray:none" />
    <path
       d="m 71.727,113.512 c 10.924,11.211 20.579,35.654 41.367,22.11"
       id="path277-1"
       style="fill:none;stroke:#000000;stroke-width:0.345;stroke-linecap:square;stroke-miterlimit:9.4285717;stroke-opacity:1;stroke-dasharray:none" />
    <line
       y2="137.097"
       y1="137.097"
       x2="114.57"
       x1="110.139"
       style="fill:none;stroke:#000000;stroke-width:0;stroke-linecap:square;stroke-miterlimit:10"
       id="line279" />
    <path
       d="m 108.66,123.829 c -3.728,6.675 7.463,12.461 13.297,7.372 6.559,-5.722 1.674,-19.946 3.693,-28.01 7.114,-28.423 19.072,1.945 0.738,-1.473"
       id="path281-2"
       style="fill:none;stroke:#000000;stroke-width:0.345;stroke-linecap:square;stroke-miterlimit:9.4285717;stroke-opacity:1;stroke-dasharray:none" />
    <path
       d="m 132.299,91.397 c -0.572,3.636 0.668,5.864 -2.955,7.371 -0.332,-2.597 1.055,-3.608 1.477,-5.896"
       id="path283-9"
       style="fill:none;stroke:#000000;stroke-width:0.345;stroke-linecap:square;stroke-miterlimit:9.4285717;stroke-opacity:1;stroke-dasharray:none" />
    <path
       d="m 99.796,94.347 c -4.093,7.455 -14.097,7.911 -16.989,-0.738 -3.76,-11.245 13.167,-3.638 16.989,0.738"
       id="path285-2"
       style="fill:none;stroke:#000000;stroke-width:0.345;stroke-linecap:square;stroke-miterlimit:9.4285717;stroke-opacity:1;stroke-dasharray:none" />
    <path
       d="m 93.886,88.45 c -1.294,3.359 -2.283,5.94 -4.432,7.37 0.158,-2.717 0.873,-4.801 1.479,-7.37"
       id="path287-1"
       style="fill:none;stroke:#000000;stroke-width:0.345;stroke-linecap:square;stroke-miterlimit:9.4285717;stroke-opacity:1;stroke-dasharray:none" />
    <path
       d="m 30.361,75.182 c 1.998,-1.579 3.48,-3.547 4.432,-5.895"
       id="path289-2"
       style="fill:none;stroke:#000000;stroke-width:0;stroke-linecap:square;stroke-miterlimit:10" />
    <path
       d="m 31.838,78.131 c 2.573,-3.52 5.266,-6.204 8.863,-8.844"
       id="path291-6"
       style="fill:none;stroke:#000000;stroke-width:0;stroke-linecap:square;stroke-miterlimit:10" />
    <path
       d="m 31.838,81.078 c 1.876,-3.13 4.186,-5.464 7.387,-7.369"
       id="path293-4"
       style="fill:none;stroke:#000000;stroke-width:0;stroke-linecap:square;stroke-miterlimit:10" />
    <path
       d="m 34.793,84.026 c 1.317,-0.974 2.836,-1.494 4.432,-1.473"
       id="path295-6"
       style="fill:none;stroke:#000000;stroke-width:0;stroke-linecap:square;stroke-miterlimit:10" />
    <path
       d="m 43.657,50.122 c 0,-2.457 0,-4.915 0,-7.372"
       id="path297-3"
       style="fill:none;stroke:#000000;stroke-width:0;stroke-linecap:square;stroke-miterlimit:10" />
    <path
       d="m 45.135,48.647 c 0,-0.982 0,-1.965 0,-2.947"
       id="path299-4"
       style="fill:none;stroke:#000000;stroke-width:0;stroke-linecap:square;stroke-miterlimit:10" />
    <path
       d="M 53.999,41.277 C 40.29,45.336 62.19,9.723 70.249,5.897 c 4.9,8.672 24.218,27.357 2.955,32.431 0.203,0.533 1.475,-2.851 1.477,-2.949 -1.456,1.493 -3.02,2.891 -4.432,4.424 0.493,-1.475 0.986,-2.949 1.479,-4.424 -1.467,1.167 -2.548,2.311 -4.434,2.949 0.934,-1.669 2.095,-2.032 1.479,-4.422 -4.364,1.916 -5.541,2.343 -10.342,2.949 0.493,0.982 0.986,1.965 1.479,2.947 -2.781,-1.055 -4.525,-0.897 -7.387,-1.475 6.378,2.739 1.734,1.923 1.476,2.95"
       id="path301-3"
       style="fill:none;stroke:#000000;stroke-width:0;stroke-linecap:square;stroke-miterlimit:10" />
    <path
       d="m 142.639,44.225 c -4.722,7.363 -11.547,4.873 -11.818,-2.948 -0.156,-4.486 15.666,-20.454 19.205,-23.587 0,0.983 0,1.966 0,2.949 2.293,-3.612 5.248,-6.561 8.865,-8.846 0.143,4.973 -3.293,9.53 -5.91,13.269"
       id="path303-5"
       style="fill:none;stroke:#000000;stroke-width:0;stroke-linecap:square;stroke-miterlimit:10" />
  </g>
</svg>
