<?xml version="1.0" encoding="UTF-8" standalone="no"?>
<!-- Created with Inkscape (http://www.inkscape.org/) -->

<svg
   xmlns:dc="http://purl.org/dc/elements/1.1/"
   xmlns:cc="http://creativecommons.org/ns#"
   xmlns:rdf="http://www.w3.org/1999/02/22-rdf-syntax-ns#"
   xmlns:svg="http://www.w3.org/2000/svg"
   xmlns="http://www.w3.org/2000/svg"
   version="1.1"
   width="560"
   height="560"
   id="pet_raven">
  <path
     d="m 135.91663,478.13462 c -0.10968,0 -0.21946,0.01 -0.32943,0.018 -2.05945,0.1565 -4.01256,1.0898 -5.85682,2.0195 -1.06031,0.5344 -2.00988,1.3491 -2.72099,2.2999 -1.31549,1.7592 -1.51549,4.4031 -3.27616,5.7165 -2.86448,2.137 -6.58567,2.7853 -9.90169,4.1181 -3.14602,1.2645 -5.54187,2.3663 -9.96877,3.5568 -2.97624,0.8004 -5.762986,2.1839 -8.644902,3.2762 1.71985,-0.2324 3.435366,-0.4692 5.155222,-0.7016 -1.441016,0.6507 -2.875892,1.3073 -4.319402,1.9523 -1.83354,0.8191 -3.64452,1.6944 -5.50907,2.4403 -1.50822,0.6033 -3.05607,1.0997 -4.60005,1.6045 -0.87392,0.2857 -1.81951,0.2202 -2.70267,0.4759 0.95289,-0.093 1.95721,0.1052 2.9101,0.012 -0.58104,0.279 -1.16381,0.557 -1.74485,0.8359 l 1.74485,0.4209 c -1.37124,0.4417 -2.75187,0.8491 -4.11198,1.3239 -1.10436,0.3855 -2.18379,0.8384 -3.27616,1.2568 l 2.30003,0.5552 c -0.37187,0.5811 -1.09734,1.0553 -1.11644,1.7449 -0.012,0.4321 0.6123,0.7342 1.04323,0.7686 1.39486,0.1117 2.81217,-0.077 4.18518,-0.3477 2.89265,-0.569 5.66631,-1.7026 8.5778,-2.1658 1.21843,-0.1939 2.47443,0.01 3.69103,0.2135 0.869656,0.1466 1.660866,0.6104 2.513536,0.8359 1.961986,0.5188 3.948416,0.9261 5.923926,1.391 l -1.18357,0.8357 c 0.32538,0.069 0.65075,0.1438 0.97614,0.2135 -0.55779,0.2093 -1.11385,0.4193 -1.67164,0.6285 l 2.8552,0.2074 c -0.5113,0.2324 -1.02004,0.4631 -1.5313,0.6955 0.83664,0.1162 1.66437,0.295 2.50744,0.3477 1.76351,0.1103 3.53531,0.094 5.30165,0.1404 -0.32541,1.2318 -1.20557,3.0779 -0.6833,4.2401 0.49853,1.1094 0.46275,1.5171 0.96392,2.2451 0.16375,0.2377 0.48471,0.381 0.81142,0.4087 l 1.60451,2.9101 1.33001,2.8064 c -1.85614,-0.2861 -2.28295,-0.5944 -3.79475,0.299 l 1.43371,-0.049 c 0.37509,0.9259 1.75855,0.3822 2.56236,0.8846 0,0 0.91802,0.3563 1.18356,0.7382 0.60749,2.1378 1.99659,1.9315 2.70878,3.9961 0.52297,0.4965 0.99164,0.4614 1.67772,0.4941 l 0.44537,0.5918 -0.44537,-1.2324 -1.13473,-1.9217 c 0.87879,-0.051 1.45136,-0.036 2.45863,0.3111 0.79391,0.2736 1.99018,0.8656 2.91621,1.0188 l 0.54297,0.7383 -0.29894,-1.1836 -2.0682,-1.33 c 0,0 -1.38074,-0.3477 -1.18354,-0.3477 0.70555,-0.036 1.22821,-0.3007 2.01937,-0.2685 0.94876,0.039 2.15355,0.3568 2.76369,-0.025 l 0.64058,0.1464 c 0,0 -1.19559,-0.5857 -1.72655,-0.7382 -1.07447,-0.3088 -1.33092,-0.1459 -3.05651,-0.1952 -1.72558,-0.05 -2.32151,0.5374 -3.34936,0.098 -2.42454,-2.0449 -4.55567,-5.5288 -5.89344,-8.5473 0.002,-0.01 0.003,-0.01 0.006,-0.012 0.67387,-0.1156 1.35728,-0.1478 2.03769,-0.2196 0.32849,-0.035 0.65807,-0.103 0.98834,-0.098 1.49196,0.025 2.94453,0.656 4.4353,0.5917 0.30277,-0.013 0.58823,-0.1771 0.89075,-0.1952 0.32972,-0.02 0.98223,0.098 0.98223,0.098 0,0 -1.04978,-0.5754 -1.62283,-0.7381 -0.74903,-0.2129 -1.97099,0.3979 -2.31833,-0.299 -0.0591,-0.1186 0.084,-0.2697 0.19523,-0.3417 0.56834,-0.3679 1.34247,-0.1909 2.01938,-0.2013 0.49408,-0.01 0.99901,-0.01 1.48251,0.098 0.18823,0.04 0.54303,0.2013 0.54297,0.2013 0,0 -0.62648,-0.8221 -1.08593,-0.9883 -1.06737,-0.3862 -2.39768,0.6708 -3.4043,0.1464 -0.19001,-0.099 -0.38587,-0.3272 -0.34164,-0.5368 0.0979,-0.4638 0.74451,-0.6144 1.18358,-0.7932 0.24774,-0.1008 0.787,-0.1464 0.787,-0.1464 0,0 -0.53437,-0.368 -0.83581,-0.3477 -0.71997,0.049 -1.15935,0.9788 -1.87297,1.0859 -0.21684,0.032 -0.46718,-0.021 -0.64669,-0.1464 -0.54488,-0.3821 -0.76984,-1.0888 -1.07986,-1.6777 -0.16649,-0.3164 -0.35357,-0.7497 -0.53687,-1.1897 0.47788,-0.3023 1.04128,-0.5133 1.48251,-0.8663 0.86066,-0.6885 1.4413,-1.7673 2.44035,-2.2329 1.47159,-0.6859 3.24861,-0.4695 4.74035,-1.1104 1.84952,-0.7944 3.53341,-1.958 5.16134,-3.1419 1.45165,-1.0558 3.13425,-2.0099 4.04485,-3.5568 1.10128,-1.8709 1.10032,-4.1968 1.73876,-6.2717 0.57058,-1.8545 1.41834,-3.6257 1.88515,-5.5091 0.21278,-0.8584 -0.19224,-1.8282 0.14033,-2.6477 0.35354,-0.8713 1.04675,-1.6193 1.81194,-2.1658 0.9064,-0.6475 1.96756,-1.1562 3.06874,-1.3239 2.46014,-0.3747 4.97285,-0.2949 7.46133,-0.2746 0.36745,0 0.69466,0.2316 1.04323,0.3478 -0.38034,-3.1159 -6.83283,-4.533 -10.38974,-6.1374 -0.48148,-0.2216 -0.74844,-0.8069 -1.25068,-0.9761 -1.56775,-0.5284 -3.18605,-1.227 -4.83188,-1.202 z m 3.36158,4.5452 c 0.49896,0 0.90293,0.4038 0.90293,0.9029 0,0.4989 -0.40397,0.909 -0.90293,0.909 -0.49896,0 -0.90902,-0.4101 -0.90902,-0.909 0,-0.4991 0.41006,-0.9029 0.90902,-0.9029 z m 0,0.2317 c -0.37235,0 -0.6711,0.2988 -0.6711,0.6712 0,0.3722 0.29875,0.6711 0.6711,0.6711 0.37235,0 0.67109,-0.2988 0.67109,-0.6711 0,-0.3724 -0.29874,-0.6712 -0.67109,-0.6712 z m 0.12201,0.2258 c 0.13616,0 0.24404,0.114 0.24404,0.2501 0,0.1361 -0.10788,0.244 -0.24404,0.244 -0.13614,0 -0.24402,-0.1079 -0.24402,-0.244 0,-0.1361 0.10788,-0.2501 0.24402,-0.2501 z m -22.82327,32.8836 c 0.29241,0.7 0.62301,1.5403 0.73819,2.1963 0.071,0.4046 0.22914,0.8913 0,1.2324 -0.26917,0.4005 -0.77466,0.4963 -1.28729,0.5918 0.0649,-0.1579 0.12389,-0.3197 0.17694,-0.4759 0.17952,-0.5286 -0.15357,-1.1192 -0.0732,-1.6717 0.0914,-0.6287 0.15245,-1.3154 0.44537,-1.8729 z"
     id="path3279-9"
     style="fill:#000000;stroke:none;display:inline;enable-background:new" />
</svg>
