<?xml version="1.0" encoding="UTF-8" standalone="no"?>
<!-- Created with Inkscape (http://www.inkscape.org/) -->

<svg
   xmlns:dc="http://purl.org/dc/elements/1.1/"
   xmlns:cc="http://creativecommons.org/ns#"
   xmlns:rdf="http://www.w3.org/1999/02/22-rdf-syntax-ns#"
   xmlns:svg="http://www.w3.org/2000/svg"
   xmlns="http://www.w3.org/2000/svg"
   version="1.1"
   width="560"
   height="560"
   id="pet_doge">
  <metadata
     id="metadata35714">
    <rdf:RDF>
      <cc:Work
         rdf:about="">
        <dc:format>image/svg+xml</dc:format>
        <dc:type
           rdf:resource="http://purl.org/dc/dcmitype/StillImage" />
        <dc:title></dc:title>
      </cc:Work>
    </rdf:RDF>
  </metadata>
  <defs
     id="defs35712" />
  <g
     transform="translate(0,-0.99999584)"
     id="g35416"
     style="display:inline;enable-background:new">
    <path
       d="m 456.08553,464.15541 c 2.19174,0.60881 4.13996,0.36529 4.74877,1.3394 0.60882,0.9741 1.3394,1.70468 1.3394,1.70468 l -1.21763,0.36529 1.94821,0.48706 c 0.73058,2.55703 3.89643,8.76696 8.76697,14.61161 4.87053,5.84464 9.01049,7.91462 10.10636,11.44576 1.09587,3.53113 1.21763,8.52343 0.24352,10.9587 -0.9741,2.43527 -1.46115,4.13995 -2.3135,4.50525 -0.85234,0.36529 -6.20993,1.21763 -7.18404,1.82645 -0.97411,0.60881 -0.60882,1.70468 0.24353,2.3135 -0.73059,0.97411 -0.24353,3.53114 4.01819,2.80056 1.58292,1.46116 5.47935,0.48705 7.54933,-0.24353 3.04409,0.60882 3.89643,-5.9664 4.13996,-7.18404 0.24352,-1.21763 1.82645,-6.20993 2.67879,-7.91462 0.85235,-1.70469 1.3394,-24.83973 1.09587,-32.87612 -25.19135,-15.85724 -32.04972,-11.5108 -36.16373,-4.13995 z"
       id="path4802-5"
       style="color:#000000;fill:#decd87;stroke:#c8ab37;stroke-width:1;stroke-linecap:butt;stroke-linejoin:miter;stroke-miterlimit:4;stroke-opacity:1;stroke-dasharray:none;stroke-dashoffset:0;marker:none;visibility:visible;display:inline;overflow:visible;enable-background:accumulate" />
    <path
       d="m 456.08553,464.15541 c 2.19174,0.60881 4.13996,0.36529 4.74877,1.3394 0.60882,0.9741 1.3394,1.70468 1.3394,1.70468 l -1.21763,0.36529 1.94821,0.48706 c 0.73058,2.55703 3.89643,8.76696 8.76697,14.61161 4.87053,5.84464 9.01049,7.91462 10.10636,11.44576 1.09587,3.53113 1.21763,8.52343 0.24352,10.9587 -0.9741,2.43527 -1.46115,4.13995 -2.3135,4.50524 -0.85234,0.36529 -6.20993,1.21764 -7.18404,1.82646 -0.97411,0.60881 -0.60882,1.70468 0.24353,2.3135 -0.73059,0.97411 -0.24353,3.53114 4.01819,2.80056 1.58292,1.46116 5.47935,0.48705 7.54933,-0.24353 3.04409,0.60882 3.89643,-5.9664 4.13996,-7.18404 0.24352,-1.21763 1.82645,-6.20993 2.67879,-7.91462 0.85235,-1.70469 1.3394,-24.83973 1.09587,-32.87612 -25.19135,-15.85724 -32.04972,-11.5108 -36.16373,-4.13995 z"
       id="path4802-5-8"
       style="color:#000000;fill:#d3bc5f;fill-opacity:1;stroke:none;marker:none;visibility:visible;display:inline;overflow:visible;enable-background:accumulate" />
    <path
       d="m 378.64401,465.61657 c 0.73058,2.43527 0.36529,9.61931 0.97411,12.54163 0.60881,2.92232 2.80056,5.84464 3.16585,11.93281 0.36529,6.08817 2.55703,12.78516 1.58292,19.11685 -0.97411,6.3317 -1.58292,7.6711 -2.80056,7.79286 -1.21763,0.12177 -2.43527,0 -2.92232,1.21764 -0.48706,1.21763 -0.48706,1.33939 -1.3394,1.82645 -0.85234,0.48705 -1.33939,2.43527 -0.48705,3.53114 0.85234,1.09587 2.92232,0.36529 4.01819,0 1.70469,1.70469 6.20994,1.3394 7.3058,0.60882 1.82646,0.24352 2.55704,-0.85235 2.55704,-3.16585 0.36529,-0.60882 0.48705,-0.24353 0.73057,0.12176 0.24353,-0.48705 0,-1.82645 -0.48705,-2.3135 0.60882,0.12176 0.73058,0.12176 0.97411,0.73057 0.12176,-1.21763 0.12176,-3.04408 -0.24353,-3.77466 0.97411,0.36529 1.09587,0.36529 1.3394,0.85234 -0.24353,-1.70468 -0.36529,-9.98459 0.24353,-10.71518 0.60882,-0.73058 1.46116,-1.70468 0.73058,-3.77466 -0.73058,-2.06998 -0.24353,-8.15815 0.12176,-10.22813 0.36529,-2.06997 0.36529,-10.71518 0.97411,-13.75926 0.60881,-3.04409 0.85234,-4.01819 1.82645,-4.62701 -3.5293,-4.7706 -3.77248,-12.27963 -18.26451,-7.91462 z"
       id="path4788-10"
       style="color:#000000;fill:#decd87;stroke:#c8ab37;stroke-width:1;stroke-linecap:butt;stroke-linejoin:miter;stroke-miterlimit:4;stroke-opacity:1;stroke-dasharray:none;stroke-dashoffset:0;marker:none;visibility:visible;display:inline;overflow:visible;enable-background:accumulate" />
    <path
       d="m 382.23975,467.27308 c -0.69056,0.0445 -1.31889,0.10862 -1.31889,0.10862 0.62373,0.80193 4.37651,1.25727 5.08935,1.61369 -0.98015,0.0891 -2.14125,0.62065 -2.14125,0.62065 0,0 3.64724,4.63629 4.36008,5.26002 -0.98015,0.35642 -2.04815,0 -2.04815,0 1.78208,0.98015 2.14124,1.2413 2.14124,1.2413 l -0.17068,0.80685 c 0.89105,0 0.88443,-0.54307 0.88443,-0.54307 0,0 -0.35197,8.37492 0.44997,11.40447 0.80194,3.02955 2.39384,5.53191 -0.27929,8.82877 0.0891,1.15836 2.32915,5.16122 0.63617,6.7651 -1.69298,1.60388 -0.19065,5.26139 -0.63617,6.33064 -0.44552,1.06925 0.0101,5.16876 -1.1482,6.59443 -1.15836,1.42567 -1.52368,1.59909 -0.89995,2.31192 0.62374,0.71284 1.34684,0.18574 1.97057,-0.17068 0,0.35642 -0.79978,0.80731 -1.3344,1.16373 1.42567,0.26731 2.76236,-1.88592 3.11877,-2.42055 0.11757,0.58783 0.12136,1.15995 0.0776,1.66025 0.55973,0.11103 0.69525,0.12443 0.93098,0.71375 0.12176,-1.21764 0.11703,-3.0554 -0.24826,-3.78598 0.97411,0.36529 1.09088,0.36635 1.3344,0.8534 -0.24352,-1.70469 -0.36055,-9.97566 0.24826,-10.70624 0.60882,-0.73058 1.45985,-1.716 0.72927,-3.78597 -0.73058,-2.06998 -0.24116,-8.15526 0.12413,-10.22524 0.36529,-2.06997 0.3687,-10.70334 0.97752,-13.74743 0.60882,-3.04408 0.8413,-4.03055 1.81541,-4.63936 -4.12889,-12.20776 -9.39482,-7.64419 -14.44566,-6.25307 -0.074,0.004 -0.14406,-0.005 -0.21723,0 z m 8.75118,51.62269 c -0.0589,0.61598 -0.21081,1.11987 -0.35687,1.41198 -0.17821,-0.26731 -0.26423,-0.61313 -0.62065,-0.79133 -0.98015,0.89104 -1.41997,3.2979 -1.59818,3.83252 1.06925,-0.53462 1.32687,-1.5255 1.50508,-2.32744 0,2.1385 -0.43674,3.02921 -2.21883,2.7619 -1.78209,-0.26732 -4.00548,-0.8024 -5.78757,-0.35688 0.80194,-1.15836 1.59863,-3.2048 1.95505,-3.73942 -0.89104,0.53462 -1.69573,2.94855 -2.14125,3.30497 -0.44552,0.35641 -1.7733,0.34842 -2.21883,-0.1862 -0.27845,-0.33414 -0.80795,-0.34165 -1.3344,-0.31033 0.6807,0.13628 1.22309,0.61616 1.41198,0.93098 -1.33656,0.62373 -2.40548,0.003 -2.76189,-0.62065 -0.2896,-0.50678 -0.28064,-1.47351 -0.0776,-2.15676 -0.45661,0.80478 -0.56167,2.11067 0.0776,2.93257 0.85234,1.09588 2.92284,0.3653 4.01871,0 1.70469,1.7047 6.19679,1.33572 7.29266,0.60514 1.82645,0.24353 2.56018,-0.85182 2.56018,-3.16532 0.3653,-0.60882 0.48575,-0.24116 0.72927,0.12413 0.23498,-0.46996 0.0187,-1.7242 -0.43446,-2.24986 z m -12.81645,3.59977 c -0.28259,-0.0566 -0.58627,-0.058 -0.89994,0.0466 0.26731,0 0.58408,-0.0278 0.89994,-0.0466 z"
       id="path5136-9"
       style="color:#000000;fill:#d3bc5f;stroke:none;marker:none;visibility:visible;display:inline;overflow:visible;enable-background:accumulate" />
    <path
       d="m 390.12873,452.97873 c 1.722,1.2054 5.16599,0.1722 6.02698,3.09959 -0.3444,4.13279 0.5166,3.09959 1.0332,7.06018 0.5166,3.96059 0.861,6.54358 0.861,6.54358 l -1.0332,-1.2054"
       id="path4118-4"
       style="color:#000000;fill:none;stroke:#000000;stroke-width:0.24826057;stroke-linecap:butt;stroke-linejoin:miter;stroke-miterlimit:4;stroke-opacity:1;stroke-dasharray:none;stroke-dashoffset:0;marker:none;visibility:visible;display:inline;overflow:visible;enable-background:accumulate" />
    <path
       d="m 501.03244,431.88041 c -0.6888,-1.5498 -2.07919,-2.49812 -2.07919,-2.49812 1.2915,0.2583 3.10326,1.21027 3.10326,1.21027 l -4.28563,-2.52018 c 2.6416,-0.19503 4.72083,0.36363 5.4028,0.53412 -1.46369,-1.1193 -3.95361,-1.98609 -4.29801,-1.98609 1.8942,-0.25829 3.87451,-0.25829 4.39111,0 -0.6027,-0.94709 -1.89542,-2.23282 -2.49812,-2.40502 1.05472,0.0753 2.17002,0.34712 2.60674,0.7603 -0.45301,-0.59443 -1.14821,-1.36544 -1.14821,-1.36544 0.9471,-0.0861 1.90546,-0.16368 2.24986,-0.0776 -0.5166,-0.5166 -1.8154,-1.21027 -1.8154,-1.21027 1.11929,-0.2583 3.69683,-1.03107 4.12733,-1.11717 -1.89419,-0.5166 -3.35396,-0.59814 -3.95665,-0.51204 2.49689,-0.7749 4.38655,-0.77581 4.90314,-0.77581 -1.54979,-0.5166 -4.90314,-1.13269 -4.90314,-1.13269 2.32469,-0.2583 4.21587,-0.94345 4.73246,-1.28785 -0.4305,0.2583 -4.12733,-0.0776 -4.12733,-0.0776 l 3.6153,-1.11717 -4.90315,-0.26378 c 0,0 3.08957,-1.89602 4.63937,-1.55162 -0.7749,-0.4305 -3.5222,-0.43446 -3.5222,-0.43446 0,0 2.489,-0.68971 3.5222,-0.77581 -0.6027,-0.2583 -3.08774,0.0931 -3.08774,0.0931 1.8942,-1.29149 2.66576,-2.15068 3.01016,-2.83948 -1.1193,0.1722 -2.07462,1.03259 -2.59122,0.9465 1.1193,-1.0332 1.81936,-1.38491 2.24986,-1.81541 -0.9471,-0.1722 -2.8404,0.77733 -3.6153,0.60514 2.23859,-0.6888 3.25842,-2.06367 3.25842,-2.06367 l -2.5757,1.21027 c 1.63589,-1.20539 1.97453,-1.73327 2.40503,-2.24986 -1.0332,0.2583 -3.00256,0.85887 -3.86356,1.11717 1.98029,-1.29149 2.49752,-1.97392 3.44462,-3.35152 -0.6027,0.2583 -1.04203,0.33984 -1.64473,0.51204 0.6888,-0.9471 0.68972,-2.24074 0.77581,-3.27394 -0.86099,1.2054 -1.71774,2.15221 -2.23434,2.66881 0.6888,-1.9803 1.28937,-3.08806 1.11717,-4.81005 -0.5166,1.54979 -1.54555,2.1452 -2.23434,2.5757 1.11929,-1.2915 0.77581,-1.98152 0.77581,-2.49812 -0.5166,1.5498 -1.30032,1.81936 -1.64473,2.24986 0.7749,-1.2915 1.11718,-1.89694 1.11718,-2.32744 -0.861,1.0332 -1.88995,1.11717 -2.23435,1.11717 1.29149,-1.20539 1.54859,-1.97453 1.89299,-2.40502 -0.6888,0 -1.20024,0.51203 -1.45853,0.51203 0.34439,-0.94709 0.76577,-1.55254 1.02407,-2.32744 -0.7749,0.4305 -1.45853,0.8534 -1.45853,0.8534 0.4305,-1.8081 0.95105,-4.03728 0.43446,-3.69288 -0.9471,1.6359 -2.06367,4.39111 -2.06367,4.39111 0.5166,-2.41079 0.17068,-4.47813 0.17068,-5.16692 -0.3444,1.37759 -0.86739,3.0056 -1.03959,3.52219 0,-1.72199 -0.34136,-3.18084 -0.34136,-3.18084 -0.0861,0.9471 -0.68272,1.72231 -0.68272,1.72231 0.1722,-1.20539 -1.55711,-4.21587 -1.8154,-4.73247 0,1.2054 -0.34136,2.66881 -0.34136,2.66881 -0.6888,-1.5498 -1.47405,-2.7619 -1.47405,-2.7619 0.30022,1.14975 0.1791,2.7306 -0.18619,4.31352 -0.36529,-2.19173 -0.60382,-3.64028 -1.3344,-4.12733 0.24352,0.48705 0.12413,2.79293 0.12413,2.79293 0,0 -0.84735,-1.696 -1.3344,-1.93953 0.36529,1.09587 0,2.91706 0,2.91706 -0.73058,-1.21763 -1.47405,-3.28945 -1.47405,-3.28945 -0.12176,1.70469 -0.35688,2.06366 -0.35688,2.06366 l -1.45853,-2.18779 c 0.48706,1.09587 0.12413,3.53771 0.12413,3.53771 -0.48705,-1.82645 -1.47404,-3.66184 -1.47404,-3.66184 0.48705,1.82645 0.49652,3.41358 0.49652,3.41358 -0.85234,-1.58293 -1.95505,-2.79293 -1.95505,-2.79293 0.24352,1.58292 0.37239,2.43605 0.37239,2.43605 0,0 -1.21685,-1.71625 -4.74799,-2.20331 1.70469,0.48706 2.06367,2.31193 2.06367,2.31193 -1.3394,-0.97411 -3.41358,-1.45853 -3.41358,-1.45853 1.3394,0.85234 1.95505,2.68432 1.95505,2.68432 -1.70469,-1.3394 -3.53771,-1.10166 -3.53771,-1.10166 0.60881,0.85234 2.43605,1.70679 2.43605,1.70679 -1.09586,-0.36529 -2.30824,-0.11571 -2.91706,-0.481 0.24353,0.73058 1.45485,1.57661 2.06367,2.06366 -1.09588,-0.36529 -2.4287,0.11808 -3.64633,0.60514 1.33939,-0.24353 1.82487,0.24458 2.31193,0.85339 -0.85235,-0.12176 -1.94901,-0.23274 -2.43606,-0.23274 0.73058,1.33939 2.07918,3.04119 2.07918,3.04119 -0.97411,-1.21763 -2.32376,-1.09324 -2.93258,-1.45853 0.73058,0.60881 1.70679,1.45853 1.70679,1.45853 -0.60881,-0.24352 -1.70073,-0.12413 -2.18779,-0.12413 1.70469,0.73058 2.06366,3.04119 2.06366,3.04119 -0.97411,-0.97411 -1.93953,-1.08614 -1.93953,-1.08614 1.58292,0.85235 1.70679,2.06367 1.70679,2.06367 -0.60882,-0.36529 -1.83092,-0.48101 -1.83092,-0.48101 0.85235,0.85235 1.58739,1.5682 1.83092,2.42054 -0.73058,0 -1.468,-0.35924 -1.95505,-0.481 0.85234,1.21763 1.58266,2.31193 1.58266,2.31193 -0.85234,-0.12177 -2.43237,0.49047 -3.04119,0.97752 1.82645,-0.36529 2.43474,0.37239 3.16532,0.37239 -0.85234,0.12176 -1.70074,0.59672 -2.1878,0.96201 1.21764,0 2.79293,0.97753 2.79293,0.97753 -1.33939,-0.12176 -2.18648,-0.12413 -2.91706,-0.12413 0.24353,0.60881 1.3344,0.37239 1.3344,0.37239 0,0 -0.23748,0.60382 -0.481,1.3344 0.60881,-0.48705 1.32835,-1.10166 1.8154,-1.10166 -0.35635,0.41576 -0.64533,1.18731 -0.89994,2.0016 -5.41813,-0.14937 -40.40325,3.2027 -45.94372,-0.15516 -5.68259,-3.44399 -9.82516,-1.02894 -11.20276,-2.23434 -1.3776,-1.2054 -2.57906,-1.04751 -3.95666,-1.90851 -5.53033,-18.23057 -41.54744,-17.83991 -43.39905,-9.82309 l -2.06366,1.22707 1.21027,0.17068 -1.55163,1.89299 2.06366,0 -2.40502,2.06366 2.06367,0.86891 -1.89299,3.78598 1.72231,-0.17068 -2.40503,3.95665 1.70679,-0.68271 -1.53611,2.74638 2.23435,-0.34136 -2.06367,2.7619 1.55163,0 -1.03959,2.5757 1.38095,-0.34136 -1.38095,1.89299 1.55163,0 -1.55163,2.5757 2.06366,-1.36543 -0.51203,3.27394 1.21027,-1.55163 -0.86892,5.16692 1.0396,-1.55163 -0.17068,2.06367 1.19475,-0.34136 -1.02407,1.72231 1.36543,-0.35688 -0.51204,2.24987 1.38095,-1.0396 c 0,0 -1.72839,2.23587 -1.03959,2.06367 0.68879,-0.1722 1.38095,-0.51204 1.38095,-0.51204 l -0.17068,1.55163 0.86891,-0.34136 2.06367,3.27394 c 0,0 -0.1786,1.19172 -1.03959,1.53611 0.5166,0.5166 1.21027,0 1.21027,0 l -0.69824,5.86516 1.0396,-1.38095 c 0,0 -0.1646,4.47812 -0.8534,5.16692 0.3444,0.3444 0.8534,-0.17068 0.8534,-0.17068 0,0 -0.51325,9.12877 1.38094,12.05616 1.8942,2.92739 3.60801,4.63937 6.191,4.63937 2.583,0 5.51316,1.89634 6.71855,3.27393 0.6888,0.1722 -0.69031,-3.44157 0.17068,-3.78597 0.861,-0.3444 3.62017,0.85675 4.82557,2.23435 1.20539,1.37759 15.49531,5.52227 19.6281,5.69447 4.13279,0.1722 7.40615,-0.17676 8.61154,0.51204 0.3444,-0.1722 -0.68272,-1.21027 -0.68272,-1.21027 1.722,0.6888 2.9265,0.68911 3.6153,1.72231 0.1722,-0.3444 0.68271,-2.06367 0.68271,-2.06367 1.2054,0.5166 0.68272,1.03503 0.68272,1.55163 0.6888,0.1722 0.69823,-1.21027 0.69823,-1.21027 1.0332,0 1.20419,0.17859 1.89299,1.03959 0.5166,-0.5166 0.51204,-1.89299 0.51204,-1.89299 0.69956,0.97939 1.51952,0.69908 1.79989,1.11718 -0.13568,-0.66945 -0.24826,-1.45853 -0.24826,-1.45853 0,0 3.44005,0.33375 3.95665,1.19475 0.1722,-0.3444 -0.17068,-1.89299 -0.17068,-1.89299 0,0 1.20723,0.86131 1.55163,1.72231 0.6888,-0.6888 0.69823,-1.72231 0.69823,-1.72231 l 2.57571,-0.17068 c 0,0 0.35231,-2.41566 0.86891,-1.21027 0.51659,1.2054 1.02407,1.38095 1.02407,1.38095 l 0.34136,-1.02407 1.38095,0.34136 0.17068,-1.21027 0.69823,1.03959 c 0,0 1.20419,-1.56259 1.89299,-2.07919 0.1722,0.861 0.33192,0.86283 -0.35687,1.55163 0.68879,0.1722 1.7223,-2.06366 1.7223,-2.06366 l 1.72231,1.38095 -0.17068,-1.89299 2.93258,0.34136 -0.17068,-0.8534 2.5757,-0.52755 -0.51203,-0.8534 1.7223,-0.52755 c 0,0 2.59122,-3.94905 2.59122,-4.81005 0,2.58299 -0.35231,4.30593 -0.86891,5.16692 1.0332,-0.86099 1.89299,-3.27393 1.89299,-3.27393 0,0 0.24116,1.72099 -0.12413,2.45157 0.36529,-0.36529 2.07208,-3.29918 1.70679,-2.20331 -0.36529,1.09587 1.21027,2.43605 1.21027,2.43605 0,0 0.002,-1.45116 0.12413,-2.6688 0.12177,1.58293 0.72085,2.06236 1.08614,2.79293 0.12176,-1.33939 0.37002,-2.30587 0.24826,-2.79293 0.60882,1.21764 0.97516,1.5753 0.8534,2.79293 0.85234,-0.36529 1.10402,-2.18411 1.22578,-2.79293 0.24353,0.97411 -0.49652,2.67222 -0.49652,3.64633 0.85235,-0.97411 0.97753,-2.1878 0.97753,-2.1878 0.85234,1.82646 1.3344,1.93954 1.3344,1.93954 0.12177,-1.46116 -0.002,-3.03751 -0.12413,-3.64633 0.48705,1.94822 1.70679,2.91706 1.70679,2.91706 0.21155,-0.8462 -0.0244,-2.26123 -0.0931,-2.63776 2.36899,2.47352 6.44565,4.37285 7.24611,5.97377 0.861,1.72199 2.23466,4.64911 3.95665,7.05991 1.72199,2.41079 4.31143,9.30279 9.82181,13.60778 5.51038,4.30499 6.54483,6.36503 6.88923,7.74263 0.3444,1.37759 6.36959,10.50546 7.23059,15.67145 0.861,5.16598 0.33344,9.642 -0.52755,10.6752 -0.861,1.0332 -5.32665,2.06581 -4.81005,5.3376 0.5166,3.27179 3.61529,1.72231 3.61529,1.72231 0.3444,2.06639 4.47813,1.03168 5.16693,0.17068 0.86099,1.54979 4.29497,0.86189 4.63937,-3.61529 1.37759,-0.34441 1.04415,-4.992 0.52755,-7.23059 -0.5166,-2.2386 -2.42358,-17.72935 -2.07918,-20.14014 0.3444,-2.41079 -2.75278,-4.99808 -3.78598,-6.54788 -1.03319,-1.54979 -2.2313,-5.52107 -2.5757,-7.58746 -0.3444,-2.06639 -1.38095,-6.70304 -1.38095,-6.70304 l 1.38095,0.68272 -1.03959,-2.06367 2.06367,1.55163 -2.23435,-3.61529 2.06367,1.55163 -2.57571,-3.44462 3.18084,0.94649 -3.10326,-4.82556 3.44462,2.5757 -2.91706,-5.41518 4.39111,2.5757 -4.48421,-4.73246 4.48421,3.61529 -4.82557,-6.45477 2.6688,1.28785 -2.32744,-4.39111 4.12733,0.60513 c 0,0 -5.24755,-2.93258 -4.90314,-2.93258 0.34439,0 5.16692,0.77582 5.16692,0.77582 l -4.65489,-3.5222 4.04975,0.24826 -3.44461,-2.74638 3.61529,-0.86891 -3.95665,-1.19476 2.93258,-0.34135 -2.42054,-0.52756 2.06366,-0.77581 -3.08774,0.0931 1.79989,-2.23435 c 0,0 -3.26846,2.05971 -3.01016,1.62921 0.2583,-0.4305 2.6688,-3.10326 2.6688,-3.10326 l -2.32744,0.52756 2.06367,-2.07919 -2.91707,1.0396 2.14125,-2.32745 -1.97057,0.9465 0.8534,-1.89299 c 0,0 -1.03503,1.02711 -1.55163,0.68272 -0.5166,-0.34441 -1.71531,-1.54707 -1.62921,-2.06367 0.0861,-0.5166 1.11809,-1.46309 1.89299,-0.94649 -0.4305,-0.7749 -2.69106,-2.72998 -3.71984,-5.2357 1.20982,0.93829 2.34683,1.02622 3.20783,1.54282 -0.70875,-1.18126 -2.52335,-2.46027 -3.16532,-2.90015 l -10e-4,-0.007 c 2.09247,1.22289 3.27267,0.92514 3.77152,1.09143 -1.28958,-1.21372 -3.16025,-2.85683 -3.62747,-3.24907 1.58966,0.47461 3.45677,1.96122 3.45677,1.96122 z m -68.98539,43.2284 c 0.0307,0.1513 0.0614,0.30747 0.0931,0.43445 0,-0.19372 -0.0284,-0.33797 -0.0931,-0.43445 z m 48.62804,-63.32197 c -0.18579,1.57925 -0.28603,2.99295 -0.31032,4.25146 -0.21237,-0.0391 -0.41837,-0.0874 -0.63617,-0.12413 0.18479,-1.25904 0.48596,-2.61415 0.94649,-4.12733 z m 0.8534,3.04119 c 0.0197,0.51218 0.0777,0.99717 0.13965,1.45854 -0.0608,-0.0132 -0.1249,-0.018 -0.1862,-0.031 0.009,-0.51593 0.0235,-1.01236 0.0465,-1.4275 z m 2.93258,0 c 0.24352,0.60882 0.21486,1.44259 0.0931,2.21883 -0.26622,-0.0824 -0.54474,-0.15483 -0.82237,-0.23274 0.23214,-0.8672 0.47202,-1.62594 0.72927,-1.98609 z m -9.6201,0.3724 c -0.005,0.0471 -0.009,0.093 -0.0155,0.13964 -0.10388,-0.008 -0.20547,-0.0237 -0.31033,-0.031 0.10176,-0.0518 0.20805,-0.0918 0.32584,-0.10861 z m 11.20276,2.06366 c -0.007,0.0973 -0.024,0.18431 -0.031,0.27929 -0.0403,-0.0149 -0.0835,-0.0318 -0.12413,-0.0465 0.0525,-0.0754 0.11021,-0.17281 0.15516,-0.23274 z"
       id="path4141-2"
       style="color:#000000;fill:#decd87;stroke:#c8ab37;stroke-width:1;stroke-linecap:butt;stroke-linejoin:miter;stroke-miterlimit:4;stroke-opacity:1;stroke-dasharray:none;stroke-dashoffset:0;marker:none;visibility:visible;display:inline;overflow:visible;enable-background:accumulate" />
    <path
       d="m 385.56023,396.95327 c -5.03429,0.1259 -10.59134,1.44359 -16.66449,4.49973 2.55703,-0.12177 6.94288,6.57627 7.30817,8.03743 0.60882,-0.12177 0.97753,0 0.97753,0 l 0.12413,0.96201 1.21027,0.72927 -0.35687,0.97752 1.21027,0.37239 c 0,0 -0.61119,2.05893 -0.12413,1.81541 0.48705,-0.24353 1.47404,-0.35688 1.47404,-0.35688 l -0.62065,1.83093 1.34992,-0.49652 c 0,0 0.96569,1.59213 0.35687,2.07918 -0.60881,0.48706 2.56387,-1.70338 1.95506,-0.72927 -0.60882,0.97411 -0.72927,1.21027 -0.72927,1.21027 l 2.1878,-0.85339 -0.8534,1.10165 2.43606,0 -0.72927,0.72927 1.45853,-0.12413 -0.72926,0.85339 3.04119,-1.10165 -1.21027,1.34991 1.70679,-0.49652 0.10861,0.97753 1.7068,-1.10166 0,0.97753 2.07918,0 -0.72927,1.3344 c 0,0 2.07051,-1.4467 4.01872,-0.83788 -0.60882,-0.60882 -1.47405,-0.74478 -1.47405,-0.74478 0,0 0.85445,0.002 1.7068,0.12413 0.12176,-0.48705 -0.12414,-1.3344 -0.12414,-1.3344 1.70469,0.12176 3.53903,1.33782 2.80845,2.31193 0.24353,0.24352 0.8534,-0.48101 0.8534,-0.48101 0,0 0.36529,3.04224 0,3.89459 0.36529,-0.36529 1.10165,-1.45853 1.10165,-1.45853 0,1.82645 -0.25299,4.37191 -0.49652,4.98073 0.73058,-1.21764 0.97753,-1.93954 0.97753,-1.93954 -0.60881,1.82645 -0.85813,3.03988 -1.10166,3.77046 0.97411,-1.21764 1.95506,-3.0412 1.95506,-3.0412 l -0.24827,1.93954 0.60514,-1.21027 0.72927,0.37239 c 0,0 -0.11598,-2.32139 1.10165,-2.80845 -0.36529,1.46116 0.24826,2.06367 0.24826,2.06367 0,-1.3394 1.5824,-3.39912 3.16532,-4.25146 -0.9741,1.58292 -1.45853,3.77045 -1.45853,3.77045 1.46116,-2.3135 3.39807,-3.28445 3.39807,-4.62385 0,-1.33939 -0.36056,-2.92048 0.24826,-3.89459 0.60882,-0.9741 1.21501,-1.35097 1.45853,-2.20331 0.24353,-0.85234 1.94664,-0.96701 2.31193,0.37239 0.36529,1.3394 0.49205,4.49946 -1.3344,6.08239 1.33939,-0.36529 2.43605,-0.72927 2.43605,-0.72927 l -1.1482,1.70679 1.38095,-0.7603 -0.24826,0.88443 3.02567,-0.51204 -0.13964,1.00856 1.13269,-0.88443 2.01711,1.89299 -0.37239,-2.14125 1.00856,-0.12413 -1.89299,-1.25682 1.76886,0.3724 c -2.0162,-1.51216 -1.38421,-4.78604 -4.28249,-7.43231 1.00809,0.37805 2.3895,0.88443 2.3895,0.88443 -0.77084,-0.53074 -1.6529,-1.27157 -2.60673,-2.0947 -0.94888,0.043 -1.69041,0.0396 -2.12573,-0.34135 -1.3776,-1.2054 -2.57906,-1.04751 -3.95666,-1.90851 -0.59136,-1.94942 -1.53686,-3.67644 -2.74638,-5.21347 -6.14525,-4.65662 -14.08931,-9.03093 -24.03473,-8.78222 z"
       id="path4973-3-2"
       style="color:#000000;fill:#d3bc5f;stroke:none;marker:none;visibility:visible;display:inline;overflow:visible;enable-background:accumulate" />
    <path
       d="m 390.3333,373.44168 c -1.70469,-10.22813 -2.80056,-9.9846 -5.84465,-9.61931 -3.04408,0.36529 -6.08817,8.88873 -7.18404,10.83694 -1.09587,1.94821 -4.74877,5.96641 -2.06998,9.49754 -0.60881,-0.48705 -4.01819,2.80056 -5.35759,3.04409 0.60882,0.12176 1.46116,1.21764 1.46116,1.21764 -0.85234,-0.3653 -1.82644,-0.60882 -1.82644,-0.60882 l 1.33939,1.09587 -1.21763,0.12176 0.36529,2.31351 -0.85234,-1.82645 0.60881,3.53114 -1.21763,-1.70469 0.60882,3.40937 -1.58293,-1.09587 0.97411,1.58293 -1.21764,0.12176 1.09587,0.85235 -1.70468,0.9741 1.94821,1.3394 -2.80056,0.97411 2.31351,0.60881 -1.3394,1.21763 c 0,0 2.43527,-0.12176 1.94822,-0.12176 -0.48706,0 -1.46117,1.3394 -1.46117,1.3394 l 2.19175,-0.85235 -0.48706,0.97411 1.21763,-0.12176 -0.12176,1.09587 1.70469,-0.48705 -0.24353,0.73058 1.21764,0 -1.82646,1.09587 3.16585,0.48705 -0.48705,1.21764 c 0,0 1.09587,0 1.94822,0.60881 0.85234,0.60882 4.627,5.72288 6.69698,6.81875 2.06998,1.09587 5.47935,3.16585 7.54933,3.53114 2.06998,0.36529 10.71518,0.36529 12.41987,-0.24353 1.70469,-0.60881 5.60112,-0.24352 6.08817,0 0.48705,-0.48705 0.36529,-1.33939 0.36529,-1.33939 0.48705,-0.24353 1.82645,-0.24353 2.92232,0.24352 0.12176,-0.48705 -1.09587,-2.19174 -1.09587,-2.19174 0,0 1.3394,-0.24352 1.82645,0.12176 0,-0.60881 -0.73058,-1.82645 -0.73058,-1.82645 1.09587,0.60882 1.46116,1.3394 1.58292,2.19174 0.60882,-0.48705 0.12177,-2.55703 -0.36529,-3.53113 1.09588,-0.36529 2.19175,-0.12177 2.19175,-0.12177 -0.24353,-1.46116 -0.73058,-2.43527 -0.73058,-2.43527 l 1.46116,1.3394 -1.09587,-1.94821 1.58292,1.21763 -1.09587,-2.06998 1.09587,0.97411 -0.48705,-1.82645 1.09587,1.09587 -0.60882,-4.62701 1.09587,1.70469 c 0,0 0.48706,-2.6788 -2.55703,-4.01819 1.94821,0 2.43527,0.48705 2.67879,1.09587 0.48706,-1.70469 0.73059,-3.04409 -1.58292,-4.13996 0.85234,-0.24352 1.94822,0 2.43527,0.24353 -0.60882,-1.09587 -2.43527,-2.19174 -2.43527,-2.19174 1.94822,-0.36529 2.6788,-0.36529 3.28761,0.24353 -0.85234,-1.3394 -2.92232,-1.94822 -2.92232,-1.94822 0.73058,-0.36529 2.19174,-0.12176 2.19174,-0.12176 -0.60881,-0.60882 -2.31351,-0.97411 -2.31351,-0.97411 0,0 0.73059,-0.48705 1.21764,-0.85234 -1.3394,0.12176 -2.3135,-0.97411 -2.67879,-1.70469 0.85234,0.12176 1.33939,0.48705 1.33939,0.48705 0.12176,-0.36529 -0.9741,-1.46116 -0.9741,-1.46116 0,0 0.73058,0.24353 1.46115,0.12177 -0.73057,0 -1.70468,-1.3394 -1.70468,-1.3394 0.48705,0.48705 0.97411,0.48705 0.97411,0.48705 l -0.36529,-1.94821 c 0.60881,0.60881 0.85234,1.46116 0.85234,1.46116 0.24352,-1.09587 -0.24353,-2.55703 -0.24353,-2.55703 2.31351,-2.31351 3.53114,-4.26172 4.01819,-7.54933 0.48706,-3.28762 0.97411,-6.3317 -0.36529,-7.18405 -1.33939,-0.85234 -5.9664,0.73059 -8.40167,3.04409 -2.43527,2.31351 -3.77466,4.50525 -7.79286,3.04408 -4.01819,-1.46115 -6.81875,-1.82644 -9.25401,-1.82644 -2.43528,0 -3.16585,-0.73059 -3.89643,-1.3394 z"
       id="path4673-9"
       style="color:#000000;fill:#decd87;stroke:#c8ab37;stroke-width:1;stroke-linecap:butt;stroke-linejoin:miter;stroke-miterlimit:4;stroke-opacity:1;stroke-dasharray:none;stroke-dashoffset:0;marker:none;visibility:visible;display:inline;overflow:visible;enable-background:accumulate" />
    <path
       d="m 383.94072,385.73978 c 2.25262,2.37439 5.83823,1.7607 7.24492,-1.03499 1.53254,-3.04581 5.60112,-4.13995 8.70608,0.85234"
       id="path4655-14"
       style="color:#000000;fill:none;stroke:#c8ab37;stroke-width:0.5;stroke-linecap:butt;stroke-linejoin:miter;stroke-miterlimit:4;stroke-opacity:1;stroke-dasharray:none;stroke-dashoffset:0;marker:none;visibility:visible;display:inline;overflow:visible;enable-background:accumulate" />
    <path
       d="m 388.08067,391.46266 c 4.58748,-1.90551 6.55908,-2.10227 7.30581,0.42617 -0.36529,2.25262 -3.16585,2.19174 -7.30581,-0.42617 z"
       id="path4657-3"
       style="color:#000000;fill:#000000;stroke:#c8ab37;stroke-width:0.24826057;stroke-linecap:butt;stroke-linejoin:miter;stroke-miterlimit:4;stroke-opacity:1;stroke-dasharray:none;stroke-dashoffset:0;marker:none;visibility:visible;display:inline;overflow:visible;enable-background:accumulate" />
    <path
       d="m 387.47186,390.54944 c 2.3135,-0.12177 4.87053,-0.79147 5.9664,-1.82646 1.09587,-1.03499 2.98321,-1.82645 2.80056,0.85235"
       id="path4659-2"
       style="color:#000000;fill:none;stroke:#c8ab37;stroke-width:0.5;stroke-linecap:butt;stroke-linejoin:miter;stroke-miterlimit:4;stroke-opacity:1;stroke-dasharray:none;stroke-dashoffset:0;marker:none;visibility:visible;display:inline;overflow:visible;enable-background:accumulate" />
    <path
       d="m 387.95891,391.82795 c 1.70469,2.98321 7.30581,3.71378 8.15815,1.76557 0.85234,-1.94821 -1.40028,-1.94821 -0.24353,-3.71378"
       id="path4661-09"
       style="color:#000000;fill:none;stroke:#c8ab37;stroke-width:0.5;stroke-linecap:butt;stroke-linejoin:miter;stroke-miterlimit:4;stroke-opacity:1;stroke-dasharray:none;stroke-dashoffset:0;marker:none;visibility:visible;display:inline;overflow:visible;enable-background:accumulate" />
    <path
       d="m 405.49284,394.9938 c 1.76557,-3.16585 4.627,-1.64381 5.11406,-0.42617 -1.03499,1.76557 -2.80055,2.80056 -5.11406,0.42617 z"
       id="path4663-9"
       style="color:#000000;fill:#000000;stroke:#c8ab37;stroke-width:0.24826057;stroke-linecap:butt;stroke-linejoin:miter;stroke-miterlimit:4;stroke-opacity:1;stroke-dasharray:none;stroke-dashoffset:0;marker:none;visibility:visible;display:inline;overflow:visible;enable-background:accumulate" />
    <path
       d="m 403.54462,390.6712 c 0.33396,4.13996 3.28028,9.2138 4.40871,10.64997 1.55086,1.97383 1.98387,3.77899 1.37505,6.21426"
       id="path4665-65"
       style="color:#000000;fill:none;stroke:#c8ab37;stroke-width:0.5;stroke-linecap:butt;stroke-linejoin:miter;stroke-miterlimit:4;stroke-opacity:1;stroke-dasharray:none;stroke-dashoffset:0;marker:none;visibility:visible;display:inline;overflow:visible;enable-background:accumulate" />
    <path
       d="m 386.7705,406.8837 c -0.40441,0.19023 -0.76271,0.41752 -1.03959,0.71374 0.7749,1.8081 2.43952,2.23435 3.53772,2.23435 1.22422,0 3.61013,1.03747 5.07382,2.15676 1.4637,1.1193 6.88955,0.9535 8.61154,1.0396 1.722,0.0861 1.98548,-0.16673 2.93258,0.26377 0.9471,0.4305 1.55255,-0.34623 2.32744,-1.55163 -0.007,-0.006 -0.0233,-0.009 -0.031,-0.0155 -1.1749,1.10245 -2.51824,1.76312 -3.11877,0.20171 -0.60882,-1.58292 -3.04487,-2.00015 -5.95826,-1.34991 -3.41565,0.76233 -4.9578,0.98344 -6.95129,-0.48101 -1.5389,-1.1305 -2.96492,-2.82357 -5.38416,-3.21187 z"
       id="path4669-77-9"
       style="color:#000000;fill:#d3bc5f;fill-opacity:1;stroke:none;marker:none;visibility:visible;display:inline;overflow:visible;enable-background:accumulate" />
    <path
       d="m 406.91818,405.70998 c -1.1193,1.5498 -1.8081,2.49689 -2.84129,2.92739 -1.0332,0.4305 -3.61619,-2.41079 -3.61619,-3.09958 0,-0.6888 2.23859,1.37759 2.92739,1.03319 0.6888,-0.3444 1.46369,-0.9471 0.861,-1.6359 -0.6027,-0.68879 -1.2054,1.3776 -3.18569,-0.0861 -1.9803,-1.4637 0.51659,-2.583 2.15249,-3.0996 1.63589,-0.51659 3.35789,0.5166 4.47719,1.6359 1.11929,1.11929 1.03319,2.49689 0.25829,4.47719 -0.77489,1.98029 -3.87448,1.37759 -1.89419,-0.6888 1.3776,0.6027 1.98029,-0.7749 0.861,-1.4637 z"
       id="path4667-8"
       style="color:#000000;fill:#333333;stroke:#000000;stroke-width:0.5;stroke-linecap:butt;stroke-linejoin:miter;stroke-miterlimit:4;stroke-opacity:1;stroke-dasharray:none;stroke-dashoffset:0;marker:none;visibility:visible;display:inline;overflow:visible;enable-background:accumulate" />
    <path
       d="m 385.73765,407.60418 c 0.77489,1.80809 2.42561,2.23232 3.52381,2.23232 1.22422,0 3.62246,1.03946 5.08616,2.15876 1.4637,1.1193 6.88798,0.9471 8.60997,1.0332 1.722,0.0861 1.9803,-0.1722 2.92739,0.2583 0.9471,0.4305 1.5498,-0.3444 2.32469,-1.5498"
       id="path4669-77"
       style="color:#000000;fill:none;stroke:#c8ab37;stroke-width:0.5;stroke-linecap:butt;stroke-linejoin:miter;stroke-miterlimit:4;stroke-opacity:1;stroke-dasharray:none;stroke-dashoffset:0;marker:none;visibility:visible;display:inline;overflow:visible;enable-background:accumulate" />
    <path
       d="m 380.22726,404.59069 c 1.722,0.86099 3.18569,4.21888 4.47719,4.73548 1.2915,0.5166 1.98029,1.98029 4.21889,2.49689 2.23859,0.5166 2.49689,1.4637 4.73548,1.8942 2.23859,0.4305 3.07897,1.69802 7.49067,1.63589 6.11309,-0.0861 6.37138,-5.76868 8.86828,-3.35789 -0.2583,-1.03319 -0.861,-1.46369 -0.861,-1.46369 1.2915,0.2583 1.37759,0.0861 2.1525,0.6888"
       id="path4671-33"
       style="color:#000000;fill:none;stroke:#c8ab37;stroke-width:0.5;stroke-linecap:butt;stroke-linejoin:miter;stroke-miterlimit:4;stroke-opacity:1;stroke-dasharray:none;stroke-dashoffset:0;marker:none;visibility:visible;display:inline;overflow:visible;enable-background:accumulate" />
    <path
       d="m 417.85183,373.07639 c -3.40938,0.48705 -6.08818,1.09587 -9.0105,7.06227 1.58293,-2.3135 3.16585,-2.80056 4.62701,-3.04408"
       id="path4675-0"
       style="color:#000000;fill:none;stroke:#c8ab37;stroke-width:0.5;stroke-linecap:butt;stroke-linejoin:miter;stroke-miterlimit:4;stroke-opacity:1;stroke-dasharray:none;stroke-dashoffset:0;marker:none;visibility:visible;display:inline;overflow:visible;enable-background:accumulate" />
    <path
       d="m 411.15484,387.68799 c 3.53114,5.11407 2.3135,8.27992 0.9741,7.30581 -1.33939,-0.97411 -0.85234,-2.3135 -1.46116,-3.04409 -0.60881,-0.73058 -3.53113,-0.48705 -5.35759,3.28762"
       id="path4677-6"
       style="color:#000000;fill:none;stroke:#c8ab37;stroke-width:0.5;stroke-linecap:butt;stroke-linejoin:miter;stroke-miterlimit:4;stroke-opacity:1;stroke-dasharray:none;stroke-dashoffset:0;marker:none;visibility:visible;display:inline;overflow:visible;enable-background:accumulate" />
    <path
       d="m 402.14434,388.78387 c 1.21764,-0.48706 2.6788,-3.89643 4.74878,-4.0182"
       id="path4679-9"
       style="color:#000000;fill:none;stroke:#c8ab37;stroke-width:0.5;stroke-linecap:butt;stroke-linejoin:miter;stroke-miterlimit:4;stroke-opacity:1;stroke-dasharray:none;stroke-dashoffset:0;marker:none;visibility:visible;display:inline;overflow:visible;enable-background:accumulate" />
    <path
       d="m 384.12336,404.6131 c -1.33939,0 -1.33939,-0.73057 -1.70468,-1.09586 0.9741,-0.24353 1.21763,-0.73058 1.70468,-0.73058 -0.48705,-0.85235 -1.33939,-0.85235 -1.82645,-0.60882 0.24353,-0.48706 1.21764,-0.85235 1.21764,-0.85235 -1.09587,-0.12176 -1.58293,-0.24352 -2.06998,0.48706 0.12176,-0.24353 0.24352,-1.09587 0.24352,-1.09587 0,0 -0.85234,0.85234 -1.33939,1.21763 0.24352,-0.97411 -0.24353,-1.3394 0.36529,-1.58292 -1.3394,0 -1.82645,0 -2.55704,0.60881"
       id="path4681-16"
       style="color:#000000;fill:none;stroke:#c8ab37;stroke-width:0.5;stroke-linecap:butt;stroke-linejoin:miter;stroke-miterlimit:4;stroke-opacity:1;stroke-dasharray:none;stroke-dashoffset:0;marker:none;visibility:visible;display:inline;overflow:visible;enable-background:accumulate" />
    <path
       d="m 380.22693,388.05328 c -0.9741,0.12177 -2.92232,-0.85234 -3.28761,-1.46116 0.73058,1.3394 0.48705,2.31351 1.21763,2.6788 -1.82644,-0.97411 -3.40937,-0.24353 -4.50524,0.12176"
       id="path4683-7"
       style="color:#000000;fill:none;stroke:#c8ab37;stroke-width:0.5;stroke-linecap:butt;stroke-linejoin:miter;stroke-miterlimit:4;stroke-opacity:1;stroke-dasharray:none;stroke-dashoffset:0;marker:none;visibility:visible;display:inline;overflow:visible;enable-background:accumulate" />
    <path
       d="m 379.98341,392.6803 c -1.3394,-0.36529 -1.94822,0.48705 -2.55704,0.60881 1.70469,-0.12176 1.58293,0.97411 1.82646,1.58292 -2.92232,-0.60881 -4.74878,1.46117 -5.72288,0.97411 -0.12177,1.58293 0.48705,2.6788 0.85234,3.16585 -0.73058,-0.24353 -1.46116,-0.48705 -1.46116,-0.48705 0.48705,0.97411 0.36529,1.58292 1.21763,2.06997 -0.60881,-0.24352 -0.85234,-0.24352 -1.46116,-0.24352 0.85235,0.60881 1.09587,1.58292 2.80056,3.40937"
       id="path4685-3"
       style="color:#000000;fill:none;stroke:#c8ab37;stroke-width:0.5;stroke-linecap:butt;stroke-linejoin:miter;stroke-miterlimit:4;stroke-opacity:1;stroke-dasharray:none;stroke-dashoffset:0;marker:none;visibility:visible;display:inline;overflow:visible;enable-background:accumulate" />
    <path
       d="m 421.99247,463.17678 c 0.97411,1.70469 0.72927,2.68432 0.72927,2.68432 -0.60882,-0.12176 -1.09324,-0.36055 -1.45853,0.24826 0.24353,2.19174 -3.90169,7.66715 -4.26698,9.37184 0.0443,0.0426 0.0939,0.0825 0.13965,0.12413 2.72803,0.007 4.80429,-0.0676 5.70999,0.44997 0.3444,-0.1722 -0.68272,-1.21027 -0.68272,-1.21027 1.722,0.6888 2.9265,0.68911 3.6153,1.72231 0.1722,-0.3444 0.68271,-2.06367 0.68271,-2.06367 1.2054,0.5166 0.68272,1.03503 0.68272,1.55163 0.6888,0.1722 0.69823,-1.21027 0.69823,-1.21027 1.0332,0 1.20419,0.17859 1.89299,1.03959 0.5166,-0.5166 0.51204,-1.89299 0.51204,-1.89299 0.69956,0.97939 1.51952,0.69908 1.79989,1.11718 -0.13568,-0.66945 -0.24826,-1.45853 -0.24826,-1.45853 0,0 3.44005,0.33375 3.95665,1.19475 0.1722,-0.3444 -0.17068,-1.89299 -0.17068,-1.89299 0,0 1.20723,0.86131 1.55163,1.72231 0.6888,-0.6888 0.69823,-1.72231 0.69823,-1.72231 l 2.57571,-0.17068 c 0,0 0.35231,-2.41566 0.86891,-1.21027 0.51659,1.2054 1.02407,1.38095 1.02407,1.38095 l 0.34136,-1.02407 1.38095,0.34136 0.17068,-1.21027 0.69823,1.03959 c 0,0 0.76656,-0.99573 1.4275,-1.66025 0.004,-0.0257 0.0118,-0.0518 0.0155,-0.0776 -1.70468,-0.24352 -3.76388,-0.23143 -7.41678,-0.96201 -3.6529,-0.73058 -5.36574,-1.96215 -8.40983,-2.32744 -3.04408,-0.36529 -3.28919,-2.30719 -4.87211,-2.06367 -1.58293,0.24353 -3.64633,-1.83092 -3.64633,-1.83092 z m 10.05456,11.93203 c 0.0307,0.1513 0.0614,0.30747 0.0931,0.43445 0,-0.19372 -0.0284,-0.33797 -0.0931,-0.43445 z"
       id="path4790-3"
       style="color:#000000;fill:#d3bc5f;stroke:none;marker:none;visibility:visible;display:inline;overflow:visible;enable-background:accumulate" />
    <path
       d="m 390.47313,467.09909 2.75519,2.58299 -1.37759,0.1722 1.54979,1.2054 -0.861,0.34439 1.0332,0.3444 4.99379,4.30499 c 0,0 1.72199,2.23859 1.20539,4.64938 -0.3444,2.4108 0.3444,14.46476 -0.5166,17.39215 -0.861,2.92739 -1.72199,10.50416 -1.37759,14.29255 0.34439,3.78839 -1.0332,7.06018 -1.3776,8.95437 -1.89419,1.5498 -2.23859,3.96059 -3.44399,4.30499 -1.20539,0.3444 -1.89419,0.3444 -1.89419,2.58299 0,2.23859 1.37759,1.3776 2.23859,2.4108 0.861,1.03319 1.8942,0 3.27179,0.68879 1.3776,0.6888 4.13279,-0.1722 4.99378,-0.861 3.2718,0.17221 4.47719,0 4.30499,-7.74897 1.8942,-3.09959 3.09959,-7.40457 3.27179,-9.29877 0.1722,-1.8942 1.72199,-4.99378 1.89419,-8.09337 0.17221,-3.0996 1.5498,-3.61619 1.8942,-5.51039 0.3444,-1.89419 -0.1722,-3.27179 0.5166,-4.13278 0.68879,-0.861 0.68879,-7.40458 2.23859,-8.43778 -0.3444,-0.68879 -0.6888,-0.68879 -0.6888,-0.68879 l 1.3776,-1.5498 -1.2054,-1.0332 1.3776,-0.86099 -0.6888,-1.8942 2.23859,-1.20539 -1.37759,-1.722 c 0,0 1.54979,-3.44399 2.23859,-4.64939 2.58299,-1.37759 2.23859,-3.78838 2.41079,-7.40457"
       id="path4120-5"
       style="color:#000000;fill:#decd87;stroke:#c8ab37;stroke-width:1;stroke-linecap:butt;stroke-linejoin:miter;stroke-miterlimit:4;stroke-opacity:1;stroke-dasharray:none;stroke-dashoffset:0;marker:none;visibility:visible;display:inline;overflow:visible;enable-background:accumulate" />
    <path
       d="m 387.02914,366.87901 1.2915,2.49689 -2.32469,-0.7749 c 0,0 1.98029,1.6359 1.54979,1.4637 -0.4305,-0.1722 -1.6359,-0.4305 -1.6359,-0.4305 l 3.2718,3.78839"
       id="path4792-9"
       style="color:#000000;fill:none;stroke:#c8ab37;stroke-width:0.5;stroke-linecap:butt;stroke-linejoin:miter;stroke-miterlimit:4;stroke-opacity:1;stroke-dasharray:none;stroke-dashoffset:0;marker:none;visibility:visible;display:inline;overflow:visible;enable-background:accumulate" />
    <path
       d="m 384.96275,370.49519 c -4.04669,2.4969 -5.6862,4.22193 -4.56329,9.21268 0.35795,1.59087 3.21568,1.36171 5.38627,0.0919 1.70057,-0.99487 4.8867,-3.33046 5.7206,-3.19147 -0.9471,-0.2583 -3.09959,0.861 -3.44399,1.03319 1.03319,-1.46369 2.06639,-2.23859 2.75519,-2.06639 -3.09959,-0.861 -5.33818,-0.6888 -8.00727,0.1722 1.63589,-1.89419 5.42428,-1.46369 4.39108,-2.75519 -1.0332,-1.2915 -1.89419,-2.75519 -2.32469,-3.70229 -0.0861,0.6888 0.0861,1.20539 0.0861,1.20539 z"
       id="path4794-4"
       style="color:#000000;fill:#d3bc5f;fill-opacity:1;stroke:none;marker:none;visibility:visible;display:inline;overflow:visible;enable-background:accumulate" />
    <path
       d="m 411.65366,392.27843 c 0.4305,-1.0332 -1.54979,-2.66909 -1.80809,-4.39109 -0.2583,-1.72199 -3.09959,-2.49689 -1.72199,-3.27179 1.37759,-0.77489 4.13278,0.861 4.39108,2.32469"
       id="path4796-1"
       style="color:#000000;fill:none;stroke:#c8ab37;stroke-width:0.5;stroke-linecap:butt;stroke-linejoin:miter;stroke-miterlimit:4;stroke-opacity:1;stroke-dasharray:none;stroke-dashoffset:0;marker:none;visibility:visible;display:inline;overflow:visible;enable-background:accumulate" />
    <path
       d="m 414.15055,387.54294 c 0,-0.861 -2.75519,-3.18569 -3.78838,-3.44398 1.46369,-0.2583 2.15249,-0.2583 2.15249,-0.2583 -1.1193,-0.861 -2.49689,-1.2054 -2.49689,-1.2054 1.37759,-0.4305 2.06639,-1.0332 2.06639,-1.0332 -1.1193,-0.2583 -1.72199,-0.5166 -1.72199,-0.5166 1.80809,-0.3444 3.01349,-2.66909 6.37138,-2.41079 -0.3444,0.5166 -1.722,1.5498 -2.1525,2.15249 1.3776,-0.5166 1.5498,-0.5166 1.5498,-0.5166 -0.6888,1.2915 -2.23859,4.30499 -2.84129,5.16599 0.6027,-0.3444 1.37759,-0.2583 1.37759,-0.2583 -0.5166,0.7749 -0.34439,1.80809 -0.5166,2.32469 z"
       id="path4798-28"
       style="color:#000000;fill:#d3bc5f;fill-opacity:1;stroke:none;marker:none;visibility:visible;display:inline;overflow:visible;enable-background:accumulate" />
    <path
       d="m 372.99489,416.81685 c 1.03319,0.2583 4.56328,0.5166 5.33818,0.94709 -1.46369,-0.0861 -3.96059,0.0861 -3.87449,0.4305 1.0332,0.4305 1.3776,0.6888 1.722,0.9471 -1.6359,-0.3444 -3.18569,0.3444 -3.96059,0.6888 0.9471,0.2583 1.29149,0.43049 1.98029,0.68879 -0.51659,0.1722 -1.80809,0.0861 -2.49689,0.0861 0.6027,0.34439 2.49689,0.94709 2.49689,0.94709"
       id="path4800-1"
       style="color:#000000;fill:none;stroke:#c8ab37;stroke-width:0.5;stroke-linecap:butt;stroke-linejoin:miter;stroke-miterlimit:4;stroke-opacity:1;stroke-dasharray:none;stroke-dashoffset:0;marker:none;visibility:visible;display:inline;overflow:visible;enable-background:accumulate" />
    <path
       d="m 458.64256,456.60608 1.58293,-1.3394 0.36529,5.47935 0.9741,-4.38348 1.09587,6.20994 c 0,0 0.48706,-5.72289 0.3653,-5.23583 -0.12177,0.48705 1.09587,5.60112 1.09587,5.60112 l 0.48705,-5.60112 1.21763,5.35759 c 0,0 0.48706,-6.20994 0.97411,-5.23583 0.48706,0.97411 1.46116,4.26172 1.46116,4.26172 l -0.60882,-4.74877 1.21764,3.40937 0.48705,-3.77466 c 0,0 0,2.92232 1.46116,4.87053 0.60882,-1.33939 0.60882,-4.74877 1.21763,-5.60111 -0.24352,2.92232 0.12177,4.13995 0.12177,4.13995 0.48705,-1.09587 1.09587,-3.77466 1.09587,-3.77466 -0.12176,2.19174 -0.36529,4.01819 -0.97411,5.23582 1.3394,-1.46116 1.58293,-2.80055 2.19175,-3.40937 0.12176,1.82645 -0.73058,3.16585 -1.09588,4.01819 1.46116,-0.36529 2.31351,-2.67879 2.31351,-2.67879 -0.60882,3.53114 0.48705,4.99229 0.60881,5.72288 1.21764,-1.21764 0.97411,-2.92232 1.21764,-3.77467 -0.12176,2.55703 0,4.01819 1.46116,4.9923 0.24352,-0.97411 -0.60882,-3.04409 -0.60882,-4.62701 0.97411,4.9923 2.92233,4.62701 4.50525,5.60112 -1.3394,-1.58293 -2.19174,-3.16585 -2.43527,-4.50525 1.58292,2.19174 3.89643,4.87053 6.69699,6.57523 -1.82645,-1.82646 -4.50525,-5.72289 -4.62701,-5.72289"
       id="path4804-45"
       style="color:#000000;fill:none;stroke:#c8ab37;stroke-width:0.5;stroke-linecap:butt;stroke-linejoin:miter;stroke-miterlimit:4;stroke-opacity:1;stroke-dasharray:none;stroke-dashoffset:0;marker:none;visibility:visible;display:inline;overflow:visible;enable-background:accumulate" />
    <path
       d="m 407.74546,403.45635 c -0.6697,1.27852 -3.83555,4.20084 -4.38348,4.38349 -0.54793,0.18264 -2.06998,-1.52204 -2.86144,-2.31351"
       id="path4806-7"
       style="color:#000000;fill:none;stroke:#000000;stroke-width:0.24826057;stroke-linecap:butt;stroke-linejoin:miter;stroke-miterlimit:4;stroke-opacity:1;stroke-dasharray:none;stroke-dashoffset:0;marker:none;visibility:visible;display:inline;overflow:visible;enable-background:accumulate" />
    <path
       d="m 375.96522,422.39056 c 1.21763,0.36529 3.89642,-1.46116 4.87053,-1.94821 1.3394,0.73058 0.24353,2.19174 0.24353,2.19174 1.3394,-0.48706 1.82645,-1.09587 2.55703,-1.3394 0.24353,0.48705 -0.12176,0.85234 -0.36529,1.58293 0.73058,0.24352 1.21763,-1.09588 1.70468,-1.46117 0,0.97411 -0.12176,1.21764 -0.48705,2.19175 0.48705,-1.09588 1.3394,-1.70469 1.82646,-2.43527 0.24352,0.85234 0.12176,1.70469 0.12176,1.70469 0.48705,-0.3653 1.46116,-2.06998 1.46116,-2.06998 0,0.9741 0.36529,2.3135 0.36529,2.3135 0.36529,-0.60882 0.97411,-2.43526 0.97411,-2.43526 0.24352,0.60881 0.12176,3.40937 0.12176,3.40937 0.60882,-0.85234 1.46116,-1.46116 1.46116,-1.46116 l -0.60882,1.94821 c 0.85235,-1.21763 1.82645,-2.55703 1.82645,-2.55703 l -0.73058,2.80056 c 0.73058,-0.24353 1.09587,-1.09587 1.46116,-1.70469 0.12177,0.85235 -0.48705,2.43527 -0.36529,3.04409 0.60882,-0.12177 1.21764,-1.09587 1.21764,-1.09587 -0.48705,2.67879 0.85234,2.67879 0.9741,3.16585 -0.48705,-1.46116 -0.48705,-2.43527 -0.24352,-3.04409 0.24352,0.85234 0.48705,1.3394 0.48705,1.3394 0,-0.97411 0.12176,-1.3394 -0.48705,-1.82645 0.48705,0 1.94821,0.73058 1.94821,0.73058 -0.73058,-1.21764 -1.46116,-2.6788 -2.06997,-2.92233 0.60881,-0.36529 2.19174,0.12177 3.04408,0.3653 0,-0.85235 -2.06998,-0.97411 -2.06998,-0.97411 0.85235,-0.24353 0.85235,-0.60882 1.70469,-0.12177 -0.97411,-0.85234 -3.16585,-0.48705 -3.16585,-0.48705"
       id="path4967-5"
       style="color:#000000;fill:none;stroke:#c8ab37;stroke-width:0.5;stroke-linecap:butt;stroke-linejoin:miter;stroke-miterlimit:4;stroke-opacity:1;stroke-dasharray:none;stroke-dashoffset:0;marker:none;visibility:visible;display:inline;overflow:visible;enable-background:accumulate" />
    <path
       d="m 389.60272,428.23521 -1.21764,-1.09587 -0.85234,1.70468 0,-2.67879 c 0,0 -2.06998,3.40937 -2.06998,3.89643 0,-2.31351 0.60882,-3.65291 0.60882,-3.65291 l -2.6788,3.53114 0.24353,-2.19174 -1.21763,1.09587 0.48705,-1.58292 -2.31351,2.06997 1.70469,-3.16584 -4.38348,3.28761"
       id="path4969-4"
       style="color:#000000;fill:none;stroke:#c8ab37;stroke-width:0.5;stroke-linecap:butt;stroke-linejoin:miter;stroke-miterlimit:4;stroke-opacity:1;stroke-dasharray:none;stroke-dashoffset:0;marker:none;visibility:visible;display:inline;overflow:visible;enable-background:accumulate" />
    <path
       d="m 377.91343,438.95038 c -0.48706,1.46117 -1.94821,2.92233 -2.92232,3.53114 1.82645,-0.12176 3.6529,-1.58292 4.26172,-2.3135 -0.24353,1.09587 -1.82646,3.04408 -2.92232,3.77466 2.3135,-0.24352 3.6529,-1.70468 4.13995,-2.92232 -0.12176,1.82645 -1.82645,4.13996 -2.19174,4.74877 1.21764,-0.60881 2.3135,-2.43526 2.67879,-2.92232 -0.24352,1.09587 -0.73058,2.19175 -1.21763,2.80056 0.97411,-0.60881 2.43527,-3.28761 2.6788,-3.89643 -0.12177,1.3394 -0.60882,2.55704 -0.85235,3.16585 1.21764,-0.36529 1.46116,-1.82645 2.19174,-2.43527 0,0.48705 -0.12176,2.6788 -0.36529,3.28761"
       id="path4971-8"
       style="color:#000000;fill:none;stroke:#c8ab37;stroke-width:0.5;stroke-linecap:butt;stroke-linejoin:miter;stroke-miterlimit:4;stroke-opacity:1;stroke-dasharray:none;stroke-dashoffset:0;marker:none;visibility:visible;display:inline;overflow:visible;enable-background:accumulate" />
    <path
       d="m 405.51993,477.90127 c 2.31671,1.24746 7.93029,0 8.64313,-0.17821 0.89104,2.0494 -0.53463,4.72253 -0.98015,5.52447 -0.44553,0.80194 -0.44553,11.13805 -0.71284,12.2964 -0.26731,1.15836 -2.31672,1.69299 -2.0494,4.27702 -0.71283,-1.24747 -0.26732,-2.76224 0.0891,-3.20776 -0.71283,0.80194 -1.15835,1.51477 -1.60388,2.40582 0.62373,-1.78209 0.35642,-2.13851 0.80195,-2.58403 -0.53463,0 -0.35642,-0.35642 -1.06926,-0.26731 0.89104,-1.06925 1.69299,-2.94045 1.69299,-2.94045 l -1.24746,0.35642 0.53462,-1.33657 c 0,0 -0.80194,0.0891 -1.78209,0.0891 0.89105,-0.44552 1.33657,-1.24746 1.33657,-1.24746 0,0 -0.62373,-0.98015 -0.98015,-0.89105 1.24746,-0.1782 2.67313,0 2.94045,0.44553 -0.53463,-1.06926 -1.15836,-1.69299 -1.69299,-1.8712 1.24746,-0.0891 2.31672,0.53463 2.58403,0.62374 -1.06925,-0.98015 -3.56418,-2.13851 -4.63343,-2.40582 1.15836,-0.26731 1.87119,-0.26731 1.87119,-0.26731 -0.80194,-0.44553 -1.69298,-0.98016 -2.31671,-1.06926 1.15836,-0.17821 3.20775,0.53463 3.20775,0.53463 -1.33656,-1.15836 -2.67313,-1.42568 -3.56417,-1.42568 1.60388,-0.80193 1.51478,-0.35641 2.31671,0 0.80195,0.35642 1.69299,0 2.04941,-0.71283 -0.53463,0.17821 -1.78209,-1.33657 -2.04941,-1.78208 1.15836,0.71283 2.58403,1.87118 5.25717,-2.67314 -1.8712,-0.80194 -2.49493,3.29687 -5.34627,1.69299 2.67313,-0.35642 4.36612,-2.13851 4.45522,-2.76224 -4.1879,3.20776 -5.34626,1.33657 -7.75208,-0.62373 z"
       id="path5138-7"
       style="color:#000000;fill:#d3bc5f;stroke:none;marker:none;visibility:visible;display:inline;overflow:visible;enable-background:accumulate" />
    <path
       d="m 409.69085,442.51088 c 2.26823,2.26822 0.37805,5.79657 3.65437,6.67866 -2.0162,-0.12601 -4.0324,-1.38614 -6.67867,-1.89018 3.27633,1.00809 3.0243,2.77227 5.9226,3.27632 -1.38615,0.50405 -4.78848,0 -5.41855,-0.50405 1.38614,1.13412 3.90639,1.89019 5.29254,2.14222 -3.02431,0.12601 -6.30064,-1.13412 -7.18272,-2.14222"
       id="path5140-0"
       style="color:#000000;fill:none;stroke:#c8ab37;stroke-width:0.5;stroke-linecap:butt;stroke-linejoin:miter;stroke-miterlimit:4;stroke-opacity:1;stroke-dasharray:none;stroke-dashoffset:0;marker:none;visibility:visible;display:inline;overflow:visible;enable-background:accumulate" />
    <path
       d="m 410.57294,457.63239 c 1.26013,0.75608 0.37804,2.14221 1.38614,3.0243 -0.88209,0.25203 -2.89829,0.12602 -4.41044,-0.50405 0.88209,1.13411 2.0162,1.89019 2.64627,2.14222 -1.0081,0.25202 -1.38614,-0.12602 -2.14222,-0.63007 1.26013,1.13411 2.14222,1.89019 3.15031,2.39424 -2.64626,-0.75607 -3.27632,-1.76417 -5.67056,-1.51215 1.63816,1.13411 2.52025,1.76418 3.40234,1.76418 -0.50405,0.12601 -3.27633,-0.50405 -3.90639,-0.88209 2.0162,0.75607 2.77228,1.76417 2.77228,1.76417 -1.13412,-0.63006 -2.77228,-0.75607 -3.40234,-0.63006 1.89018,0.63006 3.0243,2.14222 3.0243,2.14222 -1.13412,-0.12602 -2.64627,-1.13411 -2.64627,-1.13411 1.0081,1.13411 1.0081,1.38613 1.76418,1.76417 -0.75608,0.12601 -2.64627,-1.13411 -3.15032,-1.38614 0.63007,1.38614 0.88209,3.65437 0.75608,4.15842 -0.63006,-1.26013 -2.0162,-2.77228 -2.64627,-3.27633"
       id="path5144-2"
       style="color:#000000;fill:none;stroke:#c8ab37;stroke-width:0.5;stroke-linecap:butt;stroke-linejoin:miter;stroke-miterlimit:4;stroke-opacity:1;stroke-dasharray:none;stroke-dashoffset:0;marker:none;visibility:visible;display:inline;overflow:visible;enable-background:accumulate" />
    <path
       d="m 396.96358,379.75659 c -1.63816,-0.75607 -2.64626,-3.15031 -3.52835,-3.52835 0.88209,1.38613 1.0081,1.89019 1.0081,1.89019 -0.63007,-0.63007 -1.63817,-0.88209 -2.14222,-1.26013"
       id="path5146-4"
       style="color:#000000;fill:none;stroke:#c8ab37;stroke-width:0.5;stroke-linecap:butt;stroke-linejoin:miter;stroke-miterlimit:4;stroke-opacity:1;stroke-dasharray:none;stroke-dashoffset:0;marker:none;visibility:visible;display:inline;overflow:visible;enable-background:accumulate" />
    <path
       d="m 381.212,438.22644 c 0.63007,-0.25202 0.75608,-1.89018 1.00811,-2.89828 0.37803,0.75607 0.25202,2.0162 0.12601,2.64626 0.63006,-0.50405 1.0081,-2.26823 1.13411,-3.15032 0.12601,1.51216 -0.37804,3.27633 -0.50405,4.03241 0.75608,-0.50405 1.51215,-2.0162 1.51215,-2.0162 0,1.0081 0.12602,1.89018 -0.12601,2.39424 0.88209,-1.13412 1.0081,-3.15032 1.0081,-4.03241 0.75608,1.51215 1.26013,2.64627 1.26013,2.64627 0.25202,-1.89019 -0.37804,-3.02431 -0.37804,-3.02431 1.38614,1.89019 1.51215,3.65437 1.63816,4.66247 0.63007,-0.88209 0.75608,-2.39424 0.75608,-2.77228 0.63006,1.00811 0.88209,2.77228 0.88209,2.77228 0.37803,-1.26013 0,-3.27633 -0.25203,-3.90639 0.88209,0.63006 0.88209,1.38614 1.26013,2.14222 0,-1.00811 -0.50405,-2.52026 -0.50405,-2.52026 0.75607,0.50405 1.26012,1.26013 1.26012,1.26013 -0.12601,-0.88209 -0.63006,-2.26823 -0.63006,-2.26823 0.75608,1.13412 1.63816,2.39424 1.63816,2.39424 0.12602,-1.0081 -0.12601,-2.64626 -0.12601,-2.64626 0.63006,0.50405 1.38614,2.0162 1.38614,2.0162 0,-1.38614 -0.37804,-4.15842 -0.37804,-4.15842 1.51215,1.63817 2.14222,3.78038 2.14222,3.78038 0,-1.26013 -0.63007,-3.15032 -0.63007,-3.15032 l 2.39424,2.01621"
       id="path5148-0"
       style="color:#000000;fill:none;stroke:#c8ab37;stroke-width:0.5;stroke-linecap:butt;stroke-linejoin:miter;stroke-miterlimit:4;stroke-opacity:1;stroke-dasharray:none;stroke-dashoffset:0;marker:none;visibility:visible;display:inline;overflow:visible;enable-background:accumulate" />
    <path
       d="m 382.47213,447.55138 c -0.50405,1.0081 -2.0162,1.63816 -2.89829,2.0162 2.52025,-0.37804 3.40234,-0.63006 4.28443,-1.13411 -1.0081,1.38614 -1.63816,2.39424 -2.26823,3.40234 1.26013,-1.0081 2.89829,-3.0243 2.89829,-3.0243 0,0 -0.25202,2.0162 -1.13411,3.0243 1.0081,-1.13412 1.89019,-2.14221 1.89019,-2.14221 0,1.00809 -0.25203,2.14221 -0.25203,2.14221 0.25203,-0.25203 1.38614,-3.27633 1.38614,-3.27633 0,1.0081 0.12601,3.90639 0.12601,3.90639 0.37804,-1.26012 0.75608,-3.52835 0.75608,-3.52835 0.25202,0.75608 0.75607,2.64626 0.75607,2.64626 l 0.50406,-3.0243 1.26012,3.27633 0,-3.65437 2.52025,3.15032 0,-2.64627 1.51215,2.52026"
       id="path5150-2"
       style="color:#000000;fill:none;stroke:#c8ab37;stroke-width:0.5;stroke-linecap:butt;stroke-linejoin:miter;stroke-miterlimit:4;stroke-opacity:1;stroke-dasharray:none;stroke-dashoffset:0;marker:none;visibility:visible;display:inline;overflow:visible;enable-background:accumulate" />
    <path
       d="m 389.40283,442.25885 c 0,0 0.88208,5.29253 0.75607,6.0486 0.37804,-2.0162 0.88209,-5.0405 0.88209,-5.0405 0,0 0.75607,3.65436 0.88209,4.66247 0.12601,-1.89019 0.37803,-6.30063 0.37803,-6.30063 0.25203,2.64626 0.88209,6.80468 1.89019,7.93879 0.25203,-2.64627 0.12602,-8.06481 0.12602,-8.06481 0.37803,3.40235 2.0162,4.41044 2.64626,4.9145 0.12601,-1.63817 -0.50405,-4.41045 -1.0081,-5.04051 2.26823,2.77228 5.29253,4.41044 5.29253,4.41044 -0.75607,-2.0162 -4.28443,-6.55265 -4.28443,-6.55265 1.26013,1.63816 4.0324,4.28442 4.0324,4.28442 l -2.39424,-4.0324 2.89829,3.15032 -2.39423,-3.65437 3.90639,2.89829 -2.52025,-2.89829 2.89828,2.26823 -2.52025,-3.52835 c 1.51215,2.26822 4.0324,2.39424 4.0324,2.39424 -1.0081,-1.13412 -2.14221,-2.8983 -3.15031,-3.52836 1.76418,0.88209 4.28443,3.27633 4.28443,3.27633 -1.26013,-1.38614 -2.64627,-3.0243 -2.64627,-3.0243 2.26823,1.13411 4.03241,2.14221 5.41855,2.39424 -2.39424,-1.63817 -3.52835,-3.90639 -5.54456,-5.16652 2.01621,1.0081 2.64627,1.0081 3.40234,1.13411 -0.88209,-0.75607 -1.63816,-1.89019 -1.63816,-1.89019 0.75607,0.12602 1.51215,0.12602 1.51215,0.12602 -0.75608,-0.75608 -1.38614,-1.51216 -1.38614,-1.51216 1.63817,0.63007 5.54456,-0.12601 6.30063,-0.75607 -0.88209,-0.25203 -1.38613,-0.50405 -2.14221,-1.0081 1.38614,-0.12602 2.0162,-1.0081 2.14221,-1.51215"
       id="path5152-0"
       style="color:#000000;fill:none;stroke:#c8ab37;stroke-width:0.5;stroke-linecap:butt;stroke-linejoin:miter;stroke-miterlimit:4;stroke-opacity:1;stroke-dasharray:none;stroke-dashoffset:0;marker:none;visibility:visible;display:inline;overflow:visible;enable-background:accumulate" />
    <path
       d="m 421.91408,427.38936 0.50405,3.65437 -1.51215,-1.38614 0.25203,2.52025 c 0,0 -0.50405,-0.88209 -0.75608,-0.37804 -0.25203,0.50405 -2.39424,3.15032 -2.39424,3.15032 l 1.13411,1.51215 -1.38614,0.12601 0.50406,0.75608 -1.26013,-0.25203 0.75607,0.50405 -1.13411,1.13411 2.89829,0.12602 -1.0081,1.38613 1.51215,0.63007 -1.26012,0.50405 0.63006,0.37804 -0.12602,1.13411 1.00811,-0.12601 -1.13412,1.51215 1.51216,0.12601 -0.12602,1.89019 2.0162,0.37804 -0.37803,-1.63817 1.26012,0.50406 -0.63006,-3.27633 0.88209,1.13411 -0.25203,-1.76417 1.26013,-1.00811 -2.77228,-1.76417 2.39424,-0.12602 -2.39424,-1.63816 1.26013,0 -0.25203,-1.63817 1.26013,-0.75607 c 0,0 -1.13411,-1.63817 -0.63006,-1.63817 0.50404,0 1.89019,0.37805 1.89019,0.37805 l -0.75608,-1.76418 2.0162,1.38613 -1.63816,-2.01619 -0.75608,-3.52836 z"
       id="path3126-1"
       style="color:#000000;fill:#d3bc5f;stroke:none;marker:none;visibility:visible;display:inline;overflow:visible;enable-background:accumulate" />
    <path
       d="m 425.82047,418.19044 3.27633,1.63816 5.29253,-0.37804 -1.76418,1.0081 3.15032,0.88209 c 0,0 -1.63816,0.75608 -1.13411,0.75608 0.50405,0 2.64626,0.75607 2.14221,0.75607 -0.50405,0 -2.26823,0.25203 -2.26823,0.25203 l 3.65437,3.15032 -1.76417,1.63816 0.88208,1.63816 -1.89019,-0.37804 c 0,0 1.51215,0.50406 1.00811,0.75608 -0.50406,0.25203 -3.9064,1.76418 -2.8983,1.63816 1.0081,-0.12601 4.03241,-1.51215 3.15032,-0.75607 -0.88209,0.75607 -2.14222,1.51215 -1.51215,1.63816 0.63006,0.12602 1.51215,0.37804 1.51215,0.37804 l -0.63007,2.14222 -2.77227,3.52835 2.0162,-0.37804 c 0,0 -2.39424,5.79658 -1.89019,5.79658 0.50405,0 1.63816,0.25203 1.63816,0.25203 0,0 -1.76417,0.37804 -1.00809,0.50405 0.75607,0.12601 1.26012,0.25202 1.26012,0.25202 l -2.77228,1.89019 c 0,0 2.14222,1.13412 1.38614,1.0081 -0.75607,-0.12601 -3.65437,-0.12601 -3.65437,-0.12601 l -1.00809,1.76418 -2.64627,-1.51215 1.38614,-0.50406 -2.39424,-2.26822 4.0324,0.88209 -0.75608,-1.00811 1.63817,0.12602 -2.39424,-4.41044 1.63816,0.37803 -1.63816,-2.52025 1.76418,0.25203 -0.75608,-2.64627 1.26013,1.0081 -0.75608,-3.15031 0,-3.0243 c 0,0 1.63816,0.37803 1.13412,0.12601 -0.50406,-0.25203 -1.38614,-1.63817 -1.38614,-1.63817 l 1.13411,-1.0081 -1.76418,-3.27633 1.38614,-0.63006 c 0,0 -2.77228,-0.88209 -4.28443,-6.42664 z"
       id="path3127-5"
       style="color:#000000;fill:#d3bc5f;stroke:none;marker:none;visibility:visible;display:inline;overflow:visible;enable-background:accumulate" />
    <path
       d="m 497.01761,459.27055 -1.38614,-1.89019 c 0,0 3.15031,-0.12601 4.15841,-0.12601 -4.28443,-0.88209 -10.08101,-2.14221 -11.34113,-2.77228 3.27632,0.50405 4.78848,0.75608 5.79657,0.63007 -4.78847,-1.26013 -9.45094,-3.27633 -10.58505,-4.53646 1.63816,0.88209 4.66246,1.0081 4.66246,1.0081 -1.51215,-0.63006 -2.64626,-1.63816 -3.52835,-2.14221 1.89019,1.0081 5.54455,1.13411 6.17462,1.0081 -3.15032,-0.75608 -5.0405,-2.52025 -5.92259,-3.65437 2.26822,1.51215 4.15841,1.76418 5.0405,2.14222 -1.76418,-0.75608 -3.40234,-1.89019 -3.40234,-1.89019 1.13411,0.25202 3.15032,0.25202 3.15032,0.25202 l -2.26823,-1.0081 c 0,0 2.52025,0.25203 3.27633,0.50405 -2.26823,-1.38614 -6.55266,-2.39424 -6.55266,-2.39424 4.0324,0.50405 7.05671,1.51215 7.05671,1.51215 -1.89019,-1.13411 -4.41045,-2.26822 -4.9145,-2.39424 3.40235,0.25203 6.55266,0.63007 7.30874,0.75608 -5.16652,-1.51215 -9.955,-2.0162 -12.34924,-3.0243 5.67057,1.13411 13.23133,1.63816 14.61746,1.13411"
       id="path3129-8"
       style="color:#000000;fill:none;stroke:#c8ab37;stroke-width:0.5;stroke-linecap:butt;stroke-linejoin:miter;stroke-miterlimit:4;stroke-opacity:1;stroke-dasharray:none;stroke-dashoffset:0;marker:none;visibility:visible;display:inline;overflow:visible;enable-background:accumulate" />
    <path
       d="m 404.90238,475.14814 2.39424,0.88209 c -0.50405,-0.75608 -1.26013,-2.26823 -1.26013,-2.26823 1.63817,1.38614 3.90639,3.02431 3.90639,3.02431 -1.13411,-1.26013 -2.26822,-2.14222 -2.26822,-2.14222 l 3.65436,1.13412 -1.63817,-1.76418 4.66247,1.13411 c 0,0 -5.41854,-2.89829 -4.91449,-2.77228 0.50405,0.12602 3.02431,1.13412 3.02431,1.13412 l -0.88209,-1.89019 2.77227,1.13411"
       id="path3131-0"
       style="color:#000000;fill:none;stroke:#c8ab37;stroke-width:0.5;stroke-linecap:butt;stroke-linejoin:miter;stroke-miterlimit:4;stroke-opacity:1;stroke-dasharray:none;stroke-dashoffset:0;marker:none;visibility:visible;display:inline;overflow:visible;enable-background:accumulate" />
    <path
       d="m 408.43073,508.16345 c -0.50405,1.0081 -2.0162,2.26823 -3.15031,2.89829 0.50404,0.12601 1.13411,1.76418 1.13411,1.76418 0,0 -1.76418,-0.63007 -3.02431,-0.75608 2.26823,1.0081 1.76418,2.77228 0.88209,4.0324 1.51215,-0.63006 1.13412,0.75608 0.88209,1.63817 -1.13411,-0.50405 -3.15031,-0.37804 -4.53645,-0.25203 2.0162,0.63007 1.51215,2.01621 0.63006,2.39424 1.89019,-0.37803 1.76418,0.88209 1.76418,0.88209 2.14221,-0.63006 3.65436,0.25203 3.65436,1.51215 0,-0.88209 -0.50404,-2.0162 0.25203,-3.52835 0.75608,-1.51215 0.69299,-4.15999 0.63006,-5.41854 -0.12601,-2.52025 1.38614,-1.51216 0.88209,-5.16652 z"
       id="path3135-8"
       style="color:#000000;fill:#d3bc5f;stroke:none;marker:none;visibility:visible;display:inline;overflow:visible;enable-background:accumulate" />
    <path
       d="m 404.52114,521.76628 c 0.75607,0.25202 2.01854,1.27422 0.88442,1.1482 -1.13411,-0.12601 -2.14124,0 -2.14124,0 0.63006,0.63006 0.63616,1.25682 0.63616,1.25682 -0.50405,-0.37804 -1.89298,-0.3879 -1.89298,-0.3879 0.25202,0.88209 -0.12179,3.28802 0.7603,4.42214 -0.75608,0.50405 -3.28946,-0.51204 -3.28946,-0.51204 1.0081,1.38614 1.13503,1.76698 2.01712,1.89299 -2.64626,0.63006 -5.15894,-0.50074 -4.65489,-1.25682 -1.13411,0 -1.89721,0.24449 -2.65328,0.49652 -0.50405,-1.13411 -1.25539,-1.88266 -2.38951,-0.49652 -0.82007,-0.82007 -0.54323,-1.96691 0.71375,-2.52916 -0.85415,0.2509 -1.34992,0.57388 -1.34992,2.43606 0,2.23859 1.37335,1.37182 2.23435,2.40502 0.861,1.0332 1.89634,-0.006 3.27394,0.68272 1.37759,0.6888 4.13524,-0.1646 4.99624,-0.85339 3.27179,0.1722 4.47021,-0.009 4.29801,-7.75815 0.17697,-0.28959 0.34737,-0.59226 0.51204,-0.89994 -0.75744,0.1231 -1.49201,0.13867 -1.95505,-0.0465 z"
       id="path3137-1"
       style="color:#000000;fill:#d3bc5f;stroke:none;marker:none;visibility:visible;display:inline;overflow:visible;enable-background:accumulate" />
    <path
       d="m 503.31824,471.87182 c 0,0 -3.78038,-2.64627 -6.55266,-3.40235 3.15031,1.26013 4.66246,3.0243 4.91449,3.78038 -1.13411,-0.75608 -2.14221,-1.38614 -2.14221,-1.38614 1.0081,2.14222 2.0162,6.30063 2.52025,7.81278 -1.13411,-1.63816 -2.52025,-3.65436 -7.18272,-4.15841 2.89829,0.75607 5.41854,3.52835 5.92259,4.53645 -2.64626,-0.37804 -3.78037,-1.0081 -5.67057,-1.89019 1.76418,1.26013 5.04051,3.27633 5.04051,3.27633 -1.76418,-0.37804 -3.27633,-0.75607 -4.53645,-1.51215"
       id="path3139-0"
       style="color:#000000;fill:none;stroke:#c8ab37;stroke-width:0.5;stroke-linecap:butt;stroke-linejoin:miter;stroke-miterlimit:4;stroke-opacity:1;stroke-dasharray:none;stroke-dashoffset:0;marker:none;visibility:visible;display:inline;overflow:visible;enable-background:accumulate" />
    <path
       d="m 503.57711,480.47744 0,1.22579 -1.64473,-0.38791 1.13269,1.39647 -1.64473,-0.38791 1.14821,1.1482 c 0,0 -2.27103,-1.14022 -1.89299,-0.63616 0.37804,0.50405 1.62921,3.64632 1.62921,3.64632 l -1.62921,-0.86891 0.12413,2.01712 c 0,0 1.76886,0.87313 1.76886,1.62921 0,0.75608 -0.13309,2.02322 1.50508,2.65328 1.63816,0.63007 1.37907,1.8878 1.50508,3.27394 0.12601,1.38614 1.01655,2.00674 1.52059,4.77902 0.50405,2.77227 1.89299,0.63616 1.89299,0.63616 0,0 -1.13081,-0.50639 -1.25682,-0.88442 -0.12601,-0.37804 0.8769,-0.87832 1.38095,-0.24826 -0.63006,-1.76418 -1.76886,-3.78598 -1.76886,-3.78598 1.04678,0.34893 1.73714,0.74714 2.2809,1.19476 -0.82482,-1.05851 -1.7496,-2.01926 -2.23435,-2.74639 -1.03319,-1.54979 -2.2313,-5.52107 -2.5757,-7.58746 -0.30184,-1.81107 -1.03993,-5.15906 -1.2413,-6.06687 z"
       id="path3141-2"
       style="color:#000000;fill:#d3bc5f;stroke:none;marker:none;visibility:visible;display:inline;overflow:visible;enable-background:accumulate" />
    <path
       d="m 395.19941,405.8412 -0.88209,-0.75608"
       id="path3143-0"
       style="color:#000000;fill:none;stroke:#c8ab37;stroke-width:0.24826057;stroke-linecap:round;stroke-linejoin:miter;stroke-miterlimit:4;stroke-opacity:1;stroke-dasharray:none;stroke-dashoffset:0;marker:none;visibility:visible;display:inline;overflow:visible;enable-background:accumulate" />
    <path
       d="m 395.19941,407.98342 -0.88209,-0.75608"
       id="path3145-5"
       style="color:#000000;fill:none;stroke:#c8ab37;stroke-width:0.24826057;stroke-linecap:round;stroke-linejoin:miter;stroke-miterlimit:4;stroke-opacity:1;stroke-dasharray:none;stroke-dashoffset:0;marker:none;visibility:visible;display:inline;overflow:visible;enable-background:accumulate" />
    <path
       d="m 396.58555,406.72329 -0.75608,-0.75608"
       id="path3147-3-1"
       style="color:#000000;fill:none;stroke:#c8ab37;stroke-width:0.24826057;stroke-linecap:round;stroke-linejoin:miter;stroke-miterlimit:4;stroke-opacity:1;stroke-dasharray:none;stroke-dashoffset:0;marker:none;visibility:visible;display:inline;overflow:visible;enable-background:accumulate" />
    <path
       d="m 398.0977,407.73139 -1.13412,-1.0081"
       id="path3149-2"
       style="color:#000000;fill:none;stroke:#c8ab37;stroke-width:0.24826057;stroke-linecap:round;stroke-linejoin:miter;stroke-miterlimit:4;stroke-opacity:1;stroke-dasharray:none;stroke-dashoffset:0;marker:none;visibility:visible;display:inline;overflow:visible;enable-background:accumulate" />
    <path
       d="m 397.08959,408.99152 -1.13411,-0.88209"
       id="path3151-5"
       style="color:#000000;fill:none;stroke:#c8ab37;stroke-width:0.24826057;stroke-linecap:round;stroke-linejoin:miter;stroke-miterlimit:4;stroke-opacity:1;stroke-dasharray:none;stroke-dashoffset:0;marker:none;visibility:visible;display:inline;overflow:visible;enable-background:accumulate" />
    <path
       d="m 510.74563,498.58495 c 0.23492,0.98154 -0.11296,1.97492 -1.2413,3.10325 -1.33657,1.33657 -0.53816,5.7991 0.26378,5.71 0.80194,-0.0891 0.35425,-3.20434 1.3344,-3.38255 0.0505,-0.009 0.10717,-0.0173 0.15516,0 -0.10918,-1.56858 -0.15513,-2.79316 -0.0776,-3.336 0.0992,-0.69426 -0.0943,-1.40016 -0.43446,-2.0947 z m -1.02407,10.008 c -0.22503,0.0319 -0.40704,0.16238 -0.57411,0.49652 -0.44552,0.89105 1.33748,2.93886 0.71375,4.81005 -0.62373,1.87119 0.17959,4.00857 1.07063,5.16693 0.89104,1.15835 -1.51877,2.84837 -0.0931,3.73942 1.42567,0.89104 0.36178,4.90406 1.16372,5.6169 0.49784,0.44252 0.30799,1.36312 0.0931,2.06366 0.32222,-0.63929 0.55923,-1.43579 0.63617,-2.43605 1.37759,-0.34441 1.04415,-4.992 0.52755,-7.23059 -0.29942,-1.29749 -1.05817,-7.02856 -1.58266,-12.10271 -0.0867,0.0739 -0.17786,0.11697 -0.29481,0.10862 -0.77967,-0.0557 -1.28521,-0.28583 -1.66024,-0.23275 z"
       id="path3153-4"
       style="color:#000000;fill:#d3bc5f;stroke:none;marker:none;visibility:visible;display:inline;overflow:visible;enable-background:accumulate" />
    <path
       d="m 504.83393,522.37141 c -0.0963,0.55276 -0.22112,1.01578 -0.35688,1.38095 0.22691,-0.48148 0.35751,-0.9549 0.35688,-1.38095 z m -0.8534,2.20332 c -1.1068,0.99245 -5.16464,2.06773 -4.6704,5.19795 0.5166,3.27179 3.61529,1.72231 3.61529,1.72231 0.3444,2.06639 4.47813,1.03168 5.16693,0.17068 0.68409,1.23138 2.98835,1.03779 4.08078,-1.3344 0.004,-0.0162 0.011,-0.0303 0.0155,-0.0466 0.0865,-0.31122 0.18303,-0.64338 0.26378,-0.97753 -1.24746,2.13851 -2.22865,3.12847 -3.83252,1.6137 -1.8712,0.0891 -2.1408,-2.93749 -1.78438,-3.73943 -1.78209,0.53463 -1.95813,2.57263 -1.3344,3.19636 0.62373,0.62373 0.16531,1.6988 -0.99304,1.52059 -1.15836,-0.17821 -2.85009,-1.87177 -2.04815,-3.47564 -2.49492,0.53462 -2.57296,-0.89379 -0.43446,-2.14125 0.85279,-0.49746 1.49337,-1.09007 1.95506,-1.70679 z"
       id="path3155-9"
       style="color:#000000;fill:#d3bc5f;stroke:none;marker:none;visibility:visible;display:inline;overflow:visible;enable-background:accumulate" />
    <path
       d="m 474.35004,413.25831 c -0.73058,0.85234 -1.21763,3.16585 -1.58292,4.38348 0.85234,-1.21763 1.21763,-2.31351 2.06997,-2.43527 -0.24352,2.19174 -2.06997,3.89643 -2.06997,3.89643 0.85234,0 1.46116,-0.73058 1.94821,-1.46116 -0.24352,1.21763 0.12176,3.77466 1.09587,4.50524 -0.48705,-0.85234 0.12176,-3.16584 0.36529,-3.6529 -0.12176,0.97411 0.85235,4.26172 0.73058,5.60112 0.48706,-1.21763 0.36529,-2.92232 0.48706,-3.40937 0.48705,2.3135 2.19174,3.53113 3.04408,4.13995 -1.09587,-3.89643 -1.46116,-7.42757 0.24353,-13.02869 -0.73058,6.20994 -0.24353,9.86284 1.70468,11.56753 -0.9741,-2.43527 -0.9741,-6.3317 -0.85234,-8.52344 0.12177,3.16585 1.21763,5.47936 1.21763,5.47936 0.60882,-1.58293 1.09588,-4.62702 1.7047,-5.47936 0.48705,1.21764 -0.12177,3.28761 -0.3653,4.13996 0.97411,-0.12177 1.58293,-1.21764 1.94822,-1.70469 -0.12177,1.70469 -0.24353,3.04409 -0.97411,4.38348 0.48705,-0.12176 0.97411,-0.9741 0.97411,-0.9741 -0.36529,0.9741 0,1.46115 0,2.19174 0.24352,-1.3394 0.48705,-1.82645 0.73058,-2.43527 0,1.46116 0.60882,1.58292 0.60882,2.06997 -0.12177,-0.9741 0,-2.19173 0.12176,-2.80055 0.12176,2.67879 3.28761,3.6529 4.87053,2.06997 -1.09586,0.12177 -3.40937,1.82646 -3.77466,-1.46115 0.73058,0.85234 1.09587,0.9741 1.70469,1.09586 -0.97411,-1.09586 -2.06998,-2.55703 -2.19174,-3.16584 0.60881,1.09587 0.9741,0.36528 1.58292,0.85234 -0.60882,-0.24353 -1.09587,-1.3394 -0.97411,-3.28761 0.48706,0.85234 0.97411,1.09587 0.97411,1.09587 -0.48705,-1.21764 0.36529,-2.31351 0.36529,-3.16585 0,-0.85234 1.09587,-2.92232 -1.09587,-7.54933 1.82645,2.92232 2.06998,6.57522 2.19174,7.54933 0.24353,-2.92232 0.24353,-6.3317 -0.12176,-8.03638 0.97411,1.46116 0.85234,5.9664 0.85234,5.9664 0.48705,-1.33939 0.48705,-1.46116 1.09587,-1.94821 -0.60882,1.3394 -0.60882,2.55703 -0.73058,3.16585 1.09587,-1.3394 1.94822,-2.19174 3.16585,-2.55703 -0.12176,0.73058 -1.58293,2.55703 -2.06998,3.04408 1.58293,-0.73058 4.38348,-3.77466 4.38348,-3.77466 -0.48705,1.33939 -2.19174,3.04408 -2.19174,3.04408 1.3394,-0.48705 4.01819,-2.43527 3.77467,-1.94821 -0.60882,1.33939 -4.62701,3.16585 -5.23583,3.53113 1.3394,0.24353 4.38349,-1.09586 4.9923,-1.94821 -0.12176,1.3394 -2.43527,2.43527 -3.16585,2.67879 0.24353,0.12177 2.31351,-0.24352 2.31351,-0.24352 -0.73058,0.9741 -2.6788,1.70469 -3.77467,1.58292 1.21764,0.24353 3.04409,0.12177 3.53114,-0.36529 0.36529,0.73058 -0.73058,1.3394 -1.46116,1.58293 0.97411,0.12176 2.10739,-0.47539 2.10739,-0.47539 l -1.09672,2.53193 2.14222,-1.51215 0.25202,2.26823 -2.39424,2.39424 2.01621,-0.75608 -2.77228,3.65437 -1.63817,-0.25202 0.12602,1.38613 -2.39424,-1.38613 -5.54456,0 1.26013,2.39424 -2.39424,-1.00811 3.52835,3.52836 -1.76418,-0.50405 0.63007,1.26013 4.78848,3.27632 -4.66247,-0.75607 -2.89829,3.27633 -3.52835,0.25202 0.63006,-1.89019 -1.76417,0 1.76417,-1.26013 -2.0162,-1.0081 2.89829,-0.25202 -1.89019,-1.51215 1.51215,-0.63007 -2.52025,-0.50405 2.64627,-0.50405 -4.15842,-1.76417 0.25202,-1.13412 -2.52025,0.12601 -2.77228,2.8983 1.13412,1.26012 -1.76418,-0.50405 -0.12601,2.39424 -3.90639,2.64626 2.39424,-0.75607 c 0,0 -1.51216,2.39424 -1.51216,2.89829 0,0.50405 1.26013,-1.0081 1.26013,-1.0081 l -0.25202,2.77228 2.26822,-0.75608 -2.0162,4.15842 -0.25202,6.30063 -1.38615,2.52025 c 0,0 -1.38613,-3.0243 -1.26012,-3.52835 0.12601,-0.50405 -3.78038,-4.15842 -3.78038,-4.15842 l 2.64627,1.13411 c 0,0 -1.0081,-2.0162 -1.63817,-2.52025 -0.63006,-0.50405 1.89019,0.50405 1.89019,0.50405 l -2.64626,-2.26822 c 0,0 1.26012,0.25202 1.89019,0.25202 0.63006,0 -2.89829,-3.65436 -2.89829,-3.65436 l 1.51215,-1.63817 c 0,0 -2.52026,-1.89019 -3.15032,-2.14221 -0.63006,-0.25203 -0.37804,-2.26823 -0.37804,-2.26823 l -5.54455,-3.0243 3.27633,-0.12602 -6.42665,-3.15031 5.79658,1.51215 -2.77228,-1.38614 4.03241,-0.12601 1.89019,1.51215 2.64626,0.12601 c 0,-0.50405 1.0081,-1.0081 1.0081,-1.0081 l 0.88209,1.26013 c 0,0 2.01621,-1.26013 2.64627,-1.51215 0.63006,-0.25203 -0.25203,1.51215 -0.50405,2.52025 2.39424,-2.39424 5.0405,-1.63816 5.0405,-1.63816 l 1.76418,-1.13412 -4.41044,-0.75608 c 0,0 -1.26013,-3.52835 -1.76418,-3.40234 -0.50405,0.12602 -1.51215,-0.25202 -2.77228,0.25203 0,0 0.12602,-1.38614 0.50405,-2.52025 -0.63006,0 -6.17462,-0.88209 -7.43474,-0.88209 2.39424,-0.88209 7.05671,-1.51215 9.32493,-1.38614 -0.50405,-0.50405 -6.55265,-0.37804 -9.32493,-0.75608 0,0 10.75275,-0.55142 13.10913,-0.41887 0.27818,-0.47676 0.86319,-1.993 1.01899,-1.993 z"
       id="path4141-7-6-0"
       style="color:#000000;fill:#d3bc5f;stroke:none;marker:none;visibility:visible;display:inline;overflow:visible;enable-background:accumulate" />
    <path
       d="m 482.08141,395.85035 c 2.55315,1.18539 4.28565,4.01209 5.01512,6.65643 0.27355,-2.09723 -0.36474,-4.19446 -0.91184,-5.01512 2.09723,1.09421 3.46499,4.19446 4.10328,5.1063 -0.27356,-2.09723 -0.5471,-3.46499 -0.91184,-3.92091 1.0942,1.09421 2.09723,2.55315 2.37078,3.46499"
       id="path3176-1-4"
       style="color:#000000;fill:none;stroke:#c8ab37;stroke-width:0.5;stroke-linecap:butt;stroke-linejoin:miter;stroke-miterlimit:4;stroke-opacity:1;stroke-dasharray:none;stroke-dashoffset:0;marker:none;visibility:visible;display:inline;overflow:visible;enable-background:accumulate" />
    <path
       d="m 186.95126,85.424568 a 1.3773423,1.1018739 0 1 1 -2.75469,0 1.3773423,1.1018739 0 1 1 2.75469,0 z"
       transform="matrix(0.49652116,0,0,0.49652116,301.44601,348.96723)"
       id="path3178-7"
       style="color:#000000;fill:#ffffff;stroke:none;marker:none;visibility:visible;display:inline;overflow:visible;enable-background:new" />
    <path
       d="m 186.95126,85.424568 a 1.3773423,1.1018739 0 1 1 -2.75469,0 1.3773423,1.1018739 0 1 1 2.75469,0 z"
       transform="matrix(0.35595791,0,0,0.35595791,342.84434,363.7337)"
       id="path3178-7-8"
       style="color:#000000;fill:#ffffff;stroke:none;marker:none;visibility:visible;display:inline;overflow:visible;enable-background:new" />
    <path
       d="m 385.58452,406.80485 c 3.16585,-0.0609 4.80101,1.98424 6.57523,3.28761 1.99349,1.46444 3.52486,1.24939 6.94051,0.48706 2.91339,-0.65024 5.35759,-0.24353 5.96641,1.33939 0.60881,1.58293 1.97959,0.88624 3.16585,-0.24353 1.27851,-1.21763 0.60881,-2.86143 0.60881,-2.86143 0,0 0.60882,-0.0609 0.97411,0.0609"
       id="path4145-8"
       style="color:#000000;fill:none;stroke:#c8ab37;stroke-width:0.5;stroke-linecap:butt;stroke-linejoin:round;stroke-miterlimit:4;stroke-opacity:1;stroke-dasharray:none;stroke-dashoffset:0;marker:none;visibility:visible;display:inline;overflow:visible;enable-background:accumulate" />
  </g>
</svg>
