<?xml version="1.0" encoding="UTF-8" standalone="no"?>
<svg xmlns="http://www.w3.org/2000/svg" id="pupils_human_laughing" width="560" height="560">
  <path id="path42970" d="M 273.03906 126.50781 C 272.82718 126.50756 272.60792 126.52237 272.38086 126.55273 A 0.6136024 0.6136024 0 0 0 272.13281 127.03906 C 272.53871 127.03775 272.94982 127.05232 273.35938 127.08594 A 0.6136024 0.6136024 0 0 0 273.36133 127.04688 A 0.6136024 0.6136024 0 0 0 273.04102 126.50781 A 0.6136024 0.6136024 0 0 0 273.03906 126.50781 z" style="fill:#000000;stroke:none"/>
  <path id="path42980" d="M 288.12109 126.32031 C 288.07755 126.32346 288.03721 126.33541 287.99414 126.33984 A 0.6136024 0.6136024 0 0 0 287.74414 126.83594 A 0.6136024 0.6136024 0 0 0 287.75195 126.92773 C 288.19112 126.87818 288.59433 126.86341 288.96875 126.87109 A 0.6136024 0.6136024 0 0 0 288.9707 126.83594 A 0.6136024 0.6136024 0 0 0 288.69922 126.32422 C 288.50307 126.31461 288.30707 126.30685 288.12109 126.32031 z" style="fill:#000000;stroke:none"/>
</svg>
