<?xml version="1.0" encoding="UTF-8" standalone="no"?>
<svg xmlns="http://www.w3.org/2000/svg" id="pupils_human_revulsion" width="560" height="560">
  <g id="g47324">
    <path id="path46625-3-9" d="M 272.69141 126.89648 C 272.5104 126.89128 272.33069 126.90056 272.15039 126.90625 A 0.6136024 0.6136024 0 0 0 272.13281 127.04688 A 0.6136024 0.6136024 0 0 0 272.24023 127.39258 C 272.58237 127.397 272.88663 127.4027 273.23828 127.41211 A 0.6136024 0.6136024 0 0 0 273.36133 127.04688 A 0.6136024 0.6136024 0 0 0 273.35156 126.94336 C 273.13176 126.92136 272.91173 126.90282 272.69141 126.89648 z" style="fill:#000000;stroke:none"/>
    <path id="path46635-8-17" d="M 288.625 126.625 C 288.32161 126.63851 288.03174 126.6681 287.75586 126.70898 A 0.6136024 0.6136024 0 0 0 287.74414 126.83594 A 0.6136024 0.6136024 0 0 0 287.89062 127.23242 C 288.21441 127.22037 288.52128 127.20437 288.85547 127.19336 A 0.6136024 0.6136024 0 0 0 288.9707 126.83594 A 0.6136024 0.6136024 0 0 0 288.93555 126.62891 C 288.83305 126.62985 288.72497 126.62055 288.625 126.625 z" style="fill:#000000;stroke:none"/>
  </g>
</svg>
