<?xml version="1.0" encoding="UTF-8" standalone="no"?>
<svg xmlns="http://www.w3.org/2000/svg" id="pupils_human_betrayal" width="560" height="560">
  <path id="path46625-3-4-3" d="M 272.74805 126.43164 A 0.6136024 0.6136024 0 0 0 272.13281 127.04688 A 0.6136024 0.6136024 0 0 0 272.54492 127.625 C 272.68334 127.62612 272.81963 127.6213 272.95898 127.62109 A 0.6136024 0.6136024 0 0 0 273.36133 127.04688 A 0.6136024 0.6136024 0 0 0 272.74805 126.43164 z" style="fill:#000000;stroke:none"/>
  <path id="path46635-8-5-9" d="M 288.35742 126.2207 A 0.6136024 0.6136024 0 0 0 287.74414 126.83594 A 0.6136024 0.6136024 0 0 0 288.26953 127.44141 C 288.34247 127.43795 288.4156 127.43753 288.48828 127.43359 A 0.6136024 0.6136024 0 0 0 288.9707 126.83594 A 0.6136024 0.6136024 0 0 0 288.35742 126.2207 z" style="fill:#000000;stroke:none"/>
</svg>
