<?xml version="1.0" encoding="UTF-8" standalone="no"?>
<svg xmlns="http://www.w3.org/2000/svg" id="pupils_human_terror" width="560" height="560">
  <path id="path46625-3-41" d="M 272.74805 126.43164 A 0.6136024 0.6136024 0 0 0 272.13281 127.04688 A 0.6136024 0.6136024 0 0 0 272.25977 127.41992 C 272.59784 127.42053 272.88039 127.42579 273.22461 127.42969 A 0.6136024 0.6136024 0 0 0 273.36133 127.04688 A 0.6136024 0.6136024 0 0 0 272.74805 126.43164 z" style="fill:#000000;stroke:none"/>
  <path id="path46635-8-13" d="M 288.35742 126.2207 A 0.6136024 0.6136024 0 0 0 287.74414 126.83594 A 0.6136024 0.6136024 0 0 0 287.89648 127.23828 C 288.23831 127.20784 288.54765 127.17978 288.88086 127.1543 A 0.6136024 0.6136024 0 0 0 288.9707 126.83594 A 0.6136024 0.6136024 0 0 0 288.35742 126.2207 z" style="fill:#000000;stroke:none"/>
</svg>
