<?xml version="1.0" encoding="UTF-8" standalone="no"?>
<svg xmlns="http://www.w3.org/2000/svg" id="pupils_human_aversion" width="560" height="560">
  <g id="g47100">
    <path id="path46625-3-8-9" d="M 272.96094 126.59375 C 272.75252 126.58169 272.53715 126.59184 272.32227 126.60352 A 0.6136024 0.6136024 0 0 0 272.13281 127.04688 A 0.6136024 0.6136024 0 0 0 272.74805 127.66016 A 0.6136024 0.6136024 0 0 0 273.36133 127.04688 A 0.6136024 0.6136024 0 0 0 273.19141 126.62305 C 273.11394 126.61533 273.03935 126.59829 272.96094 126.59375 z" style="fill:#000000;stroke:none"/>
    <path id="path46635-8-14-6" d="M 288.52344 126.38672 C 288.29715 126.39394 288.08772 126.42377 287.87891 126.45312 A 0.6136024 0.6136024 0 0 0 287.74414 126.83594 A 0.6136024 0.6136024 0 0 0 288.35742 127.44922 A 0.6136024 0.6136024 0 0 0 288.9707 126.83594 A 0.6136024 0.6136024 0 0 0 288.78906 126.39844 C 288.70211 126.39763 288.60815 126.38401 288.52344 126.38672 z" style="fill:#000000;stroke:none"/>
  </g>
</svg>
