<?xml version="1.0" encoding="UTF-8" standalone="no"?>
<!-- Created with Inkscape (http://www.inkscape.org/) -->

<svg
   xmlns:dc="http://purl.org/dc/elements/1.1/"
   xmlns:cc="http://creativecommons.org/ns#"
   xmlns:rdf="http://www.w3.org/1999/02/22-rdf-syntax-ns#"
   xmlns:svg="http://www.w3.org/2000/svg"
   xmlns="http://www.w3.org/2000/svg"
   version="1.1"
   width="560"
   height="560"
   id="pupils_neutral">
  <metadata
     id="metadata33309">
    <rdf:RDF>
      <cc:Work
         rdf:about="">
        <dc:format>image/svg+xml</dc:format>
        <dc:type
           rdf:resource="http://purl.org/dc/dcmitype/StillImage" />
        <dc:title></dc:title>
      </cc:Work>
    </rdf:RDF>
  </metadata>
  <defs
     id="defs33307" />
  <g
     transform="translate(-1.7436975e-7,-0.99999547)"
     id="g33218"
     style="display:inline;enable-background:new">
    <path
       d="m 934.4682,621.25104 a 28.878178,28.878178 0 1 1 -57.75635,0 28.878178,28.878178 0 1 1 57.75635,0 z"
       transform="matrix(0.02245698,0,0,0.02245698,268.36626,113.81238)"
       id="path17147-6-0"
       style="color:#000000;fill:#000000;stroke:none;stroke-width:0.125;marker:none;visibility:visible;display:inline;overflow:visible;enable-background:accumulate" />
    <path
       d="m 289.72421,127.69549 c -0.003,-0.12112 0,-0.26019 -0.0929,-0.33453 -0.0567,-0.0453 -0.26364,0.0261 -0.2509,0.20444 0.009,0.13009 0.0929,0.22302 0.15797,0.26948 0.0651,0.0465 0.18974,0.0205 0.18585,-0.13939 z"
       id="path17167-4"
       style="color:#000000;fill:#ffffff;stroke:none;stroke-width:0.5;marker:none;visibility:visible;display:inline;overflow:visible;enable-background:accumulate" />
    <path
       d="m 287.85873,127.83488 c 0.0122,-0.0414 -0.002,-0.13474 -0.0302,-0.15333 -0.0279,-0.0186 -0.0888,-0.007 -0.0976,0.0441 -0.004,0.023 0.005,0.12124 0.0279,0.13939 0.0325,0.0256 0.0841,0.0236 0.0999,-0.0302 z"
       id="path17169-7"
       style="color:#000000;fill:#ffffff;stroke:none;stroke-width:0.5;marker:none;visibility:visible;display:inline;overflow:visible;enable-background:accumulate" />
    <path
       d="m 934.4682,621.25104 a 28.878178,28.878178 0 1 1 -57.75635,0 28.878178,28.878178 0 1 1 57.75635,0 z"
       transform="matrix(0.02245698,0,0,0.02245698,252.05681,113.81238)"
       id="path17147-6-0-1"
       style="color:#000000;fill:#000000;stroke:none;stroke-width:0.125;marker:none;visibility:visible;display:inline;overflow:visible;enable-background:accumulate" />
    <path
       d="m 273.41476,127.69549 c -0.003,-0.12112 0,-0.26019 -0.0929,-0.33453 -0.0567,-0.0453 -0.26364,0.0261 -0.2509,0.20444 0.009,0.13009 0.0929,0.22302 0.15797,0.26948 0.0651,0.0465 0.18974,0.0205 0.18585,-0.13939 z"
       id="path17167-4-9"
       style="color:#000000;fill:#ffffff;stroke:none;stroke-width:0.5;marker:none;visibility:visible;display:inline;overflow:visible;enable-background:accumulate" />
    <path
       d="m 271.54928,127.83488 c 0.0122,-0.0414 -0.002,-0.13474 -0.0302,-0.15333 -0.0279,-0.0186 -0.0888,-0.007 -0.0976,0.0441 -0.004,0.023 0.005,0.12124 0.0279,0.13939 0.0325,0.0256 0.0841,0.0236 0.0999,-0.0302 z"
       id="path17169-7-7"
       style="color:#000000;fill:#ffffff;stroke:none;stroke-width:0.5;marker:none;visibility:visible;display:inline;overflow:visible;enable-background:accumulate" />
  </g>
</svg>
