<?xml version="1.0" encoding="UTF-8" standalone="no"?>
<svg xmlns="http://www.w3.org/2000/svg" id="pupils_human_neutral" width="560" height="560">
  <defs id="defs33019">
    <clipPath id="clipPath17580">
      <path id="path17582" d="M538 128c-.3.6-1.7 2.4-5.6.8l-1.6.2v-.2s.4-.4 1-.5c.5-.2 1.8-1.8 3-1.8 1.3 0 3 1 3 1.5z" style="color:#000000;fill:none;stroke:#008080;stroke-width:0.02662179;stroke-linecap:butt;stroke-linejoin:miter;stroke-miterlimit:4;stroke-opacity:1;stroke-dasharray:none;stroke-dashoffset:0;marker:none;visibility:visible;display:inline;overflow:visible;enable-background:accumulate"/>
    </clipPath>
    <clipPath id="clipPath17632">
      <path id="path17634" d="M515.6 128c.3.6 1.7 2.4 5.6.8l1.6.2v-.2s-.4-.4-1-.5c-.5-.2-1.8-1.8-3-1.8-1.3 0-3 1-3.2 1.5z" style="color:#000000;fill:#e6e6e6;stroke:#de8787;stroke-width:0.02662179;stroke-linecap:butt;stroke-linejoin:miter;stroke-miterlimit:4;stroke-opacity:1;stroke-dasharray:none;stroke-dashoffset:0;marker:none;visibility:visible;display:inline;overflow:visible;enable-background:accumulate"/>
    </clipPath>
  </defs>
  <path id="path24514-98" d="m 272.91552,126.80859 a 0.61360246,0.61360246 0 0 1 -1.2272,0 0.61360246,0.61360246 0 1 1 1.2272,0 z" style="fill:#000000;stroke:none"/>
  <path id="path24520-85" d="m 289.29797,126.74602 a 0.61360246,0.61360246 0 0 1 -1.2272,0 0.61360246,0.61360246 0 1 1 1.2272,0 z" style="fill:#000000;stroke:none"/>
</svg>
