<?xml version="1.0" encoding="UTF-8" standalone="no"?>
<svg xmlns="http://www.w3.org/2000/svg" id="age_lines" width="560" height="560">
  <defs id="defs47867">
    <clipPath id="clipPath64504">
      <path id="path64506" d="m 537.09673,128.0046 c -1.09106,0.0105 -4.26687,0.23635 -6.11479,0.5018 -0.16551,-3.72305 5.50523,-4.65179 6.11479,-0.5018 z" style="display:inline;fill:#f9f9f9;stroke:#de8787;stroke-width:0.25;stroke-linecap:butt;stroke-linejoin:miter;stroke-miterlimit:4;stroke-dasharray:none;stroke-opacity:1;enable-background:new"/>
    </clipPath>
    <clipPath id="clipPath64508">
      <path id="path64510" d="m 515.11483,128.4123 c 0.91991,0.0331 4.68565,-0.0571 6.30294,0.1254 -0.24331,-4.03556 -5.72235,-4.1471 -6.30294,-0.1254 z" style="display:inline;fill:#f9f9f9;stroke:#de8787;stroke-width:0.25;stroke-linecap:butt;stroke-linejoin:miter;stroke-miterlimit:4;stroke-dasharray:none;stroke-opacity:1;enable-background:new"/>
    </clipPath>
    <clipPath id="clipPath104325">
      <path id="path104327" d="m 537.09673,128.0046 c -1.31703,1.5366 -4.5469,1.662 -6.11479,0.5018 1.47382,-1.8188 3.66888,-2.446 6.11479,-0.5018 z" style="display:inline;fill:none;stroke:#ff8080;stroke-width:0.5;stroke-linecap:butt;stroke-linejoin:miter;stroke-miterlimit:4;stroke-dasharray:none;stroke-opacity:1"/>
    </clipPath>
    <clipPath id="clipPath104355">
      <path id="path104357" d="m 515.11483,128.4123 c 1.44246,1.0975 4.57826,1.3797 6.30294,0.1254 -1.88147,-1.8188 -4.07653,-2.3518 -6.30294,-0.1254 z" style="display:inline;fill:none;stroke:#ff8080;stroke-width:0.5;stroke-linecap:butt;stroke-linejoin:miter;stroke-miterlimit:4;stroke-dasharray:none;stroke-opacity:1"/>
    </clipPath>
  </defs>
  <circle id="path40699" cx="272.74722" cy="127.04607" r="0.6136024" style="fill:#000000;stroke:none"/>
  <circle id="path40709" cx="288.35782" cy="126.83508" r="0.6136024" style="fill:#000000;stroke:none"/>
</svg>
