<?xml version="1.0" encoding="UTF-8" standalone="no"?>
<svg xmlns="http://www.w3.org/2000/svg" id="pupils_human_cruel" width="560" height="560">
  <path id="path46625-3-7-4" d="m 272.5,126.48633 a 0.6136024,0.6136024 0 0 0 -0.36719,0.56055 0.6136024,0.6136024 0 0 0 0.61524,0.61328 0.6136024,0.6136024 0 0 0 0.61328,-0.61328 0.6136024,0.6136024 0 0 0 -0.24024,-0.48633 c -0.20834,-0.034 -0.41092,-0.0554 -0.62109,-0.0742 z" style="fill:#000000;stroke:none"/>
  <path id="path46635-8-58-7" d="m 288.71875,126.33789 c -0.28366,0.0251 -0.55826,0.066 -0.83789,0.11328 a 0.6136024,0.6136024 0 0 0 -0.13672,0.38477 0.6136024,0.6136024 0 0 0 0.61328,0.61328 0.6136024,0.6136024 0 0 0 0.61328,-0.61328 0.6136024,0.6136024 0 0 0 -0.25195,-0.49805 z" style="fill:#000000;stroke:none"/>
</svg>
