<?xml version="1.0" encoding="UTF-8" standalone="no"?>
<!-- Created with Inkscape (http://www.inkscape.org/) -->

<svg
   xmlns:dc="http://purl.org/dc/elements/1.1/"
   xmlns:cc="http://creativecommons.org/ns#"
   xmlns:rdf="http://www.w3.org/1999/02/22-rdf-syntax-ns#"
   xmlns:svg="http://www.w3.org/2000/svg"
   xmlns="http://www.w3.org/2000/svg"
   version="1.1"
   width="560"
   height="560"
   id="scarf_reverse_drape_cross">
  <g
     transform="matrix(0.98699342,0,0,0.98699342,-1028.1633,-3042.7707)"
     id="g4705"
     style="display:inline;enable-background:new">
    <path
       d="m 1338.1876,3287.4826 c -0.4516,-6.5475 -4.1769,-19.191 -5.7573,-21.4488"
       id="path3478-4"
       style="color:#000000;fill:#ff0000;stroke:#aa0000;stroke-width:0.5;stroke-linecap:butt;stroke-linejoin:miter;stroke-miterlimit:4;stroke-opacity:1;stroke-dasharray:none;stroke-dashoffset:0;marker:none;visibility:visible;display:inline;overflow:visible;enable-background:accumulate" />
    <path
       d="m 1315.2621,3317.4199 c -2.2351,-17.5613 -1.2772,-35.7612 -1.2772,-38.6348"
       id="path3480-9"
       style="color:#000000;fill:#ff0000;stroke:#aa0000;stroke-width:0.5;stroke-linecap:butt;stroke-linejoin:miter;stroke-miterlimit:4;stroke-opacity:1;stroke-dasharray:none;stroke-dashoffset:0;marker:none;visibility:visible;display:inline;overflow:visible;enable-background:accumulate" />
    <path
       d="m 1301.6763,3248.9018 c 0.3983,-3.5846 1.7923,-6.9701 0.7966,-10.5547 -0.9957,-3.5847 0.7966,-9.3599 10.1564,-9.1608 0,3.7838 -0.1991,9.9573 -0.1991,9.9573 6.771,5.1778 16.33,5.377 28.2787,1.3941 0,-3.983 0,-14.1394 0,-14.1394 5.1778,1.1949 7.9659,4.1821 8.165,9.1607 0.1991,4.9787 1.1949,24.495 -1.9915,28.4779 -3.1863,3.9829 -23.1076,9.6404 -37.0411,1.394 -9.7582,-5.7753 -8.165,-16.5291 -8.165,-16.5291 z"
       id="path4112-9"
       style="color:#000000;fill:#ff0000;stroke:#aa0000;stroke-width:0.5;stroke-linecap:butt;stroke-linejoin:miter;stroke-miterlimit:4;stroke-opacity:1;stroke-dasharray:none;stroke-dashoffset:0;marker:none;visibility:visible;display:inline;overflow:visible;enable-background:accumulate" />
    <path
       d="m 1340.7188,3226.4062 0,14.125 c -3.1777,1.0593 -6.1991,1.8286 -9.0313,2.2813 5.3496,-0.07 8.143,-0.038 11.3437,-1.0313 -2.1122,2.2531 -3.8036,3.7925 -10.2812,7.0313 5.2102,-1.2673 9.8549,-3.6658 13.0938,-8.0313 -2.8164,6.7593 -7.8716,8.4476 -10.4063,12.5313 -1.6354,2.6349 -1.2126,6.9509 -2.5313,9.7187 -0.6236,1.3089 -1.2411,0.4826 -1,-0.5624 0.4225,-1.8307 0.7046,-4.0912 -0.2812,-6.0626 0,1.1265 0,3.6683 -2.25,6.3438 0.157,-1.9877 0.04,-5.661 -1.4062,-7.3125 0.8449,1.2674 0.1253,2.951 -0.1563,4.5 -1.549,-1.549 -3.3538,-3.811 -7.4375,-4.9375 1.8307,1.1265 4.0617,2.9657 4.625,5.2188 -0.2816,-0.9858 -4.1982,-3.2493 -7.7188,-3.8126 -3.5203,-0.5632 -8.5895,-3.0706 -11.6874,-8.5624 2.3938,2.1121 7.307,5.0608 11.25,6.1874 -8.8715,-5.7735 -11.5614,-10.696 -12.4063,-15.9062 0.8449,0.7041 1.2789,1.4048 2.9687,2.5312 -3.3795,-4.9285 -1.6898,-8.5937 0,-8.5937 1.6898,0 3.953,0.9939 4.0938,5.5 -0.7041,-1.9714 -3.5174,-3.6612 -2.25,0 0.9316,2.6914 5.0489,4.4523 10.75,5.0937 -2.8117,-0.6546 -5.3384,-1.7991 -7.5625,-3.5 0,0 0.1875,-6.1849 0.1875,-9.9687 -9.3598,-0.1991 -11.1519,5.5716 -10.1562,9.1563 0.9957,3.5845 -0.383,6.9778 -0.7813,10.5624 0,1e-4 -1.6019,10.756 8.1563,16.5313 13.9334,8.2464 33.8449,2.5766 37.0312,-1.4063 3.1864,-3.9828 2.1991,-23.49 2,-28.4687 -0.1991,-4.9786 -2.9785,-7.9614 -8.1562,-9.1563 z"
       id="path4112-9-5"
       style="color:#000000;fill:#d40000;stroke:none;marker:none;visibility:visible;display:inline;overflow:visible;enable-background:accumulate" />
    <g
       id="g4625">
      <path
         d="m 1314.3042,3279.1043 c -10.2175,1.9158 -9.5789,14.0491 -9.2596,19.4771 0.3193,5.428 1.2772,22.67 0.3193,33.8454 -0.9579,11.1754 3.193,33.2068 3.193,37.0384 0,3.8315 1.2772,3.8315 2.235,1.9157 0.9579,-1.9157 3.5123,0.9579 7.6632,-1.5964 4.1508,-2.5544 4.7894,-4.7895 9.5788,-3.8316 4.7895,0.9579 2.2312,-11.5067 1.9158,-15.6455 -2.5543,-33.5262 0.3193,-82.6977 -15.6455,-71.2031 z"
         id="path3482-1"
         style="color:#000000;fill:#ff0000;stroke:#aa0000;stroke-width:0.5;stroke-linecap:butt;stroke-linejoin:miter;stroke-miterlimit:4;stroke-opacity:1;stroke-dasharray:none;stroke-dashoffset:0;marker:none;visibility:visible;display:inline;overflow:visible;enable-background:accumulate" />
      <path
         d="m 1318.313,3277.4062 c -1.1856,0.074 -2.5033,0.6099 -4,1.6876 -10.2175,1.9158 -9.6006,14.0719 -9.2813,19.5 0.1863,3.1677 0.6051,10.3701 0.7188,18.0312 0.836,-9.1765 2.8874,-13.0252 1.9375,-18.25 -1.1266,-6.196 -0.01,-11.5294 3.9378,-14.3457 -0.2816,0.8449 -0.8439,4.777 -1.1253,7.5934 -0.3194,3.1952 0.8409,7.323 2.8125,1.4085 -0.8449,10.7021 -1.1308,16.6328 3.0937,33.8126 0.5633,-4.2245 -0.816,-29.5827 1.7188,-37.75 1.6898,3.6613 4.5015,26.198 3.375,41.4062 -0.2817,-1.6898 -1.6848,-7.6204 -3.6563,-11 1.1265,5.351 -0.2828,32.4094 -2.8175,31.2827 -0.2816,-2.2529 -1.3178,-6.3818 -1.7134,-8.7553 -0.5633,-3.3797 -2.4273,-21.9151 -2.2527,-25.059 0.2817,-5.0694 -1.9806,-4.2892 -1.4039,-1.4059 0.8449,4.2245 0.2243,17.9133 1.1242,26.4661 0.6252,5.9415 -0.2789,15.2268 -1.4054,11.2839 -0.9508,-3.3276 -3.0696,-16.8515 -3.7188,-26.25 -0.066,1.8802 -0.1382,3.7059 -0.2812,5.375 -0.9579,11.1754 3.1875,33.1997 3.1875,37.0313 0,3.8314 1.2608,3.822 2.2187,1.9062 0.9579,-1.9157 4.8198,0.1334 7.6875,-1.5938 2.7705,-1.6686 6.4629,-3.3934 9.2809,-2.9988 4.8371,0.6774 2.5102,-9.7996 2.1879,-16.4699 -1.4035,-29.042 -0.1647,-73.6226 -11.625,-72.9063 z"
         id="path3482-3-4"
         style="color:#000000;fill:#d40000;fill-opacity:1;stroke:none;marker:none;visibility:visible;display:inline;overflow:visible;enable-background:accumulate" />
    </g>
    <g
       id="g4701">
      <path
         d="m 1334.5354,3270.2104 c -3.2826,-5.4046 0.3983,-9.9573 2.1906,-13.7411 1.7923,-3.7837 9.1607,-13.3427 11.1522,-15.5334 1.9914,-2.1906 0.9957,-5.9743 0.9957,-5.9743 6.771,1.7923 6.5718,4.182 6.5718,8.5632 0,4.3813 0.7966,6.1736 2.3898,8.7625 1.5931,2.5889 0.7966,10.7538 -2.9872,14.5376 -3.7838,3.7838 -15.3496,11.5574 -20.3129,3.3855 z"
         id="path4110-3"
         style="color:#000000;fill:#ff0000;stroke:#aa0000;stroke-width:0.5;stroke-linecap:butt;stroke-linejoin:miter;stroke-miterlimit:4;stroke-opacity:1;stroke-dasharray:none;stroke-dashoffset:0;marker:none;visibility:visible;display:inline;overflow:visible;enable-background:accumulate" />
      <path
         d="m 1348.875,3234.9688 c 0,0 0.9914,3.7781 -1,5.9687 -1.9915,2.1907 -9.3639,11.7476 -11.1562,15.5313 -1.7924,3.7838 -5.4702,8.3454 -2.1876,13.75 4.9633,8.1719 16.5288,0.3775 20.3126,-3.4063 3.7837,-3.7838 4.5931,-11.9423 3,-14.5313 -1.5932,-2.5888 -2.4063,-4.3686 -2.4063,-8.75 0,-4.3812 0.2085,-6.7701 -6.5625,-8.5624 z m 2.1875,1.7187 c 0.086,-0.032 0.1712,-0.021 0.2813,0.031 2.172,1.0216 2.7137,3.422 2.4062,5.0624 -0.4225,2.2532 -1.9823,4.6382 -3.5312,6.4688 1.2673,-0.8449 3.3737,-1.1273 4.2187,0.5625 -2.8164,0.4224 -2.8125,5.0578 -2.8125,8.4375 0,3.4029 -1.9645,7.062 -5.0625,7.3438 -3.098,0.2815 -2.8153,1.4054 -0.8437,1.9687 1.9713,0.5633 6.025,0.083 8.4374,-2.5313 1e-4,3.6613 -9.8417,9.5683 -11.25,5.3438 -1.4081,-4.2246 0.2779,-7.6177 2.8126,-12.9688 -7.6043,10.7021 -6.4452,1.1228 -4.375,-3.6562 1.5496,-3.5774 5.1666,-8.6885 7.75,-12.0938 1.2213,-1.6099 1.3649,-3.7431 1.9687,-3.9687 z"
         id="path4110-3-5"
         style="color:#000000;fill:#d40000;fill-opacity:1;stroke:none;stroke-width:0.5;marker:none;visibility:visible;display:inline;overflow:visible;enable-background:accumulate" />
    </g>
    <g
       id="g4659">
      <path
         d="m 1301.3899,3237.5236 c -1.4139,0.1143 -4.0428,3.7568 -4.4701,6.4236 -0.1515,0.9459 -0.4962,2.7267 -1.8423,3.7237 -1.5395,1.1402 -1.1947,6.4482 0.4227,9.3974 3.4824,6.3497 8.0168,19.4425 20.4005,24.5904 11.5627,4.8066 10.5368,-10.5368 8.9403,-18.1999 -1.5965,-7.6631 -8.621,-3.5123 -15.3262,-8.9403 -6.7053,-5.428 -7.3438,-7.9824 -7.0246,-10.8561 0.3193,-2.8736 0.9203,-6.3021 -1.1003,-6.1388 z"
         id="path3484-73"
         style="color:#000000;fill:#ff0000;stroke:#aa0000;stroke-width:0.5;stroke-linecap:butt;stroke-linejoin:miter;stroke-miterlimit:4;stroke-opacity:1;stroke-dasharray:none;stroke-dashoffset:0;marker:none;visibility:visible;display:inline;overflow:visible;enable-background:accumulate" />
      <path
         d="m 1301.375,3237.5312 c -1.4139,0.1144 -4.0414,3.7395 -4.4688,6.4063 -0.1514,0.9459 -0.4976,2.7218 -1.8437,3.7187 -1.5395,1.1402 -1.1799,6.4571 0.4375,9.4063 3.4824,6.3497 8.0226,19.4459 20.4062,24.5937 11.5627,4.8066 10.534,-10.5244 8.9376,-18.1874 -1.5966,-7.6632 -8.6386,-3.5095 -15.3438,-8.9376 -6.7053,-5.4279 -7.3192,-8.0013 -7,-10.875 0.3193,-2.8735 0.8956,-6.2882 -1.125,-6.125 z m -1.8438,4.5313 c 1.4083,9.0123 11.2454,14.3426 14.625,15.1875 3.3796,0.8449 0.2844,2.2812 -1.9687,2.2812 4.4887,1.8408 7.0868,3.8684 8.375,6.0626 -2.3191,-1.0856 -6.5362,-1.9051 -8.9375,-1.5626 6.7593,2.8163 6.2199,7.8735 5.375,9 -4.6084,-0.8966 -6.0178,-2.0996 -9.5938,-5.9062 1.7464,3.098 2.8275,6.75 8.7188,6.75 0,1.9715 -1.6856,2.5312 -3.0938,2.5312 3.6613,4.2247 7.0599,3.3747 9.0313,3.6563 -11.547,2.8164 -19.4345,-10.681 -21.6875,-15.4687 -2.2531,-4.7879 -3.6571,-10.4317 -3.0938,-14.6563 1.1266,5.3511 3.9346,10.9977 6.1876,12.6875 -5.0695,-9.8572 -4.5008,-16.9013 -3.9376,-20.5625 z"
         id="path3484-73-7"
         style="color:#000000;fill:#d40000;fill-opacity:1;stroke:none;marker:none;visibility:visible;display:inline;overflow:visible;enable-background:accumulate" />
    </g>
    <g
       id="g4621">
      <path
         d="m 1332.5431,3265.7523 c 5.6445,-4.7413 9.9342,3.8381 10.6115,10.3857 0.6774,6.5475 1.8063,63.6689 0.6774,74.5062 -1.1289,10.8373 -6.3218,7.4506 -12.4177,5.8702 -6.096,-1.5804 -8.5795,0.9031 -13.0951,0 -4.5155,-0.9031 -0.2258,-5.6444 0.6773,-15.3528 0.9032,-9.7084 4.2898,-43.5749 3.3867,-58.9277 -0.9031,-15.3528 5.4186,-20.7714 10.1599,-16.4816 z"
         id="path3476-40"
         style="color:#000000;fill:#ff0000;stroke:#aa0000;stroke-width:0.5;stroke-linecap:butt;stroke-linejoin:miter;stroke-miterlimit:4;stroke-opacity:1;stroke-dasharray:none;stroke-dashoffset:0;marker:none;visibility:visible;display:inline;overflow:visible;enable-background:accumulate" />
      <path
         d="m 1328.813,3264.3438 c -3.7359,0.4338 -7.1149,6.3604 -6.4375,17.875 0.9031,15.3528 -2.4719,49.2291 -3.375,58.9374 -0.9031,9.7085 -5.2031,14.4407 -0.6875,15.3438 4.5155,0.9031 6.9977,-1.5804 13.0937,0 6.096,1.5804 11.3086,4.9936 12.4375,-5.8438 0.338,-3.2444 0.4628,-10.8391 0.4688,-19.7812 -1.0114,9.1211 -1.5289,18.9086 -2.25,21.3125 -0.845,2.8164 -2.5629,-3.1208 -2.2813,-6.2187 0.2816,-3.098 2.8167,-18.8527 -0.2812,-35.1876 1.1265,12.9552 -3.654,33.2138 -5.3438,36.875 -1.6898,3.6613 -3.3735,-19.4298 -4.5,-25.0624 0.5633,11.2653 -0.2809,21.4031 -0.5625,23.6562 -0.2816,2.2531 -1.1246,-0.8395 -1.4062,-3.9375 -0.2817,-3.098 -2.2497,-17.7443 -2.5313,-21.9687 0,13.5185 -0.2801,22.5258 -1.125,26.4687 -0.8449,3.9429 -2.5316,1.9761 -2.25,-3.375 0.2816,-5.351 1.6875,-26.1787 1.6875,-32.6563 0,-6.4776 0.5111,-17.1507 1.6864,-26.4684 0.7566,-5.9992 5.6315,-12.3943 6.4714,2.2509 0.5939,10.3553 0.5631,30.9646 0.5621,36.0304 0.8449,-19.9961 0.8415,-39.4069 1.6864,-42.2233 1.4081,3.3797 2.8128,21.3959 2.5312,32.098 0.8449,-8.4491 0.8438,-15.4954 0.8438,-18.875 0,-3.3797 3.405,3.3897 4.25,15.5 0.8449,-12.6737 -0.5923,-27.9009 -1.7188,-31.8438 2.2577,3.6124 2.8862,9.9825 4.0625,17.7188 -0.2202,-9.2557 -0.4711,-16.7523 -0.6875,-18.8438 -0.6773,-6.5476 -4.9806,-15.1163 -10.625,-10.375 -1.1853,-1.0724 -2.4734,-1.5509 -3.7187,-1.4062 z"
         id="path4140-2"
         style="color:#000000;fill:#d40000;stroke:none;marker:none;visibility:visible;display:inline;overflow:visible;enable-background:accumulate" />
    </g>
  </g>
</svg>
