<?xml version="1.0" encoding="UTF-8" standalone="no"?>
<!-- Created with Inkscape (http://www.inkscape.org/) -->

<svg
   xmlns:dc="http://purl.org/dc/elements/1.1/"
   xmlns:cc="http://creativecommons.org/ns#"
   xmlns:rdf="http://www.w3.org/1999/02/22-rdf-syntax-ns#"
   xmlns:svg="http://www.w3.org/2000/svg"
   xmlns="http://www.w3.org/2000/svg"
   version="1.1"
   width="560"
   height="560"
   id="scarf_parisian_knot">
  <g
     transform="matrix(0.98699342,0,0,0.98699342,-976.20932,-1895.4044)"
     id="g5736"
     style="display:inline;enable-background:new">
    <g
       id="g5732">
      <path
         d="m 1249.3775,2088.5066 c 0.412,11.7424 13.1845,21.8368 22.8668,24.3089 9.6824,2.4721 -12.7724,-20.3947 -22.8668,-24.3089 z"
         id="path3015-2-1"
         style="color:#000000;fill:#ff0000;stroke:#aa0000;stroke-width:0.5;stroke-linecap:butt;stroke-linejoin:miter;stroke-miterlimit:4;stroke-opacity:1;stroke-dasharray:none;stroke-dashoffset:0;marker:none;visibility:visible;display:inline;overflow:visible;enable-background:accumulate" />
      <path
         d="m 1249.3775,2088.5066 c 0.412,11.7424 13.1845,21.8368 22.8668,24.3089 9.6824,2.4721 -12.7724,-20.3947 -22.8668,-24.3089 z"
         id="path3015-2-4"
         style="color:#000000;fill:#d40000;fill-opacity:1;stroke:none;marker:none;visibility:visible;display:inline;overflow:visible;enable-background:accumulate" />
    </g>
    <g
       id="g5706">
      <path
         d="m 1288.725,2082.5324 c -2.8841,4.1201 -15.2616,13.7523 -18.9527,29.6651 -4.7892,20.6466 -11.7425,66.5405 -11.7425,73.7508 0,7.2102 4.1202,1.03 12.1545,5.1502 8.0343,4.1201 11.3304,4.5321 11.9484,-0.6181 0.618,-5.1502 0.618,-46.5577 -1.442,-64.0684 -2.0601,-17.5106 11.5364,-35.4333 8.0343,-43.8796 z"
         id="path3013-1"
         style="color:#000000;fill:#ff0000;stroke:#aa0000;stroke-width:0.5;stroke-linecap:butt;stroke-linejoin:miter;stroke-miterlimit:4;stroke-opacity:1;stroke-dasharray:none;stroke-dashoffset:0;marker:none;visibility:visible;display:inline;overflow:visible;enable-background:accumulate" />
      <path
         d="m 1288.7192,2082.5312 c -2.8841,4.1202 -15.2464,13.7435 -18.9375,29.6563 -1.4834,6.3949 -3.1848,15.2856 -4.8125,24.625 2.7085,-9.9759 6.3632,-21.3564 7.0625,-20.8125 1.8774,1.4602 -0.8729,6.8023 1.0625,12.2812 3.6133,10.2289 -0.013,15.4383 1.6563,23.1563 1.0478,4.8463 0.2007,13.1438 -2.0938,6.4687 -2.2945,-6.675 -1.2484,-18.9764 -2.5,-29.4062 0,0 -1.8547,9.5967 -1.4375,32.125 0.4172,22.5282 -2.7305,20.8502 -1.6875,-9.1875 -1.2516,23.154 -8.5539,33.3837 -7.0937,18.1563 0,0 -0.1136,0.1442 -0.125,0.1562 -1.0662,7.7741 -1.7813,13.9507 -1.7813,16.1875 0,7.2102 4.122,1.0361 12.1563,5.1563 8.0343,4.1201 11.3194,4.5252 11.9375,-0.625 0.618,-5.1503 0.6225,-46.5518 -1.4375,-64.0626 -2.0601,-17.5106 11.5333,-35.4287 8.0312,-43.875 z"
         id="path3201-2"
         style="color:#000000;fill:#d40000;fill-opacity:1;stroke:none;marker:none;visibility:visible;display:inline;overflow:visible;enable-background:accumulate" />
    </g>
    <g
       id="g5702">
      <path
         d="m 1287.9009,2071.614 c 0,0 0.8241,12.1544 0.206,13.1845 -0.618,1.03 -12.1544,19.5707 -13.1845,26.987 -1.03,7.4163 4.3262,63.8624 5.3562,67.1585 1.0301,3.2961 6.1803,0.618 11.7425,2.2661 5.5622,1.6481 13.8025,1.8541 13.5965,-4.3262 -0.206,-6.1802 -0.9318,-35.1518 -17.0986,-57.8881 -5.2324,-7.3586 18.5258,-25.2802 11.5364,-31.7252 -8.1908,-7.5529 -3.7082,-13.8026 -12.1545,-15.6566 z"
         id="path3009-2-52"
         style="color:#000000;fill:#ff0000;stroke:#aa0000;stroke-width:0.5;stroke-linecap:butt;stroke-linejoin:miter;stroke-miterlimit:4;stroke-opacity:1;stroke-dasharray:none;stroke-dashoffset:0;marker:none;visibility:visible;display:inline;overflow:visible;enable-background:accumulate" />
      <path
         d="m 1287.9067,2071.625 c 0,0 0.8055,12.1574 0.1875,13.1875 -0.261,0.435 -2.4894,4.0383 -5.0312,8.5625 -0.039,0.1531 -0.051,0.3225 -0.094,0.4688 4.5803,-5.5761 8.9582,-5.97 12.3437,-9.1563 -0.1991,0.9957 -1.4111,2.6065 -4,5.5937 1.9915,-1.7922 3.2077,-2.8131 5,-4.4062 -0.5974,1.394 -3.5992,5.5833 -7.7812,8.9688 -4.1821,3.3855 -0.6006,8.1819 2.1875,4 2.788,-4.1822 4.9809,-6.9859 6.375,-10.9688 0,0.7966 0.5931,2.5912 -1,6.375 0.9957,-1.394 3.1954,-3.7702 3.5937,-5.5625 0.7966,0.1992 0.5932,2.7825 -1,5.9687 -1.5932,3.1863 -11.3364,10.946 -12.5312,12.9376 -1.1949,1.9913 -1.7929,8.7597 -1.5938,13.9374 0.1992,5.1778 3.7682,15.5299 10.9375,22.5 -1.394,-1.9915 -5.9693,-11.9546 -7.5625,-15.9374 -1.5932,-3.9829 0.196,-6.7648 2.1875,-4.375 1.9915,2.3897 9.948,22.5227 6.5625,20.5312 0.7966,2.1906 3.394,14.3394 2,13.3438 -1.394,-0.9958 -4.5648,-2.607 -10.9375,-17.3438 2.1906,9.9573 -3.8125,17.3236 -3.8125,15.5312 0,-1.7194 1.6359,-12.2494 0.1875,-25.9374 0.1443,5.8592 -1.446,23.1616 -1.9687,27.3437 -0.5975,4.7795 -3.1716,4.5725 -2.375,-0.4063 0.7965,-4.9786 1.1911,-13.5421 0.5937,-21.9062 -0.1991,4.182 -0.4068,11.7597 -2,16.9375 0,-5.7753 -2.7733,-31.6831 -2.375,-40.8437 1.5932,-0.1993 3.3688,-0.3787 7.75,0.2187 0,0 -3.3703,-3.9456 -6.5937,-6.1875 -1.1419,2.6309 -1.9743,5.0209 -2.2188,6.7812 -1.03,7.4163 4.3137,63.8602 5.3438,67.1563 1.03,3.2961 6.1877,0.6332 11.75,2.2813 5.5622,1.648 13.7997,1.8365 13.5937,-4.3438 -0.206,-6.1802 -0.9269,-35.1387 -17.0937,-57.875 -5.2324,-7.3586 18.5206,-25.2738 11.5312,-31.7188 -8.1908,-7.5529 -3.7099,-13.8022 -12.1562,-15.6562 z m -3.9687,56.4688 c 0.061,0.496 0.1032,0.9804 0.1562,1.4687 -0.026,-0.6711 -0.07,-1.2097 -0.1562,-1.4687 z"
         id="path4068-0"
         style="color:#000000;fill:#d40000;stroke:none;marker:none;visibility:visible;display:inline;overflow:visible;enable-background:accumulate" />
    </g>
    <g
       id="g5710">
      <path
         d="m 1260.5019,2071.82 c 0,0 0,7.0042 0,8.0343 0,1.03 4.1202,6.3862 19.7767,11.7424 15.6566,5.3562 17.0987,7.8283 16.2747,11.5365 -0.8241,3.7081 -6.1803,11.7424 -9.0644,13.1845 -2.0601,-6.1803 -5.7682,-6.5923 -14.2145,-6.7983 -8.4463,-0.206 -21.984,-13.8218 -23.8969,-19.5707 -1.2993,-3.9049 1.7456,-6.9972 4.1201,-7.4163 3.5022,-0.618 0.6181,-9.6824 7.0043,-10.7124 z"
         id="path3011-4"
         style="color:#000000;fill:#ff0000;stroke:#aa0000;stroke-width:0.5;stroke-linecap:butt;stroke-linejoin:miter;stroke-miterlimit:4;stroke-opacity:1;stroke-dasharray:none;stroke-dashoffset:0;marker:none;visibility:visible;display:inline;overflow:visible;enable-background:accumulate" />
      <path
         d="m 1260.5005,2071.8125 c -6.3863,1.03 -3.4979,10.1008 -7,10.7187 -2.3746,0.4192 -5.4243,3.5014 -4.125,7.4063 1.9128,5.7489 15.4599,19.3877 23.9062,19.5937 8.4463,0.2061 12.1587,0.601 14.2188,6.7813 2.8841,-1.4421 8.2384,-9.4794 9.0625,-13.1875 0.824,-3.7082 -0.6247,-6.175 -16.2813,-11.5312 -6.8498,-2.3434 -11.508,-4.6752 -14.5625,-6.6563 5.5322,5.06 20.5364,10.545 22.8125,12.0625 2.5031,1.6688 -0.8312,5 -2.5,5 -1.6688,0 -2.314,-1.8664 -9.4062,-0.4062 2.9203,0.2086 8.3539,0.8406 8.5625,3.3437 0.2085,2.5031 -2.9094,0.4257 -8.75,1.4687 -5.8407,1.0429 -12.7446,-1.6718 -17.125,-5.8437 -4.3805,-4.1719 -7.5126,-8.782 -5.8438,-8.1563 1.6688,0.6259 1.8859,1.0438 1.4688,-0.625 -0.4172,-1.6686 0.6328,-2.896 2.7187,-2.6874 2.086,0.2085 3.5539,-1.4876 2.0938,-3.1563 -1.4602,-1.6688 -3.5743,-5.8344 -2.5313,-5 1.043,0.8344 2.725,3.5398 6.0625,5 -6.675,-5.2149 -6.8867,-9.5828 -5.8437,-10 0.9034,-0.3614 1.9816,0.055 3.0625,2.3437 l 0,-6.4687 z"
         id="path3222-6-8"
         style="color:#000000;fill:#d40000;fill-opacity:1;stroke:none;marker:none;visibility:visible;display:inline;overflow:visible;enable-background:accumulate" />
    </g>
  </g>
</svg>
