<?xml version="1.0" encoding="UTF-8" standalone="no"?>
<svg xmlns="http://www.w3.org/2000/svg" id="scar_vertical_left" width="560" height="560">
  <g id="layer1">
    <path id="path229622" d="M287.6 128.4c.2.3.3.8.3 1.3l.2 1.4c0 1.2.8 3.4 1 5.2 0-2.2 0-3.7-.2-5 0-.5 0-1.4-.2-1.6V126v-1.3c.2-2-.4-4.8-.8-6.4 0 1.7 0 4.6-.4 6.4.2.4 0 1.2 0 1.4z" style="color:#000000;fill:#de8787;fill-opacity:1;stroke:none;stroke-width:0.5;marker:none;visibility:visible;display:inline;overflow:visible;enable-background:accumulate"/>
    <path id="path229622-3" d="M287.6 128.4c.2.3.3.8.3 1.3l.2 1.4c0 1.2.8 3.4 1 5.2 0-2.2 0-3.7-.2-5 0-.5 0-1.4-.2-1.6V126v-1.3c.2-2-.4-4.8-.8-6.4 0 1.7 0 4.6-.4 6.4.2.4 0 1.2 0 1.4z" style="color:#000000;fill:#de8787;fill-opacity:1;stroke:none;stroke-width:0.5;marker:none;visibility:visible;display:inline;overflow:visible;enable-background:accumulate"/>
  </g>
</svg>
