<?xml version="1.0" encoding="UTF-8" standalone="no"?>
<!-- Created with Inkscape (http://www.inkscape.org/) -->

<svg
   xmlns:svg="http://www.w3.org/2000/svg"
   xmlns="http://www.w3.org/2000/svg"
   version="1.1"
   width="560"
   height="560"
   id="scar_horizontal_nose">
  <g
     transform="translate(0,-492.36218)"
     id="layer1">
    <path
       d="m 281.90923,622.48345 c 0.42062,0.0357 0.76644,0.48523 1.14015,0.62342 0.57038,0.21092 1.47616,0.71934 1.75877,0.7769 1.04398,0.21262 4.31641,0.40662 6.35055,0.12238 -1.55272,0.55377 -4.03645,0.62807 -6.22048,0.25641 -0.55064,-0.0937 -1.4567,-0.44536 -1.69732,-0.51973 -0.32216,-0.0996 -0.9277,-0.45929 -1.28459,-0.56224 -0.66194,-0.19094 -1.35366,-0.2628 -2.12729,-0.007 -0.44176,0.14607 -0.88948,0.42439 -1.44525,0.6141 -2.11205,0.72091 -6.13414,0.82342 -8.09746,0.084 2.3504,0.26039 6.28687,0.18026 8.10271,-0.69412 0.32269,-0.15538 1.14633,-0.684 1.31923,-0.70654 1.11846,-0.14582 1.63838,-0.0353 2.20098,0.0124 z"
       id="path229644"
       style="color:#000000;fill:#de8787;fill-opacity:1;stroke:none;stroke-width:0.5;marker:none;visibility:visible;display:inline;overflow:visible;enable-background:accumulate" />
  </g>
</svg>
