<?xml version="1.0" encoding="UTF-8" standalone="no"?>
<!-- Created with Inkscape (http://www.inkscape.org/) -->

<svg
   xmlns:dc="http://purl.org/dc/elements/1.1/"
   xmlns:cc="http://creativecommons.org/ns#"
   xmlns:rdf="http://www.w3.org/1999/02/22-rdf-syntax-ns#"
   xmlns:svg="http://www.w3.org/2000/svg"
   xmlns="http://www.w3.org/2000/svg"
   version="1.1"
   width="560"
   height="560"
   id="scarf_fake_knot">
  <g
     transform="translate(4.8767729e-6,-1.0000038)"
     id="g55612"
     style="display:inline;enable-background:new">
    <g
       transform="matrix(1.0083849,0,0,1.0083849,-1061.3245,-2337.034)"
       id="g5639">
      <path
         d="m 1345.1711,2462.4107 c 0,0 0.618,12.9785 -0.618,14.4205 -1.2361,1.4421 -7.8283,9.6824 -12.1545,13.3905 -4.3262,3.7082 -1.442,6.5923 -0.412,11.1244 1.03,4.5322 0.412,24.1029 -0.618,29.8712 -1.0301,5.7682 -1.8541,20.3947 -1.4421,22.6608 0.412,2.2661 1.8541,4.3262 6.1802,5.3562 4.3262,1.0301 10.5064,9.6824 11.1245,3.2961 0.618,-6.3862 2.06,-33.9912 -1.6481,-46.5577 -3.7081,-12.5665 -2.2661,-14.2145 -0.206,-15.6566 2.0601,-1.4421 11.2173,-17.1415 8.4463,-26.987 -0.8881,-3.1555 -5.4717,-9.4299 -8.6523,-10.9184 z"
         id="path3017-27"
         style="color:#000000;fill:#ff0000;stroke:#aa0000;stroke-width:0.5;stroke-linecap:butt;stroke-linejoin:miter;stroke-miterlimit:4;stroke-opacity:1;stroke-dasharray:none;stroke-dashoffset:0;marker:none;visibility:visible;display:inline;overflow:visible;enable-background:accumulate" />
      <path
         d="m 1345.1562,2462.4062 c 0,0 0.6423,12.9955 -0.5937,14.4376 -1.2361,1.442 -7.8301,9.6667 -12.1563,13.375 -4.326,3.7082 -1.4362,6.5928 -0.4062,11.125 1.03,4.5322 0.405,24.1066 -0.625,29.875 -1.0301,5.768 -1.8495,20.3901 -1.4375,22.6562 0.412,2.2661 1.8301,4.3137 6.1563,5.3438 4.326,1.0299 10.5068,9.6988 11.125,3.3124 0.4421,-4.5698 1.3092,-19.9848 0.4062,-33 -0.5136,23.4024 -3.7903,18.0522 -3.9375,13.3438 -0.1043,-3.3375 -0.186,-8.223 -1.4375,-13.125 0.3129,7.5094 -1.166,22.0816 -1.6875,23.4375 -0.5215,1.3559 -4.9969,0.2205 -7.5,-1.0313 1.9816,1.9818 5.2159,3.041 7.4063,3.5626 -1.7732,0.6257 -3.8809,0.096 -7.5313,-1.4688 0.4172,1.043 0.6332,1.3636 2.4063,2.0938 -1.4603,-2e-4 -1.8629,0.7101 -3.2188,-0.75 -1.3559,-1.4602 0.1867,-22.3062 0.8125,-27.3126 0.6258,-5.0061 1.9044,-24.8351 3.4687,-23.375 1.5646,1.4602 3.0224,19.9253 1.875,29.625 0.7301,-1.9816 3.218,-19.0978 3.8438,-24 0.9944,4.1769 4.3409,12.4977 5.375,17.0626 -0.377,-4.4305 -0.9837,-8.4982 -1.9062,-11.625 -3.7083,-12.5665 -2.2789,-14.2142 -0.2188,-15.6563 2.0601,-1.4421 11.2085,-17.1233 8.4375,-26.9687 -0.8881,-3.1556 -5.4755,-9.4491 -8.6563,-10.9376 z m 2.75,5.7188 c 1.3796,1.228 0.4605,5.6084 -0.094,7.25 1.3978,-1.6081 2.2737,-3.1667 2.5313,-4.0625 1.3457,2.6524 -2.1629,12.8731 -3.6563,15.4687 3.0956,-5.1514 5.0606,-8.8513 5.7813,-11.4687 1.4936,5.3769 -0.6242,11.4478 -3.25,16.625 -0.8544,1.6848 -3.5124,1.579 -5.9063,0.875 -2.3939,-0.704 0.4212,-2.1539 0.8437,-3.8437 -0.6918,0.5279 -1.6371,0.935 -2.375,1.1874 0.4604,-1.0235 1.1287,-2.1396 1.1876,-2.8437 -0.9252,0.8478 -3.2936,2.7763 -4.4063,2.625 -1.5028,-0.2044 -2.4394,-0.8265 -1.0313,-2.0937 1.4082,-1.2675 6.0704,-7.606 7.8126,-10.2813 2.0126,-3.0909 2.4216,-8.4518 2.5624,-9.4375 z"
         id="path3017-27-3"
         style="color:#000000;fill:#d40000;fill-opacity:1;stroke:none;marker:none;visibility:visible;display:inline;overflow:visible;enable-background:accumulate" />
    </g>
    <g
       transform="matrix(1.0083849,0,0,1.0083849,-1061.3245,-2337.034)"
       id="g5643">
      <path
         d="m 1326.6304,2484.4535 c -3.7081,7.8283 -4.3262,66.9525 -4.3262,71.4847 0,4.5322 1.6481,2.6781 3.9142,1.6481 2.2661,-1.0301 5.9742,-1.6481 7.8283,-1.8541 1.854,-0.206 2.8841,-1.0301 2.2661,-4.3262 -0.6181,-3.2961 -3.0902,-58.7122 -4.3262,-62.4203 -1.2361,-3.7082 -5.3562,-4.5322 -5.3562,-4.5322 z"
         id="path3023-33"
         style="color:#000000;fill:#ff0000;stroke:#aa0000;stroke-width:0.5;stroke-linecap:butt;stroke-linejoin:miter;stroke-miterlimit:4;stroke-opacity:1;stroke-dasharray:none;stroke-dashoffset:0;marker:none;visibility:visible;display:inline;overflow:visible;enable-background:accumulate" />
      <path
         d="m 1326.625,2484.4688 c -3.7081,7.8283 -4.3125,66.9365 -4.3125,71.4687 0,4.5322 1.6401,2.6862 3.9063,1.6563 2.2661,-1.0301 5.9584,-1.669 7.8124,-1.875 1.8541,-0.2061 2.8993,-1.0164 2.2813,-4.3126 -0.6181,-3.2961 -3.0765,-58.6981 -4.3125,-62.4062 -1.2361,-3.7082 -5.375,-4.5313 -5.375,-4.5312 z m 0.5625,17.875 c 2.4319,-0.414 4.6573,5.5305 3.875,15.4062 -0.8344,10.534 -2.3953,18.152 -2.8125,21.5938 -1.2516,-3.9633 -2.0622,-10.0187 -2.375,-11.6876 -0.7301,7.0923 -0.2386,13.6633 -0.9688,16.375 -0.73,2.7119 -1.8543,-1.2635 -1.75,-15.3437 1.043,-7.6137 1.229,-13.8614 1.4376,-16.4687 1.8773,3.7546 2.5101,13.2465 2.7187,16.0624 1.5645,-11.3683 -3.2324,-24.4253 -0.625,-25.7812 0.163,-0.085 0.3379,-0.1287 0.5,-0.1562 z"
         id="path3023-33-0"
         style="color:#000000;fill:#d40000;stroke:none;marker:none;visibility:visible;display:inline;overflow:visible;enable-background:accumulate" />
    </g>
    <path
       d="m 298.03405,180.30012 c -2.70055,1.03863 -9.76358,-4.36248 -14.74924,-7.47849 -4.98555,-3.11601 -15.37233,-10.17904 -15.37233,-16.41106 0,-6.23212 0.41546,-12.04869 0.41546,-12.04869 -8.30939,5.81657 -10.38676,15.78788 -7.47848,22.43535 2.90828,6.64758 15.99561,14.74925 21.39671,16.41117 5.40112,1.66182 8.93258,6.43974 11.00995,4.5701 2.07738,-1.86955 5.40111,-4.5701 4.77793,-7.47838 z"
       id="path3019-4-3"
       style="color:#000000;fill:#ff0000;stroke:#aa0000;stroke-width:0.50419247;stroke-linecap:butt;stroke-linejoin:miter;stroke-miterlimit:4;stroke-opacity:1;stroke-dasharray:none;stroke-dashoffset:0;marker:none;visibility:visible;display:inline;overflow:visible;enable-background:accumulate" />
    <path
       d="m 268.32558,144.34914 c -8.3095,5.81657 -10.37669,15.78909 -7.4684,22.43657 2.90828,6.64757 15.9956,14.75579 21.39661,16.41771 5.40121,1.66192 8.92038,6.43894 10.99775,4.5693 2.07737,-1.86955 5.41301,-4.55992 4.78983,-7.4684 -2.70056,1.03873 -9.76197,-4.35229 -14.74763,-7.4683 -4.98556,-3.11601 -15.37787,-10.1857 -15.37787,-16.41772 0,-6.23212 0.40951,-12.06916 0.40971,-12.06916 z m -2.20595,3.74998 c -1.56178,1.41991 -3.26172,5.38337 -3.11964,9.07547 0.28397,-1.56199 2.4409,-6.53897 3.43487,-6.39699 0.99386,0.14198 -0.15832,4.6911 0.4096,7.81498 0.56802,3.12398 4.39606,5.56054 4.25418,6.5545 -0.14219,0.99407 -2.67706,1.13474 -3.81301,0.85088 -1.13605,-0.28417 -0.31391,-3.28895 -1.166,-6.27095 0,1.56199 -2.12406,7.66322 -4.25407,3.4033 -2.12991,-4.25992 0.13623,-11.90731 4.25407,-15.03119 z m 17.6783,26.56459 c 0.0635,0 0.13261,0.0121 0.18907,0.0313 0.90372,0.30111 6.23243,4.62526 9.04401,7.43684 -1.10459,-0.90381 -3.21231,-1.90958 -8.6344,-4.82139 1.80743,1.20492 7.01917,5.13863 6.61763,5.6406 -0.40174,0.50218 -1.7073,0.88345 -5.92426,-1.82759 0.6022,0.70284 3.03433,2.82116 6.64898,5.23089 -2.00809,-0.50197 -11.27797,-4.80142 -13.55017,-6.33386 -2.06779,-1.3945 1.18193,-2.61555 1.98531,-2.61555 0.80318,2e-4 2.40933,1.52851 4.3171,2.33199 -0.60251,-0.60261 -2.10763,-2.4286 -2.71004,-2.93067 -0.52708,-0.43935 0.8654,-1.94114 1.8277,-2.11126 0.0686,-0.0121 0.12585,-0.0303 0.18907,-0.0313 z"
       id="path3019-4-4"
       style="color:#000000;fill:#d40000;fill-opacity:1;stroke:none;marker:none;visibility:visible;display:inline;overflow:visible;enable-background:accumulate" />
    <g
       transform="matrix(1.0083849,0,0,1.0083849,-1061.3245,-2337.034)"
       id="g5686">
      <path
         d="m 1335.2827,2487.5436 c -5.3562,-5.9742 -11.1244,-5.5622 -15.6566,-4.3261 -4.5321,1.236 -8.2403,0.412 -9.4763,-2.8842 1.236,7.6223 8.8583,15.2446 12.7725,14.6266 3.9141,-0.618 6.1802,-1.8541 7.8282,-3.5022 1.6481,-1.648 4.5322,-3.9141 4.5322,-3.9141 z"
         id="path3021-66"
         style="color:#000000;fill:#ff0000;stroke:#aa0000;stroke-width:0.5;stroke-linecap:butt;stroke-linejoin:miter;stroke-miterlimit:4;stroke-opacity:1;stroke-dasharray:none;stroke-dashoffset:0;marker:none;visibility:visible;display:inline;overflow:visible;enable-background:accumulate" />
      <path
         d="m 1310.1562,2480.3438 c 1.2361,7.6222 8.8671,15.2429 12.7813,14.625 3.9141,-0.618 6.1645,-1.852 7.8125,-3.5 1.6481,-1.6481 4.5312,-3.9376 4.5312,-3.9376 -5.3561,-5.9742 -11.124,-5.5485 -15.6562,-4.3124 -4.5321,1.2359 -8.2328,0.4212 -9.4688,-2.875 z m 14.7188,3.125 c 2.3543,-0.081 3.9244,0.8517 6.6875,2.7187 -1.5932,0.9958 -5.6915,0.6897 -10.9687,1.1875 2.8876,0.2987 6.965,1.5806 7.5624,2.875 0.5975,1.2945 -2.4894,2.9041 -5.875,2.4062 -2.5887,-0.3806 -6.4294,-4.4833 -6.5312,-6.2187 1.1894,0.1483 2.9204,-0.2304 4.0938,-0.6875 -1.8864,0.2164 -4.6401,-1.3673 -4.625,-1.875 1.4936,0.7965 3.6828,0.7966 6.9687,0 1.0406,-0.2523 1.9027,-0.3792 2.6875,-0.4062 z"
         id="path3021-66-0"
         style="color:#000000;fill:#d40000;fill-opacity:1;stroke:none;marker:none;visibility:visible;display:inline;overflow:visible;enable-background:accumulate" />
    </g>
  </g>
</svg>
