<?xml version="1.0" encoding="UTF-8" standalone="no"?>
<!-- Created with Inkscape (http://www.inkscape.org/) -->

<svg
   xmlns:dc="http://purl.org/dc/elements/1.1/"
   xmlns:cc="http://creativecommons.org/ns#"
   xmlns:rdf="http://www.w3.org/1999/02/22-rdf-syntax-ns#"
   xmlns:svg="http://www.w3.org/2000/svg"
   xmlns="http://www.w3.org/2000/svg"
   xmlns:sodipodi="http://sodipodi.sourceforge.net/DTD/sodipodi-0.dtd"
   xmlns:inkscape="http://www.inkscape.org/namespaces/inkscape"
   version="1.1"
   width="560"
   height="560"
   id="scarf_chest_warmer"
   inkscape:version="0.48.4 r9939"
   sodipodi:docname="scarf_chest_warmer.svg">
  <metadata
     id="metadata56857">
    <rdf:RDF>
      <cc:Work
         rdf:about="">
        <dc:format>image/svg+xml</dc:format>
        <dc:type
           rdf:resource="http://purl.org/dc/dcmitype/StillImage" />
      </cc:Work>
    </rdf:RDF>
  </metadata>
  <defs
     id="defs56855" />
  <sodipodi:namedview
     pagecolor="#ffffff"
     bordercolor="#666666"
     borderopacity="1"
     objecttolerance="10"
     gridtolerance="10"
     guidetolerance="10"
     inkscape:pageopacity="0"
     inkscape:pageshadow="2"
     inkscape:window-width="640"
     inkscape:window-height="480"
     id="namedview56853"
     showgrid="false"
     inkscape:zoom="2.2196437"
     inkscape:cx="282.50437"
     inkscape:cy="342.39529"
     inkscape:window-x="0"
     inkscape:window-y="37"
     inkscape:window-maximized="0"
     inkscape:current-layer="scarf_chest_warmer" />
  <g
     transform="translate(89.770922,746.05099)"
     id="g55453"
     style="display:inline;enable-background:new">
    <path
       d="m 179.09293,-593.0147 c -0.39766,7.55435 -1.59044,11.92792 0.79522,19.48226 2.38556,7.55435 7.15669,15.90392 15.90382,23.06061 8.74723,7.15679 14.71114,24.25349 18.28958,32.2055 3.57834,7.95191 13.91592,22.26539 17.0967,25.84383 3.18078,3.57834 -0.39766,4.37357 -1.988,7.15669 5.96391,7.15679 5.18191,10.1611 3.57834,15.50636 -0.89234,2.9744 -3.03135,6.53577 -5.96391,4.77122 -7.61801,-4.58369 -19.0847,-22.66314 -23.45826,-28.62705 -4.37367,-5.96401 -30.56166,-46.32937 -37.17541,-63.21811 -4.91512,-12.55101 -3.38627,-25.60942 0.19878,-28.2294 3.60687,-2.63596 7.35557,-9.74113 12.72314,-7.95191 z"
       id="path3486-8"
       style="color:#000000;fill:#ff0000;stroke:#aa0000;stroke-width:0.49349672;stroke-linecap:butt;stroke-linejoin:miter;stroke-miterlimit:4;stroke-opacity:1;stroke-dasharray:none;stroke-dashoffset:0;marker:none;visibility:visible;display:inline;overflow:visible;enable-background:accumulate" />
    <path
       d="m 179.09293,-593.01468 c -0.39766,7.55435 -1.59044,11.92792 0.79522,19.48226 2.38556,7.55435 7.15669,15.90392 15.90382,23.06061 8.74723,7.15679 14.71114,24.25349 18.28958,32.2055 3.57834,7.95191 13.91592,22.26539 17.0967,25.84383 3.18078,3.57834 -0.39766,4.37357 -1.988,7.15669 5.96391,7.15679 5.18191,10.1611 3.57834,15.50636 -0.89234,2.9744 -3.03135,6.53577 -5.96391,4.77122 -7.61801,-4.58369 -19.0847,-22.66314 -23.45826,-28.62705 -4.37367,-5.96401 -30.56166,-46.32937 -37.17541,-63.21811 -4.91512,-12.55101 -3.38627,-25.60942 0.19878,-28.2294 3.60687,-2.63596 7.35557,-9.74113 12.72314,-7.95191 z"
       id="path3486-8-6"
       style="color:#000000;fill:#d40000;fill-opacity:1;stroke:none;marker:none;visibility:visible;display:inline;overflow:visible;enable-background:accumulate" />
    <path
       d="m 228.99147,-485.26581 -8.54835,-7.75313"
       id="path3488-1"
       style="color:#000000;fill:#ff0000;stroke:#aa0000;stroke-width:0.49349672;stroke-linecap:butt;stroke-linejoin:miter;stroke-miterlimit:4;stroke-opacity:1;stroke-dasharray:none;stroke-dashoffset:0;marker:none;visibility:visible;display:inline;overflow:visible;enable-background:accumulate" />
    <path
       d="m 203.96901,-592.97463 c 0.58963,11.9899 3.73449,9.43467 -6.48642,29.09025 -10.22091,19.65558 -18.27961,22.99705 -26.53502,44.81474 -8.25531,21.81768 -6.87944,20.83483 -13.16916,27.12465 -6.28981,6.28981 -4.1277,6.28981 -2.75183,7.86219 1.37586,1.57248 -1.57248,3.73459 -2.75174,6.0933 -1.17936,2.35862 -0.78624,5.30697 0.19651,7.07596 0.98275,1.76898 -0.39312,4.91394 3.34146,6.87944 3.73459,1.9656 10.22091,-2.94835 14.15201,-8.45192 3.9311,-5.50348 22.80044,-38.1318 32.0386,-55.03555 9.23816,-16.90384 19.45897,-36.1663 22.2108,-46.58372 2.75174,-10.41751 -3.14486,-11.40026 -6.0932,-12.97274 -2.94835,-1.57238 -6.28981,-4.91385 -14.15201,-5.8966 z"
       id="path4186-4"
       style="color:#000000;fill:#ff0000;stroke:#aa0000;stroke-width:0.49349672;stroke-linecap:butt;stroke-linejoin:miter;stroke-miterlimit:4;stroke-opacity:1;stroke-dasharray:none;stroke-dashoffset:0;marker:none;visibility:visible;display:inline;overflow:visible;enable-background:accumulate" />
    <path
       d="m 203.96901,-592.97465 c 0.58963,11.9899 3.73449,9.43467 -6.48642,29.09025 -10.22091,19.65558 -18.27961,22.99705 -26.53502,44.81474 -8.25531,21.81768 -6.87944,20.83483 -13.16916,27.12465 -6.28981,6.28981 -4.1277,6.28981 -2.75183,7.86219 1.37586,1.57248 -1.57248,3.73459 -2.75174,6.0933 -1.17936,2.35862 -0.78624,5.30697 0.19651,7.07596 0.98275,1.76898 -0.39312,4.91394 3.34146,6.87944 3.73459,1.9656 10.22091,-2.94835 14.15201,-8.45192 3.9311,-5.50348 22.80044,-38.1318 32.0386,-55.03555 9.23816,-16.90384 19.45897,-36.1663 22.2108,-46.58372 2.75174,-10.41751 -3.14486,-11.40026 -6.0932,-12.97274 -2.94835,-1.57238 -6.28981,-4.91385 -14.15201,-5.8966 z"
       id="path4186-4-6"
       style="color:#000000;fill:#d40000;fill-opacity:1;stroke:none;marker:none;visibility:visible;display:inline;overflow:visible;enable-background:accumulate" />
    <path
       d="m 199.11468,-552.47888 c 5.55944,-10.00703 11.39682,-31.6888 11.11888,-34.46857 -0.27804,-2.77967 -2.50173,-2.50173 -4.16965,-2.77967 -1.66782,-0.27804 1.94585,2.22379 0,9.17302 -1.94576,6.94932 -3.33565,14.73255 -13.89855,28.07522 -10.5629,13.34257 -19.18004,30.8548 -21.1259,39.47194 -1.94576,8.61714 -3.33564,17.79026 9.17311,-13.06463 -0.55597,10.28496 -0.83391,18.34613 -12.23072,26.4073 9.17302,-4.16955 11.95279,-9.17312 13.62061,-13.06463 -0.55597,2.77967 -1.38989,8.89508 -1.66782,10.5629 4.72552,-5.55944 3.89152,-14.45452 3.33564,-16.12234 6.67129,5.00346 1.38988,21.68178 -4.72553,21.95971 -6.11541,0.27794 -5.2815,5.00347 -5.00346,8.89509 0.27794,3.89161 -1.66792,6.94932 -3.05771,8.06117 2.77967,0.27803 6.39335,-6.94923 8.33911,-9.729 1.94586,-2.77967 13.89864,-25.29545 15.8444,-28.35306 1.94586,-3.05771 16.67832,-30.85489 18.0682,-33.63466 -1.66782,2.77977 -5.2815,5.2815 -6.94932,7.50529 3.61368,-6.11541 5.00346,-8.06117 6.11541,-9.45105 -3.33564,1.38988 -6.67138,4.44749 -14.73255,23.90557 5.83747,-17.51222 8.61714,-21.68178 10.00702,-24.46155 1.38989,-2.77966 0.27794,-4.16955 -2.50173,-2.50173 -2.77977,1.66782 -3.89162,2.2238 -5.55944,3.61368 z"
       id="path4035-2"
       style="color:#000000;fill:#ff0000;marker:none;visibility:visible;display:inline;overflow:visible;enable-background:accumulate;stroke:none" />
  </g>
</svg>
