<?xml version="1.0" encoding="UTF-8" standalone="no"?>
<!-- Created with Inkscape (http://www.inkscape.org/) -->

<svg
   xmlns:dc="http://purl.org/dc/elements/1.1/"
   xmlns:cc="http://creativecommons.org/ns#"
   xmlns:rdf="http://www.w3.org/1999/02/22-rdf-syntax-ns#"
   xmlns:svg="http://www.w3.org/2000/svg"
   xmlns="http://www.w3.org/2000/svg"
   version="1.1"
   width="560"
   height="560"
   id="scarf_reverse_drape">
  <g
     transform="matrix(0.93636935,0,0,0.93636935,-827.45868,-1431.0116)"
     id="g5758"
     style="display:inline;enable-background:new">
    <g
       id="g5754">
      <path
         d="m 1198.6996,1713.1605 c -9.8884,-0.4121 -29.6651,-10.3004 -29.0471,-14.6266 0.618,-4.3262 0.618,-14.0085 0.618,-14.0085 -7.4163,2.0601 -12.1544,8.8583 -13.5965,12.7725 -1.4421,3.9141 1.236,9.6823 4.1202,12.9784 2.8841,3.2962 14.6265,17.9227 24.1029,19.9828 9.4763,2.0601 15.0385,-10.9184 13.8025,-17.0986 z"
         id="path3461-9"
         style="color:#000000;fill:#ff0000;stroke:#aa0000;stroke-width:0.5;stroke-linecap:butt;stroke-linejoin:miter;stroke-miterlimit:4;stroke-opacity:1;stroke-dasharray:none;stroke-dashoffset:0;marker:none;visibility:visible;display:inline;overflow:visible;enable-background:accumulate" />
      <path
         d="m 1170.063,1684.5938 c -7.291,2.1314 -11.9472,8.8431 -13.375,12.7187 -1.4421,3.9141 1.2096,9.6727 4.0937,12.9687 2.8841,3.2962 14.6486,17.9087 24.125,19.9688 9.4764,2.0601 15.0173,-10.9135 13.7813,-17.0938 -7.1495,-0.2979 -19.4268,-5.5409 -25.4688,-10.0624 3.893,4.0777 11.7871,8.1768 13.6875,8.9687 3.54,1.475 1.6396,2.8833 -0.2812,3.8437 -2.36,1.1801 -6.1926,0.5963 -9.4375,-1.4687 1.1799,1.475 3.4906,3.1546 2.6562,4.4063 0,-1e-4 -2.6688,2.6762 -7.0937,0.9062 -3.0623,-1.2249 -8.5426,-8.56 -10.3125,-10.625 -1.77,-2.065 -4.735,-6.1939 -2.375,-12.0938 0.885,1.4749 1.48,1.7751 3.25,3.25 -2.7026,-8.1076 2.043,-11.7549 6.9375,-14.125 0.01,-0.8851 0.031,-1.3103 0.031,-1.4374 -0.1177,-0.07 -0.086,-0.047 -0.2188,-0.125 z"
         id="path3159-8"
         style="color:#000000;fill:#d40000;stroke:none;marker:none;visibility:visible;display:inline;overflow:visible;enable-background:accumulate" />
    </g>
    <g
       id="g5750">
      <path
         d="m 1198.9056,1684.5254 c 0,0 -0.206,17.5106 -0.618,19.7767 -0.412,2.2661 -2.8841,15.4506 -25.751,17.7167 -7.8283,-6.3862 -14.0085,-13.8025 -15.0386,-16.6866 -1.03,-2.8841 -0.824,-8.0343 -0.824,-8.0343 -2.8841,0.206 -3.7081,3.2961 -3.9141,4.7381 -4.1202,1.0301 -5.5623,2.6781 -5.7683,8.0343 -0.206,5.3562 3.7082,9.8884 10.3004,16.8927 6.5923,7.0042 13.1845,12.5665 19.1587,13.3905 5.9743,0.824 18.1287,0.618 27.1931,-6.5923 9.0643,-7.2102 14.0085,-13.5965 15.2445,-21.6308 1.2361,-8.0343 -1.854,-16.4806 -11.3304,-16.6866 0,-6.3862 -3.5021,-9.8884 -8.6523,-10.9184 z"
         id="path3459-0"
         style="color:#000000;fill:#ff0000;stroke:#aa0000;stroke-width:0.5;stroke-linecap:butt;stroke-linejoin:miter;stroke-miterlimit:4;stroke-opacity:1;stroke-dasharray:none;stroke-dashoffset:0;marker:none;visibility:visible;display:inline;overflow:visible;enable-background:accumulate" />
      <path
         d="m 1198.9067,1684.5312 c 0,0 -0.213,17.5152 -0.625,19.7813 -0.191,1.0504 -0.8479,4.4327 -3.75,8 0.024,0.113 0.037,0.2318 0.062,0.3437 2.065,-1.7699 4.705,-5.9124 5,-11.8124 0.295,-5.9 0.91,-11.7851 1.5,-12.375 0.59,-0.5901 2.6463,0.2925 3.5313,2.0624 0.8849,1.77 -1.7734,4.7765 -0.9063,11.2188 0.59,-3.245 0.8148,-5.6091 1.4375,-7.8438 1.2793,-4.591 1.8441,0.9014 1.5313,2.5313 -0.4449,2.3176 -2.9663,6.4938 -5.0313,15.3437 1.18,-1.77 4.74,-6.4949 5.625,-10.625 -0.59,4.13 2.6363,8.2538 4.4063,8.8438 1.7699,0.59 3.5662,0.013 4.1562,-2.9375 2.655,3.835 0.2662,5.6075 -2.0937,5.3125 -2.36,-0.2949 -4.6951,2.06 -5.875,4.125 -1.18,2.065 -0.013,5.905 2.9375,3.25 2.9499,-2.655 5.3225,-4.1412 4.4375,-1.7812 -0.8259,2.2022 -12.4538,19.554 -27.9063,22.3437 5.3338,-0.714 11.3011,-2.5762 16.3125,-6.5625 9.0643,-7.2102 13.9827,-13.5907 15.2188,-21.625 1.236,-8.0343 -1.8362,-16.4815 -11.3125,-16.6875 0,-6.3862 -3.5061,-9.8762 -8.6563,-10.9063 z m -42.2187,12.7813 c -2.8842,0.206 -3.7315,3.2767 -3.9375,4.7187 -4.1202,1.0301 -5.544,2.6751 -5.75,8.0313 -0.044,1.1453 0.1188,2.2728 0.4375,3.375 0.2608,-1.4587 1.9773,-2.0307 4.6875,-2.8437 -1.475,-0.2951 -7.1013,-2.0575 -0.9063,-6.1876 2.065,2.3601 2.3625,4.9938 5.3125,6.4688 -4.1078,-9.9072 -2.6359,-11.3014 0.125,-11.9688 -0.01,-0.9031 0.031,-1.5937 0.031,-1.5937 z m -4.375,14.875 c -0.6868,0.032 -1.4701,0.1738 -2.2813,0.4687 1.475,0.295 2.975,0.8925 1.5,1.1876 -1.0954,0.219 -2.8613,1.0729 -3.6875,0.7812 1.4696,3.6521 4.768,7.3824 9.4375,12.3438 6.5923,7.0042 13.182,12.5509 19.1563,13.375 1.7261,0.238 3.9969,0.3904 6.5312,0.3124 -16.7563,-0.3674 -32.9068,-23.8823 -31.75,-24.75 1.18,-0.885 2.3513,-0.3062 3.5313,-1.7812 0.8849,-1.1062 -0.3772,-2.0343 -2.4375,-1.9375 z"
         id="path3180-5"
         style="color:#000000;fill:#d40000;stroke:none;marker:none;visibility:visible;display:inline;overflow:visible;enable-background:accumulate" />
    </g>
  </g>
</svg>
