<?xml version="1.0" encoding="UTF-8" standalone="no"?>
<!-- Created with Inkscape (http://www.inkscape.org/) -->

<svg
   xmlns:svg="http://www.w3.org/2000/svg"
   xmlns="http://www.w3.org/2000/svg"
   version="1.1"
   width="560"
   height="560"
   id="scar_horizontal_neck">
  <g
     transform="translate(0,-492.36218)"
     id="layer1">
    <path
       d="m 283.04938,649.42775 c 0.57038,-0.21092 1.59967,-0.47233 1.88228,-0.52989 1.04398,-0.21262 5.79848,-0.53013 6.35055,-1.97497 -2.54078,1.42233 -4.15996,0.97751 -6.34399,1.34917 -0.55064,0.0937 -1.4567,0.44536 -1.69732,0.51973 -0.32216,0.0996 -0.9277,0.45929 -1.28459,0.56224 -0.66194,0.19094 -1.35366,0.2628 -2.12729,0.007 -0.44176,-0.14607 -0.88948,-0.42439 -1.44525,-0.6141 -2.11205,-0.72091 -6.01063,-0.4529 -8.09746,-1.68958 1.73287,1.83922 6.28687,1.42532 8.10271,2.2997 0.32269,0.15538 1.15685,0.64301 1.31923,0.70654 0.81831,0.32013 1.98161,0.26389 2.38624,-0.0124 0.35009,-0.23906 0.40348,-0.25985 0.95489,-0.62344 z"
       id="path298342"
       style="color:#000000;fill:#de8787;fill-opacity:1;stroke:none;stroke-width:0.5;marker:none;visibility:visible;display:inline;overflow:visible;enable-background:accumulate" />
  </g>
</svg>
