<?xml version="1.0" encoding="UTF-8" standalone="no"?>
<!-- Created with Inkscape (http://www.inkscape.org/) -->

<svg
   xmlns:svg="http://www.w3.org/2000/svg"
   xmlns="http://www.w3.org/2000/svg"
   version="1.1"
   width="560"
   height="560"
   id="scar_vertical_left">
  <g
     transform="translate(0,-492.36218)"
     id="layer1">
    <path
       d="m 287.55998,620.71257 c 0.23105,0.31324 0.31561,0.89433 0.32313,1.33333 0.17115,0.58029 0.33517,1.16179 0.27894,1.45758 0.17224,1.03146 0.88627,3.26209 1.11447,5.07655 l 2e-5,0 c -0.006,-2.25177 -0.15242,-3.69326 -0.30568,-4.94578 -0.0267,-0.55255 -0.0711,-1.47375 -0.16058,-1.67913 0.0856,-0.37155 0.0699,-0.84938 0.0371,-1.24255 l 2e-5,-2.29149 c 0.042,-0.44697 -0.11018,-0.81693 -0.17778,-1.35718 0.29882,-1.899 -0.28069,-4.75877 -0.68048,-6.36724 0.05,1.67642 0.036,4.57832 -0.38584,6.36612 0.1563,0.40977 -0.0863,1.18646 -0.0433,1.3583 z"
       id="path229622"
       style="color:#000000;fill:#de8787;fill-opacity:1;stroke:none;stroke-width:0.5;marker:none;visibility:visible;display:inline;overflow:visible;enable-background:accumulate" />
    <path
       d="m 287.55998,620.71257 c 0.23105,0.31324 0.31561,0.89433 0.32313,1.33333 0.17115,0.58029 0.33517,1.16179 0.27894,1.45758 0.17224,1.03146 0.88627,3.26209 1.11447,5.07655 l 2e-5,0 c -0.006,-2.25177 -0.15242,-3.69326 -0.30568,-4.94578 -0.0267,-0.55255 -0.0711,-1.47375 -0.16058,-1.67913 0.0856,-0.37155 0.0699,-0.84938 0.0371,-1.24255 l 2e-5,-2.29149 c 0.042,-0.44697 -0.11018,-0.81693 -0.17778,-1.35718 0.29882,-1.899 -0.28069,-4.75877 -0.68048,-6.36724 0.05,1.67642 0.036,4.57832 -0.38584,6.36612 0.1563,0.40977 -0.0863,1.18646 -0.0433,1.3583 z"
       id="path229622-3"
       style="color:#000000;fill:#de8787;fill-opacity:1;stroke:none;stroke-width:0.5;marker:none;visibility:visible;display:inline;overflow:visible;enable-background:accumulate" />
  </g>
</svg>
