<?xml version="1.0" encoding="UTF-8" standalone="no"?>
<!-- Created with Inkscape (http://www.inkscape.org/) -->

<svg
   xmlns:dc="http://purl.org/dc/elements/1.1/"
   xmlns:cc="http://creativecommons.org/ns#"
   xmlns:rdf="http://www.w3.org/1999/02/22-rdf-syntax-ns#"
   xmlns:svg="http://www.w3.org/2000/svg"
   xmlns="http://www.w3.org/2000/svg"
   version="1.1"
   width="560"
   height="560"
   id="scarf_four_in_hand">
  <g
     transform="matrix(0.98699342,0,0,0.98699342,-1026.3078,-3425.0872)"
     id="g4606"
     style="display:inline;enable-background:new">
    <g
       id="g4597">
      <path
         d="m 1336.2898,3644.9886 c -5.6321,-0.2086 -17.3134,-4.5891 -21.6939,-10.0125 -4.3805,-5.4235 -3.7547,-8.5524 -3.9633,-10.6384 -0.2086,-2.0859 -0.2086,-8.761 -0.2086,-8.761 -6.8836,0.4172 -12.5157,5.4235 -10.0125,9.804 2.5031,4.3805 -4.3805,4.3805 -0.2086,9.5954 4.1719,5.2148 31.0806,31.0806 36.0869,10.0125 z"
         id="path3267-9"
         style="color:#000000;fill:#ff0000;stroke:#aa0000;stroke-width:0.5;stroke-linecap:butt;stroke-linejoin:miter;stroke-miterlimit:4;stroke-opacity:1;stroke-dasharray:none;stroke-dashoffset:0;marker:none;visibility:visible;display:inline;overflow:visible;enable-background:accumulate" />
      <path
         d="m 1310.438,3615.5625 c -6.8837,0.4172 -12.5344,5.432 -10.0313,9.8125 2.5031,4.3805 -4.3906,4.3788 -0.2187,9.5938 4.1718,5.2148 31.0874,31.0993 36.0937,10.0312 -5.6321,-0.2086 -17.307,-4.6079 -21.6875,-10.0312 -1.0357,-1.2824 -1.7906,-2.4265 -2.3437,-3.4688 -2.9825,-3.1658 -2.9068,-0.7828 -2.5938,0.1562 0.3983,1.1949 -2.5895,0.6098 -1.5937,1.4063 0.9957,0.7966 2.9767,0.3952 4.1715,1.9884 1.1949,1.5931 1.7984,2.5715 4.9847,6.3553 0,0 -4.3958,-1.9656 -7.7812,-4.1562 2.3897,2.5889 4.1849,3.1806 7.9687,5.9688 -1.7923,0 -7.1727,-2.3837 -9.5625,-4.375 -2.3897,-1.9916 -1.3989,-4.7819 -3.7886,-6.9724 -2.3898,-2.1906 0.393,-5.2417 -0.1906,-7.187 -1.1949,-3.9829 3.3744,-6.7653 4.7684,-7.3628 -0.5974,1.9916 -0.3787,7.5816 0.6171,9.7722 0.5409,1.19 1.5553,2.4383 2.7812,3.9374 -1.5196,-3.1056 -1.2544,-5.1692 -1.4062,-6.6874 -0.2086,-2.086 -0.1875,-8.7813 -0.1875,-8.7813 z"
         id="path3267-0-9"
         style="color:#000000;fill:#d40000;fill-opacity:1;stroke:none;marker:none;visibility:visible;display:inline;overflow:visible;enable-background:accumulate" />
    </g>
    <path
       d="m 1338.0547,3613.8361 1.0607,13.7886 c 0,0 -12.0208,11.3137 -19.0919,14.8493 -7.0711,3.5355 -12.7279,4.2426 -13.0815,18.0312 -0.3535,13.7886 -0.3535,25.4558 -1.4142,40.3051 -1.0606,14.8492 -0.7071,41.3657 2.4749,47.0226 3.182,5.6568 10.6066,-0.7071 14.8492,-2.1214 4.2427,-1.4142 10.6066,-1.0606 9.1924,-8.1317 -1.4142,-7.0711 -11.3137,-39.9515 -12.3743,-56.5685 -1.0607,-16.617 0.1272,-23.027 4.0163,-27.6232 3.8891,-4.5962 6.1201,-4.9103 8.6645,-8.7543 4.1864,-6.3249 9.1539,-11.3994 14.3468,-18.5598 1.8996,-2.6194 0.7079,-5.6744 0.1719,-6.6663 -1.1138,-2.0608 -1.9616,-5.5583 -8.8148,-5.5716 z"
       id="path3035-33"
       style="color:#000000;fill:#ff0000;stroke:#aa0000;stroke-width:0.5;stroke-linecap:butt;stroke-linejoin:miter;stroke-miterlimit:4;stroke-opacity:1;stroke-dasharray:none;stroke-dashoffset:0;marker:none;visibility:visible;display:inline;overflow:visible;enable-background:accumulate" />
    <path
       d="m 1338.0625,3613.8438 1.0625,13.7812 c 0,0 -12.0226,11.3082 -19.0938,14.8438 -2.4277,1.2137 -4.688,2.0902 -6.625,3.2812 8.5692,-1.901 21.7436,-12.1196 25.5,-17.0625 3.7838,-4.9786 0.2188,-7.5937 0.2188,-7.5937 1.394,-0.1994 2.3713,0.5979 2.9688,1.5937 0,-1.9915 -0.5986,-3.7702 -3.1876,-5.5625 4.7796,0.7966 5.7801,5.1617 2.5938,9.3438 -3.1864,4.1819 -6.5668,7.9927 -7.5625,9.1874 3.3854,-3.1862 6.7813,-6.9687 6.7813,-6.9687 0,0 -2.4106,3.981 -3.4063,5.375 2.3897,-2.7881 5.9693,-6.5943 7.5625,-8.1875 -3.5847,4.9786 -9.1336,11.1691 -11.125,14.1562 -1.9915,2.9871 -7.5827,6.7702 -9.375,8.5626 0.9545,0.5567 1.9482,0.9256 2.9688,1.125 1.8791,-1.6065 3.3773,-2.6423 5,-5.0938 4.1865,-6.3249 9.1508,-11.4021 14.3437,-18.5625 1.8996,-2.6194 0.7235,-5.6644 0.1875,-6.6563 -1.1138,-2.0608 -1.9594,-5.5492 -8.8125,-5.5624 z m 3.4375,2.4687 c 3.9829,0.5974 4.1875,2.8094 4.1875,5 -0.5975,-1.5931 -2.196,-3.8051 -4.1875,-5 z"
       id="path3962-7"
       style="color:#000000;fill:#d40000;fill-opacity:1;stroke:none;marker:none;visibility:visible;display:inline;overflow:visible;enable-background:accumulate" />
    <path
       d="m 1306.9375,3660.5 c -0.2489,9.7099 -0.3266,18.3858 -0.7187,27.8438 1.0905,-7.7335 2.8933,-14.3458 3.0624,-16.375 0.2257,-2.7094 1.7986,-4.2859 2.25,-1.125 0.4517,3.1608 0.2525,19.4097 3.1876,38.375 0.4515,-8.5795 1.5624,-34.5368 1.5624,-38.375 0,-3.8382 1.1352,-6.3032 1.8126,-3.5938 0.6774,2.7093 -0.1733,9.7042 0,17.1562 0.053,2.302 1.9009,4.529 2.4687,8.125 0.7874,4.9868 -1.459,10.7329 0.6875,15.5626 1.8062,4.064 3.8476,7.9086 2.7188,10.8437 -1.1289,2.9351 -2.3516,2.6968 -3.4063,9.0313 -0.5157,3.0969 -2.27,1.3076 -2.25,-0.9688 0.039,-4.5165 -0.6128,-9.2511 -0.4375,-17.3125 0,3.6125 -2.0344,11.5266 -2.9375,14.6875 -0.9031,3.1609 -2.7288,7.4459 -3.4063,3.1562 -0.6773,-4.2898 -1.5688,-9.9394 -3.375,-23.9374 -0.6773,2.7092 1.125,21.2071 1.125,24.5937 0,3.3867 -2.01,5.8733 -2.6874,0.9063 -0.5302,-3.8879 -1.2011,-15.0802 -1.25,-24.9688 -0.8021,15.1785 -0.3085,38.4482 2.6562,43.7188 3.182,5.6568 10.6011,-0.7108 14.8438,-2.125 4.2427,-1.4143 10.6017,-1.0539 9.1874,-8.125 -1.4141,-7.0712 -11.3143,-39.9768 -12.375,-56.5938 -1.0606,-16.617 0.1422,-23.0288 4.0313,-27.625 -2.079,-2.435 -15.4607,-23.991 -16.75,7.125 z"
       id="path3035-33-1"
       style="color:#000000;fill:#d40000;stroke:none;marker:none;visibility:visible;display:inline;overflow:visible;enable-background:accumulate" />
    <g
       id="g4602">
      <path
         d="m 1347.5539,3621.8346 c 6.4665,0.2086 5.4235,6.8836 5.6321,9.8039 0.2086,2.9204 0.6258,5.0063 2.5031,7.3009 1.8774,2.2945 -1.0429,10.6383 -5.632,15.2274 -4.5891,4.5891 -8.5524,6.0493 -14.1845,5.8407 -5.6321,-0.2086 6.4665,78.6403 3.7547,94.7021 -2.7117,16.0618 -6.0492,12.0985 -10.0125,11.0555 -3.9633,-1.043 -6.8837,-2.5031 -12.9329,-1.6688 -6.0493,0.8344 -5.8407,-2.2945 -4.7977,-4.589 1.043,-2.2946 3.5461,-35.2526 2.7117,-64.0387 -0.8344,-28.7861 15.4361,-46.0995 18.3564,-51.7316 2.9203,-5.632 11.6813,-14.393 13.1415,-16.2704 1.4601,-1.8773 1.8773,-3.9633 1.4601,-5.632 z"
         id="path3265-5"
         style="color:#000000;fill:#ff0000;stroke:#aa0000;stroke-width:0.5;stroke-linecap:butt;stroke-linejoin:miter;stroke-miterlimit:4;stroke-opacity:1;stroke-dasharray:none;stroke-dashoffset:0;marker:none;visibility:visible;display:inline;overflow:visible;enable-background:accumulate" />
      <path
         d="m 1335.0005,3640.5312 c -0.8023,1.1283 -1.5495,2.2294 -2.0625,3.2188 -2.9204,5.6321 -19.1782,22.9327 -18.3438,51.7188 0.065,2.2591 0.098,4.55 0.125,6.8437 0,0.033 0,0.061 0,0.094 0.4101,4.2385 0.8322,7.6832 0.9063,9.9063 0.3982,11.9488 2.7886,43.4069 1.5937,45 -1.1949,1.5932 -0.3977,2.4142 1.5938,2.8125 1.9914,0.3983 5.571,-0.4216 7.5625,0.375 1.9914,0.7965 4.775,3.5773 9.1562,1.1875 -1.9915,0.7966 -3.1813,3.9835 -7.5625,1.5937 -4.3812,-2.3897 -10.3756,-2.3823 -11.9687,-1.1874 -1.5932,1.1949 -4.3665,0.8038 -2.375,-1.1876 1.8047,-1.8047 2.2952,-17.3338 0.5937,-29.7187 -0.1011,2.3607 -0.1933,4.7097 -0.3125,6.875 l 0.5,19.6563 c -0.9745,0.8025 -1.9348,1.693 -2.8437,2.625 -0.6863,2.1423 -0.2224,4.4875 5.125,3.75 6.0492,-0.8343 8.9741,0.6132 12.9375,1.6562 3.9633,1.043 7.2882,5.0305 10,-11.0312 1.2142,-7.1919 -0.5406,-26.9905 -2.3438,-46.625 0.6744,14.8725 0.807,32.2859 -2.1562,45.25 -0.3983,-10.3557 -1.9688,-31.4644 -1.9688,-40.625 -0.7966,7.9658 -7.9841,29.0833 -7.1875,22.3124 0.7966,-6.771 -3.992,-28.6972 -3.5937,-33.875 0.3983,-5.1778 2.8125,-13.5329 2.8125,-18.3124 0,-4.7796 3.1642,-3.9757 3.5625,-1.1876 0.3983,2.7881 -1.5785,6.3529 -2.375,9.9376 -0.7966,3.5845 2.7892,6.7715 3.1875,1.5937 0.3982,-5.1778 2.3909,-6.3532 3.1875,10.375 0,-2.788 -1.5938,-22.7051 -1.5938,-28.2813 0,-1.9409 1.2805,-3.6884 3.2188,-5.5624 -0.1222,-6.0165 0.2702,-9.7643 1.5,-9.7188 4.677,0.1732 8.2167,-0.7854 11.9062,-3.75 -6.0797,3.1605 -11.9014,-0.1111 -4.6875,-8.8438 -7.4291,5.5718 -13.4518,3.1659 -8.0937,-6.875 z"
         id="path3918-9"
         style="color:#000000;fill:#d40000;stroke:none;marker:none;visibility:visible;display:inline;overflow:visible;enable-background:accumulate" />
    </g>
    <path
       d="m 1341.5047,3659.5903 c 0.4172,3.7547 -2.2946,9.1781 -5.8407,10.0125 -3.5461,0.8344 -8.9696,-1.4601 -15.8532,-5.2149 -6.8836,-3.7547 -8.761,-4.1718 -12.3071,-5.4234 -3.5461,-1.2516 -7.5094,-5.4235 -11.4727,-12.7243 -3.9633,-7.3008 -3.7547,-9.3868 -2.7118,-11.0555 1.043,-1.6688 2.7405,-3.6 2.9204,-5.6321 0.2056,-2.3231 2.5031,-5.4235 3.7547,-5.0063 1.8773,2.5031 1.8773,3.1289 0.4172,5.6321 -1.4602,2.5031 1.0429,4.7977 4.5891,7.9266 3.5461,3.1289 8.3438,4.3805 13.5586,6.8836 5.2149,2.5032 15.8476,13.4106 18.3447,14.6914 1.7231,0.8838 3.6095,0.3782 4.6008,-0.09 z"
       id="path3263-5"
       style="color:#000000;fill:#ff0000;stroke:#aa0000;stroke-width:0.5;stroke-linecap:butt;stroke-linejoin:miter;stroke-miterlimit:4;stroke-opacity:1;stroke-dasharray:none;stroke-dashoffset:0;marker:none;visibility:visible;display:inline;overflow:visible;enable-background:accumulate" />
    <path
       d="m 1347.563,3621.8438 c 0.4171,1.6687 -0.01,3.7476 -1.4688,5.625 -1.0657,1.3702 -6.0154,6.4075 -9.75,11.2187 -0.012,0.051 -0.02,0.1051 -0.031,0.1563 6.3727,-4.7796 11.5551,-11.5515 12.75,-13.3438 -0.9957,4.5804 -3.5594,6.3486 -5.75,8.9375 3.3855,-2.3898 5.356,-5.5747 6.75,-6.9687 -1.394,4.7795 -3.7665,7.5869 -6.1562,10.375 -2.3898,2.788 1.965,1.9957 2.5625,1 0.5974,-0.9957 2.0159,-3.8052 2.8125,-5 -0.1992,4.5803 -1.4069,9.7665 -3,12.1562 4.3812,-3.3854 2.9761,1.0043 1.7812,2 4.3812,-0.5974 -0.981,3.9614 -2.375,5.1562 4.3812,-1.3939 6.5784,-5.555 7.375,-6.75 -1.0838,3.7159 -2.6392,6.327 -3.8437,8.5313 0.2799,-0.2605 0.5595,-0.4971 0.8437,-0.7813 4.5891,-4.589 7.5024,-12.9242 5.625,-15.2187 -1.8774,-2.2946 -2.2914,-4.3921 -2.5,-7.3125 -0.2086,-2.9203 0.8415,-9.5727 -5.625,-9.7812 z"
       id="path3939-1"
       style="color:#000000;fill:#d40000;stroke:none;marker:none;visibility:visible;display:inline;overflow:visible;enable-background:accumulate" />
    <path
       d="m 1299.7505,3624.5 c -1.2845,0.01 -3.3073,2.8846 -3.5,5.0625 -0.1799,2.0321 -1.8946,3.9562 -2.9375,5.625 -1.043,1.6687 -1.2446,3.7617 2.7187,11.0625 3.9633,7.3008 7.9226,11.4671 11.4688,12.7188 3.5461,1.2516 5.4288,1.6515 12.3125,5.4062 6.8836,3.7548 12.2805,5.977 15.8437,5.2188 1.8288,-0.3891 6.6365,-5.098 5.823,-9.9527 -0.4248,0.3485 -1.4381,1.3633 -3.1982,1.3096 -2.0782,-0.063 -3.1609,-1.0094 -5.7498,-1.6069 3.1863,1.7923 2.5901,1.9853 3.1875,4.375 0.5974,2.3897 -6.1733,3.984 -10.1562,3.1874 -3.983,-0.7966 -5.3671,-4.5832 -4.9688,-7.9687 -5.1778,3.3855 -8.756,0.6122 -14.5312,-2.375 -5.7753,-2.9872 -11.5705,-15.9497 -11.9688,-17.3437 -0.3983,-1.394 1.2156,-6.1527 3.4063,-6.75 -0.3983,3.9828 1.6022,10.5323 3.5937,13.7187 -1.1202,-2.6138 -0.4975,-8.541 1.0625,-10.75 -1.8294,-1.8856 -2.7637,-3.5123 -1.75,-5.25 1.4602,-2.5032 1.4711,-3.1532 -0.4062,-5.6563 -0.078,-0.026 -0.1644,-0.032 -0.25,-0.031 z"
       id="path4163-7"
       style="color:#000000;fill:#d40000;fill-opacity:1;stroke:none;marker:none;visibility:visible;display:inline;overflow:visible;enable-background:accumulate" />
    <path
       d="m 1331.2081,3646.2402 c -3.1674,5.1699 -7.6555,9.7911 -11.1887,13.7673 -3.5757,4.024 -7.5094,4.1719 -11.0555,-0.4172 3.9633,2.0859 5.8406,1.0429 9.1781,-2.7118 3.3376,-3.7547 6.2579,-7.5094 7.9266,-9.5953 1.6688,-2.086 4.0965,-1.043 5.1395,-1.043 z"
       id="path3261-6"
       style="color:#000000;fill:#ff0000;stroke:#aa0000;stroke-width:0.5;stroke-linecap:butt;stroke-linejoin:miter;stroke-miterlimit:4;stroke-opacity:1;stroke-dasharray:none;stroke-dashoffset:0;marker:none;visibility:visible;display:inline;overflow:visible;enable-background:accumulate" />
  </g>
</svg>
