<?xml version="1.0" encoding="UTF-8" standalone="no"?>
<svg xmlns="http://www.w3.org/2000/svg" id="shirt_colar_1_of_2" width="560" height="560">
  <g id="layer1">
    <g id="g294630" style="display:inline;enable-background:new">
      <path id="path32297-4-7" d="M283.8 169.6c5-5 10.3-4.5 11.3-18.2 4.2 8.7-.8 21.5-.3 29.7-8.3-4.7-5-11-11-11.4z" style="color:#000000;fill:#f2f2f2;fill-opacity:1;fill-rule:evenodd;stroke:#b3b3b3;stroke-width:1;stroke-linecap:butt;stroke-linejoin:miter;stroke-miterlimit:4;stroke-opacity:1;stroke-dasharray:none;stroke-dashoffset:0;marker:none;visibility:visible;display:inline;overflow:visible;enable-background:accumulate"/>
      <path id="path32435-9-2" d="M267.8 152c-3.2 8.4 2 24.2 2 30 8-6 6.3-13 10.2-12.7-4-5.7-11.3-2-12.2-17.3z" style="color:#000000;fill:#f2f2f2;fill-opacity:1;fill-rule:evenodd;stroke:#b3b3b3;stroke-width:1;stroke-linecap:butt;stroke-linejoin:miter;stroke-miterlimit:4;stroke-opacity:1;stroke-dasharray:none;stroke-dashoffset:0;marker:none;visibility:visible;display:inline;overflow:visible;enable-background:accumulate"/>
      <path id="path56812" d="M296 156.7c.5 4 0 12.4-2 18-2 5.4-5-2.5-3.6-4.3 1.2-2 5.4-6.6 5.7-13.7z" style="color:#000000;fill:#e6e6e6;fill-opacity:1;stroke:none;stroke-width:0.5;marker:none;visibility:visible;display:inline;overflow:visible;enable-background:accumulate"/>
      <path id="path56812-3" d="M267.4 156.7c-.4 4 0 12.4 2 18 2 5.4 5-2.5 3.7-4.3-1-2-5.4-6.6-5.6-13.7z" style="color:#000000;fill:#e6e6e6;fill-opacity:1;stroke:none;stroke-width:0.5;marker:none;visibility:visible;display:inline;overflow:visible;enable-background:accumulate"/>
    </g>
  </g>
</svg>
