<?xml version="1.0" encoding="UTF-8" standalone="no"?>
<!-- Created with Inkscape (http://www.inkscape.org/) -->

<svg
   xmlns:dc="http://purl.org/dc/elements/1.1/"
   xmlns:cc="http://creativecommons.org/ns#"
   xmlns:rdf="http://www.w3.org/1999/02/22-rdf-syntax-ns#"
   xmlns:svg="http://www.w3.org/2000/svg"
   xmlns="http://www.w3.org/2000/svg"
   version="1.1"
   width="560"
   height="560"
   id="shirt_turtleneck">
  <path
     d="m 268.51409,157.21979 c -3.94081,2.63878 -12.94966,11.4904 -18.54967,13.24548 -2.70107,0.84654 -9.63524,0.3848 -15.34533,3.41931 -12.73358,6.76701 3.09864,41.81383 7.48961,55.86442 1.42315,4.55392 2.52835,8.85566 3.29619,12.88317 -1.4719,3.6123 0.61824,3.54071 0.82481,5.22716 0.73515,6.00157 0.59728,11.28643 -0.49136,15.76627 -0.49001,2.01645 -0.34752,7.92417 -0.0407,14.12179 0.19536,3.94564 -2.5079,8.00878 0.66513,11.26016 0.18849,2.94934 0.3324,5.23073 0.34157,6.15057 23.4191,4.12177 57.196,1.98537 78.21554,-6.78124 -0.26233,-0.97549 -0.91469,-3.47593 -1.33106,-5.01795 0.6569,-3.14596 -1.14134,-4.22821 -1.77537,-6.6033 -2.20155,-8.24706 -4.66696,-17.78116 -4.83959,-20.15654 -0.27218,-3.7452 -1.06863,-8.80788 -1.21988,-13.02927 -0.0901,-2.51538 1.50053,-2.91743 0.6643,-6.19329 2.80064,-6.64925 2.91068,-17.30653 5.33043,-21.33953 7.48031,-27.28142 18.4919,-40.83991 -7.27554,-43.95193 -5.43914,-0.6569 -17.88358,-14.09554 -19.63512,-17.36693 0.82117,17.5502 -21.78664,21.34883 -26.32399,2.50165 z"
     id="path297081"
     style="fill:#f2f2f2;fill-opacity:1;stroke:#b3b3b3;stroke-width:1;stroke-linecap:butt;stroke-linejoin:miter;stroke-miterlimit:4;stroke-opacity:1;stroke-dasharray:none;display:inline;enable-background:new" />
  <path
     d="m 294.76961,169.22163 c -1.34141,3.75517 -8.14278,5.29251 -12.21418,5.48639 -4.07139,0.19388 -12.70285,-0.75204 -14.46824,-6.29129 3.68364,-6.3979 6.90708,1.59224 13.88662,1.39837 6.97953,-0.19388 9.11216,-10.28727 12.7958,-0.59347 z"
     id="path297499"
     style="color:#000000;fill:#e6e6e6;fill-opacity:1;stroke:none;stroke-width:0.5;marker:none;visibility:visible;display:inline;overflow:visible;enable-background:accumulate" />
  <path
     d="m 312.25,204.4375 c 1.55938,2.00492 4.00312,6.23525 5.5625,12.25 -1.33661,-1.78215 -8.23614,-8.26428 -12.46875,-10.9375 4.67814,4.45537 13.375,16.03437 13.375,17.59375 0,1.55938 -3.14018,10.71875 -4.03125,10.71875 -0.89107,0 -2.89642,-0.44776 -6.90625,-3.34375 1.11384,0.89108 4.24508,4.2299 6.25,5.34375 2.00491,1.11384 3.13393,3.34375 0.90625,3.34375 -2.22769,0 -12.2674,-8.48213 -16.5,-12.9375 3.34153,5.34644 12.70981,12.46786 14.9375,14.25 2.22768,1.78215 0.88705,7.58704 0.21875,13.15625 -0.66831,5.56922 -0.63796,12.92857 1.8125,15.15625 2.45045,2.22769 5.52411,5.56964 4.1875,6.90625 -1.33661,1.33661 -7.12944,3.12188 -13.8125,1.5625 2.89599,1.55938 11.60401,2.88303 14.5,2.4375 2.89599,-0.44554 4.0009,1.10893 2.21875,2 -1.50556,0.75278 -4.94205,7.83904 -11.875,10.96875 5.1597,-1.24043 9.98875,-2.74098 14.28125,-4.53125 -0.26233,-0.97549 -0.89613,-3.48923 -1.3125,-5.03125 0.6569,-3.14596 -1.14722,-4.21866 -1.78125,-6.59375 -2.20155,-8.24706 -4.67112,-17.78087 -4.84375,-20.15625 -0.27218,-3.7452 -1.0675,-8.80986 -1.21875,-13.03125 -0.0901,-2.51538 1.49248,-2.91164 0.65625,-6.1875 2.80064,-6.64925 2.924,-17.31075 5.34375,-21.34375 0.98442,-3.59027 2.01639,-6.90885 3.03125,-10.03125 -4.47479,1.45889 -9.6145,1.48107 -12.53125,-1.5625 z"
     id="path297501"
     style="color:#000000;fill:#e6e6e6;fill-opacity:1;stroke:none;marker:none;visibility:visible;display:inline;overflow:visible;enable-background:accumulate" />
  <path
     d="m 261,203.09375 c -3.78707,6.46029 -11.64087,13.00868 -16.25,13.125 3.53275,-1.29917 7.09007,-6.74761 9.59375,-12.90625 -4.31737,5.7072 -8.26428,6.69464 -10.9375,8.03125 -2.05903,1.02952 -4.75802,1.93 -5.59375,6.15625 1.69677,4.74395 3.29018,9.0787 4.28125,12.25 1.42315,4.55392 2.54466,8.84749 3.3125,12.875 -1.4719,3.6123 0.60593,3.5323 0.8125,5.21875 0.73515,6.00157 0.61989,11.30141 -0.46875,15.78125 -0.49001,2.01645 -0.36932,7.92738 -0.0625,14.125 0.19536,3.94564 -2.48553,7.99862 0.6875,11.25 0.18849,2.94934 0.33458,5.23641 0.34375,6.15625 5.29115,0.93124 11.10549,1.52445 17.1875,1.8125 -6.22959,-1.05134 -11.045,-2.53017 -12.25,-3.21875 -1.55938,-0.89107 -1.57054,-4.46473 -1.125,-4.6875 0.44553,-0.22276 11.82721,0.22546 21.40625,-5.34375 -5.56921,2.22769 -20.28749,3.80938 -23.40625,2.25 -3.11876,-1.55938 -1.25958,-3.14759 1.03125,-4.125 3.97828,-1.69737 5.38021,-4.61889 2.5,-9.28125 -2.25206,-3.64553 -3.30955,-8.75339 -2.28125,-10.53125 1.2973,-2.24293 -3.39691,-8.5303 1.34375,-7.15625 3.87941,1.12442 7.14087,0.29852 14.34375,-0.90625 -10.63533,-0.0406 -14.47277,-1.12792 -14.25,-3.875 0.18006,-2.2204 10.72673,-1.79542 16.1875,-6.375 -5.89252,1.52392 -14.15174,2.55116 -18.65625,1.6875 -2.41654,-0.46333 -1.70847,-2.97101 1.625,-2.46875 2.87654,0.43341 4.6928,0.31959 7.28125,-0.65625 -3.88761,-0.26022 -8.39138,-2.14457 -9.125,-3.09375 -1.69737,-2.19613 -3.10581,-5.80759 -2.4375,-7.8125 0.6683,-2.00492 8.33482,-2.91992 10.5625,-5.65625 -2.22768,0.92263 -8.55759,3.66116 -10.5625,1.65625 -2.00492,-2.00492 -3.33661,-6.46071 -2,-6.90625 1.33661,-0.44553 12.89641,-7.35042 16.90625,-17.375 z"
     id="path297503"
     style="color:#000000;fill:#e6e6e6;fill-opacity:1;stroke:none;marker:none;visibility:visible;display:inline;overflow:visible;enable-background:accumulate" />
  <path
     d="m 267.73655,290.24343 c 14.02907,-3.30096 19.80575,-6.1893 39.19888,-6.1893 -8.66501,4.95144 -33.83482,5.36406 -39.19888,6.1893 z"
     id="path297505"
     style="color:#000000;fill:#e6e6e6;fill-opacity:1;stroke:none;marker:none;visibility:visible;display:inline;overflow:visible;enable-background:accumulate" />
  <path
     d="m 326.86933,175.60427 c 2.45523,-0.15417 5.78824,4.59493 8.72731,13.41213 3.39342,3.95328 1.25074,4.2941 1.62501,6.34132 2.22922,12.19339 -0.92482,21.80607 0.45644,24.91388 1.61321,3.62968 3.83127,9.53358 3.62963,19.0298 -0.0547,2.57783 0.16696,4.77234 0.54081,6.72912 3.02529,2.45944 0.85159,3.51651 1.37718,5.0767 0.95327,2.82975 2.00716,5.36366 2.51823,8.35553 0.36016,2.10842 0.69835,4.36142 1.0161,6.70863 3.19978,3.21514 0.45796,3.51637 0.67087,5.33127 0.67324,5.73892 1.52992,13.23079 2.01277,18.94995 0.27497,3.25685 4.37706,6.11006 0.74551,9.3309 0.61848,8.10107 0.76401,13.02965 1.09097,15.15493 -0.37127,-4.61842 -12.66111,-2.33703 -16.20939,0.15865 0.27752,-1.29508 -0.45263,-6.50372 -1.83376,-13.98952 -2.81981,-2.42616 -0.93333,-4.93999 -1.42532,-7.38758 -0.74516,-3.70705 -1.79324,-8.70458 -2.45682,-11.57294 -0.49318,-2.13179 -2.11943,-1.80859 -1.27512,-5.03786 -2.04218,-6.89278 -4.4151,-19.95472 -4.03921,-25.20033 0.17806,-2.48484 -2.2924,-1.75019 -1.54746,-6.73098 -1.14901,-2.56874 -2.72126,-5.60407 -3.99476,-10.3797 -2.41976,-9.0741 -3.9087,-28.29146 -2.0939,-41.39856"
     id="path296777"
     style="fill:#f2f2f2;fill-opacity:1;stroke:#b3b3b3;stroke-width:1;stroke-linecap:round;stroke-linejoin:miter;stroke-miterlimit:4;stroke-opacity:1;stroke-dasharray:none;display:inline;enable-background:new" />
  <path
     d="m 233.67361,174.6093 c -1.76111,0.86451 -2.46339,1.32158 -4.68168,4.88708 -5.9676,9.59183 -4.7756,20.69951 -4.36809,28.86547 -3.07677,6.07902 0.20832,6.8075 -0.67307,8.88505 -2.82309,6.65438 -3.42798,10.6873 -4.23457,20.3663 -3.16677,3.90102 -0.80401,4.35779 -1.58819,6.31232 -1.37958,3.43853 -3.32156,6.92392 -4.63221,13.14686 -2.47234,4.2556 -0.73553,4.01758 -0.98346,6.4771 -0.33083,3.282 -0.49977,7.14333 -0.42817,11.76125 0.0929,5.99089 0.16713,10.59375 0.24371,14.30716 0.0786,3.81228 -3.10206,8.11348 0.2659,11.18336 0.23953,5.58604 0.6069,7.12828 1.36226,14.85401 2.43614,-6.34822 16.18285,-7.04581 16.14936,-4.0304 -0.38425,-2.74962 -0.37834,-6.86953 -0.0341,-13.58685 2.51219,-3.91791 0.33596,-7.37812 0.58439,-10.22381 0.74357,-8.5172 1.95719,-16.84216 3.54741,-20.77097 2.14132,-5.29034 2.01284,-11.67827 2.00792,-16.26895 -0.003,-2.75844 1.52132,-3.08883 0.6442,-5.70055 0.78757,-1.08293 9.82771,-16.03067 8.95134,-21.7504 -0.34859,-2.27513 -0.50367,-7.13197 0.87072,-9.58496 1.97578,-3.52635 -1.64585,-15.53382 -2.1643,-17.29472"
     id="path296779"
     style="fill:#f2f2f2;fill-opacity:1;stroke:#b3b3b3;stroke-width:1;stroke-linecap:round;stroke-linejoin:miter;stroke-miterlimit:4;stroke-opacity:1;stroke-dasharray:none;display:inline;enable-background:new" />
  <path
     d="m 248.53799,173.45821 c 5.56921,3.34153 9.80181,7.7969 13.81165,15.37103 -3.34153,-10.02458 -7.57413,-12.69781 -13.81165,-15.37103 z"
     id="path296865"
     style="color:#000000;fill:#e6e6e6;fill-opacity:1;stroke:none;marker:none;visibility:visible;display:inline;overflow:visible;enable-background:accumulate" />
  <path
     d="m 314.923,174.34929 c -3.11876,1.78214 -9.57905,8.4652 -12.25227,15.37102 2.67322,-9.57904 6.90583,-12.92057 12.25227,-15.37102 z"
     id="path296867"
     style="color:#000000;fill:#e6e6e6;fill-opacity:1;stroke:none;marker:none;visibility:visible;display:inline;overflow:visible;enable-background:accumulate" />
  <path
     d="m 296.87875,158.75549 c 5.12368,5.34645 6.01475,14.25719 3.34153,21.16301 0.89107,-7.57413 0.6683,-15.37103 -3.34153,-21.16301 z"
     id="path296869"
     style="color:#000000;fill:#e6e6e6;fill-opacity:1;stroke:none;marker:none;visibility:visible;display:inline;overflow:visible;enable-background:accumulate" />
  <path
     d="m 265.69116,159.20103 c -2.45045,4.2326 -3.56429,12.0295 -1.78214,15.14826 0,-5.34645 0.22277,-11.3612 1.78214,-15.14826 z"
     id="path296871"
     style="color:#000000;fill:#e6e6e6;fill-opacity:1;stroke:none;marker:none;visibility:visible;display:inline;overflow:visible;enable-background:accumulate" />
  <path
     d="m 332.4375,181.34375 c -3.46377,0.39765 -6.98602,4.20158 -8.71875,8.75 4.41059,-3.15042 10.70604,-1.58284 12.28125,0.9375 1.57522,2.52034 0.95275,3.15879 -0.9375,2.84375 -1.89025,-0.31504 -4.10286,-1.27902 -10.71875,10.0625 4.41059,-5.35572 6.62829,-7.22637 10.09375,-6.28125 3.46547,0.94513 1.2518,22.35286 -2.84375,28.96875 3.46547,-4.72564 5.04979,-3.13188 6.625,1.59375 1.57521,4.72563 4.41313,8.82087 -0.3125,11.65625 -4.72563,2.83538 -3.78051,4.39862 0,5.34375 3.7805,0.94512 2.82013,3.78379 1.875,3.46875 -0.94513,-0.31504 -4.07596,-0.94004 -6.28125,-0.625 5.04067,1.26017 7.55742,2.19587 8.1875,5.03125 0.63009,2.83538 2.50254,9.13337 2.1875,11.96875 -0.31504,2.83538 -0.63845,4.08867 -2.84375,4.71875 3.15042,0.63008 4.42987,-0.92988 5.375,-1.875 0.94512,-0.94513 1.26271,1.58358 -0.3125,2.84375 -1.57522,1.26017 -6.00583,4.08359 -9.15625,5.34375 4.41059,-0.63008 7.27362,-2.5287 8.21875,-2.84375 0.94513,-0.31504 1.24238,14.8285 2.1875,16.71875 0.94513,1.89025 2.82775,6.90625 0.9375,6.90625 -1.89025,0 -10.70095,0.0211 -12.90625,1.28125 -2.20529,1.26017 -2.82267,-3.17479 -1.5625,-4.75 1.26017,-1.57522 5.02108,-5.02617 6.28125,-5.65625 -3.46546,1.89025 -5.96367,3.15371 -6.59375,3.46875 -0.63009,0.31504 -2.53379,-9.46621 -2.21875,-9.78125 0.31504,-0.31504 4.40445,1.25763 8.5,0.3125 -3.46546,0.31505 -9.74746,-1.23728 -10.0625,-2.8125 -0.31504,-1.57521 1.54724,-2.22638 3.4375,-1.28125 -2.52034,-1.57522 -5.96367,-18.58941 -6.59375,-23 -0.63009,-4.41059 5.03707,-2.82013 8.1875,-1.875 -3.15043,-2.52034 -8.83613,-3.14354 -9.78125,-4.71875 -0.94513,-1.57521 1.26092,-2.84375 3.78125,-2.84375 2.52034,0 0.94767,-3.46113 -0.3125,-4.40625 -1.26017,-0.94513 -5.66971,-4.72533 -7.875,-11.65625 -2.06747,-6.49775 -4.95582,-21.5955 -4.53125,-32.28125 -1.16379,12.83712 0.25416,29.6328 2.46875,37.9375 1.2735,4.77563 2.85099,7.80626 4,10.375 -0.74494,4.98079 1.70931,4.23391 1.53125,6.71875 -0.37589,5.24561 2.02032,18.29472 4.0625,25.1875 -0.84431,3.22927 0.75682,2.93071 1.25,5.0625 0.66358,2.86836 1.72359,7.85545 2.46875,11.5625 0.49199,2.44759 -1.38231,4.94884 1.4375,7.375 0.31632,1.71447 0.60001,3.29408 0.84375,4.75 5.50419,-2.81327 13.53349,-2.96599 16.59375,1.5 -0.1324,-2.14579 -0.27145,-4.56892 -0.5,-7.5625 3.63155,-3.22084 -0.47503,-6.0869 -0.75,-9.34375 -0.48285,-5.71916 -1.32676,-13.19858 -2,-18.9375 -0.21291,-1.8149 2.51228,-2.12861 -0.6875,-5.34375 -0.31775,-2.34721 -0.63984,-4.57908 -1,-6.6875 -0.51107,-2.99187 -1.57798,-5.54525 -2.53125,-8.375 -0.52559,-1.56019 1.65029,-2.60306 -1.375,-5.0625 -0.37385,-1.95678 -0.58595,-4.14092 -0.53125,-6.71875 0.20164,-9.49622 -2.01179,-15.40157 -3.625,-19.03125 -1.38126,-3.10781 1.76047,-12.74411 -0.46875,-24.9375 -0.37427,-2.04722 1.76842,-2.35922 -1.625,-6.3125 -1.02357,-3.0707 -2.09084,-5.63889 -3.15625,-7.6875 z"
     id="path296873"
     style="color:#000000;fill:#e6e6e6;fill-opacity:1;stroke:none;marker:none;visibility:visible;display:inline;overflow:visible;enable-background:accumulate" />
  <path
     d="m 325.1308,177.10925 c -3.58588,0.21004 -12.34356,3.32478 -17.80793,8.3225 6.65267,-7.39231 11.92948,-8.50406 17.80793,-8.3225 z"
     id="path296875"
     style="color:#000000;fill:#e6e6e6;fill-opacity:1;stroke:none;marker:none;visibility:visible;display:inline;overflow:visible;enable-background:accumulate" />
  <path
     d="m 333.12858,301.6243 c 3.46186,-1.40928 12.64155,-3.15679 17.25736,-1.42586"
     id="path296877"
     style="color:#000000;fill:none;stroke:#b3b3b3;stroke-width:1;stroke-linecap:butt;stroke-linejoin:miter;stroke-miterlimit:4;stroke-opacity:1;stroke-dasharray:none;stroke-dashoffset:0;marker:none;visibility:visible;display:inline;overflow:visible;enable-background:accumulate" />
  <path
     d="m 227.71875,181.78125 c -4.50585,9.0317 -3.46921,19.07007 -3.09375,26.59375 -3.07677,6.07902 0.19389,6.79745 -0.6875,8.875 -0.73041,1.72166 -1.27465,3.26736 -1.75,4.78125 1.11721,-1.41492 2.21834,-1.88255 3.65625,-2.78125 2.30096,-1.4381 6.60984,-3.17355 12.9375,-6.625 -10.73294,4.22201 -13.80613,2.00698 -14.09375,0.28125 -0.28762,-1.72572 0.83248,-3.2967 3.5,-3.9375 4.07198,-0.97818 1.62171,-3.88989 -1.28125,-7.96875 -2.74009,-3.85002 -1.60036,-12.32531 0.8125,-19.21875 z m 18.875,23.125 c 0.24782,6.14612 -1.35179,8.90177 -3.8125,11.78125 -4.64141,5.43131 0.0307,5.15504 1.46875,8.03125 1.4381,2.87621 -2.57343,7.20298 -6.3125,14.96875 -3.73908,7.76576 -7.19722,8.63017 -13.8125,11.21875 4.02669,-0.28762 9.49939,-2.61225 10.9375,-3.1875 -0.57525,2.87621 -6.04734,6.63653 -12.375,8.9375 8.341,-1.15048 11.20601,-5.75061 11.78125,-4.3125 0.57525,1.4381 0.46253,15.21049 -7.40625,15.8125 0,0 3.64798,0.0108 4.8125,1.4375 0.98549,1.20741 -0.74003,2.30553 -2.8125,2.25 2.38367,3.70922 0.34982,7.54465 -0.375,6.90625 1.6659,5.33981 -1.98847,7.81706 0.3125,11.84375 2.30096,4.02669 0.87621,4.60649 -2,4.03125 -2.87621,-0.57524 -11.78065,1.42476 -13.21875,2 -1.43811,0.57524 -1.43871,-2.01791 1.4375,-4.03125 2.87621,-2.01335 2.30097,-6.91081 0,-10.9375 -2.30096,-4.02669 -2.03822,-14.64988 -0.3125,-14.9375 1.72573,-0.28762 8.92355,5.47331 12.375,9.5 -2.58859,-5.46479 -12.34952,-12.96815 -13.5,-14.40625 -1.15048,-1.43811 -0.30036,-3.43173 0.5625,-2.28125 0.72503,0.96671 2.98253,2.58171 7.0625,4.9375 -4.19397,-2.86985 -6.43141,-7.22406 -6.1875,-8.6875 0.28762,-1.72573 2.29278,-9.49939 4.59375,-10.9375 2.30097,-1.4381 5.54809,-0.95752 8.90625,-0.28125 -1.15999,-0.99881 -4.6248,-2.875 -6.3125,-2.875 -2.87621,0 -4.96282,-1.27062 -1.875,-2.375 8.01748,-2.8675 1.30365,-5.05886 0.5,-12.8125 -0.57993,2.99747 -0.91845,6.39641 -1.3125,11.125 -3.16677,3.90102 -0.80957,4.35797 -1.59375,6.3125 -1.37958,3.43853 -3.31435,6.90206 -4.625,13.125 -2.47234,4.2556 -0.75207,4.04048 -1,6.5 -0.33083,3.282 -0.47785,7.13208 -0.40625,11.75 0.0929,5.99089 0.14217,10.59909 0.21875,14.3125 0.0786,3.81228 -3.08671,8.11762 0.28125,11.1875 0.14752,3.44028 0.38223,5.7695 0.6875,8.53125 2.23107,-6.36623 9.02853,-9.2567 16.625,-7.625 0.0415,-1.15536 0.0867,-2.33016 0.15625,-3.6875 2.51219,-3.91791 0.34532,-7.37306 0.59375,-10.21875 0.74357,-8.5172 1.94103,-16.85244 3.53125,-20.78125 2.14132,-5.29034 2.03617,-11.65932 2.03125,-16.25 -0.003,-2.75844 1.50212,-3.10703 0.625,-5.71875 0.78757,-1.08293 9.84512,-16.03027 8.96875,-21.75 -0.34859,-2.27513 -0.49939,-7.10951 0.875,-9.5625 0.94605,-1.6885 0.5717,-5.32222 -0.0937,-8.84375 z m -25.1875,59.5625 c 0.75166,0.51435 1.56322,0.98157 2.4375,1.375 -0.91886,-0.50538 -1.66189,-0.92716 -2.4375,-1.375 z"
     id="path296879"
     style="color:#000000;fill:#e6e6e6;fill-opacity:1;stroke:none;marker:none;visibility:visible;display:inline;overflow:visible;enable-background:accumulate" />
  <path
     d="m 244.7741,173.29241 c 4.73506,4.44535 7.9279,9.69616 10.24245,17.94777 -1.14236,-10.5049 -4.71269,-14.01401 -10.24245,-17.94777 z"
     id="path296887"
     style="color:#000000;fill:#e6e6e6;fill-opacity:1;stroke:none;marker:none;visibility:visible;display:inline;overflow:visible;enable-background:accumulate" />
  <path
     d="m 267.85687,151.62805 c 1.15748,6.9003 8.52827,8.82407 14.42789,8.54772 5.07803,-0.23786 11.77083,-3.04988 12.33689,-8.96592 4.18199,3.7638 1.25459,6.4821 1.46369,8.364 0.2091,1.88189 3.20825,13.6125 -14.84608,13.6125 -17.90649,0 -12.75509,-11.31241 -14.21879,-13.8216 -1.4637,-2.5092 0,-6.4821 0.8364,-7.7367 z"
     id="path296997"
     style="color:#000000;fill:#f2f2f2;fill-opacity:1;stroke:#b3b3b3;stroke-width:1;stroke-linecap:butt;stroke-linejoin:miter;stroke-miterlimit:4;stroke-opacity:1;stroke-dasharray:none;stroke-dashoffset:0;marker:none;visibility:visible;display:inline;overflow:visible;enable-background:accumulate" />
  <path
     d="m 296.59375,153.84375 c 0.0409,2.72381 -1.85209,7.25087 -5.75,8.875 2.3001,-0.4182 4.4159,-1.26655 4.625,0.40625 0.20909,1.6728 -3.55754,8.125 -13.40625,8.125 -11.91869,0 -12.9421,-9.15855 -11.6875,-8.53125 1.2546,0.6273 7.5248,1.86765 12.125,1.03125 -10.32664,-0.17503 -15.79979,-5.02955 -15.84375,-9.0625 -0.35804,1.55113 -0.41616,3.33122 0.375,4.6875 1.4637,2.50919 -3.68774,13.8125 14.21875,13.8125 18.05433,0 15.05285,-11.74311 14.84375,-13.625 -0.15682,-1.41143 1.45075,-3.27816 0.5,-5.71875 z"
     id="path296975"
     style="color:#000000;fill:#e6e6e6;fill-opacity:1;stroke:none;marker:none;visibility:visible;display:inline;overflow:visible;enable-background:accumulate" />
</svg>
