<?xml version="1.0" encoding="UTF-8" standalone="no"?>
<!-- Created with Inkscape (http://www.inkscape.org/) -->

<svg
   xmlns:dc="http://purl.org/dc/elements/1.1/"
   xmlns:cc="http://creativecommons.org/ns#"
   xmlns:rdf="http://www.w3.org/1999/02/22-rdf-syntax-ns#"
   xmlns:svg="http://www.w3.org/2000/svg"
   xmlns="http://www.w3.org/2000/svg"
   version="1.1"
   width="560"
   height="560"
   id="shirt_tshirt">
  <path
     d="m 265.05284,160.79483 c -5.04888,3.21736 -16.88542,9.71473 -22.447,11.00851 -18.66767,4.34262 -4.5828,41.42735 -1.15093,61.24537 1.50489,8.69031 4.98121,34.74612 1.68981,40.21382 -1.59021,2.64167 -1.41216,5.05425 0.18173,6.39452 1.26519,1.06387 2.75522,2.94815 0.99959,4.36308 -2.70753,2.18211 -1.46817,3.84984 -0.16223,4.54911 1.71576,0.91871 0.91516,3.75236 1.04987,5.53771 19.21051,1.19916 55.35819,-8.71419 79.72193,-8.52046 -1.38223,-3.0589 0.44102,-4.63515 1.50265,-7.05925 0.53551,-1.22277 0.83442,-5.11587 -2.13472,-6.69108 -0.99137,-0.52595 -1.29696,-3.78117 -0.6152,-6.60687 0.58813,-2.43772 -1.19497,-2.9374 -2.33246,-3.50247 -2.57027,-1.27684 -0.95562,-14.3604 -2.05351,-20.06034 -1.55013,-8.04785 4.11712,-27.26034 4.33426,-31.92266 0.2188,-4.69804 11.81466,-34.50155 -4.71099,-36.5932 -2.61815,-0.33138 -13.97328,-8.27637 -20.82496,-13.15356 9.1251,24.53908 -39.02642,24.8689 -33.0479,0.79777 z"
     id="path2987-8-1-6-02"
     style="fill:#f2f2f2;stroke:#b3b3b3;stroke-width:1;stroke-linecap:butt;stroke-linejoin:miter;stroke-miterlimit:4;stroke-opacity:1;stroke-dasharray:none;display:inline" />
  <path
     d="m 261.35276,162.75458 c -3.77591,15.60674 12.90101,20.45282 20.76747,20.45282 7.86647,0 25.15196,-4.82534 19.82351,-19.8235"
     id="path49715-46"
     style="color:#000000;fill:none;stroke:#b3b3b3;stroke-width:0.5;stroke-linecap:butt;stroke-linejoin:miter;stroke-miterlimit:4;stroke-opacity:1;stroke-dasharray:1, 0.5;stroke-dashoffset:0;marker:none;visibility:visible;display:inline;overflow:visible;enable-background:accumulate" />
  <path
     d="m 265.05284,160.79483 c -5.04888,3.21736 -16.88542,9.71473 -22.447,11.00851 -18.66767,4.34262 -4.5828,41.42735 -1.15093,61.24537 1.50489,8.69031 4.98121,34.74612 1.68981,40.21382 -1.59021,2.64167 -1.41216,5.05425 0.18173,6.39452 1.26519,1.06387 2.75522,2.94815 0.99959,4.36308 -2.70753,2.18211 -1.46817,3.84984 -0.16223,4.54911 1.71576,0.91871 0.91516,3.75236 1.04987,5.53771 19.21051,1.19916 55.35819,-8.71419 79.72193,-8.52046 -1.38223,-3.0589 0.44102,-4.63515 1.50265,-7.05925 0.53551,-1.22277 0.83442,-5.11587 -2.13472,-6.69108 -0.99137,-0.52595 -1.29696,-3.78117 -0.6152,-6.60687 0.58813,-2.43772 -1.19497,-2.9374 -2.33246,-3.50247 -2.57027,-1.27684 -0.95562,-14.3604 -2.05351,-20.06034 -1.55013,-8.04785 4.11712,-27.26034 4.33426,-31.92266 0.2188,-4.69804 11.81466,-34.50155 -4.71099,-36.5932 -2.61815,-0.33138 -13.97328,-8.27637 -20.82496,-13.15356 9.1251,24.53908 -39.02642,24.8689 -33.0479,0.79777 z"
     id="path294927-1"
     style="fill:#f2f2f2;stroke:#b3b3b3;stroke-width:1;stroke-linecap:butt;stroke-linejoin:miter;stroke-miterlimit:4;stroke-opacity:1;stroke-dasharray:none;display:inline" />
  <path
     d="m 261.35276,162.75458 c -3.77591,15.60674 12.90101,20.45282 20.76747,20.45282 7.86647,0 25.15196,-4.82534 19.82351,-19.8235"
     id="path294929-5"
     style="color:#000000;fill:none;stroke:#b3b3b3;stroke-width:0.5;stroke-linecap:butt;stroke-linejoin:miter;stroke-miterlimit:4;stroke-opacity:1;stroke-dasharray:1, 0.5;stroke-dashoffset:0;marker:none;visibility:visible;display:inline;overflow:visible;enable-background:accumulate" />
  <path
     d="m 318.46157,224.2792 c -4.72476,-4.72477 -7.87461,-8.39959 -12.0744,-8.92456 -4.19979,-0.52497 -9.97451,2.62487 -17.06165,2.62487 -6.45632,-1e-5 -6.0372,3.41233 -2.88736,3.67482 3.14985,0.26248 15.30056,0.43188 19.68652,2.62487 4.72477,2.36238 9.9745,16.0117 12.33689,3.41233 0.5825,-3.10663 0,-3.41233 0,-3.41233 z"
     id="path309905-3"
     style="color:#000000;fill:#e6e6e6;fill-opacity:1;stroke:none;marker:none;visibility:visible;display:inline;overflow:visible;enable-background:accumulate" />
  <path
     d="m 312.25,204.4375 c 1.55938,2.00492 4.00312,6.23525 5.5625,12.25 -1.33661,-1.78215 -8.23614,-8.26428 -12.46875,-10.9375 4.67814,4.45537 13.375,16.03437 13.375,17.59375 0,1.55938 -3.14018,10.71875 -4.03125,10.71875 -0.89107,0 -2.89642,-0.44776 -6.90625,-3.34375 1.11384,0.89108 4.24508,4.2299 6.25,5.34375 2.00491,1.11384 3.13393,3.34375 0.90625,3.34375 -2.22769,0 -12.2674,-8.48213 -16.5,-12.9375 3.34153,5.34644 12.70981,12.46786 14.9375,14.25 2.22768,1.78215 0.88705,7.58704 0.21875,13.15625 -0.66831,5.56922 -0.63796,12.92857 1.8125,15.15625 2.45045,2.22769 5.52411,5.56964 4.1875,6.90625 -1.33661,1.33661 -7.12944,3.12188 -13.8125,1.5625 2.89599,1.55938 11.60401,2.88303 14.5,2.4375 2.89599,-0.44554 4.0009,1.10893 2.21875,2 -0.65538,0.32769 -1.67613,1.8965 -3.1875,3.78125 1.93057,-0.0887 3.81298,-0.13941 5.625,-0.125 -1.38223,-3.0589 0.43837,-4.6384 1.5,-7.0625 0.53551,-1.22277 0.84414,-5.11229 -2.125,-6.6875 -0.99137,-0.52595 -1.30676,-3.7993 -0.625,-6.625 0.58813,-2.43772 -1.20626,-2.93493 -2.34375,-3.5 -2.57027,-1.27684 -0.93336,-14.36256 -2.03125,-20.0625 -1.55013,-8.04785 4.09536,-27.24393 4.3125,-31.90625 0.032,-0.68766 0.35434,-2.02723 0.75,-3.625 -4.37726,1.32778 -9.29603,1.26448 -12.125,-1.6875 z"
     id="path56832-7-5"
     style="color:#000000;fill:#e6e6e6;fill-opacity:1;stroke:none;marker:none;visibility:visible;display:inline;overflow:visible;enable-background:accumulate" />
  <path
     d="m 246.47524,220.60438 c 6.82466,-2.88736 7.08715,-4.72477 11.28694,-5.24974 4.19979,-0.52497 13.91181,5.24974 19.68652,2.36238 5.77471,-2.88735 3.41233,3.67482 0.26249,3.93731 -3.14985,0.26248 -14.96176,-0.78746 -19.68652,0.52497 -4.72477,1.31244 -10.23699,5.77471 -12.59938,3.67482 -2.36238,-2.0999 1.04995,-5.24974 1.04995,-5.24974 z"
     id="path309905"
     style="color:#000000;fill:#e6e6e6;fill-opacity:1;stroke:none;marker:none;visibility:visible;display:inline;overflow:visible;enable-background:accumulate" />
  <path
     d="m 261,203.09375 c -3.78707,6.46029 -11.64087,13.00868 -16.25,13.125 3.53275,-1.29917 7.09007,-6.74761 9.59375,-12.90625 -4.31737,5.7072 -8.26428,6.69464 -10.9375,8.03125 -1.99314,0.99657 -4.57681,1.8618 -5.5,5.75 1.39617,5.811 2.76891,11.38598 3.5625,15.96875 1.50489,8.69031 4.9789,34.7198 1.6875,40.1875 -1.59021,2.64167 -1.43764,5.06598 0.15625,6.40625 1.26519,1.06387 2.75563,2.96007 1,4.375 -2.70753,2.18211 -1.46219,3.83198 -0.15625,4.53125 1.71576,0.91871 0.92779,3.7459 1.0625,5.53125 2.18064,0.13612 4.58114,0.11922 7.15625,0 -0.29626,-0.12178 -0.55291,-0.24899 -0.71875,-0.34375 -1.55938,-0.89107 -1.57054,-4.46473 -1.125,-4.6875 0.44553,-0.22276 11.82721,0.22546 21.40625,-5.34375 -5.56921,2.22769 -20.28749,3.80938 -23.40625,2.25 -3.11876,-1.55938 -1.25958,-3.14759 1.03125,-4.125 3.97828,-1.69737 5.38021,-4.61889 2.5,-9.28125 -2.25206,-3.64553 -3.30955,-8.75339 -2.28125,-10.53125 1.2973,-2.24293 -3.39691,-8.5303 1.34375,-7.15625 3.87941,1.12442 7.14087,0.29852 14.34375,-0.90625 -10.63533,-0.0406 -14.47277,-1.12792 -14.25,-3.875 0.18006,-2.2204 10.72673,-1.79542 16.1875,-6.375 -5.89252,1.52392 -14.15174,2.55116 -18.65625,1.6875 -2.41654,-0.46333 -1.70847,-2.97101 1.625,-2.46875 2.87654,0.43341 4.6928,0.31959 7.28125,-0.65625 -3.88761,-0.26022 -8.39138,-2.14457 -9.125,-3.09375 -1.69737,-2.19613 -3.10581,-5.80759 -2.4375,-7.8125 0.6683,-2.00492 8.33482,-2.91992 10.5625,-5.65625 -2.22768,0.92263 -8.55759,3.66116 -10.5625,1.65625 -2.00492,-2.00492 -3.33661,-6.46071 -2,-6.90625 1.33661,-0.44553 12.89641,-7.35042 16.90625,-17.375 z"
     id="path56880-9-5"
     style="color:#000000;fill:#e6e6e6;fill-opacity:1;stroke:none;marker:none;visibility:visible;display:inline;overflow:visible;enable-background:accumulate" />
  <path
     d="m 248.93547,172.99741 c -6.63481,-1.9778 -12.776,-0.32588 -19.33914,7.54989 -9.07409,10.8889 -2.84743,22.80815 -5.67048,29.46245 -2.82305,6.6544 -3.42799,10.6873 -4.23457,20.3663 5.92434,6.63653 19.64332,6.96607 25.88613,3.91101 1.36022,-17.11635 5.12436,-24.04523 -0.051,-39.01956"
     id="path3011-6-3-21-5"
     style="fill:#f2f2f2;stroke:#b3b3b3;stroke-width:0.5;stroke-linecap:round;stroke-linejoin:miter;stroke-miterlimit:4;stroke-opacity:1;stroke-dasharray:none;display:inline" />
  <path
     d="m 319.94547,174.74359 c 6.34417,0.63158 12.18661,4.89188 15.31359,14.27281 5.04117,15.1235 3.73247,24.5358 4.15205,28.48552 0.45913,4.32212 1.75402,10.40063 2.01398,16.04183 -8.00034,1.02177 -19.71546,1.77633 -24.14421,0.35233 -0.11169,-14.61347 6.95833,-22.20031 6.23427,-39.69274"
     id="path3013-4-9-6-9"
     style="fill:#f2f2f2;stroke:#b3b3b3;stroke-width:0.5;stroke-linecap:round;stroke-linejoin:miter;stroke-miterlimit:4;stroke-opacity:1;stroke-dasharray:none;display:inline" />
  <path
     d="m 331.46875,181.53125 c -3.13448,0.91717 -6.17942,4.43972 -7.75,8.5625 4.25045,-3.03604 10.25344,-1.70164 12.09375,0.65625 -0.17844,-0.57481 -0.36506,-1.12644 -0.5625,-1.71875 -1.0016,-3.0048 -2.26395,-5.49691 -3.75,-7.5 -0.004,-0.005 -0.0275,0.005 -0.0312,0 z m 2.0625,12.1875 c -1.72781,0.13291 -4.22558,1.71261 -9.1875,10.21875 4.41059,-5.35572 6.62829,-7.22637 10.09375,-6.28125 3.46547,0.94513 1.2518,22.35286 -2.84375,28.96875 3.46547,-4.72564 5.04979,-3.13188 6.625,1.59375 0.65013,1.95039 1.50947,3.77731 1.96875,5.46875 0.41324,-0.0491 0.85366,-0.10563 1.25,-0.15625 -0.25996,-5.6412 -1.57212,-11.70913 -2.03125,-16.03125 -0.37398,-3.52044 0.62929,-11.4054 -2.71875,-23.78125 -0.28616,0.25383 -0.84988,0.28544 -1.625,0.15625 -0.47256,-0.0788 -0.95531,-0.20055 -1.53125,-0.15625 z M 318.75,222.03125 c -0.87579,3.62685 -1.50278,7.42246 -1.46875,11.875 1.34605,0.4328 3.39789,0.63478 5.78125,0.71875 -0.9306,-1.53641 -1.82762,-3.35554 -2.5,-5.46875 -0.57324,-1.80161 -1.20007,-4.28028 -1.8125,-7.125 z"
     id="path56965-8-4"
     style="color:#000000;fill:#e6e6e6;fill-opacity:1;stroke:none;marker:none;visibility:visible;display:inline;overflow:visible;enable-background:accumulate" />
  <path
     d="m 317.78512,229.37943 c 8.92857,0.58128 18.84721,-0.0766 22.83603,-0.54292"
     id="path49715-6-8-9"
     style="color:#000000;fill:none;stroke:#b3b3b3;stroke-width:0.5;stroke-linecap:butt;stroke-linejoin:miter;stroke-miterlimit:4;stroke-opacity:1;stroke-dasharray:1, 0.5;stroke-dashoffset:0;marker:none;visibility:visible;display:inline;overflow:visible;enable-background:accumulate" />
  <path
     d="m 267.73655,287.00855 c 14.02907,-3.30096 19.80575,-6.1893 39.19888,-6.1893 -8.66501,4.95144 -33.83482,5.36406 -39.19888,6.1893 z"
     id="path72160-8-2"
     style="color:#000000;fill:#e6e6e6;fill-opacity:1;stroke:none;marker:none;visibility:visible;display:inline;overflow:visible;enable-background:accumulate" />
  <path
     d="m 244.33898,288.48912 c 18.46287,3.91967 47.47063,-10.56846 80.56371,-7.2446"
     id="path49715-6-7-34"
     style="color:#000000;fill:none;stroke:#b3b3b3;stroke-width:0.5;stroke-linecap:butt;stroke-linejoin:miter;stroke-miterlimit:4;stroke-opacity:1;stroke-dasharray:1, 0.5;stroke-dashoffset:0;marker:none;visibility:visible;display:inline;overflow:visible;enable-background:accumulate" />
  <path
     d="m 248.53799,173.45821 c 5.56921,3.34153 9.80181,7.7969 13.81165,15.37103 -3.34153,-10.02458 -7.57413,-12.69781 -13.81165,-15.37103 z"
     id="path56922-4-6"
     style="color:#000000;fill:#e6e6e6;fill-opacity:1;stroke:none;marker:none;visibility:visible;display:inline;overflow:visible;enable-background:accumulate" />
  <path
     d="m 314.923,174.34929 c -3.11876,1.78214 -9.57905,8.4652 -12.25227,15.37102 2.67322,-9.57904 6.90583,-12.92057 12.25227,-15.37102 z"
     id="path56942-7-8"
     style="color:#000000;fill:#e6e6e6;fill-opacity:1;stroke:none;marker:none;visibility:visible;display:inline;overflow:visible;enable-background:accumulate" />
  <path
     d="m 325.1308,177.10925 c -3.58588,0.21004 -12.34356,3.32478 -17.80793,8.3225 6.65267,-7.39231 11.92948,-8.50406 17.80793,-8.3225 z"
     id="path56942-9-5-9"
     style="color:#000000;fill:#e6e6e6;fill-opacity:1;stroke:none;marker:none;visibility:visible;display:inline;overflow:visible;enable-background:accumulate" />
  <path
     d="m 244.7741,173.29241 c 4.73506,4.44535 7.9279,9.69616 10.24245,17.94777 -1.14236,-10.5049 -4.71269,-14.01401 -10.24245,-17.94777 z"
     id="path56922-5-9-2"
     style="color:#000000;fill:#e6e6e6;fill-opacity:1;stroke:none;marker:none;visibility:visible;display:inline;overflow:visible;enable-background:accumulate" />
  <path
     d="m 227.1875,184.09375 c -5.40279,9.84715 -0.73151,19.96983 -3.25,25.90625 -2.82305,6.6544 -3.44342,10.696 -4.25,20.375 1.20487,1.34971 2.74754,2.42869 4.46875,3.28125 -0.84906,-2.17802 -2.64546,-4.52849 -1.78125,-6.875 -0.70281,-3.30263 -0.0754,-5.90602 1.875,-7.125 2.30096,-1.4381 4.61617,2.21323 10.34375,4.0625 -5.63225,-3.87908 -9.61863,-9.08677 -9.90625,-10.8125 -0.28762,-1.72572 1.13818,-3.04907 3.09375,-1.125 3.07184,3.02236 1.22785,-5.50223 -0.875,-10.78125 -1.54757,-3.88502 -1.27454,-10.71488 0.28125,-16.90625 z m 20.28125,18.375 c 0.53257,7.53556 -1.99528,11.06836 -4.6875,14.21875 -4.64141,5.43131 0.0307,5.15504 1.46875,8.03125 1.18091,2.36183 -1.31238,5.73716 -4.3125,11.15625 2.16765,-0.30164 4.1156,-0.85509 5.625,-1.59375 1.12256,-14.12571 3.88507,-21.31541 1.90625,-31.8125 z"
     id="path57043-6-7"
     style="color:#000000;fill:#e6e6e6;fill-opacity:1;stroke:none;marker:none;visibility:visible;display:inline;overflow:visible;enable-background:accumulate" />
  <path
     d="m 224.74207,221.95123 c -2.61765,-8.50737 -1.09069,-18.5417 -0.21813,-20.72307 1.30882,14.61522 9.81619,17.88728 12.43384,19.85052"
     id="path50120-7"
     style="color:#000000;fill:none;stroke:#b3b3b3;stroke-width:0.5;stroke-linecap:butt;stroke-linejoin:miter;stroke-miterlimit:4;stroke-opacity:1;stroke-dasharray:none;stroke-dashoffset:0;marker:none;visibility:visible;display:inline;overflow:visible;enable-background:accumulate" />
  <path
     d="m 220.61537,225.68652 c 6.77205,6.07074 20.83504,6.6757 25.37491,4.53483"
     id="path49715-6-9"
     style="color:#000000;fill:none;stroke:#b3b3b3;stroke-width:0.5;stroke-linecap:butt;stroke-linejoin:miter;stroke-miterlimit:4;stroke-opacity:1;stroke-dasharray:1, 0.5;stroke-dashoffset:0;marker:none;visibility:visible;display:inline;overflow:visible;enable-background:accumulate" />
  <path
     d="m 302.26133,163.76686 c 3.61343,6.46373 2.23354,15.31196 -2.09144,21.32287 2.76835,-7.10618 4.51475,-14.70824 2.09144,-21.32287 z"
     id="path296869-8-6"
     style="color:#000000;fill:#e6e6e6;fill-opacity:1;stroke:none;marker:none;visibility:visible;display:inline;overflow:visible;enable-background:accumulate" />
  <path
     d="m 260.9582,163.65558 c -1.59857,4.62214 -1.20552,12.48838 1.13853,15.21018 -1.01929,-5.24839 -1.9473,-11.19529 -1.13853,-15.21018 z"
     id="path296871-7-6"
     style="color:#000000;fill:#e6e6e6;fill-opacity:1;stroke:none;marker:none;visibility:visible;display:inline;overflow:visible;enable-background:accumulate" />
  <path
     d="m 246.21276,197.76802 c 2.36238,9.71201 -1.05186,15.11675 -5.77472,16.53667 -3.72521,1.11998 -7.34963,-3.93731 -8.39958,-6.82466 -1.74172,-4.78972 -0.50493,-6.32157 2.36238,-3.67482 3.41233,3.14985 9.97451,-2.88735 11.81192,-6.03719 z"
     id="path309740"
     style="color:#000000;fill:#e6e6e6;fill-opacity:1;stroke:none;marker:none;visibility:visible;display:inline;overflow:visible;enable-background:accumulate" />
</svg>
