<?xml version="1.0" encoding="UTF-8" standalone="no"?>
<!-- Created with Inkscape (http://www.inkscape.org/) -->

<svg
   xmlns:svg="http://www.w3.org/2000/svg"
   xmlns="http://www.w3.org/2000/svg"
   version="1.1"
   width="560"
   height="560"
   id="shirt_tanktop">
  <g
     transform="translate(0,-492.36218)"
     id="layer1">
    <g
       clip-path="url(#clipPath292691)"
       id="g292670">
      <g
         transform="translate(-245.5625,491.36218)"
         id="g53775"
         style="display:inline;enable-background:new">
        <g
           id="g31274">
          <path
             d="m 564.77611,272.58605 c -7.43239,13.16934 -69.10515,12.57031 -73.20793,7.21712 -1.12157,-16.26629 2.06958,-32.56824 0.34856,-36.22499 -1.72101,-3.65674 -8.25477,-16.21829 -8.89072,-23.61837 13.51927,3.11254 26.37459,-34.80726 11.30868,-47.10288 2.94293,-1.28096 5.92571,-2.86711 7.86853,-4.31718 2.5206,4.92972 10.44753,16.60706 23.28309,16.60706 20.42644,0 28.38628,-10.97418 23.05483,-19.54905 1.69757,1.01311 5.14416,5.01049 10.40277,7.7728 -6.16867,10.37458 -0.745,47.97899 6.86018,46.151 -2.80394,12.62458 -6.10693,22.6788 -4.95987,34.71526 1.14705,12.03647 3.5857,15.01013 3.93188,18.34923 z"
             id="path29527"
             style="fill:#f2f2f2;stroke:#cccccc;stroke-width:1px;stroke-linecap:butt;stroke-linejoin:miter;stroke-opacity:1;display:inline" />
        </g>
        <path
           d="m 507.64501,238.089 c 11.47221,-9.32116 26.52947,-15.05727 42.30375,-4.30208 -18.62356,-7.36879 -28.49353,-3.33346 -42.30375,4.30208 z"
           id="path25822"
           style="color:#000000;fill:#e6e6e6;fill-opacity:1;stroke:none;stroke-width:0.5;marker:none;visibility:visible;display:inline;overflow:visible;enable-background:accumulate" />
        <path
           d="m 516.24917,240.95705 c 8.60415,-3.58506 28.6805,-5.01909 38.00167,2.15104 -16.49129,-4.75674 -30.83155,-3.34762 -38.00167,-2.15104 z"
           id="path25824"
           style="color:#000000;fill:#e6e6e6;fill-opacity:1;stroke:none;stroke-width:0.5;marker:none;visibility:visible;display:inline;overflow:visible;enable-background:accumulate" />
        <path
           d="m 504.05995,252.42926 c 8.60415,-7.17013 25.09544,-10.7552 41.58674,-6.45312 -15.06555,-2.13595 -32.17832,0.85926 -41.58674,6.45312 z"
           id="path25826"
           style="color:#000000;fill:#e6e6e6;fill-opacity:1;stroke:none;stroke-width:0.5;marker:none;visibility:visible;display:inline;overflow:visible;enable-background:accumulate" />
        <path
           d="m 486.42022,221.69975 c 11.72501,-1.34 16.75001,-18.09001 17.75501,-21.10501 0.335,11.39 -9.045,22.11001 -17.75501,21.10501 z"
           id="path53656"
           style="color:#000000;fill:#e6e6e6;fill-opacity:1;stroke:none;stroke-width:0.5;marker:none;visibility:visible;display:inline;overflow:visible;enable-background:accumulate" />
        <path
           d="m 486.08522,223.70975 c 9.04501,-0.335 16.08001,-3.685 18.76001,-5.025 -5.025,6.7 -11.725,6.7 -18.76001,5.025 z"
           id="path53658"
           style="color:#000000;fill:#e6e6e6;fill-opacity:1;stroke:none;stroke-width:0.5;marker:none;visibility:visible;display:inline;overflow:visible;enable-background:accumulate" />
        <path
           d="m 566.15026,221.69975 c -5.025,-1.34 -9.715,-9.76014 -11.9807,-20.06583 0.63034,7.59151 1.86233,17.31199 11.9807,20.06583 z"
           id="path53660"
           style="color:#000000;fill:#e6e6e6;fill-opacity:1;stroke:none;stroke-width:0.5;marker:none;visibility:visible;display:inline;overflow:visible;enable-background:accumulate" />
        <path
           d="m 565.11681,272.08349 c -7.39345,2.25018 -15.10835,-4.1789 -19.93017,-7.39345 6.75054,2.89309 13.82254,6.42909 19.93017,7.39345 z"
           id="path53771"
           style="color:#000000;fill:#e6e6e6;fill-opacity:1;stroke:none;stroke-width:0.5;marker:none;visibility:visible;display:inline;overflow:visible;enable-background:accumulate" />
        <path
           d="m 484.37147,228.80773 c 4.50036,9.32218 9.1616,14.90719 14.30487,16.51446 -5.14327,-3.53599 -11.09033,-11.37119 -14.30487,-16.51446 z"
           id="path53773"
           style="color:#000000;fill:#e6e6e6;fill-opacity:1;stroke:none;stroke-width:0.5;marker:none;visibility:visible;display:inline;overflow:visible;enable-background:accumulate" />
      </g>
      <path
         d="m 314.11095,724.82629 c 3.91746,-1.82814 6.52909,-9.66305 6.26793,-11.23003 -2.8728,5.48444 -4.43978,9.14073 -6.26793,11.23003 z"
         id="path54115"
         style="color:#000000;fill:#e6e6e6;fill-opacity:1;stroke:none;stroke-width:0.5;marker:none;visibility:visible;display:inline;overflow:visible;enable-background:accumulate" />
      <path
         d="m 263.96756,768.4406 c 18.28144,-3.65628 27.94449,-4.9621 46.74827,-2.35047 -8.09607,-3.39512 -28.72799,-5.74559 -46.74827,2.35047 z"
         id="path54117"
         style="color:#000000;fill:#e6e6e6;fill-opacity:1;stroke:none;stroke-width:0.5;marker:none;visibility:visible;display:inline;overflow:visible;enable-background:accumulate" />
      <path
         d="m 245.94727,770.79108 c 7.05142,-0.26117 20.10959,-4.96211 24.81054,-10.18538 -3.65629,2.35047 -16.71447,8.09607 -24.81054,10.18538 z"
         id="path54119"
         style="color:#000000;fill:#e6e6e6;fill-opacity:1;stroke:none;stroke-width:0.5;marker:none;visibility:visible;display:inline;overflow:visible;enable-background:accumulate" />
      <path
         d="m 305.19188,659.08375 c 2.93593,13.10099 -10.60793,19.6028 -23.1669,19.6028 -13.47043,0 -21.20931,-6.48687 -27.06212,-17.84239"
         id="path22097-77"
         style="color:#000000;fill:none;stroke:#cccccc;stroke-width:0.5;stroke-linecap:butt;stroke-linejoin:miter;stroke-miterlimit:4;stroke-opacity:1;stroke-dasharray:1, 0.5;stroke-dashoffset:0;marker:none;visibility:visible;display:inline;overflow:visible;enable-background:accumulate" />
      <path
         d="m 251.10934,664.77295 c 6.34138,4.77236 4.73155,18.16107 19.73417,21.05631 -17.28576,-11.25859 -10.53632,-13.96 -19.73417,-21.05631 z"
         id="path54091"
         style="color:#000000;fill:#e6e6e6;fill-opacity:1;stroke:none;stroke-width:0.5;marker:none;visibility:visible;display:inline;overflow:visible;enable-background:accumulate" />
      <path
         d="m 268.14617,679.38384 c 12.01352,8.87956 26.37752,2.08931 30.03381,-0.52233 -6.52909,2.61164 -15.66981,6.00676 -30.03381,0.52233 z"
         id="path54111"
         style="color:#000000;fill:#e6e6e6;fill-opacity:1;stroke:none;stroke-width:0.5;marker:none;visibility:visible;display:inline;overflow:visible;enable-background:accumulate" />
      <path
         d="m 319.6487,712.9492 c -14.58627,-7.00714 -12.56118,-44.99361 -7.51178,-49.63275"
         id="path22097-77-6"
         style="color:#000000;fill:none;stroke:#cccccc;stroke-width:0.5;stroke-linecap:butt;stroke-linejoin:miter;stroke-miterlimit:4;stroke-opacity:1;stroke-dasharray:1, 0.5;stroke-dashoffset:0;marker:none;visibility:visible;display:inline;overflow:visible;enable-background:accumulate" />
      <path
         d="m 237.92291,713.64873 c 9.69096,0.59578 15.88271,-10.12474 18.19327,-19.65813 3.08847,-12.74305 0.73061,-26.68764 -5.39617,-30.36325"
         id="path22097-77-6-0"
         style="color:#000000;fill:none;stroke:#cccccc;stroke-width:0.5;stroke-linecap:butt;stroke-linejoin:miter;stroke-miterlimit:4;stroke-opacity:1;stroke-dasharray:1, 0.5;stroke-dashoffset:0;marker:none;visibility:visible;display:inline;overflow:visible;enable-background:accumulate" />
    </g>
  </g>
</svg>
