<?xml version="1.0" encoding="UTF-8" standalone="no"?>
<!-- Created with Inkscape (http://www.inkscape.org/) -->

<svg
   xmlns:dc="http://purl.org/dc/elements/1.1/"
   xmlns:cc="http://creativecommons.org/ns#"
   xmlns:rdf="http://www.w3.org/1999/02/22-rdf-syntax-ns#"
   xmlns:svg="http://www.w3.org/2000/svg"
   xmlns="http://www.w3.org/2000/svg"
   version="1.1"
   width="560"
   height="560"
   id="sockets_neutral">
  <path
     d="m 283.41384,128.18311 c 0.8927,-1.02758 3.2677,-2.68058 4.94128,-2.79918 1.66899,-0.11828 3.58768,0.65708 3.7848,0.86735 0.19713,0.21027 0.61766,0.6308 0.73594,0.7885 -0.0526,-0.36797 -0.36797,-0.88049 -0.63081,-0.99877 -0.26283,-0.11827 -2.37864,-1.32731 -4.21847,-1.15646 -1.83984,0.17084 -2.29435,0.69744 -2.72803,1.23625 -0.43368,0.53881 -1.52125,0.71894 -1.54528,1.14332 -0.0245,0.43319 -0.0349,0.53722 -0.33943,0.91899 z"
     id="path17094-97"
     style="color:#000000;fill:#e9afaf;fill-opacity:1;marker:none;visibility:visible;display:inline;overflow:visible;enable-background:accumulate" />
  <path
     d="m 291.25352,126.5788 c 0.24525,-0.092 0.53649,0.0613 0.62846,0.26058 0.092,0.19926 0.56714,0.85837 0.99633,0.72042 -0.39854,0 -0.7051,-0.44452 -0.85838,-0.7051 0.45984,0.44452 1.22625,0.5978 1.71675,0.0613 -0.35254,0.2759 -0.8737,0.41386 -1.44084,-0.092 0.10729,0.046 0.19926,0.0307 0.29123,-0.0153 -0.22992,-0.0153 -0.7664,-0.44452 -0.93502,-0.62846 0.0307,0.1073 -0.0766,0.1073 -0.0766,0.15329 -0.046,-0.13796 -0.16861,-0.29124 -0.19926,-0.35255 0,0.092 -0.0613,0.0766 -0.0613,0.0766 -0.0613,-0.0613 -0.046,-0.13796 -0.15329,-0.2146 -0.0306,0.092 0,0.15329 -0.0613,0.2146 -0.046,-0.1073 -0.0613,-0.26058 -0.12263,-0.32189 -0.0153,0.0766 -0.0307,0.10729 -0.046,0.16861 -0.0613,-0.0613 -0.15328,-0.32189 -0.22993,-0.33722 -0.0766,-0.0153 -2.02332,-1.45618 -4.92034,1.50216 1.48683,-0.72043 3.28023,-1.25691 5.47216,-0.4905 z"
     id="path17236-1"
     style="color:#000000;fill:#e9afaf;fill-opacity:1;stroke:none;stroke-width:0.5;marker:none;visibility:visible;display:inline;overflow:visible;enable-background:accumulate" />
  <path
     d="m 277.63508,128.18311 c -0.8927,-1.02758 -3.2677,-2.68058 -4.94128,-2.79918 -1.66899,-0.11828 -3.58768,0.65708 -3.7848,0.86735 -0.19713,0.21027 -0.61766,0.6308 -0.73594,0.7885 0.0526,-0.36797 0.36797,-0.88049 0.63081,-0.99877 0.26283,-0.11827 2.37864,-1.32731 4.21847,-1.15646 1.83984,0.17084 2.29435,0.69744 2.72803,1.23625 0.43368,0.53881 1.52125,0.71894 1.54528,1.14332 0.0245,0.43319 0.0349,0.53722 0.33943,0.91899 z"
     id="path17094-97-8"
     style="color:#000000;fill:#e9afaf;fill-opacity:1;marker:none;visibility:visible;display:inline;overflow:visible;enable-background:accumulate" />
  <path
     d="m 269.7954,126.5788 c -0.24525,-0.092 -0.53649,0.0613 -0.62846,0.26058 -0.092,0.19926 -0.56714,0.85837 -0.99633,0.72042 0.39854,0 0.7051,-0.44452 0.85838,-0.7051 -0.45984,0.44452 -1.22625,0.5978 -1.71675,0.0613 0.35254,0.2759 0.8737,0.41386 1.44084,-0.092 -0.10729,0.046 -0.19926,0.0307 -0.29123,-0.0153 0.22992,-0.0153 0.7664,-0.44452 0.93502,-0.62846 -0.0307,0.1073 0.0766,0.1073 0.0766,0.15329 0.046,-0.13796 0.16861,-0.29124 0.19926,-0.35255 0,0.092 0.0613,0.0766 0.0613,0.0766 0.0613,-0.0613 0.046,-0.13796 0.15329,-0.2146 0.0307,0.092 0,0.15329 0.0613,0.2146 0.046,-0.1073 0.0613,-0.26058 0.12263,-0.32189 0.0153,0.0766 0.0307,0.10729 0.046,0.16861 0.0613,-0.0613 0.15328,-0.32189 0.22993,-0.33722 0.0766,-0.0153 2.02332,-1.45618 4.92034,1.50216 -1.48683,-0.72043 -3.28023,-1.25691 -5.47216,-0.4905 z"
     id="path17236-1-8"
     style="color:#000000;fill:#e9afaf;fill-opacity:1;stroke:none;stroke-width:0.5;marker:none;visibility:visible;display:inline;overflow:visible;enable-background:accumulate" />
</svg>
