<?xml version="1.0" encoding="UTF-8" standalone="no"?>
<!-- Created with Inkscape (http://www.inkscape.org/) -->

<svg
   xmlns:dc="http://purl.org/dc/elements/1.1/"
   xmlns:cc="http://creativecommons.org/ns#"
   xmlns:rdf="http://www.w3.org/1999/02/22-rdf-syntax-ns#"
   xmlns:svg="http://www.w3.org/2000/svg"
   xmlns="http://www.w3.org/2000/svg"
   version="1.1"
   width="560"
   height="560"
   id="suit_wetsuit">
  <path
     d="m 316.3125,181.40625 c -0.76603,-0.009 -1.52625,0.1845 -2.3125,0.65625 -0.629,0.3774 -1.34727,0.86747 -2.125,1.4375 l 5.625,9.5625 c -1.81482,13.1071 -0.79476,32.45715 1.625,41.53125 2.41976,9.0741 5.45165,11.8964 5.25,16.9375 -0.20165,5.0412 2.83024,17.32855 5.25,23.78125 2.41975,6.4527 8.85494,33.677 8.25,36.5 1.81465,-1.80781 5.38796,-2.46647 8.34375,-1.90625 -1.59353,-9.36379 -5.73565,-42.51606 -6.0625,-50.6875 -0.33547,-8.38663 -2.34753,-10.04709 -5.03125,-15.75 -2.68372,-5.70291 -6.02297,-18.13444 -5.6875,-24.84375 0.33546,-6.7093 0.97966,-24.80159 -2.375,-28.15625 -2.83049,-2.83049 -6.61345,-9.01578 -10.75,-9.0625 z"
     id="path3013-4-9-99"
     style="fill:#333333;stroke:#000000;stroke-width:1;stroke-linecap:round;stroke-linejoin:miter;stroke-miterlimit:4;stroke-opacity:1;stroke-dasharray:none" />
  <path
     d="m 317.375,192.46875 c 0.003,0.13971 0.0265,0.26746 0.0312,0.40625 l 0.0937,0.1875 c -0.0283,0.20451 -0.0356,0.41751 -0.0625,0.625 0.83268,14.49774 10.19346,23.86318 12.125,28.71875 -0.12748,-1.36991 -0.18064,-2.66847 -0.125,-3.78125 0.20152,-4.03056 0.50182,-12.15984 0,-18.75 -0.55308,4.72094 -2.00683,7.94862 -3.3125,7.6875 -3.51213,-0.7025 -5.94029,-8.06955 -8.75,-15.09375 z m 5.96875,24.21875 c 2.26389,4.27233 6.82057,11.95379 8.625,17.84375 -1.11896,-3.96822 -2.04912,-8.28742 -2.40625,-11.9375 -3.75572,-2.08104 -3.78332,-3.81871 -6.21875,-5.90625 z m 0,9.46875 c 0.46209,6.6445 2.33446,12.45835 3.9375,15.59375 2.40161,4.69733 -1.24446,7.04013 -7.96875,-6.46875 2.38306,8.50066 5.25865,11.34649 5.0625,16.25 -0.10291,2.57277 0.61904,7.04429 1.6875,11.65625 1.10881,-4.92906 4.25651,-5.5574 3.9375,3.375 -0.0871,2.43764 -0.0918,5.86486 0,9.8125 2.60784,7.79562 8.28666,32.07735 7.875,35.28125 1.91569,-2.0393 2.65625,-5.26918 2.65625,-6.8125 -1.05364,1.7561 -2.104,-2.45615 -4.5625,-13.34375 -2.31708,-10.26134 -6.80945,-32.0464 0.0312,-46.28125 -0.28106,-0.55049 -0.57587,-1.11435 -0.875,-1.75 -0.93908,-1.99554 -1.95847,-4.83077 -2.875,-7.9375 0.69989,2.69251 0.72345,4.91292 -0.5,6.09375 -2.94703,2.8445 -7.70383,-11.95655 -8.40625,-15.46875 z m 15.5,25.09375 c -0.0831,10.02453 -3.84457,23.87009 -1.46875,38.125 -0.28497,-7.124 0.82574,-19.56321 3.125,-25.6875 -7.9e-4,-0.009 7.9e-4,-0.0222 0,-0.0312 -0.16081,-1.83447 -0.30074,-3.3623 -0.34375,-4.4375 -0.14563,-3.64067 -0.61703,-5.9786 -1.3125,-7.96875 z m 2.8125,23.875 c -0.67488,4.34402 -1.48954,8.30697 -1.8125,10.40625 0.89683,-1.15306 1.75119,-2.8647 2.46875,-4.78125 -0.22874,-1.93351 -0.44962,-3.78801 -0.65625,-5.625 z m 1.6875,14.25 c -1.19349,4.02329 -2.70148,7.02448 -3.5,8.78125 2.91172,-3.20294 2.70164,-3.74684 3.9375,-5.4375 -0.13997,-1.08915 -0.29715,-2.22702 -0.4375,-3.34375 z m 1.1875,8.90625 c -0.81098,4.28005 -2.5838,7.98008 -3.28125,9.375 3.00436,-2.40349 2.9248,-3.02236 3.9375,-4.46875 -0.21738,-1.53771 -0.41795,-3.12976 -0.65625,-4.90625 z m 0.78125,5.78125 c -0.98835,2.52354 -3.03125,5.6875 -3.03125,5.6875 0.0109,0.0471 0.021,0.0786 0.0312,0.125 1.29045,-0.19635 2.65628,-0.19976 3.90625,0.0312 -0.24489,-1.439 -0.56382,-3.45101 -0.90625,-5.84375 z"
     id="path3279-6-6"
     style="fill:#1a1a1a;stroke:none" />
  <path
     d="m 317.875,174.65625 c -3.23786,0.0692 -6.53729,1.01788 -9.625,2.65625 l 3.625,6.1875 c 0.77773,-0.57003 1.496,-1.0601 2.125,-1.4375 5.03198,-3.01918 9.70785,5.0516 13.0625,8.40625 3.35466,3.35466 2.71046,21.44695 2.375,28.15625 -0.33547,6.70931 3.00378,19.14084 5.6875,24.84375 2.68372,5.70291 4.69578,7.36337 5.03125,15.75 0.32685,8.17144 4.46897,41.32371 6.0625,50.6875 1.2083,0.22901 2.31287,0.66939 3.15625,1.3125 -0.80658,-5.2429 -1.61445,-45.3776 -4.4375,-54.25 -2.82305,-8.8725 -4.63914,-9.47135 -4.4375,-18.34375 0.20165,-8.8725 -2.01183,-14.71405 -3.625,-18.34375 -1.61317,-3.6296 3.41616,-16.1265 -1.625,-31.25 -3.4658,-10.39741 -10.2517,-14.52717 -17.375,-14.375 z"
     id="path3013-4-9-99-7"
     style="fill:#006680;stroke:#00222b;stroke-width:1;stroke-linecap:round;stroke-linejoin:miter;stroke-miterlimit:4;stroke-opacity:1;stroke-dasharray:none" />
  <path
     d="m 322.75,175.28125 c 6.37238,7.48364 7.49881,17.66865 6.6875,24.59375 0.50182,6.59016 0.20152,14.71944 0,18.75 -0.0556,1.11278 -0.002,2.41134 0.125,3.78125 0.032,0.0805 0.0659,0.17197 0.0937,0.25 -0.0362,-0.0198 -0.0582,-0.0428 -0.0937,-0.0625 0.35713,3.65008 1.28729,7.96928 2.40625,11.9375 0.0319,0.11324 0.0615,0.23113 0.0937,0.34375 0.0574,0.19705 0.13685,0.40129 0.1875,0.59375 0.006,0.0195 -0.006,0.043 0,0.0625 0.91653,3.10673 1.93592,5.94196 2.875,7.9375 0.29913,0.63565 0.59394,1.19951 0.875,1.75 0.41749,-0.86876 0.86995,-1.72318 1.375,-2.53125 1.13403,2.35528 1.49621,5.24986 1.46875,8.5625 0.69547,1.99015 1.16687,4.32808 1.3125,7.96875 0.043,1.0752 0.18294,2.60303 0.34375,4.4375 0.53212,-1.41119 1.12273,-2.46983 1.78125,-3.0625 0.75892,3.79459 0.16793,9.42731 -0.625,14.53125 0.20663,1.83699 0.42751,3.69149 0.65625,5.625 1.2495,-3.3373 2.09375,-7.29159 2.09375,-9.96875 1.34056,7.46885 0.36867,13.76922 -1.0625,18.59375 0.14035,1.11673 0.29753,2.2546 0.4375,3.34375 0.25484,-0.34862 0.54846,-0.73842 0.96875,-1.21875 0.35619,2.25586 0.19541,4.59546 -0.21875,6.78125 0.2383,1.77649 0.43887,3.36854 0.65625,4.90625 0.17116,-0.24445 0.37112,-0.50784 0.625,-0.8125 -0.0688,0.48188 -0.25905,1.07228 -0.5,1.6875 0.34243,2.39274 0.66136,4.40475 0.90625,5.84375 1.2099,0.22361 2.31081,0.66781 3.15625,1.3125 -0.80658,-5.2429 -1.61445,-45.3776 -4.4375,-54.25 -2.82305,-8.8725 -4.63914,-9.47135 -4.4375,-18.34375 0.20165,-8.8725 -2.01183,-14.71405 -3.625,-18.34375 -0.61983,-1.39461 -0.27058,-4.12146 0.125,-7.78125 -1.64292,4.75148 -3.46875,5.99502 -3.46875,-4.9375 0,-7.1999 0.77151,-10.63764 1.78125,-10.59375 0.68727,0.0299 1.47445,1.69112 2.1875,4.84375 -0.14582,-3.91093 -0.73053,-8.22284 -2.25,-12.78125 -2.65741,-7.97221 -7.27901,-12.2585 -12.5,-13.75 z"
     id="path3279-6-6-3"
     style="fill:#004455;stroke:none" />
  <path
     d="m 316.3125,181.40625 c -0.76603,-0.009 -1.52625,0.1845 -2.3125,0.65625 -5.03199,3.01919 -15.78314,13.07457 -17.125,16.09375 -1.34186,3.01919 2.20741,80.22454 3.15625,84.96875 0.69287,3.46438 6.91274,20.8303 9.5,37.34375 10.69902,-6.1528 18.55248,-20.8151 13.4375,-33.84375 -7.65664,-19.50262 -7.26183,-26.61735 -8.875,-29.84375 -1.61317,-3.2263 -2.03115,-14.9065 0.40625,-20.1875 2.41975,-5.2428 4.83025,-16.5295 7.25,-20.5625 1.33504,-2.22505 5.36444,-14.13738 5.9375,-24.71875 -0.18789,-0.34337 -0.40316,-0.62191 -0.625,-0.84375 -2.83049,-2.83049 -6.61345,-9.01578 -10.75,-9.0625 z m -74.09375,0.46875 c -2.89039,0.0267 -5.32554,3.21348 -6.9375,5.90625 -1.02358,13.46345 5.36553,32.83872 8.21875,41.96875 4.31894,13.8201 6.04476,25.4058 3.625,33.875 -2.41976,8.4691 0.80955,11.30615 0.40625,18.96875 -0.23814,20.07889 4.36018,32.24462 10.625,38.53125 3.05146,-17.83996 9.56838,-30.49814 10.3125,-34.21875 0.94884,-4.74421 -8.81439,-82.88706 -10.15625,-85.90625 -1.34186,-3.01918 -8.74927,-15.44956 -13.78125,-18.46875 -0.78625,-0.47175 -1.57326,-0.66309 -2.3125,-0.65625 z"
     id="path2987-8-1-4-7"
     style="fill:#333333;fill-opacity:1;stroke:#000000;stroke-width:1;stroke-linecap:butt;stroke-linejoin:miter;stroke-miterlimit:4;stroke-opacity:1;stroke-dasharray:none;display:inline;enable-background:new" />
  <path
     d="m 282.22605,178.9341 c -0.80659,-2.823 -0.20165,-5.2428 4.83951,-5.4445 5.04116,-0.2016 6.45269,-0.8065 11.49385,-0.2016 5.04116,0.6049 11.49384,-0.4033 15.93006,-0.4033 4.43623,0 5.84775,1.0082 5.44446,2.6214"
     id="path3025-59-6-6-3"
     style="fill:#333333;fill-opacity:1;stroke:#000000;stroke-width:0.5;stroke-linecap:round;stroke-linejoin:round;stroke-miterlimit:4;stroke-opacity:1;stroke-dasharray:none;display:inline;enable-background:new" />
  <path
     d="m 240.88853,175.7078 c 3.62964,-4.4363 4.83951,-4.4363 10.48561,-3.2264 5.6461,1.2099 20.56794,1.0082 24.39922,0.605 3.83128,-0.4033 3.62964,3.0247 2.6214,3.8312"
     id="path3023-4-8-27-5"
     style="fill:#333333;fill-opacity:1;stroke:#000000;stroke-width:0.5;stroke-linecap:round;stroke-linejoin:round;stroke-miterlimit:4;stroke-opacity:1;stroke-dasharray:none;display:inline;enable-background:new" />
  <path
     d="m 311.46875,183.8125 c -1.53688,1.15044 -3.26649,2.55931 -5,4.09375 3.80998,1.90327 6.10415,4.93193 3.5625,10.40625 -3.34072,7.19539 -8.95929,8.48776 -13.4375,8.0625 0.0356,4.79247 0.19916,11.28518 0.4375,18.5 2.73215,2.67842 2.87609,6.28957 0.96875,8.3125 -0.20795,0.22055 -0.42474,0.39461 -0.65625,0.53125 0.1239,3.25434 0.26601,6.39824 0.40625,9.6875 0.001,0.0102 -0.001,0.0211 0,0.0312 0.002,0.0422 -0.002,0.0828 0,0.125 0.007,0.10642 0.006,0.20721 0,0.3125 0.1264,2.95035 0.27312,5.86679 0.40625,8.71875 1.05181,0.86991 0.88511,2.05616 0.125,3.21875 0.15378,3.19133 0.31719,6.06177 0.46875,8.90625 2.97158,1.22316 3.04339,4.78153 0.46875,7.96875 0.32458,5.31822 0.62809,9.51544 0.8125,10.4375 0.18995,0.94973 0.8513,3.13836 1.6875,5.875 1.97147,-1.56721 3.8483,-3.42066 5.65625,-5.5625 3.74238,-4.43353 7.48856,-7.98995 11.15625,-9.3125 -0.012,-0.0482 -0.0195,-0.10742 -0.0312,-0.15625 -1.20667,-3.94553 -1.92895,-6.97803 -2.46875,-9.4375 -3.247,-2.108 -7.02185,-2.36609 -10.625,1.6875 1.69079,-8.45399 4.87416,-12.06247 7.90625,-12.0625 -0.89985,-4.76723 -0.79289,-13.27169 1.1875,-17.5625 2.41975,-5.2428 4.83025,-16.5295 7.25,-20.5625 0.93402,-1.55668 3.18899,-7.85501 4.65625,-15.125 -4.15075,0.27293 -10.24786,3.38244 -12.71875,7.875 0.80659,3.2263 0.003,3.6322 0.40625,8.875 2.01646,-1.6132 2.00296,-1.61155 2.40625,-4.03125 0,4.8395 -2.41344,10.4835 -7.65625,12.5 1.61317,-1.6132 4.43454,-6.4388 4.03125,-10.875 -6.45269,10.0823 -8.42863,6.4704 -7.21875,2.4375 8.74372,-3.19581 7.61869,-17.3527 15.28125,-18.5625 -4.23019,-5.29923 -6.42547,-11.35993 -9.46875,-15.3125 z m -74.125,1.03125 c -0.77498,0.91761 -1.45334,1.91477 -2.03125,2.875 -1.06207,13.46446 5.32889,32.88398 8.1875,42.03125 1.95978,6.27106 3.37708,12.07488 4.125,17.34375 8.52285,3.96984 7.89811,7.3233 7.5625,10.34375 -2.65489,0.20421 -5.28031,-1.04954 -6.96875,-3.5625 0.0243,1.06916 -0.0101,2.0839 -0.0625,3.09375 7.16959,5.22085 13.00279,13.88631 8.09375,14.5 -4.46637,0.55828 -7.14666,-4.88401 -10,-1.84375 0.008,4.0603 1.35127,6.93277 1.34375,11.65625 4.14787,-1.17964 9.69847,3.40747 12.875,5.125 2.24796,1.21546 4.58713,2.47011 7,3.625 0.48879,-1.31107 0.85964,-2.42319 1,-3.125 0.20091,-1.00454 -0.11005,-5.41855 -0.6875,-11.59375 -3.38882,-2.19271 -2.97252,-4.95459 -0.625,-6.46875 -0.2509,-2.42363 -0.54534,-4.96216 -0.84375,-7.65625 -0.40266,-0.002 -0.78518,0.008 -1.21875,0 -3.22445,-0.0628 -3.72066,-7.29365 -0.875,-8.90625 0.27249,-0.15441 0.62059,-0.27754 1.03125,-0.40625 -0.21436,-1.83477 -0.40212,-3.63934 -0.625,-5.5 -2.81968,-0.4076 -3.47834,-3.81544 -0.78125,-5.34375 0.0342,-0.0194 0.0898,-0.0415 0.125,-0.0625 -0.28672,-2.33998 -0.5868,-4.58736 -0.875,-6.875 -0.6403,-0.0718 -1.23794,-0.36316 -1.75,-0.90625 -1.82744,-1.93818 -1.7795,-5.33034 0.625,-7.96875 -0.88471,-6.75419 -1.7228,-12.81939 -2.375,-17.125 -1.55261,0.0226 -3.27891,-0.16318 -5.1875,-0.5 -5.86353,-1.03476 -14.05131,-11.82616 -17.0625,-22.75 z M 243.5,212.8125 c 2.41976,1.4115 5.46283,6.05025 4.65625,12.90625 -3.22635,-3.2264 -5.26119,-7.46175 -4.65625,-12.90625 z m 75.8125,3.84375 c 1.20988,8.0658 -4.00951,10.4776 -7.4375,11.6875 4.43622,-6.4527 6.22762,-9.4694 7.4375,-11.6875 z m -76.625,3.625 c 1.41153,0.8066 4.65033,5.03845 3.84375,10.28125 -2.21811,-3.428 -3.84375,-2.01375 -3.84375,-10.28125 z m 58.09375,1.40625 c 2.62141,2.0165 6.049,2.81905 8.46875,5.84375 -2.82305,1.0082 -3.23585,1.61155 -3.4375,4.03125 1.20988,-0.6049 3.22531,-0.7843 6.25,-1.1875 -1.00823,2.2181 -1.21708,4.2276 -5.25,5.4375 -4.03293,1.2099 -5.84543,-2.20585 -1.8125,-6.84375 -5.44446,0.4033 -3.22635,-2.43455 0,-2.03125 -1.00823,0 -1.79899,-1.217 -4.21875,-5.25 z m -47.40625,0.40625 c 1.61318,1.8149 2.2217,2.41935 2.625,8.46875 -1.00823,-1.8148 -1.60853,-2.02305 -3.625,-3.03125 0.80659,0.6049 2.625,7.6911 2.625,10.3125 -4.63787,-0.8066 -7.04835,-3.02655 -7.25,-6.65625 1.41153,-0.2016 2.01183,-0.8125 3.625,-0.8125 -1.41152,-1.4116 -1.42335,-3.02665 -1.625,-6.65625 1.00823,0.4033 1.40393,0.2053 3.21875,2.625 -0.60494,-1.2099 -0.40033,-3.0401 0.40625,-4.25 z m 58,14.96875 c -0.70243,3.1609 -1.03824,7.01025 -8.0625,9.46875 -0.35122,-5.9706 4.19916,-9.46875 8.0625,-9.46875 z m -63.8125,1.03125 c 2.57879,0.19679 9.27132,4.29197 7.625,10.21875 -5.97062,-3.5121 -8.76493,-2.812 -8.0625,-10.1875 0.13171,-0.022 0.26558,-0.0445 0.4375,-0.0312 z m 63.8125,7.03125 c -0.70243,3.5121 -0.70335,7.04285 -8.78125,10.90625 0.35121,-5.6194 3.16184,-9.85265 8.78125,-10.90625 z"
     id="path3111-9-4-1"
     style="fill:#1a1a1a;fill-opacity:1;stroke:none;display:inline;enable-background:new" />
  <path
     d="m 272.15145,299.09964 c 5.56921,2.22768 6.90582,2.67322 10.47012,4.9009 -2.22769,-2.67322 -6.23752,-4.2326 -10.47012,-4.9009 z"
     id="path56948-0"
     style="color:#000000;fill:#1a1a1a;fill-opacity:1;stroke:none;stroke-width:0.5;marker:none;visibility:visible;display:inline;overflow:visible;enable-background:accumulate" />
  <path
     d="m 297.47275,294.73478 c -7.37,6.365 -15.07501,4.69 -26.80001,1.34 9.715,2.01 18.76001,2.345 26.80001,-1.34 z"
     id="path53718-2"
     style="color:#000000;fill:#1a1a1a;fill-opacity:1;stroke:none;stroke-width:0.5;marker:none;visibility:visible;display:inline;overflow:visible;enable-background:accumulate" />
  <path
     d="m 246.96948,282.64597 c 17.16506,6.30553 54.29762,7.35645 72.16329,-7.00615 2.80246,4.9043 5.95522,18.56629 7.00614,21.01844 -3.85338,-4.20369 -25.68178,4.30104 -28.02457,15.76382 -2.95949,14.48014 -13.35428,13.34482 -19.61721,3.15277 -9.86815,-16.05902 -29.84901,-13.29752 -32.22826,-13.66198 0,-7.70676 0.70062,-14.3626 0.70061,-19.2669 z"
     id="path47908-88-7"
     style="color:#000000;fill:#1a1a1a;fill-opacity:1;stroke:none;stroke-width:0.5;marker:none;visibility:visible;display:inline;overflow:visible;enable-background:accumulate" />
  <path
     d="m 242.21875,181.875 c -3.99191,0.0369 -7.17693,6.16356 -8.40625,8.59375 -2.14147,4.23339 -2.21046,17.19695 -1.875,23.90625 0.33547,6.70931 -3.50378,23.39084 -6.1875,29.09375 -2.68372,5.70291 -4.69579,7.36337 -5.03125,15.75 -0.2747,6.8676 2.16187,30.88752 2.5,43.59375 -0.0734,0.0874 -0.14541,0.16366 -0.21875,0.25 2.01784,-0.26395 3.83573,-0.18572 4.78125,-0.125 -1.00823,-4.4362 1.82201,-27.81205 5.25,-36.28125 3.42799,-8.4692 1.79308,-19.7818 3.40625,-22 1.61317,-2.2181 8.28716,-7.0293 9.09375,-49.375 L 250,187.9375 c -1.87718,-2.37332 -3.80667,-4.409 -5.46875,-5.40625 -0.78625,-0.47175 -1.57326,-0.66309 -2.3125,-0.65625 z"
     id="path3011-6-3-8"
     style="fill:#333333;stroke:#000000;stroke-width:1;stroke-linecap:round;stroke-linejoin:miter;stroke-miterlimit:4;stroke-opacity:1;stroke-dasharray:none" />
  <path
     d="m 237.6875,184.46875 c -1.78631,1.97721 -3.16786,4.60209 -3.875,6 -2.14147,4.23339 -2.21046,17.19695 -1.875,23.90625 0.0325,0.64972 0.01,1.40101 -0.0312,2.21875 3.4242,-2.77259 7.72057,-6.9031 9.34375,-11.0625 -1.14069,5.9886 -4.98539,11.9819 -7.84375,14.25 0.71293,3.5646 -0.0234,16.244 -0.59375,17.8125 -0.44519,1.22424 -2.36459,3.29035 -4.46875,-1.75 -0.86936,3.12872 -1.78715,5.91098 -2.59375,7.625 -0.62231,1.32242 -1.18114,2.41415 -1.71875,3.4375 0.75765,7.25935 -0.27001,12.18279 -2.9375,8.25 -0.004,0.0296 0.004,0.064 0,0.0937 1.1909,3.52085 4.1517,11.16301 3.3125,18.15625 -0.6882,-2.35136 -2.08036,-5.31484 -3.53125,-8.46875 0.13384,2.84415 0.32818,6.22788 0.59375,9.96875 2.451,6.97954 4.32983,18.87657 4.21875,23.875 -0.55874,-0.9778 -1.61637,-2.33684 -2.84375,-3.6875 0.13166,2.24113 0.24462,4.34187 0.3125,6.25 0.32733,0.54234 0.64015,1.09631 0.96875,1.625 1.54043,-0.11518 2.89545,-0.0801 3.65625,-0.0312 -1.00823,-4.4362 1.82201,-27.81205 5.25,-36.28125 3.42799,-8.4692 1.79308,-19.7818 3.40625,-22 1.45863,-2.00561 7.03548,-6.23144 8.6875,-38.3125 -1.74968,-7.22615 -3.77296,-13.46958 -4.75,-15.375 -0.95532,-1.863 -2.11616,-4.30171 -2.6875,-6.5 z"
     id="path3010-9-1-6"
     style="fill:#1a1a1a;stroke:none" />
  <path
     d="m 294.3125,152.375 c -0.66164,4.86689 -24.10264,4.92115 -25.6875,0.3125 10e-4,2.51914 -0.0213,4.45166 -0.125,5.28125 -4.43622,3.6296 -14.51478,12.50305 -16.53125,12.90625 -2.01646,0.4033 -2.92682,2.0399 -6.84375,2.8125 -6.58997,1.29982 -9.2921,6.8377 -9.84375,14.09375 2.02424,-3.38146 5.38958,-7.56625 9.25,-5.25 5.03198,3.01919 12.43939,15.44957 13.78125,18.46875 1.34186,3.01919 11.10509,81.16204 10.15625,85.90625 -0.74412,3.72061 -7.26104,16.37879 -10.3125,34.21875 9.10384,9.13553 21.7246,5.80482 28.09375,-3.875 6.82379,7.65593 15.76336,7.54214 23.28125,3.21875 -2.58726,-16.51345 -8.80713,-33.87937 -9.5,-37.34375 -0.94884,-4.74421 -4.49811,-81.94956 -3.15625,-84.96875 1.34186,-3.01918 12.09301,-13.07456 17.125,-16.09375 5.03198,-3.01918 9.70785,5.0516 13.0625,8.40625 0.22184,0.22184 0.43711,0.50038 0.625,0.84375 0.46561,-8.59733 -1.33777,-16.31485 -8.75,-17.21875 -6.75552,-0.82387 -5.56975,-1.04583 -4.5,-1.09375 -3.29397,-0.0824 -20.125,-14.69544 -20.125,-18.65625 0,-0.47594 -10e-4,-1.14513 0,-1.96875 z"
     id="path2987-8-1-4-6"
     style="fill:#006680;fill-opacity:1;stroke:#00222b;stroke-width:1;stroke-linecap:butt;stroke-linejoin:miter;stroke-miterlimit:4;stroke-opacity:1;stroke-dasharray:none" />
  <path
     d="m 278.9997,177.7242 c -0.88338,-8.4893 -3.89836,-15.91841 -5.57525,-22.82714"
     id="path3019-1-4-8-1"
     style="fill:none;stroke:#00222b;stroke-width:0.5;stroke-linecap:round;stroke-linejoin:round;stroke-miterlimit:4;stroke-opacity:1;stroke-dasharray:none" />
  <path
     d="m 282.22605,176.9176 c 0.34014,-6.63269 3.54901,-9.39255 4.9086,-21.46598"
     id="path3015-8-7-4-8"
     style="fill:none;stroke:#00222b;stroke-width:0.5;stroke-linecap:round;stroke-linejoin:round;stroke-miterlimit:4;stroke-opacity:1;stroke-dasharray:none" />
  <path
     d="m 285.65404,173.0864 c 1.86461,-5.5939 7.29162,-9.05029 8.73447,-20.43128"
     id="path3017-4-0-41-8"
     style="fill:none;stroke:#00222b;stroke-width:0.5;stroke-linecap:round;stroke-linejoin:round;stroke-miterlimit:4;stroke-opacity:1;stroke-dasharray:none" />
  <path
     d="m 282.22605,178.9341 c -0.80659,-2.823 -0.20165,-5.2428 4.83951,-5.4445 5.04116,-0.2016 6.45269,-0.8065 11.49385,-0.2016 5.04116,0.6049 11.49384,-0.4033 15.93006,-0.4033 4.43623,0 5.84775,1.0082 5.44446,2.6214"
     id="path3025-59-6-6-5"
     style="fill:#006680;fill-opacity:1;stroke:#00222b;stroke-width:0.5;stroke-linecap:round;stroke-linejoin:round;stroke-miterlimit:4;stroke-opacity:1;stroke-dasharray:none" />
  <path
     d="m 240.88853,175.7078 c 3.62964,-4.4363 4.83951,-4.4363 10.48561,-3.2264 5.6461,1.2099 20.56794,1.0082 24.39922,0.605 3.83128,-0.4033 3.62964,3.0247 2.6214,3.8312"
     id="path3023-4-8-27-52"
     style="fill:#006680;fill-opacity:1;stroke:#00222b;stroke-width:0.5;stroke-linecap:round;stroke-linejoin:round;stroke-miterlimit:4;stroke-opacity:1;stroke-dasharray:none" />
  <path
     d="m 274.96678,173.0864 c -2.41976,-7.461 -4.83952,-7.461 -6.45269,-18.1482"
     id="path3021-8-1-37-0"
     style="fill:none;stroke:#00222b;stroke-width:0.5;stroke-linecap:round;stroke-linejoin:round;stroke-miterlimit:4;stroke-opacity:1;stroke-dasharray:none" />
  <path
     d="m 244.34375,172.25 c -5.02442,-0.18342 -9.86457,2.18749 -14.96875,8.3125 -9.07409,10.8889 -2.23945,30.0332 -5.0625,36.6875 -2.82305,6.6544 -3.41217,10.696 -4.21875,20.375 -0.80659,9.679 -7.46579,11.26885 -7.0625,37.28125 0.40329,26.0124 2.21283,28.24005 1.40625,33.28125 1.5988,-3.55335 5.39648,-4.77861 8.59375,-5.15625 0.0636,-0.075 0.12385,-0.14291 0.1875,-0.21875 -0.33813,-12.70623 -2.7747,-36.72615 -2.5,-43.59375 0.33546,-8.38663 2.34753,-10.04709 5.03125,-15.75 2.68372,-5.70291 6.52297,-22.38444 6.1875,-29.09375 -0.33546,-6.7093 -0.26647,-19.67286 1.875,-23.90625 1.45697,-2.88023 5.68677,-10.95668 10.71875,-7.9375 1.62535,0.97521 3.50627,2.94453 5.34375,5.25 l 6.71875,-11.0625 c -4.3228,-2.64661 -8.34212,-4.32609 -12.25,-4.46875 z"
     id="path3011-6-3-8-6"
     style="fill:#006680;stroke:#00222b;stroke-width:1;stroke-linecap:round;stroke-linejoin:miter;stroke-miterlimit:4;stroke-opacity:1;stroke-dasharray:none" />
  <path
     d="m 237.65625,180.46875 c -4.41436,3.3933 -5.95356,11.57125 -6.375,17.15625 -4.05589,-5.4349 -2.01694,-12.8914 -0.5625,-15.1875 -3.14267,2.7254 -3.03125,9.14975 -3.03125,11.96875 0,4.5628 3.57046,17.3981 0.71875,24.8125 0.86387,-0.57591 2.11152,-1.50074 3.5,-2.625 0.0408,-0.81774 0.0637,-1.56903 0.0312,-2.21875 -0.33546,-6.7093 -0.26647,-19.67286 1.875,-23.90625 0.70714,-1.39791 2.08869,-4.02279 3.875,-6 -0.4034,-1.55214 -0.5202,-2.98841 -0.0312,-4 z M 226.5625,229.75 c 0.85551,6.8441 -1.01152,15.26415 -4.71875,6.28125 1.11395,3.69831 1.83868,7.53284 2.1875,10.875 0.53761,-1.02335 1.09644,-2.11508 1.71875,-3.4375 0.8066,-1.71402 1.72439,-4.49628 2.59375,-7.625 -0.59153,-1.41697 -1.18677,-3.37167 -1.78125,-6.09375 z m -10.75,21.1875 c -0.334,1.00415 -0.63426,2.10173 -0.9375,3.3125 -0.75151,6.66256 2.84759,8.8975 2.96875,10.59375 -0.85552,0.1426 -1.5644,-0.1542 -2.5625,-1.4375 0.42775,2.2814 2.00962,18.2574 4.71875,26.8125 -0.28517,-3.9924 -0.86133,-13.6813 -0.71875,-19.8125 0.75624,0.9138 1.49219,2.52003 2.1875,4.5 -0.26848,-3.78194 -0.46056,-7.20097 -0.59375,-10.0625 -2.05038,-4.46113 -4.27532,-9.33307 -5.0625,-13.90625 z M 221,255 c 0.0217,0.0653 0.0706,0.18155 0.0937,0.25 0.004,-0.0298 -0.004,-0.0642 0,-0.0937 0.002,-0.0105 -0.002,-0.0207 0,-0.0312 -0.0296,-0.0438 -0.0638,-0.079 -0.0937,-0.125 z m -2.28125,36.34375 c 0.64696,3.36422 2.49482,6.78132 4.4375,10 -0.0679,-1.90813 -0.18084,-4.00887 -0.3125,-6.25 -1.27834,-1.40674 -2.74289,-2.80435 -4.125,-3.75 z"
     id="path3010-9-1-6-4"
     style="fill:#004455;stroke:none" />
  <path
     d="m 240.28358,190.6296 c 2.41976,2.823 2.82305,2.823 4.03293,11.2922 1.20988,8.4691 3.62964,12.0988 9.67903,13.3087 6.04939,1.2098 21.77781,-2.0165 23.39098,-7.6626"
     id="path3007-7-1-9"
     style="fill:none;stroke:#00222b;stroke-width:0.5;stroke-linecap:round;stroke-linejoin:miter;stroke-miterlimit:4;stroke-opacity:1;stroke-dasharray:none;display:inline;enable-background:new" />
  <path
     d="m 317.71582,192.2428 c 0,7.6625 -4.83952,21.3745 -10.88892,25.0041 -6.04939,3.6297 -23.79428,-0.4033 -24.60086,-4.0329"
     id="path3009-94-0-36"
     style="fill:none;stroke:#00222b;stroke-width:0.5;stroke-linecap:round;stroke-linejoin:miter;stroke-miterlimit:4;stroke-opacity:1;stroke-dasharray:none;display:inline;enable-background:new" />
  <path
     d="m 245.52639,210.9959 c 0.20164,6.4527 5.44445,9.4774 7.86421,9.679"
     id="path3027-9-2-9"
     style="fill:none;stroke:#00222b;stroke-width:0.5;stroke-linecap:round;stroke-linejoin:miter;stroke-miterlimit:4;stroke-opacity:1;stroke-dasharray:none;display:inline;enable-background:new" />
  <path
     d="m 243.71157,217.4486 c 0.80659,6.8559 3.22634,7.8642 5.24281,8.6708"
     id="path3029-8-6-44"
     style="fill:none;stroke:#00222b;stroke-width:0.5;stroke-linecap:round;stroke-linejoin:miter;stroke-miterlimit:4;stroke-opacity:1;stroke-dasharray:none;display:inline;enable-background:new" />
  <path
     d="m 300.625,178.5625 c -1.30179,-0.0286 -2.76945,0.0564 -4.46875,0.25 -10.09171,1.14954 -9.88723,3.26475 -3.03125,5.28125 3.53228,1.03887 9.29466,1.78978 13.34375,3.8125 1.73351,-1.53444 3.46312,-2.94331 5,-4.09375 -0.73999,-0.96109 -1.52351,-1.79832 -2.40625,-2.46875 -2.1818,-1.65704 -4.53212,-2.6954 -8.4375,-2.78125 z m -30.09375,1.1875 c -3.96757,0.17587 -8.07896,3.46913 -6.0625,7.25 1.63259,3.0611 4.83488,12.9269 3.625,15.75 -1.64139,3.82991 -4.47537,5.28523 -8.5,5.34375 0.6522,4.30561 1.49029,10.37081 2.375,17.125 1.83651,-2.01516 5.04089,-3.59668 9.875,-3.71875 0.36011,-0.009 0.71562,-0.007 1.09375,0 3.42734,0.0668 4.3372,4.036 1.3125,5.75 -2.55919,1.45021 -7.63608,7.23859 -11.15625,6.84375 0.2882,2.28764 0.58828,4.53502 0.875,6.875 2.34172,-1.39806 6.76203,-6.3026 10,-6.375 0.75845,-0.017 1.44433,0.22127 2.03125,0.84375 3.13021,3.32 0.47778,11.2218 -10.90625,11 -0.16835,-0.003 -0.31342,-0.0401 -0.46875,-0.0625 0.22288,1.86066 0.41064,3.66523 0.625,5.5 1.19759,-0.37534 2.90925,-0.64675 4.6875,-0.6875 3.98005,-0.0912 8.2707,0.829 7.8125,3.5625 -0.72562,4.32871 -1.26772,6.47645 -11.4375,6.4375 0.29841,2.69409 0.59285,5.23262 0.84375,7.65625 1.05629,-0.68131 2.48875,-1.125 4.15625,-1.125 8.39805,0 8.10824,3.40625 12.6875,3.40625 6.44984,0 4.88212,-5.318 8.59375,-6.3125 1.32056,-0.35384 2.49525,-0.51902 3.5,-0.53125 1.06231,-0.0129 1.93897,0.14225 2.65625,0.4375 -0.15156,-2.84448 -0.31497,-5.71492 -0.46875,-8.90625 -0.71433,1.09257 -1.95051,2.17327 -3.21875,2.90625 -1.94798,1.1259 -5.48709,2.07845 -7.53125,1.28125 -4.23837,-1.653 -4.34129,-4.6849 -2.3125,-7 1.67678,-1.91345 3.72914,-2.59296 5.75,-2.625 2.59825,-0.0412 5.11806,0.99922 6.71875,1.90625 0.17785,0.10079 0.33273,0.2 0.46875,0.3125 -0.13313,-2.85196 -0.27985,-5.7684 -0.40625,-8.71875 -0.0732,1.32669 -1.12375,2.52717 -2.9375,2.5625 -11.38403,0.2218 -14.03646,-7.68 -10.90625,-11 0.58692,-0.62248 1.2728,-0.86071 2.03125,-0.84375 3.28661,0.0735 7.78164,5.12734 10.09375,6.4375 1.05498,0.5978 1.61059,1.48972 1.71875,2.375 -0.14024,-3.28926 -0.28235,-6.43316 -0.40625,-9.6875 -3.47266,2.04967 -9.41434,-4.86188 -12.25,-6.46875 -3.0247,-1.714 -2.14609,-5.6832 1.28125,-5.75 5.16363,-0.10058 8.62244,1.38118 10.65625,3.375 -0.23834,-7.21482 -0.40194,-13.70753 -0.4375,-18.5 -2.54974,-0.24213 -4.73573,-1.03977 -5.90625,-1.625 -3.22634,-1.6132 -8.47339,-9.6795 -4.84375,-21.375 -4.83952,4.8395 -4.83192,22.592 -3.21875,26.625 1.62011,4.0502 -0.3957,5.256 -3.21875,6.0625 -2.82305,0.8066 -5.25759,-2.8197 -2.03125,-8.0625 3.22634,-5.2428 1.20101,-17.3657 -1.21875,-24.625 -0.90741,-2.7222 -3.24446,-3.73052 -5.625,-3.625 z m -33.96875,1.65625 c -0.67558,1.87613 -1.068,4.00522 -1.25,6.3125 0.57791,-0.96023 1.25627,-1.95739 2.03125,-2.875 -0.31589,-1.14596 -0.58829,-2.29989 -0.78125,-3.4375 z m 62.65625,91.28125 c -2.48586,3.07731 -7.42947,5.8125 -14.53125,5.8125 -8.85457,0 -14.14037,-1.39786 -16.90625,-3.1875 0.57745,6.1752 0.88841,10.58921 0.6875,11.59375 -0.14036,0.70181 -0.51121,1.81393 -1,3.125 5.60491,2.68272 11.61013,4.84375 17.8125,4.84375 6.28739,0 11.64249,-2.06324 16.4375,-5.875 -0.8362,-2.73664 -1.49755,-4.92527 -1.6875,-5.875 -0.18441,-0.92206 -0.48792,-5.11928 -0.8125,-10.4375 z"
     id="path2987-8-1-4"
     style="fill:#004455;fill-opacity:1;stroke:none" />
  <path
     d="m 278.9997,177.7242 c -0.88338,-8.4893 -3.89836,-15.91841 -5.57525,-22.82714"
     id="path3019-1-4-8"
     style="fill:none;stroke:#00222b;stroke-width:0.5;stroke-linecap:round;stroke-linejoin:round;stroke-miterlimit:4;stroke-opacity:1;stroke-dasharray:none" />
  <path
     d="m 282.22605,176.9176 c 0.34014,-6.63269 3.54901,-9.39255 4.9086,-21.46598"
     id="path3015-8-7-4"
     style="fill:none;stroke:#00222b;stroke-width:0.5;stroke-linecap:round;stroke-linejoin:round;stroke-miterlimit:4;stroke-opacity:1;stroke-dasharray:none" />
  <path
     d="m 285.65404,173.0864 c 1.86461,-5.5939 7.29162,-9.05029 8.73447,-20.43128"
     id="path3017-4-0-41"
     style="fill:none;stroke:#00222b;stroke-width:0.5;stroke-linecap:round;stroke-linejoin:round;stroke-miterlimit:4;stroke-opacity:1;stroke-dasharray:none" />
  <path
     d="m 282.22605,178.9341 c -0.80659,-2.823 -0.20165,-5.2428 4.83951,-5.4445 5.04116,-0.2016 6.45269,-0.8065 11.49385,-0.2016 5.04116,0.6049 11.49384,-0.4033 15.93006,-0.4033 4.43623,0 5.84775,1.0082 5.44446,2.6214"
     id="path3025-59-6-6"
     style="fill:#006680;fill-opacity:1;stroke:#00222b;stroke-width:0.5;stroke-linecap:round;stroke-linejoin:round;stroke-miterlimit:4;stroke-opacity:1;stroke-dasharray:none" />
  <path
     d="m 240.88853,175.7078 c 3.62964,-4.4363 4.83951,-4.4363 10.48561,-3.2264 5.6461,1.2099 20.56794,1.0082 24.39922,0.605 3.83128,-0.4033 3.62964,3.0247 2.6214,3.8312"
     id="path3023-4-8-27"
     style="fill:#006680;fill-opacity:1;stroke:#00222b;stroke-width:0.5;stroke-linecap:round;stroke-linejoin:round;stroke-miterlimit:4;stroke-opacity:1;stroke-dasharray:none" />
  <path
     d="m 274.96678,173.0864 c -2.41976,-7.461 -4.83952,-7.461 -6.45269,-18.1482"
     id="path3021-8-1-37"
     style="fill:none;stroke:#00222b;stroke-width:0.5;stroke-linecap:round;stroke-linejoin:round;stroke-miterlimit:4;stroke-opacity:1;stroke-dasharray:none" />
  <path
     d="m 318.9375,275.53125 -14.34375,23.15625 c 3.32055,11.75475 7.02182,27.5005 5.875,38.96875 -1.62575,16.25766 7.1859,24.5266 13.625,27.75 3.32533,-11.28947 4.25,-22.72576 4.25,-39.96875 0,-19.1065 -2.84732,-35.07735 -9.40625,-49.90625 z"
     id="path3031-4-6-6"
     style="fill:#333333;stroke:#000000;stroke-width:1px;stroke-linecap:butt;stroke-linejoin:miter;stroke-opacity:1;display:inline;enable-background:new" />
  <path
     d="m 318.9375,275.53125 -14.34375,23.15625 c 0.97553,3.45337 1.96593,7.21702 2.875,11.15625 1.20858,-3.35515 2.44876,-6.78777 3.5625,-9.90625 0,4.55166 -0.87143,10.12248 -2.25,16.21875 0.56915,2.98546 1.0467,5.98024 1.375,8.90625 0.51426,-0.8874 1.04839,-1.66327 1.59375,-2.3125 0,1.59596 1.63117,18.23087 0.5625,29.84375 0.31214,0.76902 0.63412,1.51954 1,2.21875 0.2962,-10.85531 5.38437,-33.68669 6.5,-37.3125 3.17358,13.55986 -0.27681,35.86855 -3.5625,41.65625 0.64543,0.77187 1.31397,1.47793 2,2.125 2.19754,-10.31626 5.04393,-22.29839 6.5,-31.84375 1.75729,10.92033 1.82486,21.01313 1,29.46875 1.99222,-9.35732 2.59375,-19.51119 2.59375,-33.46875 0,-19.1065 -2.84732,-35.07735 -9.40625,-49.90625 z"
     id="path3031-4-3-1-7"
     style="fill:#1a1a1a;fill-opacity:1;stroke:none;display:inline;enable-background:new" />
  <path
     d="m 304.59375,298.6875 -10.75,17.34375 c -5.13308,10.8365 -5.69938,29.65935 -2.5625,45.34375 3.13688,15.6844 -0.28529,15.94875 2.28125,24.21875 2.56654,8.2699 -0.28148,10.5696 4.28125,23.6875 4.56274,13.1178 -5.14877,21.9596 1.125,47.625 6.27376,25.6654 0.86335,35.07025 -0.5625,36.78125 -1.42586,1.711 -1.42586,5.9959 0,8.5625 1.42585,2.5665 0.27745,11.3905 -1.71875,14.8125 -1.9962,3.4221 -2.55917,12.84375 8.5625,12.84375 11.12168,0 17.12512,-4.86305 14.84375,-10.28125 -2.28137,-5.4183 -6.86336,-12.26155 -5.4375,-15.96875 1.42586,-3.7072 0.85551,-5.40605 0,-9.96875 -0.85551,-4.5627 4.55846,-27.93315 7.125,-37.34375 2.56654,-9.4107 4.00012,-27.10495 1.71875,-37.65625 -2.28136,-10.5513 -4.84006,-37.0774 -0.5625,-49.625 0.41718,-1.22373 0.79689,-2.43622 1.15625,-3.65625 -6.4391,-3.2234 -15.25075,-11.49234 -13.625,-27.75 1.14682,-11.46825 -2.55445,-27.214 -5.875,-38.96875 z"
     id="path3031-4-6-6-1"
     style="fill:#006680;stroke:#00222b;stroke-width:1px;stroke-linecap:butt;stroke-linejoin:miter;stroke-opacity:1;display:inline;enable-background:new" />
  <path
     d="m 304.59375,298.6875 -10.75,17.34375 c -2.48539,5.24693 -3.87036,12.36499 -4.3125,20.09375 0.84143,-6.24021 2.98919,-12.39035 7.09375,-15.46875 -2.4585,7.3755 -1.05176,19.645 -5.96875,31.9375 -0.44647,-1.00456 -0.79539,-2.3497 -1.0625,-3.90625 0.29965,4.30844 0.87159,8.60795 1.6875,12.6875 0.17677,0.88385 0.33281,1.71234 0.46875,2.5 1.63038,-14.49985 9.06093,-35.54847 15.71875,-54.03125 -0.90907,-3.93923 -1.89947,-7.70288 -2.875,-11.15625 z m 0.125,3 c 2.45849,10.1852 -5.28405,26.327 -8.09375,33 -0.70243,-14.7509 7.04011,-25.6245 8.09375,-33 z m 4.0625,14.46875 c -3.94891,17.4628 -12.07957,39.16701 -15.96875,53.03125 1.46154,-3.88812 3.62598,-8.44966 6.625,-13.78125 3.16092,9.1316 0.0257,32.6609 -5.59375,29.5 -0.18946,-0.10657 -0.38982,-0.22277 -0.5625,-0.34375 0.0925,0.3425 0.16556,0.68973 0.28125,1.0625 2.30527,7.42805 0.23192,10.04253 3.09375,20 1.53006,1.68017 2.88015,2.72828 3.84375,3.53125 -1.75606,-2.4585 -0.70382,-1.7677 -1.40625,-3.875 2.8097,4.2145 7.74254,13.00145 8.09375,14.40625 0,-6.3218 2.08162,-10.1815 5.59375,-11.9375 -1.05364,4.9169 -2.44496,9.1157 -2.09375,15.4375 0.35122,6.3219 -2.79757,32.6782 -3.5,39 3.51213,-5.6194 4.20522,-5.2556 6.3125,-10.875 -1.05364,10.8876 -7.03125,31.58765 -7.03125,33.34375 0,1.756 3.86893,1.4048 5.625,0 0,3.5121 -3.86147,4.21875 -5.96875,4.21875 -2.10728,0 -1.77099,5.9762 0.6875,5.625 2.45849,-0.3512 3.87639,-1.0476 5.28125,-1.75 -3.86335,5.9706 -10.54758,4.21545 -11.25,8.78125 1.05363,-1.0536 2.47015,-1.78125 3.875,-1.78125 -1.05364,2.4585 -3.5,5.9967 -3.5,10.5625 0,4.5658 -5.99162,10.51305 2.4375,15.78125 -2.56909,-0.0988 -5.03538,-0.27424 -7.28125,-0.59375 1.18148,2.45555 3.80047,4.40625 8.875,4.40625 11.12168,0 17.12512,-4.8318 14.84375,-10.25 -2.28137,-5.4183 -6.86336,-12.26155 -5.4375,-15.96875 1.42586,-3.7072 0.85551,-5.4373 0,-10 -0.85551,-4.5627 4.55846,-27.93315 7.125,-37.34375 2.56654,-9.4107 4.00012,-27.10495 1.71875,-37.65625 -1.79273,-8.29139 -3.72286,-26.39753 -2.40625,-39.875 -1.49389,3.18952 -3.08572,4.8806 -4.4375,4.6875 -2.65199,-0.37889 -0.97926,-10.1399 1.59375,-22.21875 -0.68603,-0.64707 -1.35457,-1.35313 -2,-2.125 -0.71412,1.25791 -1.43545,1.75184 -2.0625,1.1875 -0.72307,-0.65075 -0.95179,-2.71701 -0.875,-5.53125 -0.36588,-0.69921 -0.68786,-1.44973 -1,-2.21875 -0.57757,6.27623 -1.94719,11.12678 -4.78125,11.25 -7.48061,0.32523 -3.81561,-27.66733 2.625,-38.78125 -0.3283,-2.92601 -0.80585,-5.92079 -1.375,-8.90625 z m -1.25,59.28125 c 0,1.756 3.5182,9.48035 -1.75,13.34375 10.88761,4.9169 6.31577,5.98375 1.75,5.28125 -4.56578,-0.7024 -10.88294,3.5028 -3.15625,6.3125 -3.86335,-5.6194 7.02845,-3.1786 4.21875,-2.125 -2.80971,1.0536 -0.72948,3.53405 4.1875,6.34375 -1.75606,0.3513 -3.8554,0.34985 -7.71875,-1.40625 1.75607,1.0536 1.39879,2.0952 1.75,3.5 -1.40485,0.3512 -5.59654,1.05555 -8.40625,-5.96875 1.75607,1.0536 2.8125,0.3512 2.8125,0 -3.51213,-3.5121 -2.47808,-8.4375 3.84375,-8.4375 -4.56577,-2.1073 -1.3946,-11.57555 2.46875,-16.84375 z M 304,428.125 c 0,15.35147 -3.95042,21.01709 -7.09375,15.34375 0.22347,3.93279 0.81756,8.34456 2.0625,13.4375 2.2304,9.12438 2.98909,16.16256 2.96875,21.5625 1.74849,-16.48393 3.46134,-38.45363 2.0625,-50.34375 z"
     id="path3031-4-3-1-7-0"
     style="fill:#004455;fill-opacity:1;stroke:none;display:inline;enable-background:new" />
  <path
     d="m 345.86271,310.21438 c -1.0064,-7.7157 -5.36745,-42.60409 -5.70291,-50.99072 -0.33547,-8.38663 -2.34826,-10.06396 -5.03198,-15.76687 -2.68372,-5.70291 -6.03838,-18.11512 -5.70291,-24.82443 0.33546,-6.7093 1.0064,-24.82442 -2.34826,-28.17908 -3.35465,-3.35465 -8.05116,-11.40581 -13.08314,-8.38663 -5.03199,3.01919 -15.76688,13.08315 -17.10874,16.10233 -1.34186,3.01919 2.18629,80.19991 3.13513,84.94412 0.94883,4.74419 12.33489,35.58146 10.43722,54.55824 -1.65129,16.51302 7.47425,24.76378 13.9353,27.8782"
     id="path119057"
     style="color:#000000;fill:none;stroke:#800000;stroke-width:1;stroke-linecap:butt;stroke-linejoin:miter;stroke-miterlimit:4;stroke-opacity:1;stroke-dasharray:none;stroke-dashoffset:0;marker:none;visibility:visible;display:inline;overflow:visible;enable-background:accumulate" />
  <path
     d="m 247.53125,282.59375 c -0.40329,7.6625 0.4168,17.72715 -2.40625,27.40625 -2.45299,8.41024 -4.87819,38.12694 -4.15625,60.0625 8.24413,-4.38952 15.28839,-16.42773 15.65625,-33.125 0.36095,-16.38318 4.55822,-30.07482 7.875,-39.15625 l -16.96875,-15.1875 z"
     id="path2987-81-8-6-3"
     style="fill:#333333;fill-opacity:1;stroke:#00222b;stroke-width:1px;stroke-linecap:butt;stroke-linejoin:miter;stroke-opacity:1;display:inline;enable-background:new" />
  <path
     d="m 247.53125,282.59375 c -0.27029,5.13557 0.0153,11.3529 -0.625,17.8125 3.30433,-4.97278 3.0238,2.03284 1.25,13.5625 4.91698,-14.3997 8.43889,-2.4589 9.84375,7.375 0.0736,-0.2209 0.16293,-0.43076 0.25,-0.625 0.004,-0.008 -0.004,-0.0229 0,-0.0312 1.61215,-9.21042 4.10478,-17.03259 6.25,-22.90625 l -16.96875,-15.1875 z"
     id="path3283-3-9-3"
     style="fill:#1a1a1a;fill-opacity:1;stroke:none;display:inline;enable-background:new" />
  <path
     d="m 264.5,297.78125 c -3.31678,9.08143 -7.51405,22.77307 -7.875,39.15625 -0.36786,16.69727 -7.41212,28.73548 -15.65625,33.125 0.10891,3.30917 0.26693,6.45779 0.53125,9.3125 2.01646,21.7779 -2.00887,38.7184 -3.21875,47.1875 -1.20988,8.4692 1.60558,22.5663 3.21875,35.875 1.61317,13.3086 4.01942,24.62325 2.40625,28.65625 -1.61317,4.0329 0.82896,8.86145 -1.1875,11.28125 -2.01647,2.4197 -3.23945,6.4552 -6.0625,8.875 -2.82305,2.4198 -7.67695,7.66815 -10.5,9.28125 -2.82305,1.6132 -3.19973,8.44635 3.65625,9.65625 6.85598,1.2098 16.10853,-1.58915 18.125,-5.21875 2.01646,-3.6297 1.22003,-8.0908 5.65625,-7.6875 4.43623,0.4033 5.64737,-3.22585 4.4375,-8.46875 -1.20988,-5.2428 -0.4033,-7.25295 0,-7.65625 0.40329,-0.4033 1.20987,-3.2112 0,-6.4375 -1.20988,-3.2263 0.40753,-27.43705 4.84375,-35.90625 4.43622,-8.4691 3.61318,-18.9341 2,-27 -1.61317,-8.0658 -2.41384,-14.519 0.8125,-21.375 3.22634,-6.856 4.42991,-18.57525 7.65625,-33.09375 C 276.5701,362.82515 286.25,353.9497 286.25,317.25 L 264.5,297.78125 z"
     id="path2987-81-8-6"
     style="fill:#006680;stroke:#00222b;stroke-width:1px;stroke-linecap:butt;stroke-linejoin:miter;stroke-opacity:1;display:inline;enable-background:new" />
  <path
     d="m 264.5,297.78125 c -2.14522,5.87366 -4.63785,13.69583 -6.25,22.90625 2.83459,-6.24489 12.45506,1.5732 14.15625,29.8125 1.75606,29.1507 -2.09515,15.79055 -3.5,9.46875 -1.40486,-6.3219 -5.63525,-27.3777 -8.09375,-30.1875 0.35122,22.4777 0.007,34.0709 -0.34375,42.5 2.10728,-3.8633 1.05783,-15.1073 4.21875,-13 3.16092,2.1072 5.9557,29.14405 0.6875,32.65625 -0.70242,-5.2682 1.41232,-8.0681 -0.34375,-13.6875 -1.75606,5.6194 -4.22015,9.125 -5.625,9.125 -0.70243,-5.9706 -1.05364,-7.0266 0,-10.1875 -2.45849,4.5658 -1.74254,12.6516 -2.09375,15.8125 -0.35121,3.1609 -3.87033,-0.0136 -7.03125,2.09375 5.97062,1.0536 2.45849,4.23365 0,3.53125 -2.45849,-0.7024 -3.15765,0.32875 -4.5625,1.03125 4.91698,0.7024 -0.34375,11.95055 -0.34375,17.21875 -1.40485,-6.3218 -1.75746,-10.17675 -1.40625,-15.09375 -0.70243,6.6731 -0.001,15.79005 -1.40625,16.84375 -0.75108,0.56329 -1.59978,-2.03491 -2.125,-5.65625 -0.8045,5.66635 -1.68425,10.2898 -2.15625,13.59375 -0.0684,0.4789 -0.11268,0.98616 -0.15625,1.5 1.47437,-0.54151 2.88031,0.15023 3.375,2.5 0,-2.8097 -0.0149,-6.65905 0.6875,-9.46875 4.56578,6.673 9.48088,44.95375 5.96875,45.65625 -3.51213,0.7024 -7.375,-19.312 -7.375,-26.6875 -0.15313,1.3782 -0.77609,3.59797 -1.6875,4.84375 0.73305,5.64064 1.69319,11.6485 2.40625,17.53125 0.82636,6.81741 1.83836,13.10181 2.4375,18.15625 1.51329,-1.41278 1.84999,-3.54362 2.46875,-7.875 0,7.3755 2.1236,17.2053 0.71875,19.3125 -1.40485,2.1073 -1.40485,4.2113 0,4.5625 1.40485,0.3512 4.19636,-0.3451 5.25,-1.75 -0.35122,6.3219 -7.38059,2.82175 -13,20.03125 3.16092,-5.9706 5.28265,-10.5536 6.6875,-9.5 1.40485,1.0537 -1.76633,12.64135 -2.46875,13.34375 -0.70243,0.7025 -4.91651,7.74255 -7.375,8.09375 -2.08012,0.29715 -8.6776,2.10535 -11.9375,-1.8125 0.223,2.23799 1.81759,4.53214 5.53125,5.1875 6.85598,1.2098 16.10853,-1.58915 18.125,-5.21875 2.01646,-3.6297 1.22003,-8.0908 5.65625,-7.6875 4.43623,0.4033 5.64737,-3.22585 4.4375,-8.46875 -1.20988,-5.2428 -0.4033,-7.25295 0,-7.65625 0.40329,-0.4033 1.20987,-3.2112 0,-6.4375 -1.20988,-3.2263 0.40753,-27.43705 4.84375,-35.90625 4.43622,-8.4691 3.61318,-18.9341 2,-27 -0.69876,-3.49379 -1.24113,-6.69766 -1.375,-9.75 -3.5331,3.38615 -6.54151,8.98389 -9,17.28125 -0.70243,-8.0778 4.19915,-18.5919 8.0625,-24.5625 -4.21456,3.8634 -8.41511,9.46265 -9.46875,11.21875 4.56577,-13.6974 6.67257,-13.6931 7.375,-19.3125 0.70243,-5.6194 0.34375,-8.40905 0.34375,-11.21875 5.61941,2.1073 8.09515,-4.5831 9.5,-9.5 -3.16092,12.2924 -7.72901,19.6721 -10.1875,27.75 2.1587,-1.87089 4.565,-4.00224 6.78125,-6.34375 2.38257,-7.02888 3.64723,-17.47507 6.4375,-30.03125 1.61882,-7.2847 4.88868,-13.14243 7.71875,-21.8125 -5.32944,3.95319 -4.64539,-1.38213 -3.375,-6.78125 1.18534,-5.03778 5.37225,-21.33858 8.125,-18.5 0.29281,-3.9102 0.4375,-8.21943 0.4375,-13 L 264.5,297.78125 z"
     id="path3283-3-9"
     style="fill:#004455;fill-opacity:1;stroke:none;display:inline;enable-background:new" />
  <path
     d="m 223.22835,302.79978 c -0.33813,-12.70623 -2.77217,-36.70852 -2.49747,-43.57612 0.33546,-8.38663 2.34826,-10.06396 5.03198,-15.76687 2.68372,-5.70291 6.5128,-22.3849 6.17733,-29.09421 -0.33546,-6.7093 -0.26763,-19.67591 1.87384,-23.9093 1.45697,-2.88023 5.67906,-10.93139 10.71104,-7.91221 5.03198,3.01919 12.44594,15.45525 13.7878,18.47443 1.34186,3.01919 11.09745,81.14877 10.14861,85.89298 -0.94883,4.74419 -11.27324,23.97647 -11.84705,50.0214 -0.37145,16.86002 -7.54011,28.97557 -15.88788,33.25692"
     id="path119547-2"
     style="color:#000000;fill:none;stroke:#800000;stroke-width:1;stroke-linecap:butt;stroke-linejoin:miter;stroke-miterlimit:4;stroke-opacity:1;stroke-dasharray:none;stroke-dashoffset:0;marker:none;visibility:visible;display:inline;overflow:visible;enable-background:accumulate" />
  <path
     d="m 294.3125,152.375 c -0.33931,2.4959 -6.66777,3.73408 -12.96875,3.71875 -0.91767,1.53986 -3.60487,2.99537 -4.09375,-0.1875 -0.0211,-0.002 -0.0414,0.002 -0.0625,0 -0.0412,6.46872 4.80045,5.13706 2.625,7.3125 -2.21812,2.2181 -0.80067,8.8667 0.8125,9.875 1.61317,1.0082 4.63683,-8.28245 6.25,-12.71875 1.61317,-4.4362 9.0785,-8.73635 6.4375,-2.40625 -3.13917,7.5242 -4.59484,7.6119 -5.65625,10.6875 -1.20761,3.4993 -3.01055,5.04535 -0.1875,4.84375 2.82305,-0.2017 6.66216,-10.5057 7.46875,-0.625 0.80658,-0.2016 2.01079,0.2217 9.875,0.625 -10.98889,-3.78934 -8.98193,-9.17633 0.5,-6.46875 -5.38524,-4.54533 -11,-10.39657 -11,-12.6875 0,-0.47594 -10e-4,-1.14513 0,-1.96875 z m -22.40625,2.5 c 1.15149,3.97147 2.82801,6.71957 3.875,10.34375 2.62138,9.074 -2.23713,5.857 -6.875,-7.25 2.21811,12.0988 -1.2046,15.3099 -1.40625,6.4375 -1.00823,8.8724 -2.42335,7.0612 -2.625,2.625 -0.60494,1.8148 -6.43982,6.0553 -4.625,0.8125 -1.61317,2.2181 -4.44406,3.2135 -7.46875,4.625 6.60836,1.1748 15.13177,0.48475 22.40625,0.90625 3.56811,0.2067 3.94478,2.27105 4.21875,3.53125 0.4033,-2.823 -2.02302,-12.5036 -3.03125,-15.125 -0.80902,-2.10342 -0.95799,-4.07288 -1.09375,-6.125 -1.25882,-0.18915 -2.38892,-0.4677 -3.375,-0.78125 z"
     id="path3012-3-5-83-5"
     style="fill:#004455;fill-opacity:1;stroke:none" />
</svg>
