<?xml version="1.0" encoding="UTF-8" standalone="no"?>
<!-- Created with Inkscape (http://www.inkscape.org/) -->

<svg
   xmlns:dc="http://purl.org/dc/elements/1.1/"
   xmlns:cc="http://creativecommons.org/ns#"
   xmlns:rdf="http://www.w3.org/1999/02/22-rdf-syntax-ns#"
   xmlns:svg="http://www.w3.org/2000/svg"
   xmlns="http://www.w3.org/2000/svg"
   version="1.1"
   width="560"
   height="560"
   id="tatoo_chaos_right">
  <path
     d="m 231.84375,178.09375 c -0.0942,0.0941 -0.18696,0.18465 -0.28125,0.28125 -0.0657,1.13422 -0.0914,2.3396 -0.0312,3.5 -0.43867,0.57112 -0.32054,1.60972 0.21875,1.65625 0.25043,0.0216 0.4812,-0.17283 0.59375,-0.5 0.0808,-0.23491 0.0859,-0.50038 0.0312,-0.75 0.12063,-0.2949 0.27451,-0.65297 0.34375,-0.875 0.17497,1.18945 0.0936,2.58944 -0.0937,3.75 -0.0128,-0.44672 -0.50619,-0.44522 -0.65625,-0.28125 -0.33669,0.36791 -0.30644,1.80788 0.0312,2.34375 -0.36718,0.52142 -1.06424,2.11634 -0.71875,2.78125 0.18638,0.35869 0.63837,-0.0596 0.875,-0.25 -0.22669,0.38109 -0.74584,1.03234 -0.90625,1.34375 -0.52904,-0.21238 -0.80649,0.85917 -0.5625,1.34375 0.32795,0.65132 0.98148,0.2689 0.90625,-0.5625 0.27128,-0.007 0.69253,-0.3175 0.9375,-1 0.13107,-0.36516 0.43386,-1.02004 0.84375,-1.625 0.16888,-0.24924 0.3626,-0.48103 0.5625,-0.6875 0.005,0.0786 0.004,0.15413 0.0312,0.21875 0.0522,0.12382 0.13034,0.25433 0.25,0.25 0.11966,-0.004 0.20552,-0.10293 0.28125,-0.1875 0.15147,-0.16917 0.32641,-0.41256 0.5625,-0.71875 0.37987,-0.49267 0.79074,-1.14445 1.71875,-1.6875 -0.13441,0.1935 -0.29185,0.39913 -0.40625,0.59375 -0.19378,0.3297 -0.35893,0.64181 -0.46875,0.90625 -0.0549,0.13222 -0.0947,0.25575 -0.125,0.375 -0.0151,0.0596 -0.0259,0.11061 -0.0312,0.1875 -0.005,0.0769 0.0107,0.17887 0.0625,0.28125 0.0619,0.12291 0.1738,0.19898 0.3125,0.21875 -0.33544,0.45543 -0.78323,0.85113 -1.25,1.15625 -0.65459,0.42789 -1.75291,1.23487 -1.84375,2 -0.0498,0.41908 0.27082,0.44829 0.53125,0.375 -0.2883,0.28625 -0.90847,0.81341 -1.28125,0.78125 -0.51035,-0.044 -0.73802,0.65964 -0.5625,1.34375 0.16255,0.63358 0.92102,0.25788 1.03125,-0.34375 0.0202,-0.009 0.10179,-0.0212 0.125,-0.0312 0.26376,0.87747 0.90762,1.24458 1.5625,1.40625 0.811,0.20021 1.91491,-0.64978 1.5625,-1.96875 1.81714,-0.97261 3.5811,-0.41055 5.34375,1.59375 -1.39184,-0.722 -3.43425,-0.91355 -4.5625,0.59375 -0.39146,-0.0158 -0.94096,-0.11456 -1.0625,0.59375 -0.11905,0.69379 0.34895,0.81285 0.71875,0.8125 0.0491,0.34897 0.24622,0.60068 0.46875,0.65625 -0.50747,0.43256 -1.43215,0.50134 -1.96875,0.0937 0.40329,-0.66781 -0.20204,-1.17231 -0.59375,-1.25 -0.33676,-0.0668 -0.74184,0.0292 -1.09375,0.3125 -0.37232,-0.33428 -1.30623,-0.91387 -1.59375,-0.0312 0.17524,0.20541 0.4687,0.5946 0.75,0.875 -0.23951,-0.009 -0.38326,0.27304 -0.28125,0.53125 0.35387,0.89575 1.16882,1.31871 1.53125,2.15625 -0.80458,0.4051 0.6545,2.52128 1.03125,3.03125 -0.0986,0.47966 -0.0649,0.98682 0.0312,1.28125 -0.22926,-0.34941 -0.60885,-0.47143 -0.8125,-0.46875 -0.32555,-0.9792 -1.00377,-3.02372 -1.53125,-2.3125 -0.1365,-0.35181 -0.26322,-0.68503 -0.34375,-1.09375 -0.17922,-0.48073 -0.20571,-1.49694 -0.5625,-1.6875 -0.12854,-0.0687 -0.33156,0.19105 -0.34375,0.53125 -0.037,-0.37678 -0.0782,-0.95452 -0.3125,-0.96875 -0.41454,-0.0252 -0.58716,1.74666 -1,2.96875 -0.23089,0.68346 -0.91245,2.80324 -0.6875,3.25 0.0516,0.10255 0.28508,0.0648 0.375,0.0312 -0.18991,0.78089 -0.56203,2.05172 -0.3125,2.3125 0.22601,0.23621 0.9766,-0.71978 1.1875,-1.375 -0.0569,3.21104 -0.68883,5.00077 -1.71875,7.0625 0.25608,-1.40043 0.60003,-3.17985 0.40625,-3.78125 -0.10988,-0.12118 -0.35989,0.43228 -0.46875,0.5625 0.086,-0.65114 -0.10954,-1.15033 -0.4375,-0.65625 -0.0807,-0.53201 -0.0262,-1.12613 0.0312,-1.71875 0.09,-0.92961 -0.0888,-2.08359 -0.21875,-2.5625 -0.0837,0.14448 -0.56274,0.84251 -0.625,1.34375 0.0857,-1.04443 0.5745,-1.85415 1.0625,-3 0.35599,-0.83586 0.76784,-1.9135 0.8125,-2.90625 0.021,-0.4675 -0.24427,-0.76557 -0.5,-0.625 0.002,-0.47235 0.11062,-1.41195 0.1875,-2.1875 -0.65659,0.009 -1.0455,1.21337 -1,2.09375 0.0186,0.36046 0.0899,0.59288 -0.0625,0.875 -0.0184,-0.28351 -0.16624,-0.4248 -0.3125,-0.3125 -0.2896,0.22235 -0.42041,0.76537 -0.75,1.0625 -0.0422,-0.2691 -0.14822,-0.34718 -0.3125,-0.375 0.12497,-0.31145 0.2043,-0.81096 0.0312,-0.96875 -0.28308,-0.25817 -1.0233,0.43728 -1.75,1.21875 0.007,0.16933 0.0236,0.33146 0.0312,0.5 0.75652,-0.8511 1.38885,-1.4584 1.46875,-1.3125 0.0955,0.17434 -0.8125,2.09375 -0.8125,2.09375 0.54402,-0.66916 0.91729,-1.16364 1,-1.03125 0.0991,0.15855 -0.20793,1.13946 -0.28125,1.34375 0.70666,-0.56022 1.16499,-2.04109 1.3125,-1.9375 0.10501,0.0737 -0.0986,0.93064 -0.3125,1.53125 0.47006,-0.38958 1.08027,-1.5502 1.03125,-2.5 -0.0411,-0.79666 0.12264,-1.19767 0.40625,-1.53125 -0.0439,0.44278 -0.20113,1.83284 -0.0312,2.875 0.0704,-0.71002 0.13324,-0.98691 0.34375,-0.96875 0.2105,0.0182 0.055,1.25048 -0.78125,2.875 -0.83223,1.61673 -1.24191,2.69889 -1.15625,5.3125 0.38364,-1.46077 0.68254,-2.18801 0.90625,-2.53125 0.34819,1.16602 -0.4209,3.43954 0.21875,4.53125 0.0677,-0.41539 0.46436,-1.1312 0.15625,0.90625 0.3681,-0.76858 0.46633,-0.95937 0.59375,-0.90625 0.12743,0.0531 -0.61907,3.51912 -1.03125,5 1.8491,-3.12607 3.08012,-5.68297 2.75,-11.1875 -0.44143,1.68131 -1.03491,2.86881 -1.15625,2.65625 -0.14457,-0.25324 0.39893,-1.45908 0.46875,-3.09375 -0.16351,0.32711 -0.35905,0.83973 -0.46875,0.71875 -0.13898,-0.15328 0.34488,-1.85316 0.625,-2.5 0.56736,-1.31009 0.64025,-2.63447 0.75,-2.625 0.1364,0.0118 0.0873,1.37523 0.625,2.1875 -0.12405,-0.85784 -0.0738,-1.85296 0.0625,-1.84375 0.2125,0.0146 0.27936,2.77074 1.15625,3.5625 -0.12236,-0.33944 -0.24927,-0.77013 0,-0.875 0.24924,-0.10487 1.16489,2.51984 1.34375,3.125 0.0662,-0.66826 0.12064,-1.43049 1.25,0.5625 -0.24418,-1.28477 -0.78581,-2.77837 0.0937,-2.28125 -1.09315,-1.4212 -1.71276,-2.54897 -1.59375,-2.8125 0.094,-0.20815 0.41704,0.0178 0.5625,0.15625 -0.48785,-1.66067 -1.94674,-2.59172 -1.8125,-2.875 0.13423,-0.28328 0.68854,0.34799 0.84375,0.65625 -0.27362,-0.9201 -0.86679,-1.56409 -1.1875,-1.96875 0.12695,-0.32348 0.80393,0.21802 1.03125,0.59375 0.72303,-0.82009 1.66179,-0.40237 1.625,-0.0312 -0.0281,0.28305 -0.48445,0.20713 -0.65625,0.125 1.15234,1.5414 3.10416,1.0392 4.03125,-0.34375 -0.82519,0.56065 -1.49074,0.25885 -1.46875,-0.46875 -0.47412,0.0223 -0.7243,-0.0663 -0.6875,-0.4375 0.0353,-0.35646 0.51623,-0.35635 0.875,-0.0937 0.69482,-1.1195 2.36449,-1.93737 5.78125,0.25 -2.37252,-4.71191 -5.32168,-4.37535 -7.3125,-3.21875 0.67008,0.93518 0.30015,1.88265 -0.875,1.78125 -1.26818,-0.10943 -1.5,-1.4375 -1.5,-1.4375 -0.13544,0.0602 -0.4375,0.15625 -0.4375,0.15625 0.0208,0.57664 -0.48096,0.80539 -0.59375,0.4375 -0.15948,-0.52021 0.17114,-0.83407 0.53125,-0.71875 0.42802,-0.10847 1.62361,-1.01524 1.96875,-1.96875 -0.6064,0.49528 -0.95308,0.59276 -1.03125,0.4375 -0.096,-0.19065 0.51852,-0.99898 1.5625,-1.625 1.04397,-0.62601 1.82675,-1.93057 2.09375,-2.75 -0.69482,1.1195 -0.98288,1.00143 -1.09375,0.78125 -0.11086,-0.22018 0.94122,-2.30467 1.90625,-2.9375 -1.68184,0.23399 -2.45025,1.61807 -2.9375,2.25 -0.48725,0.63193 -0.64919,0.85647 -0.75,0.65625 -0.0944,-0.18748 0.43947,-0.80607 0.625,-0.9375 -1.46365,0.44238 -2.17544,2.33909 -2.46875,3.15625 -0.29331,0.81716 -0.71712,0.95113 -0.875,0.9375 0.15648,0.57083 -0.35002,0.9849 -0.625,0.5625 -0.20222,-0.31064 0.11351,-1.20149 0.5,-0.8125 0.45527,-1.14756 1.1561,-1.21188 1.65625,-3.3125 -0.46155,0.97383 -1.26499,1.88053 -1.53125,1.4375 -0.27333,-0.45479 0.27207,-1.67959 0.8125,-2.40625 -0.49273,-0.74883 -0.32065,-1.99372 -0.0312,-1.96875 0.28945,0.025 0.21358,0.54679 0.21875,1.0625 0.6194,-0.94007 0.94769,-4.79636 0.28125,-6.71875 -0.1174,1.15187 -0.45135,2.43206 -0.65625,2.625 0.22522,0.51697 -0.0708,0.98691 -0.28125,0.96875 -0.27599,-0.0238 -0.43554,-0.69828 0.0312,-1.0625 -0.0788,-1.31298 -0.0656,-2.69888 0,-3.96875 z m -1.1875,1.28125 c -0.0879,0.0972 -0.19325,0.18188 -0.28125,0.28125 -0.0835,0.42382 -0.14361,0.86971 -0.1875,1.3125 0.66582,0.6225 0.69601,1.50646 0.4375,1.8125 -0.34219,0.40511 -0.87126,-0.64753 -0.75,-2.40625 -0.77311,1.96879 -0.42343,4.57207 0.0312,5.875 0.11606,-1.32771 0.89686,-1.50346 1.09375,-0.8125 0.19689,0.69097 -0.37839,1.5619 -0.84375,1.4375 0.26902,1.03417 -0.18679,2.15514 -0.84375,2.625 0.4107,0.94352 0.31143,1.4123 0.15625,1.53125 -0.34926,0.26772 -0.50586,-0.83736 -0.53125,-2.1875 -0.6752,0.22937 -0.8277,-0.65619 -0.875,-1.25 -0.0473,-0.59381 -0.0389,-1.13872 -0.375,-2.03125 0.0624,1.31121 -0.20778,2.32913 -0.75,1.6875 -0.19569,-0.23156 -0.32349,-0.6246 -0.53125,-1.0625 -0.0375,0.10285 -0.0578,0.20903 -0.0937,0.3125 0.16112,0.33791 0.27987,0.66472 0.46875,0.9375 0.36056,0.5207 0.83817,0.50517 1,-0.15625 0.11352,1.03574 0.13553,1.9478 0.90625,2.125 0.003,0.76745 0.29019,2.6176 0.9375,2.125 0.35998,-0.27395 0.13437,-1.24051 -0.0312,-1.875 0.62753,-0.53484 0.94208,-1.27699 1,-2.4375 0.63055,-0.38338 0.83151,-1.41894 0.65625,-2.125 -0.18912,-0.76187 -0.97992,-0.73171 -1.28125,0 -0.20655,-0.84986 -0.29596,-1.84816 -0.1875,-2.96875 0.0294,0.63773 0.39439,1.48243 0.875,1.125 0.65349,-0.48602 0.4103,-2.17923 -0.1875,-2.53125 0.0541,-0.49197 0.10117,-0.93398 0.1875,-1.34375 z m -4.8125,8.53125 c -0.0436,0.1563 -0.0844,0.31136 -0.125,0.46875 0.24293,0.41139 0.47048,0.73963 0.46875,1 -0.002,0.27151 -0.3618,0.47497 -0.8125,0.53125 -0.006,0.0298 0.006,0.0639 0,0.0937 1.07342,0.25881 1.90042,0.59498 1.46875,1.8125 0.65171,-0.0988 1.06676,0.76757 1.25,1.34375 0.56063,-0.66219 0.96988,-0.16264 0.78125,0.6875 -0.10912,0.4918 -0.41714,0.72014 -0.6875,0.5625 -0.13593,-0.0793 -0.37926,-0.31419 -0.21875,-0.84375 -0.95673,0.1146 -1.54885,-0.48675 -2.09375,-1.53125 -0.15933,-0.3054 -0.39956,-0.61418 -0.6875,-0.90625 -0.0167,0.10554 -0.0468,0.20668 -0.0625,0.3125 0.29302,0.32833 0.52959,0.67068 0.6875,0.90625 0.72144,1.07623 1.10579,1.36539 1.90625,1.40625 -0.19418,0.92955 0.85914,1.40447 1.1875,0.46875 0.29374,-0.83708 0.13971,-2.0401 -0.75,-1.5625 -0.14897,-0.34936 -0.35602,-1.00919 -0.90625,-1.25 -0.0559,-0.95779 -0.41377,-1.36988 -0.9375,-1.59375 0.30133,-0.65647 -0.15752,-1.34344 -0.46875,-1.90625 z M 225,192.28125 c -0.0243,0.1985 -0.0413,0.39455 -0.0625,0.59375 0.0396,0.20423 0.0438,0.38562 -0.0312,0.5 -0.0184,0.19722 -0.0469,0.39606 -0.0625,0.59375 0.0125,-0.01 0.019,-0.02 0.0312,-0.0312 0.42643,-0.38968 0.37137,-1.01371 0.125,-1.65625 z m -0.25,2.8125 c -0.009,0.17679 0.007,0.35434 0,0.53125 0.3909,0.19959 0.17591,0.77822 0.125,1.0625 0.59131,-0.0754 1.2701,-0.64037 1.375,-0.375 0.0928,0.23486 -0.19161,0.4139 -0.40625,0.4375 1.37721,0.55285 1.74183,-0.69799 1.96875,-0.1875 0.0601,0.13522 -0.0508,0.33298 -0.46875,0.875 -0.41793,0.54203 -1.04687,0.85551 -0.5,-0.21875 -0.60708,0.36894 -1.3768,1.09187 -2.125,2.15625 0.004,0.20676 -0.006,0.41899 0,0.625 0.50977,-0.82763 1.08087,-1.50744 1.71875,-2.0625 -0.11216,0.84252 0.73233,0.034 1,-0.25 0.36285,-0.38504 0.65081,-1.06043 0.5625,-1.3125 -0.19395,-0.55361 -0.97064,0.62606 -1.5625,0.25 0.26497,-0.45294 0.19475,-0.88154 -0.0937,-0.84375 -0.31828,0.0417 -0.74775,0.20832 -1.0625,0.34375 -7.3e-4,-0.61652 -0.21055,-0.90928 -0.53125,-1.03125 z"
     id="path3319-4-8-5-8-709-88-0"
     style="fill:#22280b;fill-rule:evenodd;stroke:none" />
  <path
     d="m 230.3388,194.54983 c -0.39923,-0.0348 -0.81561,0.17925 -1.24278,0.49781 -0.904,0.67417 -1.32784,0.26651 -1.96231,-0.29372 0.25633,0.35911 0.62403,0.80959 1.36153,0.9996 0.24952,0.6955 0.64642,1.49205 1.4095,1.55789 0.76309,0.0658 1.20837,-0.40389 1.55697,-1.51115 0.11915,0.13665 0.78107,0.15304 1.07318,-0.11662 0,0 -0.64084,0.37052 -1.30058,-0.53631 -0.28611,-0.39327 -0.585,-0.57049 -0.89551,-0.5975 z m -0.159,0.3821 c 0.69742,0.0602 0.52247,1.16289 0.10573,1.48498 0.29906,-0.20587 0.52546,-0.48143 0.63191,-1.01985 0.09,0.0288 0.18849,0.0985 0.26328,0.14712 -0.23994,0.94813 -0.70289,1.33038 -1.24231,1.28384 -0.53942,-0.0465 -0.84602,-0.55978 -1.06715,-1.27389 0.11334,-0.0363 0.28245,-0.14559 0.43864,-0.25619 -0.0282,0.41879 0.14298,0.81389 0.39856,1.04656 -0.29579,-0.36251 -0.26837,-1.47639 0.47134,-1.41257 z"
     id="path3321-6-2-3-4-63-7-2"
     style="fill:#22280b;fill-opacity:1;fill-rule:evenodd;stroke:none" />
  <path
     d="m 231.41029,177.86174 c -0.0763,0.20191 -0.44052,1.42108 -0.57916,2.63033 0.22536,0.37688 0.25418,0.64854 0.41597,1.288 -0.10229,-0.42583 -0.01,-3.1886 0.16319,-3.91833 z m -0.18051,1.03753 c -0.077,0.38673 -0.18552,1.68724 -0.0969,1.92879 -0.0417,-0.1806 -0.13556,-0.37283 -0.17575,-0.4431 0.0618,-0.53875 0.2071,-1.1951 0.27264,-1.48569 z"
     id="path3323-5-5-4-8-20-51-3"
     style="fill:#28170b;fill-rule:evenodd;stroke:none" />
  <path
     d="m 232.56994,183.11083 c -0.53987,1.02446 -1.22959,0.95903 -1.48613,-0.066 -0.48496,0.85472 -0.9023,0.95986 -1.20494,0.22399 0.0109,0.26901 0.0995,0.79793 0.20337,1.07496 0.74051,-0.60372 1.31985,0.27555 1.45524,1.02465 0.13937,-0.85431 0.63648,-1.20595 0.95778,-1.03697 0.0457,-0.23945 0.12246,-0.94541 0.0747,-1.2206 z m -1.54694,0.40371 c 0.16178,0.38122 0.39856,0.61256 0.67151,0.62905 0.22515,0.0136 0.45822,-0.1203 0.67749,-0.36563 -0.009,0.10011 -0.0202,0.15623 -0.031,0.24047 -0.28703,3.8e-4 -0.59495,0.22213 -0.80045,0.67169 -0.10104,-0.23315 -0.226,-0.4492 -0.39247,-0.60498 -0.12689,-0.11874 -0.28032,-0.18552 -0.44196,-0.21343 0.10682,-0.0867 0.2129,-0.20854 0.31684,-0.35717 z"
     id="path3325-1-4-1-5-34-84-4"
     style="fill:#28170b;fill-rule:evenodd;stroke:none" />
  <path
     d="m 228.86476,205.25121 c -0.0528,0.24863 -0.16361,1.00344 -0.51212,1.30101 0.0108,1.14499 -0.20485,1.68207 -0.11344,2.37822 0.22132,-0.11153 0.45304,-0.0877 0.47617,0.27176 0.51782,-0.82106 0.78245,-0.17165 0.55043,2.08713 0.37515,-0.92589 0.78737,-3.13613 0.83401,-4.1746 -0.99244,1.49301 -1.64867,0.63259 -0.89687,-1.28584 -0.18314,-0.0456 -0.26167,-0.21365 -0.33818,-0.57768 z m 0.001,0.78515 c 0.0186,0.0114 0.0854,0.0216 0.0953,0.0312 -0.50827,1.5552 -0.26931,2.41956 0.84266,1.85448 -0.0534,0.43663 -0.083,1.06169 -0.23245,1.41056 -0.0847,-0.60817 -0.42091,-0.99669 -0.81136,-0.60843 -0.0625,-0.15613 -0.24238,-0.28381 -0.35358,-0.37751 0.0516,-0.53286 0.13686,-1.15563 0.15808,-1.75334 0.16552,-0.20505 0.24437,-0.46915 0.30134,-0.55699 z"
     id="path3327-2-7-04-9-29-6-8"
     style="fill:#28170b;fill-rule:evenodd;stroke:none" />
  <path
     d="m 226.31145,198.44894 c -0.83668,0.72479 -1.69316,2.1256 -2.28454,3.28046 0.81313,-1.00935 1.52692,-1.59841 1.99147,-1.8983 -0.28115,-0.26084 -0.2637,-0.78053 0.29307,-1.38216 z m -0.44606,1.35897 c -0.17091,0.066 -0.8267,0.57036 -1.12624,0.89381 0.26912,-0.56105 0.7913,-1.26163 1.03441,-1.5346 -0.0773,0.20873 -0.0815,0.51567 0.0918,0.64079 z"
     id="path3329-0-0-0-4-24-4-6"
     style="fill:#22280b;fill-rule:evenodd;stroke:none" />
  <path
     d="m 230.29017,195.43634 a 0.17164858,0.27282525 6.1390192 1 1 -0.34207,-0.0295 0.17164858,0.27282525 6.1390192 1 1 0.34207,0.0295 z"
     id="path3331-9-4-7-0-39-8-8"
     style="fill:#28170b;fill-opacity:1;fill-rule:nonzero;stroke:none;stroke-width:1;marker:none;visibility:visible;display:inline;overflow:visible;enable-background:accumulate" />
  <path
     d="m 231.46875,186.25 c -0.0968,0.30757 -0.31846,0.76485 -0.65625,1.09375 0.019,1.0126 -0.33305,1.78922 -0.875,2.4375 0.28803,1.50216 -0.10697,2.2295 -0.59375,2.1875 -0.4868,-0.042 -0.80484,-1.02116 -0.8125,-2.25 -0.51104,-0.0652 -0.76539,-0.64538 -0.90625,-1.5 -0.85382,0.12092 -1.11834,-0.64504 -1.4375,-1.375 -0.0177,0.0537 -0.0452,0.10244 -0.0625,0.15625 0.30404,0.68606 0.66621,1.40545 1.40625,1.4375 0.0707,0.37998 0.1709,0.70265 0.3125,0.96875 0.1374,0.25821 0.33098,0.42848 0.5625,0.5 0.0165,0.58142 0.0734,1.12713 0.21875,1.53125 0.15864,0.44121 0.41655,0.75517 0.71875,0.78125 0.29196,0.0252 0.57614,-0.23442 0.71875,-0.6875 0.13182,-0.41883 0.0757,-1.01272 -0.0937,-1.71875 0.52739,-0.61459 0.98535,-1.39209 1,-2.375 0.15857,-0.17085 0.27052,-0.34183 0.375,-0.53125 0.0224,0.25057 0.0559,0.46702 0.0937,0.65625 -0.34298,0.71165 -0.56949,1.40515 -0.625,1.96875 -0.0376,0.3813 0.12666,0.9063 0.40625,0.9375 -0.0213,0.049 -0.0369,0.15283 -0.0625,0.21875 -0.93944,-0.0187 -1.07173,1.70782 -0.59375,2.3125 0.48149,0.60912 1.1038,0.12228 1.40625,-0.71875 0.56942,-0.18066 0.75365,-0.87338 1.03125,-1.5625 0.0949,0.20664 0.21565,0.21905 0.375,0.1875 -0.37906,0.46445 -0.83208,0.95259 -0.75,1.71875 -0.23209,0.35233 -1.13811,-0.0691 -1.28125,1.375 -0.12544,1.26549 0.62321,2.00884 1.3125,1.1875 0.0448,0.008 0.0642,-0.0373 0.0937,-0.0312 0.35699,0.66506 0.68384,0.9318 1.125,1.03125 -0.24566,0.0906 -0.46548,0.24781 -0.625,0.40625 -0.56654,-0.56069 -1.43675,-1.10996 -2.15625,0.71875 0.24582,0.15541 0.58313,0.47394 0.75,0.71875 -0.33609,0.96564 0.71319,1.89499 1.21875,2.5625 -0.0411,0.1315 -0.0609,0.5335 -0.0312,0.8125 -0.18536,-0.0433 -0.39329,-0.11099 -0.5625,-0.0937 -0.22766,-0.9277 -0.61478,-2.722 -1.15625,-2.46875 -0.39338,-0.99651 -0.95296,-0.62904 -1.15625,0.21875 -0.25685,1.07111 -0.50304,2.14555 -0.75,3.21875 -0.0152,-0.12842 -0.0586,-0.20686 -0.125,-0.25 0.28327,-0.96446 0.51555,-2.51929 -0.0937,-2.875 0.12036,-0.82542 0.28991,-1.97355 -0.34375,-2.03125 -0.85352,-0.0777 -1.20948,1.74472 -1.28125,2.46875 -0.0839,0.1037 -0.31806,0.32338 -0.40625,0.46875 -0.0309,-0.001 -0.0935,0.0522 -0.125,0.0312 0.0136,-0.0937 0.0637,-0.26394 0.0625,-0.3125 0.36793,-0.37461 0.44643,-0.97267 0.1875,-1.4375 0.43472,-0.38798 1.10114,-1.16282 1.15625,-1.71875 0.0697,-0.70338 -0.37046,-0.73804 -0.71875,-0.6875 -0.0252,-0.16963 -0.47199,-0.37025 -0.71875,-0.21875 -0.0367,-0.56616 -0.92208,-0.63831 -1.375,-0.4375 -0.0397,-0.30755 -0.33066,-0.65301 -0.625,-0.6875 0.31697,-0.0831 0.67892,-0.95732 0.59375,-1.40625 0.27953,0.5519 1.1016,1.28127 1.9375,1.40625 0.12437,0.32202 0.38961,0.62187 0.71875,0.625 0.3524,0.003 0.71189,-0.26516 0.9375,-0.71875 0.23958,-0.4817 0.28078,-1.11581 0.125,-1.625 -0.14799,-0.48373 -0.49697,-0.82962 -0.96875,-0.8125 -0.25692,-0.51946 -0.49324,-0.86958 -0.75,-0.96875 -0.008,-0.39369 -0.0663,-0.71002 -0.21875,-0.9375 -0.17322,-0.25846 -0.52335,-0.36992 -0.625,-0.59375 0.15251,-0.26789 -0.0904,-0.89884 -0.25,-1.1875 -0.0703,-0.12711 -0.29187,-0.53948 -0.5,-1 -0.0183,0.0603 -0.0134,0.12699 -0.0312,0.1875 0.38342,0.78445 0.7713,1.55532 0.59375,2.125 0.59219,0.45127 0.94745,0.70761 0.90625,1.59375 0.22034,0.0299 0.55095,0.38558 0.8125,1 0.93988,-0.24519 1.16329,1.10932 0.71875,2.09375 -0.42008,0.93028 -1.32339,0.9068 -1.46875,-0.21875 -1.25707,-0.0941 -1.77554,-1.37396 -2.46875,-2.1875 0.75406,1.19372 0.27773,2.13429 -0.25,2.4375 -0.009,0.13514 -0.0232,0.27097 -0.0312,0.40625 0.39218,0.089 0.5583,0.29798 0.6875,0.9375 1.24753,-0.67164 1.47195,-0.2002 1.4375,0.28125 0.40239,-0.24631 0.71625,-0.13962 0.75,0.0312 0.56491,-0.18024 0.65562,0.28083 0.59375,0.5625 -0.1159,0.52765 -0.48436,1.27166 -1.28125,1.78125 0.48256,0.20907 0.44405,0.87374 -0.125,1.34375 0.0724,0.17163 0.017,0.50532 -0.15625,0.875 0.16542,-0.19634 0.26949,-0.0479 0.3125,0.1875 0.14459,-0.3877 0.5214,-0.89203 0.71875,-0.875 -0.013,-1.47544 0.55433,-2.64029 1.09375,-2.59375 0.33567,0.029 0.30382,0.38352 0.125,2.1875 0.86834,0.0749 0.34132,2.0646 -0.0937,3.375 0.42354,-0.65849 0.35684,0.0309 0.21875,1.15625 0.17771,-0.72183 0.99556,-3.65568 1.25,-4.75 0.25444,-1.09431 0.68219,-0.73954 0.84375,-0.0937 0.61261,-0.55793 0.87059,1.11452 1.1875,2.46875 0.1904,-0.0468 0.5432,-0.0898 0.90625,0.53125 0.36305,0.62105 0.4484,1.05064 0.71875,1.9375 0.0367,-0.10214 0.22625,-0.11338 0.4375,0.0312 -0.0714,-0.21677 -0.0782,-0.54344 -0.0312,-0.75 0,0 -0.0176,0.0925 -0.71875,-1 -0.70112,-1.09251 -0.44253,-1.68917 -0.28125,-1.84375 -0.14752,-0.11803 -0.41536,-0.49502 -1,-1.15625 -0.58464,-0.66124 -0.55973,-1.26659 -0.34375,-1.4375 -0.1289,-0.30599 -0.50831,-0.70739 -0.75,-0.8125 0.61233,-1.35829 1.39466,-0.7649 2,-0.3125 0.14813,-0.15571 0.38164,-0.45961 1,-0.40625 0.7894,0.0681 1.07484,0.82508 1.09375,1.4375 0.187,0.12144 0.68657,0.17842 1.0625,0 -1.51179,-0.73092 -1.38529,-1.97879 0.28125,-2.375 1.05756,-1.41496 2.72315,-1.24229 3.5625,-0.875 -0.75434,-0.82331 -2.56688,-1.48375 -3.96875,-0.59375 0.18194,1.51108 -1.25829,1.9988 -1.96875,1.9375 -0.71046,-0.0613 -0.9698,-0.25236 -1.4375,-1.15625 0,0 -0.15297,-0.0256 -0.21875,-0.0312 -0.48578,0.88479 -1.33343,0.34442 -1.21875,-0.8125 0.12918,-1.30309 1.03419,-0.73171 1.5,-1.28125 -0.42602,-0.52118 -0.0841,-0.93263 0.71875,-1.9375 0.80287,-1.00487 1.37672,-1.10203 1.90625,-1.625 -0.3366,-0.2186 -0.0878,-1.08416 0.21875,-1.5 -0.33439,0.1607 -0.63752,0.78474 -0.84375,1.125 -0.20623,0.34025 -0.42153,0.59413 -0.90625,0.53125 -0.0145,0.14618 0.10557,0.6556 -0.3125,1.125 -0.41807,0.46941 -0.72249,0.3245 -0.65625,-0.34375 -0.12596,0.19974 -0.28925,0.67041 -0.375,1 -0.0858,0.32959 -0.39588,0.85178 -0.875,1 -0.21022,0.7822 -0.74625,1.22018 -1.1875,0.71875 -0.44125,-0.50143 -0.307,-2.18869 0.53125,-1.9375 0.0477,-0.0801 0.13788,-0.36009 0.25,-0.53125 -0.77414,0.02 -0.57017,-1.29262 0.15625,-2.75 -0.0721,-0.34321 -0.13033,-0.75448 -0.125,-1.34375 z m 3.84375,2.28125 c -0.0229,0.14049 -0.0514,0.29918 -0.0312,0.4375 0.007,0.0486 0.0474,0.0804 0.0625,0.125 -0.34129,0.28155 -0.73801,0.4813 -1.21875,0.9375 0.0274,-0.0933 0.084,-0.16612 0.0937,-0.25 0.0111,-0.0962 6e-4,-0.17703 0,-0.25 0.40943,-0.0205 0.68291,-0.27683 0.875,-0.59375 0.0686,-0.11321 0.13877,-0.27438 0.21875,-0.40625 z M 237.84375,194 c 0.15115,-0.001 0.28968,-0.0152 0.4375,0 0.0845,0.009 0.16739,0.0486 0.25,0.0625 0.16546,0.0277 0.31479,0.0781 0.46875,0.125 -0.13626,6e-4 -0.26534,-0.0191 -0.40625,0 -0.66021,0.0877 -1.34805,0.37991 -1.90625,1.09375 -0.1257,-1.9e-4 -0.28238,0.0512 -0.4375,0.0937 0.21014,-0.29142 0.2469,-0.73195 0.25,-1.125 0.42588,-0.16825 0.89031,-0.24642 1.34375,-0.25 z m -2.46875,2.0625 c -0.11418,0.20381 -0.16899,0.44212 -0.1875,0.6875 -0.15458,-0.24988 -0.36593,-0.44405 -0.65625,-0.53125 0.25871,0.002 0.53855,-0.0382 0.84375,-0.15625 z m 0.0937,1.34375 c 0.076,0.10774 0.32021,0.28327 0.4375,0.375 -0.13137,0.0364 -0.3254,-8.5e-4 -0.40625,-0.0312 -0.01,-0.0935 -0.009,-0.25239 -0.0312,-0.34375 z m -1.71875,5.5 c 0.15209,0.22437 0.30109,0.46097 0.46875,0.65625 -0.011,0.10217 -0.037,0.20789 -0.0312,0.3125 -0.0489,-0.0407 -0.10389,-0.003 -0.15625,0 -0.10757,-0.36234 -0.18686,-0.69425 -0.28125,-0.96875 z"
     id="path3333-86-5-1-4-47-8-3"
     style="fill:#22280b;fill-opacity:1;fill-rule:evenodd;stroke:none" />
  <path
     d="m 226.51349,198.75184 c -0.13165,0.0684 -0.2484,0.16305 -0.33147,0.26934 -0.0415,0.0532 -0.0736,0.11059 -0.0974,0.17321 -0.0238,0.0626 -0.0389,0.13789 -0.0279,0.20859 0.0111,0.0707 0.0458,0.12002 0.0842,0.15033 0.0384,0.0303 0.0816,0.0435 0.13225,0.0487 0.1014,0.0104 0.22799,-0.0214 0.35964,-0.0899 0.13165,-0.0684 0.24529,-0.16144 0.32836,-0.26772 0.0415,-0.0532 0.0743,-0.10587 0.0981,-0.16849 0.0238,-0.0626 0.039,-0.13789 0.0279,-0.20859 -0.0111,-0.0707 -0.0458,-0.12002 -0.0842,-0.15033 -0.0384,-0.0303 -0.0823,-0.0483 -0.13298,-0.0535 -0.1014,-0.0104 -0.22489,0.0198 -0.35653,0.0882 z m 0.0304,0.19363 c 0.11728,-0.061 0.22644,-0.0846 0.3045,-0.0765 0.039,0.004 0.071,0.0162 0.089,0.0304 0.018,0.0142 0.021,0.0264 0.0222,0.0344 0.001,0.008 0.002,0.0212 -0.009,0.0506 -0.0112,0.0294 -0.0355,0.0657 -0.0674,0.10657 -0.064,0.0818 -0.16275,0.17142 -0.28003,0.23238 -0.11728,0.061 -0.23029,0.0814 -0.30835,0.0734 -0.039,-0.004 -0.0702,-0.0115 -0.0882,-0.0257 -0.018,-0.0142 -0.021,-0.0264 -0.0222,-0.0344 -0.001,-0.008 -0.002,-0.0212 0.009,-0.0506 0.0112,-0.0294 0.0347,-0.0704 0.0667,-0.11129 0.064,-0.0818 0.1666,-0.16832 0.28388,-0.22927 z"
     id="path3335-5-7-4-7-63-1-7"
     style="fill:#22280b;fill-opacity:1;fill-rule:nonzero;stroke:none;stroke-width:0.25;marker:none;visibility:visible;display:inline;overflow:visible;enable-background:accumulate" />
  <path
     d="m 228.99844,203.14792 c 0,0 -0.31466,0.51036 -0.47711,0.82399 -0.0644,0.64973 -0.18359,1.77285 -0.13844,2.0746 0.36487,-0.1057 0.59233,-2.09638 0.61555,-2.89859 z m -0.18607,0.58334 c -0.0508,0.47613 -0.11901,0.98292 -0.2484,1.49965 0.003,-0.39527 0.0368,-0.79606 0.0719,-1.19257 0.064,-0.11986 0.0994,-0.17592 0.1765,-0.30708 z"
     id="path3337-7-2-7-4-19-0-5"
     style="fill:#28170b;fill-rule:evenodd;stroke:none" />
  <path
     d="m 228.33703,204.25345 -0.10057,0.70767 c -0.0784,-0.15569 -0.14404,-0.25071 -0.14404,-0.25071 0.0685,-0.16196 0.20155,-0.4011 0.24461,-0.45696 z"
     id="path3339-4-6-7-0-42-39-8"
     style="fill:#000000;fill-rule:evenodd;stroke:none" />
  <path
     d="m 233.4251,189.66831 c -0.0592,0.14698 -0.1014,0.29337 -0.12102,0.41811 -0.01,0.0624 -0.0153,0.1184 -0.0114,0.17342 0.004,0.055 0.0197,0.11671 0.0544,0.14814 0.0348,0.0314 0.0765,0.0217 0.11076,0.001 0.0343,-0.0204 0.0668,-0.052 0.0991,-0.0941 0.0645,-0.0842 0.13118,-0.20841 0.19035,-0.35539 0.0592,-0.14699 0.10001,-0.28992 0.11963,-0.41467 0.01,-0.0624 0.0133,-0.12024 0.009,-0.17525 -0.004,-0.055 -0.0176,-0.11487 -0.0524,-0.14631 -0.0347,-0.0314 -0.0785,-0.0235 -0.11279,-0.003 -0.0343,0.0204 -0.0648,0.0539 -0.097,0.0959 -0.0645,0.0842 -0.1298,0.20496 -0.18896,0.35195 z m 0.10604,0.0959 c 0.052,-0.12913 0.11052,-0.23358 0.15782,-0.29532 0.0237,-0.0309 0.0447,-0.0503 0.0564,-0.0573 0.0118,-0.007 0.01,-4.4e-4 0.005,-0.005 -0.005,-0.005 -0.004,-0.012 -0.003,0.007 0.001,0.0189 -3.1e-4,0.0558 -0.008,0.10156 -0.0144,0.0915 -0.0487,0.21783 -0.10073,0.34697 -0.052,0.12913 -0.11191,0.23703 -0.15921,0.29877 -0.0236,0.0309 -0.0447,0.0503 -0.0564,0.0573 -0.0118,0.007 -0.008,0.002 -0.003,0.007 0.005,0.005 0.002,0.0101 7.6e-4,-0.009 -0.001,-0.0189 3e-4,-0.0558 0.007,-0.10156 0.0144,-0.0915 0.0501,-0.22128 0.10212,-0.35042 z"
     id="path3341-7-7-2-4-7-9-8"
     style="fill:#28170b;fill-opacity:1;fill-rule:nonzero;stroke:none;stroke-width:0.25;marker:none;visibility:visible;display:inline;overflow:visible;enable-background:accumulate" />
  <path
     d="m 229.30825,194.66929 c 0.40987,-0.44803 1.25995,-0.88224 1.93578,0.28788 -0.25614,-0.79554 -1.00492,-1.5369 -1.93578,-0.28788 z"
     id="path4973-3-69-9-555-2-6"
     style="fill:#22280b;stroke:none" />
  <path
     d="m 229.51028,194.27168 c 0.34201,-0.37385 1.05134,-0.73618 1.61528,0.24021 -0.21374,-0.66382 -0.83854,-1.28243 -1.61528,-0.24021 z"
     id="path4973-7-4-2-4-28-0-5"
     style="fill:#22280b;stroke:none" />
  <path
     d="m 229.88928,193.6954 c 0.19497,-0.21312 0.59936,-0.41968 0.92085,0.13695 -0.12185,-0.37844 -0.47804,-0.7311 -0.92085,-0.13695 z"
     id="path4973-7-9-4-74-6-34-9-3"
     style="fill:#22280b;stroke:none" />
</svg>
