<?xml version="1.0" encoding="UTF-8" standalone="no"?>
<!-- Created with Inkscape (http://www.inkscape.org/) -->

<svg
   xmlns:dc="http://purl.org/dc/elements/1.1/"
   xmlns:cc="http://creativecommons.org/ns#"
   xmlns:rdf="http://www.w3.org/1999/02/22-rdf-syntax-ns#"
   xmlns:svg="http://www.w3.org/2000/svg"
   xmlns="http://www.w3.org/2000/svg"
   version="1.1"
   width="560"
   height="560"
   id="tatoo_aum_right">
  <g
     transform="translate(6.7547001e-7,-1.0000047)"
     id="g40498"
     style="display:inline;enable-background:new">
    <g
       transform="matrix(0.95787213,0.28719502,-0.28719502,0.95787213,64.586393,-52.373049)"
       id="g40195">
      <path
         d="m 231.96875,179 c -0.67709,0.66994 -1.37756,1.38533 -2.0625,2.1875 -0.21242,0.77762 -0.35358,1.41361 -0.125,1.34375 1.29175,-0.41255 3.04006,-1.71206 3.65625,-0.78125 0.27177,0.41053 -0.61913,3.1546 -2.65625,2.6875 -0.27275,-0.14692 -0.54693,-0.29143 -0.90625,0.1875 0,0 -0.72019,0.71661 -1.03125,1.65625 -0.37623,1.13668 -0.58543,2.70209 0.0625,2.21875 0.8328,-0.62124 3.24538,-0.8648 1.375,2.21875 -1.44076,2.38232 -6.47675,3.02931 -3.9375,-2.5 0.47219,-0.96431 0.79277,-2.06189 1.03125,-3.25 -1.73734,3.44752 -2.43149,7.37419 -2.625,11.34375 2.43482,1.28951 5.39844,-2.34022 6.1875,-3.5625 1.28534,-1.99103 2.78489,-5.07602 0.75,-6.0625 1.85819,-1.32173 3.87092,-3.94043 2.46875,-6.65625 -0.52641,-0.66565 -1.38336,-0.78218 -2.1875,-1.03125 z"
         transform="matrix(0.95787213,-0.28719502,0.28719502,0.95787213,-46.824227,68.715575)"
         id="path4117-98"
         style="fill:#454837;fill-opacity:1;fill-rule:nonzero;stroke:none" />
      <path
         d="m 232.71456,186.81129 c -0.48466,0.58736 -0.47681,1.72164 -0.61261,2.39552 -0.20586,1.02158 -0.76445,1.54733 -0.76445,1.54733 -1.37959,1.28919 -1.74287,-2.00734 -1.5536,-2.85486 0.18927,-0.84752 0.6654,-1.62837 0.2319,-2.51069 0.0358,-0.0901 0.13658,-0.50846 0.14104,-0.56194 0.25038,0.38228 0.54253,0.68187 0.6874,1.30581 1.7844,-4.01956 4.61988,-4.76432 6.84676,-3.08728 4.72683,3.55855 -1.14276,11.75877 -5.82034,9.01097 0.6593,0.22172 1.2553,0.24219 1.83941,0.22488 -0.80944,-0.35035 -3.00812,-1.36048 -2.24065,-1.67821 1.71704,-0.71087 4.36858,-0.70148 5.09617,-2.44785 0.72759,-1.74636 -1.07651,-4.70607 -3.85103,-1.34368 z"
         id="path5106-7"
         style="fill:#454837;fill-opacity:1;fill-rule:nonzero;stroke:none" />
      <path
         d="m 231.08665,173.07701 c 0.0927,1.22092 1.78307,6.91706 5.61186,4.30209 0.50969,-0.43101 1.06342,-0.43398 1.66544,0.0325 0.333,0.3039 1.08839,0.77521 0.54521,1.4545 -3.25005,4.0644 -9.09399,1.48342 -7.82251,-5.7891 z"
         id="path6077-28"
         style="fill:#454837;fill-opacity:1;fill-rule:nonzero;stroke:none" />
      <path
         d="m 234.10597,170.86651 c 0.55067,0.59461 0.2037,1.40992 0.0548,2.3697 -0.50497,3.25515 1.50831,3.22322 2.11277,1.63321 0.54697,-1.18053 0.0752,-2.55835 -1.69314,-4.07583 0.0728,0.17811 0.2033,0.37513 0.18064,0.522 -0.22086,-0.31843 -0.43813,-0.39428 -0.65508,-0.44908 z"
         id="path7048-65"
         style="fill:#454837;fill-opacity:1;fill-rule:nonzero;stroke:none" />
    </g>
  </g>
</svg>
