<?xml version="1.0" encoding="UTF-8" standalone="no"?>
<!-- Created with Inkscape (http://www.inkscape.org/) -->

<svg
   xmlns:dc="http://purl.org/dc/elements/1.1/"
   xmlns:cc="http://creativecommons.org/ns#"
   xmlns:rdf="http://www.w3.org/1999/02/22-rdf-syntax-ns#"
   xmlns:svg="http://www.w3.org/2000/svg"
   xmlns="http://www.w3.org/2000/svg"
   version="1.1"
   width="560"
   height="560"
   id="tatoo_aum_chest">
  <g
     transform="matrix(0.10627802,0,0,0.10627802,265.09975,183.64413)"
     id="g2993"
     style="fill:#454837;display:inline;enable-background:new">
    <path
       d="m 0.66402116,117.86376 c 28.88977984,20.91345 55.09959584,42.47207 60.42592584,69.0582 14.055417,56.9377 77.360593,0.29623 76.030423,-27.88889 -1.64607,-36.53987 -32.38088,-9.92539 -38.26422,2.24107 -4.577307,9.46565 -15.708502,-1.11953 -20.584656,-11.28836 -4.030988,-8.4063 -0.581018,-19.83763 -0.581018,-19.83763 0.68236,-6.40053 5.61358,-8.55221 10.624339,-10.62434 C 120.19193,100.60779 108.58051,76.071577 101.26323,76.694444 84.672002,78.106733 72.07756,103.66046 58.101852,119.52381 52.093066,126.22752 41.891233,90.478605 27.556878,87.650794 52.548141,85.170408 73.337863,63.032888 95.619048,59.761905 c 43.014472,0.04888 38.595012,35.623315 24.900792,62.417985 36.41813,-16.05766 43.15678,16.75755 43.16138,41.16932 0.003,15.98523 -9.27221,72.68712 -62.08598,87.65079 l -17.264552,0 c -29.321086,-6.66029 -39.83667,-34.47438 -42.165344,-54.78175 -2.326595,-20.28924 -7.905737,-25.5056 -16.268519,-36.52116 3.078701,0.0724 9.873784,10.07296 16.268519,21.9127 C 34.292208,158.31747 15.580119,138.74135 0.66402116,117.86376 z"
       id="path4117"
       style="fill:#454837;fill-opacity:1;fill-rule:nonzero;stroke:none" />
    <path
       d="m 196.71627,142.93056 c -2.3604,7.59098 2.84337,16.90964 4.48214,23.24074 2.48431,9.59772 -0.91893,17.09854 -0.91893,17.09854 -8.44724,18.44859 -27.09215,-6.70747 -28.96202,-14.77447 -1.86987,-8.067 -0.47158,-17.20701 -8.93998,-22.0372 -0.0369,-0.94652 -0.88359,-4.96998 -1.07903,-5.43667 4.31614,1.73875 8.69097,2.55856 13.00711,6.88921 0.30355,-43.27758 26.26794,-65.470524 56.87474,-64.22844 64.96112,2.626722 41.28409,103.53121 -19.50628,107.3182 7.82061,-1.90056 14.07749,-5.10422 20.04094,-8.55241 -9.95439,1.68837 -37.25758,5.79186 -30.75446,-1.17384 14.54933,-15.58426 42.01706,-30.5111 41.65587,-49.044 -0.36119,-18.5329 -32.38767,-32.755319 -45.9001,10.70034 z"
       id="path5106"
       style="fill:#454837;fill-opacity:1;fill-rule:nonzero;stroke:none" />
    <path
       d="m 117.853,38.770692 c 6.47285,9.553596 49.68079,47.008055 77.47309,3.75627 3.32536,-6.442109 9.03927,-9.599964 17.37275,-9.15591 4.81671,0.624216 14.75838,0.240134 12.20788,8.921144 C 209.64618,94.233651 137.54539,105.99784 117.853,38.770692 z"
       id="path6077"
       style="fill:#454837;fill-opacity:1;fill-rule:nonzero;stroke:none" />
    <path
       d="m 139.09941,3.4382678 c 8.38103,1.7922 8.47434,10.4856832 11.26881,19.2508882 9.4776,29.72766 30.1571,18.07142 29.22848,1.525985 0.32593,-12.84006 -10.77602,-21.5438857 -35.91934,-24.06361027 1.55716,1.05843917 3.79691,1.94623297 4.22581,3.28673707 -3.72245,-1.378755 -6.31222,-0.7753395 -8.80376,0 z"
       id="path7048"
       style="fill:#454837;fill-opacity:1;fill-rule:nonzero;stroke:none" />
  </g>
</svg>
