<?xml version="1.0" encoding="UTF-8" standalone="no"?>
<!-- Created with Inkscape (http://www.inkscape.org/) -->

<svg
   xmlns:dc="http://purl.org/dc/elements/1.1/"
   xmlns:cc="http://creativecommons.org/ns#"
   xmlns:rdf="http://www.w3.org/1999/02/22-rdf-syntax-ns#"
   xmlns:svg="http://www.w3.org/2000/svg"
   xmlns="http://www.w3.org/2000/svg"
   version="1.1"
   width="560"
   height="560"
   id="tatoo_aum_left">
  <g
     transform="translate(0,-1)"
     id="g40492"
     style="display:inline;enable-background:new">
    <path
       d="m 315.52291,188.45007 c 2.87706,2.2969 5.50558,4.64783 6.19744,7.41982 1.73184,5.94902 7.30853,0.39511 6.98274,-2.52325 -0.41496,-3.78306 -3.12875,-1.17806 -3.59801,0.0512 -0.36508,0.95643 -1.49155,-0.18968 -2.02431,-1.2633 -0.44007,-0.88771 -0.19576,-2.05236 -0.19576,-2.05236 0.019,-0.65809 0.46945,-0.85717 0.92799,-1.04765 2.87634,-1.80421 1.60542,-4.39401 0.91876,-4.36413 -1.55696,0.0677 -2.56498,2.64861 -3.77228,4.22177 -0.51989,0.66432 -1.7373,-3.07734 -3.11121,-3.43705 2.34273,-0.13852 4.14902,-2.32781 6.23017,-2.56078 4.06291,0.20772 3.89814,3.86245 2.79506,6.56636 3.32553,-1.48749 4.19501,1.93473 4.36881,4.45698 0.11381,1.65161 -0.35951,7.46635 -5.24131,8.76356 l -1.63058,-0.0813 c -2.81657,-0.8263 -4.00726,-3.7496 -4.37141,-5.85873 -0.36383,-2.10726 -0.9278,-2.6725 -1.79587,-3.85003 0.29128,0.022 1.00408,1.08727 1.69212,2.34068 -0.909,-2.44366 -2.81532,-4.55444 -4.37235,-6.78179 z"
       id="path4117-9"
       style="fill:#454837;fill-opacity:1;fill-rule:nonzero;stroke:none" />
    <path
       d="m 334.0625,186.96875 c -1.78279,0.0234 -2.85531,1.87423 -2.21875,5.5625 -0.39255,-0.49104 -0.71512,-0.63819 -1.0625,-0.875 0.0225,0.0488 0.13705,0.43785 0.15625,0.53125 0.70629,0.60378 0.78456,1.49255 1.0625,2.3125 0.27425,0.80912 2.04096,3.48041 2.375,1.9375 0.22049,0.35856 1.71761,0.3546 2.3125,0.34375 -0.37802,0.24666 -0.80233,0.46495 -1.34375,0.53125 0.62886,0.0803 1.17778,-0.034 1.625,-0.3125 -0.17111,-1.07005 -0.39276,-2.17247 -0.65625,-3.28125 -0.48882,0.90821 -1.38995,1.62355 -1.90625,2.46875 -0.0193,0.0316 -0.0248,0.0654 -0.0312,0.0937 0.0161,-0.11908 0.0962,-0.6805 -0.21875,-1.5625 -0.2307,-0.64616 -0.7911,-1.63543 -0.75,-2.34375 0.13548,-2.33287 1.05289,-2.70688 1.875,-2.25 -0.0105,-0.0317 -0.0207,-0.062 -0.0312,-0.0937 -0.36174,-1.08523 -0.7565,-2.11202 -1.1875,-3.0625 z"
       id="path5106-9"
       style="fill:#454837;fill-opacity:1;fill-rule:nonzero;stroke:none" />
    <path
       d="m 325.8125,180.9375 c 2.12724,5.60324 5.89255,6.64041 7.34375,4.21875 -0.50866,-0.92667 -1.04994,-1.78218 -1.625,-2.5625 -1.32121,3.63752 -5.0825,-0.62911 -5.71875,-1.65625 z"
       id="path6077-5"
       style="fill:#454837;fill-opacity:1;fill-rule:nonzero;stroke:none" />
    <path
       d="m 327.34375,178.46875 c 0.20723,0.39293 0.35507,0.88328 0.5625,1.40625 1.10507,2.78601 2.28247,2.33443 2.21875,1 -0.87088,-0.93821 -1.81307,-1.73327 -2.78125,-2.40625 z"
       id="path7048-6"
       style="fill:#454837;fill-opacity:1;fill-rule:nonzero;stroke:none" />
  </g>
</svg>
