<?xml version="1.0" encoding="UTF-8" standalone="no"?>
<!-- Created with Inkscape (http://www.inkscape.org/) -->

<svg
   xmlns:dc="http://purl.org/dc/elements/1.1/"
   xmlns:cc="http://creativecommons.org/ns#"
   xmlns:rdf="http://www.w3.org/1999/02/22-rdf-syntax-ns#"
   xmlns:svg="http://www.w3.org/2000/svg"
   xmlns="http://www.w3.org/2000/svg"
   version="1.1"
   width="560"
   height="560"
   id="tatoo_chaos_left">
  <path
     d="m 328.5,179.25 c 0.0312,0.4722 0.0719,0.95595 0.15625,1.4375 0.82749,0.41765 1.11015,1.2598 0.9375,1.625 -0.22853,0.48341 -1.04894,-0.39863 -1.40625,-2.125 -0.23044,2.10651 0.82169,4.52587 1.625,5.65625 -0.24549,-1.30998 0.49276,-1.67403 0.875,-1.0625 0.38225,0.61153 0.0565,1.58653 -0.4375,1.59375 0.54673,0.92228 0.36605,2.1496 -0.15625,2.78125 0.66226,0.79634 0.71496,1.24938 0.59375,1.40625 -0.27281,0.35307 -0.73351,-0.64452 -1.125,-1.9375 -0.60561,0.40509 -0.97959,-0.44119 -1.1875,-1 -0.20792,-0.55881 -0.33158,-1.0449 -0.90625,-1.8125 0.41756,1.24539 0.39793,2.28229 -0.3125,1.8125 -0.61729,-0.4082 -1.08232,-1.73261 -3,-2.3125 0.60394,2.02691 1.33816,2.92863 1.8125,3.4375 0.47434,0.50886 0.94301,0.77231 1.03125,1.09375 0.085,0.30972 -0.33932,0.74255 -0.90625,0.875 1.25758,-0.0649 2.32304,-0.0805 2.21875,1.3125 0.61781,-0.27295 1.25614,0.43277 1.59375,0.9375 0.37482,-0.79053 0.89338,-0.40123 0.9375,0.46875 0.0255,0.50328 -0.18981,0.82801 -0.5,0.75 -0.15596,-0.0392 -0.48382,-0.2276 -0.46875,-0.78125 -0.91522,0.3714 -1.64634,-0.0493 -2.46875,-0.90625 -0.68704,-0.71589 -2.05671,-1.35659 -3.03125,-1.21875 0.86711,0.61481 3.06419,2.47433 2.28125,2.96875 -0.67934,0.429 -1.07818,-0.59732 -1.03125,-1.28125 -2.17959,-0.10899 -4.63981,1.12692 -6.34375,3.53125 1.39296,-0.68811 5.94544,-1.7262 6.1875,-0.34375 0.12312,0.70317 -0.37815,1.03624 -0.9375,0.90625 0.97455,1.18933 2.11687,1.05523 2.8125,0.15625 -0.71141,-0.0499 -0.91239,-0.8309 -0.34375,-0.9375 0.71936,-0.13485 0.65624,0.63302 0.6875,0.96875 0.56443,-0.2339 1.07423,-0.94562 1.25,-0.71875 0.15556,0.20079 -0.0753,0.44995 -0.28125,0.53125 1.51223,0.15646 1.54326,-1.14833 1.90625,-0.71875 0.0961,0.11378 0.0163,0.33285 -0.25,0.96875 -0.2663,0.63591 -0.8119,1.12102 -0.5625,-0.0625 -1.09343,1.13828 -2.53938,3.95981 -2.28125,8.4375 0.65905,-2.01436 2.34934,-5.40078 2.59375,-5.15625 0.14173,0.14179 -0.21875,2.25 -0.21875,2.25 0.35651,-0.79271 0.56976,-1.38614 0.6875,-1.28125 0.141,0.12563 0.11085,1.1583 0.0937,1.375 0.54694,-0.73221 0.60724,-2.30948 0.78125,-2.25 0.12388,0.0423 0.14238,0.9571 0.0937,1.59375 0.35923,-0.50335 0.64998,-1.78641 0.34375,-2.6875 -0.25685,-0.7558 -0.22123,-1.19519 -0.0312,-1.59375 0.0767,0.43828 0.33072,1.82413 0.78125,2.78125 -0.12306,-0.70282 -0.15066,-0.9913 0.0625,-1.03125 0.21315,-0.0399 0.41752,1.20774 0.0312,3 -0.38445,1.78369 -0.54397,2.91325 0.25,5.40625 -0.0169,-1.51112 0.0906,-2.29598 0.21875,-2.6875 0.66081,1.02763 0.53982,3.43595 1.46875,4.3125 -0.0457,-0.41842 0.12687,-1.20198 0.375,0.84375 0.15554,-0.84043 0.2033,-1.07887 0.34375,-1.0625 0.14045,0.0164 0.34958,3.58675 0.34375,5.125 0.98065,-3.51435 1.50775,-6.32161 -0.3125,-11.53125 0.0196,1.73921 -0.2598,3.01529 -0.4375,2.84375 -0.21171,-0.20437 -4.8e-4,-1.4696 -0.375,-3.0625 -0.073,0.35956 -0.10867,0.89904 -0.25,0.8125 -0.17906,-0.10965 -0.13278,-1.89454 -0.0312,-2.59375 0.20567,-1.41617 -0.1112,-2.72917 0,-2.75 0.13811,-0.0259 0.46655,1.33341 1.21875,1.96875 -0.35548,-0.79207 -0.57485,-1.78417 -0.4375,-1.8125 0.21415,-0.0439 1.01155,2.60198 2.09375,3.125 -0.21315,-0.29342 -0.43681,-0.67478 -0.21875,-0.84375 0.0345,-0.0267 0.0936,0.0141 0.1875,0.0937 -0.0108,-0.15822 -0.0188,-0.30934 -0.0312,-0.46875 -7.9e-4,-0.0101 8e-4,-0.0211 0,-0.0312 -0.213,-0.11999 -0.40302,-0.11947 -0.5,0.125 -0.23048,-0.30147 -0.43444,-0.56595 -0.625,-0.9375 -0.30772,-0.41394 -0.62664,-1.38264 -1.03125,-1.46875 -0.14578,-0.031 -0.26776,0.26288 -0.1875,0.59375 -0.13889,-0.35265 -0.32683,-0.89399 -0.5625,-0.84375 -0.41686,0.0889 -0.11078,1.86697 -0.1875,3.15625 -0.0429,0.72104 -0.15623,2.9125 0.1875,3.28125 0.0789,0.0846 0.29512,-0.006 0.375,-0.0625 0.0241,0.80366 -0.005,2.12951 0.3125,2.3125 0.28765,0.16575 0.7817,-0.96786 0.8125,-1.65625 0.8151,3.10709 0.67797,4.98393 0.21875,7.25 -0.12675,-1.4182 -0.27013,-3.19261 -0.625,-3.71875 -0.14157,-0.0867 -0.24016,0.50118 -0.3125,0.65625 -0.0917,-0.65037 -0.43468,-1.06519 -0.625,-0.5 -0.22417,-0.49019 -0.3022,-1.07002 -0.40625,-1.65625 -0.16324,-0.91959 -0.679,-2.01187 -0.9375,-2.4375 -0.0436,0.16196 -0.32444,0.96916 -0.25,1.46875 -0.19863,-1.02897 0.0783,-1.91987 0.25,-3.15625 0.12529,-0.90191 0.225,-2.06324 0,-3.03125 -0.10607,-0.45584 -0.44145,-0.67388 -0.65625,-0.46875 -0.12645,-0.45526 -0.27184,-1.38857 -0.40625,-2.15625 -0.6469,0.18817 -0.69016,1.44604 -0.40625,2.28125 0.11625,0.34196 0.23043,0.56179 0.15625,0.875 -0.0951,-0.26793 -0.26081,-0.36679 -0.375,-0.21875 -0.2261,0.2931 -0.22338,0.84274 -0.46875,1.21875 -0.11482,-0.24756 -0.23621,-0.26805 -0.40625,-0.25 0.0391,-0.33397 -0.005,-0.83279 -0.21875,-0.9375 -0.61685,-0.30186 -1.93568,2.57194 -2.34375,3.53125 0.21898,-2.29702 0.72689,-4.17681 1.6875,-5.59375 0.1177,0.84178 0.71857,-0.15349 0.90625,-0.5 0.25441,-0.46972 0.37449,-1.18766 0.21875,-1.40625 -0.34207,-0.48009 -0.78127,0.85682 -1.46875,0.65625 0.13918,-0.5084 -0.0686,-0.92761 -0.34375,-0.8125 -0.30351,0.127 -0.66294,0.43997 -0.9375,0.65625 -0.19576,-0.69131 -0.57785,-0.91879 -1,-0.875 -0.65247,0.0677 -0.80486,1.05411 -0.46875,1.5 -0.27351,0.2591 -0.60036,0.17875 -0.90625,0 0.20121,-0.20913 0.33849,-0.90149 0.125,-1.4375 -0.57412,-1.44148 -4.27804,-0.51012 -5.25,-0.1875 1.59314,-1.50305 3.21803,-2.39126 5.03125,-2.3125 -0.10497,1.36786 1.02066,2.00942 1.46875,1.3125 0.61144,-0.95099 -0.85267,-2.2879 -1.65625,-2.96875 0.83936,0.0937 1.71602,0.82007 2.15625,1.1875 1.00563,0.83932 1.44718,0.99159 2.25,0.8125 0.0602,0.94795 1.24164,1.1155 1.3125,0.125 0.0634,-0.88609 -0.40584,-1.98386 -1.15625,-1.28125 -0.24216,-0.2957 -0.64041,-0.88705 -1.25,-0.96875 -0.31517,-0.90691 -0.79622,-1.20862 -1.375,-1.28125 0.13304,-0.79242 -0.63413,-1.35312 -1.09375,-1.84375 -0.38181,-0.40755 -0.99302,-1.04022 -1.375,-2.375 1.2904,0.32116 1.66038,1.28478 2.3125,1.8125 0.49793,0.40293 0.95692,0.24347 0.9375,-0.4375 0.39335,0.96623 0.65834,1.85221 1.46875,1.8125 0.21098,0.73814 0.99341,2.43217 1.5,1.78125 0.28173,-0.36199 -0.19511,-1.24685 -0.53125,-1.8125 0.47555,-0.68618 0.60138,-1.49186 0.34375,-2.625 0.51965,-0.54118 0.42747,-1.55554 0.0625,-2.1875 -0.3938,-0.68192 -1.18176,-0.44299 -1.28125,0.34375 -0.43492,-0.76188 -0.80319,-1.704 -1,-2.8125 0.20215,0.60597 0.80912,1.35028 1.1875,0.875 0.51449,-0.64627 -0.18818,-2.23046 -0.875,-2.40625 -0.0509,-0.31059 -0.0658,-0.59473 -0.0937,-0.875 -0.0934,-0.0856 -0.18683,-0.16721 -0.28125,-0.25 z m 1.65625,1.625 c 0.0339,0.10386 0.0589,0.20994 0.0937,0.3125 -0.27891,0.66958 0.11021,1.63361 0.65625,1.53125 0.19018,-0.0356 0.33109,-0.18776 0.40625,-0.40625 -0.0786,-0.10805 -0.17025,-0.20716 -0.25,-0.3125 -0.0286,0.17616 -0.11926,0.29385 -0.21875,0.3125 -0.26198,0.0491 -0.5431,-0.47755 -0.28125,-0.9375 -0.13783,-0.16782 -0.26533,-0.33966 -0.40625,-0.5 z m 2,2.71875 c 0.0224,0.15746 0.0457,0.31774 0.0625,0.46875 -0.1339,-0.42661 -0.61482,-0.29257 -0.71875,-0.0937 -0.23319,0.4461 0.17683,1.82622 0.65625,2.25 -0.22169,0.60222 -0.49087,2.32911 0.0312,2.875 0.28169,0.29449 0.59885,-0.25216 0.78125,-0.5 -0.12081,0.42878 -0.42585,1.2189 -0.5,1.5625 -0.58091,-0.0601 -0.59158,1.03754 -0.21875,1.4375 0.50113,0.5376 1.08127,-0.0326 0.78125,-0.8125 0.26643,-0.0807 0.5679,-0.46354 0.625,-1.1875 0.0306,-0.38734 0.16498,-1.11819 0.40625,-1.8125 0.0264,-0.0761 0.0632,-0.14559 0.0937,-0.21875 -0.0648,-0.15765 -0.12101,-0.31446 -0.1875,-0.46875 -0.39169,0.87098 -0.48852,1.86451 -0.53125,2.40625 -0.0684,0.8668 -0.4339,1.09503 -0.59375,1.125 0.30967,0.50688 -0.0822,1.08165 -0.46875,0.75 -0.28433,-0.2439 -0.2066,-1.1753 0.28125,-0.90625 0.13891,-1.2291 0.79408,-1.49731 0.71875,-3.65625 -0.19225,1.06354 -0.71016,2.13514 -1.09375,1.78125 -0.39377,-0.36329 -0.21237,-1.68416 0.125,-2.53125 -0.69058,-0.58652 -0.82432,-1.82006 -0.53125,-1.875 0.29307,-0.0549 0.32369,0.44239 0.46875,0.9375 0.0797,-0.23934 0.11325,-0.60602 0.0937,-1.0625 -0.0916,-0.15425 -0.18764,-0.31895 -0.28125,-0.46875 z m 2.71875,5.875 c -0.2489,0.41974 -0.39981,0.85633 -0.34375,1.21875 0.0645,0.41708 0.35604,0.36039 0.59375,0.21875 -0.20748,0.35427 -0.65381,1.02299 -1.03125,1.09375 -0.51674,0.0969 -0.54675,0.82673 -0.1875,1.4375 0.33271,0.56565 0.99172,0.0155 0.9375,-0.59375 0.0174,-0.0146 0.0734,-0.0464 0.0937,-0.0625 0.30145,0.46688 0.68103,0.69566 1.09375,0.8125 -0.0313,-0.13499 -0.061,-0.27072 -0.0937,-0.40625 -0.71173,-0.23799 -1.03125,-0.90625 -1.03125,-0.90625 -0.11762,0.0949 -0.375,0.25 -0.375,0.25 0.1771,0.54949 -0.25737,0.94842 -0.46875,0.625 -0.29891,-0.45734 -0.075,-0.85651 0.3125,-0.84375 0.24042,-0.13502 0.67056,-0.65109 1,-1.25 -0.052,-0.17568 -0.10157,-0.3548 -0.15625,-0.53125 -0.15465,0.11484 -0.28403,0.12657 -0.34375,0.0625 -0.0662,-0.071 0.0122,-0.30767 0.15625,-0.625 -0.0339,-0.10444 -0.0589,-0.20781 -0.0937,-0.3125 -0.0209,-0.0626 -0.0414,-0.12538 -0.0625,-0.1875 z m 1.5,5.625 c -0.10414,0.0838 -0.19447,0.19449 -0.28125,0.3125 -0.45897,-0.22024 -1.58012,-0.52198 -1.625,0.40625 0.22907,0.14995 0.64567,0.4318 1,0.625 -0.23923,0.0571 -0.29597,0.37298 -0.125,0.59375 0.42906,0.55405 1.01685,0.82075 1.53125,1.1875 -0.0209,-0.16781 -0.0396,-0.33107 -0.0625,-0.5 -0.63087,-0.42723 -1.18778,-0.66927 -1.15625,-0.84375 0.0559,-0.30937 0.79408,0.12057 1.03125,0.375 -0.52032,-0.8112 -1.29173,-1.29166 -1.71875,-1.59375 0.0378,-0.34609 0.86071,0.0127 1.1875,0.3125 0.0905,-0.18122 0.19508,-0.29464 0.3125,-0.40625 -0.0291,-0.15749 -0.0627,-0.31043 -0.0937,-0.46875 z"
     id="path3319-4-8-1"
     style="fill:#22280b;fill-rule:evenodd;stroke:none" />
  <path
     d="m 332.50278,193.71794 c -0.40432,0.0754 -0.75809,0.39514 -1.09416,0.81841 -0.71121,0.89577 -1.24106,0.61894 -2.02063,0.25269 0.35098,0.2758 0.83691,0.60919 1.61795,0.59087 0.43553,0.60154 1.04426,1.26014 1.8169,1.1153 0.77264,-0.14483 1.0856,-0.7186 1.12994,-1.87979 0.15493,0.0991 0.81409,-0.0658 1.02984,-0.40513 0,0 -0.53331,0.53161 -1.43194,-0.16146 -0.38972,-0.30056 -0.73344,-0.38962 -1.0479,-0.33089 z m -0.0536,0.41127 c 0.70615,-0.13237 0.83234,0.97705 0.50755,1.40088 0.23993,-0.27983 0.38909,-0.60691 0.34827,-1.15435 0.0969,0.003 0.21317,0.0434 0.30034,0.0698 0.02,0.97834 -0.33422,1.4727 -0.8804,1.57508 -0.54617,0.10239 -0.9887,-0.30809 -1.40121,-0.93529 0.10224,-0.0659 0.23987,-0.21724 0.36434,-0.36636 0.0857,0.41093 0.36228,0.7446 0.67822,0.89887 -0.39094,-0.26831 -0.66608,-1.34823 0.0829,-1.48863 z"
     id="path3321-6-2-7"
     style="fill:#22280b;fill-opacity:1;fill-rule:evenodd;stroke:none" />
  <path
     d="m 329.15625,179.84375 c 0.01,0.0729 0.0197,0.14616 0.0312,0.21875 0.32518,0.30135 0.41644,0.55348 0.75,1.125 -0.0634,-0.11167 -0.16928,-0.44443 -0.28125,-0.84375 -0.0254,-0.0267 -0.0683,-0.036 -0.0937,-0.0625 -0.0132,-0.0238 -0.0161,-0.0391 -0.0312,-0.0625 -0.0204,-0.0211 -0.042,-0.0416 -0.0625,-0.0625 -0.10316,-0.10538 -0.20792,-0.2108 -0.3125,-0.3125 z"
     id="path3323-5-5-8"
     style="fill:#28170b;fill-rule:evenodd;stroke:none" />
  <path
     d="m 331.60551,182.09569 c -0.25599,1.13367 -0.95595,1.25889 -1.48787,0.34196 -0.24774,0.95526 -0.632,1.17037 -1.13103,0.54447 0.0837,0.25604 0.31492,0.74109 0.49286,0.97947 0.56862,-0.78334 1.38025,-0.0949 1.71744,0.58942 -0.094,-0.86056 0.3023,-1.33477 0.66595,-1.25975 -0.0197,-0.24302 -0.13542,-0.94366 -0.25735,-1.19557 z m -1.42055,0.81082 c 0.26348,0.3229 0.56045,0.48102 0.8349,0.42241 0.22639,-0.0483 0.42059,-0.24086 0.57089,-0.53691 0.0184,0.0988 0.0224,0.15595 0.0346,0.23998 -0.2838,0.0787 -0.5282,0.37622 -0.60947,0.86512 -0.16321,-0.1969 -0.34543,-0.37082 -0.55236,-0.47537 -0.15773,-0.0797 -0.32761,-0.10213 -0.49506,-0.0849 0.0821,-0.11267 0.15399,-0.25889 0.21646,-0.43035 z"
     id="path3325-1-4-7"
     style="fill:#28170b;fill-rule:evenodd;stroke:none" />
  <path
     d="m 333.94875,204.4234 c 0.0152,0.25378 0.11046,1.01075 -0.1535,1.39236 0.32137,1.09944 0.25382,1.67538 0.53315,2.32068 0.18865,-0.16777 0.42431,-0.20802 0.54473,0.13172 0.28937,-0.93182 0.72735,-0.37878 1.11081,1.85927 0.11981,-0.99381 -0.0722,-3.2343 -0.30791,-4.24687 -0.57648,1.70828 -1.45905,1.05895 -1.23603,-0.99326 -0.19351,0.006 -0.31679,-0.13429 -0.49125,-0.4639 z m 0.21444,0.75556 c 0.0215,0.006 0.0904,-0.002 0.10275,0.004 -0.0807,1.63603 0.3902,2.40303 1.33671,1.55554 0.0656,0.43497 0.20601,1.04484 0.15286,1.42151 -0.24881,-0.56244 -0.68679,-0.84475 -0.96763,-0.36439 -0.1042,-0.13327 -0.31676,-0.20712 -0.45217,-0.26698 -0.0936,-0.52711 -0.17823,-1.14999 -0.31944,-1.73125 0.10808,-0.24258 0.11441,-0.51837 0.14692,-0.61849 z"
     id="path3327-2-7-9"
     style="fill:#28170b;fill-rule:evenodd;stroke:none" />
  <path
     d="m 329.57736,198.57096 c -0.63088,0.92614 -1.09791,2.50855 -1.36946,3.78182 0.53038,-1.19369 1.07654,-1.95561 1.45466,-2.37111 -0.34888,-0.17442 -0.47264,-0.67953 -0.0852,-1.41071 z m -0.0724,1.43013 c -0.15114,0.11022 -0.66292,0.77473 -0.87143,1.16788 0.11394,-0.61361 0.44032,-1.43061 0.60672,-1.75977 -0.0199,0.22207 0.0593,0.51873 0.26471,0.59189 z"
     id="path3329-0-0-6"
     style="fill:#22280b;fill-rule:evenodd;stroke:none" />
  <path
     d="m 332.69524,194.58472 a 0.27282523,0.17617279 80.559141 1 1 -0.34636,0.0649 0.27282523,0.17617279 80.559141 1 1 0.34636,-0.0649 z"
     id="path3331-9-4-9"
     style="fill:#28170b;fill-opacity:1;fill-rule:nonzero;stroke:none;stroke-width:1;marker:none;visibility:visible;display:inline;overflow:visible;enable-background:accumulate" />
  <path
     d="m 331.375,185.4375 c -0.0123,0.32255 -0.0989,0.80991 -0.34375,1.21875 0.29363,0.96973 0.11013,1.79046 -0.25,2.5625 0.69253,1.36768 0.55539,2.18885 0.0625,2.28125 -0.4929,0.0924 -1.09646,-0.75646 -1.4375,-1.9375 -0.52315,0.0767 -0.94126,-0.43437 -1.3125,-1.21875 -1.31781,0.56727 -1.72361,-1.47105 -2.875,-1.78125 0.26308,1.23561 2.28814,2.41709 2.25,3.5 0.7082,0.27288 1.11278,0.44808 1.3125,1.3125 0.22604,-0.0314 0.63706,0.19857 1.0625,0.71875 0.8631,-0.49253 1.45381,0.74339 1.28125,1.8125 -0.16306,1.01031 -1.05079,1.26276 -1.5,0.21875 -1.31235,0.2611 -2.18492,-0.95551 -3.125,-1.53125 1.46198,1.19905 0.78236,2.60138 0.15625,2.71875 -0.6261,0.11737 -1.23679,-0.43607 -1.5,-1.625 -1.24951,0.23423 -2.18104,0.54868 -3.25,1.21875 0.61278,-0.11487 2.14984,-0.39715 3.25,0.0937 1.03054,0.45981 0.92249,1.66972 0.71875,2.15625 0.15131,0.0784 0.288,0.0433 0.34375,-0.0312 -0.12321,-0.46794 -0.11657,-1.47231 0.53125,-1.59375 0.64782,-0.12144 0.90755,-0.0637 1.28125,0.65625 1.05168,-0.98707 1.37218,-0.56668 1.46875,-0.0937 0.33117,-0.34695 0.7015,-0.3428 0.78125,-0.1875 0.50986,-0.32768 0.70352,0.0869 0.71875,0.375 0.0285,0.53964 -0.13133,1.35441 -0.78125,2.0625 0.53404,0.0696 0.68531,0.7047 0.25,1.3125 0.11818,0.1455 0.13354,0.50304 0.0625,0.90625 0.11034,-0.23418 0.26858,-0.12115 0.375,0.0937 0.0378,-0.41273 0.26893,-0.99379 0.46875,-1.03125 -0.41321,-1.417 -0.17117,-2.71011 0.375,-2.8125 0.33988,-0.0637 0.40609,0.27683 0.71875,2.0625 0.87921,-0.16482 0.9185,1.90087 0.84375,3.28125 0.24024,-0.74956 0.33121,-0.0587 0.5,1.0625 -0.0201,-0.74346 0.014,-3.78322 -0.0312,-4.90625 -0.0453,-1.12303 0.44621,-0.92142 0.78125,-0.34375 0.45454,-0.70434 1.16281,0.84513 1.84375,2.0625 0.12734,-0.0703 0.3496,-0.14222 0.65625,0 -0.0123,-0.14367 -0.0176,-0.2929 -0.0312,-0.4375 -9e-5,-0.001 -0.0312,0.001 -0.0312,0 -0.18582,0.007 -0.37668,0.003 -0.53125,0.0625 -0.47692,-0.83107 -1.3769,-2.48535 -1.84375,-2.09375 -0.65951,-0.8521 -1.09148,-0.30922 -1.0625,0.5625 0.0366,1.10135 0.078,2.21184 0.125,3.3125 -0.0499,-0.11949 -0.11009,-0.19534 -0.1875,-0.21875 0.0185,-1.00587 -0.17582,-2.57379 -0.875,-2.75 -0.10494,-0.82755 -0.26384,-1.99236 -0.90625,-1.875 -0.86531,0.15808 -0.71923,2.03332 -0.59375,2.75 -0.057,0.12754 -0.20752,0.40101 -0.25,0.5625 -0.046,-0.0738 -0.0758,0.0779 -0.125,0.0625 -0.012,-0.0939 -0.0482,-0.29732 -0.0625,-0.34375 0.26227,-0.46108 0.226,-1.06062 -0.15625,-1.4375 0.3247,-0.49217 0.7526,-1.41846 0.65625,-1.96875 -0.1219,-0.69623 -0.57547,-0.61245 -0.90625,-0.46875 -0.071,-0.15644 -0.54704,-0.21319 -0.75,0 -0.18993,-0.53508 -1.1065,-0.34821 -1.5,-0.0312 -0.12274,-0.28527 -0.512,-0.54711 -0.8125,-0.5 0.29097,-0.16651 0.42481,-1.12226 0.21875,-1.53125 0.42625,0.45509 1.42055,0.95152 2.28125,0.84375 0.21041,0.2761 0.57984,0.49305 0.90625,0.40625 0.34947,-0.0929 0.61869,-0.43922 0.71875,-0.9375 0.10627,-0.52916 -0.0203,-1.17726 -0.3125,-1.625 -0.27765,-0.42535 -0.69425,-0.67647 -1.15625,-0.53125 -0.39508,-0.43001 -0.75038,-0.66209 -1.03125,-0.6875 -0.11451,-0.37693 -0.25622,-0.66633 -0.46875,-0.84375 -0.24147,-0.20157 -0.61996,-0.21849 -0.78125,-0.40625 0.0782,-0.29955 -0.32629,-0.82814 -0.5625,-1.0625 -0.22626,-0.22448 -1.44011,-1.57238 -1.625,-2.125 0.81442,0.35725 1.44877,2.15391 2.65625,1.875 0.17304,0.34655 0.38148,0.62619 0.59375,0.84375 0.20597,0.21111 0.40785,0.33807 0.65625,0.34375 0.17405,0.5553 0.40287,1.05681 0.65625,1.40625 0.27663,0.3815 0.60026,0.61986 0.90625,0.5625 0.29561,-0.0554 0.51315,-0.36861 0.53125,-0.84375 0.0167,-0.43921 -0.17197,-1.02276 -0.53125,-1.65625 0.35486,-0.73564 0.56473,-1.58092 0.3125,-2.53125 0.11047,-0.20777 0.19806,-0.44537 0.25,-0.65625 0.0901,0.23514 0.16133,0.45311 0.25,0.625 -0.14613,0.77877 -0.16055,1.50473 -0.0625,2.0625 0.0663,0.37738 0.37124,0.85876 0.65625,0.8125 -0.008,0.053 -0.0238,0.14828 -0.0312,0.21875 -0.93428,0.23837 -0.57441,1.92325 0.0625,2.375 0.64154,0.45506 1.11656,-0.17023 1.1875,-1.0625 0.51419,-0.32933 0.50617,-1.07327 0.59375,-1.8125 0.14993,0.17306 0.28846,0.16765 0.4375,0.0937 -0.24889,0.55061 -0.6016,1.15974 -0.3125,1.875 -0.13396,0.40255 -1.12528,0.22687 -0.875,1.65625 0.21933,1.25265 1.1661,1.76012 1.625,0.78125 0.0465,-0.004 0.0629,-0.0292 0.0937,-0.0312 0.4402,0.44789 0.79166,0.62292 1.15625,0.65625 -0.0198,-0.0926 -0.042,-0.18838 -0.0625,-0.28125 -0.32692,-0.0714 -0.59547,-0.26156 -1.03125,-0.71875 0,0 -0.15214,-0.0125 -0.21875,0 -0.24039,0.98444 -1.23699,0.70766 -1.4375,-0.4375 -0.22585,-1.28987 0.81338,-0.9688 1.125,-1.625 -0.5509,-0.37737 -0.31121,-0.86693 0.1875,-2 -0.0353,-0.10153 -0.0578,-0.2122 -0.0937,-0.3125 -0.26915,0.4183 -0.55061,0.35331 -0.65625,-0.25 -0.0704,0.22669 -0.12962,0.69053 -0.125,1.03125 0.005,0.34073 -0.12883,0.94531 -0.5625,1.21875 0.004,0.81046 -0.42748,1.36237 -1,1 -0.57251,-0.36236 -0.89727,-2.0131 0,-2 0.0255,-0.0902 0.0606,-0.36712 0.125,-0.5625 -0.76028,0.23051 -0.94803,-1.11737 -0.625,-2.71875 -0.16448,-0.31076 -0.31412,-0.64995 -0.46875,-1.21875 z m -6.28125,8.625 c 0.0231,0.19953 0.15606,0.56077 0.28125,0.71875 -0.46822,-0.29664 -1.02439,-0.33319 -1.65625,-0.375 0.43779,-0.168 1.13678,-0.29601 1.375,-0.34375 z M 336.25,194.5 c -0.12304,0.12693 -0.23598,0.24428 -0.3125,0.375 -0.71252,-0.38524 -1.72207,-0.6445 -1.9375,1.3125 0.28532,0.0825 0.70602,0.27859 0.9375,0.46875 -0.0704,1.02142 1.19381,1.62028 1.875,2.125 -0.005,0.12753 0.0923,0.49121 0.1875,0.75 -0.0308,-0.32127 -0.0557,-0.64304 -0.0937,-0.96875 -0.2107,-0.13372 -0.51462,-0.34252 -1.0625,-0.6875 -0.75771,-0.4771 -0.88599,-1.089 -0.71875,-1.3125 -0.21052,-0.25942 -0.70116,-0.52727 -0.96875,-0.5625 0.23708,-1.47486 1.15348,-1.11414 1.875,-0.84375 0.0559,-0.10212 0.1261,-0.2729 0.28125,-0.40625 -0.0168,-0.0824 -0.0452,-0.16735 -0.0625,-0.25 z m -10.46875,0.75 c 0.17944,0.15959 0.36154,0.21974 0.5625,0.25 -0.10807,0.11435 -0.16541,0.27473 -0.21875,0.4375 -0.0563,-0.2513 -0.16777,-0.47625 -0.34375,-0.6875 z"
     id="path3333-86-5-0"
     style="fill:#22280b;fill-opacity:1;fill-rule:evenodd;stroke:none" />
  <path
     d="m 329.8594,198.80746 c -0.11165,0.10181 -0.20145,0.22477 -0.25477,0.34977 -0.0267,0.0625 -0.0428,0.12656 -0.0493,0.19334 -0.007,0.0668 -0.001,0.14339 0.029,0.20843 0.0302,0.065 0.0779,0.10305 0.1241,0.12176 0.0462,0.0187 0.0925,0.0197 0.14403,0.0109 0.10311,-0.0177 0.21969,-0.0829 0.33134,-0.18467 0.11165,-0.10181 0.19881,-0.22236 0.25213,-0.34736 0.0267,-0.0625 0.0448,-0.12222 0.0513,-0.189 0.007,-0.0668 10e-4,-0.14339 -0.029,-0.20843 -0.0302,-0.065 -0.0779,-0.10305 -0.1241,-0.12176 -0.0462,-0.0187 -0.0945,-0.024 -0.14604,-0.0152 -0.10311,0.0177 -0.21706,0.0805 -0.3287,0.18226 z m 0.0826,0.17813 c 0.0995,-0.0907 0.20102,-0.1432 0.28041,-0.15678 0.0397,-0.007 0.0746,-0.004 0.0962,0.005 0.0217,0.009 0.0279,0.0197 0.0313,0.0271 0.003,0.007 0.008,0.0198 0.005,0.0511 -0.003,0.0313 -0.0173,0.0729 -0.0378,0.12101 -0.0411,0.0962 -0.11446,0.20946 -0.21392,0.30015 -0.0995,0.0907 -0.20568,0.14126 -0.28507,0.15485 -0.0397,0.007 -0.0726,0.008 -0.0942,-6.5e-4 -0.0217,-0.009 -0.0279,-0.0197 -0.0313,-0.0271 -0.003,-0.007 -0.008,-0.0198 -0.005,-0.0511 0.003,-0.0313 0.0152,-0.0772 0.0358,-0.12535 0.0411,-0.0963 0.11911,-0.20752 0.21857,-0.29822 z"
     id="path3335-5-7-9"
     style="fill:#22280b;fill-opacity:1;fill-rule:nonzero;stroke:none;stroke-width:0.25;marker:none;visibility:visible;display:inline;overflow:visible;enable-background:accumulate" />
  <path
     d="m 333.51022,202.36189 c 0,0 -0.17275,0.57724 -0.24832,0.92352 0.11261,0.64313 0.29949,1.75699 0.42604,2.0352 0.33221,-0.20134 0.017,-2.18002 -0.17772,-2.95872 z m -0.0258,0.6124 c 0.0789,0.47229 0.14901,0.97883 0.16125,1.51165 -0.10468,-0.38128 -0.17965,-0.77648 -0.2525,-1.16782 0.0308,-0.13286 0.0506,-0.19649 0.0913,-0.34383 z"
     id="path3337-7-2-6"
     style="fill:#28170b;fill-rule:evenodd;stroke:none" />
  <path
     d="m 333.15601,203.60677 0.0926,0.70879 c -0.11979,-0.12851 -0.2105,-0.20208 -0.2105,-0.20208 0.0238,-0.17462 0.0905,-0.44118 0.11794,-0.50671 z"
     id="path3339-4-6-5"
     style="fill:#000000;fill-rule:evenodd;stroke:none" />
  <path
     d="m 334.2308,188.17584 c -0.0186,0.15766 -0.0207,0.31013 -0.006,0.43558 0.007,0.0627 0.017,0.11818 0.0358,0.17007 0.0188,0.0519 0.0511,0.10701 0.094,0.12779 0.0429,0.0208 0.0815,0 0.1099,-0.029 0.0284,-0.029 0.052,-0.0683 0.0725,-0.11763 0.0409,-0.0986 0.0732,-0.23645 0.0918,-0.39411 0.0186,-0.15766 0.0202,-0.30642 0.006,-0.43188 -0.007,-0.0627 -0.0195,-0.1194 -0.0383,-0.17129 -0.0188,-0.0519 -0.0486,-0.10578 -0.0915,-0.12657 -0.0429,-0.0208 -0.084,-0.001 -0.11241,0.0278 -0.0284,0.029 -0.0495,0.0695 -0.0699,0.11885 -0.0409,0.0986 -0.0728,0.23275 -0.0914,0.39041 z m 0.13092,0.0634 c 0.0164,-0.13851 0.0459,-0.25505 0.076,-0.3274 0.015,-0.0362 0.0305,-0.0606 0.0403,-0.0706 0.01,-0.01 0.01,-0.003 0.003,-0.006 -0.006,-0.003 -0.007,-0.0104 -8.8e-4,0.007 0.006,0.0178 0.0148,0.0538 0.0202,0.0998 0.0106,0.092 0.0109,0.22303 -0.005,0.36155 -0.0164,0.13851 -0.0464,0.25875 -0.0764,0.3311 -0.015,0.0362 -0.0305,0.0606 -0.0403,0.0706 -0.01,0.01 -0.007,0.004 -8.8e-4,0.007 0.006,0.003 0.005,0.009 -0.002,-0.009 -0.006,-0.0178 -0.0148,-0.0538 -0.0201,-0.0998 -0.0106,-0.092 -0.0105,-0.22674 0.006,-0.36526 z"
     id="path3341-7-7-3"
     style="fill:#28170b;fill-opacity:1;fill-rule:nonzero;stroke:none;stroke-width:0.25;marker:none;visibility:visible;display:inline;overflow:visible;enable-background:accumulate" />
  <path
     d="m 331.51587,194.11417 c 0.28382,-0.54321 1.00682,-1.19324 1.99282,-0.25107 -0.46923,-0.69604 -1.41104,-1.20549 -1.99282,0.25107 z"
     id="path4973-3-6"
     style="fill:#22280b;stroke:none" />
  <path
     d="m 331.6078,193.67622 c 0.23683,-0.45327 0.84013,-0.99568 1.66287,-0.2095 -0.39154,-0.5808 -1.17741,-1.0059 -1.66287,0.2095 z"
     id="path4973-7-4-0"
     style="fill:#22280b;stroke:none" />
  <path
     d="m 331.8263,193.01796 c 0.13501,-0.2584 0.47894,-0.56762 0.94798,-0.11943 -0.22322,-0.3311 -0.67123,-0.57345 -0.94798,0.11943 z"
     id="path4973-7-9-4-7"
     style="fill:#22280b;stroke:none" />
</svg>
