<?xml version="1.0" encoding="UTF-8" standalone="no"?>
<!-- Created with Inkscape (http://www.inkscape.org/) -->

<svg
   xmlns:dc="http://purl.org/dc/elements/1.1/"
   xmlns:cc="http://creativecommons.org/ns#"
   xmlns:rdf="http://www.w3.org/1999/02/22-rdf-syntax-ns#"
   xmlns:svg="http://www.w3.org/2000/svg"
   xmlns="http://www.w3.org/2000/svg"
   version="1.1"
   width="560"
   height="560"
   id="tatoo_chaos_chest">
  <g
     transform="matrix(0.0579582,-7.6857729e-4,7.6857729e-4,0.0579582,230.52484,168.70826)"
     id="g5779-2-4-3-50-5"
     style="display:inline;enable-background:new">
    <path
       d="m 847.29315,214.72343 c -20.9296,29.89942 -39.96991,69.70421 -39.96991,113.05837 20.49172,10.02693 24.33245,25.86738 17.90569,31.69394 -8.50721,7.71269 -27.21378,-10.20655 -28.70873,-41.60094 -16.27888,36.12025 1.43596,81.70339 17.88065,104.12795 -0.43788,-23.73816 21.00242,-27.88727 28.47726,-15.9275 7.47487,11.95976 -6.01155,28.38657 -19.46631,26.8916 10.4648,17.93964 0.0793,38.48741 -17.11285,47.83098 14.20223,16.114 13.18202,24.63785 9.14333,26.98619 -9.09003,5.28552 -16.91888,-14.17957 -21.40378,-38.0991 -18.37752,5.10414 -24.8141,-10.55486 -27.80406,-21.01966 -2.98993,-10.4648 -4.11238,-19.84127 -16.07216,-35.16472 5.4193,23.17205 0.66335,41.45388 -16.40057,30.8984 -14.82676,-9.17161 -21.93725,-33.81969 -71.27132,-50.26437 6.76493,37.46496 22.67641,55.63283 33.14121,66.09763 10.4648,10.4648 21.57571,16.88867 22.44382,22.80521 0.83648,5.70106 -12.1219,11.57283 -28.15209,12.03111 34.46999,2.98994 63.07758,6.56137 53.61928,30.60425 18.0806,-2.75088 32.46059,11.63954 39.23076,21.58339 13.94179,-12.60909 26.25012,-4.16115 23.3108,11.21353 -1.70039,8.8941 -9.00678,13.53744 -17.06193,11.1539 -4.04989,-1.19839 -12.00072,-5.19903 -8.9581,-14.84179 -26.6276,3.49838 -44.54964,-6.18077 -62.81397,-23.88135 -15.25789,-14.78694 -49.83375,-30.62194 -76.96216,-31.40699 20.63015,13.60836 71.52065,53.19904 47.90086,59.28509 -20.49429,5.28074 -26.23936,-13.85176 -21.71165,-25.67058 -58.68859,-9.06052 -131.42211,4.6416 -189.1443,41.14014 41.11172,-7.47484 169.67799,-10.74701 169.67799,14.24853 0,12.71371 -15.32587,16.75423 -29.90186,12.64307 20.816,24.01846 52.28499,25.39544 75.45704,11.94068 -19.08745,-3.20886 -20.81674,-17.52594 -4.86306,-17.52594 20.18212,0 14.92829,13.48642 14.18078,19.46631 16.44469,-2.24246 34.16011,-13.47894 37.85571,-8.93043 3.27066,4.02546 -4.56878,7.74771 -10.54867,8.49518 40.33442,7.7016 47.07597,-15.13283 54.89287,-6.42146 2.07048,2.30742 -0.48235,6.15348 -10.74065,16.41175 -10.25827,10.25827 -27.35674,16.63285 -14.95276,-3.26739 -35.11623,16.33844 -87.97019,61.42595 -102.25533,140.6594 27.48338,-33.10053 89.71135,-87.26272 95.18764,-82.17994 3.17559,2.94742 -17.15845,38.83228 -17.15845,38.83228 13.45473,-12.70725 22.15862,-22.13701 24.85793,-19.91433 3.23264,2.66183 -2.84945,20.5114 -4.34444,24.24884 18.33995,-11.02315 27.84908,-38.24988 32.29314,-36.63754 3.16352,1.14775 -0.34032,16.80207 -4.68922,27.78765 12.15215,-7.63288 25.60325,-29.05295 21.5706,-45.83225 -3.38247,-14.07396 0.11784,-21.78634 7.17484,-28.13998 0,7.92449 0.18335,33.28178 7.8694,51.51548 0,-12.70726 0.74301,-17.96119 6.7229,-17.96119 5.97989,4e-5 5.30884,22.3707 -13.70923,52.47838 -18.92693,29.96345 -28.28402,49.43907 -18.57399,95.68684 6.72737,-26.50911 13.42053,-39.99701 18.76325,-46.43048 13.06283,20.15814 -2.2265,62.19311 18.83809,80.58632 0.74747,-7.47484 9.71282,-20.87312 6.7229,15.75366 8.22234,-14.2022 10.41076,-17.90592 14.14819,-17.15844 3.7374,0.74747 -7.47609,63.49847 -14.95093,90.40796 43.35415,-58.30389 71.02495,-105.41698 46.35791,-202.5901 -7.73906,30.51091 -21.47847,52.07097 -25.48967,48.4849 -4.779,-4.27241 7.11563,-26.09343 4.51824,-55.2078 -3.69213,6.05502 -7.37562,15.43742 -10.80304,13.45858 -4.34251,-2.50713 4.89986,-33.66084 10.98391,-45.56796 12.32252,-24.11648 10.24752,-47.86304 13.36527,-47.86304 3.8747,0 6.47027,24.53914 23.88135,38.12989 -5.88915,-15.03262 -7.57829,-32.86678 -3.71265,-32.91211 6.0261,-0.0661 15.63544,48.60158 42.54493,61.30884 -4.3942,-5.83607 -9.02531,-13.25973 -2.29794,-15.50219 6.72739,-2.24248 39.72097,43.16727 46.44833,53.63207 0,-11.95978 -0.74953,-25.40882 36.62476,8.22803 -10.4648,-22.42458 -29.17224,-48.61498 -3.0103,-41.14014 -34.75803,-23.54577 -55.29843,-42.21179 -52.68226,-47.07045 2.0664,-3.83759 11.57264,-0.72718 16.05755,1.51527 -18.37752,-28.7218 -62.10403,-42.55012 -59.1141,-47.78251 2.98992,-5.23241 20.26721,5.12264 25.49959,10.35502 -10.27564,-15.90833 -28.70478,-26.91482 -38.86776,-33.60458 2.67253,-5.93455 23.10768,3.12691 30.55921,9.44616 18.07568,-15.65962 45.47464,-10.08745 45.47464,-3.4455 0,5.06571 -12.70202,4.62574 -17.77039,3.43147 36.76082,25.58783 89.90092,13.50777 112.15242,-12.45231 -21.6771,11.21228 -41.4169,7.02483 -42.829,-5.92016 -13.292,1.12122 -20.6068,-0.0793 -20.6068,-6.72291 0,-6.37955 13.765,-7.12141 24.6035,-3.01025 16.4447,-20.9296 61.5771,-38.0892 163.9218,-4.50546 -79.981,-79.98097 -161.9503,-69.13745 -214.79508,-45.5651 21.48468,15.56894 13.51518,32.42161 -19.86768,32.42161 -36.02557,0 -46.70402,-23.11744 -46.70402,-23.11744 -3.64673,1.27606 -11.1932,3.3389 -11.1932,3.3389 2.19718,10.20054 -11.27203,15.33306 -15.47582,8.97762 -5.94444,-8.98703 2.00073,-15.08463 12.46556,-13.58968 11.75303,-2.58015 43.11192,-20.48422 50.17091,-37.93287 -15.69719,9.71732 -25.51977,12.18766 -28.15514,9.55229 -3.23621,-3.2362 11.63611,-18.79304 39.29308,-31.5003 27.65693,-12.70726 46.34329,-37.15453 51.57569,-52.10424 -16.4447,20.92961 -24.65933,19.49109 -28.39674,15.75367 -3.73747,-3.73742 20.24104,-42.68143 45.65554,-55.38868 -46.71788,6.72737 -65.10277,32.89302 -77.06252,44.85279 -11.95981,11.95978 -15.64883,15.82356 -19.04748,12.42491 -3.18233,-3.18231 10.47617,-15.02649 15.33483,-17.64269 -39.99049,10.09106 -55.32895,44.85401 -61.30884,59.80372 -5.97989,14.94972 -17.18892,17.96118 -21.67383,17.96118 6.00118,9.88977 -7.31384,18.33853 -16.23829,11.26401 -6.56335,-5.20284 -0.14899,-21.28747 11.82325,-14.97666 9.61933,-21.06071 29.10481,-23.26726 37.32715,-61.30884 -10.281,17.98737 -29.93461,34.96745 -38.67122,27.51347 -8.96856,-7.65187 2.90815,-30.42133 16.10135,-44.14336 -15.96928,-12.53366 -14.40681,-34.60099 -6.18446,-34.60099 8.22234,0 6.99997,9.17536 8.58563,18.31877 14.82146,-17.63003 13.70293,-86.51469 -10.43555,-119.60743 -0.0906,20.61997 -6.36061,43.7709 -11.59299,47.50833 7.78687,8.82889 0.84072,17.82263 -5.13725,17.82263 -7.83989,0 -13.90313,-11.63407 -1.77227,-18.81199 -11.95978,-47.09158 -15.22698,-100.30461 -9.99456,-130.20403 z m -8.93042,26.59057 c -1.51357,28.3615 1.3598,66.38957 9.65966,100.87739 -10.76108,10.80633 -4.81073,28.76423 10.50904,28.76422 7.11396,0 13.49715,-3.75511 15.75366,-9.73315 1.62015,-4.29212 0.53219,-8.99967 -1.70581,-13.34546 2.57434,-5.41783 6.29553,-12.18127 7.62598,-16.22725 8.24916,20.8391 9.71739,46.24906 7.67966,67.13042 -1.60816,-7.90761 -15.24944,-7.28337 -19.01828,-4.14389 -8.4562,7.04412 -3.91895,32.43396 7.08859,41.42585 -8.88643,9.81499 -24.33515,39.45189 -12.74736,50.7218 6.25115,6.07966 17.69972,-2.51773 23.83338,-6.25776 -5.32117,7.10964 -17.91388,19.75981 -21.56254,25.53149 -15.49409,-2.9587 -20.50761,16.57372 -12.28232,24.79901 11.05562,11.05563 29.07639,2.83192 24.63618,-11.80633 7.62142,-0.53903 17.94831,-6.36831 22.94276,-18.85448 2.67221,-6.68049 9.40949,-19.04088 19.26563,-30.40357 4.06074,-4.68144 8.89356,-8.87375 13.94751,-12.84375 0.3515,1.38725 0.45762,2.8083 1.40478,3.91333 1.81479,2.11724 5.07043,4.17333 8.42871,3.91333 3.35829,-0.25999 5.52837,-1.89512 7.4253,-3.51196 3.79385,-3.2337 7.45018,-7.75123 13.24512,-13.54615 9.32404,-9.32406 18.92594,-21.55371 43.54832,-32.61108 -3.2454,3.63942 -6.7535,7.30861 -9.43211,10.93725 -4.53776,6.14727 -8.18118,11.89642 -10.53589,16.75709 -1.17736,2.43033 -1.98918,4.66073 -2.50855,6.82324 -0.25976,1.08125 -0.46664,2.13928 -0.40136,3.51196 0.0652,1.37268 0.36925,3.37955 2.10717,5.11743 2.08631,2.08633 5.77106,3.07248 9.73316,3.21094 -8.17672,8.59529 -19.33938,16.12007 -31.63451,22.24904 -17.24274,8.59528 -46.06408,24.64842 -46.48667,38.36472 -0.23151,7.51299 8.54356,7.51845 15.67445,5.81901 -7.32113,5.52105 -22.69022,15.76675 -33.2797,15.76675 -14.49764,0 -19.29572,12.89391 -12.44203,24.76484 6.34744,10.99409 26.70206,3.37207 28.1272,-7.47272 0.5412,-0.1994 2.41899,-0.66948 3.04548,-0.88461 9.87906,15.16709 29.10028,20.53912 47.997,22.40519 23.40208,2.31097 52.36896,-14.29754 38.76006,-37.16324 48.4668,-20.04153 99.6438,-12.65356 154.8872,20.21411 -41.2188,-10.68086 -99.5941,-11.02097 -127.1644,17.45372 -11.0703,0.31885 -26.5059,-0.51631 -27.9516,12.23881 -1.4161,12.49373 11.9612,13.61695 22.3762,13.04444 2.3584,6.11728 8.7511,10.63951 15.1743,11.28494 -13.0859,8.45279 -38.8584,10.67948 -55.11032,4.26804 9.49448,-12.46772 -8.81846,-20.19253 -20.06837,-20.97144 -9.67173,-0.66964 -20.88117,1.65858 -30.00219,7.22461 -11.41999,-5.36178 -39.85744,-14.41332 -45.49161,1.68889 5.50939,3.37682 15.4791,9.64697 24.18527,14.19196 -6.77007,0.21449 -9.98217,5.58144 -6.388,10.00734 12.468,15.35332 35.91854,21.71528 48.46509,36.0227 -21.53085,8.42046 25.78611,43.56809 37.82183,52.04063 -1.43841,8.66266 0.99484,18.03783 4.5224,23.11538 -7.43309,-5.84923 -18.2972,-7.62523 -24.02599,-7.2658 -11.90349,-16.87756 -36.53595,-52.20677 -49.40728,-38.7783 -4.8269,-6.03393 -9.29733,-11.81805 -12.70664,-18.94765 -6.39019,-8.25622 -10.22324,-26.23702 -20.80463,-29.07228 -3.81241,-1.02153 -8.65367,4.12272 -8.04716,10.17829 -2.09545,-6.62921 -4.86174,-16.82368 -11.50254,-16.71746 -11.74638,0.18784 -11.88901,32.02734 -20.10512,54.34563 -4.59492,12.48166 -17.70794,50.60499 -10.12461,58.18833 1.74078,1.74077 7.7288,0.9679 10.16837,0.23729 -3.16884,14.14774 -9.76324,37.22941 -2.00684,41.47504 7.02544,3.84551 25.60007,-14.2521 29.7111,-26.20199 7.36329,57.06751 -5.26719,89.66604 -28.51977,127.82874 3.30254,-25.24295 8.14371,-57.09131 1.0063,-67.46646 -3.43323,-1.98217 -9.07125,8.03294 -11.77386,10.51034 0.6033,-11.68621 -6.97275,-19.91283 -14.83078,-10.64327 -3.75782,-9.31692 -3.19161,-20.13788 -3.23004,-30.74177 -0.0604,-16.63401 -9.08776,-37.10557 -14.08532,-45.40484 -1.95556,2.69208 -13.02315,15.9965 -13.37712,24.98648 -0.50181,-18.66489 10.93003,-33.43912 21.47616,-54.5196 7.69312,-15.3776 16.02871,-35.34796 14.51463,-53.03287 -0.71302,-8.32812 -8.88794,-13.14581 -15.69841,-10.25966 -1.26954,-8.38472 -0.66591,-25.56179 -0.66591,-39.44184 -18.46755,1.1711 -25.80628,23.11111 -22.06659,38.6639 1.53116,6.36793 3.83273,10.69785 0.32786,15.93742 -1.31035,-5.0026 -5.52576,-7.3709 -9.33178,-5.15419 -7.53607,4.38916 -10.03595,14.24452 -18.48974,20.0217 -1.94152,-4.71044 -5.1287,-5.87887 -9.83349,-6.12085 2.65034,-5.71813 3.64499,-14.57669 -1.66905,-17.11179 -15.32035,-7.30867 -64.85885,39.11038 -80.50672,54.56484 16.87387,-39.49292 40.21077,-70.78775 73.04466,-92.44036 -0.80678,15.12249 20.04791,-0.33997 26.79415,-5.79009 9.14511,-7.38811 15.7607,-19.74017 12.56957,-24.07789 -7.00864,-9.52691 -25.46588,12.29687 -43.18663,6.52977 6.19872,-8.44326 3.03678,-16.0143 -4.98318,-14.90193 -8.84858,1.22731 -20.33503,5.15201 -28.82208,8.03726 -2.02945,-12.74456 -11.39588,-17.83416 -23.07159,-18.45297 -18.04579,-0.95647 -26.64799,15.98598 -19.63854,24.89466 -8.66218,3.63822 -17.45758,1.14094 -24.91897,-2.98341 6.46047,-3.00075 13.39999,-14.9788 10.1502,-25.06275 -8.7396,-27.11865 -113.99317,-23.03806 -141.93023,-20.57983 50.4256,-21.08421 99.15408,-30.96905 148.03412,-23.63992 -9.35738,23.60113 18.31558,38.2772 33.80241,27.54734 21.1325,-14.64139 -12.63019,-42.71964 -31.22053,-57.27552 22.35491,4.39533 42.75159,19.77006 52.96262,27.64695 23.32519,17.99322 34.46505,22.23542 57.12496,21.73474 -2.87398,16.7924 28.91899,23.57775 35.5551,6.47061 5.93657,-15.30387 -1.66307,-36.00341 -25.38927,-26.16612 -5.1716,-5.97123 -13.36675,-17.36857 -29.53722,-20.79938 -4.24794,-16.91051 -15.65149,-24.10529 -31.02829,-27.27603 7.38285,-13.43547 -11.13335,-25.90313 -21.28521,-36.0003 -8.43308,-8.38762 -22.24647,-21.29111 -26.27395,-45.91121 33.52518,9.85682 39.49666,27.98316 54.70115,39.36137 11.60931,8.68777 24.60635,7.42797 27.31773,-4.55682 6.08925,18.20561 8.94413,34.32158 31.14741,36.28595 2.22021,13.61426 15.50536,46.26336 32.36247,36.53092 9.37455,-5.41242 0.92828,-22.37717 -5.51232,-33.38254 16.18188,-10.45168 22.96495,-24.28491 21.35614,-44.96695 16.69004,-7.76862 19.42062,-26.0163 12.51274,-38.27712 -7.45387,-13.2299 -29.8327,-11.79402 -36.27708,1.65212 -8.19059,-14.76465 -13.6731,-32.4136 -13.74683,-52.4647 2.60905,11.27152 15.02112,26.21708 27.56012,19.13844 17.04966,-9.62505 5.54381,-39.62432 -12.27699,-44.95566 0.59942,-35.25175 11.30931,-57.26626 24.05086,-81.7492 l 0,1.6e-4 z"
       id="path3319-4-8-5-8-709-88"
       style="fill:#22280b;fill-rule:evenodd;stroke:none" />
    <path
       d="m 849.60101,568.72931 c -11.34177,-0.006 -22.47232,4.42965 -33.6145,10.73657 -23.5802,13.34732 -36.65645,6.7623 -56.09107,-2.20752 8.22234,5.97989 19.83682,13.41087 41.14014,15.65332 8.96982,11.95978 22.37298,25.48682 44.05005,25.48682 21.6771,0 32.90765,-9.01734 39.63501,-29.19946 3.73744,2.24245 22.42705,1.51977 29.90186,-3.71265 0,0 -17.0155,7.55611 -38.12989,-7.52564 -9.15669,-6.54052 -18.07022,-9.22762 -26.8916,-9.23144 z m -3.41162,7.02392 c 19.81187,0 17.96282,19.83557 7.12427,26.18922 7.84862,-4.11116 13.45598,-9.34765 14.95093,-19.06495 2.6162,0.37372 5.5842,1.46002 7.82666,2.20752 -4.11119,17.19217 -16.08353,24.68409 -31.40699,24.68409 -15.32346,0 -25.39216,-8.63791 -33.6145,-20.97144 3.09092,-0.81826 7.54918,-3.01586 11.63965,-5.21777 0.37375,7.47487 6.29957,14.22374 14.14819,17.96118 -9.34357,-5.97989 -11.6811,-25.78785 9.33179,-25.78785 z"
       id="path3321-6-2-3-4-63-7"
       style="fill:#22280b;fill-opacity:1;fill-rule:evenodd;stroke:none" />
    <path
       d="m 833.1875,270.95593 c -1.58566,3.69986 -8.4402,25.89187 -8.96875,47.5625 7.39973,6.34262 8.96987,11.11915 15.3125,22.21875 -4.07019,-7.39973 -9.17407,-56.56745 -6.34375,-69.78125 z M 831,289.64343 c -1.08932,6.98055 -0.51464,30.22444 2.65625,34.375 -1.67762,-3.14083 -4.85904,-6.40823 -6.1875,-7.59375 0.23536,-9.65473 2.49675,-21.52433 3.53125,-26.78125 z"
       id="path3323-5-5-4-8-20-51"
       style="fill:#28170b;fill-rule:evenodd;stroke:none" />
    <path
       d="m 880.50629,362.32622 c -12.34587,19.00587 -31.95538,18.90093 -42.04322,1.10376 -11.27318,15.90968 -22.73463,18.41439 -33.31348,5.81982 1.05711,4.75697 5.02987,14.00695 8.72974,18.76392 19.17171,-11.84707 37.94461,2.8688 43.84937,15.95435 1.54032,-15.37335 14.56035,-22.37442 24.08203,-19.86768 0.6192,-4.3191 0.80973,-16.96408 -1.30444,-21.77417 z m -42.44459,9.53247 c 5.62133,6.51722 12.93636,10.25982 20.67041,10.13452 6.37953,-0.10336 12.57044,-2.83635 18.06153,-7.52563 0.0289,1.79009 -0.13358,2.8034 -0.20068,4.3147 -8.08341,0.44622 -16.13744,4.85268 -20.67042,13.14477 -3.4969,-3.98259 -7.61971,-7.62512 -12.7434,-10.13452 -3.9056,-1.91282 -8.41356,-2.8629 -13.04444,-3.1106 2.76654,-1.70281 5.41454,-4.0266 7.927,-6.82324 z"
       id="path3325-1-4-1-5-34-84"
       style="fill:#28170b;fill-rule:evenodd;stroke:none" />
    <path
       d="m 837.96136,760.88386 c -0.79281,4.49271 -1.80683,18.05671 -10.79222,23.87079 3.50057,20.3015 -1.07364,30.1622 3.44492,42.37548 5.92235,-2.31794 12.5155,-2.24929 14.17054,4.09334 12.29273,-15.36274 21.55956,-4.24393 21.3311,36.19365 7.98143,-17.00435 13.42104,-56.85658 11.83539,-75.35589 -23.78486,28.01325 -44.67076,13.74985 -28.85179,-21.44421 -5.28552,-0.52856 -7.96666,-3.39056 -11.13794,-9.73316 z m 2.23147,13.93046 c 0.55723,0.17403 2.46681,0.25334 2.77181,0.40827 -9.9741,28.37551 -0.83012,43.34785 28.91225,31.61782 -0.28641,7.82987 0.62642,18.96697 -2.60889,25.38647 -4.08351,-10.66249 -14.63831,-17.04192 -24.55195,-9.55437 -2.19641,-2.6749 -7.6193,-4.66523 -11.01281,-6.15758 -0.0356,-9.53462 0.62822,-20.71646 -0.44308,-31.35538 4.08971,-3.89205 5.57332,-8.69924 6.93267,-10.34523 z"
       id="path3327-2-7-04-9-29-6"
       style="fill:#28170b;fill-rule:evenodd;stroke:none" />
    <path
       d="m 747.05169,644.086 c -21.54238,14.14267 -41.75526,40.31162 -55.18799,61.71021 20.08499,-19.15613 38.54512,-30.70186 50.7925,-36.73486 -8.64731,-4.19817 -9.6067,-13.44686 4.39549,-24.97535 z m -8.76939,24.7982 c -4.62973,1.43349 -21.69268,11.38682 -29.2266,17.58515 6.01357,-10.36802 18.76552,-23.59939 24.85105,-28.81547 -1.59519,3.8223 -0.85684,9.27544 4.37555,11.23032 z"
       id="path3329-0-0-0-4-24-4"
       style="fill:#22280b;fill-rule:evenodd;stroke:none" />
    <path
       d="m 118.37551,116.39676 a 1.5131578,1.5131578 0 1 1 -3.02632,0 1.5131578,1.5131578 0 1 1 3.02632,0 z"
       transform="matrix(3.2109377,0,0,3.2109377,470.61002,210.7921)"
       id="path3331-9-4-7-0-39-8"
       style="fill:#28170b;fill-opacity:1;fill-rule:nonzero;stroke:none;stroke-width:1;marker:none;visibility:visible;display:inline;overflow:visible;enable-background:accumulate" />
    <path
       d="m 685.54216,419.52105 c 1.26961,22.49394 50.63806,49.902 44.45142,68.73413 17.93967,7.10111 28.1869,11.20406 29.50049,26.99195 6.28952,0.19236 16.70535,5.85336 25.78784,16.35571 25.78827,-5.78989 36.04622,17.77277 26.27379,35.92237 -9.23482,17.15119 -34.58995,18.44613 -41.82676,-1.30445 -36.89105,0.26426 -55.45839,-23.58099 -78.25669,-36.74491 34.01057,25.78826 9.02694,47.78251 -8.53897,47.78251 -17.56589,0 -31.01577,-11.36222 -32.51075,-33.03929 -35.05621,0 -62.14442,2.29373 -94.3692,10.51607 17.19216,0 60.39703,0.18527 87.94733,12.3887 25.80704,11.43123 16.87935,32.18776 9.03076,40.03638 3.73743,1.8687 7.76411,1.82362 9.63281,0.70239 -1.12123,-8.5961 4.20094,-26.49023 22.37622,-26.49023 18.17529,0 24.3786,2.2262 31.10596,16.05468 33.26313,-13.82848 40.67597,-5.66634 41.04972,2.92973 10.64615,-4.98691 19.94436,-3.74492 21.37204,-0.76449 15.40835,-4.06332 19.20898,4.14625 18.25276,9.23921 -1.79125,9.54066 -10.59461,23.01157 -31.61727,33.2745 14.17565,2.97114 15.29094,14.86455 0.57521,24.07625 2.51821,2.9348 1.67698,9.20827 -2.17078,16.03363 4.11118,-3.73744 7.86445,-1.10094 9.73315,3.01025 2.98996,-7.10112 12.31729,-16.79487 17.92342,-16.79487 -4.48491,-26.16198 8.19428,-47.82525 23.51775,-47.82525 9.53552,0 9.03076,6.24544 9.03076,38.53125 24.66703,0 16.02139,36.18522 7.42529,60.10474 10.09108,-12.3335 9.37687,-0.0128 8.6294,20.16871 2.98992,-13.08101 18.26503,-66.08425 22.37622,-85.89259 4.11115,-19.80834 16.82538,-14.62389 23.17895,-3.41162 15.69722,-10.83852 27.71303,18.67048 40.42028,42.21629 5.23239,-1.12123 14.94933,-2.61053 26.90907,7.85427 11.95978,10.4648 15.6968,18.39138 25.78785,33.71485 0.74747,-1.86874 5.98843,-2.64383 12.34204,-0.40137 -2.61621,-3.73744 -3.75776,-9.70837 -3.01025,-13.4458 0,0 -0.38069,1.85733 -23.17896,-16.45606 -22.7983,-18.31339 -16.85463,-29.52078 -12.74341,-32.51074 -4.48491,-1.8687 -12.69223,-7.82503 -31.00562,-18.66358 -18.31339,-10.83852 -19.4533,-21.72177 -13.84717,-25.08545 -4.48491,-5.23238 -16.7802,-11.54945 -23.88135,-13.04443 13.45476,-25.04076 36.97495,-16.13188 55.28834,-9.03077 3.7374,-2.98992 10.12839,-8.5392 27.69434,-8.5392 22.42454,0 32.47577,13.05295 34.71821,23.8915 5.6062,1.8687 19.8007,2.25992 29.8918,-1.47751 -44.62241,-10.65553 -44.72037,-33.39141 1.1139,-42.97391 25.8368,-26.7281 73.6679,-26.20385 98.3349,-20.97143 -23.5457,-13.45477 -76.7041,-22.44124 -113.7047,-4.50158 9.3436,26.53574 -29.77062,37.81505 -49.95275,37.81505 -20.18209,0 -28.43574,-3.18817 -44.13292,-18.51163 0,0 -3.89221,-0.21449 -5.76091,-0.21449 -11.2123,16.44466 -36.50046,8.22507 -36.50046,-12.48018 0,-23.32141 26.54389,-14.41993 38.12989,-24.88476 -13.45473,-8.59607 -4.45608,-16.46012 15.35229,-35.521 19.80837,-19.06088 35.11067,-21.7173 48.56543,-31.80835 -10.09107,-3.36369 -4.86595,-19.043 2.60889,-26.89161 -8.96982,3.36369 -15.71141,14.61782 -20.57007,20.97144 -4.85866,6.35363 -10.45427,11.21065 -24.28271,10.83691 0,2.6162 4.84565,11.60026 -5.61915,20.57007 -10.46479,8.96983 -19.7673,7.04302 -19.76733,-4.91674 -2.98993,3.73742 -6.33168,11.98129 -7.82666,17.96118 -1.49498,5.97988 -8.31084,15.71872 -21.39185,19.08241 -3.73743,14.2022 -17.86048,22.75444 -31.68897,14.53209 -13.82848,-8.22233 -14.40561,-38.35257 9.90616,-35.17868 1.12123,-1.49497 2.90003,-6.31823 5.58036,-9.52711 -21.74897,1.54032 -19.93742,-22.44121 -3.54584,-49.41482 -2.98996,-5.97988 -5.93031,-12.71416 -7.42529,-23.17896 -1.86871,5.60614 -6.7562,13.81509 -15.3523,20.16871 3.36371,17.93965 -4.90779,32.1179 -18.36255,44.45142 12.30695,26.21511 4.09533,40.03637 -9.73315,40.03638 -13.82849,0 -25.85374,-16.73693 -29.5005,-38.53126 -14.57595,-0.37374 -23.14684,-10.83812 -29.50049,-25.78784 -38.49548,5.60614 -40.43793,-31.5299 -70.23926,-40.73877 z m 171.28346,11.94067 c 1.33058,4.41214 2.72368,8.23914 4.3147,11.53931 -7.67353,13.15349 -12.15122,25.6356 -12.14136,35.72168 0.006,6.82388 6.22729,16.16484 14.18949,16.29032 -0.46443,0.90156 -1.18465,2.7742 -1.72344,3.98327 -26.51278,1.10685 -25.00852,31.7394 -9.85716,41.73765 15.26255,10.07162 31.00943,0.75437 37.18015,-14.63297 15.5342,-4.0777 19.53808,-16.86391 25.43313,-29.51743 3.2496,3.5216 6.43684,3.71379 10.83692,2.90991 -9.37999,8.82218 -21.09773,18.05482 -16.6466,31.5248 -5.55357,6.6075 -32.3202,0.42811 -32.3202,26.27208 0,22.64851 23.79028,34.56716 40.91184,18.93699 1.2838,0.0774 1.78811,-0.24018 2.6365,-0.17307 11.912,11.25511 21.61337,14.96551 34.3169,16.05469 -6.66614,1.98439 -12.30512,5.37286 -16.35572,8.42871 -17.52279,-9.08214 -44.05904,-17.3522 -59.21913,16.20011 7.3579,2.38139 17.61222,7.30533 22.99574,11.39389 -6.77036,17.65007 25.37739,32.55081 41.48079,43.62184 -0.79118,2.39635 -0.16247,9.77692 1.45144,14.68249 -5.34201,-0.48456 -10.7655,-1.3072 -15.48366,-0.74307 -9.00247,-16.11374 -25.41226,-47.79536 -39.95636,-42.4722 -13.86248,-17.08097 -28.40142,-9.22445 -31.76041,6.131 -4.2438,19.40035 -8.43035,38.86914 -12.38998,58.29126 -0.78659,-2.25546 -2.0498,-3.9141 -4.04129,-4.57793 5.28614,-17.54825 7.39068,-45.35902 -10.7637,-50.73824 1.08542,-14.83148 2.87709,-35.78115 -15.1318,-35.8348 -24.25755,-0.0723 -29.70118,33.13678 -29.70118,46.09468 -2.15412,2.04575 -7.3491,6.58528 -9.27107,9.2729 -0.89726,-1.44281 -2.44943,0.87591 -3.71264,0.44516 0.12073,-1.68337 0.44262,-4.99965 0.27421,-5.85945 9.31743,-7.21099 10.56389,-18.0192 1.97296,-25.87126 11.16125,-7.5503 27.79468,-22.36059 27.79468,-32.31006 0,-12.58826 -12.65212,-12.48955 -22.32115,-11.05934 -1.18307,-2.97156 -14.15282,-5.56192 -20.68021,-2.49576 -2.61431,-9.99045 -28.19608,-9.89104 -40.39257,-5.63414 -1.97729,-5.39672 -11.05285,-11.2674 -19.43972,-11.42879 8.69596,-1.96005 16.54731,-17.9493 12.89506,-25.78517 9.41424,9.36559 34.07039,20.77101 57.96343,21.70889 4.40226,5.5239 13.36389,10.65919 22.64337,10.21091 9.93516,-0.47994 19.29491,-5.75374 24.38306,-14.1482 5.40343,-8.91462 4.60526,-20.30195 -1.2041,-29.09912 -5.5189,-8.35732 -15.95888,-14.07058 -29.19947,-13.04443 -8.6868,-8.82439 -16.57335,-14.38706 -24.08203,-15.75367 -1.31799,-6.97421 -4.20174,-12.65286 -9.1311,-16.45605 -5.60075,-4.32121 -15.27569,-5.71626 -18.76392,-9.53247 3.54773,-4.98739 -5.07826,-15.63245 -10.38022,-20.51023 -5.07852,-4.67225 -32.37698,-31.9424 -34.77093,-42.22323 20.42398,8.9266 29.48701,42.38107 63.61404,41.461 3.05206,6.63455 7.21392,12.04671 11.94517,16.55189 4.591,4.37163 9.93166,7.51861 16.65225,8.43321 2.08669,10.2922 5.81664,19.54145 11.03759,26.49024 5.7,7.58631 13.28982,12.74341 21.87452,12.74341 8.29369,0 15.81165,-4.68575 18.56323,-12.94409 2.54355,-7.63392 -0.25559,-18.36276 -7.00219,-30.63178 13.13849,-11.7135 23.08058,-25.95624 20.74902,-43.42047 3.9892,-3.2746 7.31923,-6.71369 9.73315,-10.23487 l -3e-5,0 z m 116.19581,23.07862 c -0.25142,2.5281 -0.45156,5.10188 0.50171,7.52563 0.33496,0.85168 1.05489,1.53984 1.60547,2.30786 -8.82681,5.51867 -18.83874,9.73192 -31.10596,18.56324 0.51156,-1.69719 1.16477,-3.41336 1.2041,-4.91675 0.0449,-1.72378 -0.17371,-3.02123 -0.40137,-4.3147 11.47458,-0.99124 18.25213,-6.1231 22.77759,-12.04102 1.61661,-2.11401 3.53377,-4.66171 5.41846,-7.12426 z m 98.93707,92.51514 c 2.4033,0.0257 4.7587,0.0816 7.1242,0.20068 4.7377,0.23858 8.7778,1.21043 13.2451,1.80616 -3.8362,0.2193 -7.4222,-0.0462 -11.3386,0.5017 -18.3509,2.56712 -37.1439,9.15541 -50.8733,22.67725 -3.5411,0.18913 -7.4897,0.81308 -11.74,1.80615 5.1053,-5.49304 4.8229,-13.18931 3.813,-20.1687 15.3676,-4.85022 32.9458,-6.99705 49.7696,-6.82324 z m -425.27546,3.49215 c -0.32109,3.56883 1.19633,10.13093 3.84558,13.30744 -11.30793,-6.72948 -25.73823,-9.34161 -42.70342,-12.1471 12.69127,-1.50426 32.15976,-1.1064 38.85784,-1.16034 z m 12.97094,22.69706 c 4.11552,3.38256 8.9335,5.43336 14.24853,6.62256 -3.47959,1.64708 -6.00496,4.14885 -8.22802,6.82324 -0.33404,-4.58387 -2.2448,-9.17028 -6.02051,-13.4458 z m 336.14504,14.54956 c -2.64703,3.79141 -3.27436,7.95934 -3.1106,12.34204 -5.05164,-4.1975 -12.04888,-6.92442 -20.46973,-8.02734 7.29204,-0.36309 15.31351,-1.75269 23.58033,-4.3147 z m 6.27278,23.80371 c 2.4428,1.79536 9.4782,4.60827 13.0379,6.05644 -3.5986,0.84631 -8.7893,0.18206 -11.1512,-0.23247 -0.5345,-1.64362 -1.0044,-4.23684 -1.8867,-5.82397 z m -33.16439,100.3191 c 4.9104,3.74871 9.68323,7.7286 14.95093,10.93726 -0.0257,1.82991 -0.0539,3.57101 0.40137,5.41846 -1.49071,-0.64784 -2.84813,0.0671 -4.3147,0.20068 -4.04141,-6.26502 -7.61255,-11.82977 -11.0376,-16.5564 z"
       id="path3333-86-5-1-4-47-8"
       style="fill:#22280b;fill-opacity:1;fill-rule:evenodd;stroke:none" />
    <path
       d="m 753.58816,649.15174 c -3.51697,1.41577 -6.54116,3.27365 -8.58422,5.28697 -1.02152,1.00666 -1.76425,2.07503 -2.2594,3.22278 -0.49523,1.14766 -0.71232,2.50643 -0.20229,3.74402 0.51009,1.23756 1.62611,2.05966 2.79184,2.53873 1.1657,0.47907 2.41835,0.6479 3.8609,0.66264 2.88503,0.0289 6.36199,-0.72978 9.87899,-2.14555 3.51698,-1.41576 6.458,-3.24022 8.50106,-5.25348 1.02153,-1.00666 1.79832,-1.99242 2.29347,-3.1401 0.49526,-1.14772 0.71235,-2.50649 0.20229,-3.74405 -0.51009,-1.23756 -1.62611,-2.05966 -2.79184,-2.53873 -1.16567,-0.4791 -2.45242,-0.73055 -3.89497,-0.74529 -2.88502,-0.0289 -6.27889,0.69626 -9.79583,2.11206 z m 1.39702,3.38943 c 3.1332,-1.26135 6.14172,-1.84712 8.36292,-1.82445 1.11063,0.0128 2.04379,0.17853 2.59029,0.40307 0.54657,0.22476 0.66454,0.43588 0.72249,0.57658 0.0581,0.14064 0.12298,0.37334 -0.10917,0.9114 -0.23215,0.53809 -0.81564,1.21935 -1.60213,1.99437 -1.57297,1.55005 -4.10534,3.29115 -7.23851,4.55244 -3.1332,1.26132 -6.25895,1.7979 -8.48018,1.7752 -1.1106,-0.0128 -2.0097,-0.0957 -2.5562,-0.32045 -0.5465,-0.22477 -0.66453,-0.43595 -0.72249,-0.57662 -0.0581,-0.14064 -0.12298,-0.37334 0.10917,-0.91143 0.23215,-0.53809 0.78157,-1.30197 1.56806,-2.07702 1.57298,-1.55008 4.22258,-3.24196 7.35575,-4.50322 z"
       id="path3335-5-7-4-7-63-1"
       style="fill:#22280b;fill-opacity:1;fill-rule:nonzero;stroke:none;stroke-width:0.25;marker:none;visibility:visible;display:inline;overflow:visible;enable-background:accumulate" />
    <path
       d="m 835.85418,723.35603 c 0,0 -7.43807,9.53822 -11.13794,15.35229 0,11.62816 -0.22123,31.7406 1.89301,37.02613 9.98191,-2.43444 10.83059,-38.10751 9.24493,-52.37842 z m -3.6123,10.63623 c -0.10243,8.5269 -0.60777,17.62429 -2.80957,26.99194 -1.0301,-7.01808 -1.18696,-14.18255 -1.30445,-21.27246 1.4676,-2.22489 2.30803,-3.27381 4.11402,-5.71948 z"
       id="path3337-7-2-7-4-19-0"
       style="fill:#28170b;fill-rule:evenodd;stroke:none" />
    <path
       d="m 820.31135,743.98646 -0.85697,12.71178 c -2.64276,-2.64273 -4.75697,-4.22838 -4.75697,-4.22838 1.47617,-2.97895 4.55684,-7.42629 5.61394,-8.4834 z"
       id="path3339-4-6-7-0-42-39"
       style="fill:#000000;fill-rule:evenodd;stroke:none" />
    <path
       d="m 922.90152,477.38036 c -1.25609,2.69883 -2.03693,5.36112 -2.24121,7.60481 -0.1021,1.12184 -0.10146,2.12446 0.16344,3.09466 0.2649,0.97019 0.8798,2.04098 1.94631,2.5456 1.06651,0.5046 2.21372,0.26747 3.12318,-0.14707 0.90947,-0.41451 1.73722,-1.02522 2.52775,-1.82134 1.5811,-1.59226 3.11307,-3.89919 4.36912,-6.59803 1.25615,-2.69884 2.00745,-5.29772 2.21173,-7.54141 0.10211,-1.12184 0.0389,-2.15407 -0.22605,-3.12427 -0.2649,-0.9702 -0.81722,-2.01137 -1.88376,-2.51598 -1.06648,-0.50461 -2.27624,-0.29708 -3.1857,0.11742 -0.9095,0.41452 -1.67467,1.05484 -2.46523,1.85097 -1.58113,1.59225 -3.08353,3.83578 -4.33962,6.53461 z m 3.25451,1.5398 c 1.10353,-2.37112 2.46083,-4.31418 3.62062,-5.48215 0.57993,-0.58399 1.11766,-0.96073 1.4298,-1.10299 0.3121,-0.14224 0.27806,-0.0231 0.12169,-0.0972 -0.15669,-0.0741 -0.14995,-0.20614 -0.0591,0.1268 0.0909,0.33294 0.14706,0.99075 0.0723,1.81366 -0.14995,1.64583 -0.76469,3.94016 -1.86826,6.31128 -1.10356,2.37112 -2.49037,4.37759 -3.65016,5.54555 -0.57989,0.58399 -1.11769,0.96074 -1.4298,1.10299 -0.3121,0.14225 -0.21545,0.0527 -0.0591,0.1268 0.1567,0.0741 0.0873,0.17651 -0.003,-0.15643 -0.0909,-0.33295 -0.14738,-0.99076 -0.0722,-1.81368 0.14962,-1.64582 0.79416,-4.00356 1.89776,-6.37467 z"
       id="path3341-7-7-2-4-7-9"
       style="fill:#28170b;fill-opacity:1;fill-rule:nonzero;stroke:none;stroke-width:0.25;marker:none;visibility:visible;display:inline;overflow:visible;enable-background:accumulate" />
    <path
       d="m 820.90783,572.42704 c 10.29352,-8.57793 33.02503,-17.58476 55.32765,2.14448 -9.43573,-13.72469 -32.59613,-25.73379 -55.32765,-2.14448 z"
       id="path4973-3-69-9-555-2"
       style="fill:#22280b;stroke:none" />
    <path
       d="m 825.48811,565.06198 c 8.58923,-7.15769 27.5571,-14.67326 46.16709,1.78942 -7.87346,-11.4523 -27.19921,-21.47306 -46.16709,-1.78942 z"
       id="path4973-7-4-2-4-28-0"
       style="fill:#22280b;stroke:none" />
    <path
       d="m 834.55426,554.25562 c 4.89659,-4.08049 15.7099,-8.36501 26.31919,1.02013 -4.48854,-6.5288 -15.50588,-12.24149 -26.31919,-1.02013 z"
       id="path4973-7-9-4-74-6-34-9"
       style="fill:#22280b;stroke:none" />
  </g>
</svg>
