<?xml version="1.0" encoding="UTF-8" standalone="no"?>
<svg xmlns="http://www.w3.org/2000/svg" id="tie_bow_1_of_2" width="560" height="560">
  <g id="layer1">
    <g id="g44238" style="stroke-width:1.13169646;stroke-miterlimit:4;stroke-dasharray:none;display:inline;enable-background:new">
      <path id="path3444" d="M271.4 169.4c8.7-1.7 5.6 2.7 11.5 3 3.2 0 3-4.7 10.2-3 .8 2.2 2 6.6-.8 9.8-6-2-6-3.5-9.7-3.5-3.6 0-5.6 3.3-10.8 3-1.7-4.2-2-2.6-.6-9.3z" style="fill:#333333;fill-rule:evenodd;stroke:#000000;stroke-width:2.67475629;stroke-linecap:butt;stroke-linejoin:miter;stroke-miterlimit:4;stroke-opacity:1;stroke-dasharray:none"/>
      <path id="path3450" d="M284.3 175.8c1.4-1 1-4 0-4.6-2.4-.5-4-.2-4.8.2 1 1 1.3 4 .6 5 2 .4 4 .3 4.3-.6z" style="fill:#333333;fill-rule:evenodd;stroke:#000000;stroke-width:2.67475629;stroke-linecap:butt;stroke-linejoin:miter;stroke-miterlimit:4;stroke-opacity:1;stroke-dasharray:none"/>
    </g>
  </g>
</svg>
