<?xml version="1.0" encoding="UTF-8" standalone="no"?>
<!-- Created with Inkscape (http://www.inkscape.org/) -->

<svg
   xmlns:dc="http://purl.org/dc/elements/1.1/"
   xmlns:cc="http://creativecommons.org/ns#"
   xmlns:rdf="http://www.w3.org/1999/02/22-rdf-syntax-ns#"
   xmlns:svg="http://www.w3.org/2000/svg"
   xmlns="http://www.w3.org/2000/svg"
   version="1.1"
   width="560"
   height="560"
   id="underwear_plain">
  <path
     d="m 246.96948,282.64598 c 17.16506,6.30553 54.29762,7.35645 72.16329,-7.00615 2.80246,4.9043 5.95522,18.56629 7.00614,21.01844 -3.85338,-4.20369 -25.68178,4.30104 -28.02457,15.76382 -2.95949,14.48014 -13.35428,13.34482 -19.61721,3.15277 -9.86815,-16.05902 -29.84901,-13.29752 -32.22826,-13.66198 0,-7.70676 0.70062,-14.3626 0.70061,-19.2669 z"
     id="path47908"
     style="color:#000000;fill:#f2f2f2;stroke:#b3b3b3;stroke-width:0.5;stroke-linecap:butt;stroke-linejoin:miter;stroke-miterlimit:4;stroke-opacity:1;stroke-dasharray:none;stroke-dashoffset:0;marker:none;visibility:visible;display:inline;overflow:visible;enable-background:accumulate" />
  <path
     d="m 272.15145,299.09965 c 5.56921,2.22768 6.90582,2.67322 10.47012,4.9009 -2.22769,-2.67322 -6.23752,-4.2326 -10.47012,-4.9009 z"
     id="path56948"
     style="color:#000000;fill:#cccccc;fill-opacity:1;marker:none;visibility:visible;display:inline;overflow:visible;enable-background:accumulate" />
  <path
     d="m 297.47275,294.73479 c -7.37,6.365 -15.07501,4.69 -26.80001,1.34 9.715,2.01 18.76001,2.345 26.80001,-1.34 z"
     id="path53718"
     style="color:#000000;fill:#cccccc;fill-opacity:1;marker:none;visibility:visible;display:inline;overflow:visible;enable-background:accumulate" />
  <path
     d="m 246.26887,287.90059 c 27.67427,5.60491 52.19577,7.70676 74.96574,-7.70676"
     id="path47910"
     style="color:#000000;fill:none;stroke:#b3b3b3;stroke-width:0.5;stroke-linecap:butt;stroke-linejoin:miter;stroke-miterlimit:4;stroke-opacity:1;stroke-dasharray:none;stroke-dashoffset:0;marker:none;visibility:visible;display:inline;overflow:visible;enable-background:accumulate" />
  <path
     d="m 274.99406,311.02086 c -1.05092,-6.30553 2.45215,-12.26075 3.15276,-18.91659"
     id="path47912"
     style="color:#000000;fill:none;stroke:#b3b3b3;stroke-width:0.5;stroke-linecap:butt;stroke-linejoin:miter;stroke-miterlimit:4;stroke-opacity:1;stroke-dasharray:none;stroke-dashoffset:0;marker:none;visibility:visible;display:inline;overflow:visible;enable-background:accumulate" />
  <path
     d="m 314.46875,294.1875 c -9.46899,0.21984 -17.755,4.32249 -23.03125,8.59375 2.68,-1.005 8.725,-4.705 13.75,-5.375 -7.035,3.35 -9.38,15.7675 -16.75,16.4375 -7.37001,0.67 -9.05125,-5.695 -13.40625,-8.375 -4.355,-2.68 -11.045,-5.37125 -27.125,-4.03125 0.14316,0.16827 0.29258,0.33183 0.4375,0.5 5.85269,-0.0693 21.69042,-0.15195 30.15625,13.625 6.26293,10.19205 16.66551,11.35514 19.625,-3.125 2.07353,-10.14535 19.40179,-17.96784 26.03125,-16.71875 0.0464,-0.1031 0.0787,-0.20879 0.125,-0.3125 -3.35,-0.92125 -6.65617,-1.29203 -9.8125,-1.21875 z"
     id="path47908-88"
     style="color:#000000;fill:#cccccc;fill-opacity:1;marker:none;visibility:visible;display:inline;overflow:visible;enable-background:accumulate" />
  <path
     d="m 299.51557,308.56871 c -1e-5,-5.95522 -4.20369,-10.85952 -4.90431,-17.51536"
     id="path47914"
     style="color:#000000;fill:none;stroke:#b3b3b3;stroke-width:0.5;stroke-linecap:butt;stroke-linejoin:miter;stroke-miterlimit:4;stroke-opacity:1;stroke-dasharray:none;stroke-dashoffset:0;marker:none;visibility:visible;display:inline;overflow:visible;enable-background:accumulate" />
</svg>
