<?xml version="1.0" encoding="UTF-8" standalone="no"?>
<!-- Created with Inkscape (http://www.inkscape.org/) -->

<svg
   xmlns:dc="http://purl.org/dc/elements/1.1/"
   xmlns:cc="http://creativecommons.org/ns#"
   xmlns:rdf="http://www.w3.org/1999/02/22-rdf-syntax-ns#"
   xmlns:svg="http://www.w3.org/2000/svg"
   xmlns="http://www.w3.org/2000/svg"
   version="1.1"
   width="560"
   height="560"
   id="underwear_shorts">
  <g
     transform="translate(-245.5625,-1)"
     id="g56956"
     style="display:inline;enable-background:new">
    <path
       d="m 492.53198,283.64597 c 17.16506,6.30553 54.29762,7.35645 72.16329,-7.00615 2.80246,4.9043 5.95522,18.56629 7.00614,21.01844 -3.85338,-4.20369 -25.68178,4.30104 -28.02457,15.76382 -2.95949,14.48014 -13.35428,13.34482 -19.61721,3.15277 -9.86815,-16.05902 -29.84901,-13.29752 -32.22826,-13.66198 0,-7.70676 0.70062,-14.3626 0.70061,-19.2669 z"
       id="path47908"
       style="color:#000000;fill:#f2f2f2;stroke:#b3b3b3;stroke-width:0.5;stroke-linecap:butt;stroke-linejoin:miter;stroke-miterlimit:4;stroke-opacity:1;stroke-dasharray:none;stroke-dashoffset:0;marker:none;visibility:visible;display:inline;overflow:visible;enable-background:accumulate" />
    <path
       d="m 517.71395,300.09964 c 5.56921,2.22768 6.90582,2.67322 10.47012,4.9009 -2.22769,-2.67322 -6.23752,-4.2326 -10.47012,-4.9009 z"
       id="path56948"
       style="color:#000000;fill:#cccccc;fill-opacity:1;stroke:none;stroke-width:0.5;marker:none;visibility:visible;display:inline;overflow:visible;enable-background:accumulate" />
    <path
       d="m 543.03525,295.73478 c -7.37,6.365 -15.07501,4.69 -26.80001,1.34 9.715,2.01 18.76001,2.345 26.80001,-1.34 z"
       id="path53718"
       style="color:#000000;fill:#cccccc;fill-opacity:1;stroke:none;stroke-width:0.5;marker:none;visibility:visible;display:inline;overflow:visible;enable-background:accumulate" />
    <path
       d="m 491.83137,288.90058 c 27.67427,5.60491 52.19577,7.70676 74.96574,-7.70676"
       id="path47910"
       style="color:#000000;fill:none;stroke:#b3b3b3;stroke-width:0.5;stroke-linecap:butt;stroke-linejoin:miter;stroke-miterlimit:4;stroke-opacity:1;stroke-dasharray:none;stroke-dashoffset:0;marker:none;visibility:visible;display:inline;overflow:visible;enable-background:accumulate" />
    <path
       d="m 492.53198,283.64597 c 17.16506,6.30553 54.29762,7.35645 72.16329,-7.00615 2.80246,4.9043 5.95522,18.56629 7.00614,21.01844 -3.85338,-4.20369 -25.68178,4.30104 -28.02457,15.76382 -2.95949,14.48014 -13.35428,13.34482 -19.61721,3.15277 -9.86815,-16.05902 -29.84901,-13.29752 -32.22826,-13.66198 0,-7.70676 0.70062,-14.3626 0.70061,-19.2669 z"
       clip-path="url(#clipPath53682-4)"
       id="path47908-88"
       style="color:#000000;fill:#cccccc;fill-opacity:1;stroke:#b3b3b3;stroke-width:0.5;stroke-linecap:butt;stroke-linejoin:miter;stroke-miterlimit:4;stroke-opacity:1;stroke-dasharray:none;stroke-dashoffset:0;marker:none;visibility:visible;display:inline;overflow:visible;enable-background:accumulate" />
    <path
       d="m 520.55656,312.02085 c -1.05092,-6.30553 2.45215,-12.26075 3.15276,-18.91659"
       id="path47912"
       style="color:#000000;fill:none;stroke:#b3b3b3;stroke-width:0.5;stroke-linecap:butt;stroke-linejoin:miter;stroke-miterlimit:4;stroke-opacity:1;stroke-dasharray:none;stroke-dashoffset:0;marker:none;visibility:visible;display:inline;overflow:visible;enable-background:accumulate" />
    <path
       d="m 545.07807,309.5687 c -10e-6,-5.95522 -4.20369,-10.85952 -4.90431,-17.51536"
       id="path47914"
       style="color:#000000;fill:none;stroke:#b3b3b3;stroke-width:0.5;stroke-linecap:butt;stroke-linejoin:miter;stroke-miterlimit:4;stroke-opacity:1;stroke-dasharray:none;stroke-dashoffset:0;marker:none;visibility:visible;display:inline;overflow:visible;enable-background:accumulate" />
  </g>
</svg>
