<?xml version="1.0" encoding="UTF-8" standalone="no"?>
<!-- Created with Inkscape (http://www.inkscape.org/) -->

<svg
   xmlns:dc="http://purl.org/dc/elements/1.1/"
   xmlns:cc="http://creativecommons.org/ns#"
   xmlns:rdf="http://www.w3.org/1999/02/22-rdf-syntax-ns#"
   xmlns:svg="http://www.w3.org/2000/svg"
   xmlns="http://www.w3.org/2000/svg"
   version="1.1"
   width="560"
   height="560"
   id="underwear_boxers">
  <g
     transform="translate(0,-1)"
     id="g52910"
     style="display:inline;enable-background:new">
    <path
       d="m 246.23639,289.40736 c 0.0234,1.32134 0.0661,4.46286 0.19495,7.53141 0.25619,6.10034 -0.26373,8.19366 -1.87681,14.85728 -2.45179,10.12833 -3.01806,26.41752 -3.84432,34.24294 -0.67805,8.39219 -0.40253,14.73861 -0.59808,14.94981 9.47923,1.3173 32.08309,5.49434 41.70761,-0.54203 0,0 4.50684,-28.66704 6.65268,-32.65217 0,0 0.6313,21.36342 1.05301,24.52622 2.76087,0.97263 7.66881,1.21176 11.13758,1.53746 6.33093,0.59444 10.36193,2.72442 16.09083,2.2586 3.03512,-0.24678 4.62699,0.055 9.03196,-2.27981 1.31432,-0.69663 2.08402,-1.84525 2.22798,-3.75956 0.51554,-0.73675 0.54513,-2.56074 0.1471,-3.2572 0.32859,-8.17167 0.93399,-21.40324 -0.0221,-34.45511 -0.82197,-11.22085 -3.54099,-19.81918 -4.47321,-26.19984 -0.27454,-1.8791 -1.12395,-3.96378 -2.83751,-5.20144 0,0 -54.22196,0.42669 -72.97714,6.65429 z"
       id="path2989-5-12"
       style="color:#000000;fill:#f2f2f2;fill-opacity:1;stroke:#b3b3b3;stroke-width:0.5;stroke-linecap:butt;stroke-linejoin:miter;stroke-miterlimit:4;stroke-opacity:1;stroke-dasharray:none;stroke-dashoffset:0;marker:none;visibility:visible;display:inline;overflow:visible;enable-background:accumulate" />
    <path
       d="m 320.8125,280.96875 c 0,0 -0.86116,0.0292 -2.4375,0.0937 -0.193,0.008 -0.129,0.0224 -0.34375,0.0312 -0.69189,0.0286 -1.86082,0.0837 -2.78125,0.125 -0.73016,0.74326 -1.4563,1.65841 -2.125,2.78125 1.11861,-0.10948 0.77533,0.51963 0.84375,1.21875 0.0684,0.69912 0.63623,2.03288 1.875,4.59375 -0.6414,-0.78421 -1.89485,-1.93888 -2.4375,-3.15625 -0.54263,-1.21737 -0.62207,-2.03786 -2.96875,-2.9375 1.21439,0.86929 1.9211,2.49704 2.5625,3.28125 0.6414,0.78421 1.16789,1.84855 1.25,2.6875 -0.69911,0.0684 -1.92337,-0.94002 -2.3125,-2.03125 -0.38913,-1.09123 -1.13187,-2.98859 -3.4375,-3.46875 0.89368,0.47719 0.85471,1.46419 1.46875,1.96875 0.61403,0.50456 1.65764,3.92837 3.65625,4.15625 1.99859,0.22789 1.53629,1.26507 2.21875,2.46875 0.68248,1.20368 0.92224,3.59353 1.4375,4.53125 0.51528,0.93772 0.84785,3.14258 -0.0625,3.9375 0.83896,-0.0821 1.78329,-0.58373 1.6875,-1.5625 0.64142,0.78421 1.05339,1.87114 0.5625,2.625 -0.49087,0.75386 0.69275,1.34601 1.15625,0.3125 0.4635,-1.03351 2.47102,-2.06775 1.4375,-2.53125 -1.03352,-0.4635 -1.12069,-1.30772 -2.25,-2.75 0,0 1.04702,0.6088 2.5,1.03125 -1.24176,-1.14894 -3.97237,-4.41973 -1.875,-4.625 2.09737,-0.20527 2.05105,-0.62455 0.25,-1.71875 -1.80107,-1.0942 -6.77872,-5.82962 -5.6875,-6.21875 1.09124,-0.38913 6.46443,0.922 6.8125,1.59375 0.34807,0.67175 2.50163,6.94189 2.84375,10.4375 -0.12316,-1.25842 0.94662,-2.06937 0.65625,-3.59375 0.22837,0.31932 0.39971,0.6497 0.5625,0.96875 -0.7863,-2.88761 -1.55102,-5.5285 -2,-7.84375 -0.0809,-0.41701 -0.16049,-0.81996 -0.21875,-1.21875 -0.17159,-1.17444 -0.55867,-2.42194 -1.25,-3.5 -0.27726,-0.42959 -0.62415,-0.83002 -1,-1.1875 -0.18793,-0.17874 -0.37956,-0.34529 -0.59375,-0.5 z m 5.21004,17.16668 c 0.0472,1.99955 -0.39754,3.3629 -1.52254,3.83332 -1.76298,0.7372 -2.4464,2.77285 -3.09375,4.8125 -0.64735,2.03965 -0.62542,9.19505 1.3125,11.6875 1.9379,2.49245 3.40219,4.51947 3.65625,10 0.68841,-1.62018 1.66689,-8.82691 1.42056,-11.34375 0.54901,1.32429 0.17735,2.53901 0.44202,3.6875 -0.0892,-2.58357 0.006,-5.50303 -0.41996,-8.46119 -0.54028,-5.46964 -1.01014,-10.30247 -1.79508,-14.21588 z M 330,347 c -0.29902,0.79786 -0.67327,1.47843 -1.1875,1.96875 0.12967,-0.0127 0.33249,-0.0675 0.5,-0.0937 0.15817,-0.42076 0.34046,-0.89187 0.78125,-1.59375 -0.0332,-0.0923 -0.0621,-0.18863 -0.0937,-0.28125 z"
       id="path3063-4"
       style="color:#000000;fill:#cccccc;fill-opacity:1;stroke:none;marker:none;visibility:visible;display:inline;overflow:visible;enable-background:accumulate" />
    <path
       d="m 297.45155,284.8489 c 1.1242,1.28743 1.72836,5.42065 1.18898,8.06871 -0.53937,2.64806 4.28216,13.15614 5.30537,15.45163 -0.56546,-3.73774 -0.38287,-5.95161 -0.89446,-7.09935 -0.51162,-1.14775 -2.28707,-2.97034 -2.28707,-2.97034 2.11289,1.19066 4.30319,3.17229 4.30319,3.17229 -1.65515,-2.63291 -3.88416,-5.01002 -4.39576,-6.15777 -0.51161,-1.14774 0.91971,-4.88127 1.85035,-5.57126 1.02321,2.29548 0.82548,2.31484 -0.008,3.99354 -0.83388,1.6787 1.73676,1.4271 1.62064,0.24065 -0.11612,-1.18645 -1.31771,-3.26484 -0.64286,-4.5287 0.67483,-1.26387 1.32191,1.26807 2.07418,0.79517 0.75226,-0.4729 -0.0345,-2.39226 0.81452,-1.87644 0.84903,0.51581 3.12095,1.29163 2.23322,0.38034 -0.88774,-0.9113 -1.7174,-1.22937 -1.81417,-2.21808 -0.0968,-0.98871 -0.29452,-0.96935 -1.79482,-2.02033"
       id="path3202-5-7"
       style="color:#000000;fill:#cccccc;fill-opacity:1;stroke:none;marker:none;visibility:visible;display:inline;overflow:visible;enable-background:accumulate" />
    <path
       d="m 270.00836,285.93774 c 1.69386,3.02839 2.8761,4.90904 3.85638,8.80582 0.73711,-2.66741 1.10231,-7.09515 2.27362,-9.40578 -1.50452,0.94579 -2.24164,3.6132 -2.36196,4.42352 -1.02321,-2.29548 -2.46547,-2.75323 -3.76804,-3.82356 z"
       id="path3067-55"
       style="color:#000000;fill:#cccccc;fill-opacity:1;stroke:none;marker:none;visibility:visible;display:inline;overflow:visible;enable-background:accumulate" />
    <path
       d="m 246.0893,289.54336 c 0,0 0.59413,-8.19086 0.88934,-7.22172 0.37307,-0.18683 2.90963,-0.75601 6.16731,-0.50142 8.73627,0.68277 21.82835,-1.33504 29.37858,-1.2741 4.45939,0.036 7.83974,-0.52109 11.67456,-1.13381 11.80763,-1.88662 13.94833,-1.26305 24.48574,-4.02807 1.20334,0.0323 1.24488,2.04022 2.12762,4.30613 0.29193,0.74935 1.17746,0.80397 1.20281,2.48422 -2.23737,0.0986 -20.17149,3.97964 -30.5159,4.97587 -2.21799,0.0313 -6.81482,0.32029 -11.6156,0.99978 -1.42467,0.20164 -4.21462,0.0275 -5.83672,0.24261 -3.17137,0.4206 -7.05368,-0.15067 -10.86436,-0.11268 -3.82754,0.0382 -8.60491,0.76811 -10.11899,0.61196 -3.6532,-0.37678 -6.47206,0.19687 -6.97439,0.65123 z"
       id="path2987-9-24"
       style="color:#000000;fill:#f2f2f2;fill-opacity:1;stroke:#b3b3b3;stroke-width:0.5;stroke-linecap:butt;stroke-linejoin:miter;stroke-miterlimit:4;stroke-opacity:1;stroke-dasharray:none;stroke-dashoffset:0;marker:none;visibility:visible;display:inline;overflow:visible;enable-background:accumulate" />
    <path
       d="m 337.92374,593.48517 a 7.4152541,7.1504235 0 1 1 -14.83051,0 7.4152541,7.1504235 0 1 1 14.83051,0 z"
       transform="matrix(-0.18666827,0.01826959,0.01826959,0.18666827,343.4396,189.71324)"
       id="path3030-9"
       style="color:#000000;fill:none;stroke:#b3b3b3;stroke-width:1.33290553;stroke-linecap:round;stroke-linejoin:miter;stroke-miterlimit:4;stroke-opacity:1;stroke-dasharray:none;stroke-dashoffset:0;marker:none;visibility:visible;display:inline;overflow:visible;enable-background:new" />
    <path
       d="m 288.25139,328.08575 c 1.4462,-2.83273 2.77103,-3.87824 4.80314,-6.57257 2.03212,-2.69434 3.33468,-1.62401 3.90729,-5.97222 0.57261,-4.34822 -0.31513,-5.25952 -0.37866,-7.94838 -0.0635,-2.68887 -1.51041,-10.33306 -1.88989,-13.19065 -0.3795,-2.85757 -0.96642,-5.37296 -1.76284,-7.39119"
       id="path3032-1"
       style="color:#000000;fill:none;stroke:#b3b3b3;stroke-width:0.5;stroke-linecap:butt;stroke-linejoin:miter;stroke-miterlimit:4;stroke-opacity:1;stroke-dasharray:none;stroke-dashoffset:0;marker:none;visibility:visible;display:inline;overflow:visible;enable-background:accumulate" />
    <path
       d="m 284.91999,281.23422 c -0.0457,1.83446 0.23611,3.63688 0.58165,5.43306 3.89281,-0.30957 6.73022,-0.59719 8.89838,-0.8709 -0.6959,-1.93211 -0.89065,-3.19628 -1.08189,-4.93492 z"
       id="path3190-8"
       style="color:#000000;fill:none;stroke:#b3b3b3;stroke-width:0.25;stroke-linecap:round;stroke-linejoin:round;stroke-miterlimit:4;stroke-opacity:1;stroke-dasharray:none;stroke-dashoffset:0;marker:none;visibility:visible;display:inline;overflow:visible;enable-background:accumulate" />
    <path
       d="m 281.57963,287.89959 c 0.84692,1.5142 2.298,7.16162 0.78969,19.2874 3.61363,-12.03238 0.77624,-16.54594 -0.78969,-19.2874 z"
       id="path3034-9"
       style="color:#000000;fill:#cccccc;fill-opacity:1;stroke:none;marker:none;visibility:visible;display:inline;overflow:visible;enable-background:accumulate" />
    <path
       d="m 249.33761,281.77211 c -1.41532,0.83724 -1.11323,2.90385 -0.71987,3.86353 -0.0753,-1.78935 -0.35045,-2.56096 0.71987,-3.86353 z"
       id="path3036-1-1"
       style="color:#000000;fill:#cccccc;fill-opacity:1;stroke:none;marker:none;visibility:visible;display:inline;overflow:visible;enable-background:accumulate" />
    <path
       d="m 295.20152,286.7581 c 2.31336,3.44384 -0.0649,10.87597 3.88712,19.52367 3.95198,8.6477 4.48092,9.72525 5.47338,9.76928 0.99246,0.044 -4.35479,-9.87876 -4.74392,-10.96998 -0.38912,-1.09123 -1.27984,-2.98035 -0.96984,-4.14 0.31,-1.15965 -1.12336,-4.26614 -1.40002,-5.6507 -0.27668,-1.38456 -1.10669,-5.53824 -1.1888,-6.37719 -0.0821,-0.83895 -1.05792,-2.15508 -1.05792,-2.15508 z"
       id="path3038-67"
       style="color:#000000;fill:#cccccc;fill-opacity:1;stroke:none;marker:none;visibility:visible;display:inline;overflow:visible;enable-background:accumulate" />
    <path
       d="m 255.9138,289.19162 c -1.20667,2.0944 -1.67314,4.53984 -1.9861,7.11142 -0.31299,2.57158 -1.81297,4.55352 -2.49543,3.34984 -0.68246,-1.20368 -0.1697,-3.47956 0.8205,-4.59755 1.77963,-2.00931 2.84945,-5.50195 3.66103,-5.86371 z"
       id="path3040-7"
       style="color:#000000;fill:#cccccc;fill-opacity:1;stroke:none;marker:none;visibility:visible;display:inline;overflow:visible;enable-background:accumulate" />
    <path
       d="m 289.28125,335.5 c -0.11797,0.004 -0.27669,0.22697 -0.53125,0.78125 -0.10182,0.22171 -0.18526,0.52272 -0.25,0.875 l 0,0.0625 1.37306,14.79819 c 2.76087,0.97263 7.31437,1.50111 10.78314,1.82681 0.13061,0.0123 0.24632,0.049 0.375,0.0625 -2.44991,-0.65741 -5.47405,-1.6465 -5.9375,-1.78125 -0.72648,-0.21122 -1.20138,-0.99956 -0.25,-1.375 0.95141,-0.37544 1.432,-1.00845 0.34375,-2.03125 -1.08824,-1.02281 -2.11538,-2.88755 0.34375,-2.28125 -1.2007,-0.72947 -1.71071,-1.81045 1.25,-0.40625 -1.96825,-1.36014 -1.79031,-2.36474 1.5625,-1.28125 -1.78739,-0.95437 -4.20367,-2.4006 -2.21875,-2.3125 1.98491,0.0881 7.28497,2.23655 10.59375,4.3125 -5.18898,-5.42103 -10.63254,-6.29975 -11.625,-6.34375 -0.99245,-0.044 -5.87135,-2.18136 -5.6875,-3.1875 0.12641,-0.69172 0.13455,-1.72775 -0.125,-1.71875 z"
       id="path3042-9-3"
       style="color:#000000;fill:#cccccc;fill-opacity:1;stroke:none;marker:none;visibility:visible;display:inline;overflow:visible;enable-background:accumulate" />
    <path
       d="m 250.5625,288.34375 c -1.75424,0.0609 -2.1225,-0.16765 -3.57154,0.73301 -0.38451,2.12021 -0.79357,4.13394 -0.55185,6.79491 0.66572,7.32894 -0.39785,11.01176 -1.48849,15.25823 -1.66185,6.4705 -3.54212,24.62365 -3.95885,33.67766 -0.67805,8.39219 -0.69591,15.98942 -0.89146,16.20062 4.02016,0.55867 10.50606,1.7365 18.49344,1.89802 -1.04974,-2.19306 -2.2341,-4.84738 -3.375,-7.84375 -1.61222,-4.2342 2.43605,-11.61632 -0.21875,-18.34375 -2.65478,-6.72743 2.54806,-12.83741 0.71875,-17.25 -1.82933,-4.41259 -6.77408,-22.47778 -7.34375,-24.21875 -0.56966,-1.74097 0.98269,-4.09147 2.90625,-6.875 0,0 -0.24981,-0.0349 -0.71875,-0.0312 z"
       id="path3065-6"
       style="color:#000000;fill:#cccccc;fill-opacity:1;stroke:none;marker:none;visibility:visible;display:inline;overflow:visible;enable-background:accumulate" />
    <path
       d="m 276.64238,308.84549 c -2.42002,3.8303 -2.05231,7.5874 -0.5175,11.03063 1.53481,3.44323 0.46028,6.74258 1.85961,8.80162 1.39935,2.05903 4.95448,3.70745 7.149,3.6923 2.19451,-0.0151 0.61679,-1.85709 -0.90288,-3.10581 -1.51968,-1.24872 -1.5264,-7.43677 -4.25187,-8.76711 -2.72547,-1.33034 -1.84867,-4.61033 -2.53866,-5.54098 -0.69,-0.93065 -1.85289,-2.61356 -0.7977,-6.11065 z"
       id="path3069-1-0"
       style="color:#000000;fill:#cccccc;fill-opacity:1;stroke:none;marker:none;visibility:visible;display:inline;overflow:visible;enable-background:accumulate" />
    <path
       d="m 294.35414,328.67269 c 1.97742,-0.19353 5.8397,-3.56608 7.32487,-4.70961 1.48518,-1.14354 4.50684,-9.02544 4.67007,-11.43705 0.16326,-2.41161 -0.79348,-8.10742 0.45524,-9.62708 1.24871,-1.51967 3.29513,3.07131 3.60899,4.2384 0.31388,1.1671 1.84026,8.60388 -0.0446,11.78289 -1.88485,3.17901 0.22804,4.36967 1.41028,6.25033 1.18224,1.88065 -0.50907,7.03708 -2.58327,6.2419 -2.07419,-0.79517 -3.45416,-2.65647 -7.24996,-2.68424 -3.79582,-0.0278 -6.09129,0.99544 -7.59162,-0.0555 z"
       id="path3071-01"
       style="color:#000000;fill:#cccccc;fill-opacity:1;stroke:none;marker:none;visibility:visible;display:inline;overflow:visible;enable-background:accumulate" />
    <path
       d="m 291.8125,329.46875 c -1.6013,-0.0429 -2.55476,0.92031 -3.25,1.90625 -0.0263,0.0373 -0.0658,0.10776 -0.0937,0.15625 l 0.0312,3.90625 c 0.11345,-0.17246 0.23501,-0.32652 0.34375,-0.40625 0.86995,-0.63786 1.24274,-2.02053 1.4375,-2.90625 0.19474,-0.88573 -0.0507,-2.50142 1.53125,-2.65625 z m -5.1875,5.65625 c -0.88082,1.34837 -2.10438,2.6026 -3.9375,2.875 -3.93548,0.58481 -4.7714,4.25099 -1.90625,4.96875 2.86515,0.71777 -0.29329,3.03538 -1.9375,4.59375 -1.6442,1.55838 -0.59164,8.23224 1.78125,8 1.30199,-0.12743 2.67463,-2.18364 3.65625,-4.3125 0.62423,-4.99347 1.46396,-11.22135 2.34375,-16.125 z"
       id="path3073-8"
       style="color:#000000;fill:#cccccc;fill-opacity:1;stroke:none;marker:none;visibility:visible;display:inline;overflow:visible;enable-background:accumulate" />
    <path
       d="m 302.4519,280.86588 c 0.0263,-0.75121 0.24276,-2.61903 0.24276,-2.61903 0.4525,1.05371 -0.26212,2.42129 -0.24276,2.61903 z"
       id="path3192-0"
       style="color:#000000;fill:#cccccc;fill-opacity:1;stroke:none;marker:none;visibility:visible;display:inline;overflow:visible;enable-background:accumulate" />
    <path
       d="m 303.89143,280.27581 c -0.0978,-0.48952 -0.0356,-1.89306 0.0391,-2.14992 0.25475,1.07307 -0.1176,1.85815 -0.0391,2.14992 z"
       id="path3194-50"
       style="color:#000000;fill:#cccccc;fill-opacity:1;stroke:none;marker:none;visibility:visible;display:inline;overflow:visible;enable-background:accumulate" />
    <path
       d="m 305.14666,280.35259 c -0.18111,-0.83072 -0.27788,-1.81943 -0.0297,-2.34282 0.36436,0.66307 -0.0187,1.84847 0.0297,2.34282 z"
       id="path3196-22"
       style="color:#000000;fill:#cccccc;fill-opacity:1;stroke:none;marker:none;visibility:visible;display:inline;overflow:visible;enable-background:accumulate" />
    <path
       d="m 268.82912,283.41033 c -0.39745,-0.45518 -0.37396,-1.65737 0.21421,-2.13843 -0.17701,1.07606 -0.28263,1.43931 -0.21421,2.13843 z"
       id="path3198-2"
       style="color:#000000;fill:#cccccc;fill-opacity:1;stroke:none;marker:none;visibility:visible;display:inline;overflow:visible;enable-background:accumulate" />
    <path
       d="m 260.41675,281.83388 c 0.3686,0.88149 -0.34332,3.70386 0.54739,5.59298 -1.20606,-1.50535 -1.97747,-3.61789 -1.53449,-4.86114 0.0259,0.98562 0.11632,1.18851 0.38078,1.72729 0.0851,-0.57299 0.14966,-1.35571 0.14966,-1.35571 -0.0152,0.56614 0.19991,1.32149 0.19991,1.32149 0.13448,-0.78956 0.43762,-2.01912 0.25675,-2.42491 z"
       id="path3200-9"
       style="color:#000000;fill:#cccccc;fill-opacity:1;stroke:none;marker:none;visibility:visible;display:inline;overflow:visible;enable-background:accumulate" />
    <path
       d="m 280.0364,288.4499 c -0.18597,-0.88016 -1.17047,-2.78017 -1.30804,-3.16597 1.01563,1.19823 1.25966,2.67162 1.30804,3.16597 z"
       id="path3204-3"
       style="color:#000000;fill:#cccccc;fill-opacity:1;stroke:none;marker:none;visibility:visible;display:inline;overflow:visible;enable-background:accumulate" />
    <path
       d="m 281.50011,288.10701 c -1.08548,-0.89194 -1.33498,-4.46097 -1.53061,-5.44001 0.39128,1.95807 0.46658,3.74742 0.90078,4.1042 0.43418,0.35678 0.55241,0.54484 0.62983,1.33581 z"
       id="path3206-52"
       style="color:#000000;fill:#cccccc;fill-opacity:1;stroke:none;marker:none;visibility:visible;display:inline;overflow:visible;enable-background:accumulate" />
    <path
       d="m 284.23819,283.44704 c -0.75983,-0.62436 -0.55787,-2.64049 -0.0829,-2.88661 -0.15146,1.51209 -0.12243,1.8087 0.0829,2.88661 z"
       id="path3208-2"
       style="color:#000000;fill:#cccccc;fill-opacity:1;stroke:none;marker:none;visibility:visible;display:inline;overflow:visible;enable-background:accumulate" />
    <path
       d="m 258.10095,288.70022 c -1.19403,-0.98113 -1.60677,-2.13855 -1.64548,-2.53403 -0.0387,-0.39549 0.2213,-1.81839 -0.26127,-2.66952 0.22468,1.27564 0.20321,2.07629 0.0732,2.78774 -0.13,0.71145 -0.19985,1.01774 -0.0623,1.40354 -0.56209,-0.64371 -0.57177,-0.74258 -0.82758,-1.31645 -0.0214,0.80064 0.96515,1.70226 0.82547,2.31484 -0.13968,0.61258 0.7308,0.32775 0.53517,-0.65129 0.23644,0.37614 0.82,0.2192 1.36274,0.66517 z"
       id="path3210-0"
       style="color:#000000;fill:#cccccc;fill-opacity:1;stroke:none;marker:none;visibility:visible;display:inline;overflow:visible;enable-background:accumulate" />
    <path
       d="m 311.48246,279.30634 c -0.27817,-0.67859 0.22789,-1.9986 -0.83448,-2.03578 1.28044,-0.6194 0.89904,1.25306 0.83448,2.03578 z"
       id="path3212-2"
       style="color:#000000;fill:#cccccc;fill-opacity:1;stroke:none;marker:none;visibility:visible;display:inline;overflow:visible;enable-background:accumulate" />
    <path
       d="m 314.27211,278.96273 c 0.12763,-0.85947 0.24842,-1.78886 -0.51913,-2.41956 0.93622,0.1907 1.10878,1.23254 0.51913,2.41956 z"
       id="path3214-1"
       style="color:#000000;fill:#cccccc;fill-opacity:1;stroke:none;marker:none;visibility:visible;display:inline;overflow:visible;enable-background:accumulate" />
    <path
       d="m 314.91412,276.1472 c -0.14815,0.64974 0.0464,1.19535 0.22045,1.53123 0.29481,-0.59351 0.52656,-1.11027 -0.22045,-1.53123 z"
       id="path3216-2"
       style="color:#000000;fill:#cccccc;fill-opacity:1;stroke:none;marker:none;visibility:visible;display:inline;overflow:visible;enable-background:accumulate" />
    <path
       d="m 315.82423,276.05529 c 0.85949,0.12763 1.01265,0.9614 0.90703,1.32465 -0.1056,0.36324 -0.0504,0.92437 0.35387,1.44946 -0.2234,-0.1193 -0.40491,-0.52601 -0.49536,-0.7289 -0.11245,0.29333 -0.1614,0.51156 0.34017,1.30946 -0.30702,-0.25228 -0.8868,-1.11524 -1.14443,-1.5841 -0.0919,0.50307 0.0481,0.49115 0.41702,1.37261 -0.17403,-0.33588 -0.79579,-0.91214 -0.70388,-1.41521 0.0919,-0.50307 0.2534,-1.015 -0.29757,-1.59631 0.56615,0.0152 0.47498,0.51968 0.60647,1.14205 0.16184,-0.50991 0.40047,-0.95836 0.0167,-1.27371 z m 0.48852,0.6589 c 0.0274,0.27965 -0.46354,1.03583 -0.0319,1.84057 -0.11096,-0.41264 0.37995,-1.16882 0.0319,-1.84057 z"
       id="path3218-35"
       style="color:#000000;fill:#cccccc;fill-opacity:1;stroke:none;marker:none;visibility:visible;display:inline;overflow:visible;enable-background:accumulate" />
    <path
       d="m 318.68575,275.38654 c 1.20334,0.0322 1.24627,2.03689 2.12901,4.3028 0.29193,0.74935 1.17785,0.80504 1.20318,2.48529 -0.38338,0.0169 -1.25638,0.15155 -2.44443,0.35703 0.11677,-0.44236 -0.0497,-0.91086 -0.96935,-1.35977 0.26763,0.55926 0.36351,1.13685 0.31474,1.47095 -0.0516,0.009 -0.10902,0.0241 -0.16162,0.0335 0.11135,-0.7248 -0.5419,-1.20435 -0.60784,-1.87808 -0.28409,0.53208 -0.18372,0.68886 -0.56738,1.0626 0.11762,-0.51579 -0.0549,-2.26211 -0.22777,-3.16969 0.39003,0.55015 0.54595,1.28943 0.55232,2.21331 0.28411,-0.53208 0.4847,-1.05351 0.16978,-1.69506 -0.31493,-0.64154 0.31296,-1.12356 -0.0997,-2.76408 0.38188,0.4669 0.19172,1.1592 1.11383,1.99346 -0.39004,-0.55015 -0.35243,-1.05723 -0.31806,-1.56487 0.0334,-0.49344 0.15781,-0.84092 -0.80502,-1.30518 0.24171,-0.0621 0.46737,-0.11635 0.71834,-0.1822 z"
       id="path3360-0-6"
       style="color:#000000;fill:#cccccc;fill-opacity:1;stroke:none;marker:none;visibility:visible;display:inline;overflow:visible;enable-background:accumulate" />
    <path
       d="m 247.28152,282.35558 c -0.60082,0.73117 -0.0967,2.44679 0.0273,2.85488 0.0507,-0.34114 -0.0145,-1.00712 0.0361,-1.34826 0.13214,0.49134 0.33122,0.80804 0.60541,1.03334 -0.72125,-1.35819 -0.7457,-1.60793 -0.66881,-2.53996 z"
       id="path3362-2"
       style="color:#000000;fill:#cccccc;fill-opacity:1;stroke:none;marker:none;visibility:visible;display:inline;overflow:visible;enable-background:accumulate" />
    <path
       d="m 246.69806,286.69901 c 0.90403,1.50839 0.10416,1.92286 0.16934,2.58885 -0.60543,-1.03334 0.14558,-1.9473 -0.16934,-2.58885 z"
       id="path3364-4"
       style="color:#000000;fill:#cccccc;fill-opacity:1;stroke:none;marker:none;visibility:visible;display:inline;overflow:visible;enable-background:accumulate" />
    <path
       d="m 254.53969,286.09963 c 0.87959,1.25864 0.0308,1.17362 -0.66953,1.74644 0.34292,-0.78997 0.69397,-1.4967 0.66953,-1.74644 z"
       id="path3366-9-9"
       style="color:#000000;fill:#cccccc;fill-opacity:1;stroke:none;marker:none;visibility:visible;display:inline;overflow:visible;enable-background:accumulate" />
    <path
       d="m 260.53043,281.89692 c 0.49955,-0.0187 1.00604,-0.0406 1.51301,-0.0656 -0.41654,0.0879 -0.0487,0.49403 0.0669,0.92396 -0.39816,-0.6334 -0.75484,-0.85283 -0.7141,-0.43659 0.0407,0.41624 0.46615,1.30043 0.37299,2.06596 0.30041,-0.36559 0.35571,-0.62165 0.3982,-1.04604 0.11585,0.32485 -0.3352,2.55353 0.17066,3.42852 0.01,-0.75738 0.14159,-1.10827 0.2429,-1.79055 -0.0524,1.18177 0.18748,1.91553 0.56886,2.38248 0.26044,0.31841 0.59834,0.62536 0.82624,0.9203 -0.26407,-0.003 -0.53128,-10e-4 -0.79494,10e-4 -0.38159,0.004 -0.77252,0.016 -1.16883,0.0319 -0.78647,-0.77083 -0.98771,-1.45387 -0.72882,-2.03113 0.27596,-0.61533 0.22701,-1.11553 -0.14673,-1.49918 -0.37374,-0.38365 -0.12218,-1.24835 -0.12218,-1.24835 0,0 0.47223,-1.24163 -0.48413,-1.63694 z m 1.78249,-0.0802 c 0.47143,-0.0242 0.94704,-0.0576 1.42266,-0.0862 0.29258,0.76213 0.42191,1.53062 0.0836,2.11784 -0.3592,0.62347 0.005,1.76533 0.23636,2.41502 -0.29863,-0.47505 -0.60766,-1.03384 -0.6484,-1.45008 -0.2515,0.86507 0.0957,1.83617 0.2278,2.32752 -0.97097,-1.33375 -0.79197,-2.94478 -0.64993,-3.21082 0.13947,-0.26121 0.0481,-2.03937 -0.67208,-2.11325 z"
       id="path3368-6"
       style="color:#000000;fill:#cccccc;fill-opacity:1;stroke:none;marker:none;visibility:visible;display:inline;overflow:visible;enable-background:accumulate" />
    <path
       d="m 268.36917,291.7219 c 0.0291,2.01425 1.49704,8.42614 0.84382,10.33908 -0.65323,1.91294 -1.76558,16.30957 -1.12297,19.44041 0.64261,3.13084 4.21342,6.98365 5.44406,7.53557 1.23067,0.55191 0.65172,-1.5905 -0.35849,-3.66293 -0.95292,-1.95491 0.25861,-4.22759 -0.43642,-6.17666 -0.69503,-1.94908 -0.54695,-9.02341 0.40667,-11.30193 0.95364,-2.27852 0.39251,-4.57688 -0.22104,-5.69347 -0.61356,-1.11659 -0.6752,-3.46383 0.0758,-4.37779 0.75101,-0.91396 -0.87781,-2.09928 -1.67417,-3.36607 -0.79634,-1.26679 -0.32591,-3.32993 -1.58916,-4.21484 1.19454,1.90019 -0.43784,2.39613 0.47257,4.8284 -1.16193,-1.56719 -1.44249,-2.71637 -1.84067,-3.34977 z"
       id="path3370-2"
       style="color:#000000;fill:#cccccc;fill-opacity:1;stroke:none;marker:none;visibility:visible;display:inline;overflow:visible;enable-background:accumulate" />
    <path
       d="m 249.09879,288.90137 c -0.86507,-0.25151 -1.41344,-0.70212 -1.03439,-2.84036 0.039,1.25688 0.80272,2.19067 1.03439,2.84036 z"
       id="path3372-6-4"
       style="color:#000000;fill:#cccccc;fill-opacity:1;stroke:none;marker:none;visibility:visible;display:inline;overflow:visible;enable-background:accumulate" />
    <path
       d="m 249.47784,286.76313 c -0.25966,0.78183 -0.28764,2.21334 1.29407,2.05854 -0.88952,-0.50126 -1.23703,-1.4758 -1.29407,-2.05854 z"
       id="path3374-3"
       style="color:#000000;fill:#cccccc;fill-opacity:1;stroke:none;marker:none;visibility:visible;display:inline;overflow:visible;enable-background:accumulate" />
  </g>
</svg>
