<?xml version="1.0" encoding="UTF-8" standalone="no"?>
<!-- Created with Inkscape (http://www.inkscape.org/) -->

<svg
   xmlns:dc="http://purl.org/dc/elements/1.1/"
   xmlns:cc="http://creativecommons.org/ns#"
   xmlns:rdf="http://www.w3.org/1999/02/22-rdf-syntax-ns#"
   xmlns:svg="http://www.w3.org/2000/svg"
   xmlns="http://www.w3.org/2000/svg"
   version="1.1"
   width="560"
   height="560"
   id="wings_devil">
  <g
     transform="translate(-2.791256e-6,-0.9999966)"
     id="g212781"
     style="display:inline;enable-background:new">
    <g
       id="g212772">
      <path
         d="m 418.02981,239.89066 c -2.71601,-10.86403 -6.63914,-24.74585 -10.56226,-26.55652 -3.92312,-1.81067 -8.4498,-5.43202 -9.95869,-7.24269 -1.5089,-1.81068 -3.62135,-1.20711 -5.7338,-1.5089 -2.11245,-0.30178 -8.44981,1.5089 -11.46759,1.81068 -3.01779,0.30178 -7.84624,5.13024 -9.05336,6.94091 -1.20712,1.81067 -5.43202,6.94091 -6.94091,9.35513 -1.50889,-10.26047 -4.52668,-20.21917 -11.46759,-23.84051 -6.94091,-3.62134 -13.88182,-6.63913 -16.29605,-6.94091 -2.41423,-0.30178 -12.97649,-1.50889 -16.29605,-3.01779 -3.31957,-1.50889 -13.76309,-8.23955 -12.6747,-12.6747 12.07114,-49.18993 53.116,-156.079352 67.29664,-154.208914 6.10225,0.804891 46.47392,193.741924 43.15436,217.884214 z"
         id="path22944"
         style="fill:#5f8dd3;fill-opacity:1;fill-rule:evenodd;stroke:#0b1728;stroke-width:1px;stroke-linecap:butt;stroke-linejoin:miter;stroke-opacity:1" />
      <path
         d="m 379.8916,35.279154 c 0.0426,0.0029 0.0831,0.01608 0.12612,0.02102 4.52475,15.841439 11.03615,44.049913 17.42466,74.638086 -1.52676,27.64131 9.79771,67.2241 15.36481,112.19884 -1.69799,-4.52251 -3.52065,-7.96777 -5.3388,-8.80692 -0.0221,-0.0102 -0.041,-0.0317 -0.063,-0.042 -4.37885,-31.04137 -21.94845,-140.826576 -24.61312,-140.826576 -2.83953,0 13.60654,111.753856 15.97436,134.920266 -0.51326,-0.47724 -0.95977,-0.92052 -1.26113,-1.28215 -1.16217,-1.39461 -2.68537,-1.3613 -4.28786,-1.40827 -2.54991,-24.62602 -9.12382,-78.20789 -15.97435,-125.819084 -0.4134,17.362573 4.30409,107.823984 5.38083,127.143274 -0.87145,0.16628 -1.66906,0.31404 -2.31208,0.37834 -1.69924,0.16992 -3.96559,1.77467 -5.84325,3.46812 1.25343,-44.14305 -1.4742,-141.672382 1.07196,-166.406566 0.60684,-5.894893 2.2267,-8.321008 4.35092,-8.176349 z"
         id="path22960"
         style="fill:#547cba;fill-opacity:1;fill-rule:evenodd;stroke:none" />
      <path
         d="m 372.3248,41.521765 c 0.2506,0.04714 0.47154,0.271485 0.65159,0.651585 3.52304,7.437533 -3.91582,146.6634 -7.96616,179.4593 -0.27235,0.38834 -0.4992,0.73986 -0.69363,1.05094 -1.48622,-10.10631 -4.43999,-19.9141 -11.16103,-23.66727 5.41441,-41.27923 11.62652,-104.358797 9.16424,-104.358797 -2.2989,0 -16.2609,73.455237 -19.71572,99.314267 -2.71019,-1.14554 -4.90489,-1.91629 -6.05344,-2.05986 -0.1192,-0.0149 -0.45248,-0.0648 -0.60955,-0.0841 1.95025,-17.18951 7.8501,-70.3564 19.10617,-96.74996 -10.24271,21.76576 -16.21559,35.42408 -18.34949,40.54544 11.38967,-29.69452 30.53152,-95.060117 35.62702,-94.101575 z"
         id="path22962"
         style="fill:#547cba;fill-opacity:1;fill-rule:evenodd;stroke:none" />
      <path
         d="m 305.16457,174.40468 c 4.22491,-18.4085 30.68765,-89.986875 42.2107,-114.740087 11.52305,-24.753209 19.35216,-33.131466 23.57706,-39.770598 4.2249,-6.639131 8.4498,2.41423 9.35514,6.035574 0.90534,3.621344 0.30178,4.224902 1.20711,6.94091 0.90534,2.716008 0,5.130238 2.11246,10.864033 2.11245,5.733795 8.16381,27.813489 11.67254,46.231433 3.84102,20.162185 17.72427,88.754875 19.58744,102.243685 0.79226,5.73575 3.73937,18.11315 4.55811,24.28455 0.93013,7.01097 0.49105,18.66705 0.69605,20.28392 0.35225,2.7782 0.64017,6.40169 -2.34729,7.25525 -2.98745,0.85356 -5.12135,-2.98746 -3.41424,-6.40169 1.70712,-3.41424 2.98747,-10.24272 2.56068,-16.21762 -0.42678,-5.97492 -9.47278,-53.64849 -10.98167,-61.79651 -1.50889,-8.14802 -20.17323,-98.672594 -28.28204,-114.036658 -1.70712,6.828472 -2.1339,26.46033 -2.1339,34.995924 0,8.535586 -3.41424,93.464704 -4.69458,107.548434 -1.28033,14.08373 -4.26779,33.28881 -3.41423,36.70304 0.85356,3.41424 -1.28034,2.98746 -3.84102,3.41424 -2.56068,0.42678 -4.26779,-2.98746 -2.13389,-5.12136 2.13389,-2.13389 6.82847,-52.0671 7.25525,-67.43116 0.42678,-15.36407 2.56068,-98.58607 3.84101,-106.694882 -7.25525,5.548134 -11.09626,20.912196 -13.65694,29.447789 -2.56068,8.535587 -19.20508,50.786763 -22.61932,60.175913 -3.41423,9.38915 -18.7783,61.88303 -17.92473,64.01692 0.85355,2.1339 -0.85357,5.97492 -3.84102,5.54814 -2.98746,-0.42678 -2.98746,-3.41424 -0.85356,-6.40169 2.1339,-2.98746 20.05863,-64.87049 23.04609,-73.40608 2.98746,-8.53559 13.23017,-34.56914 15.36407,-41.397616 2.1339,-6.828469 13.23016,-42.251172 15.36406,-44.385069 2.1339,-2.133897 -1.70712,-6.828472 -1.70712,-9.815929 -2.56068,5.548134 -5.54813,13.230166 -7.68203,16.644402 -2.1339,3.414236 -10.24271,15.364063 -12.37661,20.912197 -2.1339,5.548133 -4.2678,13.656945 -6.82847,18.778297 -2.56068,5.121353 -30.72812,68.711508 -28.16744,92.611158 -2.98747,1.70712 -5.12136,-5.12136 -5.50767,-7.31886 z"
         id="path22942"
         style="fill:#214478;fill-opacity:1;fill-rule:evenodd;stroke:#0b1728;stroke-width:1px;stroke-linecap:butt;stroke-linejoin:miter;stroke-opacity:1" />
      <path
         d="m 419.28762,241.89945 c -2.1339,16.85779 -6.1883,22.8327 -22.19254,28.59422 11.73644,-9.17576 16.64441,-9.60254 17.49797,-28.16744 1.9205,-1.28034 2.98746,-0.64018 4.69457,-0.42678 z"
         id="path22956"
         style="fill:#afc6e9;fill-rule:evenodd;stroke:#5f8dd3;stroke-width:1px;stroke-linecap:butt;stroke-linejoin:miter;stroke-opacity:1" />
      <path
         d="m 365.94018,227.81572 c -1.06695,-0.85356 -3.20085,-0.64017 -4.26779,-0.42678 -1.49374,10.88288 -6.18831,26.46033 -9.81593,32.43525 9.17575,-10.4561 12.3766,-27.52728 14.08372,-32.00847 z"
         id="path22958"
         style="fill:#afc6e9;fill-rule:evenodd;stroke:#5f8dd3;stroke-width:1px;stroke-linecap:butt;stroke-linejoin:miter;stroke-opacity:1" />
      <path
         d="m 371.78488,19.271152 c 2.05276,-5.865011 6.10314,-10.3283881 10.32839,-14.0841654 -3.28631,6.5726104 -4.22525,12.6757494 -4.22525,15.9620544 0,3.286305 -7.33669,1.646543 -6.10314,-1.877889 z"
         id="path22992"
         style="fill:#afc6e9;fill-rule:evenodd;stroke:#5f8dd3;stroke-width:1px;stroke-linecap:butt;stroke-linejoin:miter;stroke-opacity:1" />
    </g>
    <g
       transform="matrix(0.67260453,0,0,0.67260453,571.0501,10.611809)"
       id="g23219">
      <path
         d="m -457.77364,330.13299 0,0 c -4.03805,-7.62742 -16.60086,-39.93179 -17.94688,-45.31586 -3.58937,4.03805 -11.21679,-3.1407 -13.01148,-6.73007 -1.79469,-3.58938 -8.07609,-7.17875 -12.56281,16.60085 -7.17875,-10.31945 -22.43359,-22.43359 -24.67695,-24.22827 -2.24336,-1.79469 -7.62742,0 -11.66547,-0.89735 -4.03804,-0.89734 -7.62742,6.73008 -13.46015,5.38406 -5.83273,-1.34601 -11.21679,-8.07609 -14.3575,-0.89734 -3.1407,7.17875 -4.48672,5.83273 -6.73007,6.73008 -2.24336,0.89734 -3.58938,0.89734 -4.93539,5.83273 -1.34602,4.93539 -9.87078,5.83273 -12.11414,16.60086 -2.24336,10.76812 -3.58938,8.97343 -4.48672,14.3575 -6.73008,-9.42211 -13.90883,-19.29289 -22.43359,-18.84422 -8.52477,0.44867 -13.90883,7.62742 -18.84422,11.66547 -4.93539,4.03804 -14.3575,9.87078 -19.29289,22.88226 10.76812,-101.39983 60.5707,-280.868558 101.84851,-290.739333 7.17874,-12.562811 12.56281,-5.832734 16.15218,5.384061 3.58937,11.216795 14.80617,46.213197 18.39554,60.122022 3.58938,13.90883 15.25485,42.17515 18.84422,50.25124 3.58937,8.0761 29.16367,63.7114 35.89375,82.10694 6.73007,18.39555 25.12562,45.31586 33.65038,54.73797 -8.52476,11.66546 -22.43359,30.50968 -28.26632,34.9964 z"
         id="path22934"
         style="fill:#5f8dd3;fill-opacity:1;fill-rule:evenodd;stroke:#0b1728;stroke-width:1.48675776px;stroke-linecap:butt;stroke-linejoin:miter;stroke-opacity:1" />
      <path
         d="m -477.18871,295.72666 c 3.48995,11.86586 5.58393,30.71163 2.79196,48.16141 10.46987,-21.63773 6.97992,-41.87948 4.88594,-49.55739 -2.09397,-7.6779 -8.37589,2.09398 -7.6779,1.39598 z"
         id="path22998"
         style="fill:#afc6e9;fill-rule:evenodd;stroke:#5f8dd3;stroke-width:1.48675776px;stroke-linecap:butt;stroke-linejoin:miter;stroke-opacity:1" />
      <path
         d="m -503.01439,299.91461 c 4.18794,15.35581 1.39598,34.20158 -0.698,43.27547 11.86586,-18.84577 8.3759,-39.08752 6.97992,-46.06743 -2.79197,0 -6.28192,2.79196 -6.28192,2.79196 z"
         id="path23000"
         style="fill:#afc6e9;fill-rule:evenodd;stroke:#5f8dd3;stroke-width:1.48675776px;stroke-linecap:butt;stroke-linejoin:miter;stroke-opacity:1" />
      <path
         d="m -595.14926,322.25034 c 1.39598,13.26183 6.28192,38.38953 15.35581,43.27547 -5.58393,-13.95983 -9.77188,-35.59757 -9.07389,-43.97346 -0.69799,-0.698 -6.97991,0.69799 -6.28192,0.69799 z"
         id="path23002"
         style="fill:#afc6e9;fill-rule:evenodd;stroke:#5f8dd3;stroke-width:1.48675776px;stroke-linecap:butt;stroke-linejoin:miter;stroke-opacity:1" />
      <path
         d="m -653.08255,348.07602 c 9.77188,15.35581 23.03372,28.61765 40.4835,32.8056 -15.35581,-9.77188 -31.40961,-23.73171 -34.89957,-36.29556 -1.39598,0 -6.28192,4.18795 -5.58393,3.48996 z"
         id="path23004"
         style="fill:#afc6e9;fill-rule:evenodd;stroke:#5f8dd3;stroke-width:1.48675776px;stroke-linecap:butt;stroke-linejoin:miter;stroke-opacity:1" />
      <path
         d="m -550.05532,38.96875 c 22.91621,84.71223 60.54249,167.69245 62.46875,179.25 1.82525,10.95148 20.13497,77.7843 29.1875,110.65625 -4.56353,-9.34795 -16.0288,-38.92769 -17.3125,-44.0625 -3.01895,3.39631 -8.89093,-1.14853 -11.75,-4.8125 -11.95006,-45.89587 -42.82107,-152.81959 -56.375,-187.15625 5.55776,17.59957 37.18515,148.17962 49.21875,183.78125 -0.32672,0.3029 -0.66529,0.67678 -1,1.125 -30.60959,-48.23355 -47.37923,-145.04239 -52.15625,-192.8125 -1.97421,11.845307 -3.95587,35.53907 -2.96875,55.28125 -1.97422,-8.88398 -2.95234,-8.8801 -8.875,-69.09375 -5.69274,23.719731 16.67131,171.12218 21.0625,198.40625 -1.91799,0.14061 -3.77048,1.91163 -5.875,3.4375 -8.76751,-39.12201 -15.77304,-114.8584 -19.15625,-173.21875 -4.65455,30.72009 1.11242,138.7286 2.625,171.09375 -1.75362,-0.24075 -3.30069,0.47747 -4.5,3.21875 -0.79637,1.82028 -1.48427,3.06912 -2.09375,3.96875 -3.21413,-36.38052 -5.33375,-100.87778 -6.875,-148.65625 -6.24916,47.31506 -1.21413,125.91163 2,151.5 -1.6806,0.64538 -2.87205,0.94296 -3.9375,3.5 -4.96536,-35.3613 -4.68868,-102.42579 -2.03125,-152.03125 -9.16888,42.17686 -9.79382,142.19539 -5.09375,160.96875 -2.36758,2.12645 -4.72337,4.97844 -5.75,9.90625 -0.44821,2.15143 -0.8386,3.6941 -1.21875,5 -4.65536,-17.48089 -2.56943,-128.36815 8.125,-182.8125 -8.06568,20.61229 -27.52402,142.12601 -29.5625,173.9375 -1.37981,-0.47022 -2.79636,-0.70151 -4.25,-0.625 -6.73982,0.35473 -11.5124,4.92226 -15.65625,8.8125 7.6378,-25.98784 22.35996,-113.56091 39.59375,-187.03125 -35.45939,83.32958 -53.38704,170.60332 -48.8125,194.6875 -4.64002,3.89278 -9.97048,9.36535 -13.28125,18.09375 10.76811,-101.39982 60.59719,-280.879225 101.875,-290.75 0.81937,-1.433894 1.60239,-2.609266 2.375,-3.5625 z"
         id="path23006"
         style="fill:#5178b4;fill-opacity:1;fill-rule:evenodd;stroke:none" />
      <path
         d="m -542.18032,224.125 c 2.08447,6.25339 10.02387,34.21035 14.40625,45.625 -1.17955,-0.19548 -2.6318,-0.12076 -4.15625,-0.0312 -3.45597,-10.13751 -8.42765,-29.19261 -10.25,-45.59375 z"
         id="path23008"
         style="opacity:0.15;fill:#000000;fill-rule:evenodd;stroke:#0b1728;stroke-width:1.48675776px;stroke-linecap:butt;stroke-linejoin:miter;stroke-opacity:1" />
      <path
         d="m -421.8799,287.95783 c -11.2168,-10.31945 -11.2168,-10.31945 -11.2168,-10.31945 0,0 -20.6389,-22.88227 -29.16366,-35.44508 -8.52477,-12.56281 -26.47164,-36.34241 -29.16367,-43.96984 -2.69203,-7.62742 -7.17875,-21.53624 -9.42211,-28.26632 -2.24336,-6.73008 -10.31945,-23.33093 -14.3575,-35.44507 -4.03804,-12.11414 -13.01148,-37.688436 -15.70351,-44.418513 -2.69203,-6.730077 -8.97344,-26.471637 -8.52477,-29.61234 0.44868,-3.140703 6.28141,-25.125622 -6.73007,-34.54773 -13.01149,-9.422108 -19.74156,4.486718 -21.98492,8.524765 -2.24336,4.038046 -9.42211,19.74156 -10.76813,24.67695 -9.87078,13.908826 -63.56268,140.836598 -77.7702,264.468858 0,29.41118 5.08537,28.51384 9.57209,25.37313 4.48672,-3.1407 -1.79469,-9.4221 -3.14071,-12.11413 -1.34601,-2.69204 6.25898,-75.44174 20.85289,-124.29961 14.5939,-48.85787 41.87817,-142.766497 69.79695,-157.994923 -15.22843,31.091371 -31.42516,74.110803 -35.01453,145.898293 -3.58937,71.78749 1.79469,105.88655 -0.89734,115.75733 -2.69203,9.87078 2.24336,10.99247 3.81371,10.99247 4.20119,-1.12571 5.6084,-4.26238 3.58938,-9.87078 0,-10.76812 -2.91637,-53.16761 -2.4677,-71.11448 0.44867,-17.94687 -0.7494,-115.52069 34.78359,-189.759268 -4.44162,72.335028 13.32487,171.319798 50.76142,238.578678 0,7.61421 4.44163,10.15228 6.9797,9.20051 2.53807,-0.95178 3.8071,-5.07615 0.31726,-9.83503 -3.48985,-4.75888 -53.80752,-86.77067 -52.01283,-232.140334 17.94687,55.635304 64.60874,181.263414 71.78749,225.233254 -2.69204,10.76812 2.24335,10.76812 4.48671,10.76812 2.24336,0 7.62742,-0.89735 3.14071,-9.87078 -4.48672,-8.97344 -18.84422,-56.08398 -24.67695,-80.31226 17.04953,24.22828 41.2778,72.23617 61.46803,95.11843"
         id="path22892"
         style="fill:#214478;fill-opacity:1;fill-rule:evenodd;stroke:#0b1728;stroke-width:1.48675776px;stroke-linecap:butt;stroke-linejoin:miter;stroke-opacity:1" />
      <path
         d="m -546.98785,26.301978 c 1.32672,-7.516284 -4.18795,-18.1477766 -8.3759,-23.7317079 2.79196,6.2819227 -0.60603,16.4216469 -1.39598,23.7317079 -0.34993,3.238204 8.8173,5.407982 9.77188,0 z"
         id="path22994"
         style="fill:#afc6e9;fill-rule:evenodd;stroke:#5f8dd3;stroke-width:1.48675776px;stroke-linecap:butt;stroke-linejoin:miter;stroke-opacity:1" />
    </g>
  </g>
</svg>
