<?xml version="1.0" encoding="UTF-8" standalone="no"?>
<svg xmlns="http://www.w3.org/2000/svg" id="body_ears_default" width="560" height="560">
  <g id="g20631" style="display:inline;fill:#ffd5d5;stroke:#de8787;enable-background:new">
    <path id="path3028-8" d="M297.6 125.3c.6-1.3 1-2 1.5-2 .7 0 1.3.4 1.3 2.2 0 2-1 7.2-1.4 8.6-.5 1.5-1.8 3-2.7 2" style="fill:#ffd5d5;stroke:#de8787;stroke-width:0.5;stroke-linecap:butt;stroke-linejoin:miter;stroke-miterlimit:4;stroke-dasharray:none;stroke-opacity:1"/>
    <path id="path3030-1" d="M298 129.3c.4 1 .3 2 0 2.5-.4.6-.5 2-.2 2 .4 0 .5-.8.5-1.2 0-.5.4-1 .6-1.2 0 0 .5-3 .2-3.6-.6-1 0-1.8 0-2.3.6-1 .5.2.5 1v3c0 .5-.7 2.5-1 3.3-.4.8-1 2-.8 2.2 0 0 1-1.7 1-2.5.4-1 1-3 1-5 .2-1.8.4-3.3 0-3-.6 0-1.7 2.3-2 3-.2 1 0 1.8 0 1.8z" style="fill:#e9afaf;stroke:none"/>
  </g>
  <g id="g35894" style="display:inline;enable-background:new">
    <path id="path24488" d="M265 125.7c-.6-1.3-.8-2-1.4-2-.6 0-1.2.3-1.2 2.2 0 1.7 1 7 1.3 8.5.4 1.4 1.8 3 2.7 1.8" style="fill:#ffd5d5;stroke:#de8787;stroke-width:0.5;stroke-linecap:round;stroke-linejoin:miter;stroke-miterlimit:4;stroke-dasharray:none;stroke-opacity:1"/>
    <path id="path24490" d="M264.8 129.7c-.5.8-.5 2 0 2.5.2.6.4 2 0 2s-.5-.8-.5-1.3-.4-1-.5-1.2c-.2-.2-.6-3-.3-3.6.6-1 0-2-.2-2.3-.5-1-.4 0-.3 1v2.8c0 .6.7 2.5 1 3.4.3.8 1 2 .8 2-.3.2-1-1.5-1.3-2.4-.2-.8-.8-3-1-5 0-1.7-.3-3.2.2-3 .5.2 1.6 2.4 2 3v2z" style="fill:#e9afaf;stroke:none"/>
  </g>
</svg>
