<?xml version="1.0" encoding="UTF-8" standalone="no"?>
<svg xmlns="http://www.w3.org/2000/svg" id="brows_shock" width="560" height="560">
  <path id="path47937" d="m 266.75738,124.12753 c 0.58352,-1.16947 1.6963,-2.31223 2.8637,-3.33433 3.29707,-2.88672 7.75634,-0.89581 8.67297,-0.75665 0.75564,0.90721 0.0302,1.79621 -0.69536,1.57667 -1.9687,-0.59567 -4.92261,-1.56569 -6.90372,-0.47838 -1.06687,0.58554 -2.88819,1.98099 -3.93759,2.99273 z" style="display:inline;fill:#ffe680;fill-opacity:1;stroke:#d4aa00;stroke-width:0.25;stroke-miterlimit:4;stroke-dasharray:none;stroke-opacity:1;enable-background:new"/>
  <path id="path47947" d="m 294.75447,124.29569 c -0.52877,-1.07413 -2.46558,-3.08988 -3.72117,-4.00151 -2.39946,-1.74215 -6.41184,-0.32042 -7.24565,-0.16979 -0.47001,1.0846 0.16442,1.7591 0.88706,1.53675 3.16435,-0.97364 5.05046,-1.01475 7.3493,0.49111 1.01799,0.66684 1.73475,1.23603 2.73046,2.14344 z" style="display:inline;fill:#ffe680;fill-opacity:1;stroke:#d4aa00;stroke-width:0.25;stroke-miterlimit:4;stroke-dasharray:none;stroke-opacity:1;enable-background:new"/>
</svg>
