<?xml version="1.0" encoding="UTF-8" standalone="no"?>
<svg xmlns="http://www.w3.org/2000/svg" id="coat_trench_2_of_2" width="560" height="560">
  <path id="path6336-0-1" d="M335.6 379.5c-13.6-3.4-19 2.4-23.5 3.7-.5 0-1 .2-1.3 0-.3 0-1.7.4-2-3.3 0-.4-4 3-3.6-.3-1-1.4-15-5.6-19.2-.4-1.8 2-8.8 1-8.7 0-3-2.4-33.4.4-33.5-.8 0-3.2 6-79.3 6-87.4 38.4 2.6 52.8-8.8 74.6-18-7 77.2 3.5 86.7 11.6 106.5z" style="color:#000000;fill:#d45500;fill-opacity:1;fill-rule:evenodd;stroke:#000000;stroke-width:0.48907527;stroke-linecap:butt;stroke-linejoin:miter;stroke-miterlimit:4;stroke-opacity:1;stroke-dasharray:none;stroke-dashoffset:0;marker:none;visibility:visible;display:inline;overflow:visible;enable-background:accumulate"/>
  <path id="path6386-3-3" d="M272 296.6l1.6 3.5c10 22.2 5.8 46.2 6 71 0 4.6-.2 8.5 3.4 9.4 1.2 0 2.2-.5 2.8-1 2-2.6 6.3-3 10.4-2.4-2-1.4-3-4.2-2.2-6.7 1-4.2 2.3-14.5-1.2-25.2-4.4-16-8.8-30-16.5-46.4-1.5-.8-3-1.5-4.4-2z" style="color:#000000;fill:#aa4400;fill-opacity:1;fill-rule:evenodd;stroke:none;marker:none;visibility:visible;display:inline;overflow:visible;enable-background:accumulate"/>
</svg>
