<svg xmlns="http://www.w3.org/2000/svg" width="560" height="560">
  <g transform="translate(-245.5625,-0.99998854)" style="enable-background:new">
    <circle style="fill:#2ad4ff;stroke:#00aad4;stroke-width:3.10002995;stroke-linecap:round" cx="446.42642" cy="364.79199" r="9.5768042" transform="matrix(0.16128876,0,0,0.16128876,446.30617,69.209215)"/>
    <path style="fill:#089cc1" d="m 519.87389,128.05152 c 0,0.39768 -0.15029,0.76026 -0.39717,1.03405 -0.0495,-0.61938 -0.039,-1.07534 -1.10082,-1.07534 -0.94729,0 -1.34815,0.5103 -1.0596,1.20743 -0.32573,-0.2832 -0.53167,-0.70062 -0.53167,-1.16614 0,-0.85308 0.69155,-1.54463 1.54463,-1.54463 0.85308,0 1.54463,0.69155 1.54463,1.54463 z"/>
    <circle style="fill:#000" cx="446.42642" cy="364.79199" r="9.5768042" transform="matrix(0.06407173,0,0,0.06407173,489.70641,104.67321)"/>
  </g>
  <g transform="translate(-245.5625,-0.99998854)" style="enable-background:new">
    <circle style="fill:#2ad4ff;stroke:#00aad4;stroke-width:3.10002995;stroke-linecap:round" cx="446.42642" cy="364.79199" r="9.5768042" transform="matrix(0.16128876,0,0,0.16128876,461.91676,68.998215)"/>
    <g style="fill:#00aad4;enable-background:new">
      <path d="m 456.00323,364.79199 c 0,2.46567 -0.9318,4.71369 -2.46247,6.41116 -0.3068,-3.84018 -0.24209,-6.66712 -6.82514,-6.66712 -5.87326,0 -8.35863,3.16385 -6.5696,7.48608 -2.01959,-1.75582 -3.2964,-4.34386 -3.2964,-7.23012 0,-5.28912 4.28768,-9.5768 9.5768,-9.5768 5.28913,0 9.57681,4.28768 9.57681,9.5768 z" transform="matrix(0.17181531,0,0,0.17181531,457.09701,65.548199) matrix(0.93873334,0,0,0.93873334,28.051895,20.07977)" style="fill:#089cc1"/>
    </g>
    <circle style="fill:#000" cx="446.42642" cy="364.79199" r="9.5768042" transform="matrix(0.06407173,0,0,0.06407173,505.317,104.46221)"/>
  </g>
  <path style="fill:#fff;fill-opacity:.34031414;stroke-width:.5;stroke-miterlimit:4.06053257" d="m 270.40295,127.32775 c -0.0773,-0.90734 4.40609,-1.07018 4.5985,0.0826 0.11067,0.66306 -4.51475,0.90104 -4.5985,-0.0826 z"/>
  <path style="fill:#fff;fill-opacity:.34031414;stroke-width:.5;stroke-miterlimit:4.06053257" d="m 286.0709,127.41036 c -0.28211,-1.12813 4.45692,-1.37927 4.57096,-0.3029 0.0878,0.82883 -4.39626,1.00153 -4.57096,0.3029 z"/>
  <g style="enable-background:new" transform="matrix(2.3473628,0,0,2.3473628,-390.78799,-201.48684)">
    <circle style="fill:#fff" cx="289.56055" cy="140.01758" r="0.068359375" transform="matrix(0.8,0,0,0.8,57.773438,27.958594)"/>
    <circle style="fill:#fff" cx="289.56055" cy="140.01758" r="0.068359375" transform="matrix(1.2285714,0,0,1.2285714,-66.163783,-31.98644)"/>
  </g>
  <g style="enable-background:new" transform="matrix(2.3473628,0,0,2.3473628,-406.38174,-201.33059)">
    <circle style="fill:#fff" cx="289.56055" cy="140.01758" r="0.068359375" transform="matrix(0.8,0,0,0.8,57.773438,27.958594)"/>
    <circle style="fill:#fff" cx="289.56055" cy="140.01758" r="0.068359375" transform="matrix(1.2285714,0,0,1.2285714,-66.163783,-31.98644)"/>
  </g>
</svg>
