<?xml version="1.0" encoding="UTF-8" standalone="no"?>
<svg xmlns="http://www.w3.org/2000/svg" width="560" height="560">
  <g style="display:inline;enable-background:new">
    <path d="M267 127c0 .3-.2.5-.6.3-.5-.3-1-.8-1-1l-1-1.3c-.4-.4-.2-.6.2-.8.3-.3 3-1.3 5.3-1.3s7.4 1.5 11 1.5c3.8 0 8.5-1.3 10.6-1.3 2 0 5 .8 5.2 1 .3 0 1 .4 1.3.6.3.2.3.4 0 .7 0 .3-1.8 2-2.2 2.3-.4.3-.4 0-.4-.2v-1l-.6-1.2c-.2 0-.4-.5-1.7-.5l-11.8.7c-.8 0-11.8-1.3-12.5-1.2-.8 0-1.2.5-1.4 1-.3.5-.3 1-.4 1.4z" style="color:#000000;fill:#333333;stroke:#000000;stroke-width:2.70044541;stroke-linecap:butt;stroke-linejoin:miter;stroke-miterlimit:4;stroke-opacity:1;stroke-dasharray:none;stroke-dashoffset:0;marker:none;visibility:visible;display:inline;overflow:visible;enable-background:accumulate"/>
    <path d="M267 125.6l-.5 3c0 .7 0 1.3.8 2 1 .7 4.5 3 6.3 3.3 1.7 0 4 0 4-.4 0-.3 2-4.4 3.4-4.3 1.3 0 3 4.3 3.3 4.5.3.2 3.4.5 4.3.3 1 0 4-1.3 5-2l1.7-1.4c.3-.2.4-1 .3-1.4l-.2-3c0-.5-.5-1.5-2.2-1.5-1.7 0-10.4.8-12.2.8-1.7 0-11.8-1.3-12.2-1.3-.4 0-1.2 0-1.8 1.4z" style="color:#000000;fill:#000000;fill-opacity:0.78313258;stroke:#000000;stroke-width:2.70044541;stroke-linecap:butt;stroke-linejoin:miter;stroke-miterlimit:4;stroke-opacity:1;stroke-dasharray:none;stroke-dashoffset:0;marker:none;visibility:visible;display:inline;overflow:visible;enable-background:accumulate"/>
    <path d="M277.2 133.6c-.3 0-.2-.3-.2-.6s1.5-3.3 1.8-3.5c.2 0 .3-.3.4-.6.2-.3.8-1.5 2-1.5 1 0 1.5 1 1.6 1.2 0 .3 1.8 3.8 2 4.2 0 .3.2.6 0 .7-.3 0-.3 0-.5.2-.2 0-.4-.2-.5-.4l-1-2c0-.3-1-2-2-2-.7 0-1.2 1-1.4 1.4 0 .4-1.3 2-1.4 2.5 0 .4-.3.3-.5.3l-.3-.2z" style="color:#000000;fill:#333333;stroke:#000000;stroke-width:2.70044541;stroke-linecap:butt;stroke-linejoin:miter;stroke-miterlimit:4;stroke-opacity:1;stroke-dasharray:none;stroke-dashoffset:0;marker:none;visibility:visible;display:inline;overflow:visible;enable-background:accumulate"/>
    <path d="M267.5 124c-1 0-2-.2-3 .3-.6.4 0 .6.4 1.2s.4.8 1 1.2c-.4-.4-.6-.8-.6-1l.5.5s.2 0 .3-.2l.4-.8c0-.3-.2-.4-.4-.5h-.5c.5 0 .8.3.6.5 0 .2 0 .4-.3.6l-.2-.2-.2-.3-.4-.4s-.2-.2 0-.4h.3v.4c0 .3.2 0 .2-.3s.2-.4.3-.4c0 0 .3 0 .4.2v-.3s0-.2 1-.3z" style="color:#000000;fill:#1a1a1a;stroke:none;stroke-width:5.53606796;marker:none;visibility:visible;display:inline;overflow:visible;enable-background:accumulate"/>
    <path d="M295 124.3c1 0 2 0 2.8.6.7.4.2.5-.4 1-.5.6-.5.8-1 1.2l.6-1-.6.5c-.2 0-.3 0-.3-.3l-.3-.8c0-.3.2-.4.4-.5l.6.2c-.5 0-.8.2-.7.4 0 .3 0 .4.2.6.2.2.4 0 .4 0l.2-.4.5-.3v-.3c0-.2-.4-.2-.4 0v.3c-.2.3-.3 0-.3-.3s0-.4-.2-.4-.3 0-.4.2v-.4s0-.2-1-.3z" style="color:#000000;fill:#1a1a1a;stroke:none;stroke-width:5.53606796;marker:none;visibility:visible;display:inline;overflow:visible;enable-background:accumulate"/>
    <path d="M68 112.6c11 2 38.3 3 66.6 13.2 28.4 10.2 102 6.8 126.3 2 24-5 34-10.3 56-10-44.3 2.7-99.2 7.2-119.2 7.2-39.3 0-75-14.3-129.7-12.4z" clip-path="url(#clipPath302811)" style="color:#000000;fill:#1a1a1a;stroke:none;stroke-width:5.53606796;marker:none;visibility:visible;display:inline;overflow:visible;enable-background:accumulate" transform="matrix(.093 0 0 .093 262.529 113.476)"/>
    <path d="M156.2 215.8c3 1.5 4.5-1.5 5.3-3 .7-1.5 17.4-37 19-39 1.4-2 4.4-8.3 21-9.4-11-1.2-20 3-23.8 10.6-3.7 7.5-14 26-14 26l12-24.5-4 5.6c.7-4 .4-5.5 4.5-12.3 4.2-6.8 10.6-19.7 23-20.5 12.6-.7 23.2 21.6 24.3 24.6 1 3-.4 3.4-3 1.5 2.6 5 6.4 16.7 6.4 16.7-4.6-9-5.4-19.3-19-25.4 7.2 9.5 9.8 12.5 13.2 19.7 3.4 7.2 13 27.2 13.6 29 .8 2 3 3 5 2.4-3.8 3.8-53.7 24.2-83.6-2z" clip-path="url(#clipPath302835)" style="color:#000000;fill:#1a1a1a;stroke:none;stroke-width:5.53606796;marker:none;visibility:visible;display:inline;overflow:visible;enable-background:accumulate" transform="matrix(.093 0 0 .093 262.529 113.476)"/>
  </g>
</svg>
