<?xml version="1.0" encoding="UTF-8" standalone="no"?>
<svg xmlns="http://www.w3.org/2000/svg" id="hair_balding_crazy" width="560" height="560">
  <defs id="defs159377">
    <clipPath id="clipPath30513-1-9">
      <path id="path30515-4-4" d="M802.7 239.5c10-5.2 22-3.4 27 11.7 5 15 0 27.6 1.6 31.3 1.6 3.6 4 9.5 3.7 18.3-.2 9 1.6 9.5 4.4 18.4 2.8 8.8 3.6 49 4.4 54.2.8 5.3-1.2 7.7-2.4 10.3-1.2 2.6-8.3-1.2-9.3-3.8-1-2.8-.3-3.2.3-6s-5.8-30-8.2-36.5c-2.3-6.4-5.4-18.7-5.2-23.8.2-5-2.8-7.8-5.2-17-2.4-9-3.4-28.3-1.6-41.4" style="fill:none;stroke:#552200;stroke-width:1px;stroke-linecap:butt;stroke-linejoin:miter;stroke-opacity:1;display:inline"/>
    </clipPath>
    <clipPath id="clipPath30446-4-3">
      <path id="path30448-9-3" d="M751.3 2651.7c-10-6-18.2-7-27.2 3.8-9 11-2.2 30-5 36.7-2.8 6.7-3.4 10.7-4.2 20.4-.8 9.7-7.5 11.3-7 37.3.3 26 2 28 1.3 33.2-.7 5 .5 2.4 1 7 .3 4.7 12.2 1 12.6-4 .5-5 .7-3.8-.4-8.3-1-4.5 2-28 5.3-36.4 3.4-8.4 1.8-19.7 3.4-22 1.5-2.2 8.2-7 9-49.3" style="fill:none;stroke:#552200;stroke-width:1px;stroke-linecap:butt;stroke-linejoin:miter;stroke-opacity:1;display:inline"/>
    </clipPath>
    <clipPath id="clipPath53682">
      <path id="path53684" d="M493.5 302.4c16-1.3 22.7 1.4 27 4 4.4 2.7 6 9 13.5 8.4 7.4-.6 9.7-13 16.7-16.4-5 .7-11 4.4-13.7 5.4 7-5.7 19.4-11 32.8-7.4-22.4 50.3-57.2 28.5-76.3 6z" style="color:#000000;fill:none;stroke:#000000;stroke-width:0.5;stroke-linecap:butt;stroke-linejoin:miter;stroke-miterlimit:4;stroke-opacity:1;stroke-dasharray:none;stroke-dashoffset:0;marker:none;visibility:visible;display:inline;overflow:visible;enable-background:accumulate"/>
    </clipPath>
    <clipPath id="clipPath30567-5">
      <path id="path30569-8" d="M742 344.8c-.4 7.6.4 17.7-2.4 27.4s-5.7 47.6-3.6 69.4c2 21.7-2 38.7-3.3 47.2-1.2 8.4 1.6 22.5 3.3 36 1.6 13.2 4 24.5 2.4 28.5s.8 9-1.2 11.3c-2 2.4-3.3 6.4-6 8.8-3 2.5-7.7 7.7-10.6 9.3-2.8 1.6-3.2 8.5 3.7 9.7 6.8 1.2 16-1.6 18-5.2 2-3.7 1.3-8 5.8-7.7 4.5.4 5.7-3.2 4.5-8.5-1.2-5.2-.4-7.2 0-7.6.4-.4 1.2-3.3 0-6.5-1.2-3.3.4-27.5 4.8-36 4.5-8.4 3.7-19 2-27-1.6-8-2.4-14.5 1-21.4 3-6.8 4.3-18.5 7.5-33 3.2-14.6 13-23.4 13-60" style="fill:none;stroke:#552200;stroke-width:1px;stroke-linecap:butt;stroke-linejoin:miter;stroke-opacity:1;display:inline"/>
    </clipPath>
    <clipPath id="clipPath30544-9-9-6">
      <path id="path30546-4-7-23" d="M763.8 201.2c-1.2 7-.4 15.7-.8 19-4.5 3.6-14.5 12.5-16.6 13-2 .3-3 2-6.8 2.7-18.8 3.6-6 42-1.6 56 4.3 13.8 6 25.4 3.6 33.8-2.4 8.5.8 11.3.4 19-.6 49.2 28 51 38.7 34.7 16.6 18.5 46.4-9 36.7-30.7-9.7-21.8-7.2-26.6-9-29.8-1.5-3.3-2-15 .6-20.2 2.4-5.2 4.8-16.5 7.2-20.6 2.4-4 13.7-40-2.8-42-10.8-1.2-3.2-2.3-6.5-2.3s-18.2-13.5-18.2-17.5 0-11.3.8-15.3-19.4-2.4-25.8 0z" style="fill:none;stroke:#552200;stroke-width:1px;stroke-linecap:butt;stroke-linejoin:miter;stroke-opacity:1;display:inline"/>
    </clipPath>
    <clipPath id="clipPath30486-6">
      <path id="path30488-26" d="M763.8 201.2c-1.2 7-.4 15.7-.8 19-4.5 3.6-14.5 12.5-16.6 13-2 .3-3 2-6.8 2.7-18.8 3.6-6 42-1.6 56 4.3 13.8 6 25.4 3.6 33.8-2.4 8.5.8 11.3.4 19-.6 49.2 28 51 38.7 34.7 16.6 18.5 46.4-9 36.7-30.7-9.7-21.8-7.2-26.6-9-29.8-1.5-3.3-2-15 .6-20.2 2.4-5.2 4.8-16.5 7.2-20.6 2.4-4 13.7-40-2.8-42-10.8-1.2-3.2-2.3-6.5-2.3s-18.2-13.5-18.2-17.5 0-11.3.8-15.3-19.4-2.4-25.8 0z" style="fill:none;stroke:#552200;stroke-width:1px;stroke-linecap:butt;stroke-linejoin:miter;stroke-opacity:1;display:inline"/>
    </clipPath>
    <clipPath id="clipPath30490-3">
      <path id="path30492-8" d="M763.8 2602.7c-1.2 7-.4 27-.8 30.2-4.5 3.6-14.5 12.5-16.6 13-2 .3-3 2-6.8 2.7-18.8 3.7-6 42-1.6 56 4.3 14 6 25.4 3.6 34-2.4 8.4.8 11.2.4 19-.6 49 28 51 38.7 34.5 16.6 18.6 46.4-8.8 36.7-30.6-9.7-21.8-7.2-26.6-9-29.8-1.5-3.3-2-15 .6-20.2 2.4-5.3 4.8-16.5 7.2-20.6 2.4-4 13.7-40-2.8-42-10.8-1.2-3.2-2.3-6.5-2.3s-18.2-13.4-18.2-17.4c0-4 0-22.5.8-26.6.8-4-19.4-2.4-25.8 0z" style="fill:none;stroke:#552200;stroke-width:1px;stroke-linecap:butt;stroke-linejoin:miter;stroke-opacity:1;display:inline"/>
    </clipPath>
  </defs>
  <g id="layer1">
    <path id="path308680" d="M266.4 111.8s-.2.6-.5.5c0 .3 1 1 1.2 1-.4.2-1 .2-1.3.6l1 .5c0 .2-.8.6-1.3.5.2.4 1 .6 1.3.6-.3.4-.6.7-1 .8 0 .3.6 1 .8 1-.2 0 0 .4 0 .5-.3 0-.6 0-1 .4.4 0 1 .2 1.2.5l-1.4.2c.4.3.7.3 1.3.5-.5.2-1 .6-1 1 0 .3 0 1.3.8 1.8-.2 0-.5.4-.4.8.6 0 1 .6 1 .6l-1 3c-.4 1.6.3 4.4.8 6-.7-.4-1-1-1.3-1.6-.4-2.6-.4-6.8-1.5-7-.6-.3-2.6-1.2-3.7.5 0-1 1-2 1-2-1.3.2-2.3.4-3.6-.5 2.6.7 3.4-.5 6.2-.6-3-.5-7.7-3-10 0 1-3.3 6.6-2.2 8.2-2.3-2-1.5-4.5.4-7.7-1.6 4 1 2-.4 6.6-.4-.8-.7-7.7-.3-11.3.8 3.2-2.3 8.5-1.5 11-3-6.6 1.2-13.2-.8-14.2 3.8-.4-5 8.6-4.7 13.3-5.3-2.6 0-4.7-.5-6.5-1-.5-.2-3.6-.4-5 0 .3-.4 1.2-.5 3-.6-2-.8-4-1.5-6-1.5 4.2-1 11 2.5 16.2 2-10.5-1.4-6-5.7-18-5.7 6-.8 9 .2 11.6 1.4-1.6-1-3-2.7-3.3-3.6 1.4 1.6 3.6 3.6 5.4 4.6 1.7.8 3 1.3 5 1.8-3-2-1.4-4-4-5.7 2.7.8 3.4 3.3 5.2 5-.4-1.2.5-1.3.2-2.5 1.7 1 .5 3.2 2.2 3.6zm52.8-3c-9.7-2-17.4 1.7-20.2 3.5 1-.3 10-4 13.5-.4-2.3-2-5.4-.6-9.8-.3 5.4 0 9 3.4 18.5 1.6-7.5 3.4-12.3 0-20.2.6 9.6-.2 6.8 5.4 15 2.8-4.6 2.2-7 1.4-9.2.6.6.7 1 1.2 2 1.5-2.3-.5-4-2.3-4.3-2.4-1-.2-2.2 0-3.7.7 7 .8 4.6 4.7 9.8 3-6.3 3-5-2.7-11-1 2.5.6 2 1.6 5.5 3-3.3-.2-3.2-2-4.8-1.7-.4.7-.4.8-2 2.5.7-.7 3-1.4 4.2 0-1-.8-3.7 0-4.4.8 0 0-1 1-.8 1.5 0 1.7-.2 5.2-.7 5.6-.3.3-.2 0-.7 0 1.2-4.2.5-5 0-5-.3-.2-.2-4-.3-4.5 0-.3-.6-1.7-1.6-2 0-.2 1-.3 1-.5s-.7-.3-1-.4c0-.8 0-2.4-.3-3.4 1 .4 1.2.2 2 0-1-.3-1.7-.8-2.3-1.2.5-.2 1-.6 1.3-.6-.2-.5-.8-.6-1.4-.6 0 0 1-.5 1-1.2.6-.6 1.8-.2 2.2-1 0-.5-.5-1.5-.7-2 .5-.8 1.8-2 1-3.3.6 0 1.7 2 .2 3.7 4.3-3.7 12-1.6 11.2-8 2 7-6.8 5.7-8.7 9 5.8-2.8 13.7-3.8 19.7-1.3z" style="color:#000000;fill:#ffe680;fill-opacity:1;stroke:#d4aa00;stroke-width:0.3125;stroke-miterlimit:4;stroke-dasharray:none;marker:none;visibility:visible;display:inline;overflow:visible;enable-background:accumulate"/>
  </g>
</svg>
