<?xml version="1.0" encoding="UTF-8" standalone="no"?>
<svg xmlns="http://www.w3.org/2000/svg" id="hair_wavy" width="560" height="560">
  <g id="layer1">
    <path id="path14527-7-1-0-2-9-3-80-9-1" d="M274.5 104.4c-1.6.8-1.6 5.8-.2 7 2.3 1.7 6-.3 5.7-3.3-.2-1.6-3.3-4.8-5.5-3.6z" style="fill:#ffffff;stroke:none;display:inline;enable-background:new"/>
    <path id="path2999-06-4-4-4" d="M284.3 110c-7.3-1.7-9 1-11.2 4-2.3 3-4 8.4-5.7 8.7-.3 1.6 0 2.4.2 3-1 .2-.8 1.8-.7 2.6.3 2 .5 4 1 5.5l-1.7-1.2c0-2.8-.2-5.8-.6-6.8-.2-.8-.6-1.4-1.4-1.4-1 0 .6 4 .7 5.8l.2 3.6c-.6 0-1-1-1-2.2 0 .4-.5 1-.5 1.5-.4-.8-.5-4-.4-4.8-.2 1-.4 1.5-1 1.7.6-.8.5-2.5 0-5-.3-2.6-.5-3.2 0-4-.8.5-.7.5-1 1.3.2-1 .5-2.2 1-2.3-1 .6-1.4.4-1.8 0 .7 0 1-.4 1.4-.7-.5-4.4-.3-7.7.5-9.2-.6 1.2-1.4 2.5-1.4 3 0-1.4 1.6-4.3 2.6-5 1-.8 3.6-4.6 5-7 1.5-2.2 5-4.7 8.8-4.2 4.8.8 4.3 1.7 5.8 1.2s1.8-1.3 3-1c1 .4 1-1.7 4.5 1.6 1.4-.2 1.8 1 2.5 1.7 2 .5 3.2 2.7 5 6 1.7 3.4 2 5.7 2 7.4.3 1.7 1.2.8.5 3.7-.7 3-.7 3-1.3 4-.6 1.3-.4 2.7-1.3 3.2-.3.3-.7 4.2-1 7-.2.2-.7.7-1.3 1 .8-2.5 1.6-8.5.2-8.8.4-1.8-.5-3.8-.5-5 0-3.8-1-6.6-1.8-7.2-2.4-1-5.7 1-9-1.6z" style="color:#000000;fill:#ffe680;fill-opacity:1;stroke:#d4aa00;stroke-width:0.5;stroke-linecap:butt;stroke-linejoin:miter;stroke-miterlimit:4;stroke-opacity:1;stroke-dasharray:none;stroke-dashoffset:0;marker:none;visibility:visible;display:inline;overflow:visible;enable-background:accumulate"/>
    <path id="path2997-60-3-3-1" d="M281 101.4c-3 2.3-6.8 3-8.4 3.4-1.7.4-8 3.7-9 5 .8-1.3 4-5 5-5.5-1 0-2 1.4-3 2 .6-1.3 1-3 2-3.7-1.3.2-3.2 2.5-3.7 3.4.7-3.4 5-5.8 7.5-7.2 2.5-1.5 5.7-5.2 7.7-1.3 1.7 0 2.2 1.5 1.7 4z" style="color:#000000;fill:#ffe680;fill-opacity:1;stroke:#d4aa00;stroke-width:0.5;stroke-linecap:butt;stroke-linejoin:miter;stroke-miterlimit:4;stroke-opacity:1;stroke-dasharray:none;stroke-dashoffset:0;marker:none;visibility:visible;display:inline;overflow:visible;enable-background:accumulate"/>
    <path id="path2995-3-9-0-1" d="M281.8 100.5c-.6-4-4.5-4-7.4-2-4.2 3.3-7.8 15.5-13.5 15.2.6 1 2.2.7 3 .7-1.4 1.6-4.4.8-5 .6.4 1.5 3 2 3.6 2.3-1 1-2.2 1-3.5.5.4.7 9.2 5.2 15-3 5.6-8 8-9.8 7.8-14.3z" style="color:#000000;fill:#ffe680;fill-opacity:1;stroke:#d4aa00;stroke-width:0.49999994;stroke-linecap:butt;stroke-linejoin:miter;stroke-miterlimit:4;stroke-opacity:1;stroke-dasharray:none;stroke-dashoffset:0;marker:none;visibility:visible;display:inline;overflow:visible;enable-background:accumulate"/>
    <path id="path2993-53-0-2-8" d="M274 111c-6.6 6.8-8.7 6-9.5 6 1.3-.6 1.3-2 1.4-2.6-.6 1-1 1.3-1.5 1.4.8-3.7 2.8-5.2 4.2-6.2 1.3-1 4.6-5.8 6.3-8 2-2.6 7.3-2.6 6.6 3.5-.7 6.6-4.8 2.7-7.6 6z" style="color:#000000;fill:#ffe680;fill-opacity:1;stroke:#d4aa00;stroke-width:0.49999997;stroke-linecap:butt;stroke-linejoin:miter;stroke-miterlimit:4;stroke-opacity:1;stroke-dasharray:none;stroke-dashoffset:0;marker:none;visibility:visible;display:inline;overflow:visible;enable-background:accumulate"/>
    <path id="path2987-71-6-0-2" d="M263 123.5c3.3.2 6-1 7-2.5 2-2.3 1-8.5 8-9.8 9.3-1.7 1.8-10.3-4.2-6.7-5 3-6 7.5-5.8 11 .3 3.3-2 6.3-4.7 6 .6.7 2 .5 2.8 0 .4.8-2.5 1.5-3 2z" style="color:#000000;fill:#ffe680;fill-opacity:1;stroke:#d4aa00;stroke-width:0.49999997;stroke-linecap:butt;stroke-linejoin:miter;stroke-miterlimit:4;stroke-opacity:1;stroke-dasharray:none;stroke-dashoffset:0;marker:none;visibility:visible;display:inline;overflow:visible;enable-background:accumulate"/>
    <path id="path2991-13-3-7-5" d="M275.3 111c-4.7 1.3-3.7 9.3.6 13.6-4.4-3.4-7-12.7-.8-14.6" style="color:#000000;fill:#ffe680;fill-opacity:1;stroke:#d4aa00;stroke-width:0.5;stroke-linecap:butt;stroke-linejoin:miter;stroke-miterlimit:4;stroke-opacity:1;stroke-dasharray:none;stroke-dashoffset:0;marker:none;visibility:visible;display:inline;overflow:visible;enable-background:accumulate"/>
    <path id="path2989-80-5-1-6" d="M276.4 108c-3.7 0-8 2.6-6.8 15-1.6-6.4-2-15.5 6.6-16" style="color:#000000;fill:#ffe680;fill-opacity:1;stroke:#d4aa00;stroke-width:0.5;stroke-linecap:butt;stroke-linejoin:miter;stroke-miterlimit:4;stroke-opacity:1;stroke-dasharray:none;stroke-dashoffset:0;marker:none;visibility:visible;display:inline;overflow:visible;enable-background:accumulate"/>
    <path id="path3001-1-3-8-1" d="M286.3 110.2c0-2 1.4-2.6 3-.8 1.8 1.7 2.3 4.4 2 6.6 1-8-4.8-11.2-5.7-6.5" style="color:#000000;fill:#ffe680;fill-opacity:1;stroke:#d4aa00;stroke-width:0.5;stroke-linecap:butt;stroke-linejoin:miter;stroke-miterlimit:4;stroke-opacity:1;stroke-dasharray:none;stroke-dashoffset:0;marker:none;visibility:visible;display:inline;overflow:visible;enable-background:accumulate"/>
    <path id="path3003-7-5-2-8" d="M283.8 107c1.4-3.6 2.5-4.4 5-3 2.4 1.7 2.7 5.5 2.3 6-.3.4-2 3.5-.3 6.2-2.2-2.4-1-5.4-.5-7 .6-1.3-1-3.5-2.5-4-1.5-.3-2.6-.3-2.7 3.4" style="color:#000000;fill:#ffe680;fill-opacity:1;stroke:#d4aa00;stroke-width:0.5;stroke-linecap:butt;stroke-linejoin:miter;stroke-miterlimit:4;stroke-opacity:1;stroke-dasharray:none;stroke-dashoffset:0;marker:none;visibility:visible;display:inline;overflow:visible;enable-background:accumulate"/>
  </g>
</svg>
