<?xml version="1.0" encoding="UTF-8" standalone="no"?>
<svg xmlns="http://www.w3.org/2000/svg" id="iris_omg" width="560" height="560">
  <path id="path46621-7-83-2" d="M 272.74805 125.50195 A 1.5446309 1.5446309 0 0 0 271.20312 127.04688 A 1.5446309 1.5446309 0 0 0 271.88672 128.32812 C 272.44766 128.40183 273.03075 128.40398 273.59961 128.33203 A 1.5446309 1.5446309 0 0 0 274.29102 127.04688 A 1.5446309 1.5446309 0 0 0 272.74805 125.50195 z" style="fill:#2ad4ff;fill-opacity:1;stroke:none;stroke-width:0.5;stroke-linecap:round;stroke-miterlimit:4;stroke-dasharray:none"/>
  <path id="path46623-9-22-0" d="M 272.76758 125.50781 C 271.9145 125.50781 271.22266 126.1977 271.22266 127.05078 C 271.22266 127.5163 271.42818 127.9336 271.75391 128.2168 C 271.46536 127.51967 271.86521 127.00977 272.8125 127.00977 C 273.87432 127.00977 273.86456 127.46656 273.91406 128.08594 C 274.16094 127.81215 274.31055 127.44846 274.31055 127.05078 C 274.31055 126.1977 273.62066 125.50781 272.76758 125.50781 z" style="display:inline;fill:#089cc1;fill-opacity:1;stroke:none;enable-background:new"/>
  <path id="path46629-1-5-4" d="M 288.35742 125.29102 A 1.5446309 1.5446309 0 0 0 286.8125 126.83594 A 1.5446309 1.5446309 0 0 0 287.42969 128.06641 C 288.09243 128.09897 288.80896 128.03199 289.49023 127.88281 A 1.5446309 1.5446309 0 0 0 289.90234 126.83594 A 1.5446309 1.5446309 0 0 0 288.35742 125.29102 z" style="fill:#2ad4ff;stroke:none;stroke-width:0.5;stroke-linecap:round;stroke-miterlimit:4;stroke-dasharray:none"/>
  <path id="path46633-6-5-1" d="M 288.35742 125.29102 C 287.50435 125.29102 286.8125 125.98286 286.8125 126.83594 C 286.8125 127.30146 287.01996 127.71875 287.3457 128.00195 C 287.05715 127.30482 287.45701 126.79297 288.4043 126.79297 C 289.46612 126.79297 289.45636 127.24976 289.50586 127.86914 C 289.75274 127.59535 289.90234 127.23362 289.90234 126.83594 C 289.90234 125.98286 289.2105 125.29102 288.35742 125.29102 z" style="fill:#089cc1;fill-opacity:1;stroke:none"/>
</svg>
