<?xml version="1.0" encoding="UTF-8" standalone="no"?>
<svg xmlns="http://www.w3.org/2000/svg" id="iris_eeww" width="560" height="560">
  <path id="path46621-7-83-1" d="M 272.69141 126.89648 C 272.19202 126.88214 271.69464 126.91389 271.20703 126.98438 A 1.5446309 1.5446309 0 0 0 271.20312 127.04688 A 1.5446309 1.5446309 0 0 0 271.24609 127.40039 C 272.20253 127.39709 273.16964 127.39648 274.23828 127.44141 A 1.5446309 1.5446309 0 0 0 274.28906 127.08008 C 273.76368 126.97422 273.22715 126.91188 272.69141 126.89648 z" style="fill:#2ad4ff;fill-opacity:1;stroke:none;stroke-width:0.5;stroke-linecap:round;stroke-miterlimit:4;stroke-dasharray:none"/>
  <path id="path46623-9-22-5" d="M 272.69141 126.89648 C 272.19994 126.88236 271.71069 126.91442 271.23047 126.98242 C 271.22943 127.00567 271.22266 127.02728 271.22266 127.05078 C 271.22266 127.17087 271.23774 127.28818 271.26367 127.40039 C 271.45417 127.39979 271.58889 127.3953 271.79297 127.39648 C 271.96621 127.15662 272.30887 127.00977 272.8125 127.00977 C 273.43022 127.00977 273.67033 127.1767 273.78516 127.42773 C 273.94199 127.43318 274.10004 127.43684 274.25391 127.44336 C 274.28432 127.32791 274.30395 127.20835 274.30664 127.08398 C 273.77565 126.97596 273.23313 126.91205 272.69141 126.89648 z" style="display:inline;fill:#089cc1;fill-opacity:1;stroke:none;enable-background:new"/>
  <path id="path46629-1-5-6" d="M 288.625 126.625 C 287.94405 126.65532 287.33657 126.76723 286.81445 126.91211 A 1.5446309 1.5446309 0 0 0 286.88086 127.28516 C 287.77474 127.22452 288.86222 127.20262 289.86719 127.1543 A 1.5446309 1.5446309 0 0 0 289.90234 126.83594 A 1.5446309 1.5446309 0 0 0 289.89258 126.67578 C 289.45544 126.6304 289.02705 126.6071 288.625 126.625 z" style="fill:#2ad4ff;stroke:none;stroke-width:0.5;stroke-linecap:round;stroke-miterlimit:4;stroke-dasharray:none"/>
  <path id="path46633-6-5-2" d="M 288.625 126.625 C 287.94671 126.6552 287.34115 126.76613 286.82031 126.91016 C 286.82663 127.0401 286.85023 127.16363 286.88672 127.2832 C 287.02682 127.27374 287.18401 127.26921 287.33398 127.26172 C 287.48359 126.97375 287.84634 126.79297 288.4043 126.79297 C 288.99308 126.79297 289.23891 126.94331 289.36133 127.17383 C 289.53025 127.16742 289.70306 127.16414 289.86719 127.15625 C 289.88931 127.05217 289.90234 126.94661 289.90234 126.83594 C 289.90234 126.7813 289.89225 126.72895 289.88672 126.67578 C 289.45161 126.63091 289.02529 126.60718 288.625 126.625 z" style="fill:#089cc1;fill-opacity:1;stroke:none"/>
</svg>
