<?xml version="1.0" encoding="UTF-8" standalone="no"?>
<svg xmlns="http://www.w3.org/2000/svg" id="iris_anger" width="560" height="560">
  <g id="g31871" style="display:inline;enable-background:new">
    <path id="path17147-9" d="M288.6 125.5c-.3 0-.7 0-1 .3-.2.3-.4.6-.4 1 0 .8.7 1.4 1.5 1.4s1.5-.6 1.5-1.5c0-.3-.2-.6-.4-1l-1.2-.2z" style="color:#000000;fill:#2ad4ff;fill-opacity:1;stroke:#00aad4;stroke-width:0.125;stroke-miterlimit:4;stroke-opacity:1;stroke-dasharray:none;marker:none;visibility:visible;display:inline;overflow:visible;enable-background:accumulate"/>
    <path id="path31823-3" d="M289.2 127.3v.7l-.5-.6-.5.5v-.8h-.7l.5-.5-.5-.5h.7v-.6l.5.5.5-.4v.7h.7l-.6.5.5.5z" style="color:#000000;fill:#00ccff;fill-opacity:1;fill-rule:nonzero;stroke:none;marker:none;visibility:visible;display:inline;overflow:visible;enable-background:new"/>
  </g>
  <g id="g31864" style="display:inline;enable-background:new">
    <path id="path17147-9-0" d="M272.5 125.5c-.4 0-.8 0-1.2.3-.3.2-.4.6-.4 1 0 .8.6 1.5 1.4 1.5.8 0 1.5-.7 1.5-1.6 0-.3-.3-.6-.5-1l-1-.2z" style="color:#000000;fill:#2ad4ff;fill-opacity:1;stroke:#00aad4;stroke-width:0.125;stroke-miterlimit:4;stroke-opacity:1;stroke-dasharray:none;marker:none;visibility:visible;display:inline;overflow:visible;enable-background:accumulate"/>
    <path id="path31823" d="M273 127.3v.7l-.6-.6-.5.5v-.8h-.8l.5-.5-.5-.5h.7v-.6l.4.5.5-.4v.7h.6l-.5.5.6.5z" style="color:#000000;fill:#00ccff;fill-opacity:1;fill-rule:nonzero;stroke:none;marker:none;visibility:visible;display:inline;overflow:visible;enable-background:new"/>
  </g>
</svg>
