<?xml version="1.0" encoding="UTF-8" standalone="no"?>
<svg xmlns="http://www.w3.org/2000/svg" id="iris_satisfaction" width="560" height="560">
  <path id="path40695" d="M 272.43359 125.95117 C 272.12788 125.96457 271.81704 126.02533 271.50586 126.12891 A 1.5446309 1.5446309 0 0 0 271.20312 127.04688 A 1.5446309 1.5446309 0 0 0 271.81641 128.27539 C 272.40518 128.36708 273.02238 128.38188 273.62305 128.31641 A 1.5446309 1.5446309 0 0 0 274.29102 127.04688 A 1.5446309 1.5446309 0 0 0 274.10742 126.31641 C 273.56325 126.06908 273.00509 125.92613 272.43359 125.95117 z" style="fill:#2ad4ff;fill-opacity:1;stroke:none;stroke-width:0.5;stroke-linecap:round;stroke-miterlimit:4;stroke-dasharray:none"/>
  <path id="path40697" d="M 272.43359 125.95117 C 272.1406 125.96401 271.84297 126.01973 271.54492 126.11523 C 271.34517 126.37554 271.22266 126.69731 271.22266 127.05078 C 271.22266 127.5163 271.42818 127.9336 271.75391 128.2168 C 271.46536 127.51967 271.86521 127.00977 272.8125 127.00977 C 273.87432 127.00977 273.86456 127.46656 273.91406 128.08594 C 274.16094 127.81215 274.31055 127.44846 274.31055 127.05078 C 274.31055 126.78528 274.23714 126.5405 274.11914 126.32227 C 273.57122 126.07132 273.00928 125.92595 272.43359 125.95117 z" style="display:inline;fill:#089cc1;fill-opacity:1;stroke:none;enable-background:new"/>
  <path id="path40703" d="M 288.91406 125.83008 C 288.20002 125.76176 287.53676 125.92803 286.92969 126.24805 A 1.5446309 1.5446309 0 0 0 286.8125 126.83594 A 1.5446309 1.5446309 0 0 0 287.76758 128.26172 C 288.20777 128.29036 288.65362 128.2618 289.08984 128.19336 A 1.5446309 1.5446309 0 0 0 289.90234 126.83594 A 1.5446309 1.5446309 0 0 0 289.64844 125.98438 C 289.39937 125.91062 289.15354 125.85299 288.91406 125.83008 z" style="fill:#2ad4ff;stroke:none;stroke-width:0.5;stroke-linecap:round;stroke-miterlimit:4;stroke-dasharray:none"/>
  <path id="path40707" d="M 288.91406 125.83008 C 288.20063 125.76182 287.5383 125.92859 286.93164 126.24805 C 286.85691 126.42935 286.8125 126.62766 286.8125 126.83594 C 286.8125 127.30146 287.01996 127.71875 287.3457 128.00195 C 287.05715 127.30482 287.45701 126.79297 288.4043 126.79297 C 289.46612 126.79297 289.45636 127.24976 289.50586 127.86914 C 289.75274 127.59535 289.90234 127.23362 289.90234 126.83594 C 289.90234 126.52163 289.80773 126.22832 289.64648 125.98438 C 289.39808 125.91094 289.15293 125.85293 288.91406 125.83008 z" style="fill:#089cc1;fill-opacity:1;stroke:none"/>
</svg>
