<?xml version="1.0" encoding="UTF-8" standalone="no"?>
<svg xmlns="http://www.w3.org/2000/svg" id="lips_neutral" width="560" height="560">
  <path id="path24524-4" d="M274.8 142.8c1.6.6 1.3 1.8 5.5 1.8 4 0 5.8-1 6.5-1.6-5.6-2.7-10.6-1.2-12-.2z" style="fill:#e9afaf;stroke:#de8787;stroke-width:0.1;stroke-miterlimit:4;stroke-opacity:1;stroke-dasharray:none;display:inline;enable-background:new"/>
  <path id="path24526-67" d="M284.3 142.5c-1.2-.3-2.7 0-4 0-1 0-2.6-.5-4 0-1.2.6-2 .5-3-.6 1 .3 1.6.2 3-1 1.7-1 2.3-.2 4-.2 2 0 2.4-1 4.4.2 1.6 1 3 1.4 3.3 1.2-1 1.5-2.3.6-3.7.3z" style="fill:#de8787;stroke:none;display:inline;enable-background:new"/>
</svg>
