<svg xmlns="http://www.w3.org/2000/svg" id="eyes_neutral" width="560" height="560">
  <path id="path30320" d="m 280.95215,147.66726 c -1.23728,0.0594 -5.1299,0.72969 -5.61959,-1.8883 -0.1705,-0.91152 -0.12382,-3.13947 1.51067,-4.23297 0.96692,-0.64689 2.76902,0.30227 3.81402,0.3045 1.11642,0.002 3.74679,-0.96147 4.32539,-0.38805 1.22571,1.21474 1.19885,2.53014 1.31884,4.33406 0.0254,0.38191 -0.63249,0.85289 -1.52422,1.48612 -1.19784,0.68583 -2.47491,0.31977 -3.82511,0.38464 z" style="color:#000000;display:inline;overflow:visible;visibility:visible;fill:#800000;fill-opacity:1;fill-rule:evenodd;stroke:#de8787;stroke-width:0.12364834;stroke-linecap:butt;stroke-linejoin:miter;stroke-miterlimit:4;stroke-dasharray:none;stroke-dashoffset:0;stroke-opacity:1;marker:none;enable-background:accumulate"/>
  <path id="path30322" d="m 282.98014,141.55224 c -0.0478,0.008 -0.0808,0.0248 -0.13137,0.0309 -0.22349,0.027 -0.47471,0.0397 -0.74189,0.0386 -0.53436,0.26317 -1.20907,0.17978 -1.81007,0.14388 -0.21291,-0.0126 -0.79924,-0.17655 -1.00826,-0.18478 -0.87817,0.78418 -1.14949,1.86103 -1.14949,2.81917 0,1.36241 0.13825,4.49999 1.56879,3.13757 0.81745,-0.54496 2.29575,0.10968 2.73826,0.0375 1.58723,-0.25884 1.28031,-0.92281 1.28031,-2.96644 0,-1.36465 0.14501,-2.34097 -0.74628,-3.05674 z" style="color:#000000;display:inline;overflow:visible;visibility:visible;fill:#550000;fill-opacity:1;fill-rule:evenodd;stroke:none;stroke-width:0.5;marker:none;enable-background:accumulate"/>
  <path id="path30324" d="m 280.98196,145.90884 c -2.76853,0 -3.13749,-0.65629 -3.13749,-2.10776 0,-1.27848 1.01883,-2.17874 1.79649,-2.06956 1.25903,0.17678 1.55906,0.57473 1.0765,0.90167 -1.62688,1.10224 2.02038,1.36675 1.04473,0.10617 -0.47819,-0.61784 0.25096,-0.80554 1.10095,-1.1149 0.84998,-0.30936 1.35152,0.30844 1.35152,1.80879 0,1.50035 -1.24772,2.54638 -3.2327,2.47559 z" style="color:#000000;display:inline;overflow:visible;visibility:visible;fill:#000000;fill-opacity:1;fill-rule:evenodd;stroke:#000000;stroke-width:0.12364835;stroke-linecap:butt;stroke-linejoin:miter;stroke-miterlimit:4;stroke-dasharray:none;stroke-dashoffset:0;stroke-opacity:1;marker:none;enable-background:accumulate"/>
  <path id="path30326" d="m 281.25368,144.72011 c -1.04462,-0.12511 -4.16959,-2.03379 -5.11595,1.15149 -5e-4,0.0174 0.008,0.0366 0.008,0.0541 1.1015,1.06796 3.64251,1.74333 4.72374,1.74333 0.73278,0 3.67697,-0.49314 4.75082,-1.38784 -0.39048,-3.91751 -3.57459,-1.46622 -4.36661,-1.56108 z" style="color:#000000;display:inline;overflow:visible;visibility:visible;fill:#a02c2c;fill-opacity:1;fill-rule:evenodd;stroke:#501616;stroke-width:0.12364834;stroke-linecap:butt;stroke-linejoin:miter;stroke-miterlimit:4;stroke-dasharray:none;stroke-dashoffset:0;stroke-opacity:1;marker:none;enable-background:accumulate"/>
  <path id="path30328" d="m 281.12041,145.1938 c -5.2549,-3.21837 -4.63222,1.94076 0,1.53203 4.63221,-0.40872 4.7001,-4.28521 0,-1.53203 z" style="color:#000000;display:inline;overflow:visible;visibility:visible;fill:#b85757;fill-opacity:1;fill-rule:evenodd;stroke:none;stroke-width:0.5;marker:none;enable-background:accumulate"/>
  <path id="path30370" d="m 280.98271,147.7232 c 2.91196,-0.0217 5.08165,-1.08291 5.22518,-1.97673 -0.85776,0.35503 -3.90785,0.55922 -5.19253,0.55922 -1.4877,0 -4.25199,-0.099 -5.77046,-0.78159 -0.12815,0.92014 3.29362,2.21731 5.73781,2.1991 z" style="color:#000000;display:inline;overflow:visible;visibility:visible;fill:#f2f2f2;stroke:#cccccc;stroke-width:0.25000003;stroke-linecap:butt;stroke-linejoin:miter;stroke-miterlimit:4;stroke-dasharray:none;stroke-dashoffset:0;stroke-opacity:1;marker:none;enable-background:accumulate"/>
  <path class="lowerlip" d="m 275.14646,145.5292 c -0.0814,0.95578 0.24084,1.83111 0.94631,2.41425 1.05424,0.87144 3.35027,0.1107 4.85129,0.1107 1.11511,0 4.97236,1.17682 5.31611,-0.55371 0.23804,-1.19837 0.21698,-1.64297 0.13043,-2.02123 -0.24565,0.45162 -0.68986,0.86984 -1.5167,1.07618 -1.13799,0.28398 -2.4686,-0.21082 -3.99277,-0.16458 -1.25037,0.0379 -2.46418,0.39862 -4.21799,0.10975 -0.68216,-0.11236 -1.00928,-1.34463 -1.51668,-0.97136 z" style="display:inline;fill:#e9afaf;stroke:none;enable-background:new"/>
  <path class="upperlip" d="m 285.22199,142.22305 c -0.7277,-0.43429 -3.12075,-0.0462 -4.31409,-0.0462 -1.00109,0 -2.79874,-0.61045 -4.34757,-0.089 -0.55195,0.18583 -0.95736,3.25874 -1.44385,3.59951 0.15945,-1.53249 0.23521,-2.93517 0.73181,-3.66297 1.02138,-1.49692 3.66189,-0.29379 5.03323,-0.29379 1.39626,0 4.37988,-1.71248 5.21334,0.40889 0.52549,1.33752 0.46102,2.16137 0.30704,3.57479 -0.41998,-0.77253 -0.2767,-2.95221 -1.17991,-3.49123 z" style="display:inline;fill:#de8787;stroke:none;enable-background:new"/>
</svg>
