<svg xmlns="http://www.w3.org/2000/svg" id="mouth_grief" width="560" height="560">
  <path id="path39382-4" d="m 280.84793,148.32735 c -3.30218,0.55361 -4.9118,-0.38457 -6.02584,-2.80721 -0.25377,-0.89193 0.38478,-3.74166 2.01927,-4.83516 0.96692,-0.64689 2.40228,-0.0216 3.44728,-0.0194 1.11642,0.002 4.26539,-0.32612 4.82626,0.26501 1.61876,1.70606 1.71846,3.85207 1.49453,4.67336 -0.10068,0.36927 -0.73913,1.59943 -1.63086,2.23266 -1.19795,0.68578 -2.78393,0.36706 -4.13064,0.49074 z" style="color:#000000;display:inline;overflow:visible;visibility:visible;fill:#800000;fill-opacity:1;fill-rule:evenodd;stroke:none;stroke-width:0.12364834;marker:none;enable-background:accumulate"/>
  <path id="path39386-7" d="m 280.98196,145.90884 c -2.76853,0 -3.13749,-0.65629 -3.13749,-2.10776 0,-1.27848 1.25193,-2.3004 2.03721,-2.3004 0.99387,0 1.31834,0.80557 0.83578,1.13251 -1.62688,1.10224 2.02038,1.36675 1.04473,0.10617 -0.47819,-0.61784 0.20677,-1.20329 0.83578,-1.20329 0.57697,0 1.61669,0.39683 1.61669,1.89718 0,1.50035 -1.24772,2.54638 -3.2327,2.47559 z" style="color:#000000;display:inline;overflow:visible;visibility:visible;fill:#000000;fill-opacity:1;fill-rule:evenodd;stroke:#000000;stroke-width:0.12364835;stroke-linecap:butt;stroke-linejoin:miter;stroke-miterlimit:4;stroke-dasharray:none;stroke-dashoffset:0;stroke-opacity:1;marker:none;enable-background:accumulate"/>
  <path id="path39522-5-7" d="m 280.72311,140.68392 c -3.94537,-1.13241 -5.05309,0.71951 -5.05309,0.89074 1.50903,0.41632 9.62414,0.33133 10.04356,0.10533 -0.0385,-1.18274 -2.08508,-1.74265 -4.99047,-0.99607 z" style="color:#000000;display:inline;overflow:visible;visibility:visible;fill:#f2f2f2;stroke:#cccccc;stroke-width:0.25000003;stroke-linecap:butt;stroke-linejoin:miter;stroke-miterlimit:4;stroke-dasharray:none;stroke-dashoffset:0;stroke-opacity:1;marker:none;enable-background:accumulate"/>
  <path id="path39388-4" d="m 281.25368,144.72011 c -1.04462,-0.12511 -4.16959,-2.03379 -5.11595,1.15149 -5e-4,0.0174 0.008,0.0366 0.008,0.0541 1.1015,1.06796 3.62514,2.40342 4.70637,2.40342 0.73278,0 3.69434,-1.15323 4.76819,-2.04793 -0.39048,-3.91751 -3.57459,-1.46622 -4.36661,-1.56108 z" style="color:#000000;display:inline;overflow:visible;visibility:visible;fill:#a02c2c;fill-opacity:1;fill-rule:evenodd;stroke:#501616;stroke-width:0.12364834;stroke-linecap:butt;stroke-linejoin:miter;stroke-miterlimit:4;stroke-dasharray:none;stroke-dashoffset:0;stroke-opacity:1;marker:none;enable-background:accumulate"/>
  <path id="path39390-4" d="m 281.12041,145.1938 c -5.2549,-3.21837 -4.63222,1.94076 0,1.53203 4.63221,-0.40872 4.7001,-4.28521 0,-1.53203 z" style="color:#000000;display:inline;overflow:visible;visibility:visible;fill:#b85757;fill-opacity:1;fill-rule:evenodd;stroke:none;stroke-width:0.5;marker:none;enable-background:accumulate"/>
  <path id="path39522-5-7-0" d="m 280.72311,148.51611 c -3.07513,0.12177 -4.72035,0.66832 -5.66738,-2.7694 1.50903,0.41632 10.9807,0.22895 11.40012,0.003 -0.39684,1.9399 -2.82735,3.09488 -5.73274,2.76645 z" style="color:#000000;display:inline;overflow:visible;visibility:visible;fill:#f2f2f2;stroke:#cccccc;stroke-width:0.25000003;stroke-linecap:butt;stroke-linejoin:miter;stroke-miterlimit:4;stroke-dasharray:none;stroke-dashoffset:0;stroke-opacity:1;marker:none;enable-background:accumulate"/>
  <path class="lowerlip" d="m 274.80965,145.06105 c 0.0722,0.60802 0.23572,2.16585 0.96163,2.98917 1.51926,1.72313 4.13919,0.72607 5.20929,0.72607 1.88623,0 3.03454,1.19199 4.71748,-0.84161 0.77896,-0.94126 0.91456,-1.66241 0.95137,-2.8581 -0.39988,0.77537 -0.36808,1.10348 -0.89422,1.6656 -1.75743,1.87761 -2.24189,0.82515 -4.77558,0.82515 -2.70247,0 -3.87344,0.92718 -5.20347,-0.95445 -0.39906,-0.56456 -0.79895,-1.1786 -0.9665,-1.55183 z" style="display:inline;fill:#e9afaf;stroke:none;enable-background:new"/>
  <path class="upperlip" d="m 284.79267,141.05279 c -1.01614,-0.70384 -2.75559,0.0306 -3.94893,0.0306 -1.00109,0 -3.01464,-0.9754 -4.56866,0.11564 -0.47665,0.33465 -1.80268,2.30823 -1.30459,4.6425 -0.73435,-1.08073 0.3105,-4.59664 1.27403,-5.22909 1.50261,-0.98629 3.09621,-0.35794 4.46755,-0.35794 1.39626,0 3.70253,-0.91355 4.57557,0.0772 0.83349,0.94586 1.84611,4.09157 1.28561,5.28168 0.35797,-1.99469 -0.55601,-3.71234 -1.78058,-4.56055 z" style="display:inline;fill:#de8787;stroke:none;enable-background:new"/>
</svg>
