<svg xmlns="http://www.w3.org/2000/svg" id="mouth_satisfaction" width="560" height="560">
  <path class="lowerlip" d="m 274.07376,142.21039 c 0.7572,0.99963 4.20285,2.35145 6.22014,2.34692 2.0878,-0.005 5.49959,-0.66571 7.08739,-2.34917 -2.20985,0.33293 -4.67755,-1.19884 -7.03132,-0.60229 -1.40761,-0.48393 -5.47476,0.87771 -6.27621,0.60454 z" style="fill:#e9afaf;stroke:none;"/>
  <path class="upperlip" d="m 280.38229,142.30245 c -1.00109,0 -1.81713,-0.94142 -4.04502,0.036 -1.14171,0.5009 -1.90924,0.32654 -2.90275,-0.46954 1.66211,1.01747 2.66455,-0.46321 3.55908,-1.01769 1.63904,-1.01599 2.32416,-0.0924 3.38869,-0.0924 0.99587,0 2.28441,-0.75728 3.72094,-0.0565 0.98779,0.48188 1.88858,1.87026 3.768,1.20164 -0.87782,0.95225 -2.34432,0.61238 -3.52555,0.2477 -1.86163,-0.57475 -2.72938,0.13832 -3.96339,0.15076 z" style="fill:#de8787;stroke:none;"/>
  <path id="path40687-0" d="m 273.88856,140.32026 c -0.83635,0.99518 -0.81152,1.97878 -0.14725,2.80605 -0.27884,-0.76273 -0.28957,-1.8787 0.14725,-2.80605 z" style="fill:#e9afaf;stroke:none;"/>
  <path id="path40691-4" d="m 287.51813,140.41148 c 0.97368,1.06385 0.60552,1.97879 0.14724,3.14938 0.27885,-1.24338 0.15225,-2.49668 -0.14724,-3.14938 z" style="fill:#e9afaf;stroke:none;"/>
</svg>
