<svg xmlns="http://www.w3.org/2000/svg" id="mouth_aversion" width="560" height="560">
  <path class="lowerlip" d="M274.12 143.55c1.3-1.24 2.4-.84 3.23-.38.8.44 2.12 1.07 3.4 1.07 1.53 0 2.68-.46 3.73-1.03.83-.44 2.3-.4 3.24.53-1.8-3.9-11.4-3.32-13.6-.17z" style="fill:#e9afaf;stroke:none;"/>
  <path class="upperlip" d="M284.65 141.9c-1.2-.3-2.83.54-3.82.54-1 0-2.46-1.02-3.98-.53-1.03.36-2.4 1.08-2.75 1.68.55-1.33 1.7-2.14 2.52-2.5 2.58-1.17 2.35-.3 4.17-.3 1.8 0 2.42-1.04 4.2.1 1.42.93 2.03 1.46 2.65 2.8-1.16-1.3-1.8-1.5-3-1.78z" style="fill:#de8787;stroke:none;"/>
</svg>
