<?xml version="1.0" encoding="UTF-8" standalone="no"?>
<!-- Created with Inkscape (http://www.inkscape.org/) -->

<svg
   xmlns:dc="http://purl.org/dc/elements/1.1/"
   xmlns:cc="http://creativecommons.org/ns#"
   xmlns:rdf="http://www.w3.org/1999/02/22-rdf-syntax-ns#"
   xmlns:svg="http://www.w3.org/2000/svg"
   xmlns="http://www.w3.org/2000/svg"
   xmlns:sodipodi="http://sodipodi.sourceforge.net/DTD/sodipodi-0.dtd"
   xmlns:inkscape="http://www.inkscape.org/namespaces/inkscape"
   version="1.1"
   width="560"
   height="560"
   id="eyes_neutral"
   inkscape:version="0.91pre2 r13516"
   sodipodi:docname="mouth_indignation.svg">
  <sodipodi:namedview
     pagecolor="#ffffff"
     bordercolor="#666666"
     borderopacity="1"
     objecttolerance="10"
     gridtolerance="10"
     guidetolerance="10"
     inkscape:pageopacity="0"
     inkscape:pageshadow="2"
     inkscape:window-width="640"
     inkscape:window-height="480"
     id="namedview48578"
     showgrid="false"
     inkscape:zoom="10.412157"
     inkscape:cx="283.96062"
     inkscape:cy="417.37066"
     inkscape:window-x="0"
     inkscape:window-y="24"
     inkscape:window-maximized="0"
     inkscape:current-layer="eyes_neutral" />
  <metadata
     id="metadata33021">
    <rdf:RDF>
      <cc:Work
         rdf:about="">
        <dc:format>image/svg+xml</dc:format>
        <dc:type
           rdf:resource="http://purl.org/dc/dcmitype/StillImage" />
        <dc:title></dc:title>
      </cc:Work>
    </rdf:RDF>
  </metadata>
  <defs
     id="defs33019">
    <clipPath
       id="clipPath17580">
      <path
         d="m 537.94192,127.97425 c -0.24161,0.59472 -1.61691,2.45324 -5.53838,0.8735 -0.59472,0.0558 -1.56115,0.14868 -1.59832,0.1301 -0.0372,-0.0186 -0.0929,-0.1301 -0.0186,-0.18585 0.0743,-0.0558 0.39028,-0.39029 0.92925,-0.52039 0.53897,-0.13009 1.85852,-1.747 3.10372,-1.747 1.2452,0 2.84353,0.96643 3.12231,1.44964 z"
         id="path17582"
         style="color:#000000;fill:none;stroke:#008080;stroke-width:0.02662179;stroke-linecap:butt;stroke-linejoin:miter;stroke-miterlimit:4;stroke-opacity:1;stroke-dasharray:none;stroke-dashoffset:0;marker:none;visibility:visible;display:inline;overflow:visible;enable-background:accumulate" />
    </clipPath>
    <clipPath
       id="clipPath17632">
      <path
         d="m 515.63686,127.97425 c 0.24161,0.59472 1.61691,2.45324 5.53838,0.8735 0.59472,0.0558 1.56115,0.14868 1.59832,0.1301 0.0372,-0.0186 0.0929,-0.1301 0.0186,-0.18585 -0.0743,-0.0558 -0.39028,-0.39029 -0.92925,-0.52039 -0.53897,-0.13009 -1.85852,-1.747 -3.10372,-1.747 -1.24521,0 -2.84353,0.96643 -3.12231,1.44964 z"
         id="path17634"
         style="color:#000000;fill:#e6e6e6;stroke:#de8787;stroke-width:0.02662179;stroke-linecap:butt;stroke-linejoin:miter;stroke-miterlimit:4;stroke-opacity:1;stroke-dasharray:none;stroke-dashoffset:0;marker:none;visibility:visible;display:inline;overflow:visible;enable-background:accumulate" />
    </clipPath>
  </defs>
  <path
     style="color:#000000;display:inline;overflow:visible;visibility:visible;fill:#f9f9f9;fill-opacity:1;fill-rule:evenodd;stroke:none;stroke-width:0.32081631;marker:none;enable-background:accumulate"
     d="m 286.70514,143.27164 c -1.89311,1.4481 -4.26891,2.65164 -6.45835,2.58994 -2.36253,-0.1893 -4.27344,-1.62753 -5.50266,-2.58363 2.19024,-2.8679 9.42681,-2.09562 11.96101,-0.006 z"
     id="path66488-3-4-9-4-3"
     inkscape:connector-curvature="0"
     sodipodi:nodetypes="cccc" />
  <path
     style="color:#000000;display:inline;overflow:visible;visibility:visible;fill:#e9afaf;fill-opacity:1;fill-rule:evenodd;stroke:none;stroke-width:0.32081631;marker:none;enable-background:accumulate"
     d="m 276.61733,146.18341 c 2.19515,1.0358 5.48188,0.7913 7.40152,0.1157 1.77043,-0.6232 1.76655,-1.59354 2.69638,-2.99754 -1.29041,0.42341 -1.98628,1.07298 -3.48588,1.30058 -1.8937,0.2874 -4.41951,0.16 -5.09253,0.042 -1.98153,-0.3481 -1.95327,-0.79641 -3.30009,-1.44191 0.46602,0.59728 0.49169,2.29541 1.7806,2.98117 z"
     id="path66484-2-2-6-7-1"
     inkscape:connector-curvature="0"
     sodipodi:nodetypes="cscsscc" />
  <g
     transform="matrix(0.72960373,0,0,0.72960373,-104.46976,-1723.0864)"
     style="display:inline;enable-background:new"
     id="g60577-7-6"
     clip-path="none">
    <path
       clip-path="none"
       id="path4721-3-1"
       d="m 521.78505,2557.5985 c -0.56663,0.1043 -0.969,-0.1724 -0.90695,-0.4787 4.0488,-4.0562 12.94188,-1.8879 14.05912,0.1677 0.0523,0.1839 -0.76594,0.5509 -1.46046,0.3863 -0.65357,0.2809 -1.34342,0.031 -1.67083,-0.038 -0.0598,0.2274 -0.89824,0.481 -1.44833,0.2517 -0.61263,0.3064 -2.29545,0.4202 -2.67834,0.1905 -0.76579,0.268 -2.18488,0.2633 -2.56777,-0.043 -0.27516,0.077 -1.3459,0.063 -1.72004,-0.2273 -0.52275,0.1698 -1.25252,0.025 -1.6064,-0.21 z"
       style="display:inline;overflow:visible;visibility:visible;fill:#f9f9f9;fill-opacity:1;fill-rule:evenodd;stroke:#cccccc;stroke-width:0.25;stroke-linecap:butt;stroke-linejoin:miter;stroke-miterlimit:4;stroke-dasharray:none;stroke-dashoffset:0;stroke-opacity:1;marker:none;enable-background:accumulate"
       sodipodi:nodetypes="ccccccccccc"
       inkscape:connector-curvature="0" />
  </g>
  <path
     style="color:#000000;display:inline;overflow:visible;visibility:visible;fill:#de8787;fill-opacity:1;fill-rule:evenodd;stroke:none;stroke-width:0.32081631;marker:none;enable-background:accumulate"
     d="m 278.34981,141.81024 c 0.47648,-0.036 1.75046,0.1365 2.51107,0.1483 0.70059,0.011 1.4635,-0.1656 2.18385,-0.03 1.8673,0.3516 3.44496,1.09177 4.10442,1.87447 -0.55471,-1.1691 -2.17166,-2.66877 -3.93561,-3.20747 -0.66756,-0.2039 -1.52249,0.2836 -2.31434,0.2733 -0.79181,-0.011 -1.37261,-0.4879 -2.22961,-0.3341 -2.94005,0.5277 -3.90524,1.62467 -4.30497,3.65697 0.18744,-0.8241 1.68561,-2.20657 3.98519,-2.38147 z"
     id="path66486-6-3-1-9-3"
     inkscape:connector-curvature="0"
     sodipodi:nodetypes="ssscssscs" />
</svg>
