<svg xmlns="http://www.w3.org/2000/svg" id="mouth_dejection" width="560" height="560">
  <path class="lowerlip" d="M274.24 142.83c1.15.2 2.18.3 2.67.5.9.32 2.5.37 3.77.37 1.53 0 2.8-.04 3.94-.34.7-.2 2-.24 2.46-.56-2.57-1.65-10.2-1.4-12.78.03z" style="display:inline;fill:#e9afaf;stroke:none;enable-background:new"/>
  <path class="upperlip" d="M284 141.87c-.86-.1-2.18.57-3.17.57-1 0-2.13-.63-3.26-.47-1.07.16-2.4.56-3.2.9.54-.6 1.74-1.08 2.6-1.4 1.8-.7 2.14-.1 3.96-.1 1.82 0 1.86-.66 3.38-.2 1.2.37 2.4 1.16 2.8 1.64-.53-.22-2.3-.8-3.1-.9z" style="display:inline;fill:#de8787;stroke:none;enable-background:new"/>
</svg>
