<svg xmlns="http://www.w3.org/2000/svg" id="mouth_disgust" width="560" height="560">
  <path class="lowerlip" d="M274.04 144.75c.94-1.72 2.48-2.04 3.3-1.58.8.44 2.13 1.07 3.4 1.07 1.54 0 2.7-.46 3.74-1.03.83-.44 2.3.14 3.16 1.73-2.7-5.88-11.5-4.57-13.6-.17z" style="display:inline;fill:#e9afaf;stroke:none;enable-background:new"/>
  <path class="upperlip" d="M284.52 142.05c-1.2-.28-2.7.4-3.7.4s-2.56-.85-4.04-.2c-1.14.48-2.42 1.92-2.76 2.53.42-1.42 1.87-3.17 2.6-3.72 1.53-1.18 2.35-.3 4.17-.3 1.8 0 2.34-1.2 4.12.22 1.32 1.06 1.84 2.1 2.64 3.9-1.04-1.74-1.84-2.55-3.05-2.83z" style="display:inline;fill:#de8787;stroke:none;enable-background:new"/>
</svg>
