<?xml version="1.0" encoding="UTF-8" standalone="no"?>
<svg xmlns="http://www.w3.org/2000/svg" id="mouth_betrayal" width="560" height="560">
  <path id="path39382-4-2" d="m 280.84793,148.32735 c -3.30218,0.55361 -4.9118,-0.38457 -6.02584,-2.80721 -0.25377,-0.89193 0.45172,-2.80448 2.35398,-4.03187 0.97753,-0.63073 2.53616,-0.89183 3.58116,-0.88963 1.11642,0.002 2.99351,0.14247 3.55438,0.7336 1.61876,1.70606 2.52175,3.45042 2.29782,4.27171 -0.10068,0.36927 -0.73913,1.59943 -1.63086,2.23266 -1.19795,0.68578 -2.78393,0.36706 -4.13064,0.49074 z" style="color:#000000;display:inline;overflow:visible;visibility:visible;fill:#800000;fill-opacity:1;fill-rule:evenodd;stroke:none;stroke-width:0.12364834;marker:none;enable-background:accumulate"/>
  <path id="path39384-6-3" d="m 282.45902,141.23957 c -0.0478,0.008 -0.0808,0.0248 -0.13137,0.0309 -0.22349,0.027 -0.47471,0.0397 -0.74189,0.0386 -0.53436,-0.002 -1.13781,-0.0493 -1.73881,-0.085 -0.21291,-0.0126 -0.40149,2.3e-4 -0.61051,-0.008 -0.87817,0.78418 -1.09738,2.22581 -1.09738,3.18395 0,1.36241 0.13825,4.49999 1.56879,3.13757 0.81745,-0.54496 2.29575,0.10968 2.73826,0.0375 1.58723,-0.25884 1.28031,-0.92281 1.28031,-2.96644 0,-1.36465 -0.37611,-2.65364 -1.2674,-3.36941 z" style="color:#000000;display:inline;overflow:visible;visibility:visible;fill:#550000;fill-opacity:1;fill-rule:evenodd;stroke:none;stroke-width:0.5;marker:none;enable-background:accumulate"/>
  <path id="path39386-7-1" d="m 280.98196,145.90884 c -2.76853,0 -3.13749,-0.65629 -3.13749,-2.10776 0,-1.27848 1.25193,-2.3004 2.03721,-2.3004 0.99387,0 1.31834,0.80557 0.83578,1.13251 -1.62688,1.10224 2.02038,1.36675 1.04473,0.10617 -0.47819,-0.61784 0.20677,-1.20329 0.83578,-1.20329 0.57697,0 1.61669,0.39683 1.61669,1.89718 0,1.50035 -1.24772,2.54638 -3.2327,2.47559 z" style="color:#000000;display:inline;overflow:visible;visibility:visible;fill:#000000;fill-opacity:1;fill-rule:evenodd;stroke:#000000;stroke-width:0.12364835;stroke-linecap:butt;stroke-linejoin:miter;stroke-miterlimit:4;stroke-dasharray:none;stroke-dashoffset:0;stroke-opacity:1;marker:none;enable-background:accumulate"/>
  <path id="path39388-4-6" d="m 281.25368,144.72011 c -1.04462,-0.12511 -4.16959,-2.03379 -5.11595,1.15149 -5e-4,0.0174 0.008,0.0366 0.008,0.0541 1.1015,1.06796 3.62514,2.40342 4.70637,2.40342 0.73278,0 3.69434,-1.15323 4.76819,-2.04793 -0.39048,-3.91751 -3.57459,-1.46622 -4.36661,-1.56108 z" style="color:#000000;display:inline;overflow:visible;visibility:visible;fill:#a02c2c;fill-opacity:1;fill-rule:evenodd;stroke:#501616;stroke-width:0.12364834;stroke-linecap:butt;stroke-linejoin:miter;stroke-miterlimit:4;stroke-dasharray:none;stroke-dashoffset:0;stroke-opacity:1;marker:none;enable-background:accumulate"/>
  <path id="path39390-4-7" d="m 281.12041,145.1938 c -5.2549,-3.21837 -4.63222,1.94076 0,1.53203 4.63221,-0.40872 4.7001,-4.28521 0,-1.53203 z" style="color:#000000;display:inline;overflow:visible;visibility:visible;fill:#b85757;fill-opacity:1;fill-rule:evenodd;stroke:none;stroke-width:0.5;marker:none;enable-background:accumulate"/>
  <path id="path39394-48-1" d="M 274.98633 145.58789 C 274.93626 145.58081 274.89804 145.58454 274.85938 145.58984 C 275.02513 145.94236 275.20677 146.25498 275.39844 146.54297 C 275.54816 146.51233 275.70704 146.48633 275.86523 146.48633 C 276.01314 145.93774 275.65935 145.7207 275.54102 145.7207 C 275.45227 145.7207 275.18739 145.61632 274.98633 145.58789 z" style="color:#000000;display:inline;overflow:visible;visibility:visible;fill:#f2f2f2;stroke:#cccccc;stroke-width:0.25000003;stroke-linecap:butt;stroke-linejoin:miter;stroke-miterlimit:4;stroke-dasharray:none;stroke-dashoffset:0;stroke-opacity:1;marker:none;enable-background:accumulate"/>
  <path id="path39396-7-3" d="M 275.91016 145.95312 C 275.79183 145.99642 275.80557 145.95157 275.61328 145.98047 C 275.421 146.00934 275.33316 146.1255 275.31836 146.22656 C 275.3131 146.26248 275.28238 146.30247 275.25586 146.3418 C 275.40085 146.58004 275.55667 146.79372 275.7207 146.99219 C 275.90717 146.87226 276.10638 146.75455 276.25 146.73242 C 276.37612 146.48062 276.39311 146.19384 276.38281 146.08203 C 276.3976 145.981 276.02848 145.90983 275.91016 145.95312 z" style="color:#000000;display:inline;overflow:visible;visibility:visible;fill:#f2f2f2;stroke:#cccccc;stroke-width:0.25000003;stroke-linecap:butt;stroke-linejoin:miter;stroke-miterlimit:4;stroke-dasharray:none;stroke-dashoffset:0;stroke-opacity:1;marker:none;enable-background:accumulate"/>
  <path id="path39398-6-6" d="m 276.8396,146.86768 c -0.27194,0.0817 -0.53341,0.32666 -0.70075,0.46958 -0.16734,0.14291 -0.37652,0.22458 -0.36606,0.0715 0.0105,-0.15313 0.0418,-0.57166 0.15688,-0.83708 0.11505,-0.26541 0.25102,-0.42874 0.46019,-0.60228 0.20918,-0.17354 0.73212,0.0715 0.70075,0.19396 -0.0314,0.12249 -0.0418,0.48999 -0.25101,0.70436 z" style="color:#000000;display:inline;overflow:visible;visibility:visible;fill:#f2f2f2;stroke:#cccccc;stroke-width:0.25000003;stroke-linecap:butt;stroke-linejoin:miter;stroke-miterlimit:4;stroke-dasharray:none;stroke-dashoffset:0;stroke-opacity:1;marker:none;enable-background:accumulate"/>
  <path id="path39400-9-8" d="m 277.38346,147.05143 c -0.28239,0.22458 -0.51249,0.63291 -0.79488,0.7452 -0.28239,0.11229 -0.27193,-0.0408 -0.25101,-0.18375 0.0209,-0.14292 -0.0732,-0.56145 0.0837,-0.89832 0.15688,-0.33687 0.44973,-0.67374 0.5857,-0.68395 0.13596,-0.0102 0.40789,0.11229 0.43927,0.15312 0.0314,0.0408 0.16734,0.16333 0.13596,0.26542 -0.0314,0.10208 -0.0523,0.38791 -0.19871,0.60228 z" style="color:#000000;display:inline;overflow:visible;visibility:visible;fill:#f2f2f2;stroke:#cccccc;stroke-width:0.25000003;stroke-linecap:butt;stroke-linejoin:miter;stroke-miterlimit:4;stroke-dasharray:none;stroke-dashoffset:0;stroke-opacity:1;marker:none;enable-background:accumulate"/>
  <g id="g39402-1-2" style="stroke:#cccccc;stroke-width:47.47182465;stroke-miterlimit:4;stroke-dasharray:none">
    <path id="path39404-39-7" d="m 5332.272,3202.0825 c -31.3777,0.9805 -43.1654,7.8483 -72.5963,78.4825 -29.4309,70.6342 -66.7101,70.6342 -80.4445,74.5583 -13.7345,3.9241 -49.0516,-5.8862 -47.0895,-23.5447 1.9621,-17.6586 -11.7724,-151.0788 3.9241,-188.3579 15.6965,-37.2792 21.5827,-113.7996 51.0136,-143.2305 29.4309,-29.4309 49.0516,-52.9757 78.4825,-51.0136 29.4309,1.962 98.1031,80.4445 96.141,90.2548 -1.9621,9.8103 2.008,161.8687 -29.4309,162.8511 z" style="color:#000000;display:inline;overflow:visible;visibility:visible;fill:#f2f2f2;stroke:#cccccc;stroke-width:47.47182465;stroke-linecap:butt;stroke-linejoin:miter;stroke-miterlimit:4;stroke-dasharray:none;stroke-dashoffset:0;stroke-opacity:1;marker:none;enable-background:accumulate" transform="matrix(0.00533055,0,0,0.00520279,249.73347,130.82041)"/>
    <path id="path39406-79-0" d="m 5279.612,3033.3293 c 7.5682,6.8893 11.8607,16.5565 3.9311,21.3496 -3.9738,2.4021 -11.3189,11.535 -9.8279,23.2466 0.892,7.0068 -8.6839,43.8728 -15.228,52.053 -10.483,13.1037 -15.7245,-10.4829 -6.5519,-22.2762 9.1726,-11.7933 14.4141,-20.9659 13.1037,-24.897 -1.3104,-3.9311 -2.6207,-9.1726 3.9311,-20.9659 6.5518,-11.7933 6.9356,-16.492 3.0045,-20.4231 -3.9311,-3.9311 -0.2748,-15.2894 7.6374,-8.087 z" style="color:#000000;display:inline;overflow:visible;visibility:visible;fill:#ffffff;stroke:none;stroke-width:15.7275238;marker:none;enable-background:accumulate" transform="matrix(0.00533055,0,0,0.00520279,249.73347,130.82041)"/>
    <path id="path39408-65-2" d="m 5220.3911,3205.1946 c 0,0 14.8251,0 20.3845,-5.5594 5.5595,-5.5594 0,-24.0908 0,-24.0908 0,0 3.7063,-12.972 -3.7062,-16.6782 -7.4126,-3.7063 -18.5314,1.8531 -16.6783,11.1188 1.8531,9.2657 9.2657,18.5314 0,35.2096 z" style="color:#000000;display:inline;overflow:visible;visibility:visible;fill:#ffffff;stroke:none;stroke-width:15.7275238;marker:none;enable-background:accumulate" transform="matrix(0.00533055,0,0,0.00520279,249.73347,130.82041)"/>
  </g>
  <path id="path39410-4-4" d="m 279.30789,147.52101 c 0.0837,-0.245 0.0941,-1.02082 -0.11505,-0.97999 -0.0523,-0.051 -0.13596,-0.0613 -0.19872,-0.051 -0.0627,-0.0715 -0.21963,-0.0408 -0.21963,-0.0408 0,0 -0.39744,-0.0715 -0.49157,-0.0306 -0.0941,0.0408 -0.0732,0.28583 -0.0941,0.38791 -0.0209,0.10208 0.10459,0.90853 0.12551,1.10249 0.0209,0.19395 0.40789,0.48999 0.58569,0.14291 0.1778,-0.34708 0.29285,-0.43895 0.4079,-0.53082 z" style="color:#000000;display:inline;overflow:visible;visibility:visible;fill:#f2f2f2;stroke:#cccccc;stroke-width:0.25000003;stroke-linecap:butt;stroke-linejoin:miter;stroke-miterlimit:4;stroke-dasharray:none;stroke-dashoffset:0;stroke-opacity:1;marker:none;enable-background:accumulate"/>
  <path id="path39412-5-7" d="M 286.61133 145.58594 C 286.54484 145.62683 286.47294 145.67167 286.44531 145.70117 C 286.3827 145.76804 286.27541 145.89027 286.31641 146.22852 C 286.46153 145.96442 286.57546 145.72793 286.60938 145.60352 C 286.61079 145.59834 286.61001 145.59118 286.61133 145.58594 z" style="color:#000000;display:inline;overflow:visible;visibility:visible;fill:#f2f2f2;stroke:#cccccc;stroke-width:0.25000003;stroke-linecap:butt;stroke-linejoin:miter;stroke-miterlimit:4;stroke-dasharray:none;stroke-dashoffset:0;stroke-opacity:1;marker:none;enable-background:accumulate"/>
  <g id="g39414-9-9" style="stroke:#cccccc;stroke-width:47.47182465;stroke-miterlimit:4;stroke-dasharray:none">
    <path id="path39416-9-4" d="m 5742.1949,3226.1459 c 15.2612,6.9369 47.8444,46.5387 57.5561,61.8 9.7117,15.2612 61.952,28.639 93.9071,-14.112 30.8592,-41.2849 37.2214,-78.2105 41.3836,-93.4718 4.1621,-15.2613 12.4864,-29.1351 13.8738,-56.8829 1.3874,-27.7477 6.937,-88.7927 8.3243,-94.3423 1.3874,-5.5495 -5.5495,-13.8739 -8.3243,-16.6486 -2.7747,-2.7748 2.91,-14.8712 -8.4226,-20.6834 -11.3326,-5.8122 -23.0205,-1.1631 -38.1609,-2.5879 -15.1402,-1.4247 -37.1946,-0.6457 -46.8181,-6.0752 -12.9219,-7.2903 -44.5668,-3.6661 -56.7179,-6.237 -12.151,-2.5709 -43.1625,-8.4355 -51.4868,-2.8859 -8.3244,5.5495 -10.5898,4.5616 -13.5192,39.4193 -2.9292,34.8577 8.4049,165.5365 8.4049,212.7077 z" style="color:#000000;display:inline;overflow:visible;visibility:visible;fill:#f2f2f2;stroke:#cccccc;stroke-width:47.47182465;stroke-linecap:butt;stroke-linejoin:miter;stroke-miterlimit:4;stroke-dasharray:none;stroke-dashoffset:0;stroke-opacity:1;marker:none;enable-background:accumulate" transform="matrix(0.00533055,0,0,0.00520279,249.73347,130.82041)"/>
    <path id="path39418-4-7" d="m 5852.3115,3180.1773 c 2.9747,-15.5789 -4.6328,-38.916 -4.6328,-49.1082 0,-10.1923 8.3391,-28.7237 11.1188,-35.2097 -5.5594,-0.9265 -11.1188,7.4126 -15.7517,12.972 -3.7062,-6.486 -5.5594,-18.5314 -4.6328,-28.7236 -5.5594,4.6328 -17.6048,19.4579 -14.8251,25.0173 2.7797,5.5595 8.3391,19.458 6.486,22.2377 -1.8532,2.7797 -1.8532,3.7063 2.7797,12.972 4.6328,9.2657 13.8985,29.1939 13.8985,44.4753 0,13.8985 8.3391,23.1643 12.972,30.5768 -7.4126,-12.972 -9.2636,-25.5157 -7.4126,-35.2096 z" style="color:#000000;display:inline;overflow:visible;visibility:visible;fill:#ffffff;stroke:none;stroke-width:15.7275238;marker:none;enable-background:accumulate" transform="matrix(0.00533055,0,0,0.00520279,249.73347,130.82041)"/>
  </g>
  <g id="g39420-4-8" style="stroke:#cccccc;stroke-width:47.47182465;stroke-miterlimit:4;stroke-dasharray:none">
    <path id="path39422-4-1" d="m 5747.2425,3226.1459 c -15.2612,6.9369 -36.072,81.8558 -45.7837,97.1171 -9.7117,15.2612 -84.6306,29.1351 -109.6036,-18.0361 -24.973,-47.1711 -33.2973,-109.6035 -37.4595,-124.8648 -4.1621,-15.2613 -12.4864,-29.1351 -13.8738,-56.8829 -1.3874,-27.7477 -6.937,-88.7927 -8.3243,-94.3423 -1.3874,-5.5495 5.5495,-13.8739 8.3243,-16.6486 2.7747,-2.7748 -2.7748,-11.0991 8.3243,-16.6487 11.0991,-5.5495 22.1982,-4.1621 36.0721,-4.1621 13.8738,0 51.3333,4.1621 61.045,4.1621 9.7117,0 22.1982,1.3874 33.2973,0 11.0991,-1.3874 38.8468,-9.7117 47.1711,-4.1621 8.3244,5.5495 9.7117,5.5495 15.2613,37.4594 5.5495,31.9099 5.5495,149.8378 5.5495,197.009 z" style="color:#000000;display:inline;overflow:visible;visibility:visible;fill:#f2f2f2;stroke:#cccccc;stroke-width:47.47182465;stroke-linecap:butt;stroke-linejoin:miter;stroke-miterlimit:4;stroke-dasharray:none;stroke-dashoffset:0;stroke-opacity:1;marker:none;enable-background:accumulate" transform="matrix(0.00533055,0,0,0.00520279,249.73347,130.82041)"/>
    <path id="path39424-9-5" d="m 5681.8227,3144.0411 c -0.9265,-19.458 -2.7797,-37.0628 2.7797,-40.7691 5.5594,-3.7063 9.2657,-10.1923 9.2657,-14.8251 0,-4.6329 0,-22.2377 2.7798,-25.944 2.7797,-3.7062 6.4859,-20.3845 11.1188,-27.797 -4.6329,1.8531 -12.972,2.7797 -12.972,2.7797 -0.9266,7.4125 -2.7797,12.0454 -5.5594,16.6782 -2.7797,4.6329 -9.2657,38.9159 -10.1923,43.5488 3.7063,-22.2377 8.3392,-45.4019 11.1189,-51.8879 -3.7063,6.486 -3.7063,7.4125 -8.3392,11.1188 -2.7797,12.0454 -10.1922,53.7411 -12.0454,58.3739 -1.8531,4.6328 0.9266,32.4299 0,37.9894 4.6329,-3.7063 7.4126,-8.3392 12.0454,-9.2657 z" style="color:#000000;display:inline;overflow:visible;visibility:visible;fill:#ffffff;stroke:none;stroke-width:15.7275238;marker:none;enable-background:accumulate" transform="matrix(0.00533055,0,0,0.00520279,249.73347,130.82041)"/>
    <path id="path39426-4-3" d="m 5608.3552,3149.634 0,-24.8969 c -7.8622,-18.3452 -9.1726,-44.5525 3.9311,-52.4147 -1.3104,-2.6208 -10.4829,-10.483 -9.1726,-17.0348 -11.7933,3.9311 -11.7933,9.1726 -10.4829,14.414 1.3104,5.2415 -3.9311,1.3104 -2.6207,14.4141 1.3103,13.1036 -1.3104,23.5866 18.3451,65.5183 z" style="color:#000000;display:inline;overflow:visible;visibility:visible;fill:#ffffff;stroke:none;stroke-width:15.7275238;marker:none;enable-background:accumulate" transform="matrix(0.00533055,0,0,0.00520279,249.73347,130.82041)"/>
    <path id="path39428-7-2" d="m 5631.9418,3106.3919 c 1.3104,-23.5866 5.2415,-57.6561 15.7244,-58.9665 -14.414,-5.2415 -9.1726,-18.3451 7.8622,-23.5866 -18.3451,-1.3104 -26.2073,0 -30.1384,6.5518 -3.9311,6.5519 0,17.0348 -2.6208,19.6555 -2.6207,2.6208 1.3104,10.483 11.7933,10.483 -5.2414,9.1725 -6.5518,18.3451 -11.7933,27.5177 5.2415,10.4829 3.9311,3.9311 9.1726,18.3451 z" style="color:#000000;display:inline;overflow:visible;visibility:visible;fill:#ffffff;stroke:none;stroke-width:15.7275238;marker:none;enable-background:accumulate" transform="matrix(0.00533055,0,0,0.00520279,249.73347,130.82041)"/>
  </g>
  <path id="path39432-7-4" d="M 286.20703 145.74609 C 286.01475 145.71719 285.90156 145.91486 285.77539 145.92188 C 285.63615 145.92988 285.46619 145.89964 285.35547 146.16406 C 285.34517 146.27587 285.51864 146.48062 285.64453 146.73242 C 285.72571 146.78417 285.81186 146.82961 285.89648 146.87695 C 286.1908 146.4747 286.40124 146.10235 286.51367 145.83594 C 286.44069 145.80047 286.34349 145.76658 286.20703 145.74609 z" style="color:#000000;display:inline;overflow:visible;visibility:visible;fill:#f2f2f2;stroke:#cccccc;stroke-width:0.25000003;stroke-linecap:butt;stroke-linejoin:miter;stroke-miterlimit:4;stroke-dasharray:none;stroke-dashoffset:0;stroke-opacity:1;marker:none;enable-background:accumulate"/>
  <path id="path39434-4-0" d="m 285.99939,146.58008 c -0.0908,-0.0818 -0.34925,-0.19089 -0.33528,-0.25225 -0.0419,0.0341 -0.0559,-0.0205 -0.10478,-0.0682 0.007,0.12954 0.0419,0.15681 0.16066,0.19771 0.11874,0.0409 0.20955,0.0886 0.2794,0.12272 z" style="color:#000000;display:inline;overflow:visible;visibility:visible;fill:#ffffff;stroke:none;stroke-width:15.7275238;stroke-miterlimit:4;stroke-dasharray:none;marker:none;enable-background:accumulate"/>
  <g id="g39436-4-5" style="stroke:#cccccc;stroke-width:47.47182465;stroke-miterlimit:4;stroke-dasharray:none">
    <path id="path39438-3-9" d="m 6554.223,3084.3588 c 51.0136,15.6965 78.4824,54.9378 109.8754,82.4067 31.393,27.4688 100.0651,51.0135 98.1031,21.5826 -1.9621,-29.4309 -9.8103,-96.1411 -11.7724,-121.6479 -4.2484,-55.2281 -52.9756,-119.6856 -92.2169,-153.0407 -13.5704,-11.5349 -38.4371,-0.068 -62.4727,-2.7372 -35.5599,-3.9491 -92.4566,22.6518 -88.606,38.0543 5.8862,23.5447 7.8483,94.1789 47.0895,135.3822 z" style="color:#000000;display:inline;overflow:visible;visibility:visible;fill:#f2f2f2;stroke:#cccccc;stroke-width:47.47182465;stroke-linecap:butt;stroke-linejoin:miter;stroke-miterlimit:4;stroke-dasharray:none;stroke-dashoffset:0;stroke-opacity:1;marker:none;enable-background:accumulate" transform="matrix(0.00533055,0,0,0.00520279,249.73347,130.82041)"/>
    <path id="path39440-3-7" d="m 6676.3045,3109.0127 c 6.5518,-22.2763 1.3103,-44.5525 -13.1037,-58.9666 6.5518,27.5177 11.7933,44.5525 13.1037,58.9666 z" style="color:#000000;display:inline;overflow:visible;visibility:visible;fill:#ffffff;stroke:none;stroke-width:15.7275238;marker:none;enable-background:accumulate" transform="matrix(0.00533055,0,0,0.00520279,249.73347,130.82041)"/>
  </g>
  <g id="g39442-8-3" style="stroke:#cccccc;stroke-width:47.47182465;stroke-miterlimit:4;stroke-dasharray:none">
    <path id="path39444-9-1" d="m 6420.1873,3139.2965 c 52.9756,43.1654 68.6721,113.7997 121.6478,135.3823 52.9756,21.5827 88.8691,12.0167 90.2548,-15.6965 1.9621,-39.2412 7.8483,-139.3064 -21.5827,-204.0544 -29.4309,-64.748 -84.3686,-129.4961 -109.8754,-131.4581 -25.5068,-1.9621 -62.786,43.1654 -72.5963,45.1274 -9.6198,1.9239 -35.3171,11.7724 -35.3171,35.3171 0,20.4845 0,94.1789 27.4689,135.3822 z" style="color:#000000;display:inline;overflow:visible;visibility:visible;fill:#f2f2f2;stroke:#cccccc;stroke-width:47.47182465;stroke-linecap:butt;stroke-linejoin:miter;stroke-miterlimit:4;stroke-dasharray:none;stroke-dashoffset:0;stroke-opacity:1;marker:none;enable-background:accumulate" transform="matrix(0.00533055,0,0,0.00520279,249.73347,130.82041)"/>
    <path id="path39446-2-2" d="m 6500.7153,3115.5645 c 6.5518,15.7244 26.2073,52.4147 23.5866,72.0702 -2.6207,19.6555 -32.7592,-27.5177 -40.6214,-40.6214 -7.8622,-13.1037 -20.9659,0 -24.897,-7.8622 -3.9311,-7.8622 -27.5177,-57.6562 -34.0695,-62.8976 -6.5519,-5.2415 -13.1037,-13.1037 -2.6208,-18.3452 -6.5518,-22.2762 14.4141,-14.414 14.4141,3.9311 0,18.3452 20.9659,56.3458 28.8281,57.6562 7.8622,1.3104 3.9311,-7.8622 35.3799,-3.9311 z" style="color:#000000;display:inline;overflow:visible;visibility:visible;fill:#ffffff;stroke:none;stroke-width:15.7275238;marker:none;enable-background:accumulate" transform="matrix(0.00533055,0,0,0.00520279,249.73347,130.82041)"/>
    <path id="path39448-2-6" d="m 6566.2336,3157.4962 c -3.9311,-18.3451 -17.0347,-45.8628 -23.5866,-56.3458 7.8622,26.2074 1.3104,27.5178 23.5866,56.3458 z" style="color:#000000;display:inline;overflow:visible;visibility:visible;fill:#ffffff;stroke:none;stroke-width:15.7275238;marker:none;enable-background:accumulate" transform="matrix(0.00533055,0,0,0.00520279,249.73347,130.82041)"/>
  </g>
  <g id="g39450-8-9" style="stroke:#cccccc;stroke-width:47.47182465;stroke-miterlimit:4;stroke-dasharray:none">
    <path id="path39452-0-0" d="m 6202.5139,3206.0066 c 35.3018,18.6391 35.3172,25.5069 64.7481,96.1411 29.4309,70.6342 90.2548,49.0515 103.9892,52.9756 13.7345,3.9241 41.8645,-6.5632 47.0895,-23.5447 7.8482,-25.5068 9.1978,-162.2959 1.9621,-202.0923 -11.7724,-64.7481 -6.3938,-108.0352 -43.1654,-127.534 -29.2389,-15.5045 -53.0362,-54.3315 -77.2452,-61.8647 -16.5829,-5.1602 -36.3624,13.9775 -48.3267,14.7752 -29.4309,1.9621 -62.786,64.748 -76.5204,78.4824 -7.0743,7.0743 -0.3464,157.9752 27.4688,172.6614 z" style="color:#000000;display:inline;overflow:visible;visibility:visible;fill:#f2f2f2;stroke:#cccccc;stroke-width:47.47182465;stroke-linecap:butt;stroke-linejoin:miter;stroke-miterlimit:4;stroke-dasharray:none;stroke-dashoffset:0;stroke-opacity:1;marker:none;enable-background:accumulate" transform="matrix(0.00533055,0,0,0.00520279,249.73347,130.82041)"/>
    <path id="path39454-1-3" d="m 6257.2224,3046.7513 c -2.7797,-7.4126 -7.3269,-5.5505 -8.3391,3.7062 -0.979,8.9537 13.2838,64.3256 28.4647,90.2644 14.144,24.1673 16.3732,51.9341 17.8638,64.4728 1.2471,10.4906 10.1923,8.3391 8.3391,-1e-4 -2.878,-12.9504 -9.2657,-63.9333 -15.7517,-70.4192 -6.486,-6.486 -20.3845,-37.0628 -30.5768,-88.0241 z" style="color:#000000;display:inline;overflow:visible;visibility:visible;fill:#ffffff;stroke:none;stroke-width:15.7275238;marker:none;enable-background:accumulate" transform="matrix(0.00533055,0,0,0.00520279,249.73347,130.82041)"/>
  </g>
  <g id="g39456-7-1" style="stroke:#cccccc;stroke-width:47.47182465;stroke-miterlimit:4;stroke-dasharray:none">
    <path id="path39458-1-5" d="m 5943.8998,3152.6872 c 6.295,-76.564 -12.4035,-151.9871 14.1731,-145.4543 1.1256,-6.0541 8.0549,-15.4438 21.9731,-13.507 18.0493,2.5117 39.7658,-0.076 47.6431,1.485 13.9945,-12.7161 47.5551,-4.127 47.5551,-4.127 0,0 80.6848,-5.7859 98.1912,3.1966 17.5063,8.9826 11.201,55.1327 12.6463,75.0165 1.4455,19.8838 -14.953,163.8435 -21.0652,201.3045 -12.8117,78.5225 -113.8629,109.0338 -147.1534,41.2925 -33.2907,-67.7413 -52.3851,-140.2649 -73.9633,-159.2068 z" style="color:#000000;display:inline;overflow:visible;visibility:visible;fill:#f2f2f2;stroke:#cccccc;stroke-width:47.47182465;stroke-linecap:butt;stroke-linejoin:miter;stroke-miterlimit:4;stroke-dasharray:none;stroke-dashoffset:0;stroke-opacity:1;marker:none;enable-background:accumulate" transform="matrix(0.00533055,0,0,0.00520279,249.73347,130.82041)"/>
    <path id="path39460-6-1" d="m 5991.297,3068.0624 c -9.2657,-44.4754 -1.8532,-63.0067 29.6502,-51.888 -12.972,9.2657 -29.6502,44.4754 -29.6502,51.888 z" style="color:#000000;display:inline;overflow:visible;visibility:visible;fill:#ffffff;stroke:none;stroke-width:15.7275238;marker:none;enable-background:accumulate" transform="matrix(0.00533055,0,0,0.00520279,249.73347,130.82041)"/>
  </g>
  <path id="path39486-4-5" d="M 277.54102 141.28516 C 277.4134 141.34865 277.28941 141.41496 277.17578 141.48828 C 276.98175 141.61348 276.80805 141.74908 276.63867 141.88672 C 276.65435 141.89476 276.66654 141.91559 276.68359 141.91797 C 276.88827 141.94647 277.09399 141.8036 277.21094 141.68945 C 277.3279 141.57529 277.34209 141.53245 277.48828 141.50391 C 277.53755 141.4943 277.54582 141.3996 277.54102 141.28516 z" style="color:#000000;display:inline;overflow:visible;visibility:visible;fill:#f2f2f2;stroke:#cccccc;stroke-width:0.25000003;stroke-linecap:butt;stroke-linejoin:miter;stroke-miterlimit:4;stroke-dasharray:none;stroke-dashoffset:0;stroke-opacity:1;marker:none;enable-background:accumulate"/>
  <path id="path39492-0-6" d="M 278.77148 140.85547 C 278.24358 140.98603 277.73134 141.16669 277.30859 141.41406 C 277.31627 141.43994 277.31839 141.48847 277.32812 141.50391 C 277.44509 141.68941 277.53243 141.66211 277.63477 141.66211 C 277.70787 141.76201 277.73651 141.73295 277.82422 141.71875 C 277.98504 141.83291 278.26373 141.69008 278.29297 141.67578 C 278.32217 141.66148 278.45253 141.6896 278.64258 141.54688 C 278.79144 141.43512 278.80977 141.31172 278.77148 140.85547 z" style="color:#000000;display:inline;overflow:visible;visibility:visible;fill:#f2f2f2;stroke:#cccccc;stroke-width:0.25000003;stroke-linecap:butt;stroke-linejoin:miter;stroke-miterlimit:4;stroke-dasharray:none;stroke-dashoffset:0;stroke-opacity:1;marker:none;enable-background:accumulate"/>
  <path id="path39498-4-1" d="M 283.69531 140.97852 C 283.67099 141.21542 283.66879 141.49416 283.75781 141.5625 C 283.89059 141.66445 283.92564 141.70456 284.07031 141.83984 C 284.19495 141.9564 284.40866 142.05398 284.55859 142.08008 C 284.72116 142.10839 284.77926 142.05959 284.8418 141.92383 C 284.67452 141.72718 284.49952 141.52914 284.3125 141.33203 C 284.17609 141.18826 283.95755 141.07346 283.69531 140.97852 z" style="color:#000000;display:inline;overflow:visible;visibility:visible;fill:#f2f2f2;stroke:#cccccc;stroke-width:0.25000003;stroke-linecap:butt;stroke-linejoin:miter;stroke-miterlimit:4;stroke-dasharray:none;stroke-dashoffset:0;stroke-opacity:1;marker:none;enable-background:accumulate"/>
  <path id="path39502-1-6" d="m 284.38586,140.58504 c 0.0419,0.16362 0.0279,0.32724 0,0.40905 -0.0279,0.0818 -0.18161,0.35451 -0.19558,0.53177 -0.0419,-0.0954 -0.0838,-0.13635 -0.0838,-0.13635 l 0.0838,-0.19089 -0.12573,0.17725 -0.0978,-0.10908 c 0.16764,-0.0682 0.22352,-0.17725 0.22352,-0.23179 0,-0.0545 0.014,-0.12272 0.0699,-0.17726 -0.0419,0.0954 0,0.21816 -0.0559,0.31361 0.11176,-0.12272 0.1397,-0.17726 0.12573,-0.2318 -0.014,-0.0545 -0.0419,-0.0954 0,-0.13635 0.0419,-0.0409 0.0559,-0.14999 0.0559,-0.21816 z" style="color:#000000;display:inline;overflow:visible;visibility:visible;fill:#ffffff;stroke:none;stroke-width:15.7275238;stroke-miterlimit:4;stroke-dasharray:none;marker:none;enable-background:accumulate"/>
  <path id="path39504-8-6" d="m 284.63732,141.30088 c 0.007,0.10908 -0.0629,0.19089 -0.0559,0.25225 0.007,0.0614 -0.0419,0.0545 -0.0419,0.0273 0,-0.0273 -0.0349,-0.0477 0.007,-0.0954 0.0419,-0.0477 0.0629,-0.15681 0.0908,-0.18408 z" style="color:#000000;display:inline;overflow:visible;visibility:visible;fill:#ffffff;stroke:none;stroke-width:15.7275238;stroke-miterlimit:4;stroke-dasharray:none;marker:none;enable-background:accumulate"/>
  <path id="path39508-9-8" d="M 282.36719 140.70312 C 282.35561 140.87073 282.36902 141.1033 282.39844 141.49023 C 282.41309 141.74272 282.58144 141.74732 282.69141 141.76172 C 282.84132 141.78131 282.96127 141.81812 283.06836 141.76172 C 283.27065 141.79048 283.55132 141.75768 283.65234 141.67578 C 283.76738 141.58252 283.80844 141.62836 283.83594 141.4043 C 283.84622 141.32084 283.85612 141.19283 283.85156 141.04688 C 283.45677 140.87431 282.92405 140.7703 282.36719 140.70312 z" style="color:#000000;display:inline;overflow:visible;visibility:visible;fill:#f2f2f2;stroke:#cccccc;stroke-width:0.25000003;stroke-linecap:butt;stroke-linejoin:miter;stroke-miterlimit:4;stroke-dasharray:none;stroke-dashoffset:0;stroke-opacity:1;marker:none;enable-background:accumulate"/>
  <path id="path39510-84-3" d="m 282.86313,140.63958 c 0,0 -0.15367,0.5045 -0.15367,0.5454 0,0.0409 -0.0349,0.12272 -0.0349,0.14999 0,0.0273 0,0.0818 -0.0349,0.14999 0.021,-0.0954 0.014,-0.1909 0.021,-0.23862 0.007,-0.0477 0.0349,-0.12272 0.0489,-0.17044 0.014,-0.0477 -0.007,-0.0545 0.014,-0.0886 0.021,-0.0341 0.03,-0.0642 0.0509,-0.10508 0.021,-0.0409 0.0608,-0.19489 0.0888,-0.24261 z" style="color:#000000;display:inline;overflow:visible;visibility:visible;fill:#ffffff;stroke:none;stroke-width:15.7275238;stroke-miterlimit:4;stroke-dasharray:none;marker:none;enable-background:accumulate"/>
  <path id="path39514-1-8" d="M 280.75781 140.59961 C 280.70992 140.59951 280.64955 140.60836 280.59961 140.60938 C 280.59927 140.61086 280.59799 140.61179 280.59766 140.61328 C 280.56319 140.76611 280.48352 141.55298 280.47852 141.72656 C 280.47682 141.78126 280.54688 141.79688 280.54688 141.79688 C 280.54541 141.90437 280.7142 141.85489 280.8125 141.86719 C 281.06691 141.89919 281.42935 141.91667 281.73242 141.88867 C 281.89549 141.87357 282.05557 141.9197 282.13867 141.79883 C 282.40733 141.77801 282.40034 141.35569 282.40234 141.30859 C 282.40822 141.14026 282.37687 140.9166 282.33398 140.69922 C 281.7748 140.63353 281.20616 140.60041 280.75781 140.59961 z" style="color:#000000;display:inline;overflow:visible;visibility:visible;fill:#f2f2f2;stroke:#cccccc;stroke-width:0.25000003;stroke-linecap:butt;stroke-linejoin:miter;stroke-miterlimit:4;stroke-dasharray:none;stroke-dashoffset:0;stroke-opacity:1;marker:none;enable-background:accumulate"/>
  <path id="path39516-0-8" d="m 281.89222,141.64858 c 0.014,-0.0886 -0.021,-0.37497 -0.021,-0.44996 0,-0.075 -0.0838,0.075 -0.0978,0.1159 -0.014,0.0409 0.014,0.41587 0.014,0.41587 0,0 0.0699,-0.0614 0.10477,-0.0818 z" style="color:#000000;display:inline;overflow:visible;visibility:visible;fill:#ffffff;stroke:none;stroke-width:15.7275238;stroke-miterlimit:4;stroke-dasharray:none;marker:none;enable-background:accumulate"/>
  <path id="path39518-4-5" d="m 280.9702,141.06908 c 0.007,-0.0341 0.0699,-0.32724 0.0699,-0.32724 0,0 -0.0349,-0.0682 -0.014,-0.26588 -0.0279,0.13635 -0.0349,0.18407 -0.0698,0.23179 0.014,0.075 0.021,0.25907 0.014,0.36133 z" style="color:#000000;display:inline;overflow:visible;visibility:visible;fill:#ffffff;stroke:none;stroke-width:15.7275238;stroke-miterlimit:4;stroke-dasharray:none;marker:none;enable-background:accumulate"/>
  <path id="path39522-5-9" d="M 280.42578 140.61914 C 279.90498 140.64185 279.31945 140.71872 278.73242 140.86719 C 278.69627 141.188 278.67188 141.5185 278.67188 141.58984 C 278.67188 141.76107 279.02655 141.98 279.63672 141.84766 C 279.97297 141.86196 280.51462 141.87595 280.5 141.61914 C 280.49 141.44582 280.48428 140.76183 280.42578 140.61914 z" style="color:#000000;display:inline;overflow:visible;visibility:visible;fill:#f2f2f2;stroke:#cccccc;stroke-width:0.25000003;stroke-linecap:butt;stroke-linejoin:miter;stroke-miterlimit:4;stroke-dasharray:none;stroke-dashoffset:0;stroke-opacity:1;marker:none;enable-background:accumulate"/>
  <path id="path39524-0-8" d="m 279.95634,140.46394 c 0.0627,0.18374 0.0627,0.30624 0.0732,0.58186 -0.0837,-0.27562 -0.16734,-0.32666 -0.0732,-0.58186 z" style="color:#000000;display:inline;overflow:visible;visibility:visible;fill:#ffffff;stroke:none;stroke-width:15.7275238;stroke-miterlimit:4;stroke-dasharray:none;marker:none;enable-background:accumulate"/>
  <path id="path39526-9-3" d="m 278.99412,140.62727 c 0,0.10208 0.0732,0.23478 0.12551,0.29603 -0.0105,0.1225 -0.0105,0.18375 0.0418,0.25521 -0.0418,0.0306 0,0.10208 0.0209,0.14291 0.0209,0.0408 0.0627,0.11229 0.10459,0.18375 -0.12551,-0.0919 -0.20918,-0.17354 -0.20918,-0.17354 0,0 -0.0209,-0.0408 0.0209,-0.0715 -0.0209,-0.0306 -0.0314,-0.0408 -0.0105,-0.0817 0.0105,-0.0408 -0.0105,-0.11229 -0.0314,-0.15312 -0.0209,-0.0408 0.0105,-0.0715 -0.0105,-0.11229 -0.0209,-0.0408 -0.0523,-0.1225 -0.0523,-0.15313 0,-0.0306 0.0209,-0.0714 0,-0.1327 z" style="color:#000000;display:inline;overflow:visible;visibility:visible;fill:#ffffff;stroke:none;stroke-width:15.7275238;stroke-miterlimit:4;stroke-dasharray:none;marker:none;enable-background:accumulate"/>
  <path id="path39528-9-1" d="m 279.58718,140.39414 c 0.014,0.3477 0.0699,1.19308 0.0838,1.28171 0.014,0.0886 -0.12573,0.0205 -0.13272,-0.0341 -0.007,-0.0545 -0.0768,-0.35451 -0.0559,-0.41587 0.021,-0.0614 0.0559,-0.20453 0.0349,-0.26589 -0.021,-0.0614 0.0489,-0.14998 0.0349,-0.19089 -0.014,-0.0409 -0.0419,-0.0614 -0.0279,-0.10908 0.014,-0.0477 0.0349,-0.16362 0.021,-0.19089 -0.014,-0.0273 0.0279,-0.0477 0.0419,-0.075 z" style="color:#000000;display:inline;overflow:visible;visibility:visible;fill:#ffffff;stroke:none;stroke-width:15.7275238;stroke-miterlimit:4;stroke-dasharray:none;marker:none;enable-background:accumulate"/>
  <path id="lowerlip" d="m 274.71498,145.06105 c 0.0722,0.60802 0.33039,2.16585 1.0563,2.98917 1.51926,1.72313 4.13919,0.72607 5.20929,0.72607 1.88623,0 3.03454,1.19199 4.71748,-0.84161 0.77896,-0.94126 0.96189,-1.66241 0.9987,-2.8581 -0.21054,0.6807 -0.62664,1.34806 -0.94155,1.6656 -1.7599,1.77464 -2.24189,0.82515 -4.77558,0.82515 -2.70247,0 -3.60059,0.70995 -4.86876,-0.28504 -0.54393,-0.42676 -1.22833,-1.04472 -1.39588,-2.22124 z" style="display:inline;fill:#e9afaf;stroke:none;enable-background:new"/>
  <path id="upperlip" d="m 284.05632,141.58832 c -0.9855,-0.74614 -2.01924,-0.50493 -3.21258,-0.50493 -1.00109,0 -2.54605,-0.17211 -4.10007,0.91893 -0.47665,0.33465 -2.27127,1.50494 -1.77318,3.83921 -0.73435,-1.08073 0.82676,-3.72609 1.74262,-4.4258 1.78662,-1.36497 2.62762,-1.16123 3.99896,-1.16123 1.39626,0 2.96618,-0.37802 3.83922,0.61273 0.83349,0.94586 2.58246,3.55604 2.02196,4.74615 -0.0923,-1.82294 -1.57696,-3.31339 -2.51693,-4.02506 z" style="display:inline;fill:#de8787;stroke:none;enable-background:new"/>
</svg>
