<?xml version="1.0" encoding="UTF-8" standalone="no"?>
<svg xmlns="http://www.w3.org/2000/svg" width="560" height="560" id="mouth_amusement">
  <path id="path5" fill="#f9f9f9" fill-rule="evenodd" d="M273.762 141.778c4.5-.506 9.337.126 14.144-.198-1.894 1.448-5.524 2.87-7.714 2.808-2.362-.19-5.2-1.654-6.43-2.61z" overflow="visible" color="#000"/>
  <path id="lowerlip" fill="#e9afaf" fill-rule="evenodd" d="M273.363 141.62c1.492 1.15 3.08 2.11 4.093 2.587 2.195 1.036 4.537.987 6.43.237 1.23-.488 3.28-2.173 4.248-3.16-1.836 1.404-3.405 1.66-4.905 1.888-1.9.287-4.42.16-5.1.042-1.98-.35-3.43-.95-4.78-1.594z" overflow="visible" color="#000"/>
  <path id="teeth" fill="none" fill-rule="evenodd" stroke="#ccc" stroke-width=".182" d="M285.598 142.318c.037.132-.525.397-.955.267-.39.194-.8 0-1-.055-.035.165-.55.338-.952.17-.446.223-1.675.307-1.955.14-.56.197-1.594.192-1.874-.03-.196.054-.977.044-1.255-.168-.38.125-.912.018-1.168-.153l-.004.012c-.413.076-.98-.154-.934-.377" overflow="visible"/>
  <path id="upperlip" fill="#de8787" fill-rule="evenodd" d="M272.997 141.38c1.424 1.144 2.83.956 5.292.644.47-.06 1.75.136 2.51.148.7.01 1.84-.35 2.54-.212 2.05.4 3.29.72 4.62-.558-1.63.54-2.63.273-4.39-.266-.67-.203-1.95.275-2.74.274-.79 0-1.38-.466-2.23-.334-2.13.327-3.65 1.138-5.61.303z" overflow="visible" color="#000"/>
</svg>
