<?xml version="1.0" encoding="UTF-8" standalone="no"?>
<!-- Created with Inkscape (http://www.inkscape.org/) -->

<svg
   xmlns:dc="http://purl.org/dc/elements/1.1/"
   xmlns:cc="http://creativecommons.org/ns#"
   xmlns:rdf="http://www.w3.org/1999/02/22-rdf-syntax-ns#"
   xmlns:svg="http://www.w3.org/2000/svg"
   xmlns="http://www.w3.org/2000/svg"
   xmlns:sodipodi="http://sodipodi.sourceforge.net/DTD/sodipodi-0.dtd"
   xmlns:inkscape="http://www.inkscape.org/namespaces/inkscape"
   version="1.1"
   width="560"
   height="560"
   id="eyes_neutral"
   inkscape:version="0.91pre2 r13516"
   sodipodi:docname="mouth_satisfaction.svg">
  <sodipodi:namedview
     pagecolor="#ffffff"
     bordercolor="#666666"
     borderopacity="1"
     objecttolerance="10"
     gridtolerance="10"
     guidetolerance="10"
     inkscape:pageopacity="0"
     inkscape:pageshadow="2"
     inkscape:window-width="640"
     inkscape:window-height="480"
     id="namedview48578"
     showgrid="false"
     inkscape:zoom="17.086552"
     inkscape:cx="280.38118"
     inkscape:cy="415.77397"
     inkscape:window-x="0"
     inkscape:window-y="24"
     inkscape:window-maximized="0"
     inkscape:current-layer="eyes_neutral" />
  <metadata
     id="metadata33021">
    <rdf:RDF>
      <cc:Work
         rdf:about="">
        <dc:format>image/svg+xml</dc:format>
        <dc:type
           rdf:resource="http://purl.org/dc/dcmitype/StillImage" />
        <dc:title></dc:title>
      </cc:Work>
    </rdf:RDF>
  </metadata>
  <defs
     id="defs33019">
    <clipPath
       id="clipPath17580">
      <path
         d="m 537.94192,127.97425 c -0.24161,0.59472 -1.61691,2.45324 -5.53838,0.8735 -0.59472,0.0558 -1.56115,0.14868 -1.59832,0.1301 -0.0372,-0.0186 -0.0929,-0.1301 -0.0186,-0.18585 0.0743,-0.0558 0.39028,-0.39029 0.92925,-0.52039 0.53897,-0.13009 1.85852,-1.747 3.10372,-1.747 1.2452,0 2.84353,0.96643 3.12231,1.44964 z"
         id="path17582"
         style="color:#000000;fill:none;stroke:#008080;stroke-width:0.02662179;stroke-linecap:butt;stroke-linejoin:miter;stroke-miterlimit:4;stroke-opacity:1;stroke-dasharray:none;stroke-dashoffset:0;marker:none;visibility:visible;display:inline;overflow:visible;enable-background:accumulate" />
    </clipPath>
    <clipPath
       id="clipPath17632">
      <path
         d="m 515.63686,127.97425 c 0.24161,0.59472 1.61691,2.45324 5.53838,0.8735 0.59472,0.0558 1.56115,0.14868 1.59832,0.1301 0.0372,-0.0186 0.0929,-0.1301 0.0186,-0.18585 -0.0743,-0.0558 -0.39028,-0.39029 -0.92925,-0.52039 -0.53897,-0.13009 -1.85852,-1.747 -3.10372,-1.747 -1.24521,0 -2.84353,0.96643 -3.12231,1.44964 z"
         id="path17634"
         style="color:#000000;fill:#e6e6e6;stroke:#de8787;stroke-width:0.02662179;stroke-linecap:butt;stroke-linejoin:miter;stroke-miterlimit:4;stroke-opacity:1;stroke-dasharray:none;stroke-dashoffset:0;marker:none;visibility:visible;display:inline;overflow:visible;enable-background:accumulate" />
    </clipPath>
    <clipPath
       clipPathUnits="userSpaceOnUse"
       id="clipPath95568">
      <path
         sodipodi:nodetypes="ssssssss"
         id="path95570"
         d="m 552.90935,154.83331 c -1.23871,0 -4.52418,-1.37629 -5.22058,-2.2536 -0.57653,-0.72632 0.0706,-5.68377 1.38117,-5.60619 1.16133,0.0687 2.66765,0.29644 3.71213,0.32956 2.00916,0.0637 3.91961,-0.9584 4.5652,-0.46119 0.9211,0.7094 1.04374,2.65122 1.0939,3.34793 0.0275,0.38176 -0.038,1.89447 -0.92973,2.5277 -1.06564,0.75677 -3.86932,2.11579 -4.60209,2.11579 z"
         style="color:#000000;display:inline;overflow:visible;visibility:visible;fill:none;stroke:#de8787;stroke-width:0.12364889;stroke-linecap:butt;stroke-linejoin:miter;stroke-miterlimit:4;stroke-dasharray:none;stroke-dashoffset:0;stroke-opacity:1;marker:none;enable-background:accumulate"
         inkscape:connector-curvature="0" />
    </clipPath>
    <clipPath
       clipPathUnits="userSpaceOnUse"
       id="clipPath95564">
      <path
         sodipodi:nodetypes="ssssssss"
         id="path95566"
         d="m 558.82317,149.32734 c -1.23871,0 -4.52418,-1.37629 -5.22058,-2.2536 -0.57653,-0.72632 0.0706,-5.68377 1.38117,-5.60619 1.16133,0.0687 2.66765,0.29644 3.71213,0.32956 2.00916,0.0637 3.91961,-0.9584 4.5652,-0.46119 0.9211,0.7094 1.04374,2.65122 1.0939,3.34793 0.0275,0.38176 -0.038,1.89447 -0.92973,2.5277 -1.06564,0.75677 -3.86932,2.11579 -4.60209,2.11579 z"
         style="color:#000000;display:inline;overflow:visible;visibility:visible;fill:none;stroke:#de8787;stroke-width:0.12364889;stroke-linecap:butt;stroke-linejoin:miter;stroke-miterlimit:4;stroke-dasharray:none;stroke-dashoffset:0;stroke-opacity:1;marker:none;enable-background:accumulate"
         inkscape:connector-curvature="0" />
    </clipPath>
    <clipPath
       clipPathUnits="userSpaceOnUse"
       id="clipPath95560">
      <path
         sodipodi:nodetypes="ssssssss"
         id="path95562"
         d="m 552.90935,154.83331 c -1.23871,0 -4.52418,-1.37629 -5.22058,-2.2536 -0.57653,-0.72632 0.0706,-5.68377 1.38117,-5.60619 1.16133,0.0687 2.66765,0.29644 3.71213,0.32956 2.00916,0.0637 3.91961,-0.9584 4.5652,-0.46119 0.9211,0.7094 1.04374,2.65122 1.0939,3.34793 0.0275,0.38176 -0.038,1.89447 -0.92973,2.5277 -1.06564,0.75677 -3.86932,2.11579 -4.60209,2.11579 z"
         style="color:#000000;display:inline;overflow:visible;visibility:visible;fill:none;stroke:#de8787;stroke-width:0.12364889;stroke-linecap:butt;stroke-linejoin:miter;stroke-miterlimit:4;stroke-dasharray:none;stroke-dashoffset:0;stroke-opacity:1;marker:none;enable-background:accumulate"
         inkscape:connector-curvature="0" />
    </clipPath>
    <clipPath
       clipPathUnits="userSpaceOnUse"
       id="clipPath95556">
      <path
         sodipodi:nodetypes="ssssssss"
         id="path95558"
         d="m 558.82317,149.32734 c -1.23871,0 -4.52418,-1.37629 -5.22058,-2.2536 -0.57653,-0.72632 0.0706,-5.68377 1.38117,-5.60619 1.16133,0.0687 2.66765,0.29644 3.71213,0.32956 2.00916,0.0637 3.91961,-0.9584 4.5652,-0.46119 0.9211,0.7094 1.04374,2.65122 1.0939,3.34793 0.0275,0.38176 -0.038,1.89447 -0.92973,2.5277 -1.06564,0.75677 -3.86932,2.11579 -4.60209,2.11579 z"
         style="color:#000000;display:inline;overflow:visible;visibility:visible;fill:none;stroke:#de8787;stroke-width:0.12364889;stroke-linecap:butt;stroke-linejoin:miter;stroke-miterlimit:4;stroke-dasharray:none;stroke-dashoffset:0;stroke-opacity:1;marker:none;enable-background:accumulate"
         inkscape:connector-curvature="0" />
    </clipPath>
    <clipPath
       clipPathUnits="userSpaceOnUse"
       id="clipPath95552">
      <path
         sodipodi:nodetypes="ssssssss"
         id="path95554"
         d="m 552.90935,154.83331 c -1.23871,0 -4.52418,-1.37629 -5.22058,-2.2536 -0.57653,-0.72632 0.0706,-5.68377 1.38117,-5.60619 1.16133,0.0687 2.66765,0.29644 3.71213,0.32956 2.00916,0.0637 3.91961,-0.9584 4.5652,-0.46119 0.9211,0.7094 1.04374,2.65122 1.0939,3.34793 0.0275,0.38176 -0.038,1.89447 -0.92973,2.5277 -1.06564,0.75677 -3.86932,2.11579 -4.60209,2.11579 z"
         style="color:#000000;display:inline;overflow:visible;visibility:visible;fill:none;stroke:#de8787;stroke-width:0.12364889;stroke-linecap:butt;stroke-linejoin:miter;stroke-miterlimit:4;stroke-dasharray:none;stroke-dashoffset:0;stroke-opacity:1;marker:none;enable-background:accumulate"
         inkscape:connector-curvature="0" />
    </clipPath>
    <clipPath
       clipPathUnits="userSpaceOnUse"
       id="clipPath95548">
      <path
         sodipodi:nodetypes="ssssssss"
         id="path95550"
         d="m 558.82317,149.32734 c -1.23871,0 -4.52418,-1.37629 -5.22058,-2.2536 -0.57653,-0.72632 0.0706,-5.68377 1.38117,-5.60619 1.16133,0.0687 2.66765,0.29644 3.71213,0.32956 2.00916,0.0637 3.91961,-0.9584 4.5652,-0.46119 0.9211,0.7094 1.04374,2.65122 1.0939,3.34793 0.0275,0.38176 -0.038,1.89447 -0.92973,2.5277 -1.06564,0.75677 -3.86932,2.11579 -4.60209,2.11579 z"
         style="color:#000000;display:inline;overflow:visible;visibility:visible;fill:none;stroke:#de8787;stroke-width:0.12364889;stroke-linecap:butt;stroke-linejoin:miter;stroke-miterlimit:4;stroke-dasharray:none;stroke-dashoffset:0;stroke-opacity:1;marker:none;enable-background:accumulate"
         inkscape:connector-curvature="0" />
    </clipPath>
    <clipPath
       clipPathUnits="userSpaceOnUse"
       id="clipPath95544">
      <path
         sodipodi:nodetypes="ssssssss"
         id="path95546"
         d="m 552.90935,154.83331 c -1.23871,0 -4.52418,-1.37629 -5.22058,-2.2536 -0.57653,-0.72632 0.0706,-5.68377 1.38117,-5.60619 1.16133,0.0687 2.66765,0.29644 3.71213,0.32956 2.00916,0.0637 3.91961,-0.9584 4.5652,-0.46119 0.9211,0.7094 1.04374,2.65122 1.0939,3.34793 0.0275,0.38176 -0.038,1.89447 -0.92973,2.5277 -1.06564,0.75677 -3.86932,2.11579 -4.60209,2.11579 z"
         style="color:#000000;display:inline;overflow:visible;visibility:visible;fill:none;stroke:#de8787;stroke-width:0.12364889;stroke-linecap:butt;stroke-linejoin:miter;stroke-miterlimit:4;stroke-dasharray:none;stroke-dashoffset:0;stroke-opacity:1;marker:none;enable-background:accumulate"
         inkscape:connector-curvature="0" />
    </clipPath>
    <clipPath
       clipPathUnits="userSpaceOnUse"
       id="clipPath95540">
      <path
         sodipodi:nodetypes="ssssssss"
         id="path95542"
         d="m 558.82317,149.32734 c -1.23871,0 -4.52418,-1.37629 -5.22058,-2.2536 -0.57653,-0.72632 0.0706,-5.68377 1.38117,-5.60619 1.16133,0.0687 2.66765,0.29644 3.71213,0.32956 2.00916,0.0637 3.91961,-0.9584 4.5652,-0.46119 0.9211,0.7094 1.04374,2.65122 1.0939,3.34793 0.0275,0.38176 -0.038,1.89447 -0.92973,2.5277 -1.06564,0.75677 -3.86932,2.11579 -4.60209,2.11579 z"
         style="color:#000000;display:inline;overflow:visible;visibility:visible;fill:none;stroke:#de8787;stroke-width:0.12364889;stroke-linecap:butt;stroke-linejoin:miter;stroke-miterlimit:4;stroke-dasharray:none;stroke-dashoffset:0;stroke-opacity:1;marker:none;enable-background:accumulate"
         inkscape:connector-curvature="0" />
    </clipPath>
    <clipPath
       clipPathUnits="userSpaceOnUse"
       id="clipPath95536">
      <path
         sodipodi:nodetypes="ssssssss"
         id="path95538"
         d="m 552.90935,154.83331 c -1.23871,0 -4.52418,-1.37629 -5.22058,-2.2536 -0.57653,-0.72632 0.0706,-5.68377 1.38117,-5.60619 1.16133,0.0687 2.66765,0.29644 3.71213,0.32956 2.00916,0.0637 3.91961,-0.9584 4.5652,-0.46119 0.9211,0.7094 1.04374,2.65122 1.0939,3.34793 0.0275,0.38176 -0.038,1.89447 -0.92973,2.5277 -1.06564,0.75677 -3.86932,2.11579 -4.60209,2.11579 z"
         style="color:#000000;display:inline;overflow:visible;visibility:visible;fill:none;stroke:#de8787;stroke-width:0.12364889;stroke-linecap:butt;stroke-linejoin:miter;stroke-miterlimit:4;stroke-dasharray:none;stroke-dashoffset:0;stroke-opacity:1;marker:none;enable-background:accumulate"
         inkscape:connector-curvature="0" />
    </clipPath>
    <clipPath
       clipPathUnits="userSpaceOnUse"
       id="clipPath95532">
      <path
         sodipodi:nodetypes="ssssssss"
         id="path95534"
         d="m 558.82317,149.32734 c -1.23871,0 -4.52418,-1.37629 -5.22058,-2.2536 -0.57653,-0.72632 0.0706,-5.68377 1.38117,-5.60619 1.16133,0.0687 2.66765,0.29644 3.71213,0.32956 2.00916,0.0637 3.91961,-0.9584 4.5652,-0.46119 0.9211,0.7094 1.04374,2.65122 1.0939,3.34793 0.0275,0.38176 -0.038,1.89447 -0.92973,2.5277 -1.06564,0.75677 -3.86932,2.11579 -4.60209,2.11579 z"
         style="color:#000000;display:inline;overflow:visible;visibility:visible;fill:none;stroke:#de8787;stroke-width:0.12364889;stroke-linecap:butt;stroke-linejoin:miter;stroke-miterlimit:4;stroke-dasharray:none;stroke-dashoffset:0;stroke-opacity:1;marker:none;enable-background:accumulate"
         inkscape:connector-curvature="0" />
    </clipPath>
    <clipPath
       clipPathUnits="userSpaceOnUse"
       id="clipPath95528">
      <path
         sodipodi:nodetypes="ssssssss"
         id="path95530"
         d="m 5837.0056,3364.9138 c -232.3794,0 -848.7267,-264.5292 -979.3699,-433.1522 -108.1558,-139.602 13.2444,-1092.4465 259.1046,-1077.5353 217.8631,13.2044 500.4455,56.9771 696.3878,63.3429 376.9142,12.2435 735.3106,-184.2088 856.4219,-88.6428 172.7965,136.3499 195.8035,509.5766 205.2134,643.4874 5.1589,73.3761 -7.1287,364.1258 -174.4154,485.8355 -199.9118,145.4547 -725.8763,406.6645 -863.3424,406.6645 z"
         style="color:#000000;display:inline;overflow:visible;visibility:visible;fill:none;stroke:#de8787;stroke-width:0.12364889;stroke-linecap:butt;stroke-linejoin:miter;stroke-miterlimit:4;stroke-dasharray:none;stroke-dashoffset:0;stroke-opacity:1;marker:none;enable-background:accumulate"
         inkscape:connector-curvature="0" />
    </clipPath>
    <clipPath
       clipPathUnits="userSpaceOnUse"
       id="clipPath95524">
      <path
         sodipodi:nodetypes="ssssssss"
         id="path95526"
         d="m 558.82317,149.32734 c -1.23871,0 -4.52418,-1.37629 -5.22058,-2.2536 -0.57653,-0.72632 0.0706,-5.68377 1.38117,-5.60619 1.16133,0.0687 2.66765,0.29644 3.71213,0.32956 2.00916,0.0637 3.91961,-0.9584 4.5652,-0.46119 0.9211,0.7094 1.04374,2.65122 1.0939,3.34793 0.0275,0.38176 -0.038,1.89447 -0.92973,2.5277 -1.06564,0.75677 -3.86932,2.11579 -4.60209,2.11579 z"
         style="color:#000000;display:inline;overflow:visible;visibility:visible;fill:none;stroke:#de8787;stroke-width:0.12364889;stroke-linecap:butt;stroke-linejoin:miter;stroke-miterlimit:4;stroke-dasharray:none;stroke-dashoffset:0;stroke-opacity:1;marker:none;enable-background:accumulate"
         inkscape:connector-curvature="0" />
    </clipPath>
    <clipPath
       clipPathUnits="userSpaceOnUse"
       id="clipPath99972">
      <path
         inkscape:connector-curvature="0"
         style="color:#000000;display:inline;overflow:visible;visibility:visible;fill:none;stroke:#de8787;stroke-width:0.12364889;stroke-linecap:butt;stroke-linejoin:miter;stroke-miterlimit:4;stroke-dasharray:none;stroke-dashoffset:0;stroke-opacity:1;marker:none;enable-background:accumulate"
         d="m 5837.0056,4189.5983 c -232.3794,0 -848.7267,-264.5293 -979.3699,-433.1522 -108.1558,-139.6021 13.2444,-1092.4466 259.1046,-1077.5354 217.8631,13.2045 500.4455,56.9772 696.3878,63.343 376.9142,12.2434 735.3106,-184.2089 856.4219,-88.6428 172.7965,136.3499 195.8035,509.5765 205.2134,643.4874 5.1589,73.376 -7.1287,364.1258 -174.4154,485.8355 -199.9118,145.4546 -725.8763,406.6645 -863.3424,406.6645 z"
         id="path99974"
         sodipodi:nodetypes="ssssssss" />
    </clipPath>
    <clipPath
       clipPathUnits="userSpaceOnUse"
       id="clipPath35775">
      <path
         clip-path="none"
         sodipodi:nodetypes="scsssscs"
         id="path35777"
         d="m 5837.0056,4189.5983 c -232.3644,2.6524 -1019.8141,-189.4061 -1150.4573,-358.0291 30.344,-339.9311 184.3318,-1167.5697 430.192,-1152.6585 217.8631,13.2045 820.4819,10.7058 1001.951,-65.2822 204.7631,-85.7444 364.5703,44.5818 485.6816,140.1478 172.7946,136.35 260.9787,409.4111 270.3886,543.322 5.159,73.376 62.0011,346.418 90.5817,479.9329 -199.91,145.4546 -610.6575,406.6645 -1128.3376,412.5671 z"
         style="color:#000000;display:inline;overflow:visible;visibility:visible;fill:#800000;fill-opacity:1;fill-rule:evenodd;stroke:none;stroke-width:0.12364834;marker:none;enable-background:accumulate"
         inkscape:connector-curvature="0" />
    </clipPath>
    <clipPath
       clipPathUnits="userSpaceOnUse"
       id="clipPath35779">
      <path
         clip-path="none"
         sodipodi:nodetypes="scsssscs"
         id="path35781"
         d="m 5837.0056,3364.9138 c -232.3644,2.6524 -1019.8141,-189.406 -1150.4573,-358.029 30.344,-339.9311 184.3318,-1167.5697 430.192,-1152.6585 217.8631,13.2044 820.4819,10.7058 1001.951,-65.2823 204.7631,-85.7444 364.5703,44.5819 485.6816,140.1479 172.7946,136.3499 260.9787,409.4111 270.3886,543.3219 5.159,73.3761 62.0011,346.418 90.5817,479.9329 -199.91,145.4547 -610.6575,406.6645 -1128.3376,412.5671 z"
         style="color:#000000;display:inline;overflow:visible;visibility:visible;fill:#800000;fill-opacity:1;fill-rule:evenodd;stroke:none;stroke-width:0.12364834;marker:none;enable-background:accumulate"
         inkscape:connector-curvature="0" />
    </clipPath>
    <clipPath
       clipPathUnits="userSpaceOnUse"
       id="clipPath95536-0">
      <path
         sodipodi:nodetypes="ssssssss"
         id="path95538-5"
         d="m 552.90935,154.83331 c -1.23871,0 -4.52418,-1.37629 -5.22058,-2.2536 -0.57653,-0.72632 0.0706,-5.68377 1.38117,-5.60619 1.16133,0.0687 2.66765,0.29644 3.71213,0.32956 2.00916,0.0637 3.91961,-0.9584 4.5652,-0.46119 0.9211,0.7094 1.04374,2.65122 1.0939,3.34793 0.0275,0.38176 -0.038,1.89447 -0.92973,2.5277 -1.06564,0.75677 -3.86932,2.11579 -4.60209,2.11579 z"
         style="color:#000000;display:inline;overflow:visible;visibility:visible;fill:none;stroke:#de8787;stroke-width:0.12364889;stroke-linecap:butt;stroke-linejoin:miter;stroke-miterlimit:4;stroke-dasharray:none;stroke-dashoffset:0;stroke-opacity:1;marker:none;enable-background:accumulate"
         inkscape:connector-curvature="0" />
    </clipPath>
    <clipPath
       clipPathUnits="userSpaceOnUse"
       id="clipPath95544-5">
      <path
         sodipodi:nodetypes="ssssssss"
         id="path95546-9"
         d="m 552.90935,154.83331 c -1.23871,0 -4.52418,-1.37629 -5.22058,-2.2536 -0.57653,-0.72632 0.0706,-5.68377 1.38117,-5.60619 1.16133,0.0687 2.66765,0.29644 3.71213,0.32956 2.00916,0.0637 3.91961,-0.9584 4.5652,-0.46119 0.9211,0.7094 1.04374,2.65122 1.0939,3.34793 0.0275,0.38176 -0.038,1.89447 -0.92973,2.5277 -1.06564,0.75677 -3.86932,2.11579 -4.60209,2.11579 z"
         style="color:#000000;display:inline;overflow:visible;visibility:visible;fill:none;stroke:#de8787;stroke-width:0.12364889;stroke-linecap:butt;stroke-linejoin:miter;stroke-miterlimit:4;stroke-dasharray:none;stroke-dashoffset:0;stroke-opacity:1;marker:none;enable-background:accumulate"
         inkscape:connector-curvature="0" />
    </clipPath>
    <clipPath
       clipPathUnits="userSpaceOnUse"
       id="clipPath95552-0">
      <path
         sodipodi:nodetypes="ssssssss"
         id="path95554-8"
         d="m 552.90935,154.83331 c -1.23871,0 -4.52418,-1.37629 -5.22058,-2.2536 -0.57653,-0.72632 0.0706,-5.68377 1.38117,-5.60619 1.16133,0.0687 2.66765,0.29644 3.71213,0.32956 2.00916,0.0637 3.91961,-0.9584 4.5652,-0.46119 0.9211,0.7094 1.04374,2.65122 1.0939,3.34793 0.0275,0.38176 -0.038,1.89447 -0.92973,2.5277 -1.06564,0.75677 -3.86932,2.11579 -4.60209,2.11579 z"
         style="color:#000000;display:inline;overflow:visible;visibility:visible;fill:none;stroke:#de8787;stroke-width:0.12364889;stroke-linecap:butt;stroke-linejoin:miter;stroke-miterlimit:4;stroke-dasharray:none;stroke-dashoffset:0;stroke-opacity:1;marker:none;enable-background:accumulate"
         inkscape:connector-curvature="0" />
    </clipPath>
    <clipPath
       clipPathUnits="userSpaceOnUse"
       id="clipPath95560-1">
      <path
         sodipodi:nodetypes="ssssssss"
         id="path95562-5"
         d="m 552.90935,154.83331 c -1.23871,0 -4.52418,-1.37629 -5.22058,-2.2536 -0.57653,-0.72632 0.0706,-5.68377 1.38117,-5.60619 1.16133,0.0687 2.66765,0.29644 3.71213,0.32956 2.00916,0.0637 3.91961,-0.9584 4.5652,-0.46119 0.9211,0.7094 1.04374,2.65122 1.0939,3.34793 0.0275,0.38176 -0.038,1.89447 -0.92973,2.5277 -1.06564,0.75677 -3.86932,2.11579 -4.60209,2.11579 z"
         style="color:#000000;display:inline;overflow:visible;visibility:visible;fill:none;stroke:#de8787;stroke-width:0.12364889;stroke-linecap:butt;stroke-linejoin:miter;stroke-miterlimit:4;stroke-dasharray:none;stroke-dashoffset:0;stroke-opacity:1;marker:none;enable-background:accumulate"
         inkscape:connector-curvature="0" />
    </clipPath>
    <clipPath
       clipPathUnits="userSpaceOnUse"
       id="clipPath37621">
      <path
         inkscape:connector-curvature="0"
         style="color:#000000;display:inline;overflow:visible;visibility:visible;fill:#800000;fill-opacity:1;fill-rule:evenodd;stroke:none;stroke-width:0.12364834;marker:none;enable-background:accumulate"
         d="m 5811.5842,3412.569 c -232.3644,2.6524 -994.9424,60.7059 -1150.4573,-379.7347 30.344,-339.9311 226.7008,-629.2912 472.561,-614.38 217.8631,13.2045 545.0826,136.5921 726.5517,60.6041 204.7631,-85.7444 623.022,-172.4652 744.1333,-76.8992 172.7946,136.3499 377.0493,222.5364 386.4592,356.4472 5.1589,73.3761 17.9531,81.835 46.5393,215.3499 -58.9677,434.2612 -708.1071,432.7101 -1225.7872,438.6127 z"
         id="path37623"
         sodipodi:nodetypes="scsssscs"
         clip-path="none" />
    </clipPath>
    <clipPath
       clipPathUnits="userSpaceOnUse"
       id="clipPath37625">
      <path
         inkscape:connector-curvature="0"
         style="color:#000000;display:inline;overflow:visible;visibility:visible;fill:#800000;fill-opacity:1;fill-rule:evenodd;stroke:none;stroke-width:0.12364834;marker:none;enable-background:accumulate"
         d="m 5811.5842,3382.2776 c -232.3644,2.6524 -994.9424,60.7059 -1150.4573,-379.7347 30.344,-339.9311 226.7008,-629.2912 472.561,-614.38 217.8631,13.2044 545.0826,136.5921 726.5517,60.604 204.7631,-85.7444 623.022,-172.4651 744.1333,-76.8991 172.7946,136.3499 377.0493,222.5364 386.4592,356.4472 5.1589,73.376 17.9531,81.8349 46.5393,215.3498 -58.9677,434.2613 -708.1071,432.7102 -1225.7872,438.6128 z"
         id="path37627"
         sodipodi:nodetypes="scsssscs"
         clip-path="none" />
    </clipPath>
    <clipPath
       clipPathUnits="userSpaceOnUse"
       id="clipPath37629">
      <path
         inkscape:connector-curvature="0"
         style="color:#000000;display:inline;overflow:visible;visibility:visible;fill:#800000;fill-opacity:1;fill-rule:evenodd;stroke:none;stroke-width:0.12364834;marker:none;enable-background:accumulate"
         d="m 552.77384,152.61998 c -1.23863,0.0138 -5.30359,0.31584 -6.13257,-1.97568 0.16175,-1.76859 1.20844,-3.27407 2.51901,-3.19649 1.16133,0.0687 2.90559,0.71066 3.87292,0.31531 1.0915,-0.44611 3.32105,-0.8973 3.96664,-0.40009 0.92109,0.7094 2.00988,1.15781 2.06004,1.85452 0.0275,0.38176 0.0957,0.42577 0.24808,1.12042 -0.31433,2.25937 -3.7746,2.2513 -6.53412,2.28201 z"
         id="path37631"
         sodipodi:nodetypes="scsssscs"
         clip-path="none" />
    </clipPath>
    <clipPath
       clipPathUnits="userSpaceOnUse"
       id="clipPath37633">
      <path
         inkscape:connector-curvature="0"
         style="color:#000000;display:inline;overflow:visible;visibility:visible;fill:#800000;fill-opacity:1;fill-rule:evenodd;stroke:none;stroke-width:0.12364834;marker:none;enable-background:accumulate"
         d="m 552.77384,152.61998 c -1.23863,0.0138 -5.30359,0.31584 -6.13257,-1.97568 0.16175,-1.76859 1.20844,-3.27407 2.51901,-3.19649 1.16133,0.0687 2.90559,0.71066 3.87292,0.31531 1.0915,-0.44611 3.32105,-0.8973 3.96664,-0.40009 0.92109,0.7094 2.00988,1.15781 2.06004,1.85452 0.0275,0.38176 0.0957,0.42577 0.24808,1.12042 -0.31433,2.25937 -3.7746,2.2513 -6.53412,2.28201 z"
         id="path37635"
         sodipodi:nodetypes="scsssscs"
         clip-path="none" />
    </clipPath>
    <clipPath
       clipPathUnits="userSpaceOnUse"
       id="clipPath95552-0-2">
      <path
         sodipodi:nodetypes="ssssssss"
         id="path95554-37"
         d="m 552.90935,154.83331 c -1.23871,0 -4.52418,-1.37629 -5.22058,-2.2536 -0.57653,-0.72632 0.0706,-5.68377 1.38117,-5.60619 1.16133,0.0687 2.66765,0.29644 3.71213,0.32956 2.00916,0.0637 3.91961,-0.9584 4.5652,-0.46119 0.9211,0.7094 1.04374,2.65122 1.0939,3.34793 0.0275,0.38176 -0.038,1.89447 -0.92973,2.5277 -1.06564,0.75677 -3.86932,2.11579 -4.60209,2.11579 z"
         style="color:#000000;display:inline;overflow:visible;visibility:visible;fill:none;stroke:#de8787;stroke-width:0.12364889;stroke-linecap:butt;stroke-linejoin:miter;stroke-miterlimit:4;stroke-dasharray:none;stroke-dashoffset:0;stroke-opacity:1;marker:none;enable-background:accumulate"
         inkscape:connector-curvature="0" />
    </clipPath>
    <clipPath
       clipPathUnits="userSpaceOnUse"
       id="clipPath38824">
      <path
         inkscape:connector-curvature="0"
         style="color:#000000;display:inline;overflow:visible;visibility:visible;fill:#800000;fill-opacity:1;fill-rule:evenodd;stroke:#de8787;stroke-width:23.47924423;stroke-linecap:butt;stroke-linejoin:miter;stroke-miterlimit:4;stroke-dasharray:none;stroke-dashoffset:0;stroke-opacity:1;marker:none;enable-background:accumulate"
         d="m 5837.0074,3584.8228 c -232.3794,0 -716.881,153.927 -937.2072,-139.4041 -138.9538,-184.995 7.5602,-401.4942 314.1871,-611.6699 181.3922,-124.3352 467.5277,-199.9984 663.5675,-199.5698 209.4381,0.3844 422.8101,-0.7688 528.0281,112.8548 303.676,327.9125 467.2876,343.4503 425.2788,501.306 -18.8873,70.9754 -148.4612,212.7532 -315.7479,334.4629 -199.9099,145.4546 -540.6402,2.0181 -678.1064,2.0181 z"
         id="path38826"
         sodipodi:nodetypes="ssssssss"
         clip-path="none" />
    </clipPath>
    <clipPath
       clipPathUnits="userSpaceOnUse"
       id="clipPath38828">
      <path
         inkscape:connector-curvature="0"
         style="color:#000000;display:inline;overflow:visible;visibility:visible;fill:#800000;fill-opacity:1;fill-rule:evenodd;stroke:#de8787;stroke-width:23.47924423;stroke-linecap:butt;stroke-linejoin:miter;stroke-miterlimit:4;stroke-dasharray:none;stroke-dashoffset:0;stroke-opacity:1;marker:none;enable-background:accumulate"
         d="m 5837.0074,3295.7951 c -232.3794,0 -716.881,153.9271 -937.2072,-139.404 -138.9538,-184.995 7.5602,-401.4942 314.1871,-611.6699 181.3922,-124.3352 467.5277,-199.9985 663.5675,-199.5698 209.4381,0.3844 422.8101,-0.7689 528.0281,112.8548 303.676,327.9125 467.2876,343.4503 425.2788,501.306 -18.8873,70.9754 -148.4612,212.7532 -315.7479,334.4629 -199.9099,145.4546 -540.6402,2.0181 -678.1064,2.0181 z"
         id="path38830"
         sodipodi:nodetypes="ssssssss"
         clip-path="none" />
    </clipPath>
    <clipPath
       clipPathUnits="userSpaceOnUse"
       id="clipPath115532">
      <path
         inkscape:connector-curvature="0"
         style="color:#000000;display:inline;overflow:visible;visibility:visible;fill:none;stroke:#de8787;stroke-width:0.12364889;stroke-linecap:butt;stroke-linejoin:miter;stroke-miterlimit:4;stroke-dasharray:none;stroke-dashoffset:0;stroke-opacity:1;marker:none;enable-background:accumulate"
         d="m 5837.0074,4189.5964 c -232.3794,0 -657.0804,22.8166 -979.3698,-433.1523 -102.0364,-144.3571 41.2903,-565.6465 347.9172,-775.8222 181.3921,-124.3352 450.6627,-113.6025 646.7025,-113.1739 209.438,0.3845 599.893,-35.3214 705.1111,78.2965 303.6741,327.9125 298.6352,533.5214 256.6264,691.3771 -18.8874,70.9754 -72.5685,230.0324 -239.8533,351.7421 -199.9099,145.4546 -599.6679,200.7327 -737.1341,200.7327 z"
         id="path115534"
         sodipodi:nodetypes="ssssssss"
         clip-path="none" />
    </clipPath>
    <clipPath
       clipPathUnits="userSpaceOnUse"
       id="clipPath115536">
      <path
         inkscape:connector-curvature="0"
         style="color:#000000;display:inline;overflow:visible;visibility:visible;fill:none;stroke:#de8787;stroke-width:0.12364889;stroke-linecap:butt;stroke-linejoin:miter;stroke-miterlimit:4;stroke-dasharray:none;stroke-dashoffset:0;stroke-opacity:1;marker:none;enable-background:accumulate"
         d="m 5837.0074,3364.9119 c -232.3794,0 -657.0804,22.8166 -979.3698,-433.1522 -102.0364,-144.3572 41.2903,-565.6465 347.9172,-775.8222 181.3921,-124.3352 450.6627,-113.6025 646.7025,-113.1739 209.438,0.3844 599.893,-35.3214 705.1111,78.2964 303.6741,327.9126 298.6352,533.5215 256.6264,691.3772 -18.8874,70.9754 -72.5685,230.0323 -239.8533,351.742 -199.9099,145.4547 -599.6679,200.7327 -737.1341,200.7327 z"
         id="path115538"
         sodipodi:nodetypes="ssssssss"
         clip-path="none" />
    </clipPath>
    <clipPath
       clipPathUnits="userSpaceOnUse"
       id="clipPath40548">
      <path
         clip-path="none"
         sodipodi:nodetypes="cssssscc"
         id="path40550"
         d="m 5837.0074,4189.5983 c -232.3794,0 -1025.2994,-160.9771 -1130.4349,-539.5586 -47.6067,-171.433 72.1839,-719.1642 378.8108,-929.3398 181.3922,-124.3353 450.6627,-4.1517 646.7025,-3.7288 209.4381,0.3844 800.1782,-62.6818 905.3963,50.9361 303.6759,327.9125 322.3795,740.3855 280.3707,898.2412 -18.8874,70.9753 -138.6593,307.4177 -305.946,429.1274 -224.7329,131.8101 -522.2594,70.5506 -774.8994,94.3225 z"
         style="color:#000000;display:inline;overflow:visible;visibility:visible;fill:#800000;fill-opacity:1;fill-rule:evenodd;stroke:none;stroke-width:0.12364834;marker:none;enable-background:accumulate"
         inkscape:connector-curvature="0" />
    </clipPath>
    <clipPath
       clipPathUnits="userSpaceOnUse"
       id="clipPath40557">
      <path
         inkscape:connector-curvature="0"
         style="color:#000000;display:inline;overflow:visible;visibility:visible;fill:#800000;fill-opacity:1;fill-rule:evenodd;stroke:none;stroke-width:0.12364834;marker:none;enable-background:accumulate"
         d="m 5893.6564,3384.2611 c -779.9871,67.7137 -949.7669,-112.6107 -1187.0839,-558.9059 -48.2164,-171.2542 72.1839,-719.1641 378.8108,-929.3398 181.3922,-124.3352 450.6627,-4.1516 646.7025,-3.7288 209.4381,0.3844 800.1782,-62.6817 905.3963,50.9362 303.6759,327.9125 322.3795,740.3854 280.3707,898.2411 -18.8874,70.9754 -138.6593,307.4178 -305.946,429.1275 -224.7329,131.81 -465.6105,89.8979 -718.2504,113.6697 z"
         id="path40559"
         sodipodi:nodetypes="ccsssscc"
         clip-path="none" />
    </clipPath>
    <clipPath
       clipPathUnits="userSpaceOnUse"
       id="clipPath40548-8">
      <path
         clip-path="none"
         sodipodi:nodetypes="cssssscc"
         id="path40550-5"
         d="m 5837.0074,4189.5983 c -232.3794,0 -1025.2994,-160.9771 -1130.4349,-539.5586 -47.6067,-171.433 72.1839,-719.1642 378.8108,-929.3398 181.3922,-124.3353 450.6627,-4.1517 646.7025,-3.7288 209.4381,0.3844 800.1782,-62.6818 905.3963,50.9361 303.6759,327.9125 322.3795,740.3855 280.3707,898.2412 -18.8874,70.9753 -138.6593,307.4177 -305.946,429.1274 -224.7329,131.8101 -522.2594,70.5506 -774.8994,94.3225 z"
         style="color:#000000;display:inline;overflow:visible;visibility:visible;fill:#800000;fill-opacity:1;fill-rule:evenodd;stroke:none;stroke-width:0.12364834;marker:none;enable-background:accumulate"
         inkscape:connector-curvature="0" />
    </clipPath>
    <clipPath
       clipPathUnits="userSpaceOnUse"
       id="clipPath40557-5">
      <path
         inkscape:connector-curvature="0"
         style="color:#000000;display:inline;overflow:visible;visibility:visible;fill:#800000;fill-opacity:1;fill-rule:evenodd;stroke:none;stroke-width:0.12364834;marker:none;enable-background:accumulate"
         d="m 5893.6564,3384.2611 c -779.9871,67.7137 -949.7669,-112.6107 -1187.0839,-558.9059 -48.2164,-171.2542 72.1839,-719.1641 378.8108,-929.3398 181.3922,-124.3352 450.6627,-4.1516 646.7025,-3.7288 209.4381,0.3844 800.1782,-62.6817 905.3963,50.9362 303.6759,327.9125 322.3795,740.3854 280.3707,898.2411 -18.8874,70.9754 -138.6593,307.4178 -305.946,429.1275 -224.7329,131.81 -465.6105,89.8979 -718.2504,113.6697 z"
         id="path40559-5"
         sodipodi:nodetypes="ccsssscc"
         clip-path="none" />
    </clipPath>
  </defs>
  <path
     style="display:inline;fill:#e9afaf;stroke:none;enable-background:new"
     d="m 274.07376,142.21039 c 0.7572,0.99963 4.20285,2.35145 6.22014,2.34692 2.0878,-0.005 5.49959,-0.66571 7.08739,-2.34917 -2.20985,0.33293 -4.67755,-1.19884 -7.03132,-0.60229 -1.40761,-0.48393 -5.47476,0.87771 -6.27621,0.60454 z"
     id="path40832"
     inkscape:connector-curvature="0"
     sodipodi:nodetypes="csccc" />
  <path
     style="display:inline;fill:#de8787;stroke:none;enable-background:new"
     d="m 280.38229,142.30245 c -1.00109,0 -1.81713,-0.94142 -4.04502,0.036 -1.14171,0.5009 -1.90924,0.32654 -2.90275,-0.46954 1.66211,1.01747 2.66455,-0.46321 3.55908,-1.01769 1.63904,-1.01599 2.32416,-0.0924 3.38869,-0.0924 0.99587,0 2.28441,-0.75728 3.72094,-0.0565 0.98779,0.48188 1.88858,1.87026 3.768,1.20164 -0.87782,0.95225 -2.34432,0.61238 -3.52555,0.2477 -1.86163,-0.57475 -2.72938,0.13832 -3.96339,0.15076 z"
     id="path40834"
     inkscape:connector-curvature="0"
     sodipodi:nodetypes="cscssscscc" />
  <path
     inkscape:label="skin dark"
     style="display:inline;fill:#e9afaf;stroke:none;enable-background:new"
     d="m 273.88856,140.32026 c -0.83635,0.99518 -0.81152,1.97878 -0.14725,2.80605 -0.27884,-0.76273 -0.28957,-1.8787 0.14725,-2.80605 z"
     id="path40687-0"
     inkscape:connector-curvature="0"
     sodipodi:nodetypes="ccc" />
  <path
     inkscape:label="skin dark"
     style="display:inline;fill:#e9afaf;stroke:none;enable-background:new"
     d="m 287.51813,140.41148 c 0.97368,1.06385 0.60552,1.97879 0.14724,3.14938 0.27885,-1.24338 0.15225,-2.49668 -0.14724,-3.14938 z"
     id="path40691-4"
     inkscape:connector-curvature="0"
     sodipodi:nodetypes="ccc" />
</svg>
