<svg xmlns="http://www.w3.org/2000/svg" id="mouth_revulsion" width="560" height="560">
  <path id="path35777-4" d="m 280.71242,146.11402 c -1.23863,0.0138 -5.43617,-1.09837 -6.13257,-1.97568 0.16175,-1.76859 1.20844,-3.27407 2.51901,-3.19649 1.16133,0.0687 2.90559,0.71066 3.87292,0.31531 1.0915,-0.44611 3.32105,-0.8973 3.96664,-0.40009 1.58774,0.87417 1.88666,1.78936 2.30812,2.97494 -1.06563,0.75677 -3.7746,2.2513 -6.53412,2.28201 z" style="color:#000000;display:inline;overflow:visible;visibility:visible;fill:#800000;fill-opacity:1;fill-rule:evenodd;stroke:none;stroke-width:0.12364834;marker:none;enable-background:accumulate"/>
  <path id="path34580-7" d="m 553.04338,152.4148 c -2.76853,0 -3.13749,-0.65629 -3.13749,-2.10776 0,-1.27848 1.25193,-2.3004 2.03721,-2.3004 0.99387,0 1.28515,0.91392 1.05074,1.19393 -0.33332,0.39815 -0.14052,0.83056 0.32763,0.79315 0.42611,-0.0341 0.47751,-0.42462 0.25647,-0.77911 -0.18329,-0.29395 0.45244,-1.17258 1.08145,-1.17258 0.57697,0 1.61669,0.39683 1.61669,1.89718 0,1.50035 -1.24772,2.54638 -3.2327,2.47559 z" transform="matrix(1 0 0 .54 -274.91 63.1)" clip-path="url(#clipPath95552-0-2)" style="color:#000000;display:inline;overflow:visible;visibility:visible;fill:#000000;fill-opacity:1;fill-rule:evenodd;stroke:#000000;stroke-width:0.12364835;stroke-linecap:butt;stroke-linejoin:miter;stroke-miterlimit:4;stroke-dasharray:none;stroke-dashoffset:0;stroke-opacity:1;marker:none;enable-background:accumulate"/>
  <path id="path34584-0" d="m 553.3151,151.22607 c -1.04462,-0.12511 -5.11672,-1.61705 -5.03515,0.51768 0.97187,0.80874 3.55234,0.76138 4.63357,0.76138 0.73278,0 3.61857,0.41901 4.69242,-0.47569 -0.39048,-3.91751 -3.49882,-0.70851 -4.29084,-0.80337 z" transform="translate(-272.06 -6.51)" clip-path="url(#clipPath37633)" style="color:#000000;display:inline;overflow:visible;visibility:visible;fill:#a02c2c;fill-opacity:1;fill-rule:evenodd;stroke:#501616;stroke-width:0.12364834;stroke-linecap:butt;stroke-linejoin:miter;stroke-miterlimit:4;stroke-dasharray:none;stroke-dashoffset:0;stroke-opacity:1;marker:none;enable-background:accumulate"/>
  <path id="path34594-2" d="m 274.59051,143.60927 c 0.0172,-0.10348 0.0474,-0.26371 0.22494,-0.32145 0.17749,-0.0577 0.60643,0.12993 0.72476,0.12993 0.11833,0 0.47331,0.21655 0.3254,0.76514 l -5e-5,-2e-5 c -0.34019,0 -0.69518,0.10105 -0.91704,0.17323 -0.24546,0.0799 -0.26349,0.2103 -0.32266,0.008" style="color:#000000;display:inline;overflow:visible;visibility:visible;fill:#f2f2f2;stroke:#cccccc;stroke-width:0.25000003;stroke-linecap:butt;stroke-linejoin:miter;stroke-miterlimit:4;stroke-dasharray:none;stroke-dashoffset:0;stroke-opacity:1;marker:none;enable-background:accumulate"/>
  <path id="path34596-6" d="m 276.25013,144.42829 c -0.28103,0.0433 -0.78393,0.46197 -0.96142,0.51971 -0.17749,0.0577 -0.19228,-0.17324 -0.22187,-0.24542 -0.0296,-0.0722 -0.0148,-0.40422 0.0444,-0.4764 0.0592,-0.0722 0.19228,-0.20212 0.20707,-0.30317 0.0148,-0.10106 0.10354,-0.21655 0.29582,-0.24542 0.19229,-0.0289 0.1775,0.0144 0.29583,-0.0289 0.11832,-0.0433 0.4881,0.0289 0.47331,0.12993 0.0103,0.11181 -0.007,0.39785 -0.13312,0.64965 z" style="color:#000000;display:inline;overflow:visible;visibility:visible;fill:#f2f2f2;stroke:#cccccc;stroke-width:0.25000003;stroke-linecap:butt;stroke-linejoin:miter;stroke-miterlimit:4;stroke-dasharray:none;stroke-dashoffset:0;stroke-opacity:1;marker:none;enable-background:accumulate"/>
  <path id="path34598-5" d="m 276.83961,144.56401 c -0.27194,0.0817 -0.53341,0.32666 -0.70075,0.46958 -0.16734,0.14291 -0.37652,0.22458 -0.36606,0.0715 0.0105,-0.15313 0.0418,-0.57166 0.15688,-0.83708 0.11505,-0.26541 0.25102,-0.42874 0.46019,-0.60228 0.20918,-0.17354 0.73212,0.0715 0.70075,0.19396 -0.0314,0.12249 -0.0418,0.48999 -0.25101,0.70436 z" style="color:#000000;display:inline;overflow:visible;visibility:visible;fill:#f2f2f2;stroke:#cccccc;stroke-width:0.25000003;stroke-linecap:butt;stroke-linejoin:miter;stroke-miterlimit:4;stroke-dasharray:none;stroke-dashoffset:0;stroke-opacity:1;marker:none;enable-background:accumulate"/>
  <path id="path34600-3" d="m 277.38347,144.74776 c -0.28239,0.22458 -0.51249,0.63291 -0.79488,0.7452 -0.28239,0.11229 -0.27193,-0.0408 -0.25101,-0.18375 0.0209,-0.14292 -0.0732,-0.56145 0.0837,-0.89832 0.15688,-0.33687 0.44973,-0.67374 0.5857,-0.68395 0.13596,-0.0102 0.40789,0.11229 0.43927,0.15312 0.0314,0.0408 0.16734,0.16333 0.13596,0.26542 -0.0314,0.10208 -0.0523,0.38791 -0.19871,0.60228 z" style="color:#000000;display:inline;overflow:visible;visibility:visible;fill:#f2f2f2;stroke:#cccccc;stroke-width:0.25000003;stroke-linecap:butt;stroke-linejoin:miter;stroke-miterlimit:4;stroke-dasharray:none;stroke-dashoffset:0;stroke-opacity:1;marker:none;enable-background:accumulate"/>
  <path id="path34604-5" d="m 278.15742,145.1765 c -0.16726,0.005 -0.23009,0.0408 -0.38698,0.40833 -0.15688,0.3675 -0.3556,0.3675 -0.42881,0.38791 -0.0732,0.0204 -0.26147,-0.0306 -0.25101,-0.1225 0.0105,-0.0919 -0.0628,-0.78603 0.0209,-0.97998 0.0837,-0.19396 0.11504,-0.59208 0.27193,-0.7452 0.15688,-0.15312 0.26147,-0.27562 0.41835,-0.26541 0.15688,0.0102 0.52294,0.41853 0.51249,0.46957 -0.0105,0.051 0.0107,0.84217 -0.15689,0.84728 z" style="color:#000000;display:inline;overflow:visible;visibility:visible;fill:#f2f2f2;stroke:#cccccc;stroke-width:0.25000003;stroke-linecap:butt;stroke-linejoin:miter;stroke-miterlimit:4;stroke-dasharray:none;stroke-dashoffset:0;stroke-opacity:1;marker:none;enable-background:accumulate"/>
  <path id="path34606-7" d="m 277.87672,144.29852 c 0.0403,0.0358 0.0632,0.0861 0.021,0.11107 -0.0212,0.0125 -0.0603,0.06 -0.0524,0.12095 0.005,0.0365 -0.0463,0.22826 -0.0812,0.27082 -0.0559,0.0682 -0.0838,-0.0545 -0.0349,-0.1159 0.0489,-0.0614 0.0768,-0.10908 0.0699,-0.12953 -0.007,-0.0204 -0.014,-0.0477 0.021,-0.10908 0.0349,-0.0614 0.037,-0.0858 0.016,-0.10626 -0.021,-0.0204 -0.001,-0.0795 0.0407,-0.0421 z" style="color:#000000;display:inline;overflow:visible;visibility:visible;fill:#ffffff;stroke:none;stroke-width:15.7275238;stroke-miterlimit:4;stroke-dasharray:none;marker:none;enable-background:accumulate"/>
  <path id="path34608-1" d="m 277.56104,145.19269 c 0,0 0.079,0 0.10866,-0.0289 0.0296,-0.0289 0,-0.12534 0,-0.12534 0,0 0.0198,-0.0675 -0.0198,-0.0868 -0.0395,-0.0193 -0.0988,0.01 -0.0889,0.0579 0.01,0.0482 0.0494,0.0964 0,0.18318 z" style="color:#000000;display:inline;overflow:visible;visibility:visible;fill:#ffffff;stroke:none;stroke-width:15.7275238;stroke-miterlimit:4;stroke-dasharray:none;marker:none;enable-background:accumulate"/>
  <path id="path34610-1" d="m 279.3079,145.21734 c 0.0837,-0.245 0.0941,-1.02082 -0.11505,-0.97999 -0.0523,-0.051 -0.13596,-0.0613 -0.19872,-0.051 -0.0627,-0.0715 -0.21963,-0.0408 -0.21963,-0.0408 0,0 -0.39744,-0.0715 -0.49157,-0.0306 -0.0941,0.0408 -0.0732,0.28583 -0.0941,0.38791 -0.0209,0.10208 0.10459,0.90853 0.12551,1.10249 0.0209,0.19395 0.40789,0.48999 0.58569,0.14291 0.1778,-0.34708 0.29285,-0.43895 0.4079,-0.53082 z" style="color:#000000;display:inline;overflow:visible;visibility:visible;fill:#f2f2f2;stroke:#cccccc;stroke-width:0.25000003;stroke-linecap:butt;stroke-linejoin:miter;stroke-miterlimit:4;stroke-dasharray:none;stroke-dashoffset:0;stroke-opacity:1;marker:none;enable-background:accumulate"/>
  <path id="path34612-4" d="m 287.16082,143.18517 c -0.50172,-0.1292 -0.63536,0.12688 -0.7152,0.21214 -0.0765,0.0817 -0.23276,0.22676 -0.0849,0.77535 l 8e-5,0 c 0.34019,0 0.67426,0.0806 0.89613,0.15282" style="color:#000000;display:inline;overflow:visible;visibility:visible;fill:#f2f2f2;stroke:#cccccc;stroke-width:0.25000003;stroke-linecap:butt;stroke-linejoin:miter;stroke-miterlimit:4;stroke-dasharray:none;stroke-dashoffset:0;stroke-opacity:1;marker:none;enable-background:accumulate"/>
  <path id="path34616-0" d="m 280.34254,145.3017 c 0.0813,0.0361 0.25503,0.24213 0.3068,0.32153 0.0518,0.0794 0.33024,0.149 0.50058,-0.0734 0.1645,-0.2148 0.19841,-0.40691 0.2206,-0.48631 0.0222,-0.0794 0.0666,-0.15159 0.074,-0.29595 0.007,-0.14437 0.037,-0.46197 0.0444,-0.49085 0.007,-0.0289 -0.0296,-0.0722 -0.0444,-0.0866 -0.0148,-0.0144 0.0155,-0.0774 -0.0449,-0.10761 -0.0604,-0.0302 -0.12271,-0.006 -0.20341,-0.0135 -0.0807,-0.007 -0.19827,-0.003 -0.24957,-0.0316 -0.0689,-0.0379 -0.23757,-0.0191 -0.30234,-0.0324 -0.0648,-0.0134 -0.23008,-0.0439 -0.27445,-0.015 -0.0444,0.0289 -0.0564,0.0237 -0.0721,0.20509 -0.0156,0.18135 0.0448,0.86125 0.0448,1.10667 z" style="color:#000000;display:inline;overflow:visible;visibility:visible;fill:#f2f2f2;stroke:#cccccc;stroke-width:0.25000003;stroke-linecap:butt;stroke-linejoin:miter;stroke-miterlimit:4;stroke-dasharray:none;stroke-dashoffset:0;stroke-opacity:1;marker:none;enable-background:accumulate"/>
  <path id="path34618-8" d="m 280.92952,145.06253 c 0.0159,-0.0811 -0.0247,-0.20247 -0.0247,-0.25549 0,-0.053 0.0445,-0.14945 0.0593,-0.18319 -0.0296,-0.005 -0.0593,0.0386 -0.084,0.0675 -0.0198,-0.0337 -0.0296,-0.0964 -0.0247,-0.14945 -0.0296,0.0241 -0.0938,0.10124 -0.079,0.13016 0.0148,0.0289 0.0444,0.10124 0.0346,0.1157 -0.01,0.0145 -0.01,0.0193 0.0148,0.0675 0.0247,0.0482 0.0741,0.15189 0.0741,0.2314 0,0.0723 0.0445,0.12052 0.0691,0.15908 -0.0395,-0.0675 -0.0494,-0.13275 -0.0395,-0.18319 z" style="color:#000000;display:inline;overflow:visible;visibility:visible;fill:#ffffff;stroke:none;stroke-width:15.7275238;stroke-miterlimit:4;stroke-dasharray:none;marker:none;enable-background:accumulate"/>
  <path id="path34622-5" d="m 280.36944,145.3017 c -0.0813,0.0361 -0.19228,0.42588 -0.24405,0.50528 -0.0518,0.0794 -0.45113,0.15158 -0.58425,-0.0938 -0.13312,-0.24542 -0.17749,-0.57024 -0.19968,-0.64964 -0.0222,-0.0794 -0.0666,-0.15159 -0.0739,-0.29595 -0.007,-0.14437 -0.037,-0.46197 -0.0444,-0.49085 -0.007,-0.0289 0.0296,-0.0722 0.0444,-0.0866 0.0148,-0.0144 -0.0148,-0.0577 0.0444,-0.0866 0.0592,-0.0289 0.11833,-0.0217 0.19229,-0.0217 0.074,0 0.27363,0.0217 0.3254,0.0217 0.0518,0 0.11833,0.007 0.17749,0 0.0592,-0.007 0.20708,-0.0505 0.25145,-0.0217 0.0444,0.0289 0.0518,0.0289 0.0813,0.19489 0.0296,0.16602 0.0296,0.77958 0.0296,1.025 z" style="color:#000000;display:inline;overflow:visible;visibility:visible;fill:#f2f2f2;stroke:#cccccc;stroke-width:0.25000003;stroke-linecap:butt;stroke-linejoin:miter;stroke-miterlimit:4;stroke-dasharray:none;stroke-dashoffset:0;stroke-opacity:1;marker:none;enable-background:accumulate"/>
  <path id="path34624-1" d="m 280.02072,144.87453 c -0.005,-0.10124 -0.0148,-0.19283 0.0148,-0.21212 0.0296,-0.0193 0.0494,-0.053 0.0494,-0.0771 0,-0.0241 0,-0.1157 0.0148,-0.13498 0.0148,-0.0193 0.0346,-0.10606 0.0593,-0.14462 -0.0247,0.01 -0.0691,0.0145 -0.0691,0.0145 -0.005,0.0386 -0.0148,0.0627 -0.0296,0.0868 -0.0148,0.0241 -0.0494,0.20247 -0.0543,0.22658 0.0198,-0.1157 0.0445,-0.23622 0.0593,-0.26996 -0.0198,0.0337 -0.0198,0.0386 -0.0445,0.0579 -0.0148,0.0627 -0.0543,0.2796 -0.0642,0.3037 -0.01,0.0241 0.005,0.16873 0,0.19765 0.0247,-0.0193 0.0395,-0.0434 0.0642,-0.0482 z" style="color:#000000;display:inline;overflow:visible;visibility:visible;fill:#ffffff;stroke:none;stroke-width:15.7275238;stroke-miterlimit:4;stroke-dasharray:none;marker:none;enable-background:accumulate"/>
  <path id="path34626-8" d="m 279.6291,144.90362 0,-0.12953 c -0.0419,-0.0954 -0.0489,-0.2318 0.021,-0.2727 -0.007,-0.0136 -0.0559,-0.0545 -0.0489,-0.0886 -0.0629,0.0205 -0.0629,0.0477 -0.0559,0.075 0.007,0.0273 -0.021,0.007 -0.014,0.075 0.007,0.0682 -0.007,0.12271 0.0978,0.34087 z" style="color:#000000;display:inline;overflow:visible;visibility:visible;fill:#ffffff;stroke:none;stroke-width:15.7275238;stroke-miterlimit:4;stroke-dasharray:none;marker:none;enable-background:accumulate"/>
  <path id="path34628-5" d="m 279.75483,144.67864 c 0.007,-0.12271 0.0279,-0.29997 0.0838,-0.30679 -0.0768,-0.0273 -0.0489,-0.0954 0.0419,-0.12271 -0.0978,-0.007 -0.1397,0 -0.16066,0.0341 -0.0209,0.0341 0,0.0886 -0.014,0.10226 -0.014,0.0136 0.007,0.0545 0.0629,0.0545 -0.0279,0.0477 -0.0349,0.0954 -0.0629,0.14317 0.0279,0.0545 0.021,0.0204 0.0489,0.0954 z" style="color:#000000;display:inline;overflow:visible;visibility:visible;fill:#ffffff;stroke:none;stroke-width:15.7275238;stroke-miterlimit:4;stroke-dasharray:none;marker:none;enable-background:accumulate"/>
  <path id="path34632-8" d="m 285.64514,144.42829 c 0.26011,0.16581 0.54337,0.33947 0.81499,0.32576 0.18685,-0.009 0.38054,-0.21407 0.41013,-0.28626 0.0296,-0.0722 -0.007,-0.31391 -0.0235,-0.40495 -0.0278,-0.15384 -0.17136,-0.41842 -0.24891,-0.48691 -0.0566,-0.05 -0.19767,-0.10426 -0.38995,-0.13313 -0.19228,-0.0289 -0.30562,0.16828 -0.43179,0.17529 -0.13924,0.008 -0.3103,-0.0222 -0.42102,0.24222 -0.0103,0.11181 0.16412,0.31618 0.29001,0.56798 z" style="color:#000000;display:inline;overflow:visible;visibility:visible;fill:#f2f2f2;stroke:#cccccc;stroke-width:0.25000003;stroke-linecap:butt;stroke-linejoin:miter;stroke-miterlimit:4;stroke-dasharray:none;stroke-dashoffset:0;stroke-opacity:1;marker:none;enable-background:accumulate"/>
  <path id="path34634-7" d="m 285.9994,144.27641 c -0.0908,-0.0818 -0.34925,-0.19089 -0.33528,-0.25225 -0.0419,0.0341 -0.0559,-0.0204 -0.10478,-0.0682 0.007,0.12954 0.0419,0.15681 0.16066,0.19771 0.11874,0.0409 0.20955,0.0886 0.2794,0.12272 z" style="color:#000000;display:inline;overflow:visible;visibility:visible;fill:#ffffff;stroke:none;stroke-width:15.7275238;stroke-miterlimit:4;stroke-dasharray:none;marker:none;enable-background:accumulate"/>
  <path id="path34638-7" d="m 284.67109,144.56401 c 0.27193,0.0817 0.41836,0.28583 0.5857,0.42875 0.16734,0.14291 0.5334,0.26541 0.52294,0.11229 -0.0105,-0.15313 -0.0523,-0.50021 -0.0627,-0.63291 -0.0226,-0.28734 -0.28239,-0.6227 -0.49157,-0.79624 -0.0723,-0.06 -0.20489,-3.6e-4 -0.33301,-0.0142 -0.18955,-0.0206 -0.49285,0.11785 -0.47232,0.19799 0.0314,0.12249 0.0418,0.48999 0.25101,0.70436 z" style="color:#000000;display:inline;overflow:visible;visibility:visible;fill:#f2f2f2;stroke:#cccccc;stroke-width:0.25000003;stroke-linecap:butt;stroke-linejoin:miter;stroke-miterlimit:4;stroke-dasharray:none;stroke-dashoffset:0;stroke-opacity:1;marker:none;enable-background:accumulate"/>
  <path id="path34640-1" d="m 285.32185,144.69228 c 0.0349,-0.1159 0.007,-0.2318 -0.0698,-0.30679 0.0349,0.14317 0.0629,0.2318 0.0698,0.30679 z" style="color:#000000;display:inline;overflow:visible;visibility:visible;fill:#ffffff;stroke:none;stroke-width:15.7275238;stroke-miterlimit:4;stroke-dasharray:none;marker:none;enable-background:accumulate"/>
  <path id="path34644-4" d="m 283.95661,144.84984 c 0.28239,0.22458 0.36606,0.59208 0.64845,0.70437 0.28239,0.11229 0.47372,0.0625 0.48111,-0.0817 0.0105,-0.20416 0.0418,-0.72478 -0.11505,-1.06165 -0.15688,-0.33687 -0.44973,-0.67374 -0.5857,-0.68395 -0.13596,-0.0102 -0.33468,0.22458 -0.38698,0.23479 -0.0513,0.01 -0.18825,0.0613 -0.18825,0.18375 0,0.10657 0,0.48999 0.14642,0.70436 z" style="color:#000000;display:inline;overflow:visible;visibility:visible;fill:#f2f2f2;stroke:#cccccc;stroke-width:0.25000003;stroke-linecap:butt;stroke-linejoin:miter;stroke-miterlimit:4;stroke-dasharray:none;stroke-dashoffset:0;stroke-opacity:1;marker:none;enable-background:accumulate"/>
  <path id="path34646-9" d="m 284.38587,144.72637 c 0.0349,0.0818 0.1397,0.2727 0.12573,0.37496 -0.014,0.10227 -0.17463,-0.14316 -0.21654,-0.21134 -0.0419,-0.0682 -0.11176,0 -0.13271,-0.0409 -0.021,-0.0409 -0.14669,-0.29997 -0.18161,-0.32724 -0.0349,-0.0273 -0.0699,-0.0682 -0.014,-0.0954 -0.0349,-0.11589 0.0768,-0.075 0.0768,0.0205 0,0.0954 0.11176,0.29315 0.15367,0.29997 0.0419,0.007 0.021,-0.0409 0.1886,-0.0205 z" style="color:#000000;display:inline;overflow:visible;visibility:visible;fill:#ffffff;stroke:none;stroke-width:15.7275238;stroke-miterlimit:4;stroke-dasharray:none;marker:none;enable-background:accumulate"/>
  <path id="path34648-8" d="m 284.73512,144.94453 c -0.021,-0.0954 -0.0908,-0.23861 -0.12573,-0.29316 0.0419,0.13636 0.007,0.14317 0.12573,0.29316 z" style="color:#000000;display:inline;overflow:visible;visibility:visible;fill:#ffffff;stroke:none;stroke-width:15.7275238;stroke-miterlimit:4;stroke-dasharray:none;marker:none;enable-background:accumulate"/>
  <path id="path34652-1" d="m 282.79629,145.19692 c 0.18818,0.097 0.18826,0.13271 0.34514,0.5002 0.15689,0.3675 0.48111,0.25521 0.55432,0.27562 0.0732,0.0204 0.22316,-0.0341 0.25102,-0.1225 0.0418,-0.1327 0.049,-0.84439 0.0105,-1.05144 -0.0628,-0.33687 -0.0341,-0.56208 -0.2301,-0.66353 -0.15586,-0.0807 -0.28271,-0.28268 -0.41176,-0.32187 -0.0884,-0.0268 -0.19383,0.0727 -0.25761,0.0769 -0.15688,0.0102 -0.33468,0.33687 -0.40789,0.40833 -0.0377,0.0368 -0.002,0.82191 0.14642,0.89832 z" style="color:#000000;display:inline;overflow:visible;visibility:visible;fill:#f2f2f2;stroke:#cccccc;stroke-width:0.25000003;stroke-linecap:butt;stroke-linejoin:miter;stroke-miterlimit:4;stroke-dasharray:none;stroke-dashoffset:0;stroke-opacity:1;marker:none;enable-background:accumulate"/>
  <path id="path34654-9" d="m 283.08792,144.36835 c -0.0148,-0.0386 -0.0391,-0.0289 -0.0445,0.0193 -0.005,0.0466 0.0708,0.33467 0.15174,0.46963 0.0754,0.12573 0.0873,0.2702 0.0952,0.33543 0.007,0.0546 0.0543,0.0434 0.0445,0 -0.0153,-0.0674 -0.0494,-0.33263 -0.084,-0.36637 -0.0346,-0.0337 -0.10866,-0.19283 -0.16299,-0.45797 z" style="color:#000000;display:inline;overflow:visible;visibility:visible;fill:#ffffff;stroke:none;stroke-width:15.7275238;stroke-miterlimit:4;stroke-dasharray:none;marker:none;enable-background:accumulate"/>
  <path id="path34658-9" d="m 281.41774,144.91951 c 0.0335,-0.39835 -0.0661,-0.79076 0.0756,-0.75677 0.006,-0.0315 0.0429,-0.0804 0.11712,-0.0703 0.0962,0.0131 0.21198,-4e-4 0.25397,0.008 0.0746,-0.0662 0.25349,-0.0215 0.25349,-0.0215 0,0 0.4301,-0.0301 0.52342,0.0166 0.0933,0.0467 0.0597,0.28685 0.0674,0.3903 0.008,0.10345 -0.0797,0.85244 -0.11229,1.04734 -0.0683,0.40854 -0.60695,0.56728 -0.78441,0.21484 -0.17746,-0.35244 -0.27924,-0.72977 -0.39426,-0.82832 z" style="color:#000000;display:inline;overflow:visible;visibility:visible;fill:#f2f2f2;stroke:#cccccc;stroke-width:0.25000003;stroke-linecap:butt;stroke-linejoin:miter;stroke-miterlimit:4;stroke-dasharray:none;stroke-dashoffset:0;stroke-opacity:1;marker:none;enable-background:accumulate"/>
  <path id="path34660-7" d="m 281.67039,144.47922 c -0.0494,-0.23139 -0.01,-0.32781 0.15805,-0.26996 -0.0691,0.0482 -0.15805,0.2314 -0.15805,0.26996 z" style="color:#000000;display:inline;overflow:visible;visibility:visible;fill:#ffffff;stroke:none;stroke-width:15.7275238;stroke-miterlimit:4;stroke-dasharray:none;marker:none;enable-background:accumulate"/>
  <path id="path34668-4" d="m 274.72618,142.90599 c 0.0292,0.15696 0.0616,0.36437 0.10549,0.3501 0.0439,-0.0143 0.18149,-0.0125 0.23997,0.016 0.0585,0.0285 0.10662,0.0762 0.29667,0.0334 0.19005,-0.0428 0.0731,-0.0856 0.17543,-0.11415 0.10234,-0.0285 0.17544,-0.0856 0.11696,-0.22831 -0.0585,-0.14269 -0.0877,-0.45661 -0.20467,-0.54222 l 2e-5,9e-5 c -0.13158,-0.0713 -0.2193,-0.12843 -0.26315,-0.24258" style="color:#000000;display:inline;overflow:visible;visibility:visible;fill:#f2f2f2;stroke:#cccccc;stroke-width:0.25000003;stroke-linecap:butt;stroke-linejoin:miter;stroke-miterlimit:4;stroke-dasharray:none;stroke-dashoffset:0;stroke-opacity:1;marker:none;enable-background:accumulate"/>
  <path id="path34670-0" d="m 275.8987,142.46486 c -0.11666,-0.1712 -0.32139,-0.33613 -0.3813,-0.41496 -0.11436,-0.15048 -0.15981,0.0537 -0.17269,0.17943 -0.0129,0.12575 0.0421,0.41229 0.055,0.51289 0.0129,0.1006 0.15808,0.65558 0.23538,0.6933 0.0773,0.0377 0.31688,-0.12503 0.4586,-0.20048 0.14171,-0.0754 -0.0481,-0.55458 -0.19499,-0.77018 z" style="color:#000000;display:inline;overflow:visible;visibility:visible;fill:#f2f2f2;stroke:#cccccc;stroke-width:0.25000003;stroke-linecap:butt;stroke-linejoin:miter;stroke-miterlimit:4;stroke-dasharray:none;stroke-dashoffset:0;stroke-opacity:1;marker:none;enable-background:accumulate"/>
  <path id="path34674-5" d="m 286.1855,142.18611 c 0.0958,-0.0305 0.19458,-0.0978 0.24396,-0.21195 0.16762,0.18166 0.34161,0.56961 0.67325,0.93193 -0.0325,0.15682 -0.0516,0.23368 -0.13066,0.27865 -0.16161,0.0919 -0.38734,0.008 -0.47864,-0.0322 -0.12,-0.0527 -0.15551,-0.0856 -0.27072,-0.11416 -0.11521,-0.0285 -0.19751,-0.0856 -0.13167,-0.2283 0.0658,-0.14269 -0.0372,-0.53828 0.0945,-0.62389 z" style="color:#000000;display:inline;overflow:visible;visibility:visible;fill:#f2f2f2;stroke:#cccccc;stroke-width:0.25000003;stroke-linecap:butt;stroke-linejoin:miter;stroke-miterlimit:4;stroke-dasharray:none;stroke-dashoffset:0;stroke-opacity:1;marker:none;enable-background:accumulate"/>
  <path id="path34676-5" d="m 285.58257,142.25049 c 0.19409,-0.15079 0.24677,-0.30551 0.42926,-0.466 0.14923,-0.13124 0.20067,-0.0263 0.25718,0.0876 0.0877,0.17678 0.0885,0.53478 0.074,0.63538 -0.007,0.0503 -0.0615,0.60176 -0.22552,0.75291 -0.0405,0.0514 -0.11099,0.15632 -0.15451,0.17518 -0.087,0.0377 -0.33582,-0.23732 -0.49537,-0.31277 -0.15955,-0.0754 -0.10098,-0.70452 0.11493,-0.87226 z" style="color:#000000;display:inline;overflow:visible;visibility:visible;fill:#f2f2f2;stroke:#cccccc;stroke-width:0.25000003;stroke-linecap:butt;stroke-linejoin:miter;stroke-miterlimit:4;stroke-dasharray:none;stroke-dashoffset:0;stroke-opacity:1;marker:none;enable-background:accumulate"/>
  <path id="path34678-2" d="m 284.9708,142.33111 c 0.11624,-0.0529 0.39464,-0.38553 0.45946,-0.4913 0.0878,-0.1433 0.17951,-0.0225 0.19597,0.12019 0.0165,0.14269 0.0881,0.61357 0.0717,0.72772 -0.0165,0.11416 -0.0969,0.62188 -0.13784,0.71949 -0.0198,0.0472 -0.0629,0.17374 -0.15725,0.19409 -0.0855,0.0185 -0.22908,0.034 -0.30085,-0.0108 -0.0631,-0.0394 -0.17358,-0.15595 -0.257,-0.1954 -0.18104,-0.0856 -0.0387,-0.80719 0.12584,-1.06403 z" style="color:#000000;display:inline;overflow:visible;visibility:visible;fill:#f2f2f2;stroke:#cccccc;stroke-width:0.25000003;stroke-linecap:butt;stroke-linejoin:miter;stroke-miterlimit:4;stroke-dasharray:none;stroke-dashoffset:0;stroke-opacity:1;marker:none;enable-background:accumulate"/>
  <path id="path34682-3" d="m 276.37707,142.39236 c -0.16828,-0.27748 -0.37788,-0.42626 -0.48244,-0.47088 -0.0966,-0.0412 -0.13157,0.0285 -0.14619,0.17123 -0.0146,0.14269 0.0146,0.61357 0.0292,0.72772 0.0146,0.11415 0.14619,0.72772 0.23391,0.77053 0.0877,0.0428 0.40934,-0.0285 0.57016,-0.11415 0.16081,-0.0856 -0.0585,-0.82761 -0.20468,-1.08445 z" style="color:#000000;display:inline;overflow:visible;visibility:visible;fill:#f2f2f2;stroke:#cccccc;stroke-width:0.25000003;stroke-linecap:butt;stroke-linejoin:miter;stroke-miterlimit:4;stroke-dasharray:none;stroke-dashoffset:0;stroke-opacity:1;marker:none;enable-background:accumulate"/>
  <path id="path34684-6" d="m 276.19249,142.26443 c -0.0559,0.12953 -0.014,0.29316 0.0559,0.51814 -0.0279,-0.25907 0.007,-0.43633 -0.0559,-0.51814 z" style="color:#000000;display:inline;overflow:visible;visibility:visible;fill:#ffffff;stroke:none;stroke-width:15.7275238;stroke-miterlimit:4;stroke-dasharray:none;marker:none;enable-background:accumulate"/>
  <path id="path34688-5" d="m 277.41506,142.47797 c -0.26315,-0.0285 -0.36549,-0.32819 -0.46783,-0.49942 -0.10233,-0.17123 -0.49706,-0.49941 -0.61401,-0.34245 -0.11696,0.15696 -0.10234,0.8276 -0.0292,1.22714 0.0731,0.39953 0.17543,0.85614 0.3801,0.88468 0.20468,0.0285 0.40935,-0.11415 0.5263,-0.2283 0.11696,-0.11416 0.13158,-0.15696 0.27777,-0.1855 0.1462,-0.0285 -0.0146,-0.72773 -0.0731,-0.85615 z" style="color:#000000;display:inline;overflow:visible;visibility:visible;fill:#f2f2f2;stroke:#cccccc;stroke-width:0.25000003;stroke-linecap:butt;stroke-linejoin:miter;stroke-miterlimit:4;stroke-dasharray:none;stroke-dashoffset:0;stroke-opacity:1;marker:none;enable-background:accumulate"/>
  <path id="path34690-4" d="m 276.61997,141.92582 c 0.25101,0.21437 0.32422,0.75541 0.39744,0.88811 0.0732,0.13271 0.23009,0.13271 0.27193,0.0919 -0.11505,0.19395 -0.26148,0.26541 -0.28239,0.21437 -0.0209,-0.051 -0.14643,-0.29604 -0.18826,-0.42875 -0.0418,-0.1327 -0.0628,-0.53082 -0.19872,-0.76561 z" style="color:#000000;display:inline;overflow:visible;visibility:visible;fill:#ffffff;stroke:none;stroke-width:15.7275238;stroke-miterlimit:4;stroke-dasharray:none;marker:none;enable-background:accumulate"/>
  <path id="path34695-1" d="m 278.74543,142.32101 c -0.0731,-0.0713 -0.48244,-0.4138 -0.65788,-0.62784 -0.12421,-0.15155 -0.3801,-0.34246 -0.61401,0.0571 -0.23392,0.39953 -0.26316,1.39837 -0.1462,1.58387 0.11696,0.1855 0.20467,0.15696 0.30701,0.15696 0.0731,0.0999 0.10234,0.0713 0.19005,0.0571 0.16082,0.11416 0.43859,-0.0285 0.46783,-0.0428 0.0292,-0.0143 0.16081,0.0143 0.35086,-0.12843 0.19006,-0.14269 0.20468,-0.0856 0.10234,-1.05591 z" style="color:#000000;display:inline;overflow:visible;visibility:visible;fill:#f2f2f2;stroke:#cccccc;stroke-width:0.25000003;stroke-linecap:butt;stroke-linejoin:miter;stroke-miterlimit:4;stroke-dasharray:none;stroke-dashoffset:0;stroke-opacity:1;marker:none;enable-background:accumulate"/>
  <path id="path34697-2" d="m 278.48165,143.13039 c -0.0209,0.27562 -0.0628,0.10208 -0.12551,-0.0204 -0.0627,-0.1225 -0.12551,-0.46958 -0.1778,-0.58187 0.0732,0.18375 0.15688,0.35729 0.20918,0.3675 0.0418,0.0919 0.0627,0.17354 0.0941,0.23479 z" style="color:#000000;display:inline;overflow:visible;visibility:visible;fill:#ffffff;stroke:none;stroke-width:15.7275238;stroke-miterlimit:4;stroke-dasharray:none;marker:none;enable-background:accumulate"/>
  <path id="path34701-2" d="m 283.73724,142.52128 c 0.25189,-0.0863 0.29314,-0.40037 0.40835,-0.5716 0.11521,-0.17123 0.54481,-0.5716 0.67648,-0.41464 0.0373,0.0445 0.12007,0.0988 0.15762,0.22135 0.0949,0.30958 0.12654,0.83506 0.0676,1.12128 -0.0823,0.39954 -0.10186,0.64658 -0.19127,0.85581 -0.0677,0.15847 -0.12332,0.20611 -0.29669,0.17592 -0.14993,-0.0261 -0.36498,-0.12454 -0.48962,-0.2411 -0.14467,-0.13528 -0.17842,-0.17449 -0.3112,-0.27644 -0.13139,-0.10087 -0.0871,-0.74216 -0.0213,-0.87058 z" style="color:#000000;display:inline;overflow:visible;visibility:visible;fill:#f2f2f2;stroke:#cccccc;stroke-width:0.25000003;stroke-linecap:butt;stroke-linejoin:miter;stroke-miterlimit:4;stroke-dasharray:none;stroke-dashoffset:0;stroke-opacity:1;marker:none;enable-background:accumulate"/>
  <path id="path34703-2" d="m 284.52557,141.99173 c -0.0559,0.10908 -0.0978,0.21816 -0.11176,0.36815 -0.0279,-0.25907 -0.0279,-0.27271 0.11176,-0.36815 z" style="color:#000000;display:inline;overflow:visible;visibility:visible;fill:#ffffff;stroke:none;stroke-width:15.7275238;stroke-miterlimit:4;stroke-dasharray:none;marker:none;enable-background:accumulate"/>
  <path id="path34705-9" d="m 284.38587,142.41442 c 0.0419,0.16362 0.0279,0.32724 0,0.40905 -0.0279,0.0818 -0.18161,0.35451 -0.19558,0.53177 -0.0419,-0.0954 -0.0838,-0.13635 -0.0838,-0.13635 l 0.0838,-0.19089 -0.12573,0.17725 -0.0978,-0.10908 c 0.16764,-0.0682 0.22352,-0.17725 0.22352,-0.23179 0,-0.0545 0.014,-0.12272 0.0698,-0.17726 -0.0419,0.0954 0,0.21816 -0.0559,0.31361 0.11176,-0.12272 0.1397,-0.17726 0.12573,-0.2318 -0.014,-0.0545 -0.0419,-0.0954 0,-0.13635 0.0419,-0.0409 0.0559,-0.14999 0.0559,-0.21816 z" style="color:#000000;display:inline;overflow:visible;visibility:visible;fill:#ffffff;stroke:none;stroke-width:15.7275238;stroke-miterlimit:4;stroke-dasharray:none;marker:none;enable-background:accumulate"/>
  <path id="path34707-3" d="m 284.63733,143.13026 c 0.007,0.10908 -0.0629,0.19089 -0.0559,0.25225 0.007,0.0614 -0.0419,0.0545 -0.0419,0.0273 0,-0.0273 -0.0349,-0.0477 0.007,-0.0954 0.0419,-0.0477 0.0629,-0.15681 0.0908,-0.18408 z" style="color:#000000;display:inline;overflow:visible;visibility:visible;fill:#ffffff;stroke:none;stroke-width:15.7275238;stroke-miterlimit:4;stroke-dasharray:none;marker:none;enable-background:accumulate"/>
  <path id="path34711-0" d="m 282.37254,142.40773 c 0.26504,-0.24489 0.29668,-0.36087 0.49419,-0.57491 0.13984,-0.15155 0.49696,-0.35218 0.80468,0.20616 0.0686,0.12447 0.0799,0.26158 0.1176,0.39884 0.0871,0.31717 0.0667,0.6345 0.047,0.79524 -0.0276,0.22406 -0.0679,0.17919 -0.18294,0.27245 -0.10102,0.0819 -0.38145,0.11466 -0.58374,0.086 -0.10709,0.0564 -0.22886,0.0201 -0.37877,5.1e-4 -0.10997,-0.0144 -0.27682,-0.0203 -0.29147,-0.27279 -0.0361,-0.47478 -0.0612,-0.75228 -0.0265,-0.91145 z" style="color:#000000;display:inline;overflow:visible;visibility:visible;fill:#f2f2f2;stroke:#cccccc;stroke-width:0.25000003;stroke-linecap:butt;stroke-linejoin:miter;stroke-miterlimit:4;stroke-dasharray:none;stroke-dashoffset:0;stroke-opacity:1;marker:none;enable-background:accumulate"/>
  <path id="path34713-4" d="m 282.86314,142.46896 c 0,0 -0.15367,0.5045 -0.15367,0.5454 0,0.0409 -0.0349,0.12272 -0.0349,0.14999 0,0.0273 0,0.0818 -0.0349,0.14999 0.021,-0.0954 0.014,-0.1909 0.021,-0.23862 0.007,-0.0477 0.0349,-0.12272 0.0489,-0.17044 0.014,-0.0477 -0.007,-0.0545 0.014,-0.0886 0.021,-0.0341 0.03,-0.0642 0.0509,-0.10508 0.021,-0.0409 0.0608,-0.19489 0.0888,-0.24261 z" style="color:#000000;display:inline;overflow:visible;visibility:visible;fill:#ffffff;stroke:none;stroke-width:15.7275238;stroke-miterlimit:4;stroke-dasharray:none;marker:none;enable-background:accumulate"/>
  <path id="path34717-1" d="m 282.09188,141.81689 c 0.13315,0.11342 0.32605,0.89746 0.31126,1.32133 -0.002,0.0471 0.005,0.46906 -0.26366,0.48988 -0.0831,0.12087 -0.24485,0.0754 -0.40792,0.0905 -0.30307,0.0281 -0.66521,0.009 -0.91962,-0.023 -0.0983,-0.0123 -0.26568,0.038 -0.26421,-0.0695 0,0 -0.0705,-0.0148 -0.0688,-0.0695 0.005,-0.17358 0.0848,-0.96149 0.11927,-1.11432 0.19156,-0.85009 0.87681,-1.15079 1.49369,-0.62533 z" style="color:#000000;display:inline;overflow:visible;visibility:visible;fill:#f2f2f2;stroke:#cccccc;stroke-width:0.25000003;stroke-linecap:butt;stroke-linejoin:miter;stroke-miterlimit:4;stroke-dasharray:none;stroke-dashoffset:0;stroke-opacity:1;marker:none;enable-background:accumulate"/>
  <path id="path34719-5" d="m 281.89223,143.47796 c 0.014,-0.0886 -0.0209,-0.37497 -0.0209,-0.44996 0,-0.075 -0.0838,0.075 -0.0978,0.1159 -0.014,0.0409 0.014,0.41587 0.014,0.41587 0,0 0.0698,-0.0614 0.10477,-0.0818 z" style="color:#000000;display:inline;overflow:visible;visibility:visible;fill:#ffffff;stroke:none;stroke-width:15.7275238;stroke-miterlimit:4;stroke-dasharray:none;marker:none;enable-background:accumulate"/>
  <path id="path34721-5" d="m 280.97021,142.89846 c 0.007,-0.0341 0.0698,-0.32724 0.0698,-0.32724 0,0 -0.0349,-0.0682 -0.014,-0.26588 -0.0279,0.13635 -0.0349,0.18407 -0.0699,0.23179 0.014,0.075 0.021,0.25907 0.014,0.36133 z" style="color:#000000;display:inline;overflow:visible;visibility:visible;fill:#ffffff;stroke:none;stroke-width:15.7275238;stroke-miterlimit:4;stroke-dasharray:none;marker:none;enable-background:accumulate"/>
  <path id="path34725-4" d="m 279.06706,141.60756 c -0.33642,0.27532 -0.39473,1.64094 -0.39473,1.81217 0,0.17123 0.35472,0.38919 0.96489,0.25685 0.33625,0.0143 0.87717,0.0285 0.86255,-0.22831 -0.01,-0.17332 -0.0146,-0.85615 -0.0731,-0.99884 -0.0585,-0.14269 -0.5142,-1.53376 -1.35961,-0.84187 z" style="color:#000000;display:inline;overflow:visible;visibility:visible;fill:#f2f2f2;stroke:#cccccc;stroke-width:0.25000003;stroke-linecap:butt;stroke-linejoin:miter;stroke-miterlimit:4;stroke-dasharray:none;stroke-dashoffset:0;stroke-opacity:1;marker:none;enable-background:accumulate"/>
  <path id="path34727-9" d="m 279.95635,142.29332 c 0.0627,0.18374 0.0627,0.30624 0.0732,0.58186 -0.0837,-0.27562 -0.16734,-0.32666 -0.0732,-0.58186 z" style="color:#000000;display:inline;overflow:visible;visibility:visible;fill:#ffffff;stroke:none;stroke-width:15.7275238;stroke-miterlimit:4;stroke-dasharray:none;marker:none;enable-background:accumulate"/>
  <path id="path34729-5" d="m 278.99413,142.45665 c 0,0.10208 0.0732,0.23478 0.12551,0.29603 -0.0105,0.1225 -0.0105,0.18375 0.0418,0.25521 -0.0418,0.0306 0,0.10208 0.0209,0.14291 0.0209,0.0408 0.0627,0.11229 0.10459,0.18375 -0.12551,-0.0919 -0.20918,-0.17354 -0.20918,-0.17354 0,0 -0.0209,-0.0408 0.0209,-0.0715 -0.0209,-0.0306 -0.0314,-0.0408 -0.0105,-0.0817 0.0105,-0.0408 -0.0105,-0.11229 -0.0314,-0.15312 -0.0209,-0.0408 0.0104,-0.0715 -0.0105,-0.11229 -0.0209,-0.0408 -0.0523,-0.1225 -0.0523,-0.15313 0,-0.0306 0.0209,-0.0714 0,-0.1327 z" style="color:#000000;display:inline;overflow:visible;visibility:visible;fill:#ffffff;stroke:none;stroke-width:15.7275238;stroke-miterlimit:4;stroke-dasharray:none;marker:none;enable-background:accumulate"/>
  <path id="path34731-8" d="m 279.58719,142.22352 c 0.014,0.3477 0.0698,1.19308 0.0838,1.28171 0.014,0.0886 -0.12573,0.0204 -0.13272,-0.0341 -0.007,-0.0545 -0.0768,-0.35451 -0.0559,-0.41587 0.021,-0.0614 0.0559,-0.20453 0.0349,-0.26589 -0.021,-0.0614 0.0489,-0.14998 0.0349,-0.19089 -0.014,-0.0409 -0.0419,-0.0614 -0.0279,-0.10908 0.014,-0.0477 0.0349,-0.16362 0.021,-0.19089 -0.014,-0.0273 0.0279,-0.0477 0.0419,-0.075 z" style="color:#000000;display:inline;overflow:visible;visibility:visible;fill:#ffffff;stroke:none;stroke-width:15.7275238;stroke-miterlimit:4;stroke-dasharray:none;marker:none;enable-background:accumulate"/>
  <path id="lowerlip" d="m 277.32398,146.41981 c 0.79608,0.4434 2.39819,-0.12375 3.66879,-0.12375 1.53571,0 2.486,0.8924 3.5275,0.31836 0.83481,-0.46012 2.8721,-0.66573 2.77662,-2.93406 -0.72458,1.43131 -0.89304,0.89387 -2.38702,1.4135 -1.53451,0.53372 -5.00484,1.11614 -7.22231,-0.0761 -1.88051,-1.01103 -2.55141,0.61214 -3.17674,-1.59708 -0.2496,2.37194 1.3033,2.0883 2.81316,2.99913 z" style="display:inline;fill:#e9afaf;stroke:none;enable-background:new"/>
  <path id="upperlip" d="m 284.44896,141.43172 c -1.20343,-0.28226 -2.70134,0.39123 -3.68853,0.39123 -1.00109,0 -2.57238,-0.83861 -4.04496,-0.20451 -1.14497,0.4934 -2.0181,1.71044 -2.13475,3.00018 -0.42066,-1.96514 0.49091,-3.07591 1.21311,-3.62997 1.53001,-1.17379 3.18093,-0.22988 5.00077,-0.22988 1.81984,0 3.31437,-1.07116 5.09209,0.35524 1.31935,1.05862 1.56477,1.99561 1.36382,3.32596 -0.0276,-1.73586 -1.59384,-2.72498 -2.80155,-3.00825 z" style="display:inline;fill:#de8787;stroke:none;enable-background:new"/>
</svg>
