<?xml version="1.0" encoding="UTF-8" standalone="no"?>
<svg xmlns="http://www.w3.org/2000/svg" width="560" height="560" id="mouth_neutral">
  <path id="lowerlip" d="m 274.22756,142.1582 c 1.32338,1.08595 1.9195,2.39911 6.06634,2.39911 4.14685,0 5.58512,-1.24956 6.64127,-2.3845 -5.18885,-0.88118 -11.35356,-1.01071 -12.70761,-0.0146 z" style="display:inline;fill:#e9afaf;stroke:none;enable-background:new"/>
  <path id="upperlip" d="m 284.34568,142.49511 c -1.70233,-0.38426 -3.02784,-0.004 -4.22118,-0.004 -1.00109,0 -1.94177,-0.54495 -3.76996,-0.13586 -1.14075,0.25526 -2.08111,0.13741 -2.92002,-0.48641 1.06139,0.0558 2.19941,-0.23114 2.92383,-0.46798 2.94355,-0.96236 2.11817,-0.2984 3.93801,-0.2984 1.81984,0 2.16039,-0.64398 4.27026,0.2182 1.00868,0.41219 2.48984,0.60445 3.37103,0.60927 -1.25752,0.55807 -2.52005,0.80714 -3.59197,0.56518 z" style="display:inline;fill:#de8787;stroke:none;enable-background:new"/>
</svg>
