<?xml version="1.0" encoding="UTF-8" standalone="no"?>
<svg xmlns="http://www.w3.org/2000/svg" id="mouth_spooked" width="560" height="560">
    <path id="path11682-7-3" d="m 541.37604,2557.4838 c 1.21967,-1.294 2.39054,-1.467 4.07525,-1.5708 1.62225,-0.1 2.82273,0.5128 3.93213,1.5062 -1.66011,1.2699 -2.00315,1.5744 -3.89579,1.2471 -4.00175,-0.6921 -2.90618,-0.9052 -4.11159,-1.1825 z" style="color:#000000;display:inline;overflow:visible;visibility:visible;fill:#800000;fill-opacity:1;fill-rule:evenodd;stroke:none;stroke-width:0.32081631;marker:none;enable-background:accumulate" transform="translate(-246.26492,-2413.7841) matrix(1.140352,0,0,1.140352,-94.983271,-359.52093)"/>
    <path class="lowerlip" d="m 541.22347,2557.4853 c 0.6347,0.038 1.16467,0.8926 1.62668,1.2572 1.26275,0.9964 3.45612,1.1613 5.22962,0.1963 0.6277,-0.3415 0.95735,-1.285 1.47941,-1.5748 -0.20315,-0.558 -1.72233,-0.265 -2.55026,0.2347 -1.39306,0.8408 -2.44869,0.4399 -2.96254,0.1317 -1.48588,-0.8914 -2.69006,-0.906 -3.0015,-0.3707 z" style="color:#000000;display:inline;overflow:visible;visibility:visible;fill:#e9afaf;fill-opacity:1;fill-rule:evenodd;stroke:none;stroke-width:0.32081631;marker:none;enable-background:accumulate" transform="translate(-246.26492,-2413.7841) matrix(1.140352,0,0,1.140352,-94.983271,-359.52093)"/>
    <path class="upperlip" d="m 540.67749,2557.3306 c 1.05487,0.3199 2.03304,-0.2807 2.67858,-0.762 0.62336,-0.4648 1.5182,0.1071 2.18519,0.1174 0.61437,0.01 1.24446,-0.4413 1.91507,-0.026 1.04298,0.6459 1.28477,1.2207 2.71882,0.6057 -0.69972,-0.2943 -1.23957,-1.2777 -2.57424,-1.9504 -0.53153,-0.2676 -1.33165,0.2458 -2.02604,0.2368 -0.69436,-0.01 -1.25089,-0.5878 -1.9552,-0.293 -1.79912,0.7531 -2.12162,2.0016 -2.94218,2.0715 z" style="color:#000000;display:inline;overflow:visible;visibility:visible;fill:#de8787;fill-opacity:1;fill-rule:evenodd;stroke:none;stroke-width:0.32081631;marker:none;enable-background:accumulate" transform="translate(-246.26492,-2413.7841) matrix(1.140352,0,0,1.140352,-94.983271,-359.52093)"/>
</svg>
