<svg xmlns="http://www.w3.org/2000/svg" id="mouth_disdain" width="560" height="560">
  <path class="lowerlip" d="M274.24 142.83c.88-.28 2.28.3 3.1.75.8.45 2.13.66 3.4.66 1.54 0 2.7-.05 3.74-.62.83-.46 1.75-1.25 2.33-1.1-3.02-2.6-10.4-1.8-12.55.3z" style="display:inline;fill:#e9afaf;stroke:none;enable-background:new"/>
  <path class="upperlip" d="M284.52 142.05c-1.2-.28-2.7.4-3.7.4s-2.56-.85-4.04-.2c-1.14.48-2.08.35-2.76.8.55-.72 1.74-1.7 2.6-2 2.2-.76 2.35-.3 4.17-.3 1.8 0 2.05-.72 4.12.23 1.1.5 1.84 1.3 2.23 1.97-.63-.5-1.43-.62-2.64-.9z" style="display:inline;fill:#de8787;stroke:none;enable-background:new"/>
</svg>
