<svg xmlns="http://www.w3.org/2000/svg" id="mouth_rage" width="560" height="560">
  <path id="path34572" d="m 280.84793,148.32735 c -1.23863,0.0138 -5.43617,-0.98544 -6.13257,-1.86275 0.16175,-1.76859 0.98259,-6.07462 2.29316,-5.99704 1.16133,0.0687 4.37362,0.0557 5.34095,-0.33965 1.0915,-0.44611 1.94336,0.23195 2.58895,0.72916 0.92109,0.7094 1.39116,2.13008 1.44132,2.82679 0.0275,0.38176 0.3305,1.80234 0.48285,2.49699 -1.06563,0.75677 -3.25514,2.11579 -6.01466,2.1465 z" style="color:#000000;display:inline;overflow:visible;visibility:visible;fill:#800000;fill-opacity:1;fill-rule:evenodd;stroke:none;stroke-width:0.12364834;marker:none;enable-background:accumulate"/>
  <path id="path34580" d="m 553.04338,152.4148 c -2.76853,0 -3.13749,-0.65629 -3.13749,-2.10776 0,-1.27848 1.25193,-2.3004 2.03721,-2.3004 0.99387,0 1.28515,0.91392 1.05074,1.19393 -0.33332,0.39815 -0.14052,0.83056 0.32763,0.79315 0.42611,-0.0341 0.47751,-0.42462 0.25647,-0.77911 -0.18329,-0.29395 0.45244,-1.17258 1.08145,-1.17258 0.57697,0 1.61669,0.39683 1.61669,1.89718 0,1.50035 -1.24772,2.54638 -3.2327,2.47559 z" transform="translate(-272.06 -6.51)" clip-path="url(#clipPath95552-0)" style="color:#000000;display:inline;overflow:visible;visibility:visible;fill:#000000;fill-opacity:1;fill-rule:evenodd;stroke:#000000;stroke-width:0.12364835;stroke-linecap:butt;stroke-linejoin:miter;stroke-miterlimit:4;stroke-dasharray:none;stroke-dashoffset:0;stroke-opacity:1;marker:none;enable-background:accumulate"/>
  <path id="path34584" d="m 553.3151,151.22607 c -1.04462,-0.12511 -4.16959,-2.03379 -5.11595,1.15149 -5e-4,0.0174 0.008,0.0366 0.008,0.0541 1.1015,1.06796 3.62514,2.40342 4.70637,2.40342 0.73278,0 3.69434,-1.15323 4.76819,-2.04793 -0.39048,-3.91751 -3.57459,-1.46622 -4.36661,-1.56108 z" transform="translate(-272.06 -6.51)" clip-path="url(#clipPath95544-5)" style="color:#000000;display:inline;overflow:visible;visibility:visible;fill:#a02c2c;fill-opacity:1;fill-rule:evenodd;stroke:#501616;stroke-width:0.12364834;stroke-linecap:butt;stroke-linejoin:miter;stroke-miterlimit:4;stroke-dasharray:none;stroke-dashoffset:0;stroke-opacity:1;marker:none;enable-background:accumulate"/>
  <path id="path34588" d="m 553.18183,151.69976 c -4.86249,-2.89306 -4.70757,2.55837 0,2.17986 4.73621,-0.38081 4.94263,-4.70434 0,-2.17986 z" transform="translate(-272.06 -6.51)" clip-path="url(#clipPath95536-0)" style="color:#000000;display:inline;overflow:visible;visibility:visible;fill:#b85757;fill-opacity:1;fill-rule:evenodd;stroke:none;stroke-width:0.5;marker:none;enable-background:accumulate"/>
  <path id="path34594" d="m 286.77201,146.29553 c -1.79731,2.52922 -10.77157,3.30442 -11.95388,0.13471 -0.003,-0.25213 0.006,-0.55339 0.0801,-0.83875 0.0583,1.22372 11.18225,1.01096 11.75355,-0.13906 0.0442,0.28227 0.12023,0.8431 0.12023,0.8431 z" style="color:#000000;display:inline;overflow:visible;visibility:visible;fill:#f2f2f2;stroke:#cccccc;stroke-width:0.25000003;stroke-linecap:butt;stroke-linejoin:miter;stroke-miterlimit:4;stroke-dasharray:none;stroke-dashoffset:0;stroke-opacity:1;marker:none;enable-background:accumulate"/>
  <path id="path34682" d="m 285.62635,141.65964 c -0.16828,-0.27748 -0.95725,-1.12978 -1.49634,-1.33994 -0.0979,-0.0381 -4.02165,0.15265 -3.35344,0.17123 0.14338,0.004 -2.92579,-0.34817 -3.0332,-0.30687 -0.77984,0.29988 -1.50804,0.89421 -1.7732,1.3499 2.56639,0.56556 6.59189,0.40567 9.65614,0.12568 z" style="color:#000000;display:inline;overflow:visible;visibility:visible;fill:#f2f2f2;stroke:#cccccc;stroke-width:0.25000003;stroke-linecap:butt;stroke-linejoin:miter;stroke-miterlimit:4;stroke-dasharray:none;stroke-dashoffset:0;stroke-opacity:1;marker:none;enable-background:accumulate"/>
  <path class="lowerlip" d="m 274.68936,146.39637 c 0.0865,0.42679 -0.0339,1.85271 1.26715,2.48626 1.01048,0.49205 3.18858,0.26488 5.00135,0.26488 2.2291,0 3.70234,0.47804 4.60521,-0.23269 0.77675,-0.61146 1.10877,-2.3849 1.3985,-2.82762 -0.52251,0.19702 -0.88692,0.0916 -1.40072,0.5683 -0.97092,0.90079 -2.85016,1.38309 -4.67971,1.38309 -1.83153,0 -3.91298,-0.17635 -4.83523,-1.12883 -0.57334,-0.59213 -1.01404,-0.76536 -1.35655,-0.51339 z" style="display:inline;fill:#e9afaf;stroke:none;enable-background:new"/>
  <path class="upperlip" d="m 280.56655,140.84375 c -1.00109,0 -2.92133,-0.90425 -4.2657,0.42003 -0.83203,0.8196 -1.47131,3.6214 -1.60878,5.27463 0.0106,-1.42072 0.43552,-4.71596 1.81278,-5.9733 1.42417,-1.30017 2.27496,-0.28464 4.0948,-0.28464 1.81984,0 3.13533,-1.12107 4.68864,0.5469 1.01681,1.09186 1.37173,3.50293 1.63645,5.58148 -0.66135,-2.45677 -1.27151,-5.09086 -2.57905,-5.64723 -1.22333,-0.52054 -2.62786,0.0705 -3.77914,0.0821 z" style="display:inline;fill:#de8787;stroke:none;enable-background:new"/>
</svg>
