<?xml version="1.0" encoding="UTF-8" standalone="no"?>
<!-- Created with Inkscape (http://www.inkscape.org/) -->

<svg
   xmlns:dc="http://purl.org/dc/elements/1.1/"
   xmlns:cc="http://creativecommons.org/ns#"
   xmlns:rdf="http://www.w3.org/1999/02/22-rdf-syntax-ns#"
   xmlns:svg="http://www.w3.org/2000/svg"
   xmlns="http://www.w3.org/2000/svg"
   xmlns:sodipodi="http://sodipodi.sourceforge.net/DTD/sodipodi-0.dtd"
   xmlns:inkscape="http://www.inkscape.org/namespaces/inkscape"
   version="1.1"
   width="560"
   height="560"
   id="eyes_neutral"
   inkscape:version="0.91pre2 r13516"
   sodipodi:docname="mouth_sterness.svg">
  <sodipodi:namedview
     pagecolor="#ffffff"
     bordercolor="#666666"
     borderopacity="1"
     objecttolerance="10"
     gridtolerance="10"
     guidetolerance="10"
     inkscape:pageopacity="0"
     inkscape:pageshadow="2"
     inkscape:window-width="640"
     inkscape:window-height="480"
     id="namedview48578"
     showgrid="false"
     inkscape:zoom="20.824314"
     inkscape:cx="280.66085"
     inkscape:cy="417.19842"
     inkscape:window-x="0"
     inkscape:window-y="24"
     inkscape:window-maximized="0"
     inkscape:current-layer="eyes_neutral" />
  <metadata
     id="metadata33021">
    <rdf:RDF>
      <cc:Work
         rdf:about="">
        <dc:format>image/svg+xml</dc:format>
        <dc:type
           rdf:resource="http://purl.org/dc/dcmitype/StillImage" />
        <dc:title></dc:title>
      </cc:Work>
    </rdf:RDF>
  </metadata>
  <defs
     id="defs33019">
    <clipPath
       id="clipPath17580">
      <path
         d="m 537.94192,127.97425 c -0.24161,0.59472 -1.61691,2.45324 -5.53838,0.8735 -0.59472,0.0558 -1.56115,0.14868 -1.59832,0.1301 -0.0372,-0.0186 -0.0929,-0.1301 -0.0186,-0.18585 0.0743,-0.0558 0.39028,-0.39029 0.92925,-0.52039 0.53897,-0.13009 1.85852,-1.747 3.10372,-1.747 1.2452,0 2.84353,0.96643 3.12231,1.44964 z"
         id="path17582"
         style="color:#000000;fill:none;stroke:#008080;stroke-width:0.02662179;stroke-linecap:butt;stroke-linejoin:miter;stroke-miterlimit:4;stroke-opacity:1;stroke-dasharray:none;stroke-dashoffset:0;marker:none;visibility:visible;display:inline;overflow:visible;enable-background:accumulate" />
    </clipPath>
    <clipPath
       id="clipPath17632">
      <path
         d="m 515.63686,127.97425 c 0.24161,0.59472 1.61691,2.45324 5.53838,0.8735 0.59472,0.0558 1.56115,0.14868 1.59832,0.1301 0.0372,-0.0186 0.0929,-0.1301 0.0186,-0.18585 -0.0743,-0.0558 -0.39028,-0.39029 -0.92925,-0.52039 -0.53897,-0.13009 -1.85852,-1.747 -3.10372,-1.747 -1.24521,0 -2.84353,0.96643 -3.12231,1.44964 z"
         id="path17634"
         style="color:#000000;fill:#e6e6e6;stroke:#de8787;stroke-width:0.02662179;stroke-linecap:butt;stroke-linejoin:miter;stroke-miterlimit:4;stroke-opacity:1;stroke-dasharray:none;stroke-dashoffset:0;marker:none;visibility:visible;display:inline;overflow:visible;enable-background:accumulate" />
    </clipPath>
  </defs>
  <path
     sodipodi:nodetypes="cscc"
     inkscape:connector-curvature="0"
     id="path24524-4-7"
     d="m 273.49386,142.75971 c 2.40657,-0.60608 1.1729,1.84191 6.80004,1.7976 5.87111,-0.0462 5.35738,-2.17015 7.48903,-1.62231 -4.39157,-1.93313 -12.93502,-1.17139 -14.28907,-0.17529 z"
     style="display:inline;fill:#e9afaf;stroke:none;enable-background:new" />
  <path
     sodipodi:nodetypes="ssscssscs"
     inkscape:connector-curvature="0"
     id="path24526-67-4"
     d="m 284.49134,142.27662 c -1.54754,-0.1179 -2.91571,0.30049 -4.10905,0.30049 -1.00109,0 -2.74842,-0.36686 -4.13796,-0.18249 -1.07775,0.143 -2.03063,0.15239 -2.88264,0.49391 0.56276,-0.66867 1.394,-0.98208 3.00976,-1.54 1.36616,-0.47174 2.191,0.18713 4.01084,0.18713 1.81984,0 2.29828,-0.91705 4.22171,-0.24305 1.7986,0.63025 2.59847,0.97689 3.35601,1.7801 -1.26482,-0.44356 -2.41787,-0.71603 -3.46867,-0.79609 z"
     style="display:inline;fill:#de8787;stroke:none;enable-background:new" />
</svg>
