<?xml version="1.0" encoding="UTF-8" standalone="no"?>
<svg xmlns="http://www.w3.org/2000/svg" id="nose" width="560" height="560">
  <g id="layer1">
    <path id="path24536" d="M277.4 133.5c-.8.8-1.4 2.5-1 3.6.8 1.3 2 .6 2 0-.3.3-1 .4-1 0s.2-.6 1-.6c.6 0 1 .3 1 .7.2.5.4 1.4 1 1.4 1 0 1-.8 1.2-1.2.2-.6.5-1 1-1 .3 0 1 .2 1 .6 0 .5-.6.5-1 .5.6 1 2 .3 2-.5.2-1 .3-1.7-.6-3" style="fill:none;stroke:#de8787;stroke-width:0.25;stroke-linecap:round;stroke-linejoin:miter;stroke-miterlimit:4;stroke-opacity:1;stroke-dasharray:none;display:inline;enable-background:new"/>
    <path id="path24538" d="M278.3 137c-.3 1.2-1.4.7-1.5 0 0-.6.4-1.2 1-1.2.3 0 .8.2 1.3-.4.6-.6 1.2.6 1 1 0 .4 0 1 .6 1.3.2.2 1 .3 1-.6 0-1 .4-.7 1.2-.7.8 0 1.4 1 0 1 .5.8 2.3.7 2-1.6 1.4.7.2 2-.4 2.3 1.6 1 1.5 1.7.7 1.6-.7-.2-2.2-.7-3.7-.5-1.5.3-2.6-.3-2.7-.8 0-.5.3-.6.6-1 .3-.3-.7-1-1-.2z" style="fill:#e9afaf;stroke:none;display:inline;enable-background:new"/>
    <path id="path95678" d="M282 132.8c.8 2.7-3 2.6-2.3.2 1-2.5.6-2.4.3-3.2-.2-.7 0-2 1-2 .8 0 1.2 1.5.7 2.2-.6.7 0 1.8.2 2.8z" style="color:#000000;fill:#ffffff;stroke:none;stroke-width:0.5;marker:none;visibility:visible;display:inline;overflow:visible;enable-background:accumulate"/>
  </g>
</svg>
