<?xml version="1.0" encoding="UTF-8" standalone="no"?>
<svg xmlns="http://www.w3.org/2000/svg" id="nose_syrid"  width="560" height="560">
  <path id="nose_syrid1" fill="#ffd5d5" d="M282.724 125.136c-.58 1.163-.084 3.015-.11 4.317-.023 1.25-.12 2.003.023 3.417 2.68.604 1.994 4.26-.08 3.558-.223.806-.915 1.23-1.327 1.222-.412-.007-.84-.224-1.323.01-.59.234-3.627-1.796-2.974-3.63 1.273-1.825 4.468-9.523 5.79-8.894z" color="#000" overflow="visible"/>
  <path id="nose_syrid2" fill="#e9afaf" d="M276.895 134.074c-.536.694-.528 2.36.288 3.115.46.42 2.627.86 2.685 1.54.1 1.15 1.69 1.13 1.673.05-.01-1.29 1.65-1.38 1.97-1.46.26-.07 1.1-1.11.87-2.7.01 1.24-1.12-.55-1.83 1.55-.35.5-1.26.45-1.66.15-.39.26-1.24.31-1.76-.47-.51-.79-.74-.87-1.14-.73-.49.17-1.06.15-1.08-1.07z"/>
  <path id="nose_syrid3"  fill="#de8787" d="M279.374 136.702c-.338-.577-.537-.993-.743-1.178-.04-.04-.09-.073-.14-.1-.1-.026-.21-.023-.31-.002-.15.032-.32.11-.52.205-.11.057-.22.054-.33-.007-.02-.02-.05-.044-.07-.07-.11-.13-.2-.33-.24-.557 0-.01-.01-.02-.01-.03-.16-.445-.13-1.088.42-1.45-.62.266-.84.922-.77 1.53 0 .013 0 .026.01.04.09.27.24.508.43.656.04.03.08.05.128.08.16.11.363.15.576.07.21-.08.35-.12.458-.13.07 0 .11.01.15.03.027 0 .055 0 .088.01.21.05.466.34.92.89zm.39.495c.266.503.792.666 1.412.582.347-.04.937-.21 1.345-.72.11-.17.2-.36.26-.58.23-.87.15-1.47.09-2.67-.01-.34-.04-.66-.07-.97-.08-.88-.17-1.62-.09-2.28.05-.47.07-1.02.05-1.59-.03-.61-.093-1.24-.2-1.81-.1-.48-.202-1.03.07-1.76-.33.71-.28 1.28-.23 1.78.08.57.12 1.2.12 1.79.01.56-.023 1.1-.09 1.55-.1.7-.026 1.48.03 2.34.017.3.03.62.038.95.02 1.24.04 1.75-.2 2.51-.05.16-.12.29-.203.397-.24.405-.65.616-.96.73-.496.16-1 .152-1.347-.277z" color="#000" overflow="visible"/>
  <path id="nose_syrid4"  fill="#de8787" d="M282.483 136.7l.1-.038c.38-.527.556-.823.665-.923.062-.06.047-.02.042-.02-.028-.04.11.1.16.15.068.07.15.12.238.15.132.03.253-.01.352-.07.155-.11.263-.3.322-.52 0-.02.01-.03.01-.04.127-.49.055-1.19-.403-1.86.41.7.42 1.38.26 1.81 0 .01-.01.02-.02.03-.09.19-.2.31-.3.35-.06.02-.11.01-.15-.01-.04-.01-.08-.03-.13-.07-.1-.08-.19-.15-.28-.18-.13-.038-.21.03-.27.11-.1.13-.27.47-.62.99v.105z" color="#000" overflow="visible"/>
</svg>
