<?xml version="1.0" encoding="UTF-8" standalone="no"?>
<svg xmlns="http://www.w3.org/2000/svg" id="pants_suit" width="560" height="560">
  <path id="path47858" d="M319 264.6c-12 9.4-47.4 14.2-74 8.3.6 7-1.7 13 1.2 18 0 3.3.3 6.4.7 9.3-.4 3.2-1 6.5-2 9.7-2.7 9.7-5.5 47.6-3.5 69.4 1 9.3.7 19-2.2 25-2 4-.4 17.3-1 22.2-.5 3.2-1.5 13.3-2 17.8 1.5 11.6 2.2 23 3.5 32 0 0-1 9-1.8 12.2 0 6.3 2.4 10.8 2.4 13 1.5 5.2 17.7 7 24 4.7 0-2 3.5-9.3 5.7-14.3-.6-3.5-4.7-9.3-4-13.8 1.2-8 3.5-39.3 3-47.5-.7-7.3 0-16 1-21 1.6-7.4 4.6-22.4 7-32.7 5.3-24.3 9-37 11.8-55.2.4 14.2.2 27.6 2.5 39.6 3 15.7-.3 16 2.3 24.2 2.5 8.3-1 11.4 2.6 24.8 1.5 5.4 1.3 15.6-.2 20-1.4 4-1.3 21-.6 24 1 3.7.8 12.6.8 15.6 0 4-3.7 15.2-3.8 16.5-.3 3.8 3.4 12 3.5 17.2.6 7 20.3 5.5 24.7 0 0-2.8-.6-7.8-1-13.6 1.6-3.6 2.3-10 4.6-13.5l-1.5-6.7c0-3.3 1.5-10 2.3-14.6 2.6-14.6 3.5-28.2 1.2-38.7-2.2-10.6 2.2-28.2 1.6-47.4-.3-10.3.5-24.5.5-43.6 0-9.6-.7-18.5-2.2-26.8.3-2.5.2-5-.4-7.4-.8-2-1.6-6.2-1.4-8 .4-3-1-5.6-1.6-6.6-3-4.4-2.7-11-3.7-12z" style="fill:#808080;stroke:#4d4d4d;stroke-width:1;stroke-linecap:butt;stroke-linejoin:miter;stroke-miterlimit:4;stroke-opacity:1;stroke-dasharray:none;display:inline"/>
  <path id="path47880" d="M240.2 425.5c.4-10.5-2.2-17.5 1.7-20.2 4-2.6 14.7 3.7 18.2 8-2-2-5-3.8-8.7-4-3.3-.3-1.8 5.3-5.2 4.8-1.7-.2-4.5 1-4.8 4-.4 3.5-1.3 1.8-1.3 7.5z" style="fill:#666666;stroke:none;display:inline"/>
  <path id="path47906" d="M298.6 423.7c1.6-13.7-3.8-15.8-2.5-25.6 2.5 1.4 7.3 5 12.8 4.7 4.5-.3 8.5 4 11 8.4-5.8-2.7-9.3.3-11.4 2.2-3.3 3-7.5 1.3-9.8 10.5z" style="fill:#666666;stroke:none;display:inline"/>
  <path id="path4479-9-1" d="M248 483c1 8.3 13 15.2 18.4 8-5.6-6.2-12.3-4.5-18.4-8z" style="color:#000000;fill:#666666;stroke:none;stroke-width:0.26044887;marker:none;visibility:visible;display:inline;overflow:visible;enable-background:accumulate"/>
  <path id="path4512-4-5" d="M316 477.8c-7-1.3-18.6 2.4-20.3 5.5 3 5 14-1.3 20.2-5.5z" style="color:#000000;fill:#666666;stroke:none;stroke-width:0.26044887;marker:none;visibility:visible;display:inline;overflow:visible;enable-background:accumulate"/>
  <path id="path16050" d="M245.8 307.4l-.7 2.6c-2.7 9.7-5.5 47.6-3.5 69.4 1 9.3.7 19-2.2 25-2 4-.4 17.3-1 22.2-.5 3.2-1.5 13.3-2 17.8 1.5 11.6 2.2 23 3.5 32 0 0-1 9-1.8 12.2 0 6.3 2.4 10.8 2.4 13 1.2 4.3 12.6 6.3 20 5.5-6.5-2-16-9.2-20.3-15.2 4.3 2 6.4 0 8.4 0-3.4-5-5.5-12.5-7.6-18.8 8.4 7.7 15.3 10.4 19.4 11-14-14.2-19-21.6-19.4-36 5.8 5 13 9.6 19.4 14-10.7-8.7-16.2-15.8-18.7-20.3 7.2 1 14.4-1.8 19.4-5.5-5.8 3-14.3 2.7-17.4 0 6.7-5.6 15.7-14.6 19.4-19.4-3 2-16 12-21.3 13.7-2-11-6-19.7-.7-27.4 8.4-12.5 18.3-31.6 22.6-46.3-4.4 14.6-14.4 25-19 27.2.7-26.7-1.5-44.7 10-60 0 0-8 9-11 14.2-.2-3.5 1-18 2.2-30.8z" style="fill:#666666;fill-opacity:1;stroke:none"/>
  <path id="path16048" d="M318.4 274.6c-3 0-6.6 1-8.7 2 .4 1 .8 8 1.3 9.5 4.3 13.3 14.2 33.3 13.2 52.2-5.3-6.4-12-11-16.7-15.3 5.8 8.6 11.4 25.6 15.8 40.2-2-5.6-7.4-15.2-11-18 5.6 8.3 11.2 25.7 10.5 34.7-3.5-6.3-15.8-21.6-23-26.5 9 9.7 23 33.4 22.3 39.6-2-1.3-7.7-2.3-14.5-3.3 5 3 14 11.5 16 23.6.6 4-5.2 20.5-15.3 25.7 5-1.4 14-4.2 16.7-7-4.3 9.8-6.2 18.7-12.3 26 3.6-1.5 7.7-7.2 9.4-9.8-1.4 4.3-3 16.8-8.8 24 4 1 7.8-.6 9.3-.4-4.2 5.6-9.4 15-22.6 18 4.7.6 7.5 0 15.8 1.3 0 0-10.4.8-13.2 1.5-2.8.7-2 4.8-2 4.8s2 5.6 12.5 6.3c-2.6 2-10.3 3.3-17 .4 1.3 6.7 20.4 5 24.7-.3.2-2.8-.6-7.8-1-13.6 1.6-3.6 2.3-10 4.6-13.4-.4-1.5-1-4.8-1.6-6.8 0-3.3 1.6-10 2.4-14.6 2.6-14.6 3.5-28 1.3-38.7-2.3-10.6 2-28.2 1.5-47.4-.3-10.3.5-24.5.5-43.6 0-9.6-.7-18.5-2.2-26.8.3-2.5.2-5-.4-7.4-.8-2-1.6-6.2-1.4-8 .4-3-1-5.6-1.6-6.6l-1-1.6c-1-.3-2-.4-3.2-.4z" style="fill:#666666;fill-opacity:1;stroke:none;display:inline"/>
  <path id="path311186" d="M270 311c10.6 3.5 15.5 7.4 16 9.2.8 1.8-1.6 4.7-7.4 5.6 3 .2 7-1 8.6-1.4-1 7-9 30-21.7 48.6 5-7 13.5-21.3 15.5-22.2 1.8-.7-3.2 16-6.4 37.2l2.3-11c5.3-24.3 9-37 11.8-55.2.2 8 .3 15.6.6 23 1.5-10.6 5.3-19.8 3.2-21.2-2.3-1.6-2.2-3.6-.5-3.2 2 .5 9.2 5.8 12 8.5-11-10.8-12.5-11.4-34-18z" style="color:#000000;fill:#666666;fill-opacity:1;stroke:none;stroke-width:0.5;marker:none;visibility:visible;display:inline;overflow:visible;enable-background:accumulate"/>
  <path id="path311188" d="M276.4 310.2c8.4 3 14 7.6 26.8 6.5-9-1.8-20-4.7-26.8-6.5z" style="color:#000000;fill:#666666;fill-opacity:1;stroke:none;stroke-width:0.5;marker:none;visibility:visible;display:inline;overflow:visible;enable-background:accumulate"/>
  <path id="path47860" d="M285.8 277.5a1.7 1.7 0 0 1-3.4 0 1.7 1.7 0 1 1 3.4 0z" style="fill:#b7c4c8;fill-opacity:1;stroke:#dbe2e3;stroke-width:0.42378223;stroke-linecap:round;stroke-linejoin:round;stroke-miterlimit:4;stroke-dasharray:none;display:inline"/>
  <path id="path47864" d="M309.4 277c2.2 3.4 2.2 10 4 11.6 1.7 1.4 8.7 1 11.3 3.2" style="fill:none;stroke:#4d4d4d;stroke-width:0.5;stroke-linecap:butt;stroke-linejoin:miter;stroke-miterlimit:4;stroke-opacity:1;stroke-dasharray:none;display:inline"/>
  <path id="path47862" d="M261.6 281.6c.4 3 1.3 13-.4 15-1.8 1.6-10.5 3.4-14.5 3.4" style="fill:none;stroke:#4d4d4d;stroke-width:0.5;stroke-linecap:butt;stroke-linejoin:miter;stroke-miterlimit:4;stroke-opacity:1;stroke-dasharray:none;display:inline;enable-background:new"/>
  <path id="path47866" d="M244.8 276.2c6.4 3.4 27 4 33 3.3l14.5-1.4c6.5-1 23.2-7 27.6-10l1.3 5c-1.2 2.5-22.4 10.7-28.6 11l-14.6 1.4c-9.6.2-25.5 0-33.5-3.3z" style="fill:#aa4400;fill-opacity:1;stroke:#552200;stroke-width:0.5;stroke-miterlimit:4;stroke-dasharray:none;display:inline"/>
  <path id="path73219" d="M280.8 275.3c.4 5.7 2.2 11.2 1.8 14.6-.2 1.7-.4 7.4.6 11.5.7 3 0 7.4 0 8 .3 1 3 2 5 2.7" style="color:#000000;fill:none;stroke:#4d4d4d;stroke-width:0.5;stroke-linecap:butt;stroke-linejoin:miter;stroke-miterlimit:4;stroke-opacity:1;stroke-dasharray:none;stroke-dashoffset:0;marker:none;visibility:visible;display:inline;overflow:visible;enable-background:accumulate"/>
  <path id="path73221" d="M289 323c1-2.2 1.5-3.3 0-4.4-1.7-1.2-2.4-2.8-1-3.4 1.3-.7-.5-1.4.2-3.2.7-1.8.7-9 0-11.3-.7-2.2-1-7.8-.4-10.3.7-2.5-.2-11.4-1-15.7" style="color:#000000;fill:none;stroke:#4d4d4d;stroke-width:0.5;stroke-linecap:butt;stroke-linejoin:miter;stroke-miterlimit:4;stroke-opacity:1;stroke-dasharray:none;stroke-dashoffset:0;marker:none;visibility:visible;display:inline;overflow:visible;enable-background:accumulate"/>
  <path id="rect47874" d="M279.4 279.3l11-1 .8 6.8-11.2 1.2z" style="fill:#aa4400;fill-opacity:1;stroke:#dbe2e3;stroke-width:1.1887747;stroke-linecap:round;stroke-linejoin:round;stroke-miterlimit:4;stroke-dasharray:none"/>
  <path id="path47876" d="M279.8 282.8l4.4-.6" style="fill:#1a1a1a;stroke:#dbe2e3;stroke-width:0.68145561px;stroke-linecap:round;stroke-linejoin:round;stroke-opacity:1"/>
  <path id="path47890" d="M302.5 272.5c1.5 1.5 2 6.4 2.5 10.3 2.8-.2 2-.2 3-1-.5-4-.5-8.3-2.4-10l-3 .7z" style="fill:#808080;fill-opacity:1;stroke:#666666;stroke-width:0.25;stroke-miterlimit:4;stroke-opacity:1;stroke-dasharray:none;display:inline"/>
  <path id="path47896" d="M313.7 269.2c1.5 1.4 2 5.5 3 9.4.8-.5 1.6-.8 2.6-1.5-1-4-1.3-7.4-3.3-9-1 .4-2.3 1.2-2.3 1.2z" style="fill:#808080;fill-opacity:1;stroke:#666666;stroke-width:0.25;stroke-miterlimit:4;stroke-opacity:1;stroke-dasharray:none;display:inline"/>
  <path id="path47884" d="M268.4 276.7c-1 .8-.5 6.5 0 10.4 0 0-2.3 0-3-.2-.5-4-.7-9 0-10.2.6.2 3 0 3 0z" style="fill:#808080;fill-opacity:1;stroke:#666666;stroke-width:0.25;stroke-miterlimit:4;stroke-opacity:1;stroke-dasharray:none;display:inline"/>
  <path id="path47902" d="M252.2 275.8c-1 1.7-.5 6.5 0 10.4-1 0-2-.5-3-.7-.5-4-1.2-8 .3-10 1 0 2.7.3 2.7.3z" style="fill:#808080;fill-opacity:1;stroke:#666666;stroke-width:0.25;stroke-miterlimit:4;stroke-opacity:1;stroke-dasharray:none;display:inline"/>
  <path id="path310860" d="M270 280.5h6.7c1-.2 1.4 4.7.6 4.6h-5c-1.2 0-.3-4.4-2.3-4.5z" style="color:#000000;fill:#d45500;stroke:none;stroke-width:0.5;marker:none;visibility:visible;display:inline;overflow:visible;enable-background:accumulate"/>
  <path id="path310862" d="M286.3 279.6c-.8.2-2 1.7-1.6 1.8.4.2.7 1 .2 1.5-.6.4-.3 1.8 1.2 1.6 1.5-.3 2.8-.4 3.5-.4.7 0 0-1-.6-1.3-.4-.3-1-1.8-.5-2.2.6-.4.7-1.6 0-1.5-1 0-1.5.2-2.2.3z" style="color:#000000;fill:#d45500;fill-opacity:1;stroke:none;stroke-width:0.5;marker:none;visibility:visible;display:inline;overflow:visible;enable-background:accumulate"/>
  <path id="path310864" d="M296.4 278c-3 .7-3 5.6 0 5 3.2-.6 5.7-1.5 6.5-1.8-1.4 0-1.7-4.6-3.6-4-2 .3-2.2.4-3 .7z" style="color:#000000;fill:#d45500;fill-opacity:1;stroke:none;stroke-width:0.5;marker:none;visibility:visible;display:inline;overflow:visible;enable-background:accumulate"/>
</svg>
