<?xml version="1.0" encoding="UTF-8" standalone="no"?>
<svg xmlns="http://www.w3.org/2000/svg" id="pupils_human_outrage" width="560" height="560">
  <path id="circle64278" d="M 272.74805 126.43164 A 0.6136024 0.6136024 0 0 0 272.13281 127.04688 A 0.6136024 0.6136024 0 0 0 272.35742 127.52148 C 272.62887 127.53157 272.8356 127.53675 273.10352 127.54492 A 0.6136024 0.6136024 0 0 0 273.36133 127.04688 A 0.6136024 0.6136024 0 0 0 272.74805 126.43164 z" style="fill:#000000;stroke:none"/>
  <path id="circle64288" d="M 288.35742 126.2207 A 0.6136024 0.6136024 0 0 0 287.74414 126.83594 A 0.6136024 0.6136024 0 0 0 288.00781 127.33984 C 288.25705 127.32901 288.50749 127.31569 288.75 127.30469 A 0.6136024 0.6136024 0 0 0 288.9707 126.83594 A 0.6136024 0.6136024 0 0 0 288.35742 126.2207 z" style="fill:#000000;stroke:none"/>
</svg>
