<?xml version="1.0" encoding="UTF-8" standalone="no"?>
<svg xmlns="http://www.w3.org/2000/svg" id="pupils_human_melancholy" width="560" height="560">
  <path id="path46625-3-45" d="M 273.04102 126.50781 C 272.81684 126.52047 272.58032 126.5515 272.33984 126.58594 A 0.6136024 0.6136024 0 0 0 272.13281 127.04688 A 0.6136024 0.6136024 0 0 0 272.74805 127.66016 A 0.6136024 0.6136024 0 0 0 273.36133 127.04688 A 0.6136024 0.6136024 0 0 0 273.04102 126.50781 z" style="fill:#000000;stroke:none"/>
  <path id="path46635-8-95" d="M 288.55859 126.32031 C 288.36713 126.31273 288.18896 126.326 288.00586 126.33203 A 0.6136024 0.6136024 0 0 0 287.74414 126.83594 A 0.6136024 0.6136024 0 0 0 288.35742 127.44922 A 0.6136024 0.6136024 0 0 0 288.9707 126.83594 A 0.6136024 0.6136024 0 0 0 288.71484 126.33594 C 288.66334 126.33293 288.60965 126.32233 288.55859 126.32031 z" style="fill:#000000;stroke:none"/>
</svg>
