<?xml version="1.0" encoding="UTF-8" standalone="no"?>
<svg xmlns="http://www.w3.org/2000/svg" id="pupils_lizard" width="560" height="560">
  <g id="g33481" style="display:inline;enable-background:new">
    <path id="path24514-8-7" d="M273 126.8c0 .3-.3 1.3-.6 1.3s-.5-1-.5-1.2c0-.3 0-1.2.4-1.2.3 0 .5 1 .5 1.2z" style="fill:#000000;stroke:none"/>
    <path id="path24520-9-3" d="M289.2 126.7c0 .3-.3 1.4-.5 1.4-.3 0-.5-1-.5-1.3 0-.2.2-1 .5-1 .2 0 .5.8.5 1z" style="fill:#000000;stroke:none"/>
    <path id="path17167-4-3" d="M289.7 126.7v-.3s-.3 0-.3.2v.2h.3z" style="color:#000000;fill:#ffffff;stroke:none;stroke-width:0.5;marker:none;visibility:visible;display:inline;overflow:visible;enable-background:accumulate"/>
    <path id="path17169-7-6" d="M288 126.8h-.2z" style="color:#000000;fill:#ffffff;stroke:none;stroke-width:0.5;marker:none;visibility:visible;display:inline;overflow:visible;enable-background:accumulate"/>
    <path id="path17167-4-9-9" d="M273.4 126.7v-.3s-.3 0-.3.2l.2.2h.2z" style="color:#000000;fill:#ffffff;stroke:none;stroke-width:0.5;marker:none;visibility:visible;display:inline;overflow:visible;enable-background:accumulate"/>
    <path id="path17169-7-7-3" d="M271.5 126.8z" style="color:#000000;fill:#ffffff;stroke:none;stroke-width:0.5;marker:none;visibility:visible;display:inline;overflow:visible;enable-background:accumulate"/>
  </g>
</svg>
