<?xml version="1.0" encoding="UTF-8" standalone="no"?>
<svg xmlns="http://www.w3.org/2000/svg" id="pupils_human_rage" width="560" height="560">
  <defs id="defs33019">
    <clipPath id="clipPath17580">
      <path id="path17582" fill="none" stroke="teal" stroke-width=".027" d="M537.942 127.974c-.242.595-1.617 2.453-5.538.874-.595.056-1.562.148-1.6.13-.036-.02-.092-.13-.017-.186.074-.056.39-.39.93-.52.538-.13 1.857-1.747 3.103-1.747 1.245 0 2.843.966 3.122 1.45z"  />
    </clipPath>
    <clipPath id="clipPath17632">
      <path id="path17634" fill="#e6e6e6" stroke="#de8787" stroke-width=".027" d="M515.637 127.974c.24.595 1.617 2.453 5.538.874.595.056 1.56.148 1.6.13.036-.02.09-.13.017-.186-.074-.056-.39-.39-.93-.52-.538-.13-1.858-1.747-3.103-1.747-1.247 0-2.845.966-3.124 1.45z"  />
    </clipPath>
  </defs>
  <path id="path46625-3-7" d="M272.52 126.477a.614.614 0 0 0-.387.57.614.614 0 0 0 .615.613.614.614 0 0 0 .613-.613.614.614 0 0 0-.242-.49c-.197-.034-.396-.06-.596-.08z"/>
  <path id="path46635-8-58" d="M288.715 126.336c-.288.027-.563.078-.846.13a.614.614 0 0 0-.127.37.614.614 0 0 0 .613.613.614.614 0 0 0 .614-.615.614.614 0 0 0-.255-.5z"/>
</svg>
