<?xml version="1.0" encoding="UTF-8" standalone="no"?>
<svg xmlns="http://www.w3.org/2000/svg" id="shirt_tanktop" width="560" height="560">
  <g id="layer1">
    <g id="g292670" clip-path="url(#clipPath292691)" transform="translate(0 -492.362)">
      <g id="g53775" style="display:inline;enable-background:new">
        <g id="g31274">
          <path id="path29527" d="M319.2 764c-7.4 13-69 12.5-73.2 7.2-1-16.3 2-32.6.4-36.3-1.8-3.7-8.3-16.3-9-23.7 13.6 3 26.4-34.8 11.4-47 3-1.4 6-3 7.8-4.4 2.6 4.8 10.5 16.5 23.3 16.5 20.4 0 28.3-11 23-19.5 1.7 1 5 5 10.4 7.7-6.2 10.4-.8 48 6.8 46.2-2.8 12.5-6 22.6-5 34.6 1.2 12 3.7 15 4 18.3z" style="fill:#f2f2f2;stroke:#cccccc;stroke-width:1px;stroke-linecap:butt;stroke-linejoin:miter;stroke-opacity:1;display:inline"/>
        </g>
        <path id="path25822" d="M262 729.5c11.6-9.4 26.6-15 42.4-4.4-18.6-7.2-28.5-3.2-42.3 4.5z" style="color:#000000;fill:#e6e6e6;fill-opacity:1;stroke:none;stroke-width:0.5;marker:none;visibility:visible;display:inline;overflow:visible;enable-background:accumulate"/>
        <path id="path25824" d="M270.7 732.3c8.6-3.6 28.7-5 38 2.2-16.5-4.8-30.8-3.4-38-2.2z" style="color:#000000;fill:#e6e6e6;fill-opacity:1;stroke:none;stroke-width:0.5;marker:none;visibility:visible;display:inline;overflow:visible;enable-background:accumulate"/>
        <path id="path25826" d="M258.5 743.8c8.6-7.2 25-10.8 41.6-6.5-15-2-32 1-41.5 6.5z" style="color:#000000;fill:#e6e6e6;fill-opacity:1;stroke:none;stroke-width:0.5;marker:none;visibility:visible;display:inline;overflow:visible;enable-background:accumulate"/>
        <path id="path53656" d="M241 713c11.6-1.3 16.6-18 17.6-21 .3 11.3-9 22-17.7 21z" style="color:#000000;fill:#e6e6e6;fill-opacity:1;stroke:none;stroke-width:0.5;marker:none;visibility:visible;display:inline;overflow:visible;enable-background:accumulate"/>
        <path id="path53658" d="M240.5 715c9-.3 16-3.6 18.8-5-5 6.7-11.7 6.7-18.8 5z" style="color:#000000;fill:#e6e6e6;fill-opacity:1;stroke:none;stroke-width:0.5;marker:none;visibility:visible;display:inline;overflow:visible;enable-background:accumulate"/>
        <path id="path53660" d="M320.6 713c-5-1.3-9.7-9.7-12-20 .6 7.6 2 17.3 12 20z" style="color:#000000;fill:#e6e6e6;fill-opacity:1;stroke:none;stroke-width:0.5;marker:none;visibility:visible;display:inline;overflow:visible;enable-background:accumulate"/>
        <path id="path53771" d="M319.6 763.4c-7.4 2.3-15.2-4-20-7.3 6.8 3 13.8 6.5 20 7.4z" style="color:#000000;fill:#e6e6e6;fill-opacity:1;stroke:none;stroke-width:0.5;marker:none;visibility:visible;display:inline;overflow:visible;enable-background:accumulate"/>
        <path id="path53773" d="M238.8 720.2c4.5 9.3 9.2 15 14.3 16.5-5-3.6-11-11.4-14.2-16.5z" style="color:#000000;fill:#e6e6e6;fill-opacity:1;stroke:none;stroke-width:0.5;marker:none;visibility:visible;display:inline;overflow:visible;enable-background:accumulate"/>
      </g>
      <path id="path54115" d="M314 724.8c4-1.8 6.6-9.6 6.4-11.2-3 5.5-4.5 9-6.3 11.2z" style="color:#000000;fill:#e6e6e6;fill-opacity:1;stroke:none;stroke-width:0.5;marker:none;visibility:visible;display:inline;overflow:visible;enable-background:accumulate"/>
      <path id="path54117" d="M264 768.4c18.2-3.6 28-5 46.7-2.3-8-3.3-28.7-5.7-46.7 2.4z" style="color:#000000;fill:#e6e6e6;fill-opacity:1;stroke:none;stroke-width:0.5;marker:none;visibility:visible;display:inline;overflow:visible;enable-background:accumulate"/>
      <path id="path54119" d="M246 770.8c7-.3 20-5 24.8-10.2-3.7 2.4-16.8 8-25 10.2z" style="color:#000000;fill:#e6e6e6;fill-opacity:1;stroke:none;stroke-width:0.5;marker:none;visibility:visible;display:inline;overflow:visible;enable-background:accumulate"/>
      <path id="path22097-77" d="M305.2 659c3 13.2-10.6 19.7-23.2 19.7-13.4 0-21.2-6.5-27-18" style="color:#000000;fill:none;stroke:#cccccc;stroke-width:0.5;stroke-linecap:butt;stroke-linejoin:miter;stroke-miterlimit:4;stroke-opacity:1;stroke-dasharray:1, 0.5;stroke-dashoffset:0;marker:none;visibility:visible;display:inline;overflow:visible;enable-background:accumulate"/>
      <path id="path54091" d="M251 664.8c6.5 4.7 4.8 18 19.8 21-17.2-11.2-10.5-14-19.7-21z" style="color:#000000;fill:#e6e6e6;fill-opacity:1;stroke:none;stroke-width:0.5;marker:none;visibility:visible;display:inline;overflow:visible;enable-background:accumulate"/>
      <path id="path54111" d="M268 679.4c12.2 9 26.5 2 30.2-.5-6.5 2.5-15.7 6-30 .4z" style="color:#000000;fill:#e6e6e6;fill-opacity:1;stroke:none;stroke-width:0.5;marker:none;visibility:visible;display:inline;overflow:visible;enable-background:accumulate"/>
      <path id="path22097-77-6" d="M319.6 713c-14.5-7-12.5-45-7.5-49.7" style="color:#000000;fill:none;stroke:#cccccc;stroke-width:0.5;stroke-linecap:butt;stroke-linejoin:miter;stroke-miterlimit:4;stroke-opacity:1;stroke-dasharray:1, 0.5;stroke-dashoffset:0;marker:none;visibility:visible;display:inline;overflow:visible;enable-background:accumulate"/>
      <path id="path22097-77-6-0" d="M238 713.6c9.6.6 15.8-10 18-19.6 3.2-12.8.8-26.7-5.3-30.4" style="color:#000000;fill:none;stroke:#cccccc;stroke-width:0.5;stroke-linecap:butt;stroke-linejoin:miter;stroke-miterlimit:4;stroke-opacity:1;stroke-dasharray:1, 0.5;stroke-dashoffset:0;marker:none;visibility:visible;display:inline;overflow:visible;enable-background:accumulate"/>
    </g>
  </g>
</svg>
