<?xml version="1.0" encoding="UTF-8" standalone="no"?>
<svg xmlns="http://www.w3.org/2000/svg" id="shirt_tanktop_1_of_2" width="560" height="560">
  <path id="path29527" d="M255.016 198.67c1.715-9.454.732-21.18-6.216-26.832 3-1.4 6-3 7.8-4.4 2.6 4.8 10.5 16.5 23.3 16.5 20.4 0 28.3-11 23-19.5 1.7 1 5 5 10.4 7.7-2.97 4.98-3.86 16.195-2.542 26.335" style="display:inline;fill:#f2f2f2;stroke:#cccccc;stroke-width:1px;stroke-linecap:butt;stroke-linejoin:miter;stroke-opacity:1"/>
  <path id="path22097-77" d="M305.2 166.638c3 13.2-10.6 19.7-23.2 19.7-13.4 0-21.2-6.5-27-18" style="color:#000000;display:inline;overflow:visible;visibility:visible;fill:none;stroke:#cccccc;stroke-width:0.5;stroke-linecap:butt;stroke-linejoin:miter;stroke-miterlimit:4;stroke-dasharray:1, 0.5;stroke-dashoffset:0;stroke-opacity:1;marker:none;enable-background:accumulate"/>
  <path id="path54091" d="M251 172.438c6.5 4.7 4.8 18 19.8 21-17.2-11.2-10.5-14-19.7-21z" style="color:#000000;display:inline;overflow:visible;visibility:visible;fill:#e6e6e6;fill-opacity:1;stroke:none;marker:none;enable-background:accumulate"/>
  <path id="path54111" d="M268 187.038c12.2 9 26.5 2 30.2-.5-6.5 2.5-15.7 6-30 .4z" style="color:#000000;display:inline;overflow:visible;visibility:visible;fill:#e6e6e6;fill-opacity:1;stroke:none;marker:none;enable-background:accumulate"/>
  <path id="path22097-77-6" d="M308.823 198.255c-1.32-12.046.524-24.73 3.277-27.317" style="color:#000000;display:inline;overflow:visible;visibility:visible;fill:none;stroke:#cccccc;stroke-width:0.5;stroke-linecap:butt;stroke-linejoin:miter;stroke-miterlimit:4;stroke-dasharray:1, 0.5;stroke-dashoffset:0;stroke-opacity:1;marker:none;enable-background:accumulate"/>
  <path id="path22097-77-6-0" d="M256.705 198.302c2.053-11.79-.432-23.684-6.005-27.064" style="color:#000000;display:inline;overflow:visible;visibility:visible;fill:none;stroke:#cccccc;stroke-width:0.5;stroke-linecap:butt;stroke-linejoin:miter;stroke-miterlimit:4;stroke-dasharray:1, 0.5;stroke-dashoffset:0;stroke-opacity:1;marker:none;enable-background:accumulate"/>
</svg>
