<?xml version="1.0" encoding="UTF-8" standalone="no"?>
<svg xmlns="http://www.w3.org/2000/svg" id="shoes_flip-flops_2_of_2" width="560" height="560">
  <g id="g4345" stroke-linecap="round" stroke-linejoin="round" stroke-miterlimit="10">
    <g id="g4271" fill="#0cf" stroke="#08a">
      <path d="m 298.47259,516.38823 c -1.43192,3.72947 -2.72805,7.95863 -2.72805,9.55242 l 0,2.89779 c 0,1.30401 4.10204,4.6518 11.85609,4.52673 7.9655,-0.12848 13.18495,-4.63647 13.18495,-5.79558 l 0,-3.06754 c 0,-1.4489 -3.50403,-8.21644 -5.36091,-11.1565 -1.73868,-2.7529 -3.62225,-4.34669 -8.98316,-4.34669 -5.21603,0 -6.52801,3.63647 -7.96892,7.38937 z" id="path4269"/>
      <path d="m 254.90162,513.4866 c 3.27848,0.20491 4.71281,1.43433 4.71281,1.43433 l 0,3.07358 c 0,2.79835 -7.96585,4.54285 -8.42595,6.23202 -2.00664,7.36692 -9.38244,10.30431 -19.4617,9.98031 -4.73968,-0.15236 -7.91068,-2.64919 -7.91068,-4.09809 0,-1.04598 -0.06,-2.66589 -0.06,-3.71314 0,-1.84415 1.22943,-5.73734 9.01581,-6.55696 7.78638,-0.81962 3.89319,-7.17167 22.12971,-6.35205 z" id="path4248"/>
    </g>
    <path d="m 259.61443,514.92101 c 0,2.79835 -7.96585,4.54285 -8.42595,6.23202 -2.00664,7.36692 -9.38244,10.30431 -19.4617,9.98031 -4.73968,-0.15236 -7.91068,-2.64919 -7.91068,-4.09809" id="path4248-9" fill="none" stroke="#08a" stroke-width="0.5"/>
    <path d="m 259.61444,516.36991 c 0,2.79835 -7.96586,4.54285 -8.42595,6.23202 -2.00665,7.36692 -9.38245,10.30431 -19.46171,9.98031 -4.73968,-0.15236 -7.91068,-2.64919 -7.91068,-4.09809" id="path4248-9-8" fill="none" stroke="#d5f6ff" stroke-width="0.5"/>
    <path d="m 295.74454,525.50597 c 0,1.30401 4.10204,4.6518 11.85609,4.52673 7.9655,-0.12848 13.18495,-4.63647 13.18495,-5.79558" id="path4269-8" fill="none" stroke="#08a" stroke-width="0.5"/>
    <path d="m 295.74455,526.95487 c 0,1.30401 4.10203,4.6518 11.85608,4.52673 7.96551,-0.12848 13.18496,-4.63647 13.18496,-5.79558" id="path4269-8-4" fill="none" stroke="#d5f6ff" stroke-width="0.5"/>
  </g>
  <defs id="defs33019">
    <clipPath id="clipPath17580">
      <path id="path17582" d="M538 128c-.3.6-1.7 2.4-5.6.8l-1.6.2v-.2s.4-.4 1-.5c.5-.2 1.8-1.8 3-1.8 1.3 0 3 1 3 1.5z" color="#000" fill="none" stroke="teal" stroke-width="0.02662179" overflow="visible"/>
    </clipPath>
    <clipPath id="clipPath17632">
      <path id="path17634" d="M515.6 128c.3.6 1.7 2.4 5.6.8l1.6.2v-.2s-.4-.4-1-.5c-.5-.2-1.8-1.8-3-1.8-1.3 0-3 1-3.2 1.5z" color="#000" fill="#e6e6e6" stroke="#de8787" stroke-width="0.02662179" overflow="visible"/>
    </clipPath>
  </defs>
  <defs id="defs82">
    <clipPath id="clipPath84">
      <path id="path86" d="M538 128c-.3.6-1.7 2.4-5.6.8l-1.6.2v-.2s.4-.4 1-.5c.5-.2 1.8-1.8 3-1.8 1.3 0 3 1 3 1.5z" color="#000" fill="none" stroke="teal" stroke-width="0.02662179" overflow="visible"/>
    </clipPath>
    <clipPath id="clipPath88">
      <path id="path90" d="M515.6 128c.3.6 1.7 2.4 5.6.8l1.6.2v-.2s-.4-.4-1-.5c-.5-.2-1.8-1.8-3-1.8-1.3 0-3 1-3.2 1.5z" color="#000" fill="#e6e6e6" stroke="#de8787" stroke-width="0.02662179" overflow="visible"/>
    </clipPath>
  </defs>
</svg>
