<?xml version="1.0" encoding="UTF-8" standalone="no"?>
<!-- ?xml version="1.0" encoding="UTF-8" standalone="no"? -->

<svg xmlns:dc="http://purl.org/dc/elements/1.1/" xmlns:cc="http://creativecommons.org/ns#" xmlns:rdf="http://www.w3.org/1999/02/22-rdf-syntax-ns#" xmlns:svg="http://www.w3.org/2000/svg" xmlns="http://www.w3.org/2000/svg" xmlns:sodipodi="http://sodipodi.sourceforge.net/DTD/sodipodi-0.dtd" xmlns:inkscape="http://www.inkscape.org/namespaces/inkscape" id="character" width="560" height="560" version="1.1" inkscape:version="0.91 r13725" sodipodi:docname="suit_snow.svg">
  <metadata id="metadata124">
    <rdf:RDF>
      <cc:Work rdf:about="">
        <dc:format>image/svg+xml</dc:format>
        <dc:type rdf:resource="http://purl.org/dc/dcmitype/StillImage" />
        <dc:title></dc:title>
      </cc:Work>
    </rdf:RDF>
  </metadata>
  <sodipodi:namedview pagecolor="#ffffff" bordercolor="#666666" borderopacity="1" objecttolerance="10" gridtolerance="10" guidetolerance="10" inkscape:pageopacity="0" inkscape:pageshadow="2" inkscape:window-width="1440" inkscape:window-height="794" id="namedview122" showgrid="false" inkscape:snap-global="false" showguides="true" inkscape:guide-bbox="true" inkscape:zoom="0.97336164" inkscape:cx="277.99185" inkscape:cy="289.6833" inkscape:window-x="0" inkscape:window-y="0" inkscape:window-maximized="1" inkscape:current-layer="character" />
  <defs id="defs38944">
    <clipPath id="clipPath30446-4-3">
      <path id="path30448-9-3" d="m 751.28086,2651.7015 c -9.88068,-6.0494 -18.14818,-7.0576 -27.22227,3.8313 -9.07409,10.8889 -2.21811,30.0453 -5.04116,36.6996 -2.82305,6.6544 -3.42799,10.6873 -4.23457,20.3663 -0.80659,9.679 -7.46092,11.2922 -7.05763,37.3046 0.40329,26.0124 2.21811,28.2305 1.41153,33.2717 -0.80659,5.0411 0.40329,2.4197 0.80658,7.0576 0.40329,4.6379 12.30043,1.0082 12.70373,-4.0329 0.40329,-5.0412 0.60494,-3.8313 -0.4033,-8.2676 -1.00823,-4.4362 1.81482,-27.8271 5.24281,-36.2963 3.42799,-8.4692 1.81482,-19.7613 3.42799,-21.9795 1.61317,-2.2181 8.2675,-7.0576 9.07409,-49.4033" style="stroke-opacity: 1; stroke-linejoin: miter; stroke-linecap: butt; stroke-width: 1px; stroke: #c0a0a1; fill: none; display: inline; " />
    </clipPath>
  </defs>
  <g id="g56620" style="display:none;enable-background:new">
    <g id="g55231" style="display:inline;enable-background:new">
      <path id="path55233" d="M267 137.3l-1-1.7c-.5-1-2-3.2-2.5-2.4-.4.7 0 1.8 0 2.6-.2.8 0 2 .2 3.3.8 3.8 1.5 5 2.4 6.4 1 1.4 2.3 2 3 1" style="fill: #f0c8c9; stroke: #c0a0a1; stroke-width: 0.5; stroke-linecap: round; stroke-linejoin: round; stroke-miterlimit: 4; stroke-opacity: 1; stroke-dasharray: none; " />
      <path id="path55235" d="M266.7 140c0 .8 0 1-.3 1-.2.4 0 1.5.2 1.8.3.4.2 1.2 0 1.2 0 0-.3 0-.3-.6 0-.8-1-.6-1.6-2.7-.3-1.7 0-2 .2-2s0-1.3-.3-1.6c0-.2-.4-.5-.6-.6v1.2c0 .4-.2 3.2.8 4.7 1 1.4 1.7 2.7 1.5 2.7-.2 0-1.5-2.2-2-3.4-.4-1.3-.8-3.2-1-4.5 0-1 .2-1.3.5-1.2.3 0 1 1.2 1.4 2 .3 1 .6 1 1 1.2.2 0 .4.4.3 1z" style="fill: #d3b0b1; stroke: none; " />
    </g>
    <g id="g55237" style="display:inline;enable-background:new">
      <path id="path55239" d="M298 136.3l1.7-2.4c.5-.8 1-2 1.8-1.6.5.5 0 2 0 2.7.2.8.2 1.8 0 3-.6 3.6-1.3 4.7-2 6.2-1 1.5-2 2-2.8 1" style="fill: #f0c8c9; stroke: #c0a0a1; stroke-width: 0.5; stroke-linecap: round; stroke-linejoin: round; stroke-miterlimit: 4; stroke-opacity: 1; stroke-dasharray: none; stroke-dashoffset: 0; " />
      <path id="path55241" d="M298.5 139.2c0 .7.2.8.4 1 0 .2 0 1.3-.3 1.7-.3.2-.2 1 0 1 0 0 .3 0 .3-.7s1.2-.6 1.5-2.7c.3-1.7 0-2-.3-2-.2 0 0-1.3 0-1.6l.7-.7v1c0 .5.2 3.3-.7 4.8-1 1.7-1.7 3-1.4 3 0 0 1.3-2 1.7-3.4.4-1.2.7-3 .7-4.4 0-1.2-.2-1.5-.5-1.3-.3 0-1 1-1.3 2-.3 1-.7 1-1 1.2-.2 0-.4.5-.3 1.2z" style="fill: #d3b0b1; stroke: none; " />
    </g>
  </g>
  <desc id="desc65">Created with Snap</desc>
  <defs id="defs33019">
    <clipPath id="clipPath17580">
      <path id="path17582" d="M538 128c-.3.6-1.7 2.4-5.6.8l-1.6.2v-.2s.4-.4 1-.5c.5-.2 1.8-1.8 3-1.8 1.3 0 3 1 3 1.5z" style="color:#000000;fill:none;stroke:#008080;stroke-width:0.02662179;stroke-linecap:butt;stroke-linejoin:miter;stroke-miterlimit:4;stroke-opacity:1;stroke-dasharray:none;stroke-dashoffset:0;marker:none;visibility:visible;display:inline;overflow:visible;enable-background:accumulate" />
    </clipPath>
    <clipPath id="clipPath17632">
      <path id="path17634" d="M515.6 128c.3.6 1.7 2.4 5.6.8l1.6.2v-.2s-.4-.4-1-.5c-.5-.2-1.8-1.8-3-1.8-1.3 0-3 1-3.2 1.5z" style="color:#000000;fill:#e6e6e6;stroke:#de8787;stroke-width:0.02662179;stroke-linecap:butt;stroke-linejoin:miter;stroke-miterlimit:4;stroke-opacity:1;stroke-dasharray:none;stroke-dashoffset:0;marker:none;visibility:visible;display:inline;overflow:visible;enable-background:accumulate" />
    </clipPath>
  </defs>
  <desc id="desc95">Created with Snap</desc>
  <defs id="defs103">
    <clipPath id="clipPath105">
      <path id="path107" d="M538 128c-.3.6-1.7 2.4-5.6.8l-1.6.2v-.2s.4-.4 1-.5c.5-.2 1.8-1.8 3-1.8 1.3 0 3 1 3 1.5z" style="color:#000000;fill:none;stroke:#008080;stroke-width:0.02662179;stroke-linecap:butt;stroke-linejoin:miter;stroke-miterlimit:4;stroke-opacity:1;stroke-dasharray:none;stroke-dashoffset:0;marker:none;visibility:visible;display:inline;overflow:visible;enable-background:accumulate" />
    </clipPath>
    <clipPath id="clipPath109">
      <path id="path111" d="M515.6 128c.3.6 1.7 2.4 5.6.8l1.6.2v-.2s-.4-.4-1-.5c-.5-.2-1.8-1.8-3-1.8-1.3 0-3 1-3.2 1.5z" style="color:#000000;fill:#e6e6e6;stroke:#de8787;stroke-width:0.02662179;stroke-linecap:butt;stroke-linejoin:miter;stroke-miterlimit:4;stroke-opacity:1;stroke-dasharray:none;stroke-dashoffset:0;marker:none;visibility:visible;display:inline;overflow:visible;enable-background:accumulate" />
    </clipPath>
  </defs>
  <desc id="desc115">Created with Snap</desc>
  <g id="g6270">
    <path sodipodi:nodetypes="csssssssssssssssssssssssssssssssssssssssssssssssssssssssscccssssssssscsssssscsccscc" inkscape:connector-curvature="0" id="path3366-94" d="m 237.0878,340.11975 c -0.14322,1.86353 -2.15127,5.74734 -1.03716,7.44788 1.1141,1.70055 1.16512,3.05538 -0.14762,5.07789 -1.31274,2.02253 -2.10829,9.45911 -1.44089,11.4917 0.66742,2.0326 -1.8404,10.12495 -1.07269,14.51798 0.76772,4.39303 5.93923,10.66439 6.0429,13.19357 0.10366,2.52918 -2.5266,2.17655 -3.65517,5.87729 -1.12857,3.70074 -0.0146,9.85241 1.64221,11.5494 1.21591,1.24541 2.09841,3.51075 1.79959,4.35343 -0.29677,0.83685 -0.27491,1.54294 -4.7e-4,2.38628 0.27446,0.84336 -1.94395,3.95289 -3.26926,5.79859 -1.32531,1.8457 -2.29886,2.34605 -2.16726,7.73631 0.13161,5.39025 2.93088,7.25542 3.33039,9.27836 0.39951,2.02293 -2.59782,7.73949 -3.69621,10.60126 -1.09839,2.86178 -4.04029,14.99966 -3.08568,18.5473 0.95463,3.54766 -1.54989,5.56983 -0.69085,8.44378 0.85902,2.87395 -1.65593,5.06769 -0.28222,9.29735 1.37371,4.22964 5.36967,5.92533 5.37911,6.43287 0.009,0.50756 -1.01111,1.18355 -1.16753,2.36811 -0.15643,1.18456 -0.16501,11.3455 0.68744,11.68436 0.85245,0.33886 2.24985,-2.03284 3.95022,-2.70983 1.70036,-0.67701 11.33707,-0.16517 15.1826,0.85202 3.84553,1.01721 8.19683,8.12802 8.92458,9.48293 0.72775,1.35492 3.75912,-1.18506 4.14059,-3.72368 0.38146,-2.53863 1.88333,-1.52269 1.77834,-3.72186 -0.10498,-2.19918 2.36509,-4.39619 2.9892,-7.26872 0.62409,-2.87252 0.16039,-5.74411 -0.16462,-7.93942 -0.32501,-2.19531 -0.30396,-20.24049 -0.42089,-22.43081 -0.11693,-2.19034 0.18059,-4.88441 0.83754,-6.56682 0.65695,-1.68239 -0.0793,-3.53571 -0.62289,-4.71528 -0.54363,-1.17956 -0.34674,-2.69392 0.94413,-3.86885 1.29087,-1.17494 3.0692,-9.58264 3.95011,-13.61696 0.88091,-4.03434 0.54487,-9.5847 1.28982,-11.60093 0.74495,-2.01625 0.0614,-6.22248 1.03701,-9.24784 0.97555,-3.02535 -1.69057,-10.4358 -1.33211,-11.7813 0.35845,-1.3455 -0.33988,-4.04066 -0.69076,-6.39901 -0.35085,-2.35837 0.13299,-6.39959 -0.04,-8.7592 -0.17299,-2.35961 2.08983,-15.16966 4.16797,-20.56921 2.07814,-5.39956 5.37258,-19.94267 5.70859,-21.12748 0.33602,-1.18482 -0.4272,-0.99274 -0.006,-0.47988 0.42051,0.51289 1.76052,11.94215 2.11616,15.35278 0.35563,3.41063 2.29009,21.8175 2.33762,25.73357 0.0475,3.91607 -1.83599,12.25088 -2.86727,18.88036 -1.03127,6.62947 0.89703,14.96013 2.12679,18.52876 1.22976,3.56861 -0.41064,6.28202 0.0383,7.81042 0.44898,1.52839 0.11327,2.88606 -0.33932,6.95772 -0.45259,4.07166 0.58444,9.16081 0.20274,10.17792 -0.3817,1.01711 -3.81932,4.06495 -4.38815,6.09864 -0.56883,2.03368 0.1046,12.03514 0.54834,13.39126 0.44375,1.35609 0.0443,2.88059 0.60717,3.55883 0.56288,0.67823 -1.88505,18.7995 -1.51517,20.49308 0.36987,1.69358 -0.23786,5.92607 0.48163,8.6352 0.7195,2.70915 2.2122,7.0901 2.22764,6.24375 0.0155,-0.84633 -0.10542,2.89806 0.7383,3.23665 0.8437,0.33859 3.23884,-1.86227 4.11756,-3.21687 0.87871,-1.3546 5.41382,-7.79162 6.83783,-8.47095 1.42402,-0.67932 12.84148,-1.05841 16.79195,0.28519 3.95046,1.34362 7.97956,3.02146 7.97956,3.02146 l 2.50973,5.74881 c 1.1223,-0.76717 -0.0661,-3.30192 0.74753,-6.10218 0.81339,-2.80026 -0.78949,-10.76728 0.91389,-12.81236 1.70328,-2.0451 2.02376,-7.82315 0.8779,-10.62422 -1.14631,-2.80105 -0.58066,-13.27228 -0.13534,-17.44923 0.44498,-4.17695 0.016,-10.06027 0.0213,-13.04686 0.005,-2.98661 1.98684,-5.21078 0.85289,-9.73419 -1.13405,-4.52342 -1.69614,-14.60818 -2.91616,-16.14546 -1.21992,-1.53728 -4.49672,-5.55396 -3.43916,-7.35127 1.05747,-1.79732 1.43962,-2.39641 1.07956,-3.6794 -0.36007,-1.28299 2.42089,-6.41804 3.1651,-8.38614 0.74431,-1.96809 0.36401,-8.3841 0.78643,-10.95043 0.42219,-2.56635 -1.67158,-5.5607 -0.76038,-10.26401 0.9112,-4.70329 2.96928,-17.4353 2.51975,-18.80231 -0.44964,-1.36699 -1.59391,-3.6741 -0.94581,-6.06379 0.64809,-2.38968 1.20666,-3.24229 0.50844,-4.77905 -0.6981,-1.53677 0.26335,-2.81529 -0.23805,-4.607 -0.50141,-1.7917 0.47816,-7.67194 0.22982,-9.03546 -0.24825,-1.36352 -0.32416,-12.34617 -0.53031,-17.78584 1.39305,-3.86624 -0.15938,-6.64707 -1.81629,-10.02577 -1.65691,-3.37869 -1.29603,-9.00536 -0.49809,-18.72657 -3.68478,-3.74633 -79.50404,-3.09454 -91.44172,1.76289 0.0245,3.73605 0.4363,27.97408 2.44776,31.36097 2.01148,3.38689 2.44326,7.51277 -0.77185,10.88952 z" style="fill:#e6e6e6;fill-rule:evenodd;stroke:#b3b3b3;stroke-width:1.00000012px;stroke-linecap:butt;stroke-linejoin:miter;stroke-opacity:1" />
    <path sodipodi:nodetypes="ccsccccsscssssssscscsssssssscssssssssccsssssssssssssssccsssscsssccsssssssssssssscccsccsccscccscscccsssscscssscsscscccssssscsscsssccccsssccsccscscsccccsssccsscccccccccsccc" id="path4187-27" d="m 292.05495,293.68511 c -22.90566,0.0311 -49.92868,1.45223 -56.64363,4.18454 0.0245,3.73605 0.43685,27.97284 2.44831,31.35972 2.01147,3.38688 2.44264,7.51406 -0.77247,10.89082 -0.0161,0.20939 -0.0626,0.45187 -0.11919,0.70634 -0.01,0.0417 -0.0151,0.0792 -0.0252,0.12179 -0.0479,0.29101 -0.10109,0.5813 -0.17319,0.86502 3.49972,-0.99477 5.80818,0.71278 5.84538,2.23783 0.0372,1.52506 -2.23171,1.84943 -3.9295,3.53233 -1.6978,1.6829 -0.93072,7.10509 -0.0795,6.60278 0.85116,-0.50232 1.79464,1.02627 0.6515,2.54162 -1.14315,1.51535 0.37782,6.4281 0.49373,8.11889 0.11591,1.69081 -1.24954,2.02105 -2.56841,0.6607 -1.31888,-1.36035 -1.3893,2.52441 -1.24129,4.38345 0.148,1.85901 -0.66828,4.55615 -1.05499,6.073 -0.38671,1.51685 1.02568,3.55049 1.43775,2.37167 0.41208,-1.17881 1.04145,-3.87538 0.92718,-5.22697 -0.11427,-1.35159 -0.19473,-2.36589 0.38293,-1.68669 0.57767,0.6792 0.92351,2.67412 0.85121,3.89035 -0.0695,1.16943 1.11396,0.85061 1.18528,-0.33071 0.0713,-1.18132 -0.90503,-4.56489 1.83578,-7.42035 2.74081,-2.85548 4.89734,0.87438 3.32666,2.89188 -1.57067,2.01752 -0.82399,2.69733 -2.07696,4.20922 -1.25298,1.51188 -3.709,8.58533 -2.86213,11.7946 0.84688,3.2093 2.38221,4.73533 -0.70045,9.43593 -3.08267,4.70057 -0.34604,10.2739 -0.69879,11.61936 -0.35275,1.34544 -0.1381,1.68472 0.63856,1.01534 0.77667,-0.66941 1.20792,-1.34191 1.77163,-2.34933 0.56371,-1.00742 1.51639,-0.15985 1.21525,0.17533 -0.30112,0.33518 -0.24906,2.18779 -1.56388,4.03306 -1.31481,1.84527 0.2923,5.22282 1.32108,3.88122 1.02879,-1.34158 8.0009,-32.47641 8.03811,-33.99469 0.0372,-1.51827 1.31292,-2.52309 1.62577,-0.83406 0.31286,1.68901 1.72434,6.0813 4.16474,8.9594 2.4404,2.87807 7.28756,13.84904 10.11696,16.38539 2.82938,2.53635 4.23264,8.9364 1.3179,10.10352 -2.91473,1.16712 -9.18291,-7.44238 -9.21441,-9.29448 -0.0315,-1.85209 -2.54285,-2.20188 -3.05956,-0.85738 -0.51673,1.34451 -2.67776,-0.1809 -2.78547,1.83898 -0.10768,2.01991 1.62791,2.70113 1.57522,3.71088 -0.0526,1.00975 0.0159,3.03059 2.17039,3.20879 2.15452,0.1782 8.89855,5.92743 9.87953,4.58516 0.98098,-1.34227 3.24037,-0.99817 2.80609,1.01907 -0.43429,2.01725 -3.47208,3.35207 -4.98367,2.67331 -1.5116,-0.67875 -3.24929,-0.34821 -1.99797,0.83443 1.25131,1.18266 0.92587,2.69499 0.40781,3.87061 -0.51806,1.17561 -0.0387,2.69188 1.13464,1.68692 1.1733,-1.00498 8.40678,-9.39215 9.22367,-10.73543 0.81688,-1.34328 -1.57888,-1.6869 -1.01071,-2.35802 0.56818,-0.67115 0.14424,-5.21484 -0.74673,-6.22768 -0.89092,-1.01284 -1.6443,-3.87744 -1.34756,-5.89674 0.29676,-2.01932 -2.8135,-6.0738 -3.60198,-7.59318 -0.78847,-1.51937 0.83027,-1.68128 1.95254,0.008 1.12227,1.68893 3.50784,3.21453 3.63047,6.4141 0.12261,3.19957 1.59486,10.12347 3.33238,10.61384 1.86116,-0.30529 -3.99575,-25.74336 5.0491,-38.9329 0.20824,-0.65637 0.41911,-1.30709 0.62317,-1.83728 2.07816,-5.39954 5.37171,-19.94292 5.70773,-21.12773 0.33602,-1.18482 -0.42759,-0.99183 -0.007,-0.47896 0.42051,0.51289 1.76122,11.94197 2.11685,15.35259 0.14154,1.35746 0.6295,5.26035 1.07106,9.5104 1.80794,6.97212 3.76055,11.51782 4.33006,11.85935 1.00699,0.60388 1.76841,3.73688 0.0208,3.37268 -1.74762,-0.3642 -1.88591,1.20045 -2.17197,2.40363 -0.16495,0.69383 -0.96397,3.14439 -1.70995,5.67344 -0.44823,2.68737 -1.00957,5.64261 -1.51526,8.50316 -0.12014,3.01676 0.0432,6.09881 0.98858,4.5858 1.35021,-2.16109 2.22402,-10.21847 2.6381,-11.90221 0.41406,-1.68373 2.39681,-2.76332 1.52173,-0.59887 -0.87507,2.16441 -1.55217,12.62643 -3.14217,15.2678 -1.58999,2.64135 0.54526,3.72762 -0.41621,6.60946 -0.96148,2.88184 -1.11103,5.285 0.57123,7.32929 1.68226,2.04427 1.78849,3.9643 0.88351,6.24395 -0.90499,2.27966 0.0238,2.76005 -0.28648,5.03977 -0.31033,2.27971 -0.0955,10.55714 0.84624,9.47838 0.94202,-1.07878 0.48126,-12.11538 2.11263,-13.07453 1.63139,-0.95914 2.34616,-7.68105 0.31941,-10.6854 -2.02676,-3.00434 -2.99137,-5.52978 -2.74713,-6.49071 0.24425,-0.96093 1.25161,-4.92571 1.75635,-1.92062 0.50473,3.00508 13.88411,10.68622 16.20693,11.88093 2.32283,1.19469 2.24647,2.19136 0.6415,2.91745 -1.60487,0.7261 -4.87557,0.33191 -6.79433,-0.0258 -1.91885,-0.35772 -3.00803,0.72229 -1.94041,2.64147 1.06769,1.91919 3.1019,4.64261 6.33354,5.00481 3.23165,0.36217 4.55361,0.60333 5.70529,-0.96937 1.1516,-1.5727 2.00867,-0.84854 3.03376,0.3593 1.02498,1.20786 5.7578,4.22352 8.00328,5.18528 2.24548,0.96176 4.30255,-0.61344 2.72187,1.20187 -1.58061,1.81533 -20.17063,-5.51011 -21.12902,-3.94892 -0.95829,1.56118 9.19479,4.09377 15.8896,5.65088 6.3783,1.48346 7.9497,-0.32556 8.15372,-2.90089 -0.0432,-0.24365 -0.0976,-0.49498 -0.16006,-0.75311 -0.38298,-0.23426 -1.27858,0.11618 -2.28111,-0.31872 -1.29064,-0.55993 -3.35656,-16.14072 -6.50414,-17.82918 -3.14749,-1.68847 -4.68112,-4.50898 -5.33051,-5.07285 -0.64947,-0.5639 -0.42676,-2.6322 1.40488,-2.25656 1.72746,0.35426 4.70487,2.20896 6.74827,1.15669 0.71325,-1.23961 0.96856,-1.87658 0.66475,-2.95922 -0.1092,-0.38923 0.0863,-1.15206 0.40875,-2.05435 -0.23114,-0.98392 -0.53691,-1.81535 -0.67981,-2.16082 -0.38865,-0.9396 -3.22523,-1.12715 -4.74969,0.75307 -1.52445,1.88022 -4.33817,2.63296 -4.79332,3.94908 -0.45514,1.3161 -2.23383,4.51155 -2.0006,6.20354 0.23325,1.69198 2.47677,5.82662 1.05418,8.27018 -1.42249,2.44352 -1.75641,0.18838 -1.77383,-1.69108 -0.0174,-1.87947 -1.5931,-9.21064 0.10857,-11.09054 1.70154,-1.87991 -0.26236,-2.44523 -1.62199,-0.37727 -1.35963,2.06796 -1.90804,-1.68303 -2.08154,-3.17589 -0.17349,-1.49287 -0.11248,-3.92019 0.0737,-4.6674 0.1862,-0.74719 1.55048,-1.12319 1.86148,0.55641 0.31092,1.6796 -1.19747,3.71436 0.26811,3.90319 1.46567,0.18884 1.92147,-0.18739 1.92429,-1.12764 0.003,-0.94025 0.75505,-0.93985 1.88841,8.4e-4 1.13346,0.94045 3.33105,-3.38407 0.0487,-3.94951 -3.28219,-0.56542 -7.66997,-1.88577 -6.52451,-5.64627 0.63625,-3.09368 5.14512,-6.05633 4.11976,-6.84681 -1.02548,-0.79047 0.7324,-8.32921 -1.98533,-8.39044 -2.71771,-0.0612 -5.44104,14.01878 -6.19701,17.05728 -0.75598,3.03852 -3.48491,3.76687 -2.38444,-0.39436 1.10046,-4.16122 4.08944,-16.98632 4.25236,-17.97838 0.16292,-0.99205 -1.99244,-6.08408 -2.94171,-7.53951 -0.94929,-1.45542 0.52796,-0.99178 1.15814,-0.39656 0.63017,0.59522 3.16786,4.03245 3.99018,4.8912 0.8223,0.85877 2.43244,-1.26062 3.47281,-0.79974 1.04039,0.46089 -0.66933,-2.43564 -2.69574,-3.76795 -2.02635,-1.33229 0.22552,-3.25466 1.73438,-2.25574 1.50874,0.99894 2.84114,0.20292 4.0196,-0.12746 1.17846,-0.33037 0.27345,1.66152 2.08238,2.19522 1.80893,0.53369 -0.57688,2.98866 0.65186,3.12294 1.22882,0.13428 1.09125,1.52872 1.05364,2.06021 -0.0373,0.53148 1.48903,0.53244 1.4007,-1.06205 -0.0885,-1.5945 -1.15518,-0.86395 -0.81422,-2.98915 0.34065,-2.12521 -0.83394,-1.86173 -0.63728,-3.25614 0.19635,-1.39443 0.27562,-3.25335 1.70321,-3.11882 1.42767,0.13452 1.68732,6.51117 3.5728,7.44248 1.88557,0.93132 1.33912,-1.7923 0.87801,-2.52315 -0.46112,-0.73084 -1.05908,-3.52173 0.32046,-7.50268 0.46154,-1.45973 1.01915,-3.11848 1.00514,-4.18006 -0.0141,-1.0616 1.53524,-1.19155 1.41026,0.66613 -0.12498,1.85766 -1.0198,4.2461 -1.02562,5.37454 -0.006,1.12844 0.95706,1.32707 0.86491,2.19004 -0.0919,0.86297 0.82293,1.32926 1.04263,0.13447 0.21969,-1.19478 0.75104,-1.9254 0.25711,-3.2532 -0.49382,-1.32779 0.22003,-4.24533 0.35787,-5.04131 0.13783,-0.79599 -1.08468,-1.3954 -0.93736,-2.65552 0.14708,-1.26011 0.54178,-3.24867 -1.59616,-2.3228 -2.13795,0.9259 -5.33215,2.64667 -6.19004,3.04352 -0.85779,0.39686 -1.09739,2.51958 -0.60449,3.44943 0.49297,0.92985 0.49469,1.65908 -0.3135,2.12265 -0.80813,0.46357 -1.24967,-0.73138 -0.99439,-1.79297 0.25549,-1.06159 -0.529,-2.58846 -1.32323,-2.92151 -0.79422,-0.33306 -4.01524,-3.25891 -4.92716,-3.26064 -0.91186,-0.002 -1.48109,-0.86553 -0.76261,-1.66013 0.71846,-0.79459 1.23718,0.004 1.24691,0.33553 0.01,0.33169 4.70478,3.45681 5.33781,3.59049 0.63294,0.13369 5.15236,-2.44688 5.74633,-2.84402 0.59396,-0.39715 -0.35145,-1.06173 -1.08648,-1.39436 -0.73503,-0.33264 -0.4858,-1.8571 0.50243,-1.45785 0.98832,0.39927 2.47451,1.39653 3.10236,1.59625 0.62794,0.19972 1.79595,-0.86074 1.60159,-2.1206 -0.19445,-1.25986 0.65573,-2.05409 -0.1699,-3.11558 -0.82552,-1.06148 -0.9097,-2.71697 2.37093,-2.11652 0.0222,-0.0269 0.0443,-0.0531 0.0674,-0.0801 0.0441,-0.51622 0.0531,-1.05178 -0.11571,-1.65485 -0.50141,-1.7917 0.47857,-7.67092 0.23023,-9.03444 -0.24826,-1.3635 -0.32357,-12.34734 -0.52973,-17.78698 1.39305,-3.86627 -0.15999,-6.64601 -1.8169,-10.0247 -1.65691,-3.37871 -1.2966,-9.00657 -0.49868,-18.72777 -1.6121,-1.639 -16.98239,-2.44485 -34.7979,-2.42063 z" style="fill:#cccccc;fill-rule:evenodd;stroke:none;stroke-width:1px;stroke-linecap:butt;stroke-linejoin:miter;stroke-opacity:1" inkscape:connector-curvature="0" />
    <path sodipodi:nodetypes="csssssssssssssssssssssssssssssssssssssccssssc" inkscape:connector-curvature="0" id="path3563-41" d="m 324.66002,501.11666 c 1.81909,-1.40354 -4.49837,-8.62444 -6.24441,-9.45959 -1.74606,-0.83516 -12.03867,1.39533 -13.68411,-1.95334 -1.64552,-3.34864 -2.7427,-5.38211 -4.49827,-6.93605 -1.75548,-1.55394 -4.29394,-3.46747 -4.41422,-7.42022 -0.12026,-3.95275 -8.20377,-0.95782 -6.92645,-5.03101 1.27732,-4.07318 14.93143,-0.4904 15.64274,-3.84645 0.71139,-3.35601 -10.66169,-5.97897 -9.99602,-7.53732 0.66568,-1.55834 9.4903,3.5847 9.95218,1.1871 0.46186,-2.39761 -11.67347,-3.22476 -10.59053,-5.02302 1.08292,-1.79826 8.86558,-2.64252 13.41682,-2.41404 3.11906,0.15658 6.36143,-1.16256 10.37565,-1.11941 3.65038,0.0392 3.68088,3.25763 1.45539,3.57745 -2.52328,0.36258 -5.11849,0.60656 -4.71079,2.17605 0.39325,1.51376 5.84123,0.9492 7.60659,2.1349 1.38072,0.92734 3.45889,0.38802 3.04868,-1.3286 -0.40617,-1.69955 -1.93286,-2.86208 -2.27725,-6.58778 -0.19568,-2.11676 -14.77905,-6.64705 -15.79059,-7.48419 -1.01162,-0.83715 -2.17484,3.24259 -3.34192,0.48622 -1.16718,-2.75635 -4.42981,-12.35192 -6.57792,-14.99336 -2.14813,-2.64141 -3.07814,-7.20679 -4.59196,-6.24768 -1.5138,0.9591 4.75569,11.28942 5.87658,12.48906 1.12087,1.19963 0.42295,2.15981 -0.54297,2.76003 -0.96592,0.60023 -1.58356,3.71964 -0.88102,5.2788 0.70256,1.55914 -0.98635,2.75924 -2.94115,4.6777 -1.9548,1.91848 -2.59268,3.23705 -1.48776,4.67627 1.10494,1.43923 -0.45718,2.15825 -2.19799,2.63658 -1.74083,0.47832 -4.69075,6.46908 -2.87618,8.02916 1.81456,1.56007 1.61158,3.35735 -0.14316,4.67388 -1.75474,1.31654 -0.82015,2.03642 1e-4,2.75608 0.82023,0.71964 1.45463,2.63702 0.48132,3.59478 -0.9733,0.95777 1.88502,1.55852 0.41088,2.75562 -1.47412,1.19712 -0.76141,6.46786 -1.87662,7.90428 -1.11519,1.43641 -0.41216,2.51508 1.63037,2.27636 2.04254,-0.23872 2.2832,0.83893 0.54392,1.55697 -1.73928,0.71804 -3.20448,3.59121 -0.88131,2.87362 2.32316,-0.71758 8.79226,-2.87599 11.93474,-2.52167 3.14249,0.35431 5.46441,1.78676 0.86956,2.39321 -4.59493,0.60646 -14.71189,3.36144 -12.44659,9.34772 0.009,-2.1549 1.52242,-3.23215 2.88626,-3.83108 -0.15054,2.03533 4.38811,2.5127 8.35239,0.232 3.96427,-2.28068 9.89306,-4.37005 11.57991,-2.93315 1.68686,1.43691 9.54365,3.45197 10.78504,4.76695 1.24149,1.31499 4.6281,1.42744 3.0701,1.42717 z" style="fill:#cccccc;fill-rule:evenodd;stroke:none;stroke-width:1px;stroke-linecap:butt;stroke-linejoin:miter;stroke-opacity:1" />
    <path sodipodi:nodetypes="sssss" inkscape:connector-curvature="0" id="path3827-67" d="m 235.83717,498.83652 c 0.75383,1.0538 4.82733,-2.45139 5.57817,-3.12755 0.75084,-0.67616 -2.30382,-2.28565 -2.81439,-2.37063 -0.51058,-0.0849 -1.23555,0.87237 -1.00333,1.26809 0.69532,1.18489 -2.52247,3.16485 -1.76045,4.23009 z" style="fill:#cccccc;fill-rule:evenodd;stroke:none;stroke-width:1px;stroke-linecap:butt;stroke-linejoin:miter;stroke-opacity:1" />
    <path sodipodi:nodetypes="cssssssssssssssssccssssssc" inkscape:connector-curvature="0" id="path3829-177" d="m 269.6392,496.49394 c 0.32936,-1.91021 -11.00721,-5.33276 -14.79368,-9.22257 -3.78647,-3.88983 -6.1558,-2.54228 -7.86279,-4.06504 -1.70699,-1.52276 -10.42053,-7.11143 -9.45971,-8.29161 0.96083,-1.18018 3.56924,1.44204 5.49209,1.27693 1.92284,-0.16512 4.63889,4.90472 6.35582,4.73879 1.71693,-0.16594 0.49241,-12.7385 0.69523,-14.59262 0.2028,-1.85412 0.9225,-7.58202 -0.88403,-9.44093 -1.8065,-1.85892 -10.47331,-6.26898 -11.58841,-8.80064 -1.11509,-2.53166 -1.49339,-1.18522 -2.15114,0.83492 -0.65773,2.02013 0.0155,7.24848 -1.5254,9.43657 -1.54089,2.18808 -3.5475,5.38926 -1.25977,5.73257 2.28773,0.34332 3.06505,1.5261 1.64049,3.37937 -1.42456,1.85326 5.55986,0.85679 8.3764,0.18889 2.81652,-0.6679 2.95523,1.52524 0.98489,2.19554 -1.97033,0.6703 -6.49671,1.67321 -8.66852,0.1491 -2.1718,-1.52408 -3.80218,0.16047 -3.30628,2.52588 0.49591,2.3654 -0.76864,4.55955 -2.53161,1.51545 0.73112,2.11634 -0.51225,6.92812 -0.51225,6.92812 1.45804,-2.70297 3.09588,-1.17897 2.81427,0.34193 -0.28159,1.5209 -1.84812,4.73222 3.56291,7.951 5.41104,3.21877 10.22417,3.56123 13.17819,3.22614 2.95402,-0.33508 3.73623,-1.85521 5.04996,0.006 1.31373,1.86052 7.36146,3.55656 9.85268,3.55879 2.49123,0.002 6.53113,2.19507 6.54066,0.42811 z" style="fill:#cccccc;fill-rule:evenodd;stroke:none;stroke-width:1px;stroke-linecap:butt;stroke-linejoin:miter;stroke-opacity:1" />
    <path sodipodi:nodetypes="ssssccss" inkscape:connector-curvature="0" id="path3981-72" d="m 268.69972,473.39939 c 1.2208,-0.71886 -2.00509,-9.17761 -5.72736,-10.02042 -3.72227,-0.8428 -11.57427,3.06935 -10.58367,4.14472 0.99061,1.07537 2.64607,0.12562 3.67666,0.24728 1.0306,0.12165 2.47759,1.67447 2.77995,1.07921 0.30234,-0.59527 -1.52428,-0.95706 -1.68262,-1.67255 -0.15835,-0.71546 4.46309,-0.58523 5.95471,0.25216 1.49163,0.83739 4.57392,6.56342 5.58233,5.9696 z" style="fill:#cccccc;fill-rule:evenodd;stroke:none;stroke-width:1px;stroke-linecap:butt;stroke-linejoin:miter;stroke-opacity:1" />
    <path sodipodi:nodetypes="cssssssssc" inkscape:connector-curvature="0" id="path3985-46" d="m 313.2687,471.24267 c -0.0347,-1.19279 -4.26969,-1.35558 -4.11777,-2.54925 0.15193,-1.19365 18.01705,-3.11242 17.6948,-4.81608 -0.32223,-1.70367 -9.86332,-1.7538 -11.83914,-1.84522 -3.53898,-0.16375 -5.63912,-2.92451 -7.30232,-1.81495 -2.00021,1.33443 0.91563,6.26783 -2.64944,8.98657 -3.56517,2.71873 -7.49873,1.70668 -7.09576,4.58607 0.40296,2.87937 5.23483,1.39653 6.0394,-0.17932 0.82162,-1.60907 2.3762,-1.46838 2.75037,0.16284 0.60993,2.65956 6.39036,0.0257 6.51986,-2.53066 z" style="fill:#cccccc;fill-rule:evenodd;stroke:none;stroke-width:1px;stroke-linecap:butt;stroke-linejoin:miter;stroke-opacity:1" />
    <path sodipodi:nodetypes="cssssssssc" inkscape:connector-curvature="0" id="path3987-0" d="m 304.14812,482.4174 c 0.47177,1.53617 11.42644,2.94985 14.19374,2.43105 2.7672,-0.51879 6.42471,-0.36203 8.0181,0.4817 1.59329,0.84373 1.97696,-1.53804 1.14203,-2.55506 -0.83493,-1.01705 -1.56633,-3.0556 -1.21101,-4.75869 0.35541,-1.7031 -0.54495,-5.27502 0.12629,-7.83252 0.67119,-2.55749 -1.70797,-2.5497 -4.27879,-0.83813 -2.57072,1.71154 -11.98736,7.35477 -13.35204,8.54922 -1.36479,1.19445 -6.394,4.52155 -4.63836,4.52243 z" style="fill:#cccccc;fill-rule:evenodd;stroke:none;stroke-width:1px;stroke-linecap:butt;stroke-linejoin:miter;stroke-opacity:1" />
    <path sodipodi:nodetypes="csssssc" inkscape:connector-curvature="0" id="path3989-65" d="m 320.5708,490.32813 c 0.36435,-1.22878 4.43488,-0.37666 6.78845,-2.06871 1.20905,-0.86925 1.43591,0.47881 0.002,1.80219 -1.96177,1.81023 -0.009,4.20355 -1.64108,5.29078 -0.82849,0.55201 -1.54117,-1.6761 -2.56984,-2.87145 -0.87728,-1.01952 -1.47019,-2.15241 -2.5792,-2.15281 z" style="fill:#cccccc;fill-rule:evenodd;stroke:none;stroke-width:1px;stroke-linecap:butt;stroke-linejoin:miter;stroke-opacity:1" />
    <path sodipodi:nodetypes="cscccscssscsscsscssc" inkscape:connector-curvature="0" id="path4183-3" d="m 237.64026,443.5255 c -0.15528,-2.14689 2.39718,-5.04659 8.77047,-5.20459 8.24661,-0.20445 16.12094,-6.83809 17.6028,-8.85485 -0.007,2.14105 0.52602,5.23558 0.74268,6.30687 -0.6291,-0.71585 -1.18538,-1.78837 -1.34561,-2.26474 -1.53121,1.54094 -6.62957,3.90155 -6.14963,6.40215 0.47991,2.50059 8.68369,-2.23027 8.68369,-2.23027 0.45005,2.38045 -1.85446,5.10924 -1.40655,7.60922 0.44793,2.49997 0.33594,3.80862 -0.3717,4.6396 -0.70765,0.83097 1.00186,2.62102 -0.99013,4.16288 -1.99198,1.54188 -1.95567,3.32807 -0.0675,6.42915 -2.70858,-3.6986 -1.94244,-6.43492 -0.88325,-7.14607 1.0592,-0.71118 1.04133,-2.25848 0.39004,-3.33157 -0.65132,-1.07308 0.0476,-2.02299 0.78694,-2.49671 0.73924,-0.47373 -0.0686,-2.02309 -0.90009,-1.31175 -0.8314,0.71133 -2.79831,2.49047 -5.48509,1.76734 -2.68679,-0.72311 -3.97883,-4.41807 -2.85505,-5.84212 -1.00855,1.42447 -1.41041,4.39897 -1.98006,5.70661 -0.56966,1.30765 -9.76283,-4.34103 -14.5418,-4.34115 z" style="fill:#cccccc;fill-rule:evenodd;stroke:none;stroke-width:1px;stroke-linecap:butt;stroke-linejoin:miter;stroke-opacity:1" />
    <path sodipodi:nodetypes="csssssc" inkscape:connector-curvature="0" id="path4185-6" d="m 250.67309,387.38078 c -1.13223,24.87617 -10.20593,32.58032 -13.2606,35.42274 -3.05468,2.84241 -3.02799,10.94178 2.25722,12.86977 5.28519,1.92798 18.16882,-3.4945 20.47093,-5.38903 2.30211,-1.89451 -6.91136,-12.64077 -8.02168,-16.21665 -1.11033,-3.57588 -2.3761,-7.00116 -1.83911,-12.15244 0.52114,-4.99909 0.58038,-10.98319 0.39324,-14.53439 z" style="fill:#cccccc;fill-rule:evenodd;stroke:none;stroke-width:1px;stroke-linecap:butt;stroke-linejoin:miter;stroke-opacity:1" />
    <path sodipodi:nodetypes="sssss" inkscape:connector-curvature="0" id="path4419-4" d="m 259.18229,498.77593 c -0.51839,1.04098 4.46225,3.72795 5.38842,3.95429 0.92616,0.22633 0.0629,2.5968 1.09305,2.4844 1.03014,-0.1124 0.78338,-4.40197 -0.13934,-4.854 -0.92271,-0.45206 -5.88437,-2.50395 -6.34213,-1.58469 z" style="fill:#cccccc;fill-rule:evenodd;stroke:none;stroke-width:1px;stroke-linecap:butt;stroke-linejoin:miter;stroke-opacity:1" />
    <path sodipodi:nodetypes="sscss" inkscape:connector-curvature="0" id="path4421-35" d="m 262.7899,478.15218 c 0.54949,-1.57028 -8.33359,-5.96798 -10.60327,-5.65031 -1.25057,0.17504 -0.76787,6.46072 -0.32543,6.7571 0.7745,0.33939 2.75419,-1.57205 5.09726,-1.68032 2.34306,-0.10827 5.12642,2.58832 5.83144,0.57353 z" style="fill:#cccccc;fill-rule:evenodd;stroke:none;stroke-width:1px;stroke-linecap:butt;stroke-linejoin:miter;stroke-opacity:1" />
    <path sodipodi:nodetypes="cssssssssscsscccssssssc" id="path4423-9" d="m 274.53035,413.46743 c -1.78355,-0.006 -1.65029,1.45507 -0.70609,1.4579 0.94422,0.003 1.52705,0.67827 1.15998,1.2387 -0.36708,0.56043 -1.53044,1.56793 -3.7581,4.59251 -2.22767,3.02458 -4.95831,6.27123 -3.47954,7.39898 1.47878,1.12775 4.93437,-2.00518 5.9612,-0.99186 1.02682,1.01332 -2.96104,7.17637 -4.53293,9.30481 -1.5719,2.12846 -2.5269,5.38197 -2.21643,6.50591 0.31048,1.12392 0.15593,2.92036 -0.30706,3.5929 -0.463,0.67254 -0.005,2.3587 0.64679,1.46199 0.65195,-0.89672 4.88048,-5.8262 5.90084,-9.41607 0.0341,5.0522 -4.08846,9.98267 -5.07903,10.54157 -0.99058,0.55888 -1.6352,1.5681 -0.84423,2.35661 0.67041,0.66832 2.54097,3.94242 3.75706,6.38173 -0.0613,-0.14216 -0.12348,-0.30307 -0.18222,-0.43055 -0.10345,-0.22438 -0.16948,-0.46406 -0.21697,-0.70803 -0.5983,-1.71741 -0.75398,-3.04727 -0.42547,-3.43813 0.47109,-0.56051 2.17325,-5.04928 3.16607,-9.08896 0.99281,-4.0397 1.93448,-9.65019 1.66092,-11.5593 -0.27356,-1.90914 1.85585,-5.72039 1.39518,-7.40554 -0.46067,-1.68517 0.2244,-6.73579 0.15892,-8.64494 -0.0655,-1.90918 -0.27205,-3.14857 -2.05885,-3.15023 z" style="fill:#cccccc;fill-rule:evenodd;stroke:none;stroke-width:1px;stroke-linecap:butt;stroke-linejoin:miter;stroke-opacity:1" inkscape:connector-curvature="0" />
    <path sodipodi:nodetypes="sssssssss" inkscape:connector-curvature="0" id="path4731-92" d="m 288.98116,484.92919 c 1.14389,0.76794 6.75185,-0.93778 6.98155,-2.71587 0.22969,-1.77805 -1.61729,-4.02263 -1.5036,-5.42651 0.11363,-1.4039 -0.99165,-1.497 -1.38419,-0.74814 -0.39254,0.74886 -0.90002,1.02976 -1.48138,0.56181 -0.58133,-0.46795 -0.99059,-0.84238 -1.46208,0.46785 -0.47148,1.31024 -0.99884,3.08843 0.36962,3.27571 1.36843,0.18728 0.54858,0.74875 -0.41768,1.02937 -0.96628,0.28061 -2.19844,2.81986 -1.10224,3.55578 z" style="fill:#cccccc;fill-rule:evenodd;stroke:none;stroke-width:1px;stroke-linecap:butt;stroke-linejoin:miter;stroke-opacity:1" />
    <path sodipodi:nodetypes="csssssssssssssssssssc" inkscape:connector-curvature="0" id="path5050-7" d="m 323.36491,408.34339 c 1.2807,-0.26229 0.0457,-3.61016 1.48884,-4.01165 1.44324,-0.40149 -0.008,-3.34261 0.20683,-4.41222 0.21475,-1.06963 0.23883,-1.87175 -0.89913,-1.60441 -1.13787,0.26735 -5.23153,-8.15821 -4.85904,-9.36119 0.3725,-1.20298 1.51455,-3.60833 0.48307,-6.54972 -1.0315,-2.94138 -0.27326,-12.16684 -7.39605,-8.4237 -7.12281,3.74314 -2.72573,8.65734 -1.47852,8.78801 1.2472,0.13068 1.30831,1.59409 0.78344,2.7926 -0.52487,1.19849 -4.07653,0.16952 -2.97203,-0.0961 1.10452,-0.26567 1.30262,5.35125 0.5353,5.88517 -0.76731,0.53394 -2.15464,2.80611 0.4368,2.4082 2.59142,-0.39793 4.05933,-1.0653 4.54029,-2.13467 0.48097,-1.06935 2.5305,0.002 1.14069,1.6059 -1.38971,1.60356 -3.0941,2.13693 -4.07647,2.40334 -0.98238,0.26644 -1.10118,2.13912 0.70751,1.73966 1.80869,-0.39947 4.16374,-1.46771 3.30029,0.8054 -0.86337,2.2731 -2.19648,6.15164 0.002,6.55396 2.19834,0.40234 4.03657,-0.66728 5.14619,0.53633 1.10953,1.20361 3.29296,5.07063 2.91011,3.07516 z" style="fill:#cccccc;fill-rule:evenodd;stroke:none;stroke-width:1px;stroke-linecap:butt;stroke-linejoin:miter;stroke-opacity:1" />
    <path sodipodi:nodetypes="sssss" inkscape:connector-curvature="0" id="path5056-42" d="m 271.33447,388.29618 c -0.10028,-1.3338 -6.68339,-2.26047 -8.91863,-3.85422 -2.23521,-1.59375 -4.52798,-4.77384 -5.61954,-4.49961 -1.09154,0.27424 3.30236,7.37733 5.64023,8.03957 2.33788,0.66222 9.01197,1.83076 8.89794,0.31426 z" style="fill:#cccccc;fill-rule:evenodd;stroke:none;stroke-width:1px;stroke-linecap:butt;stroke-linejoin:miter;stroke-opacity:1" />
    <path sodipodi:nodetypes="ssssss" inkscape:connector-curvature="0" id="path5386-7" d="m 255.06518,484.55895 c -0.10447,-2.12421 6.05045,-1.30994 6.24886,-2.75994 0.1984,-1.45001 1.65523,-1.84306 1.8325,-0.12895 0.0609,0.58949 0.0265,1.79035 0.69822,2.32636 1.51952,1.2125 0.93123,3.0222 -1.19403,1.76068 -1.8406,-1.09253 -7.46183,1.31802 -7.58555,-1.19815 z" style="fill:#cccccc;fill-rule:evenodd;stroke:none;stroke-width:1px;stroke-linecap:butt;stroke-linejoin:miter;stroke-opacity:1" />
    <path sodipodi:nodetypes="ccscccsscsc" id="path3561-94" d="m 286.74853,501.27422 c -0.80036,1.56843 -1.16751,3.42646 -1.2503,5.30375 0.75993,2.66966 1.94394,6.0523 1.95774,5.29562 0.0155,-0.84634 -0.10492,2.89747 0.73887,3.23606 0.84367,0.33859 3.23864,-1.86104 4.11734,-3.21563 0.0469,-0.073 0.19526,-0.28757 0.26224,-0.38855 -1.88339,1.02738 -2.40266,-0.67553 -2.36729,-1.97113 0.0425,-1.55605 1.17289,-1.0176 1.40004,-0.53891 0.22715,0.47869 5.56582,-4.49323 3.93681,-5.92812 -1.62908,-1.43487 -5.52926,3.17661 -7.08719,3.29618 -1.55792,0.11957 -1.65816,-3.95192 -1.70826,-5.08927 z" style="fill:#cccccc;fill-rule:evenodd;stroke:none;stroke-width:1px;stroke-linecap:butt;stroke-linejoin:miter;stroke-opacity:1" inkscape:connector-curvature="0" />
  </g>
  <g id="g6228">
    <path sodipodi:nodetypes="ccc" inkscape:connector-curvature="0" id="path5217" d="m 310.93338,170.34404 c 7.29222,-1.87047 13.64951,-6.73369 1.49582,-8.04303 -0.74791,1.87048 -1.49582,8.04303 -1.49582,8.04303 z" style="fill:#cccccc;fill-opacity:1;fill-rule:evenodd;stroke:none;stroke-width:1px;stroke-linecap:butt;stroke-linejoin:miter;stroke-opacity:1" />
    <path sodipodi:nodetypes="ccc" inkscape:connector-curvature="0" id="path4413-0" d="m 294.78436,148.20755 c 0,0 0.95844,12.62408 -1.75715,19.815 15.33509,-5.75274 26.67663,-21.41298 1.75715,-19.815 z" style="fill:#e6e6e6;fill-opacity:1;fill-rule:evenodd;stroke:#b7b7b7;stroke-width:0.99999994px;stroke-linecap:butt;stroke-linejoin:miter;stroke-opacity:1" />
    <path sodipodi:nodetypes="csccc" inkscape:connector-curvature="0" id="path5372-6" d="m 295.10451,149.7827 c 3.04092,0 7.40399,8.46478 8.72614,7.53895 1.32214,-0.92583 -1.851,-4.10014 -3.30536,-4.8937 4.36307,0.92583 7.53622,3.8356 5.42079,6.34858 5.28857,-3.96787 3.17314,-10.44872 -10.84157,-8.99383 z" style="fill:#cccccc;fill-opacity:1;fill-rule:evenodd;stroke:none;stroke-width:1px;stroke-linecap:butt;stroke-linejoin:miter;stroke-opacity:1" />
    <path sodipodi:nodetypes="ccc" inkscape:connector-curvature="0" id="path5388-5" d="m 292.85685,168.43169 c 7.27179,-7.00991 4.75972,-14.28433 1.98323,-16.40053 0.1322,4.62918 0.39663,10.97776 -1.98323,16.40053 z" style="fill:#cccccc;fill-opacity:1;fill-rule:evenodd;stroke:none;stroke-width:1px;stroke-linecap:butt;stroke-linejoin:miter;stroke-opacity:1" />
    <path sodipodi:nodetypes="cscsssssscssssssssssc" inkscape:connector-curvature="0" id="path3362-01" d="m 280.11564,335.01917 c 5.71711,-0.65916 16.18419,-0.96828 23.8577,1.23973 6.52023,1.87617 19.82991,4.13854 29.35415,2.79883 -0.23929,-5.98487 -1.93124,-13.29152 -1.71771,-14.92113 0.32377,-2.46992 -0.19826,-6.18672 -1.63403,-8.82007 -1.43587,-2.63335 -2.03416,-8.85762 -1.79488,-14.12432 0.23937,-5.26669 0.47865,-26.33348 0.23937,-34.23351 -0.23937,-7.90005 7.41852,-76.34595 7.41852,-81.61264 0,-5.26669 -3.32625,-7.43534 -8.43384,-10.81094 -7.21303,-4.76706 -23.15487,-9.5588 -28.65897,-15.54368 4.54687,5.5061 -5.02547,15.32129 -9.57234,17.47585 -4.54685,2.15456 -13.61572,16.75214 -14.98901,21.04736 -1.37328,4.29521 -0.53545,25.94717 0.35855,30.69596 0.89401,4.74876 1.58436,14.94252 0.84331,18.96419 -0.74103,4.02168 0.42031,13.02015 1.35903,17.75899 0.93872,4.73884 1.57561,17.76404 1.51676,21.55427 -0.0588,3.79022 0.071,12.56578 0.61859,14.94442 0.5475,2.37865 0.0197,0.47441 0.56181,2.85427 0.5421,2.37984 0.23962,7.368 -0.13155,10.69566 -0.37118,3.32765 0.41611,8.10014 0.91094,10.25109 0.49482,2.15096 -0.12328,7.63486 -0.1064,9.78567 z" style="fill:#e6e6e6;fill-opacity:1;fill-rule:evenodd;stroke:#b3b3b3;stroke-width:0.99999994px;stroke-linecap:butt;stroke-linejoin:miter;stroke-opacity:1" />
    <path sodipodi:nodetypes="csssccccc" inkscape:connector-curvature="0" id="path4411-4" d="m 280.56746,185.76017 c -0.79871,-2.55677 -0.63897,-11.50547 -1.11818,-14.70144 -0.47923,-3.19597 4.15324,-6.23215 7.82728,-6.39194 3.67403,-0.1598 19.80782,-4.95376 19.64808,-9.58791 -0.15974,-4.63415 -6.86884,-5.27334 -11.98054,-5.27334 -0.15974,-1.91759 -0.0958,-7.03114 -0.0958,-7.03114 11.34157,-0.3196 18.46599,5.59295 15.11145,15.18085 4.95195,2.23718 3.51429,9.90751 4.47273,12.30449 -8.62599,7.51052 -24.4403,4.95375 -33.86498,15.50043 z" style="fill:#e6e6e6;fill-opacity:1;fill-rule:evenodd;stroke:#b3b3b3;stroke-width:0.99999994px;stroke-linecap:butt;stroke-linejoin:miter;stroke-opacity:1" />
    <path sodipodi:nodetypes="csssc" inkscape:connector-curvature="0" id="path4709-30" d="m 274.81043,196.05964 c 8.30378,-11.07493 32.98665,-11.88873 39.59737,-10.30159 6.61073,1.58714 4.75974,-5.81954 1.58657,-6.87765 -3.17314,-1.05809 -6.61072,-1.85166 -11.89929,-1.85166 -5.28858,0 -22.1298,-0.22403 -29.28465,19.0309 z" style="fill:#cccccc;fill-opacity:1;fill-rule:evenodd;stroke:none;stroke-width:1px;stroke-linecap:butt;stroke-linejoin:miter;stroke-opacity:1" />
    <path sodipodi:nodetypes="ccsc" inkscape:connector-curvature="0" id="path4415-30" d="m 269.4815,160.83163 c -1.5974,-3.51557 -0.63895,-8.69296 -0.63895,-10.61054 -6.86884,-1.59799 -17.34786,0.70304 -17.34786,4.85779 0,4.15476 5.84653,5.59295 17.98681,5.75275 z" style="fill:#e6e6e6;fill-opacity:1;fill-rule:evenodd;stroke:#b3b3b3;stroke-width:0.99999994px;stroke-linecap:butt;stroke-linejoin:miter;stroke-opacity:1" />
    <path sodipodi:nodetypes="cssssssssssssscccsc" inkscape:connector-curvature="0" id="path3339-53" d="m 236.41197,342.85501 c -1.19654,-2.40143 -2.04115,-4.73744 0.31793,-6.08945 2.35907,-1.35202 0.63512,-4.73051 -0.40868,-6.75552 -1.04382,-2.02499 -1.7571,-4.3868 -1.17239,-8.42898 0.58468,-4.04219 -0.13377,-15.46865 0.16587,-16.47569 0.29968,-1.00705 0.59926,-2.01409 -0.16221,-4.02662 -0.76145,-2.01253 0.14916,-8.04567 0.67572,-11.05928 0.52656,-3.01361 0.71516,-12.04612 -0.31777,-12.38075 -1.03294,-0.33463 -1.25834,-1.33781 -0.28165,-2.00635 0.97671,-0.66854 1.58737,-1.83877 1.33526,-6.18396 -0.25212,-4.3452 2.5559,-22.7249 4.11913,-24.89686 1.56322,-2.17196 -20.72777,-55.85921 -15.31147,-62.16338 3.60117,-4.19151 6.43024,-7.78679 8.12239,-8.97174 1.69217,-1.18495 6.26102,-3.55484 11.33752,-4.73978 5.0765,-1.18495 18.37452,-8.68131 20.57434,-10.71264 0.84608,5.4169 8.36169,15.11386 14.79193,15.11386 l 5.22925,161.69272 c -2.46035,0.28714 -12.01357,-0.066 -16.6061,0.83507 -12.41139,2.43501 -26.91428,0.22951 -32.40907,7.24935 z" style="fill:#e6e6e6;fill-opacity:1;fill-rule:evenodd;stroke:#b3b3b3;stroke-width:0.99999994px;stroke-linecap:butt;stroke-linejoin:miter;stroke-opacity:1" />
    <path sodipodi:nodetypes="ssssscss" inkscape:connector-curvature="0" id="path3993-67" d="m 270.67356,310.86448 c -0.80492,-1.92024 5.99757,-3.50038 7.25763,-7.06631 1.04557,-2.95889 -1.13047,-3.59126 -4.08964,-1.57791 -2.78816,1.89702 -5.18014,-3.93404 -2.839,-7.37533 2.02359,-2.97454 8.85379,-3.60413 9.16298,-1.70451 0.30921,1.89964 3.24273,15.93045 -0.5794,23.62951 -0.49146,-5.95544 -2.13936,-6.79938 -3.4811,-5.50362 -1.34174,1.29576 -4.66338,1.43047 -5.43147,-0.40183 z" style="fill:#cccccc;fill-opacity:1;fill-rule:evenodd;stroke:none;stroke-width:1px;stroke-linecap:butt;stroke-linejoin:miter;stroke-opacity:1" />
    <path sodipodi:nodetypes="csscsssssscc" inkscape:connector-curvature="0" id="path3977-28" d="m 288.78627,335.11319 c -0.0514,-6.93104 -2.08006,-96.41312 -3.49487,-102.8283 -1.41482,-6.41515 -0.96767,-25.45343 -1.25712,-28.79381 -0.28944,-3.3404 -0.12545,-18.40557 -0.12545,-21.03891 -5.98271,7.42125 -9.74267,13.8696 -10.42254,16.25509 -0.67988,2.38551 0.0245,27.36547 0.92601,32.11257 0.90151,4.74711 1.26928,12.80482 0.99721,16.82865 -0.27207,4.02382 0.33613,11.36309 1.04302,16.10026 0.70689,4.73717 1.71149,15.63247 1.45881,20.13077 -0.25267,4.49829 0.32352,12.56287 0.9431,16.84066 0.61957,4.27779 1.67718,28.80683 1.26305,34.53798 2.28908,0.0231 8.66878,-0.14496 8.66878,-0.14496 z" style="fill:#e6e6e6;fill-opacity:1;fill-rule:evenodd;stroke:#b3b3b3;stroke-width:0.99999994px;stroke-linecap:butt;stroke-linejoin:miter;stroke-opacity:1" />
    <path sodipodi:nodetypes="csssssc" inkscape:connector-curvature="0" id="path4707-8" d="m 246.18519,167.24133 c -0.79328,4.76144 -11.89929,5.81954 -11.63486,9.25836 0.26442,3.43882 5.02414,7.40669 7.66843,7.14217 2.64429,-0.26453 19.83215,-0.79358 21.68315,-2.38073 1.851,-1.58715 4.75972,-2.38073 7.13958,0.52905 2.37986,2.90978 8.46171,0.52905 7.66842,-1.58715 -0.79328,-2.11619 0,-12.43265 -32.52472,-12.9617 z" style="fill:#cccccc;fill-opacity:1;fill-rule:evenodd;stroke:none;stroke-width:1px;stroke-linecap:butt;stroke-linejoin:miter;stroke-opacity:1" />
    <path inkscape:connector-curvature="0" id="path3391-13" d="m 282.11402,183.40976 c -0.11965,-4.30912 -8.37579,-11.13188 -10.88853,-13.16674 -2.51274,-2.03486 -15.2825,-13.88493 -17.613,-15.68039 -6.96224,2.03486 -11.70228,4.42881 -11.58263,7.54095 0.11966,3.11214 1.06531,3.35153 2.41501,3.83032 -0.76875,2.99244 3.33834,4.30912 7.47459,4.54851 4.13623,0.2394 15.35744,0.83788 19.78465,3.59093 4.4272,2.75304 7.77752,9.21672 10.40991,9.33642 z" style="fill:#e6e6e6;fill-opacity:1;fill-rule:evenodd;stroke:#b3b3b3;stroke-width:0.99999994px;stroke-linecap:butt;stroke-linejoin:miter;stroke-opacity:1" sodipodi:nodetypes="cscscssc" />
    <path sodipodi:nodetypes="csssscsssssc" inkscape:connector-curvature="0" id="path3364-94" d="m 273.95272,197.99179 c 3.94624,-7.63354 12.1099,-16.49719 18.57122,-17.69417 6.46133,-1.19698 31.34942,-4.78791 31.58871,-6.46368 0.23927,-1.67577 -1.91443,-3.83032 -2.63237,-4.7879 -0.71793,-0.95758 -1.43586,-2.87274 -1.67515,-4.78791 -0.23936,-1.91515 -5.74343,-1.43636 -6.93998,-2.15455 3.35033,1.43637 7.8972,2.15455 3.58963,4.30911 -4.30755,2.15456 -6.70063,3.83033 -9.33303,5.26669 -2.6324,1.43638 -6.46132,1.91517 -8.3758,1.43638 -1.91446,-0.47879 -6.22201,-0.23939 -7.41855,1.19697 -1.19655,1.43638 -3.11102,0.95759 -5.5041,3.59094 -2.39308,2.63334 -10.77439,13.16796 -11.87058,20.08812 z" style="fill:#e6e6e6;fill-opacity:1;fill-rule:evenodd;stroke:#b6b6b6;stroke-width:0.99999994px;stroke-linecap:butt;stroke-linejoin:miter;stroke-opacity:0.8446623" />
    <path sodipodi:nodetypes="cssscsssscsssssscc" inkscape:connector-curvature="0" id="path3559-95" d="m 234.68249,181.03176 c -0.43539,0.0547 -0.78891,0.49325 -0.78891,1.30121 0,2.15456 -0.0149,10.14977 0.0158,11.93841 0.0307,1.78865 -1.96762,3.57633 -2.72954,1.19216 -0.58421,-1.82814 -1.48742,-2.24113 -1.86067,-1.21164 4.94879,17.87566 12.54159,48.66261 11.36392,50.29886 -1.56322,2.17197 -4.37122,20.55173 -4.11911,24.89693 0.25212,4.3452 -0.35887,5.51628 -1.33558,6.18481 -0.97671,0.66855 -0.75113,1.67076 0.28181,2.00541 0.9919,0.32135 0.85527,8.61122 0.37486,11.94239 10.78003,-8.28169 9.36638,-47.84689 10.48485,-49.6006 1.20578,-1.89062 3.73289,-8.27826 3.53015,-10.05527 -0.20272,-1.77701 -1.03427,-1.77732 -1.19906,-0.23781 -0.16477,1.53952 -2.06254,1.65422 -2.66104,-0.9525 -0.59849,-2.6067 -2.92263,-15.77496 -2.92675,-19.69747 -0.004,-3.92252 -6.96123,-5.11474 -6.78866,-7.85295 0.17255,-2.73821 -0.15741,-13.82371 -0.0377,-17.17523 0.0748,-2.09471 -0.87867,-3.06788 -1.6043,-2.97671 z" style="fill:#cccccc;fill-opacity:1;fill-rule:evenodd;stroke:none;stroke-width:1px;stroke-linecap:butt;stroke-linejoin:miter;stroke-opacity:1" />
    <path inkscape:connector-curvature="0" id="path5376-8" d="m 253.28574,155.7345 c -4.53343,1.45489 -9.71065,4.2324 -9.03187,6.08407 0.67878,1.85167 3.11719,0.52905 2.69467,-0.26453 -0.42251,-0.79357 3.88659,-2.38072 5.73015,-2.90977 1.84357,-0.52905 -1.43139,2.51299 -3.38696,3.30656 -1.95556,0.79357 -2.03573,3.1743 0.38173,1.98394 2.41746,-1.19037 8.56043,-2.64525 12.05544,-1.85168 -4.39757,-2.77751 -8.44316,-6.34859 -8.44316,-6.34859 z" style="fill:#cccccc;fill-opacity:1;fill-rule:evenodd;stroke:none;stroke-width:1px;stroke-linecap:butt;stroke-linejoin:miter;stroke-opacity:1" sodipodi:nodetypes="cssssscc" />
    <path sodipodi:nodetypes="cssssscc" inkscape:connector-curvature="0" id="path5390-8" d="m 268.85759,157.45392 c -1.31665,-0.13227 -1.73591,-1.85168 -3.45811,-1.85168 -1.72217,0 -2.33948,-0.66132 -2.9598,-1.45488 -0.62032,-0.79358 -2.48915,-0.92585 -3.27177,0.6613 -0.78262,1.58716 -2.19338,1.58716 -2.17688,2.90977 0.0166,1.32263 -5.51938,-0.66131 -4.69556,-4.10012 0.8238,-3.43883 8.60088,-6.08407 16.17632,-3.96787 0.4339,4.49692 0.0772,5.81953 0.3858,7.80348 z" style="fill:#cccccc;fill-opacity:1;fill-rule:evenodd;stroke:none;stroke-width:1px;stroke-linecap:butt;stroke-linejoin:miter;stroke-opacity:1" />
    <path inkscape:connector-curvature="0" id="path3983-3" d="m 279.9364,172.23148 c -1.18516,-5.58617 -7.6408,-12.52657 -11.36357,-13.71152 -3.72276,-1.18494 -13.83621,-0.67711 -14.2666,-2.87772 -0.43038,-2.20062 4.93728,-4.73978 14.37719,-4.06268 l -0.107,-6.60183 c -9.15654,0 -19.40649,3.89339 -19.24105,9.14101 0.16544,5.24761 4.52924,7.10967 8.04962,7.27895 3.52037,0.16928 16.89031,8.63318 24.67428,20.48264 0.33844,-3.89339 -1.74491,-8.29462 -2.12287,-9.64885 z" style="fill:#e6e6e6;fill-opacity:1;fill-rule:evenodd;stroke:#b3b3b3;stroke-width:0.99999994px;stroke-linecap:butt;stroke-linejoin:miter;stroke-opacity:1" sodipodi:nodetypes="cssccsscc" />
    <path sodipodi:nodetypes="cc" inkscape:connector-curvature="0" id="path3991-7" d="m 243.19511,253.33361 c -5.7031,8.26351 -6.57231,32.70228 -4.7538,52.16788" style="fill:#cccccc;fill-opacity:1;fill-rule:evenodd;stroke:none;stroke-width:1px;stroke-linecap:butt;stroke-linejoin:miter;stroke-opacity:1" />
    <path sodipodi:nodetypes="cscccc" inkscape:connector-curvature="0" id="path4189-00" d="m 322.55714,190.95071 c -1.1965,-5.50609 4.18786,-13.88493 5.38445,-13.04704 1.19659,0.83787 -2.03416,5.98487 -0.83757,11.73036 1.19649,5.74548 -2.51272,4.7879 -2.87173,2.51365 -0.35893,-2.27426 0.95721,-5.38639 0.83757,-5.98488 -1.67515,1.67577 -2.39308,3.35153 -2.51272,4.78791 z" style="fill:#cccccc;fill-opacity:1;fill-rule:evenodd;stroke:none;stroke-width:1px;stroke-linecap:butt;stroke-linejoin:miter;stroke-opacity:1" />
    <path sodipodi:nodetypes="sssssss" inkscape:connector-curvature="0" id="path4393-9" d="m 256.38596,328.28252 c -2.19537,-0.21379 -14.53439,-1.22462 -15.70937,-1.09491 -1.17498,0.12972 -1.92616,2.35656 -0.87681,2.48851 1.04933,0.13195 2.12936,2.75517 0.82955,3.54082 -1.29982,0.78565 -1.54299,2.75346 0.80755,2.49388 2.35053,-0.25957 12.19287,-1.80478 15.40466,-1.91982 3.21178,-0.11503 1.6005,-5.30825 -0.45558,-5.50848 z" style="fill:#cccccc;fill-opacity:1;fill-rule:evenodd;stroke:none;stroke-width:1px;stroke-linecap:butt;stroke-linejoin:miter;stroke-opacity:1" />
    <path sodipodi:nodetypes="sssssssss" inkscape:connector-curvature="0" id="path4395-9" d="m 242.40218,321.95389 c -0.32171,3.02841 -3.07811,2.74412 -2.99301,0.65075 0.0851,-2.09336 -2.65262,-1.57241 -2.35441,-5.10097 0.2982,-3.52859 3.1019,-9.65937 3.70701,-10.96259 0.60512,-1.30323 -1.16169,-12.24689 -0.53488,-17.9668 0.62681,-5.71991 3.9637,0.91572 3.81007,3.1266 -0.15362,2.21085 -0.44697,17.19166 -0.003,18.7584 0.44378,1.56676 4.15004,3.66459 4.20888,5.75518 0.0588,2.09059 -5.40976,1.68469 -5.84048,5.73943 z" style="fill:#cccccc;fill-opacity:1;fill-rule:evenodd;stroke:none;stroke-width:1px;stroke-linecap:butt;stroke-linejoin:miter;stroke-opacity:1" />
    <path sodipodi:nodetypes="sssss" inkscape:connector-curvature="0" id="path4403-4" d="m 230.01316,190.62345 c 2.03347,-0.87419 4.21142,-12.18546 2.51711,-13.4284 -1.6943,-1.24294 -1.46839,1.92091 -2.93679,3.05086 -1.46839,1.12994 -3.50156,2.1469 -3.04974,3.38984 0.45181,1.24293 2.35757,7.46569 3.46942,6.9877 z" style="fill:#cccccc;fill-opacity:1;fill-rule:evenodd;stroke:none;stroke-width:1px;stroke-linecap:butt;stroke-linejoin:miter;stroke-opacity:1" />
    <path sodipodi:nodetypes="sss" inkscape:connector-curvature="0" id="path4417-3" d="m 298.57541,312.2948 c 0.6297,-1.12058 -7.10482,-9.36677 -8.44576,-8.42947 -1.34093,0.93729 7.47894,10.14998 8.44576,8.42947 z" style="fill:#cccccc;fill-opacity:1;fill-rule:evenodd;stroke:none;stroke-width:1px;stroke-linecap:butt;stroke-linejoin:miter;stroke-opacity:1" />
    <path sodipodi:nodetypes="ccc" inkscape:connector-curvature="0" id="path4711-6" d="m 319.7933,182.81152 c 0.74793,-3.08628 4.48751,-8.04302 5.32897,-7.66893 0.84137,0.3741 -2.43076,4.86323 -5.32897,7.66893 z" style="fill:#cccccc;fill-opacity:1;fill-rule:evenodd;stroke:none;stroke-width:1px;stroke-linecap:butt;stroke-linejoin:miter;stroke-opacity:1" />
    <path sodipodi:nodetypes="csssssssc" inkscape:connector-curvature="0" id="path4713-8" d="m 250.49652,239.28378 c 1.91078,1.11318 4.68474,-6.09172 3.52351,-11.27875 -1.16122,-5.18702 -0.87545,-7.412 0.1475,-9.82162 1.02294,-2.40964 -0.92308,-5.01135 -2.08757,-6.49826 -1.16447,-1.4869 -3.81237,-9.66873 -5.3086,-9.85569 -1.49622,-0.18696 -1.35807,5.01967 -0.21798,5.7638 1.14009,0.74413 0.89316,14.47431 1.37046,16.88295 0.47728,2.40866 2.82641,0.9304 3.82913,2.59877 1.00271,1.66834 -2.26026,10.72774 -1.25645,12.2088 z" style="fill:#cccccc;fill-opacity:1;fill-rule:evenodd;stroke:none;stroke-width:1px;stroke-linecap:butt;stroke-linejoin:miter;stroke-opacity:1" />
    <path sodipodi:nodetypes="sss" inkscape:connector-curvature="0" id="path5052-8" d="m 297.33827,327.30453 c -0.11047,-1.71285 -7.19762,-1.96415 -7.28103,-0.22755 -0.0808,1.68163 7.35388,1.35717 7.28103,0.22755 z" style="fill:#cccccc;fill-opacity:1;fill-rule:evenodd;stroke:none;stroke-width:1px;stroke-linecap:butt;stroke-linejoin:miter;stroke-opacity:1" />
    <path sodipodi:nodetypes="sss" inkscape:connector-curvature="0" id="path5054-5" d="m 306.67338,324.51615 c 1.19898,-2.50621 -8.81909,-9.98715 -9.80157,-9.07805 -0.98246,0.90913 9.16694,10.40463 9.80157,9.07805 z" style="fill:#cccccc;fill-opacity:1;fill-rule:evenodd;stroke:none;stroke-width:1px;stroke-linecap:butt;stroke-linejoin:miter;stroke-opacity:1" />
    <path sodipodi:nodetypes="sssss" inkscape:connector-curvature="0" id="path5366-5" d="m 313.06352,222.42366 c 1.65311,-0.52886 -0.16704,-14.55256 -2.41733,-17.16977 -2.25029,-2.61722 -4.68692,-5.60865 -6.73741,-5.04891 -2.05047,0.55975 2.64304,5.97988 3.22183,8.22047 0.57881,2.24061 3.4548,14.79098 5.93291,13.99821 z" style="fill:#cccccc;fill-opacity:1;fill-rule:evenodd;stroke:none;stroke-width:1px;stroke-linecap:butt;stroke-linejoin:miter;stroke-opacity:1" />
    <path sodipodi:nodetypes="cssc" inkscape:connector-curvature="0" id="path5368-4" d="m 294.44342,144.4922 c 6.08187,0 14.27916,1.0581 14.01473,8.06801 -0.26443,7.0099 -13.48587,13.62302 -17.18787,13.88754 -3.702,0.26453 -9.65165,-1.0581 -11.50265,6.21633" style="fill:none;fill-opacity:1;fill-rule:evenodd;stroke:#b3b3b3;stroke-width:0.99999994px;stroke-linecap:butt;stroke-linejoin:miter;stroke-opacity:1" />
    <path inkscape:connector-curvature="0" id="path5370-2" d="m 268.2688,146.87293 c -5.79664,0 -17.51951,1.45488 -17.34331,7.40668 0.17619,5.95182 7.02587,5.42276 10.15941,5.68729 3.13353,0.26453 12.95339,0.39678 18.96184,13.62301" style="fill:none;fill-opacity:1;fill-rule:evenodd;stroke:#b3b3b3;stroke-width:0.99999994px;stroke-linecap:butt;stroke-linejoin:miter;stroke-opacity:1" sodipodi:nodetypes="cssc" />
    <path sodipodi:nodetypes="cssc" inkscape:connector-curvature="0" id="path5374-5" d="m 321.15073,168.96074 c 0.39661,2.64524 -1.85099,2.51298 -4.75972,2.7775 -2.90871,0.26453 -9.255,2.51299 -11.89929,3.43882 -2.64429,0.92583 -22.93956,1.23452 -29.9385,21.41002" style="fill:none;fill-opacity:1;fill-rule:evenodd;stroke:#bdbdbd;stroke-width:0.99999994px;stroke-linecap:butt;stroke-linejoin:miter;stroke-opacity:1" />
    <path sodipodi:nodetypes="sssssssssss" inkscape:connector-curvature="0" id="path5392-61" d="m 267.12801,304.06684 c -0.27397,-1.40218 -5.3345,-1.70296 -6.66355,-0.6905 -1.32905,1.01247 -4.06907,1.09162 -4.46891,2.6665 -0.39985,1.57489 -4.93535,3.1339 -5.15042,4.98984 -0.21506,1.85594 -0.61494,7.15099 1.29267,6.32164 1.90763,-0.82934 0.35399,-3.71573 0.95579,-5.01335 0.6018,-1.29764 0.82378,-0.0896 1.49133,0.74918 0.66756,0.8388 1.91832,-0.17705 1.88894,-1.10576 -0.0294,-0.92871 1.15158,-1.20164 1.46029,-2.87055 0.30871,-1.66893 0.50669,-3.80164 2.63444,-2.95493 2.12775,0.84672 6.95706,-0.0568 6.55942,-2.09207 z" style="fill:#cccccc;fill-opacity:1;fill-rule:evenodd;stroke:none;stroke-width:1px;stroke-linecap:butt;stroke-linejoin:miter;stroke-opacity:1" />
    <path sodipodi:nodetypes="sssss" inkscape:connector-curvature="0" id="path3870-4" d="m 315.62925,315.14789 c 1.31656,-0.53013 -3.10342,-10.17032 -3.86924,-10.70547 -0.76582,-0.53516 -7.19069,2.93588 -6.53711,3.99564 0.65357,1.05976 3.3502,-1.27383 4.99458,-0.59598 1.64438,0.67785 3.86256,7.92961 5.41177,7.30581 z" style="fill:#cccccc;fill-opacity:1;fill-rule:evenodd;stroke:none;stroke-width:1px;stroke-linecap:butt;stroke-linejoin:miter;stroke-opacity:1" />
    <path sodipodi:nodetypes="sssss" inkscape:connector-curvature="0" id="path3872-9" d="m 256.80508,325.07998 c 0.97495,1.42479 13.02504,-9.12657 13.11994,-10.30863 0.0949,-1.18208 -0.47316,-7.09579 -2.23585,-6.18957 -1.7627,0.90621 0.52948,4.59966 -0.32971,5.90755 -0.85919,1.30788 -11.84085,8.7106 -10.55438,10.59065 z" style="fill:#cccccc;fill-opacity:1;fill-rule:evenodd;stroke:none;stroke-width:1px;stroke-linecap:butt;stroke-linejoin:miter;stroke-opacity:1" />
    <path sodipodi:nodetypes="sss" inkscape:connector-curvature="0" id="path3874-5" d="m 243.00885,325.69274 c 0.70374,1.62324 15.8865,-5.60376 15.59528,-6.92042 -0.29123,-1.31668 -16.28302,5.33407 -15.59528,6.92042 z" style="fill:#cccccc;fill-opacity:1;fill-rule:evenodd;stroke:none;stroke-width:1px;stroke-linecap:butt;stroke-linejoin:miter;stroke-opacity:1" />
    <path inkscape:connector-curvature="0" id="path5390-8-6" d="m 262.77773,148.89364 c -5.55468,0.0124 -9.86444,2.14547 -10.48229,4.72459 -0.82382,3.43881 4.71126,5.4222 4.69474,4.09959 -0.004,-0.26895 0.0549,-0.47452 0.13828,-0.65855 -1.60754,-0.29346 -2.68496,-0.72005 -2.82141,-1.41773 -0.42989,-2.19806 4.92202,-4.73314 14.34555,-4.06428 -0.0493,-0.59911 -0.10649,-1.16296 -0.18013,-1.9262 -1.89382,-0.52905 -3.84319,-0.76155 -5.69474,-0.75742 z" style="fill:#cccccc;fill-opacity:1;fill-rule:evenodd;stroke:none;stroke-width:1px;stroke-linecap:butt;stroke-linejoin:miter;stroke-opacity:1" sodipodi:nodetypes="ssscsccs" />
    <path sodipodi:nodetypes="csccssssscsscccsscscccccccccccsccc" inkscape:connector-curvature="0" id="path3447-68-8" d="m 330.66124,187.63489 c -0.33226,2.9e-4 -0.56648,0.28571 -0.56648,0.92161 0,2.03485 -0.47884,11.49135 -2.39326,14.84289 -1.91452,3.35153 1.55587,7.42109 -1.07659,11.13173 -2.63236,3.71063 -0.35802,3.82984 -2.63145,4.54803 -2.27345,0.71818 -6.46257,-0.83693 -3.94985,-2.03391 2.51271,-1.19698 3.70966,-2.75323 0.71829,-3.5911 -2.99137,-0.83789 -1.79479,-3.71122 0,-4.9082 1.79478,-1.19698 2.51389,-2.15403 1.55668,-3.351 -0.95721,-1.19698 -0.59901,-3.35106 -0.24,-4.54803 0.35892,-1.19698 -1.55632,-1.31808 -2.03497,0.11829 -0.47865,1.43637 -0.59793,3.35139 0.12,4.06958 0.71793,0.71818 -0.11974,1.67621 -1.19658,1.9156 -1.07695,0.2394 -1.55418,1.07809 -1.91315,2.03567 -0.35896,0.95759 -1.30136,-0.12294 -0.94733,-1.07942 0.35404,-0.9565 0.94769,-2.75252 -0.01,-3.47065 -0.95742,-0.71815 -1.79513,-2.27237 -2.03444,-2.99055 -0.23932,-0.71818 -1.078,0.23945 -0.95707,1.19676 0.12094,0.95729 2.87106,16.39753 5.50343,23.10059 2.63236,6.70307 2.39289,10.53334 2.27325,12.92729 0.11964,1.67577 -0.71721,53.02593 7.2996,54.10321 -0.27225,-0.59928 -0.17991,-1.80507 0.24182,-3.22212 0.0443,-3.48239 0.0704,-6.94411 0.0795,-10.52438 -0.64997,0.80008 -1.19522,1.84218 -1.51772,3.21328 -0.98641,-3.64312 0.14366,-5.9358 1.5301,-7.3111 -0.009,-3.09262 -0.0371,-5.8334 -0.0954,-7.77013 -0.0154,-0.50121 0,-1.25525 0.0479,-2.21223 -0.37556,-0.31918 -0.61095,-0.76497 -0.646,-1.37888 -0.0335,-0.59149 0.32484,-1.60507 0.91953,-2.869 0.46256,-6.26796 1.38507,-15.99509 2.4144,-26.41071 -2.48805,-0.39389 -3.59608,-6.50249 -2.01726,-13.45165 1.79479,-7.90005 4.06877,-26.57329 3.70976,-29.56573 -0.2467,-2.05731 -1.45566,-3.43639 -2.18669,-3.43574 z" style="fill:#cccccc;fill-opacity:1;fill-rule:evenodd;stroke:none;stroke-width:1px;stroke-linecap:butt;stroke-linejoin:miter;stroke-opacity:1" />
    <path sodipodi:nodetypes="cc" inkscape:connector-curvature="0" id="path3973-20" d="m 260.45662,313.88017 c -1.91446,-0.2394 -17.70883,8.61823 -22.97361,9.33641" style="fill:none;fill-opacity:1;fill-rule:evenodd;stroke:#b3b3b3;stroke-width:1.00000012px;stroke-linecap:butt;stroke-linejoin:miter;stroke-opacity:1" />
    <path sodipodi:nodetypes="cc" inkscape:connector-curvature="0" id="path3975-8" d="m 326.01652,324.72619 c -4.25085,-3.60592 -17.8584,-6.97125 -22.85181,-11.29409" style="fill:none;fill-opacity:1;fill-rule:evenodd;stroke:#b3b3b3;stroke-width:1.00000012px;stroke-linecap:butt;stroke-linejoin:miter;stroke-opacity:1" />
  </g>
  <path style="fill:#e6e6e6;fill-opacity:1;fill-rule:evenodd;stroke:#b3b3b3;stroke-width:0.99999994px;stroke-linecap:butt;stroke-linejoin:miter;stroke-opacity:1" d="m 210.55897,321.18702 c 5.26478,-2.63334 20.90544,-5.18993 30.05768,-4.69261 -1.91992,-5.79175 -3.09336,-10.54842 -4.49344,-11.71379 -1.40008,-1.16541 -1.00115,-2.27246 0.0902,-3.34415 1.09132,-1.07171 1.69309,-1.93281 -0.60394,-4.43724 -2.29701,-2.50442 -0.98371,-6.01077 -0.70471,-9.72522 0.27901,-3.71448 0.13045,-4.36853 1.56061,-6.28904 1.43017,-1.9205 1.08231,-7.48778 0.12948,-8.40812 -0.95285,-0.92033 -0.94841,-1.36143 0.50741,-2.62806 1.45582,-1.26664 1.00481,-4.14407 0.78326,-5.90822 -0.22154,-1.76414 0.7375,-1.50945 1.23962,-3.46423 0.50213,-1.95478 5.45126,-16.03501 5.44327,-19.56073 -0.003,-1.37074 2.81575,-12.63366 2.01763,-19.68777 -0.43837,-3.87449 -0.61068,-16.23008 -2.20475,-20.05931 -4.77642,-11.47383 -9.05644,-15.6727 -15.39432,-18.64599 -4.93152,-2.31353 -5.15086,8.99678 -5.53089,12.49583 -0.38004,3.49906 -2.29673,11.35116 -2.77847,17.60619 -0.48174,6.25501 -3.40017,15.91564 -4.73443,20.1039 -1.33426,4.18825 -2.77099,10.91241 -2.80202,13.5214 -0.031,2.60901 -0.79089,6.08294 -1.27476,6.51698 -0.48388,0.43404 -3.37863,2.39273 -2.44998,4.78313 0.92866,2.39038 3.30932,3.48182 2.57366,5.00683 -0.73566,1.52502 -3.38995,3.4934 -4.12917,5.46706 -0.7392,1.97368 1.33673,9.45141 2.03592,11.44667 0.69917,1.99525 -3.70667,5.57554 -4.17552,8.95311 -0.46885,3.37757 2.58771,3.13749 2.67257,4.7243 0.0849,1.58682 -0.86304,3.86963 -2.14828,5.02443 -1.28525,1.15479 -0.66317,4.13893 0.64332,5.05397 1.30653,0.91504 3.47031,2.99826 2.67647,3.93129 -0.79386,0.93304 -0.0604,3.50085 0.0522,5.62002 0.11266,2.11917 0.46275,6.39421 0.94137,8.30937 z" id="path3360-66" inkscape:connector-curvature="0" sodipodi:nodetypes="ccssssssssssssssssscsssssssssscc" />
  <path style="fill:#cccccc;fill-opacity:1;fill-rule:evenodd;stroke:none;stroke-width:1px;stroke-linecap:butt;stroke-linejoin:miter;stroke-opacity:1" d="m 234.97214,298.69991 c -0.1319,-0.85257 -12.14097,-1.9094 -14.35422,-3.11285 -2.21324,-1.20345 -10.05334,-0.65102 -10.60471,0.4166 -0.4413,0.85451 9.54769,3.35573 11.29644,2.38287 1.74877,-0.97287 6.71121,0.52039 7.50695,0.36594 0.79575,-0.15448 6.29118,0.82358 6.15554,-0.0526 z" id="path3368-31" inkscape:connector-curvature="0" sodipodi:nodetypes="sssscs" />
  <path style="fill:#cccccc;fill-opacity:1;fill-rule:evenodd;stroke:none;stroke-width:1px;stroke-linecap:butt;stroke-linejoin:miter;stroke-opacity:1" d="m 219.99516,302.72245 c 0.49469,-1.05242 -3.49676,-2.81131 -5.38747,-2.90438 -1.89072,-0.0931 -3.36579,-0.92333 -5.00992,-1.47223 -0.96966,-0.3218 -2.97822,0.6611 -3.07139,1.55457 -0.0931,0.89347 1.88383,3.32524 3.20723,3.48647 1.32341,0.16124 9.69754,0.53545 10.26155,-0.66443 z" id="path3370-60" inkscape:connector-curvature="0" sodipodi:nodetypes="sscsss" />
  <path style="fill:#cccccc;fill-opacity:1;fill-rule:evenodd;stroke:none;stroke-width:1px;stroke-linecap:butt;stroke-linejoin:miter;stroke-opacity:1" d="m 219.20953,292.13616 c 0.008,-1.12032 -2.3623,-1.55107 -3.20412,-2.2765 -0.84181,-0.7254 -2.02562,-0.97334 -3.21765,-0.0216 -1.19204,0.95174 -3.47683,1.03338 -4.48817,0.55915 0.75421,0.95392 1.93735,1.1115 2.77756,1.99262 0.84022,0.88113 1.4325,0.88124 3.21224,0.65269 1.77976,-0.22855 4.90657,1.09423 4.92014,-0.90635 z" id="path3372-05" inkscape:connector-curvature="0" sodipodi:nodetypes="ssscsss" />
  <path style="fill:#cccccc;fill-opacity:1;fill-rule:evenodd;stroke:none;stroke-width:1px;stroke-linecap:butt;stroke-linejoin:miter;stroke-opacity:1" d="m 223.27049,294.14896 c 0.25264,-0.79816 9.9082,-1.19844 10.1784,0.0595 0.27018,1.25792 -3.05708,0.55191 -4.67549,0.37521 -1.61839,-0.1767 -2.15917,-0.17986 -3.13801,0.13264 -0.97883,0.31249 -2.19629,0.31239 -2.3649,-0.56731 -0.1686,-0.87971 0,-4e-5 0,-4e-5 z" id="path3374-85" inkscape:connector-curvature="0" sodipodi:nodetypes="csssscc" />
  <path style="fill:#cccccc;fill-opacity:1;fill-rule:evenodd;stroke:none;stroke-width:1px;stroke-linecap:butt;stroke-linejoin:miter;stroke-opacity:1" d="m 219.26027,285.37316 c 2.04068,-0.76086 6.80692,-2.55266 5.64193,-5.09519 -1.16501,-2.54253 -16.64506,4.55289 -16.67063,7.89042 1.87139,-1.43857 22.79657,-11.32427 11.0287,-2.79523 z" id="path3437-45" inkscape:connector-curvature="0" sodipodi:nodetypes="cscc" />
  <path style="fill:#cccccc;fill-opacity:1;fill-rule:evenodd;stroke:none;stroke-width:1px;stroke-linecap:butt;stroke-linejoin:miter;stroke-opacity:1" d="m 230.53515,277.13809 c 0.39781,-1.06687 -5.88471,-7.04556 -7.40016,-6.89345 -3.90562,0.39201 -6.2565,-1.48494 -7.27943,-0.8728 -1.02294,0.61216 1.66181,2.95823 4.53882,3.46885 2.87701,0.51061 9.74543,5.35768 10.14077,4.2974 z" id="path3439-61" inkscape:connector-curvature="0" sodipodi:nodetypes="sssss" />
  <path style="fill:#cccccc;fill-opacity:1;fill-rule:evenodd;stroke:none;stroke-width:1px;stroke-linecap:butt;stroke-linejoin:miter;stroke-opacity:1" d="m 221.09059,268.25117 c 1.13896,-0.74652 -2.9273,-6.21829 -5.93208,-5.2552 -3.00478,0.96312 -4.15822,2.49668 -3.80538,3.04325 0.35286,0.54658 1.98915,-1.3102 4.26197,-1.07598 2.27281,0.23421 4.67236,3.81434 5.47549,3.28793 z" id="path3441-08" inkscape:connector-curvature="0" sodipodi:nodetypes="sssss" />
  <path style="fill:#cccccc;fill-opacity:1;fill-rule:evenodd;stroke:none;stroke-width:1px;stroke-linecap:butt;stroke-linejoin:miter;stroke-opacity:1" d="m 233.43957,269.59735 c 0.48715,-0.95842 -3.30432,-5.53399 -5.28003,-5.96493 -1.97569,-0.43095 -4.79254,-0.59287 -5.09786,-0.10673 -0.30531,0.48612 4.4189,1.78473 5.48948,2.6887 1.0706,0.90399 4.55084,4.04704 4.88841,3.38296 z" id="path3443-11" inkscape:connector-curvature="0" sodipodi:nodetypes="sssss" />
  <path style="fill:#cccccc;fill-opacity:1;fill-rule:evenodd;stroke:none;stroke-width:1px;stroke-linecap:butt;stroke-linejoin:miter;stroke-opacity:1" d="m 215.25132,276.6532 c 0.93802,-0.93297 -2.24448,-3.04571 -2.83376,-3.92695 -0.58929,-0.88121 -1.59355,-2.08908 -2.01465,-1.86931 -0.4211,0.21978 0.86621,2.96675 1.51388,4.01515 0.64766,1.04843 2.37987,2.73064 3.33453,1.78111 z" id="path3687-5" inkscape:connector-curvature="0" sodipodi:nodetypes="sssss" />
  <path style="fill:#cccccc;fill-opacity:1;fill-rule:evenodd;stroke:none;stroke-width:1px;stroke-linecap:butt;stroke-linejoin:miter;stroke-opacity:1" d="m 220.5157,260.75912 c 1.10495,-1.17707 -0.0155,-3.81239 -0.96563,-4.5302 -0.95015,-0.71782 -2.9076,-2.31026 -2.59911,-3.06871 0.30846,-0.75845 3.93317,1.72432 4.94807,2.06507 1.0149,0.34072 1.40012,-1.8301 0.21322,-2.82537 -1.1869,-0.9953 -3.15457,-1.77693 -3.80947,-2.10878 -0.65489,-0.33185 -1.26093,-5.17505 -2.4002,-4.85488 -1.13925,0.32018 1.45224,3.97615 -0.23832,5.16187 -1.69056,1.18572 -1.23509,3.14353 0.0723,3.96668 1.30742,0.82316 1.95764,1.53424 0.0424,1.46777 -1.91524,-0.0664 -3.39435,-1.48175 -4.47647,-1.04747 -1.08213,0.43429 -0.22728,3.96272 2.64517,4.02891 2.87243,0.0661 4.606,1.71889 6.56802,1.74511 z" id="path3689-9" inkscape:connector-curvature="0" sodipodi:nodetypes="cssssssssssssc" />
  <path style="fill:#cccccc;fill-opacity:1;fill-rule:evenodd;stroke:none;stroke-width:1px;stroke-linecap:butt;stroke-linejoin:miter;stroke-opacity:1" d="m 216.20659,243.21509 c 0.13475,-1.42924 6.29526,-2.92062 6.41152,-4.35941 0.11625,-1.43876 -0.7342,-11.82916 -0.78528,-12.73907 -0.0511,-0.90992 -2.84979,6.55248 -2.69881,7.5202 0.15097,0.96771 0.6907,2.05092 1.61505,2.53998 0.92433,0.48908 -0.23397,2.15906 -1.28896,1.55048 -1.05498,-0.6086 -1.70742,-0.49238 -2.35595,0.10373 -0.64853,0.59611 -1.70345,-0.36808 -1.06137,-1.32574 0.64209,-0.95767 1.41059,-1.91534 1.39499,-2.75812 -0.0156,-0.84279 2.92858,-10.50189 3.42082,-12.7863 0.49222,-2.2844 2.35417,-14.08261 2.5273,-15.44062 0.17312,-1.35798 1.82619,0.26817 1.69818,5.62477 -0.12807,5.35661 -1.15168,27.58907 -1.27234,28.90699 -0.12065,1.31791 0.53043,6.35494 0.52407,7.07245 -0.006,0.71751 -8.26583,-2.46039 -8.12922,-3.90934 z" id="path4397-55" inkscape:connector-curvature="0" sodipodi:nodetypes="sssssssssssssss" />
  <path style="fill:#cccccc;fill-opacity:1;fill-rule:evenodd;stroke:none;stroke-width:1px;stroke-linecap:butt;stroke-linejoin:miter;stroke-opacity:1" d="m 226.34647,232.41035 c 0.13943,4.44069 2.9833,10.81704 3.77485,11.96682 0.79155,1.14979 -0.23558,2.77541 0.8769,4.55132 1.11247,1.77591 5.36985,6.22527 4.68387,6.72015 -0.68596,0.49487 -5.17025,-3.85006 -6.28958,-5.00619 -1.11931,-1.15613 -1.59121,0.48105 -1.83565,2.01848 -0.24442,1.53743 -0.89972,-0.53188 -1.21046,-3.00465 -0.31072,-2.47275 0.15373,-4.00754 -0.0718,-5.76141 -0.22557,-1.75387 -0.3861,-8.10894 0.072,-11.48452 z" id="path4399-6" inkscape:connector-curvature="0" sodipodi:nodetypes="cssssssscc" />
  <path style="fill:#cccccc;fill-opacity:1;fill-rule:evenodd;stroke:none;stroke-width:1px;stroke-linecap:butt;stroke-linejoin:miter;stroke-opacity:1" d="m 232.95196,243.40641 c 1.70735,-2.69174 -4.21876,-18.13433 -5.32197,-15.40142 -1.10319,2.73291 3.84233,17.73421 5.32197,15.40142 z" id="path4401-7" inkscape:connector-curvature="0" sodipodi:nodetypes="sss" />
  <path style="fill:none;fill-rule:evenodd;stroke:#b3b3b3;stroke-width:0.99999994px;stroke-linecap:butt;stroke-linejoin:miter;stroke-opacity:1" d="m 237.51403,307.87631 c -5.12497,-0.19849 -20.22383,1.38909 -27.68105,3.95087" id="path4409-4" inkscape:connector-curvature="0" sodipodi:nodetypes="cc" />
  <path style="fill:#cccccc;fill-opacity:1;fill-rule:evenodd;stroke:none;stroke-width:1px;stroke-linecap:butt;stroke-linejoin:miter;stroke-opacity:1" d="m 228.90915,185.43612 c -0.9568,-0.11968 -3.29989,11.40123 -2.67737,16.28071 0.62253,4.87948 3.99135,15.57091 4.80053,20.44307 0.80914,4.87217 4.15092,10.79648 5.52897,13.79886 1.37808,3.00237 -2.80113,8.81808 -3.65251,10.65447 -0.85139,1.83639 2.93875,6.08602 3.64457,7.4195 0.70582,1.3335 1.99098,4.65706 0.0801,3.61042 -1.91087,-1.04662 -8.51415,-1.1117 -11.40237,-0.29455 -2.88823,0.81715 -3.28044,3.64379 -0.52219,3.69647 2.75826,0.0527 9.34695,1.54775 10.90268,2.14817 1.55573,0.60042 2.86368,1.96488 1.18259,1.79482 -1.68108,-0.17008 -5.397,-0.94256 -4.80499,-0.15794 0.592,0.78461 4.16096,4.19986 2.34184,5.78869 -1.81912,1.58884 -4.56643,-0.039 -6.23627,-1.07109 -1.66983,-1.03207 -3.47475,-0.52743 -0.85295,1.29781 2.62182,1.82524 4.3849,5.86502 5.21966,6.55923 0.83476,0.69421 0.10192,1.89022 0.93424,2.92284 0.83233,1.03263 1.31454,0.70613 0.44078,4.70763 0.0917,-0.0164 0.18123,-0.0407 0.27184,-0.0605 0.58072,-1.79469 0.91481,-2.55112 2.16719,-3.97794 1.70068,-1.93756 1.27255,-7.5002 0.3197,-8.42054 -0.95285,-0.92033 -0.94875,-1.36126 0.50707,-2.62789 1.45583,-1.26664 1.0052,-4.14401 0.78366,-5.90816 -0.22153,-1.76415 0.73755,-1.50865 1.23967,-3.46344 0.50212,-1.95477 5.46287,-16.03578 5.44319,-19.56173 -0.0137,-2.46711 -6.72779,-29.34476 -11.16503,-46.11368 -0.0155,0.17916 -0.033,0.35343 -0.0279,0.57092 0.0569,2.45497 7.9853,39.6073 6.40688,39.01781 -1.57842,-0.58946 -9.91678,-48.93426 -10.87357,-49.05392 z" id="path3559-95-8" inkscape:connector-curvature="0" sodipodi:nodetypes="cssssssssscssssssccsssssscsscc" />
  <g id="g5885" transform="matrix(0.99342094,0,0,0.99344709,1.8550495,0.93551223)">
    <path sodipodi:nodetypes="ccssssssssssssssssssssssssssssscc" inkscape:connector-curvature="0" id="path3360-1-82" d="m 353.69597,329.01412 c -5.29968,-2.65071 -14.30039,-7.21963 -23.45437,-7.21963 1.24581,-4.9314 0.32164,-10.83159 0.8071,-11.63305 0.48646,-0.80308 0.76789,-1.72853 0.11015,-2.33239 -0.59689,-0.54804 -0.81401,-1.92597 0.30108,-3.21358 1.1715,-1.35269 -0.7044,-2.51558 -1.32485,-4.09864 -0.98065,-2.5019 -0.53348,-5.68179 -1.7087,-8.53215 -1.04724,-2.53995 -0.15691,-8.84761 -0.75189,-10.69057 -0.40742,-1.26172 -0.73988,-3.32019 -0.14117,-5.27721 0.59816,-1.95524 0.23286,-4.3863 -1.19414,-5.70424 -1.10036,-1.01629 -0.29381,-2.42969 0.20703,-2.60566 0.65446,-0.22996 1.2056,-0.77764 0.59306,-2.2224 -1.83496,-4.32775 -3.88845,-13.43086 -6.62384,-20.75302 -0.40199,-1.07626 -0.18047,-6.23838 -2.34821,-9.93144 -1.84231,-3.13863 0.72508,-14.29681 0.12621,-24.88951 -0.91345,-16.15676 9.79422,-31.13849 16.69553,-28.31432 1.78356,0.72987 5.15851,9.32239 5.64033,12.93701 0.48173,3.61462 5.27539,12.00737 6.23894,18.03174 0.96365,6.02436 3.55495,15.32254 5.00033,19.90105 1.44537,4.57851 3.27278,11.52542 3.27278,14.41711 0,2.89169 -0.57624,9.52843 -0.88096,10.13805 -1.20441,2.40974 -0.48182,4.33753 -0.48182,6.26533 9e-5,2.82053 -1.45774,6.18953 -0.0409,7.35578 2.25575,1.85721 4.52105,5.21875 4.13656,9.77303 -0.1923,2.27798 -4.17022,4.03372 -3.03429,5.74913 0.68048,1.02772 2.08028,3.72404 2.32124,7.33865 0.24087,3.61462 -2.12422,5.75917 -1.68378,7.19039 0.50119,1.62852 0.76152,3.40431 0.0682,4.96064 -0.49893,1.11968 -1.14848,2.7092 -0.0118,4.02348 1.79103,2.07146 -0.87341,4.15504 -0.15072,5.11894 0.72269,0.96389 -0.24087,3.61461 -0.48173,5.78338 -0.24096,2.16877 -0.72269,6.50631 -1.20451,8.4341 z" style="fill:#e6e6e6;fill-opacity:1;fill-rule:evenodd;stroke:#b3b3b3;stroke-width:1.00660932px;stroke-linecap:butt;stroke-linejoin:miter;stroke-opacity:1" />
    <path sodipodi:nodetypes="cscccccccssscscccccccccc" inkscape:connector-curvature="0" id="path3447-68" d="m 328.86406,189.09999 c -6.3983,10.36339 -12.53649,39.6919 -10.6962,45.69963 1.36969,4.47145 1.94603,8.85562 2.34802,9.93188 2.73539,7.32215 4.78843,16.42621 6.62339,20.75397 0.61254,1.44476 0.0609,1.99152 -0.59343,2.22148 -0.50083,0.17596 -1.30638,1.58907 -0.20612,2.60536 1.4271,1.31793 1.79212,3.74953 1.19396,5.70476 -0.23122,0.75556 -0.32237,1.52469 -0.32519,2.2588 0.75999,-2.50172 2.79925,-3.74932 3.92808,-4.23325 1.68624,-0.72293 9.15371,-4.45725 10.59908,-5.66212 1.44538,-1.20488 1.08499,-3.97662 -1.44437,-3.73564 -2.52936,0.24097 -11.92521,3.73542 -12.16608,-0.48162 -0.24086,-4.21705 17.82632,-28.19384 19.63309,-32.53138 1.80667,-4.33754 -0.96274,-8.43504 -5.0579,-4.45896 -4.09517,3.97607 -13.25242,6.12384 -16.80651,7.58059 -3.554,1.45675 -5.5081,-5.26412 -2.16502,-13.77341 3.34295,-8.50929 6.65868,-26.92083 6.11444,-29.71692 -0.17195,-0.88393 -0.55633,-1.60993 -0.97924,-2.16317 z M 333.32,277.5259 c -1.75764,-0.0472 -4.31002,0.93687 -5.58029,4.03776 0.44771,2.08326 -0.28844,7.80953 0.64846,10.30413 0.23968,-1.89591 1.34732,-4.71534 3.35065,-6.98079 2.77032,-3.13266 3.9741,-5.30176 3.37194,-6.62713 -0.1882,-0.41416 -0.88142,-0.70956 -1.79076,-0.73397 z" style="fill:#cccccc;fill-opacity:1;fill-rule:evenodd;stroke:none;stroke-width:1px;stroke-linecap:butt;stroke-linejoin:miter;stroke-opacity:1" />
    <path sodipodi:nodetypes="sssss" inkscape:connector-curvature="0" id="path3445-06" d="m 346.37331,278.98322 c 0.20885,-0.77612 8.00969,0.0602 8.00969,1.56632 0,1.50609 -1.56581,2.53023 -2.28849,2.53023 -0.72269,0 -2.71001,-2.04828 -3.73388,-2.53023 -1.02376,-0.48195 -2.20026,-0.7751 -1.98732,-1.56632 z" style="fill:#cccccc;fill-opacity:1;fill-rule:evenodd;stroke:none;stroke-width:1px;stroke-linecap:butt;stroke-linejoin:miter;stroke-opacity:1" />
    <path sodipodi:nodetypes="sssscss" inkscape:connector-curvature="0" id="path3449-45" d="m 344.50642,264.16329 c 0.82038,-0.41037 2.40893,3.61462 3.97474,4.699 1.56581,1.08438 5.54054,4.09656 5.54054,5.18095 0,1.08438 -5.05881,-1.68683 -7.7086,-1.32536 -2.6498,0.36146 -12.52647,3.01218 -12.6469,2.28925 -0.12043,-0.72292 6.86549,-3.85559 9.63571,-5.78338 2.58785,-1.80083 0.0953,-4.50569 1.20451,-5.06046 z" style="fill:#cccccc;fill-opacity:1;fill-rule:evenodd;stroke:none;stroke-width:1px;stroke-linecap:butt;stroke-linejoin:miter;stroke-opacity:1" />
    <path sodipodi:nodetypes="ssssssssss" inkscape:connector-curvature="0" id="path3451-45" d="m 342.94061,284.88708 c -0.72496,-2.00812 -6.98591,0.24097 -7.94947,1.44585 -0.96364,1.20487 -5.29967,4.81949 -3.493,7.4702 1.80667,2.65072 -0.12043,3.97608 0.72269,6.38582 0.84312,2.40975 2.04763,1.56633 3.49291,0.12049 1.44537,-1.44585 4.81795,-2.16877 8.31086,-2.28925 3.49291,-0.1205 0.60226,-3.8556 -2.28849,-3.61462 -2.89075,0.24097 -3.85431,1.20487 -5.42012,1.68682 -1.5658,0.48194 -2.89065,-2.04829 -0.96355,-4.81949 1.92711,-2.7712 8.43148,-4.04958 7.58817,-6.38582 z" style="fill:#cccccc;fill-opacity:1;fill-rule:evenodd;stroke:none;stroke-width:1px;stroke-linecap:butt;stroke-linejoin:miter;stroke-opacity:1" />
    <path sodipodi:nodetypes="sssss" inkscape:connector-curvature="0" id="path3551-1" d="m 341.25428,310.24962 c 0.56442,-0.68733 -2.92449,-4.37718 -5.72119,-3.37363 -2.29932,0.82508 -2.46914,3.3134 -1.86689,3.49413 0.60226,0.18072 1.02377,-1.32536 2.64979,-1.32536 1.62603,0 4.09999,2.22583 4.93829,1.20486 z" style="fill:#cccccc;fill-opacity:1;fill-rule:evenodd;stroke:none;stroke-width:1px;stroke-linecap:butt;stroke-linejoin:miter;stroke-opacity:1" />
    <path sodipodi:nodetypes="sssss" inkscape:connector-curvature="0" id="path3553-7" d="m 351.79342,305.91209 c 0.58552,-0.6694 -3.13161,-5.60265 -6.56431,-5.42192 -3.43279,0.18073 -8.13021,2.3495 -8.07,3.49413 0.06,1.14463 5.17925,-0.66268 6.98592,-0.60244 1.80668,0.0602 6.52529,3.81418 7.64839,2.53023 z" style="fill:#cccccc;fill-opacity:1;fill-rule:evenodd;stroke:none;stroke-width:1px;stroke-linecap:butt;stroke-linejoin:miter;stroke-opacity:1" />
    <path sodipodi:nodetypes="sssss" inkscape:connector-curvature="0" id="path3555-78" d="m 353.17576,251.14816 c -0.45544,-1.04137 -7.58008,-1.27796 -8.0911,-4.00428 -0.51093,-2.7263 -0.93681,1.87435 -2.04399,2.89671 -1.10718,1.02237 1.27755,2.98191 4.51396,3.0671 3.2364,0.0852 6.37056,-0.24589 5.62113,-1.95953 z" style="fill:#cccccc;fill-opacity:1;fill-rule:evenodd;stroke:none;stroke-width:1px;stroke-linecap:butt;stroke-linejoin:miter;stroke-opacity:1" />
    <path sodipodi:nodetypes="cssscsssscssssscscsscscsc" inkscape:connector-curvature="0" id="path3557-9" d="m 324.75698,228.96019 c 0.72578,0.17468 4.13808,-6.54022 4.18301,-8.53719 0.0454,-1.99697 0.48115,-5.16519 1.62893,-6.57233 1.14779,-1.40717 1.53317,-9.33028 2.63239,-11.90561 1.09931,-2.57533 -0.90615,-10.09422 0.12471,-10.19946 1.03075,-0.10519 1.95821,14.77174 0.69585,17.07825 -1.26236,2.30654 -2.20082,12.92885 -4.18607,15.83147 -1.98569,2.90265 -4.27211,7.35657 -2.95751,7.77439 1.3146,0.41783 7.58991,-7.56291 7.50434,-9.86806 -0.0857,-2.30515 -0.0829,-8.04036 0.91199,-8.44254 0.99488,-0.40218 6.07994,3.37917 7.97305,3.62325 1.89303,0.24406 1.47634,4.52392 2.92427,4.09793 1.44783,-0.42599 -1.53307,-3.91907 -3.57715,-4.77105 -2.04399,-0.85198 -1.61056,-5.17414 -2.22132,-9.65455 -0.61113,-4.48042 -0.53425,-4.94505 0.18314,-5.34404 0.71738,-0.39901 -0.0963,-0.87966 -0.76484,-1.43011 -0.66813,-0.55045 0.0776,-7.25615 0.16314,-8.96009 0.0855,-1.70395 -2.12948,-8.86052 -4.85462,-9.96808 3.31994,4.60065 4.68425,12.94998 3.74744,12.94998 -0.9369,0 -2.99495,-10.39406 -5.21066,-10.64966 -2.2158,-0.25559 -2.50081,5.02969 -2.2367,7.47192 0.26451,2.4422 -0.11176,9.3643 -1.26021,13.69999 -1.14845,4.33566 -0.79257,8.47142 -2.76338,11.82138 -0.92647,2.64336 -1.19364,11.92155 -2.63939,11.9542 z" style="fill:#cccccc;fill-opacity:1;fill-rule:evenodd;stroke:none;stroke-width:1px;stroke-linecap:butt;stroke-linejoin:miter;stroke-opacity:1" />
    <path sodipodi:nodetypes="ssssssssssss" inkscape:connector-curvature="0" id="path3691-93" d="m 350.28783,266.57303 c 1.51351,-0.1747 -0.24086,-7.71117 0.84312,-9.398 1.08399,-1.68682 0.24087,-3.13266 -1.20451,-2.04827 -1.44528,1.08438 -3.37248,1.44584 -3.97473,2.7712 -0.60217,1.32535 -3.37248,3.13266 -5.29959,3.37364 -1.9272,0.24097 -2.89075,2.53023 -1.08408,1.68682 1.80677,-0.84341 2.89075,0.48195 4.09526,0.12048 1.20442,-0.36145 1.20442,-2.04828 2.04754,-3.25315 0.84312,-1.20487 3.13162,-2.7712 3.73387,-2.16876 0.60226,0.60243 -2.16806,3.37363 -3.13161,3.97607 -0.96356,0.60244 -0.96356,2.40974 0.60225,1.44584 1.56581,-0.96389 1.69306,3.68798 3.37248,3.49413 z" style="fill:#cccccc;fill-opacity:1;fill-rule:evenodd;stroke:none;stroke-width:1px;stroke-linecap:butt;stroke-linejoin:miter;stroke-opacity:1" />
    <path sodipodi:nodetypes="sscsss" inkscape:connector-curvature="0" id="path4405-4" d="m 352.43506,287.05916 c 0,-1.20908 -5.30631,-2.17152 -8.52225,-0.0804 -3.21603,2.09108 -8.03998,4.98643 -7.87916,5.71026 0.16082,0.72384 8.9243,-4.58429 10.3715,-4.906 1.44719,-0.3217 6.02991,0.40499 6.02991,-0.72382 z" style="fill:#cccccc;fill-opacity:1;fill-rule:evenodd;stroke:none;stroke-width:1px;stroke-linecap:butt;stroke-linejoin:miter;stroke-opacity:1" />
    <path sodipodi:nodetypes="cc" inkscape:connector-curvature="0" id="path4407-9" d="m 331.23699,314.47873 c 4.88917,-5.1183 11.25646,-2.16106 23.53623,6.71065" style="fill:none;fill-rule:evenodd;stroke:#b3b3b3;stroke-width:1.00660932px;stroke-linecap:butt;stroke-linejoin:miter;stroke-opacity:1" />
  </g>
</svg>
