<svg id="Layer_1" data-name="Layer 1" xmlns="http://www.w3.org/2000/svg" viewBox="0 0 177.21 57.24"><defs><style>.cls-1{fill:#fff;fill-rule:evenodd;}</style></defs><title>Caddy Copy 19-0</title><g id="Page-1"><g id="Desktop-HD"><path id="Caddy-Copy-19" class="cls-1" d="M22,38.58a14.81,14.81,0,0,0,6.3-1.23,21.7,21.7,0,0,0,5.52-3.93l4.56,4.68a21,21,0,0,1-16.17,7.38A21.67,21.67,0,0,1,6.39,39.36,20.72,20.72,0,0,1,.12,23.88,20.91,20.91,0,0,1,6.51,8.28,22.16,22.16,0,0,1,22.65,2a21.1,21.1,0,0,1,16.29,7.2l-4.5,4.92a19.65,19.65,0,0,0-5.67-4A15.88,15.88,0,0,0,22.5,9a14.9,14.9,0,0,0-10.68,4.11A13.86,13.86,0,0,0,7.5,23.61a14.5,14.5,0,0,0,4.29,10.68A13.9,13.9,0,0,0,22,38.58ZM68.45,45H62.33V40.74a13.13,13.13,0,0,1-10.62,4.74,12.18,12.18,0,0,1-8.25-2.82,9.44,9.44,0,0,1-3.27-7.53,7.92,7.92,0,0,1,3.48-7.05q3.48-2.34,9.42-2.34h8.7v-1.2q0-6.36-7.08-6.36a16.6,16.6,0,0,0-9.24,3.24l-3-4.2a20.67,20.67,0,0,1,13.2-4.62,14.31,14.31,0,0,1,9.21,2.85q3.57,2.85,3.57,9ZM61.73,33.12v-2.7H54.17q-7.26,0-7.26,4.56a4.05,4.05,0,0,0,1.8,3.57,8.79,8.79,0,0,0,5,1.23A9.09,9.09,0,0,0,59.33,38,5.76,5.76,0,0,0,61.73,33.12Zm15.11,7.8q-4.5-4.56-4.5-12T77,17A15.34,15.34,0,0,1,88,12.6,12.11,12.11,0,0,1,98.26,18V.48H105V45H98.26V40.2q-3.72,5.28-10.86,5.28A14.37,14.37,0,0,1,76.84,40.92ZM82,36.66a9.54,9.54,0,0,0,6.9,2.88,8.91,8.91,0,0,0,6.72-2.91,10.41,10.41,0,0,0,2.76-7.47,11,11,0,0,0-2.76-7.62,8.78,8.78,0,0,0-6.78-3.06,9.15,9.15,0,0,0-6.9,3.06,10.73,10.73,0,0,0-2.88,7.65A10,10,0,0,0,82,36.66Zm31.73,4.26q-4.5-4.56-4.5-12T113.85,17a15.34,15.34,0,0,1,11-4.44A12.11,12.11,0,0,1,135.15,18V.48h6.72V45h-6.72V40.2q-3.72,5.28-10.86,5.28A14.37,14.37,0,0,1,113.73,40.92Zm5.16-4.26a9.54,9.54,0,0,0,6.9,2.88,8.91,8.91,0,0,0,6.72-2.91,10.41,10.41,0,0,0,2.76-7.47,11,11,0,0,0-2.76-7.62,8.78,8.78,0,0,0-6.78-3.06,9.15,9.15,0,0,0-6.9,3.06A10.73,10.73,0,0,0,116,29.19,10,10,0,0,0,118.89,36.66Zm33.3,21.06a11.56,11.56,0,0,1-7.92-3.18l3.06-5.46a6.33,6.33,0,0,0,4.35,2,4.62,4.62,0,0,0,3.66-1.62,5.28,5.28,0,0,0,1.41-3.54q0-.84-12.9-32.82h7.2l9.54,23.52,9.54-23.52h7.2L161.85,51a11.53,11.53,0,0,1-4,4.92A9.74,9.74,0,0,1,152.19,57.72Z" transform="translate(-0.12 -0.48)"/></g></g></svg>