<svg xmlns="http://www.w3.org/2000/svg" viewBox="0 0 793.7008 1122.52">
  <defs>
    <linearGradient gradientUnits="userSpaceOnUse" id="a">
      <stop offset="0" style="stop-color:white;stop-opacity:1"/>
      <stop offset="1" style="stop-color:white;stop-opacity:0"/>
    </linearGradient>
  </defs>
  <path d="m 200.67967,777.90068 q -2.83434,0 -2.83434,-3.98341 0,-3.98341 4.13661,-8.88606 6.89436,-8.27323 19.151,-9.5755 l 4.21322,-0.22981 q 13.94193,0 20.22346,11.10758 3.7536,6.81775 3.7536,15.70382 0,3.67699 -0.61284,7.737 -2.22151,13.63551 -10.57135,23.13441 -9.19248,10.49475 -21.44912,10.49475 -12.18004,0 -15.47401,-6.81776 -0.99585,-2.14491 -0.99585,-4.51963 0,-2.45133 1.30227,-5.13247 2.52793,-4.90266 6.89436,-4.90266 0.38302,0 0.45962,0.45963 0.15321,0.38302 -0.0766,0.84264 -0.15321,0.45962 -0.53623,0.45962 -2.60454,0 -4.51964,3.37058 -1.22566,2.37472 -1.22566,4.36643 0,1.9917 0.76604,3.67699 2.45133,5.20907 11.72041,5.20907 10.49475,0 18.9978,-10.72456 7.6604,-9.6521 9.88191,-22.67478 0.76604,-4.21322 0.76604,-7.96682 0,-8.34984 -3.75359,-14.09514 -4.97926,-7.737 -15.62722,-7.737 -13.3291,0 -19.99365,8.96267 -3.37057,4.59624 -3.37057,8.57965 0,1.60868 0.68943,1.60868 -0.45962,1.53208 -1.9151,1.53208 z m 11.03098,29.03292 q 0,-11.64381 2.06831,-22.59818 2.06831,-11.03098 5.05586,-17.38911 3.06416,-6.43474 5.89851,-6.43474 1.22566,0 1.22566,1.22567 -3.44718,7.12417 -6.05171,18.99779 -4.82605,21.67893 -4.82605,31.33104 0,0.99585 -1.07246,0.99585 -2.29812,0 -2.29812,-6.12832 z" style="font-style:normal;font-variant:normal;font-weight:400;font-stretch:normal;font-size:medium;line-height:100%;font-family:'Euphoria Script';-inkscape-font-specification:'Euphoria Script';letter-spacing:0;word-spacing:0;fill:#000;fill-opacity:1;stroke:none;stroke-width:.49872401px;stroke-linecap:butt;stroke-linejoin:miter;stroke-opacity:1"/>
  <path d="m 279.08477,792.53205 q -2.91095,0 -2.91095,-6.35814 0,-3.60038 1.37887,-6.74115 -5.20907,4.51964 -11.64381,16.85288 -6.43473,12.25664 -6.43473,16.01024 0,0.91925 -1.22567,0.91925 -2.22151,0 -2.22151,-6.05172 0,-11.414 2.29812,-20.68308 2.29812,-9.26908 5.59209,-9.26908 1.45547,0 1.45547,1.68528 -3.52378,11.18419 -5.05586,22.9046 l 0.53623,0 q 6.20492,-14.32495 13.71211,-22.36837 4.28983,-4.59624 7.81361,-4.59624 0.76604,0 1.22567,0.45963 0.53622,0.45962 0.53622,1.14906 -0.53622,0.53622 -1.30226,1.60868 -0.76604,1.07246 -2.06831,5.13247 -1.30227,3.98341 -1.30227,8.73285 0,0.61284 -0.38302,0.61284 z" style="font-style:normal;font-variant:normal;font-weight:400;font-stretch:normal;font-size:medium;line-height:100%;font-family:'Euphoria Script';-inkscape-font-specification:'Euphoria Script';letter-spacing:0;word-spacing:0;fill:#000;fill-opacity:1;stroke:none;stroke-width:.49872401px;stroke-linecap:butt;stroke-linejoin:miter;stroke-opacity:1"/>
  <path d="m 290.52181,814.5174 q -6.28153,0 -6.28153,-9.88192 0,-5.89851 2.91095,-12.94608 4.06002,-9.88191 10.64796,-13.4823 2.83435,-1.53208 5.28568,-1.53208 2.45133,0 3.8302,1.07245 1.45547,1.07246 1.83849,2.14492 l 0.45963,0.99585 q -0.22981,1.30227 -1.30227,1.30227 -1.22566,0 -1.45548,-0.53623 -0.1532,-0.61283 -0.38302,-0.99585 -0.22981,-0.45963 -1.07245,-1.14906 -0.84265,-0.76604 -1.9151,-0.76604 -4.97926,0 -9.03928,8.96266 -4.59624,10.34154 -4.59624,19.45742 0,4.59624 1.8385,4.59624 1.45548,0 4.06001,-3.21737 2.68114,-3.29397 5.5921,-8.19663 5.05586,-8.42644 8.19662,-14.63136 2.60454,-5.51549 5.36228,-5.51549 1.45548,0 1.45548,1.76189 -0.68944,1.45548 -1.76189,4.13662 -1.07246,2.68114 -2.83435,10.64796 -1.76189,7.96681 -1.76189,15.85702 0,7.89022 2.37472,7.89022 0.91925,0 1.68529,-0.84265 0.76604,-0.76604 1.37887,-2.37472 0.22981,-0.84264 1.07246,-0.84264 0.30641,0 0.45962,0.22981 0.15321,0.22981 0,0.76604 -0.15321,0.53623 -0.53623,1.45547 -0.38302,0.99586 -1.68528,2.60454 -1.22567,1.60868 -2.60454,1.60868 -3.21737,0 -4.97926,-4.21322 -1.68529,-4.21322 -1.68529,-9.95852 0,-5.7453 0.84265,-11.03097 l -0.76604,0 q -9.72871,16.62307 -14.63137,16.62307 z" style="font-style:normal;font-variant:normal;font-weight:400;font-stretch:normal;font-size:medium;line-height:100%;font-family:'Euphoria Script';-inkscape-font-specification:'Euphoria Script';letter-spacing:0;word-spacing:0;fill:#000;fill-opacity:1;stroke:none;stroke-width:.49872401px;stroke-linecap:butt;stroke-linejoin:miter;stroke-opacity:1"/>
  <path d="m 362.26266,779.81578 q 2.22151,1.68529 4.21322,1.68529 2.0683,0 2.91095,-0.53623 0,0.99585 -0.91925,1.9151 -0.84264,0.84265 -2.52793,0.84265 -1.60869,0 -3.52379,-0.76604 -0.1532,7.20077 -2.37472,14.78457 -2.22152,7.50719 -5.7453,12.63966 -3.52378,5.05586 -6.97096,5.05586 -3.44718,0 -5.28568,-2.68114 -1.9151,-2.98755 -1.9151,-8.50304 0,-3.14077 0.38302,-6.74115 -9.4989,17.00609 -14.63137,17.00609 -5.05586,0 -5.05586,-8.57965 0,-8.88607 4.36643,-18.9978 3.67699,-8.04342 6.74115,-8.42644 1.45548,0 1.45548,1.60869 -0.91925,2.22151 -2.29812,5.7453 -1.37888,3.44718 -3.677,11.10758 -2.22151,7.6604 -2.22151,11.33739 0,3.60039 1.60868,3.60039 1.99171,0 6.20493,-6.43474 4.28982,-6.43473 7.50719,-12.86947 l 3.29397,-6.35813 q 2.14491,-4.28983 3.8302,-4.28983 1.68529,0 1.68529,1.60869 -4.67284,16.01023 -4.67284,25.04951 0,4.21322 2.45132,4.21322 2.75775,0 5.7453,-4.51964 3.06416,-4.59624 5.05587,-11.87362 2.06831,-7.35398 2.06831,-14.47816 l 0,-0.45962 q -2.22152,-1.60868 -3.60039,-3.8302 -1.37887,-2.22152 -1.37887,-3.29397 0,-1.14906 0.99585,-2.06831 0.99585,-0.91925 2.14491,-0.91925 1.45548,0 2.60454,2.60454 1.14906,2.52793 1.53208,5.8219 z" style="font-style:normal;font-variant:normal;font-weight:400;font-stretch:normal;font-size:medium;line-height:100%;font-family:'Euphoria Script';-inkscape-font-specification:'Euphoria Script';letter-spacing:0;word-spacing:0;fill:#000;fill-opacity:1;stroke:none;stroke-width:.49872401px;stroke-linecap:butt;stroke-linejoin:miter;stroke-opacity:1"/>
  <path d="m 402.86248,775.29615 q 0,5.66869 3.21737,6.05171 -0.22982,1.07246 -1.7619,1.07246 -3.14076,0 -4.44303,-3.8302 -0.61283,-1.76189 -0.61283,-4.28983 0,-2.60453 1.9917,-6.20492 4.51964,-8.34984 16.39326,-10.72456 4.06001,-0.76604 8.65625,-0.76604 4.67285,0 7.96682,-0.91925 3.29397,-0.91925 4.51964,-2.06831 3.21736,-2.98755 4.74944,-2.98755 1.53208,0 1.53208,0.91924 0,0.22982 0,0.45963 -0.53622,2.14491 -4.59624,4.06001 -2.45132,1.07246 -5.51548,1.68529 -2.52794,1.07245 -4.21323,5.89851 -1.68528,4.74944 -3.52378,13.78872 3.98341,-0.38302 6.58794,-0.38302 0.68944,0 0.61284,0.84264 -0.30642,0.91925 -1.60869,0.99585 -1.30227,0 -6.05171,0.76604 -3.60039,17.77213 -6.28153,25.12612 -6.74115,18.61477 -19.22761,18.61477 -8.96267,0 -11.18418,-8.19663 -0.84265,-2.83435 -0.84265,-5.6687 0,-5.36228 2.83435,-10.72456 4.28983,-8.19662 11.26079,-8.19662 0.99585,0 1.60869,0.45962 0.68943,0.45962 0.91924,1.37887 -6.58794,0 -10.87776,6.81776 -3.37058,5.28567 -3.37058,10.95437 0,8.27323 5.8219,10.11173 1.37888,0.38302 3.60039,0.38302 2.22152,0 4.67285,-1.30227 2.52793,-1.22566 4.51963,-4.59624 2.06831,-3.29397 3.37058,-5.51549 1.30227,-2.29812 2.98755,-8.12002 1.99171,-7.12417 3.37058,-13.17589 1.37887,-6.12832 1.68529,-7.35398 -4.28983,0.68943 -6.51134,0.68943 -2.14491,0 -2.45133,-1.9151 -0.0766,-1.53208 0.84264,-1.76189 0.38302,0.45962 2.37473,0.45962 2.06831,0 6.43473,-0.38302 1.9151,-7.50719 3.677,-12.18003 1.76189,-4.74945 4.13661,-7.20078 -1.22566,0.0766 -3.8302,0.0766 -14.70797,0 -20.60647,8.65626 -2.83435,4.06001 -2.83435,8.19663 z m 33.70576,15.70382 q 0,0.38302 -0.68944,0.38302 -0.68943,0 -1.37887,-0.30642 -0.61283,-0.30642 -0.61283,-0.84264 0,-7.81361 1.76189,-12.56306 1.76189,-4.82605 4.67285,-4.82605 0.76604,0 1.30226,0.53622 0.53623,0.53623 0.53623,1.45548 -3.44718,3.44718 -4.97926,10.26494 -0.61283,2.83435 -0.61283,5.89851 z" style="font-style:normal;font-variant:normal;font-weight:400;font-stretch:normal;font-size:medium;line-height:100%;font-family:'Euphoria Script';-inkscape-font-specification:'Euphoria Script';letter-spacing:0;word-spacing:0;fill:#000;fill-opacity:1;stroke:none;stroke-width:.49872401px;stroke-linecap:butt;stroke-linejoin:miter;stroke-opacity:1"/>
  <path d="m 465.91925,792.53205 q -2.91096,0 -2.91096,-6.35814 0,-3.60038 1.37888,-6.74115 -5.20908,4.51964 -11.64381,16.85288 -6.43474,12.25664 -6.43474,16.01024 0,0.91925 -1.22566,0.91925 -2.22152,0 -2.22152,-6.05172 0,-11.414 2.29812,-20.68308 2.29812,-9.26908 5.59209,-9.26908 1.45548,0 1.45548,1.68528 -3.52378,11.18419 -5.05586,22.9046 l 0.53622,0 q 6.20493,-14.32495 13.71212,-22.36837 4.28982,-4.59624 7.81361,-4.59624 0.76604,0 1.22566,0.45963 0.53623,0.45962 0.53623,1.14906 -0.53623,0.53622 -1.30227,1.60868 -0.76604,1.07246 -2.06831,5.13247 -1.30226,3.98341 -1.30226,8.73285 0,0.61284 -0.38302,0.61284 z" style="font-style:normal;font-variant:normal;font-weight:400;font-stretch:normal;font-size:medium;line-height:100%;font-family:'Euphoria Script';-inkscape-font-specification:'Euphoria Script';letter-spacing:0;word-spacing:0;fill:#000;fill-opacity:1;stroke:none;stroke-width:.49872401px;stroke-linecap:butt;stroke-linejoin:miter;stroke-opacity:1"/>
  <path d="m 490.9918,777.36445 q 5.82191,0 5.82191,6.81776 0,3.9068 -2.60454,8.19663 -4.44303,7.12417 -11.79701,7.12417 -1.14906,0 -1.9151,-0.38302 -0.76604,-0.38302 -1.14907,-1.14906 5.43889,0 9.95853,-6.28153 3.67699,-5.05586 3.67699,-9.26908 0,-3.14077 -2.52793,-3.14077 -5.05587,0 -9.4223,7.89022 -4.67284,8.57964 -4.67284,17.61892 0,7.6604 4.36643,9.19248 0.84264,0.30641 2.14491,0.30641 1.30227,0 2.75774,-0.61283 1.45548,-0.68944 2.45133,-1.60868 1.99171,-1.8385 3.29397,-4.06002 0.30642,-0.61283 1.14906,-0.61283 1.37888,0 1.30227,0.45963 -0.22981,0.84264 -1.76189,2.83434 -1.45548,1.99171 -2.75774,3.21737 -1.22567,1.14906 -3.29398,2.06831 -1.9917,0.99585 -4.06001,0.99585 -8.12002,0 -10.34154,-7.6604 -0.68944,-2.60453 -0.68944,-5.36228 0,-5.13247 2.37473,-11.18418 3.75359,-9.19248 10.34154,-13.25249 3.60039,-2.14492 7.35398,-2.14492 z" style="font-style:normal;font-variant:normal;font-weight:400;font-stretch:normal;font-size:medium;line-height:100%;font-family:'Euphoria Script';-inkscape-font-specification:'Euphoria Script';letter-spacing:0;word-spacing:0;fill:#000;fill-opacity:1;stroke:none;stroke-width:.49872401px;stroke-linecap:butt;stroke-linejoin:miter;stroke-opacity:1"/>
  <path d="m 520.72822,777.36445 q 5.82191,0 5.82191,6.81776 0,3.9068 -2.60454,8.19663 -4.44303,7.12417 -11.79702,7.12417 -1.14906,0 -1.9151,-0.38302 -0.76604,-0.38302 -1.14906,-1.14906 5.43889,0 9.95853,-6.28153 3.67699,-5.05586 3.67699,-9.26908 0,-3.14077 -2.52793,-3.14077 -5.05587,0 -9.4223,7.89022 -4.67284,8.57964 -4.67284,17.61892 0,7.6604 4.36643,9.19248 0.84264,0.30641 2.14491,0.30641 1.30227,0 2.75774,-0.61283 1.45548,-0.68944 2.45133,-1.60868 1.99171,-1.8385 3.29397,-4.06002 0.30642,-0.61283 1.14906,-0.61283 1.37888,0 1.30227,0.45963 -0.22981,0.84264 -1.76189,2.83434 -1.45548,1.99171 -2.75774,3.21737 -1.22567,1.14906 -3.29398,2.06831 -1.9917,0.99585 -4.06001,0.99585 -8.12002,0 -10.34154,-7.6604 -0.68944,-2.60453 -0.68944,-5.36228 0,-5.13247 2.37473,-11.18418 3.75359,-9.19248 10.34154,-13.25249 3.60039,-2.14492 7.35398,-2.14492 z" style="font-style:normal;font-variant:normal;font-weight:400;font-stretch:normal;font-size:medium;line-height:100%;font-family:'Euphoria Script';-inkscape-font-specification:'Euphoria Script';letter-spacing:0;word-spacing:0;fill:#000;fill-opacity:1;stroke:none;stroke-width:.49872401px;stroke-linecap:butt;stroke-linejoin:miter;stroke-opacity:1"/>
  <path d="m 541.65518,825.70158 q -4.44303,0 -6.58794,-4.67284 -2.06831,-4.67285 -2.06831,-14.01854 0,-9.34569 2.75774,-22.13855 2.75775,-12.79287 6.43474,-21.21931 3.7536,-8.42644 6.51134,-8.42644 1.30227,0 1.30227,1.53208 -1.60869,3.67699 -4.06001,11.10758 -2.45133,7.35398 -4.13662,13.63551 -1.60868,6.28153 -2.98756,14.70797 -1.30226,8.42644 -1.30226,14.47815 0,5.97512 1.14906,9.19249 1.22566,3.29397 3.29397,3.29397 1.76189,0 3.37057,-1.68529 1.60869,-1.60868 2.29812,-3.21737 0.38302,-0.84264 1.37888,-0.45962 0.38302,0.15321 0.1532,0.61283 -0.1532,0.53623 -0.61283,1.30227 -0.38302,0.76604 -1.45547,2.37472 -2.29812,3.60039 -5.43889,3.60039 z" style="font-style:normal;font-variant:normal;font-weight:400;font-stretch:normal;font-size:medium;line-height:100%;font-family:'Euphoria Script';-inkscape-font-specification:'Euphoria Script';letter-spacing:0;word-spacing:0;fill:#000;fill-opacity:1;stroke:none;stroke-width:.49872401px;stroke-linecap:butt;stroke-linejoin:miter;stroke-opacity:1"/>
  <path d="m 552.73761,838.49445 q 6.89436,0 10.80116,-6.51134 3.37058,-5.7453 5.20908,-14.32495 -13.86533,0.30642 -21.29592,10.57135 -0.45962,0.68944 -1.45547,0.22981 -0.53623,-0.30641 -0.30642,-0.76604 3.29397,-4.97926 9.19248,-8.50304 5.89851,-3.44718 14.32495,-3.7536 0.84264,-3.8302 1.60868,-8.96267 0.76604,-5.13246 1.7619,-9.95852 l -0.68944,0 q -9.95852,17.69553 -15.16759,17.69553 -5.82191,0 -5.82191,-8.96267 0,-8.96267 3.8302,-18.00194 3.8302,-9.11588 6.97097,-9.80531 l 0.45962,-0.0766 q 1.30227,0 1.30227,1.68529 -0.84264,2.06831 -2.14491,5.43889 -1.30227,3.29397 -3.44718,10.95437 -2.14491,7.58379 -2.14491,11.87362 0,4.21322 1.83849,4.21322 2.14491,0 6.89436,-7.43059 6.97097,-10.87777 12.10343,-22.06195 2.22152,-4.67285 4.74945,-4.67285 1.60869,0 1.60869,1.7619 -1.45548,2.68114 -3.52379,10.03512 -2.06831,7.35398 -3.37057,14.86118 -1.30227,7.43058 -2.22152,11.64381 5.8219,0.99585 6.74115,5.05586 0.15321,0.68944 0.15321,1.8385 0,1.22566 -0.91925,2.0683 -0.91925,0.91925 -1.60868,0.91925 0.15321,-0.53623 0.0766,-1.9151 -0.0766,-1.30227 -0.53623,-2.22151 -0.38302,-0.91925 -1.53208,-1.9151 -1.14906,-0.99586 -2.98755,-1.45548 -5.89851,22.21516 -20.45327,22.21516 -6.28153,0 -8.34984,-4.44303 -0.0766,-0.22981 -0.0766,-0.38302 0,-0.45963 0.84264,-0.61283 0.76604,-0.0766 1.14906,0.53622 1.37887,3.14077 6.43474,3.14077 z" style="font-style:normal;font-variant:normal;font-weight:400;font-stretch:normal;font-size:medium;line-height:100%;font-family:'Euphoria Script';-inkscape-font-specification:'Euphoria Script';letter-spacing:0;word-spacing:0;fill:#000;fill-opacity:1;stroke:none;stroke-width:.49872401px;stroke-linecap:butt;stroke-linejoin:miter;stroke-opacity:1"/>
  <path d="m 592.1019,815.05362 q -1.60869,0 -1.60869,-2.98755 0,-1.8385 0.99586,-3.90681 0.99585,-2.06831 2.83434,-2.06831 1.53208,0 1.53208,1.7619 0,1.76189 -2.83434,5.8985 l -0.91925,1.30227 z" style="font-style:normal;font-variant:normal;font-weight:400;font-stretch:normal;font-size:medium;line-height:100%;font-family:'Euphoria Script';-inkscape-font-specification:'Euphoria Script';letter-spacing:0;word-spacing:0;fill:#000;fill-opacity:1;stroke:none;stroke-width:.49872401px;stroke-linecap:butt;stroke-linejoin:miter;stroke-opacity:1"/>
  <g>
    <path d="m 139.06411,694.98079 c -0.24215,-9.92803 -0.36322,-15.49741 -0.36322,-25.54651 0,-10.0491 0,-15.9817 0.36322,-26.15187 0.24215,-10.0491 1.93718,-10.41232 10.41232,-11.01769 0.72644,-0.72644 0.72644,-2.05825 0,-2.78469 -4.47972,0.24215 -11.98628,0.60537 -15.61848,0.60537 -3.6322,0 -11.8652,-0.36322 -15.73955,-0.60537 -0.72644,0.72644 -0.72644,2.05825 0,2.78469 8.47514,0.72644 10.41232,0.96859 10.65446,11.01769 0.24215,10.0491 0.36322,15.9817 0.36322,26.0308 0,10.0491 -0.12107,15.61848 -0.36322,25.66758 -0.24214,10.04909 -2.17932,10.65446 -10.65446,11.01768 -0.72644,0.72644 -0.72644,2.05825 0,2.78469 4.72186,-0.24214 12.10735,-0.60536 15.73955,-0.60536 3.6322,0 10.65447,0.24214 15.61848,0.60536 0.72644,-0.72644 0.72644,-2.05825 0,-2.78469 -8.47514,-0.36322 -10.17017,-0.96859 -10.41232,-11.01768 z" style="font-style:normal;font-variant:normal;font-weight:400;font-stretch:normal;font-size:121.07348633px;line-height:100%;font-family:'Linux Libertine Display O';-inkscape-font-specification:'Linux Libertine Display O';letter-spacing:0;word-spacing:0;fill:#000;fill-opacity:1;stroke:none;stroke-width:.90805119px;stroke-linecap:butt;stroke-linejoin:miter;stroke-opacity:1"/>
    <path d="m 222.38348,644.61422 0.12107,42.01249 c 0,2.3004 -0.60537,3.63221 -1.45288,3.63221 -0.96859,0 -2.3004,-2.17932 -5.81153,-6.65904 l -41.5282,-53.51448 -15.61848,-0.24215 c -0.72645,0.72644 -0.72645,2.05825 0,2.78469 5.81152,0.36322 8.83836,4.23757 10.17017,8.95944 l -0.12108,52.0616 c 0,10.77554 -2.05824,11.50198 -10.53339,12.34949 -0.72644,0.72644 -0.72644,2.05825 0,2.78469 5.9326,-0.12107 7.99085,-0.60536 13.07594,-0.60536 5.08508,0 6.90119,0.48429 12.95486,0.60536 0.72644,-0.72644 0.72644,-2.05825 0,-2.78469 -8.47514,-0.84751 -10.53339,-1.33181 -10.53339,-12.34949 l -0.12108,-38.62245 c 0,-4.11649 0.60537,-5.9326 1.57396,-5.9326 0.72644,0 2.05825,1.33181 4.1165,3.99543 l 42.25465,53.39341 c 1.3318,1.8161 2.90576,2.90576 4.84293,2.90576 1.69503,0 1.45289,-1.45288 1.45289,-3.75328 l 0.12107,-61.02103 c 0,-10.77555 2.05825,-11.50199 10.53339,-12.3495 0.72644,-0.72644 0.72644,-2.05825 0,-2.78469 -5.9326,0.12107 -7.99085,0.60537 -13.07593,0.60537 -5.08509,0 -6.90119,-0.4843 -12.95487,-0.60537 -0.72644,0.72644 -0.72644,2.05825 0,2.78469 8.47515,0.84751 10.5334,1.33181 10.5334,12.3495 z" style="font-style:normal;font-variant:normal;font-weight:400;font-stretch:normal;font-size:121.07348633px;line-height:100%;font-family:'Linux Libertine Display O';-inkscape-font-specification:'Linux Libertine Display O';letter-spacing:0;word-spacing:0;fill:#000;fill-opacity:1;stroke:none;stroke-width:.90805119px;stroke-linecap:butt;stroke-linejoin:miter;stroke-opacity:1"/>
    <path d="m 265.81292,694.98079 c -0.24215,-9.68588 -0.36322,-15.25526 -0.36322,-24.82007 4.23757,0.12107 8.47514,2.05825 11.01769,5.20616 l 19.00853,23.97255 c 2.42147,3.14791 4.1165,6.78012 4.35865,8.71729 0,0.36322 0.12107,0.72644 0.60537,0.72644 2.42147,-0.12107 2.17932,-0.60536 5.81152,-0.60536 4.72187,0 7.74871,0.48429 13.43916,0.60536 0.72644,-0.72644 0.72644,-2.05825 0,-2.78469 -2.17932,-0.36322 -7.7487,-1.57395 -11.8652,-6.65904 l -26.51509,-31.47911 c -0.96859,-1.08966 -1.57396,-2.05824 -1.57396,-3.02683 0,-0.84752 0.12107,-1.69503 4.23757,-5.9326 l 17.79781,-18.2821 c 5.56938,-5.9326 11.62305,-7.7487 16.46599,-8.35407 0.72644,-0.72644 0.72644,-2.05825 0,-2.78469 -5.69045,0.12107 -7.86978,0.60537 -12.71272,0.60537 -4.84294,0 -8.59621,-0.4843 -14.28667,-0.60537 -0.72644,0.72644 -0.72644,2.05825 0,2.78469 4.35865,0.36322 9.56481,2.42147 4.60079,7.86978 l -19.37175,21.30893 c -2.54255,2.78469 -6.53797,4.96401 -11.01769,5.32723 0,-8.47514 0.12107,-14.28667 0.36322,-23.48825 0.24215,-10.0491 2.05825,-10.65447 10.53339,-11.01769 0.72644,-0.72644 0.72644,-2.05825 0,-2.78469 -5.9326,0.12107 -9.68588,0.60537 -15.86062,0.60537 -6.05368,0 -9.44374,-0.4843 -15.49741,-0.60537 -0.72644,0.72644 -0.72644,2.05825 0,2.78469 8.47514,0.36322 10.17017,0.96859 10.41232,11.01769 0.24215,10.0491 0.48429,15.9817 0.48429,26.0308 0,10.0491 -0.24214,15.61848 -0.48429,25.66758 -0.24215,10.04909 -1.93718,10.65446 -10.41232,11.01768 -0.72644,0.72644 -0.72644,2.05825 0,2.78469 5.9326,-0.12107 9.56481,-0.60536 15.73955,-0.60536 6.05368,0 9.56481,0.48429 15.61848,0.60536 0.72644,-0.72644 0.72644,-2.05825 0,-2.78469 -8.47514,-0.36322 -10.29124,-0.96859 -10.53339,-11.01768 z" style="font-style:normal;font-variant:normal;font-weight:400;font-stretch:normal;font-size:121.07348633px;line-height:100%;font-family:'Linux Libertine Display O';-inkscape-font-specification:'Linux Libertine Display O';letter-spacing:0;word-spacing:0;fill:#000;fill-opacity:1;stroke:none;stroke-width:.90805119px;stroke-linecap:butt;stroke-linejoin:miter;stroke-opacity:1"/>
    <path d="m 368.54187,631.78043 c -7.02226,-0.96859 -6.65904,-3.26899 -18.52424,-3.26899 -12.22842,0 -23.00396,8.11192 -23.00396,20.94571 0,11.38091 7.99085,16.82922 17.43458,20.82464 7.62763,3.39006 20.21927,6.05368 20.21927,19.85606 0,9.80695 -5.81152,16.10277 -15.37633,16.10277 -11.38091,0 -19.85605,-6.29582 -22.51967,-18.40317 -1.45288,-0.48429 -1.57395,-0.24215 -2.66362,0.36322 0.4843,9.32266 0.96859,12.47057 2.42147,18.40317 7.62763,0 10.89662,2.78469 21.67216,2.78469 5.56938,0 10.77554,-1.33181 15.01311,-3.87435 6.90119,-4.35865 11.38091,-11.8652 11.38091,-19.61391 0,-11.50198 -7.86978,-16.95028 -16.70814,-20.70356 -5.81153,-2.42147 -22.51967,-7.14334 -22.51967,-19.00854 0,-6.78011 6.41689,-14.77096 13.43916,-14.77096 11.8652,0 16.82921,8.71729 19.25068,16.70814 1.33181,0 1.57396,0.12107 2.66362,-0.72644 -0.36322,-5.81153 -0.84752,-9.20159 -2.17933,-15.61848 z" style="font-style:normal;font-variant:normal;font-weight:400;font-stretch:normal;font-size:121.07348633px;line-height:100%;font-family:'Linux Libertine Display O';-inkscape-font-specification:'Linux Libertine Display O';letter-spacing:0;word-spacing:0;fill:#000;fill-opacity:1;stroke:none;stroke-width:.90805119px;stroke-linecap:butt;stroke-linejoin:miter;stroke-opacity:1"/>
    <path d="m 421.98069,709.38853 c 11.74413,0 23.7304,-5.56938 31.9634,-16.34492 -0.60537,-1.08966 -1.45288,-1.8161 -2.78469,-1.8161 -8.59622,9.44373 -16.82922,13.19701 -28.08905,13.19701 -18.76639,0 -28.21012,-19.00854 -28.21012,-36.68527 0,-19.73498 12.59164,-35.95882 27.8469,-35.95882 16.70814,0 23.85148,11.13876 26.99939,21.55108 1.08966,0.12107 1.8161,0 2.78469,-0.60537 -0.60537,-6.29582 -1.45289,-12.10735 -2.66362,-18.76639 -6.17475,-0.60537 -11.62305,-5.44831 -26.51509,-5.44831 -23.97255,0 -39.34889,18.76639 -39.34889,41.52821 0,21.43 11.98628,39.34888 38.01708,39.34888 z" style="font-style:normal;font-variant:normal;font-weight:400;font-stretch:normal;font-size:121.07348633px;line-height:100%;font-family:'Linux Libertine Display O';-inkscape-font-specification:'Linux Libertine Display O';letter-spacing:0;word-spacing:0;fill:#000;fill-opacity:1;stroke:none;stroke-width:.90805119px;stroke-linecap:butt;stroke-linejoin:miter;stroke-opacity:1"/>
    <path d="m 489.70806,674.51937 c -2.66362,0 -3.51113,-0.96859 -3.02684,-2.17933 l 12.71272,-31.35803 0.36322,0 11.62305,33.53736 -21.67215,0 z m -13.68131,25.30435 7.26441,-18.76639 c 0.60537,-1.57395 1.33181,-2.66361 4.23757,-2.66361 l 25.30436,0 7.62763,22.27752 c 1.69503,4.96401 -3.14791,4.96401 -8.95944,5.32723 -0.72644,0.72644 -0.72644,2.05825 0,2.78469 4.47972,-0.12107 11.13877,-0.60536 15.86063,-0.60536 4.96401,0 10.17017,0.48429 14.64989,0.60536 0.72644,-0.72644 0.72644,-2.05825 0,-2.78469 -4.72186,-0.36322 -8.71729,-0.84751 -10.89661,-7.02226 l -25.30436,-70.46477 c -1.8161,1.08966 -4.72187,2.42147 -6.29582,2.42147 l -28.08905,66.10612 c -3.14791,7.38549 -6.78011,8.59622 -12.10735,8.95944 -0.72644,0.72644 -0.72644,2.05825 0,2.78469 4.47972,-0.12107 7.26441,-0.60536 11.98628,-0.60536 4.96401,0 8.59621,0.48429 13.07593,0.60536 0.72644,-0.72644 0.72644,-2.05825 0,-2.78469 -4.60079,-0.24214 -10.29124,-1.08966 -8.35407,-6.17475 z" style="font-style:normal;font-variant:normal;font-weight:400;font-stretch:normal;font-size:121.07348633px;line-height:100%;font-family:'Linux Libertine Display O';-inkscape-font-specification:'Linux Libertine Display O';letter-spacing:0;word-spacing:0;fill:#000;fill-opacity:1;stroke:none;stroke-width:.90805119px;stroke-linecap:butt;stroke-linejoin:miter;stroke-opacity:1"/>
    <path d="m 565.52655,672.34004 c 2.66362,0.84752 6.17475,1.08966 10.29125,1.08966 22.03537,0 28.33119,-13.80237 28.33119,-24.09362 0,-7.14333 -4.47971,-20.46142 -26.87831,-20.46142 -3.14791,0 -11.62305,1.21074 -16.46599,1.21074 -6.05368,0 -9.44374,-0.4843 -15.49741,-0.60537 -0.72644,0.72644 -0.72644,2.05825 0,2.78469 8.47514,0.36322 10.29125,0.96859 10.41232,11.01769 0.12107,10.0491 0.24215,15.9817 0.24215,26.0308 0,10.0491 0,15.61848 -0.24215,25.66758 -0.24215,10.17017 -1.93718,10.65446 -10.41232,11.01768 -0.72644,0.72644 -0.72644,2.05825 0,2.78469 5.9326,-0.12107 9.56481,-0.60536 15.73955,-0.60536 6.78012,0 11.13876,0.48429 17.19244,0.60536 0.72644,-0.72644 0.72644,-2.05825 0,-2.78469 -8.35407,-0.48429 -12.3495,-1.08966 -12.47057,-8.11192 -0.12107,-9.08051 -0.24215,-16.82922 -0.24215,-25.54651 z m 0.24215,-34.74809 c 0.12107,-3.51113 2.05825,-5.81152 10.77554,-5.81152 8.35407,0 16.95029,4.35864 16.95029,19.73497 0,13.07594 -6.65904,19.00854 -18.40317,19.00854 -2.90577,0 -7.99085,-0.24215 -9.56481,-0.60537 l 0,-0.60536 c 0,-10.0491 0.12108,-21.67216 0.24215,-31.72126 z" style="font-style:normal;font-variant:normal;font-weight:400;font-stretch:normal;font-size:121.07348633px;line-height:100%;font-family:'Linux Libertine Display O';-inkscape-font-specification:'Linux Libertine Display O';letter-spacing:0;word-spacing:0;fill:#000;fill-opacity:1;stroke:none;stroke-width:.90805119px;stroke-linecap:butt;stroke-linejoin:miter;stroke-opacity:1"/>
    <path d="m 647.32304,664.95456 -14.1656,0.12107 c 0,0 -0.12107,-16.46599 0.24215,-26.39402 0.12107,-2.90576 1.57395,-5.32723 4.47972,-5.32723 l 18.88746,0 c 9.08051,0 10.89662,6.4169 13.56023,14.77097 1.45288,0.24214 1.69503,0 2.90577,-0.60537 -0.60537,-4.96401 -2.42147,-16.95029 -2.66362,-17.91888 0,-0.24214 -0.12107,-0.36322 -0.48429,-0.36322 -2.05825,0.36322 -3.14791,0.84752 -6.05368,0.84752 l -35.35346,0 c -3.6322,0 -9.68588,-0.4843 -15.73955,-0.60537 -0.72644,0.72644 -0.72644,2.05825 0,2.78469 8.47514,0.36322 10.0491,0.96859 10.41232,11.01769 0.24215,9.92802 0.24215,15.9817 0.24215,26.0308 0,10.0491 0,15.73955 -0.24215,25.66758 -0.36322,10.04909 -1.93718,10.65446 -10.41232,11.01768 -0.72644,0.72644 -0.72644,2.05825 0,2.78469 5.9326,-0.12107 12.3495,-0.60536 15.9817,-0.60536 l 26.87831,0 c 5.81153,0 15.49741,0.60536 15.49741,0.60536 1.69503,-6.05367 3.39006,-14.40774 4.35865,-20.58249 -1.21074,-0.72644 -1.33181,-0.96859 -2.90577,-0.60537 -2.42147,8.71729 -6.78011,17.43458 -15.9817,17.43458 l -18.88746,0 c -2.66362,0 -4.35865,-1.93717 -4.47972,-5.20616 -0.36322,-10.17017 -0.24215,-31.35803 -0.24215,-31.35803 l 14.1656,0.12108 c 10.29125,0.12107 10.77554,2.66361 11.13876,8.11192 0.72644,0.72644 1.93718,0.72644 2.66362,0 -0.12108,-4.23757 -0.4843,-5.69045 -0.4843,-9.44373 0,-3.99543 0.36322,-6.78012 0.4843,-10.41232 -0.72644,-0.72644 -1.93718,-0.72644 -2.66362,0 -0.36322,6.65904 -0.84751,8.11192 -11.13876,8.11192 z" style="font-style:normal;font-variant:normal;font-weight:400;font-stretch:normal;font-size:121.07348633px;line-height:100%;font-family:'Linux Libertine Display O';-inkscape-font-specification:'Linux Libertine Display O';letter-spacing:0;word-spacing:0;fill:#000;fill-opacity:1;stroke:none;stroke-width:.90805119px;stroke-linecap:butt;stroke-linejoin:miter;stroke-opacity:1"/>
  </g>
  <g>
    <path d="M 163.15,27.83 28.81,165.3 C -16.58,221.51 59.7,214.97 92.4,231.16 104.13,243.15 47.44,252 59.17,264 c 11.73,11.99 70.93,23.1 82.68,35.09 11.73,11.99 -24.01,24.71 -12.28,36.7 11.73,11.99 38.86,0.63 43.94,28.31 3.62,19.78 48.89,8.5 71.03,-7.7 11.73,-12 -22.44,-10.87 -10.71,-22.86 29.17,-29.83 56.33,-10.84 66.31,-40.73 4.93,-14.77 -42.94,-22.77 -31.19,-34.76 33.75,-19.71 150.4,-32.54 95.05,-87.89 L 224.75,27.83 c -17.03,-16.35 -45.45,-16.53 -61.6,0 z m 154.31,264.98 c 0,6.82 50.25,11.29 50.25,-1.61 -7.16,-20.72 -44.31,-19.32 -50.25,1.61 z M 91.1,329.05 c 11.9,10.29 30.28,-2.56 35.79,-16.92 -11.53,-15.32 -54.69,0.55 -35.79,16.92 z m 220.06,-22.23 c -15.34,13.76 1.72,27.72 16.84,18.83 3.37,-3.42 -0.09,-15.41 -16.84,-18.83 z" style="fill:#000;fill-opacity:1" transform="matrix(.94005 0 0 .94005 211.928 235.827)"/>
    <path d="m 131,238.6 c 3.59,2.23 57.89,13.26 71.16,15.46 4.6,0.97 1.34,5.71 -5,8.91 -14.3,3.8 -83.66,-24.37 -66.16,-24.37 z" style="fill:#fff" transform="matrix(.94005 0 0 .94005 211.928 235.827)"/>
    <path d="m 216.63,37.47 53.15,53.98 c 5.04,5.15 4.97,15.13 2.15,18 l -26.39,-21.11 -5.19,31.26 -22.05,-11.64 -35.31,22.31 -11.69,-47.03 -18.97,32.82 -29,0 c -11.82,0 -13.21,-15 -2.47,-25.74 18.76,-20.25 40.29,-40.89 51.99,-52.85 11.76,-12.02 32.25,-11.68 43.78,0 z" style="fill:#fff" transform="matrix(.94005 0 0 .94005 211.928 235.827)"/>
  </g>
</svg>
