<?xml version="1.0" standalone="no"?>
<!DOCTYPE svg PUBLIC "-//W3C//DTD SVG 20010904//EN"
 "http://www.w3.org/TR/2001/REC-SVG-20010904/DTD/svg10.dtd">
<svg version="1.0" xmlns="http://www.w3.org/2000/svg"
 width="16.000000pt" height="16.000000pt" viewBox="0 0 16.000000 16.000000"
 preserveAspectRatio="xMidYMid meet">
<metadata>
Created by potrace 1.11, written by Peter Selinger 2001-2013
</metadata>
<g transform="translate(0.000000,16.000000) scale(0.002286,-0.002286)"
fill="#000000" stroke="none">
<path d="M3270 6974 c-144 -13 -331 -39 -440 -60 -1385 -271 -2473 -1359
-2744 -2744 -48 -243 -60 -386 -60 -670 0 -284 12 -427 60 -670 153 -780 587
-1512 1190 -2006 l43 -35 118 30 c323 81 850 273 1001 364 61 37 105 96 130
177 14 45 17 96 17 282 0 124 -3 229 -7 233 -3 4 -30 0 -60 -8 -141 -40 -326
-71 -428 -72 -90 0 -112 3 -152 23 -63 31 -114 90 -156 181 -49 106 -53 173
-18 279 28 84 33 123 21 179 -5 23 -13 33 -25 33 -26 0 -70 56 -70 91 0 16 7
47 16 70 l17 41 51 -6 c136 -17 176 -17 237 -1 81 20 92 31 28 26 -79 -5 -114
6 -184 59 -86 65 -100 72 -170 85 l-60 11 5 39 c8 72 3 117 -17 135 -10 9 -54
29 -98 45 -160 55 -205 98 -205 192 0 98 48 188 248 467 164 230 176 253 177
346 0 71 -3 81 -35 131 -41 64 -44 107 -17 244 10 50 29 149 42 221 87 469
295 767 667 955 245 123 531 213 853 266 134 22 528 25 670 5 483 -68 796
-201 1021 -433 178 -185 302 -417 364 -684 71 -306 82 -525 37 -730 -31 -138
-33 -185 -12 -246 22 -61 92 -178 187 -311 101 -141 128 -197 128 -265 0 -46
-4 -55 -42 -98 -25 -26 -73 -62 -113 -83 -96 -51 -116 -83 -113 -179 1 -40 -1
-76 -5 -79 -4 -4 -15 0 -25 9 -18 16 -22 14 -83 -39 -35 -31 -81 -68 -101 -81
-21 -14 -35 -29 -32 -34 10 -17 81 -9 130 16 69 35 94 33 94 -5 0 -17 9 -47
20 -67 40 -76 13 -149 -57 -155 -30 -3 -39 -9 -56 -41 -17 -32 -19 -57 -18
-183 2 -181 -7 -215 -68 -275 -51 -50 -100 -68 -205 -78 -106 -10 -344 10
-535 45 l-33 7 4 -289 c5 -351 5 -351 109 -420 149 -99 527 -260 925 -394
l201 -68 99 83 c605 505 1026 1218 1178 1995 48 243 60 386 60 670 0 284 -12
427 -60 670 -253 1293 -1220 2335 -2491 2684 -300 83 -539 116 -868 120 -132
2 -260 2 -285 0z"/>
<path d="M2165 4353 c-11 -3 -79 -25 -151 -49 -147 -49 -175 -53 -204 -24 -20
20 -20 20 -26 -4 -13 -53 63 -156 116 -156 14 0 88 19 165 42 111 32 161 42
242 46 93 4 106 2 156 -21 31 -14 81 -45 112 -69 32 -23 67 -50 78 -58 31 -22
-82 128 -139 186 -76 75 -147 107 -248 110 -45 2 -90 0 -101 -3z"/>
<path d="M4762 4196 c-18 -9 -54 -37 -80 -64 -48 -49 -109 -148 -98 -159 3 -4
6 -1 6 6 0 19 81 101 120 120 64 33 92 32 240 -4 178 -44 195 -44 215 -4 20
39 13 59 -20 59 -15 0 -72 11 -127 25 -131 34 -213 40 -256 21z"/>
<path d="M2145 3940 c-8 -38 6 -65 16 -30 10 37 10 60 0 60 -5 0 -12 -13 -16
-30z"/>
<path d="M2183 3903 c-7 -37 -11 -69 -9 -70 2 -2 35 18 75 44 l71 48 -37 17
c-21 9 -49 19 -63 23 -25 6 -26 4 -37 -62z"/>
<path d="M4987 3895 c-7 -16 -10 -17 -17 -5 -8 13 -10 12 -10 -2 0 -20 -20
-25 -20 -5 -1 6 -7 -2 -14 -19 -8 -18 -28 -40 -45 -50 -17 -10 -31 -22 -31
-26 0 -5 21 -22 48 -39 l47 -30 3 61 c3 58 4 60 30 60 33 0 52 16 52 43 0 16
-3 17 -14 8 -11 -10 -15 -8 -18 6 -3 17 -4 16 -11 -2z"/>
<path d="M4972 3800 c0 -19 2 -27 5 -17 2 9 2 25 0 35 -3 9 -5 1 -5 -18z"/>
<path d="M1841 3233 c25 -49 24 -78 -3 -97 -31 -22 -70 -20 -101 4 -59 46
-183 65 -236 36 -22 -12 -20 -13 26 -9 52 5 90 -8 178 -62 80 -50 174 -18 175
58 0 31 -21 77 -44 96 -10 9 -9 2 5 -26z"/>
<path d="M5194 3147 c5 -62 27 -87 79 -87 30 0 45 6 67 30 23 24 82 48 123 50
18 0 4 -19 -20 -28 l-28 -10 26 -1 c34 -1 64 22 56 43 -15 38 -164 3 -161 -38
3 -33 -79 -32 -109 2 -8 9 -20 33 -26 52 -11 35 -11 34 -7 -13z"/>
</g>
</svg>
