<svg width="1000" height="1000" viewBox="10 10 540 540" xmlns="http://www.w3.org/2000/svg">
  <defs>
    <clipPath id="a">
      <path d="m 270.54384,127.41231 c 1.44246,1.0975 4.57826,1.3797 6.30294,0.1254 -1.88147,-1.8188 -4.07653,-2.3518 -6.30294,-0.1254 z"/>
    </clipPath>
    <clipPath id="b">
      <path d="m 291.5708,127.19004 c -1.31703,1.5366 -4.5469,1.662 -6.11479,0.5018 1.47382,-1.8188 3.66888,-2.446 6.11479,-0.5018 z"/>
    </clipPath>
  </defs>
  Character
  <path style="fill:#a49387;fill-opacity:1;stroke:#42403e;stroke-width:1px;stroke-linecap:butt;stroke-linejoin:miter;stroke-opacity:1" d="M 421.64453 920.53125 C 421.19158 920.52512 420.73163 921.16972 420.49219 921.43164 C 419.22152 922.82177 416.60705 925.50347 416.68945 927.49414 C 416.72268 928.29557 416.94801 929.09817 417.20312 929.85156 L 422.69727 922.35352 C 422.47025 921.82231 422.45426 920.87251 421.83789 920.57812 C 421.77414 920.54767 421.70924 920.53213 421.64453 920.53125 z M 411.80078 930.9668 C 411.37356 930.96913 410.86825 931.4627 410.60742 931.66406 C 409.11664 932.81501 406.0815 935.00726 405.82031 936.98242 C 405.71518 937.77761 405.79807 938.60656 405.91992 939.39258 L 412.62109 932.95117 C 412.4888 932.38888 412.63663 931.44872 412.08008 931.05273 C 411.99373 930.99129 411.89937 930.96626 411.80078 930.9668 z" transform="matrix(0.54,0,0,0.54,10,10)" class="beta"/>
  <path style="fill:#2b2621;stroke:#150d06;stroke-width:.54px;stroke-linecap:butt;stroke-linejoin:miter;stroke-opacity:1;fill-opacity:1" d="m 292.88323,523.89841 c -0.28866,1.13196 -0.38026,2.36061 -0.0306,3.49183 0.23645,0.76497 0.75992,1.47495 1.23154,2.10734 0.34433,0.46171 0.64753,0.95551 1.02501,1.39214 1.49472,1.72893 3.71334,3.42216 5.55343,4.7463 3.51075,2.36426 9.01696,4.83057 11.86413,4.61242 4.49414,-1.0145 7.11416,-5.63685 8.7432,-9.35872 0.8478,-1.96684 0.48446,-7.30129 -0.77259,-9.28605 -1.12643,-1.77853 -2.67785,0.93192 -4.47486,0.10709 -1.54065,-0.70717 -3.0236,-1.58986 -4.64316,-2.11881 -4.55344,-1.48718 -8.20139,-1.00547 -12.45312,1.2927 -0.53474,0.28904 -1.04928,0.61564 -1.55282,0.95614 -1.46258,0.98903 -1.8724,1.73697 -3.52635,2.03467 -0.47363,0.0852 -0.47182,0.25848 -0.96381,0.023 z" class="gamma"/>
  <path style="fill:#2b2621;fill-opacity:1;stroke:#150d06;stroke-width:.54px;stroke-linecap:butt;stroke-linejoin:miter;stroke-opacity:1" d="m 259.15008,514.70148 c 0,0 0.87968,-0.20652 0.79554,0.34421 -0.0842,0.55074 0.10709,3.80162 -0.29833,4.26822 -0.40541,0.4666 -4.65845,3.88194 -4.65845,3.88194 l -3.93176,-0.26007 c 0,0 -1.26875,7.91848 -7.41221,10.34164 -8.8044,3.4727 -20.51554,4.80748 -23.17751,3.71365 -2.66197,-1.09382 -1.26214,-4.26822 -1.26214,-4.26822 z" class="gamma"/>
  <path style="fill:#150d06;stroke:none;stroke-width:.54px;stroke-linecap:butt;stroke-linejoin:miter;stroke-opacity:1;fill-opacity:1" d="m 251.05708,522.93578 c 0.24005,-0.54086 0.42562,-1.09783 0.70374,-1.62162 0.23378,-0.44026 0.65323,-0.74516 1.02501,-1.06323 0.61706,-0.52791 1.15439,-0.68683 1.93529,-0.76491 0.13282,-0.0133 0.32478,-0.11019 0.45131,-0.0153 0.0223,0.0167 -0.13785,1.62193 -0.14534,1.82814 -0.005,0.14604 -0.15999,1.79027 -0.30597,1.87786 -0.31411,0.18846 -1.15052,-0.18971 -1.46103,-0.25624 -0.61305,-0.13136 -1.61587,-0.16314 -2.20301,0.0153 z" class="gamma--dark"/>
  <path style="fill:#3c3631;fill-opacity:1;stroke:none;stroke-width:.54px;stroke-linecap:butt;stroke-linejoin:miter;stroke-opacity:1" d="m 259.15008,514.70148 c 0,0 1.87409,0.79934 -1.13975,3.29678 -3.01384,2.49745 -4.49016,0.73814 -6.34895,3.64481 -1.22754,1.91956 -2.11122,5.41942 -4.81144,8.11574 -2.70021,2.69632 -10.64024,5.47296 -18.69499,6.30289 -8.05476,0.82993 -10.04358,-0.32892 -8.94973,-3.33885 1.09385,-3.00993 39.94486,-18.02137 39.94486,-18.02137 z" class="gamma--light"/>
  <path style="fill:#7b3e12;stroke:#37180a;stroke-width:.54px;stroke-linecap:butt;stroke-linejoin:miter;stroke-opacity:1;fill-opacity:1" d="m 240.96547,502.35673 c 0,0 1.88175,-2.45155 4.62786,-1.79372 2.74611,0.65783 3.33511,2.32151 3.33511,2.32151 0,0 4.13829,3.66776 5.66052,2.73074 1.52221,-0.93702 3.30796,-3.74696 3.30796,-3.74696 0,0 2.41374,11.42287 1.1363,13.50344 -1.27744,2.08056 -2.53193,2.82635 -2.53193,2.82635 0,0 -3.40396,0.40924 -5.18626,2.73457 -1.78229,2.32534 -2.80915,7.08816 -5.60696,8.95332 -5.39279,3.59509 -22.84859,7.26285 -25.44172,5.36204 -2.59313,-1.90081 -0.22948,-9.08335 2.79966,-12.41072 0.80675,-0.88617 12.30014,-10.79294 12.88914,-11.77585 0.589,-0.98292 4.24539,-4.11524 5.01032,-8.70472 z" class="alpha"/>
  <path style="fill:#66300f;fill-opacity:1;stroke:none;stroke-width:.54px;stroke-linecap:butt;stroke-linejoin:miter;stroke-opacity:1" d="m 258.71371,507.99359 c 0,1.58012 0.1283,2.66724 -0.0627,4.02544 -0.0756,0.53758 0.80627,2.21803 0.49908,2.68245 -1.34952,2.6988 -1.16279,2.56929 -2.64879,3.49661 -1.05063,0.41618 -3.52829,0.60786 -4.75,1.89269 -0.79631,0.84472 -0.87351,0.75733 -2.7614,4.6067 -1.85258,6.58892 -8.97682,7.50388 -14.12834,8.97817 -3.32268,0.97467 -5.65596,1.24052 -8.1848,1.61203 -1.74227,0.22339 -2.40427,0.15119 -3.70228,0.21609 -2.80443,0.27541 -3.08335,-0.78473 -3.44221,-2.22972 -0.0996,-0.72193 0.63212,0.2549 0.98677,0.36524 0.43664,0.13584 0.98318,0.33929 1.4266,0.40158 0.38096,0.0535 0.79479,-0.0421 1.18182,-0.0421 0.32539,0 0.64964,0.0369 0.9753,0.0287 5.30156,-0.45053 11.53001,-2.12066 14.83972,-3.80928 1.74711,-0.89138 3.7668,-1.80947 4.93,-3.21837 0.57918,-0.71726 1.06434,-1.61327 1.40366,-2.46684 0.11285,-0.28389 0.14182,-0.58581 0.21801,-0.87966 0.09,-0.34702 0.18205,-0.691 0.25625,-1.04219 0.0821,-0.3886 0.19357,-0.79632 0.22948,-1.19136 0.0247,-0.27152 0.0426,-0.58981 0.0153,-0.86244 -0.0209,-0.20981 -0.22975,-0.39852 -0.3098,-0.58324 -1.38658,-1.78714 -3.16744,-2.60713 -4.89558,-3.57406 0.0115,-0.023 4.55973,2.13521 4.57048,2.15131 0.17862,0.26791 0.3562,0.45044 0.61578,0.0861 0.30638,-0.4301 0.70073,-0.79282 1.00589,-1.22386 0.45303,-0.63995 -0.0713,-1.95053 0.13003,-2.7097 0.42537,-1.18076 1.37842,-2.25009 1.73641,-3.17631 0.14104,-0.39065 0.24546,-0.90719 0.53163,-1.22769 0.21289,-0.23843 0.62682,-0.35252 0.91409,-0.44939 0.3166,-0.10676 0.68364,-0.17457 1.02118,-0.1568 0.0654,0.003 0.0976,0.0596 0.15299,0.0631 0.13952,0.009 0.2408,-0.10455 0.37864,-0.0918 0.1573,0.0146 0.30139,0.13637 0.44367,0.19697 0.0737,0.0314 0.16113,0.0305 0.23331,0.065 0.20364,0.0974 0.3494,0.28741 0.53162,0.41496 0.22482,0.15737 0.53064,0.26673 0.72287,0.45895 0.47475,0.47474 0.10546,0.94073 1.15122,0.9351 0.392,-0.002 0.94404,-0.64213 0.99442,-0.63104 0.007,0.002 0.47819,0.36907 0.55075,0.40731 0.38811,0.20454 0.7542,-0.26078 0.92175,-0.5603 0.30568,-0.54645 0.54641,-1.31123 0.72668,-1.91419 0.12654,-0.42323 0.11565,-0.899 0.59051,-1.0442 z" class="alpha--dark"/>
  <path style="fill:#4d240c;fill-opacity:1;stroke:none;stroke-width:.54px;stroke-linecap:butt;stroke-linejoin:miter;stroke-opacity:1" d="m 258.71371,507.99359 c 0.24752,1.4875 0.23788,3.00347 0.43602,4.49769 0.0759,0.57268 0.19626,1.6145 -0.16829,2.14941 -1.36721,2.00613 -2.17722,2.42614 -3.60544,3.08422 -1.5621,0.71977 -3.32183,1.465 -4.50206,2.71766 -2.31057,2.36831 -2.21258,5.92802 -4.68873,7.9652 -1.8101,1.4892 -3.83703,2.26374 -5.81382,3.13111 -2.54361,1.3244 -5.12427,1.7717 -7.57487,2.28842 -2.55716,0.53919 -2.96363,0.75604 -5.24623,0.8809 -0.128,0.0213 -0.49854,0.13071 -0.38246,0.0727 0.11073,-0.0554 0.32563,-0.0441 0.43601,-0.0727 6.08662,-1.47643 13.83247,-3.67118 17.57819,-8.55173 0.51671,-0.72945 1.17015,-1.39438 1.6446,-2.14558 0.47799,-0.7568 1.38792,-2.03974 1.98119,-2.65043 0.89092,-0.9171 1.38303,-2.02902 2.2948,-2.92389 0.47996,-0.47105 1.29483,-0.79833 1.79759,-1.24871 1.67197,-1.49777 3.735,-2.42302 4.82629,-4.43948 0.71687,-1.32461 0.63996,-2.71455 0.98721,-4.75479 z" class="alpha--darker"/>
  <path style="fill:#9a5e33;fill-opacity:1;stroke:none;stroke-width:1px;stroke-linecap:butt;stroke-linejoin:miter;stroke-opacity:1" d="M 438.65039 909.80664 L 440.84375 912.50977 C 440.84375 912.50977 441.87866 910.68151 438.65039 909.80664 z M 418.94531 927.75781 C 414.13241 931.96655 413.02646 932.83634 410.61523 935.01367 C 405.80831 939.22745 401.55008 944.38998 397.78125 947.10352 C 392.10345 951.80987 387.8417 959.97152 387.9043 965.44141 C 388.07707 970.48711 389.2067 964.96849 389.81641 961.39844 C 390.55041 957.10051 392.09256 956.00132 395.41797 953.17188 C 396.54104 952.2163 397.61374 951.087 398.875 950.32812 C 399.48489 949.96118 400.35097 949.96393 400.86719 949.45508 C 401.08824 949.23719 400.83947 948.73673 401.04688 948.43945 C 401.35625 947.99606 402.04954 947.94677 402.34961 947.47266 C 402.56316 947.13527 402.47558 946.71069 402.73047 946.38086 C 403.10134 945.90091 403.7439 945.65454 404.22266 945.30469 C 404.65399 944.9895 405.00058 944.57974 405.42578 944.25781 C 405.90608 943.89415 406.48969 943.66634 406.9375 943.25586 C 407.24998 942.96941 406.79225 942.5093 407.13867 942.18945 C 407.41617 941.9333 407.76816 941.76401 408.04883 941.51367 C 408.52001 941.09345 408.79375 940.52232 409.20117 940.05078 C 410.04454 939.07467 410.94657 938.13725 411.79492 937.16016 C 412.40094 936.46216 413.17733 935.92521 413.80859 935.24805 C 416.84787 932.71571 417.29598 929.21829 418.94531 927.75781 z M 425.35742 937.66992 C 425.35742 937.66992 424.15999 938.42081 423.19336 939.79492 C 422.81286 940.33581 422.47136 941.07549 422.27344 941.71875 C 422.21529 941.90794 422.31464 942.21767 422.23242 942.375 C 422.06483 942.69613 421.56829 942.77202 421.41016 943.15039 C 421.25849 943.51346 421.66742 943.94378 421.36133 944.23828 C 421.01822 944.56852 420.55604 944.69607 420.20898 945.0332 C 419.75613 945.47309 420.05624 945.75874 419.25781 946.29102 C 418.89603 946.5322 418.37281 946.65287 418.08594 946.99609 C 417.82207 947.31178 418.33583 947.77278 418.11523 947.98438 C 417.61686 948.46252 416.6925 948.6166 416.02148 949.25586 C 415.90852 949.36364 415.55333 949.72584 415.43164 949.90625 C 415.3696 949.99829 415.46488 950.15385 415.39062 950.23633 C 415.13922 950.51566 414.56374 950.60337 414.25 950.79883 C 414.03244 950.93438 413.88105 951.32042 413.61914 951.36914 C 413.2496 951.43784 412.70512 951.21242 412.35547 951.37891 C 411.93971 951.57774 411.52471 952.3611 411.21484 952.70508 C 410.47177 953.52999 409.43602 954.34856 408.5 954.95898 C 408.12881 955.20106 407.41432 955.31499 406.97656 955.56445 C 405.99069 956.12629 405.27914 957.11001 404.30273 957.72266 C 401.02301 959.78047 397.63898 961.65899 395.08789 964.61914 C 394.51109 965.28844 392.42088 967.17244 392.81445 968.32031 C 393.13723 969.2617 394.59019 969.70734 395.38867 969.14258 C 396.70189 968.21373 397.40773 966.56443 398.49414 965.42188 C 399.78212 964.06728 401.71019 963.42922 403.16016 962.29492 C 404.03149 961.61329 404.71015 960.75583 405.52539 960.02734 C 406.25363 959.3766 407.35022 959.11004 408.17969 958.59961 C 408.59587 958.3435 408.95058 958.09133 409.40039 957.89453 C 409.78474 957.72638 410.22645 957.68003 410.58398 957.45312 C 410.88432 957.26255 410.90091 957.08974 411.33398 957.01758 C 412.41837 956.83684 413.55045 956.90428 414.60938 956.57227 C 415.06145 956.4306 414.89871 956.18321 415.08984 955.95508 C 415.33503 955.66245 415.61367 955.5492 415.97266 955.4043 C 416.43917 955.21598 416.94056 955.15187 417.4043 954.95312 C 417.70878 954.82257 417.94941 954.59024 418.24609 954.4375 C 418.678 954.21515 419.14738 954.0723 419.57812 953.84766 C 420.26112 953.49142 420.53455 952.92817 421.16016 952.53516 C 421.83047 952.11408 422.65079 952.03243 423.34375 951.66797 C 424.4939 951.06302 425.49006 950.15055 426.7793 949.79492 C 428.03467 949.44861 429.23998 949.61472 430.51562 949.64453 C 431.20677 949.6612 431.90112 949.54446 432.58984 949.58594 C 433.09494 949.61649 434.85836 950.24797 435.19336 950.06055 C 435.94427 949.64042 435.37787 948.49305 435.54492 947.9082 C 435.69214 947.39265 436.29708 947.62526 436.42578 947.31641 C 437.2083 942.73155 430.34485 939.82238 425.35742 937.66992 z" transform="matrix(0.54,0,0,0.54,10,10)" class="alpha--light"/>
  <path style="fill:none;stroke:#37180a;stroke-width:.27;" d="m 225.853,520.442 c 0,0 0.96454,1.04843 3.21989,0.24431 0.72039,-0.14817 2.15882,-0.73582 2.8226,-1.05941 0.0463,-0.0226 0.37479,-0.11476 0.40159,-0.088 0.0675,0.0675 -0.0296,0.31197 -0.0382,0.3882 -0.0348,0.30587 -0.0158,0.62522 0.0574,0.92363 0.0607,0.24759 0.18105,0.4677 0.3251,0.67695 1.78284,1.81018 3.9554,1.75738 7.13301,0.48571 3.34931,-1.05965 9.38303,-6.61789 10.64788,-1.59866 0.0964,0.39756 0.0727,0.82912 0.0727,1.23533 0,0.046 0.0105,0.56567 -0.0114,0.35187" class="alpha--darkest"/>
  <path style="fill:none;stroke:#37180a;stroke-width:.27;stroke-linecap:butt;stroke-linejoin:miter;stroke-opacity:1;stroke-miterlimit:4;stroke-dasharray:none" d="m 247.76599,516.35117 c 0.0854,0.006 0.17092,0.0265 0.25625,0.0191 0.3815,-0.033 0.74655,-0.17336 1.12445,-0.23521 0.68491,-0.11209 1.67649,-0.19237 2.32158,-0.16828 1.32879,0.0496 2.71755,0.69215 3.5187,1.77843 0.16809,0.22792 0.17985,0.60972 0.22948,0.79168" class="alpha--darkest"/>
  <path style="fill:none;stroke:#37180a;stroke-width:.162;" d="m 245.97987,516.1542 c 0.3223,-0.1755 0.68474,-0.25508 1.02884,-0.37672 3.34996,-0.77742 8.28945,-1.71502 9.10653,2.56246" class="alpha--darkest"/>
  <path style="fill:none;stroke:#37180a;stroke-width:.162;" d="m 226.86987,519.51981 c -0.22246,0.21227 -0.47994,0.39306 -0.66738,0.6368 -0.0177,0.023 -1.41658,1.25011 -1.40089,1.27889 0.24649,0.45187 1.42861,0.48034 1.93174,0.58096 1.45993,0.2568 3.31538,-0.99437 4.58274,-1.41429 -0.0346,1.56711 1.33217,3.15246 2.77289,3.43638 2.08338,0.35646 4.26717,-0.0355 6.108,-0.6081 2.70426,-0.69246 5.13012,-3.6014 7.81381,-3.5798 0.58555,0.0284 1.18489,0.46826 1.52221,0.93893 0.18448,0.25741 0.2752,0.59717 0.36335,0.89686 0.10118,0.344 0.13769,0.70964 0.13769,1.06706 0,0.0384 -0.0194,0.44371 0.0306,0.30214" class="alpha--darkest"/>
  <path style="fill:#7b3e12;fill-opacity:1;stroke:#37180a;stroke-width:.432;" d="m 238.98837,504.25211 c 0,0 2.85468,-2.84728 4.78996,-2.69047 1.93528,0.15681 5.60932,1.01913 7.49871,2.50689 1.88938,1.48776 7.27452,9.57099 5.02561,10.49844 -4.01119,2.43694 -5.57753,4.24892 -7.7832,7.95511 -1.84732,1.92375 -0.93322,-2.64661 -3.86674,-4.39444 -2.93353,-1.74782 -6.80297,-3.09432 -8.99945,-3.09407 -2.19649,2.5e-4 -5.44634,1.00969 -5.44634,1.00969 0,0 -0.31362,-0.57178 0.0956,-0.86818 0.40924,-0.2964 4.15987,-3.28693 5.7676,-5.20333 1.62429,-1.93614 2.68104,-2.68268 2.91825,-5.71964 z" class="alpha"/>
  <path style="fill:#9a5e33;fill-opacity:1;stroke:none;stroke-width:1px;stroke-linecap:butt;stroke-linejoin:miter;stroke-opacity:1" d="M 438.5332 911.20898 C 438.42305 911.2118 438.31852 911.23234 438.22461 911.2793 C 438.01596 911.38357 438.33271 911.72832 438.38086 911.81055 C 438.45645 911.93968 438.6444 912.74273 438.67773 912.88477 C 438.80692 913.43597 436.39329 913.71589 436.32422 914.23438 C 436.24848 914.80702 436.50974 915.04879 436.33789 915.77344 C 436.2385 916.19262 435.83679 916.49989 435.64453 916.87891 C 435.47453 917.2142 435.58332 917.73266 435.51758 918.09375 C 435.42495 918.60316 434.93567 918.94703 434.6875 919.38281 C 434.44343 919.81144 434.39949 920.41008 434.06445 920.78125 C 433.65964 921.22971 433.15746 921.53272 432.83203 922.06641 C 432.53303 922.55652 432.76044 923.12915 432.52734 923.63281 C 432.3729 923.96648 432.00251 924.10737 431.79883 924.39648 C 431.57959 924.70763 431.67519 925.01203 431.54297 925.33984 C 431.39852 925.69792 430.91448 925.6229 430.73633 925.94727 C 430.62837 926.14404 430.67656 926.35492 430.58008 926.55664 C 430.47778 926.77084 430.33641 926.96659 430.23438 927.1875 C 430.13389 927.40535 430.13538 927.66236 430.04297 927.88477 C 429.9121 928.19965 429.54223 928.38276 429.43945 928.7168 C 429.32575 929.08613 429.44323 929.45656 429.26953 929.81445 C 429.17883 930.0013 428.92017 930.08742 428.78906 930.25391 C 428.59334 930.50233 428.58836 930.87284 428.38477 931.11914 C 428.21019 931.33031 427.96481 931.49176 427.83203 931.73828 C 427.73111 931.92517 427.85107 932.08693 427.82422 932.27539 C 427.77376 932.62863 427.56422 933.03188 427.44922 933.37695 C 427.39789 933.53092 427.04775 933.76675 426.93164 933.89453 C 424.98546 936.20183 427.95189 935.13197 424.01758 935.74414 C 423.93393 935.91479 427.66046 937.25302 427.79102 937.30469 C 429.2434 937.87958 430.6955 938.40837 432.13281 939.02539 C 433.30474 939.52846 434.51768 939.96113 435.46875 940.84961 C 435.48397 940.86383 435.89617 941.34707 435.97266 941.25781 C 436.02673 941.19476 436.05572 940.92779 436.09961 940.83594 C 436.21905 940.58512 436.40181 940.34856 436.55273 940.11719 C 436.99733 939.43582 437.21107 938.68253 437.51562 937.93555 C 437.76474 937.32457 438.13316 936.79026 438.32422 936.1543 C 438.67157 934.99819 438.82738 933.60414 439.43555 932.54883 C 439.44018 932.54077 439.91538 931.85176 439.93945 931.8125 C 440.16006 931.45307 440.28545 931.05048 440.47656 930.67578 C 441.21714 929.22371 442.26371 927.80178 443.50195 926.73438 C 447.82143 923.00513 445.07106 922.39175 448.0918 922.13477 C 448.11161 922.0458 448.20165 921.98443 448.22461 921.89258 C 448.34278 921.41999 448.49482 921.0004 448.74219 920.54102 C 449.00667 920.04987 449.48053 919.50817 449.53516 918.93359 C 449.56293 918.64191 448.83425 917.54174 448.60156 917.22852 C 448.3633 916.90781 447.96312 916.64162 447.64453 916.41406 C 447.40464 916.24271 447.22846 915.98373 447.00781 915.78906 C 446.61592 915.44328 446.19503 915.13804 445.78125 914.82227 C 445.34508 914.48941 445.00908 913.98138 444.56445 913.67773 C 444.10973 913.3672 443.52153 913.16701 443.02734 912.91992 C 442.04033 912.42642 441.08842 911.85134 440.00195 911.61719 C 439.60338 911.5313 439.01053 911.19678 438.5332 911.20898 z M 424.37109 914.79883 C 424.27778 914.80145 424.17072 914.93465 424.05273 915.28125 C 424.0881 915.61058 424.1495 915.9384 424.1582 916.26953 C 424.17302 916.82205 424.01064 917.38256 423.86914 917.91016 C 423.05099 920.95951 421.39899 923.20812 419.28516 925.49805 C 415.12699 929.33566 412.55934 931.88273 407.70508 935.67578 C 407.5736 935.9168 407.69574 936.51535 407.875 936.70703 C 408.0587 936.9039 408.71728 936.57802 408.9375 936.55469 C 409.64585 936.47987 410.28327 936.17971 410.94336 936.07617 C 411.2906 936.02173 411.80368 936.02262 412.08984 935.81445 C 412.12114 935.79168 412.00471 935.61975 411.99805 935.59766 C 411.9712 935.50858 411.98734 935.37043 412.00586 935.29297 C 412.12679 934.78601 412.5658 934.29795 412.83398 933.85938 C 413.60298 932.60176 414.55403 931.45012 415.70312 930.51953 C 416.60944 929.78557 417.60074 929.1457 418.42969 928.32031 C 420.4938 926.26509 422.0791 923.86648 423.44336 921.30859 C 424.26656 919.76511 424.86521 917.72686 424.77539 915.96094 C 424.75902 915.63867 424.60956 914.79213 424.37109 914.79883 z" transform="matrix(0.54,0,0,0.54,10,10)" class="alpha--light"/>
  <path style="fill:#3c3631;stroke:none;stroke-width:.54px;stroke-linecap:butt;stroke-linejoin:miter;stroke-opacity:1;fill-opacity:1" d="m 293.2003,522.84366 c -1.31659,2.19374 1.16725,5.40815 2.43249,6.99514 3.88676,3.87064 11.53374,8.11277 16.2778,9.03172 1.23278,0.0584 1.79227,-0.24294 2.46691,-0.58707 3.75025,-2.60331 6.61278,-5.6336 7.29365,-11.7357 0.14658,-1.39652 -2.4803,0.59273 -2.5587,-0.79359 -0.12841,-2.27049 0.54346,-4.16024 -1.35394,-5.95676 -0.24056,-0.22777 -0.83102,-0.5391 -1.06326,-0.68078 -0.5696,-0.34748 -0.71808,-0.51475 -1.42277,-0.74005 -0.87222,-0.27887 -1.84699,-0.20119 -2.74994,-0.22183 -0.88459,-0.0202 -1.82844,-0.0659 -2.72699,-0.0268 -1.12805,0.0491 -2.25404,0.17369 -3.38101,0.24477 -2.78385,0.17559 -5.55921,0.42173 -8.1695,1.49349 -1.1824,0.48549 -2.15472,1.29336 -3.22802,1.9601 -0.55822,0.34676 -0.23173,0.10276 -0.63107,0.34038 -0.23024,0.137 -0.47856,0.30161 -0.68462,0.47425 -0.0791,0.0663 -0.11992,0.19967 -0.22183,0.21609 -0.092,0.0148 -0.18614,-0.009 -0.2792,-0.0134 z" class="gamma--light"/>
  <path style="opacity:1;fill:#7b3e12;fill-opacity:1;stroke:#37180a;stroke-width:.54px;stroke-linecap:butt;stroke-linejoin:miter;stroke-opacity:1" d="m 298.2205,503.06361 c -0.0477,0.33107 0.0476,0.6676 0.0536,1.00204 0.0139,0.7816 -0.0244,1.53084 -0.19124,2.29856 -0.51461,2.36857 -1.2263,4.73905 -1.97352,7.04486 -0.38312,1.18224 -0.94033,2.30501 -1.33099,3.48801 -0.25319,0.76673 -0.41579,1.53903 -0.62725,2.31769 -0.16393,0.60366 -0.39978,1.18273 -0.55075,1.78989 -0.3854,1.54996 -0.48094,3.57067 0.13769,5.07903 3.87342,6.7597 16.49146,12.34953 19.84239,11.3475 3.79255,-1.13408 12.80092,-9.95572 4.78854,-22.87093 -1.27679,-2.05807 -2.41087,-4.36554 -3.13623,-6.46351 -0.57724,-1.72172 -0.47181,-3.5375 -0.0536,-5.27026 0.0387,-0.16014 -0.18197,-0.002 -0.18197,-0.002 -1.8898,-0.15833 -3.53702,-0.39523 -3.53702,-0.39523 -0.92982,-1.95572 -1.44481,-2.83003 -3.39375,-2.89956 -1.31376,-0.008 -3.57732,-0.022 -4.70455,0.77893 -1.66086,1.18005 -0.4877,1.38388 -2.18592,2.53426 -0.31723,0.21489 -2.49358,0.41401 -2.67236,0.0486 -0.0515,-0.55589 -0.1973,-0.071 -0.28307,0.1721 z" class="alpha"/>
  <path style="fill:#66300f;fill-opacity:1;stroke:none;stroke-width:1px;stroke-linecap:butt;stroke-linejoin:miter;stroke-opacity:1" d="M 561.76758 918.94141 C 561.6841 918.93975 561.59809 918.94041 561.50977 918.94531 C 560.97045 918.97531 560.32128 919.02945 559.95117 919.48438 C 558.8931 920.78487 559.14667 928.01671 560.13477 929.78125 C 560.96345 930.68225 561.10596 931.19272 562.00391 930.4082 C 563.68802 932.21104 554.43907 935.42837 554.72461 936.66602 C 555.68552 938.91244 563.86386 941.22178 566.58203 945.67578 C 568.00242 952.77545 567.84371 949.52717 565.94336 966.44141 C 565.31906 968.82502 564.91696 971.17106 563.67773 973.32617 C 563.65663 973.36289 563.45333 973.69638 563.34766 973.86914 C 562.39644 974.12897 561.49647 974.38113 561.28516 974.42969 C 558.67692 975.02926 555.83881 974.14112 553.31055 973.53125 C 546.21108 971.81871 536.91272 963.64477 532.3457 958.28906 C 531.12013 956.85182 529.76446 955.35431 529.1582 953.52344 C 528.47472 951.45942 529.85647 946.27146 531.04297 944.59961 C 531.48837 943.97202 532.08242 943.238 532.74609 942.54883 C 531.45953 943.51944 530.04448 944.35889 528.83203 945.44141 C 527.59011 946.55024 526.17318 947.70814 525.30664 949.15234 C 525.18016 949.36301 525.18595 949.70192 525.15039 949.93945 C 525.09502 950.30856 524.88385 950.66887 524.86719 951.03711 C 524.81341 952.17981 525.16967 953.34103 525.47656 954.43555 C 527.55777 960.54588 535.9142 966.13899 541.96484 970.48633 C 543.04386 971.14811 544.23669 971.61264 545.36328 972.18555 C 547.38032 973.21127 549.4742 974.23916 551.68164 974.79102 C 554.45279 975.48379 560.66466 977.52859 563.36914 975.99609 C 563.57517 975.87934 564.54278 975.2858 565.30859 974.65625 C 565.64537 974.40895 565.99245 974.12659 566.39648 973.78516 C 574.4458 966.59564 576.5959 961.51103 576.48242 953.79102 C 576.23522 947.41929 574.31095 940.87132 571.75195 935.46289 C 571.08705 934.12202 570.05666 932.96657 569.28711 931.6875 C 568.65946 930.64426 568.29382 929.50391 567.74219 928.42969 C 566.98215 926.94967 566.27245 925.44816 565.54688 923.95312 C 564.66097 922.12764 564.35554 918.99282 561.76758 918.94141 z M 532.74609 942.54883 C 532.80138 942.50712 532.85733 942.46606 532.91211 942.42383 C 533.29306 942.13019 533.60233 941.78551 533.91602 941.46094 C 533.51008 941.7895 533.11837 942.16225 532.74609 942.54883 z M 533.91602 941.46094 C 534.49786 940.98999 535.1014 940.60531 535.68945 940.39258 C 534.89818 940.50948 534.40116 940.95897 533.91602 941.46094 z" transform="matrix(0.54,0,0,0.54,10,10)" class="alpha--dark"/>
  <path style="fill:#7b3e12;fill-opacity:1;stroke:#37180a;stroke-width:.54px;stroke-linecap:butt;stroke-linejoin:miter;stroke-opacity:1" d="m 297.86869,504.831 c -0.11896,0.86282 -0.19809,1.72889 -0.38404,2.58268 -0.30555,1.403 -0.64061,2.82604 -1.11964,4.18097 -0.28797,0.81454 -0.66041,1.59538 -0.94115,2.41231 -0.16177,0.47075 -0.28839,0.95476 -0.44353,1.42791 -0.27248,0.83105 -0.69567,1.59274 -0.89246,2.45017 -0.14848,0.6469 -0.3851,1.31463 -0.44354,1.9769 -0.004,0.0408 -0.48813,2.93755 -0.44403,2.98168 4.51443,-6.43402 14.37731,-9.63356 24.38378,-4.81254 1.59075,0.43485 1.56098,-1.3851 0.53007,-2.44479 -1.47764,-1.41467 -3.82259,-2.01892 -5.21418,-3.31827 -0.76518,-1.28619 -0.74738,-2.97875 -0.76807,-4.33782 -0.0237,-1.97887 1.4803,-0.88238 2.53137,-0.48409 0.61692,0.23377 1.32408,0.43808 1.98507,0.45975 0.31212,0.0103 0.55914,0.0212 0.80592,-0.19742 1.46431,-1.6389 -2.79472,-4.22565 -4.88964,-5.02474 -0.7203,-0.2798 -1.43991,-0.53252 -2.19061,-0.73018 -0.18994,-0.05 -0.82256,-0.15635 -0.94655,-0.17579 -0.39856,-0.0624 -0.79439,-0.145 -1.19537,-0.1893 -4.23811,-0.7948 -7.64255,2.16319 -10.36344,3.24258 -0.01,0.11686 0.004,-0.11719 0,0 z" class="alpha"/>
  <path style="fill:#a49387;fill-opacity:1;stroke:#42403e;stroke-width:.281826;" d="m 313.48174,512.42048 c -0.94583,1.06837 -0.51019,4.16227 -0.51019,4.16227 0.91233,0.59503 2.8808,1.43514 3.37896,1.13217 0.35666,-0.49461 0.12994,-2.58381 -0.0973,-3.87852 -0.6494,-0.98453 -2.7715,-1.41592 -2.7715,-1.41592 z" class="beta"/>
  <path style="fill:#6c6764;fill-opacity:1;stroke:none;stroke-width:.563652px;stroke-linecap:butt;stroke-linejoin:miter;stroke-opacity:1" d="m 313.82013,513.04382 c -0.32338,0.0646 -0.38522,0.42848 -0.45604,0.72531 -0.11497,0.7724 -0.11886,1.69118 0.0168,2.44516 -0.0253,0.79326 3.23613,2.02939 2.96962,1.50063 0.27258,-1.15471 0.15871,-3.53157 -0.12537,-3.83149 -0.16267,-0.49908 -1.88457,-1.12682 -2.40431,-0.83964 z" class="beta--dark"/>
  <path style="fill:#42403e;fill-opacity:1;stroke:none;stroke-width:.563652px;stroke-linecap:butt;stroke-linejoin:miter;stroke-opacity:1" d="m 314.4275,517.07959 c 0.32807,0.15113 1.60967,0.63154 1.74325,0.17829 0.32601,-1.10617 0.18576,-1.621 0.10826,-2.69468 -0.0205,-0.14534 0.014,-0.31439 -0.031,-0.45561 -0.12912,-0.39252 -0.59182,-0.65849 -0.9519,-0.69669 -0.21114,-0.0221 -0.14514,0.15395 -0.0228,0.26971 0.0928,0.0876 0.21196,0.15379 0.31413,0.22814 0.26033,0.18928 0.31554,0.40231 0.34153,0.73324 0.017,0.14598 0.0244,0.29233 0.0321,0.43888 0.005,0.20643 0.035,0.41255 0.027,0.61954 -0.01,0.28545 -0.14412,1.16055 -0.30196,1.36595 -0.0628,0.0815 -0.16188,0.13402 -0.25709,0.15364 -0.34897,0.071 -0.65343,-0.32672 -1.00125,-0.14061 z" class="beta--darker"/>
  <path style="fill:#42403e;fill-opacity:1;stroke:none;stroke-width:.563652px;stroke-linecap:butt;stroke-linejoin:miter;stroke-opacity:1" d="m 314.04551,516.37766 c -0.54587,0.18032 -0.64148,-1.83527 -0.49125,-2.43308 0.10097,-0.51837 0.37162,-0.93501 0.8369,-0.55057 -0.005,0.0581 -0.61948,0.34999 -0.61969,0.41013 -0.001,0.19161 0.005,0.38472 0.0118,0.57619 0.004,0.23987 0.007,0.47902 0.0209,0.71844 0.014,0.20614 0.84005,1.08267 0.65917,1.14193 z"/>
  <path style="fill:none;stroke:#d9cdc4;stroke-width:.169095;" d="m 313.26696,512.99324 c -0.40967,0.85481 -0.27912,2.26405 -0.23016,3.42702" class="beta--light"/>
  <path style="fill:#66300f;fill-opacity:1;stroke:none;stroke-width:.563652px;stroke-linecap:butt;stroke-linejoin:miter;stroke-opacity:1" d="m 314.14616,516.53904 c 0.90216,0.39789 1.3064,0.65192 1.44753,0.42119 0.34927,-0.57079 0.31231,-2.10752 0.0876,-2.83104 -0.13821,-0.445 -0.36311,-0.65525 -0.67995,-0.77394 -1.71485,-0.45471 -1.11173,1.06964 -1.51424,1.31066 0.49077,0.47196 -0.16467,1.46485 0.65907,1.87364 z" class="alpha--dark"/>
  <path style="fill:#7b3e12;fill-opacity:1;stroke:none;stroke-width:.563652px;stroke-linecap:butt;stroke-linejoin:miter;stroke-opacity:1" d="m 314.17736,516.50577 c -0.29702,-0.33846 -0.28629,-0.43409 -0.33051,-0.7873 -0.0292,-0.25991 -0.016,-0.21483 -0.0182,-0.47806 0.78607,0.0563 0.63408,-0.84886 -0.0552,-0.88023 -0.0271,-0.38659 -0.0415,-0.93971 0.45084,-0.9185 0.0537,0.0109 -0.018,0.0654 0.0287,0.0866 0.36522,0.17028 0.73549,0.40645 0.9629,0.76533 0.0822,0.13136 0.17545,0.25532 0.23155,0.404 0.10547,0.28855 0.14106,0.57801 0.10356,0.88525 -0.0435,0.37235 -0.27575,0.72975 -0.62014,0.83488 -0.26084,0.0723 -0.48621,0.13016 -0.74881,0.0853 z" class="alpha"/>
  <path style="fill:#6c6764;fill-opacity:1;stroke:#42403e;stroke-width:.169095;" d="m 314.02897,515.001 c -0.063,-0.056 -0.13458,-0.12506 -0.216,-0.14776 -0.0683,-0.0202 -0.13906,-0.0331 -0.2081,-0.0485 -0.0718,-0.0164 -0.15176,-0.0284 -0.21979,-0.0613 -0.0402,-0.0183 -0.10085,-0.0424 -0.13349,-0.077 -0.1073,-0.1143 -0.007,-0.22729 0.10756,-0.27214 0.0937,0.01 0.18043,-0.034 0.27231,-0.0144 0.13225,0.0181 0.45484,0.13304 0.5205,0.28518" class="beta--dark"/>
  <path style="fill:#d9cdc4;fill-opacity:1;stroke:none;stroke-width:.563652px;stroke-linecap:butt;stroke-linejoin:miter;stroke-opacity:1" d="m 313.54431,514.51084 c -0.0452,-0.013 -0.0559,-0.0191 -0.0968,-0.0129 -0.0586,-0.0109 -0.14553,0.0222 -0.14537,0.0966 -0.009,0.0223 -0.003,0.0392 0.0313,0.0463 0.11766,0.0675 0.27888,0.0926 0.41181,0.0825 0.0506,0.0109 0.10037,-0.0207 0.0762,-0.0805 0.004,-0.0888 -0.20275,-0.0647 -0.24326,-0.0933 -0.008,-0.0143 -0.0204,-0.0239 -0.0321,-0.0386 z" class="beta--light"/>
  <path style="fill:#66300f;fill-opacity:1;stroke:none;stroke-width:.54px;stroke-linecap:butt;stroke-linejoin:miter;stroke-opacity:1" d="m 316.646,514.72937 c 0.41451,0.14846 0.77623,0.42095 1.12235,0.68759 0.24539,0.18905 0.39436,0.48961 0.54359,0.75249 0.0831,0.14628 0.17603,0.29403 0.22988,0.45434 0.0903,0.26868 0.16871,0.79279 -0.0311,1.03645 -0.1811,0.22085 -0.52225,0.18651 -0.76942,0.13995 -0.32383,-0.061 -0.58528,-0.2443 -0.87218,-0.3901 -0.0137,-0.007 -0.20972,-0.0963 -0.21366,-0.10615 -0.0148,-0.037 0.009,-0.1348 0.008,-0.17646 -0.005,-0.19883 0.0212,-0.38499 0.0338,-0.58212 0.008,-0.63778 -0.1103,-1.74365 -0.1103,-1.74365 0.0145,-0.0276 0.0397,-0.0482 0.0595,-0.0723 z" class="alpha--dark"/>
  <path style="fill:#a49387;fill-opacity:1;stroke:#42403e;stroke-width:.289779;" d="m 313.10737,502.66619 c -0.93366,1.17128 -0.65318,4.44552 -0.65318,4.44552 0.77052,0.22591 2.70234,0.8325 3.19722,0.48991 0.56086,-1.27956 0.75478,-3.72233 0.2805,-4.07116 -0.78369,-0.70503 -2.82454,-0.8643 -2.82454,-0.8643 z" class="beta"/>
  <path style="fill:#6c6764;fill-opacity:1;stroke:none;stroke-width:.521603;" d="m 312.86738,506.4376 c -0.0212,-0.61182 0.0555,-1.19299 0.13057,-1.79713 0.0417,-0.33465 0.13957,-1.47798 0.48733,-1.61157 0.93968,0.18787 2.44598,0.0534 2.56462,0.86955 0.26794,1.7479 0.12642,2.66132 -0.3985,3.70321 -1.09279,0.23699 -2.68769,-0.74053 -2.78403,-1.16406 z" class="beta--dark"/>
  <path style="fill:#42403e;fill-opacity:1;stroke:none;stroke-width:1.07326px;stroke-linecap:butt;stroke-linejoin:miter;stroke-opacity:1" d="M 564.88867 913.86719 C 564.72373 913.87287 564.58035 913.91558 564.48828 914.00977 C 564.32198 914.17977 564.59402 914.34778 564.70508 914.42969 C 565.12737 914.73954 565.70301 915.23122 565.76953 915.85742 C 565.87194 916.82542 565.71861 917.75222 565.52539 918.69922 C 565.43613 919.137 565.36915 919.77588 565.07227 920.11133 C 564.69721 920.53512 564.15657 920.06767 563.88867 920.45703 C 564.24308 920.65568 565.11986 920.99409 565.52734 920.69141 C 566.47788 920.49583 566.70138 918.56641 566.58984 915.9707 C 566.59725 915.68846 566.51333 915.38795 566.45703 915.11719 C 566.41333 914.89984 566.39503 914.62567 566.26953 914.44336 C 566.08396 914.16897 565.38349 913.85014 564.88867 913.86719 z M 562.32422 913.97656 C 562.1917 913.97735 562.06589 914.00119 561.94922 914.08594 C 561.46952 914.43286 561.56159 915.97587 561.50781 916.5625 C 561.43559 917.35165 561.26125 918.13416 561.25195 918.92773 C 561.2501 919.2064 561.47098 919.75594 561.80469 919.58984 C 562.06569 919.45836 561.83488 918.52065 561.82617 918.31641 C 561.76302 916.85072 562.00253 915.38368 562.38281 913.97852 C 562.36365 913.97782 562.34315 913.97645 562.32422 913.97656 z" transform="matrix(0.54,0,0,0.54,10,10)" class="beta--darker"/>
  <path style="fill:#66300f;fill-opacity:1;stroke:none;stroke-width:.579558px;stroke-linecap:butt;stroke-linejoin:miter;stroke-opacity:1" d="m 313.37487,506.53649 c 0.25743,0.15571 0.54055,0.27211 0.82475,0.35411 0.22222,0.0641 0.76144,0.22366 0.97843,0.0683 0.28016,-0.20061 0.31091,-0.54082 0.34888,-0.88583 0.0201,-0.17741 0.0485,-0.34974 0.0614,-0.52826 0.0118,-0.15676 0.0451,-0.31126 0.0576,-0.46775 0.0166,-0.18896 0.0114,-0.85573 -0.11376,-1.00806 -0.0862,-0.10608 -0.29446,-0.54148 -0.40923,-0.59637 -0.8984,-0.41642 -1.43755,0.0757 -1.5634,0.28924 -0.0683,0.15032 -0.0843,0.59901 -0.0967,0.76969 -0.0205,0.27655 -0.0596,0.5567 -0.0848,0.83396 -0.0107,0.11903 -0.11432,1.01361 -0.0622,1.096 0.0187,0.0261 0.0374,0.0517 0.0586,0.0748 z" class="alpha--dark"/>
  <path style="fill:#7b3e12;fill-opacity:1;stroke:none;stroke-width:.579558px;stroke-linecap:butt;stroke-linejoin:miter;stroke-opacity:1" d="m 313.37497,506.53642 c -0.15964,-0.38392 -0.0313,-1.13814 -0.0313,-1.13814 0.91808,0.13099 0.56348,-0.86037 0.0626,-0.84046 0.0176,-0.22369 -0.006,-0.58349 0.12825,-0.7714 0.89542,-0.51524 1.309,-0.31599 1.49676,0.68856 0.35303,1.60451 -0.83139,2.38447 -1.65639,2.06119 z" class="alpha"/>
  <path style="fill:#6c6764;fill-opacity:1;stroke:#42403e;stroke-width:.173868;" d="m 313.5974,505.22797 c -0.1085,-0.026 -0.21087,-0.0771 -0.32009,-0.0999 -0.0845,-0.0172 -0.17232,-0.0236 -0.25748,-0.0389 -0.12034,-0.0205 -0.14669,-0.0713 -0.14693,-0.19997 0.002,-0.0635 -0.007,-0.0922 0.0355,-0.14097 0.11189,-0.13359 0.56863,-0.04 0.70324,0.065" class="beta--dark"/>
  <path style="fill:none;stroke:#d8ccc3;stroke-width:.173868;" d="m 312.45419,507.11171 c 0,0 0.0375,-1.34599 0.0463,-1.66653 0.0105,-0.36987 0.0393,-0.71163 0.1107,-1.07219 0.11649,-0.59033 0.27845,-1.16573 0.49599,-1.70682" class="beta--light"/>
  <path style="fill:#d7cbc2;fill-opacity:1;stroke:none;stroke-width:.579558px;stroke-linecap:butt;stroke-linejoin:miter;stroke-opacity:1" d="m 312.97863,504.88103 c 0.0378,0.0254 -0.0612,0.0779 -0.0459,0.11695 0.0143,0.0302 0.55048,0.20295 0.44722,0.0528 -0.0394,-0.0557 -0.0951,-0.0791 -0.15337,-0.0986 -0.0339,-0.0113 -0.0683,-0.0197 -0.10295,-0.0282 -0.0499,-0.0132 -0.0959,-0.0254 -0.14497,-0.0427 z" class="beta--light"/>
  <path style="fill:#66300f;fill-opacity:1;stroke:none;stroke-width:.54px;stroke-linecap:butt;stroke-linejoin:miter;stroke-opacity:1" d="m 316.30979,505.25238 c 0.19998,0.15911 0.54331,0.28207 0.71668,0.47056 0.60771,0.66075 0.80435,1.94722 -0.41919,1.95527 -0.0286,1.9e-4 -0.68235,-0.12546 -0.69234,-0.17038 0.25371,-0.74142 0.29685,-1.55562 0.39485,-2.25545 z" class="alpha--dark"/>
  <path style="fill:#66300f;fill-opacity:1;stroke:none;stroke-width:.54px;stroke-linecap:butt;stroke-linejoin:miter;stroke-opacity:1" d="m 246.47665,519.28901 c 0.3755,0.87231 0.73687,1.75266 1.09386,2.63321 0.0704,0.17377 0.11692,0.81053 0.34805,0.84905 0.34764,-0.27191 0.66168,-0.67165 0.99824,-0.94084 0.16989,-0.21236 0.2479,-0.49661 0.37864,-0.73431 0.2416,-0.43928 0.52786,-0.88318 0.84143,-1.27359 0.30614,-0.38116 0.64791,-0.73395 0.95999,-1.11103 0.73803,-0.89176 1.226,-1.4379 2.13034,-2.17428 0.35291,-0.28735 0.99847,-0.86506 1.37688,-1.11103 0.65476,-0.56021 1.53905,-0.94934 2.11888,-1.3558 0.24531,-0.61328 -0.31561,-1.62292 -0.54694,-2.1781 -0.39422,-0.94612 -0.6354,-1.41518 -1.30421,-2.18574 -0.10231,-0.11788 -0.14898,-0.29773 -0.2792,-0.39202 -0.3028,-0.21927 -0.21653,0.53854 -0.22183,0.63488 -0.0258,0.46778 -0.52377,0.84794 -0.67697,1.28314 -0.19588,0.55647 -0.0547,1.14506 -0.3404,1.68281 -0.15552,0.29276 -0.43265,0.63078 -0.66549,0.86818 -0.1786,0.1821 -0.37722,0.3226 -0.5278,0.53161 -0.53878,0.74784 -0.98982,1.55907 -1.51075,2.31961 -0.40826,0.59604 -0.84885,1.15294 -1.29656,1.71723 -0.14848,0.18713 -1.289,1.74547 -1.52222,1.78989 -0.51286,0.0977 -0.99001,-0.60177 -1.35394,-0.85287 z" class="alpha--dark"/>
  <path style="fill:none;stroke:#37180a;stroke-width:.162;" d="m 256.50701,512.4264 c -1.32148,0.80852 -2.43293,1.87128 -3.50496,2.97481 -0.26829,0.27618 -0.57436,0.50085 -0.8492,0.76805 -0.42061,0.40891 -0.80759,0.85936 -1.21701,1.27917 -0.75467,0.77384 -1.40253,1.66872 -2.10947,2.48533 -0.32057,0.37031 -0.57732,0.79252 -0.90328,1.16017 -0.13121,0.14799 -0.70274,0.62885 -0.76807,0.82484" class="alpha--darkest"/>
  <path style="fill:#7e4f2d;fill-opacity:1;stroke:none;stroke-width:.54px;stroke-linecap:butt;stroke-linejoin:miter;stroke-opacity:1" d="m 320.22963,518.98184 c -0.5362,3.40594 -0.36391,6.85703 -1.44572,9.9783 -0.97759,1.97591 -1.20116,2.93576 -2.06533,5.00254 2.67726,-2.53792 4.5807,-6.52636 4.6508,-9.47728 0.0218,-0.98554 0.0173,-1.96678 -0.12238,-2.94492 -0.0367,-0.25655 -0.44111,-2.41005 -0.65785,-2.48979 -0.11451,-0.0421 -0.23968,-0.0459 -0.35952,-0.0688 z" class="alpha--lighter"/>
  <path style="fill:#4d240c;stroke:none;stroke-width:.54px;stroke-linecap:butt;stroke-linejoin:miter;stroke-opacity:1;fill-opacity:1" d="m 295.33262,520.53844 c -0.62595,1.04319 -0.71848,2.2765 -0.56605,3.46124 0.0592,0.46012 0.25187,0.84385 0.44366,1.2621 0.79543,1.73467 1.70828,2.67815 3.06739,3.94313 0.41906,0.39005 1.95085,1.50353 1.98883,2.11117 0.0158,0.25331 -0.69659,-0.15131 -0.78024,-0.19123 -0.96516,-0.46064 -1.91686,-1.14943 -2.72316,-1.84345 -1.65985,-1.42869 -3.3818,-3.10997 -3.64109,-5.40029 -0.0336,-0.29737 -0.0673,-0.6989 0.0382,-0.98673 0.17953,-0.48963 0.726,-0.95144 1.05561,-1.33478 0.36675,-0.42653 0.6368,-0.73207 1.1168,-1.02116 z" class="alpha--darker"/>
  <path style="fill:#66300f;stroke:none;stroke-width:.54px;stroke-linecap:butt;stroke-linejoin:miter;stroke-opacity:1;fill-opacity:1" d="m 297.86869,504.831 c -0.0504,2.99308 -0.92223,6.00203 -2.02356,8.77732 -0.30984,0.78076 -0.73611,1.5087 -1.04031,2.29092 -0.31504,0.81006 -0.55132,1.67656 -0.73434,2.52421 -0.21553,0.99821 -0.42614,1.99922 -0.64254,2.99464 -0.0168,0.0775 -0.16399,0.75161 -0.0841,0.76492 0.0517,0.009 0.30927,-0.41656 0.34422,-0.4666 0.42376,-0.60672 1.07421,-1.13468 1.69816,-1.52983 0.0926,-0.0586 0.1898,-0.10591 0.27537,-0.17593 0.73,-0.59725 -0.0471,-0.0607 -0.20653,-0.4666 -0.11061,-0.28156 0.23619,-0.86852 0.33657,-1.1053 0.72643,-1.71338 1.47703,-3.48435 1.93529,-5.2932 0.19929,-0.78667 0.23084,-1.58341 0.34422,-2.38271 0.17641,-1.2437 0.40552,-2.49903 0.6196,-3.7366 0.074,-0.42783 0.59179,-2.15704 0.39776,-2.51275 -0.042,-0.0769 -1.06916,0.26073 -1.21976,0.31751 z" class="alpha--dark"/>
  <path style="fill:#9a5e33;stroke:none;stroke-width:.54px;stroke-linecap:butt;stroke-linejoin:miter;stroke-opacity:1;fill-opacity:1" d="m 299.30346,504.2343 c 0.24174,-0.0134 3.45345,-1.89635 3.80089,-1.34625 0.0759,0.12019 -0.43976,0.51978 -0.5125,0.60811 -0.24454,0.29693 -0.0603,0.51342 -0.0994,0.86053 -0.0395,0.35088 -0.2305,0.66355 -0.26008,1.01351 -0.0293,0.34658 0.0706,0.69843 0.0382,1.04793 -0.14867,1.60557 -0.36132,3.1986 -0.40541,4.81896 -0.0166,0.61006 0.0994,1.22093 0.0994,1.83579 0,0.36087 1.02797,1.58207 1.30039,1.96201 0.0599,0.0835 0.79596,0.5872 0.71903,0.67695 -0.12311,0.14362 -1.765,0.44264 -2.07297,0.53161 -0.43036,0.12432 -0.91721,0.18142 -1.33099,0.34421 -0.34945,0.13749 -0.63516,0.38081 -0.98676,0.52779 -0.4458,0.18636 -0.84378,0.28606 -1.26214,0.53162 -0.19077,0.11197 -0.46437,0.16379 -0.67314,0.24094 -0.0724,0.0267 -0.15067,0.17883 -0.19889,0.11857 -0.0893,-0.11167 0.29236,-0.49714 0.34423,-0.56604 0.18492,-0.24569 0.41628,-0.50898 0.55075,-0.78786 0.13168,-0.27312 0.11241,-0.54953 0.21418,-0.81846 0.0847,-0.22395 0.26197,-0.39185 0.39012,-0.58898 0.29757,-0.4578 0.10639,-0.80123 0.22183,-1.27741 0.0948,-0.39107 0.24155,-0.76953 0.32892,-1.16267 0.10673,-0.48031 0.0452,-0.96906 0.0994,-1.45334 0.0811,-0.72384 0.1829,-1.42393 0.24478,-2.15323 0.0806,-0.94985 0.1862,-1.90203 0.26773,-2.85312 0.0211,-0.24561 0.18174,-0.50331 0.12238,-0.75344 -0.0905,-0.38134 -0.48112,-0.42096 -0.68079,-0.71137 -0.13082,-0.19029 -0.16381,-0.42938 -0.25925,-0.64636 z" class="alpha--light"/>
  <path style="fill:#9a5e33;stroke:none;stroke-width:.54px;stroke-linecap:butt;stroke-linejoin:miter;stroke-opacity:1;fill-opacity:1" d="m 304.65953,502.2355 c 0.30264,-0.13944 0.59261,-0.31055 0.90791,-0.41833 0.59018,-0.20173 3.55591,0.0268 4.00826,0.55457 0.004,0.004 -0.39266,-0.0592 -0.62724,0.11091 -0.37175,0.2695 -0.50038,0.62303 -0.45897,1.07853 0.0575,0.63191 -0.20167,1.55681 -0.28302,2.21442 -0.10299,0.83246 0.14837,1.6626 0.0612,2.47832 -0.0423,0.39574 -0.23753,0.76437 -0.24478,1.16649 -0.007,0.39263 0.12881,0.73075 0.15299,1.12061 0.0463,0.74714 -0.17207,1.49603 0.008,2.23737 0.16286,0.67176 1.19409,1.47579 0.74199,2.19913 -0.0751,0.12021 -0.19672,0.39612 -0.30597,0.47807 -0.28905,0.21678 -1.55925,0.11349 -1.94293,0.0536 -0.15834,-0.0247 -0.36382,-0.1758 -0.50486,-0.2486 -0.56463,-0.29141 0.30385,-2.47779 0.35187,-3.02523 0.10457,-1.19207 -0.0153,-2.4018 -0.023,-3.5951 -0.008,-1.20642 0.12215,-2.47159 -0.18359,-3.65629 -0.0888,-0.34404 -0.63423,-0.57328 -0.79553,-0.95231 -0.11926,-0.28026 -0.0826,-0.59932 -0.14533,-0.89113 -0.0773,-0.35937 -0.48768,-0.63779 -0.71668,-0.90497 z" class="alpha--light"/>
  <path style="fill:#9a5e33;fill-opacity:1;stroke:none;stroke-width:1px;stroke-linecap:butt;stroke-linejoin:miter;stroke-opacity:1" d="M 546.75781 939.41602 C 544.5826 939.44703 542.43822 939.76921 540.40625 940.73828 C 539.55145 941.14593 538.73199 941.44026 538.09766 942.19141 C 538.03155 942.26974 537.56521 942.83311 537.78516 942.91992 C 538.29414 943.12083 541.19951 942.04988 541.96484 941.94336 C 544.65688 941.56871 551.75843 941.4961 553.97656 942.77148 C 554.25491 942.93148 553.42886 943.11529 553.12695 943.22461 C 552.06216 943.61013 550.73575 943.89279 549.79688 944.53516 C 549.77002 944.55367 551.69132 945.01996 551.63867 945.5332 C 551.53645 946.53005 549.61337 946.57313 549.8125 948.23242 C 549.87546 948.75774 550.24785 949.08622 550.34961 949.57812 C 550.47776 950.19755 550.28235 950.46979 550.73242 951.03711 C 550.94481 951.30491 551.29781 951.44683 551.46875 951.74414 C 552.22742 953.06351 552.77236 954.64363 553.12695 956.12109 C 553.76308 958.77154 554.44455 961.41035 554.91211 964.08203 C 555.01155 964.65059 554.72244 965.16727 554.68555 965.72656 C 554.61036 966.86647 554.92922 968.14296 555.23633 969.23242 C 555.59672 970.51092 556.50526 971.48353 557.78711 971.89453 C 558.53844 972.13544 559.38957 972.01725 560.0957 971.68945 C 562.1737 970.72469 562.27439 968.90196 562.43359 966.8457 C 562.49119 966.1018 562.55043 965.14943 562.34766 964.4082 C 562.0166 963.19861 561.16473 962.29688 561.10156 961.00195 C 561.0186 959.30112 562.31666 957.80234 562.39062 956.06445 C 562.42951 955.1529 562.42679 952.61072 562.03711 951.81641 C 561.59765 950.92065 560.14618 950.62088 559.62891 949.45703 C 559.04437 948.14186 560.43479 948.05542 560.19531 946.87305 C 560.07809 946.29444 559.54704 945.71584 559.25977 945.20117 C 558.98688 944.71225 559.16427 944.22903 558.90625 943.78516 C 558.16249 942.50593 557.13512 941.76956 556.03125 940.85938 C 554.85538 939.76075 553.3508 939.84704 551.85156 939.70508 C 550.15955 939.54485 548.44965 939.39189 546.75781 939.41602 z M 539.04688 947.53711 C 537.71275 948.051 533.86326 951.21665 534.54102 952.87109 C 534.83326 953.58448 536.27045 952.22063 536.67969 952.58008 C 536.69635 952.59489 536.77677 955.8161 537.40234 956.83008 C 537.78353 957.44784 538.42746 957.69131 538.9043 958.22461 C 539.89567 959.33335 540.66493 960.66301 541.70898 961.73047 C 542.52591 962.56575 543.48107 963.25666 544.38672 963.99023 C 544.6419 964.19694 547.78414 966.81441 547.73047 965.39258 C 547.71565 965.01365 545.50334 962.84147 545.22266 962.43945 C 542.66449 958.77549 541.43002 956.9884 540.03711 952.71484 C 539.47998 951.00549 540.38353 951.48539 540.47656 950.07422 C 540.52804 949.29303 539.35764 949.97849 539.06055 949.41406 C 538.81675 948.95086 539.62149 948.49162 539.55664 948.30273 C 539.4572 948.01288 539.21686 947.79209 539.04688 947.53711 z" transform="matrix(0.54,0,0,0.54,10,10)" class="alpha--light"/>
  <path style="fill:none;stroke:#37180a;stroke-width:.27;" d="m 298.31465,518.38891 c 0.44954,1.81359 1.07491,4.99046 5.38636,5.35069 2.52142,-0.0262 4.17737,-1.24353 5.70257,-2.41903 1.28393,0.85307 5.03764,2.66807 6.34131,2.13984 3.08257,-1.24902 1.83919,-5.42933 1.83919,-5.42933" class="alpha--darkest"/>
  <path style="fill:none;stroke:#37180a;stroke-width:.216;stroke-linecap:butt;stroke-linejoin:miter;stroke-opacity:1;stroke-miterlimit:4;stroke-dasharray:none" d="m 317.72876,515.18259 c -0.0808,-0.4735 0.0357,-0.85786 0.30214,-1.23725"/>
  <path style="fill:none;stroke:#37180a;stroke-width:.162;" d="m 296.93723,519.16889 c -0.0897,0.0757 0.0793,0.22132 0.12982,0.32723 1.70888,3.83124 3.40405,6.49464 9.26545,4.93549 1.08862,-0.28958 2.25847,-1.07331 3.15338,-1.69564 0.2869,0.23491 0.65197,0.44917 0.97361,0.61119 4.24835,2.81794 7.50343,1.88644 8.34052,-1.4198 0.21912,-0.86544 0.0574,-2.88628 -0.0433,-3.77531 -0.0878,-0.77571 0.20008,-0.89251 0.0866,-1.66861 -0.0547,-0.37376 -0.54161,-0.87262 -0.51379,-1.25213 0.008,-0.11271 0.19026,-0.48457 0.13522,-0.57603 -0.14299,-0.23761 -0.28917,-0.47329 -0.43376,-0.70994" class="alpha--darkest"/>
</svg>
