<svg id="svg39699" xmlns:rdf="http://www.w3.org/1999/02/22-rdf-syntax-ns#" xmlns="http://www.w3.org/2000/svg" height="64" viewBox="0 0 64 64.000001" width="64" version="1.1" xmlns:cc="http://creativecommons.org/ns#" xmlns:dc="http://purl.org/dc/elements/1.1/">
	<circle id="path39707" style="color-rendering:auto;text-decoration-color:#000000;color:#000000;isolation:auto;mix-blend-mode:normal;shape-rendering:auto;solid-color:#000000;text-decoration-line:none;text-decoration-style:solid;image-rendering:auto;enable-background:new" fill-rule="evenodd" cx="32" cy="32" r="31.821" fill="#e35a4e"/>
	<path id="path30867-3-1-8-02-5" d="m40.719 17.707c1.4924-0.76298 2.5335 0.42326 3.4915 0.72669 0.94757 0.30009 1.4527-0.0152 2.5356-0.1653 0.93424 0.4199 1.2491 0.81794 1.2994 1.1939 0.0503 0.37598-0.23782 0.6834-0.40118 0.8567-0.53741 1.1348 0.95152 3.0264 0.30096 3.5929-0.37382 0.32554-0.49046 1.897 0.0375 2.0693 1.3005 0.42447 1.31 3.6133 1.5157 5.6716 0.062 0.62066 0.0824 1.1546 0.11785 1.5407 0.0355 0.38616 0.11155 2.4959-0.10215 3.2934-0.37703 1.4072-3.1853 1.5263-5.3644 1.5516l-7.5397 4.0061c-3.1118 4.9414-8.9133 7.4566-13.55 7.5912-2.8714 0.0834-7.6178-0.75407-8.3132-2.8709-0.43573-1.3266-0.81007-4.1866 0.10136-4.4817 0.10949-1.6112 0.58105-2.8597 1.2787-3.8065 0.16935-0.30363 0.40008-0.58834 0.70018-0.84052 0.99754-0.83832 2.7228-1.9765 4.4724-3.111 2.1581-1.246 10.439-10.26 12.046-13.042 0.28622-0.76479 0.12377-2.5124 0.002-4.4405-0.0994-1.5746 1.4924-2.8077 3.0985-2.6753 1.6061 0.13239 3.7256 1.1071 4.2729 3.3396z" stroke="#fff" stroke-width="3" fill="none"/>
</svg>
