<svg id="svg39699" xmlns:rdf="http://www.w3.org/1999/02/22-rdf-syntax-ns#" xmlns="http://www.w3.org/2000/svg" height="64" viewBox="0 0 64 64.000001" width="64" version="1.1" xmlns:cc="http://creativecommons.org/ns#" xmlns:dc="http://purl.org/dc/elements/1.1/">
	<circle id="path39707" style="color-rendering:auto;text-decoration-color:#000000;color:#000000;isolation:auto;mix-blend-mode:normal;shape-rendering:auto;solid-color:#000000;text-decoration-line:none;text-decoration-style:solid;image-rendering:auto;enable-background:new" fill-rule="evenodd" cx="32" cy="32" r="31.821" fill="#e35a4e"/>
	<path id="path5686" style="image-rendering:optimizeQuality;shape-rendering:geometricPrecision" fill="#fff" d="m32.2 10.636c-0.15976-0.006-0.32-0.005-0.48019 0.001-2.4696 0.10817-4.802 1.7793-5.6978 4.0832-0.23128 0.59481-0.35491 1.2231-0.39372 1.8582-0.52128-0.4696-1.0976-0.87389-1.7478-1.1432-2.327-0.96383-5.209-0.39073-6.99 1.3903s-2.3541 4.663-1.3903 6.99c0.27327 0.65975 0.68746 1.2415 1.1666 1.7682-0.71127 0.0336-1.4157 0.15253-2.0755 0.42584-2.327 0.96393-3.9594 3.4069-3.9594 5.9257s1.6324 4.9618 3.9594 5.9257c0.68337 0.28307 1.4143 0.39489 2.1514 0.42118-0.51071 0.54417-0.95612 1.1452-1.2425 1.8366-0.96384 2.327-0.39074 5.209 1.3903 6.99s4.663 2.3541 6.99 1.3903c0.65977-0.27326 1.2415-0.68745 1.7682-1.1666 0.0336 0.71128 0.15254 1.4157 0.42586 2.0755 0.96391 2.327 3.4069 3.9594 5.9257 3.9594s4.9618-1.6324 5.9257-3.9594c0.28202-0.68083 0.39466-1.4089 0.42176-2.1433 0.52774 0.48086 1.1108 0.89664 1.7723 1.1706 2.327 0.96385 5.209 0.39074 6.99-1.3903s2.3541-4.663 1.3903-6.99c-0.27327-0.65977-0.68746-1.2415-1.1666-1.7682 0.71127-0.0336 1.4157-0.15254 2.0755-0.42585 2.327-0.96391 3.9594-3.4069 3.9594-5.9257s-1.6324-4.9618-3.9594-5.9257c-0.63609-0.26348-1.3138-0.38942-1.999-0.42993 0.4481-0.50847 0.82987-1.0724 1.09-1.7005 0.96384-2.327 0.39074-5.209-1.3903-6.99s-4.663-2.3541-6.99-1.3903c-0.6663 0.27597-1.2519 0.69676-1.7823 1.1823-0.0342-0.76322-0.15809-1.5191-0.46673-2.2204-0.96883-2.2014-3.2747-3.7344-5.671-3.825zm-0.34642 3.0598a3.3523 3.3523 0 0 1 2.5171 5.7195v6.8609l4.8514-4.8514a3.3523 3.3523 0 1 1 3.3525 3.3525l-4.7877 4.7877h6.7972a3.3523 3.3523 0 1 1 0 4.741h-6.8609l4.8514 4.8514a3.3523 3.3523 0 1 1 -3.3525 3.3525l-4.8514-4.8514v6.9246a3.3523 3.3523 0 1 1 -4.741 0v-6.8609l-4.8514 4.8514a3.3523 3.3523 0 1 1 -3.3525 -3.3525l4.9151-4.9151h-6.9246a3.3523 3.3523 0 1 1 0 -4.741h6.8609l-4.8514-4.8514a3.3523 3.3523 0 1 1 3.3525 -3.3525l4.8514 4.8514v-6.7972a3.3523 3.3523 0 0 1 2.2239 -5.7195z"/>
</svg>
