<svg id="svg39699" xmlns:rdf="http://www.w3.org/1999/02/22-rdf-syntax-ns#" xmlns="http://www.w3.org/2000/svg" height="64" viewBox="0 0 64 64.000001" width="64" version="1.1" xmlns:cc="http://creativecommons.org/ns#" xmlns:dc="http://purl.org/dc/elements/1.1/">
	<circle id="path39707" style="color-rendering:auto;text-decoration-color:#000000;color:#000000;isolation:auto;mix-blend-mode:normal;shape-rendering:auto;solid-color:#000000;text-decoration-line:none;text-decoration-style:solid;image-rendering:auto;enable-background:new" fill-rule="evenodd" cx="32" cy="32" r="31.821" fill="#e35a4e"/>
	<path id="path3611" d="m26.204 44.695c11.79 0 18.238-9.7677 18.238-18.238 0-0.27744-0.006-0.55362-0.0181-0.82855 1.2516-0.90479 2.3394-2.0339 3.1974-3.3192-1.1485 0.5105-2.3844 0.85417-3.681 1.0091 1.3234-0.79356 2.3394-2.0489 2.8187-3.5454-1.2384 0.7342-2.61 1.2678-4.0703 1.5559-1.1697-1.246-2.835-2.0251-4.6789-2.0251-3.5398 0-6.4103 2.8706-6.4103 6.4091 0 0.503 0.0562 0.99226 0.16621 1.4615-5.3275-0.26807-10.051-2.8187-13.212-6.6972-0.5505 0.94727-0.86792 2.0476-0.86792 3.2217 0 2.2238 1.1316 4.1871 2.8524 5.3356-1.0516-0.0325-2.0395-0.32118-2.9031-0.80169-0.00094 0.0269-0.00094 0.0531-0.00094 0.0819 0 3.1042 2.2095 5.6961 5.1425 6.2835-0.53862 0.14684-1.1054 0.22557-1.6902 0.22557-0.4124 0-0.81418-0.0406-1.2047-0.11559 0.81605 2.5469 3.1824 4.4002 5.9879 4.452-2.1938 1.7196-4.9576 2.7437-7.9612 2.7437-0.51675 0-1.0272-0.0294-1.529-0.0887 2.8368 1.8183 6.2054 2.8793 9.8258 2.8793" fill="#fff"/>
</svg>
