<svg id="svg39699" xmlns:rdf="http://www.w3.org/1999/02/22-rdf-syntax-ns#" xmlns="http://www.w3.org/2000/svg" height="64" viewBox="0 0 64 64.000001" width="64" version="1.1" xmlns:cc="http://creativecommons.org/ns#" xmlns:dc="http://purl.org/dc/elements/1.1/">
	<circle id="path39707" style="color-rendering:auto;text-decoration-color:#000000;color:#000000;isolation:auto;mix-blend-mode:normal;shape-rendering:auto;solid-color:#000000;text-decoration-line:none;text-decoration-style:solid;image-rendering:auto;enable-background:new" fill-rule="evenodd" cx="32" cy="32" r="31.821" fill="#e35a4e"/>
	<path id="path6111" fill="#fff" d="m27.43 1.1018c-0.11555 0-0.29743 0.0193-0.37447 0.12411-0.077 0.10057-0.14764 0.2311-0.2311 0.31241-0.0471 0.0492-0.0984 0.18831-0.22896 0.18831-0.0727 0-0.32097-0.0407-0.37447 0-0.0984 0.0727-0.23966 0.14551-0.26962 0.26962-0.0407 0.16263-0.1776 0.13481-0.29316 0.25036-0.0642 0.0642-0.21612 0.18402-0.31241 0.20756-0.12411 0.0321-0.23538 0.0642-0.37447 0.0642-0.10485 0-0.2525-0.0257-0.35307 0-0.16691 0.0406-0.25464 0.19258-0.39587 0.22896-0.13053 0.0321-0.18831 0.0834-0.25036 0.16691-0.0813 0.10485-0.26534 0.16476-0.39587 0.16476-0.199 0-0.2097 0.0385-0.35521 0.14765-0.10271 0.077-0.2846 0.10271-0.41513 0.10271-0.17761 0-0.42797 0.006-0.58417 0.0835-0.10485 0.0535-0.24608 0.0727-0.29102 0.1883-0.0727 0.18189-0.13481 0.20328-0.31242 0.29102-0.10485 0.0513-0.33167 0.12411-0.41726 0.2097-0.0642 0.0642-0.10057 0.2953-0.18831 0.31242 0.006 0.002 0.13695 0.11769 0.16691 0.12411 0.12839 0.0321 0.2953 0.0214 0.43866 0.0214 0.17119 0 0.32312 0.0214 0.49859 0.0214 0.15192 0 0.24394-0.10485 0.37661-0.10485 0.17546 0 0.35307 0 0.51997 0.0407 0.13909 0.0364 0.26962 0.0834 0.41727 0.0834 0.15407 0 0.2418-0.009 0.37447-0.0407 0.16905-0.0428 0.26962-0.0342 0.35307-0.1455 0.0749-0.10058 0.13695-0.16049 0.22897-0.22897 0.0749-0.0556 0.35521-0.35521 0.41726-0.35521 0.15621 0 0.26962-0.0471 0.41727-0.0834 0.10057-0.0257 0.10485-0.26962 0.20756-0.25036 0.0599 0.0128 0.18403 0.16263 0.25036 0.14551 0.0578-0.0128 0.12839-0.03 0.18831-0.0193 0.0578 0.009 0.10699 0.0535 0.12411 0.12411 0.0342 0.13909 0.0749 0.13481 0.14551 0.22896 0.0342 0.0471 0.20756 0.2525 0.1883 0.33381-0.0257 0.0984-0.0492 0.26534-0.0214 0.37447 0.0278 0.11128 0.0321 0.23325 0.0835 0.33382 0.0342 0.0685 0.12839 0.22468 0.1455 0.29102 0.0321 0.13052 0.10486 0.12839 0.16691 0.25036 0.0728 0.14764 0.0364 0.2097-0.0214 0.35521-0.0492 0.12197-0.11983 0.26534-0.0834 0.41512 0.009 0.0321 0.0128 0.0728 0.0214 0.10486 0.0235 0.0941 0.0364 0.14336 0.062 0.1669 0.0257 0.0235 0.0621 0.0214 0.16691 0.0214 0.12411 0 0.29316 0 0.35521 0.0621 0.0835 0.0834 0.16691 0.13053 0.16691 0.25036 0 0.0856-0.0492 0.31455-0.12625 0.35307-0.0556 0.0278-0.22896 0.17974-0.22896 0.27176 0 0.11555 0.0214 0.24608 0.0214 0.35307 0 0.0235-0.006 0.062 0 0.0834 0.0342 0.13909 0.0642 0.3167 0.12411 0.43867 0.0492 0.0963 0.1562 0.17974 0.2097 0.31241 0.0449 0.11555 0.0492 0.28888 0.10271 0.39587 0.0599 0.11769 0.11769 0.21398 0.16691 0.31242 0.0578 0.11555 0.0942 0.34237 0.1883 0.43652 0.10913 0.11127 0.15407 0.18617 0.25036 0.31242 0.0813 0.10913 0.18403 0.24822 0.26962 0.33381 0.077 0.077 0.15407 0.17547 0.25036 0.27176 0.19901 0.199 0.31884 0.31455 0.56278 0.43652 0.12411 0.0621 0.26962 0.12411 0.39587 0.18831 0.14336 0.0706 0.26319 0.16691 0.37447 0.25036 0.12625 0.0942 0.25892 0.2311 0.43652 0.18616 0.15621-0.0385 0.39587-0.009 0.54352-0.0834 0.0471-0.0235 0.10057-0.0385 0.14551-0.0834 0.0428-0.0428 0.0813-0.10699 0.0406-0.18617-0.0321-0.0663-0.10271-0.17118-0.10271-0.27176 0-0.17118-0.0428-0.32311-0.0428-0.49858 0-0.12625-0.006-0.2204 0.0214-0.33381 0.0214-0.0899 0.0278-0.21826 0-0.33381-0.0364-0.14123-0.006-0.27604-0.0428-0.41727-0.0278-0.11555-0.0193-0.26534-0.0193-0.39587 0-0.12197-0.009-0.22254 0.0193-0.33381 0.0342-0.13053 0.0214-0.26534 0.0214-0.39587 0-0.10913-0.0192-0.23324 0.0214-0.31242 0.0407-0.0792 0.092-0.27389 0.20757-0.31241 0.0984-0.0321 0.43866-0.10485 0.43866-0.22896 0-0.13695-0.015-0.23966-0.0428-0.35308-0.0321-0.13266-0.11984-0.26105-0.0407-0.41726 0.0877-0.17761 0.2632-0.22682 0.37447-0.37447 0.062-0.0856 0.17332-0.17333 0.26962-0.27176 0.0749-0.0727 0.23538-0.13695 0.27176-0.20756 0.0449-0.092 0.10485-0.22683 0.10485-0.33382 0-0.0749 0.0321-0.33809-0.0428-0.37447-0.10699-0.0535-0.22896-0.0364-0.22896-0.1669 0-0.0877 0.0942-0.29102 0.062-0.35522-0.0492-0.10057-0.10699-0.1883-0.26961-0.22896-0.13053-0.0321-0.30814-0.0556-0.43867-0.0834-0.0792-0.015-0.25892-0.0385-0.29102-0.10271-0.0364-0.0749-0.0727-0.27604-0.14551-0.31242-0.11769-0.0599-0.2525-0.0642-0.39586-0.0642-0.0364 0-0.48575-0.107-0.33382-0.14551 0.15193-0.0385 0.14765-0.0642 0.20757-0.18617 0.0364-0.0706 0.10485-0.1883 0.0428-0.27176-0.0877-0.11555-0.20542-0.16476-0.29101-0.25036-0.11556-0.11341-0.37875-0.1669-0.54138-0.1669-0.0235 0-0.0407 0.006-0.0642 0-0.092-0.0214-0.1776-0.11555-0.24822-0.18617-0.10699-0.10699-0.29957-0.15407-0.43866-0.1883-0.10485-0.0257-0.16905-0.11555-0.29102-0.14551-0.12197-0.03-0.25036-0.0321-0.37447-0.0621-0.16477-0.0406-0.34023-0.0727-0.50072-0.10485-0.0599-0.0128-0.4836-0.0428-0.45792-0.14551 0.015-0.062 0.0963-0.2097 0.18616-0.2097 0.12625 0 0.2739 0.0257 0.39587 0 0.16049-0.03 0.32526-0.0621 0.50072-0.0621 0.16049 0 0.32312 0.0107 0.47932 0.0428 0.19473 0.0385 0.41085 0.0128 0.60344 0.0621 0.15192 0.0385 0.38516 0.062 0.54137 0.062 0.22254 0 0.48146-0.0214 0.70829-0.0214 0.34879 0 0.65906-0.0834 1.0014-0.0834 0.19686 0 0.26534-0.11983 0.41512-0.14551 0.077-0.0128 0.14123-0.0342 0.16691-0.062 0.0257-0.0278 0.004-0.0556-0.10485-0.0835-0.13053-0.0321-0.28032 0.0128-0.41513-0.0214-0.10271-0.0235-0.2632-0.062-0.37447-0.062-0.16263 0-0.29957-0.0214-0.46006-0.0214-0.11341 0-0.21612 0.0342-0.33168 0.0642-0.15406 0.0364-0.29957 0-0.46006 0h-0.49858c-0.22468 0-0.46006-0.0428-0.66763-0.0428-0.13481 0-0.26748-0.0214-0.37447-0.0214-0.21184 0-0.46006 0-0.62483-0.0813-0.15407-0.0792-0.26534-0.12411-0.43652-0.16691-0.0792-0.0214-0.2632-0.22896-0.33382-0.22896zm13.29 0.24822c-0.26106 0.0556-0.53068 0.0856-0.77034 0.14765-0.30386 0.0749-0.49216 0.21398-0.77248 0.14551-0.19472-0.0492-0.37875-0.0642-0.58203-0.10486 0.0663 0.0663 0.0342 0.15193-0.0214 0.22897-0.0556 0.077-0.14551 0.13481-0.18831 0.1669-0.004 0.004-0.47932 0.0578-0.49858 0.0621-0.11341 0.0278-0.0685 0.10485 0 0.1883 0.0685 0.0835 0.17333 0.15835 0.20757 0.16691 0.25892 0.0642 0.58203 0.21826 0.81313 0.33167 0.0984 0.0514 0.14551 0.0899 0.16691 0.14765 0.0214 0.0578 0.0193 0.13695 0.0407 0.22896 0.0449 0.17975 0.0706 0.23325 0.22896 0.31242 0.13909 0.0685 0.44936 0.0834 0.60557 0.0834 0.25036 0 0.62269 0.12411 0.811 0.18617 0.15834 0.0535 0.39587 0.22896 0.50072 0.33381 0.10913 0.10913 0.21398 0.17547 0.33381 0.33381 0.13695 0.18403 0.27604 0.2846 0.45792 0.37447 0.15621 0.0792 0.40229 0.077 0.49858 0.12625 0.17975 0.0877 0.39801 0.22897 0.52212 0.35308 0.14551 0.14765 0.2632 0.28459 0.37447 0.39587 0.14551 0.1455 0.17975 0.30599 0.35522 0.43866 0.1776 0.13267 0.32097 0.23752 0.45792 0.37447 0.15835 0.15835 0.29744 0.23538 0.43652 0.37447 0.10914 0.10913 0.21827 0.26748 0.39587 0.31242 0.24394 0.062 0.39801-0.0942 0.60557-0.14551 0.10058-0.0257 0.46649 0.35521 0.51998 0.39587 0.12197 0.092 0.2418 0.27389 0.29102 0.37447 0.0578 0.11555 0.25036 0.27176 0.33381 0.35521 0.16049 0.16049 0.19901 0.19258 0.39587 0.29102 0.0813 0.0406 0.17333 0.0471 0.25036 0.0214 0.077-0.0257 0.13053-0.0834 0.14551-0.1455 0.0428-0.17547 0.10913-0.26748 0.0621-0.46007-0.0278-0.11127-0.0107-0.23966 0.0428-0.33167 0.0514-0.092 0.13695-0.14123 0.29102-0.0642 0.10913 0.0556 0.17975 0.23538 0.22896 0.33382 0.0685 0.13909 0.16691 0.32311 0.16691 0.52212v0.47932c0 0.0749 0.87519 0.56277 0.89445 0.58203 0.11341 0.11341 0.26534 0.18403 0.39587 0.27176 0.1455 0.0963 0.23966 0.19258 0.43866 0.29102 0.11127 0.0556 0.17333 0.16048 0.20756 0.27176 0.0364 0.10913 0.0449 0.2204 0.0214 0.31241-0.0257 0.10271 0.0621 0.33809 0.0214 0.49858-0.0321 0.12625-0.0556 0.22682-0.0428 0.29316 0.0128 0.0663 0.0663 0.0942 0.20971 0.1669 0.20542 0.10272 0.28246 0.26534 0.49858 0.39587 0.11341 0.0663 0.20328 0.86235 0.27176 0.9993 0.0792 0.15835 0.1669 0.37233 0.12411 0.54138-0.0449 0.18617-0.12411 0.32312-0.12411 0.52212 0 0.14123-0.11127 0.34023-0.14551 0.47718-0.0342 0.13267-0.0963 0.2739-0.12625 0.37661-0.0278 0.10271-0.0235 0.16905 0.12625 0.22896 0.19258 0.077 0.50928 0.16691 0.70828 0.16691h0.62483c0.0984 0 0.19901 0.199 0.29102 0.41513 0.092 0.21826 0.16905 0.4515 0.1883 0.54351 0.0385 0.19259 0.0877 0.27604 0.20757 0.39587 0.15621 0.15621 0.38517 0.29102 0.43652 0.49858 0.0599 0.23966 0.14337 0.29958 0.0428 0.50072-0.0492 0.0984-0.39159 0.17547-0.50072 0.22897-0.15621 0.0792-0.41941 0.10699-0.64623 0.1669-0.11341 0.03-0.21612 0.0728-0.29102 0.12411-0.0749 0.0514-0.12411 0.11983-0.12411 0.20971 0 0.20328 0.0813 0.28887 0.16691 0.45792 0.092 0.18402 0.17547 0.32525 0.29102 0.47932 0.0193 0.0235 0.0406 0.0621 0.062 0.0834 0.12625 0.12625 0.11341 0.32526 0.22897 0.47933 0.16048 0.21184 0.23752 0.39159 0.35521 0.62483 0.11127 0.22468 0.36377 0.39587 0.49858 0.66548 0.077 0.15193 0.2097 0.43867 0.2097 0.64623 0 0.16477 0.0856 0.32526 0.12411 0.47933 0.03 0.11983 0.14979 0.23324 0.27176 0.31241 0.11983 0.0792 0.24394 0.13909 0.35307 0.16691 0.19473 0.0492 0.42155 0.0214 0.62483 0.0214 0.21612 0 0.34879-0.0621 0.54138-0.0621 0.11127 0 0.26962-0.29102 0.33381-0.37661 0.13909-0.18403 0.2204-0.29744 0.27176-0.49858 0.0257-0.10913 0.0556-0.21826 0.0621-0.33381 0.006-0.11555-0.015-0.22469-0.10486-0.31242-0.0749-0.077-0.0877-0.15193-0.0835-0.22896 0.006-0.0792 0.03-0.15621 0.0835-0.22896 0.03-0.0407 0.0428-0.53924 0.0428-0.56278 0-0.0214-0.26534-0.35307-0.31241-0.41726-0.1177-0.15621-0.14765-0.35522-0.23111-0.51998-0.0877-0.17975-0.10271-0.33596-0.10271-0.56278v-0.52212c0-0.23752-0.10913-0.31669-0.22896-0.43652-0.12625-0.12625-0.12197-0.23538-0.16691-0.41727-0.0321-0.12411-0.0171-0.19686 0.0214-0.25036 0.0364-0.0514 0.10913-0.0877 0.18617-0.14551 0.12839-0.0963 0.1669-0.29957 0.1669-0.45792 0-0.11555-0.0364-0.2311-0.0406-0.31242-0.006-0.0813 0.0107-0.14337 0.10271-0.1669 0.0856-0.0214 0.17974 0.0492 0.25036 0.12411 0.0706 0.077 0.11769 0.17118 0.14551 0.2097 0.10913 0.14337 0.13053 0.22682 0.27176 0.33381 0.1883 0.14123 0.4622 0.20971 0.62483 0.29102 0.17118 0.0856 0.32739 0.17333 0.45792 0.26962 0.16049 0.12197 0.2953 0.23324 0.39587 0.33381 0.0963 0.0963 0.12411 0.28246 0.20756 0.39587 0.0899 0.11983 0.18831 0.14765 0.29316 0.25036 0.11127 0.11127 0.17333 0.32739 0.22896 0.43867 0.0599 0.11983 0.10271 0.1669 0.14551 0.16476 0.0428 0 0.0963-0.0578 0.18616-0.10271 0.0578-0.03-0.0877-0.4622-0.10271-0.52212-0.0407-0.16262-0.27176-0.39373-0.33381-0.51998-0.0663-0.13481-0.0449-0.19258 0-0.1883 0.0449 0.004 0.11983 0.0578 0.16691 0.10485 0.13694 0.13695 0.26961 0.18403 0.37447 0.39587 0.0471 0.092 0.2204 0.2204 0.31241 0.31241 0.13695 0.13695 0.11769 0.25892 0.16691 0.45793 0.0171 0.0706 0.062 0.0877 0.10485 0.0834 0.0428-0.004 0.0942-0.0385 0.14551-0.0834 0.10057-0.0877 0.20328-0.2204 0.22896-0.26962 0.0621-0.12625 0.0813-0.26534 0.12411-0.39587 0.0578-0.17333 0.03-0.32097-0.0193-0.46006-0.0514-0.13695-0.13481-0.26106-0.1883-0.39587-0.0471-0.11769-0.12197-0.22254-0.18831-0.33168-0.199-0.33381-0.36591-0.6505-0.54138-1.0014-0.009-0.0171-0.0128-0.0235-0.0192-0.0406-4.126-6.8573-10.723-12.029-18.583-14.274zm-20.333 2.7518c-0.10485 0-0.27176 0.19687-0.33167 0.22896-0.13481 0.0663-0.27604 0.22041-0.39587 0.31242-0.12839 0.0941-0.23538 0.17974-0.35521 0.26962-0.13695 0.10485-0.22896 0.12625-0.43653 0.12625-0.199 0-0.20328 0.0899-0.35521 0.1669-0.17761 0.0877-0.34237 0.37019-0.41727 0.51998-0.0685 0.14123-0.17118 0.3167-0.24822 0.39587-0.0963 0.0963-0.26534 0.15407-0.37661 0.20756-0.13053 0.0663-0.0834 0.32526-0.0834 0.46007 0 0.0899-0.35093 0.10271-0.37447 0.10271-0.0471 0-0.32311-0.40657-0.35307-0.43653-0.14765-0.14764-0.0706-0.17332-0.29316-0.22896-0.11769-0.03-0.21612-0.0214-0.26962-0.0428s-0.0834-0.0813-0.0834-0.22897c0-0.16048 0.19258-0.23324 0.27176-0.31241 0.0942-0.0941 0.28246-0.16263 0.37447-0.20756 0.13267-0.0685 0.19044-0.19045 0.29101-0.29316 0.12625-0.12411 0.14551-0.26962 0.14551-0.45793 0-0.0578-0.29529-0.17974-0.35307-0.20756-0.13267-0.0663-0.21612-0.21184-0.37661-0.29102-0.002 0-0.0171-0.002-0.0193 0-2.9872 1.6776-5.6641 3.8196-7.958 6.3318-0.0257 0.13053-0.0385 0.2846-0.0834 0.37661-0.0877 0.17333-0.2097 0.20971-0.33381 0.33168-0.092 0.0942-0.14123 0.26534-0.20757 0.35521-0.0963 0.12839-0.24394 0.18188-0.35521 0.29101-0.10699 0.107-0.10271 0.35308-0.10271 0.50073 0 0.14122 0.062 0.19258 0.12411 0.1883 0.062-0.006 0.11769-0.0685 0.16691-0.16691 0.0599-0.12197 0.36591-0.31027 0.47932-0.39587 0.15621-0.11769 0.37661-0.19258 0.45792-0.35521 0.0728-0.14551 0.14337-0.23752 0.18831-0.41726 0.0599-0.23753 0.19044-0.34024 0.31241-0.58204 0.0428 0.13481 0.11341 0.30172 0.25036 0.43653 0.0621 0.062 0.0899 0.15407 0.0813 0.22896-0.006 0.077-0.0535 0.14979-0.0813 0.2097-0.0471 0.0942-0.23752 0.23538-0.33381 0.33382-0.11983 0.11769-0.18403 0.11555-0.25036 0.24822-0.0728 0.14337-0.19045 0.17974-0.22896 0.33381-0.0364 0.14337-0.10913 0.2525-0.14551 0.39587-0.0514 0.20542-0.0171 0.32953-0.16691 0.47932-0.10271 0.10057-0.15835 0.30172-0.1883 0.41727-0.0514 0.20542-0.14337 0.25892-0.26962 0.35307-0.13909 0.10485-0.19045 0.32097-0.22896 0.47932-0.0535 0.20971-0.30172 0.43439-0.39587 0.62483-0.0835 0.16477-0.14765 0.18831-0.2311 0.35521-0.0556 0.11555-0.0642 0.306-0.10272 0.45793-0.0428 0.16904-0.13694 0.32953-0.25036 0.47932-0.0192 0.0257-0.062 0.0407-0.0834 0.062-0.11127 0.11128-0.1883 0.36806-0.1883 0.52212 0 0.14123-0.19045 0.39159-0.22897 0.54138-0.0492 0.20328-0.0899 0.36805-0.1669 0.51998-0.092 0.1883-0.18189 0.2632-0.26962 0.43866-0.0963 0.19259-0.15407 0.306-0.22896 0.45793-0.0621 0.12197-0.0621 0.29957-0.0621 0.45792 0 0.14123-0.0492 0.36163-0.0834 0.50072-0.0385 0.15193 0 0.36377 0 0.51998 0 0.20542-0.0728 0.32312-0.18831 0.43867-0.13481 0.13267-0.2204 0.21184-0.26962 0.41512-0.0342 0.13053-0.11983 0.29958-0.1883 0.43867-0.092 0.18188-0.10271 0.28888-0.22896 0.45792-0.0963 0.12839-0.16477 0.32526-0.20971 0.50072-0.0449 0.18617-0.0599 0.33168-0.1455 0.49858-0.0835 0.17119-0.10272 0.28888-0.14551 0.46007-0.0407 0.16476-0.11127 0.28459-0.16691 0.39586-0.0792 0.16049-0.0834 0.33168-0.12411 0.49859-0.0449 0.18188-0.062 0.40228-0.062 0.58417 0 0.16049-0.0835 0.35521-0.0835 0.54138 0 0.19258-0.0214 0.35093-0.062 0.51997-0.0428 0.16477-0.0214 0.34024-0.0214 0.52212 0 0.25892-0.0621 0.50714-0.0621 0.77034 0 0.20329 0.0792 0.23752 0.12411 0.41727 0.0385 0.15835 0.0235 0.34451 0.0621 0.50072 0.0193 0.0749 0.0428 0.13695 0.0428 0.22896 0.062 0.25036 0.22896 0.32526 0.22896 0.58204 0 0.20328 0.0214 0.29315 0.062 0.45792 0.0407 0.16263 0 0.37661 0 0.54352 0 0.1669-0.0642 0.38303-0.10485 0.54137-0.004 0.0214 0 0.0407 0 0.0621 0 0.199-0.062 0.41085-0.062 0.62483 0 0.062 0.12411 0.35093 0.1669 0.43866 0.0813 0.16049 0.12411 0.39159 0.16691 0.56064 0.062 0.2525 0.13267 0.47076 0.22896 0.70828 0.0749 0.19045 0.0856 0.3381 0.16691 0.54352 0.0535 0.13267-0.009 0.38303 0.0214 0.49858 0.0385 0.16263 0.0406 0.35307 0.0406 0.52212 0 0.1883 0.0407 0.34023 0.0407 0.51998 0 0.17974 0.0235 0.34023 0.0642 0.50072 0.0471 0.19044 0.0193 0.33381 0.0835 0.45792 0.10485 0.21184 0.20328 0.25678 0.24822 0.43653 0.0471 0.18188 0.10913 0.34665 0.14765 0.50072 0.0449 0.17974 0.22682 0.33167 0.26961 0.50072 0.0578 0.23324 0.26962 0.43866 0.37448 0.68688 0.0663 0.15407 0.0685 0.34238 0.12625 0.45793 0.0556 0.11127 0.31027 0.20756 0.39586 0.27176 0.0792 0.0599 0.0792 0.12625 0.10272 0.1883 0.0257 0.0599 0.0685 0.11555 0.1883 0.14551 0.14337 0.0342 0.23752 0.1776 0.33381 0.24822 0.1293 0.092-0.0633-0.308-0.1018-0.462-0.0428-0.173-0.2162-0.353-0.291-0.479-0.0706-0.116-0.0108-0.394-0.0622-0.499-0.0876-0.173-0.1647-0.319-0.2096-0.5-0.0472-0.193-0.1391-0.371-0.1862-0.563-0.0492-0.195-0.1241-0.33-0.2097-0.501-0.1006-0.203-0.229-0.278-0.229-0.52 0-0.15621-0.11769-0.42583-0.18617-0.56278-0.0728-0.14337-0.0428-0.43438-0.0428-0.60343 0-0.16691-0.062-0.30386-0.062-0.47932 0-0.20756-0.0556-0.41299-0.10485-0.60557-0.0428-0.175-0.1027-0.332-0.1027-0.52 0-0.13909 0.0364-0.18617 0.062-0.16691 0.0257 0.0193 0.0407 0.11127 0.0407 0.22896 0 0.13053 0.17546 0.26534 0.2097 0.39587 0.0449 0.18403 0.077 0.37447 0.12411 0.56278 0.0364 0.14765-0.0407 0.35949 0 0.52212 0.0471 0.18402 0.14551 0.29101 0.14551 0.49858 0 0.17546 0.0621 0.30171 0.0621 0.45792 0 0.11555 0.13908 0.34665 0.1669 0.46006 0.0449 0.17761 0.0813 0.36377 0.12625 0.54138 0.0364 0.14979 0.12197 0.34451 0.16691 0.51998 0.0342 0.14337 0.12411 0.31883 0.22896 0.45792 0.0899 0.12197 0.10699 0.34238 0.16691 0.46007 0.092 0.18616 0.13695 0.29529 0.22896 0.47932 0.0727 0.14765 0.12839 0.26106 0.16477 0.41513 0.0449 0.17546 0.19472 0.41084 0.27175 0.56277 0.0728 0.14551 0.15407 0.30386 0.18831 0.43867 0.0492 0.19686 0.0963 0.42368 0.18616 0.60343 0.0728 0.14551 0.14551 0.28888 0.20971 0.41727 0.0899 0.18188 0.2097 0.31455 0.33167 0.43652 0.15193 0.15193 0.35949 0.22468 0.54352 0.31242 0.18188 0.0899 0.32739 0.1883 0.37447 0.37661 0.0407 0.16048 0.17119 0.34237 0.22896 0.45792 0.0834 0.16905 0.24394 0.32739 0.37447 0.45792 0.34665 0.34666 0.63767 0.71471 1.0828 0.93725 0.15192 0.0749 0.2525 0.11983 0.43866 0.16691 0.18831 0.0471 0.34023 0.0663 0.49858 0.1455 0.16049 0.0813 0.31028 0.10486 0.50072 0.10486 0.0749 0 0.26534 0.17546 0.39587 0.20756 0.11555 0.03 0.30172-0.0385 0.45792 0 0.21399 0.0535 0.28246-0.13695 0.50072-0.0834 0.20115 0.0514 0.50928 0.51356 0.68689 0.64622 0.15621 0.1177 0.32097 0.24181 0.50072 0.39587 0.16263 0.14123 0.27818 0.22041 0.47932 0.27176 0.15835 0.0385 0.24822 0.0621 0.37447 0.12411 0.13481 0.0685 0.36163 0.0214 0.51998 0.0214 0.15407 0 0.306 0.22254 0.39587 0.31242 0.21398 0.21398 0.46434 0.33381 0.60343 0.51997 0.12411 0.16477 0.19259 0.38089 0.33382 0.52212 0.12625 0.12625 0.30599 0.28246 0.45792 0.43653 0.12839 0.12839 0.2739 0.21612 0.31241 0.37447 0.0428 0.17118 0.24822 0.25036 0.37661 0.31241 0.13909 0.0706 0.3274 0.11341 0.45793 0.14765 0.11555 0.0278 0.30385 0.2846 0.39587 0.35307 0.0706 0.0535 0.42796-0.0406 0.54137-0.0406 0.14765 0 0.3274 0.21184 0.41727 0.33167 0.10057 0.13695 0.16477 0.25036 0.35307 0.25036 0.19473 0 0.35735-0.0856 0.47932-0.20756 0.0984-0.0984 0.12411-0.36163 0.12411-0.50072 0-0.12839 0.33168 0.16476 0.39587 0.22896 0.10271 0.10271 0.23538 0.25678 0.31242 0.33381 0.14765 0.14765 0.34665 0.3381 0.41727 0.47932 0.0706 0.14123 0.0299 0.32954 0.10485 0.47933 0.0834 0.1669 0.14979 0.2632 0.25036 0.39587 0.10485 0.14122 0.10271 0.25463 0.10271 0.47932 0 0.17974 0.0428 0.32311 0.0428 0.50072 0 0.15407-0.13267 0.21398-0.16691 0.35307-0.0428 0.16691-0.10485 0.2846-0.10485 0.50072 0 0.14979-0.26962 0.29958-0.26962 0.51998 0 0.16691 0.16691 0.41941 0.20756 0.58417 0.0471 0.18831 0.10057 0.42797 0.18831 0.60343 0.10057 0.20115 0.25678 0.17547 0.31241 0.39587 0.0471 0.19045 0.0599 0.38517 0.10271 0.56278 0.0428 0.16904 0.14765 0.23538 0.18831 0.39587 0.0342 0.13909 0.14123 0.26748 0.22896 0.35521 0.10699 0.10699 0.29102 0.21184 0.43653 0.24822 0.26748 0.0663 0.36591 0.17547 0.50072 0.35521 0.11983 0.15835 0.17974 0.32739 0.35521 0.45792 0.17332 0.13053 0.25036 0.14765 0.37447 0.27176 0.0278 0.0278 0.0492 0.0407 0.0834 0.0621 0.16477 0.11127 0.21185 0.2525 0.41727 0.35307 0.16477 0.0834 0.30813 0.22254 0.45792 0.31242 0.19045 0.11555 0.28888 0.19686 0.47932 0.29315 0.16263 0.0813 0.28674 0.23752 0.43653 0.31242 0.16263 0.0813 0.28246 0.14765 0.47932 0.18616 0.15835 0.0321 0.36377 0.092 0.50072 0.12625 0.20543 0.0514 0.40443 0.0877 0.56064 0.16691 0.14979 0.0728 0.31027 0.24822 0.39587 0.33381 0.12411 0.12197 0.32953 0.21613 0.47932 0.29102 0.11341 0.0556 0.26962 0.15407 0.37661 0.20756 0.2097 0.10485 0.29316 0.25678 0.47718 0.39587 0.14337 0.10699 0.2418 0.2418 0.35521 0.35521 0.13909 0.13695 0.22255 0.32526 0.33382 0.43653 0.13267 0.13267 0.1883 0.27604 0.22896 0.43866 0.0492 0.20115 0.19044 0.3167 0.26962 0.47933 0.0813 0.15834 0.31027 0.2525 0.41726 0.39586 0.10486 0.13695 0.306 0.20115 0.41727 0.31242 0.14337 0.14337 0.27176 0.18831 0.39587 0.35307 0.11983 0.16049 0.24822 0.20757 0.33167 0.29102 0.11983 0.11983 0.29102 0.1776 0.39587 0.2311 0.0321 0.015 0.0535 0.0278 0.0834 0.0407 0.88161-0.0449 1.744-0.11341 2.6042-0.22896 0.009-0.0171 0.0364-0.0214 0.0428-0.0428 0.0535-0.21826 0.32312-0.38945 0.43653-0.56064 0.11983-0.1776 0.306-0.199 0.45792-0.2311 0.18189-0.0342 0.26106-0.15621 0.39587-0.29102 0.13909-0.13694 0.26962-0.26961 0.39587-0.43652s0.16905-0.28246 0.27176-0.41727c0.11983-0.16048 0.14551-0.31241 0.22896-0.47932 0.0963-0.19258 0.19687-0.33809 0.35307-0.41727 0.18403-0.0899 0.23538-0.22896 0.39587-0.26961 0.21612-0.0535 0.31028-0.14123 0.50072-0.18831 0.15621-0.0385 0.41085-0.41085 0.50072-0.50072 0.13053-0.13053 0.22041-0.21826 0.35307-0.39587 0.0492-0.0642 0.0899-0.14979 0.14551-0.20756 0.0449-0.0556 0.0813-0.0899 0.12625-0.14551 0.0728-0.092 0.077-0.39159 0.10271-0.50072 0.0385-0.15193 0.1177-0.35735 0.18831-0.49858 0.0727-0.14765 0.0492-0.34879 0.12411-0.50072 0.0856-0.16905 0.13909-0.3167 0.2097-0.45793 0.0792-0.15834 0.0257-0.34451 0.10272-0.50072 0.0813-0.16048 0.13053-0.31883 0.1883-0.43652 0.0856-0.16905 0.0535-0.22682 0.27176-0.33381 0.11555-0.0578 0.23324-0.25678 0.33167-0.35522 0.092-0.092 0.14337-0.36805 0.18831-0.45792 0.0792-0.15621 0.2739-0.2953 0.37447-0.39587 0.0813-0.0792 0.15621-0.25892 0.22896-0.33381 0.0899-0.0877 0.10271-0.34665 0.12625-0.43653 0.0364-0.14337 0.0257-0.31241 0.062-0.45792 0.0407-0.16263-0.11769-0.2846-0.1883-0.35521-0.13267-0.13267-0.22254-0.30814-0.39587-0.43653-0.14765-0.11127-0.25036-0.16905-0.33167-0.25036-0.10699-0.10699-0.29744-0.16049-0.43867-0.22896-0.11983-0.0599-0.22896-0.0834-0.41726-0.0834h-0.54138c-0.18831 0-0.28888 0.0406-0.45793 0.0406-0.17974 0-0.29957 0.0428-0.47932 0.0428h-0.49858c-0.14979 0-0.2632-0.0834-0.43866-0.0834-0.17975 0-0.19473-0.12197-0.29102-0.25036-0.0856-0.11556-0.31455-0.14551-0.45792-0.14551-0.19687 0-0.37661-0.0214-0.60558-0.0214-0.26105 0-0.30385 0.0685-0.49858 0.16691-0.13695 0.0685-0.26961 0.16476-0.35521 0.25036-0.0984 0.0984-0.31883 0.16048-0.43652 0.20756-0.15621 0.062-0.35308 0.0364-0.50072 0-0.0984-0.0257-0.13053-0.0899-0.14551-0.16691-0.015-0.0749 0-0.17118 0-0.26962 0-0.19472 0.11341-0.28031 0.22896-0.39586 0.0749-0.077 0.062-0.34238 0.062-0.46007 0-0.2311 0.0257-0.26106-0.062-0.43652-0.0749-0.14979-0.22896-0.20757-0.31242-0.29102-0.0984-0.10057-0.17546-0.28032-0.26961-0.37661-0.092-0.092-0.18831-0.26962-0.25036-0.39587-0.0621-0.12411-0.23967-0.19258-0.35522-0.24822-0.14336-0.0728-0.36163-0.0963-0.47932-0.12625-0.14337-0.0364-0.35093 0-0.49858 0h-0.47932c-0.17761 0-0.31456 0.0428-0.47932 0.0428-0.12411 0-0.24394 0.0834-0.41727 0.0834-0.13481 0-0.26106-0.19044-0.35307-0.31455-0.12197-0.16049-0.27176-0.18617-0.37661-0.29102-0.11127-0.11127-0.24608-0.14123-0.33168-0.22896-0.10485-0.10272-0.3873-0.15407-0.52211-0.18831-0.19687-0.0492-0.36164-0.0963-0.49858-0.16477-0.19045-0.0963-0.19901-0.1883-0.29316-0.37661-0.0792-0.16048-0.14551-0.24822-0.14551-0.41512 0-0.13267-0.0813-0.35093-0.12411-0.43867-0.0321-0.0642-0.0834-0.13267-0.10485-0.1669-0.0642-0.12839-0.009-0.19901 0.0214-0.25036 0.0299-0.0492 0.0406-0.0728-0.0835-0.10272-0.015-0.004-0.30385 0.26962-0.33381 0.29102-0.13053 0.0984-0.2311 0.0792-0.41727 0.12411-0.2739 0.0706-0.30171 0.0578-0.54137-0.062-0.0984-0.0492-0.11555-0.107-0.14551-0.14551-0.03-0.0364-0.0578-0.0578-0.20757-0.0214-0.15192 0.0385-0.26533 0.14337-0.39586 0.2097-0.14765 0.0728-0.22469 0.0899-0.35522 0.18617-0.13481 0.10271-0.37447 0.1776-0.49858 0.27176-0.11555 0.0856-0.4194-0.0749-0.47932-0.10486-0.15621-0.077-0.16049-0.35093-0.1883-0.45792-0.0364-0.14551-0.077-0.16263-0.12411-0.12411-0.0471 0.0385-0.10486 0.14551-0.14551 0.22896-0.0556 0.10699-0.13267 0.13695-0.20971 0.14551-0.0749 0.006-0.13908-0.006-0.20756-0.0428-0.0193-0.009 0.0214-0.43652 0.0214-0.49858 0-0.0813-0.2632-0.30385-0.29316-0.33381-0.077-0.0792-0.12839-0.0599-0.16476 0-0.0385 0.0599-0.0706 0.15835-0.10486 0.22896-0.0813 0.16263-0.0856 0.36163-0.12625 0.56278-0.0321 0.17118-0.0406 0.34879-0.0406 0.51998 0 0.11983-0.10271 0.20756-0.18831 0.29315-0.077 0.077-0.0899-0.0321-0.0834-0.1883 0.009-0.15621 0.0428-0.34879 0.0214-0.45793-0.0342-0.17546-0.10272-0.32739-0.14551-0.50072-0.0364-0.14336-0.0278-0.28673-0.0835-0.39586-0.0514-0.10486-0.14336-0.0171-0.22896 0.10485-0.0856 0.12197-0.17332 0.28673-0.20756 0.33381-0.13481 0.17761-0.41941 0.34237-0.52212 0.47932-0.0471 0.0621-0.31883 0.16905-0.39587 0.20757-0.17546 0.0877-0.39587 0.34879-0.54137 0.45792-0.13909 0.10485-0.12411 0.40015-0.12411 0.56277 0 0.20329 0.0685 0.17547-0.0428 0.39587-0.0514 0.10486-0.13481 0.0984-0.20757 0.0621-0.0727-0.0364-0.11769-0.0963-0.1455-0.12411-0.11555-0.11555-0.20543-0.16691-0.37447-0.2097-0.18617-0.0449-0.32954 0.0471-0.47933 0.0834-0.20542 0.0513-0.39158 0.13909-0.58417 0.1883-0.15621 0.0385-0.38303-0.006-0.51998-0.0406-0.11769-0.03-0.22896-0.18831-0.33381-0.29316-0.13267-0.13267-0.17975-0.17547-0.31242-0.35307-0.10057-0.13695-0.13481-0.2311-0.27176-0.33382-0.1669-0.12625-0.20328-0.0556-0.29101-0.22896-0.0749-0.14979-0.12411-0.25036-0.20757-0.33381-0.0856-0.0834-0.0642-0.29316-0.0642-0.45792 0-0.16263-0.0407-0.36806-0.0407-0.54138 0-0.16905-0.0342-0.34237-0.062-0.46007-0.0364-0.1455-0.0214-0.35307-0.0214-0.49858 0-0.12411-0.20756-0.24608-0.31242-0.27175-0.17332-0.0428-0.29529-0.0835-0.56277-0.0835h-0.62483-0.49858c-0.12625 0-0.15835-0.0257-0.2311-0.062-0.0278 0-0.18617-0.43867-0.18617-0.50072 0-0.17975-0.0428-0.32312-0.0428-0.49858 0-0.17333-0.0321-0.33596-0.062-0.45793-0.0342-0.13695-0.0235-0.29957-0.0621-0.46006-0.0364-0.14337 0-0.35093 0-0.49858 0-0.18189 0.0407-0.26748 0.0407-0.46006 0-0.12839 0.0214-0.306 0.0214-0.45793 0-0.19258-0.10913-0.33595-0.26962-0.41727-0.14123-0.0685-0.31241-0.0406-0.47932-0.0406-0.17333 0-0.28246 0.0449-0.43867 0.0834-0.1776 0.0449-0.2632 0.24394-0.33381 0.31242-0.11769 0.11769-0.12839 0.30599-0.16477 0.45792-0.0385 0.14765-0.0214 0.35521-0.0214 0.50072 0 0.0813-0.18402 0.31456-0.2097 0.41727-0.0449 0.18402-0.29744 0.29529-0.41513 0.35307-0.17332 0.0877-0.4729-0.0171-0.60557-0.0834-0.10699-0.0535-0.29743-0.36164-0.35307-0.43653-0.0899-0.11983-0.18831-0.2097-0.27176-0.29316-0.11127-0.11127-0.2097-0.16904-0.33167-0.33167-0.0963-0.12625-0.16477-0.26534-0.20971-0.35521-0.0792-0.15835-0.10057-0.2632-0.18616-0.43653-0.0792-0.15834-0.18189-0.32311-0.27176-0.50072-0.0984-0.19686-0.10271-0.28887-0.22896-0.41726-0.13053-0.13053-0.16691-0.31456-0.16691-0.49858 0-0.18617-0.062-0.38089-0.062-0.56278 0-0.16905-0.0621-0.32525-0.0621-0.50072v-0.50072c0-0.15407 0.10271-0.28246 0.10271-0.45792 0-0.19259-0.0406-0.27818-0.0406-0.45793 0-0.21826 0.0171-0.32525 0.10485-0.54137 0.0556-0.13909 0.21612-0.24609 0.26962-0.35522 0.0663-0.13053 0.13481-0.22682 0.22896-0.35307 0.0963-0.12839 0.2418-0.20114 0.39587-0.25036 0.15407-0.0492 0.31455-0.0899 0.45792-0.12625 0.22682-0.0556 0.41727-0.03 0.62483 0.0214 0.22682 0.0578 0.44937 0.0834 0.68903 0.0834 0.11555 0 0.17118 0.0578 0.22896 0.10485 0.0578 0.0471 0.11555 0.0899 0.22896 0.0621 0.11555-0.0278 0.0834-0.40229 0.0834-0.50072 0-0.11769-0.0471-0.17975-0.0428-0.22896 0.004-0.0492 0.0578-0.0899 0.1669-0.14551 0.19259-0.0963 0.22041-0.12411 0.45793-0.12411 0.21184 0 0.40871 0.0407 0.60557 0.0407 0.11555 0 0.28674 0.13267 0.39587 0.1883 0.10485 0.0535 0.17119 0.0535 0.25036 0.0621 0.077 0.009 0.14765 0.0385 0.22896 0.1455 0.10913 0.14765 0.26748 0.24822 0.37447 0.35522 0.11555 0.11555 0.33595 0.1776 0.43653 0.22896 0.0749 0.0364 0.062 0.41513 0.0834 0.49858 0.0407 0.16263 0.13695 0.29316 0.2097 0.43866 0.10058 0.20329 0.14765 0.42369 0.22897 0.62483 0.0556 0.14337 0.11127 0.2846 0.1669 0.39587 0.0877 0.17547 0.13695 0.25678 0.29102 0.33382 0.12625 0.062 0.25678 0.0685 0.39587 0.10271 0.16476 0.0428 0.29743-0.10485 0.37447-0.20757 0.0599-0.0792 0.0428-0.199 0.0214-0.31241-0.0235-0.11341-0.0663-0.22682-0.10486-0.29102-0.12197-0.20542-0.0856-0.40443-0.1669-0.64623-0.0621-0.19044-0.19473-0.37019-0.29102-0.50072-0.0963-0.12839-0.11555-0.35307-0.1883-0.49858-0.077-0.1562-0.12625-0.27818-0.16691-0.43866-0.0385-0.15621-0.0492-0.32312-0.0834-0.45793-0.0514-0.2097 0.0706-0.38303 0.2097-0.52211 0.10271-0.10272 0.11555-0.17333 0.14551-0.29102 0.1669-0.16691 0.25464-0.36591 0.35307-0.56278 0.0856-0.1669 0.12625-0.30385 0.12625-0.49858 0-0.10271 0.0941-0.2097 0.20756-0.31241 0.11341-0.10485 0.24822-0.20543 0.31242-0.29316 0.12197-0.16049 0.28674-0.32311 0.37661-0.49858 0.0728-0.14979 0.2204-0.26106 0.26962-0.46006 0.0342-0.13481 0.0235-0.29958 0.062-0.45793 0.0449-0.17546 0.0835-0.32953 0.12625-0.49858 0.0428-0.17118 0.0407-0.31883 0-0.47932-0.0407-0.15835-0.10699-0.31669-0.1669-0.43866-0.0835-0.16477-0.19687-0.25892-0.29102-0.35308-0.0749-0.0749-0.0642-0.38089-0.0642-0.50072 0-0.10699 0.31884-0.10485 0.41727-0.10485 0.15193 0 0.33167-0.0984 0.43653-0.12411 0.0984-0.0257 0.23324-0.25892 0.29315-0.37447 0.0728-0.14765 0.12197-0.2846 0.16691-0.46006 0.0471-0.18831-0.0428-0.33382-0.0428-0.49858 0-0.14337 0.15835-0.29744 0.27176-0.35521 0.16263-0.0813 0.25892-0.14551 0.45792-0.14551 0.19259 0 0.35522 0.0406 0.54138 0.0406 0.22254 0 0.27176-0.0642 0.35307-0.22896 0.0621-0.12197 0.0428-0.35307 0.0428-0.49858 0-0.16905-0.0107-0.33381-0.0428-0.46006-0.0235-0.10057 0.0214-0.20329 0.0428-0.29102-0.0278-0.11127 0.20114-0.4515 0.22896-0.47932 0.10913-0.10913 0.22896-0.21826 0.37447-0.29102 0.12625-0.062 0.27176-0.1669 0.39587-0.29102 0.13481-0.13694 0.25036-0.29315 0.33381-0.37661 0.12197-0.12197 0.13909-0.2418 0.25036-0.35307 0.0514-0.0535 0.0278 0.38089 0 0.43653-0.0406 0.0813-0.0192 0.13909 0.0214 0.2097 0.0407 0.0685 0.10699 0.14123 0.12411 0.20757 0.0278 0.10913-0.0171 0.18188-0.0214 0.22896-0.002 0.0492 0.0214 0.0834 0.16691 0.0834 0.20543 0 0.25892-0.0578 0.33382-0.20756 0.0813-0.16263 0.22468-0.17975 0.37447-0.29316 0.11341-0.0834 0.1776-0.21826 0.29101-0.33167 0.13481-0.13481 0.22896-0.16477 0.35521-0.33382 0.10914-0.14551 0.25464-0.14765 0.41727-0.22896 0.22682-0.11555 0.12197-0.27176 0.37447-0.33381 0.15407-0.0385 0.2525-0.17333 0.31242-0.29102 0.062-0.12625-0.10486-0.306-0.10486-0.43866 0-0.21185-0.0578-0.29102-0.1669-0.43653-0.0578-0.0792-0.11555-0.0942-0.16691-0.0834-0.0492 0.009-0.0834 0.0428-0.12411 0.0834-0.0984 0.0984-0.14551 0.35307-0.20756 0.47932-0.0877 0.17333-0.0449 0.28674-0.18831 0.39587-0.10485 0.0792-0.38303-0.21612-0.45792-0.27176-0.13053-0.0984-0.3274-0.12411-0.50072-0.12411-0.10699 0-0.16049 0.0407-0.20756 0.0621-0.0471 0.0214-0.0942 0.0193-0.16691-0.12625-0.0578-0.11341-0.0385-0.35735-0.0621-0.45793-0.0235-0.0899-0.0792-0.12839-0.10485-0.1669-0.0257-0.0364-0.009-0.0942 0.0834-0.18617 0.11984-0.12197 0.18831-0.0685 0.18831-0.29316 0-0.1669 0.14551-0.29101 0.26962-0.35307 0.16263-0.0813 0.0749-0.20756 0.31241-0.20756 0.16691 0 0.3381-0.0556 0.43867-0.10485 0.0942-0.0471 0.14979-0.11127 0.14551-0.16691-0.004-0.0556-0.0556-0.0834-0.16691-0.0834-0.20756 0-0.32953 0.12411-0.54138 0.12411-0.13267 0-0.34237 0.14337-0.45792 0.1669-0.16691 0.0342-0.32739 0.0193-0.50072 0.0642-0.17975 0.0428-0.3167 0.18188-0.50072 0.22896-0.16049 0.0385-0.36163 0.30386-0.39587 0.43653-0.0514 0.20756-0.2204 0.38945-0.37447 0.54137-0.15193 0.15407-0.22682 0.15835-0.37447 0.0835-0.0193-0.009 0.22468-0.42583 0.27176-0.51998 0.10699-0.21612 0.14123-0.35093 0.33167-0.54138 0.14551-0.14551 0.29744-0.23324 0.41727-0.35521 0.14123-0.14123 0.2097-0.28674 0.39587-0.33381 0.19044-0.0471 0.40229-0.0193 0.60343-0.0193 0.19044 0 0.31669-0.0835 0.47932-0.0835 0.15193 0 0.32312-0.21184 0.45793-0.31241 0.15406-0.11769 0.40656-0.11127 0.58417-0.14765 0.20328-0.0385 0.28674-0.092 0.35307-0.22896 0.0749-0.14765 0.27176-0.12411 0.37661-0.22896 0.0728-0.0728 0.0813-0.15193 0.10271-0.20757 0.0214-0.0556 0.0385-0.0984 0.14551-0.12625 0.16477-0.0406 0.34451-0.0278 0.47932-0.062 0.14551-0.0364 0.33168 0 0.47933 0 0.11769 0 0.19472-0.0171 0.22896-0.0621 0.0342-0.0449 0.0428-0.12197 0.0428-0.20756 0-0.16263-0.0941-0.30386-0.20756-0.41727-0.13267-0.13053-0.20328-0.25892-0.29316-0.43866-0.077-0.15407-0.14764-0.33596-0.20756-0.45793-0.0706-0.14123-0.12625-0.31241-0.1883-0.43652-0.0835-0.16905-0.25678-0.25678-0.39587-0.29316-0.14123-0.0342-0.31456-0.1883-0.39587-0.26962-0.0984-0.0984-0.19473-0.199-0.29102-0.27176-0.13909-0.10271-0.20328-0.11555-0.27176-0.25036-0.062-0.12625-0.14979-0.23752-0.22896-0.39372-0.0599-0.12198-0.14765-0.19473-0.20756-0.31456-0.0642-0.12625-0.0193-0.32739-0.0621-0.41513-0.0599-0.11983-0.10485-0.31455-0.1669-0.43866-0.0706-0.13909-0.11556-0.16691-0.18831-0.31242-0.092-0.18616 0.0214-0.29101-0.10271-0.41726-0.11983-0.11769-0.12625-0.21827-0.27176-0.29102-0.0899-0.0449-0.12411-0.0856-0.16691-0.10485-0.0428-0.0171-0.0877-0.006-0.18616 0.0428-0.0193 0.009-0.14979 0.31884-0.16691 0.35308-0.077 0.15192-0.18188 0.18188-0.33381 0.33381-0.13909 0.14123-0.2204 0.23324-0.29102 0.37661-0.0642 0.12411-0.31455 0.0407-0.39587 0.0193-0.077-0.0193-0.0899-0.0941-0.0834-0.18617 0.006-0.092 0.0193-0.19686 0-0.27176-0.0364-0.14336 0-0.35093 0-0.50072 0-0.0706 0.077-0.0727 0.16691-0.0834 0.0877-0.009 0.199-0.0321 0.24822-0.0834 0.0642-0.0621 0.10057-0.0963 0.10485-0.14551 0.004-0.0471-0.0235-0.10699-0.10485-0.18617-0.092-0.0941-0.3274-0.0556-0.43653-0.0834-0.2311-0.0578-0.32311-0.0342-0.50072-0.16691-0.15621-0.11769-0.24608-0.21612-0.29102-0.39587-0.0299-0.11769-0.27817-0.0963-0.39587-0.12625-0.1669-0.0406-0.33809-0.0406-0.51997-0.0406-0.15621 0-0.27604 0.12625-0.43867 0.1669-0.0899 0.0235-0.16691-0.015-0.22896-0.0214-0.0599-0.004-0.11127 0.009-0.14551 0.1455-0.0449 0.18403-0.11983 0.30172-0.1883 0.43867-0.0556 0.11127-0.0621 0.2953-0.0621 0.45792 0 0.20329-0.0535 0.23752 0 0.45793 0.0385 0.14979-0.0128 0.34665-0.0407 0.45792-0.0428 0.17119 0.0428 0.33167 0 0.50072-0.0556 0.21612-0.11555 0.29316-0.0214 0.47932 0.0877 0.17333 0.1776 0.21185 0.22896 0.41727 0.0406 0.16477-0.0621 0.33381-0.0621 0.49858 0 0.14337-0.2097 0.31456-0.27176 0.39587-0.0749 0.10271-0.1669 0.27604-0.1669 0.41727 0 0.11341-0.26962 0.199-0.33168 0.22896-0.1669 0.0834-0.25464 0.2204-0.35521 0.35521-0.077 0.10271-0.0834 0.35093-0.0834 0.47932 0 0.16263-0.0407 0.32526-0.0407 0.49858v0.50072c0 0.16905 0.0407 0.2525 0 0.41727-0.0407 0.15835-0.2311 0.26106-0.33381 0.31241-0.0984 0.0492-0.19045-0.006-0.25036-0.0834-0.0599-0.0792-0.10271-0.19044-0.10271-0.25036v-0.54138c0-0.14122-0.0428-0.30813-0.0428-0.45792v-0.52212c0-0.20328-0.0642-0.29743-0.10485-0.45792-0.0235-0.10057-0.25464-0.25678-0.33168-0.33382-0.11341-0.11341-0.26748-0.20542-0.39586-0.26961-0.107-0.0535-0.25892-0.19687-0.33382-0.27176-0.15835-0.15835-0.25678-0.2204-0.33381-0.37447-0.0792-0.15835-0.28674-0.18831-0.45793-0.18831-0.18188 0-0.35949-0.0406-0.50072-0.14551-0.10057-0.0749-0.12411-0.32953-0.12411-0.43652 0-0.2097-0.0257-0.37661-0.062-0.56278-0.0321-0.15406-0.0128-0.36591 0.0193-0.50072 0.0471-0.1883 0.2525-0.33381 0.31241-0.45792 0.0877-0.17333 0.36163-0.29744 0.50072-0.43867 0.13481-0.13481 0.20757-0.33167 0.37447-0.45792 0.21399-0.15835 0.43439-0.27818 0.66763-0.39587 0.12197-0.062 0.13909-0.23538 0.18617-0.33381 0.0877-0.17333 0.14122-0.3274 0.25036-0.43653 0.1348-0.13481 0.2525-0.2525 0.37661-0.37447 0.10485-0.10699 0.40442-0.0834 0.45792-0.0834 0.0727 0 0.20756 0.39373 0.22896 0.43652 0.0449 0.092 0.0792 0.14123 0.14551 0.16691 0.0663 0.0257 0.16691 0.0171 0.25036 0 0.16691-0.0342 0.35735-0.12411 0.58203-0.1883 0.12625-0.0342 0.27604-0.27176 0.39587-0.33168 0.11769-0.0599 0.12625-0.33595 0.12625-0.47932 0-0.19044-0.0214-0.29102-0.0214-0.45792 0-0.0963-0.27603-0.20115-0.33381-0.2311-0.0792-0.0385-0.0877-0.13267-0.062-0.22897s0.0877-0.19258 0.12411-0.22896c0.10485-0.10271 0.28245-0.17332 0.41726-0.20756 0.17975-0.0449 0.34452-0.0364 0.47932-0.10485 0.14765-0.0728 0.18617-0.16477 0.29102-0.26962 0.16477-0.16691 0.18189-0.26962 0.22896-0.46007 0.0364-0.13908 0.0171-0.35521 0.0428-0.45792 0.0428-0.16691 0.20328-0.32525 0.26962-0.41727 0.0513-0.0663 0.0727-0.12411 0.12625-0.16476 0.0535-0.0428 0.12411-0.0642 0.25036-0.0642 0.11983 0 0.19686 0.006 0.25036 0.0428 0.0513 0.0364 0.0813 0.10057 0.12411 0.18616 0.062 0.12411 0.0214 0.35308 0.0214 0.50072 0 0.17761-0.13909 0.2418-0.22896 0.33382-0.0835 0.0834 0.28887 0.25892 0.33167 0.29101 0.0663 0.0492 0.03 0.15835-0.0407 0.27176-0.0706 0.11341-0.17546 0.22468-0.1883 0.25036-0.0535 0.10699-0.19259 0.21613-0.26962 0.37447-0.10485 0.20971-0.12625 0.23966-0.41727 0.31242-0.1883 0.0471-0.34237 0.19258-0.45792 0.25036-0.0835 0.0407-0.0856 0.0984-0.0621 0.16691 0.0214 0.0663 0.0578 0.14122 0.0835 0.1669 0.14336 0.14337 0.20542 0.13909 0.39586 0.18617 0.22255 0.0556 0.30386-0.0107 0.43653 0.1669 0.0899 0.11983 0.12839 0.17333 0.18831 0.29102 0.0834 0.17119 0.18188 0.2739 0.22896 0.46006 0.0193 0.0813 0.32953 0.11128 0.43652 0.16691 0.13909 0.0685 0.35735 0.0834 0.47932 0.14551 0.15407 0.077 0.22469 0.12197 0.39587 0.16691 0.13909 0.0342 0.18403 0.10271 0.35308 0.1455 0.10271 0.0257 0.16476 0.0321 0.2097 0 0.0428-0.0342 0.0599-0.0984 0.0834-0.1883 0.0171-0.0749-0.0642-0.16691-0.14551-0.22896-0.0834-0.0621-0.16476-0.092-0.1883-0.10485-0.17547-0.0856-0.2418-0.11769-0.35521-0.22897-0.0899-0.0899-0.13053-0.16904-0.12411-0.22896 0.006-0.0599 0.0599-0.10057 0.12411-0.1669 0.0642-0.0642 0.13481-0.0428 0.2097 0 0.0749 0.0449 0.16049 0.11769 0.18617 0.1455 0.0727 0.0728 0.15834 0.0535 0.2311 0 0.0706-0.0513 0.11555-0.14978 0.12411-0.18616 0.0321-0.13267 0.062-0.2204 0.062-0.41727 0-0.20542-0.13695-0.2418-0.0834-0.45792 0.0235-0.092-0.0535-0.16049-0.14551-0.2097-0.0899-0.0471-0.19686-0.0856-0.25036-0.12412-0.16691-0.12625-0.24822-0.12197-0.33381-0.29101-0.0599-0.12197-0.0193-0.18831 0.0428-0.20971s0.14123-0.0107 0.18831 0c0.1883 0.0471 0.22254 0.14123 0.35307 0.27176 0.14765 0.14765 0.14765 0.22896 0.31242 0.31242 0.16048 0.0792 0.15834 0.20756 0.33381 0.20756 0.11127 0 0.12411-0.33595 0.12411-0.43652 0-0.17761-0.0834-0.31028-0.0834-0.50072 0-0.0749 0.1776-0.20543 0.2097-0.26962 0.0492-0.0984 0.0428-0.18617 0-0.25036-0.0449-0.0663-0.12197-0.12197-0.16691-0.16691-0.11983-0.11983-0.2204-0.17119-0.29101-0.31241-0.0835-0.16263-0.25464-0.23325-0.39587-0.37447-0.0214-0.0428-0.0942 0-0.16691 0.0192-0.0749 0.0193-0.14765 0.015-0.18831-0.1455-0.0385-0.15407 0.0492-0.36164 0.0835-0.50073 0.0385-0.1562 0.12839-0.20114 0.16691-0.35307 0.0299-0.11983 0.0941-0.15406 0.12411-0.1883 0.0299-0.0342 0.0364-0.0728-0.0193-0.18617-0.0407-0.0813-0.25464-0.16904-0.33382-0.2097-0.13267-0.0663-0.21612-0.17333-0.29315-0.25036-0.0728-0.0728-0.0407-0.38731-0.0407-0.49858 0-0.0834-0.0407-0.14979-0.10485-0.18831-0.0642-0.0364-0.13909-0.0492-0.20757-0.0834-0.11983-0.0599-0.25678-0.062-0.43652-0.062-0.14551 0-0.36805-0.03-0.50072-0.0621-0.15407-0.0385-0.35521 0.0364-0.45792 0.0621-0.14551 0.0364-0.35094 0-0.50073 0-0.17118 0-0.2311-0.0621-0.39586-0.10486-0.10486-0.0257-0.3488 0.18617-0.43653 0.22897-0.0899 0.0449-0.12839 0.0128-0.14551-0.0621-0.0193-0.0727-0.0214-0.17761-0.0214-0.25036v-0.49858c0-0.0706-0.0513-0.10913-0.12625-0.12625-0.0727-0.0171-0.16476-0.0193-0.22896-0.0193zm18.062 2.02c-0.0899 0.0193-0.16477 0.092-0.18831 0.18831-0.0278 0.11127-0.0406 0.26961-0.062 0.35307-0.006 0.0278-0.41299-0.0514-0.64623 0.0428-0.0984 0.0385-0.23966 0.10058-0.33381 0.12411-0.12625 0.0321-0.0877 0.12198-0.0621 0.22897 0.0342 0.13267 0.40657 0.15834 0.51998 0.1883 0.0813 0.0193 0.18831 0.16477 0.27176 0.25036 0.0835 0.0835 0.22468 0.14123 0.31241 0.20757 0.0685 0.0513 0.13909 0.20328 0.22897 0.29101 0.092 0.0941 0.2525 0.13695 0.37447 0.16691 0.14978 0.0385 0.2418-0.0407 0.39587-0.0407 0.12625 0 0.23752 0.0621 0.37661 0.0621 0.14336 0 0.24394-0.0621 0.37447-0.0621 0.10485 0 0.14978-0.17118 0.20756-0.25036 0.077-0.10271 0.0834-0.2632 0.0834-0.39587 0-0.12411-0.0406-0.24394-0.062-0.33381-0.0257-0.10485-0.23538-0.15835-0.29102-0.26962-0.0706-0.14123-0.0749-0.17546-0.22896-0.29316-0.10699-0.0792-0.29744-0.16904-0.37661-0.20756-0.12411-0.0621-0.21398-0.11341-0.31242-0.1883-0.0642-0.0492-0.16262-0.0621-0.26961-0.0621h-0.22897c-0.0321-0.009-0.0556-0.006-0.0835 0zm7.3311 2.6876c-0.13267 0.0171-0.16477 0.2204-0.16477 0.39587 0 0.1776-0.23966 0.34023-0.31241 0.39586-0.10486 0.077 0.41512 0.28246 0.45792 0.29102 0.17547 0.0449 0.32097 0.19473 0.49858 0.22896 0.12839 0.0257 0.34237 0.16691 0.50072 0.23111 0.092 0.0364 0.11983 0.16904 0.14551 0.31241 0.0257 0.14123 0.0428 0.28674 0.0428 0.37447 0 0.18189-0.002 0.37019 0.0407 0.54138 0.0449 0.1776 0.0942 0.24608 0.0428 0.45792-0.0257 0.10271-0.0385 0.17975-0.0428 0.25036-0.004 0.0706 0.006 0.13267 0.0835 0.20757 0.13695 0.13694 0.52211 0.0642 0.68688 0.22896s0.29102 0.27604 0.47932 0.50072c0.0963 0.11555-0.009 0.32525 0.12625 0.45792 0.092 0.092 0.39587 0.10913 0.49858 0.0834 0.0728-0.0171 0.10914-0.4301 0.12625-0.49858 0.0214-0.0877 0.14979-0.13267 0.29102-0.14764 0.14123-0.0128 0.30386 0.009 0.37447 0.0428 0.12625 0.0621 0.13909 0.25892 0.10485 0.39587-0.0257 0.10271-0.004 0.17119 0.0407 0.22896 0.0471 0.0578 0.11341 0.10913 0.1883 0.14551 0.13695 0.0685 0.32098 0.0449 0.41727 0.0214 0.15193-0.0385 0.2204-0.25464 0.29102-0.39587 0.0471-0.0963 0.0685-0.16691 0.0834-0.22896 0.015-0.0621 0.0257-0.11769 0.12411-0.16691 0.14123-0.0706 0.20543-0.17974 0.16691-0.33381-0.0428-0.16905-0.0899-0.32526-0.16691-0.47932-0.10271-0.20543-0.31883-0.28032-0.49858-0.41513-0.13909-0.10485-0.12411-0.14123-0.16691-0.31456-0.0299-0.11555-0.22896-0.20542-0.35521-0.26961-0.11555-0.0578-0.19258-0.2632-0.33167-0.33382-0.204-0.103-0.399-0.133-0.583-0.27-0.188-0.141-0.353-0.192-0.541-0.334-0.184-0.139-0.345-0.304-0.501-0.4576-0.15407-0.15407-0.30386-0.22255-0.41727-0.33382-0.13695-0.13909-0.35307-0.21826-0.49858-0.29315-0.1883-0.0942-0.2953-0.20543-0.45792-0.26962-0.19901-0.0792-0.34024-0.10057-0.52212-0.14551-0.0621-0.0171-0.13267-0.0727-0.18617-0.10485-0.0235-0.006-0.0449-0.002-0.0642 0zm-18.204 9.8966c-0.0556 0.0556-0.15835 0.006-0.22896 0.0407-0.0749 0.0385-0.10913 0.18189-0.12625 0.25036-0.0278 0.11127-0.0171 0.21612-0.0407 0.33381-0.0257 0.13267 0.0128 0.34452 0.0407 0.45793 0.0235 0.0899-0.11983 0.20114-0.16477 0.29101-0.0471 0.0942-0.10699 0.16905-0.1669 0.25036-0.0728 0.0963-0.0621 0.30386-0.0835 0.41727-0.0278 0.13481-0.0342 0.23752-0.062 0.35521-0.0235 0.0877-0.0214 0.17547-0.0214 0.26962 0 0.0728 0.17119 0.11769 0.22896 0.14551 0.0621 0.0321 0.0942-0.0428 0.12411-0.12411 0.03-0.0834 0.0556-0.17975 0.10485-0.22896 0.10058-0.10057 0.15193-0.14551 0.29102-0.14551 0.092 0 0.18831-0.0214 0.29316-0.0214 0.0578 0 0.17546 0.0364 0.22896 0.0621 0.10057 0.0513 0.16049 0.0984 0.22896 0.1669 0.0792 0.0813 0.0556 0.17547 0.18617 0.20757 0.10699 0.0278 0.17332 0.0834 0.29315 0.0834h0.35307 0.27176c0.12625 0 0.12411-0.0792 0.12411-0.20756 0-0.11127 0.0171-0.19045 0.0428-0.29102 0.0257-0.10485-0.0235-0.17333-0.0428-0.25036-0.0214-0.092-0.17118-0.19259-0.22896-0.25036-0.12839-0.13053-0.27176-0.10699-0.31241-0.27176-0.0193-0.0749 0.0214-0.1883 0.0214-0.26962 0-0.0792 0.0193-0.16049 0.0193-0.25036 0-0.10699-0.0663-0.15407-0.10271-0.22896-0.0471-0.092-0.13267-0.0834-0.22896-0.0834-0.092 0-0.22254-0.0235-0.31242-0.0428-0.10271-0.0193-0.16048-0.0128-0.22896-0.0834-0.077-0.0749-0.14765-0.0642-0.14765-0.18617 0-0.0642-0.0428-0.13481-0.062-0.2097-0.0214-0.0856-0.0385-0.11769-0.10271-0.16477-0.0407-0.03-0.14551-0.0214-0.18831-0.0214zm30.976 0.79174c-0.107 0.015-0.10914 0.40229-0.22897 0.51998-0.10913 0.11127-0.22254 0.13909-0.31241 0.22896-0.15407 0.15621-0.34023 0.29958-0.50072 0.46006-0.13481 0.13481-0.15835 0.40657-0.22896 0.58204-0.0492 0.12625 0 0.40229 0 0.54138 0 0.1776-0.20329 0.45578-0.26962 0.62483-0.0428 0.10699-0.0792 0.1562-0.14551 0.1883-0.0685 0.0321-0.15621 0.0342-0.27176 0.0621-0.18616 0.0471-0.33809 0.0856-0.50072 0.1669-0.11769 0.0599-0.2097 0.3167-0.26962 0.43867-0.0642 0.12411-0.0278 0.36163-0.062 0.49858-0.0556 0.22254-0.0428 0.47504 0 0.68902 0.0342 0.17333 0.062 0.33168 0.10271 0.49858 0.0449 0.18189-0.0321 0.34238-0.0621 0.45793-0.0428 0.17546-0.10485 0.33381-0.1455 0.50072-0.0428 0.17118 0.1669 0.34023 0.1669 0.52212 0 0.19044 0.0492 0.36591 0 0.56063-0.0321 0.12839 0.0278 0.31456 0.10271 0.50072 0.077 0.18617 0.17975 0.38089 0.20971 0.50072 0.0193 0.0813-0.43225 0.63125-0.47932 0.74894-0.0599 0.15193-0.14765 0.35094-0.25036 0.52212-0.10272 0.17119 0.0214 0.36377 0.0214 0.54138 0 0.18402 0.0407 0.38731 0.0407 0.58417 0 0.23966 0.0428 0.48788 0.0428 0.72754 0 0.21613-0.22041 0.52426-0.27176 0.72969-0.0492 0.19686 0.004 0.44508 0.0835 0.60343 0.0599 0.11983-0.0492 0.42369-0.0835 0.56277-0.0578 0.23539 0.062 0.49858 0.062 0.72969v0.10485c0 0.32097 0.2632 0.75108 0.33382 1.1042 0.0385 0.19259-0.0685 0.29958-0.10485 0.43653-0.0514 0.21184 0.062 0.37233 0.10485 0.54137 0.0685 0.27604 0.0128 0.5157-0.10485 0.75108-0.0578 0.11769-0.0599 0.20971-0.0407 0.31242 0.0193 0.10271 0.062 0.2097 0.10485 0.31241 0.0792 0.19901 0.009 0.47077 0.0621 0.68689 0.0449 0.18403-0.0214 0.51998-0.0214 0.72968 0 0.15193-0.0599 0.22254-0.10485 0.31242-0.0428 0.0899-0.0663 0.19258-0.0193 0.37447 0.0107 0.0449 0.009 0.10271 0.0193 0.14765 0.0385 0.15192 0.35949 0.47718 0.50072 0.58203 0.0984 0.0749 0.12839 0.15407 0.1455 0.22896 0.0193 0.077 0.0214 0.15407 0.0214 0.27176 0 0.25036 0.0278 0.40229 0.18831 0.56278 0.0963 0.0984 0.28673 0.0834 0.39587 0.22896 0.0877 0.11769 0.0835 0.4515 0.0835 0.60343 0 0.18616 0.004 0.29316 0.062 0.39587 0.0578 0.10485 0.16263 0.20542 0.29102 0.33381 0.0556 0.0556 0.11127 0.0899 0.16691 0.14551 0.13053 0.13053 0.15407 0.36377 0.29102 0.50072 0.12838 0.12625 0.32525 0.28674 0.50072 0.37447 0.10485 0.0535 0.21398 0.0171 0.31241-0.0407 0.0984-0.0578 0.17975-0.13481 0.25036-0.1883 0.20542-0.15407 0.35735-0.29958 0.45792-0.50072 0.13695-0.27176 0.37661-0.5692 0.43653-0.87519 0.0235-0.11555 0.0578-0.19259 0.12625-0.24822 0.0685-0.0578 0.17547-0.10057 0.26962-0.14765 0.16904-0.0834 0.32739-0.26748 0.41727-0.41513 0.0984-0.16477 0.27603-0.27604 0.45792-0.22896 0.14123 0.0342 0.23966 0.13909 0.31241 0.24822 0.0728 0.11127 0.13909 0.22254 0.16691 0.33381 0.0449 0.17761-0.13481 0.39587-0.20756 0.54138-0.12197 0.24394-0.0663 0.42797-0.22896 0.64623-0.14765 0.19686-0.22041 0.4836-0.31242 0.66763-0.12411 0.24822-0.0942 0.62697-0.14765 0.89445-0.0235 0.11983-0.10699 0.35521-0.16476 0.50072-0.0685 0.16904-0.14765 0.49002-0.14765 0.66762 0 0.23324-0.24394 0.42583-0.35308 0.64409-0.13052 0.26106-0.22682 0.5264-0.33381 0.79174-0.0813 0.20328-0.17974 0.41727-0.29102 0.60557-0.10057 0.16691-0.18402 0.34023-0.22896 0.51998-0.0428 0.16691-0.15193 0.30386-0.22896 0.45792-0.0749 0.14765-0.0877 0.29958-0.16691 0.46007-0.14978 0.29743-0.48146 0.81313-0.72968 1.0614-0.21398 0.21399-0.49216 0.50714-0.60343 0.72969-0.0727 0.1455-0.11983 0.25891-0.18831 0.39586-0.10057 0.19901-0.23324 0.42583-0.35307 0.66549-0.0856 0.16905-0.2311 0.2525-0.31241 0.41727-0.0856 0.17118-0.12411 0.2418-0.14765 0.33381 4.7633-5.5828 7.667-12.822 7.667-20.731 0-4.0357-0.7789-7.881-2.1462-11.437-0.13909 0.0107-0.38517 0.0621-0.54138 0.0621-0.10057 0-0.17546 0.077-0.22896 0.1669s-0.0856 0.19901-0.10485 0.27176c-0.0492 0.19687-0.0385 0.42155 0.0214 0.62483 0.0599 0.20329 0.16049 0.38731 0.27176 0.49858 0.0834 0.0856 0.13481 0.16691 0.12411 0.22897-0.0107 0.0642-0.0728 0.10485-0.20757 0.10485-0.1455 0-0.2311-0.0235-0.29315-0.0621-0.0599-0.0385-0.092-0.092-0.16477-0.1669-0.14123-0.14123-0.26962-0.25892-0.46006-0.35522-0.16691-0.0813-0.30814-0.15406-0.45793-0.22896-0.10699-0.0535-0.19686-0.35307-0.25036-0.45792-0.0813-0.16263-0.14551-0.3274-0.14551-0.51998 0-0.13267-0.13266-0.33167-0.18616-0.43867-0.0642-0.12839-0.15407-0.26533-0.22896-0.41512-0.0856-0.16905-0.16263-0.28246-0.31242-0.39587-0.0193-0.015-0.0278-0.0235-0.0428-0.0214zm-39.497 17.354c-0.0235 0.0107-0.0514 0.0321-0.0835 0.0642-0.092 0.092-0.0706 0.0727-0.22896-0.0214 0.0342 0 0.43653 0.48146 0.52212 0.62483 0.0407 0.0663 0.15407 0.0877 0.26962 0.0834 0.11555-0.004 0.22682-0.0278 0.29102-0.0428 0.14765-0.0278 0.18616-0.11769 0.1669-0.20757-0.0192-0.0899-0.0963-0.19472-0.1669-0.22896-0.17975-0.0899-0.30386-0.16049-0.49858-0.20756-0.16263-0.0407-0.20115-0.0942-0.27176-0.0642zm0.37661 1.3973c-0.12411 0.0214-0.31028 0.10058-0.37661 0.16691-0.0514 0.0514-0.009 0.14979 0.0428 0.24822 0.0492 0.10057 0.12197 0.18403 0.14551 0.2311 0.0642 0.12625 0.44295 0.16477 0.58204 0.16477 0.11983 0 0.17332-0.0535 0.1883-0.12411 0.015-0.0706-0.002-0.15621-0.0214-0.22896-0.0321-0.13053-0.19258-0.25678-0.26961-0.33382-0.0792-0.0792-0.009-0.0171-0.18831-0.12411-0.0235-0.006-0.0621-0.009-0.10271 0zm-1.6883 1.1234c-0.23752 0-0.4622 0.009-0.68688 0.18831-0.2739 0.2204-0.60558 0.61841-0.79174 0.68688 0.0407 0.10272 0.0727 0.19259 0.14551 0.22897 0.0706 0.0385 0.17974 0.0364 0.29101-0.0193 0.18189-0.092 0.30386-0.13053 0.45793-0.20971 0.16263-0.0792 0.2846-0.1455 0.46006-0.1455 0.22254 0 0.37019 0.077 0.56064 0.12625 0.14551 0.0364 0.25464 0.0856 0.41726 0.1669 0.16905 0.0835 0.32312 0.15621 0.45793 0.29102 0.13267 0.13053 0.37447 0.19686 0.50072 0.29102 0.13053 0.0984 0.37019 0.20328 0.50072 0.33381 0.0834 0.0834 0.2632 0.26748 0.39587 0.33381 0.13909 0.0685 0.25892 0.0556 0.37447 0.0193 0.11555-0.0342 0.23538-0.0813 0.39587-0.0813 0.11769 0 0.31455 0.0107 0.49858 0.0193 0.18402 0.0107 0.34665 0.009 0.41726-0.0621 0.0449-0.0449 0.10486-0.10485 0.12411-0.1669 0.0214-0.0621 0-0.11556-0.12411-0.14551-0.17546-0.0449-0.33167-0.0984-0.51998-0.14551-0.26319-0.0663-0.17974-0.18403-0.39586-0.29102-0.24608-0.12411-0.31884-0.15835-0.60558-0.2311-0.18616-0.0449-0.47076-0.0749-0.62483-0.22896-0.13695-0.13695-0.21184-0.38731-0.35307-0.45793-0.24822-0.12411-0.43866-0.29529-0.72968-0.35307-0.28888-0.0578-0.64409-0.14765-0.93725-0.14765-0.0856 0-0.14978 0.002-0.22896 0zm5.5614 1.8959c-0.0471-0.004-0.0984 0.0107-0.14551 0.0214-0.19258 0.0492-0.69972 0.004-0.72968 0.0621-0.0321 0.0556-0.0749 0.10913-0.10271 0.1669-0.0685 0.13481-0.0556 0.17761-0.0214 0.20971 0.0342 0.0299 0.10057 0.0364 0.16691 0.10271 0.0235 0.0257 0.0834 0.10699 0.10485 0.1883 0.0193 0.0813 0 0.16691-0.0834 0.20757-0.0193 0.0107-0.42583 0.21398-0.41727 0.22896 0.0556 0.11127 0.11127 0.14765 0.35307 0.14765 0.20328 0 0.34237 0.0257 0.52212 0.062 0.11983 0.0235 0.38517 0.0899 0.49858 0.0621 0.27176-0.0685 0.47504-0.13909 0.64623-0.31242 0.14551-0.14551 0.14765-0.0792 0.41727-0.14551 0.092-0.0235 0.20328-0.0192 0.26961-0.0428 0.0663-0.0214 0.10486-0.0685 0.10486-0.18617 0-0.12625-0.14337-0.29315-0.31242-0.29315-0.14765 0-0.34237 0.006-0.47932-0.0621-0.18831-0.0942-0.19045-0.25464-0.41727-0.31241-0.10485-0.0257-0.2311-0.0899-0.37447-0.10486zm2.3752 0.72969c-0.0663-0.015-0.10057 0.0792-0.10485 0.1883-0.002 0.10913 0.0321 0.22682 0.0428 0.26962 0.0235 0.0984 0.36377 0.14765 0.47932 0.14765s0.20756 0.002 0.25036-0.0214c0.0407-0.0235 0.0278-0.0663-0.0214-0.16691-0.0706-0.14123-0.11127-0.30599-0.25036-0.37447-0.11341-0.0578-0.27176-0.0428-0.39587-0.0428zm1.8745 0.1455c-0.0342 0.0257-0.0535 0.11769-0.0406 0.20971 0.0107 0.0899 0.0578 0.17118 0.20756 0.20756 0.14765 0.0364 0.36377 0.0235 0.45792 0 0.077-0.0193 0.0471-0.0813-0.0192-0.16691-0.0685-0.0834-0.15835-0.17332-0.23111-0.20756-0.0834-0.0428-0.24822-0.0428-0.35307-0.0428-0.009-0.004-0.0107-0.006-0.0214 0zm-6.8111 0.20971c-0.0278 0.002-0.077 0.0214-0.10485 0.0214-0.0278-0.0235-0.32097-0.006-0.45792 0.062-0.0963 0.0471-0.15835 0.0941-0.18831 0.14551-0.0278 0.0514-0.0299 0.12411 0.0214 0.22896 0.0535 0.10913 0.0621 0.17975 0.0835 0.22896 0.0214 0.0492 0.0642 0.0728 0.1883 0.10485 0.199 0.0492 0.37875 0.11128 0.56064 0.0214 0.14122-0.0728 0.2097-0.27604 0.2097-0.43866 0-0.20115-0.0556-0.31028-0.22896-0.35307-0.0278-0.009-0.0556-0.0235-0.0835-0.0214zm7.6863 0.74894c-0.10699 0.0235-0.0877 0.18402 0.0214 0.29315 0.13053 0.12839 0.26534 0.0856 0.35307 0.0407 0.0963-0.0471 0.0599-0.12839-0.0192-0.1883-0.0813-0.0599-0.20329-0.10272-0.20971-0.10272-0.062-0.0321-0.10913-0.0492-0.14551-0.0428zm0.64623 0.91799c-0.0556 0.0428-0.22896 0.18402-0.22896 0.26961 0 0.0813 0.0834 0.0813 0.18617 0.0621 0.10271-0.0171 0.21398-0.0535 0.22896-0.0621 0.0984-0.0471-0.077-0.199-0.16477-0.26961-0.004 0-0.0171-0.004-0.0214 0zm0.12411 0.74894c0.004 0.006 0.0171 0.0364 0.0214 0.0428 0.015-0.0128 0.0235-0.0406 0.0214-0.0428-0.002 0-0.0235-0.009-0.0428 0zm0.0214 0.0428c-0.0728 0.0621-0.30385 0.21827-0.33381 0.33168-0.0235 0.0984 0.40657-0.015 0.41727-0.0193 0.0963-0.0492-0.0193-0.21185-0.0835-0.31242zm0.87519 0.22896c-0.0107 0.0984-0.11341 0.36806-0.0214 0.43653 0.13695 0.10271 0.19901 0.0728 0.22897 0.0214 0.0321-0.0535 0.0278-0.13267 0-0.18831-0.0514-0.10271-0.11128-0.17332-0.20757-0.26962z"/>
</svg>
