<svg id="svg39699" xmlns:rdf="http://www.w3.org/1999/02/22-rdf-syntax-ns#" xmlns="http://www.w3.org/2000/svg" height="64" viewBox="0 0 64 64.000001" width="64" version="1.1" xmlns:cc="http://creativecommons.org/ns#" xmlns:dc="http://purl.org/dc/elements/1.1/">
	<circle id="path39707" style="color-rendering:auto;text-decoration-color:#000000;color:#000000;isolation:auto;mix-blend-mode:normal;shape-rendering:auto;solid-color:#000000;text-decoration-line:none;text-decoration-style:solid;image-rendering:auto;enable-background:new" fill-rule="evenodd" cx="32" cy="32" r="31.821" fill="#e35a4e"/>
	<path id="path4135" stroke-linejoin="round" style="color-rendering:auto;text-decoration-color:#000000;color:#000000;isolation:auto;mix-blend-mode:normal;shape-rendering:auto;solid-color:#000000;text-decoration-line:none;text-decoration-style:solid;image-rendering:auto" d="m21.943 33.666c-2.3214-2.5-12.5 0.17858-11.964 3.0357 0.53572 2.8571 2.1429 9.1071 8.0357 7.5s5-7.5 3.9286-10.536z" stroke="#fff" stroke-linecap="round" stroke-width="3" fill="none"/>
	<path id="path4137" stroke-linejoin="round" style="color-rendering:auto;text-decoration-color:#000000;color:#000000;isolation:auto;mix-blend-mode:normal;shape-rendering:auto;solid-color:#000000;text-decoration-line:none;text-decoration-style:solid;image-rendering:auto" d="m21.765 33.845c0.53571-1.4286 5.1786-2.3214 6.6071-1.7857" stroke="#fff" stroke-linecap="round" stroke-width="3" fill="none"/>
	<path id="path4135-8" stroke-linejoin="round" style="color-rendering:auto;text-decoration-color:#000000;color:#000000;isolation:auto;mix-blend-mode:normal;shape-rendering:auto;solid-color:#000000;text-decoration-line:none;text-decoration-style:solid;image-rendering:auto" d="m40.58 29.481c-2.3214-2.5-12.5 0.17858-11.964 3.0357 0.53572 2.8571 2.1429 9.1071 8.0357 7.5s5-7.5 3.9286-10.536z" stroke="#fff" stroke-linecap="round" stroke-width="3" fill="none"/>
	<path id="path4154" stroke-linejoin="round" style="color-rendering:auto;text-decoration-color:#000000;color:#000000;isolation:auto;mix-blend-mode:normal;shape-rendering:auto;solid-color:#000000;text-decoration-line:none;text-decoration-style:solid;image-rendering:auto" d="m40.693 29.202 1.9643-0.53571s6.7857-7.8572 7.5-8.9286c0.71429-1.0714 3.2143 1.0714 4.8214 4.2857" stroke="#fff" stroke-linecap="round" stroke-width="3" fill="none"/>
	<path id="path4154-5" stroke-linejoin="round" style="color-rendering:auto;text-decoration-color:#000000;color:#000000;isolation:auto;mix-blend-mode:normal;shape-rendering:auto;solid-color:#000000;text-decoration-line:none;text-decoration-style:solid;image-rendering:auto" d="m9.904 36.193-1.7857-0.536s3.75-13.75 4.4643-14.821c0.71429-1.0714 1.9643 1.6071 3.2143 3.75" stroke="#fff" stroke-linecap="round" stroke-width="3" fill="none"/>
</svg>
