<svg xmlns="http://www.w3.org/2000/svg" width="560" height="560">
  <circle cx="275.70959" cy="139.1526" r="1.148168" style="fill:#2ad4ff;stroke:#00aad4;stroke-width:.37166417;stroke-linecap:round"/>
  <path d="m 276.85777,139.1526 c 0,0.29561 -0.11171,0.56513 -0.29523,0.76864 -0.0368,-0.4604 -0.029,-0.79933 -0.81827,-0.79933 -0.70414,0 -1.00212,0.37932 -0.78763,0.89751 -0.24213,-0.2105 -0.39521,-0.52078 -0.39521,-0.86682 0,-0.63411 0.51406,-1.14817 1.14817,-1.14817 0.63412,0 1.14817,0.51406 1.14817,1.14817 z" style="fill:#089cc1;stroke-width:.11989051"/>
  <path d="m 276.35447,140.269 c -0.25373,0.1465 -0.21682,-0.84153 -0.48814,-0.73096 -0.27131,0.11058 0.44572,0.79133 0.16187,0.86393 -0.28385,0.0726 0.0183,-0.86882 -0.27283,-0.83554 -0.29109,0.0333 0.21569,0.88223 -0.0772,0.87556 -0.29291,-0.007 0.25196,-0.83168 -0.0373,-0.87817 -0.28928,-0.0465 -0.0303,0.9077 -0.31057,0.82226 -0.28025,-0.0854 0.46701,-0.73285 0.20101,-0.85566 -0.266,-0.12281 -0.2741,0.86586 -0.5209,0.70797 -0.2468,-0.15789 0.64743,-0.57967 0.42443,-0.76969 -0.22301,-0.19003 -0.49755,0.7598 -0.6926,0.54118 -0.19505,-0.21862 0.77981,-0.3835 0.61635,-0.62664 -0.16347,-0.24314 -0.68409,0.59739 -0.81292,0.33425 -0.12884,-0.26314 0.85436,-0.15889 0.76256,-0.43712 -0.0918,-0.27823 -0.8199,0.39069 -0.87296,0.10254 -0.0531,-0.28813 0.86554,0.0775 0.85221,-0.21518 -0.0133,-0.29268 -0.89489,0.15499 -0.86825,-0.13678 0.0266,-0.29178 0.81254,0.30817 0.87867,0.0227 0.0662,-0.28543 -0.90352,-0.0922 -0.79915,-0.36596 0.10437,-0.27376 0.69926,0.51594 0.83994,0.25894 0.14068,-0.25699 -0.84513,-0.33255 -0.67077,-0.56799 0.17437,-0.23545 0.53414,0.68547 0.73894,0.47596 0.2048,-0.20952 -0.72408,-0.54824 -0.49266,-0.72792 0.23142,-0.17967 0.32939,0.80417 0.58313,0.65768 0.25373,-0.1465 -0.54932,-0.72326 -0.27801,-0.83384 0.27132,-0.11057 0.10022,0.86321 0.38407,0.79061 0.28384,-0.0726 -0.33383,-0.84464 -0.0427,-0.87792 0.29108,-0.0333 -0.1364,0.85824 0.15651,0.86491 0.29291,0.007 -0.0935,-0.90338 0.19572,-0.85689 0.28927,0.0465 -0.36289,0.78962 -0.0826,0.87506 0.28025,0.0855 0.15365,-0.89512 0.41965,-0.77231 0.26601,0.12281 -0.56247,0.66243 -0.31566,0.82032 0.2468,0.15789 0.38944,-0.82047 0.61245,-0.63045 0.223,0.19002 -0.72032,0.48611 -0.52528,0.70474 0.19505,0.21862 0.59637,-0.68498 0.75984,-0.44184 0.16346,0.24314 -0.82477,0.27375 -0.69594,0.53688 0.12884,0.26314 0.75906,-0.49868 0.85087,-0.22044 0.0918,0.27823 -0.86804,0.0411 -0.81498,0.32921 0.0531,0.28814 0.86546,-0.27537 0.87879,0.0173 0.0133,0.29268 -0.84694,-0.19465 -0.87358,0.0971 -0.0266,0.29177 0.90766,-0.0317 0.84154,0.25374 -0.0662,0.28543 -0.76301,-0.41592 -0.86739,-0.14216 -0.10437,0.27376 0.88255,0.21437 0.74188,0.47137 -0.14068,0.257 -0.6225,-0.60636 -0.79687,-0.37091 -0.17436,0.23545 0.79199,0.44454 0.58719,0.65405 -0.2048,0.20951 -0.43583,-0.75183 -0.66725,-0.57215 -0.23141,0.17969 0.64272,0.64168 0.389,0.78818 z" style="fill:#00aad4;fill-opacity:1;stroke-width:.74332833"/>
  <circle cx="275.70959" cy="139.1526" r="0.45610806" style="fill:#000;stroke-width:.04762633"/>
  <circle cx="289.3009" cy="139.14568" r="1.148168" style="fill:#2ad4ff;stroke:#00aad4;stroke-width:.37166417;stroke-linecap:round"/>
  <path d="m 290.44908,139.14568 c 0,0.29561 -0.11171,0.56512 -0.29523,0.76863 -0.0368,-0.4604 -0.029,-0.79932 -0.81827,-0.79932 -0.70414,0 -1.00212,0.37932 -0.78763,0.89751 -0.24213,-0.21051 -0.39521,-0.52079 -0.39521,-0.86682 0,-0.63412 0.51406,-1.14817 1.14817,-1.14817 0.63412,0 1.14817,0.51405 1.14817,1.14817 z" style="fill:#089cc1;stroke-width:.11989051"/>
  <path d="m 289.94578,140.26207 c -0.25373,0.1465 -0.21682,-0.84153 -0.48814,-0.73095 -0.27131,0.11058 0.44572,0.79133 0.16187,0.86393 -0.28385,0.0726 0.0183,-0.86882 -0.27283,-0.83554 -0.29109,0.0333 0.21569,0.88222 -0.0772,0.87556 -0.29291,-0.007 0.25196,-0.83168 -0.0373,-0.87817 -0.28928,-0.0465 -0.0303,0.9077 -0.31057,0.82225 -0.28025,-0.0854 0.46701,-0.73284 0.20101,-0.85566 -0.266,-0.12281 -0.2741,0.86587 -0.5209,0.70798 -0.2468,-0.15789 0.64743,-0.57967 0.42443,-0.76969 -0.22301,-0.19003 -0.49755,0.7598 -0.6926,0.54118 -0.19505,-0.21862 0.77981,-0.3835 0.61635,-0.62665 -0.16347,-0.24314 -0.68409,0.5974 -0.81292,0.33426 -0.12884,-0.26314 0.85436,-0.1589 0.76256,-0.43712 -0.0918,-0.27823 -0.8199,0.39068 -0.87296,0.10254 -0.0531,-0.28814 0.86554,0.0775 0.85221,-0.21518 -0.0133,-0.29268 -0.89489,0.15498 -0.86825,-0.13679 0.0266,-0.29177 0.81254,0.30818 0.87867,0.0228 0.0662,-0.28543 -0.90352,-0.0922 -0.79915,-0.36597 0.10437,-0.27376 0.69926,0.51595 0.83994,0.25895 0.14068,-0.257 -0.84513,-0.33255 -0.67077,-0.568 0.17437,-0.23545 0.53414,0.68548 0.73894,0.47596 0.2048,-0.20951 -0.72408,-0.54823 -0.49266,-0.72791 0.23142,-0.17968 0.32939,0.80417 0.58313,0.65767 0.25373,-0.14649 -0.54932,-0.72325 -0.27801,-0.83383 0.27132,-0.11058 0.10022,0.86321 0.38407,0.7906 0.28384,-0.0726 -0.33383,-0.84463 -0.0427,-0.87791 0.29108,-0.0333 -0.1364,0.85824 0.15651,0.8649 0.29291,0.007 -0.0935,-0.90337 0.19572,-0.85688 0.28927,0.0465 -0.36289,0.78961 -0.0826,0.87506 0.28025,0.0854 0.15365,-0.89512 0.41965,-0.77231 0.26601,0.12281 -0.56247,0.66243 -0.31566,0.82032 0.2468,0.15789 0.38944,-0.82048 0.61245,-0.63045 0.223,0.19002 -0.72032,0.48611 -0.52528,0.70473 0.19505,0.21862 0.59637,-0.68498 0.75984,-0.44183 0.16346,0.24314 -0.82477,0.27374 -0.69594,0.53688 0.12884,0.26314 0.75906,-0.49868 0.85087,-0.22045 0.0918,0.27824 -0.86804,0.0411 -0.81498,0.32921 0.0531,0.28815 0.86546,-0.27536 0.87879,0.0173 0.0133,0.29269 -0.84694,-0.19464 -0.87358,0.0971 -0.0266,0.29177 0.90766,-0.0317 0.84154,0.25374 -0.0662,0.28542 -0.76301,-0.41592 -0.86739,-0.14216 -0.10437,0.27376 0.88255,0.21437 0.74188,0.47137 -0.14068,0.25699 -0.6225,-0.60636 -0.79687,-0.37091 -0.17436,0.23545 0.79199,0.44453 0.58719,0.65405 -0.2048,0.20951 -0.43583,-0.75184 -0.66725,-0.57215 -0.23141,0.17968 0.64272,0.64168 0.389,0.78817 z" style="fill:#00aad4;fill-opacity:1;stroke-width:.74332833"/>
  <circle cx="289.3009" cy="139.14568" r="0.45610806" style="fill:#000;stroke-width:.04762633"/>
</svg>
