<svg xmlns="http://www.w3.org/2000/svg" width="22px" height="22px" version="1.1" viewBox="0 0 264.58333 264.58333">
  <path d="m 219.46663,251.8833 -27.71638,-0.13309 -9.8882,25.89283 -25.79668,-10.13642 -18.57404,20.57232 -20.39299,-18.77076 -24.751359,12.47339 -12.235113,-24.87001 -27.585864,2.68987 -2.424819,-27.61042 -26.694746,-7.45694 7.71296,-26.6219 L 8.9210446,181.31553 25.730105,159.27759 11.026154,135.78272 34.661158,121.30508 29.437459,94.085085 l 27.26891,-4.962044 4.962044,-27.26891 27.219998,5.223699 14.477639,-23.635005 23.49487,14.703952 22.03794,-16.809061 16.59664,22.198354 26.6219,-7.71296 7.45693,26.694746 27.61043,2.424819 -2.68987,27.585865 24.87001,12.23511 -12.4734,24.75136 18.77076,20.39299 -20.57231,18.57404 10.13642,25.79668 -25.89284,9.8882 z" style="fill:#ff0000;stroke-width:0.26458332" transform="translate(0,-32.416667) matrix(0.97805902,0.3887009,-0.3887009,0.97805902,66.784604,-47.746344)"/>
  <path d="m 28.602554,140.37538 8.133029,71.41282 12.309745,-1.40194 -4.444804,-39.02797 c -0.515501,-4.52639 -1.404879,-8.71288 -2.667722,-12.5604 l 0.63462,-0.0723 27.969988,49.21298 16.216699,-1.84688 -8.13305,-71.41279 -12.211233,1.39072 4.439277,38.9794 c 0.537751,4.72178 1.310601,8.75679 2.318723,12.10556 l -0.537539,0.0612 -27.713254,-48.69843 z m 62.718732,-7.14287 8.133032,71.4128 32.189232,-3.66595 -1.32397,-11.62516 -18.90363,2.15288 -2.25297,-19.78238 17.53589,-1.99713 -1.3129,-11.52806 -17.5359,1.99713 -1.93591,-16.99839 18.90365,-2.15287 -1.30728,-11.47883 z m 37.171244,-4.23333 21.07739,69.93858 16.60786,-1.89145 2.55056,-37.99371 0.32792,-14.93062 -0.0204,-3.6588 c 1.24956,6.91676 2.70269,12.86961 4.35956,17.85977 l 11.24631,36.62058 16.60716,-1.89135 4.71354,-72.87588 -13.13925,1.49641 -1.61397,41.00441 c -0.16872,3.15292 -0.27422,9.61424 -0.31619,19.38297 -1.32788,-6.44603 -2.83974,-12.62386 -4.53533,-18.53323 l -12.24254,-39.72353 -13.77459,1.56875 -2.99756,41.45918 c -0.28991,3.82646 -0.34498,10.14964 -0.16516,18.96952 -2.02483,-8.51079 -3.57609,-14.75032 -4.65468,-18.71781 l -10.98845,-39.56914 z m 84.25935,-9.5961 7.90647,48.13401 10.69715,-1.21825 -3.02156,-48.69037 z m 14.12755,55.8368 c -2.67024,0.30411 -4.60967,1.23398 -5.8179,2.78998 -1.17564,1.55232 -1.61848,3.5988 -1.3292,6.13878 0.28556,2.50744 1.19382,4.39933 2.72469,5.67637 1.52716,1.24448 3.60941,1.71708 6.2471,1.41667 2.57255,-0.293 4.47923,-1.21986 5.72,-2.77957 1.27336,-1.56343 1.76563,-3.61482 1.47635,-6.15483 -0.29299,-2.57252 -1.20134,-4.46514 -2.72478,-5.67706 -1.52716,-1.24449 -3.62602,-1.71447 -6.29626,-1.41034 z" style="font-style:normal;font-variant:normal;font-weight:bold;font-stretch:normal;font-size:72.41694641px;line-height:1.25;font-family:'Open Sans Condensed';-inkscape-font-specification:'Open Sans Condensed, Bold';letter-spacing:0px;word-spacing:0px;fill:#ffffff;fill-opacity:1;stroke:none;stroke-width:2.51708031" transform="translate(0,-32.416667)"/>
</svg>
