<?xml version="1.0" encoding="iso-8859-1"?>
<!-- Generator: Adobe Illustrator 18.0.0, SVG Export Plug-In . SVG Version: 6.00 Build 0)  -->
<!DOCTYPE svg PUBLIC "-//W3C//DTD SVG 1.1//EN" "http://www.w3.org/Graphics/SVG/1.1/DTD/svg11.dtd">
<svg version="1.1" id="Capa_1" xmlns="http://www.w3.org/2000/svg" xmlns:xlink="http://www.w3.org/1999/xlink" x="0px" y="0px"
	 viewBox="0 0 411.582 411.582" style="enable-background:new 0 0 411.582 411.582;" xml:space="preserve">
<g>
	<g>
		<path d="M257.323,90.55c-13.582-18.99-31.884-29.449-51.532-29.449c-19.649,0-37.95,10.459-51.532,29.449
			c-13.038,18.23-20.219,42.34-20.219,67.887c0,25.547,7.181,49.656,20.219,67.887c13.582,18.99,31.883,29.449,51.532,29.449
			c19.648,0,37.95-10.459,51.532-29.449c13.038-18.23,20.219-42.34,20.219-67.887C277.542,132.89,270.361,108.78,257.323,90.55z
			 M205.791,240.773c-31.293,0-56.751-36.936-56.751-82.336s25.458-82.336,56.751-82.336c31.293,0,56.751,36.936,56.751,82.336
			S237.084,240.773,205.791,240.773z"/>
		<path d="M205.791,91.046c-25.776,0-45.967,29.602-45.967,67.391c0,4.143,3.358,7.5,7.5,7.5c4.142,0,7.5-3.357,7.5-7.5
			c0-28.398,14.181-52.391,30.967-52.391c4.143,0,7.5-3.357,7.5-7.5S209.933,91.046,205.791,91.046z"/>
		<path d="M205.793,370.729c-1.98,0-3.91,0.8-5.3,2.19c-1.4,1.399-2.2,3.33-2.2,5.31c0,1.97,0.8,3.9,2.2,5.3
			c1.39,1.4,3.33,2.2,5.3,2.2c1.97,0,3.899-0.8,5.3-2.2c1.4-1.399,2.2-3.33,2.2-5.3c0-1.979-0.8-3.91-2.2-5.31
			C209.692,371.529,207.762,370.729,205.793,370.729z"/>
		<path d="M268.535,64.214c2.182-4.385,3.346-9.255,3.346-14.187c0-17.547-14.275-31.822-31.822-31.822
			c-1.784,0-3.545,0.146-5.274,0.435C229.753,7.477,218.608,0,205.792,0c-12.817,0-23.962,7.477-28.992,18.639
			c-1.73-0.289-3.491-0.435-5.274-0.435c-17.547,0-31.823,14.275-31.823,31.822c0,4.933,1.164,9.801,3.345,14.185
			c-21.387,23.595-33.544,57.556-33.544,94.225c0,27.125,6.64,52.877,19.201,74.472c11.746,20.193,28.274,35.466,46.793,43.357
			c2.025,5.296,6.07,18.755,2.918,35.614c-0.352,1.882-0.776,4.013-1.24,6.344c-4.682,23.535-12.519,62.926,3.436,82.366
			c5.986,7.295,14.458,10.993,25.179,10.993c10.721,0,19.192-3.698,25.179-10.992c15.953-19.44,8.118-58.83,3.438-82.365
			c-0.464-2.331-0.888-4.464-1.24-6.346c-3.117-16.677,0.926-30.272,2.941-35.626c18.509-7.893,35.028-23.163,46.77-43.348
			c12.561-21.595,19.201-47.346,19.201-74.469C302.079,121.769,289.921,87.809,268.535,64.214z M228.099,263.323
			c-1.838,0.597-3.447,1.897-4.385,3.761c-0.423,0.839-10.283,20.852-5.292,47.551c0.361,1.933,0.796,4.122,1.273,6.517
			c3.613,18.166,11.132,55.966-0.321,69.922c-3.084,3.759-7.4,5.509-13.583,5.509c-6.183,0-10.499-1.75-13.584-5.509
			c-11.453-13.956-3.933-51.758-0.319-69.924c0.476-2.394,0.912-4.582,1.272-6.515c4.992-26.698-4.871-46.713-5.293-47.552
			c-0.939-1.865-2.552-3.167-4.395-3.762c-34.737-13.367-58.969-56.42-58.969-104.885c0-34.498,12.437-67.365,33.269-87.919
			c2.731-2.694,2.988-7.016,0.596-10.015c-2.398-3.008-3.666-6.631-3.666-10.476c0-9.275,7.547-16.822,16.823-16.822
			c2.47,0,4.854,0.526,7.085,1.565c2.133,0.993,4.608,0.929,6.685-0.178c2.078-1.104,3.517-3.119,3.887-5.442
			C190.488,20.951,197.473,15,205.792,15c8.318,0,15.304,5.951,16.61,14.15c0.37,2.323,1.809,4.338,3.887,5.442
			c2.077,1.104,4.553,1.167,6.686,0.176c2.229-1.038,4.613-1.564,7.084-1.564c9.275,0,16.822,7.547,16.822,16.822
			c0,3.847-1.268,7.47-3.667,10.476c-2.393,2.999-2.136,7.321,0.596,10.016c20.832,20.554,33.27,53.421,33.27,87.918
			C287.079,206.903,262.842,249.962,228.099,263.323z"/>
	</g>
</g>
<g>
</g>
<g>
</g>
<g>
</g>
<g>
</g>
<g>
</g>
<g>
</g>
<g>
</g>
<g>
</g>
<g>
</g>
<g>
</g>
<g>
</g>
<g>
</g>
<g>
</g>
<g>
</g>
<g>
</g>
</svg>
