<svg xmlns="http://www.w3.org/2000/svg" viewBox="0 0 64 64">
  <circle cx="32" cy="32" r="31.82" fill="#e35a4e" fill-rule="evenodd" style="text-decoration-color:#000000;isolation:auto;mix-blend-mode:normal;text-decoration-line:none;text-decoration-style:solid" color="#000" solid-color="#000000"/>
  <path fill="#fff" d="M47.04 17.44l-4.78 4.78c-2.6-2.6-6.18-4.2-10.14-4.2-7.92 0-14.34 6.43-14.34 14.35h5.57l-8.9 8.9-8.9-8.9h5.47c0-11.66 9.45-21.1 21.1-21.1 5.83 0 11.1 2.36 14.92 6.17zm11.4 14.2l-8.9-8.9-8.9 8.9h5.58c0 7.9-6.42 14.34-14.34 14.34-3.96 0-7.55-1.6-10.14-4.2l-4.78 4.78c3.82 3.8 9.1 6.18 14.92 6.18 11.65 0 21.1-9.45 21.1-21.1h5.46z"/>
</svg>
