<svg xmlns="http://www.w3.org/2000/svg" viewBox="0 0 64 64">
  <circle cx="32" cy="32" r="31.82" fill="#e35a4e" fill-rule="evenodd" style="text-decoration-color:#000000;isolation:auto;mix-blend-mode:normal;text-decoration-line:none;text-decoration-style:solid" color="#000" solid-color="#000000"/>
  <path fill="none" stroke="#fff" stroke-width="3" d="M21.94 33.67c-2.32-2.5-12.5.17-11.96 3.03.53 2.86 2.14 9.1 8.03 7.5s5-7.5 3.96-10.53zm-.17.17c.53-1.42 5.17-2.32 6.6-1.78m12.2-2.58c-2.3-2.5-12.5.18-11.95 3.04.53 2.85 2.14 9.1 8.03 7.5s5-7.5 3.93-10.54zm.13-.28l1.96-.53s6.78-7.86 7.5-8.93c.7-1.07 3.2 1.07 4.82 4.28" stroke-linejoin="round" style="text-decoration-color:#000000;isolation:auto;mix-blend-mode:normal;text-decoration-line:none;text-decoration-style:solid" stroke-linecap="round" color="#000" solid-color="#000000"/>
  <path fill="none" stroke="#fff" stroke-width="3" d="M9.9 36.2l-1.78-.54s3.75-13.75 4.46-14.82c.72-1.08 1.97 1.6 3.22 3.75" stroke-linejoin="round" style="text-decoration-color:#000000;isolation:auto;mix-blend-mode:normal;text-decoration-line:none;text-decoration-style:solid" stroke-linecap="round" color="#000" solid-color="#000000"/>
</svg>
