<svg xmlns="http://www.w3.org/2000/svg" viewBox="0 0 64 64">
  <circle cx="32" cy="32" r="31.82" fill="#e35a4e" fill-rule="evenodd" style="text-decoration-color:#000000;isolation:auto;mix-blend-mode:normal;text-decoration-line:none;text-decoration-style:solid" color="#000" solid-color="#000000"/>
  <path fill="#fff" d="M27.43 1.1c-.12 0-.3.02-.37.13-.08.1-.15.23-.24.3-.04.06-.1.2-.22.2-.08 0-.33-.04-.38 0-.1.07-.24.14-.27.27-.04.16-.18.13-.3.25-.06.06-.2.18-.3.2-.13.04-.24.07-.38.07-.1 0-.25-.03-.35 0-.17.04-.26.2-.4.23-.13.03-.2.08-.25.16-.08.2-.26.2-.4.2-.2 0-.2.1-.35.2-.1.1-.28.1-.4.1-.2 0-.44 0-.6.1-.1.1-.24.1-.3.2-.06.2-.12.2-.3.3-.1.1-.33.1-.42.2-.06.1-.1.3-.2.3.02 0 .15.2.18.2.13.1.3 0 .44 0h.5c.15 0 .24-.1.37-.1s.3 0 .5.1c.1.1.2.1.4.1h.4c.1 0 .2 0 .3-.1 0-.1.1-.1.2-.2 0 0 .3-.3.4-.3h.4c.1 0 .1-.3.2-.2.1 0 .2.2.2.2h.2l.1.1c0 .1.1.1.1.2s.2.3.2.3c-.1.1-.1.3-.1.4 0 .2 0 .3.1.4 0 .1.1.2.1.3 0 .1.1.1.1.3s0 .2-.1.3c-.1.2-.1.3-.1.5v.3h.5c.1.1.1.2.1.3 0 .1-.1.3-.2.4-.1.1-.2.2-.2.3l.1.4c0 .1.1.2.2.3 0 .1 0 .3.1.4l.2.3c.1.1.1.4.2.5.1.1.1.1.2.3l.3.3.2.2c.2.2.3.3.5.4l.4.2c.2 0 .3.1.4.2.1 0 .3.2.4.1.1 0 .4 0 .5-.1l.2-.1s.1-.1 0-.2c0-.1-.1-.2-.1-.3V9.5c-.1-.1-.1-.2-.1-.4v-.7c0-.1-.1-.2 0-.3 0-.1.1-.3.2-.3s.4-.1.4-.2-.1-.2-.1-.3c0-.1-.1-.2-.1-.4l.3-.3.3-.3c.1 0 .2-.1.3-.2 0-.1.1-.2.1-.3s0-.3-.1-.4c-.1 0-.2 0-.2-.1s.1-.3 0-.36c-.1-.1-.1-.2-.3-.2l-.3-.1c-.1 0-.2-.02-.3-.1 0-.06-.1-.26-.1-.3-.1-.1-.3-.1-.4-.1-.1 0-.5-.1-.4-.13.2 0 .2-.1.2-.2s.1-.2.1-.3c-.1-.1-.2-.1-.3-.2-.1-.1-.4-.2-.5-.2-.1 0-.2-.1-.3-.2-.1-.1-.3-.1-.4-.1-.1 0-.1-.1-.3-.2-.1 0-.2 0-.3-.1-.1-.1-.3-.1-.5-.1 0-.1-.4-.1-.4-.2.1-.1.1-.2.2-.2h.4c.2-.1.4-.1.5-.1.2 0 .4 0 .5.1h1.2l.7-.1c.3 0 .6-.1 1-.1.2 0 .3-.1.4-.1.1 0 .1 0 .2-.1.1 0 0 0-.1-.1-.1 0-.3.1-.4 0H30c-.2.1-.3 0-.5 0h-1.4c-.2 0-.5 0-.62-.1l-.46-.2c-.1-.1-.24-.3-.3-.3zm13.3.25l-.78.15c-.3.07-.5.2-.77.14-.2-.05-.38-.06-.58-.1.06.06.03.15-.03.23-.05.07-.14.13-.18.16l-.5.07c-.2.02-.1.1 0 .18 0 .1.1.16.2.17.2.07.5.22.8.33.1.05.1.1.1.15v.23c0 .18 0 .23.2.3.1.08.4.1.6.1.2 0 .6.12.8.18.1.06.4.23.5.34.1.1.2.17.3.33.1.2.2.3.4.4.1.1.4.1.5.2.2.1.4.3.5.4.1.2.2.3.3.4.1.2.2.3.4.5l.4.4.4.4c.1.1.2.3.4.3.3.1.4-.1.6-.1.1 0 .5.4.5.4.2.1.3.3.3.4.1.2.3.3.4.4.1.2.2.2.4.3 0 0 .1.1.2 0 .1 0 .1-.1.1-.1 0-.2.1-.2 0-.4v-.3c0-.1.1-.1.3 0 .1.1.2.3.2.3.1.2.2.4.2.6V9c0 .05.9.54.9.56.1.1.3.2.4.3.1.1.2.2.4.3.1.08.1.18.2.3v.3c-.1.1 0 .34 0 .5 0 .13-.1.23-.1.3 0 .06 0 .1.2.16.2.1.3.3.5.4.1.1.2.88.3 1 .1.18.1.4.1.56-.1.2-.2.3-.2.5 0 .15-.1.35-.1.5l-.1.4c-.1.1 0 .14.1.2.2.1.5.17.7.17h.6c.1 0 .2.2.3.4l.1.55c.1.2.1.3.2.4.1.16.3.3.4.5 0 .24.1.3 0 .5-.1.1-.4.18-.5.2-.2.1-.4.1-.7.2l-.3.14c-.1.03-.1.1-.1.2 0 .2.1.3.1.44.1.2.2.34.3.5l.1.1c.1.1.1.3.2.45.2.2.2.4.3.63.1.2.3.4.5.7.1.14.2.42.2.63 0 .1.1.3.1.5 0 .1.2.2.3.3.1.1.2.1.3.1h.6c.2 0 .3-.1.5-.1.1 0 .3-.3.3-.4.1-.2.2-.3.2-.5v-.4c0-.1 0-.2-.1-.3-.1-.1-.1-.1-.1-.2l.1-.3v-.6l-.3-.4c-.2-.2-.2-.4-.3-.5-.1-.2-.1-.3-.1-.6V18c0-.27-.1-.35-.2-.47-.1-.1-.1-.2-.2-.4V17s.1-.1.2-.1c.1-.1.2-.3.2-.5 0-.1-.1-.2-.1-.3 0-.1 0-.1.1-.1s.2 0 .3.1c.1.06.1.15.1.2.1.14.1.2.3.3.2.2.5.2.6.3l.4.3c.2.1.3.3.4.4.1.1.1.3.2.4.1.2.2.2.3.3.1.1.2.3.2.45 0 .1.1.17.1.17l.2-.1-.1-.5c-.1-.2-.3-.4-.4-.5s-.1-.2 0-.2c0 0 .1.1.2.1.1.15.3.2.4.4 0 .1.2.23.3.32.1.1.1.2.1.4 0 .04.1.1.1.05 0 0 .1-.1.2-.1.1-.1.2-.2.2-.3.1-.2.1-.3.1-.4 0-.2 0-.3-.1-.5s-.1-.3-.2-.4c0-.1-.1-.3-.2-.4-.2-.4-.3-.7-.5-1-3-7.1-9.6-12.2-17.4-14.5zM20.38 4.1c-.12 0-.28.2-.34.23-.14.07-.28.22-.4.3-.13.1-.24.2-.36.28-.13.2-.22.2-.43.2-.2 0-.2.1-.36.2-.2.1-.4.4-.4.6l-.3.4c-.1.1-.3.2-.4.2s-.1.3-.1.5c0 .1-.4.1-.4.1-.1 0-.3-.4-.4-.4-.2-.1-.1-.2-.3-.2h-.3s-.1-.1-.1-.2.2-.2.3-.3c.1-.1.2-.1.3-.2.1 0 .2-.2.3-.3.1-.1.1-.2.1-.4 0 0-.3-.2-.4-.2-.2-.1-.2-.2-.4-.3-3 1.7-5.7 3.8-8 6.4-.1.1-.1.3-.1.4-.1.2-.2.2-.4.3-.1.1-.2.3-.2.4-.1.2-.3.2-.4.3-.1.1-.1.4-.1.5 0 .2 0 .2.1.2s.1 0 .1-.1c.1-.1.4-.3.5-.4.1-.1.4-.2.4-.3.1-.1.2-.2.2-.4.1-.2.2-.3.3-.6l.3.5c0 .1.1.2.1.2 0 .1-.1.2-.1.2l-.4.4c-.1.1-.2.1-.3.3l-.3.3v.2c-.1.2 0 .4-.2.5-.1.1-.2.3-.2.5-.1.2-.2.3-.3.4-.2.1-.2.3-.3.5 0 .2-.3.5-.4.7 0 .2-.1.2-.2.4 0 .1 0 .3-.1.5 0 .1-.1.3-.2.5-.1.1-.2.4-.2.5s-.2.4-.2.6c0 .2-.1.4-.1.5-.1.2-.2.3-.2.4l-.2.5c-.1.1-.1.3-.1.5 0 .1-.1.3-.1.5-.1.1 0 .3 0 .5s-.1.3-.2.4c-.1.1-.2.2-.3.4 0 .1-.1.3-.2.4-.1.1-.1.2-.3.4-.1.1-.2.3-.2.5s-.1.3-.1.5c-.1.2-.1.3-.2.5s-.1.3-.2.4c-.1.2-.1.3-.1.5-.1.2-.1.4-.1.6 0 .2-.1.4-.1.5 0 .2 0 .4-.1.5-.1.2 0 .4 0 .5 0 .3-.1.5-.1.8 0 .2.1.2.1.4v.8c.1.3.2.3.2.6 0 .2 0 .3.1.5v.5c0 .2-.1.4-.1.6v.1c0 .2-.1.4-.1.7 0 .1.1.4.1.5.1.2.1.4.2.6 0 .3.1.5.2.7l.2.6v1.5l.1.5c.1.2 0 .3.1.5s.2.2.3.4l.1.5c.1.2.2.3.3.5.1.2.3.4.4.7.1.2.1.3.1.5 0 .1.3.2.4.3.1 0 .1.1.1.2 0 0 0 .1.2.1s.2.2.3.2c.1.1-.1-.3-.1-.5l-.3-.4c-.1-.1 0-.4-.1-.5-.1-.1-.2-.3-.2-.5s-.1-.3-.2-.5c0-.2-.1-.3-.2-.5s-.2-.2-.2-.5c0-.1-.1-.4-.2-.5-.1-.2 0-.4 0-.6 0-.2-.1-.3-.1-.5s-.1-.4-.1-.6c-.1-.2-.1-.3-.1-.5v-.2c.1 0 .1.1.1.2s.1.3.2.4c0 .2.1.4.1.6v.6c.1.2.2.3.2.5s.1.3.1.5c0 .1.1.3.2.4l.1.5c0 .1.1.3.1.5 0 .1.1.3.2.5.1.1.1.3.2.4.1.2.1.3.2.5s.1.3.2.4c0 .2.2.4.2.6.1.2.2.3.2.5.1.2.1.4.2.6l.2.4c.1.2.2.3.3.4.1.1.3.2.5.3.2.1.3.2.4.4 0 .1.1.3.2.4.1.2.2.3.4.5.3.3.6.7 1 .9.2.1.3.1.5.2.2 0 .3 0 .5.1s.3.1.5.1c.1 0 .3.2.4.2.1.1.3 0 .5 0 .2.1.3-.1.5-.1s.5.5.7.7l.5.4c.1.1.3.2.5.3l.4.1h.5c.1 0 .3.2.4.3.2.2.4.3.6.5.1.2.2.4.3.5l.4.4.3.3c0 .1.2.2.3.3l.5.1c.1 0 .3.3.4.3.1.1.4 0 .5 0 .1 0 .3.2.4.3.1.2.2.3.4.3s.4-.1.5-.2c.1-.1.1-.4.1-.5 0-.1.3.2.4.2l.3.3c.2.2.4.4.4.5.1.2 0 .4.1.5l.3.4s.1.3.1.5v.5c0 .1-.1.2-.2.3s-.1.3-.1.5-.3.3-.3.5.2.4.2.6c0 .2.1.4.2.6.1.2.2.2.3.4 0 .2.1.4.1.6 0 .2.2.2.2.4 0 .1.1.3.2.3.1.1.3.2.4.2.3.1.4.2.5.4.1.1.2.3.4.4.2.1.3.1.4.2l.1.1c.2.1.2.2.4.3s.3.2.5.3c.2.1.3.2.5.3.2 0 .3.2.5.3l.5.2c.1 0 .3 0 .5.1.2 0 .4.1.5.1l.4.3c.1.15.3.2.4.3l.4.2c.2.1.2.3.4.4.1.1.2.3.4.4l.3.5c.1.1.2.3.2.4 0 .2.2.4.2.5.1.2.3.3.4.4.2.2.4.2.5.3.1.2.2.2.4.4.1.2.2.2.3.3.1.1.3.2.4.2l.1.1c.8 0 1.7-.1 2.6-.2V64c0-.2.3-.4.4-.6.1-.1.3-.2.5-.2.1 0 .2-.1.4-.3l.4-.4s.1-.3.2-.4c.1-.1.2-.3.2-.4.1-.2.2-.3.4-.4.2-.1.2-.2.4-.3.2 0 .3-.1.5-.2.2 0 .4-.4.5-.5l.4-.4c.1 0 .1-.1.2-.2l.1-.1c.1-.1.1-.4.1-.5l.2-.5c.1-.2 0-.4.1-.5.1-.2.1-.3.2-.5.1-.1 0-.3.1-.5.1-.1.1-.3.2-.4.1-.1 0-.2.2-.3.1 0 .2-.2.3-.3.1-.1.2-.4.2-.5.1-.2.3-.3.4-.4.1-.1.2-.3.3-.3.1-.1.1-.3.1-.4V54c0-.2-.1-.3-.2-.4-.1-.1-.2-.3-.4-.4l-.3-.3c-.1-.1-.3-.1-.5-.2h-1c-.2 0-.3.1-.5.1-.1 0-.3-.1-.4-.1-.2 0-.2-.1-.3-.26-.1-.1-.3-.2-.5-.2h-.6c-.3 0-.3 0-.5.1s-.3.2-.4.3c-.1.1-.3.18-.4.2-.1.1-.3.06-.5 0-.1 0-.1-.1-.1-.14V52c0-.2.1-.3.3-.4.1-.05.1-.3.1-.44v-.4c-.1-.16-.2-.2-.3-.3-.1-.1-.2-.3-.3-.4-.1-.1-.2-.3-.2-.4-.1-.16-.2-.2-.3-.3-.2-.1-.4-.1-.5-.1h-1c-.2 0-.3.1-.5.1-.1 0-.2.1-.4.1-.1 0-.2-.2-.3-.4-.1-.13-.3-.15-.4-.3-.1-.1-.2-.1-.3-.2-.1-.1-.4-.13-.5-.2-.2-.02-.4-.1-.5-.13-.2-.1-.2-.2-.3-.4-.1-.2-.1-.3-.1-.4 0-.2-.1-.4-.1-.5l-.1-.2c-.1-.13 0-.2 0-.25s0-.03-.1-.1l-.4.3c-.2.1-.3.1-.5.1-.2.1-.3.1-.5-.02-.1-.03-.1-.1-.1-.1 0-.07-.1-.1-.2-.06-.2 0-.3.1-.4.2l-.4.2c-.1.1-.3.15-.5.2-.1.1-.4-.1-.4-.1-.1-.1-.1-.4-.2-.5 0-.1 0-.1-.1-.1l-.1.2c-.1.1-.1.2-.2.2l-.2-.02.1-.5-.3-.34c-.1-.1-.1-.1-.1 0l-.1.2c-.1.2-.1.4-.1.6-.1.16-.1.34-.1.5 0 .1-.1.2-.2.3-.1.07-.1-.04-.1-.2s.1-.35 0-.46l-.2-.5c-.1-.15-.1-.3-.1-.4-.1-.1-.2 0-.2.1-.1.1-.2.3-.2.34-.2.13-.5.3-.6.43l-.4.2c-.2.1-.4.35-.6.46-.1.1-.1.4-.1.6 0 .2.1.2 0 .4 0 .1-.1.1-.2.1s-.1-.1-.1-.1l-.4-.2c-.2 0-.3.1-.5.1-.2.1-.4.2-.6.2-.1.1-.4 0-.5 0s-.2-.2-.3-.3c-.2-.1-.2-.2-.3-.4-.2-.1-.2-.2-.3-.3-.2-.1-.2 0-.3-.2-.1-.1-.1-.2-.2-.3-.1-.1-.1-.3-.1-.4V46c0-.2-.1-.4-.1-.5V45c0-.13-.2-.3-.3-.3-.2-.03-.3-.1-.5-.1h-1c-.2 0-.2 0-.3-.03-.1 0-.2-.4-.2-.5 0-.14-.1-.3-.1-.5v-.42s0-.3-.1-.4c-.1-.1 0-.3 0-.5V41c0-.2-.1-.32-.3-.4-.1-.07-.3-.04-.5-.04s-.3.03-.4.07c-.2 0-.3.2-.3.3-.1.1-.1.3-.2.42-.1.2 0 .4 0 .5 0 .1-.2.36-.2.46-.1.2-.3.3-.5.4-.2.1-.5 0-.6-.1-.1 0-.3-.3-.4-.4l-.3-.3c-.1-.1-.2-.1-.3-.3-.1-.1-.1-.2-.2-.3-.1-.1-.1-.2-.2-.4l-.2-.5c-.1-.2-.1-.3-.2-.4-.1-.1-.1-.3-.1-.5v-.6c0-.1-.1-.3-.1-.5v-.5c0-.1.1-.3.1-.4l-.1-.3c0-.2 0-.3.1-.5l.3-.3.2-.3c.1-.1.2-.2.4-.2.1 0 .3-.1.4-.1h.64c.2.1.4.1.7.1.1 0 .1.1.2.1 0 .1.1.1.2.1s.1-.4.1-.5c0-.1-.1-.2-.1-.2s.06-.1.17-.1c.2-.1.2-.1.4-.1s.4.1.6.1c.1 0 .3.2.4.2.1.1.1.1.2.1s.1 0 .2.1c.1.2.3.3.4.4.1.1.4.1.5.2.1 0 0 .4.1.5 0 .2.1.3.2.4.1.2.1.4.2.6l.2.4c.1.2.1.3.3.3.1.1.2.1.4.1.1 0 .3-.1.4-.2s0-.2 0-.3l-.1-.3c-.15-.2-.1-.4-.2-.6-.07-.2-.2-.3-.3-.5-.1-.1-.1-.3-.2-.5l-.15-.4-.1-.5c0-.2.1-.3.2-.5l.2-.2.3-.6c.1-.1.1-.3.1-.5 0-.1.1-.2.2-.3.1-.1.3-.2.3-.3.1-.1.3-.3.4-.5.1-.1.2-.2.3-.4 0-.1 0-.3.1-.4l.1-.5c.1-.1.1-.3 0-.4 0-.1-.1-.3-.1-.4-.1-.2-.2-.3-.3-.4-.1-.1-.1-.4-.1-.5 0-.1.3-.1.4-.1.1 0 .3-.1.4-.1.1 0 .2-.2.3-.3.1-.2.1-.3.2-.5 0-.2-.1-.3-.1-.5 0-.1.2-.3.3-.4.2-.1.3-.1.5-.1l.6.1c.2 0 .3-.1.3-.2.1-.1 0-.4 0-.5V26c0-.1.2-.4.26-.5l.3-.3c.2 0 .3-.1.4-.3.2-.1.3-.3.4-.3.1-.1.1-.2.2-.4v.5c-.1.1-.1.2 0 .2l.1.2v.3s0 .1.1.1c.2 0 .3-.1.4-.2.1-.1.2-.1.4-.3.1 0 .2-.2.3-.3.1-.1.2-.1.3-.3.1-.1.2-.1.4-.2s.1-.2.4-.3c.1 0 .2-.2.3-.3s-.1-.3-.1-.4c0-.2-.1-.3-.2-.4 0-.1-.1-.1-.1-.1s-.1 0-.1.1c-.1.1-.15.3-.2.5-.1.2-.05.3-.2.4-.1.1-.4-.2-.5-.3-.1-.1-.3-.1-.5-.1-.1 0-.2 0-.2.1-.1 0-.1 0-.2-.1s-.1-.4-.1-.5l-.1-.2s0-.1.1-.2.2-.1.2-.3c0-.2.14-.3.3-.3.2-.1.1-.2.3-.2.2 0 .33-.1.43-.1.1-.1.1-.2.1-.2 0-.1 0-.1-.13-.1-.2 0-.3.1-.52.1-.1 0-.3.1-.4.1h-.5c-.2.1-.3.2-.5.28-.1.1-.3.3-.4.5 0 .2-.2.4-.3.5-.1.2-.2.2-.3.1l.3-.5c.1-.2.1-.33.3-.52.1-.1.3-.2.4-.3.1-.1.2-.2.4-.3h.6c.2 0 .3-.1.45-.1.2 0 .3-.2.5-.3.1-.1.4-.1.6-.1.2-.1.3-.1.3-.3.1-.1.26-.1.4-.2.1 0 .1-.1.1-.2 0 0 0-.1.1-.1h1.2s.1-.1.1-.2c0-.12-.1-.3-.2-.4l-.3-.4-.2-.5c-.1-.1-.1-.3-.2-.4-.1-.2-.2-.3-.4-.3-.1-.1-.3-.2-.4-.3l-.3-.3c-.1-.1-.2-.2-.2-.3l-.2-.4c-.1-.1-.2-.2-.2-.3-.1-.1-.1-.3-.1-.4l-.1-.44c-.1-.1-.1-.2-.2-.3-.1-.2 0-.3-.1-.4-.1-.1-.1-.2-.3-.3l-.2-.1s-.1 0-.2.05l-.2.3c-.1.2-.2.2-.4.4l-.3.3c0 .13-.3.1-.4.03-.02-.1-.1-.1-.1-.2.08-.1.1-.2 0-.3v-1c0-.1.1-.1.2-.1s.2-.04.3-.1c.1-.05.1-.1.1-.1s0-.1-.1-.2-.3-.1-.4-.1c-.2-.1-.3-.1-.5-.2-.18-.1-.2-.2-.3-.4 0-.1-.3-.1-.4-.1-.18-.1-.3-.1-.5-.1s-.3.1-.4.1H20s-.1 0-.1.1c0 .2-.1.3-.16.4-.1.1-.1.3-.1.4 0 .2-.03.2 0 .5.06.1 0 .3 0 .4-.1.2 0 .3 0 .5-.1.2-.18.3-.08.5s.2.2.2.4c.1.1 0 .3 0 .5 0 .1-.2.3-.3.4-.1.1-.2.2-.2.4 0 .1-.3.2-.35.2-.2.1-.3.2-.4.4-.1.1-.1.3-.1.5 0 .1-.1.3-.1.5v.5c0 .1.1.2 0 .4 0 .1-.2.2-.3.3-.1 0-.2 0-.2-.1s-.1-.2-.1-.3v-1.5c0-.2-.1-.3-.1-.5 0-.1-.2-.2-.3-.3-.1-.1-.2-.2-.4-.2-.1 0-.2-.2-.3-.3-.2-.1-.3-.2-.3-.3-.1-.2-.3-.2-.4-.2-.1 0-.3-.07-.5-.17-.1-.1-.1-.4-.1-.5v-.54c0-.2 0-.4.1-.5.1-.2.3-.4.3-.5.1-.2.4-.3.5-.5.2-.1.2-.3.4-.4l.7-.4c.1-.1.2-.2.2-.3.1-.2.2-.3.3-.5l.4-.4c.1-.1.4-.1.5-.1s.2.4.2.5l.2.2h.3c.2 0 .3-.1.6-.2.1 0 .2-.3.4-.3.1-.1.1-.3.1-.5l-.1-.4c0-.1-.3-.2-.3-.2-.1-.1-.1-.1 0-.2v-.3c.1-.1.3-.2.4-.2.2-.1.4-.1.5-.1.2-.1.2-.2.3-.3.2-.2.2-.3.2-.5.1-.2 0-.4.1-.5 0-.1.2-.3.3-.4l.1-.2c.1 0 .1-.1.3-.1h.2l.1.2c.1.1 0 .3 0 .5s-.1.2-.2.3c-.1.1.3.3.4.3s0 .1 0 .3l-.2.2c0 .1-.2.2-.3.4-.1.2-.2.2-.4.3-.2 0-.3.2-.5.2-.1 0-.1.1 0 .2l.1.1c.2.2.2.1.4.2s.3 0 .5.2l.2.3c.1.2.2.3.2.5 0 .1.3.1.5.2s.4.1.5.1l.4.1c.2 0 .2.1.4.1h.2l.1-.2c0-.1-.1-.2-.2-.2-.1-.1-.1-.1-.2-.1l-.3-.3c-.1-.1-.1-.1-.1-.2s.1-.1.1-.1.1-.1.2 0c.1 0 .2.1.2.1h.2l.2-.2v-.4s-.2-.3-.1-.5c0-.1-.1-.1-.2-.2l-.3-.2c-.2-.1-.2-.1-.3-.3-.1-.1 0-.2.1-.2h.2c.2 0 .2.1.3.3.2.1.2.2.3.3.2.1.2.2.38.2.1 0 .1-.3.1-.4 0-.2-.1-.3-.1-.5 0-.1.2-.2.2-.3v-.3l-.3-.4c-.1-.2-.2-.2-.2-.3-.1-.2-.2-.3-.4-.4 0-.1-.1 0-.2 0s-.1 0-.1-.2 0-.3.1-.5c0-.1.1-.2.2-.3 0-.1.1-.2.1-.2V6c-.1-.1-.3-.2-.4-.2l-.3-.3c-.1-.1 0-.4 0-.5 0-.1 0-.1-.1-.2s-.1-.1-.2-.1c-.1-.1-.3-.1-.4-.1s-.4-.1-.5-.1c-.2 0-.4.1-.5.1h-.5c-.2 0-.3-.1-.4-.1-.1 0-.4.2-.5.2-.1.1-.1 0-.1-.1-.05-.1-.05-.2-.05-.2V4c0-.1 0-.1-.1-.1h.1zm18.05 2.02c-.1.02-.17.1-.2.2l-.05.34c0 .03-.4-.05-.65.05l-.33.2c-.13.1-.1.1-.06.3.03.2.4.2.52.2.08 0 .18.2.27.3.08.1.22.2.3.2l.24.3c.08.1.24.2.36.2.15.1.25 0 .4 0 .13 0 .24.1.38.1h.4c.1 0 .2-.1.2-.2.1-.1.1-.2.1-.4v-.4c0-.1-.2-.1-.3-.3 0-.1 0-.2-.2-.3-.1-.1-.3-.2-.3-.2-.1-.1-.2-.1-.3-.2h-.6zm7.33 2.7c-.13 0-.16.2-.16.4 0 .16-.24.33-.32.38-.1.08.42.28.46.3.18.04.32.2.5.22.13.03.34.17.5.23.1.04.12.17.15.3v.93c0 .18.1.25 0 .46 0 .1-.1.18-.1.25v.2c.1.1.5 0 .7.2s.3.2.4.5c.1.1 0 .3.1.4.1.1.4.1.5.1l.1-.5c0-.1.1-.2.3-.2h.3c.1 0 .1.2.1.4v.2s.1.1.2.1c.1.1.3 0 .4 0 .1-.1.2-.3.3-.4V13c0-.1 0-.1.1-.2s.2-.2.2-.4l-.2-.5c-.1-.2-.3-.3-.5-.4-.2-.1-.2-.2-.2-.4-.1-.1-.3-.2-.4-.3-.1-.1-.2-.3-.3-.3l-.6-.3-.6-.3c-.2-.2-.4-.3-.5-.5-.2-.18-.3-.2-.4-.3-.2-.1-.4-.2-.5-.3-.2-.1-.3-.2-.5-.3-.2-.1-.4-.1-.5-.2-.1 0-.1-.07-.2-.1H45zm-18.2 9.9c-.06.04-.16 0-.23.03-.08.04-.1.18-.13.25-.03.1-.02.2-.04.33-.03.13 0 .35.04.46.02 0-.12.2-.16.2-.05.1-.1.1-.17.2-.08.1-.07.3-.1.4l-.06.3v.2c0 .1.2.1.3.1s.1-.1.2-.2.1-.2.1-.3c.1-.1.2-.2.3-.2h.6c.1 0 .2.1.2.2.1.1.1.2.2.2s.2.1.3.1h.6c.1 0 .1-.1.1-.2s.1-.2.1-.3v-.3c0-.1-.1-.2-.2-.2-.1-.1-.2-.1-.3-.3v-.3c0-.1.1-.2.1-.3 0-.1 0-.2-.1-.2 0-.1-.1-.1-.2-.1s-.2 0-.3-.1c-.1-.1-.1 0-.2-.1s-.1-.1-.1-.2 0-.2-.1-.2c0-.1 0-.2-.1-.2H28zm30.97.78c-.1 0-.1.4-.23.52-.1.1-.22.14-.3.23-.16.15-.35.3-.5.46-.14.2-.17.4-.24.6-.05.2 0 .4 0 .6 0 .2-.2.5-.27.7-.1.1-.1.2-.2.2-.1.1-.2.1-.3.1-.2.1-.4.1-.5.2-.1.1-.2.3-.3.5-.1.2-.1.4-.1.5-.1.2-.1.5 0 .7l.1.5c0 .2-.1.4-.1.5l-.2.5c-.1.2.2.4.2.5v.6c-.1.2 0 .3.1.5 0 .2.2.4.2.5 0 .1-.5.7-.5.8l-.3.5c-.1.2 0 .4 0 .6v1.3c0 .2-.2.5-.3.7-.1.2 0 .5 0 .6.1.2-.1.5-.1.6-.1.3 0 .5 0 .8v.1c0 .3.2.8.3 1.1 0 .2-.1.3-.1.5-.1.2 0 .4.1.6 0 .3 0 .5-.1.7-.1.1-.1.2-.1.3 0 .1 0 .2.1.3.1.2 0 .5 0 .7v.7c0 .2-.1.3-.1.3-.1.1-.1.2-.1.4v.2c0 .2.3.5.5.6.1.1.1.2.1.2v.3c0 .3 0 .4.2.6.1.1.3.1.4.2.1.1.1.4.1.6v.4l.3.3c0 .1.1.1.2.2s.1.4.3.5c.1.1.3.3.5.4.1.1.2.1.3 0 .1 0 .2-.1.3-.2.2-.1.3-.3.4-.5.1-.2.4-.5.4-.8 0-.1 0-.2.1-.2 0 0 .1-.1.2-.1l.4-.4c.1-.2.2-.3.4-.3s.3.1.3.2c.1.1.2.2.2.3 0 .2-.2.4-.2.6-.1.3-.1.5-.2.7-.2.2-.3.5-.3.7-.2.2-.1.6-.2.9l-.2.5c-.1.2-.2.5-.2.7 0 .2-.3.4-.4.6-.2.3-.3.5-.4.8l-.3.6c-.1.2-.2.3-.2.5l-.3.5-.2.5c-.1.3-.5.8-.7 1-.2.2-.5.5-.6.7l-.2.4-.3.7c-.1.2-.3.3-.3.5-.1.2-.2.2-.2.3 4.8-5.6 7.7-12.8 7.7-20.7 0-4-.8-7.9-2.1-11.4H60c-.1 0-.2.1-.2.2l-.1.3v.6c.1.2.2.4.3.5.1.1.1.1.1.2s0 .1-.2.1h-.3l-.1-.1c-.1-.1-.2-.2-.4-.3l-.5-.2c-.1 0-.2-.3-.24-.4-.1-.1-.2-.3-.2-.5 0-.1-.1-.3-.16-.4l-.2-.4c-.1-.2-.2-.3-.3-.4h-.06zm-39.5 17.35c-.02 0-.05.03-.08.07-.1.1-.07.07-.23-.03.04 0 .44.4.52.6.05 0 .16.1.27.1.2 0 .3-.1.3-.1.2-.1.2-.1.2-.2s-.1-.2-.1-.3c-.1-.1-.3-.2-.5-.2-.1-.1-.2-.1-.2-.1zm.38 1.4c-.1.02-.3.1-.3.17 0 .05 0 .15.1.24l.2.24c.1.12.5.16.6.16.1 0 .2-.05.2-.12.1-.07 0-.16 0-.23 0-.1-.2-.2-.3-.3 0-.1 0 0-.2-.1h-.1zm-1.7 1.12c-.2 0-.4 0-.6.2-.3.2-.6.6-.8.68.1.1.1.2.2.23.1.04.2.03.3-.02.2-.1.3-.13.5-.2.2-.1.3-.16.5-.16.3 0 .4.08.6.13.2.03.3.08.5.17.2.08.3.15.5.3.2.12.4.18.5.28.2.1.4.2.5.33l.4.4c.2.1.3.1.4 0 .1 0 .2-.1.4-.1h.9c.1 0 .1-.1.1-.1s0-.1-.1-.1l-.5-.1c-.2-.1-.1-.2-.4-.3-.2-.1-.3-.2-.6-.2-.2 0-.4 0-.6-.2-.1-.1-.2-.4-.3-.4-.3-.1-.5-.3-.8-.3-.3 0-.6-.1-.9-.1H18zm5.6 1.9s-.1 0-.1.02h-.7l-.1.1v.2c.1 0 .1 0 .2.1.1 0 .1.1.1.2.1.1 0 .1-.1.2l-.4.2c.1.1.1.1.4.1h.6c.2 0 .4.1.5 0 .3-.1.5-.2.7-.3.2-.2.2-.1.4-.2h.3c.1 0 .1-.1.1-.2s-.1-.3-.3-.3c-.1 0-.3 0-.5-.1s-.2-.3-.4-.3c-.1 0-.2-.1-.4-.1zm2.4.73c0-.02-.1.08-.1.2 0 .1.1.2.1.26.1.1.4.14.5.14s.2 0 .3-.02c.1-.02.1-.06 0-.16 0-.15-.1-.3-.2-.38-.1-.06-.2-.04-.4-.04zm1.9.14v.2c0 .1.1.18.2.22.2.04.4.02.5 0 .1-.02.1-.08 0-.17-.1-.1-.1-.2-.2-.2-.1-.1-.2-.1-.3-.1zm-6.8.2l-.1.03c0-.02-.3 0-.4.07-.1.04-.1.1-.2.14 0 .05 0 .13.1.23l.1.3c0 .1.1.1.2.1.2.1.4.1.6.1.2-.1.2-.3.2-.4 0-.2 0-.3-.2-.3H21zm7.7.76c-.1.03-.1.2.1.3.2.12.3.08.4.04.1-.05.1-.13 0-.2l-.2-.1-.1-.04zm.7.92c0 .04-.2.18-.2.27h.2l.3-.1c.1-.1 0-.2-.1-.3zm.1.75l.1.04zm.1.04c0 .1-.3.3-.3.4 0 .1.4 0 .4 0 .1 0 0-.2-.1-.3zm.9.3c0 .1-.1.4 0 .5.2.1.2.1.2 0 .1 0 .1-.1 0-.2l-.2-.2z"/>
</svg>
