<svg xmlns="http://www.w3.org/2000/svg" viewBox="0 0 64 64">
  <g transform="translate(-225.714 -116.934)">
    <circle cx="257.71" cy="148.93" r="31.82" fill="#e35a4e" fill-rule="evenodd" style="text-decoration-line:none;text-decoration-style:solid;text-decoration-color:#000000;isolation:auto;mix-blend-mode:normal" color="#000" overflow="visible" solid-color="#000000"/>
    <path fill="#fff" d="M257.9 127.57h-.47c-2.47.1-4.8 1.78-5.7 4.08-.23.6-.35 1.23-.4 1.86-.5-.4-1.1-.8-1.74-1.1-2.4-.9-5.2-.4-7 1.4-1.8 1.8-2.4 4.7-1.4 7 .3.7.7 1.3 1.1 1.8-.7.1-1.4.2-2.1.4-2.4 1-4 3.4-4 6 0 2.5 1.6 5 3.9 5.9.7.3 1.4.4 2.1.5-.5.6-.96 1.2-1.25 1.9-.98 2.3-.4 5.2 1.4 7 1.8 1.77 4.64 2.35 7 1.38.62-.3 1.2-.7 1.73-1.2.02.7.14 1.4.4 2.1.95 2.33 3.4 3.96 5.9 3.96 2.53 0 5-1.6 5.94-3.94.3-.7.4-1.4.4-2.2.53.5 1.1.9 1.77 1.2 2.33 1 5.2.4 7-1.4 1.8-1.75 2.35-4.63 1.4-6.96-.28-.67-.7-1.25-1.17-1.8.7 0 1.4-.13 2.07-.4 2.35-.97 3.98-3.4 3.98-5.93s-1.64-5-3.97-5.92c-.63-.3-1.3-.4-2-.44.45-.5.8-1.05 1.1-1.7.96-2.3.4-5.2-1.4-7-1.8-1.75-4.7-2.3-7-1.4-.65.3-1.24.7-1.8 1.2 0-.74-.13-1.5-.43-2.2-1-2.2-3.3-3.7-5.7-3.8zm-.33 3.06a3.35 3.35 0 0 1 2.5 5.72v6.86l4.87-4.8a3.35 3.35 0 1 1 3.35 3.4l-4.8 4.8h6.8a3.35 3.35 0 1 1 0 4.8h-6.9l4.8 4.9a3.35 3.35 0 1 1-3.4 3.4l-4.9-4.84v6.93a3.35 3.35 0 1 1-4.8 0v-6.9l-4.88 4.84a3.35 3.35 0 1 1-3.36-3.32l4.94-4.9H245a3.35 3.35 0 1 1 0-4.72h6.9l-4.85-4.8a3.35 3.35 0 1 1 3.36-3.37l4.9 4.88v-6.8a3.35 3.35 0 0 1 2.2-5.7z" image-rendering="optimizeQuality" shape-rendering="geometricPrecision" text-rendering="geometricPrecision"/>
  </g>
</svg>
