<svg xmlns="http://www.w3.org/2000/svg" viewBox="0 0 64 64">
  <g transform="translate(-225.714 -116.934)">
    <circle cx="257.71" cy="148.93" r="31.82" fill="#e35a4e" fill-rule="evenodd" style="text-decoration-line:none;text-decoration-style:solid;text-decoration-color:#000000;isolation:auto;mix-blend-mode:normal" color="#000" overflow="visible" solid-color="#000000"/>
    <path fill="none" stroke="#fff" stroke-width="3" d="M266.43 134.64c1.5-.76 2.54.42 3.5.73.94.3 1.45-.02 2.53-.17.93.42 1.25.82 1.3 1.2.05.37-.24.68-.4.85-.54 1.14.95 3.03.3 3.6-.37.32-.5 1.9.04 2.07 1.3.42 1.3 3.6 1.5 5.67.07.6.1 1.1.13 1.5.04.4.1 2.5-.1 3.3-.38 1.4-3.2 1.5-5.37 1.52l-7.54 4c-3.1 4.95-8.9 7.47-13.55 7.6-2.87.08-7.6-.75-8.3-2.87-.44-1.34-.82-4.2.1-4.5.1-1.6.57-2.85 1.27-3.8.17-.3.4-.6.7-.84 1-.83 2.72-1.97 4.47-3.1 2.2-1.25 10.5-10.26 12.1-13.04.3-.77.1-2.5 0-4.44-.1-1.58 1.5-2.8 3.1-2.68 1.6.12 3.74 1.1 4.28 3.33z"/>
  </g>
</svg>
