<svg xmlns="http://www.w3.org/2000/svg" viewBox="0 0 64 64">
  <defs>
    <clipPath id="b">
      <path fill="#f9f9f9" stroke="#de8787" stroke-width=".02" d="M-48.26 127.53c.94-.32 1.8-.35 2.33-.34.15.4-.12 1.5-.48 1.8-.4-.1-1.4-1.1-1.9-1.6z"/>
    </clipPath>
    <clipPath id="a">
      <path fill="#f2f2f2" stroke="#de8787" stroke-width=".01" d="M-89.04 141.44c.7-.28 1.47-.63 1.9-.62-.03.46-.13 1.34-.3 1.56-.53.2-1.28-.5-1.6-.94z"/>
    </clipPath>
  </defs>
  <g transform="translate(-225.714 -116.934)">
    <circle cx="257.71" cy="148.93" r="31.82" fill="#e35a4e" fill-rule="evenodd" style="text-decoration-line:none;text-decoration-style:solid;text-decoration-color:#000000;isolation:auto;mix-blend-mode:normal" color="#000" overflow="visible" solid-color="#000000"/>
    <path fill="#fff" d="M258.3 124.23c-2.45 0-6.7.58-11.1 2.56-4.34 1.9-7.56 6-8.38 12.6-.1.3-.3.8-.36 1.6-.06.7.17 1.6.7 2.4-.04.1-.1.2-.25.4-.9 1.3-1.3 1.8-2.1 2.9-.4.6-1 1.5-1.4 2.8-.2.6-.3 1.5 0 2.4.3.9 1 1.7 1.8 2.2.5.2.6.2 1 .4 0 .7.3 1.4.8 1.9.1 0 .1.1.1.2 0 .3-.2.5-.2.9.1.6.4 1.1.8 1.6-.1.2-.1.2-.2.7-.3 1.1 0 2.6.7 4 .9 1.72 2.9 2.84 4.5 2.9.9.02 1.7-.2 2.4-.35 0 .24.1.84 0 1v.3h-.1c-1.5.82-6.6 2.7-9.5 3.33-.4.1-1 .3-1.5.6.6.65 1.3 1.25 2 1.8 3.3-.7 8.2-2.45 10.2-3.6 1.5-.74 1.6-2.4 1.4-6.4l-1.1.3c-2.9.57-4.9 1.3-6.1-1-1.2-2.35-.2-2.5 0-4.1-.1-.1-.2-.4-.2-.7h-.4c-.5-.37-.6-.9-.16-1.8-.24-.6-.5-1-.94-1.47 0-.56.34-1.63-.1-1.83h-.1c-.68-.26-1.5-.46-1.97-.75-1.56-.9-.4-2.7.44-4 .7-1.05 1.1-1.5 2.1-2.9.24-.37.43-.73.56-1.06.1-.2.14-.44.15-.65v-.3l.05.16v-.2c-.06-.4-.2-.8-.45-1-.5-.67-.2-1.4 0-2.05.65-6.4 3.2-9.4 7.07-11.1 4-1.8 8.06-2.34 10.1-2.34 3 0 8.74.6 12.1 3.7 2.3 2.1 3.7 5 4.2 9 .5 2.38 0 3.8-.1 4.48-.1.84-.7 1.35.2 2.9.34.6 1.04 1.74 1.5 2.3.8 1 1.52 2.2.8 3.04-.85 1.04-1.46.75-2 1.48-.4.6-.2 1.37-.07 1.6-.6 1-1.55 2.56-.8 3.3-1 .86-.37 2.1-.54 3.4-.1.7-.12 2.43-4.4 2.03-1.1-.1-2.15-.28-3.2-.48-.1 3.25-.06 5.3.3 5.9 1 1.6 6.5 3.9 11.07 4.8a31.82 31.82 0 0 0 2.2-1.9c-.6-.18-1.3-.4-1.8-.5-2.1-.45-4.5-1.2-6.4-2-.92-.4-1.8-.8-2.32-1.2-.4-.2-.43-.3-.5-.3-.06-.2-.15-.5-.16-.87v-1c.2 0 .38.05.57.1 2.5.2 4.3-.1 5.6-1.2 1.34-1.1 1.5-2.8 1.55-3 .15-1.1 0-1.8 0-2.1.55-.7.7-1.6.4-2.47.1-.25.34-.7.62-1.16.3-.5.4-1.05.33-1.6.44-.27 1-.54 1.5-1.17 1-1.2.96-2.85.6-3.84-.36-1-.9-1.7-1.37-2.3-.23-.3-1-1.46-1.3-1.96l-.15-.3c0 .03.13-.2.25-1 0 0 .16-.78.26-1.7s.1-2.2-.2-3.6c-.54-4.37-2.23-7.9-4.9-10.37-4.2-3.9-10.4-4.3-13.7-4.3zm-20.46 49.5c.98.8 2.02 1.53 3.1 2.2a31.82 31.82 0 0 0 .43.26c1.64.9 3.37 1.8 5.16 2.4a31.82 31.82 0 0 0 .27.1c1.85.7 3.76 1.2 5.72 1.5-5.12-1-10.16-3.1-14.68-6.6z"/>
    <g fill="none" stroke="#fff" stroke-width="3" transform="rotate(135 171.215 117.593) scale(.84343)" color="#000">
      <circle cx="257.71" cy="148.93" r="13.96" style="text-decoration-line:none;text-decoration-style:solid;text-decoration-color:#000000;isolation:auto;mix-blend-mode:normal" overflow="visible" solid-color="#000000" stroke-linecap="round" stroke-linejoin="round"/>
      <path d="M267.5 138.97l8.4-8.4m-7.26-.07l3.65 3.68 3.5 3.57" style="text-decoration-line:none;text-decoration-style:solid;text-decoration-color:#000000;isolation:auto;mix-blend-mode:normal" overflow="visible" solid-color="#000000"/>
    </g>
    <path fill="#fff" d="M267.5 144.82c.57-1.1 1.5-1.88 2.7-1.53 1.16.3 2.34.6 2.62.5-.05-.3.46-.6.27-.8-1-.1-2.2-.6-3.2-.7-1.1-.1-2.2 1.4-2.4 2.4zm2.5 1.44c.5-.27 1.06-.6 1.4-.6 0 .35 0 1.02-.12 1.2-.4.2-1-.3-1.28-.6z"/>
    <g transform="matrix(.75542 -.06526 .0648 .7608 328.097 32.835)" clip-path="url(#a)">
      <circle cx="460.99" cy="434.08" r="9.55" fill="#e35a4e" stroke="#fff" stroke-width="1.34" transform="matrix(.02756 .00262 -.01276 .13443 -94.623 81.947)"/>
      <path fill="#e35a4e" d="M-87.34 140.22c-.15-.02-.3.54-.38 1.25-.03.28 0 .53 0 .75.06-.34.17-.6.25-.6.1 0 .16.37.16.66l.1-.75c0-.7 0-1.3-.2-1.3z"/>
      <circle cx="460.99" cy="434.08" r="9.55" fill="#fff" transform="matrix(.01025 .00097 -.00475 .05 -90.123 119.353)"/>
    </g>
    <path fill="#fff" d="M270.8 145.35c.16.1.13.24.1.3.14-.1.23-.26.18-.44.14.2.1.3.1.3.14 0 .24-.3.17-.4.16.2.12.4.1.4.1 0 .2-.1.2-.3.14.3 0 .8-.22.7-.32-.1-.72.2-1.35.5.3-.2.74-.4.72-.9z" color="#000" overflow="visible"/>
    <path fill="#e35a4e" fill-rule="evenodd" d="M272.84 156.56c.83-1.43 1.24-1.15 1.8-.6.05.44 0 1.6-.26 1.8-.5.57-.6-.2-1.54-1.2z"/>
    <path fill="#e35a4e" fill-rule="evenodd" d="M273.03 156.63c-.52-.12-.1.17-.4.1.45.5.74 1.9 1.7 1.84.53-.03 1.04-.78.28-1.77 0 .26 0 .45-.1.65-.4.1-.7-.67-1.4-.82z"/>
    <path fill="#fff" fill-rule="evenodd" d="M272.45 156.6c.4.23.96.2 1.7-.32.24-.18.43.06.52-.02v.37c.6-.4.73-1.3.27-1.57-.18-.1-.1.38-.2.3-.12-.07-.24-.4-.43-.24-.1.1-1.1 1.07-1.8 1.46z"/>
    <path fill="#fff" d="M246.93 145.03c-.66-.34-1.32-.47-1.7-.52-.17.4-.1 1.2.14 1.5.3 0 1.1-.6 1.56-.9z"/>
    <g transform="matrix(-.75003 -.11172 -.11093 .75538 224.882 43.306)" clip-path="url(#b)">
      <circle cx="476.92" cy="401.69" r="9.8" fill="#e35a4e" stroke="#fff" stroke-width="2.43" transform="matrix(.0326 .0015 -.00674 .14572 -59.102 68.482)"/>
      <path fill="#e35a4e" d="M-46.2 126.3c-.16 0-.36.63-.4 1.42 0 .3 0 .55.04.78.05-.4.2-.78.3-.78.1 0 .2.43.2.87.05-.3.1-.6.12-.9.04-.8-.07-1.5-.25-1.5z"/>
      <circle cx="476.92" cy="401.69" r="3.89" fill="#fff" transform="matrix(.0326 .0015 -.00674 .14572 -59.102 68.482)"/>
    </g>
    <path fill="#fff" d="M242.1 141.6c-.35.73.48 1.63.97 1.7.25.04 3-.94 3.56-.9.83.07 1.36-.34 3.62 1.67-1.53-2.24-2.37-3-3.98-3.02-1.72 0-3.72 1.65-4.18.55zm2.86 14.46c-.75.48-2.17.62-2.5.4-.67-.4-1 .05-1.44-.2-.47-.3-.7-1.36-.45-1.53.72.16 1.1-.06 2.17.94.58.55 1.38.67 2.22.4z"/>
    <path fill="#fff" d="M238.9 152.2l.28-.12c.4-.2.87-.22 1.33 0 .3.13.6.34.7.4l.4.2c.3.15.6.15.9.04.3-.13.5-.34.6-.5l.1-.1c.1-.2 0-.5-.2-.78l-.3-.3c-.1-.1-.2-.15-.2-.17.06.02.1.08.2.2l.2.33c.2.32.2.54.17.68l-.04.05c-.07.1-.2.23-.4.28-.26.1-.47 0-.6-.1l-.35-.2c-.14 0-.45-.2-.8-.3-.6-.1-1.06.1-1.47.3-.1.1-.15.2-.25.2z" color="#000" overflow="visible"/>
    <path fill="#fff" d="M273.54 151.18c-.2.18-.37.47-.38.9 0 .35.1.64.25.76l.2.1c.5.2.9-.1 1.2-.36h-.1v-.02h.1l.1-.06.3-.1c.2-.06.3-.1.4-.1.1 0 .1 0 .1-.02.1 0 .2-.03.3-.02.1 0 .1.03.16.04v-.04s0 .03-.02.05c0 .1-.1.1-.1.2-.23.1-.4.1-.5.1v.1c.1.1.3.1.54 0l.2-.1.1-.1s.05 0 0-.1c-.02-.1-.2-.2-.3-.2h-.42l-.45.2c-.1.1-.23.1-.3.2s-.1.1-.1.2v.1l.07.1h.1l.1-.1c-.3.3-.75.2-1 .1l-.15-.1s-.2-.2-.23-.5c-.1-.4.04-.7.23-.9z"/>
  </g>
  <path fill="none" stroke="#000" stroke-width=".04" d="M32 31.6v.8m.4-.4h-.8" style="text-decoration-line:none;text-decoration-style:solid;text-decoration-color:#000000;isolation:auto;mix-blend-mode:normal" overflow="visible" solid-color="#000000" color="#000"/>
</svg>
