<?xml version="1.0" encoding="iso-8859-1"?>
<!DOCTYPE svg PUBLIC "-//W3C//DTD SVG 1.1//EN" "http://www.w3.org/Graphics/SVG/1.1/DTD/svg11.dtd">
<svg version="1.1" id="Capa_1" xmlns="http://www.w3.org/2000/svg" xmlns:xlink="http://www.w3.org/1999/xlink" x="0px" y="0px" width="560.871px" height="560.871px" viewBox="0 0 560.871 560.871" style="enable-background:new 0 0 560.871 560.871;" xml:space="preserve">
	<path d="M559.481,236.829c-0.132-1.899-0.081-4.22-2.468-4.786c-2.687-0.64-3.895,1.696-5.205,3.397 c-9.856,12.738-22.298,15.158-37.136,10.057c-15.325-5.273-29.365-13.218-43.894-20.145 c-35.708-17.026-72.676-24.476-111.711-17.156c3.748-7.909,20.566-23.077,24.974-23.788c13.376-2.179,9.725-19.568,0-23.531 c-13.167-5.365-25.699-7.265-39.852-7.145c-3.615,0.033-7.47,1.191-10.902,2.107c-11.466,3.072-6.962,7.155-7.378-4.504 c-0.965-27.266-17.266-51.196-38.405-67.321c-2.433-1.851-4.845-2.516-7.068-2.366c-2.232-0.149-4.644,0.516-7.071,2.366 c-18.517,14.127-36.96,37.11-38.13,61.565c-0.292,6.147-0.818,10.42-0.818,10.42s-8.538-0.934-14.498-1.83 c-14.558-2.194-29.686,1.244-43.089,6.708c-9.725,3.968-13.375,21.353,0,23.531c4.428,0.716,21.345,15.978,25.017,23.871 c-15.856-2.663-31.763-3.831-47.888-2c-25.504,2.905-49.068,11.588-71.782,23.092c-11.644,5.9-23.201,12.007-35.599,16.26 c-14.688,5.037-27.339,2.63-37.158-10.192c-1.305-1.706-2.562-4.118-5.205-3.379c-2.714,0.757-2.288,3.468-2.531,5.608 c-2.575,22.458-1.955,44.933,0.233,67.354c3.514,36.049,12.728,70.274,31.407,101.813c42.675,72.072,141.95,93.349,204.031,50.165 c28.251-19.661,57.848-18.839,86.67-0.192c19.256,12.461,39.659,20.322,62.941,21.703c52.263,3.088,96.229-13.944,128.636-54.924 C559.09,368.615,564.092,303.617,559.481,236.829z M219.234,380.325c-6.376,0.192-12.756,0.04-16.26,0.04 c-20.84-0.467-38.682,2.133-56.808,0.427c-31.809-2.991-54.235-19.053-70.152-45.722c-2.963-4.967-3.031-10.075,2.397-12.99 c29.01-15.573,59.382-25.369,92.6-16.868c26.868,6.875,41.926,26.588,51.64,51.216c1.727,4.378,3.113,8.896,4.388,13.437 C229.172,377.415,227.207,380.091,219.234,380.325z M484.403,336.359c-16.315,27.066-39.674,42.005-71.736,44.691 c-24.237,2.036-48.175-1.899-72.274-0.873c-4.835,0.203-8.618-2.163-7.15-7.612c5.886-21.825,15.021-41.862,33.683-55.989 c13.812-10.456,29.543-15.001,44.208-14.32c26.594-0.102,48.439,7.597,69.365,18.423 C487.968,324.543,488.897,328.915,484.403,336.359z"/>
</svg>
