<svg xmlns="http://www.w3.org/2000/svg" viewBox="0 0 64 64">
  <circle cx="32" cy="32" r="31.82" fill="#e35a4e" fill-rule="evenodd" style="text-decoration-color:#000000;isolation:auto;mix-blend-mode:normal;text-decoration-line:none;text-decoration-style:solid" color="#000" solid-color="#000000"/>
  <path fill="none" stroke="#fff" stroke-width="3" d="M40.72 17.7c1.5-.76 2.53.43 3.5.73.94.3 1.44 0 2.53-.16.93.42 1.25.82 1.3 1.2.05.37-.24.68-.4.85-.54 1.13.95 3.03.3 3.6-.38.32-.5 1.9.03 2.06 1.3.43 1.3 3.6 1.52 5.67.06.62.08 1.16.12 1.54.03.37.1 2.5-.1 3.3-.38 1.4-3.2 1.5-5.37 1.53l-7.54 4c-3.1 4.95-8.9 7.46-13.53 7.6-2.87.08-7.62-.76-8.3-2.88-.45-1.32-.82-4.18.1-4.48.1-1.6.57-2.86 1.27-3.8.17-.3.4-.6.7-.84 1-.84 2.72-1.98 4.47-3.1 2.17-1.26 10.45-10.27 12.06-13.06.28-.76.12-2.5 0-4.44-.1-1.57 1.5-2.8 3.1-2.67 1.6.13 3.72 1.1 4.27 3.34z"/>
</svg>
