<svg xmlns="http://www.w3.org/2000/svg" viewBox="0 0 64 64">
  <g transform="translate(-225.714 -116.934)">
    <circle cx="257.71" cy="148.93" r="31.82" fill="#e35a4e" fill-rule="evenodd" style="text-decoration-line:none;text-decoration-style:solid;text-decoration-color:#000000;isolation:auto;mix-blend-mode:normal" color="#000" overflow="visible" solid-color="#000000"/>
    <path fill="#fff" d="M253.14 118.04c-.1 0-.3 0-.37.12-.08.1-.15.23-.23.3-.05.06-.1.2-.23.2 0 0-.3-.04-.3 0-.1.07-.2.15-.2.27 0 .16-.2.13-.3.25 0 .06-.2.18-.3.2-.1.04-.2.07-.4.07-.1 0-.2-.02-.3 0-.1.04-.2.2-.4.23-.1.03-.2.08-.2.17-.1.1-.3.16-.4.16-.2 0-.2.1-.3.2-.1.1-.3.1-.4.1-.1 0-.4 0-.5.1-.1.1-.2.1-.3.2 0 .2-.1.2-.3.3-.1.1-.3.1-.4.2 0 .1-.1.3-.2.3l.2.1c.1.1.3 0 .4 0h.5c.2 0 .3-.1.4-.1.2 0 .4 0 .6.1.1.1.3.1.4.1h.4c.2 0 .3 0 .4-.1l.3-.2c.1 0 .3-.3.4-.3.2 0 .3 0 .4-.1.1 0 .1-.2.2-.2s.2.2.3.2h.2c.1 0 .1.1.1.1l.2.2c.1.1.2.3.2.4v.4c.1.1.1.2.1.3l.2.3c0 .1.1.1.2.3.1.2.1.2 0 .4s-.1.3-.1.4v.2l.1.2h.2c.2 0 .3 0 .4.1.1.1.1.2.1.3 0 .1 0 .3-.1.4 0 .1-.2.2-.2.3v.5c0 .2.1.4.1.5.1.1.2.2.2.3.1.2.1.3.1.4l.2.3c.1.1.1.4.2.5l.3.3c.1.2.2.3.3.4.1 0 .2.1.3.2.2.2.4.4.6.5.1.1.3.1.4.2l.4.3c.1.1.2.3.4.2.1 0 .4 0 .5-.1.1 0 .1 0 .2-.1v-.2s-.1-.1-.1-.2V128c-.1-.1 0-.2-.1-.4v-.8c.1-.1 0-.2 0-.4v-.3c0-.1.1-.2.2-.3.1 0 .4-.1.4-.2v-.4c0-.1-.1-.3 0-.4.1-.2.2-.2.4-.4l.3-.3c.1 0 .2-.1.3-.2 0-.1.1-.2.1-.3 0-.1 0-.3-.1-.3-.1-.1-.2-.1-.2-.2s.1-.3 0-.4c0-.1-.1-.2-.3-.2l-.4-.1c-.1 0-.2 0-.3-.1 0-.1 0-.3-.1-.3-.1-.1-.2-.1-.4-.1 0 0-.5-.1-.3-.1s.1 0 .2-.2l.1-.2c-.1-.1-.2-.2-.3-.2-.1-.1-.4-.2-.6-.2-.1 0-.2-.1-.2-.2-.1-.1-.3-.1-.4-.2-.1 0-.2-.1-.3-.1-.1 0-.3 0-.4-.1l-.5-.1c-.1 0-.5 0-.5-.1 0 0 .1-.2.2-.2h1.4c.2 0 .4 0 .6.1.2.1.4.1.6.1h.7c.3 0 .6-.1 1-.1.2 0 .2-.1.4-.1h.2l-.1-.1h-.4c-.1 0-.3-.1-.4-.1h-.5c-.1 0-.2.1-.3.1-.2.1-.3 0-.5 0h-1.5c-.2 0-.5 0-.6-.1l-.5-.14c-.1 0-.3-.2-.3-.2zm13.3.24l-.78.15c-.3.08-.5.22-.77.15-.2-.05-.4-.07-.6-.1v.22l-.2.17-.5.06c-.1.03-.1.1 0 .2 0 .07.1.15.2.16.2 0 .6.2.8.3.1 0 .1.1.1.1v.2c0 .1 0 .2.2.3.1 0 .4.1.6.1.2 0 .6.1.8.2.1 0 .4.2.5.3.1.1.2.1.3.3.1.2.3.3.4.4.1.1.4 0 .5.1.2.1.4.2.5.3l.3.4c.1.1.2.3.4.4s.3.2.4.3l.4.4c.1.1.2.3.4.3.2.1.4-.1.6-.1.1-.1.5.3.5.4l.3.3c0 .1.2.2.3.3.1.1.2.2.4.3h.2c0-.1.1-.1.1-.2 0-.2.1-.3 0-.5v-.4c0-.1.1-.1.3-.1.1 0 .1.2.2.3 0 .1.1.3.1.5v.5c0 .1.9.6.9.6.1.1.2.2.4.3.1.1.2.2.4.3.1 0 .2.1.2.2v.8c-.1.1-.1.2-.1.3 0 0 .1.1.2.1.2.1.3.2.5.4.1 0 .2.8.3 1 .1.1.1.3.1.5-.1.2-.1.3-.1.5 0 .1-.1.3-.2.4-.1.1-.1.3-.1.4-.1.1-.1.2.1.3.2 0 .5.1.7.1h.6c.1 0 .2.2.3.4l.2.5c0 .2.1.3.2.4.1.1.4.3.4.5s.1.3 0 .5c-.1.1-.4.1-.5.2-.2.1-.4.1-.7.2l-.3.1c-.1 0-.1.1-.1.2 0 .2.1.3.2.4.1.2.2.3.3.5.1.1.1.3.2.4l.3.6c.1.2.3.4.5.7 0 .1.2.4.2.6 0 .2.1.3.1.5s.1.2.2.3c.1.1.2.1.3.1h.6c.2 0 .4-.1.5-.1.1 0 .3-.3.4-.4.1-.2.2-.3.3-.5v-.4c0-.1 0-.3-.1-.3-.1-.1-.1-.2-.1-.3 0-.1 0-.2.1-.3v-.6l-.3-.4c-.1-.2-.2-.4-.2-.5-.1-.2-.1-.3-.1-.6v-.5c0-.3-.1-.4-.2-.5-.1-.1-.1-.2-.1-.4-.1-.1 0-.2 0-.3s.1-.1.2-.1c.1-.1.1-.3.1-.5v-.3c0-.1 0-.2.1-.2s.2 0 .2.1l.2.2c.1.2.1.3.3.4.1.1.4.2.6.3.1.1.3.1.4.2.1.1.3.2.4.3.1.1.1.3.2.4l.3.3c.1.1.1.3.2.4 0 .2.1.2.1.2l.2-.1-.1-.5c-.1-.2-.3-.4-.4-.5-.1-.1 0-.2 0-.2s.1.1.2.1c.1.1.3.1.4.4 0 .1.2.2.3.3.1.1.1.3.2.5 0 0 0 .1.1 0h.1l.2-.3.1-.4c.1-.2.1-.3 0-.4l-.2-.4c0-.2-.1-.3-.2-.4l-.5-1v-.1c-4.1-6.8-10.7-12-18.6-14.3zm-20.34 2.76c-.1 0-.27.2-.33.22-.13.07-.28.22-.4.32l-.35.27c-.14.1-.23.12-.44.12-.2 0-.2.1-.35.17-.18.1-.34.37-.42.52 0 .14-.1.32-.2.4-.1.1-.2.15-.3.2-.1.07-.1.33-.1.46 0 .1-.3.1-.3.1s-.3-.4-.3-.43c-.1-.2-.1-.2-.3-.3-.1-.1-.2 0-.2-.1v-.3s.2-.3.3-.3c.1-.1.3-.2.4-.2l.3-.3c.1-.2.1-.3.1-.5 0-.1-.3-.2-.3-.2-.1-.1-.2-.3-.4-.3-2.9 1.6-5.6 3.8-7.9 6.3v.3c-.1.2-.2.2-.4.3-.1.1-.1.2-.2.3-.1.1-.2.2-.4.3-.1.1-.1.3-.1.5 0 .1.1.2.2.2s.1-.1.2-.2.4-.3.5-.4c.1-.1.4-.2.4-.4l.2-.4c.1-.3.2-.4.3-.6.1.1.1.3.3.4.1.1.1.2.1.2 0 .1 0 .1-.1.2 0 .1-.2.2-.3.3-.1.1-.2.1-.2.2-.1.2-.2.2-.2.3l-.2.4c-.1.2 0 .3-.2.4-.1.1-.2.3-.2.4 0 .2-.1.2-.3.3-.1.1-.2.3-.2.5s-.3.4-.4.6l-.2.3c-.1.1-.1.3-.1.4 0 .2-.1.3-.3.5v.1c-.1.1-.2.3-.2.5 0 .1-.2.4-.2.5 0 .2-.1.3-.2.5s-.2.3-.3.4l-.2.5v.4s0 .3-.1.5v.5c0 .2 0 .3-.2.4-.1.1-.2.2-.2.4 0 .1-.1.3-.2.4-.1.2-.1.3-.2.5-.1.1-.1.3-.2.5l-.1.5c-.1.2-.1.3-.1.5s-.1.3-.2.4c-.1.2-.1.3-.2.5v.6c0 .2-.1.3-.1.5v1c0 .3-.1.5-.1.8 0 .2.1.2.1.4.1.1 0 .3.1.5l.1.2c0 .3.2.3.2.6v.4c.1.1 0 .4 0 .5 0 .2-.1.4-.1.5v.1c0 .2-.1.4-.1.6 0 0 .1.3.2.4l.1.6c.1.2.2.5.3.7 0 .2 0 .3.1.5.1.1 0 .4 0 .5v.5l.1.5s0 .3.1.5 0 .3 0 .4c.1.2.2.3.3.4l.2.5c0 .1.2.3.2.5s.2.4.3.7c.1.1.1.3.2.4.1.1.3.2.4.3.1.1.1.1.1.2s.1.1.2.1.2.2.3.2c.1.1-.1-.3-.1-.5-.1-.2-.3-.3-.3-.5-.1-.1 0-.4-.1-.5-.1-.2-.2-.4-.2-.5-.1-.2-.2-.4-.2-.6 0-.2-.1-.4-.2-.5-.1-.2-.2-.3-.2-.6 0-.2-.1-.4-.2-.6-.1-.1 0-.4 0-.6v-.5l-.1-.6c-.1-.1-.1-.3-.1-.5v-.1c.1 0 .1.1.1.2s.2.3.2.4c.1.2.1.4.1.6.1.14 0 .35 0 .5.1.2.2.3.2.5v.5c0 .1.2.34.2.5l.2.5.2.5.2.44.2.4.3.5.1.4.3.56.2.5c0 .2.1.4.1.6l.2.4c.1.2.2.3.4.4.1.1.3.2.5.3.2.1.4.2.4.4l.2.4c.1.2.3.3.4.5.4.3.7.7 1.1.9.2.1.3.15.5.2l.5.16c.1.1.3.1.5.1 0 0 .2.2.4.2h.4c.2.1.3-.1.5-.1.2.1.5.5.7.7l.5.4c.2.2.3.2.5.3.2 0 .3 0 .4.1.1.1.4 0 .5 0 .2 0 .3.2.4.3.2.2.5.4.6.5.1.14.2.4.3.5l.4.4c.2.1.3.2.3.4.1.2.3.3.4.3.2.1.4.16.5.2.1.05.3.3.4.4.1.1.4 0 .5 0 .2 0 .3.2.4.4.1.1.2.2.4.2s.4-.1.5-.2c.1-.1.1-.4.1-.5s.4.2.4.2l.3.3c.2.1.4.3.4.5.1.1.1.3.1.5l.3.4c.1.1.1.2.1.5v.5c0 .2-.1.2-.1.3 0 .2-.1.3-.1.5s-.3.3-.3.56c0 .2.2.4.2.6.1.2.1.5.2.6.1.2.3.2.3.4.1.2.1.4.1.6.1.1.2.2.2.4l.3.3c.1.1.3.2.5.3.3 0 .4.1.5.3.2.1.2.3.4.4.2.2.3.2.4.3l.1.1c.2.1.2.2.4.3l.5.3c.2.1.3.2.5.3l.4.3c.2.1.3.2.5.2.1.1.3.1.5.1.2.1.4.1.5.2l.4.4c.1.1.3.2.5.3l.3.2c.2.1.3.2.5.4l.4.3c.2.1.2.3.4.4.1.2.2.3.2.5.1.2.2.3.3.4.1.2.3.3.4.4.1.2.3.2.4.3.2.2.3.2.4.4.2.2.3.2.4.3.1.1.3.2.4.3l.1.1c.9-.1 1.8-.1 2.6-.24.08 0 .1 0 .1-.1 0-.2.3-.4.4-.5.1-.2.3-.2.48-.2.2-.1.3-.2.4-.3l.4-.5.3-.4c.1-.2.1-.3.2-.5s.2-.3.4-.4c.2-.1.2-.2.4-.3s.3-.2.5-.2c.2-.1.4-.4.5-.5l.4-.4.2-.2.1-.2c.1-.1.1-.4.1-.5.05-.2.1-.4.2-.5.1-.2.05-.4.1-.5.1-.2.2-.3.2-.5.1-.1.1-.3.1-.5.1-.1.2-.3.2-.4.1-.2.1-.2.3-.35l.35-.4c.1-.1.1-.37.2-.46 0-.2.2-.3.3-.4.1-.1.2-.3.2-.4.1-.1.1-.3.1-.4 0-.2 0-.3.1-.5 0-.2-.12-.3-.2-.4-.12-.1-.2-.3-.4-.4-.2-.1-.3-.1-.32-.2-.1-.1-.3-.2-.5-.25h-2s-.3.1-.5.1h-.5c-.13 0-.24-.1-.42-.1s-.2-.1-.3-.2c-.1-.1-.3-.15-.4-.15h-.6c-.3 0-.3.1-.5.2s-.3.2-.4.3c-.1.1-.3.2-.4.2-.2.1-.4.1-.5 0-.1 0-.2-.1-.2-.1-.1-.1 0-.2 0-.3 0-.2.1-.3.2-.4v-.5c0-.2.02-.2-.07-.4 0-.1-.2-.2-.3-.3-.1-.1-.2-.3-.2-.4-.1-.1-.2-.3-.3-.4-.1-.1-.2-.2-.32-.2s-.35-.1-.47-.1h-1c-.2 0-.3.1-.5.1-.1 0-.2.1-.4.1-.1 0-.2-.2-.3-.3-.1-.12-.2-.2-.3-.3-.1-.1-.3-.1-.34-.2-.1-.1-.4-.1-.5-.2-.2 0-.4-.1-.5-.1-.2-.1-.2-.2-.3-.4-.1-.2-.2-.3-.2-.4 0-.1 0-.3-.1-.4l-.1-.1c-.07-.1 0-.2 0-.23.1-.06.1-.1-.06-.1l-.4.3c-.1.1-.2.1-.4.1-.3.1-.3.1-.5-.06-.1 0-.1-.1-.2-.1h-.2c-.2 0-.3.1-.4.2l-.4.2s-.4.2-.5.3c-.2.1-.5-.06-.5-.1-.2-.06-.2-.3-.2-.4l-.1-.2c-.1.1-.2.2-.2.3 0 .1-.1.18-.2.2h-.2v-.5c0-.1-.3-.3-.3-.4-.1-.1-.1 0-.1 0l-.1.2c-.1.2-.1.4-.2.6v.5c0 .1-.1.2-.2.3-.1.1-.1 0-.1-.2v-.5c0-.1-.1-.3-.1-.5-.1-.1-.1-.3-.1-.4-.1-.1-.2 0-.2.1-.1.2-.2.3-.2.4-.2.2-.5.3-.6.5l-.4.2c-.2.1-.4.3-.5.4-.2.1-.1.4-.1.6 0 .2 0 .2-.1.4-.1.1-.2.1-.2.1-.1 0-.1-.1-.2-.1-.1-.1-.2-.2-.4-.2-.2-.1-.3 0-.5.06-.2.1-.4.2-.6.2h-.5c-.1 0-.2-.2-.3-.3l-.3-.3c-.1-.2-.2-.3-.3-.4-.2-.1-.2-.1-.3-.2l-.2-.4c-.1-.1-.1-.3-.1-.4v-.5c0-.2 0-.4-.1-.5s0-.3 0-.5c0-.1-.2-.2-.3-.2-.2-.1-.3-.1-.6-.1H242c-.13 0-.16 0-.23-.1-.03 0-.2-.4-.2-.5 0-.15-.03-.3-.03-.5 0-.14-.03-.3-.06-.43-.04-.1-.02-.3-.06-.45-.04-.2 0-.4 0-.5 0-.2.04-.3.04-.5l.02-.5c0-.2-.1-.3-.27-.4-.1-.1-.3 0-.4 0-.1 0-.3.1-.4.1-.2 0-.2.2-.3.3-.1.1-.1.3-.1.5v.5c0 .1-.2.3-.2.4 0 .2-.3.3-.4.3-.1 0-.4-.1-.6-.1-.1-.1-.3-.4-.3-.5l-.2-.3c-.1-.1-.2-.1-.3-.3-.1-.1-.1-.3-.2-.4-.1-.1-.1-.2-.2-.4l-.2-.5c-.1-.2-.1-.3-.2-.4-.1-.1-.2-.3-.2-.5V154c0-.1.1-.3.1-.4v-.5c0-.2 0-.4.1-.6l.3-.3c0-.2.1-.3.2-.4s.2-.2.4-.25c.1-.04.3-.1.5-.12.2-.1.4-.1.6 0 .2 0 .5.1.7.1.1 0 .2 0 .2.1.1 0 .1.1.3 0 .1 0 .1-.4.1-.5 0-.1-.1-.2 0-.25 0 0 .1-.1.2-.1.2-.1.2-.1.4-.1l.6.05c.1 0 .3.1.4.2h.3c.1 0 .1 0 .2.1s.3.23.4.34c.2.1.4.2.5.2.1.1.1.4.1.5 0 .2.1.3.2.5s.2.5.2.7c0 .2.1.3.2.4.1.2.1.3.3.4.1.1.2.1.4.1.1 0 .3-.1.3-.2s.1-.2.1-.3l-.1-.3c-.1-.2-.1-.4-.2-.7 0-.2-.2-.34-.3-.5-.1-.1-.1-.3-.2-.5 0-.1-.1-.25-.1-.4v-.5c-.1-.2 0-.4.2-.5.1-.1.1-.2.1-.3.2-.16.3-.36.4-.56.1-.1.2-.3.2-.5 0-.1.1-.2.2-.3.1-.1.3-.2.3-.3.1-.1.3-.3.4-.5.1-.1.2-.2.3-.4 0-.2 0-.3.1-.5l.1-.5v-.5s-.1-.3-.2-.5-.2-.2-.3-.3v-.5c0-.1.4-.1.5-.1.1 0 .3-.1.4-.1.1 0 .2-.2.3-.4l.2-.4c0-.2-.1-.4-.1-.5 0-.2.1-.3.2-.4.2-.1.3-.2.5-.2h.5c.2 0 .3-.1.4-.3v-1c0-.1.1-.2.1-.3 0-.1.2-.4.2-.5.1-.1.3-.2.4-.3.1 0 .3-.1.4-.3l.3-.3c.2-.1.2-.3.3-.4.1-.1.1.4 0 .4v.2l.2.2c.1.1 0 .2 0 .3s0 .1.2.1.3-.1.4-.2c.1-.2.2-.2.4-.3l.3-.4c.1-.1.2-.1.4-.3.1-.1.2-.1.4-.2s.1-.2.4-.3c.1 0 .2-.1.3-.3 0-.1-.1-.3-.1-.4 0-.2-.1-.3-.2-.4-.1-.1-.1-.1-.2-.1l-.1.1c-.1.1-.1.4-.2.5-.1.2 0 .3-.2.4-.1.1-.4-.2-.4-.3-.1-.1-.3-.1-.5-.1-.1 0-.1.1-.2.1 0 0-.1 0-.1-.1s-.1-.4-.1-.5l-.1-.2c0-.1 0-.1.1-.2s.2-.1.2-.3c0-.2.1-.3.2-.4.2-.1.1-.2.3-.2.2 0 .4-.1.5-.1.1-.05.1-.1.1-.2s0-.1-.1-.1c-.2 0-.4.1-.6.1-.2 0-.4.2-.5.2-.2.08-.36 0-.5.1-.2.06-.3.2-.5.25-.2.1-.4.3-.4.5-.1.2-.2.4-.4.6-.2.1-.2.1-.4.1-.06 0 .2-.5.2-.6.1-.26.1-.4.3-.6.2-.1.3-.2.4-.3.1-.2.2-.3.4-.33h.6l.5-.03c.2 0 .3-.2.5-.3.15-.1.4-.1.6-.1.2 0 .3-.1.35-.2.1-.13.3-.1.4-.2 0-.05 0-.1.1-.2 0 0 0-.1.1-.1h1c.1 0 .2 0 .2-.05v-.2c0-.1-.1-.3-.2-.4-.2-.1-.2-.2-.3-.4l-.2-.4-.2-.5c-.1-.1-.3-.2-.4-.3-.15 0-.3-.1-.4-.2l-.3-.28c-.15-.1-.2-.1-.3-.2l-.25-.4c-.1-.2-.2-.2-.2-.3v-.5l-.1-.5-.2-.3c-.1-.2 0-.3-.1-.4-.1-.1-.1-.2-.3-.3l-.2-.1h-.2l-.1.4c-.1.1-.2.2-.36.3l-.3.4c0 .1-.3 0-.4 0 0 0-.1-.1 0-.2v-.3c-.1-.2 0-.4 0-.5 0-.1 0-.1.1-.1s.2 0 .2-.1l.1-.1-.1-.2c-.1-.1-.36 0-.5-.1-.2 0-.3 0-.5-.1-.1-.1-.2-.2-.3-.4 0-.1-.2-.1-.34-.1-.2-.06-.4-.06-.5-.06-.2 0-.3.1-.5.1h-.2c-.04 0-.1 0-.1.2-.05.2-.1.3-.2.44-.07.1-.1.3-.1.4 0 .2-.04.3 0 .5.05.1 0 .3 0 .4 0 .2.05.4 0 .5-.05.2-.1.3 0 .5s.2.2.2.4c.1.2 0 .4 0 .5 0 .2-.2.3-.3.4 0 .1-.1.3-.1.4 0 .2-.23.2-.3.3-.2.1-.3.2-.4.3-.1.1-.1.4-.1.5l-.03.5v.5c0 .2.07.3 0 .4 0 .2-.2.3-.3.4-.1 0-.2 0-.25-.1l-.1-.2v-.4l-.1-.5v-.6c0-.2-.1-.3-.1-.4 0-.1-.3-.2-.4-.3-.1-.1-.3-.2-.4-.26-.1-.1-.3-.2-.3-.3-.2-.2-.3-.2-.4-.4-.1-.1-.3-.2-.5-.2s-.4 0-.5-.1c-.1 0-.1-.3-.1-.4V130c0-.2.2-.3.3-.4.1-.2.3-.3.5-.4.1-.2.2-.4.4-.5.2-.2.4-.3.6-.4.16-.1.2-.3.2-.4.1-.2.2-.3.3-.4l.4-.4c.1-.1.4-.1.5-.1l.2.4c0 .1.06.12.1.2s.1.02.2 0c.2 0 .4-.1.6-.2.1 0 .3-.2.4-.3s.1-.3.1-.5v-.4c0-.1-.3-.2-.3-.3-.1 0-.1-.1 0-.2l.1-.2c.1-.1.3-.2.4-.2.2-.1.4-.05.5-.1.2-.1.2-.2.3-.3.2-.2.2-.3.2-.45v-.5c0-.2.2-.3.2-.4l.2-.2.2-.02s.2 0 .2.1c.1.1.1.1.1.2.1.1.1.4.1.5 0 .2-.1.28-.2.3-.1.1.3.3.3.3.04.1 0 .2-.1.3s-.2.28-.2.3c0 .1-.2.25-.2.4-.1.2-.1.26-.4.3-.2.1-.3.2-.46.3-.1.04-.1.1-.1.2 0 .04 0 .1.1.14.1.2.2.2.3.2.3.1.3 0 .5.2l.2.3c.1.2.2.3.2.5 0 .1.36.1.46.2.1.04.3.1.46.1.1.1.2.1.4.16.1 0 .1.1.3.2.1.1.15.1.2 0l.1-.2-.2-.2-.2-.1c-.2-.1-.25-.1-.4-.2-.1-.1-.1-.2-.1-.2s0-.1.1-.2c.06-.1.1-.1.2 0 .07 0 .16.1.2.1 0 .1.1.05.2 0s.1-.15.1-.2c.06-.1.1-.2.1-.4s-.13-.24-.1-.46c.05-.1-.03-.2-.1-.2l-.3-.17c-.13-.1-.2-.1-.3-.3-.03-.1 0-.2.07-.2h.2c.2.1.2.2.3.3.1.2.1.25.3.33.2.1.2.2.3.2.1 0 .1-.3.1-.4 0-.2-.1-.4-.1-.5 0-.1.2-.3.2-.3.1-.1.1-.2 0-.3 0-.1-.1-.1-.1-.2l-.3-.3c-.1-.2-.25-.2-.4-.4h-.1c0 .1-.1.1-.2-.1 0-.2.1-.4.1-.5.1-.2.2-.2.2-.4.07-.1.1-.1.1-.2.1 0 .1 0 0-.1 0-.1-.2-.2-.3-.2-.13-.1-.2-.2-.3-.3-.1-.04-.03-.4-.03-.5 0-.1-.1-.1-.1-.2l-.2-.04h-.4c-.2 0-.4 0-.5-.1-.2 0-.4.1-.5.1h-.5c-.2 0-.2-.1-.4-.1-.1 0-.33.2-.42.2-.1 0-.1 0-.2-.1v-.8s0-.1-.1-.1h-.2zm18.06 2.02c-.1 0-.16.1-.18.18-.03.12-.04.27-.07.36 0 .02-.4-.05-.6.04-.1.04-.2.1-.3.12-.1.04-.1.13 0 .23s.4.1.5.1c.1 0 .2.1.3.2.1.1.3.1.4.2.1 0 .1.2.2.3.1.1.3.1.4.1.2 0 .3-.1.4-.1h.4s.3-.1.4-.1c.1 0 .2-.2.2-.3.1-.1.1-.3.1-.4v-.4c0-.1-.2-.2-.3-.3-.1-.1-.1-.2-.2-.3l-.4-.2c-.1-.1-.2-.1-.3-.2-.1-.1-.2-.1-.3-.1h-.3zm7.34 2.68c-.14.02-.17.22-.17.4 0 .18-.24.34-.3.4-.12.07.4.28.45.3.17.03.32.18.5.2.12.04.34.18.5.25.1 0 .12.1.14.3.03.1.04.3.04.3 0 .2 0 .3.05.5.1.2.1.2.1.4v.2s0 .1.1.2c.2.1.5 0 .7.2l.5.5c.1.1 0 .3.2.4.1.1.4.1.5.1.1 0 .1-.4.2-.5.1-.1.2-.1.3-.2h.4c.2 0 .2.2.1.4 0 .1 0 .1.1.2l.2.1h.4c.2-.1.2-.3.3-.4l.1-.3c0-.1 0-.1.1-.2.2-.1.2-.2.2-.4s-.1-.3-.1-.5c-.1-.2-.3-.3-.5-.4-.1-.1-.1-.2-.1-.4 0-.1-.2-.2-.3-.3-.1-.1-.2-.3-.3-.4-.2-.1-.4-.1-.6-.3-.1-.1-.3-.2-.5-.3-.2-.1-.3-.3-.5-.4-.1-.2-.3-.2-.4-.4-.1-.2-.4-.2-.5-.3-.2-.1-.3-.2-.5-.3-.2-.1-.3-.1-.5-.1 0 0-.1-.1-.2-.1h-.1zm-18.2 9.9c-.07.06-.17 0-.24.04-.07.04-.1.18-.12.25-.03.1-.02.22-.05.33-.1.14 0 .35 0 .46 0 .1-.1.2-.2.3-.1.1-.1.16-.2.24-.1.1-.1.3-.1.42l-.1.36c-.1.08 0 .17 0 .27s.1.2.2.2.1 0 .1-.1 0-.2.1-.2c.1-.1.1-.1.3-.1h.3s.1.1.2.1l.2.2s0 .2.1.2.2.1.3.1h.6c.1 0 .1-.1.1-.2v-.3c0-.1-.1-.1-.1-.2-.1-.1-.2-.2-.3-.2-.2-.1-.3-.1-.3-.2v-.5c0-.1-.1-.1-.1-.2s-.1-.1-.2-.1h-.6c-.1-.1-.2-.1-.2-.2s0-.1-.1-.2c0-.1 0-.1-.1-.2h-.2zm30.97.8c-.1 0-.1.4-.23.5-.1.12-.23.15-.3.24-.17.16-.36.3-.52.46-.13.14-.15.4-.22.58-.05.13 0 .4 0 .54 0 .18-.2.46-.27.63-.05.1-.08.1-.15.1h-.27l-.5.1c-.1 0-.2.3-.2.4v1.2l.1.5c.1.2 0 .3 0 .4l-.1.5c0 .1.2.3.2.5s.1.4 0 .6c0 .1.1.3.1.5l.2.5c.1.1-.4.6-.4.7 0 .1-.1.3-.2.5-.1.1.1.3.1.5v.5l.1.7c0 .2-.2.5-.2.7 0 .2 0 .4.1.6.1.1 0 .4-.1.5 0 .2.1.5.1.7v.1c0 .3.3.8.3 1.1 0 .2-.1.3-.1.5-.1.2 0 .3.1.5.1.3 0 .5-.1.7-.1.1-.1.2-.1.3.1.1.1.2.1.3.1.2.1.4.1.7.1.2 0 .5 0 .7 0 .1 0 .2-.1.3 0 .1-.1.2 0 .4 0 0 0 .1.1.1 0 .1.4.4.5.6.1 0 .1.1.2.2v.2c0 .2 0 .4.2.5.1.1.3.1.4.2.1.1.1.5.1.6 0 .2 0 .3.1.4l.3.3.2.1c.2.1.2.3.3.5l.5.3c.1.1.2 0 .3 0l.3-.2c.2-.2.4-.3.5-.5.2-.3.4-.6.5-.9 0-.1.1-.2.2-.3.1-.1.2-.1.3-.2l.4-.4c.1-.2.3-.3.5-.3l.3.3c.1.1.1.2.2.3 0 .2-.1.4-.2.5-.1.2-.1.4-.2.6-.2.2-.2.5-.3.7-.2.2-.1.6-.2.9 0 .1-.1.3-.1.5 0 .1-.1.5-.1.6 0 .2-.2.4-.3.6l-.3.8-.3.6c-.1.1-.2.3-.2.5s-.1.3-.2.5l-.1.4c-.1.3-.5.8-.7 1.1-.2.2-.5.5-.6.7l-.2.4-.3.7c-.1.2-.2.2-.3.4l-.2.3c4.8-5.6 7.7-12.8 7.7-20.7 0-4.1-.8-7.9-2.1-11.5-.1 0-.3.1-.5.1-.1 0-.1.1-.2.2l-.1.3c0 .2 0 .4.1.6s.2.4.3.5l.1.2s-.1.1-.2.1-.2 0-.3-.1l-.1-.2c-.12-.1-.3-.3-.5-.4l-.42-.2c-.1 0-.2-.3-.3-.4-.1-.2-.1-.3-.1-.5s-.2-.4-.2-.5l-.2-.4c-.1-.2-.2-.3-.3-.4h-.1zm-39.5 17.35h-.08c-.1.1-.1 0-.3 0 0 0 .4.5.5.6 0 0 .1.1.2.1l.3-.1c.1-.1.2-.1.1-.2 0-.1-.1-.2-.2-.3-.2-.1-.3-.2-.5-.2-.2-.1-.2-.1-.3-.1zm.38 1.3c-.13 0-.3.1-.38.1-.05 0 0 .1.04.2l.2.2c.1.1.5.1.6.1.1 0 .2-.1.2-.2v-.3c0-.2-.2-.3-.2-.4l-.2-.2h-.1zm-1.7 1.1c-.23 0-.45 0-.68.2-.27.2-.6.6-.8.6.05.1.08.2.15.2h.3c.18-.1.3-.2.45-.2.17-.1.3-.2.46-.2.23 0 .37 0 .56.1l.4.2c.1.1.3.1.4.3.1.1.3.2.5.3.1.1.3.2.5.3.1.1.2.3.4.3h.3c.1-.1.2-.1.4-.1h.5c.2 0 .3 0 .4-.1s.1-.1.1-.2 0-.1-.2-.2l-.5-.2c-.3-.1-.2-.2-.4-.3-.3-.1-.3-.2-.6-.2-.2-.1-.5-.1-.6-.3-.2-.1-.2-.4-.4-.4-.3-.1-.5-.3-.8-.4-.3 0-.6-.1-.9-.1h-.3zm5.57 1.9h-.15c-.2 0-.7 0-.73.1l-.1.1c-.07.1-.05.1-.02.2.03 0 .1 0 .17.1l.1.2s0 .1-.1.2c0 0-.5.2-.4.2 0 .1.1.1.3.1h.5c.1 0 .4.1.5.1l.6-.3c.1-.2.1-.1.4-.2l.2-.1c0-.1.1-.1.1-.2s-.2-.3-.3-.3c-.2 0-.4 0-.5-.1-.2-.1-.2-.3-.4-.3-.1-.1-.3-.1-.4-.1zm2.37.7c-.1 0-.1 0-.1.2v.2c0 .1.3.1.5.1h.2v-.2c-.1-.2-.1-.3-.3-.4-.2-.1-.3-.1-.4-.1zm1.8.1c-.1 0-.1.1-.1.2s0 .2.2.2h.4s0-.1-.1-.2-.2-.2-.3-.2c-.1-.1-.2-.1-.4-.1zm-6.8.2h-.1s-.3 0-.5.1c-.1 0-.2.1-.2.1s-.1.1 0 .2 0 .2 0 .2.1.1.2.1c.2.1.4.1.5 0 .1-.1.2-.3.2-.5s-.1-.3-.2-.3h-.1zm7.6.7c-.1 0-.1.2 0 .3.1.1.2.1.3 0 .1-.1 0-.1 0-.2l-.2-.1h-.2zm.6.9c-.1 0-.3.2-.3.3 0 .1.1.1.2 0l.2-.1c.1-.1-.1-.2-.2-.3zm.1.7v-.1h-.1zm0 0c-.1 0-.3.2-.4.3 0 .1.4 0 .4 0 .1-.1-.1-.2-.1-.3zm.8.2c0 .1-.1.4 0 .4.1.1.2.1.2 0v-.2s-.1-.2-.2-.3z"/>
  </g>
</svg>
