<svg xmlns="http://www.w3.org/2000/svg" viewBox="0 0 64 64">
  <defs>
    <clipPath id="a">
      <path fill="#f2f2f2" stroke="#de8787" stroke-width=".01" d="m-89.042 141.44c0.70109-0.28675 1.4673-0.63991 1.9117-0.6296-0.04369 0.46256-0.13508 1.3408-0.2949 1.5631-0.54835 0.19981-1.2934-0.49795-1.6168-0.93348z"/>
    </clipPath>
    <clipPath id="b">
      <path fill="#f9f9f9" stroke="#de8787" stroke-width=".02" d="m-48.26 127.53c0.93491-0.3168 1.8111-0.3491 2.3343-0.3384 0.14505 0.4416-0.12068 1.5433-0.48283 1.8779-0.37764-0.093-1.327-1.0415-1.8515-1.5395z"/>
    </clipPath>
  </defs>
  <circle cx="32" cy="32" r="31.82" fill="#e35a4e" fill-rule="evenodd" style="text-decoration-color:#000000;isolation:auto;mix-blend-mode:normal;text-decoration-line:none;text-decoration-style:solid" color="#000" solid-color="#000000"/>
  <path fill="#fff" d="m32.586 9.75c-2.0088-0.00075-6.1 0.54229-10.082 2.3418-3.8832 1.7549-6.4188 4.7391-7.0664 11.166-0.20845 0.63503-0.47766 1.376 0.05078 2.0273 0.22609 0.27868 0.39168 0.63463 0.43164 1.0625 0.004 0.0517-0.001 0.11029 0 0.16406-0.008-0.057-0.0171-0.11407-0.0332-0.16797l0.03125 0.3457c-0.0126 0.20525-0.05016 0.42274-0.125 0.6543-0.12242 0.33284-0.31867 0.68824-0.58203 1.0684-0.97303 1.4046-1.3761 1.8483-2.0605 2.8965-0.85178 1.3044-2.0063 3.0854-0.45898 4.0098 0.48186 0.28781 1.2977 0.48923 1.9512 0.76758 0.0242 0.0118 0.04837 0.02876 0.07227 0.03906 0.47637 0.20504 0.13898 1.2671 0.11328 1.8203 0.44665 0.43546 0.69574 0.85768 0.91406 1.4629-0.46561 0.88751-0.31774 1.4364 0.14453 1.7871 0.0517 0.0392 0.17845 0.04114 0.33789 0.02344 0.0576 0.32003 0.11073 0.5964 0.22656 0.7207-0.15999 1.6442-1.2268 1.769-0.0078 4.1133 1.2062 2.319 3.1652 1.5728 6.084 1.0234 0.20441-0.0385 0.65292-0.17409 1.0938-0.30664 0.22256 3.9657 0.1009 5.6425-1.332 6.4297-2.0139 1.1064-6.9296 2.8676-10.205 3.582a31.821 31.821 0 0 0 19.915 7.041 31.821 31.821 0 0 0 19.512 -6.703c-4.2863-1.3538-10.258-3.668-10.982-4.8086-0.36344-0.57197-0.37459-2.6393-0.30469-5.8848 1.0526 0.20105 2.1086 0.36288 3.209 0.4668 4.2946 0.40557 4.3785-1.3407 4.4688-2.0234 0.17009-1.2874-0.46879-2.5297 0.52539-3.3691-0.72733-0.76836-0.09152-2.5061 0.81055-3.3008-0.16217-0.25679-0.36706-1.02 0.05859-1.5898 0.54661-0.73183 1.157-0.44239 2.0215-1.4766 0.70687-0.84572-0.0108-2.0502-0.79883-3.0176-0.47275-0.58038-1.1694-1.7107-1.5098-2.3066-0.89028-1.5585-0.34616-2.0755-0.22656-2.9121 0.0929-0.64919 0.59506-2.0995 0.08789-4.4531-0.47163-4.001-1.9203-6.925-4.2012-9.0273-3.3229-3.0628-9.0511-3.6647-12.084-3.666z"/>
  <path fill="#e35a4e" d="M41.797 27.884c.56072-1.1066 1.4937-1.8796 2.6888-1.5255 1.1583.34326 2.3431.62268 2.6204.53871-.0465-.30559.45842-.5817.26827-.77274-.94515-.0689-2.1361-.55991-3.1742-.63176-1.0382-.0719-2.1582 1.4336-2.4032 2.3913zM44.283 29.324c.51104-.26391 1.067-.58259 1.4033-.60375-.003.35479-.0152 1.0289-.1215 1.2084-.40132.1878-1.0093-.29444-1.2818-.60469z"/>
  <g clip-path="url(#a)" transform="matrix(.7554 -.0653 .0648 .7608 102.38 -84.098)">
    <circle cx="460.99" cy="434.08" r="9.55" fill="#fff" stroke="#fff" stroke-width="1.34" transform="matrix(.0276 .0026 -.0128 .1344 -94.623 81.947)"/>
    <path fill="#fff" d="m-87.344 140.22c-0.14542-0.0138-0.30766 0.54065-0.375 1.25-0.02693 0.28374-0.01176 0.53441 0 0.75 0.05564-0.33928 0.17259-0.59375 0.25-0.59375 0.09358 0 0.15514 0.36184 0.15625 0.65625 0.05443-0.21298 0.09716-0.45676 0.125-0.75 0.06734-0.70935-0.01083-1.2987-0.15625-1.3125z"/>
    <circle cx="460.99" cy="434.08" r="9.55" fill="#e35a4e" transform="matrix(.0103 .001 -.0047 .05 -90.123 119.35)"/>
  </g>
  <path fill="#e35a4e" d="m45.083 28.415c0.16016 0.10345 0.12846 0.2432 0.11165 0.30398 0.12736-0.10293 0.21575-0.26506 0.17472-0.44041 0.13478 0.14302 0.10025 0.25509 0.0924 0.28973 0.14443-0.0392 0.24668-0.30757 0.17521-0.43914 0.1559 0.13555 0.11541 0.3257 0.0863 0.38773 0.10182-0.0358 0.20963-0.078 0.20467-0.30874 0.14266 0.24816 0.005 0.75591-0.21641 0.66323-0.31737-0.13278-0.71576 0.20834-1.3429 0.47608 0.28605-0.24123 0.74009-0.40878 0.71437-0.93246z" color="#000"/>
  <path fill="#fff" fill-rule="evenodd" d="m47.128 39.627c0.82839-1.436 1.2404-1.1514 1.7873-0.61241 0.0589 0.44854 0.0221 1.6066-0.25442 1.8047-0.50212 0.58091-0.60543-0.19675-1.5329-1.1923z"/>
  <path fill="#fff" fill-rule="evenodd" d="m47.312 39.693c-0.51247-0.11498-0.0858 0.16974-0.40579 0.10565 0.46488 0.50082 0.74537 1.8908 1.7121 1.8361 0.52992-0.03 1.0408-0.77502 0.2815-1.7675-0.0105 0.26425-0.0559 0.45212-0.1386 0.64997-0.44205 0.0885-0.72231-0.67349-1.4492-0.82429z"/>
  <path fill="#e35a4e" fill-rule="evenodd" d="m46.74 39.651c0.39647 0.24474 0.9605 0.21514 1.6859-0.30434 0.24626-0.17635 0.44026 0.0559 0.52881-0.0197 0.0127 0.10245-0.0113 0.27826-0.001 0.36536 0.59643-0.39227 0.73553-1.3036 0.26885-1.5661-0.17386-0.0978-0.0968 0.3752-0.20506 0.30434-0.10826-0.0709-0.23402-0.39835-0.42473-0.24231-0.135 0.11048-1.1146 1.0653-1.8525 1.4622z"/>
  <path fill="#e35a4e" d="m21.217 28.097c-0.66607-0.34375-1.3197-0.46605-1.7133-0.51641-0.1578 0.31737-0.0807 1.1792 0.15382 1.4725 0.29355-0.028 1.1108-0.63847 1.5595-0.95605z"/>
  <g clip-path="url(#b)" transform="matrix(-.75 -.1117 -.111 .7554 -.832 -73.628)">
    <circle cx="476.92" cy="401.69" r="9.8" fill="#fff" stroke="#fff" stroke-width="2.43" transform="matrix(.0326 .0015 -.0067 .1457 -59.102 68.482)"/>
    <path fill="#fff" d="m-291.75 126.31c-0.17637-0.008-0.36978 0.61767-0.40625 1.4062-0.0137 0.29572 0.007 0.55177 0.0312 0.78125 0.0559-0.38532 0.21307-0.78125 0.3125-0.78125 0.095 0 0.19179 0.4337 0.1875 0.875 0.0518-0.23776 0.11001-0.51966 0.125-0.84375 0.0365-0.78858-0.0736-1.4293-0.25-1.4375z" transform="translate(245.56)"/>
    <circle cx="476.92" cy="401.69" r="3.89" fill="#e35a4e" transform="matrix(.0326 .0015 -.0067 .1457 -59.102 68.482)"/>
  </g>
  <path fill="#e35a4e" d="M16.373 24.662c-.33667.73441.49078 1.6296.98499 1.703.25036.0373 3.0018-.93965 3.5575-.89531.8309.0667 1.3609-.34178 3.6198 1.667-1.5303-2.2447-2.3726-3.0132-3.9808-3.0158-1.7237-.003-3.7162 1.6494-4.1815.54123zM19.25 39.124c-.75886.48698-2.176.62332-2.5059.41263-.66458-.42448-1.0045.0402-1.4404-.21946-.47007-.27969-.70716-1.3523-.44358-1.5156.71085.1522 1.0864-.069 2.1647.93982.58186.54438 1.377.66796 2.2253.38235z"/>
  <path fill="#e35a4e" d="m13.179 35.28c0.09865-0.05407 0.19462-0.0981 0.28768-0.13324 0.53636-0.22809 0.98514-0.15673 1.3349-0.0045 0.24314 0.10581 0.44785 0.25448 0.61934 0.39601 0.1282 0.07366 0.26612 0.15945 0.36632 0.2113 0.29559 0.15532 0.63345 0.14119 0.8992 0.03611 0.23532-0.09304 0.43537-0.2651 0.51693-0.48984 0.01109-0.03133 0.01979-0.06347 0.02592-0.0963 0.0502-0.26545-0.10288-0.56622-0.26534-0.79026-0.08522-0.11753-0.18034-0.22405-0.2695-0.30754-0.08925-0.08358-0.17317-0.14464-0.23468-0.16993 0.05061 0.04075 0.12014 0.1149 0.19275 0.20827 0.07304 0.09393 0.14981 0.20806 0.21528 0.32978 0.13671 0.25414 0.20553 0.50714 0.14148 0.67258-0.0076 0.01991-0.01666 0.039-0.02711 0.05724-0.0727 0.13062-0.22152 0.2301-0.39903 0.27302-0.20562 0.04972-0.42189 0.01781-0.57692-0.09352 1.2082 0.84125-1.4783-1.0377-0.33107-0.23958-0.21668-0.10516-0.4822-0.22451-0.78093-0.29018-0.44422-0.09764-0.93718-0.07134-1.4573 0.23897-0.0857 0.05588-0.17167 0.11953-0.25796 0.19159z" color="#000"/>
  <path fill="#e35a4e" d="m47.822 34.243c-0.27593 0.24875-0.38091 0.59074-0.38167 0.90754-0.000708 0.29795 0.0952 0.61215 0.26106 0.74851 0.05106 0.04105 0.1058 0.07656 0.16322 0.10661 0.45477 0.13988 0.94354-0.05303 1.132-0.35338a0.010125 0.013163 0.12253 0 0 -0.0142 -0.01855c-0.000018 0.000019-0.0064 0.0065-0.0064 0.0065-0.03157 0.0064-0.06469 0.0082-0.09269 0.0047-0.0298-0.0037-0.05518-0.01475-0.05418-0.02471 0.000461-0.0046 0.0076-0.0034 0.01355 0.0022 0.0062 0.0059 0.0068 0.01029 0.01194 0.0075 0.00007-0.000038 0.04283-0.03805 0.08802-0.07089 0.04698-0.0314 0.13494-0.07218 0.26285-0.11253 0.12291-0.03878 0.2675-0.07225 0.40747-0.09076 0.01452-0.0019 0.02897-0.0037 0.0433-0.0053 0.12297-0.02553 0.23491-0.03718 0.32172-0.03245 0.09998 0.0054 0.13733 0.03274 0.14441 0.04251-0.0052-0.02196 0.0064-0.04062 0.0059-0.02875-0.000351 0.0076-0.01009 0.02426-0.02847 0.04409-0.03721 0.04014-0.10133 0.08577-0.17878 0.12512-0.15609 0.07932-0.34894 0.12574-0.48 0.07635 0.12374 0.14008 0.35145 0.10974 0.53187 0.04626 0.09038-0.0318 0.17545-0.07405 0.2372-0.11939 0.03044-0.02236 0.06044-0.04925 0.08135-0.08055 0.02064-0.03089 0.04115-0.0798 0.0226-0.13681-0.04527-0.13588-0.18413-0.18828-0.30762-0.20854-0.11721-0.01924-0.2559-0.01507-0.39406 0.002-0.01603 0.0034-0.03208 0.0069-0.04812 0.0106-0.15319 0.03539-0.30819 0.08666-0.43878 0.14352-0.12857 0.05597-0.24189 0.12069-0.30638 0.18817-0.05338 0.05765-0.08725 0.11084-0.09757 0.15943-0.0054 0.02543-0.005 0.05315 0.0071 0.07805 0.01232 0.02542 0.03274 0.03957 0.05223 0.04639 0.03491 0.01221 0.07666 0.0045 0.1088-0.0056 0.03218-0.01008 0.06527-0.02587 0.09319-0.04478-0.000024 0.000001 0.0097-0.000594 0.0096-0.000593l-0.0142-0.01855c-0.25512 0.23225-0.70062 0.25954-0.99399 0.08408-0.04379-0.01247-0.08689-0.02922-0.12855-0.05072-0.09532-0.02801-0.23391-0.24337-0.2777-0.52953-0.0426-0.27843 0.0036-0.61952 0.24407-0.89778z"/>
</svg>
