<svg xmlns="http://www.w3.org/2000/svg" viewBox="0 0 64 64">
  <circle cx="32" cy="32" r="31.82" fill="#e35a4e" fill-rule="evenodd" style="text-decoration-color:#000000;isolation:auto;mix-blend-mode:normal;text-decoration-line:none;text-decoration-style:solid" color="#000" solid-color="#000000"/>
  <path fill="#fff" d="M28.9 46.52v6.34h6.33v-6.34H28.9zm-9.3-21.68h4.84c-.03-3.08.86-6.6 3.68-8.27 2.48-1.54 5.94-1.6 8.4.02 2.8 2.04 3.43 6.17 2.16 9.27-1.75 3.98-6.16 5.9-7.93 9.9-1.17 2.2-1.07 4.73-1.06 7.15h4.83c0-2.23-.14-4.6 1.2-6.52 2.35-3.57 6.56-5.78 8-9.98 1.66-4.62.3-10.53-3.98-13.26-4.3-2.65-10.14-2.76-14.44-.1-3.92 2.5-5.9 7.23-5.72 11.78z" style="line-height:125%;-inkscape-font-specification:'.Helvetica Neue Desk UI'" font-family=".Helvetica Neue Desk UI" letter-spacing="0" word-spacing="0"/>
</svg>
