<svg xmlns="http://www.w3.org/2000/svg" viewBox="0 0 64 64">
  <circle cx="32" cy="32" r="31.82" fill="#e35a4e" fill-rule="evenodd" style="text-decoration-color:#000000;isolation:auto;mix-blend-mode:normal;text-decoration-line:none;text-decoration-style:solid" color="#000" solid-color="#000000"/>
  <path fill="#fff" d="M26.2 44.7c11.8 0 18.24-9.77 18.24-18.24 0-.28 0-.56-.02-.83 1.26-.9 2.34-2.04 3.2-3.32-1.15.54-2.38.88-3.68 1.04 1.32-.8 2.34-2.05 2.82-3.55-1.24.73-2.6 1.26-4.07 1.55-1.2-1.25-2.87-2.03-4.7-2.03-3.55 0-6.4 2.88-6.4 6.4 0 .53.04 1 .15 1.48-5.33-.26-10.06-2.8-13.22-6.7-.55.95-.86 2.05-.86 3.23 0 2.23 1.12 4.2 2.84 5.34-1.04-.03-2.03-.32-2.9-.8v.08c0 3.12 2.2 5.7 5.15 6.3-.54.14-1.1.22-1.7.22-.4 0-.8-.04-1.2-.1.82 2.54 3.18 4.4 6 4.44-2.2 1.73-4.97 2.75-7.97 2.75-.5 0-1.03-.03-1.53-.08 2.84 1.8 6.2 2.87 9.83 2.87"/>
</svg>
