<svg xmlns="http://www.w3.org/2000/svg" viewBox="0 0 64 64">
  <circle cx="32" cy="32" r="31.82" fill="#e35a4e" fill-rule="evenodd" style="text-decoration-color:#000000;isolation:auto;mix-blend-mode:normal;text-decoration-line:none;text-decoration-style:solid" color="#000" solid-color="#000000"/>
  <path fill="#fff" d="M32.2 10.64h-.48c-2.47.1-4.8 1.78-5.7 4.08-.23.6-.35 1.22-.4 1.86-.5-.47-1.1-.88-1.74-1.14-2.33-.97-5.2-.4-7 1.4s-2.34 4.65-1.38 6.98c.27.66.7 1.24 1.17 1.76-.7.04-1.42.16-2.08.43-2.4 1-4 3.5-4 6s1.6 5 3.9 5.9c.66.3 1.4.4 2.13.4-.5.6-.95 1.2-1.24 1.9-.96 2.33-.4 5.2 1.4 7s4.65 2.34 7 1.38c.65-.25 1.23-.7 1.76-1.15.03.7.15 1.4.42 2.08.95 2.34 3.4 3.98 5.9 3.98s4.97-1.65 5.94-3.97c.3-.66.4-1.4.42-2.13.53.5 1.1.9 1.77 1.18 2.33.98 5.2.4 7-1.4s2.34-4.64 1.38-7c-.26-.62-.7-1.2-1.16-1.73.7-.04 1.45-.16 2.1-.43 2.35-.98 3.98-3.4 3.98-5.94s-1.62-5-3.96-5.96c-.63-.24-1.3-.4-2-.4.46-.5.84-1.08 1.1-1.7.96-2.34.4-5.2-1.4-7s-4.65-2.36-6.98-1.4c-.7.27-1.27.7-1.8 1.18-.04-.74-.16-1.5-.47-2.2-.96-2.2-3.26-3.73-5.66-3.82zm-.35 3.06a3.35 3.35 0 0 1 2.52 5.72v6.86l4.85-4.86a3.35 3.35 0 1 1 3.35 3.36l-4.78 4.78h6.7a3.35 3.35 0 1 1 0 4.75h-6.8l4.83 4.9a3.35 3.35 0 1 1-3.35 3.4l-4.8-4.84v6.9a3.35 3.35 0 1 1-4.7 0V37.8l-4.9 4.8a3.35 3.35 0 1 1-3.37-3.36l4.9-4.9h-6.9a3.35 3.35 0 1 1 0-4.76h6.86l-4.9-4.85a3.35 3.35 0 1 1 3.34-3.34l4.84 4.8v-6.8a3.35 3.35 0 0 1 2.22-5.76z" image-rendering="optimizeQuality" shape-rendering="geometricPrecision"/>
</svg>
