<svg xmlns="http://www.w3.org/2000/svg" viewBox="0 0 64 64">
  <defs>
    <clipPath id="b">
      <path fill="#f9f9f9" stroke="#de8787" stroke-width=".02" d="M-48.26 127.53c.93-.32 1.8-.35 2.33-.34.15.4-.12 1.5-.48 1.8-.4-.1-1.4-1.1-1.9-1.6z"/>
    </clipPath>
    <clipPath id="a">
      <path fill="#f2f2f2" stroke="#de8787" stroke-width=".01" d="M-89.04 141.44c.7-.3 1.47-.64 1.9-.63-.03.5-.13 1.4-.3 1.6-.53.2-1.28-.5-1.6-.9z"/>
    </clipPath>
  </defs>
  <circle cx="32" cy="32" r="31.82" fill="#e35a4e" fill-rule="evenodd" style="text-decoration-color:#000000;isolation:auto;mix-blend-mode:normal;text-decoration-line:none;text-decoration-style:solid" color="#000" solid-color="#000000"/>
  <path fill="#fff" d="M32.6 7.3c-2.47 0-6.72.57-11.1 2.56-4.35 1.96-7.57 6-8.4 12.64-.1.3-.3.8-.36 1.57-.05.7.17 1.68.7 2.48v.03c-.03.1-.1.22-.25.44-1 1.34-1.4 1.8-2.1 2.95-.5.65-1.1 1.53-1.5 2.83-.2.65-.3 1.48 0 2.4.3.9 1 1.75 1.8 2.22.4.28.6.26.9.4-.1.7.2 1.4.7 1.88 0 .07.1.15.1.2-.1.3-.3.56-.2.9.1.63.4 1.17.7 1.64-.1.18-.1.17-.2.7-.3 1.07-.1 2.6.7 4.04.9 1.74 2.9 2.86 4.5 2.9.9.04 1.6-.18 2.4-.33v1c-.1.26-.1.3-.1.3-1.5.83-6.6 2.7-9.6 3.34-.5 0-1 .3-1.6.5.6.6 1.3 1.2 2 1.8 3.3-.7 8.2-2.5 10.2-3.6 1.4-.8 1.5-2.5 1.3-6.5-.5.1-.9.2-1.1.3-2.9.5-4.9 1.3-6.1-1-1.2-2.4-.2-2.5 0-4.1-.1-.2-.2-.4-.2-.8h-.3c-.5-.4-.6-.9-.1-1.8-.3-.6-.5-1.1-.9-1.5 0-.6.3-1.6-.2-1.8l-.1-.1c-.7-.3-1.5-.5-2-.8-1.6-1-.4-2.7.4-4 .7-1.1 1.1-1.5 2.04-2.9.25-.4.45-.8.6-1.1.05-.3.1-.5.1-.7V26v.2-.16c-.05-.4-.2-.8-.4-1.05-.58-.7-.3-1.4-.1-2.1.65-6.4 3.2-9.4 7.07-11.2 4-1.8 8.06-2.4 10.1-2.4 3 0 8.73.6 12.05 3.7 2.25 2.1 3.7 5 4.2 9 .5 2.3 0 3.8-.1 4.4-.1.8-.7 1.3.2 2.9.35.6 1.05 1.7 1.5 2.3.8.9 1.5 2.1.8 3-.86 1-1.5.7-2 1.5-.44.5-.23 1.3-.07 1.6-.6 1-1.5 2.5-.8 3.3-1 .8-.4 2.1-.5 3.3-.1.7-.2 2.4-4.5 2-1.1-.1-2.2-.28-3.2-.48-.1 3.23-.1 5.3.3 5.87 1 1.6 6.5 3.8 11.1 4.73v-.05a31.82 31.82 0 0 0 2.2-1.9c-.6-.2-1.3-.4-1.8-.5-2.1-.4-4.5-1.18-6.4-1.98-1-.4-1.8-.86-2.4-1.2-.4-.3-.4-.3-.5-.4 0-.2-.1-.5-.1-.9V49l.6.1c2.5.24 4.3-.06 5.6-1.15 1.36-1.1 1.5-2.82 1.56-3 .2-1.07 0-1.8 0-2.1.6-.7.8-1.62.46-2.45.1-.28.37-.7.65-1.2.3-.46.4-1.02.3-1.57.5-.24 1-.5 1.56-1.14 1-1.2.95-2.9.6-3.9s-.9-1.7-1.4-2.3c-.2-.3-1-1.5-1.26-2l-.16-.3s.1-.3.24-1.1c0 0 .2-.8.3-1.7.1-1 .04-2.2-.26-3.6-.6-4.3-2.3-7.8-5-10.3-4-3.7-10.16-4.1-13.5-4.1zM12.1 56.8c1 .8 2.03 1.53 3.1 2.2a31.82 31.82 0 0 0 .43.26c1.65.98 3.37 1.82 5.16 2.5a31.82 31.82 0 0 0 .2.1c1.8.66 3.7 1.17 5.7 1.5-5.1-.94-10.2-3.13-14.7-6.55z"/>
  <path fill="#fff" d="M41.8 27.88c.56-1.1 1.5-1.88 2.7-1.52 1.14.34 2.33.62 2.6.54-.04-.3.46-.58.27-.78-.94-.06-2.13-.56-3.17-.63-1.04-.1-2.16 1.4-2.4 2.3zm2.48 1.44c.5-.26 1.07-.58 1.4-.6 0 .36 0 1.03-.12 1.2-.4.2-1-.3-1.28-.6z"/>
  <g clip-path="url(#a)" transform="matrix(.7554 -.0653 .0648 .7608 102.38 -84.098)">
    <circle cx="460.99" cy="434.08" r="9.55" fill="#e35a4e" stroke="#fff" stroke-width="1.34" transform="matrix(.0276 .0026 -.0128 .1344 -94.623 81.947)"/>
    <path fill="#e35a4e" d="M-87.34 140.22c-.15 0-.3.54-.38 1.25-.03.28 0 .53 0 .75.06-.34.17-.6.25-.6.1 0 .16.37.16.66l.1-.75c0-.7 0-1.3-.2-1.3z"/>
    <circle cx="460.99" cy="434.08" r="9.55" fill="#fff" transform="matrix(.0103 .001 -.0047 .05 -90.123 119.35)"/>
  </g>
  <path fill="#fff" d="M45.08 28.4c.16.13.13.27.1.33.14-.1.23-.27.2-.44.12.1.1.2.08.3.15-.1.25-.4.18-.5.15.1.1.3.08.4.1-.1.2-.1.2-.3.15.2 0 .7-.2.6-.33-.2-.72.2-1.35.4.28-.3.74-.4.7-1z" color="#000"/>
  <path fill="#e35a4e" fill-rule="evenodd" d="M47.13 39.63c.83-1.44 1.24-1.15 1.8-.62.04.5 0 1.7-.27 1.9-.5.6-.6-.2-1.53-1.2z"/>
  <path fill="#e35a4e" fill-rule="evenodd" d="M47.3 39.7c-.5-.12-.07.16-.4.1.47.5.75 1.9 1.72 1.83.53-.03 1.04-.77.28-1.76 0 .26-.06.45-.14.65-.44.1-.72-.68-1.45-.83z"/>
  <path fill="#fff" fill-rule="evenodd" d="M46.74 39.65c.4.25.96.22 1.7-.3.23-.18.43.05.5-.02.03.1 0 .28 0 .36.6-.4.75-1.3.28-1.6-.17-.1-.1.3-.2.3s-.24-.4-.43-.3c-.2.1-1.2 1-1.9 1.4z"/>
  <path fill="#fff" d="M21.22 28.1c-.67-.35-1.32-.47-1.72-.52-.15.32-.08 1.18.16 1.47.3-.02 1.1-.64 1.56-.95z"/>
  <g clip-path="url(#b)" transform="matrix(-.75 -.1117 -.111 .7554 -.832 -73.628)">
    <circle cx="476.92" cy="401.69" r="9.8" fill="#e35a4e" stroke="#fff" stroke-width="2.43" transform="matrix(.0326 .0015 -.0067 .1457 -59.102 68.482)"/>
    <path fill="#e35a4e" d="M-46.2 126.3c-.17 0-.36.63-.4 1.42 0 .3 0 .55.03.78.06-.4.22-.78.32-.78s.2.43.18.87c.06-.3.1-.6.13-.9.04-.8-.07-1.5-.25-1.5z"/>
    <circle cx="476.92" cy="401.69" r="3.89" fill="#fff" transform="matrix(.0326 .0015 -.0067 .1457 -59.102 68.482)"/>
  </g>
  <path fill="#fff" d="M16.37 24.66c-.33.74.5 1.63 1 1.7.24.04 3-.93 3.55-.9.83.08 1.36-.33 3.62 1.68-1.54-2.25-2.38-3.02-4-3.02-1.7 0-3.7 1.65-4.17.54zm2.88 14.46c-.76.5-2.18.63-2.5.42-.67-.43-1 .04-1.45-.22-.47-.28-.7-1.36-.44-1.52.7.15 1.1-.07 2.16.94.6.55 1.38.67 2.23.38z"/>
  <path fill="#fff" d="M13.18 35.28c.1-.05.2-.1.3-.13.52-.23.97-.16 1.32 0 .24.1.45.25.62.4l.37.2c.2.15.6.14.9.04.2-.1.4-.3.5-.5v-.1c0-.3-.1-.6-.3-.8l-.3-.3c-.1-.1-.2-.2-.3-.2l.2.2.2.3c.1.2.2.5.1.6h-.1c-.1.1-.3.2-.4.2-.2 0-.5 0-.6-.1 1.2.8-1.5-1.1-.4-.3-.2-.1-.5-.2-.8-.3-.4-.1-.9-.1-1.5.2-.1 0-.2.1-.3.2z" color="#000"/>
  <path fill="#fff" d="M47.82 34.24c-.27.25-.38.6-.38.9 0 .3.1.62.26.76.05.04.1.08.16.1.46.15.95-.05 1.14-.35l-.02-.02c-.04.02-.07.02-.1 0h-.05.02l.1-.07c.04-.03.13-.07.26-.1.2-.05.3-.1.4-.1h.1c.1-.04.3-.05.3-.04.1 0 .2.03.2.04v-.03.05c0 .04-.1.08-.1.12-.1.08-.3.13-.5.08.1.14.4.1.6.04l.3-.12.1-.08c0-.03.1-.08 0-.13 0-.2-.1-.2-.3-.3h-.4l-.4.1c-.1 0-.2.1-.3.2-.1 0-.1.1-.1.1v.1h.2c.1 0 .1-.1.1-.1v-.1c-.2.2-.7.3-1 .1l-.1-.1c-.1-.1-.2-.3-.3-.6 0-.3 0-.6.3-.9z"/>
</svg>
