<svg xmlns="http://www.w3.org/2000/svg" viewBox="0 0 64 64">
  <g transform="translate(-225.714 -116.934)">
    <circle cx="257.71" cy="148.93" r="31.82" fill="#e35a4e" fill-rule="evenodd" style="text-decoration-line:none;text-decoration-style:solid;text-decoration-color:#000000;isolation:auto;mix-blend-mode:normal" color="#000" overflow="visible" solid-color="#000000"/>
    <path fill="#fff" d="M251.92 161.63c11.8 0 18.24-9.77 18.24-18.24 0-.3 0-.57-.02-.85 1.25-.9 2.34-2.03 3.2-3.32-1.15.5-2.4.86-3.7 1 1.34-.78 2.35-2.04 2.83-3.53-1.24.74-2.6 1.28-4.07 1.56-1.17-1.24-2.83-2.02-4.68-2.02-3.54 0-6.4 2.87-6.4 6.4 0 .5.05 1 .16 1.47-5.33-.25-10.05-2.8-13.2-6.7-.56.97-.88 2.07-.88 3.24 0 2.23 1.13 4.2 2.85 5.34-1.05-.03-2.04-.32-2.9-.8v.08c0 3.1 2.2 5.7 5.14 6.28-.56.15-1.1.23-1.7.23-.4 0-.8-.04-1.2-.12.8 2.55 3.17 4.4 5.97 4.45-2.2 1.7-4.95 2.74-7.96 2.74-.5 0-1.02-.03-1.52-.1 2.83 1.83 6.2 2.9 9.82 2.9"/>
  </g>
</svg>
