<svg xmlns="http://www.w3.org/2000/svg" id="svg2" viewBox="0 0 64 64">
  <path id="path4927" fill="none" fill-rule="evenodd" stroke="#fff" stroke-width="3" d="m 16.427048,22.793558 c 0,0 3.186739,-12.9380707 6.0474,-13.4058278 2.860662,-0.4677571 6.057078,1.7860568 9.174657,1.8675758 3.117578,0.08152 5.617676,-2.1589807 8.73171,-1.9419148 3.114034,0.217066 6.414962,8.8486718 7.232651,13.8887168 -6.495618,-0.576768 -7.718222,4.681207 -15.975948,4.058363 -8.268361,-0.216202 -8.70422,-4.296786 -15.21047,-4.466913 z" style="isolation:auto;mix-blend-mode:normal" color="#000" overflow="visible" solid-color="#000000"/>
  <path id="path4925" fill="#fff" fill-rule="evenodd" stroke="#fff" stroke-width="3" d="m 13.255441,19.590917 c 0.411692,1.566795 1.495797,4.503588 2.283896,6.02786 4.932852,-1.905608 10.112851,2.299027 16.212461,2.458521 6.09961,0.159494 10.158065,-4.61741 16.097318,-3.512632 0.866446,-2.011938 2.453159,-5.632716 2.453159,-5.632716 -4.187777,-0.652062 -10.239585,7.734987 -18.101304,7.529418 -7.86172,-0.20557 -11.155559,-9.108271 -18.94553,-6.870451 z" style="isolation:auto;mix-blend-mode:normal" color="#000" overflow="visible" solid-color="#000000"/>
  <path id="path5026-2" fill="none" fill-rule="evenodd" stroke="#fff" stroke-width="3" d="m 35.531431,52.942447 c 0.813559,1.258222 3.254237,2.093024 4.61017,0.624645 0.813559,0.635838 5.016949,2.443923 4.745762,-0.539127 C 44.616177,50.044913 40.683973,47.061862 32,47.061862 c -8.683972,0 -12.616176,2.983051 -12.887362,5.966102 -0.271187,2.983051 3.932203,1.174965 4.745762,0.539128 1.355933,1.468379 3.796611,0.633578 4.61017,-0.624645 2.169491,1.536183 2.446685,-0.592449 3.53143,-1.812788 1.084746,0.949152 1.36194,3.348971 3.531431,1.812788 z" style="isolation:auto;mix-blend-mode:normal" color="#000" overflow="visible" solid-color="#000000"/>
  <path id="path4929" fill="none" fill-rule="evenodd" stroke="#fff" stroke-width="3" d="m 17.627383,34.122849 c 2.105341,-1.453543 8.607031,-1.750619 11.008738,0.311398 -0.158794,5.436644 -3.021144,8.146389 -5.459278,8.257792 -2.438134,0.111402 -6.05272,-1.759461 -5.54946,-8.56919 z" style="isolation:auto;mix-blend-mode:normal" color="#000" overflow="visible" solid-color="#000000"/>
  <path id="path4946" fill="none" fill-rule="evenodd" stroke="#fff" stroke-width="3" d="m 28.34697,34.451692 c 2.169492,-0.813559 4.474576,-0.813559 6.372883,0" style="isolation:auto;mix-blend-mode:normal" color="#000" overflow="visible" solid-color="#000000"/>
  <path id="path4929-5" fill="none" fill-rule="evenodd" stroke="#fff" stroke-width="3" d="m 46.372617,34.122849 c -2.105342,-1.453543 -8.607032,-1.750619 -11.008739,0.311398 0.158794,5.436644 3.021145,8.146389 5.459278,8.257792 2.438134,0.111402 6.052721,-1.759461 5.54946,-8.56919 z" style="isolation:auto;mix-blend-mode:normal" color="#000" overflow="visible" solid-color="#000000"/>
</svg>
