<svg xmlns="http://www.w3.org/2000/svg" viewBox="0 0 64 64">
  <defs>
    <clipPath id="b">
      <path fill="none" stroke="maroon" d="M3644.5 232.72c3.6 2.57 15.46-1.8 18.55-2.84 3.1-1.03 8.77 0 11.34 0 2.5 0 9.5-.25 10.5.52s4.4 4.9 10 2.06c-2.6-1.8-4.3-8.02-10.8-9.53-3.4-.78-5.7 1.54-8.6 1.03-2.9-.52-7.2-2.32-12.4-1.55-3.7.6-16 9.8-18.8 10.4z"/>
    </clipPath>
    <clipPath id="a">
      <path fill="#f2f2f2" stroke="#de8787" stroke-width=".01" d="M-89.04 141.44c.7-.28 1.47-.63 1.9-.62-.03.46-.13 1.34-.3 1.56-.53.2-1.28-.5-1.6-.94z"/>
    </clipPath>
    <clipPath id="d">
      <path fill="#f9f9f9" stroke="#de8787" stroke-width=".02" d="M-48.26 127.53c.94-.32 1.8-.35 2.33-.34.15.4-.12 1.5-.48 1.8-.4-.1-1.4-1.1-1.9-1.6z"/>
    </clipPath>
    <clipPath id="c">
      <path fill="#ffd5d5" stroke="#de8787" d="M876.5 2547.35c-.43 4.46-.44 7.4 3.8 10.35 4.83 3.34 10.44 6.47 11.83 6.95 3.7 1.27 6.1 2.62 8.13-.15 2.04-2.8.67-3.17.78-5.33.28-.22.38-.9 1.06-1.34-.34-1.93.8-2.78 1.82-3.53.08-.72-.16-2.16.5-2.33.9-.24 2.06-.37 2.75-.66 2.2-.8 1.03-3.4.17-5.2-.7-1.5-1.14-2.1-2.14-4.1-.57-1.1-.66-2.1-.48-2.8.13-.5.42-1 .77-1.3.8-.7.6-1.7.4-2.6.4-8.4-1.5-13.8-6.2-16.8-4.9-3.1-11-4.3-16.7-4.3-13.5 0-20.7 11.4-20.7 20 0 5 1.2 10.8 2.5 14.9"/>
    </clipPath>
    <clipPath id="f">
      <path fill="#f9f9f9" stroke="#de8787" stroke-width=".02" d="M-48.26 127.53c.94-.32 1.8-.35 2.33-.34.15.4-.12 1.5-.48 1.8-.4-.1-1.4-1.1-1.9-1.6z"/>
    </clipPath>
    <clipPath id="e">
      <path fill="#f2f2f2" stroke="#de8787" stroke-width=".01" d="M-89.04 141.44c.7-.28 1.47-.63 1.9-.62-.03.46-.13 1.34-.3 1.56-.53.2-1.28-.5-1.6-.94z"/>
    </clipPath>
  </defs>
  <g transform="translate(-225.714 -116.934)">
    <circle cx="257.71" cy="148.93" r="31.82" fill="#e35a4e" fill-rule="evenodd" style="text-decoration-line:none;text-decoration-style:solid;text-decoration-color:#000000;isolation:auto;mix-blend-mode:normal" color="#000" overflow="visible" solid-color="#000000"/>
    <g fill="none" stroke="#fff" stroke-width="3" transform="rotate(135 171.215 117.593) scale(.84343)" color="#000">
      <circle cx="257.71" cy="148.93" r="13.96" style="text-decoration-line:none;text-decoration-style:solid;text-decoration-color:#000000;isolation:auto;mix-blend-mode:normal" overflow="visible" solid-color="#000000" stroke-linecap="round" stroke-linejoin="round"/>
      <path d="M267.5 138.97l8.4-8.4m-7.26-.07l3.65 3.68 3.5 3.57" style="text-decoration-line:none;text-decoration-style:solid;text-decoration-color:#000000;isolation:auto;mix-blend-mode:normal" overflow="visible" solid-color="#000000"/>
    </g>
    <path fill="#ffd5d5" stroke="#de8787" stroke-width=".94" d="M291.7-10.3c-.4 5.25-3.92 11.06-6.48 12.82-2.57 1.75-7.43 1.35-9.86 2.02-1.94.54-4.83.85-6.46-.97-.42-.47-1.3-1.08-1.5-1.86-.28-.9-1.36-1.7-2.04-3.2-.68-1.5-1.08-6.7-2.3-9.3-1.2-2.5-.54-8.4-.4-10.5-.27-1.5.13-4.2.8-5-.13-2.8-1.75-19.1 17.43-19.1 19.1 0 19 16.8 19 20.8 0 13.8-6.5 17-6.5 22.7"/>
    <path fill="#ffd5d5" d="M553.15-136.92c.53.7-.02 7.14 2.8 9.5 2.96 2.5 6.72 4.3 11.7 4.76 5.65.53 5.76-1.76 5.88-2.65.23-1.7-.6-4 .7-5.1-.96-1-.3-2 .9-3 0-.6-.32-1.6.24-2.4.72-1 1.53-.6 2.67-2 .93-1.1-.02-2.7-1.05-4-.7-.8-1.6-2.3-2-3-1.2-2.1-.5-2.8-.3-3.9.1-.8.7-2.7.1-5.8-.6-5.3-2.6-9.1-5.6-11.8-4.4-4-12-5.5-19-4.9-7 .6-11.2 3.3-14.7 7.4-3.8 4.4-5.9 9.4-5.3 14.6.6 6.1 2.3 9.4 5.2 12.9.6.8 1.8 2.2 1.9 3.4"/>
    <path fill="#e9afaf" d="M573.22-138.73c-.92 1.3-.5 2.54.12 2.9.5.3 1.4.24 1.5.9 0 .17.14.24.2.34 0-.3.04-.6.32-1 .7-.9 1.52-.6 2.63-1.9-1.2.7-1-.5-2.3-.2-.4.1-1.2.3-1.8.4-.6.1-1-.6-.7-1.3zm-11.92-3.57c1.23.82 2.04 2.13 2.8 3.1 1.25 1.65 2 3.93 3.6 7.4-1.78-2.8-2.73-5.36-4.16-7.13-.55-.7-.75-2.2-2.23-3.38z"/>
    <path fill="#de8787" d="M573.43-138.77c-.24.25-.48.63-.48 1.2 0 .44.16.8.34.94 0 .06.1.1.2.13.2.08.5.1.8 0 .3-.1.5-.3.6-.42v-.02l-.1.03-.1-.1.1-.1c0-.1.2-.1.3-.2.2-.1.4-.1.5-.2.1-.1.3-.1.4-.1s.2 0 .2.1v-.1h-.1l-.3.1c-.3.1-.5.1-.7.1.1.1.4.1.7 0l.3-.2.1-.1v-.2c-.1-.2-.3-.2-.4-.3h-.6c-.2 0-.4.1-.6.1-.2.1-.3.1-.4.2-.1 0-.1.1-.1.2v.1h.2l.1-.1v-.1c-.4.3-1 .3-1.4.1-.1 0-.1 0-.2-.1s-.3-.3-.4-.7c-.1-.5.1-1 .3-1.2z"/>
    <path fill="#fff" fill-rule="evenodd" d="M564.4-161.4c.5 1.58 1.47 2.9 3.5 4.55-.87.8-1.03 2.93 0 3.6 1.05.65 5.12-.73 4.14-2.86-.66-1.5-1.58-1.1-3.18-1.1 1.15-1.2-.13-4.8-1.5-5.4-1.35-.6-3.34-.1-2.96 1.1z"/>
    <path fill="#e9afaf" d="M546.64-165.15c-9.88.73-12.36 5.65-13.84 9.75-1.58 4.38.1 9.9 2.46 13.28 2.04 2.94.6 5.5-2.85 1.56.9 1.63 1.9 3.07 3.1 4.54.6.8 1.9 2.22 1.9 3.4l15.8-4.3c.6.7 0 7.16 2.8 9.52 3 2.5 6.8 4.27 11.7 4.74 3.7.34 5-.5 5.5-1.4-.6.48-1.4.75-2.4-.12-3.6-3.28-4.5-12.68-7.2-15.74-1.6-1.9-.2-3.88.6-4.15 1.9-.6.5-1.45-.8-3.6-1.3-2.12.1-4.9 2.8-6.57-3.9-9.64-8.2-11.74-19.4-10.9z"/>
    <path fill="#de8787" d="M553.15-136.92c.06.07.1.2.12.5l.04.95c.1.67.1 1.68.1 2.7.3 2.63.9 4.66 2.2 5.8l.4.32c1 .78 2.8 1.93 5.2 2.78 2.6.9 4.8 1.14 6.5 1.3 1 .08 2 .2 3.1.1 1-.1 1.6-.34 1.9-.53.1-.05.2-.12.3-.2.8-.64.9-1.45.9-2.1.1-.64-.1-2-.1-2.23v-.53c0-.7.1-1.66.8-2.23a.1.1 49.35 0 0 0-.1c-.4-.4-.5-.9-.3-1.3s.7-.9 1.3-1.4a.23.18 77.35 0 0 .1-.1c.1-.2 0-.9 0-1.1 0-.2 0-.4.1-.6.1-.1.1-.3.2-.5s.3-.3.3-.3l.8-.4c.4-.1 1-.4 1.6-1.1.5-.6.5-1.3.2-2.1-.2-.7-.7-1.4-1.3-2-.6-.8-1.6-2.3-2-3-.6-1.1-.7-1.8-.7-2.2l.1-.4c.1-.2.3-.8.3-1.1 0-.1.3-1.2.4-2 .1-.9.1-2.1-.2-3.8-.6-5-2.3-9-5.5-11.9-4.4-4.1-12.2-5.6-19.1-5-7.5.6-11.7 3.7-15 7.5-4.8 5.6-5.8 10.8-5.5 14.8v.2c.2 1.9.6 4.3 1.5 6.6s2.2 4.3 4.1 6.4c.4.4.9.9 1.3 1.4.6.8.8 1.4.8 1.8 0-.5-.2-1-.7-1.9-.4-.7-.7-1.1-1-1.7-1.7-2.1-2.8-4-3.6-6.3-.8-2.2-1.1-4.5-1.3-6.4v-.1c-.3-3.7.6-8.7 5.2-14.2 3.2-3.7 7.2-6.7 14.5-7.4 6.9-.6 14.5.8 18.8 4.8 3.2 2.8 5 6.7 5.6 11.7.4 1.6.4 2.9.3 3.8 0 .7-.3 2-.3 2.1 0 .4-.2.9-.3 1.2v.5c0 .5 0 1.2.6 2.3.4.7 1.3 2.2 2 3.1.5.7 1 1.4 1.3 2 .2.7.2 1.3-.2 1.8-.6.7-1.1.9-1.5 1.1-.3.2-.6.3-.8.5-.1.1-.3.2-.4.4-.2.2-.3.5-.3.6-.1.2-.1.5-.1.8l.1 1c-.5.5-1 1-1.2 1.5-.2.6-.1 1.1.4 1.58-.7.7-.7 1.7-.7 2.3v.6c0 .4.1 1.5-.1 2.2-.1.7-.3 1.2-.9 1.6l-.2.2c-.2.2-.6.5-1.5.7-.9.2-2.1.2-3 .18-1.7-.2-3.9-.7-6.3-1.8-2.2-1.1-3.8-2.3-4.7-3.1l-.3-.3c-1-.8-1.8-2.35-2.3-5-.2-.96-.3-2-.4-2.65l-.2-.9c-.1-.3-.12-.4-.2-.5z"/>
    <path fill="#e9afaf" fill-rule="evenodd" d="M568.25-142.87c-.22 0-.26.38 0 .35.24-.02.22-.35 0-.35zm1.78-.1c-.22 0-.26.4 0 .38.25 0 .23-.3 0-.3zm-.53 1.45c-.18 0-.2.32 0 .3.2-.02.18-.3 0-.3zm1.72-.96c-.2 0-.22.3 0 .3.2-.03.2-.3 0-.3zm-.52 1.28c-.18 0-.2.32.02.3.2-.02.17-.3-.02-.3zm-2.52-.36c-.18 0-.2.3 0 .3.22-.03.2-.3 0-.3zm-1.28-1.4c-.17 0-.2.3 0 .28.22-.02.2-.28 0-.28zm-.4-1.36c-.18 0-.22.32 0 .3.22-.03.2-.3 0-.3zm-.9.94c-.2 0-.24.3 0 .28.2-.02.2-.3 0-.28zm-.5-.9c-.18 0-.2.25-.02.24.2-.02.18-.24 0-.24zm1.25 2.45c-.2 0-.23.3 0 .3.22-.03.2-.3 0-.3zm2.65 1.33c-.14.02-.15.27.02.25.17 0 .14-.24 0-.24zm2.56-3.14c-.18 0-.22.3-.02.28.2-.02.2-.28.02-.28zm1.74-.46c-.22.04-.28.34-.02.3.27-.05.27-.32.03-.3zm-.4 1.3c-.18.1-.12.34.08.22.2-.12.1-.3-.08-.2zm.37-2.55c-.16.08-.06.28.12.18.1-.1 0-.26-.2-.18zm-8.17 3.08c-.13.07-.06.3.1.2.16-.08.06-.27-.1-.2zm8.88-2.75c-.28.02-.32.37 0 .32.33-.04.3-.34 0-.32zm.75 5.72c-.27 0-.28.4.03.38.3-.03.25-.38-.03-.38zm-.6-4.3c-.24.03-.32.36-.04.32.2-.04.2-.33 0-.3zm.85-.47c-.2 0-.28.32-.02.3.25-.02.25-.3.02-.3zm-2 2.33c-.22.02-.3.35-.04.3.25-.03.27-.33.04-.3zm2.77 1.14c-.2 0-.27.35-.03.34.25-.02.24-.32.03-.33zm-3.97-1.32c-.2 0-.22.32 0 .3.23-.02.2-.3 0-.3zm-4.68 1.22c-.12.08-.05.3.1.22.14-.1.04-.28-.1-.2z"/>
    <path fill="#e9afaf" d="M570.27-149.2c-2.32.9-3.44 3.06-3.6 3.73-.16.66 1.33.2 1.83-.27.5-.48 2.56-1.9 2.6-1.3.06.6.15 1.07-.07 1.58-.23.5.28.73.73.3.45-.4 1.24-2.65.28-3.66-.95-1-1.77-.4-1.77-.4zm-1.05 5.32c1.37.94 1.57.16 1.6-.3.02 1.34-.9 1.06-1.6.3z"/>
    <path fill="#e9afaf" d="M571.08-146.23c.1-.27.08-.62-.1-.9-1.1.25-2.2.98-3 1.97.77-1.18 2.44-2.07 3-2.14.3-.04.33.98.1 1.07z"/>
    <path fill="#ffe680" stroke="#d4aa00" stroke-width=".25" d="M565.48-147.1c.74-1.44 2.32-2.92 3.72-2.17 1.4.76 2.92 1 3.28.88-.06-.4.55-.5.3-.8-1.25-.1-3-.5-4.36-.6-1.37-.1-2.62 1.6-2.94 2.8z"/>
    <path fill="#f2f2f2" stroke="#de8787" stroke-width=".15" d="M568.76-145.2c.68-.35 1.4-.77 1.85-.8 0 .47 0 1.35-.1 1.58-.5.25-1.3-.38-1.7-.8z"/>
    <g clip-path="url(#a)" transform="rotate(-4.902 -3108.276 -7685.08)">
      <circle cx="460.99" cy="434.08" r="9.55" fill="#2ad4ff" stroke="#00aad4" transform="matrix(.02756 .00262 -.01276 .13443 -94.623 81.947)"/>
      <path fill="#089cc1" d="M-87.34 140.22c-.15-.02-.3.54-.38 1.25-.03.28 0 .53 0 .75.06-.34.17-.6.25-.6.1 0 .16.37.16.66l.1-.75c0-.7 0-1.3-.2-1.3z"/>
      <circle cx="460.99" cy="434.08" r="9.55" transform="matrix(.01025 .00097 -.00475 .05 -90.123 119.353)"/>
    </g>
    <path d="M569.82-146.4c.2.14.17.32.14.4.17-.14.3-.35.23-.58.1.2.1.34.1.38.2-.05.3-.4.2-.57.2.17.1.42.1.5.1-.04.3-.1.3-.4.2.33 0 1-.3.87-.4-.17-1 .27-1.8.62.4-.3 1-.53.9-1.22z" color="#000" overflow="visible"/>
    <path fill="#e9afaf" d="M573.07-129.95c.14.4-.46 1.35-.72 1.2.13.12.23.23.44.3-.3.14-.5.2-.7.14 1.3 1.4 1.5.1 2.5.1l-.5-.2c.1-.2.3-.2.4-.6z"/>
    <path fill="#ececec" fill-rule="evenodd" d="M572.5-131.7c1.1-1.9 1.65-1.52 2.37-.82.08.6.03 2.1-.34 2.37-.66.76-.8-.26-2.02-1.56z"/>
    <path fill="red" fill-rule="evenodd" stroke="maroon" stroke-width=".27" d="M574.96-130.36c-1.17-.1-1.25-1.07-2.2-1.27-.68-.15-.12.22-.54.14.6.7 1.23 3.4 2.5 3.3.7 0 1.23-1.5.23-2.8v.7z"/>
    <path fill="#d40000" d="M572.46-131.65h-.03c-.1.06.1.22-.2.16.08.1.17.3.26.5v-.1c.1.1.3.1.3.2s.3 1.1.9 1.6c-.2 0-.5-.2-.8-.4.4.9.9 1.7 1.6 1.7.2 0 .4-.2.5-.4-.6-.4-1.3-1-1.6-1.7l-.1.5c-.2-.3-.2-.5-.2-.7v.4c-.1-.1-.1-.2-.1-.4-.1.1-.1.2-.1.3-.1-.2 0-.4 0-.5-.1.1-.1.3-.1.5-.1-.2-.1-.4 0-.5v.2c0-.1 0-.3.1-.3 0 .1-.1.2 0 .3v-.4c-.2-.1-.4-.2-.6-.2h-.3z" color="#000" overflow="visible"/>
    <path fill="#d40000" fill-rule="evenodd" stroke="maroon" stroke-width=".27" d="M572-131.68c.52.32 1.37.28 2.33-.4.32-.23.47.07.6-.03l.03.4c.8-.5 1.03-2.1.42-2.4-.23-.2-.13.5-.27.4-.1-.1-.3-.6-.5-.4-.2.1-1.6 1.7-2.5 2.2z"/>
    <path fill="#fff" fill-rule="evenodd" d="M573.9-130.24c.3.78 1 1.8 1.04 1.06.03-.74-.8-.7-1.05-1.06z"/>
    <path fill="#fff" fill-rule="evenodd" d="M3660.78 222.44c-.47.02-.93.08-1.4.16-1.06.2-3 1.7-5.13 3.47 2.06-1.23 2.78.37 3.84.63 1.1.28 5.6-.93 6.1-2.22.1-.53.1-1.12 0-1.65-1.2-.25-2.3-.43-3.5-.4z" transform="matrix(.1076 .01946 -.01037 .23768 182.687 -257.584)" clip-path="url(#b)"/>
    <path fill="#a00" d="M575.35-133.85l.02.4-.04.37c0 .03-.05.14-.14.25-.1-.12 0-.17 0-.3 0 .03-.1.16-.2.35 0-.1.1-.5.1-.63 0 0-.1.4-.2.6v-.5c0 .1-.1.3-.2.4v-.6c-.2.5-.3.4-.3.5v-.2c-.1.1-.2 0-.2-.1 0 0-.1.1-.1 0v.3c-.1 0-.2-.2-.3-.3.2.5.1.4.1.5 0 0-.1 0-.2-.1l.1.1h-.1l.1.1c-.1-.1-.1-.1-.3-.4l.2.6s-.1 0-.3-.2c.1.2 0 .2.1.3-.1-.1-.2-.2-.4-.5l.3.5c-.1-.1-.4-.3-.6-.6.1.1.2.4.3.6 0 0-.3-.1-.5-.3 0 .1.2.3.4.4-.1 0-.3 0-.6-.3 0 .1.1.2.2.3-.2 0-.3-.2-.4-.3.1 0 .1.2.2.3-.1 0-.2-.2-.2-.2-.1 0-.1-.1-.1-.1s0 .1.1.1c0 0-.1 0-.2-.1 0 .1 0 .2.1.2-.1 0-.1-.1-.2-.1 0 0 0 .1.1.2l-.2-.2s-.1 0 0 .1l-.1-.1s-.1 0 0 .1c-.1-.1-.1-.1-.2-.1v.1c.5.1 1.2 0 2-.5.3-.3.4 0 .6-.1v.4c.4-.3.6-.9.7-1.4v-.2l-.1.2.1-.4s-.1.2-.2.3c0-.1.1-.3.1-.5l-.3.5c0-.3 0-.6-.1-.9z" color="#000" overflow="visible"/>
    <path fill="#ffd5d5" d="M551.3-144.75c-.5-2.46-1.44-4.95-5-2.8-1.74 1.05-2.66 4.65-.36 7.86 2.8 3.9 6.7 4.4 6.94 2.3"/>
    <path fill="#e9afaf" d="M550.07-146.17c-1.93-2.35-4.93-.25-4.25 4.12.4 2.6 1.24 2.16 2.9 3.06.34.2 1.55.5 1.88.7-.42-.3-1.35-1-1.84-1.2-1.45-.6-2.88-3-2.72-3.9.18-1.1.02-.7.4-1.7.2-.5 1.5-1.8 1.95-1.4.9.8 2.5.8.6 2.1-2.1 1.4-2.2 2.2-1.2 3.9-.9-2.4 1.3-2.3 2.3-2.3-.8.3-2.3 1.2-1.2 2.8-.7-.9.8-1.8.7-1.3-.2.4-.3.6.9.9.8.2 1.2 1 1.3 1.4 0-.3.9-.3-.1-1-.6-.4-1-1-.7-1.6.5-.9-1.4-.7.1-1.5-1-1.2-.7-1.9-1.3-2.6z"/>
    <path fill="#e9afaf" d="M549.32-148.25c1.43.86 1.56 3.25 1.94 3.66.06.1.08.2.1.3l-.05-.3c-.3-1.5-.8-3.1-1.9-3.5zm2.1 4.08c.03.47-.27 1.03.1 1.4.47.5-.12 1.2.13 1.63.25.4.53 1.26.54 2.68 0 1.28-.9 2-3.6 1.37 2.1 1.4 4 1.1 4.2-.3l-1.5-6.7z"/>
    <path fill="#de8787" d="M551.3-144.75c-.17-.84-.34-2.45-1.18-3.32-.23-.23-.47-.37-.65-.44-.56-.3-1.56-.4-3.3.7-1.17.7-1.6 2.3-1.7 3.3v.1c-.1.9 0 2.8 1.4 4.7.95 1.3 1.88 2 2.4 2.4.58.4 1.2.8 2.05 1.1.28.1.52.1.67.1.2 0 .7 0 1.1-.3.6-.4.7-.9.7-1.2-.1.4-.3.7-.9.9-.4.1-.8 0-1 0-.1 0-.3 0-.6-.1-.8-.1-1.6-.5-2.1-.8-.5-.4-1.5-1.1-2.4-2.4-1.4-1.9-1.4-3.7-1.3-4.6v-.1c.1-1 .6-2.4 1.6-2.9 1.7-1 2.5-.8 2.9-.7.1.1.3.1.5.3.8.6 1.3 2 1.5 2.9z"/>
    <path fill="#ffd5d5" d="M515.42-136.8c-.2 4.5-.64 7.4-5.27 9.7-5.25 2.6-11.27 4.87-12.7 5.14-3.86.72-6.44 1.7-8.03-1.34-1.6-3.07-.2-3.23 0-5.4-.23-.24-.25-.92-.45-1.7-.47-1.85-.77-2.63-1.7-3.52.05-.72.5-2.1-.13-2.38-.87-.37-1.8-1.5-2.26-2.1-.57-.76.1-1.7 1.2-3.4.92-1.38.47-2.75 1.76-4.6.73-1.05.96-1.96.9-2.7-.07-.57-.3-1.03-.58-1.4-.7-.85-.34-1.82-.07-2.65.8-8.42 3.4-13.45 8.5-15.75 5.2-2.36 11.5-2.66 17.1-1.83 13.4 1.98 18.8 14.24 17.5 22.76-.8 4.9-2.9 10.5-4.7 14.33"/>
    <path fill="#e9afaf" d="M502.7-142.94c-2.13 1.24-3.9 3.26-5.63 6.73 4.17-5.5 4.37-3.3 5.64-6.8z"/>
    <path fill="#e9afaf" d="M862.2 2538.55c4.6 6.64 10.6 3.6 14.14 2.3.32 14.8-18.63 25.67-14.13-2.3z" transform="rotate(-171.587 784.617 -1328.79)" clip-path="url(#c)" color="#000" overflow="visible"/>
    <path fill="#e9afaf" d="M523.2-142.2c-.76 2.43-1.6 4.72-2.53 6.88l-5.25-1.47c-.22 4.5-.62 7.4-5.26 9.7-5.25 2.6-11.3 4.9-12.73 5.2-3.46.7-5.9 1.5-7.5-.5 4.3 1.8 5.26-2.3 7-3.4 1.9-1.2.7-7.4.52-9.4-.2-2 2.17-4.6 4.1-6.8 1.28-1.4.94-2.4.12-3.3-.63-.6-.6-1.8-.14-2.6 1.93-3.3-3-6.4-3.63-6.9-.54-.5.22-14.5 18.5-11.1 13.57 2.5 17.37 19.1 6.8 24z"/>
    <path fill="#fff" d="M501.2-166.72c1.26 1.46-3.03 4.98-4.84 5.4-3 .68-3.33-.7-1.93-3.37.82-1.5 5.03-4 6.76-2z"/>
    <path fill="#de8787" d="M515.42-136.8l.18.4c0 2.06-.1 3.87-.7 5.47-.14.35-.3.7-.5 1.02-.86 1.2-2.15 2.2-4.07 3.1-2.67 1.2-5.52 2.4-7.9 3.3-1.17.4-2.23.8-3.1 1l-.34.1c-.7.2-1.2.4-1.6.5-1.9.3-3.6.8-4.9.8-1.4 0-2.6-.6-3.5-2.2 0-.1-.1-.1-.1-.1-.8-1.6-.8-2.5-.6-3.2.2-.8.6-1.2.8-2.3v-.1c-.1-.2-.2-.5-.3-.8l-.2-1.1c-.4-1.6-.8-2.5-1.7-3.4a.13.14 21.08 0 0-.1-.1c0-.4.1-1 .1-1.4 0-.2 0-.4-.1-.6-.1-.1-.1-.2-.2-.3-.2-.1-.3-.1-.4-.2-.8-.5-1.6-1.4-2-1.9-.3-.4-.3-.9-.2-1.4v-.2c.2-.6.7-1.3 1.2-2.1.4-.7.5-1.3.7-2.1.1-.8.4-1.6 1-2.5.5-.8.8-1.5.9-2.1v-.6c-.1-.6-.3-1-.6-1.4-.4-.5-.5-1-.4-1.4 0-.5.2-1 .3-1.4.4-5 1.5-8.8 3.3-11.7 1.3-1.9 3-3.4 5.2-4.3 5.3-2.4 11.6-2.7 17.2-1.9 13.6 2 19.1 14.4 17.8 23.1-.4 2.4-1.1 5-1.9 7.5-1 2.5-2.1 4.9-3.2 6.8.8-2 1.7-4.5 2.5-7.1.8-2.4 1.5-5 1.8-7.4 1.3-8.4-4.1-20.4-17.2-22.4-5.6-.9-11.8-.6-16.9 1.7-2.1.9-3.7 2.3-5 4.1-1.9 2.6-3.1 6.4-3.6 11.3h-.1c-.2.4-.3.8-.3 1.23s.1.9.4 1.3c.3.4.6.87.6 1.46v.6c-.1.6-.3 1.3-.9 2.2-.6.9-.8 1.7-.9 2.4-.2.7-.3 1.5-.8 2.2-.6.8-1 1.5-1.2 2l-.1.1c-.1.4-.1.7.1 1 .4.5 1.1 1.4 1.8 1.8.1.1.2.2.3.2.2.1.3.3.4.5v.7c0 .5-.2.9-.2 1.3.9.9 1.2 1.9 1.6 3.4l.2 1.1c.1.3.1.6.2.7h.1a.03.07 8.37 0 0 0 .1c-.1 1.1-.5 1.8-.6 2.4-.1.6 0 1.35.7 2.8v.1c.7 1.4 1.6 1.9 2.9 1.93 1.2.1 2.8-.3 4.8-.6.3 0 .8-.15 1.5-.4l.3-.1c.8-.3 1.84-.7 3-1.2 2.3-1 5.1-2.3 7.7-3.6 1.8-1 2.84-2 3.5-3.1.2-.25.4-.5.5-.8.73-1.4 1-3 1.2-5.1l.23-.4z"/>
    <path fill="#e9afaf" fill-rule="evenodd" d="M494.52-142.74c.2 0 .23.4-.02.35-.24 0-.2-.3.02-.3zm-1.78-.2c.22 0 .24.4-.02.37-.25-.04-.2-.4.02-.37zm.46 1.47c.17 0 .17.33-.04.3-.2-.04-.15-.3.03-.3zm-1.67-1.07c.2 0 .2.33-.02.3-.2-.04-.1-.32.1-.3zm.43 1.32c.18.02.17.32-.03.3-.2-.04-.15-.3.03-.3zm2.54-.22c.18.02.2.33-.02.3-.2-.03-.17-.3.02-.3zm1.35-1.3c.18 0 .2.3 0 .27-.2-.03-.18-.3 0-.28zm.5-1.34c.2 0 .2.32 0 .3-.24-.04-.2-.32 0-.3zm.85.98c.2.02.2.32 0 .3-.24-.05-.2-.3 0-.3zm.56-.86c.16 0 .18.26 0 .24-.2-.03-.18-.25 0-.24zm-1.4 2.36c.2.02.2.34-.03.3-.22-.03-.2-.3.02-.3zm-2.76 1.2c.16 0 .16.25 0 .23-.18-.03-.14-.25 0-.24zm-2.34-3.32c.18.02.2.3 0 .28-.2-.03-.2-.3 0-.28zm-1.72-.55c.23.04.27.35 0 .28-.26 0-.24-.3 0-.2zm.33 1.32c.17.1.1.33-.1.2-.18-.13-.07-.3.1-.2zm-.2-2.58c.14.1.03.3-.14.17-.17-.1-.03-.26.13-.17zm7.93 3.58c.15.08.06.3-.1.2-.15-.1-.03-.28.1-.2zm-8.67-3.3c.27.04.3.4-.03.33-.32-.06-.26-.36.03-.32zm-1.1 5.67c.26.02.25.42-.06.38-.3-.05-.22-.4.05-.38zm.87-4.24c.23.03.3.37 0 .3-.26-.05-.25-.34 0-.3zm-.83-.54c.2.02.26.34 0 .3-.25-.03-.23-.3 0-.3zm1.85 2.46c.22.02.28.36.03.3-.26-.05-.26-.35-.03-.3zm-2.82.98c.2 0 .24.35 0 .32-.25-.03-.23-.33 0-.32zm4.04-1.08c.2 0 .2.32-.03.3-.2-.05-.1-.33.1-.3zm4.58 1.5c.13.08.04.3-.1.2-.14-.1-.03-.28.1-.2z"/>
    <path fill="#f9f9f9" stroke="#de8787" stroke-width=".25" d="M495.7-146.82c-.87-.45-1.73-.6-2.25-.67-.2.5-.1 1.6.2 2 .4 0 1.47-.8 2.06-1.2z"/>
    <path fill="#e9afaf" d="M496.73-147.13c-1.16.18-1.5-1.6-3.23-1.37-.22.07-.4.66-.36.93l-.46.16c.9-2.6 2-1.4 4.05.2zm-1.6 1.6c-1.45 1.34-1.86 1.37-2.5.14.45 1.3.9 2.2 2.5-.1z"/>
    <g clip-path="url(#d)" transform="rotate(-171.587 223.018 -157.177)">
      <circle cx="476.92" cy="401.69" r="9.8" fill="#2ad4ff" stroke="#00aad4" stroke-width="1.81" transform="matrix(.0326 .0015 -.00674 .14572 -59.102 68.482)"/>
      <path fill="#089cc1" d="M-46.2 126.3c-.16 0-.36.63-.4 1.42 0 .3 0 .55.04.78.05-.4.2-.78.3-.78.1 0 .2.43.2.87.05-.3.1-.6.12-.9.04-.8-.07-1.5-.25-1.5z"/>
      <circle cx="476.92" cy="401.69" r="3.89" transform="matrix(.0326 .0015 -.00674 .14572 -59.102 68.482)"/>
    </g>
    <path fill="#ffe680" stroke="#d4aa00" stroke-width=".25" d="M489.32-151.3c-.44.95.65 2.12 1.3 2.22.33.05 3.96-1.23 4.7-1.18 1.1.1 1.8-.44 4.77 2.2-2.1-2.95-3.2-3.96-5.3-3.96-2.3 0-4.9 2.16-5.5.7z"/>
    <path fill="#e9afaf" d="M488.68-129.66c-.64-.5-.84-1.26-.08-2.54.3-.3.45-.56 5.4.7-.5.44-1.66.87-2.83 1.32-.8.3-2.24.7-2.5.52z"/>
    <path fill="#de8787" d="M495.68-131.8c-1 .64-4 .56-4.8.2-1.6-.7-2.2-.14-2.9-.5-.73-.4-1-1.8-.65-2 .94.2 1.3-.13 4.18 1.52 1.6.9 3.1 1.16 4.2.78z"/>
    <path fill="#e9afaf" d="M492.85-129.6c-.7.42-2.63-.04-3.4-.16-.47-.07-.86-.06-.93.15.2.8 1.1 1.2 2.32 1.1.75 0 1.67-.9 2-1.2z"/>
    <path fill="#ffd5d5" d="M488.68-149.1c.22.7-.15 1.65-.9 2.7-1.27 1.84-1.8 2.42-2.7 3.8-1.13 1.7-2.65 4.03-.6 5.24.63.38 1.72.65 2.6 1.02 0 0 2.96.52 3.1-1.62 0 0 0-.68-.63-1.13"/>
    <path fill="#e9afaf" d="M489.85-138.77c1.27 1 .3 2.48-.37 2.82-.53.27-1.6.65-2.1 1.14.1-.7.18-1.4-.24-1.5-.03 0-.04-.1-.06-.1h-.06c-.86-.4-1.9-.7-2.54-1-.43-.3-.7-.6-.85-.9.3 0 .7-.1 1.3-.4 1.03-.6 1.66-.3 2.9.2 1.22.5 2.88 1.3 2.02-.4z"/>
    <path fill="#de8787" d="M485.1-137.4c.13-.1.24-.2.36-.25.53-.27 1.12-.45 1.9-.28.46.1.86.3 1 .4l.45.3c.3.14.5.2.9.13.3-.08.5-.27.6-.4l.1-.08c.1-.2.1-.5-.2-.9-.1-.17-.2-.32-.3-.43-.1-.2-.2-.3-.2-.3.1 0 .2.1.3.2l.4.4c.3.4.4.7.3 1v.1c-.1.1-.2.4-.6.6-.4.1-.8.1-1.1-.1l-.4-.3c-.1-.1-.4-.4-.8-.5-.6-.3-1.2-.2-1.7 0-.2 0-.3.1-.4.2z" color="#000" overflow="visible"/>
    <path fill="#de8787" d="M488.68-149.1c.05.23.16.45.14.68-.04.53-.23 1.03-.96 2.07-.74 1.05-1.26 1.75-1.67 2.3-.5.6-.8 1-1.1 1.46v.1c-.3.5-1.2 1.8-1.4 2.8-.2.9 0 1.5.3 1.8.1.2.3.3.5.5.8.5 1.1.5 2.5 1.1.3.3.4.5.4.7v.3c0 .2-.1.3-.1.4v-.6c-.1-.1-.2-.3-.5-.5v.1c-1.3-.4-1.9-.5-2.7-.9-.3-.2-.5-.4-.7-.5-.4-.4-.6-1.1-.3-2.1.3-1.1 1.3-2.4 1.5-2.8l1-1.4 1.7-2.3c.7-1 .9-1.5.9-2 0-.2.1-.4 0-.7z"/>
    <path fill="#ffd5d5" d="M515.52-145.78c.03-1 1.5-4.37 3.27-4.52 2.7-.23 4.5.8 4.9 2.93.6 3.16-1.7 6.98-4.2 9.06-3.1 2.6-4.4 2-5.4.7"/>
    <path fill="#e9afaf" d="M520.42-149.05c.83.12 1.6.42 2.13 1.1 1.68 2.26.43 5.43-1.63 7.36 1.32-1.8 2.68-4 1.47-6.7-.6-1.1-1.4-1.1-1.4-.3.1 1.9-1.5-.6-2.2-.3-1.2.5-.3 1.6.5 1.9.5.3 1.4.7 1.6 1.3.2.6-.7 1.5-.8 2.4-.1.9-1.2 1.1-1.8 1.2-1.5.3-1.5 1-2.5 1.6-1 .7-1.1.2-.7-.5.3-.5.8-.7.9-1.2 0 0 .1-.6-.1-1-.3-.6-.1-1.3 1-.9.7-.1 2.4.5 1.8-.1-.9-.3-1.2-1-1.3-1.6-.2-1.1-.5-2.7.1-3.1.5-.4.8-.9 2.5-.7z"/>
    <path fill="#e9afaf" d="M521.37-142.7c-.45 2.28-1.96 2.62-2.57 2.98-.62.35-2.2.8-2.56 1.36-.36.56-.94.64-1.22-.07.6.48.87.13 1.54-.56.66-.6 1.4-.8 2.73-1.3 1.3-.5 1.5-1 2-2.3z"/>
    <path fill="#e9afaf" d="M520.42-149.05c.83.12 1.6.42 2.13 1.1 1.68 2.26.43 5.43-1.63 7.36 1.32-1.8 2.68-4 1.47-6.7-.6-1.1-1.4-1.1-1.4-.3.1 1.9-1.5-.6-2.2-.3-1.2.5-.3 1.6.5 1.9.5.3 1.4.7 1.6 1.3.2.6-.7 1.5-.8 2.4-.1.9-1.2 1.1-1.8 1.2-1.5.3-1.5 1-2.5 1.6-1 .7-1.1.2-.7-.5.3-.5.8-.7.9-1.2 0 0 .1-.6-.1-1-.3-.6-.1-1.3 1-.9.7-.1 2.4.5 1.8-.1-.9-.3-1.2-1-1.3-1.6-.2-1.1-.5-2.7.1-3.1.5-.4.8-.9 2.5-.7z"/>
    <path fill="#e9afaf" d="M521.37-142.7c-.45 2.28-1.96 2.62-2.57 2.98-.62.35-2.2.8-2.56 1.36-.36.56-.94.64-1.22-.07.6.48.87.13 1.54-.56.66-.6 1.4-.8 2.73-1.3 1.3-.5 1.5-1 2-2.3z"/>
    <path fill="#e9afaf" d="M517.8-149.9c-1.06 1.7-1.38 4.55-1.35 5.08-.5.05-1.43.65-.66 2.1.7 1.48-2.2 2.9-1.1 4.66.8 1.3 2 1.2 3.4.73-2.2 1.4-3.2.88-4-.24l1.3-8.2c0-.83 1-3.17 2.3-4.13z"/>
    <path fill="#de8787" d="M515.52-145.78c0-.17.04-.52.23-1.13.15-.5.37-1 .66-1.6.7-1.2 1.4-1.8 2-2 .1-.1.3-.1.4-.1 1-.1 2.2 0 3.2.4 1 .5 1.7 1.4 2 2.6.4 1.8-.2 3.6-.9 5-.4.9-1 1.6-1.4 2.1-.4.5-1 1.3-1.9 2-1.7 1.6-2.8 2-3.4 2h-.1c-.4 0-.8-.2-1.2-.6-.3-.3-.5-.7-.7-.9.2.2.5.5.9.6s.8.1 1 .1l.2-.1c.5-.1 1.4-.2 3.3-1.7.9-.7 1.6-1.5 2-2 .4-.5.9-1.2 1.3-2.1.7-1.4 1.3-3.1.9-4.8-.5-2.5-2.7-2.9-4.7-2.8-.1 0-.2.1-.3.1-.5.2-1.1.6-1.9 1.7-.3.4-.6 1-.7 1.4-.3.5-.3.9-.3 1.1z"/>
    <path fill="#fff" d="M258.3 126.68c-2 0-6.1.55-10.08 2.35-3.88 1.75-6.42 4.73-7.07 11.16-.2.6-.48 1.3.05 2 .23.3.4.6.43 1v.1c0-.1 0-.1-.03-.2l.03.3c0 .2-.05.4-.12.6-.1.3-.3.7-.5 1.1-1 1.4-1.4 1.8-2 2.9-.8 1.3-2 3.1-.4 4 .5.3 1.3.5 2 .8h.1c.5.2.2 1.3.1 1.8.5.4.7.8 1 1.4-.5.9-.3 1.4.1 1.8h.4c.1.3.1.6.3.7-.2 1.6-1.2 1.7 0 4.1 1.2 2.3 3.2 1.5 6.1 1l1.1-.3c.2 3.9.1 5.6-1.3 6.4-2 1.1-7 2.9-10.2 3.6a31.82 31.82 0 0 0 19.9 7 31.82 31.82 0 0 0 19.5-6.7c-4.3-1.4-10.3-3.7-11-4.8-.4-.6-.4-2.7-.3-5.9 1 .2 2.1.4 3.2.5 4.3.4 4.4-1.4 4.4-2.1.2-1.3-.4-2.6.5-3.4-.7-.8-.1-2.5.8-3.3-.2-.3-.4-1 .1-1.6.6-.7 1.2-.5 2.1-1.5.7-.9 0-2.1-.8-3.1-.5-.6-1.2-1.7-1.5-2.3-.9-1.6-.4-2.1-.2-2.9.1-.7.6-2.1.1-4.5-.5-4-1.9-6.9-4.2-9-3.3-3.1-9-3.7-12-3.7z"/>
    <path fill="#e35a4e" d="M267.5 144.82c.57-1.1 1.5-1.88 2.7-1.53 1.16.3 2.34.6 2.62.5-.05-.3.46-.6.27-.8-1-.1-2.2-.6-3.2-.7-1.1-.1-2.2 1.4-2.4 2.4zm2.5 1.44c.5-.27 1.06-.6 1.4-.6 0 .35 0 1.02-.12 1.2-.4.2-1-.3-1.28-.6z"/>
    <g transform="matrix(.75542 -.06526 .0648 .7608 328.097 32.835)" clip-path="url(#e)">
      <circle cx="460.99" cy="434.08" r="9.55" fill="#fff" stroke="#fff" stroke-width="1.34" transform="matrix(.02756 .00262 -.01276 .13443 -94.623 81.947)"/>
      <path fill="#fff" d="M-87.34 140.22c-.15-.02-.3.54-.38 1.25-.03.28 0 .53 0 .75.06-.34.17-.6.25-.6.1 0 .16.37.16.66l.1-.75c0-.7 0-1.3-.2-1.3z"/>
      <circle cx="460.99" cy="434.08" r="9.55" fill="#e35a4e" transform="matrix(.01025 .00097 -.00475 .05 -90.123 119.353)"/>
    </g>
    <path fill="#e35a4e" d="M270.8 145.35c.16.1.13.24.1.3.14-.1.23-.26.18-.44.14.2.1.3.1.3.14 0 .24-.3.17-.4.16.2.12.4.1.4.1 0 .2-.1.2-.3.14.3 0 .8-.22.7-.32-.1-.72.2-1.35.5.3-.2.74-.4.72-.9z" color="#000" overflow="visible"/>
    <path fill="#fff" fill-rule="evenodd" d="M272.84 156.56c.83-1.43 1.24-1.15 1.8-.6.05.44 0 1.6-.26 1.8-.5.57-.6-.2-1.54-1.2z"/>
    <path fill="#fff" fill-rule="evenodd" d="M273.03 156.63c-.52-.12-.1.17-.4.1.45.5.74 1.9 1.7 1.84.53-.03 1.04-.78.28-1.77 0 .26 0 .45-.1.65-.4.1-.7-.67-1.4-.82z"/>
    <path fill="#e35a4e" fill-rule="evenodd" d="M272.45 156.6c.4.23.96.2 1.7-.32.24-.18.43.06.52-.02v.37c.6-.4.73-1.3.27-1.57-.18-.1-.1.38-.2.3-.12-.07-.24-.4-.43-.24-.1.1-1.1 1.07-1.8 1.46z"/>
    <path fill="#e35a4e" d="M246.93 145.03c-.66-.34-1.32-.47-1.7-.52-.17.4-.1 1.2.14 1.5.3 0 1.1-.6 1.56-.9z"/>
    <g transform="matrix(-.75003 -.11172 -.11093 .75538 224.882 43.306)" clip-path="url(#f)">
      <circle cx="476.92" cy="401.69" r="9.8" fill="#fff" stroke="#fff" stroke-width="2.43" transform="matrix(.0326 .0015 -.00674 .14572 -59.102 68.482)"/>
      <path fill="#fff" d="M-46.2 126.3c-.16 0-.36.63-.4 1.42 0 .3 0 .55.04.78.05-.4.2-.78.3-.78.1 0 .2.43.2.87.05-.3.1-.6.12-.9.04-.8-.07-1.5-.25-1.5z"/>
      <circle cx="476.92" cy="401.69" r="3.89" fill="#e35a4e" transform="matrix(.0326 .0015 -.00674 .14572 -59.102 68.482)"/>
    </g>
    <path fill="#e35a4e" d="M242.1 141.6c-.35.73.48 1.63.97 1.7.25.04 3-.94 3.56-.9.83.07 1.36-.34 3.62 1.67-1.53-2.24-2.37-3-3.98-3.02-1.72 0-3.72 1.65-4.18.55zm2.86 14.46c-.75.48-2.17.62-2.5.4-.67-.4-1 .05-1.44-.2-.47-.3-.7-1.36-.45-1.53.72.16 1.1-.06 2.17.94.58.55 1.38.67 2.22.4z"/>
    <path fill="#e35a4e" d="M238.9 152.2l.28-.12c.4-.2.87-.22 1.33 0 .3.13.6.34.7.4l.4.2c.3.15.6.15.9.04.3-.13.5-.34.6-.5l.1-.1c.1-.2 0-.5-.2-.78l-.3-.3c-.1-.1-.2-.15-.2-.17.1.02.1.08.2.2l.2.33c.2.32.2.54.2.68v.05c0 .1-.2.23-.4.28-.2.1-.4 0-.6-.1l-.3-.2c-.1 0-.4-.2-.8-.3-.6-.1-1 .1-1.4.3-.1.1-.1.2-.2.2z" color="#000" overflow="visible"/>
    <path fill="#e35a4e" d="M273.54 151.18c-.2.18-.37.47-.38.9 0 .35.1.64.25.76l.2.1c.5.2.9-.1 1.2-.36h-.1v-.02h.1l.1-.06.3-.1c.2-.06.3-.1.4-.1.1 0 .1 0 .1-.02.1 0 .2-.03.3-.02.1 0 .1.03.2.04v-.04.05c0 .1-.1.1-.1.2-.2.1-.4.1-.5.1v.1c.1.1.3.1.6 0l.2-.1.1-.1s.1 0 0-.1c0-.1-.2-.2-.3-.2h-.4l-.4.2c-.1.1-.2.1-.3.2s-.1.1-.1.2v.1l.1.1h.1l.1-.1c-.3.3-.7.2-1 .1l-.1-.1s-.2-.2-.2-.5c-.1-.4.1-.7.3-.9z"/>
  </g>
  <path fill="none" stroke="#000" stroke-width=".04" d="M32 31.6v.8m.4-.4h-.8" style="text-decoration-line:none;text-decoration-style:solid;text-decoration-color:#000000;isolation:auto;mix-blend-mode:normal" overflow="visible" solid-color="#000000" color="#000"/>
</svg>
