<?xml version="1.0" encoding="UTF-8" standalone="no"?>
<svg xmlns="http://www.w3.org/2000/svg" id="brows_sterness" width="560" height="560">
  <path id="path68410" d="m 269.81823,136.41969 c 1.28761,-0.95508 2.75871,-0.77229 4.08238,-0.76306 1.32367,0.009 6.02655,1.08447 6.57531,0.73177 0.23518,0.3919 -0.0786,1.21219 -0.50938,1.02133 -0.43074,-0.19087 -5.5438,-0.7028 -6.2059,-1.00452 -0.6621,-0.30183 -2.42613,-0.77732 -3.94241,0.0145 z" style="display:inline;fill:#ffe680;fill-opacity:1;stroke:#d4aa00;stroke-width:0.25;stroke-miterlimit:4;stroke-dasharray:none;stroke-opacity:1;enable-background:new"/>
  <path id="path68412" d="m 295.54409,136.50655 c -0.61671,-0.85187 -2.81818,-0.9448 -4.19604,-0.99889 -1.37786,-0.054 -6.27414,1.16557 -6.8229,0.81277 -0.23519,0.392 0.0772,1.21049 0.51049,1.02263 0.43331,-0.18787 5.66616,-0.92608 6.40365,-0.98025 0.89402,-0.0657 2.48531,-0.54485 4.1048,0.14374 z" style="display:inline;fill:#ffe680;fill-opacity:1;stroke:#d4aa00;stroke-width:0.25;stroke-miterlimit:4;stroke-dasharray:none;stroke-opacity:1;enable-background:new"/>
</svg>
