<?xml version="1.0" encoding="UTF-8" standalone="no"?>
<svg xmlns="http://www.w3.org/2000/svg" id="eyepatch_left" width="560" height="560">
  <g id="g40066" style="display:inline;enable-background:new">
    <path id="path2987-21" d="M267.6 121.4c.4 4.2 15 14 17 15.7 2 1.8 8 1.4 11.3 5.4 1.5 2 .2 4 1.2 6.4" style="color:#000000;fill:none;stroke:#000000;stroke-width:1.22092247;stroke-linecap:butt;stroke-linejoin:miter;stroke-miterlimit:4;stroke-opacity:1;stroke-dasharray:none;stroke-dashoffset:0;marker:none;visibility:visible;display:inline;overflow:visible;enable-background:accumulate"/>
    <path id="path2989-3-0" d="M284.3 136.7c5-4.3 11.2-1 12 1.4 1.3 4-1.3 7-6.8 7-4.8 0-6-7.5-5.2-8.3z" style="color:#000000;fill:#000000;stroke:#000000;stroke-width:0.5;stroke-linecap:butt;stroke-linejoin:miter;stroke-miterlimit:4;stroke-opacity:1;stroke-dasharray:none;stroke-dashoffset:0;marker:none;visibility:visible;display:inline;overflow:visible;enable-background:accumulate"/>
    <path id="path2991-4" d="M293.2 137.3c-2.6-2-6-1.6-6.7-1.3-.7.3-3.5 2 .2 6-.3-1.6-1.7-4 .3-5.2-.8 1.4 2.3 9.7 7 2.4-4.5 1.8-6.7-5-.8-2z" style="color:#000000;fill:#333333;stroke:none;marker:none;visibility:visible;display:inline;overflow:visible;enable-background:accumulate"/>
  </g>
</svg>
