<?xml version="1.0" encoding="UTF-8" standalone="no"?>
<svg xmlns="http://www.w3.org/2000/svg" id="hat_helmet_vietnam_2_of_2" width="560" height="560">
  <g id="g35491" style="display:inline;enable-background:new">
    <path id="path34297-4-52-4" d="M263.2 141c-3.5 1-5 .3-5.7-.7 0-2.3.6-3.4 2.8-4.8 2.6-1.7 4.8-2.3 9.8-2.2h28.7c2.6 0 7.3.6 8.3 2.6.8 1.5.6 2.3.3 3-1.5 1.3-4 3-7.3 1.5-2.7-1.2-10.7-.2-17.7-.2s-14.5-.8-19 .6z" style="color:#000000;fill:#677821;fill-opacity:1;stroke:#22280b;stroke-width:1.0303514;stroke-miterlimit:4;stroke-opacity:1;stroke-dasharray:none;marker:none;visibility:visible;display:inline;overflow:visible;enable-background:accumulate"/>
    <path id="path34297-4-52" d="M263.2 141c-3.5 1-5 .3-5.7-.7 0-2.3.6-3.4 2.8-4.8 2.6-1.7 4.8-2.3 9.8-2.2h28.7c2.6 0 7.3.6 8.3 2.6.8 1.5.6 2.3.3 3-1.5 1.3-4 3-7.3 1.5-2.7-1.2-10.7-.2-17.7-.2s-14.5-.8-19 .6z" style="color:#000000;fill:#445016;stroke:none;marker:none;visibility:visible;display:inline;overflow:visible;enable-background:accumulate"/>
  </g>
</svg>
