<svg xmlns="http://www.w3.org/2000/svg" width="560" height="560">
  <g style="enable-background:new">
    <path d="M321.72 263.17c-6.26.23-4.78 15.13-2.2 18.2 2.08 2.46 1.76 6.51 1.68 8.6 2.23 1.22 5.44.04 5.44.04-.16-3.2-.03-8.83.57-12.05.34-1.87.76-5.72.03-8.33-1.05-3.78-2.28-6.37-4.6-6.37z" style="color:#000;fill:#ac7064;stroke:#39180c;stroke-width:.09689885"/>
    <path d="M321.66 263.14c2.66 8.71 2.21 19.98 1.74 26.91-.6.3-1.64.23-2.2-.1 0 1.8 0 .05-.36.72-2.39.3-2 4.86-1.52 8.7 1.77 1.15 8.92.82 10.13.48 0-2.21.09-3.3.09-5.5-.44-1.17-1.22-3.43-1.8-3.78-.55-1.7-1.44-3.2-2.43-3.45-.02-.26.5 3.02.01 2.94 0 0 .04-3.97-.25-3.82-.03-.48-.06-1.87-.04-2.27.07-1.36.26-3.66.34-6.03.09-2.8-.38-5.43-.68-7.37a34.7 34.7 0 0 0-2-7.36z" style="color:#000;fill:#333;stroke:#000;stroke-width:.09689885"/>
    <path d="M325.27 278.87c-.26 1.7-.86 4.53-1.28 6-.04-.77-.08-2.11-.24-3.34-.03 3.16-.19 6.11-.35 8.52-.6.3-1.64.22-2.2-.1 0 1.8 0 .05-.36.72h-.03l-.06.1c-.14-.01-.26 0-.39.03l-.1.06a.83.83 0 0 0-.22.14l-.03.03c-.1.07-.17.15-.25.24-.13.16-.22.36-.32.57a5.04 5.04 0 0 0-.38 1.51c-.02.18-.05.35-.06.54-.02.22-.02.44-.02.67 0 .22-.02.44 0 .67l.03.72.02.55c.07.89.17 1.8.28 2.67l.02.2c1.77 1.14 8.92.81 10.13.48 0-.81.01-1.4.03-2.01-.2.35-.49-.15-.5-.75l-.93 1.58-.14-.46c-.13.84-.22 1.5-1.24 1.36l-.16-2.76c.18-.96.5-1.16.36-1.37l.18-2.66c.26-.44.54-.69.55-.34-.15-.06-.24.25-.37.42l.18.47c-.11-.4.12.67.08 1.82.2.46.28 1.14.37 1.85l.31-2.35.18.81c.19-3.47-1.11-3.78-1.36-3.35l-.53 2.1c.03-.47-.27-.7-.19-1.13-.16-3.6-.62-5.22-.9-5.51.09.58.36 2.55-.05 2.48 0 0 .04-3.96-.26-3.81v-.44l-.02-.1.02-.27c-.02-.57-.04-1.2-.02-1.46l.2-3.37.01-.35c.02-.46.03-.9.03-1.38zm.04 8.25l.05.41c.77.3 1.13 1.28 1.38 1.78.18.34.1.8.34.9.31.14.36-.23.1-.98a5.87 5.87 0 0 0-.85-1.34c.02.1 0 .16-.13-.02l-.32-.45a1.66 1.66 0 0 0-.57-.3zm3.22 4.7l.47 2.57c-.14.2.01 1.31-.04 2.06.11-.44.35-.52.55-.27.02-.54.03-1.06.03-1.76l-.07-.16c-.11-.27-.25-.55-.42-1.14l-.35-.89-.02-.01-.03-.1-.12-.3z" style="color:#000;fill:#1a1a1a"/>
    <path d="M320.72 277.42a.36 1.43-2.93 1 1-.58-2.13.36 1.43-2.93 1 1 .58 2.13z" style="color:#000;fill:#b3b3b3;stroke:gray;stroke-width:.60470271;stroke-linecap:round"/>
    <path d="M320.67 275.9c.07.28.06.9-.02 1.25-.09.36-.24.45-.35.05a3.9 3.9 0 0 1-.03-1.63l.06-.24-.14.6c-.11.47-.15 1.21.03 1.88.15.53.4.59.52.12.11-.48.08-1.49-.07-2.02z" style="color:#000;fill:#999;stroke-width:.60470271"/>
    <path d="M321.78 273.28c.9 1.16.89 5.5.95 7.9-.4-2.4-.78-5.49-.95-7.9z" style="color:#000;fill:#fff"/>
    <path d="M322.57 287.58a.38 2-4.18 1 1-.72-2.99.37 1.93-4.18 1 1 .7 2.88z" style="color:#000;fill:#b3b3b3;stroke-linecap:round"/>
    <path d="M322.06 283.34c-.14-.08-.27.15-.35.7a11.6 11.6 0 0 0 .23 3.88c.12.5.27.85.4.93.15.09.28-.14.36-.71l.07-.5-.08-.34c.02-.41.05-.8.02-1.24a11.3 11.3 0 0 0-.26-1.8c-.12-.49-.25-.84-.4-.92zm.07 1.48c.06.03.12.19.18.42a5.3 5.3 0 0 1 .1 1.68l-.04.24c-.03.1-.06.24-.1.22-.05-.04-.12-.2-.18-.45a5.64 5.64 0 0 1-.1-1.78c.03-.3.08-.37.14-.33z" style="color:#000;fill:gray;stroke-linecap:round"/>
    <path d="M325.77 290.87c-.34.02-.94.04-1.28.04-.1-.6-.19-1.82-.58-1.8.04-.85.03-2.5-.05-3.53.3 0 .66-.04 1.19-.04.25.55.22 1.5.22 2.5 0 1.2.55 1.76.5 2.83z" style="color:#000;fill:#333;stroke:#000;stroke-width:.09689885"/>
    <g transform="translate(-1389.96 -1905.36) scale(1.48816)">
      <path d="M1146.8 1472.08c.75-.92 3.5 3.16 3.65 5.02.14 1.86.64 3.37 2.8 3.23 2.14-.15 2.07-1.8 2-2.44-.07-.65 1.08-.65 1.08 0 0 .64-.29 36.27-.29 38.64 0 2.37-3.08 3.51-3.51.36-.43-3.16-5.75-30.5-6.06-42.91-.32-.04.07-1.07.2-1.19.14-.11.13-.7.13-.7z" style="fill:#c35a2e;stroke:#3c1406;stroke-width:.32468453px"/>
      <path d="M1155.76 1477.4c-.28 0-.54.17-.5.49.06.64.13 2.3-2.02 2.44-.21.01-.4 0-.6-.01.1.27.42.95 1.1 1.3.87.43 1.73.36 1.65 1.86-.07 1.5.36 32.48.3 33.05-.06.4-.25 1.33-.57 1.92.53-.4.92-1.08.92-1.92 0-2.37.29-38 .29-38.64 0-.32-.29-.49-.57-.49zm-9.56 1.2c3.01 13.3 5.94 35.48 6.33 38.29.18 1.38.88 1.93 1.6 1.93-.2-.27-.22-.82-.17-1.43.07-.93-.79-19.5-1.8-24.66-1-5.16-1.93-7.6-2.5-8.89-.49-1.1-2.34-3.65-3.46-5.24z" style="fill:#803010;stroke-width:.32468453px"/>
      <path d="M1145.32 1474.66c.16 5.98 5.77 26.31 5.92 46.32 0 .78 1.29 1.07 1.29.21 0-.86.53-8.51 0-15.13-.56-6.81-.86-11.83-.8-13.4.05-.94-.78-3.09-2.21-6.74-1.44-3.66-2.93-11.4-4.2-11.26z" style="fill:#803010;stroke:#3c1406;stroke-width:.32468453px"/>
      <path d="M1143.65 1470.93c3.65-.3 5.37 1.02 6.9 3.04 1.51 2.03 2.63 4.57 3.64 4.57 1.02 0 .81-.3 1.22-.81.4-.51 1.76 3.2-2.16 3.77-5.24.77-8.69-10.16-9.6-10.57z" style="fill:#c35a2e;stroke:#3c1406;stroke-width:.32468453px"/>
      <path d="M1144.93 1470.9c-.4-.02-.82 0-1.28.03.13.06.35.33.63.71 4.1-.5 5.69 2.5 6.36 3.96.71 1.52 2.13 4.05 3.65 4.05.76 0 1.29-.03 1.63-.28.13-.96-.3-1.9-.51-1.64-.4.5-.2.8-1.22.8-1.01 0-2.13-2.53-3.65-4.56-1.33-1.77-2.81-3-5.6-3.08z" style="fill:#dfaa94;stroke-width:.32468453px"/>
      <path d="M1145.32 1474.66c-.09.44.37.72.15 1.34.41 3.92 3.97 13.22 4.4 16.08 1.2 7.94 1.45 22.3 1.35 28.11l.02.79c0 .78 1.29 1.07 1.29.21 0-.86.53-8.51 0-15.13-.56-6.81-.86-11.83-.8-13.4.05-.94-.7-4.13-1.78-7-1.39-3.68-3.16-12.81-4.45-12.67 0 0-.03.94-.18 1.67z" style="fill:#c35a2e;stroke:#3c1406;stroke-width:.32468453px"/>
      <path d="M1146.02 1472.15c-.32 0-.64.07-.95.22 0 0-.29.64-.57.79-.28.14-.02.87.5.92 1.48-1.25 3.88.45 4.09 3.38.21 3.08 1.43 4.59 4.01 4.37 1.84-.15 2.84-.68 3.21-2.08l.02-1.86c0-.65-1.15-.65-1.08 0 .07.64.14 2.3-2 2.44-2.16.14-2.66-1.37-2.8-3.23-.13-1.63-2.23-4.96-4.43-4.95z" style="fill:#c35a2e;stroke:#3c1406;stroke-width:.32468453px"/>
      <circle cx="899.83" cy="1648.74" r=".34" style="fill:none;stroke:#000;stroke-width:.16234227;paint-order:markers stroke fill" transform="rotate(-9.26)"/>
      <circle cx="899.71" cy="1650.5" r=".34" style="fill:none;stroke:#000;stroke-width:.16234227;paint-order:markers stroke fill" transform="rotate(-9.26)"/>
      <circle cx="1153.48" cy="1482.65" r=".56" style="fill:none;stroke:#000;stroke-width:.13490285;paint-order:markers stroke fill"/>
      <circle cx="1153.69" cy="1484.39" r=".56" style="fill:none;stroke:#000;stroke-width:.13490285;paint-order:markers stroke fill"/>
      <path d="M1150.24 1476.6c-.4-.02-.8.04-1.15.14.28 6.81 4.15 8.03 4.37 13.2.2 4.85.9 23.52.99 28.84.2-.05.4-.14.59-.26-.01-5.66-.39-33.6-.65-37.26-.03-.42-.09-.8-.18-1.15-.25.11-.57.19-.97.22-2.15.14-2.65-1.37-2.8-3.23a3.13 3.13 0 0 0-.08-.49h-.12z" style="fill:#dfaa94;stroke-width:.32468453px"/>
      <path d="M1150.23 1493.88c1.94.86 4.68.84 5.45.07.79-.8.57-2.94.57-2.94.94.21 1.08.64 1.08 1.22 0 .57-.14 6.38-.14 6.95 0 .58-.8 1.3-1.8 1.22-1-.07-3.5-.29-4.73-1.29-.21-1.94-.43-5.23-.43-5.23z" style="fill:#c35a2e;stroke:#3c1406;stroke-width:.32468453px"/>
    </g>
    <g style="enable-background:new">
      <g style="enable-background:new">
        <path d="M225.5 264.22c-6.21.78-3.45 15.5-.6 18.33 2.27 2.27 2.3 6.33 2.4 8.43 2.34 1.01 5.43-.44 5.43-.44-.44-3.17-.8-8.8-.48-12.05.18-1.9.26-5.77-.69-8.3-1.37-3.68-2.82-6.16-5.14-5.96z" style="color:#000;fill:#ac7064;stroke:#39180c;stroke-width:.09689885"/>
        <path d="M225.44 264.2c3.4 8.45 3.93 19.71 4.07 26.66-.57.35-1.62.37-2.2.1.15 1.78 0 .04-.3.74-2.36.5-1.57 5.01-.76 8.8 1.86.99 8.96.04 10.13-.4-.2-2.2-.2-3.29-.39-5.5-.53-1.12-1.51-3.3-2.13-3.6-.69-1.65-1.7-3.06-2.7-3.22-.05-.26.75 2.96.26 2.92 0 0-.3-3.95-.59-3.78-.06-.48-.21-1.86-.22-2.26-.05-1.36-.06-3.66-.2-6.03-.15-2.8-.84-5.38-1.31-7.29a34.42 34.42 0 0 0-2.63-7.16z" style="color:#000;fill:#333;stroke:#000;stroke-width:.09689885"/>
        <path d="M230.4 279.56a58.4 58.4 0 0 1-.76 6.1c-.1-.77-.26-2.11-.53-3.32.25 3.16.35 6.11.4 8.52-.57.35-1.62.37-2.2.1.15 1.78 0 .04-.3.74h-.03l-.05.12c-.14-.01-.26.02-.39.05l-.1.07-.2.16-.03.03c-.09.08-.16.16-.23.26a3.7 3.7 0 0 0-.4 1.05 5.04 5.04 0 0 0-.12 1.08v.55l.02.66.06.67c.02.24.06.48.1.72l.07.54c.14.88.32 1.78.5 2.64l.04.2c1.87.98 8.96.03 10.13-.4-.07-.8-.1-1.4-.14-2-.17.36-.5-.12-.55-.7l-.8 1.64-.18-.45c-.06.86-.08 1.52-1.11 1.47l-.4-2.73c.1-.98.4-1.2.24-1.4l-.06-2.67c.23-.45.48-.73.53-.38-.16-.05-.22.26-.33.44l.21.46c-.14-.38.18.66.23 1.8.26.45.39 1.11.54 1.81l.1-2.36.26.79c-.12-3.47-1.44-3.67-1.66-3.21l-.33 2.13c-.02-.47-.34-.68-.3-1.1-.47-3.59-1.06-5.16-1.38-5.42.15.57.59 2.5.18 2.48 0 0-.3-3.96-.59-3.78l-.02-.2-.02-.24-.03-.09v-.27c-.07-.57-.14-1.2-.15-1.46l-.1-3.38v-.34l-.1-1.38zm.75 8.22l.1.4c.78.23 1.22 1.18 1.52 1.65.2.33.17.79.41.88.33.1.34-.27.03-1a5.87 5.87 0 0 0-.97-1.26c.02.11.01.16-.14 0l-.35-.42a1.7 1.7 0 0 0-.6-.25zm3.62 4.4l.69 2.52c-.13.2.13 1.3.14 2.06.07-.45.3-.56.52-.32a54.2 54.2 0 0 0-.12-1.76l-.08-.15c-.14-.26-.3-.52-.52-1.1l-.43-.85-.02-.02-.04-.1-.14-.28z" style="color:#000;fill:#1a1a1a"/>
        <path d="M225.74 278.51a.36 1.43-7.9 1 1-.77-2.08.36 1.43-7.9 1 1 .77 2.08z" style="color:#000;fill:#b3b3b3;stroke:gray;stroke-width:.60470271;stroke-linecap:round"/>
        <path d="M225.56 277c.1.27.14.89.08 1.25-.05.36-.2.47-.34.08a3.9 3.9 0 0 1-.17-1.63l.04-.24-.09.6c-.07.49-.05 1.23.2 1.88.19.52.45.55.52.07a5.35 5.35 0 0 0-.24-2z" style="color:#000;fill:#999;stroke-width:.60470271"/>
        <path d="M226.28 273.9c.99 1.1 1.65 4.34 1.79 8.18-.74-3.93-1.42-5.78-1.8-8.17z" style="color:#000;fill:#fff"/>
        <path d="M228.46 288.48a.38 2-9.14 1 1-.98-2.92.37 1.93-9.14 1 1 .94 2.8z" style="color:#000;fill:#b3b3b3;stroke-linecap:round"/>
        <path d="M227.59 284.3c-.15-.08-.26.16-.29.72a11.6 11.6 0 0 0 .57 3.84c.16.48.33.83.48.9.15.07.26-.17.3-.74l.02-.5-.11-.34c-.02-.41-.02-.8-.09-1.24-.1-.68-.26-1.3-.42-1.77-.15-.47-.32-.81-.46-.88zm.2 1.46c.05.02.13.17.2.4a5.3 5.3 0 0 1 .25 1.67l-.01.24c-.02.1-.04.24-.08.23-.06-.03-.14-.2-.23-.44a5.64 5.64 0 0 1-.26-1.76c.02-.3.07-.37.12-.34z" style="color:#000;fill:gray;stroke-linecap:round"/>
        <path d="M231.93 291.47c-.33.05-.93.12-1.27.15-.16-.6-.34-1.8-.73-1.75-.03-.84-.18-2.48-.35-3.5.3-.03.65-.1 1.17-.14.3.52.35 1.48.44 2.46.1 1.2.7 1.72.74 2.78z" style="color:#000;fill:#333;stroke:#000;stroke-width:.09689885"/>
      </g>
      <g style="enable-background:new" transform="rotate(-4.97 -21031.97 17246.08) scale(1.48816)">
        <path d="M1083.48 1477.67c-.3 3.35-.3 26.92.4 41.17 0 .86 3.3 2.13 3.3.86s4.15-40.86 4.4-42.33c.26-1.47.62-3.6 1.38-5.12-1.52.81-3.5 6.9-6.7 6.9-1.92 0-2.12-.61-2.78-1.48z" style="fill:#c35a2e;stroke:#803010;stroke-width:.32468453px"/>
        <path d="M1092.96 1472.25c-.98.52-2.15 3.22-3.7 5.08-.29 3.86-3 41.38-3 41.86 0 .48-.46.96-2.25-.04.6.81 3.17 1.67 3.17.55 0-1.27 4.15-40.86 4.4-42.33.26-1.47.62-3.6 1.38-5.12z" style="fill:#803010;stroke-width:.32468453px"/>
        <path d="M1095.19 1470.22c-1.93-.3-3.3 1.02-4.97 4.26-1.7 3.29-2.84 3.9-3.75 3.95-.92.06-2.54-.1-2.44-1.31-.2-.16-.86 0-.86 0-.1 1.67.81 2.78 2.74 2.84 1.93.05 3.78-1.22 5.02-3.96a3.53 3.53 0 0 1 4.05-2.28c.1-1.01.2-3.5.2-3.5z" style="fill:#c35a2e;stroke:#3c1406;stroke-width:.32468453px"/>
        <path d="M1083.48 1477.67c-.3 3.35-.3 26.92.4 41.17 0 .86 3.3 2.13 3.3.86s4.15-40.86 4.4-42.33c.26-1.47.62-3.6 1.38-5.12-1.52.81-3.5 6.9-6.7 6.9-1.92 0-2.12-.61-2.78-1.48z" style="fill:none;stroke:#3c1406;stroke-width:.32468453px"/>
        <path d="M1083.48 1477.67c-.3 3.35-.3 26.92.4 41.17 0 .86 3.3 2.13 3.3.86 0-.84 1.76-17.84 3.06-30.08-1.51.53-3.14-.32-4.18-.84-1.37-.7-2.02-5.16-2.18-10.57l-.4-.54z" style="fill:#803010;stroke-width:.16234227;stroke-miterlimit:4.06053257"/>
        <path d="M1088.22 1478.37c-.5.4-1.04.67-1.61.75-.2 4.36-.52 11.65-1.26 14.52-.8 3.15-.2 23.12-.2 24.94 0 1.83 1.22 1.12 1.22 0 0-1.11.3-19.26.4-20.98.1-1.73.81-5.28.81-6.5 0-1.06.46-9.87.64-12.73z" style="fill:#dfaa94;stroke-width:.32468453px"/>
        <path d="M1095.03 1473.87c.24 1.4-1.15 3.31-2.73 4.82-1.58 1.5-2.5 3.07-3.72 8.02-1.22 4.94-1.5 26.67-1.36 33.26 0 .72 1.65.86 1.65 0s.57-18.64 1.79-26.6c1.22-7.95 2.36-10.46 3.22-11.1.86-.65 1.5-3.6 2.3-4.6.79-1 1.72-2-1.15-3.8z" style="fill:#c35a2e;stroke:#3c1406;stroke-width:.32468453px"/>
        <path d="M1094.83 1470.18c-1.74-.09-3.04 1.26-4.61 4.3-1.7 3.29-2.84 3.9-3.75 3.95-.92.06-2.54-.1-2.44-1.31-.15-.12-.56-.06-.75-.02h-.01c0 .44.43 1.8 2.36 2.01 1.94.22 3.8-1.43 4.95-3.37 1.14-1.93 2.36-2.8 4.3-2.07.14-2.08-3.16-.36-2.8-1.08.36-.72 1.72-2 3.01-2.22l-.14-.17-.13-.01z" style="fill:#dfaa94;stroke-width:.32468453px"/>
        <circle cx="1085.68" cy="1480.61" r=".34" style="fill:#803010;stroke:gray;stroke-width:.5;paint-order:markers stroke fill"/>
        <circle cx="1085.53" cy="1483.02" r=".34" style="fill:#803010;stroke:gray;stroke-width:.5;paint-order:markers stroke fill"/>
        <path d="M1091.07 1484.42c-2.01 4.78-2.27 31.16-2.27 35.82a.53.53 0 0 0 .06-.27c0-.86.58-18.64 1.8-26.6 1.22-7.95 2.36-10.46 3.22-11.1.86-.65 1.5-3.6 2.3-4.6-2.3 1.5-4.56 5.44-5.1 6.75z" style="fill:#803010;stroke:#3c1406;stroke-width:.32468453px"/>
        <path d="M1087.72 1494.74c-1.3.93-4.16-.15-4.73-1.37-.08-.07-.58-.14-.58.15 0 .28.29 7.96.36 8.24.07.29.93-.07 1.58-.43.64-.36 2.15-.28 2.87-.07-.07-1.72.5-6.52.5-6.52z" style="fill:#c35a2e;stroke:#3c1406;stroke-width:.32468453px"/>
      </g>
    </g>
    <g style="enable-background:new">
      <path d="M241.24 264.46s-.6-.96-.72-1.82c-.12-.85.86-.86.97-.53.1.32 10.52 5.7 20.79 7.33 10.26 1.63 11.85-.96 12.6-.33.75.64 3.1 3.42 3.52 4.16.43.75.86 1.82-.21 1.93-1.07.1-19.83.2-36.95-10.74z" style="fill:#c35a2e;stroke:#3c1406;stroke-width:.32468453px"/>
      <path d="M276.96 270.5c-1.51 0-1.59.67-1.51 1.43a1213 1213 0 0 0 1.8 14.63c.16.83.99.98 2.12.9 1.13-.07 1.59-.07 3.32-.75 1.74-.68 20.57-.8 21.71-.38 1.14.42 11.12 5.86 11.67 6.29.55.43 1 2.21 1.28 2.6.29.37 2.23-.15 2.26-.74.02-.6-3.53-13.2-4.55-16.14-1.03-2.95-3.8-7.85-4.04-9.23-.23-1.38-2.27-4.05-2.52-4.33a4.67 4.67 0 0 0-1.61-.7c.12.14-7.22 4.15-29.93 6.41z" style="fill:#c35a2e;fill-rule:evenodd;stroke:#3c1406;stroke-width:.32468453px"/>
      <path d="M308.7 277.37c-1.65 2.4-5.78 4.77-9.11 5.1 1.22.14 4.09-.04 4.9-.04-1.21.3-1.78.54-2.68.7 1.56.13 1.64.06 2.95.2-1.8.39-9.54.67-10.45.6a36.8 36.8 0 0 1 8.91 2.28c.62.03 1.04.08 1.18.13.75.27 5.32 2.64 8.56 4.4-2.36-3.7-5.27-8.9-4.37-11.57-.91.9-1.4 1.13-2.01 1.96.02-1.5 1.78-3.01 2.12-3.76z" style="fill:#803010;stroke-width:.16234227;stroke-miterlimit:4.06053257"/>
      <path d="M307.07 264.04h-.02c-4.12 3.25-11.79 4.58-22.48 7.51 7.7-.6 19.76-2.57 22.78-4.38-1.06 1.21-1.5 1.66-2.87 1.51 7.1 2.26 9.3 9.83 10.93 14.93 1.85 1.34 2.07 2.09 3.13 3.9.8 1.39-1.82 4.1-3.94 4.18.73.44 1.35.84 1.46.93.55.43 1 2.21 1.28 2.59.29.38 2.23-.14 2.26-.73.02-.6-3.53-13.2-4.55-16.14-1.03-2.95-3.8-7.85-4.04-9.23-.23-1.38-2.82-4.77-3.07-5.04-.17-.17-.54-.05-.89-.03z" style="fill:#803010;stroke-width:.32468453px"/>
      <path d="M306.89 264.09c-.34.38-7.22 4.14-29.93 6.4-1.51 0-1.59.68-1.51 1.44a1213 1213 0 0 0 1.8 14.63c.16.83.99.98 2.12.9 1.13-.07 1.59-.07 3.32-.75 1.74-.68 20.57-.8 21.71-.38 1.14.42 11.12 5.86 11.67 6.29.55.43 1 2.21 1.28 2.6.29.37 2.23-.15 2.26-.74-.02-.03 0-.3 0-.34-.05-.21-.1-.42-.17-.64-.17-.97-2.43-2.6-2.99-3.14-.57-.54-9.96-5.54-11.45-5.95-1.5-.42-19.34.7-20.94.7-1.6 0-4.37 1.6-4.9.75-.54-.85-2.25-12.8-1.93-13.33.32-.54 6.94-.54 13.87-2.03 6.7-1.44 14.07-3.56 17.4-5.69-.59-.61-.98-.76-1.61-.72z" style="fill:none;stroke:#3c1406;stroke-width:.32468453px"/>
      <path d="M289.4 283.1c4.69.42 9.38-.97 11.2-1.72 1.8-.74 5.75-5.12 5.54-6.18-.21-1.07-6.3-4.7-8.32-4.16-2.03.53-4.8 2.34-8.75 2.13-3.95-.21-10.24-.53-17.18.32-.32 8 4.27 9.39 17.5 9.6z" style="fill:#c35a2e;stroke:#3c1406;stroke-width:.32468453px"/>
      <path d="M298.24 270.98c-.15.02-.3.02-.42.06-2.03.53-4.8 2.34-8.75 2.13-3.95-.21-10.24-.53-17.18.32-.32 8 4.27 9.39 17.5 9.6 4.7.43 9.39-.96 11.2-1.7 1.82-.75 5.76-5.13 5.55-6.2-.2-1-5.56-4.24-7.9-4.2zm.2 1.5c1.2.13 5.9 2.65 6 3.25.1.64-3.85 4.16-4.43 4.53-.6.38-5.71 1.82-9.98 1.55-17.7.43-16.48-5.01-16.06-6.99a245.4 245.4 0 0 1 14.14-.32c1.76.11 9.39-1.81 10.14-2.02.04-.02.1-.02.19-.02z" style="fill:none;stroke:#3c1406;stroke-width:.32468453px"/>
      <path d="M237.6 282.6c.53-2.86 1.25-5.63 1.76-8.5.57-3.19 1.85-7.7 1.42-8.78-.42-1.08.29-1.5.74-.98.45.5 24.36 9.03 34.11 9.7 2.22 0 11.86-1.93 13.3-2.02 1.43-.1 1.69.41 1.75 2.87.06 2.45 1.2 8.64 2.3 11.35 1.07 2.59-.65 5.66-6.9 4.83-6.26-.83-12.97-2.66-19.62-2.27-6.66.39-12.44-2-18.6-1.78-6.16.22-9.87 7.7-10.04 8.06-.18.35-1.37.04-1.32-.92.1-1.6.08-5.41.35-6.6.6-2.57.45-3.34.75-4.95z" style="fill:#c35a2e;stroke:#3c1406;stroke-width:.32468453px"/>
      <path d="M244.96 280.9c-2.85-.08-5.3 1.15-5.07 3.54.26 2.77.68 4.52 1.43 5.63a9.97 9.97 0 0 1 6.54-3.05c1.17-.05 2.37.02 3.58.14.6-4.3-3.18-6.16-6.48-6.26z" style="fill:#803010;stroke-width:.16234227;stroke-miterlimit:4.06053257"/>
      <path d="M241.16 264.12c-.37-.05-.7.39-.38 1.2.43 1.07-.85 5.6-1.42 8.78-.51 2.87-1.24 5.64-1.76 8.5-.3 1.62-.15 2.39-.75 4.97-.27 1.18-.25 4.98-.34 6.6-.06.95 1.13 1.26 1.3.9.15-.28 2.44-5.23 6.6-7.19-.77.24-3.33 1.03-3.77.38-.52-.76-.48-2.53-.37-4.24.1-1.36 3.07-12.76 4.77-17.92a21.86 21.86 0 0 1-3.52-1.76.59.59 0 0 0-.36-.22z" style="fill:#dfaa94;stroke-width:.32468453px"/>
      <path d="M241.16 264.12c-.36-.04-.66.36-.4 1.1l.05.05c3.47 2.33 18.1 7.06 25.29 9 7.2 1.93 13.72.83 17.5.15 3.77-.68 5.05-.9 5.2-.6.15.3 0 2.94.46 6.26.45 3.32 2.1 7.31 1.73 9.05-.38 1.73-19.39-2.42-20.88-2.41-1.5.01-8.54.09-13.14-.86-4.6-.94-7.66-.94-11.03-.17-3.25.75-7.7 4.3-9.38 7.03l-.05 1.44c-.06.96 1.13 1.27 1.3.92.18-.36 3.89-7.84 10.05-8.06 6.16-.22 11.94 2.17 18.6 1.78 6.65-.39 13.37 1.44 19.62 2.27 6.25.83 7.97-2.24 6.9-4.83-1.1-2.71-2.24-8.9-2.3-11.35-.06-2.46-.32-2.96-1.75-2.87-1.44.09-11.08 2.01-13.3 2.01-9.75-.66-33.66-9.18-34.11-9.7a.59.59 0 0 0-.36-.2z" style="fill:none;stroke:#3c1406;stroke-width:.32468453px"/>
      <path d="M295.9 272c3.2-1.6 3.63-1.6 5.23-1.6 1.6 0 4.16-1.28 5.22-1.28h1.07s3.95.32 4.27 1.49c.32 1.17-2.24 4.8-3.95 5.33-1.7.54-10.45 2.67-11.1 2.46-.63-.22-.74-6.4-.74-6.4z" style="fill:#c35a2e;stroke:#3c1406;stroke-width:.32468453px"/>
      <path d="M306.35 269.12c-1.06 0-3.62 1.28-5.22 1.28-1.6 0-2.03 0-5.23 1.6l.01.48c2.22-.5 3.24-1.02 4.68-1.02 1.6 0 4.06-.64 5.45-1.28 2.45.22 4.37.54 4.48.86.1.32-1.82 3.62-3 3.84-1.09.2-7.4 1.89-11.28 2.28.1.68.24 1.18.4 1.24.65.21 9.4-1.92 11.1-2.46 1.71-.53 4.27-4.16 3.95-5.33-.32-1.18-4.27-1.5-4.27-1.5z" style="fill:none;stroke:#3c1406;stroke-width:.32468453px"/>
      <path d="M241.16 264.12c-.37-.05-.7.39-.38 1.2.2.52-.09 1.88-.37 3.5 1.63 1.83 5.16 3.42 6.64 3.45 1.96.04 4.68.62 7.9.57-3.19-.62-3.3-2.07-8.46-2.48 1.4-.4 9.88 1.08 12.91 1.48a321 321 0 0 0-3.63-1.99c-8.17-2.38-14.01-5.24-14.25-5.51a.59.59 0 0 0-.36-.22z" style="fill:#803010;stroke-width:.16234227;stroke-miterlimit:4.06053257"/>
      <path d="M278.84 284.22c-14.93.83-27.68-2.26-31.08-5.13-4.16-3.51-4.02-4.35-3.47-5.88.3-.83 7.74-4.44 9.73-3.7 2.2.82 13.36 6.26 24.52 6.42 0 1.35.3 8.3.3 8.3z" style="fill:#c35a2e;stroke:#3c1406;stroke-width:.25;stroke-miterlimit:4.06053257"/>
      <path d="M253.59 269.42c-2.46-.2-9.01 3.01-9.3 3.79-.55 1.53-.7 2.37 3.47 5.88 3.4 2.87 16.15 5.96 31.08 5.13 0 0-.02-.72-.04-.91l-.1-.14c-9.66.53-23.55-1.81-27.17-3.47-3.62-1.66-6.71-4.68-6.4-5.58.3-.91 7.52-3.6 8.06-3.32 1.76.87 10.26 5.13 25.35 6.33h.03a51.3 51.3 0 0 1-.03-1.2c-11.16-.16-22.32-5.6-24.52-6.42a1.64 1.64 0 0 0-.43-.09z" style="fill:none;stroke:#3c1406;stroke-width:.25;stroke-miterlimit:4.03026628"/>
      <path d="M302.79 275.53s-3.38 6.49-8.13 6.6c-4.75.12-10.23 3.78-20.75 2.63-10.52-1.16-11.65-3.45-15.17-2.53a11.88 11.88 0 0 0-3.43-2.53c-2.47-1.12-4.08-.27-5.95-1.55-1.42-.98-1.7-4.96-1.7-4.96s2.43-3.02 5.07-2.46c3.8.8 2.7 3.18 7.02 1.76 4 1.41 9.14 2.3 15.35 2.81 6.2.5 13.43-2.57 16.25-2.54 2.82.03 3.8-.86 6.27-.64 2.47.22 4.5 2.58 5.17 3.41z" style="fill:#c35a2e;stroke:#3c1406;stroke-width:.25;stroke-miterlimit:4.03026628"/>
      <path d="M259.08 280.98a9.41 9.41 0 0 0-6.56-3.32c-2.42-.23-3.17-.9-3.7-3.85 2.26-2.18 4.22-2.86 7.77.38 1.58.07 3.17-.38 3.17-.38 2.71 1.29 11.77 3.1 16.82 2.87 5.05-.23 7.7-1.28 10.64-1.81 2.94-.53 8-1.28 9.05-1.36 1.06-.07 3.7.15 4.98 2.04-.98 1.66-2.49 4.45-5.58 4.9-3.1.45-6.11 1.06-9.74 2.19-3.62 1.13-9.35 1.28-14.33.68s-9.2-3.02-12.52-2.34z" style="fill:none;stroke:#3c1406;stroke-width:.32468453px"/>
      <path d="M252.22 271.96c-1.21.04-2.27.76-3.4 1.85.53 2.95 1.28 3.62 3.7 3.85 1.42.13 2.75.48 4.01 1.21a6.76 6.76 0 0 0 1.92-1.75c-2.77.96-4.9.1-6.08-2.35.96.43 2.03 1.6 4.05 1.92a11.21 11.21 0 0 1-3.94-4.72l-.26-.01zm6.34 6.97c-.32.16-.88.26-1.6.21l.55.38c.44-.22.8-.42 1.05-.59zm26.11-3.5c-2.13.5-4.49 1.09-8.09 1.25-.1.02-.23.02-.34.02.99.33 2.04.45 3.06.6-.53.14-1.51.75-2.04 2.25 2.71-1.8 3.24-.6 3.77-1.2.53-.6 1.74-.98 2.87-.38-1.66-.23-2.34.76-2.19 1.89.15 1.13 1.28.98 2.04 1.35.75.38 1.05-.22 1.73-.45.46-.15 1.23.84 1.7 1.51l.45-.12.11-2.75c-.45.23-.6.46-1.58.3.53-.37 1.36-1.05 1.5-1.58-3.08 2.41-3.61-.6.46-1.36-.33-.12-1.77-.78-3.45-1.33z" style="fill:#803010;stroke-width:.16234227;stroke-miterlimit:4.06053257"/>
      <g transform="translate(-1388.83 -1905.36) scale(1.48816)">
        <circle cx="1114.37" cy="1468.22" r=".62" style="fill:#803010;stroke:#3c1406;stroke-width:.1513665;paint-order:markers stroke fill"/>
        <circle cx="1114.32" cy="1467.97" r=".34" style="fill:#c35a2e;stroke:#3c1406;stroke-width:.16234227;paint-order:markers stroke fill"/>
        <circle cx="1119.11" cy="1468.6" r=".62" style="fill:#803010;stroke:#3c1406;stroke-width:.1513665;paint-order:markers stroke fill"/>
        <circle cx="1118.94" cy="1468.45" r=".34" style="fill:#c35a2e;stroke:#3c1406;stroke-width:.16234227;paint-order:markers stroke fill"/>
        <circle cx="1123.45" cy="1468.07" r=".6" style="fill:#803010;stroke:#3c1406;stroke-width:.14587863;paint-order:markers stroke fill"/>
        <circle cx="1123.25" cy="1467.94" r=".34" style="fill:#c35a2e;stroke:#3c1406;stroke-width:.16234227;paint-order:markers stroke fill"/>
        <circle cx="1110.41" cy="1467.6" r=".34" style="fill:#c35a2e;stroke:#3c1406;stroke-width:.16234227;paint-order:markers stroke fill"/>
      </g>
      <path d="M274.14 272s-4.63-.67-7.66-.19c-3.03.49-5.82 2.36-5.5 6.72.34 4.37 2.94 7.26 6.55 7.31 3.61.06 7.23-.7 7.23-.7s-6.56-.64-8.2-.94c-1.57-.29-3.47-2-3.57-6.46-.1-3.83 3.24-4.72 4.76-4.63.97.06 5.22.07 5.22.07l.02.39 1.21.24z" style="fill:gray;stroke:#666;stroke-width:.32468453px"/>
      <path d="M263.68 278.18c-.27 0-1.1.04-1.55.06-.51.02-.53.95-.01.95.42 0 1.18.06 1.55.06.84 0 .66-1.07 0-1.07z" style="fill:gray;stroke:#666;stroke-width:.32468453px"/>
    </g>
  </g>
</svg>
