<?xml version="1.0" encoding="UTF-8" standalone="no"?>
<svg xmlns="http://www.w3.org/2000/svg" width="560" height="560" id="iris_anger">
  <path style="fill:#2ad4ff;fill-opacity:1;stroke:none;stroke-width:0.37166417;stroke-linecap:round;stroke-miterlimit:4;stroke-dasharray:none" d="M 275.48242 138.77734 C 275.21612 138.78829 274.93164 138.82455 274.63086 138.88086 A 1.148168 1.148168 0 0 0 274.56055 139.26953 A 1.148168 1.148168 0 0 0 275.05078 140.20898 C 275.48702 140.25384 275.92424 140.25573 276.3457 140.22656 A 1.148168 1.148168 0 0 0 276.85742 139.26953 A 1.148168 1.148168 0 0 0 276.80078 138.91602 C 276.40516 138.81184 275.97135 138.75725 275.48242 138.77734 z" id="path40695-8-5-0"/>
  <path style="display:inline;fill:#089cc1;fill-opacity:1;stroke:none;enable-background:new" d="M 275.48242 138.77734 C 275.22321 138.788 274.94807 138.82144 274.65625 138.875 C 274.60961 138.99996 274.57617 139.13221 274.57617 139.27344 C 274.57617 139.61948 274.72858 139.93012 274.9707 140.14062 C 274.75621 139.62243 275.05366 139.24219 275.75781 139.24219 C 276.54708 139.24219 276.53937 139.58257 276.57617 140.04297 C 276.75969 139.83945 276.87305 139.56905 276.87305 139.27344 C 276.87305 139.14669 276.83676 139.03002 276.79883 138.91602 C 276.40369 138.81216 275.97061 138.75728 275.48242 138.77734 z" id="path40697-9-9-5"/>
  <path style="fill:#2ad4ff;stroke:none;stroke-width:0.37166417;stroke-linecap:round;stroke-miterlimit:4;stroke-dasharray:none" d="M 289.58008 138.35547 C 289.06847 138.37455 288.60944 138.4675 288.20117 138.60742 A 1.148168 1.148168 0 0 0 288.15234 138.94141 A 1.148168 1.148168 0 0 0 288.62695 139.86914 C 289.10559 139.90481 289.58373 139.88686 290.04492 139.8125 A 1.148168 1.148168 0 0 0 290.44922 138.94141 A 1.148168 1.148168 0 0 0 290.30273 138.38086 C 290.05266 138.35804 289.8096 138.34691 289.58008 138.35547 z" id="path40703-6-0-15"/>
  <path style="fill:#089cc1;fill-opacity:1;stroke:none" d="M 289.58008 138.35547 C 289.07708 138.37423 288.62382 138.46365 288.2207 138.59961 C 288.18594 138.70923 288.15234 138.82028 288.15234 138.94141 C 288.15234 139.28744 288.3067 139.59808 288.54883 139.80859 C 288.33434 139.2904 288.6318 138.91016 289.33594 138.91016 C 290.12521 138.91016 290.1175 139.24858 290.1543 139.70898 C 290.33782 139.50547 290.44922 139.23702 290.44922 138.94141 C 290.44922 138.73315 290.38013 138.5473 290.2832 138.37891 C 290.04044 138.35759 289.80338 138.34714 289.58008 138.35547 z" id="path40707-8-4-4"/>
</svg>
