<?xml version="1.0" encoding="UTF-8" standalone="no"?>
<svg xmlns="http://www.w3.org/2000/svg" width="560" height="560" id="lashes_alertness">
  <path id="path79089" d="m 277.81868,138.67167 c -0.6602,-0.86678 -1.95788,-1.10771 -2.57571,-1.12433 -0.47193,-0.0127 -1.14306,0.28156 -1.28525,0.21473 0.0927,0.18982 0.2047,0.21531 0.33528,0.21088 -0.37425,0.16143 -0.88388,0.32465 -1.11284,0.23072 0.13798,0.22908 0.37994,0.25509 0.46622,0.24474 -0.38338,0.28032 -0.94368,0.20051 -1.14707,0.0617 0.21437,0.3848 0.37245,0.48451 0.56026,0.46005 -0.29877,0.15994 -0.91581,0.14243 -1.31219,-0.0542 0.51453,0.63487 1.03081,0.84506 1.50596,0.44424 1.30352,-1.09961 2.10138,-2.11853 4.56534,-0.68853 z" style="color:#000000;display:inline;overflow:visible;visibility:visible;fill:#000000;stroke:none;stroke-width:0.5;marker:none;enable-background:accumulate"/>
  <path id="path79091" d="m 286.90463,138.82601 c 0.85482,-1.57465 2.52227,-1.5969 2.89202,-1.57543 0.47131,0.0274 1.12304,0.0831 1.24215,-0.009 -0.0548,0.20431 -0.15528,0.24902 -0.27676,0.26775 0.36854,0.0925 0.85792,0.16073 1.05762,0.0285 -0.0946,0.24978 -0.31646,0.31757 -0.39763,0.32268 0.39191,0.20687 0.91748,0.0356 1.09673,-0.1332 -0.15175,0.41352 -0.29131,0.53698 -0.47469,0.54409 0.30896,0.10773 0.91983,-0.005 1.2807,-0.26043 -0.40925,0.70734 -0.92663,1.02222 -1.41201,0.67569 -1.81924,-1.29881 -3.34427,-1.53113 -5.00813,0.1393 z" style="color:#000000;display:inline;overflow:visible;visibility:visible;fill:#000000;stroke:none;stroke-width:0.5;marker:none;enable-background:accumulate"/>
</svg>
