<?xml version="1.0" encoding="UTF-8" standalone="no"?>
<svg xmlns="http://www.w3.org/2000/svg" id="lips_luscious" width="560" height="560">
  <g id="g72138" style="display:inline;enable-background:new">
    <path id="path72118" d="M278.4 154.2c1.6 2 3 1.4 4.5 1.4 1.8 0 3 .5 4.6-1.6-2.8-1.2-6.7-1.5-9.2.2z" style="fill:#e9afaf;stroke:#de8787;stroke-width:0.125;stroke-miterlimit:4;stroke-opacity:1;stroke-dasharray:none;display:inline"/>
    <path id="path72120" d="M277 154c1.4.4 2.2 0 3.2-.3 1.3-.4 2 0 2.7 0 .7 0 1-.4 2.5 0 1.2.4 2.2.6 3 .2-.7 0-1.8-1-2.4-1.4-1.8-1.6-2-.4-3-.4-1.2 0-1.7-1-3.7.6-1.3 1-1.8 1-2.2 1z" style="fill:#de8787;stroke:none;display:inline"/>
  </g>
</svg>
