<?xml version="1.0" encoding="UTF-8" standalone="no"?>
<svg xmlns="http://www.w3.org/2000/svg" width="560" height="560" id="mouth_indignation">
  <g style="display:inline;enable-background:new" id="g66086">
    <path style="color:#000000;display:inline;overflow:visible;visibility:visible;fill:#f9f9f9;fill-opacity:1;fill-rule:evenodd;stroke:none;stroke-width:0.32081631;marker:none;enable-background:accumulate" d="m 277.70244,155.06232 c 2.15411,-1.98311 8.31351,-1.80181 10.43883,-0.0113 -1.32193,3.62757 -3.48805,2.622 -5.54176,2.56413 -2.21608,-0.17757 -4.52378,0.0266 -4.89707,-2.55286 z" id="path66488-3-4-9-4-8" transform="translate(0 -1.092)"/>
    <path id="path4721-3-3" d="m 279.22368,155.14934 c -0.38779,0.0714 -0.91909,-0.14358 -0.87662,-0.3532 3.3615,-1.58163 9.4636,-1.0046 9.62869,0.14568 0.0358,0.12586 -0.65223,0.41886 -1.05502,0.29711 -0.36534,0.18197 -0.75126,0 -0.93894,-0.0513 -0.0313,0.1544 -0.51481,0.31666 -0.89127,0.15973 -0.41927,0.2097 -1.57095,0.28758 -1.83299,0.13038 -0.52409,0.18341 -1.49528,0.18019 -1.75732,-0.0294 -0.18831,0.0527 -0.9211,0.0431 -1.17715,-0.15556 -0.35776,0.11621 -0.8572,0.0171 -1.09938,-0.14372 z" style="display:inline;overflow:visible;visibility:visible;fill:#f9f9f9;fill-opacity:1;fill-rule:evenodd;stroke:#cccccc;stroke-width:0.17109379;stroke-linecap:butt;stroke-linejoin:miter;stroke-miterlimit:4;stroke-dasharray:none;stroke-dashoffset:0;stroke-opacity:1;marker:none;enable-background:accumulate" transform="translate(0 -1.092)"/>
  </g>
  <g style="display:inline;enable-background:new" id="g66090">
    <path class="lowerlip" d="m 284.1444,156.70414 c -1.62782,-0.35331 -3.67931,0.33786 -4.60684,0.12101 -0.92779,-0.21711 -1.36053,-1.06913 -1.67317,-1.96503 -0.24468,-0.70118 -0.30227,-1.86798 -0.11958,-2.28467 0.75494,0.0526 0.2614,2.7815 2.19444,2.14863 0.67947,-0.22246 1.98247,-0.21968 3.09888,-0.2019 1.09273,0.0174 2.0015,0.0282 2.69416,0.21025 2.02748,0.53292 2.00284,-2.262 2.51311,-2.12908 0.49903,0.68039 -0.22563,2.41593 -0.23727,2.45556 -0.57433,1.95711 -2.30246,1.98406 -3.86373,1.64523 z" style="display:inline;fill:#ff0000;fill-rule:evenodd;stroke:#800000;stroke-width:0.38534227px;stroke-linecap:butt;stroke-linejoin:miter;stroke-opacity:1" transform="translate(0 .926)"/>
    <path class="lowerlip-shadow" d="m 287.53949,154.82221 c -0.11495,0.0228 -0.2754,0.0307 -0.55813,-0.0259 0.31697,0.16024 0.43069,0.16358 0.49261,0.18227 -0.009,0.4243 -0.20943,0.78559 -0.80684,0.90083 0.37584,-0.0862 0.36448,-0.76563 0.2646,-0.94054 3.9e-4,0.53242 -1.76025,0.13151 -2.49864,-0.22839 0.11752,0.089 0.55758,0.52438 0.89277,0.71389 -0.41846,0.18188 -1.34652,0.0301 -2.40248,-0.13393 -2.3757,-0.36911 -3.18983,-0.0189 -3.94477,-0.19046 0.006,0.0273 0.0345,0.15711 0.0331,0.28565 -0.21902,-0.14665 -0.28947,-0.25414 -0.3222,-0.34022 0.007,0.0949 0.0499,0.18108 0.0707,0.2062 -0.094,-0.0326 -0.12087,-0.10786 -0.15511,-0.23595 -0.0164,0.0732 -0.0516,0.14715 -0.0447,0.21886 -0.0622,-0.15938 -0.0518,-0.24752 -0.0531,-0.3116 -0.0431,0.0883 -0.0525,0.20228 -0.0557,0.31217 -0.0806,-0.14248 -0.12624,-0.27413 -0.0543,-0.33553 -8.6e-4,0.0344 0.006,0.0817 0.008,0.12512 -3.2e-4,-0.0786 0.0452,-0.18722 0.11546,-0.22629 -0.006,0.0704 -0.0356,0.096 0.0441,0.17078 -0.0353,-0.1005 -0.0346,-0.19087 0.0366,-0.21163 0.0661,-0.019 0.2121,0.0443 0.32625,0.006 -0.3746,0.0425 -0.51379,-0.009 -1.05229,0.10512 0.0101,0.0793 0.035,0.0203 0.0499,0.0908 0.0815,0.004 0.15328,0.0161 0.17562,0.0528 0.0497,0.0813 0.38733,0.83735 1.14299,0.80004 -0.27675,0.15996 -0.59769,0.22202 -0.92141,0.18739 0.29481,0.41564 0.71522,0.72153 1.21461,0.83995 0.92757,0.21968 2.99199,-0.50768 4.61989,-0.13239 1.45361,0.33507 2.93941,0.3092 3.65579,-1.1172 -0.0291,-0.045 -0.0871,-0.11853 -0.12258,-0.19605 0.0196,0.0725 0.0166,0.16125 -4.7e-4,0.29068 0,0 -0.0584,-0.28976 -0.1016,-0.41425 0.0177,0.0782 0.11348,0.43925 0.037,0.57705 0,0 -0.0369,-0.15847 -0.0693,-0.22501 -0.0447,0.0814 -0.13151,0.20803 -0.22977,0.23922 0,0 0.0806,-0.20355 0.0707,-0.28401 -0.0765,0.12034 -0.12298,0.23799 -0.29379,0.26917 0.16419,-0.19864 0.32402,-0.48524 0.34938,-0.59362 0.0254,-0.10836 0.0439,-0.19559 0.063,-0.19471 0.0191,0.001 0.001,0.18238 -0.0753,0.34506 0.0613,-0.10267 0.0866,-0.14163 0.11874,-0.26654 0.0321,-0.12493 0.10847,-0.0915 0.15145,-0.16159 0.0339,0.0103 0.0718,0.0772 0.12098,0.26031 0.0211,-0.14226 0.0251,-0.21598 0.0188,-0.26403 -0.006,-0.0481 0.0367,-0.12589 0.0778,-0.153 -0.13264,-0.0154 -0.29944,0.0872 -0.38773,0.003 z m 0.38791,-0.003 c 0.0207,-0.0136 0.0592,-0.003 0.0784,0.0269 -0.003,-0.008 0.006,-0.0272 4.3e-4,-0.031 -0.0212,-0.006 -0.0418,0.008 -0.0789,0.004 z" style="color:#000000;display:inline;overflow:visible;visibility:visible;fill:#d40000;stroke:none;marker:none;enable-background:accumulate" transform="translate(0 .926)"/>
  </g>
  <path style="display:inline;fill:#d40000;fill-rule:evenodd;stroke:#800000;stroke-width:0.38534227px;stroke-linecap:butt;stroke-linejoin:miter;stroke-opacity:1;enable-background:new" d="m 284.99227,153.01719 c -0.48432,-0.10124 -1.5535,0.31783 -2.10221,0.31873 -0.54874,9.2e-4 -2.26936,-0.4038 -2.56775,-0.31217 -0.29835,0.0917 -2.02554,0.66415 -3.03455,1.35612 0.3459,-0.97744 1.61098,-3.02178 3.34399,-3.03517 0.88664,-0.007 1.44684,0.5631 2.08244,0.5631 0.53117,0 1.46807,-0.7286 2.30978,-0.68018 1.3587,0.0781 3.16473,1.44983 3.80187,3.01329 -0.69731,-0.36701 -2.83072,-0.9959 -3.83357,-1.22372 z" class="upperlip"/>
  <path clip-path="url(#clipPath66115)" style="color:#000000;display:inline;overflow:visible;visibility:visible;fill:#aa0000;stroke:none;marker:none;enable-background:accumulate" d="m 284.40625,153.56585 c -0.0343,0.23565 -0.0625,0.47176 -0.0625,0.47176 0,0 -0.12495,0.36832 -0.15625,0.40436 -0.15282,0.28735 -0.17282,0.19701 -0.34375,0.31943 0.0213,-0.12975 0.1152,-0.21195 0.1875,-0.36032 -0.0417,0.0368 -0.18147,0.18231 -0.46875,0.36187 0.032,-0.0877 0.33575,-0.53264 0.34375,-0.68816 -0.0412,0.0699 -0.31848,0.51967 -0.5,0.63657 0.0426,-0.0989 0.16885,-0.37083 0.15625,-0.52512 -0.0519,0.10295 -0.25807,0.36358 -0.375,0.40543 0.0415,-0.0704 0.202,-0.36737 0.25,-0.64317 -0.37784,0.6206 -0.5999,0.43681 -0.6875,0.5127 0.019,-0.0267 0.0682,-0.0861 0.125,-0.13658 -0.18613,0.11625 -0.23255,-0.0618 -0.21875,-0.17969 -0.0219,0.0822 -0.12943,0.0679 -0.25,-0.0132 0.0277,0.0567 0.041,0.29841 -0.15625,0.30001 -0.19728,0.002 -0.22585,-0.24167 -0.28125,-0.37938 0.0897,0.55366 -0.111,0.46911 -0.1875,0.48826 -0.0765,0.0193 -0.30018,-0.11262 -0.40625,-0.24057 0.0386,0.0619 0.0625,0.14648 0.0625,0.14648 0,0 -0.1636,-0.0284 -0.25,-0.0512 0,0 0.0433,0.0539 0.0625,0.11239 -0.096,-0.0795 -0.23888,-0.30203 -0.375,-0.5866 0.0485,0.0922 0.19495,0.52199 0.28125,0.66444 0,0 -0.47823,-0.25368 -0.59375,-0.46685 0.029,0.0928 0.0806,0.18889 0.125,0.26058 -0.13194,-0.14527 -0.28429,-0.27896 -0.40625,-0.46049 0,0 0.12836,0.33834 0.28125,0.59186 -0.11473,-0.11941 -0.70698,-0.69852 -1,-1.17844 0.0851,0.15281 0.31183,0.89909 0.5924,1.23009 -0.0813,-0.0308 -0.59939,-0.26173 -0.94023,-0.98146 -0.004,0.12602 0.26089,0.88942 0.59586,1.12284 -0.20371,6.2e-4 -0.64645,-0.009 -0.79285,-0.48946 -0.0166,0.21811 -0.0712,0.72815 0.4457,0.83358 -0.75253,0.0955 -0.7293,-0.66818 -0.86795,-0.60737 0.28291,0.85405 0.37333,0.73526 0.41602,0.8222 -0.0649,-0.005 -0.12107,-0.083 -0.16677,-0.1724 -0.002,-0.006 -0.034,0.006 -0.0368,3e-4 -0.0226,0.0384 -0.27021,-0.0538 -0.36524,-0.43842 0.0351,0.21213 0.21979,0.53053 0.29919,0.59605 -0.0576,-0.005 -0.24574,-0.0437 -0.38948,-0.47807 0.0415,0.11551 0.1673,0.52361 0.26698,0.58712 -0.0831,-0.0347 -0.2917,-0.42577 -0.35765,-0.73992 0.018,0.20013 0.0559,0.40948 0.15399,0.59712 -0.0697,-0.0664 -0.12733,-0.10215 -0.19195,-0.35965 0.0251,0.11394 0.0591,0.37461 0.16832,0.51001 -0.0634,-0.0689 -0.18515,-0.066 -0.30229,-0.65459 0.0482,0.32115 0.21505,0.72968 0.35157,0.83197 -0.0683,-0.0333 -0.19023,-0.12129 -0.27785,-0.26998 0.0149,0.029 0.0214,0.0768 0.0374,0.0966 -0.0972,-0.0755 -0.24539,-0.41782 -0.38593,-0.69527 -0.12289,0.10941 -0.63357,1.49819 -0.79079,1.58098 1.47278,0.63561 2.98999,-1.36744 3.28834,-1.45924 0.29839,-0.0917 2.01376,0.32191 2.5625,0.32231 0.54871,4e-4 1.64068,-0.4335 2.125,-0.33211 0.48428,0.10134 3.07204,1.72914 3.86674,1.16149 -0.12629,-0.023 -0.4218,-0.42457 -0.60759,-0.51578 -0.007,-0.003 -0.0252,0.01 -0.0252,0.01 -0.022,0.13701 -0.0427,0.16491 -0.18886,0.20804 0,0 0.0615,-0.0775 0.055,-0.16844 -0.0221,0.056 -0.0827,0.11478 -0.1533,0.14417 0,0 0.0329,-0.0618 0.0238,-0.11237 0,0 -0.0845,0.0932 -0.12429,0.10439 0,0 0.0361,-0.0941 0.0618,-0.18349 0,0 -0.12098,0.15403 -0.19853,0.16694 0,0 0.13977,-0.15364 0.0928,-0.31593 -0.0104,0.074 -0.14024,0.25122 -0.2907,0.24617 0.0421,-0.016 0.0449,-0.0713 0.0774,-0.17622 -0.10259,0.0823 -0.12692,0.12117 -0.30976,0.0825 0.0236,-0.0226 0.11248,-0.0717 0.22687,-0.29415 -0.13996,0.16222 -0.32229,0.18874 -0.62025,0.12288 0.0695,0.005 0.4184,-0.0491 0.49553,-0.22278 -0.0538,0.123 -0.3421,0.15917 -0.67073,0.11516 0.0466,3.6e-4 0.41473,-0.19279 0.49588,-0.27081 -0.0256,0.036 -0.38407,0.0258 -0.55846,-0.0219 0,0 0.1089,-0.22001 0.11518,-0.32338 0,0 -0.39789,0.32017 -0.62118,0.25813 0.27606,-0.0754 0.42315,-0.15608 0.4711,-0.45763 -0.0816,0.21833 -0.40586,0.37202 -0.63779,0.38907 0.0843,-0.0425 0.2959,-0.22603 0.38063,-0.27825 -0.0271,0.0596 -0.37935,0.13247 -0.65703,0.20771 0.06,-0.042 0.58723,-0.39389 0.62352,-0.45342 -0.0684,0.0688 -0.40419,0.2062 -0.62808,0.28806 0,0 0.14935,-0.12552 0.21295,-0.22866 0,0 -0.34581,0.20218 -0.5944,0.34841 0,0 0.21444,-0.19028 0.30216,-0.29156 0,0 -0.20261,0.10219 -0.33395,0.17103 0,0 0.17336,-0.22593 0.22549,-0.30168 0,0 -0.37469,0.30383 -0.53799,0.40964 0.0308,-0.0777 0.0758,-0.21454 0.15625,-0.36278 0,0 -0.20016,0.2488 -0.34375,0.31002 0,0 0.16825,-0.22163 0.21875,-0.31349 -0.0507,0.0491 -0.3125,0.26956 -0.3125,0.26956 l 0.21875,-0.38158 c 0,0 -0.18917,0.27302 -0.375,0.3498 0.072,-0.0945 0.2227,-0.3328 0.3125,-0.50551 -0.0601,0.10436 -0.40544,0.47187 -0.5625,0.58864 0.0647,-0.25686 0.1402,-0.629 0.125,-0.99187 z" class="upperlip-shadow" transform="translate(0 -1.78)"/>
</svg>
