<?xml version="1.0" encoding="UTF-8" standalone="no"?>
<svg xmlns="http://www.w3.org/2000/svg" width="560" height="560" id="mouth_wonder">
  <path style="fill:#f9f9f9;stroke:none;stroke-width:0.32081631;" d="m 277.99828,154.48872 c 3.75328,-3.00838 7.15623,-1.75979 9.7449,-0.39762 -1.82646,2.06813 -3.2373,1.7159 -5.29101,1.65803 -2.21608,-0.17757 -3.30087,0.44762 -4.45389,-1.26041 z" id="path66488-3-4-9-4-4"/>
  <path style="fill:#f9f9f9;stroke:#cccccc;stroke-width:0.17109379;stroke-linecap:butt;stroke-linejoin:miter;stroke-miterlimit:4;stroke-dasharray:none;stroke-dashoffset:0;stroke-opacity:1;" d="m 278.73234,153.83369 c -0.38779,0.0714 -0.37727,-0.0352 -0.33481,-0.24485 1.36586,-1.01909 2.87215,-1.01728 4.50248,-0.95779 1.64591,0.0601 2.87488,0.0789 4.42387,1.04099 0.0358,0.12585 -0.4917,0.37298 -0.89449,0.25123 -0.36534,0.18198 -0.75126,0 -0.93894,-0.0513 -0.0313,0.1544 -0.51481,0.31666 -0.89127,0.15974 -0.41927,0.20969 -1.57095,0.28757 -1.83299,0.13037 -0.52409,0.18341 -1.49528,0.1802 -1.75732,-0.0294 -0.18831,0.0527 -0.9211,0.0431 -1.17715,-0.15556 -0.35776,0.11621 -0.8572,0.0171 -1.09938,-0.14372 z" id="path4721-3-2"/>
  <path class="lowerlip" style="fill:#ff0000;fill-rule:evenodd;stroke:#800000;stroke-width:0.38534227px;stroke-linecap:butt;stroke-linejoin:miter;stroke-opacity:1;enable-background:new" d="m 285.57662,156.72308 c -1.58821,0.76675 -4.32146,0.65037 -5.75415,-0.22246 -0.89499,-0.54525 -1.39809,-1.02194 -2.23927,-1.86787 0.0627,-0.18617 0.39859,-0.37483 0.69496,-0.43175 1.77351,-0.34062 2.26078,1.00711 4.43264,1.00711 2.19372,0 2.81433,-1.22738 4.18881,-1.16995 0.56288,-0.4428 0.93177,0.16479 1.31058,0.0985 -0.59468,0.93176 -1.46526,2.02236 -2.63357,2.5864 z"/>
  <path style="fill:#d40000;stroke:none;" d="m 287.14881,153.69198 c -0.3119,-0.0422 -0.64498,-0.0835 -0.93139,-0.083 0.3205,0.10557 0.62839,0.17338 0.80295,0.2292 0.18827,0.52379 0.12364,0.961 -0.42158,1.31604 0.33774,-0.23981 0.4245,-0.91145 0.32414,-1.07898 -0.003,0.58495 -1.53107,0.91499 -2.25408,0.99763 0.11905,0.0654 0.39946,0.14038 0.60411,0.17139 -0.43125,0.38015 -1.38535,0.63208 -2.44131,0.46803 -2.3757,-0.36911 -3.16203,-0.94136 -3.73321,-1.56231 -0.0125,0.0544 -0.0666,0.30674 -0.0907,0.47333 -0.1836,-0.26661 -0.19093,-0.47278 -0.17748,-0.62974 -0.0503,0.17436 -0.044,0.32235 -0.032,0.36537 -0.0854,-0.0687 -0.0839,-0.18962 -0.0575,-0.40874 -0.0624,0.13198 -0.13974,0.25583 -0.15246,0.35788 -0.0235,-0.23035 0.0381,-0.38474 0.0636,-0.48639 -0.0995,0.15623 -0.15871,0.33705 -0.18397,0.47992 -0.0606,-0.1905 -0.0903,-0.35462 0.0335,-0.47282 -0.0128,0.0508 -0.0188,0.11884 -0.0316,0.18223 0.0255,-0.11509 0.13318,-0.3001 0.24432,-0.38064 -0.0257,0.0993 -0.0752,0.14437 -0.003,0.2488 0.002,-0.16024 0.0253,-0.28484 0.1237,-0.32812 0.0914,-0.0402 0.27666,-0.11617 0.39081,-0.15401 -0.3746,0.0425 -0.81387,0.38856 -1.3508,0.47788 0.01,0.0813 0.0351,0.0222 0.0496,0.0955 0.0817,0.009 0.16012,0.0199 0.18213,0.0605 0.0489,0.09 0.37545,0.91232 1.11367,1.14529 -0.27087,0.0688 -0.58532,0.0303 -0.90457,-0.0736 0.29003,0.48965 0.70247,0.91914 1.19128,1.20164 1.11786,0.73442 2.95863,1.14649 4.61252,0.90902 1.46203,-0.20992 2.97376,-1.07779 3.69158,-2.60356 -0.0304,-0.0437 -0.0973,-0.11634 -0.15745,-0.20189 0.0385,0.0799 0.0441,0.17482 0.0311,0.3117 0,0 -0.0918,-0.30397 -0.22074,-0.4614 0.0645,0.0973 0.23488,0.48546 0.15736,0.63829 0,0 -0.0432,-0.15979 -0.0947,-0.23106 -0.0389,0.0937 -0.11884,0.24296 -0.2228,0.29514 0,0 0.0521,-0.23983 4.5e-4,-0.33842 -0.0523,0.15027 -0.0733,0.29117 -0.25598,0.3658 0.11757,-0.27093 0.16815,-0.64436 0.12971,-0.78721 -0.0384,-0.14284 -0.0509,-0.24878 10e-4,-0.23741 0.052,0.0114 0.1204,0.23564 0.0939,0.43924 0.0393,-0.12684 0.0641,-0.17106 0.0647,-0.31757 5.3e-4,-0.14653 0.18927,-0.0754 0.25377,-0.14224 0.0644,0.0199 0.14333,0.10229 0.22003,0.29661 0.0131,-0.14982 0.013,-0.22629 3.3e-4,-0.27729 -0.0128,-0.0511 0.0432,-0.12662 0.0942,-0.15069 -0.16784,-0.0271 -0.42259,-0.0741 -0.75734,-0.11931 z m 0.75734,0.11931 c 0.0256,-0.0121 0.0717,5.8e-4 0.0938,0.0323 -0.004,-0.008 0.006,-0.0271 0,-0.0312 -0.024,-0.007 -0.047,0.006 -0.0938,-0.001 z" id="lowerlip-shadow"/>
  <path style="fill:#ffffff;fill-rule:evenodd;stroke:none;enable-background:new" d="m 285.49681,152.3078 c 0.30094,0.0669 0.76826,0.22452 1.25436,0.61967 -0.47826,-0.26279 -0.95754,-0.0351 -1.23384,-0.0758 -0.39426,-0.0581 -1.05276,-0.23523 -0.89095,-0.43555 0.29579,-0.36625 0.47555,-0.19609 0.87043,-0.1083 z" id="path80128"/>
  <path class="upperlip" d="m 284.8173,153.30701 c -0.48476,-0.0991 -1.58849,0.28283 -2.1372,0.28373 -0.54874,9.2e-4 -1.37568,-0.46001 -2.42778,-0.24218 -0.80834,0.16736 -1.91942,0.86996 -2.99712,1.388 0.86298,-0.9339 1.67748,-2.65952 3.37377,-2.75859 0.86785,-0.0508 1.34464,0.4646 1.98024,0.4646 0.53117,0 1.57305,-0.62361 2.41476,-0.57519 1.3587,0.0781 2.5846,1.48762 3.53299,2.53629 -1.05781,-0.46872 -2.24328,-0.79085 -3.73966,-1.09666 z" style="fill:#d40000;fill-rule:evenodd;stroke:#800000;stroke-width:0.38534227px;"/>
  <path style="fill:#aa0000;stroke:none;" d="M 279.57227 152.29102 C 279.571 152.29171 279.56962 152.29228 279.56836 152.29297 C 279.65952 152.44588 279.96415 152.99492 280.20312 153.31445 C 280.13732 153.27721 279.70101 153.03822 279.24805 152.50391 C 279.26877 152.60185 279.68653 153.122 279.95703 153.38086 C 279.80688 153.34326 279.48167 153.24819 279.21484 152.9375 C 279.25555 153.06588 279.35859 153.33221 279.6582 153.54102 C 279.86739 153.45711 280.0697 153.38539 280.25195 153.34766 C 281.30405 153.12983 282.13095 153.59076 282.67969 153.58984 C 283.2284 153.58894 284.33165 153.20754 284.81641 153.30664 C 284.8667 153.31692 284.90352 153.32952 284.95312 153.33984 C 284.98434 153.26729 285.02845 153.1498 285.10742 153.02344 C 285.10742 153.02344 284.90305 153.23584 284.75781 153.27734 C 284.75781 153.27734 284.92907 153.08492 284.98047 153.00391 C 284.92907 153.04431 284.66406 153.22266 284.66406 153.22266 L 284.88672 152.88672 C 284.88672 152.88672 284.69371 153.12324 284.50586 153.17578 C 284.57886 153.09348 284.73261 152.8853 284.82422 152.73438 C 284.76302 152.82487 284.4127 153.13244 284.25391 153.22852 C 284.32001 152.98864 284.39727 152.64682 284.38477 152.31641 C 284.34837 152.52691 284.31836 152.74414 284.31836 152.74414 C 284.31836 152.74414 284.19186 153.07615 284.16016 153.10742 C 284.12856 153.13862 284.00399 153.28925 283.8125 153.38477 C 283.8342 153.26029 283.92847 153.1889 284.00195 153.05469 C 283.95975 153.08589 283.81835 153.20889 283.5293 153.36719 C 283.5617 153.28379 283.86987 152.88331 283.87891 152.74023 C 283.83701 152.80173 283.55556 153.20548 283.37305 153.31055 C 283.41605 153.21685 283.54298 152.96416 283.53125 152.82031 C 283.47845 152.91311 283.27163 153.15049 283.1543 153.1875 C 283.1961 153.1212 283.358 152.84513 283.4082 152.5957 C 283.02446 153.14551 282.80467 152.98786 282.7168 153.06055 C 282.7359 153.03505 282.78468 152.97887 282.8418 152.93164 C 282.65505 153.0404 282.61046 152.87467 282.625 152.76562 C 282.6026 152.84193 282.49468 152.82977 282.375 152.75977 C 282.4023 152.81107 282.41519 153.03551 282.21875 153.04688 C 282.02228 153.05857 281.99364 152.83407 281.93945 152.71094 C 282.02505 153.21492 281.82799 153.1589 281.75195 153.18359 C 281.67595 153.20839 281.45416 153.1019 281.34961 152.99219 C 281.38761 153.04659 281.41016 153.125 281.41016 153.125 C 281.41016 153.125 281.2476 153.11532 281.16211 153.10352 C 281.16211 153.10352 281.20581 153.1492 281.22461 153.20312 C 281.12981 153.13763 280.98868 152.943 280.85547 152.69336 C 280.90297 152.77376 281.04582 153.16172 281.13086 153.28906 C 281.13086 153.28906 280.65832 153.10378 280.54492 152.91602 C 280.57322 153.00032 280.6243 153.08537 280.66797 153.14844 C 280.53792 153.02592 280.38752 152.91712 280.26758 152.75977 C 280.26758 152.75977 280.39438 153.06578 280.54492 153.29102 C 280.43315 153.19167 279.86511 152.72231 279.57227 152.29102 z M 286.18164 152.91211 C 286.11724 152.97931 285.8352 153.17032 285.64258 153.27734 C 285.64258 153.27734 285.77377 153.13996 285.83398 153.04102 C 285.83398 153.04102 285.54063 153.28662 285.29492 153.40625 C 285.29492 153.40625 285.4989 153.22821 285.58008 153.12891 C 285.58008 153.12891 285.39661 153.23753 285.26367 153.28711 C 285.26367 153.28711 285.43563 153.08332 285.48633 153.01367 C 285.48633 153.01367 285.13461 153.25299 284.96289 153.3418 C 286.38407 153.6379 287.5369 153.95245 288.55664 154.4043 C 288.4681 154.3064 288.36474 154.19852 288.27148 154.0957 C 288.07563 153.90793 287.868 153.70303 287.75 153.625 C 287.742 153.62 287.72635 153.62981 287.71875 153.625 C 287.68155 153.73772 287.65339 153.7543 287.49805 153.7793 C 287.49805 153.7793 287.5631 153.70834 287.5625 153.62695 C 287.5342 153.67265 287.46732 153.71917 287.39648 153.74609 C 287.39648 153.74609 287.43013 153.68684 287.42383 153.64062 C 287.42383 153.64062 287.33659 153.72723 287.29883 153.74023 C 287.29883 153.74023 287.33389 153.64634 287.36719 153.57031 C 287.36719 153.57031 287.24079 153.71293 287.17188 153.73633 C 287.17188 153.73633 287.30527 153.57537 287.28125 153.44922 C 287.26185 153.50802 287.12824 153.67389 287.00391 153.70312 C 287.03891 153.67792 287.04063 153.62393 287.07812 153.5293 C 286.98152 153.6157 286.95999 153.65683 286.81836 153.67383 C 286.83706 153.64503 286.90011 153.55988 287.0293 153.36914 C 286.88574 153.51701 286.7429 153.59757 286.52539 153.64062 C 286.57629 153.62092 286.84581 153.45954 286.93555 153.3125 C 286.87275 153.41651 286.63916 153.52343 286.40039 153.59961 C 286.43439 153.58321 286.73148 153.30384 286.81055 153.22852 C 286.78395 153.26092 286.49823 153.34499 286.36914 153.35742 C 286.36914 153.35742 286.47658 153.14758 286.49609 153.06836 C 286.49609 153.06836 286.15799 153.44681 285.99023 153.45508 C 286.20275 153.3039 286.31819 153.18796 286.40039 152.95312 C 286.30239 153.13317 286.045 153.36198 285.86328 153.4375 C 285.93038 153.3762 286.10699 153.16052 286.17969 153.09766 C 286.15199 153.15236 285.87606 153.31513 285.64258 153.43164 C 285.69358 153.38204 286.14467 152.96562 286.18164 152.91211 z M 278.87305 153.09766 C 279.35505 153.51322 279.38127 153.58308 279.40625 153.65039 C 279.47544 153.61941 279.5482 153.58222 279.61523 153.55469 C 279.1892 153.41604 278.98523 153.05066 278.87305 153.09766 z M 278.7793 153.24609 C 278.88527 153.36914 279.13666 153.58426 279.21289 153.64453 C 279.16329 153.63553 279.0159 153.57064 278.7168 153.33398 C 278.8 153.39618 279.02576 153.67216 279.12109 153.73047 C 279.04349 153.69757 278.74471 153.43532 278.56055 153.26562 C 278.64915 153.3805 278.76404 153.49365 278.90234 153.62305 C 278.81714 153.58175 278.75069 153.56284 278.5918 153.42188 C 278.6579 153.48538 278.77149 153.64696 278.90234 153.74609 C 278.82754 153.69669 278.72063 153.6971 278.375 153.38086 C 278.53319 153.55005 278.78839 153.77108 278.93164 153.87305 C 279.09134 153.79271 279.24316 153.72431 279.39453 153.65625 C 279.35551 153.62519 279.31696 153.5842 279.27539 153.52734 C 279.27239 153.52234 279.24744 153.53039 279.24414 153.52539 C 279.23184 153.55309 279.00551 153.464 278.7793 153.24609 z M 278.18359 153.58984 C 277.91243 153.93362 277.65239 154.25772 277.4043 154.55078 C 277.45101 154.56796 277.49681 154.57466 277.54297 154.58789 C 278.00987 154.35233 278.4789 154.10317 278.91992 153.88086 C 278.84683 153.84915 278.74467 153.80255 278.62305 153.73242 C 278.64755 153.74902 278.66295 153.78598 278.68555 153.79688 C 278.5936 153.77735 278.37729 153.67664 278.18359 153.58984 z" id="upperlip-shadow"/>
</svg>
