<?xml version="1.0" encoding="UTF-8" standalone="no"?>
<svg xmlns="http://www.w3.org/2000/svg" width="560" height="560" id="mouth_melancholy">
  <path style="display:inline;fill:#ff0000;fill-rule:evenodd;stroke:#800000;stroke-width:0.38534227px;stroke-linecap:butt;stroke-linejoin:miter;stroke-opacity:1;enable-background:new" d="m 284.12956,156.13607 c -0.61248,0.13712 -2.03255,0.0934 -3.28447,-0.13143 -0.96703,-0.17368 -2.12661,-1.31389 -2.05923,-2.17792 0.90255,-0.54423 0.62945,-0.38433 1.10159,-0.60472 0.25396,-0.11854 1.14882,0.39007 2.56991,0.34616 1.42108,-0.044 2.74676,0.19084 3.29611,-0.09 0.54938,-0.28074 1.30062,0.22788 1.23793,0.28343 -0.75385,1.17119 -1.39922,2.04704 -2.86184,2.37448 z" id="lowerlip"/>
  <path style="color:#000000;display:inline;overflow:visible;visibility:visible;fill:#d40000;stroke:none;marker:none;enable-background:accumulate" d="M 279.52344 153.39062 C 279.52244 153.39114 279.52053 153.39205 279.51953 153.39258 C 279.34012 153.51387 279.16124 153.81326 278.79688 153.96875 C 278.81792 154.28749 278.98108 154.62778 279.23242 154.94336 C 279.29399 154.97575 279.36137 155.00048 279.44336 155.00195 C 279.40469 155.02573 279.3621 155.03073 279.32227 155.04883 C 279.73425 155.52007 280.31571 155.90872 280.8457 156.00391 C 281.11387 156.05207 281.39006 156.0876 281.66406 156.11914 C 282.49298 156.07938 283.36672 156.02897 284.02344 156.14062 C 284.03567 156.1427 284.04645 156.14255 284.05859 156.14453 C 284.07804 156.1408 284.11084 156.14076 284.12891 156.13672 C 285.05384 155.92965 285.64109 155.48404 286.14648 154.90234 C 286.14808 154.87737 286.15921 154.68544 286.10938 154.58984 C 286.07418 154.72915 286.07243 154.8653 285.92773 154.9082 C 285.98993 154.66438 286.01858 154.30968 285.98828 154.16797 C 285.95798 154.02628 285.95495 153.92296 285.99805 153.93945 C 286.04125 153.95605 286.08977 154.17955 286.07227 154.37305 C 286.10317 154.25517 286.12291 154.21389 286.12891 154.07227 C 286.13491 153.9306 286.30402 154.01492 286.36914 153.95312 C 286.42844 153.97633 286.49564 154.06267 286.57227 154.25781 C 286.58517 154.11044 286.58918 154.03332 286.58008 153.98242 C 286.57008 153.93142 286.63333 153.85938 286.6875 153.83594 C 286.519 153.80704 285.72686 153.71387 285.99805 153.67578 C 285.83329 153.63052 285.70044 153.58872 285.55859 153.54492 C 285.53105 153.55221 285.50431 153.56042 285.47461 153.56641 C 285.62212 153.6565 285.77944 153.75007 285.87695 153.80273 C 285.98222 154.32294 285.95877 154.7544 285.58789 154.98438 C 285.81474 154.8227 285.85499 154.18825 285.7832 154.01562 C 285.754 154.56886 284.58391 154.42593 284.0918 154.13477 C 284.1697 154.21557 284.45869 154.61027 284.68164 154.75195 C 284.43543 155.00634 283.81377 155.4746 282.75781 155.31055 C 280.38211 154.94144 279.83966 154.52176 279.51758 154.10547 C 279.50758 154.15867 279.45426 154.40366 279.4082 154.56055 C 279.3317 154.36854 279.34567 154.17746 279.35547 154.02734 C 279.32217 154.20227 279.30619 154.33655 279.30859 154.37305 C 279.26009 154.33035 279.28203 154.2183 279.29883 154.00586 C 279.25823 154.14385 279.19167 154.27649 279.16797 154.37305 C 279.18337 154.16556 279.22383 154.00475 279.23633 153.90234 C 279.17643 154.07148 279.11917 154.25216 279.07812 154.38867 C 279.06043 154.22337 279.04566 154.07235 279.13086 153.9375 C 279.12386 153.9887 279.11932 154.05486 279.10742 154.11719 C 279.13062 154.00363 279.19823 153.80493 279.26172 153.70508 C 279.25672 153.80654 279.22714 153.86102 279.27734 153.94531 C 279.27434 153.79259 279.27272 153.6678 279.32812 153.60547 C 279.37531 153.55283 279.46046 153.45519 279.52344 153.39062 z M 286.6875 153.83594 C 286.7148 153.82424 286.76095 153.83536 286.78125 153.86719 C 286.77825 153.85919 286.79116 153.83994 286.78516 153.83594 C 286.76076 153.82894 286.7344 153.84198 286.6875 153.83398 L 286.6875 153.83594 z M 286.24023 154.25195 C 286.27479 154.31062 286.34797 154.46842 286.39648 154.61914 C 286.40138 154.61273 286.40723 154.608 286.41211 154.60156 C 286.37368 154.50683 286.32788 154.37404 286.24023 154.25195 z M 286.41992 154.41406 C 286.43887 154.45257 286.4374 154.51347 286.44531 154.56055 C 286.45976 154.5412 286.47391 154.51765 286.48828 154.49805 C 286.46338 154.46776 286.44456 154.44964 286.41992 154.41406 z M 286.31641 154.65625 C 286.30677 154.6865 286.28975 154.72387 286.27344 154.75977 C 286.29284 154.73581 286.31479 154.71582 286.33398 154.69141 C 286.32569 154.67718 286.3246 154.66744 286.31641 154.65625 z" id="lowerlip-shadow"/>
  <path style="display:inline;fill:#d40000;fill-rule:evenodd;stroke:#800000;stroke-width:0.38534227px;stroke-linecap:butt;stroke-linejoin:miter;stroke-opacity:1;enable-background:new" d="m 284.71949,153.79692 c -0.70839,0.0582 -1.28072,0.31783 -1.82943,0.31873 -0.54874,9.2e-4 -1.2801,-0.11808 -2.12139,-0.28737 -0.73899,-0.14871 -1.65078,-0.041 -2.15577,0.0561 0.71919,-0.55109 1.05217,-0.83424 2.05534,-1.10308 0.85645,-0.22952 1.55632,0.27116 2.19192,0.27116 0.53117,0 1.37239,-0.54755 2.2003,-0.38824 0.88472,0.17024 1.33516,0.62398 1.88995,1.06153 -0.74438,-0.0156 -1.6856,0.0263 -2.23092,0.0712 z" id="upperlip"/>
  <path style="color:#000000;display:inline;overflow:visible;visibility:visible;fill:#aa0000;stroke:none;marker:none;enable-background:accumulate" d="M 280.49023 152.87891 C 280.49023 152.87891 280.61255 153.21942 280.74609 153.47656 C 280.64584 153.35444 280.51167 153.11212 280.38867 153.01367 C 280.46807 153.16755 280.46521 153.34442 280.44531 153.44727 C 280.33435 153.37217 280.37019 153.20611 280.28711 153.06641 C 280.30591 153.16666 280.25541 153.41452 280.38281 153.59961 C 280.24933 153.53811 280.17539 153.43214 280.04883 153.26172 C 280.09273 153.41021 280.09431 153.49596 280.17969 153.60156 C 280.08979 153.55526 280.01039 153.37636 279.95898 153.33984 C 279.98598 153.41514 279.98944 153.43023 280.02344 153.52148 C 279.97904 153.49868 279.88653 153.45392 279.83789 153.37305 C 279.83489 153.36805 279.7883 153.4474 279.8125 153.48438 C 279.8011 153.51108 279.7296 153.43528 279.6875 153.39648 C 279.7118 153.46278 279.68295 153.47312 279.75195 153.54297 C 279.70665 153.52837 279.6752 153.4449 279.59766 153.41797 C 279.59266 153.45977 279.64777 153.50294 279.66797 153.54883 C 279.62447 153.53843 279.56116 153.4811 279.54297 153.4707 C 279.54797 153.507 279.53578 153.52077 279.55078 153.54688 C 279.51458 153.52877 279.48909 153.5313 279.46289 153.5 C 279.46189 153.537 279.49901 153.59301 279.57227 153.73242 C 279.49957 153.67572 279.39851 153.57508 279.38477 153.51953 C 279.36707 153.57423 279.39052 153.6862 279.41602 153.74414 C 279.35382 153.70974 279.29575 153.62372 279.28906 153.55664 C 279.31206 153.57504 279.24054 153.59684 279.21094 153.64844 C 279.14493 153.6284 279.05446 153.64469 278.94531 153.64648 C 278.83437 153.73005 278.7432 153.78521 278.61328 153.88477 C 279.0547 153.79989 279.80255 153.71571 280.47852 153.79297 C 280.49113 153.78559 280.51409 153.75952 280.52539 153.75586 C 280.77739 153.67429 282.19471 154.0738 282.7832 154.10547 C 282.8142 154.10614 282.85679 154.11526 282.88672 154.11523 C 282.88784 154.11523 282.88951 154.11524 282.89062 154.11523 C 283.42777 154.10472 284.33594 153.65562 284.70312 153.73828 C 284.72742 153.74375 284.80161 153.77825 284.83789 153.79102 C 285.39289 153.74918 286.24937 153.71185 286.95117 153.72656 C 286.89785 153.68451 286.84484 153.64756 286.79297 153.60547 C 286.7643 153.62456 286.72893 153.63549 286.66602 153.65039 C 286.66602 153.65039 286.69234 153.59285 286.71289 153.54492 C 286.70683 153.53999 286.70137 153.53422 286.69531 153.5293 C 286.6627 153.56402 286.62686 153.60201 286.58008 153.625 C 286.58008 153.625 286.61448 153.56293 286.61328 153.51758 C 286.61328 153.51758 286.53091 153.60776 286.49805 153.62305 C 286.49805 153.62305 286.53647 153.52827 286.57227 153.45117 C 286.57227 153.45117 286.45353 153.60032 286.39453 153.62891 C 286.39453 153.62891 286.48358 153.49533 286.5 153.37891 C 286.49635 153.37603 286.49193 153.37396 286.48828 153.37109 C 286.4481 153.44418 286.34935 153.57555 286.25781 153.61133 C 286.28831 153.58303 286.29388 153.52672 286.33398 153.42969 C 286.24578 153.52359 286.22434 153.56746 286.10938 153.59961 C 286.12658 153.56891 286.18255 153.47768 286.31055 153.27734 C 286.17545 153.43636 286.05454 153.53058 285.88086 153.60156 C 285.92226 153.57536 286.14969 153.38297 286.24023 153.22852 C 286.17673 153.33771 285.97661 153.46935 285.78516 153.57812 C 285.81286 153.55703 286.07314 153.24124 286.14648 153.1582 C 286.12098 153.1931 285.88363 153.30804 285.78125 153.33789 C 285.78125 153.33789 285.88859 153.11317 285.91406 153.03125 C 285.91406 153.03125 285.60779 153.45782 285.47852 153.49219 C 285.64834 153.31143 285.75145 153.17834 285.8457 152.94336 C 285.84519 152.9431 285.84426 152.94362 285.84375 152.94336 C 285.73885 153.13562 285.52571 153.39133 285.38477 153.49414 C 285.44047 153.42144 285.59611 153.17729 285.66016 153.10352 C 285.63236 153.16272 285.40046 153.36674 285.21484 153.52344 C 285.25694 153.46474 285.64565 152.97334 285.68164 152.91406 C 285.62214 152.99096 285.38267 153.22673 285.22656 153.36719 C 285.22656 153.36719 285.33757 153.20602 285.39453 153.0957 C 285.39453 153.0957 285.1459 153.39353 284.95117 153.55664 C 284.95117 153.55664 285.12018 153.34147 285.19141 153.22656 C 285.19141 153.22656 285.04101 153.36652 284.93555 153.43945 C 284.93555 153.43945 285.0813 153.20299 285.12695 153.12305 C 285.12695 153.12305 284.81987 153.4479 284.6875 153.55859 C 284.7153 153.48039 284.75827 153.34267 284.83203 153.19336 C 284.83203 153.19336 284.6593 153.44619 284.54297 153.51172 C 284.54297 153.51172 284.68633 153.28592 284.73242 153.19336 C 284.68912 153.24366 284.4707 153.4707 284.4707 153.4707 L 284.66602 153.08594 C 284.66602 153.08594 284.4993 153.36344 284.3457 153.44531 C 284.4081 153.34931 284.5438 153.10704 284.62891 152.93359 C 284.57281 153.03857 284.27241 153.41471 284.13867 153.53516 C 284.23097 153.38735 284.18819 153.19008 284.21289 153.01758 C 284.21289 153.01758 284.09194 153.38523 284.06445 153.42188 C 284.03705 153.45847 283.92987 153.6311 283.76367 153.74805 C 283.78447 153.61823 283.86712 153.53406 283.93359 153.38477 C 283.89679 153.42237 283.77701 153.5719 283.51758 153.75586 C 283.54738 153.66776 283.82542 153.21927 283.83789 153.06445 C 283.79939 153.13475 283.54419 153.58787 283.37695 153.70703 C 283.41705 153.60773 283.53538 153.33521 283.52734 153.18164 C 283.47794 153.28498 283.28442 153.54699 283.17383 153.58984 C 283.21353 153.51914 283.36792 153.22078 283.41797 152.94531 C 283.05414 153.56812 282.8384 153.38527 282.75195 153.46094 C 282.77065 153.43424 282.81895 153.37471 282.875 153.32422 C 282.69147 153.44069 282.64484 153.26236 282.6582 153.14453 C 282.6368 153.22663 282.53219 153.21276 282.41602 153.13086 C 282.44282 153.18776 282.45471 153.42803 282.26758 153.42773 C 282.08047 153.42782 282.05459 153.1851 282.00195 153.04688 C 282.08975 153.6009 281.90024 153.51329 281.83008 153.53125 C 281.75988 153.54935 281.55675 153.41307 281.46094 153.2832 C 281.49594 153.3458 281.51758 153.43164 281.51758 153.43164 C 281.51758 153.43164 281.37173 153.3996 281.29492 153.375 C 281.29492 153.375 281.33446 153.42943 281.35156 153.48828 C 281.26616 153.40678 281.18536 153.16524 281.04297 152.98828 C 281.08797 153.08118 281.19148 153.42009 281.26758 153.56445 C 281.26758 153.56445 280.84726 153.30107 280.74219 153.08594 C 280.76929 153.17914 280.81625 153.27501 280.85547 153.34766 C 280.73914 153.19946 280.60287 153.06219 280.49023 152.87891 z" id="upperlip-shadow"/>
</svg>
