<?xml version="1.0" encoding="UTF-8" standalone="no"?>
<svg xmlns="http://www.w3.org/2000/svg" id="nose_default" width="560" height="560">
  <path id="path3072" d="M279.7 147c-.8.7-.8.7-.3 1.6.3.7 1.4.8 1.6 0-.2.2-1 .2-.8 0 0-.5 1.7-.2 1.7 0 0 .3 0 1 .6 1 .7 0 .8-.4.8-1 0-.2.7-.3 1-.3 1.2-.2 1.5.3.2.4.4.8 1.4.4 1.7-.5 0-.5.2-1.4-.5-2.2" style="fill:#ffd5d5;stroke:#de8787;stroke-width:0.25;stroke-linecap:round;stroke-linejoin:miter;stroke-miterlimit:4;stroke-opacity:1;stroke-dasharray:none;display:inline;enable-background:new"/>
  <path id="path3297-7-3-8" d="M284 147.4c.6-.5.3-1.2 0-1.7-.5-.6 0-2.4-.3-3.2 1.2 1 1 2.3 1.7 3 .7.7 1.5 1.7 1.4 2.5 0 .8-1 1-1.6 1 1-.7 2-1.5-.2-3 .5.5.6 1 .4 1 0 .2-.7 0-1.3.4z" style="fill:#f4c1c1;fill-opacity:1;fill-rule:evenodd;stroke:none;display:inline;enable-background:new"/>
</svg>
