<?xml version="1.0" encoding="UTF-8" standalone="no"?>
<svg xmlns="http://www.w3.org/2000/svg" id="pupils_human_sterness" width="560" height="560">
  <path id="path68394" d="M 275.34961 138.99023 A 0.45610803 0.45610803 0 0 0 275.25391 139.26953 A 0.45610803 0.45610803 0 0 0 275.70898 139.72656 A 0.45610803 0.45610803 0 0 0 276.16602 139.26953 A 0.45610803 0.45610803 0 0 0 276.08789 139.01562 C 275.85297 138.99416 275.6069 138.98461 275.34961 138.99023 z" style="fill:#000000;stroke:none"/>
  <path id="path68404" d="M 289.45898 138.58789 C 289.28143 138.59701 289.12147 138.61886 288.95898 138.63867 A 0.45610803 0.45610803 0 0 0 288.8457 138.94141 A 0.45610803 0.45610803 0 0 0 289.30078 139.39648 A 0.45610803 0.45610803 0 0 0 289.75781 138.94141 A 0.45610803 0.45610803 0 0 0 289.58984 138.58789 C 289.54797 138.58939 289.50004 138.58578 289.45898 138.58789 z" style="fill:#000000;stroke:none"/>
</svg>
