<?xml version="1.0" encoding="UTF-8" standalone="no"?>
<svg xmlns="http://www.w3.org/2000/svg" width="560" height="560" id="pupils_human_disgust">
  <path style="fill:#000000;stroke:none" d="M 275.49414 138.87695 C 275.48862 138.8772 275.4821 138.87864 275.47656 138.87891 A 0.45610803 0.45610803 0 0 0 275.25391 139.26953 A 0.45610803 0.45610803 0 0 0 275.70898 139.72656 A 0.45610803 0.45610803 0 0 0 276.16602 139.26953 A 0.45610803 0.45610803 0 0 0 275.95312 138.88477 C 275.80291 138.87923 275.65606 138.86959 275.49414 138.87695 z" id="path40699-22-2-83"/>
  <path style="fill:#000000;stroke:none" d="M 289.54492 138.55664 C 289.35084 138.57275 289.15974 138.59228 288.97461 138.62305 A 0.45610803 0.45610803 0 0 0 288.8457 138.94141 A 0.45610803 0.45610803 0 0 0 289.30078 139.39648 A 0.45610803 0.45610803 0 0 0 289.75781 138.94141 A 0.45610803 0.45610803 0 0 0 289.54492 138.55664 z" id="path40709-3-3-5"/>
</svg>
