<?xml version="1.0" encoding="UTF-8" standalone="no"?>
<svg xmlns="http://www.w3.org/2000/svg" id="pupils_neutral" width="560" height="560">
  <g id="g5662099" style="display:none;enable-background:new">
    <g id="g5523199" style="display:inline;enable-background:new">
      <path id="path5523399" d="M267 137.3l-1-1.7c-.5-1-2-3.2-2.5-2.4-.4.7 0 1.8 0 2.6-.2.8 0 2 .2 3.3.8 3.8 1.5 5 2.4 6.4 1 1.4 2.3 2 3 1" style="fill:#ffd5d5;stroke:#de8787;stroke-width:0.5;stroke-linecap:round;stroke-linejoin:round;stroke-miterlimit:4;stroke-opacity:1;stroke-dasharray:none"/>
      <path id="path5523599" d="M266.7 140c0 .8 0 1-.3 1-.2.4 0 1.5.2 1.8.3.4.2 1.2 0 1.2 0 0-.3 0-.3-.6 0-.8-1-.6-1.6-2.7-.3-1.7 0-2 .2-2s0-1.3-.3-1.6c0-.2-.4-.5-.6-.6v1.2c0 .4-.2 3.2.8 4.7 1 1.4 1.7 2.7 1.5 2.7-.2 0-1.5-2.2-2-3.4-.4-1.3-.8-3.2-1-4.5 0-1 .2-1.3.5-1.2.3 0 1 1.2 1.4 2 .3 1 .6 1 1 1.2.2 0 .4.4.3 1z" style="fill:#e9afaf;stroke:none"/>
    </g>
    <g id="g5523799" style="display:inline;enable-background:new">
      <path id="path5523999" d="M298 136.3l1.7-2.4c.5-.8 1-2 1.8-1.6.5.5 0 2 0 2.7.2.8.2 1.8 0 3-.6 3.6-1.3 4.7-2 6.2-1 1.5-2 2-2.8 1" style="fill:#ffd5d5;stroke:#de8787;stroke-width:0.5;stroke-linecap:round;stroke-linejoin:round;stroke-miterlimit:4;stroke-opacity:1;stroke-dasharray:none;stroke-dashoffset:0"/>
      <path id="path5524199" d="M298.5 139.2c0 .7.2.8.4 1 0 .2 0 1.3-.3 1.7-.3.2-.2 1 0 1 0 0 .3 0 .3-.7s1.2-.6 1.5-2.7c.3-1.7 0-2-.3-2-.2 0 0-1.3 0-1.6l.7-.7v1c0 .5.2 3.3-.7 4.8-1 1.7-1.7 3-1.4 3 0 0 1.3-2 1.7-3.4.4-1.2.7-3 .7-4.4 0-1.2-.2-1.5-.5-1.3-.3 0-1 1-1.3 2-.3 1-.7 1-1 1.2-.2 0-.4.5-.3 1.2z" style="fill:#e9afaf;stroke:none"/>
    </g>
  </g>
  <path id="path3222-9" d="M276 139.3a.5.5 0 1 1-1 0 .5.5 0 1 1 1 0z" style="color:#000000;fill:#000000;stroke:none;marker:none;visibility:visible;display:inline;overflow:visible;enable-background:new"/>
  <path id="path3265-50" d="M276 139.3h.4s.2.5 0 .5c-.3 0-.5 0-.5-.2 0 0-.3-.3 0-.3z" style="color:#000000;fill:#ffffff;stroke:none;marker:none;visibility:visible;display:inline;overflow:visible;enable-background:accumulate"/>
  <path id="path3267-0" d="M274.8 139.6v.3c-.3 0-.4-.4-.4-.5l.2-.4.2.5z" style="color:#000000;fill:#ffffff;stroke:none;marker:none;visibility:visible;display:inline;overflow:visible;enable-background:accumulate"/>
  <path id="path3222-9-0" d="M289 139a-.5.5 0 1 1 1 0-.5.5 0 1 1-1 0z" style="color:#000000;fill:#000000;stroke:none;marker:none;visibility:visible;display:inline;overflow:visible;enable-background:new"/>
  <path id="path3265-50-0" d="M289 139h-.3s-.3.4 0 .5c.2 0 .4-.2.5-.3v-.3z" style="color:#000000;fill:#ffffff;stroke:none;marker:none;visibility:visible;display:inline;overflow:visible;enable-background:accumulate"/>
  <path id="path3267-0-94" d="M290.3 139.2v.3c.2 0 .3-.2.3-.3 0 0 0-.4-.2-.4 0 0-.2.2 0 .4z" style="color:#000000;fill:#ffffff;stroke:none;marker:none;visibility:visible;display:inline;overflow:visible;enable-background:accumulate"/>
</svg>
