<?xml version="1.0" encoding="UTF-8" standalone="no"?>
<svg xmlns="http://www.w3.org/2000/svg" id="sockets_neutral" width="560" height="560">
  <g id="g5662099" style="display:none;enable-background:new">
    <g id="g5523199" style="display:inline;enable-background:new">
      <path id="path5523399" d="M267 137.3l-1-1.7c-.5-1-2-3.2-2.5-2.4-.4.7 0 1.8 0 2.6-.2.8 0 2 .2 3.3.8 3.7 1.5 4.8 2.4 6.3 1 1.4 2.2 2 2.8 1" style="fill:#ffd5d5;stroke:#de8787;stroke-width:0.5;stroke-linecap:round;stroke-linejoin:round;stroke-miterlimit:4;stroke-opacity:1;stroke-dasharray:none"/>
      <path id="path5523599" d="M266.7 140c0 .8 0 1-.3 1-.2.4 0 1.5.2 1.8.3.4.2 1.2 0 1.2 0 0-.3 0-.3-.6 0-.8-1-.6-1.6-2.7-.3-1.7 0-2 .2-2s0-1.3-.2-1.6c0-.3-.4-.6-.6-.7-.2 0-.2.8 0 1.2 0 .4-.3 3.2.7 4.7 1 1.4 1.7 2.7 1.5 2.7-.2 0-1.5-2.2-2-3.4-.4-1.3-.8-3.2-1-4.5 0-1.2.2-1.4.5-1.3.3 0 1 1.2 1.4 2 .3 1 .6 1 1 1.2.2 0 .4.4.3 1z" style="fill:#e9afaf;stroke:none"/>
    </g>
    <g id="g5523799" style="display:inline;enable-background:new">
      <path id="path5523999" d="M298 136.3l1.7-2.4c.5-.7 1-2 1.8-1.5.5.5 0 2 0 2.7.2.7.2 1.7 0 2.8-.6 3.7-1.3 4.8-2 6.3-1 1.5-2 2-2.8 1" style="fill:#ffd5d5;stroke:#de8787;stroke-width:0.5;stroke-linecap:round;stroke-linejoin:round;stroke-miterlimit:4;stroke-opacity:1;stroke-dasharray:none;stroke-dashoffset:0"/>
      <path id="path5524199" d="M298.5 139.2c0 .7.2.8.4 1 0 .2 0 1.3-.2 1.7-.3.3-.2 1 0 1 0 0 .3.2.3-.6s1.2-.6 1.5-2.7c.3-1.7 0-2-.3-2-.2 0 0-1.3 0-1.6l.7-.7v1c0 .5.3 3.3-.6 4.8-1 1.6-1.7 3-1.4 3 .2 0 1.4-2.2 1.8-3.5.4-1.2.7-3 .7-4.4 0-1.2-.2-1.5-.5-1.3-.2 0-1 1.2-1.2 2-.3 1-.7 1-1 1.3-.2 0-.4.5-.3 1.2z" style="fill:#e9afaf;stroke:none"/>
    </g>
  </g>
  <path id="path2987-30" d="M278.3 139.6s-.7-.8-1.2-1c-1-.7-2.3-1.2-3.5-.8-.6.2-1 .7-1.7 1.5.7-.7 1-1 1.8-1.4.8-.4 2.7-.3 4 1l.6.8c.4.8.8.7 0-.2z" style="color:#000000;fill:#e9afaf;fill-opacity:1;stroke:none;marker:none;visibility:visible;display:inline;overflow:visible;enable-background:accumulate"/>
  <path id="path2987-30-0" d="M286.6 139.3c.2-.2.8-1 1.3-1.2.8-.5 2.2-1 3.5-.6.6.2 1 .7 1.7 1.5-.8-.7-1-1.2-1.8-1.5-1-.2-2.8 0-4 1.2-.3.3-.5.5-.6.8-.4.7-.8.6-.2-.2z" style="color:#000000;fill:#e9afaf;fill-opacity:1;stroke:none;marker:none;visibility:visible;display:inline;overflow:visible;enable-background:accumulate"/>
</svg>
