<?xml version="1.0" encoding="UTF-8" standalone="no"?>
<svg xmlns="http://www.w3.org/2000/svg" id="veil_al-amira_2_of_2" width="560" height="560">
  <g id="g56620" style="display:none;enable-background:new">
    <g id="g55231" style="display:inline;enable-background:new">
      <path id="path55233" d="M267 137.3l-1-1.7c-.5-1-2-3.2-2.5-2.4-.4.7 0 1.8 0 2.6-.2.8 0 2 .2 3.3.8 3.8 1.5 5 2.4 6.4 1 1.4 2.3 2 3 1" style="stroke-dasharray: none; stroke-opacity: 1; stroke-miterlimit: 4; stroke-linejoin: round; stroke-linecap: round; stroke-width: 0.5; stroke: #c0a0a1; fill: #F0C8C9;"/>
      <path id="path55235" d="M266.7 140c0 .8 0 1-.3 1-.2.4 0 1.5.2 1.8.3.4.2 1.2 0 1.2 0 0-.3 0-.3-.6 0-.8-1-.6-1.6-2.7-.3-1.7 0-2 .2-2s0-1.3-.3-1.6c0-.2-.4-.5-.6-.6v1.2c0 .4-.2 3.2.8 4.7 1 1.4 1.7 2.7 1.5 2.7-.2 0-1.5-2.2-2-3.4-.4-1.3-.8-3.2-1-4.5 0-1 .2-1.3.5-1.2.3 0 1 1.2 1.4 2 .3 1 .6 1 1 1.2.2 0 .4.4.3 1z" style="stroke: none; fill: #d3b0b1;"/>
    </g>
    <g id="g55237" style="display:inline;enable-background:new">
      <path id="path55239" d="M298 136.3l1.7-2.4c.5-.8 1-2 1.8-1.6.5.5 0 2 0 2.7.2.8.2 1.8 0 3-.6 3.6-1.3 4.7-2 6.2-1 1.5-2 2-2.8 1" style="stroke-dashoffset: 0; stroke-dasharray: none; stroke-opacity: 1; stroke-miterlimit: 4; stroke-linejoin: round; stroke-linecap: round; stroke-width: 0.5; stroke: #c0a0a1; fill: #F0C8C9;"/>
      <path id="path55241" d="M298.5 139.2c0 .7.2.8.4 1 0 .2 0 1.3-.3 1.7-.3.2-.2 1 0 1 0 0 .3 0 .3-.7s1.2-.6 1.5-2.7c.3-1.7 0-2-.3-2-.2 0 0-1.3 0-1.6l.7-.7v1c0 .5.2 3.3-.7 4.8-1 1.7-1.7 3-1.4 3 0 0 1.3-2 1.7-3.4.4-1.2.7-3 .7-4.4 0-1.2-.2-1.5-.5-1.3-.3 0-1 1-1.3 2-.3 1-.7 1-1 1.2-.2 0-.4.5-.3 1.2z" style="stroke: none; fill: #d3b0b1;"/>
    </g>
  </g>
  <path id="path4241" d="m 265.06889,146.10404 c -0.31745,9.00063 -3.24991,18.25125 -7.49981,21.00315 -4.24988,2.75191 -23.39543,3.07618 -26.50656,14.68707 -1.14731,4.28179 -1.89842,14.22262 -1.24998,20.01387 3.56605,5.2909 24.16058,7.87322 36.21623,12.52632 11.32542,4.37125 55.61665,-13.15491 67.42274,-8.76194 -0.49998,-8.75607 -7.04095,-16.98964 -9.13851,-19.16579 -3.44645,-3.5756 -15.61378,-8.72539 -19.11369,-11.72747 -3.4999,-3.00208 -4.59848,-9.57737 -4.38137,-15.57761 0.19922,-5.50609 -1.0019,-14.25988 -1.25189,-15.51074 -1.13055,-5.65695 -34.12744,-7.96985 -34.49716,2.51314 z" style="opacity:1;fill:#808080;fill-opacity:1;stroke:#4d4d4d;stroke-width:1;stroke-linecap:round;stroke-linejoin:round;stroke-miterlimit:4;stroke-dasharray:none;stroke-dashoffset:0;stroke-opacity:1"/>
  <path id="path4229" d="m 266.77373,147.25429 c 0,18.22062 1.9445,58.02297 14.14176,58.02297 12.19728,0 19.95933,-34.33112 18.73784,-62.44545 -0.70709,-16.27473 -32.8796,-19.98961 -32.8796,4.42248 z" style="opacity:1;fill:none;fill-opacity:1;stroke:#4d4d4d;stroke-width:0.5;stroke-linecap:round;stroke-linejoin:round;stroke-miterlimit:4;stroke-dasharray:none;stroke-dashoffset:0;stroke-opacity:1"/>
  <path id="path4231" d="m 299.65333,145.83909 c 0,15.74404 -5.12639,32.54948 -19.09138,43.34033" style="opacity:1;fill:none;fill-opacity:1;stroke:#4d4d4d;stroke-width:0.5;stroke-linecap:round;stroke-linejoin:round;stroke-miterlimit:4;stroke-dasharray:none;stroke-dashoffset:0;stroke-opacity:1"/>
  <path id="path4233" d="m 271.54658,204.74656 c -11.66695,-13.79814 -9.36892,-40.86373 -5.47994,-57.49227" style="opacity:1;fill:none;fill-opacity:1;stroke:#4d4d4d;stroke-width:0.5;stroke-linecap:round;stroke-linejoin:round;stroke-miterlimit:4;stroke-dasharray:none;stroke-dashoffset:0;stroke-opacity:1"/>
  <path id="path4235" d="m 265.35956,149.73088 c -2.47481,12.55985 -12.0205,27.95009 -12.90437,32.37257 -0.88385,4.42248 2.82836,16.45164 4.06576,19.63582" style="opacity:1;fill:none;fill-opacity:1;stroke:#4d4d4d;stroke-width:0.5;stroke-linecap:round;stroke-linejoin:round;stroke-miterlimit:4;stroke-dasharray:none;stroke-dashoffset:0;stroke-opacity:1"/>
  <path id="path4237" d="m 318.21438,182.63415 c -7.42441,7.42977 -28.28352,24.7659 -36.23825,26.18109" style="opacity:1;fill:none;fill-opacity:1;stroke:#4d4d4d;stroke-width:0.5;stroke-linecap:round;stroke-linejoin:round;stroke-miterlimit:4;stroke-dasharray:none;stroke-dashoffset:0;stroke-opacity:1"/>
  <path id="path4239" d="m 319.27502,186.70283 c -5.65671,6.01458 -31.5702,26.02653 -43.40469,25.42885 -4.59361,-0.23199 -7.70774,-4.71844 -10.82227,-8.24901 -3.57325,-4.05057 -7.99679,-13.81875 -7.64325,-20.36402 0.35355,-6.54528 5.12639,-17.15924 7.07088,-29.36528" style="opacity:1;fill:none;fill-opacity:1;stroke:#4d4d4d;stroke-width:0.5;stroke-linecap:round;stroke-linejoin:round;stroke-miterlimit:4;stroke-dasharray:none;stroke-dashoffset:0;stroke-opacity:1"/>
</svg>
